<svg width="32" height="268" viewBox="0 0 32 268" fill="none" xmlns="http://www.w3.org/2000/svg">
<g opacity="0.5">
<mask id="path-1-outside-1_944_22451" maskUnits="userSpaceOnUse" x="-1.00001" y="-1" width="34" height="271" fill="black">
<rect fill="white" x="-1.00001" y="-1" width="34" height="271"/>
<path d="M31 267.916L0.381998 257.374L0.381998 249.562L31 239.02L31 244.774L24.28 247.084L24.28 259.852L31 262.12L31 267.916ZM19.996 258.508L19.996 248.386L11.386 251.41L5.464 253.342L5.464 253.552L11.386 255.526L19.996 258.508ZM31 230.352L0.381997 230.352L0.381997 224.808L27.094 224.808L26.044 225.732L26.044 210.696L31 210.696L31 230.352ZM31 201.769L0.381996 201.769L0.381996 196.225L27.094 196.225L26.044 197.149L26.044 182.113L31 182.113L31 201.769ZM31.378 148.541C31.378 151.257 30.958 153.539 30.118 155.387C29.278 157.207 28.102 158.579 26.59 159.503C25.078 160.427 23.356 160.903 21.424 160.931L21.424 155.261C22.572 155.233 23.566 154.981 24.406 154.505C25.246 154.001 25.904 153.245 26.38 152.237C26.856 151.229 27.094 149.927 27.094 148.331C27.094 146.427 26.744 144.901 26.044 143.753C25.316 142.605 24.252 142.031 22.852 142.031C22.04 142.031 21.368 142.157 20.836 142.409C20.276 142.661 19.814 143.081 19.45 143.669C19.086 144.257 18.778 145.041 18.526 146.021C18.274 146.973 18.022 148.177 17.77 149.633C17.49 151.369 17.126 152.909 16.678 154.253C16.202 155.569 15.628 156.675 14.956 157.571C14.284 158.467 13.472 159.139 12.52 159.587C11.54 160.035 10.378 160.259 9.034 160.259C7.18599 160.259 5.58999 159.797 4.24599 158.873C2.90199 157.921 1.86599 156.577 1.13799 154.841C0.381994 153.105 0.00399341 151.033 0.0039933 148.625C0.0039932 146.245 0.381993 144.215 1.13799 142.535C1.89399 140.827 2.95799 139.511 4.32999 138.587C5.67399 137.663 7.24199 137.201 9.03399 137.201L9.03399 142.787C7.94199 142.843 7.04599 143.137 6.34599 143.669C5.61799 144.201 5.08599 144.915 4.74999 145.811C4.41399 146.679 4.24599 147.687 4.24599 148.835C4.24599 150.011 4.41399 151.033 4.74999 151.901C5.08599 152.741 5.56199 153.385 6.17799 153.833C6.76599 154.281 7.47999 154.505 8.31999 154.505C9.35599 154.505 10.154 154.253 10.714 153.749C11.246 153.217 11.666 152.377 11.974 151.229C12.282 150.053 12.59 148.541 12.898 146.693C13.122 145.377 13.402 144.103 13.738 142.871C14.074 141.611 14.578 140.491 15.25 139.511C15.894 138.503 16.79 137.705 17.938 137.117C19.058 136.529 20.514 136.235 22.306 136.235C24.098 136.235 25.68 136.697 27.052 137.621C28.424 138.545 29.488 139.917 30.244 141.737C31 143.557 31.378 145.825 31.378 148.541ZM31 125.946L0.381992 125.946L0.381992 113.22C0.381992 111.596 0.605991 110.112 1.05399 108.768C1.47399 107.424 2.11799 106.29 2.98599 105.366C3.82599 104.414 4.86199 103.686 6.09399 103.182C7.29799 102.65 8.68399 102.384 10.252 102.384C12.24 102.384 13.99 102.818 15.502 103.686C16.986 104.554 18.148 105.8 18.988 107.424C19.828 109.02 20.248 110.952 20.248 113.22L20.206 120.948L15.838 120.948L15.88 114.144C15.88 112.968 15.698 111.932 15.334 111.036C14.97 110.112 14.396 109.384 13.612 108.852C12.8 108.32 11.75 108.054 10.462 108.054C9.17399 108.054 8.13799 108.334 7.35399 108.894C6.56999 109.426 6.00999 110.14 5.67399 111.036C5.30999 111.932 5.12799 112.968 5.12799 114.144L5.12799 121.2L4.32999 120.402L31 120.402L31 125.946ZM31 92.8101L0.381991 92.8101L0.38199 70.9701L5.16999 70.9701L5.16999 88.4841L3.95199 87.2661L14.368 87.2661L13.15 88.4841L13.15 73.0281L17.644 73.0281L17.644 88.4841L16.426 87.2661L27.43 87.2661L26.212 88.4841L26.212 70.8861L31 70.8861L31 92.8101ZM31.378 47.7159C31.378 49.9839 31.028 52.0559 30.328 53.9319C29.6 55.7799 28.564 57.3759 27.22 58.7199C25.848 60.0639 24.196 61.0999 22.264 61.8279C20.332 62.5559 18.134 62.9199 15.67 62.9199C13.234 62.9199 11.05 62.5559 9.11799 61.8279C7.18599 61.0999 5.54799 60.0639 4.20399 58.7199C2.83199 57.3759 1.79599 55.7799 1.09599 53.9319C0.367989 52.0559 0.00398899 49.9839 0.00398889 47.7159C0.00398878 45.1399 0.451989 42.8439 1.34799 40.8279C2.24399 38.8119 3.50399 37.1879 5.12799 35.9559C6.72399 34.6959 8.61399 33.9119 10.798 33.6039L10.798 39.2739C9.59399 39.5259 8.54399 40.0439 7.64799 40.8279C6.75199 41.5839 6.05199 42.5499 5.54799 43.7259C5.04399 44.8739 4.79199 46.2039 4.79199 47.7159C4.79199 49.6479 5.21199 51.3279 6.05199 52.7559C6.86399 54.1559 8.08199 55.2479 9.70599 56.0319C11.33 56.7879 13.318 57.1659 15.67 57.1659C17.462 57.1659 19.044 56.9419 20.416 56.4939C21.76 56.0459 22.894 55.4159 23.818 54.6039C24.742 53.7919 25.442 52.8119 25.918 51.6639C26.366 50.4879 26.59 49.1719 26.59 47.7159C26.59 46.2319 26.338 44.9019 25.834 43.7259C25.33 42.5499 24.63 41.5699 23.734 40.7859C22.81 40.0019 21.746 39.4979 20.542 39.2739L20.542 33.6039C22.726 33.8559 24.63 34.6259 26.254 35.9139C27.878 37.1739 29.138 38.8119 30.034 40.8279C30.93 42.8439 31.378 45.1399 31.378 47.7159ZM31.378 12.8405C31.378 15.5565 30.958 17.8385 30.118 19.6865C29.278 21.5065 28.102 22.8785 26.59 23.8025C25.078 24.7265 23.356 25.2025 21.424 25.2305L21.424 19.5605C22.572 19.5325 23.566 19.2805 24.406 18.8045C25.246 18.3005 25.904 17.5445 26.38 16.5365C26.856 15.5285 27.094 14.2265 27.094 12.6305C27.094 10.7265 26.744 9.20047 26.044 8.05247C25.316 6.90447 24.252 6.33047 22.852 6.33047C22.04 6.33047 21.368 6.45647 20.836 6.70847C20.276 6.96047 19.814 7.38047 19.45 7.96847C19.086 8.55647 18.778 9.34047 18.526 10.3205C18.274 11.2725 18.022 12.4765 17.77 13.9325C17.49 15.6685 17.126 17.2085 16.678 18.5525C16.202 19.8685 15.628 20.9745 14.956 21.8705C14.284 22.7665 13.472 23.4385 12.52 23.8865C11.54 24.3345 10.378 24.5585 9.03399 24.5585C7.18599 24.5585 5.58999 24.0965 4.24599 23.1725C2.90199 22.2205 1.86599 20.8765 1.13799 19.1405C0.381988 17.4045 0.00398747 15.3325 0.00398737 12.9245C0.00398726 10.5445 0.381987 8.51448 1.13799 6.83448C1.89399 5.12648 2.95799 3.81048 4.32999 2.88647C5.67399 1.96247 7.24199 1.50047 9.03399 1.50047L9.03399 7.08647C7.94199 7.14247 7.04599 7.43647 6.34599 7.96847C5.61799 8.50048 5.08599 9.21448 4.74999 10.1105C4.41399 10.9785 4.24599 11.9865 4.24599 13.1345C4.24599 14.3105 4.41399 15.3325 4.74999 16.2005C5.08599 17.0405 5.56199 17.6845 6.17799 18.1325C6.76599 18.5805 7.47999 18.8045 8.31999 18.8045C9.35599 18.8045 10.154 18.5525 10.714 18.0485C11.246 17.5165 11.666 16.6765 11.974 15.5285C12.282 14.3525 12.59 12.8405 12.898 10.9925C13.122 9.67648 13.402 8.40247 13.738 7.17047C14.074 5.91048 14.578 4.79047 15.25 3.81047C15.894 2.80247 16.79 2.00447 17.938 1.41647C19.058 0.828474 20.514 0.534473 22.306 0.534473C24.098 0.534473 25.68 0.996473 27.052 1.92047C28.424 2.84447 29.488 4.21647 30.244 6.03647C31 7.85647 31.378 10.1245 31.378 12.8405Z"/>
</mask>
<path d="M31 267.916L30.6744 268.862L32 269.318L32 267.916L31 267.916ZM0.381998 257.374L-0.618001 257.374L-0.618001 258.087L0.0564476 258.32L0.381998 257.374ZM0.381997 249.562L0.0564471 248.616L-0.618002 248.849L-0.618002 249.562L0.381997 249.562ZM31 239.02L32 239.02L32 237.618L30.6744 238.074L31 239.02ZM31 244.774L31.3251 245.72L32 245.488L32 244.774L31 244.774ZM24.28 247.084L23.9549 246.138L23.28 246.37L23.28 247.084L24.28 247.084ZM24.28 259.852L23.28 259.852L23.28 260.57L23.9602 260.799L24.28 259.852ZM31 262.12L32 262.12L32 261.402L31.3198 261.173L31 262.12ZM19.996 258.508L19.6687 259.453L20.996 259.913L20.996 258.508L19.996 258.508ZM19.996 248.386L20.996 248.386L20.996 246.975L19.6646 247.442L19.996 248.386ZM11.386 251.41L11.6962 252.361L11.7068 252.357L11.7174 252.353L11.386 251.41ZM5.464 253.342L5.15384 252.391L4.464 252.616L4.464 253.342L5.464 253.342ZM5.464 253.552L4.464 253.552L4.464 254.273L5.14777 254.501L5.464 253.552ZM11.386 255.526L11.7133 254.581L11.7022 254.577L11.386 255.526ZM31.3256 266.97L0.70755 256.428L0.0564476 258.32L30.6744 268.862L31.3256 266.97ZM1.382 257.374L1.382 249.562L-0.618002 249.562L-0.618001 257.374L1.382 257.374ZM0.707549 250.508L31.3255 239.966L30.6744 238.074L0.0564471 248.616L0.707549 250.508ZM30 239.02L30 244.774L32 244.774L32 239.02L30 239.02ZM30.6749 243.828L23.9549 246.138L24.6051 248.03L31.3251 245.72L30.6749 243.828ZM23.28 247.084L23.28 259.852L25.28 259.852L25.28 247.084L23.28 247.084ZM23.9602 260.799L30.6802 263.067L31.3198 261.173L24.5998 258.905L23.9602 260.799ZM30 262.12L30 267.916L32 267.916L32 262.12L30 262.12ZM20.996 258.508L20.996 248.386L18.996 248.386L18.996 258.508L20.996 258.508ZM19.6646 247.442L11.0546 250.467L11.7174 252.353L20.3274 249.329L19.6646 247.442ZM11.0758 250.459L5.15384 252.391L5.77415 254.293L11.6962 252.361L11.0758 250.459ZM4.464 253.342L4.464 253.552L6.464 253.552L6.464 253.342L4.464 253.342ZM5.14777 254.501L11.0698 256.475L11.7022 254.577L5.78023 252.603L5.14777 254.501ZM11.0587 256.471L19.6687 259.453L20.3233 257.563L11.7133 254.581L11.0587 256.471ZM31 230.352L31 231.352L32 231.352L32 230.352L31 230.352ZM0.381996 230.352L-0.618003 230.352L-0.618003 231.352L0.381996 231.352L0.381996 230.352ZM0.381996 224.808L0.381996 223.808L-0.618003 223.808L-0.618003 224.808L0.381996 224.808ZM27.094 224.808L27.7546 225.559L29.7441 223.808L27.094 223.808L27.094 224.808ZM26.044 225.732L25.044 225.732L25.044 227.944L26.7046 226.483L26.044 225.732ZM26.044 210.696L26.044 209.696L25.044 209.696L25.044 210.696L26.044 210.696ZM31 210.696L32 210.696L32 209.696L31 209.696L31 210.696ZM31 229.352L0.381996 229.352L0.381996 231.352L31 231.352L31 229.352ZM1.382 230.352L1.382 224.808L-0.618003 224.808L-0.618003 230.352L1.382 230.352ZM0.381996 225.808L27.094 225.808L27.094 223.808L0.381996 223.808L0.381996 225.808ZM26.4334 224.057L25.3834 224.981L26.7046 226.483L27.7546 225.559L26.4334 224.057ZM27.044 225.732L27.044 210.696L25.044 210.696L25.044 225.732L27.044 225.732ZM26.044 211.696L31 211.696L31 209.696L26.044 209.696L26.044 211.696ZM30 210.696L30 230.352L32 230.352L32 210.696L30 210.696ZM31 201.769L31 202.769L32 202.769L32 201.769L31 201.769ZM0.381995 201.769L-0.618004 201.769L-0.618004 202.769L0.381995 202.769L0.381995 201.769ZM0.381995 196.225L0.381995 195.225L-0.618004 195.225L-0.618004 196.225L0.381995 196.225ZM27.094 196.225L27.7546 196.976L29.7441 195.225L27.094 195.225L27.094 196.225ZM26.044 197.149L25.044 197.149L25.044 199.361L26.7046 197.9L26.044 197.149ZM26.044 182.113L26.044 181.113L25.044 181.113L25.044 182.113L26.044 182.113ZM31 182.113L32 182.113L32 181.113L31 181.113L31 182.113ZM31 200.769L0.381995 200.769L0.381995 202.769L31 202.769L31 200.769ZM1.382 201.769L1.38199 196.225L-0.618004 196.225L-0.618004 201.769L1.382 201.769ZM0.381995 197.225L27.094 197.225L27.094 195.225L0.381995 195.225L0.381995 197.225ZM26.4334 195.474L25.3834 196.398L26.7046 197.9L27.7546 196.976L26.4334 195.474ZM27.044 197.149L27.044 182.113L25.044 182.113L25.044 197.149L27.044 197.149ZM26.044 183.113L31 183.113L31 181.113L26.044 181.113L26.044 183.113ZM30 182.113L30 201.769L32 201.769L32 182.113L30 182.113ZM30.118 155.387L31.026 155.807L31.0284 155.801L30.118 155.387ZM26.59 159.503L26.0685 158.65L26.59 159.503ZM21.424 160.931L20.424 160.931L20.424 161.946L21.4385 161.931L21.424 160.931ZM21.424 155.261L21.3996 154.262L20.424 154.286L20.424 155.261L21.424 155.261ZM24.406 154.505L24.899 155.376L24.9098 155.369L24.9205 155.363L24.406 154.505ZM26.38 152.237L25.4757 151.81L26.38 152.237ZM26.044 143.753L26.8978 143.233L26.8932 143.225L26.8885 143.218L26.044 143.753ZM20.836 142.409L21.2464 143.321L21.2553 143.317L21.2641 143.313L20.836 142.409ZM19.45 143.669L20.3003 144.196L19.45 143.669ZM18.526 146.021L19.4927 146.277L19.4945 146.271L18.526 146.021ZM17.77 149.633L16.7846 149.463L16.7828 149.474L17.77 149.633ZM16.678 154.253L17.6184 154.594L17.6227 154.582L17.6267 154.57L16.678 154.253ZM14.956 157.571L14.156 156.971L14.956 157.571ZM12.52 159.587L12.9358 160.497L12.9458 160.492L12.52 159.587ZM4.24599 158.873L3.66792 159.69L3.67947 159.698L4.24599 158.873ZM1.13799 154.841L2.06027 154.455L2.05483 154.442L1.13799 154.841ZM1.13799 142.535L2.04993 142.946L2.05242 142.94L1.13799 142.535ZM4.32999 138.587L4.88862 139.417L4.89652 139.412L4.32999 138.587ZM9.03399 137.201L10.034 137.201L10.034 136.201L9.03399 136.201L9.03399 137.201ZM9.03399 142.787L9.08521 143.786L10.034 143.738L10.034 142.787L9.03399 142.787ZM6.34599 143.669L6.93601 144.477L6.9436 144.471L6.95108 144.466L6.34599 143.669ZM4.74999 145.811L5.68261 146.173L5.68632 146.163L4.74999 145.811ZM4.74999 151.901L3.81737 152.263L3.82152 152.273L4.74999 151.901ZM6.17799 153.833L6.78404 153.038L6.77518 153.031L6.76617 153.025L6.17799 153.833ZM10.714 153.749L11.383 154.493L11.4025 154.475L11.4211 154.457L10.714 153.749ZM11.974 151.229L12.9399 151.489L12.9414 151.483L11.974 151.229ZM12.898 146.693L11.9122 146.526L11.9116 146.529L12.898 146.693ZM13.738 142.871L14.7028 143.135L14.7042 143.129L13.738 142.871ZM15.25 139.511L16.0747 140.077L16.0839 140.064L16.0927 140.05L15.25 139.511ZM17.938 137.117L18.3939 138.008L18.4028 138.003L17.938 137.117ZM27.052 137.621L27.6106 136.792L27.052 137.621ZM30.244 141.737L31.1675 141.354L30.244 141.737ZM30.378 148.541C30.378 151.161 29.9722 153.292 29.2076 154.974L31.0284 155.801C31.9438 153.787 32.378 151.354 32.378 148.541L30.378 148.541ZM29.21 154.968C28.4418 156.633 27.39 157.843 26.0685 158.65L27.1114 160.357C28.814 159.316 30.1142 157.782 31.026 155.807L29.21 154.968ZM26.0685 158.65C24.723 159.472 23.1791 159.906 21.4095 159.932L21.4385 161.931C23.5328 161.901 25.433 161.383 27.1114 160.357L26.0685 158.65ZM22.424 160.931L22.424 155.261L20.424 155.261L20.424 160.931L22.424 160.931ZM21.4484 156.261C22.7298 156.23 23.891 155.947 24.899 155.376L23.913 153.635C23.2409 154.016 22.4142 154.237 21.3996 154.262L21.4484 156.261ZM24.9205 155.363C25.9528 154.744 26.7358 153.826 27.2842 152.665L25.4757 151.81C25.0722 152.665 24.5392 153.259 23.8915 153.648L24.9205 155.363ZM27.2842 152.665C27.8444 151.478 28.094 150.016 28.094 148.331L26.094 148.331C26.094 149.839 25.8675 150.981 25.4757 151.81L27.2842 152.665ZM28.094 148.331C28.094 146.316 27.7252 144.59 26.8978 143.233L25.1902 144.274C25.7627 145.213 26.094 146.539 26.094 148.331L28.094 148.331ZM26.8885 143.218C25.9705 141.77 24.582 141.031 22.852 141.031L22.852 143.031C23.9219 143.031 24.6614 143.441 25.1995 144.289L26.8885 143.218ZM22.852 141.031C21.9448 141.031 21.1144 141.171 20.4079 141.506L21.2641 143.313C21.6215 143.144 22.1352 143.031 22.852 143.031L22.852 141.031ZM20.4256 141.498C19.6615 141.841 19.0549 142.408 18.5997 143.143L20.3003 144.196C20.573 143.755 20.8905 143.482 21.2464 143.321L20.4256 141.498ZM18.5997 143.143C18.1641 143.847 17.8241 144.736 17.5575 145.772L19.4945 146.271C19.7318 145.347 20.0079 144.668 20.3003 144.196L18.5997 143.143ZM17.5593 145.766C17.2971 146.756 17.0394 147.991 16.7846 149.463L18.7553 149.804C19.0046 148.364 19.2508 147.191 19.4927 146.277L17.5593 145.766ZM16.7828 149.474C16.5094 151.169 16.1567 152.655 15.7293 153.937L17.6267 154.57C18.0952 153.164 18.4706 151.57 18.7572 149.793L16.7828 149.474ZM15.7376 153.913C15.2873 155.158 14.7559 156.172 14.156 156.971L15.756 158.171C16.5 157.179 17.1167 155.981 17.6184 154.594L15.7376 153.913ZM14.156 156.971C13.5755 157.746 12.8889 158.309 12.0942 158.683L12.9458 160.492C14.055 159.97 14.9925 159.189 15.756 158.171L14.156 156.971ZM12.1042 158.678C11.2828 159.054 10.269 159.259 9.034 159.259L9.034 161.259C10.487 161.259 11.7972 161.017 12.9358 160.497L12.1042 158.678ZM9.034 159.259C7.3604 159.259 5.96823 158.844 4.81252 158.049L3.67947 159.698C5.21175 160.751 7.01159 161.259 9.034 161.259L9.034 159.259ZM4.82401 158.057C3.6535 157.228 2.72644 156.044 2.06019 154.455L0.2158 155.228C1.00555 157.111 2.15048 158.615 3.66798 159.69L4.82401 158.057ZM2.05483 154.442C1.36642 152.861 1.00399 150.932 1.00399 148.625L-0.996006 148.625C-0.996006 151.135 -0.602431 153.35 0.22116 155.241L2.05483 154.442ZM1.00399 148.625C1.00399 146.347 1.36629 144.465 2.04992 142.946L0.226073 142.125C-0.602304 143.966 -0.996007 146.144 -0.996006 148.625L1.00399 148.625ZM2.05242 142.94C2.7423 141.382 3.69236 140.223 4.88859 139.417L3.77139 137.758C2.22363 138.8 1.04568 140.273 0.223564 142.131L2.05242 142.94ZM4.89652 139.412C6.05741 138.613 7.42341 138.201 9.03399 138.201L9.03399 136.201C7.06058 136.201 5.29058 136.714 3.76346 137.763L4.89652 139.412ZM8.03399 137.201L8.03399 142.787L10.034 142.787L10.034 137.201L8.03399 137.201ZM8.98278 141.789C7.7392 141.853 6.63616 142.193 5.74091 142.873L6.95108 144.466C7.45582 144.082 8.14479 143.834 9.08521 143.786L8.98278 141.789ZM5.75598 142.862C4.86068 143.516 4.21373 144.394 3.81367 145.46L5.68632 146.163C5.95825 145.437 6.37531 144.887 6.93601 144.477L5.75598 142.862ZM3.81743 145.45C3.4278 146.457 3.24599 147.592 3.24599 148.835L5.24599 148.835C5.24599 147.783 5.40019 146.902 5.68256 146.172L3.81743 145.45ZM3.24599 148.835C3.24599 150.104 3.42683 151.253 3.81743 152.262L5.68256 151.54C5.40116 150.814 5.24599 149.919 5.24599 148.835L3.24599 148.835ZM3.82152 152.273C4.21419 153.255 4.79488 154.064 5.58982 154.642L6.76617 153.025C6.32911 152.707 5.9578 152.228 5.67847 151.53L3.82152 152.273ZM5.57195 154.629C6.35746 155.227 7.2923 155.505 8.31999 155.505L8.31999 153.505C7.66768 153.505 7.17453 153.336 6.78404 153.038L5.57195 154.629ZM8.31999 155.505C9.50983 155.505 10.5802 155.215 11.383 154.493L10.045 153.006C9.7278 153.292 9.20216 153.505 8.31999 153.505L8.31999 155.505ZM11.4211 154.457C12.1292 153.749 12.6103 152.717 12.9398 151.489L11.0082 150.97C10.7217 152.038 10.3628 152.686 10.0069 153.042L11.4211 154.457ZM12.9414 151.483C13.26 150.266 13.5738 148.722 13.8844 146.858L11.9116 146.529C11.6062 148.361 11.304 149.841 11.0066 150.976L12.9414 151.483ZM13.8838 146.861C14.1026 145.576 14.3757 144.334 14.7028 143.135L12.7732 142.608C12.4283 143.873 12.1414 145.179 11.9122 146.526L13.8838 146.861ZM14.7042 143.129C15.0138 141.968 15.473 140.954 16.0747 140.077L14.4253 138.946C13.683 140.028 13.1342 141.255 12.7718 142.614L14.7042 143.129ZM16.0927 140.05C16.6338 139.203 17.3909 138.521 18.3939 138.008L17.4821 136.227C16.1891 136.89 15.1542 137.804 14.4073 138.973L16.0927 140.05ZM18.4028 138.003C19.3323 137.515 20.6126 137.235 22.306 137.235L22.306 135.235C20.4154 135.235 18.7837 135.544 17.4732 136.232L18.4028 138.003ZM22.306 137.235C23.9163 137.235 25.3003 137.647 26.4934 138.451L27.6106 136.792C26.0597 135.748 24.2796 135.235 22.306 135.235L22.306 137.235ZM26.4934 138.451C27.6737 139.246 28.6251 140.447 29.3205 142.121L31.1675 141.354C30.3509 139.388 29.1743 137.845 27.6106 136.792L26.4934 138.451ZM29.3205 142.121C30.0108 143.783 30.378 145.911 30.378 148.541L32.378 148.541C32.378 145.74 31.9892 143.332 31.1675 141.354L29.3205 142.121ZM31 125.946L31 126.946L32 126.946L32 125.946L31 125.946ZM0.381992 125.946L-0.618007 125.946L-0.618007 126.946L0.381992 126.946L0.381992 125.946ZM1.05399 108.768L2.00267 109.084L2.00566 109.075L2.00847 109.066L1.05399 108.768ZM2.98599 105.366L3.71484 106.051L3.72551 106.039L3.73583 106.027L2.98599 105.366ZM6.09399 103.182L6.47262 104.107L6.48546 104.102L6.49815 104.097L6.09399 103.182ZM15.502 103.686L16.0069 102.823L15.9999 102.819L15.502 103.686ZM18.988 107.424L18.0998 107.883L18.1031 107.89L18.988 107.424ZM20.248 113.22L21.248 113.225L21.248 113.22L20.248 113.22ZM20.206 120.948L20.206 121.948L21.2006 121.948L21.206 120.953L20.206 120.948ZM15.838 120.948L14.838 120.942L14.8318 121.948L15.838 121.948L15.838 120.948ZM15.88 114.144L16.88 114.15L16.88 114.144L15.88 114.144ZM15.334 111.036L14.4035 111.402L14.4075 111.412L15.334 111.036ZM13.612 108.852L14.1735 108.024L14.1668 108.02L14.16 108.015L13.612 108.852ZM7.35399 108.894L7.91549 109.721L7.92544 109.715L7.93523 109.708L7.35399 108.894ZM5.67399 111.036L6.60046 111.412L6.60556 111.4L6.61032 111.387L5.67399 111.036ZM5.12799 121.2L4.42088 121.907L6.12799 123.614L6.12799 121.2L5.12799 121.2ZM4.32999 120.402L4.32999 119.402L1.91578 119.402L3.62288 121.109L4.32999 120.402ZM31 120.402L32 120.402L32 119.402L31 119.402L31 120.402ZM31 124.946L0.381992 124.946L0.381992 126.946L31 126.946L31 124.946ZM1.38199 125.946L1.38199 113.22L-0.618008 113.22L-0.618007 125.946L1.38199 125.946ZM1.38199 113.22C1.38199 111.688 1.59323 110.312 2.00267 109.084L0.105307 108.452C-0.381245 109.911 -0.618008 111.504 -0.618008 113.22L1.38199 113.22ZM2.00847 109.066C2.38845 107.85 2.96125 106.853 3.71484 106.051L2.25714 104.681C1.27473 105.727 0.559531 106.997 0.0995108 108.47L2.00847 109.066ZM3.73583 106.027C4.46909 105.196 5.37592 104.556 6.47262 104.107L5.71536 102.256C4.34806 102.816 3.18289 103.631 2.23615 104.704L3.73583 106.027ZM6.49815 104.097C7.55288 103.63 8.79699 103.384 10.252 103.384L10.252 101.384C8.57099 101.384 7.0431 101.669 5.68983 102.267L6.49815 104.097ZM10.252 103.384C12.0902 103.384 13.6639 103.784 15.0041 104.553L15.9999 102.819C14.3161 101.852 12.3898 101.384 10.252 101.384L10.252 103.384ZM14.9971 104.549C16.3072 105.315 17.341 106.416 18.0998 107.883L19.8762 106.964C18.955 105.183 17.6648 103.792 16.0069 102.823L14.9971 104.549ZM18.1031 107.89C18.8505 109.31 19.248 111.073 19.248 113.22L21.248 113.22C21.248 110.83 20.8055 108.73 19.8729 106.958L18.1031 107.89ZM19.248 113.214L19.206 120.942L21.206 120.953L21.248 113.225L19.248 113.214ZM20.206 119.948L15.838 119.948L15.838 121.948L20.206 121.948L20.206 119.948ZM16.838 120.954L16.88 114.15L14.88 114.138L14.838 120.942L16.838 120.954ZM16.88 114.144C16.88 112.866 16.6823 111.698 16.2605 110.659L14.4075 111.412C14.7137 112.166 14.88 113.07 14.88 114.144L16.88 114.144ZM16.2644 110.669C15.8304 109.568 15.1323 108.675 14.1735 108.024L13.0505 109.679C13.6596 110.093 14.1096 110.656 14.4036 111.402L16.2644 110.669ZM14.16 108.015C13.1398 107.347 11.8823 107.054 10.462 107.054L10.462 109.054C11.6176 109.054 12.4601 109.293 13.064 109.688L14.16 108.015ZM10.462 107.054C9.03483 107.054 7.77514 107.364 6.77275 108.08L7.93523 109.708C8.50084 109.304 9.31315 109.054 10.462 109.054L10.462 107.054ZM6.79249 108.066C5.83545 108.716 5.14554 109.597 4.73766 110.685L6.61032 111.387C6.87445 110.683 7.30454 110.136 7.91549 109.721L6.79249 108.066ZM4.74753 110.659C4.3257 111.698 4.12799 112.866 4.12799 114.144L6.12799 114.144C6.12799 113.07 6.29428 112.166 6.60046 111.412L4.74753 110.659ZM4.12799 114.144L4.12799 121.2L6.12799 121.2L6.12799 114.144L4.12799 114.144ZM5.8351 120.493L5.0371 119.695L3.62288 121.109L4.42088 121.907L5.8351 120.493ZM4.32999 121.402L31 121.402L31 119.402L4.32999 119.402L4.32999 121.402ZM30 120.402L30 125.946L32 125.946L32 120.402L30 120.402ZM31 92.8101L31 93.8101L32 93.8101L32 92.8101L31 92.8101ZM0.38199 92.8101L-0.618009 92.8101L-0.618009 93.8101L0.38199 93.8101L0.38199 92.8101ZM0.381989 70.9701L0.381989 69.9701L-0.61801 69.9701L-0.61801 70.9701L0.381989 70.9701ZM5.16999 70.9701L6.16999 70.9701L6.16999 69.9701L5.16999 69.9701L5.16999 70.9701ZM5.16999 88.4841L4.46288 89.1912L6.16999 90.8983L6.16999 88.4841L5.16999 88.4841ZM3.95199 87.2661L3.95199 86.2661L1.53777 86.2661L3.24488 87.9732L3.95199 87.2661ZM14.368 87.2661L15.0751 87.9732L16.7822 86.2661L14.368 86.2661L14.368 87.2661ZM13.15 88.4841L12.15 88.4841L12.15 90.8983L13.8571 89.1912L13.15 88.4841ZM13.15 73.0281L13.15 72.0281L12.15 72.0281L12.15 73.0281L13.15 73.0281ZM17.644 73.0281L18.644 73.0281L18.644 72.0281L17.644 72.0281L17.644 73.0281ZM17.644 88.4841L16.9369 89.1912L18.644 90.8983L18.644 88.4841L17.644 88.4841ZM16.426 87.2661L16.426 86.2661L14.0118 86.2661L15.7189 87.9732L16.426 87.2661ZM27.43 87.2661L28.1371 87.9732L29.8442 86.2661L27.43 86.2661L27.43 87.2661ZM26.212 88.4841L25.212 88.4841L25.212 90.8983L26.9191 89.1912L26.212 88.4841ZM26.212 70.8861L26.212 69.8861L25.212 69.8861L25.212 70.8861L26.212 70.8861ZM31 70.8861L32 70.8861L32 69.8861L31 69.8861L31 70.8861ZM31 91.8101L0.38199 91.8101L0.38199 93.8101L31 93.8101L31 91.8101ZM1.38199 92.8101L1.38199 70.9701L-0.61801 70.9701L-0.618009 92.8101L1.38199 92.8101ZM0.381989 71.9701L5.16999 71.9701L5.16999 69.9701L0.381989 69.9701L0.381989 71.9701ZM4.16999 70.9701L4.16999 88.4841L6.16999 88.4841L6.16999 70.9701L4.16999 70.9701ZM5.8771 87.777L4.6591 86.559L3.24488 87.9732L4.46288 89.1912L5.8771 87.777ZM3.95199 88.2661L14.368 88.2661L14.368 86.2661L3.95199 86.2661L3.95199 88.2661ZM13.6609 86.559L12.4429 87.777L13.8571 89.1912L15.0751 87.9732L13.6609 86.559ZM14.15 88.4841L14.15 73.0281L12.15 73.0281L12.15 88.4841L14.15 88.4841ZM13.15 74.0281L17.644 74.0281L17.644 72.0281L13.15 72.0281L13.15 74.0281ZM16.644 73.0281L16.644 88.4841L18.644 88.4841L18.644 73.0281L16.644 73.0281ZM18.3511 87.777L17.1331 86.559L15.7189 87.9732L16.9369 89.1912L18.3511 87.777ZM16.426 88.2661L27.43 88.2661L27.43 86.2661L16.426 86.2661L16.426 88.2661ZM26.7229 86.559L25.5049 87.777L26.9191 89.1912L28.1371 87.9732L26.7229 86.559ZM27.212 88.4841L27.212 70.8861L25.212 70.8861L25.212 88.4841L27.212 88.4841ZM26.212 71.8861L31 71.8861L31 69.8861L26.212 69.8861L26.212 71.8861ZM30 70.8861L30 92.8101L32 92.8101L32 70.8861L30 70.8861ZM30.328 53.9319L31.2584 54.2984L31.2617 54.29L31.2649 54.2815L30.328 53.9319ZM27.22 58.7199L27.9198 59.4343L27.9271 59.427L27.22 58.7199ZM22.264 61.8279L22.6166 62.7637L22.264 61.8279ZM4.20399 58.7199L4.91114 58.0128L4.90377 58.0056L4.20399 58.7199ZM1.09599 53.9319L2.03118 53.5777L2.02826 53.5701L1.09599 53.9319ZM1.34799 40.8279L2.2618 41.234L1.34799 40.8279ZM5.12799 35.9559L5.73237 36.7526L5.74006 36.7468L5.74763 36.7408L5.12799 35.9559ZM10.798 33.6039L11.798 33.6039L11.798 32.453L10.6583 32.6137L10.798 33.6039ZM10.798 39.2739L11.0029 40.2527L11.798 40.0863L11.798 39.2739L10.798 39.2739ZM7.64799 40.8279L8.29286 41.5922L8.29973 41.5864L8.30649 41.5805L7.64799 40.8279ZM5.54799 43.7259L6.46367 44.1279L6.46713 44.1198L5.54799 43.7259ZM6.05199 52.7559L6.91704 52.2542L6.91392 52.2489L6.05199 52.7559ZM9.70599 56.0319L9.2712 56.9325L9.28396 56.9385L9.70599 56.0319ZM20.416 56.4939L20.7264 57.4445L20.7322 57.4426L20.416 56.4939ZM23.818 54.6039L23.1579 53.8527L23.818 54.6039ZM25.918 51.6639L26.8417 52.0469L26.8473 52.0335L26.8525 52.0199L25.918 51.6639ZM23.734 40.7859L24.3925 40.0333L24.3868 40.0283L24.381 40.0234L23.734 40.7859ZM20.542 39.2739L19.542 39.2739L19.542 40.105L20.3591 40.257L20.542 39.2739ZM20.542 33.6039L20.6566 32.6105L19.542 32.4819L19.542 33.6039L20.542 33.6039ZM26.254 35.9139L25.6326 36.6974L25.641 36.704L26.254 35.9139ZM30.034 40.8279L29.1202 41.234L30.034 40.8279ZM30.378 47.7159C30.378 49.8802 30.0442 51.832 29.3911 53.5823L31.2649 54.2815C32.0118 52.2799 32.378 50.0876 32.378 47.7159L30.378 47.7159ZM29.3976 53.5654C28.7176 55.2916 27.7555 56.7702 26.5129 58.0128L27.9271 59.427C29.3725 57.9816 30.4824 56.2682 31.2584 54.2984L29.3976 53.5654ZM26.5202 58.0056C25.2546 59.2453 23.7234 60.2093 21.9114 60.8921L22.6166 62.7637C24.6686 61.9905 26.4414 60.8825 27.9198 59.4343L26.5202 58.0056ZM21.9114 60.8921C20.1116 61.5703 18.0363 61.9199 15.67 61.9199L15.67 63.9199C18.2317 63.9199 20.5524 63.5415 22.6166 62.7637L21.9114 60.8921ZM15.67 61.9199C13.3332 61.9199 11.2716 61.5708 9.4706 60.8921L8.76538 62.7637C10.8284 63.541 13.1348 63.9199 15.67 63.9199L15.67 61.9199ZM9.4706 60.8921C7.66006 60.2099 6.14611 59.2478 4.9111 58.0128L3.49688 59.427C4.94987 60.88 6.71192 61.9899 8.76538 62.7637L9.4706 60.8921ZM4.90377 58.0056C3.63847 56.7661 2.68128 55.294 2.03115 53.5777L0.16083 54.2861C0.910702 56.2658 2.02551 57.9857 3.50421 59.4343L4.90377 58.0056ZM2.02826 53.5701C1.35035 51.8232 1.00399 49.8758 1.00399 47.7159L-0.996011 47.7159C-0.996011 50.092 -0.614368 52.2886 0.163725 54.2937L2.02826 53.5701ZM1.00399 47.7159C1.00399 45.2566 1.43136 43.1025 2.2618 41.234L0.434177 40.4218C-0.527382 42.5853 -0.996011 45.0232 -0.996011 47.7159L1.00399 47.7159ZM2.2618 41.234C3.09506 39.3592 4.25375 37.8743 5.73237 36.7526L4.5236 35.1592C2.75423 36.5015 1.39292 38.2646 0.434177 40.4218L2.2618 41.234ZM5.74763 36.7408C7.19297 35.5997 8.91366 34.8795 10.9376 34.5941L10.6583 32.6137C8.31431 32.9443 6.25501 33.7921 4.50834 35.171L5.74763 36.7408ZM9.79799 33.6039L9.79799 39.2739L11.798 39.2739L11.798 33.6039L9.79799 33.6039ZM10.5931 38.2951C9.22681 38.5811 8.01916 39.1744 6.98948 40.0753L8.30649 41.5805C9.06882 40.9135 9.96117 40.4707 11.0029 40.2527L10.5931 38.2951ZM7.00312 40.0636C5.9775 40.929 5.18848 42.0262 4.62884 43.332L6.46713 44.1198C6.9155 43.0736 7.52647 42.2388 8.29286 41.5922L7.00312 40.0636ZM4.63235 43.3239C4.06249 44.6219 3.79199 46.0934 3.79199 47.7159L5.79199 47.7159C5.79199 46.3144 6.02549 45.1259 6.46363 44.1279L4.63235 43.3239ZM3.79199 47.7159C3.79199 49.7962 4.24559 51.6573 5.19005 53.2629L6.91392 52.2489C6.17839 50.9985 5.79199 49.4996 5.79199 47.7159L3.79199 47.7159ZM5.18696 53.2576C6.11057 54.8501 7.48855 56.0719 9.27124 56.9325L10.1407 55.1314C8.67543 54.424 7.61741 53.4617 6.91702 52.2542L5.18696 53.2576ZM9.28396 56.9385C11.0747 57.7721 13.2158 58.1659 15.67 58.1659L15.67 56.1659C13.4201 56.1659 11.5853 55.8037 10.128 55.1253L9.28396 56.9385ZM15.67 58.1659C17.543 58.1659 19.2334 57.932 20.7264 57.4445L20.1056 55.5433C18.8546 55.9518 17.381 56.1659 15.67 56.1659L15.67 58.1659ZM20.7322 57.4426C22.1838 56.9587 23.4398 56.2676 24.4781 55.3551L23.1579 53.8527C22.3482 54.5643 21.3361 55.1331 20.0998 55.5452L20.7322 57.4426ZM24.4781 55.3551C25.5182 54.4411 26.3078 53.3347 26.8417 52.0469L24.9942 51.2809C24.5762 52.2891 23.9658 53.1428 23.1579 53.8527L24.4781 55.3551ZM26.8525 52.0199C27.35 50.7139 27.59 49.2747 27.59 47.7159L25.59 47.7159C25.59 49.0691 25.382 50.2619 24.9835 51.3079L26.8525 52.0199ZM27.59 47.7159C27.59 46.1179 27.3183 44.6508 26.7531 43.332L24.9148 44.1198C25.3577 45.153 25.59 46.3459 25.59 47.7159L27.59 47.7159ZM26.7531 43.332C26.1947 42.0289 25.4094 40.9231 24.3925 40.0333L23.0755 41.5385C23.8506 42.2167 24.4653 43.0709 24.9148 44.1198L26.7531 43.332ZM24.381 40.0234C23.3227 39.1254 22.0983 38.5463 20.7249 38.2908L20.3591 40.257C21.3937 40.4495 22.2973 40.8784 23.087 41.5484L24.381 40.0234ZM21.542 39.2739L21.542 33.6039L19.542 33.6039L19.542 39.2739L21.542 39.2739ZM20.4274 34.5973C22.4379 34.8293 24.1636 35.5324 25.6326 36.6974L26.8754 35.1304C25.0963 33.7195 23.0141 32.8825 20.6566 32.6105L20.4274 34.5973ZM25.641 36.704C27.1251 37.8554 28.2862 39.3575 29.1202 41.234L30.9478 40.4218C29.9898 38.2663 28.6309 36.4924 26.867 35.1238L25.641 36.704ZM29.1202 41.234C29.9506 43.1025 30.378 45.2566 30.378 47.7159L32.378 47.7159C32.378 45.0232 31.9094 42.5853 30.9478 40.4218L29.1202 41.234ZM30.118 19.6865L31.026 20.1055L31.0284 20.1003L30.118 19.6865ZM26.59 23.8025L26.0685 22.9492L26.59 23.8025ZM21.424 25.2305L20.424 25.2305L20.424 26.2451L21.4385 26.2304L21.424 25.2305ZM21.424 19.5605L21.3996 18.5608L20.424 18.5846L20.424 19.5605L21.424 19.5605ZM24.406 18.8045L24.899 19.6745L24.9098 19.6684L24.9205 19.662L24.406 18.8045ZM26.38 16.5365L25.4757 16.1095L26.38 16.5365ZM26.044 8.05249L26.8978 7.53186L26.8932 7.52435L26.8885 7.51694L26.044 8.05249ZM20.836 6.70846L21.2464 7.62039L21.2553 7.61639L21.2641 7.61221L20.836 6.70846ZM19.45 7.96847L20.3003 8.49484L19.45 7.96847ZM18.526 10.3205L19.4927 10.5764L19.4945 10.5695L18.526 10.3205ZM17.77 13.9325L16.7846 13.7619L16.7827 13.7732L17.77 13.9325ZM16.678 18.5525L17.6184 18.8926L17.6227 18.8807L17.6267 18.8687L16.678 18.5525ZM14.956 21.8705L14.156 21.2705L14.956 21.8705ZM12.52 23.8865L12.9358 24.796L12.9458 24.7913L12.52 23.8865ZM4.24599 23.1725L3.66791 23.9886L3.67946 23.9965L4.24599 23.1725ZM1.13799 19.1405L2.06027 18.7537L2.05482 18.7412L1.13799 19.1405ZM1.13799 6.83447L2.04993 7.24484L2.05242 7.23923L1.13799 6.83447ZM4.32999 2.88647L4.88861 3.71594L4.89651 3.71051L4.32999 2.88647ZM9.03399 1.50049L10.034 1.50049L10.034 0.500487L9.03399 0.500487L9.03399 1.50049ZM9.03399 7.08649L9.0852 8.08517L10.034 8.0365L10.034 7.08649L9.03399 7.08649ZM6.34599 7.96847L6.936 8.77588L6.94359 8.77032L6.95107 8.76465L6.34599 7.96847ZM4.74999 10.1105L5.68261 10.4715L5.68632 10.4616L4.74999 10.1105ZM4.74999 16.2005L3.81736 16.5615L3.82151 16.5719L4.74999 16.2005ZM6.17799 18.1325L6.78403 17.3371L6.77517 17.3303L6.76616 17.3237L6.17799 18.1325ZM10.714 18.0485L11.383 18.7918L11.4025 18.7742L11.4211 18.7556L10.714 18.0485ZM11.974 15.5285L12.9398 15.7876L12.9414 15.7818L11.974 15.5285ZM12.898 10.9925L11.9122 10.8247L11.9116 10.8281L12.898 10.9925ZM13.738 7.17047L14.7028 7.43359L14.7042 7.42813L13.738 7.17047ZM15.25 3.81048L16.0747 4.37601L16.0839 4.36258L16.0927 4.34888L15.25 3.81048ZM17.938 1.41647L18.3939 2.30658L18.4028 2.30188L17.938 1.41647ZM27.052 1.92047L27.6106 1.09103L27.052 1.92047ZM30.244 6.03647L31.1675 5.65286L30.244 6.03647ZM30.378 12.8405C30.378 15.4595 29.9722 17.5907 29.2076 19.2727L31.0284 20.1003C31.9438 18.0863 32.378 15.6534 32.378 12.8405L30.378 12.8405ZM29.21 19.2674C28.4418 20.932 27.39 22.1416 26.0685 22.9492L27.1114 24.6558C28.814 23.6153 30.1142 22.081 31.0259 20.1055L29.21 19.2674ZM26.0685 22.9492C24.723 23.7715 23.1791 24.2049 21.4095 24.2306L21.4385 26.2304C23.5328 26.2 25.433 25.6815 27.1114 24.6558L26.0685 22.9492ZM22.424 25.2305L22.424 19.5605L20.424 19.5605L20.424 25.2305L22.424 25.2305ZM21.4484 20.5602C22.7298 20.5289 23.891 20.2457 24.899 19.6745L23.913 17.9344C23.2409 18.3153 22.4142 18.536 21.3996 18.5608L21.4484 20.5602ZM24.9205 19.662C25.9528 19.0426 26.7358 18.1249 27.2842 16.9635L25.4757 16.1095C25.0722 16.964 24.5392 17.5583 23.8915 17.947L24.9205 19.662ZM27.2842 16.9635C27.8444 15.7772 28.094 14.315 28.094 12.6305L26.094 12.6305C26.094 14.138 25.8675 15.2798 25.4757 16.1095L27.2842 16.9635ZM28.094 12.6305C28.094 10.6154 27.7252 8.88888 26.8978 7.53186L25.1902 8.57309C25.7627 9.51205 26.094 10.8375 26.094 12.6305L28.094 12.6305ZM26.8885 7.51694C25.9705 6.0694 24.582 5.33047 22.852 5.33047L22.852 7.33047C23.9219 7.33047 24.6614 7.73956 25.1995 8.58801L26.8885 7.51694ZM22.852 5.33047C21.9448 5.33047 21.1144 5.47006 20.4079 5.80475L21.2641 7.61221C21.6215 7.4429 22.1352 7.33047 22.852 7.33047L22.852 5.33047ZM20.4256 5.79654C19.6615 6.14044 19.0549 6.70679 18.5997 7.44211L20.3003 8.49484C20.573 8.05417 20.8905 7.78052 21.2464 7.62039L20.4256 5.79654ZM18.5997 7.44211C18.1641 8.14584 17.8241 9.03451 17.5575 10.0714L19.4945 10.5695C19.7318 9.64645 20.0079 8.96713 20.3003 8.49484L18.5997 7.44211ZM17.5593 10.0646C17.2971 11.0549 17.0394 12.2899 16.7846 13.7619L18.7553 14.103C19.0046 12.6631 19.2508 11.49 19.4927 10.5764L17.5593 10.0646ZM16.7827 13.7732C16.5094 15.4681 16.1567 16.9539 15.7293 18.2363L17.6267 18.8687C18.0952 17.463 18.4706 15.8688 18.7572 14.0917L16.7827 13.7732ZM15.7376 18.2123C15.2873 19.4574 14.7559 20.4705 14.156 21.2705L15.756 22.4705C16.5 21.4784 17.1167 20.2795 17.6184 18.8926L15.7376 18.2123ZM14.156 21.2705C13.5755 22.0445 12.8889 22.6077 12.0942 22.9817L12.9458 24.7913C14.055 24.2693 14.9925 23.4884 15.756 22.4705L14.156 21.2705ZM12.1042 22.977C11.2828 23.3525 10.269 23.5585 9.03399 23.5585L9.03399 25.5585C10.487 25.5585 11.7972 25.3164 12.9357 24.7959L12.1042 22.977ZM9.03399 23.5585C7.36039 23.5585 5.96823 23.143 4.81252 22.3484L3.67946 23.9965C5.21175 25.05 7.01158 25.5585 9.03399 25.5585L9.03399 23.5585ZM4.82401 22.3564C3.6535 21.5273 2.72644 20.3425 2.06018 18.7538L0.215794 19.5272C1.00554 21.4104 2.15048 22.9136 3.66797 23.9885L4.82401 22.3564ZM2.05482 18.7412C1.36641 17.1604 1.00399 15.231 1.00399 12.9245L-0.996012 12.9245C-0.996012 15.4339 -0.602437 17.6485 0.221154 19.5397L2.05482 18.7412ZM1.00399 12.9245C1.00399 10.6463 1.36629 8.76401 2.04991 7.24484L0.226067 6.4241C-0.60231 8.26495 -0.996013 10.4426 -0.996012 12.9245L1.00399 12.9245ZM2.05242 7.23923C2.7423 5.6806 3.69235 4.52154 4.88859 3.71591L3.77139 2.05704C2.22363 3.09939 1.04568 4.57236 0.223558 6.42972L2.05242 7.23923ZM4.89651 3.71051C6.05741 2.91241 7.42341 2.50049 9.03399 2.50049L9.03399 0.500487C7.06057 0.500487 5.29057 1.01254 3.76346 2.06244L4.89651 3.71051ZM8.03399 1.50049L8.03399 7.08649L10.034 7.08649L10.034 1.50049L8.03399 1.50049ZM8.98277 6.0878C7.73919 6.15155 6.63616 6.49191 5.7409 7.1723L6.95107 8.76465C7.45582 8.38104 8.14478 8.13339 9.0852 8.08517L8.98277 6.0878ZM5.75597 7.16107C4.86067 7.81534 4.21373 8.6925 3.81366 9.75934L5.68632 10.4616C5.95825 9.73645 6.3753 9.18561 6.936 8.77588L5.75597 7.16107ZM3.81742 9.74948C3.42779 10.756 3.24599 11.8909 3.24599 13.1345L5.24599 13.1345C5.24599 12.0821 5.40018 11.2009 5.68256 10.4715L3.81742 9.74948ZM3.24599 13.1345C3.24599 14.4027 3.42683 15.5524 3.81742 16.5615L5.68256 15.8395C5.40115 15.1125 5.24599 14.2182 5.24599 13.1345L3.24599 13.1345ZM3.82151 16.5719C4.21418 17.5535 4.79487 18.3631 5.58982 18.9412L6.76616 17.3237C6.3291 17.0059 5.95779 16.5274 5.67847 15.8291L3.82151 16.5719ZM5.57194 18.9279C6.35745 19.5264 7.2923 19.8045 8.31999 19.8045L8.31999 17.8045C7.66768 17.8045 7.17452 17.6346 6.78403 17.3371L5.57194 18.9279ZM8.31999 19.8045C9.50982 19.8045 10.5802 19.5143 11.383 18.7918L10.045 17.3052C9.7278 17.5907 9.20215 17.8045 8.31999 17.8045L8.31999 19.8045ZM11.4211 18.7556C12.1292 18.0475 12.6103 17.016 12.9398 15.7876L11.0081 15.2693C10.7217 16.337 10.3628 16.9855 10.0069 17.3414L11.4211 18.7556ZM12.9414 15.7818C13.26 14.5653 13.5737 13.0207 13.8844 11.1569L11.9116 10.8281C11.6062 12.6603 11.304 14.1396 11.0066 15.2751L12.9414 15.7818ZM13.8838 11.1603C14.1026 9.87494 14.3757 8.63281 14.7028 7.43359L12.7732 6.90735C12.4283 8.17215 12.1414 9.47803 11.9122 10.8247L13.8838 11.1603ZM14.7042 7.42813C15.0138 6.26739 15.473 5.25348 16.0747 4.37601L14.4253 3.24493C13.683 4.32748 13.1342 5.55356 12.7718 6.91281L14.7042 7.42813ZM16.0927 4.34888C16.6338 3.50195 17.3909 2.82022 18.3939 2.30652L17.4821 0.526427C16.1891 1.18872 15.1542 2.103 14.4073 3.27209L16.0927 4.34888ZM18.4028 2.30188C19.3323 1.81393 20.6126 1.53448 22.306 1.53448L22.306 -0.465517C20.4154 -0.465517 18.7837 -0.156984 17.4732 0.531065L18.4028 2.30188ZM22.306 1.53448C23.9163 1.53448 25.3003 1.94641 26.4934 2.74991L27.6106 1.09103C26.0597 0.0465375 24.2796 -0.465517 22.306 -0.465517L22.306 1.53448ZM26.4934 2.74991C27.6736 3.54477 28.6251 4.74603 29.3205 6.42007L31.1675 5.65286C30.3509 3.68692 29.1743 2.14416 27.6106 1.09103L26.4934 2.74991ZM29.3205 6.42007C30.0108 8.08188 30.378 10.2096 30.378 12.8405L32.378 12.8405C32.378 10.0393 31.9892 7.6311 31.1675 5.65286L29.3205 6.42007Z" fill="#FF7500" mask="url(#path-1-outside-1_944_22451)"/>
</g>
</svg>
