<svg width="165" height="26" viewBox="0 0 165 26" fill="none" xmlns="http://www.w3.org/2000/svg">
<path fill-rule="evenodd" clip-rule="evenodd" d="M13 26C20.1799 26 26 20.1799 26 13C26 5.8201 20.1799 0 13 0C5.8201 0 0 5.8201 0 13C0 20.1799 5.8201 26 13 26ZM17.5968 8.4032C17.8409 8.15944 18.1718 8.02263 18.5168 8.02288C18.8618 8.02312 19.1925 8.16039 19.4363 8.4045C19.6801 8.64861 19.8169 8.97955 19.8166 9.32452C19.8164 9.66949 19.6791 10.0002 19.435 10.244L12.0861 17.5929L12.0809 17.5981C11.9605 17.7192 11.8172 17.8154 11.6595 17.881C11.5018 17.9466 11.3326 17.9803 11.1618 17.9803C10.991 17.9803 10.8218 17.9466 10.6641 17.881C10.5064 17.8154 10.3631 17.7192 10.2427 17.5981L10.2375 17.5929L6.565 13.9204C6.44084 13.8005 6.3418 13.657 6.27367 13.4984C6.20554 13.3398 6.16967 13.1692 6.16817 12.9966C6.16667 12.824 6.19957 12.6528 6.26493 12.4931C6.3303 12.3333 6.42683 12.1881 6.54889 12.0661C6.67095 11.944 6.81609 11.8475 6.97586 11.7821C7.13562 11.7168 7.30681 11.6839 7.47942 11.6854C7.65203 11.6869 7.82262 11.7227 7.98123 11.7909C8.13983 11.859 8.28328 11.958 8.4032 12.0822L11.1618 14.8395L17.5968 8.4045V8.4032Z" fill="#FF7500"/>
<path d="M47.953 21V5.691H53.959C54.757 5.691 55.478 5.796 56.122 6.006C56.78 6.216 57.34 6.531 57.802 6.951C58.264 7.357 58.614 7.854 58.852 8.442C59.104 9.03 59.23 9.709 59.23 10.479C59.23 11.445 59.013 12.292 58.579 13.02C58.159 13.734 57.55 14.287 56.752 14.679C55.968 15.071 55.03 15.267 53.938 15.267H49.507V13.797H53.686C54.442 13.797 55.093 13.678 55.639 13.44C56.199 13.188 56.626 12.817 56.92 12.327C57.228 11.823 57.382 11.221 57.382 10.521C57.382 9.793 57.228 9.191 56.92 8.715C56.626 8.239 56.199 7.882 55.639 7.644C55.093 7.392 54.442 7.266 53.686 7.266H49.402L49.738 6.951V21H47.953ZM60.4943 24.507V23.1H61.6283C61.9643 23.1 62.2513 23.051 62.4893 22.953C62.7273 22.855 62.9303 22.708 63.0983 22.512C63.2803 22.316 63.4273 22.064 63.5393 21.756L64.2743 19.866V20.622L59.7383 9.975H61.6073L64.3793 17.094L64.9043 18.48H64.9883L65.4713 17.094L68.0963 9.975H69.8813L65.1353 22.176C64.9253 22.736 64.6733 23.184 64.3793 23.52C64.0853 23.87 63.7353 24.122 63.3293 24.276C62.9233 24.43 62.4403 24.507 61.8803 24.507H60.4943ZM74.3246 21C73.7786 21 73.3446 20.923 73.0226 20.769C72.7146 20.615 72.4906 20.384 72.3506 20.076C72.2246 19.754 72.1616 19.362 72.1616 18.9V11.382H70.0196V9.975H72.1616V6.678L73.8626 6.447V9.975H76.4246V11.382H73.8626V18.606C73.8626 18.998 73.9326 19.257 74.0726 19.383C74.2126 19.509 74.4716 19.572 74.8496 19.572H76.4246V21H74.3246ZM78.6653 21V5.691H80.3453V12.264H80.4713C80.8073 11.452 81.3253 10.843 82.0253 10.437C82.7253 10.017 83.4883 9.807 84.3143 9.807C84.8883 9.807 85.4133 9.891 85.8893 10.059C86.3793 10.227 86.7993 10.5 87.1493 10.878C87.5133 11.256 87.7933 11.746 87.9893 12.348C88.1853 12.936 88.2833 13.657 88.2833 14.511V21H86.5823V14.847C86.5823 14.021 86.4773 13.342 86.2673 12.81C86.0713 12.278 85.7633 11.886 85.3433 11.634C84.9373 11.368 84.4123 11.235 83.7683 11.235C83.0823 11.235 82.4803 11.403 81.9623 11.739C81.4443 12.075 81.0453 12.53 80.7653 13.104C80.4853 13.664 80.3453 14.308 80.3453 15.036V21H78.6653ZM95.9372 21.189C95.1392 21.189 94.4112 21.056 93.7532 20.79C93.1092 20.524 92.5492 20.139 92.0732 19.635C91.6112 19.131 91.2472 18.536 90.9812 17.85C90.7292 17.15 90.6032 16.373 90.6032 15.519C90.6032 14.385 90.8202 13.391 91.2542 12.537C91.6882 11.683 92.3042 11.018 93.1022 10.542C93.9142 10.052 94.8592 9.807 95.9372 9.807C96.7352 9.807 97.4562 9.94 98.1002 10.206C98.7582 10.458 99.3182 10.836 99.7802 11.34C100.242 11.844 100.599 12.446 100.851 13.146C101.103 13.846 101.229 14.63 101.229 15.498C101.229 16.618 101.012 17.605 100.578 18.459C100.158 19.313 99.5492 19.985 98.7512 20.475C97.9532 20.951 97.0152 21.189 95.9372 21.189ZM95.9372 19.719C96.6512 19.719 97.2742 19.558 97.8062 19.236C98.3382 18.9 98.7512 18.417 99.0452 17.787C99.3532 17.143 99.5072 16.38 99.5072 15.498C99.5072 14.84 99.4232 14.252 99.2552 13.734C99.0872 13.202 98.8492 12.754 98.5412 12.39C98.2332 12.012 97.8622 11.725 97.4282 11.529C96.9942 11.333 96.4972 11.235 95.9372 11.235C95.2232 11.235 94.5932 11.41 94.0472 11.76C93.5152 12.096 93.0952 12.579 92.7872 13.209C92.4932 13.839 92.3462 14.609 92.3462 15.519C92.3462 16.163 92.4232 16.751 92.5772 17.283C92.7452 17.801 92.9832 18.242 93.2912 18.606C93.6132 18.97 93.9982 19.25 94.4462 19.446C94.8942 19.628 95.3912 19.719 95.9372 19.719ZM103.644 21V9.975H105.261L105.324 12.264H105.45C105.786 11.452 106.304 10.843 107.004 10.437C107.704 10.017 108.467 9.807 109.293 9.807C109.867 9.807 110.392 9.891 110.868 10.059C111.358 10.227 111.778 10.5 112.128 10.878C112.492 11.256 112.772 11.746 112.968 12.348C113.164 12.936 113.262 13.657 113.262 14.511V21H111.561V14.847C111.561 14.021 111.456 13.342 111.246 12.81C111.05 12.278 110.742 11.886 110.322 11.634C109.916 11.368 109.391 11.235 108.747 11.235C108.061 11.235 107.459 11.403 106.941 11.739C106.423 12.075 106.024 12.53 105.744 13.104C105.464 13.664 105.324 14.308 105.324 15.036V21H103.644ZM120.507 21V20.664C120.507 19.838 120.647 19.11 120.927 18.48C121.221 17.85 121.599 17.283 122.061 16.779C122.537 16.275 123.055 15.813 123.615 15.393C124.189 14.959 124.756 14.553 125.316 14.175C125.876 13.783 126.387 13.384 126.849 12.978C127.325 12.572 127.703 12.138 127.983 11.676C128.277 11.2 128.424 10.668 128.424 10.08C128.424 9.478 128.298 8.96 128.046 8.526C127.794 8.092 127.437 7.756 126.975 7.518C126.513 7.28 125.974 7.161 125.358 7.161C124.714 7.161 124.147 7.294 123.657 7.56C123.181 7.826 122.81 8.204 122.544 8.694C122.278 9.17 122.159 9.751 122.187 10.437H120.549C120.521 9.471 120.71 8.638 121.116 7.938C121.522 7.224 122.103 6.671 122.859 6.279C123.615 5.873 124.483 5.67 125.463 5.67C126.415 5.67 127.241 5.852 127.941 6.216C128.655 6.566 129.208 7.07 129.6 7.728C129.992 8.372 130.188 9.121 130.188 9.975C130.188 10.647 130.062 11.256 129.81 11.802C129.558 12.348 129.215 12.845 128.781 13.293C128.361 13.741 127.892 14.161 127.374 14.553C126.856 14.945 126.331 15.33 125.799 15.708C125.281 16.072 124.791 16.45 124.329 16.842C123.867 17.22 123.482 17.626 123.174 18.06C122.866 18.494 122.67 18.97 122.586 19.488H130.377V21H120.507ZM132.654 21V19.11H134.397V21H132.654ZM141.94 21.168C141.058 21.168 140.281 21.021 139.609 20.727C138.951 20.419 138.398 19.964 137.95 19.362C137.516 18.76 137.187 18.025 136.963 17.157C136.739 16.275 136.627 15.267 136.627 14.133C136.627 12.677 136.739 11.417 136.963 10.353C137.201 9.289 137.551 8.414 138.013 7.728C138.475 7.028 139.049 6.51 139.735 6.174C140.435 5.838 141.24 5.67 142.15 5.67C143.088 5.67 143.893 5.831 144.565 6.153C145.251 6.461 145.79 6.909 146.182 7.497C146.588 8.085 146.826 8.771 146.896 9.555H145.258C145.188 9.037 145.013 8.603 144.733 8.253C144.453 7.903 144.089 7.637 143.641 7.455C143.207 7.259 142.71 7.161 142.15 7.161C141.38 7.161 140.743 7.322 140.239 7.644C139.749 7.966 139.364 8.421 139.084 9.009C138.818 9.597 138.629 10.297 138.517 11.109C138.405 11.907 138.342 12.796 138.328 13.776H138.433C138.587 13.244 138.846 12.782 139.21 12.39C139.588 11.998 140.043 11.697 140.575 11.487C141.121 11.263 141.73 11.151 142.402 11.151C143.326 11.151 144.138 11.354 144.838 11.76C145.538 12.166 146.084 12.74 146.476 13.482C146.868 14.224 147.064 15.099 147.064 16.107C147.064 17.157 146.847 18.06 146.413 18.816C145.979 19.572 145.377 20.153 144.607 20.559C143.837 20.965 142.948 21.168 141.94 21.168ZM141.982 19.677C142.668 19.677 143.256 19.53 143.746 19.236C144.236 18.928 144.621 18.501 144.901 17.955C145.181 17.409 145.321 16.772 145.321 16.044C145.321 15.302 145.181 14.665 144.901 14.133C144.621 13.601 144.236 13.195 143.746 12.915C143.256 12.621 142.682 12.474 142.024 12.474C141.31 12.474 140.694 12.642 140.176 12.978C139.672 13.3 139.28 13.741 139 14.301C138.734 14.847 138.601 15.47 138.601 16.17C138.601 16.884 138.741 17.507 139.021 18.039C139.301 18.571 139.693 18.977 140.197 19.257C140.715 19.537 141.31 19.677 141.982 19.677ZM149.224 21V19.11H150.967V21H149.224ZM158.51 21.168C157.628 21.168 156.851 21.021 156.179 20.727C155.521 20.419 154.968 19.964 154.52 19.362C154.086 18.76 153.757 18.025 153.533 17.157C153.309 16.275 153.197 15.267 153.197 14.133C153.197 12.677 153.309 11.417 153.533 10.353C153.771 9.289 154.121 8.414 154.583 7.728C155.045 7.028 155.619 6.51 156.305 6.174C157.005 5.838 157.81 5.67 158.72 5.67C159.658 5.67 160.463 5.831 161.135 6.153C161.821 6.461 162.36 6.909 162.752 7.497C163.158 8.085 163.396 8.771 163.466 9.555H161.828C161.758 9.037 161.583 8.603 161.303 8.253C161.023 7.903 160.659 7.637 160.211 7.455C159.777 7.259 159.28 7.161 158.72 7.161C157.95 7.161 157.313 7.322 156.809 7.644C156.319 7.966 155.934 8.421 155.654 9.009C155.388 9.597 155.199 10.297 155.087 11.109C154.975 11.907 154.912 12.796 154.898 13.776H155.003C155.157 13.244 155.416 12.782 155.78 12.39C156.158 11.998 156.613 11.697 157.145 11.487C157.691 11.263 158.3 11.151 158.972 11.151C159.896 11.151 160.708 11.354 161.408 11.76C162.108 12.166 162.654 12.74 163.046 13.482C163.438 14.224 163.634 15.099 163.634 16.107C163.634 17.157 163.417 18.06 162.983 18.816C162.549 19.572 161.947 20.153 161.177 20.559C160.407 20.965 159.518 21.168 158.51 21.168ZM158.552 19.677C159.238 19.677 159.826 19.53 160.316 19.236C160.806 18.928 161.191 18.501 161.471 17.955C161.751 17.409 161.891 16.772 161.891 16.044C161.891 15.302 161.751 14.665 161.471 14.133C161.191 13.601 160.806 13.195 160.316 12.915C159.826 12.621 159.252 12.474 158.594 12.474C157.88 12.474 157.264 12.642 156.746 12.978C156.242 13.3 155.85 13.741 155.57 14.301C155.304 14.847 155.171 15.47 155.171 16.17C155.171 16.884 155.311 17.507 155.591 18.039C155.871 18.571 156.263 18.977 156.767 19.257C157.285 19.537 157.88 19.677 158.552 19.677Z" fill="white"/>
</svg>
