<svg width="222" height="57" viewBox="0 0 222 57" fill="none" xmlns="http://www.w3.org/2000/svg">
<rect width="222" height="57" rx="10" fill="#FF7500"/>
<path d="M33.66 34.7581C32.3667 34.7581 31.28 34.5581 30.4 34.1581C29.5333 33.7581 28.88 33.1981 28.44 32.4781C28 31.7581 27.7733 30.9381 27.76 30.0181H30.46C30.4733 30.5648 30.5933 31.0381 30.82 31.4381C31.06 31.8381 31.42 32.1515 31.9 32.3781C32.38 32.6048 33 32.7181 33.76 32.7181C34.6667 32.7181 35.3933 32.5515 35.94 32.2181C36.4867 31.8715 36.76 31.3648 36.76 30.6981C36.76 30.3115 36.7 29.9915 36.58 29.7381C36.46 29.4715 36.26 29.2515 35.98 29.0781C35.7 28.9048 35.3267 28.7581 34.86 28.6381C34.4067 28.5181 33.8333 28.3981 33.14 28.2781C32.3133 28.1448 31.58 27.9715 30.94 27.7581C30.3133 27.5315 29.7867 27.2581 29.36 26.9381C28.9333 26.6181 28.6133 26.2315 28.4 25.7781C28.1867 25.3115 28.08 24.7581 28.08 24.1181C28.08 23.2381 28.3 22.4781 28.74 21.8381C29.1933 21.1981 29.8333 20.7048 30.66 20.3581C31.4867 19.9981 32.4733 19.8181 33.62 19.8181C34.7533 19.8181 35.72 19.9981 36.52 20.3581C37.3333 20.7181 37.96 21.2248 38.4 21.8781C38.84 22.5181 39.06 23.2648 39.06 24.1181H36.4C36.3733 23.5981 36.2333 23.1715 35.98 22.8381C35.7267 22.4915 35.3867 22.2381 34.96 22.0781C34.5467 21.9181 34.0667 21.8381 33.52 21.8381C32.96 21.8381 32.4733 21.9181 32.06 22.0781C31.66 22.2381 31.3533 22.4648 31.14 22.7581C30.9267 23.0381 30.82 23.3781 30.82 23.7781C30.82 24.2715 30.94 24.6515 31.18 24.9181C31.4333 25.1715 31.8333 25.3715 32.38 25.5181C32.94 25.6648 33.66 25.8115 34.54 25.9581C35.1667 26.0648 35.7733 26.1981 36.36 26.3581C36.96 26.5181 37.4933 26.7581 37.96 27.0781C38.44 27.3848 38.82 27.8115 39.1 28.3581C39.38 28.8915 39.52 29.5848 39.52 30.4381C39.52 31.2915 39.3 32.0448 38.86 32.6981C38.42 33.3515 37.7667 33.8581 36.9 34.2181C36.0333 34.5781 34.9533 34.7581 33.66 34.7581ZM46.2998 34.7581C45.4998 34.7581 44.7798 34.6381 44.1398 34.3981C43.4998 34.1448 42.9398 33.7781 42.4598 33.2981C41.9932 32.8181 41.6332 32.2381 41.3798 31.5581C41.1398 30.8781 41.0198 30.1115 41.0198 29.2581C41.0198 28.1648 41.2265 27.2048 41.6398 26.3781C42.0665 25.5515 42.6732 24.9048 43.4598 24.4381C44.2465 23.9715 45.1932 23.7381 46.2998 23.7381C47.0865 23.7381 47.7998 23.8648 48.4398 24.1181C49.0798 24.3715 49.6265 24.7381 50.0798 25.2181C50.5465 25.6981 50.9065 26.2781 51.1598 26.9581C51.4132 27.6248 51.5398 28.3915 51.5398 29.2581C51.5398 30.3381 51.3265 31.2915 50.8998 32.1181C50.4865 32.9448 49.8865 33.5915 49.0998 34.0581C48.3265 34.5248 47.3932 34.7581 46.2998 34.7581ZM46.2798 32.6981C46.8265 32.6981 47.3065 32.5715 47.7198 32.3181C48.1332 32.0515 48.4532 31.6648 48.6798 31.1581C48.9065 30.6381 49.0198 30.0048 49.0198 29.2581C49.0198 28.6981 48.9532 28.2048 48.8198 27.7781C48.6998 27.3381 48.5198 26.9715 48.2798 26.6781C48.0398 26.3848 47.7532 26.1648 47.4198 26.0181C47.0865 25.8715 46.7132 25.7981 46.2998 25.7981C45.7532 25.7981 45.2665 25.9315 44.8398 26.1981C44.4265 26.4515 44.1065 26.8381 43.8798 27.3581C43.6532 27.8648 43.5398 28.4981 43.5398 29.2581C43.5398 29.8181 43.5998 30.3181 43.7198 30.7581C43.8532 31.1848 44.0398 31.5448 44.2798 31.8381C44.5198 32.1181 44.8065 32.3315 45.1398 32.4781C45.4865 32.6248 45.8665 32.6981 46.2798 32.6981ZM54.1148 34.5781V25.9381H52.4348V23.9381H54.1148V22.5981C54.1148 21.7448 54.3682 21.0981 54.8748 20.6581C55.3948 20.2181 56.1215 19.9981 57.0548 19.9981H58.8948V21.7581H57.7148C57.2882 21.7581 56.9948 21.8515 56.8348 22.0381C56.6882 22.2248 56.6148 22.4715 56.6148 22.7781V23.9381H58.7148V25.9381H56.6148V34.5781H54.1148ZM64.0814 34.5781C63.4281 34.5781 62.9147 34.4848 62.5414 34.2981C62.1814 34.0981 61.9281 33.8181 61.7814 33.4581C61.6347 33.0981 61.5614 32.6648 61.5614 32.1581V25.9581H59.6014V23.9381H61.5614V20.9381L64.0414 20.6781V23.9381H66.3014V25.9581H64.0414V31.6981C64.0414 32.0315 64.1147 32.2581 64.2614 32.3781C64.4081 32.4848 64.6347 32.5381 64.9414 32.5381H66.3014V34.5781H64.0814ZM69.72 34.5781L67.14 23.9381H69.68L71.5 32.1181H71.62L73.26 23.9381H76.08L77.76 32.1381H77.84L79.68 23.9381H82.12L79.52 34.5781H76.24L74.62 27.0981H74.52L72.98 34.5781H69.72ZM87.1163 34.7581C86.4763 34.7581 85.8896 34.6448 85.3563 34.4181C84.8363 34.1781 84.3829 33.8248 83.9963 33.3581C83.6229 32.8915 83.3363 32.3181 83.1363 31.6381C82.9363 30.9448 82.8363 30.1515 82.8363 29.2581C82.8363 28.0448 83.0096 27.0315 83.3563 26.2181C83.7163 25.3915 84.2163 24.7715 84.8563 24.3581C85.5096 23.9448 86.2629 23.7381 87.1163 23.7381C87.7029 23.7381 88.2229 23.8315 88.6763 24.0181C89.1429 24.1915 89.5429 24.4381 89.8763 24.7581C90.2096 25.0781 90.4629 25.4581 90.6363 25.8981H90.7763L90.8763 23.9381H93.2763V34.5781H90.7763V32.5981H90.6363C90.3829 33.2515 89.9496 33.7781 89.3363 34.1781C88.7229 34.5648 87.9829 34.7581 87.1163 34.7581ZM88.0563 32.7181C88.6563 32.7181 89.1496 32.5781 89.5363 32.2981C89.9363 32.0181 90.2363 31.6581 90.4363 31.2181C90.6363 30.7648 90.7363 30.2915 90.7363 29.7981V28.6981C90.7363 28.1915 90.6363 27.7181 90.4363 27.2781C90.2363 26.8248 89.9363 26.4648 89.5363 26.1981C89.1496 25.9181 88.6563 25.7781 88.0563 25.7781C87.5229 25.7781 87.0563 25.9048 86.6563 26.1581C86.2563 26.4115 85.9429 26.7981 85.7163 27.3181C85.4896 27.8248 85.3763 28.4715 85.3763 29.2581C85.3763 30.0181 85.4896 30.6581 85.7163 31.1781C85.9429 31.6981 86.2563 32.0848 86.6563 32.3381C87.0563 32.5915 87.5229 32.7181 88.0563 32.7181ZM95.9572 34.5781V23.9381H98.2172L98.3372 25.7181H98.4172C98.6572 25.0381 99.0439 24.5515 99.5772 24.2581C100.124 23.9515 100.744 23.7981 101.437 23.7981C101.557 23.7981 101.664 23.7981 101.757 23.7981C101.864 23.7981 101.964 23.7981 102.057 23.7981V26.1581C101.977 26.1581 101.877 26.1581 101.757 26.1581C101.651 26.1448 101.531 26.1381 101.397 26.1381C100.757 26.1381 100.224 26.2448 99.7972 26.4581C99.3705 26.6581 99.0439 26.9515 98.8172 27.3381C98.6039 27.7248 98.4839 28.1981 98.4572 28.7581V34.5781H95.9572ZM107.838 34.7581C106.758 34.7581 105.838 34.5381 105.078 34.0981C104.331 33.6448 103.758 33.0115 103.358 32.1981C102.958 31.3715 102.758 30.4115 102.758 29.3181C102.758 28.1848 102.958 27.2048 103.358 26.3781C103.758 25.5381 104.331 24.8915 105.078 24.4381C105.825 23.9848 106.711 23.7581 107.738 23.7581C108.911 23.7581 109.871 24.0181 110.618 24.5381C111.378 25.0448 111.925 25.7515 112.258 26.6581C112.591 27.5648 112.705 28.6048 112.598 29.7781H105.198C105.198 30.4581 105.305 31.0315 105.518 31.4981C105.745 31.9515 106.051 32.2981 106.438 32.5381C106.838 32.7648 107.305 32.8781 107.838 32.8781C108.465 32.8781 108.985 32.7315 109.398 32.4381C109.811 32.1315 110.078 31.7381 110.198 31.2581H112.538C112.458 31.9781 112.205 32.6048 111.778 33.1381C111.351 33.6581 110.798 34.0581 110.118 34.3381C109.438 34.6181 108.678 34.7581 107.838 34.7581ZM105.198 28.4381L104.978 28.1781H110.398L110.158 28.4581C110.185 27.8048 110.098 27.2715 109.898 26.8581C109.698 26.4448 109.411 26.1381 109.038 25.9381C108.665 25.7381 108.231 25.6381 107.738 25.6381C107.231 25.6381 106.791 25.7448 106.418 25.9581C106.045 26.1715 105.751 26.4915 105.538 26.9181C105.325 27.3315 105.211 27.8381 105.198 28.4381Z" fill="white"/>
<path d="M179 27.1572C179 26.8355 179.282 26.5746 179.628 26.5746L192.939 26.5744L187.545 21.573C187.422 21.459 187.361 21.3103 187.361 21.1611C187.361 21.012 187.422 20.8628 187.545 20.7488C187.79 20.5212 188.188 20.5212 188.433 20.7488L194.816 26.666C195.061 26.8936 195.061 27.2624 194.816 27.4902L188.433 33.4074C188.188 33.635 187.79 33.635 187.545 33.4074C187.299 33.1799 187.299 32.811 187.545 32.5832L192.769 27.7398L179.628 27.7398C179.282 27.7398 179 27.4786 179 27.1572L179 27.1572Z" fill="white"/>
<rect x="124" y="19" width="41" height="20" rx="5" fill="white"/>
<path d="M132.961 33V24.6621H136.426C136.869 24.6621 137.273 24.7231 137.639 24.8451C138.005 24.9594 138.314 25.1348 138.565 25.3712C138.824 25.5999 139.023 25.8821 139.16 26.2176C139.305 26.5454 139.377 26.9229 139.377 27.3499C139.377 27.8912 139.259 28.3678 139.023 28.7796C138.786 29.1837 138.447 29.5001 138.005 29.7289C137.57 29.9576 137.044 30.072 136.426 30.072L134.322 30.0606V28.8711L136.175 28.8825C136.495 28.8825 136.777 28.8329 137.021 28.7338C137.273 28.6347 137.471 28.4784 137.616 28.2649C137.761 28.0437 137.833 27.7578 137.833 27.4071C137.833 27.0563 137.757 26.7742 137.604 26.5607C137.46 26.3472 137.265 26.1947 137.021 26.1032C136.777 26.0041 136.495 25.9545 136.175 25.9545H134.253L134.471 25.7372V33H132.961ZM140.417 33V24.6621H141.847V33H140.417ZM145.516 33.1029C145.051 33.1029 144.654 33.0114 144.326 32.8284C143.998 32.6454 143.751 32.3747 143.583 32.0164C143.415 31.6504 143.331 31.2081 143.331 30.6896V26.9152H144.761V30.3122C144.761 30.6553 144.807 30.9489 144.898 31.1929C144.99 31.4292 145.131 31.6122 145.321 31.7419C145.512 31.8715 145.76 31.9363 146.065 31.9363C146.37 31.9363 146.633 31.8601 146.854 31.7076C147.083 31.5551 147.258 31.353 147.38 31.1014C147.502 30.8421 147.563 30.5524 147.563 30.2321V26.9152H148.993V33H147.62L147.563 31.8219H147.495C147.342 32.2337 147.087 32.5501 146.728 32.7712C146.377 32.9924 145.973 33.1029 145.516 33.1029ZM152.689 33.1144C152.147 33.1144 151.682 33.0305 151.293 32.8627C150.904 32.6874 150.603 32.4472 150.39 32.1422C150.184 31.8372 150.081 31.4826 150.081 31.0785H151.488C151.495 31.4292 151.614 31.6847 151.842 31.8448C152.071 32.0049 152.368 32.085 152.734 32.085C153.093 32.085 153.364 32.0202 153.547 31.8906C153.737 31.7533 153.832 31.5665 153.832 31.3301C153.832 31.1395 153.791 30.9946 153.707 30.8955C153.623 30.7887 153.486 30.7087 153.295 30.6553C153.104 30.5943 152.853 30.5409 152.54 30.4952C152.029 30.4189 151.602 30.316 151.259 30.1864C150.916 30.0491 150.66 29.8623 150.493 29.6259C150.325 29.3896 150.241 29.0769 150.241 28.6881C150.241 28.3068 150.344 27.9751 150.55 27.693C150.756 27.4109 151.046 27.1936 151.419 27.0411C151.793 26.8809 152.231 26.8009 152.734 26.8009C153.222 26.8009 153.646 26.8809 154.004 27.0411C154.37 27.1936 154.652 27.4147 154.85 27.7044C155.056 27.9866 155.163 28.3259 155.171 28.7224H153.764C153.764 28.5089 153.718 28.3373 153.627 28.2077C153.543 28.0704 153.421 27.9713 153.261 27.9103C153.1 27.8493 152.914 27.8188 152.7 27.8188C152.38 27.8188 152.128 27.8874 151.945 28.0247C151.762 28.1543 151.671 28.3335 151.671 28.5622C151.671 28.73 151.717 28.8672 151.808 28.974C151.907 29.0731 152.063 29.1532 152.277 29.2142C152.49 29.2752 152.765 29.3286 153.1 29.3743C153.466 29.4277 153.783 29.4963 154.05 29.5802C154.324 29.6641 154.553 29.7784 154.736 29.9233C154.919 30.0606 155.056 30.2359 155.148 30.4494C155.247 30.6553 155.296 30.9069 155.296 31.2043C155.296 31.8143 155.056 32.2871 154.576 32.6226C154.103 32.9504 153.474 33.1144 152.689 33.1144Z" fill="#16191C"/>
</svg>
