<svg width="178" height="26" viewBox="0 0 178 26" fill="none" xmlns="http://www.w3.org/2000/svg">
<path fill-rule="evenodd" clip-rule="evenodd" d="M13 26C20.1799 26 26 20.1799 26 13C26 5.8201 20.1799 0 13 0C5.8201 0 0 5.8201 0 13C0 20.1799 5.8201 26 13 26ZM17.5968 8.4032C17.8409 8.15944 18.1718 8.02263 18.5168 8.02288C18.8618 8.02312 19.1925 8.16039 19.4363 8.4045C19.6801 8.64861 19.8169 8.97955 19.8166 9.32452C19.8164 9.66949 19.6791 10.0002 19.435 10.244L12.0861 17.5929L12.0809 17.5981C11.9605 17.7192 11.8172 17.8154 11.6595 17.881C11.5018 17.9466 11.3326 17.9803 11.1618 17.9803C10.991 17.9803 10.8218 17.9466 10.6641 17.881C10.5064 17.8154 10.3631 17.7192 10.2427 17.5981L10.2375 17.5929L6.565 13.9204C6.44084 13.8005 6.3418 13.657 6.27367 13.4984C6.20554 13.3398 6.16967 13.1692 6.16817 12.9966C6.16667 12.824 6.19957 12.6528 6.26493 12.4931C6.3303 12.3333 6.42683 12.1881 6.54889 12.0661C6.67095 11.944 6.81609 11.8475 6.97586 11.7821C7.13562 11.7168 7.30681 11.6839 7.47942 11.6854C7.65203 11.6869 7.82262 11.7227 7.98123 11.7909C8.13983 11.859 8.28328 11.958 8.4032 12.0822L11.1618 14.8395L17.5968 8.4045V8.4032Z" fill="#FF7500"/>
<path d="M47.953 21V5.691H49.738V19.866L49.318 19.362H57.298V21H47.953ZM62.5933 21.189C61.9213 21.189 61.3053 21.063 60.7453 20.811C60.1993 20.545 59.7233 20.174 59.3173 19.698C58.9113 19.208 58.5963 18.613 58.3723 17.913C58.1623 17.199 58.0573 16.387 58.0573 15.477C58.0573 14.273 58.2463 13.244 58.6243 12.39C59.0163 11.536 59.5483 10.892 60.2203 10.458C60.9063 10.01 61.6973 9.786 62.5933 9.786C63.2373 9.786 63.8183 9.891 64.3363 10.101C64.8683 10.297 65.3163 10.584 65.6803 10.962C66.0443 11.326 66.3173 11.76 66.4993 12.264H66.6043L66.6673 9.975H68.3053V21H66.6043V18.69H66.4993C66.2193 19.432 65.7433 20.034 65.0713 20.496C64.3993 20.958 63.5733 21.189 62.5933 21.189ZM63.1603 19.761C63.9023 19.761 64.5253 19.586 65.0293 19.236C65.5333 18.886 65.9183 18.438 66.1843 17.892C66.4503 17.346 66.5833 16.765 66.5833 16.149V14.805C66.5833 14.189 66.4503 13.608 66.1843 13.062C65.9183 12.502 65.5333 12.054 65.0293 11.718C64.5253 11.368 63.9023 11.193 63.1603 11.193C62.4883 11.193 61.9003 11.361 61.3963 11.697C60.8923 12.019 60.5003 12.495 60.2203 13.125C59.9403 13.755 59.8003 14.539 59.8003 15.477C59.8003 16.401 59.9403 17.185 60.2203 17.829C60.5003 18.459 60.8923 18.942 61.3963 19.278C61.9003 19.6 62.4883 19.761 63.1603 19.761ZM74.4066 21C73.8606 21 73.4266 20.923 73.1046 20.769C72.7966 20.615 72.5726 20.384 72.4326 20.076C72.3066 19.754 72.2436 19.362 72.2436 18.9V11.382H70.1016V9.975H72.2436V6.678L73.9446 6.447V9.975H76.5066V11.382H73.9446V18.606C73.9446 18.998 74.0146 19.257 74.1546 19.383C74.2946 19.509 74.5536 19.572 74.9316 19.572H76.5066V21H74.4066ZM82.6402 21.189C81.5902 21.189 80.6872 20.958 79.9312 20.496C79.1892 20.034 78.6222 19.376 78.2302 18.522C77.8382 17.668 77.6422 16.674 77.6422 15.54C77.6422 14.378 77.8382 13.37 78.2302 12.516C78.6222 11.648 79.1822 10.983 79.9102 10.521C80.6382 10.045 81.5272 9.807 82.5772 9.807C83.6972 9.807 84.6212 10.059 85.3492 10.563C86.0772 11.067 86.6022 11.767 86.9242 12.663C87.2602 13.559 87.3862 14.595 87.3022 15.771H79.3012C79.3152 16.681 79.4552 17.444 79.7212 18.06C80.0012 18.662 80.3862 19.117 80.8762 19.425C81.3802 19.719 81.9682 19.866 82.6402 19.866C83.4522 19.866 84.1172 19.663 84.6352 19.257C85.1532 18.851 85.4822 18.319 85.6222 17.661H87.2392C87.1552 18.403 86.8962 19.04 86.4622 19.572C86.0422 20.104 85.4962 20.51 84.8242 20.79C84.1662 21.056 83.4382 21.189 82.6402 21.189ZM79.3222 14.805L79.1332 14.553H85.8322L85.6432 14.847C85.6572 13.965 85.5382 13.258 85.2862 12.726C85.0342 12.18 84.6702 11.781 84.1942 11.529C83.7322 11.263 83.1932 11.13 82.5772 11.13C81.9332 11.13 81.3732 11.27 80.8972 11.55C80.4212 11.83 80.0432 12.243 79.7632 12.789C79.4972 13.321 79.3502 13.993 79.3222 14.805ZM93.415 21.21C92.477 21.21 91.665 21.056 90.979 20.748C90.307 20.44 89.789 20.013 89.425 19.467C89.075 18.921 88.9 18.284 88.9 17.556H90.601C90.601 18.368 90.86 18.97 91.378 19.362C91.91 19.74 92.603 19.929 93.457 19.929C94.311 19.929 94.962 19.768 95.41 19.446C95.872 19.124 96.103 18.669 96.103 18.081C96.103 17.633 96.005 17.29 95.809 17.052C95.613 16.8 95.312 16.604 94.906 16.464C94.5 16.324 93.968 16.205 93.31 16.107C92.4 15.981 91.637 15.806 91.021 15.582C90.419 15.358 89.964 15.043 89.656 14.637C89.362 14.217 89.215 13.671 89.215 12.999C89.215 12.355 89.39 11.795 89.74 11.319C90.09 10.829 90.58 10.451 91.21 10.185C91.84 9.905 92.575 9.765 93.415 9.765C94.297 9.765 95.046 9.912 95.662 10.206C96.292 10.486 96.768 10.885 97.09 11.403C97.426 11.907 97.601 12.509 97.615 13.209H95.956C95.942 12.691 95.823 12.278 95.599 11.97C95.389 11.662 95.095 11.438 94.717 11.298C94.353 11.144 93.912 11.067 93.394 11.067C92.61 11.067 92.001 11.228 91.567 11.55C91.133 11.872 90.916 12.299 90.916 12.831C90.916 13.237 91.021 13.566 91.231 13.818C91.441 14.056 91.763 14.245 92.197 14.385C92.631 14.511 93.191 14.623 93.877 14.721C94.493 14.805 95.046 14.917 95.536 15.057C96.026 15.197 96.439 15.393 96.775 15.645C97.125 15.883 97.384 16.191 97.552 16.569C97.734 16.933 97.825 17.388 97.825 17.934C97.825 18.984 97.419 19.796 96.607 20.37C95.809 20.93 94.745 21.21 93.415 21.21ZM103.159 21C102.613 21 102.179 20.923 101.857 20.769C101.549 20.615 101.325 20.384 101.185 20.076C101.059 19.754 100.996 19.362 100.996 18.9V11.382H98.8536V9.975H100.996V6.678L102.697 6.447V9.975H105.259V11.382H102.697V18.606C102.697 18.998 102.767 19.257 102.907 19.383C103.047 19.509 103.306 19.572 103.684 19.572H105.259V21H103.159ZM116.813 21.189C116.015 21.189 115.287 21.056 114.629 20.79C113.985 20.51 113.432 20.125 112.97 19.635C112.508 19.131 112.151 18.536 111.899 17.85C111.647 17.15 111.521 16.366 111.521 15.498C111.521 14.364 111.738 13.37 112.172 12.516C112.62 11.662 113.243 10.997 114.041 10.521C114.853 10.045 115.798 9.807 116.876 9.807C117.744 9.807 118.521 9.968 119.207 10.29C119.893 10.612 120.446 11.067 120.866 11.655C121.286 12.229 121.524 12.901 121.58 13.671H119.942C119.844 13.139 119.648 12.698 119.354 12.348C119.06 11.998 118.696 11.732 118.262 11.55C117.828 11.354 117.352 11.256 116.834 11.256C116.078 11.256 115.434 11.438 114.902 11.802C114.37 12.152 113.957 12.649 113.663 13.293C113.383 13.923 113.243 14.665 113.243 15.519C113.243 16.401 113.39 17.157 113.684 17.787C113.992 18.417 114.412 18.9 114.944 19.236C115.476 19.572 116.099 19.74 116.813 19.74C117.401 19.74 117.919 19.635 118.367 19.425C118.829 19.201 119.193 18.893 119.459 18.501C119.739 18.109 119.914 17.654 119.984 17.136H121.643C121.573 17.948 121.321 18.662 120.887 19.278C120.467 19.88 119.907 20.349 119.207 20.685C118.507 21.021 117.709 21.189 116.813 21.189ZM124.345 21V5.691H130.351C131.149 5.691 131.87 5.796 132.514 6.006C133.172 6.216 133.732 6.531 134.194 6.951C134.656 7.357 135.006 7.854 135.244 8.442C135.496 9.03 135.622 9.709 135.622 10.479C135.622 11.445 135.405 12.292 134.971 13.02C134.551 13.734 133.942 14.287 133.144 14.679C132.36 15.071 131.422 15.267 130.33 15.267H125.899V13.797H130.078C130.834 13.797 131.485 13.678 132.031 13.44C132.591 13.188 133.018 12.817 133.312 12.327C133.62 11.823 133.774 11.221 133.774 10.521C133.774 9.793 133.62 9.191 133.312 8.715C133.018 8.239 132.591 7.882 132.031 7.644C131.485 7.392 130.834 7.266 130.078 7.266H125.794L126.13 6.951V21H124.345ZM141.405 21.189C140.733 21.189 140.117 21.063 139.557 20.811C139.011 20.545 138.535 20.174 138.129 19.698C137.723 19.208 137.408 18.613 137.184 17.913C136.974 17.199 136.869 16.387 136.869 15.477C136.869 14.273 137.058 13.244 137.436 12.39C137.828 11.536 138.36 10.892 139.032 10.458C139.718 10.01 140.509 9.786 141.405 9.786C142.049 9.786 142.63 9.891 143.148 10.101C143.68 10.297 144.128 10.584 144.492 10.962C144.856 11.326 145.129 11.76 145.311 12.264H145.416L145.479 9.975H147.117V21H145.416V18.69H145.311C145.031 19.432 144.555 20.034 143.883 20.496C143.211 20.958 142.385 21.189 141.405 21.189ZM141.972 19.761C142.714 19.761 143.337 19.586 143.841 19.236C144.345 18.886 144.73 18.438 144.996 17.892C145.262 17.346 145.395 16.765 145.395 16.149V14.805C145.395 14.189 145.262 13.608 144.996 13.062C144.73 12.502 144.345 12.054 143.841 11.718C143.337 11.368 142.714 11.193 141.972 11.193C141.3 11.193 140.712 11.361 140.208 11.697C139.704 12.019 139.312 12.495 139.032 13.125C138.752 13.755 138.612 14.539 138.612 15.477C138.612 16.401 138.752 17.185 139.032 17.829C139.312 18.459 139.704 18.942 140.208 19.278C140.712 19.6 141.3 19.761 141.972 19.761ZM150.299 21V9.975H151.916L151.979 12.264H152.105C152.441 11.452 152.959 10.843 153.659 10.437C154.359 10.017 155.122 9.807 155.948 9.807C156.522 9.807 157.047 9.891 157.523 10.059C158.013 10.227 158.433 10.5 158.783 10.878C159.147 11.256 159.427 11.746 159.623 12.348C159.819 12.936 159.917 13.657 159.917 14.511V21H158.216V14.847C158.216 14.021 158.111 13.342 157.901 12.81C157.705 12.278 157.397 11.886 156.977 11.634C156.571 11.368 156.046 11.235 155.402 11.235C154.716 11.235 154.114 11.403 153.596 11.739C153.078 12.075 152.679 12.53 152.399 13.104C152.119 13.664 151.979 14.308 151.979 15.036V21H150.299ZM167.235 21.189C166.185 21.189 165.282 20.958 164.526 20.496C163.784 20.034 163.217 19.376 162.825 18.522C162.433 17.668 162.237 16.674 162.237 15.54C162.237 14.378 162.433 13.37 162.825 12.516C163.217 11.648 163.777 10.983 164.505 10.521C165.233 10.045 166.122 9.807 167.172 9.807C168.292 9.807 169.216 10.059 169.944 10.563C170.672 11.067 171.197 11.767 171.519 12.663C171.855 13.559 171.981 14.595 171.897 15.771H163.896C163.91 16.681 164.05 17.444 164.316 18.06C164.596 18.662 164.981 19.117 165.471 19.425C165.975 19.719 166.563 19.866 167.235 19.866C168.047 19.866 168.712 19.663 169.23 19.257C169.748 18.851 170.077 18.319 170.217 17.661H171.834C171.75 18.403 171.491 19.04 171.057 19.572C170.637 20.104 170.091 20.51 169.419 20.79C168.761 21.056 168.033 21.189 167.235 21.189ZM163.917 14.805L163.728 14.553H170.427L170.238 14.847C170.252 13.965 170.133 13.258 169.881 12.726C169.629 12.18 169.265 11.781 168.789 11.529C168.327 11.263 167.788 11.13 167.172 11.13C166.528 11.13 165.968 11.27 165.492 11.55C165.016 11.83 164.638 12.243 164.358 12.789C164.092 13.321 163.945 13.993 163.917 14.805ZM174.314 21V5.691H176.015V21H174.314Z" fill="white"/>
</svg>
