<svg width="191" height="26" viewBox="0 0 191 26" fill="none" xmlns="http://www.w3.org/2000/svg">
<path fill-rule="evenodd" clip-rule="evenodd" d="M13 26C20.1799 26 26 20.1799 26 13C26 5.8201 20.1799 0 13 0C5.8201 0 0 5.8201 0 13C0 20.1799 5.8201 26 13 26ZM17.5968 8.4032C17.8409 8.15944 18.1718 8.02263 18.5168 8.02288C18.8618 8.02312 19.1925 8.16039 19.4363 8.4045C19.6801 8.64861 19.8169 8.97955 19.8166 9.32452C19.8164 9.66949 19.6791 10.0002 19.435 10.244L12.0861 17.5929L12.0809 17.5981C11.9605 17.7192 11.8172 17.8154 11.6595 17.881C11.5018 17.9466 11.3326 17.9803 11.1618 17.9803C10.991 17.9803 10.8218 17.9466 10.6641 17.881C10.5064 17.8154 10.3631 17.7192 10.2427 17.5981L10.2375 17.5929L6.565 13.9204C6.44084 13.8005 6.3418 13.657 6.27367 13.4984C6.20554 13.3398 6.16967 13.1692 6.16817 12.9966C6.16667 12.824 6.19957 12.6528 6.26493 12.4931C6.3303 12.3333 6.42683 12.1881 6.54889 12.0661C6.67095 11.944 6.81609 11.8475 6.97586 11.7821C7.13562 11.7168 7.30681 11.6839 7.47942 11.6854C7.65203 11.6869 7.82262 11.7227 7.98123 11.7909C8.13983 11.859 8.28328 11.958 8.4032 12.0822L11.1618 14.8395L17.5968 8.4045V8.4032Z" fill="#FF7500"/>
<path d="M54.295 21.189C53.175 21.189 52.16 21.007 51.25 20.643C50.34 20.265 49.556 19.733 48.898 19.047C48.254 18.361 47.757 17.542 47.407 16.59C47.057 15.624 46.882 14.546 46.882 13.356C46.882 12.152 47.057 11.074 47.407 10.122C47.757 9.156 48.261 8.33 48.919 7.644C49.577 6.958 50.354 6.433 51.25 6.069C52.16 5.705 53.175 5.523 54.295 5.523C55.527 5.523 56.626 5.74 57.592 6.174C58.572 6.594 59.37 7.196 59.986 7.98C60.616 8.764 61.008 9.688 61.162 10.752H59.335C59.195 10.038 58.901 9.408 58.453 8.862C58.005 8.316 57.431 7.889 56.731 7.581C56.031 7.259 55.219 7.098 54.295 7.098C53.161 7.098 52.174 7.35 51.334 7.854C50.494 8.358 49.85 9.079 49.402 10.017C48.954 10.941 48.73 12.054 48.73 13.356C48.73 14.322 48.856 15.197 49.108 15.981C49.374 16.751 49.745 17.409 50.221 17.955C50.711 18.487 51.299 18.9 51.985 19.194C52.671 19.474 53.441 19.614 54.295 19.614C55.205 19.614 56.01 19.46 56.71 19.152C57.424 18.844 58.005 18.41 58.453 17.85C58.915 17.29 59.209 16.632 59.335 15.876L61.162 15.897C61.036 16.961 60.665 17.892 60.049 18.69C59.433 19.488 58.628 20.104 57.634 20.538C56.654 20.972 55.541 21.189 54.295 21.189ZM63.6331 21V5.691H65.3341V21H63.6331ZM73.0915 21.189C72.2935 21.189 71.5655 21.056 70.9075 20.79C70.2635 20.524 69.7035 20.139 69.2275 19.635C68.7655 19.131 68.4015 18.536 68.1355 17.85C67.8835 17.15 67.7575 16.373 67.7575 15.519C67.7575 14.385 67.9745 13.391 68.4085 12.537C68.8425 11.683 69.4585 11.018 70.2565 10.542C71.0685 10.052 72.0135 9.807 73.0915 9.807C73.8895 9.807 74.6105 9.94 75.2545 10.206C75.9125 10.458 76.4725 10.836 76.9345 11.34C77.3965 11.844 77.7535 12.446 78.0055 13.146C78.2575 13.846 78.3835 14.63 78.3835 15.498C78.3835 16.618 78.1665 17.605 77.7325 18.459C77.3125 19.313 76.7035 19.985 75.9055 20.475C75.1075 20.951 74.1695 21.189 73.0915 21.189ZM73.0915 19.719C73.8055 19.719 74.4285 19.558 74.9605 19.236C75.4925 18.9 75.9055 18.417 76.1995 17.787C76.5075 17.143 76.6615 16.38 76.6615 15.498C76.6615 14.84 76.5775 14.252 76.4095 13.734C76.2415 13.202 76.0035 12.754 75.6955 12.39C75.3875 12.012 75.0165 11.725 74.5825 11.529C74.1485 11.333 73.6515 11.235 73.0915 11.235C72.3775 11.235 71.7475 11.41 71.2015 11.76C70.6695 12.096 70.2495 12.579 69.9415 13.209C69.6475 13.839 69.5005 14.609 69.5005 15.519C69.5005 16.163 69.5775 16.751 69.7315 17.283C69.8995 17.801 70.1375 18.242 70.4455 18.606C70.7675 18.97 71.1525 19.25 71.6005 19.446C72.0485 19.628 72.5455 19.719 73.0915 19.719ZM84.6831 21.189C83.8711 21.189 83.1641 21.028 82.5621 20.706C81.9601 20.37 81.4981 19.873 81.1761 19.215C80.8541 18.543 80.6931 17.717 80.6931 16.737V9.975H82.3941V16.317C82.3941 17.045 82.4921 17.668 82.6881 18.186C82.8841 18.69 83.1921 19.075 83.6121 19.341C84.0461 19.607 84.5991 19.74 85.2711 19.74C85.9291 19.74 86.5101 19.579 87.0141 19.257C87.5181 18.935 87.9101 18.48 88.1901 17.892C88.4701 17.304 88.6101 16.625 88.6101 15.855V9.975H90.3111V21H88.6941L88.6101 18.648H88.5051C88.2111 19.432 87.7211 20.055 87.0351 20.517C86.3491 20.965 85.5651 21.189 84.6831 21.189ZM97.0874 21.189C96.4154 21.189 95.7994 21.063 95.2394 20.811C94.6934 20.545 94.2174 20.174 93.8114 19.698C93.4054 19.208 93.0904 18.613 92.8664 17.913C92.6564 17.199 92.5514 16.387 92.5514 15.477C92.5514 14.273 92.7404 13.244 93.1184 12.39C93.5104 11.536 94.0424 10.892 94.7144 10.458C95.4004 10.01 96.1914 9.786 97.0874 9.786C97.7314 9.786 98.3124 9.891 98.8304 10.101C99.3624 10.297 99.8104 10.584 100.174 10.962C100.538 11.326 100.811 11.76 100.993 12.264H101.098V5.691H102.799L102.778 21H101.161L101.098 18.69H100.993C100.713 19.432 100.237 20.034 99.5654 20.496C98.8934 20.958 98.0674 21.189 97.0874 21.189ZM97.6544 19.761C98.3964 19.761 99.0194 19.586 99.5234 19.236C100.027 18.886 100.412 18.438 100.678 17.892C100.944 17.346 101.077 16.765 101.077 16.149V14.805C101.077 14.343 101 13.902 100.846 13.482C100.692 13.048 100.475 12.663 100.195 12.327C99.9154 11.977 99.5584 11.704 99.1244 11.508C98.7044 11.298 98.2144 11.193 97.6544 11.193C96.9824 11.193 96.3944 11.361 95.8904 11.697C95.3864 12.019 94.9944 12.495 94.7144 13.125C94.4344 13.755 94.2944 14.539 94.2944 15.477C94.2944 16.401 94.4344 17.185 94.7144 17.829C94.9944 18.459 95.3864 18.942 95.8904 19.278C96.3944 19.6 96.9824 19.761 97.6544 19.761ZM106.339 21V5.691H108.124V19.866L107.704 19.362H115.684V21H106.339ZM117.466 21V9.975H119.167V21H117.466ZM117.466 8.148V5.691H119.167V8.148H117.466ZM122.367 21V9.975H123.984L124.047 12.264H124.173C124.509 11.452 125.027 10.843 125.727 10.437C126.427 10.017 127.19 9.807 128.016 9.807C128.59 9.807 129.115 9.891 129.591 10.059C130.081 10.227 130.501 10.5 130.851 10.878C131.215 11.256 131.495 11.746 131.691 12.348C131.887 12.936 131.985 13.657 131.985 14.511V21H130.284V14.847C130.284 14.021 130.179 13.342 129.969 12.81C129.773 12.278 129.465 11.886 129.045 11.634C128.639 11.368 128.114 11.235 127.47 11.235C126.784 11.235 126.182 11.403 125.664 11.739C125.146 12.075 124.747 12.53 124.467 13.104C124.187 13.664 124.047 14.308 124.047 15.036V21H122.367ZM138.762 21.189C137.95 21.189 137.243 21.028 136.641 20.706C136.039 20.37 135.577 19.873 135.255 19.215C134.933 18.543 134.772 17.717 134.772 16.737V9.975H136.473V16.317C136.473 17.045 136.571 17.668 136.767 18.186C136.963 18.69 137.271 19.075 137.691 19.341C138.125 19.607 138.678 19.74 139.35 19.74C140.008 19.74 140.589 19.579 141.093 19.257C141.597 18.935 141.989 18.48 142.269 17.892C142.549 17.304 142.689 16.625 142.689 15.855V9.975H144.39V21H142.773L142.689 18.648H142.584C142.29 19.432 141.8 20.055 141.114 20.517C140.428 20.965 139.644 21.189 138.762 21.189ZM145.831 21L150.199 15.288L146.293 9.975H148.288L151.291 14.091H151.396L154.357 9.975H156.289L152.467 15.246L156.709 21H154.714L151.354 16.401H151.228L147.742 21H145.831ZM167.8 21.168C166.918 21.168 166.141 21.021 165.469 20.727C164.811 20.419 164.258 19.964 163.81 19.362C163.376 18.76 163.047 18.025 162.823 17.157C162.599 16.275 162.487 15.267 162.487 14.133C162.487 12.677 162.599 11.417 162.823 10.353C163.061 9.289 163.411 8.414 163.873 7.728C164.335 7.028 164.909 6.51 165.595 6.174C166.295 5.838 167.1 5.67 168.01 5.67C168.948 5.67 169.753 5.831 170.425 6.153C171.111 6.461 171.65 6.909 172.042 7.497C172.448 8.085 172.686 8.771 172.756 9.555H171.118C171.048 9.037 170.873 8.603 170.593 8.253C170.313 7.903 169.949 7.637 169.501 7.455C169.067 7.259 168.57 7.161 168.01 7.161C167.24 7.161 166.603 7.322 166.099 7.644C165.609 7.966 165.224 8.421 164.944 9.009C164.678 9.597 164.489 10.297 164.377 11.109C164.265 11.907 164.202 12.796 164.188 13.776H164.293C164.447 13.244 164.706 12.782 165.07 12.39C165.448 11.998 165.903 11.697 166.435 11.487C166.981 11.263 167.59 11.151 168.262 11.151C169.186 11.151 169.998 11.354 170.698 11.76C171.398 12.166 171.944 12.74 172.336 13.482C172.728 14.224 172.924 15.099 172.924 16.107C172.924 17.157 172.707 18.06 172.273 18.816C171.839 19.572 171.237 20.153 170.467 20.559C169.697 20.965 168.808 21.168 167.8 21.168ZM167.842 19.677C168.528 19.677 169.116 19.53 169.606 19.236C170.096 18.928 170.481 18.501 170.761 17.955C171.041 17.409 171.181 16.772 171.181 16.044C171.181 15.302 171.041 14.665 170.761 14.133C170.481 13.601 170.096 13.195 169.606 12.915C169.116 12.621 168.542 12.474 167.884 12.474C167.17 12.474 166.554 12.642 166.036 12.978C165.532 13.3 165.14 13.741 164.86 14.301C164.594 14.847 164.461 15.47 164.461 16.17C164.461 16.884 164.601 17.507 164.881 18.039C165.161 18.571 165.553 18.977 166.057 19.257C166.575 19.537 167.17 19.677 167.842 19.677ZM175.084 21V19.11H176.827V21H175.084ZM184.014 21.168C183.118 21.168 182.334 21.007 181.662 20.685C180.99 20.363 180.451 19.915 180.045 19.341C179.653 18.767 179.415 18.081 179.331 17.283H180.969C181.025 17.773 181.186 18.2 181.452 18.564C181.718 18.914 182.068 19.187 182.502 19.383C182.95 19.579 183.461 19.677 184.035 19.677C184.805 19.677 185.428 19.523 185.904 19.215C186.38 18.893 186.744 18.445 186.996 17.871C187.262 17.283 187.444 16.583 187.542 15.771C187.64 14.959 187.689 14.056 187.689 13.062H187.605C187.353 13.832 186.884 14.462 186.198 14.952C185.512 15.442 184.651 15.687 183.615 15.687C182.691 15.687 181.879 15.484 181.179 15.078C180.479 14.658 179.933 14.077 179.541 13.335C179.149 12.593 178.953 11.732 178.953 10.752C178.953 9.688 179.17 8.778 179.604 8.022C180.038 7.266 180.64 6.685 181.41 6.279C182.194 5.873 183.09 5.67 184.098 5.67C184.98 5.67 185.75 5.824 186.408 6.132C187.08 6.44 187.633 6.895 188.067 7.497C188.515 8.099 188.844 8.841 189.054 9.723C189.278 10.591 189.39 11.599 189.39 12.747C189.39 14.315 189.271 15.638 189.033 16.716C188.809 17.78 188.466 18.641 188.004 19.299C187.556 19.957 186.996 20.433 186.324 20.727C185.666 21.021 184.896 21.168 184.014 21.168ZM183.993 14.343C184.721 14.343 185.337 14.182 185.841 13.86C186.359 13.538 186.751 13.097 187.017 12.537C187.283 11.977 187.416 11.354 187.416 10.668C187.416 9.94 187.276 9.317 186.996 8.799C186.716 8.281 186.324 7.882 185.82 7.602C185.316 7.308 184.721 7.161 184.035 7.161C183.363 7.161 182.775 7.315 182.271 7.623C181.767 7.917 181.375 8.337 181.095 8.883C180.829 9.429 180.696 10.066 180.696 10.794C180.696 11.536 180.829 12.173 181.095 12.705C181.375 13.223 181.767 13.629 182.271 13.923C182.775 14.203 183.349 14.343 183.993 14.343Z" fill="white"/>
</svg>
