<svg width="103" height="16" viewBox="0 0 103 16" fill="none" xmlns="http://www.w3.org/2000/svg">
<path d="M0.68 15V0.419999H6.72C8.14667 0.419999 9.35333 0.726666 10.34 1.34C11.34 1.94 12.0933 2.78667 12.6 3.88C13.12 4.97333 13.38 6.25333 13.38 7.72C13.38 8.8 13.2333 9.79333 12.94 10.7C12.6467 11.5933 12.2133 12.36 11.64 13C11.08 13.64 10.3867 14.1333 9.56 14.48C8.73333 14.8267 7.78667 15 6.72 15H0.68ZM3.32 12.72H6.32C6.96 12.72 7.54667 12.6267 8.08 12.44C8.61333 12.2533 9.07333 11.96 9.46 11.56C9.84667 11.1467 10.1467 10.62 10.36 9.98C10.5733 9.34 10.68 8.56667 10.68 7.66C10.68 6.47333 10.4933 5.52 10.12 4.8C9.74667 4.06667 9.23333 3.53333 8.58 3.2C7.94 2.85333 7.18667 2.68 6.32 2.68H3.32V12.72ZM19.1944 15.18C18.5544 15.18 17.9677 15.0667 17.4344 14.84C16.9144 14.6 16.461 14.2467 16.0744 13.78C15.701 13.3133 15.4144 12.74 15.2144 12.06C15.0144 11.3667 14.9144 10.5733 14.9144 9.68C14.9144 8.46667 15.0877 7.45333 15.4344 6.64C15.7944 5.81333 16.2944 5.19333 16.9344 4.78C17.5877 4.36667 18.341 4.16 19.1944 4.16C19.781 4.16 20.301 4.25333 20.7544 4.44C21.221 4.61333 21.621 4.86 21.9544 5.18C22.2877 5.5 22.541 5.88 22.7144 6.32H22.8544L22.9544 4.36H25.3544V15H22.8544V13.02H22.7144C22.461 13.6733 22.0277 14.2 21.4144 14.6C20.801 14.9867 20.061 15.18 19.1944 15.18ZM20.1344 13.14C20.7344 13.14 21.2277 13 21.6144 12.72C22.0144 12.44 22.3144 12.08 22.5144 11.64C22.7144 11.1867 22.8144 10.7133 22.8144 10.22V9.12C22.8144 8.61333 22.7144 8.14 22.5144 7.7C22.3144 7.24667 22.0144 6.88667 21.6144 6.62C21.2277 6.34 20.7344 6.2 20.1344 6.2C19.601 6.2 19.1344 6.32667 18.7344 6.58C18.3344 6.83333 18.021 7.22 17.7944 7.74C17.5677 8.24667 17.4544 8.89333 17.4544 9.68C17.4544 10.44 17.5677 11.08 17.7944 11.6C18.021 12.12 18.3344 12.5067 18.7344 12.76C19.1344 13.0133 19.601 13.14 20.1344 13.14ZM31.3353 15C30.682 15 30.1686 14.9067 29.7953 14.72C29.4353 14.52 29.182 14.24 29.0353 13.88C28.8886 13.52 28.8153 13.0867 28.8153 12.58V6.38H26.8553V4.36H28.8153V1.36L31.2953 1.1V4.36H33.5553V6.38H31.2953V12.12C31.2953 12.4533 31.3686 12.68 31.5153 12.8C31.662 12.9067 31.8886 12.96 32.1953 12.96H33.5553V15H31.3353ZM38.8233 15.18C38.1833 15.18 37.5966 15.0667 37.0633 14.84C36.5433 14.6 36.0899 14.2467 35.7033 13.78C35.3299 13.3133 35.0433 12.74 34.8433 12.06C34.6433 11.3667 34.5433 10.5733 34.5433 9.68C34.5433 8.46667 34.7166 7.45333 35.0633 6.64C35.4233 5.81333 35.9233 5.19333 36.5633 4.78C37.2166 4.36667 37.9699 4.16 38.8233 4.16C39.4099 4.16 39.9299 4.25333 40.3833 4.44C40.8499 4.61333 41.2499 4.86 41.5833 5.18C41.9166 5.5 42.1699 5.88 42.3433 6.32H42.4833L42.5833 4.36H44.9833V15H42.4833V13.02H42.3433C42.0899 13.6733 41.6566 14.2 41.0433 14.6C40.4299 14.9867 39.6899 15.18 38.8233 15.18ZM39.7633 13.14C40.3633 13.14 40.8566 13 41.2433 12.72C41.6433 12.44 41.9433 12.08 42.1433 11.64C42.3433 11.1867 42.4433 10.7133 42.4433 10.22V9.12C42.4433 8.61333 42.3433 8.14 42.1433 7.7C41.9433 7.24667 41.6433 6.88667 41.2433 6.62C40.8566 6.34 40.3633 6.2 39.7633 6.2C39.2299 6.2 38.7633 6.32667 38.3633 6.58C37.9633 6.83333 37.6499 7.22 37.4233 7.74C37.1966 8.24667 37.0833 8.89333 37.0833 9.68C37.0833 10.44 37.1966 11.08 37.4233 11.6C37.6499 12.12 37.9633 12.5067 38.3633 12.76C38.7633 13.0133 39.2299 13.14 39.7633 13.14ZM53.8042 15.2C53.2442 15.2 52.7309 15.1133 52.2642 14.94C51.7976 14.7533 51.3976 14.5 51.0642 14.18C50.7309 13.8467 50.4776 13.4667 50.3042 13.04H50.1642L50.0642 15H47.6642V0.419999H50.1642V6.32H50.3042C50.5576 5.68 50.9909 5.16 51.6042 4.76C52.2176 4.36 52.9509 4.16 53.8042 4.16C54.4576 4.16 55.0442 4.28 55.5642 4.52C56.0976 4.74667 56.5509 5.09333 56.9242 5.56C57.3109 6.02667 57.6042 6.60667 57.8042 7.3C58.0042 7.98 58.1042 8.77333 58.1042 9.68C58.1042 10.88 57.9242 11.8933 57.5642 12.72C57.2176 13.5333 56.7176 14.1533 56.0642 14.58C55.4242 14.9933 54.6709 15.2 53.8042 15.2ZM52.8842 13.16C53.4176 13.16 53.8842 13.0333 54.2842 12.78C54.6842 12.5133 54.9976 12.1267 55.2242 11.62C55.4509 11.1 55.5642 10.4533 55.5642 9.68C55.5642 9.09333 55.4976 8.58667 55.3642 8.16C55.2442 7.72 55.0642 7.35333 54.8242 7.06C54.5842 6.76667 54.2976 6.55333 53.9642 6.42C53.6442 6.27333 53.2842 6.2 52.8842 6.2C52.2976 6.2 51.8042 6.34 51.4042 6.62C51.0042 6.9 50.6976 7.26 50.4842 7.7C50.2842 8.14 50.1842 8.61333 50.1842 9.12V10.24C50.1842 10.7333 50.2842 11.2 50.4842 11.64C50.6976 12.08 51.0042 12.4467 51.4042 12.74C51.8042 13.02 52.2976 13.16 52.8842 13.16ZM63.9405 15.18C63.3005 15.18 62.7138 15.0667 62.1805 14.84C61.6605 14.6 61.2071 14.2467 60.8205 13.78C60.4471 13.3133 60.1605 12.74 59.9605 12.06C59.7605 11.3667 59.6605 10.5733 59.6605 9.68C59.6605 8.46667 59.8338 7.45333 60.1805 6.64C60.5405 5.81333 61.0405 5.19333 61.6805 4.78C62.3338 4.36667 63.0871 4.16 63.9405 4.16C64.5271 4.16 65.0471 4.25333 65.5005 4.44C65.9671 4.61333 66.3671 4.86 66.7005 5.18C67.0338 5.5 67.2871 5.88 67.4605 6.32H67.6005L67.7005 4.36H70.1005V15H67.6005V13.02H67.4605C67.2071 13.6733 66.7738 14.2 66.1605 14.6C65.5471 14.9867 64.8071 15.18 63.9405 15.18ZM64.8805 13.14C65.4805 13.14 65.9738 13 66.3605 12.72C66.7605 12.44 67.0605 12.08 67.2605 11.64C67.4605 11.1867 67.5605 10.7133 67.5605 10.22V9.12C67.5605 8.61333 67.4605 8.14 67.2605 7.7C67.0605 7.24667 66.7605 6.88667 66.3605 6.62C65.9738 6.34 65.4805 6.2 64.8805 6.2C64.3471 6.2 63.8805 6.32667 63.4805 6.58C63.0805 6.83333 62.7671 7.22 62.5405 7.74C62.3138 8.24667 62.2005 8.89333 62.2005 9.68C62.2005 10.44 62.3138 11.08 62.5405 11.6C62.7671 12.12 63.0805 12.5067 63.4805 12.76C63.8805 13.0133 64.3471 13.14 64.8805 13.14ZM76.6614 15.2C75.7147 15.2 74.9014 15.0533 74.2214 14.76C73.5414 14.4533 73.0147 14.0333 72.6414 13.5C72.2814 12.9667 72.1014 12.3467 72.1014 11.64H74.5614C74.5747 12.2533 74.7814 12.7 75.1814 12.98C75.5814 13.26 76.1014 13.4 76.7414 13.4C77.3681 13.4 77.8414 13.2867 78.1614 13.06C78.4947 12.82 78.6614 12.4933 78.6614 12.08C78.6614 11.7467 78.5881 11.4933 78.4414 11.32C78.2947 11.1333 78.0547 10.9933 77.7214 10.9C77.3881 10.7933 76.9481 10.7 76.4014 10.62C75.5081 10.4867 74.7614 10.3067 74.1614 10.08C73.5614 9.84 73.1147 9.51333 72.8214 9.1C72.5281 8.68667 72.3814 8.14 72.3814 7.46C72.3814 6.79333 72.5614 6.21333 72.9214 5.72C73.2814 5.22667 73.7881 4.84667 74.4414 4.58C75.0947 4.3 75.8614 4.16 76.7414 4.16C77.5947 4.16 78.3347 4.3 78.9614 4.58C79.6014 4.84667 80.0947 5.23333 80.4414 5.74C80.8014 6.23333 80.9881 6.82667 81.0014 7.52H78.5414C78.5414 7.14667 78.4614 6.84667 78.3014 6.62C78.1547 6.38 77.9414 6.20667 77.6614 6.1C77.3814 5.99333 77.0547 5.94 76.6814 5.94C76.1214 5.94 75.6814 6.06 75.3614 6.3C75.0414 6.52667 74.8814 6.84 74.8814 7.24C74.8814 7.53333 74.9614 7.77333 75.1214 7.96C75.2947 8.13333 75.5681 8.27333 75.9414 8.38C76.3147 8.48667 76.7947 8.58 77.3814 8.66C78.0214 8.75333 78.5747 8.87333 79.0414 9.02C79.5214 9.16667 79.9214 9.36667 80.2414 9.62C80.5614 9.86 80.8014 10.1667 80.9614 10.54C81.1347 10.9 81.2214 11.34 81.2214 11.86C81.2214 12.9267 80.8014 13.7533 79.9614 14.34C79.1347 14.9133 78.0347 15.2 76.6614 15.2ZM87.7288 15.18C86.6488 15.18 85.7288 14.96 84.9688 14.52C84.2221 14.0667 83.6488 13.4333 83.2488 12.62C82.8488 11.7933 82.6488 10.8333 82.6488 9.74C82.6488 8.60667 82.8488 7.62667 83.2488 6.8C83.6488 5.96 84.2221 5.31333 84.9688 4.86C85.7154 4.40667 86.6021 4.18 87.6288 4.18C88.8021 4.18 89.7621 4.44 90.5088 4.96C91.2688 5.46667 91.8154 6.17333 92.1488 7.08C92.4821 7.98667 92.5954 9.02667 92.4888 10.2H85.0888C85.0888 10.88 85.1954 11.4533 85.4088 11.92C85.6354 12.3733 85.9421 12.72 86.3288 12.96C86.7288 13.1867 87.1954 13.3 87.7288 13.3C88.3554 13.3 88.8754 13.1533 89.2888 12.86C89.7021 12.5533 89.9688 12.16 90.0888 11.68H92.4288C92.3488 12.4 92.0954 13.0267 91.6688 13.56C91.2421 14.08 90.6888 14.48 90.0088 14.76C89.3288 15.04 88.5688 15.18 87.7288 15.18ZM85.0888 8.86L84.8688 8.6H90.2888L90.0488 8.88C90.0754 8.22667 89.9888 7.69333 89.7888 7.28C89.5888 6.86667 89.3021 6.56 88.9288 6.36C88.5554 6.16 88.1221 6.06 87.6288 6.06C87.1221 6.06 86.6821 6.16667 86.3088 6.38C85.9354 6.59333 85.6421 6.91333 85.4288 7.34C85.2154 7.75333 85.1021 8.26 85.0888 8.86ZM98.3997 15.2C97.453 15.2 96.6397 15.0533 95.9597 14.76C95.2797 14.4533 94.753 14.0333 94.3797 13.5C94.0197 12.9667 93.8397 12.3467 93.8397 11.64H96.2997C96.313 12.2533 96.5197 12.7 96.9197 12.98C97.3197 13.26 97.8397 13.4 98.4797 13.4C99.1064 13.4 99.5797 13.2867 99.8997 13.06C100.233 12.82 100.4 12.4933 100.4 12.08C100.4 11.7467 100.326 11.4933 100.18 11.32C100.033 11.1333 99.793 10.9933 99.4597 10.9C99.1264 10.7933 98.6864 10.7 98.1397 10.62C97.2464 10.4867 96.4997 10.3067 95.8997 10.08C95.2997 9.84 94.853 9.51333 94.5597 9.1C94.2664 8.68667 94.1197 8.14 94.1197 7.46C94.1197 6.79333 94.2997 6.21333 94.6597 5.72C95.0197 5.22667 95.5264 4.84667 96.1797 4.58C96.833 4.3 97.5997 4.16 98.4797 4.16C99.333 4.16 100.073 4.3 100.7 4.58C101.34 4.84667 101.833 5.23333 102.18 5.74C102.54 6.23333 102.726 6.82667 102.74 7.52H100.28C100.28 7.14667 100.2 6.84667 100.04 6.62C99.893 6.38 99.6797 6.20667 99.3997 6.1C99.1197 5.99333 98.793 5.94 98.4197 5.94C97.8597 5.94 97.4197 6.06 97.0997 6.3C96.7797 6.52667 96.6197 6.84 96.6197 7.24C96.6197 7.53333 96.6997 7.77333 96.8597 7.96C97.033 8.13333 97.3064 8.27333 97.6797 8.38C98.053 8.48667 98.533 8.58 99.1197 8.66C99.7597 8.75333 100.313 8.87333 100.78 9.02C101.26 9.16667 101.66 9.36667 101.98 9.62C102.3 9.86 102.54 10.1667 102.7 10.54C102.873 10.9 102.96 11.34 102.96 11.86C102.96 12.9267 102.54 13.7533 101.7 14.34C100.873 14.9133 99.773 15.2 98.3997 15.2Z" fill="white"/>
</svg>
