<svg width="203" height="26" viewBox="0 0 203 26" fill="none" xmlns="http://www.w3.org/2000/svg">
<path fill-rule="evenodd" clip-rule="evenodd" d="M13 26C20.1799 26 26 20.1799 26 13C26 5.8201 20.1799 0 13 0C5.8201 0 0 5.8201 0 13C0 20.1799 5.8201 26 13 26ZM17.5968 8.4032C17.8409 8.15944 18.1718 8.02263 18.5168 8.02288C18.8618 8.02312 19.1925 8.16039 19.4363 8.4045C19.6801 8.64861 19.8169 8.97955 19.8166 9.32452C19.8164 9.66949 19.6791 10.0002 19.435 10.244L12.0861 17.5929L12.0809 17.5981C11.9605 17.7192 11.8172 17.8154 11.6595 17.881C11.5018 17.9466 11.3326 17.9803 11.1618 17.9803C10.991 17.9803 10.8218 17.9466 10.6641 17.881C10.5064 17.8154 10.3631 17.7192 10.2427 17.5981L10.2375 17.5929L6.565 13.9204C6.44084 13.8005 6.3418 13.657 6.27367 13.4984C6.20554 13.3398 6.16967 13.1692 6.16817 12.9966C6.16667 12.824 6.19957 12.6528 6.26493 12.4931C6.3303 12.3333 6.42683 12.1881 6.54889 12.0661C6.67095 11.944 6.81609 11.8475 6.97586 11.7821C7.13562 11.7168 7.30681 11.6839 7.47942 11.6854C7.65203 11.6869 7.82262 11.7227 7.98123 11.7909C8.13983 11.859 8.28328 11.958 8.4032 12.0822L11.1618 14.8395L17.5968 8.4045V8.4032Z" fill="#FF7500"/>
<path d="M47.953 21V5.691H53.959C54.757 5.691 55.478 5.796 56.122 6.006C56.78 6.216 57.34 6.531 57.802 6.951C58.264 7.357 58.614 7.854 58.852 8.442C59.104 9.03 59.23 9.709 59.23 10.479C59.23 11.445 59.013 12.292 58.579 13.02C58.159 13.734 57.55 14.287 56.752 14.679C55.968 15.071 55.03 15.267 53.938 15.267H49.507V13.797H53.686C54.442 13.797 55.093 13.678 55.639 13.44C56.199 13.188 56.626 12.817 56.92 12.327C57.228 11.823 57.382 11.221 57.382 10.521C57.382 9.793 57.228 9.191 56.92 8.715C56.626 8.239 56.199 7.882 55.639 7.644C55.093 7.392 54.442 7.266 53.686 7.266H49.402L49.738 6.951V21H47.953ZM61.7753 21V5.691H63.5603V12.747L63.2663 12.453H73.1153L72.8213 12.747V5.691H74.6063V21H72.8213V13.734L73.1153 14.028H63.2663L63.5603 13.734V21H61.7753ZM78.5301 21V5.691H84.5361C85.3341 5.691 86.0551 5.796 86.6991 6.006C87.3571 6.216 87.9171 6.531 88.3791 6.951C88.8411 7.357 89.1911 7.854 89.4291 8.442C89.6811 9.03 89.8071 9.709 89.8071 10.479C89.8071 11.445 89.5901 12.292 89.1561 13.02C88.7361 13.734 88.1271 14.287 87.3291 14.679C86.5451 15.071 85.6071 15.267 84.5151 15.267H80.0841V13.797H84.2631C85.0191 13.797 85.6701 13.678 86.2161 13.44C86.7761 13.188 87.2031 12.817 87.4971 12.327C87.8051 11.823 87.9591 11.221 87.9591 10.521C87.9591 9.793 87.8051 9.191 87.4971 8.715C87.2031 8.239 86.7761 7.882 86.2161 7.644C85.6701 7.392 85.0191 7.266 84.2631 7.266H79.9791L80.3151 6.951V21H78.5301ZM101.351 21.189C100.343 21.189 99.4612 20.986 98.7052 20.58C97.9632 20.174 97.3822 19.614 96.9622 18.9C96.5422 18.172 96.3322 17.332 96.3322 16.38H98.0122C98.0122 17.038 98.1452 17.612 98.4112 18.102C98.6912 18.592 99.0832 18.977 99.5872 19.257C100.091 19.537 100.686 19.677 101.372 19.677C102.492 19.677 103.353 19.341 103.955 18.669C104.557 17.997 104.858 17.129 104.858 16.065C104.858 15.281 104.711 14.623 104.417 14.091C104.137 13.545 103.738 13.125 103.22 12.831C102.716 12.537 102.114 12.39 101.414 12.39C100.644 12.39 99.9862 12.565 99.4402 12.915C98.8942 13.265 98.4952 13.713 98.2432 14.259H96.6472L96.9832 5.859H105.887V7.35H98.4742L98.2432 12.495L98.3482 12.537C98.6702 12.061 99.1322 11.676 99.7342 11.382C100.35 11.088 101.022 10.941 101.75 10.941C102.492 10.941 103.164 11.067 103.766 11.319C104.368 11.557 104.879 11.907 105.299 12.369C105.733 12.817 106.062 13.349 106.286 13.965C106.51 14.567 106.622 15.246 106.622 16.002C106.622 17.038 106.405 17.948 105.971 18.732C105.537 19.502 104.928 20.104 104.144 20.538C103.36 20.972 102.429 21.189 101.351 21.189ZM108.947 21V19.11H110.69V21H108.947ZM118.065 21.189C117.057 21.189 116.175 20.986 115.419 20.58C114.677 20.174 114.096 19.614 113.676 18.9C113.256 18.172 113.046 17.332 113.046 16.38H114.726C114.726 17.038 114.859 17.612 115.125 18.102C115.405 18.592 115.797 18.977 116.301 19.257C116.805 19.537 117.4 19.677 118.086 19.677C119.206 19.677 120.067 19.341 120.669 18.669C121.271 17.997 121.572 17.129 121.572 16.065C121.572 15.281 121.425 14.623 121.131 14.091C120.851 13.545 120.452 13.125 119.934 12.831C119.43 12.537 118.828 12.39 118.128 12.39C117.358 12.39 116.7 12.565 116.154 12.915C115.608 13.265 115.209 13.713 114.957 14.259H113.361L113.697 5.859H122.601V7.35H115.188L114.957 12.495L115.062 12.537C115.384 12.061 115.846 11.676 116.448 11.382C117.064 11.088 117.736 10.941 118.464 10.941C119.206 10.941 119.878 11.067 120.48 11.319C121.082 11.557 121.593 11.907 122.013 12.369C122.447 12.817 122.776 13.349 123 13.965C123.224 14.567 123.336 15.246 123.336 16.002C123.336 17.038 123.119 17.948 122.685 18.732C122.251 19.502 121.642 20.104 120.858 20.538C120.074 20.972 119.143 21.189 118.065 21.189ZM125.072 22.701L131.708 5.691H133.346L126.752 22.701H125.072ZM140.562 21.189C139.554 21.189 138.672 20.986 137.916 20.58C137.174 20.174 136.593 19.614 136.173 18.9C135.753 18.172 135.543 17.332 135.543 16.38H137.223C137.223 17.038 137.356 17.612 137.622 18.102C137.902 18.592 138.294 18.977 138.798 19.257C139.302 19.537 139.897 19.677 140.583 19.677C141.703 19.677 142.564 19.341 143.166 18.669C143.768 17.997 144.069 17.129 144.069 16.065C144.069 15.281 143.922 14.623 143.628 14.091C143.348 13.545 142.949 13.125 142.431 12.831C141.927 12.537 141.325 12.39 140.625 12.39C139.855 12.39 139.197 12.565 138.651 12.915C138.105 13.265 137.706 13.713 137.454 14.259H135.858L136.194 5.859H145.098V7.35H137.685L137.454 12.495L137.559 12.537C137.881 12.061 138.343 11.676 138.945 11.382C139.561 11.088 140.233 10.941 140.961 10.941C141.703 10.941 142.375 11.067 142.977 11.319C143.579 11.557 144.09 11.907 144.51 12.369C144.944 12.817 145.273 13.349 145.497 13.965C145.721 14.567 145.833 15.246 145.833 16.002C145.833 17.038 145.616 17.948 145.182 18.732C144.748 19.502 144.139 20.104 143.355 20.538C142.571 20.972 141.64 21.189 140.562 21.189ZM148.157 21V19.11H149.9V21H148.157ZM157.444 21.168C156.562 21.168 155.785 21.021 155.113 20.727C154.455 20.419 153.902 19.964 153.454 19.362C153.02 18.76 152.691 18.025 152.467 17.157C152.243 16.275 152.131 15.267 152.131 14.133C152.131 12.677 152.243 11.417 152.467 10.353C152.705 9.289 153.055 8.414 153.517 7.728C153.979 7.028 154.553 6.51 155.239 6.174C155.939 5.838 156.744 5.67 157.654 5.67C158.592 5.67 159.397 5.831 160.069 6.153C160.755 6.461 161.294 6.909 161.686 7.497C162.092 8.085 162.33 8.771 162.4 9.555H160.762C160.692 9.037 160.517 8.603 160.237 8.253C159.957 7.903 159.593 7.637 159.145 7.455C158.711 7.259 158.214 7.161 157.654 7.161C156.884 7.161 156.247 7.322 155.743 7.644C155.253 7.966 154.868 8.421 154.588 9.009C154.322 9.597 154.133 10.297 154.021 11.109C153.909 11.907 153.846 12.796 153.832 13.776H153.937C154.091 13.244 154.35 12.782 154.714 12.39C155.092 11.998 155.547 11.697 156.079 11.487C156.625 11.263 157.234 11.151 157.906 11.151C158.83 11.151 159.642 11.354 160.342 11.76C161.042 12.166 161.588 12.74 161.98 13.482C162.372 14.224 162.568 15.099 162.568 16.107C162.568 17.157 162.351 18.06 161.917 18.816C161.483 19.572 160.881 20.153 160.111 20.559C159.341 20.965 158.452 21.168 157.444 21.168ZM157.486 19.677C158.172 19.677 158.76 19.53 159.25 19.236C159.74 18.928 160.125 18.501 160.405 17.955C160.685 17.409 160.825 16.772 160.825 16.044C160.825 15.302 160.685 14.665 160.405 14.133C160.125 13.601 159.74 13.195 159.25 12.915C158.76 12.621 158.186 12.474 157.528 12.474C156.814 12.474 156.198 12.642 155.68 12.978C155.176 13.3 154.784 13.741 154.504 14.301C154.238 14.847 154.105 15.47 154.105 16.17C154.105 16.884 154.245 17.507 154.525 18.039C154.805 18.571 155.197 18.977 155.701 19.257C156.219 19.537 156.814 19.677 157.486 19.677ZM164.14 22.701L170.776 5.691H172.414L165.82 22.701H164.14ZM177.803 21C177.803 19.46 177.936 18.053 178.202 16.779C178.468 15.491 178.825 14.308 179.273 13.23C179.721 12.138 180.232 11.116 180.806 10.164C181.38 9.198 181.975 8.26 182.591 7.35H175.787V10.479H174.38V5.859H184.607V7.077C184.075 7.847 183.557 8.624 183.053 9.408C182.563 10.192 182.108 10.997 181.688 11.823C181.282 12.649 180.918 13.531 180.596 14.469C180.288 15.393 180.05 16.394 179.882 17.472C179.714 18.55 179.63 19.726 179.63 21H177.803ZM186.958 21V19.11H188.701V21H186.958ZM196.098 21.189C195.286 21.189 194.544 21.021 193.872 20.685C193.214 20.335 192.647 19.831 192.171 19.173C191.695 18.515 191.331 17.703 191.079 16.737C190.827 15.771 190.701 14.665 190.701 13.419C190.701 12.159 190.827 11.046 191.079 10.08C191.345 9.114 191.716 8.309 192.192 7.665C192.668 7.007 193.235 6.517 193.893 6.195C194.551 5.859 195.286 5.691 196.098 5.691C196.91 5.691 197.638 5.859 198.282 6.195C198.94 6.531 199.5 7.028 199.962 7.686C200.438 8.344 200.802 9.156 201.054 10.122C201.306 11.074 201.432 12.173 201.432 13.419C201.432 14.693 201.299 15.813 201.033 16.779C200.781 17.731 200.417 18.543 199.941 19.215C199.479 19.873 198.919 20.37 198.261 20.706C197.617 21.028 196.896 21.189 196.098 21.189ZM196.077 19.719C196.651 19.719 197.162 19.593 197.61 19.341C198.058 19.075 198.436 18.683 198.744 18.165C199.066 17.647 199.304 16.996 199.458 16.212C199.626 15.414 199.71 14.483 199.71 13.419C199.71 12.355 199.626 11.431 199.458 10.647C199.304 9.863 199.066 9.212 198.744 8.694C198.436 8.176 198.058 7.791 197.61 7.539C197.162 7.273 196.651 7.14 196.077 7.14C195.503 7.14 194.992 7.273 194.544 7.539C194.096 7.791 193.711 8.176 193.389 8.694C193.081 9.198 192.843 9.849 192.675 10.647C192.507 11.431 192.423 12.355 192.423 13.419C192.423 14.483 192.507 15.414 192.675 16.212C192.843 16.996 193.081 17.647 193.389 18.165C193.711 18.683 194.096 19.075 194.544 19.341C194.992 19.593 195.503 19.719 196.077 19.719Z" fill="white"/>
</svg>
