<svg width="189" height="16" viewBox="0 0 189 16" fill="none" xmlns="http://www.w3.org/2000/svg">
<path d="M0.04 15L5.06 0.419999H8.78L13.8 15H11.06L9.96 11.8H3.88L2.8 15H0.04ZM4.52 9.76H9.34L7.9 5.66L6.98 2.84H6.88L5.94 5.66L4.52 9.76ZM18.71 15.18C18.07 15.18 17.4833 15.0667 16.95 14.84C16.43 14.6 15.9767 14.2467 15.59 13.78C15.2167 13.3133 14.93 12.74 14.73 12.06C14.53 11.3667 14.43 10.5733 14.43 9.68C14.43 8.46667 14.6033 7.45333 14.95 6.64C15.31 5.81333 15.81 5.19333 16.45 4.78C17.1033 4.36667 17.8567 4.16 18.71 4.16C19.2967 4.16 19.8167 4.25333 20.27 4.44C20.7367 4.61333 21.1367 4.86 21.47 5.18C21.8033 5.5 22.0567 5.88 22.23 6.32H22.37V0.419999H24.87L24.85 15H22.45L22.37 13.02H22.23C21.9767 13.6733 21.5433 14.2 20.93 14.6C20.3167 14.9867 19.5767 15.18 18.71 15.18ZM19.65 13.14C20.25 13.14 20.7433 13 21.13 12.72C21.53 12.44 21.83 12.08 22.03 11.64C22.23 11.1867 22.33 10.7133 22.33 10.22V9.12C22.33 8.73333 22.27 8.36667 22.15 8.02C22.0433 7.67333 21.8767 7.36667 21.65 7.1C21.4367 6.82 21.1567 6.6 20.81 6.44C20.4767 6.28 20.09 6.2 19.65 6.2C19.1167 6.2 18.65 6.32667 18.25 6.58C17.85 6.83333 17.5367 7.22 17.31 7.74C17.0833 8.24667 16.97 8.89333 16.97 9.68C16.97 10.44 17.0833 11.08 17.31 11.6C17.5367 12.12 17.85 12.5067 18.25 12.76C18.65 13.0133 19.1167 13.14 19.65 13.14ZM31.1709 15.18C30.5309 15.18 29.9443 15.0667 29.4109 14.84C28.8909 14.6 28.4376 14.2467 28.0509 13.78C27.6776 13.3133 27.3909 12.74 27.1909 12.06C26.9909 11.3667 26.8909 10.5733 26.8909 9.68C26.8909 8.46667 27.0643 7.45333 27.4109 6.64C27.7709 5.81333 28.2709 5.19333 28.9109 4.78C29.5643 4.36667 30.3176 4.16 31.1709 4.16C31.7576 4.16 32.2776 4.25333 32.7309 4.44C33.1976 4.61333 33.5976 4.86 33.9309 5.18C34.2643 5.5 34.5176 5.88 34.6909 6.32H34.8309V0.419999H37.3309L37.3109 15H34.9109L34.8309 13.02H34.6909C34.4376 13.6733 34.0043 14.2 33.3909 14.6C32.7776 14.9867 32.0376 15.18 31.1709 15.18ZM32.1109 13.14C32.7109 13.14 33.2043 13 33.5909 12.72C33.9909 12.44 34.2909 12.08 34.4909 11.64C34.6909 11.1867 34.7909 10.7133 34.7909 10.22V9.12C34.7909 8.73333 34.7309 8.36667 34.6109 8.02C34.5043 7.67333 34.3376 7.36667 34.1109 7.1C33.8976 6.82 33.6176 6.6 33.2709 6.44C32.9376 6.28 32.5509 6.2 32.1109 6.2C31.5776 6.2 31.1109 6.32667 30.7109 6.58C30.3109 6.83333 29.9976 7.22 29.7709 7.74C29.5443 8.24667 29.4309 8.89333 29.4309 9.68C29.4309 10.44 29.5443 11.08 29.7709 11.6C29.9976 12.12 30.3109 12.5067 30.7109 12.76C31.1109 13.0133 31.5776 13.14 32.1109 13.14ZM40.0119 15V4.36H42.5119V15H40.0119ZM40.0119 2.86V0.419999H42.5119V2.86H40.0119ZM48.5072 15C47.8539 15 47.3405 14.9067 46.9672 14.72C46.6072 14.52 46.3539 14.24 46.2072 13.88C46.0605 13.52 45.9872 13.0867 45.9872 12.58V6.38H44.0272V4.36H45.9872V1.36L48.4672 1.1V4.36H50.7272V6.38H48.4672V12.12C48.4672 12.4533 48.5405 12.68 48.6872 12.8C48.8339 12.9067 49.0605 12.96 49.3672 12.96H50.7272V15H48.5072ZM52.6486 15V4.36H55.1486V15H52.6486ZM52.6486 2.86V0.419999H55.1486V2.86H52.6486ZM62.4639 15.18C61.6639 15.18 60.9439 15.06 60.3039 14.82C59.6639 14.5667 59.1039 14.2 58.6239 13.72C58.1572 13.24 57.7972 12.66 57.5439 11.98C57.3039 11.3 57.1839 10.5333 57.1839 9.68C57.1839 8.58667 57.3906 7.62667 57.8039 6.8C58.2306 5.97333 58.8372 5.32667 59.6239 4.86C60.4106 4.39333 61.3572 4.16 62.4639 4.16C63.2506 4.16 63.9639 4.28667 64.6039 4.54C65.2439 4.79333 65.7906 5.16 66.2439 5.64C66.7106 6.12 67.0706 6.7 67.3239 7.38C67.5772 8.04667 67.7039 8.81333 67.7039 9.68C67.7039 10.76 67.4906 11.7133 67.0639 12.54C66.6506 13.3667 66.0506 14.0133 65.2639 14.48C64.4906 14.9467 63.5572 15.18 62.4639 15.18ZM62.4439 13.12C62.9906 13.12 63.4706 12.9933 63.8839 12.74C64.2972 12.4733 64.6172 12.0867 64.8439 11.58C65.0706 11.06 65.1839 10.4267 65.1839 9.68C65.1839 9.12 65.1172 8.62667 64.9839 8.2C64.8639 7.76 64.6839 7.39333 64.4439 7.1C64.2039 6.80667 63.9172 6.58667 63.5839 6.44C63.2506 6.29333 62.8772 6.22 62.4639 6.22C61.9172 6.22 61.4306 6.35333 61.0039 6.62C60.5906 6.87333 60.2706 7.26 60.0439 7.78C59.8172 8.28667 59.7039 8.92 59.7039 9.68C59.7039 10.24 59.7639 10.74 59.8839 11.18C60.0172 11.6067 60.2039 11.9667 60.4439 12.26C60.6839 12.54 60.9706 12.7533 61.3039 12.9C61.6506 13.0467 62.0306 13.12 62.4439 13.12ZM69.7189 15V4.36H72.1189L72.2189 6.38H72.3389C72.6456 5.63333 73.1122 5.08 73.7389 4.72C74.3656 4.34667 75.0656 4.16 75.8389 4.16C76.3722 4.16 76.8656 4.24667 77.3189 4.42C77.7856 4.58 78.1856 4.84 78.5189 5.2C78.8656 5.54667 79.1322 6.00667 79.3189 6.58C79.5189 7.14 79.6189 7.82 79.6189 8.62V15H77.1189V9.16C77.1189 8.49333 77.0389 7.94667 76.8789 7.52C76.7189 7.08 76.4722 6.75333 76.1389 6.54C75.8189 6.32667 75.3989 6.22 74.8789 6.22C74.3189 6.22 73.8389 6.35333 73.4389 6.62C73.0522 6.88667 72.7522 7.24 72.5389 7.68C72.3256 8.12 72.2189 8.60667 72.2189 9.14V15H69.7189ZM85.8194 15.18C85.1794 15.18 84.5927 15.0667 84.0594 14.84C83.5394 14.6 83.086 14.2467 82.6994 13.78C82.326 13.3133 82.0394 12.74 81.8394 12.06C81.6394 11.3667 81.5394 10.5733 81.5394 9.68C81.5394 8.46667 81.7127 7.45333 82.0594 6.64C82.4194 5.81333 82.9194 5.19333 83.5594 4.78C84.2127 4.36667 84.966 4.16 85.8194 4.16C86.406 4.16 86.926 4.25333 87.3794 4.44C87.846 4.61333 88.246 4.86 88.5794 5.18C88.9127 5.5 89.166 5.88 89.3394 6.32H89.4794L89.5794 4.36H91.9794V15H89.4794V13.02H89.3394C89.086 13.6733 88.6527 14.2 88.0394 14.6C87.426 14.9867 86.686 15.18 85.8194 15.18ZM86.7594 13.14C87.3594 13.14 87.8527 13 88.2394 12.72C88.6394 12.44 88.9394 12.08 89.1394 11.64C89.3394 11.1867 89.4394 10.7133 89.4394 10.22V9.12C89.4394 8.61333 89.3394 8.14 89.1394 7.7C88.9394 7.24667 88.6394 6.88667 88.2394 6.62C87.8527 6.34 87.3594 6.2 86.7594 6.2C86.226 6.2 85.7594 6.32667 85.3594 6.58C84.9594 6.83333 84.646 7.22 84.4194 7.74C84.1927 8.24667 84.0794 8.89333 84.0794 9.68C84.0794 10.44 84.1927 11.08 84.4194 11.6C84.646 12.12 84.9594 12.5067 85.3594 12.76C85.7594 13.0133 86.226 13.14 86.7594 13.14ZM94.6603 15V0.419999H97.1603V15H94.6603ZM109.531 15.18C108.238 15.18 107.151 14.98 106.271 14.58C105.404 14.18 104.751 13.62 104.311 12.9C103.871 12.18 103.644 11.36 103.631 10.44H106.331C106.344 10.9867 106.464 11.46 106.691 11.86C106.931 12.26 107.291 12.5733 107.771 12.8C108.251 13.0267 108.871 13.14 109.631 13.14C110.538 13.14 111.264 12.9733 111.811 12.64C112.358 12.2933 112.631 11.7867 112.631 11.12C112.631 10.7333 112.571 10.4133 112.451 10.16C112.331 9.89333 112.131 9.67333 111.851 9.5C111.571 9.32667 111.198 9.18 110.731 9.06C110.278 8.94 109.704 8.82 109.011 8.7C108.184 8.56667 107.451 8.39333 106.811 8.18C106.184 7.95333 105.658 7.68 105.231 7.36C104.804 7.04 104.484 6.65333 104.271 6.2C104.058 5.73333 103.951 5.18 103.951 4.54C103.951 3.66 104.171 2.9 104.611 2.26C105.064 1.62 105.704 1.12667 106.531 0.779999C107.358 0.419999 108.344 0.239999 109.491 0.239999C110.624 0.239999 111.591 0.419999 112.391 0.779999C113.204 1.14 113.831 1.64667 114.271 2.3C114.711 2.94 114.931 3.68667 114.931 4.54H112.271C112.244 4.02 112.104 3.59333 111.851 3.26C111.598 2.91333 111.258 2.66 110.831 2.5C110.418 2.34 109.938 2.26 109.391 2.26C108.831 2.26 108.344 2.34 107.931 2.5C107.531 2.66 107.224 2.88667 107.011 3.18C106.798 3.46 106.691 3.8 106.691 4.2C106.691 4.69333 106.811 5.07333 107.051 5.34C107.304 5.59333 107.704 5.79333 108.251 5.94C108.811 6.08667 109.531 6.23333 110.411 6.38C111.038 6.48667 111.644 6.62 112.231 6.78C112.831 6.94 113.364 7.18 113.831 7.5C114.311 7.80667 114.691 8.23333 114.971 8.78C115.251 9.31333 115.391 10.0067 115.391 10.86C115.391 11.7133 115.171 12.4667 114.731 13.12C114.291 13.7733 113.638 14.28 112.771 14.64C111.904 15 110.824 15.18 109.531 15.18ZM122.171 15.18C121.371 15.18 120.651 15.06 120.011 14.82C119.371 14.5667 118.811 14.2 118.331 13.72C117.864 13.24 117.504 12.66 117.251 11.98C117.011 11.3 116.891 10.5333 116.891 9.68C116.891 8.58667 117.098 7.62667 117.511 6.8C117.938 5.97333 118.544 5.32667 119.331 4.86C120.118 4.39333 121.064 4.16 122.171 4.16C122.958 4.16 123.671 4.28667 124.311 4.54C124.951 4.79333 125.498 5.16 125.951 5.64C126.418 6.12 126.778 6.7 127.031 7.38C127.284 8.04667 127.411 8.81333 127.411 9.68C127.411 10.76 127.198 11.7133 126.771 12.54C126.358 13.3667 125.758 14.0133 124.971 14.48C124.198 14.9467 123.264 15.18 122.171 15.18ZM122.151 13.12C122.698 13.12 123.178 12.9933 123.591 12.74C124.004 12.4733 124.324 12.0867 124.551 11.58C124.778 11.06 124.891 10.4267 124.891 9.68C124.891 9.12 124.824 8.62667 124.691 8.2C124.571 7.76 124.391 7.39333 124.151 7.1C123.911 6.80667 123.624 6.58667 123.291 6.44C122.958 6.29333 122.584 6.22 122.171 6.22C121.624 6.22 121.138 6.35333 120.711 6.62C120.298 6.87333 119.978 7.26 119.751 7.78C119.524 8.28667 119.411 8.92 119.411 9.68C119.411 10.24 119.471 10.74 119.591 11.18C119.724 11.6067 119.911 11.9667 120.151 12.26C120.391 12.54 120.678 12.7533 121.011 12.9C121.358 13.0467 121.738 13.12 122.151 13.12ZM129.986 15V6.36H128.306V4.36H129.986V3.02C129.986 2.16667 130.239 1.52 130.746 1.08C131.266 0.639999 131.993 0.419999 132.926 0.419999H134.766V2.18H133.586C133.159 2.18 132.866 2.27333 132.706 2.46C132.559 2.64667 132.486 2.89333 132.486 3.2V4.36H134.586V6.36H132.486V15H129.986ZM139.953 15C139.299 15 138.786 14.9067 138.413 14.72C138.053 14.52 137.799 14.24 137.653 13.88C137.506 13.52 137.433 13.0867 137.433 12.58V6.38H135.473V4.36H137.433V1.36L139.913 1.1V4.36H142.173V6.38H139.913V12.12C139.913 12.4533 139.986 12.68 140.133 12.8C140.279 12.9067 140.506 12.96 140.813 12.96H142.173V15H139.953ZM145.591 15L143.011 4.36H145.551L147.371 12.54H147.491L149.131 4.36H151.951L153.631 12.56H153.711L155.551 4.36H157.991L155.391 15H152.111L150.491 7.52H150.391L148.851 15H145.591ZM162.987 15.18C162.347 15.18 161.761 15.0667 161.227 14.84C160.707 14.6 160.254 14.2467 159.867 13.78C159.494 13.3133 159.207 12.74 159.007 12.06C158.807 11.3667 158.707 10.5733 158.707 9.68C158.707 8.46667 158.881 7.45333 159.227 6.64C159.587 5.81333 160.087 5.19333 160.727 4.78C161.381 4.36667 162.134 4.16 162.987 4.16C163.574 4.16 164.094 4.25333 164.547 4.44C165.014 4.61333 165.414 4.86 165.747 5.18C166.081 5.5 166.334 5.88 166.507 6.32H166.647L166.747 4.36H169.147V15H166.647V13.02H166.507C166.254 13.6733 165.821 14.2 165.207 14.6C164.594 14.9867 163.854 15.18 162.987 15.18ZM163.927 13.14C164.527 13.14 165.021 13 165.407 12.72C165.807 12.44 166.107 12.08 166.307 11.64C166.507 11.1867 166.607 10.7133 166.607 10.22V9.12C166.607 8.61333 166.507 8.14 166.307 7.7C166.107 7.24667 165.807 6.88667 165.407 6.62C165.021 6.34 164.527 6.2 163.927 6.2C163.394 6.2 162.927 6.32667 162.527 6.58C162.127 6.83333 161.814 7.22 161.587 7.74C161.361 8.24667 161.247 8.89333 161.247 9.68C161.247 10.44 161.361 11.08 161.587 11.6C161.814 12.12 162.127 12.5067 162.527 12.76C162.927 13.0133 163.394 13.14 163.927 13.14ZM171.828 15V4.36H174.088L174.208 6.14H174.288C174.528 5.46 174.915 4.97333 175.448 4.68C175.995 4.37333 176.615 4.22 177.308 4.22C177.428 4.22 177.535 4.22 177.628 4.22C177.735 4.22 177.835 4.22 177.928 4.22V6.58C177.848 6.58 177.748 6.58 177.628 6.58C177.522 6.56667 177.402 6.56 177.268 6.56C176.628 6.56 176.095 6.66667 175.668 6.88C175.242 7.08 174.915 7.37333 174.688 7.76C174.475 8.14667 174.355 8.62 174.328 9.18V15H171.828ZM183.709 15.18C182.629 15.18 181.709 14.96 180.949 14.52C180.203 14.0667 179.629 13.4333 179.229 12.62C178.829 11.7933 178.629 10.8333 178.629 9.74C178.629 8.60667 178.829 7.62667 179.229 6.8C179.629 5.96 180.203 5.31333 180.949 4.86C181.696 4.40667 182.583 4.18 183.609 4.18C184.783 4.18 185.743 4.44 186.489 4.96C187.249 5.46667 187.796 6.17333 188.129 7.08C188.463 7.98667 188.576 9.02667 188.469 10.2H181.069C181.069 10.88 181.176 11.4533 181.389 11.92C181.616 12.3733 181.923 12.72 182.309 12.96C182.709 13.1867 183.176 13.3 183.709 13.3C184.336 13.3 184.856 13.1533 185.269 12.86C185.683 12.5533 185.949 12.16 186.069 11.68H188.409C188.329 12.4 188.076 13.0267 187.649 13.56C187.223 14.08 186.669 14.48 185.989 14.76C185.309 15.04 184.549 15.18 183.709 15.18ZM181.069 8.86L180.849 8.6H186.269L186.029 8.88C186.056 8.22667 185.969 7.69333 185.769 7.28C185.569 6.86667 185.283 6.56 184.909 6.36C184.536 6.16 184.103 6.06 183.609 6.06C183.103 6.06 182.663 6.16667 182.289 6.38C181.916 6.59333 181.623 6.91333 181.409 7.34C181.196 7.75333 181.083 8.26 181.069 8.86Z" fill="white"/>
</svg>
