<svg width="1920" height="1549" viewBox="0 0 1920 1549" fill="none" xmlns="http://www.w3.org/2000/svg">
<mask id="mask0_2359_14213" style="mask-type:alpha" maskUnits="userSpaceOnUse" x="0" y="0" width="1920" height="1549">
<rect width="1920" height="1549" fill="#D9D9D9"/>
</mask>
<g mask="url(#mask0_2359_14213)">
<g opacity="0.0636858">
<mask id="mask1_2359_14213" style="mask-type:luminance" maskUnits="userSpaceOnUse" x="743" y="176" width="1335" height="1332">
<path fill-rule="evenodd" clip-rule="evenodd" d="M2077.01 176.94H742.998V1507.48H2077.01V176.94Z" fill="white"/>
</mask>
<g mask="url(#mask1_2359_14213)">
<path fill-rule="evenodd" clip-rule="evenodd" d="M745.432 730.237C745.014 720.748 749.429 711.84 757.233 706.414L1507.86 184.299C1513.91 180.089 1521.25 178.482 1528.51 179.77C1535.77 181.063 1542.1 185.096 1546.31 191.132L2069.64 939.652C2072.65 943.945 2074.36 948.971 2074.58 954.177C2075 963.669 2070.58 972.573 2062.78 978.005L1312.15 1500.12C1306.1 1504.33 1298.77 1505.94 1291.5 1504.65C1284.24 1503.35 1277.92 1499.32 1273.7 1493.29L750.37 744.768C747.364 740.473 745.659 735.445 745.432 730.237ZM2076.98 954.074C2076.73 948.41 2074.87 942.951 2071.61 938.282L1548.28 189.761C1543.7 183.202 1536.82 178.816 1528.93 177.411C1521.03 176.01 1513.06 177.758 1506.48 182.332L755.852 704.449C747.371 710.35 742.577 720.029 743.027 730.345C743.278 736.007 745.133 741.467 748.399 746.139L1271.73 1494.66C1276.31 1501.22 1283.18 1505.6 1291.08 1507C1298.97 1508.41 1306.94 1506.66 1313.53 1502.08L2064.15 979.966C2072.63 974.069 2077.43 964.388 2076.98 954.074Z" fill="#DADADA"/>
</g>
<path fill-rule="evenodd" clip-rule="evenodd" d="M780.302 722.688C779.9 713.584 784.094 704.985 791.51 699.686L1516.67 181.506C1522.51 177.33 1529.62 175.674 1536.71 176.84C1543.8 178.008 1550.01 181.858 1554.19 187.681L2073.58 910.796C2076.63 915.042 2078.36 920.029 2078.59 925.22C2078.99 934.326 2074.79 942.926 2067.38 948.219L1342.22 1466.41C1330.16 1475.02 1313.33 1472.25 1304.7 1460.23L785.309 737.113C782.257 732.868 780.528 727.877 780.302 722.688ZM2080.99 925.112C2080.74 919.459 2078.85 914.025 2075.53 909.4L1556.14 186.288C1551.59 179.943 1544.83 175.751 1537.11 174.478C1529.39 173.208 1521.63 175.012 1515.27 179.557L790.114 697.74C782.031 703.512 777.467 712.876 777.899 722.792C778.151 728.448 780.032 733.886 783.356 738.508L1302.75 1461.62C1312.15 1474.72 1330.49 1477.74 1343.62 1468.35L2068.78 950.17C2076.85 944.399 2081.42 935.032 2080.99 925.112Z" fill="#DADADA"/>
<path fill-rule="evenodd" clip-rule="evenodd" d="M815.168 715.135C814.79 706.418 818.762 698.125 825.791 692.956L1525.48 178.71C1537.09 170.171 1553.51 172.65 1562.07 184.234L2077.52 881.944C2080.62 886.132 2082.37 891.088 2082.6 896.267C2082.98 904.983 2079.01 913.273 2071.97 918.441L1372.3 1432.69C1366.66 1436.83 1359.76 1438.53 1352.85 1437.49C1345.93 1436.45 1339.84 1432.78 1335.69 1427.17L820.246 729.454C817.15 725.267 815.392 720.314 815.168 715.135ZM2085 896.157C2084.75 890.502 2082.83 885.096 2079.45 880.525L1564 182.813C1554.66 170.164 1536.73 167.459 1524.05 176.781L824.366 691.027C816.685 696.674 812.35 705.727 812.767 715.242C813.011 720.896 814.928 726.302 818.309 730.878L1333.76 1428.59C1338.29 1434.71 1344.93 1438.72 1352.48 1439.85C1360.03 1440.99 1367.57 1439.14 1373.71 1434.62L2073.4 920.372C2081.07 914.727 2085.41 905.677 2085 896.157Z" fill="#DADADA"/>
<path fill-rule="evenodd" clip-rule="evenodd" d="M850.024 707.582C849.663 699.247 853.419 691.266 860.072 686.228L1534.28 175.915C1539.7 171.815 1546.39 170.063 1553.13 170.983C1559.86 171.902 1565.84 175.385 1569.95 180.787L2081.46 853.095C2084.61 857.234 2086.39 862.147 2086.62 867.312C2086.98 875.645 2083.23 883.626 2076.57 888.664L1402.35 1398.98C1391.18 1407.43 1375.18 1405.25 1366.69 1394.11L855.179 721.801C852.033 717.664 850.251 712.749 850.024 707.582ZM2089.01 867.205C2088.77 861.551 2086.82 856.168 2083.37 851.646L1571.86 179.339C1567.36 173.427 1560.83 169.618 1553.46 168.609C1546.08 167.603 1538.76 169.521 1532.83 174.006L858.621 684.321C851.337 689.833 847.229 698.567 847.626 707.688C847.876 713.342 849.82 718.724 853.267 723.25L1364.78 1395.55C1374.07 1407.75 1391.57 1410.15 1403.81 1400.89L2078.02 890.57C2085.3 885.058 2089.41 876.329 2089.01 867.205Z" fill="#DADADA"/>
<path fill-rule="evenodd" clip-rule="evenodd" d="M884.88 700.033C884.532 692.076 888.074 684.4 894.354 679.498L1543.09 173.119C1548.29 169.057 1554.77 167.257 1561.33 168.056C1567.9 168.853 1573.75 172.15 1577.82 177.341L2085.4 824.243C2088.6 828.318 2090.41 833.195 2090.63 838.352C2090.98 846.308 2087.44 853.984 2081.16 858.887L1432.42 1365.27C1427.21 1369.33 1420.74 1371.12 1414.18 1370.33C1407.62 1369.53 1401.76 1366.23 1397.68 1361.04L890.113 714.143C886.911 710.069 885.105 705.187 884.88 700.033ZM2093.03 838.245C2092.78 832.586 2090.8 827.238 2087.29 822.76L1579.72 175.864C1575.25 170.17 1568.82 166.552 1561.63 165.679C1554.43 164.803 1547.32 166.776 1541.61 171.234L892.876 677.612C885.985 682.989 882.099 691.41 882.481 700.137C882.727 705.794 884.714 711.148 888.217 715.623L1395.79 1362.52C1400.26 1368.22 1406.69 1371.84 1413.89 1372.7C1421.08 1373.59 1428.19 1371.61 1433.9 1367.15L2082.64 860.774C2089.53 855.396 2093.41 846.974 2093.03 838.245Z" fill="#DADADA"/>
<path fill-rule="evenodd" clip-rule="evenodd" d="M919.723 692.481C919.393 684.9 922.721 677.534 928.63 672.77L1551.9 170.323C1562.21 162.012 1577.37 163.613 1585.7 173.893L2089.34 795.395C2092.59 799.403 2094.43 804.248 2094.66 809.394C2094.99 816.977 2091.66 824.341 2085.75 829.105L1462.48 1331.55C1457.49 1335.58 1451.22 1337.42 1444.84 1336.75C1438.45 1336.07 1432.71 1332.96 1428.68 1327.98L925.041 706.485C921.786 702.471 919.946 697.626 919.723 692.481ZM2097.06 809.29C2096.81 803.628 2094.79 798.303 2091.21 793.886L1587.57 172.388C1578.41 161.08 1561.73 159.319 1550.39 168.459L927.12 670.908C920.624 676.143 916.963 684.248 917.325 692.584C917.572 698.244 919.596 703.572 923.175 707.993L1426.81 1329.49C1431.25 1334.97 1437.57 1338.39 1444.59 1339.13C1451.61 1339.88 1458.5 1337.85 1463.99 1333.41L2087.26 830.969C2093.76 825.731 2097.42 817.626 2097.06 809.29Z" fill="#DADADA"/>
<path fill-rule="evenodd" clip-rule="evenodd" d="M954.565 684.927C954.242 677.616 957.287 670.729 962.911 666.038L1560.7 167.524C1565.49 163.538 1571.54 161.644 1577.75 162.196C1583.96 162.748 1589.58 165.679 1593.58 170.449L2093.28 766.541C2096.59 770.497 2098.46 775.298 2098.69 780.434C2099.01 787.748 2095.96 794.638 2090.34 799.327L1492.55 1297.84C1482.67 1306.08 1467.92 1304.76 1459.67 1294.92L959.975 698.826C956.66 694.872 954.787 690.067 954.565 684.927ZM2101.09 780.327C2100.84 774.666 2098.78 769.365 2095.12 765.002L1595.43 168.912C1591.01 163.65 1584.82 160.418 1577.97 159.811C1571.12 159.201 1564.44 161.29 1559.17 165.688L961.375 664.198C955.171 669.373 951.816 676.964 952.165 685.035C952.413 690.704 954.477 696.001 958.136 700.36L1457.83 1296.45C1466.94 1307.31 1483.2 1308.76 1494.09 1299.68L2091.88 801.17C2098.09 795.994 2101.44 788.399 2101.09 780.327Z" fill="#DADADA"/>
<path fill-rule="evenodd" clip-rule="evenodd" d="M989.402 677.378C989.099 670.434 991.939 663.851 997.198 659.303L1569.52 164.73C1574.09 160.775 1579.93 158.834 1585.97 159.266C1592 159.696 1597.5 162.442 1601.47 167.002L2097.22 737.689C2100.6 741.581 2102.51 746.347 2102.73 751.479C2103.04 758.421 2100.19 765.009 2094.94 769.555L1522.62 1264.13C1518.04 1268.08 1512.2 1270.02 1506.17 1269.59C1500.13 1269.16 1494.63 1266.42 1490.67 1261.86L994.912 691.167C991.531 687.28 989.623 682.51 989.402 677.378ZM2105.13 751.376C2104.88 745.698 2102.77 740.424 2099.04 736.124L1603.28 165.434C1598.9 160.39 1592.81 157.351 1586.14 156.877C1579.46 156.4 1573 158.546 1567.94 162.918L995.629 657.493C989.807 662.523 986.67 669.808 987.001 677.483C987.252 683.158 989.356 688.433 993.093 692.741L1488.85 1263.42C1493.23 1268.47 1499.32 1271.51 1505.99 1271.99C1512.67 1272.46 1519.13 1270.31 1524.19 1265.94L2096.51 771.363C2102.33 766.335 2105.47 759.052 2105.13 751.376Z" fill="#DADADA"/>
<path fill-rule="evenodd" clip-rule="evenodd" d="M1024.23 669.827C1023.94 663.255 1026.58 656.966 1031.48 652.57L1578.33 161.926C1582.69 158.012 1588.32 156.028 1594.18 156.337C1600.04 156.644 1605.42 159.208 1609.35 163.558L2101.17 708.843C2104.57 712.607 2106.56 717.469 2106.78 722.522C2107.06 729.093 2104.42 735.384 2099.52 739.776L1552.68 1230.42C1548.32 1234.33 1542.69 1236.32 1536.83 1236.02C1530.97 1235.71 1525.58 1233.14 1521.66 1228.8L1029.84 683.509C1026.44 679.743 1024.44 674.88 1024.23 669.827ZM2109.18 722.419C2108.93 716.81 2106.72 711.416 2102.95 707.242L1611.13 161.956C1606.78 157.133 1600.8 154.285 1594.3 153.943C1587.8 153.601 1581.56 155.806 1576.72 160.147L1029.88 650.792C1024.44 655.665 1021.51 662.642 1021.83 669.931C1022.07 675.539 1024.28 680.927 1028.05 685.111L1519.87 1230.4C1524.22 1235.22 1530.2 1238.07 1536.7 1238.41C1543.2 1238.75 1549.45 1236.55 1554.28 1232.2L2101.13 741.554C2106.57 736.684 2109.5 729.706 2109.18 722.419Z" fill="#DADADA"/>
<path fill-rule="evenodd" clip-rule="evenodd" d="M1059.04 662.276C1058.77 656.069 1061.22 650.078 1065.77 645.835L1587.14 159.127C1591.29 155.25 1596.71 153.218 1602.39 153.406C1608.07 153.593 1613.34 155.976 1617.23 160.117L2105.11 679.995C2108.58 683.692 2110.61 688.513 2110.84 693.568C2111.11 699.775 2108.66 705.766 2104.12 710.008L1582.74 1196.71C1574.17 1204.72 1560.67 1204.27 1552.65 1195.73L1064.77 675.848C1061.3 672.15 1059.26 667.331 1059.04 662.276ZM2113.24 693.464C2112.99 687.838 2110.73 682.473 2106.87 678.359L1618.98 158.48C1614.66 153.872 1608.8 151.22 1602.47 151.012C1596.15 150.805 1590.12 153.064 1585.5 157.379L1064.12 644.089C1059.07 648.808 1056.34 655.473 1056.64 662.38C1056.89 668.004 1059.15 673.368 1063.01 677.487L1550.9 1197.37C1559.82 1206.88 1574.85 1207.37 1584.38 1198.46L2105.76 711.755C2110.81 707.037 2113.54 700.366 2113.24 693.464Z" fill="#DADADA"/>
<path fill-rule="evenodd" clip-rule="evenodd" d="M1093.85 654.724C1093.6 648.882 1095.85 643.185 1100.05 639.101L1595.95 156.323C1604.09 148.4 1617.17 148.558 1625.12 156.674L2109.06 651.148C2112.61 654.767 2114.68 659.554 2114.9 664.606C2115.16 670.455 2112.9 676.148 2108.7 680.232L1612.8 1163.01C1604.66 1170.93 1591.58 1170.77 1583.64 1162.66L1099.7 668.187C1096.15 664.563 1094.07 659.78 1093.85 654.724ZM2117.3 664.499C2117.06 658.858 2114.74 653.519 2110.78 649.472L1626.84 154.998C1617.97 145.939 1603.36 145.764 1594.28 154.611L1098.38 637.386C1093.69 641.945 1091.17 648.303 1091.45 654.831C1091.7 660.475 1094.02 665.816 1097.98 669.861L1581.92 1164.33C1590.79 1173.39 1605.4 1173.57 1614.48 1164.72L2110.38 681.943C2115.06 677.385 2117.59 671.027 2117.3 664.499Z" fill="#DADADA"/>
<path fill-rule="evenodd" clip-rule="evenodd" d="M1128.65 647.173C1128.41 641.682 1130.48 636.287 1134.33 632.367L1604.76 153.52C1612.47 145.676 1625.14 145.546 1633 153.229L2113.01 622.296C2116.63 625.844 2118.76 630.585 2118.98 635.651C2119.22 641.14 2117.14 646.535 2113.29 650.46L1642.87 1129.31C1635.16 1137.15 1622.49 1137.28 1614.63 1129.59L1134.62 660.526C1130.99 656.98 1128.87 652.236 1128.65 647.173ZM2121.38 635.545C2121.13 629.874 2118.75 624.562 2114.69 620.586L1634.69 151.517C1625.87 142.91 1611.68 143.057 1603.05 151.843L1132.62 630.688C1128.3 635.081 1125.98 641.128 1126.25 647.277C1126.5 652.951 1128.88 658.262 1132.94 662.237L1612.94 1131.31C1621.75 1139.91 1635.95 1139.77 1644.58 1130.98L2115.01 652.14C2119.32 647.743 2121.65 641.693 2121.38 635.545Z" fill="#DADADA"/>
<path fill-rule="evenodd" clip-rule="evenodd" d="M1163.44 639.624C1163.21 634.408 1165.05 629.435 1168.63 625.621L1613.58 150.716C1617.1 146.956 1621.89 144.785 1627.04 144.61C1632.2 144.436 1637.12 146.276 1640.89 149.789L2116.95 593.452C2120.68 596.919 2122.84 601.62 2123.07 606.693C2123.29 611.907 2121.45 616.88 2117.88 620.695L1672.93 1095.6C1665.65 1103.37 1653.4 1103.78 1645.61 1096.53L1169.55 652.863C1165.83 649.398 1163.66 644.695 1163.44 639.624ZM2125.47 606.584C2125.22 600.879 2122.78 595.601 2118.6 591.705L1642.53 148.038C1638.29 144.086 1632.76 142.02 1626.96 142.218C1621.16 142.413 1615.79 144.852 1611.82 149.08L1166.87 623.987C1162.85 628.275 1160.78 633.866 1161.04 639.728C1161.28 645.433 1163.73 650.72 1167.91 654.613L1643.98 1098.28C1652.72 1106.43 1666.5 1105.97 1674.68 1097.24L2119.64 622.329C2123.65 618.038 2125.73 612.452 2125.47 606.584Z" fill="#DADADA"/>
<path fill-rule="evenodd" clip-rule="evenodd" d="M1198.21 632.072C1198 627.204 1199.67 622.525 1202.91 618.883L1622.39 147.909C1629.24 140.224 1641.08 139.522 1648.78 146.345L2120.91 564.609C2124.73 567.986 2126.95 572.645 2127.17 577.733C2127.38 582.596 2125.71 587.284 2122.47 590.924L1702.99 1061.9C1696.14 1069.59 1684.31 1070.29 1676.6 1063.46L1204.47 645.2C1200.66 641.821 1198.43 637.157 1198.21 632.072ZM2129.57 577.628C2129.32 571.893 2126.81 566.63 2122.5 562.818L1650.38 144.554C1641.68 136.854 1628.32 137.645 1620.6 146.317L1201.11 617.294C1197.46 621.401 1195.57 626.686 1195.81 632.177C1196.06 637.918 1198.57 643.177 1202.87 646.991L1675 1065.26C1683.7 1072.95 1697.06 1072.16 1704.79 1063.49L2124.26 592.52C2127.92 588.408 2129.81 583.121 2129.57 577.628Z" fill="#DADADA"/>
<path fill-rule="evenodd" clip-rule="evenodd" d="M1232.97 624.525C1232.77 620.004 1234.27 615.604 1237.19 612.139L1631.2 145.1C1634.31 141.416 1638.67 139.158 1643.48 138.746C1648.29 138.332 1652.98 139.809 1656.67 142.909L2124.86 535.768C2128.72 539.005 2131.05 543.745 2131.28 548.775C2131.47 553.297 2129.97 557.694 2127.05 561.162L1733.04 1028.2C1726.63 1035.81 1715.2 1036.79 1707.57 1030.39L1239.39 637.538C1235.53 634.299 1233.19 629.555 1232.97 624.525ZM2133.68 548.672C2133.43 542.969 2130.77 537.6 2126.41 533.934L1658.22 141.075C1654.03 137.565 1648.72 135.888 1643.27 136.358C1637.82 136.827 1632.89 139.385 1629.37 143.558L1235.36 610.598C1232.04 614.525 1230.35 619.507 1230.57 624.627C1230.82 630.328 1233.47 635.701 1237.84 639.371L1706.03 1032.23C1714.67 1039.47 1727.61 1038.36 1734.88 1029.74L2128.88 562.701C2132.2 558.776 2133.9 553.794 2133.68 548.672Z" fill="#DADADA"/>
<path fill-rule="evenodd" clip-rule="evenodd" d="M1267.71 616.975C1267.53 612.789 1268.87 608.678 1271.48 605.394L1640.02 142.29C1642.92 138.645 1647.07 136.342 1651.71 135.81C1656.35 135.276 1660.91 136.576 1664.56 139.467L2128.82 506.922C2132.78 510.062 2135.18 514.761 2135.41 519.818C2135.59 523.998 2134.25 528.11 2131.64 531.399L1763.1 994.504C1757.11 1002.03 1746.1 1003.3 1738.56 997.323L1274.31 629.874C1270.34 626.733 1267.93 622.029 1267.71 616.975ZM2137.81 519.71C2137.56 513.962 2134.82 508.619 2130.3 505.044L1666.06 137.59C1661.9 134.301 1656.71 132.823 1651.43 133.43C1646.16 134.036 1641.44 136.653 1638.14 140.802L1269.6 603.906C1266.63 607.64 1265.11 612.321 1265.32 617.081C1265.57 622.828 1268.3 628.176 1272.81 631.747L1737.07 999.202C1745.64 1005.99 1758.17 1004.55 1764.98 995.993L2133.52 532.891C2136.49 529.149 2138.01 524.469 2137.81 519.71Z" fill="#DADADA"/>
<path fill-rule="evenodd" clip-rule="evenodd" d="M1302.45 609.428C1302.28 605.574 1303.46 601.745 1305.78 598.644L1648.84 139.474C1654.4 132.03 1665 130.484 1672.47 136.028L2132.77 478.078C2136.86 481.114 2139.33 485.771 2139.55 490.852C2139.72 494.706 2138.54 498.532 2136.23 501.638L1793.16 960.811C1787.6 968.254 1777 969.799 1769.54 964.254L1309.22 622.206C1305.14 619.17 1302.67 614.514 1302.45 609.428ZM2141.95 490.748C2141.7 484.94 2138.87 479.624 2134.21 476.152L1673.9 134.108C1665.38 127.772 1653.27 129.539 1646.91 138.044L1303.85 597.215C1301.21 600.755 1299.85 605.129 1300.05 609.534C1300.3 615.341 1303.12 620.659 1307.79 624.13L1768.1 966.174C1776.63 972.508 1788.73 970.739 1795.09 962.241L2138.15 503.069C2140.79 499.525 2142.15 495.15 2141.95 490.748Z" fill="#DADADA"/>
<path fill-rule="evenodd" clip-rule="evenodd" d="M1337.16 601.885C1337.01 598.302 1338.01 594.849 1340.07 591.897L1657.66 136.659C1662.79 129.295 1672.98 127.47 1680.37 132.59L2136.74 449.236C2140.95 452.16 2143.5 456.771 2143.72 461.891C2143.87 465.473 2142.87 468.925 2140.81 471.874L1823.22 927.118C1818.09 934.486 1807.9 936.308 1800.51 931.184L1344.14 614.542C1339.93 611.62 1337.38 607.003 1337.16 601.885ZM2146.11 461.785C2145.86 455.914 2142.94 450.62 2138.1 447.267L1681.74 130.625C1673.26 124.75 1661.58 126.842 1655.69 135.29L1338.09 590.529C1335.73 593.915 1334.58 597.876 1334.76 601.988C1335.02 607.861 1337.93 613.154 1342.76 616.509L1799.14 933.154C1807.61 939.029 1819.3 936.936 1825.19 928.489L2142.78 473.247C2145.14 469.863 2146.29 465.901 2146.11 461.785Z" fill="#DADADA"/>
<path fill-rule="evenodd" clip-rule="evenodd" d="M1371.85 594.34C1371.71 591.076 1372.57 587.898 1374.36 585.144L1666.47 133.837C1671.19 126.558 1680.96 124.455 1688.27 129.153L2140.7 420.389C2144.98 423.152 2147.68 427.838 2147.9 432.929C2148.04 436.19 2147.17 439.367 2145.39 442.12L1853.27 893.433C1848.56 900.709 1838.79 902.811 1831.48 898.11L1379.05 606.873C1374.76 604.114 1372.07 599.429 1371.85 594.34ZM2150.3 432.823C2150.04 426.956 2146.94 421.557 2142 418.38L1689.57 127.141C1681.16 121.725 1669.89 124.149 1664.46 132.541L1372.34 583.845C1370.28 587.018 1369.29 590.684 1369.45 594.444C1369.71 600.309 1372.81 605.71 1377.75 608.885L1830.18 900.124C1838.59 905.539 1849.86 903.118 1855.29 894.729L2147.41 443.425C2149.46 440.248 2150.46 436.585 2150.3 432.823Z" fill="#DADADA"/>
<path fill-rule="evenodd" clip-rule="evenodd" d="M1406.52 586.792C1406.39 583.846 1407.13 580.938 1408.64 578.388L1675.29 131.015C1679.58 123.815 1688.95 121.436 1696.17 125.714L2144.66 391.548C2149.09 394.175 2151.88 398.818 2152.1 403.962C2152.23 406.913 2151.49 409.819 2149.98 412.371L1883.33 859.743C1879.04 866.945 1869.67 869.323 1862.45 865.041L1413.96 599.208C1409.52 596.58 1406.75 591.94 1406.52 586.792ZM2154.5 403.857C2154.24 397.901 2151.02 392.529 2145.89 389.49L1697.4 123.655C1689.04 118.701 1678.19 121.456 1673.23 129.793L1406.58 577.161C1404.82 580.116 1403.97 583.48 1404.12 586.901C1404.38 592.857 1407.6 598.227 1412.73 601.27L1861.22 867.104C1869.58 872.055 1880.43 869.303 1885.39 860.968L2152.04 413.595C2153.8 410.644 2154.65 407.273 2154.5 403.857Z" fill="#DADADA"/>
<path fill-rule="evenodd" clip-rule="evenodd" d="M1441.17 579.256C1441.05 576.609 1441.66 573.97 1442.94 571.629L1684.11 128.191C1687.98 121.07 1696.94 118.417 1704.08 122.278L2148.63 362.704C2153.23 365.189 2156.1 369.782 2156.33 374.994C2156.45 377.642 2155.84 380.28 2154.56 382.623L1913.39 826.06C1909.51 833.18 1900.56 835.834 1893.42 831.972L1448.86 591.542C1444.27 589.059 1441.39 584.469 1441.17 579.256ZM2158.73 374.891C2158.47 368.921 2155.04 363.447 2149.78 360.602L1705.22 120.172C1696.92 115.683 1686.5 118.768 1682 127.051L1440.83 570.486C1439.34 573.215 1438.64 576.277 1438.77 579.36C1439.03 585.328 1442.46 590.804 1447.71 593.651L1892.27 834.08C1900.58 838.57 1911 835.485 1915.5 827.199L2156.67 383.765C2158.15 381.037 2158.87 377.97 2158.73 374.891Z" fill="#DADADA"/>
<mask id="mask2_2359_14213" style="mask-type:luminance" maskUnits="userSpaceOnUse" x="1473" y="115" width="690" height="688">
<path fill-rule="evenodd" clip-rule="evenodd" d="M2163 115H1473.37V802.743H2163V115Z" fill="white"/>
</mask>
<g mask="url(#mask2_2359_14213)">
<path fill-rule="evenodd" clip-rule="evenodd" d="M1475.78 571.715C1475.68 569.363 1476.18 566.996 1477.23 564.865L1692.93 125.362C1696.38 118.323 1704.93 115.395 1711.99 118.839L2152.61 333.865C2157.3 336.155 2160.36 340.815 2160.58 346.024C2160.69 348.378 2160.19 350.748 2159.14 352.879L1943.45 792.382C1939.99 799.42 1931.44 802.347 1924.38 798.901L1483.76 583.88C1479.07 581.588 1476.01 576.927 1475.78 571.715ZM2162.98 345.919C2162.72 339.831 2159.15 334.386 2153.67 331.714L1713.05 116.687C1704.8 112.665 1694.8 116.082 1690.77 124.309L1475.07 563.812C1473.85 566.301 1473.26 569.07 1473.38 571.821C1473.65 577.91 1477.22 583.356 1482.71 586.029L1923.32 801.052C1931.57 805.081 1941.57 801.662 1945.6 793.435L2161.3 353.929C2162.52 351.444 2163.11 348.672 2162.98 345.919Z" fill="#DADADA"/>
</g>
</g>
</g>
</svg>
