<svg width="430" height="291" viewBox="0 0 430 291" fill="none" xmlns="http://www.w3.org/2000/svg">
<path d="M429.366 12.4173V167.556C429.366 173.854 424.382 178.964 418.239 178.964H192.816C186.673 178.964 181.695 173.854 181.695 167.556V12.4173C181.695 6.11907 186.673 1.00928 192.816 1.00928H418.239C424.382 1.00928 429.366 6.11907 429.366 12.4173Z" fill="#24292E"/>
<path d="M418.238 179.577H192.815C186.345 179.577 181.082 174.184 181.082 167.556V12.4172C181.082 5.78863 186.345 0.395996 192.815 0.395996H418.238C424.711 0.395996 429.977 5.78863 429.977 12.4172V167.556C429.977 174.184 424.711 179.577 418.238 179.577ZM192.815 1.62231C187.02 1.62231 182.306 6.46484 182.306 12.4172V167.556C182.306 173.508 187.02 178.35 192.815 178.35H418.238C424.036 178.35 428.753 173.508 428.753 167.556V12.4172C428.753 6.46484 424.036 1.62231 418.238 1.62231H192.815Z" fill="#FF7500"/>
<path d="M400.607 27.2263H210.456C210.118 27.2263 209.844 26.9518 209.844 26.6132C209.844 26.2745 210.118 26 210.456 26H400.607C400.944 26 401.218 26.2745 401.218 26.6132C401.218 26.9518 400.944 27.2263 400.607 27.2263Z" fill="#FF7500"/>
<path d="M400.607 43.0696H210.456C210.118 43.0696 209.844 42.7951 209.844 42.4564C209.844 42.1178 210.118 41.8433 210.456 41.8433H400.607C400.944 41.8433 401.218 42.1178 401.218 42.4564C401.218 42.7951 400.944 43.0696 400.607 43.0696Z" fill="#FF7500"/>
<path d="M400.607 58.9128H210.456C210.118 58.9128 209.844 58.6383 209.844 58.2997C209.844 57.961 210.118 57.6865 210.456 57.6865H400.607C400.944 57.6865 401.218 57.961 401.218 58.2997C401.218 58.6383 400.944 58.9128 400.607 58.9128Z" fill="#FF7500"/>
<path d="M400.607 74.7566H210.456C210.118 74.7566 209.844 74.4821 209.844 74.1434C209.844 73.8048 210.118 73.5303 210.456 73.5303H400.607C400.944 73.5303 401.218 73.8048 401.218 74.1434C401.218 74.4821 400.944 74.7566 400.607 74.7566Z" fill="#FF7500"/>
<path d="M400.607 90.5999H210.456C210.118 90.5999 209.844 90.3253 209.844 89.9867C209.844 89.6481 210.118 89.3735 210.456 89.3735H400.607C400.944 89.3735 401.218 89.6481 401.218 89.9867C401.218 90.3253 400.944 90.5999 400.607 90.5999Z" fill="#FF7500"/>
<path d="M400.607 106.443H210.456C210.118 106.443 209.844 106.169 209.844 105.83C209.844 105.491 210.118 105.217 210.456 105.217H400.607C400.944 105.217 401.218 105.491 401.218 105.83C401.218 106.169 400.944 106.443 400.607 106.443Z" fill="#FF7500"/>
<path d="M400.607 122.286H210.456C210.118 122.286 209.844 122.012 209.844 121.673C209.844 121.335 210.118 121.06 210.456 121.06H400.607C400.944 121.06 401.218 121.335 401.218 121.673C401.218 122.012 400.944 122.286 400.607 122.286Z" fill="#FF7500"/>
<path d="M400.607 138.13H210.456C210.118 138.13 209.844 137.855 209.844 137.516C209.844 137.178 210.118 136.903 210.456 136.903H400.607C400.944 136.903 401.218 137.178 401.218 137.516C401.218 137.855 400.944 138.13 400.607 138.13Z" fill="#FF7500"/>
<path d="M400.607 153.973H210.456C210.118 153.973 209.844 153.699 209.844 153.36C209.844 153.022 210.118 152.747 210.456 152.747H400.607C400.944 152.747 401.218 153.022 401.218 153.36C401.218 153.699 400.944 153.973 400.607 153.973Z" fill="#FF7500"/>
<path d="M338.397 126.274V278.033C338.397 284.634 333.052 289.99 326.463 289.99H84.6895C78.1009 289.99 72.7617 284.634 72.7617 278.033V126.274C72.7617 119.673 78.1009 114.316 84.6895 114.316H326.463C333.052 114.316 338.397 119.672 338.397 126.274Z" fill="#24292E"/>
<path d="M326.462 290.603H84.6881C77.7738 290.603 72.1484 284.964 72.1484 278.032V126.274C72.1484 119.342 77.7738 113.703 84.6881 113.703H326.462C333.38 113.703 339.008 119.342 339.008 126.274V278.032C339.008 284.964 333.38 290.603 326.462 290.603ZM84.6881 114.929C78.4485 114.929 73.3723 120.019 73.3723 126.274V278.032C73.3723 284.288 78.4485 289.377 84.6881 289.377H326.462C332.705 289.377 337.784 284.288 337.784 278.032V126.274C337.784 120.019 332.705 114.929 326.462 114.929H84.6881Z" fill="#FF7500"/>
<path d="M338.397 126.274V132.272H72.7617V126.274C72.7617 119.673 78.1009 114.316 84.6895 114.316H326.463C333.052 114.316 338.397 119.672 338.397 126.274Z" fill="#FF7500"/>
<path d="M321.1 128.52C320.943 128.52 320.786 128.46 320.667 128.34L311.46 119.115C311.222 118.876 311.222 118.487 311.46 118.248C311.699 118.009 312.087 118.009 312.326 118.248L321.532 127.473C321.771 127.712 321.771 128.101 321.532 128.34C321.413 128.46 321.256 128.52 321.1 128.52Z" fill="white"/>
<path d="M311.894 128.52C311.737 128.52 311.58 128.46 311.461 128.34C311.222 128.101 311.222 127.712 311.461 127.473L320.667 118.248C320.906 118.008 321.294 118.009 321.533 118.248C321.772 118.487 321.772 118.876 321.533 119.115L312.326 128.34C312.207 128.46 312.05 128.52 311.894 128.52ZM300.929 128.52C298.053 128.52 295.714 126.175 295.714 123.294C295.714 120.413 298.053 118.068 300.929 118.068C303.805 118.068 306.144 120.413 306.144 123.294C306.144 126.175 303.805 128.52 300.929 128.52ZM300.929 119.295C298.728 119.295 296.938 121.089 296.938 123.294C296.938 125.499 298.728 127.294 300.929 127.294C303.13 127.294 304.92 125.499 304.92 123.294C304.92 121.089 303.13 119.295 300.929 119.295ZM289.964 123.907H280.628C280.29 123.907 280.016 123.633 280.016 123.294C280.016 122.956 280.29 122.681 280.628 122.681H289.964C290.302 122.681 290.576 122.956 290.576 123.294C290.576 123.633 290.302 123.907 289.964 123.907Z" fill="white"/>
<path d="M0 52.824L47.5497 72.7782V58.627L19.2101 47.4282L47.5497 36.2294V22.0781L0 42.0323V52.824Z" fill="#FF7500"/>
<path d="M53.4414 87.133H67.1576L91.9485 4.66895H78.4354L53.4414 87.133Z" fill="#FF7500"/>
<path d="M97.9414 22.0781V36.2294L126.201 47.4282L97.9414 58.627V72.7782L145.491 52.824V42.0323L97.9414 22.0781Z" fill="#FF7500"/>
<path d="M288.583 289.991C270.36 262.796 227.186 198.044 198.034 151.706C183.968 129.348 169.419 130.658 147.839 148.139C126.258 165.62 125.086 178.567 140.779 197.92C161.214 223.119 187.933 260.352 208.756 289.991H241.772L288.583 289.991Z" fill="white"/>
<path d="M288.583 290.604H208.755C208.556 290.604 208.37 290.507 208.255 290.343C179.511 249.429 156.649 218.463 140.304 198.307C136.311 193.382 133.524 189.016 131.784 184.96C129.947 180.677 129.252 176.696 129.66 172.791C130.09 168.67 131.75 164.643 134.734 160.48C137.624 156.446 141.785 152.253 147.453 147.662C153.698 142.604 159.101 139.105 163.972 136.965C169.223 134.658 173.915 133.892 178.315 134.622C182.019 135.237 185.451 136.89 188.809 139.674C192.154 142.447 195.341 146.276 198.551 151.378C227.864 197.973 271.633 263.597 289.091 289.649C289.217 289.837 289.229 290.079 289.123 290.279C289.017 290.479 288.809 290.604 288.583 290.604ZM209.073 289.377H287.435C269.565 262.703 226.485 198.08 197.516 152.033C191.381 142.281 185.035 136.982 178.115 135.833C170.018 134.488 160.797 138.43 148.223 148.616C137.036 157.677 131.686 165.173 130.877 172.919C130.121 180.159 133.321 187.75 141.254 197.533C157.581 217.669 180.399 248.57 209.073 289.377Z" fill="#FF7500"/>
<path d="M292.921 289.991C282.17 271.67 260.531 234.951 238.603 198.637C232.754 202.768 226.843 206.811 220.854 210.736C208.043 219.133 194.98 227.114 181.932 235.131C176.484 238.479 170.831 241.88 165.852 245.976C177.765 260.792 190.066 276.139 201.114 289.991H241.772H292.921Z" fill="#FF7500"/>
<path d="M182.725 271.453C178.574 274.445 172.748 272.846 170.676 268.162C168.794 263.911 169.542 254.388 164.794 247.773C160.046 241.158 152.016 240.533 148.593 237.393C144.821 233.934 145.163 227.89 149.313 224.899L222.822 171.928C226.942 168.959 232.732 170.506 234.834 175.134C237.037 179.983 234.644 187.432 239.547 193.547C244.451 199.663 253.137 202.416 257.024 206.052C260.734 209.522 260.354 215.514 256.234 218.482L182.725 271.453Z" fill="#FF7500"/>
<path d="M178.043 273.585C177.285 273.585 176.522 273.485 175.772 273.281C173.242 272.593 171.18 270.818 170.115 268.411C169.394 266.781 169.055 264.509 168.663 261.878C168.021 257.57 167.222 252.208 164.296 248.131C161.439 244.15 157.364 242.42 153.769 240.893C151.504 239.931 149.547 239.1 148.178 237.845C146.24 236.067 145.217 233.544 145.371 230.922C145.524 228.308 146.831 225.932 148.955 224.401L222.464 171.43C224.576 169.908 227.228 169.419 229.739 170.089C232.252 170.759 234.311 172.505 235.39 174.88C236.3 176.884 236.462 179.255 236.632 181.765C236.894 185.616 237.165 189.598 240.023 193.163C242.913 196.768 247.203 199.204 250.988 201.354C253.488 202.774 255.849 204.115 257.44 205.603C259.344 207.384 260.34 209.896 260.174 212.496C260.009 215.094 258.702 217.458 256.59 218.98L183.081 271.951C181.59 273.026 179.831 273.585 178.043 273.585ZM227.509 171.022C225.971 171.022 224.46 171.503 223.178 172.426L149.669 225.397C147.846 226.711 146.724 228.751 146.592 230.994C146.46 233.246 147.339 235.413 149.004 236.94C150.218 238.053 152.085 238.846 154.247 239.764C157.805 241.275 162.233 243.155 165.29 247.415C168.389 251.733 169.212 257.258 169.874 261.697C170.253 264.24 170.58 266.436 171.234 267.914C172.149 269.982 173.92 271.507 176.092 272.097C178.257 272.686 180.543 272.27 182.367 270.955L255.876 217.984C257.689 216.678 258.811 214.649 258.953 212.418C259.095 210.186 258.239 208.029 256.605 206.5C255.12 205.111 252.82 203.804 250.385 202.421C246.504 200.217 242.105 197.719 239.069 193.931C235.97 190.066 235.673 185.7 235.411 181.849C235.248 179.453 235.094 177.19 234.276 175.388C233.35 173.349 231.581 171.849 229.424 171.274C228.791 171.105 228.148 171.022 227.509 171.022Z" fill="white"/>
<path d="M197.734 154.658C196.188 149.531 193.547 144.706 189.929 140.556L135.653 78.2871C129.417 71.2772 117.873 72.582 113.79 81.0348C110.281 88.2985 112.352 98.9036 119.731 107.533C125.322 114.752 132.405 123.333 139.712 131.578C141.892 134.491 143.29 142.846 125.186 143.795C107.083 144.744 80.8563 146.131 59.7176 147.173C49.778 147.619 38.5091 147.071 29.7754 149.587C20.628 152.349 14.8344 158.98 14.8359 165.121C14.8372 169.679 16.339 175.711 25.9459 176.477C35.5526 177.243 52.7459 174.549 66.2295 177.158C92.5217 182.098 117.505 192.585 142.964 200.621C142.964 200.621 143.851 201.072 145.414 201.682" fill="white"/>
<path d="M145.412 202.295C145.338 202.295 145.263 202.282 145.191 202.253C143.799 201.711 142.939 201.294 142.733 201.191C135.012 198.753 127.208 196.047 119.661 193.429C102.317 187.413 84.3824 181.193 66.1153 177.761C57.8005 176.152 48.0894 176.575 39.5214 176.948C34.403 177.171 29.5685 177.381 25.8961 177.089C18.1521 176.471 14.2245 172.445 14.2227 165.121C14.2218 161.924 15.715 158.567 18.427 155.668C21.2368 152.664 25.0996 150.358 29.5974 149C36.2619 147.08 44.3475 146.922 52.1668 146.769C54.6637 146.721 57.2456 146.67 59.6888 146.561C78.0221 145.657 99.943 144.506 117.557 143.581L125.153 143.183C135.371 142.647 138.798 139.788 139.874 137.483C140.796 135.509 140.22 133.294 139.236 131.965C132.296 124.135 125.201 115.597 119.255 107.921C115.622 103.669 113.141 98.8214 112.078 93.9017C111.03 89.0491 111.431 84.5075 113.237 80.7679C115.224 76.6555 118.995 73.929 123.583 73.2875C128.283 72.63 132.966 74.3468 136.109 77.8794L190.389 140.153C193.998 144.294 196.74 149.249 198.319 154.481C198.416 154.805 198.233 155.147 197.91 155.245C197.586 155.343 197.245 155.16 197.147 154.836C195.619 149.769 192.963 144.971 189.467 140.96L135.191 78.6909C132.325 75.4693 128.047 73.9018 123.752 74.5022C119.575 75.0861 116.144 77.5647 114.339 81.3023C110.834 88.5584 113.187 98.9397 120.194 107.135C120.201 107.142 120.207 107.15 120.213 107.158C126.149 114.823 133.236 123.351 140.168 131.171C140.18 131.183 140.19 131.197 140.2 131.21C141.324 132.711 142.203 135.391 140.983 138.003C140.177 139.728 138.587 141.139 136.255 142.196C133.551 143.421 129.838 144.165 125.217 144.408L117.621 144.806C100.006 145.731 78.0841 146.882 59.7461 147.786C57.2846 147.896 54.6949 147.947 52.1904 147.996C44.4499 148.147 36.4459 148.303 29.9429 150.177C25.6586 151.471 21.9825 153.66 19.3198 156.507C16.8213 159.178 15.4457 162.237 15.4464 165.121C15.4482 171.786 18.8979 175.301 25.993 175.866C29.59 176.153 34.3883 175.944 39.4682 175.723C48.1038 175.347 57.8913 174.921 66.344 176.557C84.6969 180.005 102.675 186.24 120.061 192.27C127.616 194.891 135.427 197.6 143.147 200.037C143.179 200.047 143.21 200.06 143.24 200.075C143.249 200.079 144.124 200.522 145.634 201.111C145.949 201.233 146.105 201.589 145.983 201.904C145.888 202.147 145.657 202.295 145.412 202.295Z" fill="#FF7500"/>
<path d="M142.505 89.6381C139.509 92.2249 134.987 91.8878 132.405 88.8854L127.383 83.0439" fill="white"/>
<path d="M137.842 91.9915C137.646 91.9915 137.45 91.9842 137.253 91.9695C135.182 91.8152 133.296 90.8621 131.941 89.286L126.918 83.4445C126.697 83.1879 126.726 82.8008 126.982 82.5798C127.238 82.3586 127.624 82.3877 127.845 82.6441L132.868 88.4856C134.01 89.8136 135.599 90.6166 137.344 90.7466C139.088 90.8766 140.779 90.3181 142.104 89.1739C142.36 88.9529 142.747 88.9818 142.967 89.2382C143.188 89.4949 143.159 89.8819 142.903 90.103C141.48 91.3317 139.701 91.9915 137.842 91.9915Z" fill="#FF7500"/>
<path d="M37.575 173.721C37.575 169.758 34.3687 166.545 30.4137 166.545H22.7188" fill="white"/>
<path d="M37.5737 174.335C37.2358 174.335 36.9618 174.06 36.9618 173.722C36.9618 170.103 34.0238 167.159 30.4123 167.159H22.7174C22.3794 167.159 22.1055 166.884 22.1055 166.546C22.1055 166.207 22.3794 165.933 22.7174 165.933H30.4123C34.6986 165.933 38.1857 169.427 38.1857 173.722C38.1857 174.06 37.9117 174.335 37.5737 174.335Z" fill="#FF7500"/>
<path d="M73.9365 168.202C62.2429 160.761 36.8401 144.524 31.2518 140.364C26.1614 136.575 23.3097 128.341 30.0569 121.72C36.804 115.1 49.1019 119.074 57.3472 123.59L101.597 148.119" fill="white"/>
<path d="M73.9348 168.816C73.8227 168.816 73.7091 168.785 73.6073 168.72C62.6459 161.745 36.5403 145.066 30.8857 140.856C27.7674 138.535 25.7555 134.937 25.5038 131.231C25.2578 127.611 26.6838 124.171 29.6276 121.282C32.812 118.158 37.3879 117.01 43.2283 117.872C47.602 118.518 52.72 120.357 57.6396 123.052L101.892 147.583C102.188 147.747 102.295 148.12 102.131 148.416C101.967 148.712 101.595 148.82 101.299 148.656L57.0499 124.126C52.7503 121.771 38.1196 114.666 30.4838 122.158C27.8037 124.788 26.5038 127.897 26.7248 131.148C26.9525 134.5 28.7809 137.762 31.6156 139.872C37.2378 144.057 63.3134 160.717 74.2636 167.685C74.5489 167.866 74.6333 168.245 74.452 168.531C74.3354 168.715 74.1373 168.816 73.9348 168.816Z" fill="#FF7500"/>
<path d="M42.2566 142.289C44.4413 138.985 43.5396 134.533 40.2426 132.344L33.8281 128.084" fill="white"/>
<path d="M42.2549 142.902C42.1389 142.902 42.0214 142.869 41.9174 142.8C41.6357 142.613 41.5587 142.233 41.7454 141.95C43.7401 138.934 42.9138 134.854 39.9034 132.855L33.4888 128.596C33.2071 128.409 33.1301 128.028 33.3167 127.746C33.5034 127.464 33.8831 127.386 34.1648 127.573L40.5794 131.832C44.1524 134.205 45.133 139.047 42.7655 142.628C42.648 142.806 42.4533 142.902 42.2549 142.902Z" fill="#FF7500"/>
<path d="M96.7578 145.52L107.46 151.269C125.596 144.065 148.914 146.858 166.126 159.646" fill="white"/>
<path d="M166.124 160.259C165.997 160.259 165.87 160.22 165.76 160.138C149.048 147.722 126.251 144.464 107.684 151.839C107.516 151.905 107.328 151.895 107.169 151.809L96.4674 146.06C96.1696 145.9 96.0576 145.528 96.2173 145.23C96.3771 144.931 96.7481 144.819 97.0457 144.979L107.498 150.594C116.547 147.057 126.818 145.935 137.221 147.353C147.944 148.814 158.065 152.894 166.489 159.153C166.76 159.355 166.817 159.739 166.616 160.011C166.496 160.173 166.311 160.259 166.124 160.259Z" fill="#FF7500"/>
</svg>
