<svg width="600" height="500" viewBox="0 0 600 500" fill="none" xmlns="http://www.w3.org/2000/svg">
<path d="M526.902 313.8H518.902V312.8H526.902V313.8ZM510.902 313.8H502.902V312.8H510.902V313.8ZM534.302 310.4L533.502 309.7C534.902 308.1 535.602 306.1 535.602 304V302.6H536.602V304C536.702 306.4 535.802 308.6 534.302 310.4ZM536.702 294.6H535.702V286.6H536.702V294.6ZM536.702 278.6H535.702V270.6H536.702V278.6ZM536.702 262.6H535.702V254.6H536.702V262.6ZM536.702 246.6H535.702V238.6H536.702V246.6ZM536.702 230.6H535.702V222.6H536.702V230.6ZM536.702 214.6H535.702V206.6H536.702V214.6ZM536.702 198.6H535.702V190.6H536.702V198.6ZM536.702 182.6H535.702V174.6H536.702V182.6ZM536.702 166.6H535.702V158.6H536.702V166.6ZM536.702 150.6H535.702V150.3C535.702 147.8 534.702 145.5 532.902 143.8L533.602 143.1C535.602 145 536.802 147.6 536.802 150.3V150.6H536.702ZM525.802 141.5H517.802V140.5H525.802V141.5ZM509.802 141.5H501.802V140.5H509.802V141.5ZM493.802 141.5H485.802V140.5H493.802V141.5ZM477.802 141.5H469.802V140.5H477.802V141.5ZM461.802 141.5H453.802V140.5H461.802V141.5ZM445.802 141.5H437.802V140.5H445.802V141.5ZM429.802 141.5H421.802V140.5H429.802V141.5ZM413.802 141.5H405.802V140.5H413.802V141.5ZM397.802 141.5H389.802V140.5H397.802V141.5ZM381.802 141.5H373.802V140.5H381.802V141.5ZM365.802 141.5H357.802V140.5H365.802V141.5ZM349.802 141.5H341.802V140.5H349.802V141.5ZM333.802 141.5H325.802V140.5H333.802V141.5ZM317.802 141.5H309.802V140.5H317.802V141.5ZM301.802 141.5H293.802V140.5H301.802V141.5ZM285.802 141.5H277.802V140.5H285.802V141.5ZM269.802 141.5H261.802V140.5H269.802V141.5ZM253.802 141.5H245.802V140.5H253.802V141.5ZM237.802 141.5H229.802V140.5H237.802V141.5ZM221.802 141.5H213.802V140.5H221.802V141.5ZM205.802 141.5H197.802L197.902 140.5H205.802V141.5ZM190.302 138C188.302 136 187.102 133.4 186.902 130.6L187.902 130.5C188.102 133.1 189.202 135.5 191.002 137.3L190.302 138ZM187.902 122.6H186.902V114.6H187.902V122.6ZM187.902 106.6H186.902V98.6001H187.902V106.6Z" fill="white"/>
<path d="M465.127 78.5294L465.138 78.542L465.15 78.5537C465.307 78.7111 465.478 78.9633 465.687 79.2775L465.693 79.2869L465.7 79.2959C466.731 80.7018 467.303 82.4958 467.303 84.5002V262.2C467.303 262.851 467.211 263.41 467.111 264.01C466.258 268.257 462.278 271.5 457.503 271.5H264.503C259.056 271.5 254.703 267.302 254.703 262.2V84.5002C254.703 81.0987 256.589 78.1598 259.342 76.5399C259.943 76.2393 260.506 75.9597 261.061 75.7745C261.361 75.6748 261.645 75.5802 262.024 75.4853C262.779 75.2966 263.638 75.2002 264.503 75.2002H457.503C458.354 75.2002 459.111 75.2933 459.97 75.4829C460.125 75.5335 460.298 75.583 460.46 75.6292L460.466 75.631C460.644 75.6818 460.807 75.7287 460.945 75.7745C461.5 75.9595 462.062 76.2386 462.662 76.5387C463.624 77.1176 464.474 77.783 465.127 78.5294Z" stroke="#FF7500"/>
<path opacity="0.08" d="M342.301 176.9H270.101C267.401 176.9 265.301 174.8 265.301 172.1V111.4C265.301 108.7 267.401 106.6 270.101 106.6H342.301C345.001 106.6 347.101 108.7 347.101 111.4V172.1C347.101 174.8 344.901 176.9 342.301 176.9Z" fill="black"/>
<path d="M444.001 252.6H278.101C276.001 252.6 274.301 250.9 274.301 248.8V199.8C274.301 197.7 276.001 196 278.101 196H444.001C446.101 196 447.801 197.7 447.801 199.8V248.8C447.801 250.9 446.101 252.6 444.001 252.6ZM269.701 85.9004C269.701 87.6004 268.301 88.9004 266.501 88.9004C264.801 88.9004 263.301 87.6004 263.301 85.9004C263.301 84.2004 264.701 82.9004 266.501 82.9004C268.301 82.9004 269.701 84.2004 269.701 85.9004ZM287.401 85.9004C287.401 87.6004 286.001 88.9004 284.201 88.9004C282.401 88.9004 281.001 87.6004 281.001 85.9004C281.001 84.2004 282.401 82.9004 284.201 82.9004C286.001 82.9004 287.401 84.2004 287.401 85.9004ZM278.601 85.9004C278.601 87.6004 277.201 88.9004 275.401 88.9004C273.701 88.9004 272.201 87.6004 272.201 85.9004C272.201 84.2004 273.601 82.9004 275.401 82.9004C277.101 82.9004 278.601 84.2004 278.601 85.9004Z" fill="white"/>
<path d="M147.503 436.5C147.503 435.6 146.203 342.9 124.903 325.2C122.003 322.8 118.903 321.9 115.603 322.5C97.6031 325.6 86.5031 365 84.3031 433.5C84.2031 436.2 84.2031 436.4 84.1031 436.6L83.2031 436.3L83.7031 436.5L83.2031 436.4C83.2031 436.2 83.3031 435.1 83.3031 433.6C84.6031 393.7 90.5031 326 115.503 321.7C119.103 321.1 122.503 322.1 125.603 324.6C147.303 342.6 148.503 432.9 148.603 436.7L147.503 436.5Z" fill="white"/>
<path d="M170.001 353.7C105.401 394.3 44.2009 363.6 44.3009 299C44.4009 255.1 64.2009 230.4 79.0009 225.4C100.101 218.2 118.901 244.3 121.001 254.6C123.101 264.8 137.801 323 156.901 331.4C175.901 340 172.901 345.3 170.001 353.7Z" fill="#FF7500"/>
<path d="M112.401 372.5C100.001 372.5 88.4014 369.7 78.2014 364.1C56.3014 352 43.7014 328.3 43.8014 299.1C43.9014 253.5 64.8014 229.8 78.8014 225.1C85.7014 222.8 92.8014 223.7 100.001 227.8C111.701 234.5 120.101 247.9 121.401 254.6C124.101 267.8 138.801 323 157.001 331.1C175.701 339.3 173.601 345 170.801 352.8L170.301 354.1L170.201 354.2C150.901 366.3 130.801 372.5 112.401 372.5ZM86.3014 224.8C83.9014 224.8 81.5014 225.2 79.1014 226C65.3014 230.7 44.9014 254 44.8014 299.1C44.8014 327.9 57.1014 351.3 78.7014 363.2C103.701 377.1 137.701 373.4 169.601 353.4L169.901 352.4C172.701 344.5 174.401 339.8 156.601 331.9C138.001 323.7 123.101 268 120.401 254.7C119.101 248.2 110.901 235.1 99.5014 228.5C95.0014 226.1 90.6014 224.8 86.3014 224.8Z" fill="#060405"/>
<path d="M228.701 398.4L227.101 396L212.801 405.4C215.701 410.2 221.001 419.1 220.901 419.2L244.101 403.9C240.001 395.7 228.701 398.4 228.701 398.4Z" fill="#FF7545"/>
<path d="M241.7 400.8C242.7 401.6 243.5 402.6 244.2 403.9L221 419.1C221 419.1 220.2 417.6 219 415.6L241.7 400.8ZM227.7 395.4C229.5 397.4 214.7 407.4 212.9 405.4L155.9 347.4C155.9 347.4 115.4 352.7 97.0001 348.1C78.6001 343.6 84.7001 307.4 84.7001 307.4C84.7001 307.4 146.4 302.3 171 306.7C185 309.2 227.7 395.4 227.7 395.4Z" fill="#060405"/>
<path d="M217.601 217.1C217.101 219.6 211.201 222.5 211.201 222.5C211.201 222.5 189.001 263.1 174.401 266C165.501 267.7 146.301 251.7 146.301 251.7L162.601 229.3L173.101 237.8L201.601 211.5C201.601 211.5 195.201 204.7 198.501 203.2C201.901 201.7 203.601 205.8 203.601 205.8C203.601 205.8 210.301 188.7 213.301 190.3C216.301 191.9 210.701 202.5 210.701 202.5C210.701 202.5 218.101 214.5 217.601 217.1Z" fill="white"/>
<path d="M173.002 266.5C163.602 266.5 146.702 252.6 146.002 252L145.602 251.7L162.502 228.5L173.102 237.1L200.902 211.4C199.802 210.2 196.602 206.5 197.102 204.2C197.202 203.5 197.602 203 198.302 202.7C200.402 201.8 202.302 202.7 203.502 204.6C204.902 201.2 209.302 190.9 212.202 189.8C212.602 189.6 213.102 189.7 213.402 189.9C216.502 191.6 212.302 200.2 211.102 202.5C212.402 204.5 218.502 214.5 218.102 217C217.602 219.6 212.702 222.1 211.602 222.7C209.902 225.7 188.902 263.5 174.502 266.3C174.002 266.5 173.502 266.5 173.002 266.5ZM147.002 251.6C149.702 253.8 166.502 267 174.302 265.5C188.602 262.7 210.602 222.7 210.802 222.3L210.902 222.2L211.002 222.1C212.602 221.3 216.802 219 217.102 217.1C217.402 215.4 213.002 207.6 210.102 203L209.902 202.8L210.002 202.5C212.202 198.3 214.602 191.9 212.902 191C212.802 191 212.702 190.9 212.502 191C210.002 191.9 205.502 202.3 203.902 206.2L203.502 207.3L203.002 206.2C202.202 204.3 200.602 202.9 198.602 203.8C198.202 204 198.002 204.2 198.002 204.5C197.702 206.3 200.702 209.9 201.902 211.2L202.302 211.6L173.202 238.5L162.802 230L147.002 251.6Z" fill="#060405"/>
<path d="M172.101 232.1L156.401 256.3L140.301 229.5L147.701 215.7C153.601 217.4 164.001 225.8 172.101 232.1Z" fill="#EFC102"/>
<path d="M153.302 219.5C144.302 208.9 104.802 210 97.7023 215.7L81.4023 315.1L155.402 304.1C155.402 304.1 159.202 225.5 153.302 219.5Z" fill="#EFC102"/>
<path d="M177.002 423.4V420.5H159.902C159.702 426 159.202 436.5 159.102 436.5H186.902C187.902 427.3 177.002 423.4 177.002 423.4Z" fill="#FF7545"/>
<path d="M186.503 432.5C186.903 433.7 187.003 435 186.903 436.5H159.103C159.203 436.5 159.303 434.9 159.403 432.5H186.503ZM179.803 422.9L178.603 339.7L141.703 335.4L158.403 423.3C158.403 424.4 179.803 424.1 179.803 422.9Z" fill="#060405"/>
<path d="M97.2812 436.06L142.707 304.692L144.125 305.182L98.6989 436.55L97.2812 436.06Z" fill="white"/>
<path d="M62 298.1H179.8V308.7H62V298.1Z" fill="white"/>
<path d="M179.801 298.1H293.301V308.7H179.801V298.1Z" fill="#060405"/>
<path d="M180.3 309.2H61.5V297.6H180.3V309.2ZM62.5 308.2H179.3V298.6H62.5V308.2Z" fill="#060405"/>
<path d="M293.801 309.2H179.301V297.6H293.801V309.2ZM180.301 308.2H292.801V298.6H180.301V308.2Z" fill="#060405"/>
<path d="M255.2 294C255.2 296.1 253.5 297.8 251.4 297.8H188C189.1 297.8 190 297.4 190.7 296.7C191.4 296 191.8 295.1 191.8 294C191.8 291.9 190.1 290.2 188 290.2H251.4C253.5 290.2 255.2 291.9 255.2 294Z" fill="white"/>
<path d="M191.8 294C191.8 295 191.4 296 190.7 296.7C190 297.4 189.1 297.8 188 297.8H136.8C134.7 297.8 133 296.1 133 294C133 291.9 134.7 290.2 136.8 290.2H188C190.1 290.2 191.8 291.9 191.8 294Z" fill="white"/>
<path d="M188 298.3H136.8C134.4 298.3 132.5 296.4 132.5 294C132.5 291.7 134.4 289.7 136.8 289.7H188C190.4 289.7 192.3 291.6 192.3 294C192.3 295.1 191.8 296.2 191 297C190.2 297.9 189.2 298.3 188 298.3ZM136.8 290.7C135 290.7 133.5 292.2 133.5 294C133.5 295.8 135 297.3 136.8 297.3H188C188.9 297.3 189.7 297 190.3 296.3C190.9 295.7 191.3 294.8 191.3 294C191.3 292.2 189.8 290.7 188 290.7H136.8Z" fill="#060405"/>
<path d="M255.2 294C255.2 296.1 253.5 297.8 251.4 297.8H188C189.1 297.8 190 297.4 190.7 296.7C191.4 296 191.8 295.1 191.8 294C191.8 291.9 190.1 290.2 188 290.2H251.4C253.5 290.2 255.2 291.9 255.2 294Z" fill="#060405"/>
<path d="M251.4 298.3H188C187.7 298.3 187.5 298.1 187.5 297.8C187.5 297.5 187.7 297.3 188 297.3C188.9 297.3 189.7 297 190.3 296.3C190.9 295.7 191.3 294.8 191.3 294C191.3 292.2 189.8 290.7 188 290.7C187.7 290.7 187.5 290.5 187.5 290.2C187.5 289.9 187.7 289.7 188 289.7H251.4C253.8 289.7 255.7 291.6 255.7 294C255.7 296.4 253.8 298.3 251.4 298.3ZM190.8 297.3H251.4C253.2 297.3 254.7 295.8 254.7 294C254.7 292.2 253.2 290.7 251.4 290.7H190.8C191.7 291.5 192.3 292.7 192.3 294C192.3 295.1 191.8 296.2 191 297C191 297.2 190.9 297.2 190.8 297.3Z" fill="#060405"/>
<path d="M266.803 236.8H204.903C203.303 236.8 202.003 237.8 201.503 239.3L187.503 285.6C186.803 287.9 188.503 290.2 190.903 290.2H252.803C254.403 290.2 255.703 289.2 256.203 287.7L270.203 241.4C270.903 239.1 269.203 236.8 266.803 236.8Z" fill="white"/>
<path d="M252.802 290.7H191.002C189.702 290.7 188.502 290.1 187.702 289.1C186.902 288.1 186.702 286.8 187.102 285.5L201.102 239.2C201.602 237.5 203.202 236.3 205.002 236.3H266.902C268.202 236.3 269.402 236.9 270.202 237.9C271.002 238.9 271.202 240.2 270.802 241.5L256.802 287.8C256.202 289.5 254.602 290.7 252.802 290.7ZM204.902 237.3C203.502 237.3 202.402 238.2 202.002 239.5L188.002 285.8C187.702 286.7 187.902 287.7 188.502 288.5C189.102 289.3 190.002 289.7 190.902 289.7H252.802C254.202 289.7 255.302 288.8 255.702 287.5L269.702 241.2C270.002 240.3 269.802 239.3 269.202 238.5C268.602 237.7 267.702 237.3 266.802 237.3H204.902ZM185.602 294C185.602 294.6 185.102 295.1 184.602 295.1H176.702C176.102 295.1 175.602 294.6 175.602 294C175.602 293.4 176.102 292.9 176.702 292.9H184.602C185.102 293 185.602 293.4 185.602 294ZM173.502 294C173.502 294.6 173.002 295.1 172.402 295.1H167.002C166.402 295.1 165.902 294.6 165.902 294C165.902 293.4 166.402 292.9 167.002 292.9H172.402C173.002 293 173.502 293.4 173.502 294Z" fill="#060405"/>
<path d="M236.6 267C235.3 270.2 231.8 272.9 228.7 272.9C225.6 273 224.2 270.4 225.5 267.2C226.8 264 230.3 261.3 233.4 261.3C236.4 261.2 237.9 263.8 236.6 267Z" fill="#060405"/>
<path d="M158.401 298.2H79.1012C70.3012 298.2 63.8012 290.1 65.8012 281.5L73.1012 249.6L99.2012 254.4L93.7012 271.1L143.501 283.8C143.501 283.8 147.901 272.9 151.201 274.9C154.401 276.9 149.601 283.2 149.601 283.2C149.601 283.2 164.101 281.2 164.401 289.4C164.501 297.5 161.101 298 158.401 298.2Z" fill="white"/>
<path d="M152.602 298.8C148.002 298.8 142.702 298.7 142.702 298.7H79.1017C74.8017 298.7 70.7017 296.8 68.0017 293.4C65.3017 290 64.3017 285.6 65.3017 281.4L72.7017 249.1L99.8017 254L94.3017 270.8L143.102 283.2C143.902 281.4 146.702 275.2 149.502 274.3C150.102 274.1 150.702 274.2 151.302 274.5C152.002 274.9 152.402 275.6 152.602 276.4C153.002 278.5 151.402 281.2 150.502 282.7C153.002 282.5 159.302 282.3 162.702 285.1C164.002 286.2 164.702 287.7 164.802 289.5C165.102 297.4 161.902 298.7 158.502 298.8C157.102 298.7 154.902 298.8 152.602 298.8ZM73.4017 250.2L66.3017 281.6C65.4017 285.5 66.3017 289.6 68.9017 292.7C71.4017 295.8 75.2017 297.7 79.2017 297.7H158.502C160.702 297.6 164.102 297.4 163.802 289.4C163.802 287.9 163.202 286.7 162.102 285.7C158.302 282.5 149.702 283.6 149.602 283.6L148.402 283.8L149.102 282.8C149.902 281.7 152.102 278.4 151.702 276.4C151.602 275.9 151.302 275.5 150.902 275.2C150.602 275 150.302 275 149.902 275.1C147.602 275.8 144.802 281.7 143.902 283.9L143.702 284.3L93.0017 271.5L98.5017 254.8L73.4017 250.2Z" fill="#060405"/>
<path d="M107.803 226C107.303 220.4 105.103 215.9 99.7031 214.6C99.7031 214.6 86.2031 220 79.1031 232C71.3031 245.1 69.2031 253.1 69.2031 253.1L100.503 258.9C100.503 258.8 109.003 239.3 107.803 226Z" fill="#EFC102"/>
<path d="M100.801 259.4L69.1008 253.6L69.3008 252.6L100.201 258.3C101.301 255.6 108.101 239 107.501 227.1L108.501 227C109.201 240.2 101.101 258.8 101.001 259L100.801 259.4ZM110.201 436.5C110.201 435.7 108.901 356.4 88.5008 339.1C85.4008 336.5 81.9008 335.4 78.2008 336C60.3008 338.8 49.1008 373.5 46.9008 433.8C46.8008 436.3 46.8008 436.4 46.7008 436.5L45.8008 436.1L46.3008 436.3L45.8008 436.2C45.8008 436 45.9008 435 45.9008 433.7C47.2008 398.5 53.1008 338.8 78.0008 335C82.0008 334.4 85.7008 335.5 89.1008 338.4C109.801 356 111.101 433.2 111.201 436.5H110.201Z" fill="white"/>
<path d="M239.254 305.139L240.672 304.649L286.084 436.022L284.666 436.512L239.254 305.139Z" fill="#060405"/>
<path d="M136.002 202.5C136.002 202.5 134.502 207.8 136.702 211.7C138.402 214.7 137.702 219.8 133.602 220.9C126.902 222.7 115.102 212.2 115.102 212.2L120.602 182.9L136.002 202.5Z" fill="white"/>
<path d="M114.802 212.5L114.602 212.3L120.302 181.6L136.502 202.3C135.702 205.1 135.702 208.8 137.102 211.4C138.202 213.3 138.302 215.9 137.402 218C136.702 219.7 135.402 220.9 133.602 221.3C128.202 222.8 119.002 216.3 114.802 212.5ZM115.602 212C117.202 213.4 127.502 221.9 133.402 220.4C135.202 219.9 136.102 218.7 136.502 217.7C137.302 215.9 137.102 213.6 136.202 212C134.202 208.4 135.102 203.8 135.402 202.7L120.902 184L115.602 212Z" fill="#060405"/>
<path d="M117.703 180.2C116.703 192.9 126.203 207.7 138.503 205.7C152.703 203.4 144.503 169.8 137.703 163.7C130.903 157.6 118.303 164.3 118.303 164.3L114.703 174.8L117.703 180.2Z" fill="white"/>
<path d="M136.203 206.4C132.403 206.4 128.703 204.9 125.503 201.9C120.003 196.8 116.603 188.2 117.203 180.3L114.203 174.8L117.903 163.9L118.103 163.8C118.603 163.5 131.103 157 138.103 163.3C143.203 167.9 149.203 187.9 145.903 198.9C144.603 203.2 142.203 205.7 138.603 206.2C137.803 206.3 137.003 206.4 136.203 206.4ZM115.203 174.7L118.203 180.1V180.3C117.603 187.9 120.803 196.3 126.203 201.2C128.803 203.6 132.903 206.2 138.403 205.3C141.603 204.8 143.803 202.6 144.903 198.7C148.003 188 142.303 168.6 137.403 164.1C131.403 158.7 120.203 163.9 118.703 164.7L115.203 174.7Z" fill="#060405"/>
<path d="M129.751 180.992C130.301 180.935 130.682 180.266 130.602 179.497C130.523 178.727 130.013 178.15 129.463 178.207C128.914 178.264 128.533 178.933 128.613 179.702C128.692 180.471 129.202 181.049 129.751 180.992Z" fill="#060405"/>
<path d="M139.15 180.295C139.699 180.238 140.08 179.568 140.001 178.799C139.921 178.03 139.411 177.453 138.862 177.509C138.313 177.566 137.932 178.236 138.011 179.005C138.091 179.774 138.6 180.351 139.15 180.295Z" fill="#060405"/>
<path d="M135.002 188.3L134.302 187.6C134.702 187.3 135.102 187.2 135.602 187.1C135.902 187 136.102 186.9 136.102 186.8C136.102 186.7 135.802 186.4 135.702 186.3C134.102 184.9 133.402 182.6 133.702 180.5L134.702 180.7C134.402 182.4 135.102 184.3 136.402 185.5C136.702 185.8 137.202 186.3 137.202 186.9C137.102 187.4 136.702 187.9 136.002 188C135.502 188.1 135.102 188.2 135.002 188.3ZM132.502 195.6C131.702 195.3 131.002 194.7 130.602 193.9L131.502 193.5C131.802 194 132.202 194.5 132.802 194.7C133.402 194.9 134.002 194.9 134.602 194.6L135.002 195.5C134.202 195.8 133.302 195.9 132.502 195.6ZM118.702 196C118.702 196 87.9016 173.8 106.202 165.2C106.202 165.2 103.202 155.7 108.902 152.4C114.602 149.1 116.402 151.3 116.402 151.3C116.402 151.3 128.402 140.9 138.802 149.5C138.802 149.5 144.202 145.4 148.102 153.5C152.002 161.5 141.102 168.3 141.102 168.3L139.002 164.8C139.002 164.8 131.702 169.5 121.402 168.9C121.402 168.9 125.702 176.9 121.402 180.1C117.102 183.3 119.602 192.2 119.602 192.2L118.702 196Z" fill="#FF7500"/>
<path d="M514.802 267.7V432.4C514.802 434.563 513.188 436.3 511.202 436.3H409.202C407.308 436.3 405.602 434.555 405.602 432.4V267.7C405.602 265.537 407.215 263.8 409.202 263.8H511.202C513.188 263.8 514.802 265.537 514.802 267.7Z" stroke="white"/>
<path d="M506.6 277.8V304.2C506.6 304.8 506.2 305.2 505.6 305.2H415C414.4 305.2 414 304.8 414 304.2V277.8C414 277.2 414.4 276.8 415 276.8H505.6C506.2 276.8 506.6 277.2 506.6 277.8Z" fill="white"/>
<path d="M484.802 288C484.902 288.1 485.002 288.3 485.002 288.6V293.5C485.002 293.7 484.902 293.9 484.802 294.1C484.702 294.2 484.602 294.3 484.402 294.3H467.702C467.602 294.3 467.402 294.2 467.302 294.1C467.202 294 467.102 293.8 467.102 293.5V288.6C467.102 288.4 467.202 288.2 467.302 288C467.402 287.9 467.502 287.8 467.702 287.8H484.402C484.502 287.7 484.602 287.8 484.802 288Z" fill="#BDD6FF"/>
<path d="M499 290.9C499 293.7 496.8 295.9 494 295.9C491.2 295.9 489 293.7 489 290.9C489 288.2 491.2 285.9 494 285.9C496.7 285.9 499 288.2 499 290.9Z" fill="#FF7545"/>
<path d="M426 283.8H428.9V286.8H426V283.8ZM433.4 283.8H436.3V286.8H433.4V283.8ZM440.8 283.8H443.7V286.8H440.8V283.8ZM448.3 283.8H451.2V286.8H448.3V283.8ZM455.7 283.8H458.6V286.8H455.7V283.8ZM429.5 289.5H432.4V292.5H429.5V289.5ZM437 289.5H439.9V292.5H437V289.5ZM444.4 289.5H447.3V292.5H444.4V289.5ZM451.8 289.5H454.7V292.5H451.8V289.5ZM459.3 289.5H462.2V292.5H459.3V289.5ZM426 295.2H428.9V298.2H426V295.2ZM433.4 295.2H436.3V298.2H433.4V295.2ZM440.8 295.2H443.7V298.2H440.8V295.2ZM448.3 295.2H451.2V298.2H448.3V295.2ZM455.7 295.2H458.6V298.2H455.7V295.2Z" fill="#060405"/>
<path d="M506.6 314.3V340.7C506.6 341.3 506.2 341.7 505.6 341.7H415C414.4 341.7 414 341.3 414 340.7V314.3C414 313.7 414.4 313.3 415 313.3H505.6C506.2 313.3 506.6 313.8 506.6 314.3Z" fill="white"/>
<path d="M484.802 324.5C484.902 324.6 485.002 324.8 485.002 325.1V330C485.002 330.2 484.902 330.4 484.802 330.6C484.702 330.7 484.602 330.8 484.402 330.8H467.702C467.602 330.8 467.402 330.7 467.302 330.6C467.202 330.5 467.102 330.3 467.102 330V325.1C467.102 324.9 467.202 324.7 467.302 324.5C467.402 324.4 467.502 324.3 467.702 324.3H484.402C484.502 324.3 484.602 324.4 484.802 324.5Z" fill="#BDD6FF"/>
<path d="M499 327.4C499 330.2 496.8 332.4 494 332.4C491.2 332.4 489 330.2 489 327.4C489 324.7 491.2 322.4 494 322.4C496.7 322.5 499 324.7 499 327.4Z" fill="#FF7545"/>
<path d="M426 320.4H428.9V323.4H426V320.4ZM433.4 320.4H436.3V323.4H433.4V320.4ZM440.8 320.4H443.7V323.4H440.8V320.4ZM448.3 320.4H451.2V323.4H448.3V320.4ZM455.7 320.4H458.6V323.4H455.7V320.4ZM429.5 326H432.4V329H429.5V326ZM437 326H439.9V329H437V326ZM444.4 326H447.3V329H444.4V326ZM451.8 326H454.7V329H451.8V326ZM459.3 326H462.2V329H459.3V326ZM426 331.7H428.9V334.7H426V331.7ZM433.4 331.7H436.3V334.7H433.4V331.7ZM440.8 331.7H443.7V334.7H440.8V331.7ZM448.3 331.7H451.2V334.7H448.3V331.7ZM455.7 331.7H458.6V334.7H455.7V331.7Z" fill="#060405"/>
<path d="M506.6 350.8V377.2C506.6 377.8 506.2 378.2 505.6 378.2H415C414.4 378.2 414 377.8 414 377.2V350.8C414 350.2 414.4 349.8 415 349.8H505.6C506.2 349.9 506.6 350.3 506.6 350.8Z" fill="white"/>
<path d="M484.802 361C484.902 361.1 485.002 361.3 485.002 361.6V366.5C485.002 366.7 484.902 366.9 484.802 367.1C484.702 367.2 484.602 367.3 484.402 367.3H467.702C467.602 367.3 467.402 367.2 467.302 367.1C467.202 367 467.102 366.8 467.102 366.5V361.6C467.102 361.4 467.202 361.2 467.302 361C467.402 360.9 467.502 360.8 467.702 360.8H484.402C484.502 360.8 484.602 360.9 484.802 361Z" fill="#BDD6FF"/>
<path d="M499 364C499 366.8 496.8 369 494 369C491.2 369 489 366.8 489 364C489 361.3 491.2 359 494 359C496.7 359 499 361.2 499 364Z" fill="#FF7545"/>
<path d="M426 356.9H428.9V359.9H426V356.9ZM433.4 356.9H436.3V359.9H433.4V356.9ZM440.8 356.9H443.7V359.9H440.8V356.9ZM448.3 356.9H451.2V359.9H448.3V356.9ZM455.7 356.9H458.6V359.9H455.7V356.9ZM429.5 362.5H432.4V365.5H429.5V362.5ZM437 362.5H439.9V365.5H437V362.5ZM444.4 362.5H447.3V365.5H444.4V362.5ZM451.8 362.5H454.7V365.5H451.8V362.5ZM459.3 362.5H462.2V365.5H459.3V362.5ZM426 368.2H428.9V371.2H426V368.2ZM433.4 368.2H436.3V371.2H433.4V368.2ZM440.8 368.2H443.7V371.2H440.8V368.2ZM448.3 368.2H451.2V371.2H448.3V368.2ZM455.7 368.2H458.6V371.2H455.7V368.2Z" fill="#060405"/>
<path d="M506.6 387.4V413.8C506.6 414.4 506.2 414.8 505.6 414.8H415C414.4 414.8 414 414.4 414 413.8V387.4C414 386.8 414.4 386.4 415 386.4H505.6C506.2 386.4 506.6 386.8 506.6 387.4Z" fill="white"/>
<path d="M484.802 397.6C484.902 397.7 485.002 397.9 485.002 398.2V403.1C485.002 403.3 484.902 403.5 484.802 403.7C484.702 403.8 484.602 403.9 484.402 403.9H467.702C467.602 403.9 467.402 403.8 467.302 403.7C467.202 403.6 467.102 403.4 467.102 403.1V398.2C467.102 398 467.202 397.8 467.302 397.6C467.402 397.5 467.502 397.4 467.702 397.4H484.402C484.502 397.3 484.602 397.4 484.802 397.6Z" fill="#BDD6FF"/>
<path d="M499 400.5C499 403.3 496.8 405.5 494 405.5C491.2 405.5 489 403.3 489 400.5C489 397.8 491.2 395.5 494 395.5C496.7 395.5 499 397.7 499 400.5Z" fill="#FF7545"/>
<path d="M426 393.4H428.9V396.4H426V393.4ZM433.4 393.4H436.3V396.4H433.4V393.4ZM440.8 393.4H443.7V396.4H440.8V393.4ZM448.3 393.4H451.2V396.4H448.3V393.4ZM455.7 393.4H458.6V396.4H455.7V393.4ZM429.5 399.1H432.4V402.1H429.5V399.1ZM437 399.1H439.9V402.1H437V399.1ZM444.4 399.1H447.3V402.1H444.4V399.1ZM451.8 399.1H454.7V402.1H451.8V399.1ZM459.3 399.1H462.2V402.1H459.3V399.1ZM426 404.7H428.9V407.7H426V404.7ZM433.4 404.7H436.3V407.7H433.4V404.7ZM440.8 404.7H443.7V407.7H440.8V404.7ZM448.3 404.7H451.2V407.7H448.3V404.7ZM455.7 404.7H458.6V407.7H455.7V404.7Z" fill="#060405"/>
<path opacity="0.05" d="M467.801 100.1V189H370.601C366.001 189 362.301 185.3 362.301 180.8V108.3C362.301 103.7 366.001 100.1 370.601 100.1H467.801Z" fill="black"/>
<path d="M480.902 103.7V176.2C480.902 180.7 477.202 184.4 472.702 184.4H374.802C370.302 184.4 366.602 180.7 366.602 176.2V103.7C366.602 99.1 370.302 95.5 374.802 95.5H472.702C477.202 95.5 480.902 99.2 480.902 103.7Z" fill="#FF7500"/>
<path d="M405.602 116.7H393.602C393.102 116.7 392.702 116.3 392.702 115.8C392.702 115.3 393.102 114.9 393.602 114.9H405.602C406.102 114.9 406.502 115.3 406.502 115.8C406.502 116.3 406.102 116.7 405.602 116.7ZM388.202 116.7H381.702C381.202 116.7 380.802 116.3 380.802 115.8C380.802 115.3 381.202 114.9 381.702 114.9H388.202C388.702 114.9 389.102 115.3 389.102 115.8C389.102 116.3 388.602 116.7 388.202 116.7ZM430.902 123.6H419.602C419.102 123.6 418.702 123.2 418.702 122.7C418.702 122.2 419.102 121.8 419.602 121.8H430.902C431.402 121.8 431.802 122.2 431.802 122.7C431.802 123.2 431.402 123.6 430.902 123.6ZM414.702 123.6H402.402C401.902 123.6 401.502 123.2 401.502 122.7C401.502 122.2 401.902 121.8 402.402 121.8H414.702C415.202 121.8 415.602 122.2 415.602 122.7C415.602 123.2 415.202 123.6 414.702 123.6ZM397.502 123.6H387.802C387.302 123.6 386.902 123.2 386.902 122.7C386.902 122.2 387.302 121.8 387.802 121.8H397.502C398.002 121.8 398.402 122.2 398.402 122.7C398.402 123.2 398.002 123.6 397.502 123.6ZM463.102 130.6H429.402C428.902 130.6 428.502 130.2 428.502 129.7C428.502 129.2 428.902 128.8 429.402 128.8H463.102C463.602 128.8 464.002 129.2 464.002 129.7C464.002 130.2 463.602 130.6 463.102 130.6ZM425.602 130.6H410.202C409.702 130.6 409.302 130.2 409.302 129.7C409.302 129.2 409.702 128.8 410.202 128.8H425.602C426.102 128.8 426.502 129.2 426.502 129.7C426.502 130.2 426.002 130.6 425.602 130.6ZM404.602 130.6H387.802C387.302 130.6 386.902 130.2 386.902 129.7C386.902 129.2 387.302 128.8 387.802 128.8H404.602C405.102 128.8 405.502 129.2 405.502 129.7C405.502 130.2 405.102 130.6 404.602 130.6ZM425.202 137.6H387.802C387.302 137.6 386.902 137.2 386.902 136.7C386.902 136.2 387.302 135.8 387.802 135.8H425.202C425.702 135.8 426.102 136.2 426.102 136.7C426.102 137.2 425.702 137.6 425.202 137.6ZM463.102 144.6H426.602C426.102 144.6 425.702 144.2 425.702 143.7C425.702 143.2 426.102 142.8 426.602 142.8H463.102C463.602 142.8 464.002 143.2 464.002 143.7C463.902 144.2 463.602 144.6 463.102 144.6ZM418.702 144.6H404.602C404.102 144.6 403.702 144.2 403.702 143.7C403.702 143.2 404.102 142.8 404.602 142.8H418.702C419.202 142.8 419.602 143.2 419.602 143.7C419.602 144.2 419.202 144.6 418.702 144.6ZM400.202 144.6H387.802C387.302 144.6 386.902 144.2 386.902 143.7C386.902 143.2 387.302 142.8 387.802 142.8H400.202C400.702 142.8 401.102 143.2 401.102 143.7C401.002 144.2 400.702 144.6 400.202 144.6ZM419.902 151.6H410.802C410.302 151.6 409.902 151.2 409.902 150.7C409.902 150.2 410.302 149.8 410.802 149.8H419.902C420.402 149.8 420.802 150.2 420.802 150.7C420.802 151.2 420.402 151.6 419.902 151.6ZM406.102 151.6H387.802C387.302 151.6 386.902 151.2 386.902 150.7C386.902 150.2 387.302 149.8 387.802 149.8H406.102C406.602 149.8 407.002 150.2 407.002 150.7C407.002 151.2 406.502 151.6 406.102 151.6ZM410.202 158.6H394.802C394.302 158.6 393.902 158.2 393.902 157.7C393.902 157.2 394.302 156.8 394.802 156.8H410.202C410.702 156.8 411.102 157.2 411.102 157.7C411.102 158.2 410.702 158.6 410.202 158.6ZM390.402 158.6H381.702C381.202 158.6 380.802 158.2 380.802 157.7C380.802 157.2 381.202 156.8 381.702 156.8H390.402C390.902 156.8 391.302 157.2 391.302 157.7C391.302 158.2 390.902 158.6 390.402 158.6ZM432.202 165.6H414.002C413.502 165.6 413.102 165.2 413.102 164.7C413.102 164.2 413.502 163.8 414.002 163.8H432.202C432.702 163.8 433.102 164.2 433.102 164.7C433.102 165.2 432.602 165.6 432.202 165.6ZM408.602 165.6H387.202C386.702 165.6 386.302 165.2 386.302 164.7C386.302 164.2 386.702 163.8 387.202 163.8H408.602C409.102 163.8 409.502 164.2 409.502 164.7C409.502 165.2 409.102 165.6 408.602 165.6ZM427.302 172.5H400.702C400.202 172.5 399.802 172.1 399.802 171.6C399.802 171.1 400.202 170.7 400.702 170.7H427.302C427.802 170.7 428.202 171.1 428.202 171.6C428.202 172.1 427.802 172.5 427.302 172.5ZM395.102 172.5H387.202C386.702 172.5 386.302 172.1 386.302 171.6C386.302 171.1 386.702 170.7 387.202 170.7H395.102C395.602 170.7 396.002 171.1 396.002 171.6C396.002 172.1 395.602 172.5 395.102 172.5ZM344.902 173.7H272.702C270.002 173.7 267.902 171.6 267.902 168.9V108.2C267.902 105.5 270.002 103.4 272.702 103.4H344.902C347.602 103.4 349.702 105.5 349.702 108.2V168.9C349.702 171.5 347.502 173.7 344.902 173.7Z" fill="white"/>
<path d="M327.402 143.1C326.902 145 326.202 146.7 325.202 148.3L327.902 153L323.402 157.5L318.702 154.8C317.102 155.8 315.302 156.5 313.502 157L312.102 162.3H305.702L304.302 157C302.402 156.5 300.702 155.8 299.102 154.8L294.402 157.5L289.902 153L292.602 148.3C291.602 146.7 290.902 144.9 290.402 143.1L285.102 141.7V135.3L290.402 133.9C290.902 132 291.602 130.3 292.602 128.7L289.902 124L294.402 119.5L299.102 122.2C300.702 121.2 302.502 120.5 304.302 120L305.702 114.7H312.102L313.502 120C315.402 120.5 317.102 121.2 318.702 122.2L323.402 119.5L327.902 124L325.202 128.7C326.202 130.3 326.902 132.1 327.402 133.9L332.702 135.3V141.7L327.402 143.1Z" fill="#FF7500"/>
<path d="M308.801 150C315.152 150 320.301 144.851 320.301 138.5C320.301 132.149 315.152 127 308.801 127C302.45 127 297.301 132.149 297.301 138.5C297.301 144.851 302.45 150 308.801 150Z" fill="white"/>
<path d="M320.202 210.4V236.2C320.202 238.4 318.402 240.1 316.302 240.1H290.502C288.302 240.1 286.602 238.3 286.602 236.2V210.4C286.602 208.2 288.402 206.5 290.502 206.5H316.302C318.502 206.5 320.202 208.2 320.202 210.4Z" fill="#060405"/>
<path d="M429.602 215.7H334.702C333.502 215.7 332.602 214.8 332.602 213.6C332.602 212.4 333.502 211.5 334.702 211.5H429.602C430.802 211.5 431.702 212.4 431.702 213.6C431.702 214.7 430.802 215.7 429.602 215.7ZM403.602 222.2H334.902C333.802 222.2 332.802 223 332.702 224.1C332.602 225.4 333.602 226.4 334.802 226.4H403.702C404.902 226.4 405.802 225.5 405.802 224.3C405.702 223.1 404.802 222.2 403.602 222.2ZM429.502 222.2H415.502C414.302 222.2 413.402 223.1 413.402 224.3C413.402 225.5 414.302 226.4 415.502 226.4H429.602C430.802 226.4 431.802 225.3 431.702 224.1C431.602 223 430.602 222.2 429.502 222.2ZM345.002 232.9H334.902C333.802 232.9 332.802 233.7 332.702 234.8C332.602 236.1 333.602 237.1 334.802 237.1H345.002C346.202 237.1 347.102 236.2 347.102 235C347.102 233.8 346.102 232.9 345.002 232.9ZM390.002 232.9H358.802C357.602 232.9 356.702 233.8 356.702 235C356.702 236.2 357.602 237.1 358.802 237.1H390.102C391.302 237.1 392.302 236 392.202 234.8C392.102 233.7 391.102 232.9 390.002 232.9Z" fill="#BDD6FF"/>
<path d="M303.803 222.4C306.067 222.4 307.903 220.565 307.903 218.3C307.903 216.036 306.067 214.2 303.803 214.2C301.539 214.2 299.703 216.036 299.703 218.3C299.703 220.565 301.539 222.4 303.803 222.4Z" fill="white"/>
<path d="M295.503 232.4H311.403C311.903 232.4 312.303 232 312.103 231.5C311.003 227.7 307.603 224.9 303.403 224.9C299.203 224.9 295.803 227.7 294.703 231.5C294.603 231.9 295.003 232.4 295.503 232.4Z" fill="white"/>
<path d="M555.802 149.7C555.802 163.341 544.744 174.4 531.102 174.4C517.461 174.4 506.402 163.341 506.402 149.7C506.402 136.059 517.461 125 531.102 125C544.744 125 555.802 136.059 555.802 149.7Z" stroke="white"/>
<path d="M544.801 145.6C537.201 138 524.901 138 517.301 145.6L514.801 143.1C523.801 134.1 538.301 134.1 547.301 143.1L544.801 145.6Z" fill="white"/>
<path d="M540.7 150.1C535.4 144.8 526.8 144.8 521.5 150.1L519 147.6C525.7 140.9 536.5 140.9 543.2 147.6L540.7 150.1Z" fill="white"/>
<path d="M536.502 154.6C533.502 151.6 528.602 151.6 525.602 154.6L523.102 152.1C527.502 147.7 534.602 147.7 539.002 152.1L536.502 154.6Z" fill="white"/>
<path d="M531.1 163C533.088 163 534.7 161.389 534.7 159.4C534.7 157.412 533.088 155.8 531.1 155.8C529.112 155.8 527.5 157.412 527.5 159.4C527.5 161.389 529.112 163 531.1 163Z" fill="white"/>
<path d="M161.093 83.6917L161.591 83.5989L161.492 83.1021C161.298 82.1321 161.202 81.265 161.202 80.2002C161.202 71.0763 168.578 63.7002 177.702 63.7002C184.786 63.7002 190.804 68.1643 193.133 74.3758L193.419 75.1372L193.97 74.5387C196.174 72.1427 199.34 70.7002 202.902 70.7002C209.725 70.7002 215.202 76.1763 215.202 83.0002V83.2002V83.6238L215.619 83.6934C221.379 84.6534 225.802 89.7457 225.802 95.8002C225.802 102.624 220.325 108.1 213.502 108.1H163.402C156.578 108.1 151.102 102.624 151.102 95.8002C151.102 89.7442 155.427 84.7482 161.093 83.6917Z" stroke="white"/>
<path d="M179.902 85.5001L171.002 89.5001C170.302 89.8001 169.902 90.4001 169.902 91.1001V91.3001C169.902 92.0001 170.302 92.6001 171.002 92.9001L179.902 96.9001C181.702 97.6001 182.602 95.0001 180.902 94.3001L173.902 91.2001L180.902 88.1001C182.702 87.4001 181.702 84.8001 179.902 85.5001ZM189.202 81.2001L183.302 98.5001C182.702 100.4 185.402 101.2 185.902 99.4001L191.802 82.1001C192.402 80.3001 189.702 79.5001 189.202 81.2001ZM204.002 89.5001L195.102 85.5001C193.402 84.8001 192.302 87.3001 194.102 88.1001L201.102 91.2001L194.102 94.3001C192.302 95.0001 193.402 97.6001 195.102 96.9001L204.002 92.9001C204.602 92.6001 205.102 92.0001 205.102 91.3001V91.1001C205.102 90.4001 204.602 89.8001 204.002 89.5001Z" fill="white"/>
<path d="M512 197.1H473.1C472.9 197.1 472.7 196.9 472.7 196.7C472.7 196.5 472.9 196.3 473.1 196.3H512C512.2 196.3 512.4 196.5 512.4 196.7C512.4 196.9 512.2 197.1 512 197.1ZM512 216.4H473.1C472.9 216.4 472.7 216.2 472.7 216C472.7 215.8 472.9 215.6 473.1 215.6H512C512.2 215.6 512.4 215.8 512.4 216C512.4 216.2 512.2 216.4 512 216.4ZM504.9 206.8H449.9C449.7 206.8 449.5 206.6 449.5 206.4C449.5 206.2 449.7 206 449.9 206H504.9C505.1 206 505.3 206.2 505.3 206.4C505.3 206.6 505.1 206.8 504.9 206.8Z" fill="#C6E2FA"/>
<path d="M481.101 197.1C480.901 197.1 480.701 196.9 480.701 196.7V188.5C480.701 188.3 480.901 188.1 481.101 188.1C481.301 188.1 481.501 188.3 481.501 188.5V196.7C481.401 196.9 481.301 197.1 481.101 197.1ZM494.701 206.8C494.501 206.8 494.301 206.6 494.301 206.4V196.8C494.301 196.6 494.501 196.4 494.701 196.4C494.901 196.4 495.101 196.6 495.101 196.8V206.4C495.101 206.6 494.901 206.8 494.701 206.8ZM484.301 216.1C484.101 216.1 483.901 215.9 483.901 215.7V206.4C483.901 206.2 484.101 206 484.301 206C484.501 206 484.701 206.2 484.701 206.4V215.7C484.701 215.9 484.501 216.1 484.301 216.1ZM341.701 330.5H302.801C302.601 330.5 302.401 330.3 302.401 330.1C302.401 329.9 302.601 329.7 302.801 329.7H341.701C341.901 329.7 342.101 329.9 342.101 330.1C342.101 330.3 341.901 330.5 341.701 330.5ZM341.701 349.8H302.801C302.601 349.8 302.401 349.6 302.401 349.4C302.401 349.2 302.601 349 302.801 349H341.701C341.901 349 342.101 349.2 342.101 349.4C342.101 349.6 341.901 349.8 341.701 349.8ZM334.701 340.2H279.701C279.501 340.2 279.301 340 279.301 339.8C279.301 339.6 279.501 339.4 279.701 339.4H334.701C334.901 339.4 335.101 339.6 335.101 339.8C335.101 340 334.901 340.2 334.701 340.2Z" fill="#C6E2FA"/>
<path d="M310.803 330.5C310.603 330.5 310.403 330.3 310.403 330.1V321.9C310.403 321.7 310.603 321.5 310.803 321.5C311.003 321.5 311.203 321.7 311.203 321.9V330.1C311.203 330.3 311.103 330.5 310.803 330.5ZM324.503 340.2C324.303 340.2 324.103 340 324.103 339.8V330.2C324.103 330 324.303 329.8 324.503 329.8C324.703 329.8 324.903 330 324.903 330.2V339.8C324.903 340 324.703 340.2 324.503 340.2ZM314.103 349.5C313.903 349.5 313.703 349.3 313.703 349.1V339.8C313.703 339.6 313.903 339.4 314.103 339.4C314.303 339.4 314.503 339.6 314.503 339.8V349.1C314.503 349.3 314.303 349.5 314.103 349.5ZM221.603 170.4H182.703C182.503 170.4 182.303 170.2 182.303 170C182.303 169.8 182.503 169.6 182.703 169.6H221.603C221.803 169.6 222.003 169.8 222.003 170C222.003 170.2 221.803 170.4 221.603 170.4ZM221.603 189.6H182.703C182.503 189.6 182.303 189.4 182.303 189.2C182.303 189 182.503 188.8 182.703 188.8H221.603C221.803 188.8 222.003 189 222.003 189.2C222.003 189.4 221.803 189.6 221.603 189.6ZM214.603 180H159.603C159.403 180 159.203 179.8 159.203 179.6C159.203 179.4 159.403 179.2 159.603 179.2H214.603C214.803 179.2 215.003 179.4 215.003 179.6C215.003 179.8 214.803 180 214.603 180Z" fill="#C6E2FA"/>
<path d="M190.701 170.4C190.501 170.4 190.301 170.2 190.301 170V161.8C190.301 161.6 190.501 161.4 190.701 161.4C190.901 161.4 191.101 161.6 191.101 161.8V170C191.101 170.2 190.901 170.4 190.701 170.4ZM204.401 180C204.201 180 204.001 179.8 204.001 179.6V170C204.001 169.8 204.201 169.6 204.401 169.6C204.601 169.6 204.801 169.8 204.801 170V179.6C204.801 179.8 204.601 180 204.401 180ZM194.001 189.3C193.801 189.3 193.601 189.1 193.601 188.9V179.6C193.601 179.4 193.801 179.2 194.001 179.2C194.201 179.2 194.401 179.4 194.401 179.6V188.9C194.401 189.2 194.201 189.3 194.001 189.3Z" fill="#C6E2FA"/>
</svg>
