<svg  width="102" height="102" viewBox="0 0 102 102" fill="none" xmlns="http://www.w3.org/2000/svg">
<circle cx="51" cy="51" r="46.5" fill="#F5F5F5" stroke="white" stroke-width="9"/>
<g clip-path="url(#clip0_0_1)">
<path d="M75.7711 50.4476L51.5524 26.2289C51.4798 26.1563 51.3937 26.0988 51.299 26.0595C51.2042 26.0202 51.1026 26 51 26C50.8974 26 50.7958 26.0202 50.701 26.0595C50.6063 26.0988 50.5202 26.1563 50.4476 26.2289L26.2289 50.4476C26.1563 50.5202 26.0988 50.6063 26.0595 50.701C26.0202 50.7958 26 50.8974 26 51C26 51.1026 26.0202 51.2042 26.0595 51.299C26.0988 51.3937 26.1563 51.4798 26.2289 51.5524L50.4476 75.7711C50.5202 75.8437 50.6063 75.9012 50.701 75.9405C50.7958 75.9798 50.8974 76 51 76C51.1026 76 51.2042 75.9798 51.299 75.9405C51.3937 75.9012 51.4798 75.8437 51.5524 75.7711L75.7711 51.5524C75.8437 51.4798 75.9012 51.3937 75.9405 51.299C75.9798 51.2042 76 51.1026 76 51C76 50.8974 75.9798 50.7958 75.9405 50.701C75.9012 50.6063 75.8437 50.5202 75.7711 50.4476ZM51 74.1138L27.8862 51L51 27.8862L74.1138 51L51 74.1138Z" fill="url(#paint0_linear_0_1)"/>
<path d="M31.7523 50.4477C31.6798 50.5202 31.6222 50.6064 31.5829 50.7011C31.5437 50.7959 31.5234 50.8975 31.5234 51.0001C31.5234 51.1027 31.5437 51.2043 31.5829 51.299C31.6222 51.3938 31.6798 51.4799 31.7523 51.5525L50.4468 70.247C50.5561 70.3562 50.6953 70.4306 50.8468 70.4607C50.9984 70.4909 51.1554 70.4754 51.2982 70.4163C51.4409 70.3572 51.5629 70.257 51.6488 70.1286C51.7346 70.0001 51.7804 69.8491 51.7804 69.6946V32.3056C51.7804 32.1511 51.7346 32.0001 51.6488 31.8716C51.5629 31.7431 51.4409 31.643 51.2982 31.5839C51.1554 31.5248 50.9984 31.5093 50.8468 31.5394C50.6953 31.5696 50.5561 31.644 50.4468 31.7532L31.7523 50.4477Z" fill="url(#paint1_linear_0_1)"/>
</g>
<defs>
<linearGradient id="paint0_linear_0_1" x1="51" y1="26" x2="51" y2="76" gradientUnits="userSpaceOnUse">
<stop stop-color="#292E34"/>
<stop offset="1" stop-color="#16191C"/>
</linearGradient>
<linearGradient id="paint1_linear_0_1" x1="41.6519" y1="31.5244" x2="41.6519" y2="70.4758" gradientUnits="userSpaceOnUse">
<stop stop-color="#292E34"/>
<stop offset="1" stop-color="#16191C"/>
</linearGradient>
<clipPath id="clip0_0_1">
<rect width="50" height="50" fill="white" transform="translate(26 26)"/>
</clipPath>
</defs>
</svg>
