<svg width="502" height="460" viewBox="0 0 502 460" fill="none" xmlns="http://www.w3.org/2000/svg">
<path d="M101.937 182.145L134.188 148.173C135.367 146.94 133.509 145.137 132.303 146.385L100.014 180.328C99.4876 179.833 65.5952 147.938 67.7455 149.961C66.4474 148.829 64.7389 150.792 66.0335 151.922L98.1866 182.248C97.6896 182.773 61.3075 221.169 63.623 218.726C62.4785 220.035 64.4483 221.719 65.5789 220.443L100.114 184.066L134.411 216.414C135.644 217.584 137.454 215.712 136.2 214.524L101.937 182.145Z" fill="black"/>
<path d="M136.904 134.147H64.5563C58.9936 134.147 54.4698 138.668 54.4698 144.231V222.602C54.4698 228.165 58.9936 232.686 64.5563 232.686H136.904C142.467 232.686 146.991 228.165 146.991 222.602V144.231C146.991 138.668 142.467 134.147 136.904 134.147ZM144.39 222.602C144.39 226.727 141.032 230.085 136.904 230.085H64.5563C60.4287 230.085 57.0708 226.727 57.0708 222.602V144.231C57.0708 140.106 60.4287 136.748 64.5563 136.748H136.904C141.032 136.748 144.39 140.106 144.39 144.231V222.602ZM399.272 91.5254H51.6224C49.9014 91.5254 49.9024 94.1264 51.6224 94.1264H399.272C400.993 94.1264 400.992 91.5254 399.272 91.5254Z" fill="black"/>
<path d="M496.161 192.553H442.219L443.415 177.678H467.55C470.763 177.678 473.377 175.062 473.377 171.852V137.312C473.377 134.066 470.763 131.429 467.55 131.429H447.055L452.927 56.7875C453.612 48.3759 447.299 41.4355 438.731 41.4355H14.247C5.62915 41.4355 -0.630661 48.429 0.0507216 56.7825L17.9428 283.791C18.4609 290.878 25.1793 296.649 32.9239 296.649H100.963C95.8491 317.119 106.61 340.449 130.588 340.449H210.986V356.017C203.27 356.554 197.158 362.916 197.158 370.768V433.415C197.158 447.869 208.875 459.585 223.328 459.585C237.781 459.585 249.498 447.869 249.498 433.415V370.768C249.498 363.645 244.479 357.707 237.788 356.262V340.449H324.713C346.499 340.449 356.488 316.987 350.628 297.115C350.743 296.955 350.873 296.81 350.987 296.649H420.056C427.742 296.649 434.461 290.883 435.032 283.796L438.58 238.802H496.161C499.374 238.802 501.988 236.186 501.988 232.975V198.436C501.988 195.189 499.374 192.553 496.161 192.553ZM350.192 236.201C348.386 236.201 346.916 234.753 346.916 232.975V198.436C346.916 196.649 348.354 195.202 350.13 195.167C350.146 195.167 350.155 195.184 350.172 195.184H496.143C497.926 195.184 499.379 196.637 499.379 198.42V232.96C499.379 234.743 497.926 236.196 496.143 236.196C481.068 236.196 550.361 236.194 350.192 236.201ZM470.776 137.312V171.852C470.776 173.63 469.328 175.077 467.55 175.077H442.215H321.581C319.775 175.077 318.305 173.63 318.305 171.852V137.312C318.305 135.473 319.745 134.03 321.581 134.03C357.598 134.03 431.447 134.03 467.55 134.03C469.328 134.03 470.776 135.503 470.776 137.312ZM214.873 434.232C214.873 435.953 212.272 435.953 212.272 434.232V386.886C212.272 385.165 214.873 385.165 214.873 386.886V434.232ZM227.985 421.095C227.985 422.816 225.384 422.816 225.384 421.095V401.984C225.384 400.263 227.985 400.263 227.985 401.984V421.095ZM235.187 355.969C232.484 355.876 219.944 355.928 213.587 355.914V340.449H235.187V355.969ZM324.713 337.848H236.488H212.286H130.588C108.626 337.848 98.4261 315.984 103.665 296.649H122.692C129.101 305.615 139.175 311.777 150.726 312.874C151.511 313.788 140.015 313.139 318.876 313.347C330.387 313.347 341.183 308.337 348.586 299.769C352.833 317.698 343.999 337.848 324.713 337.848ZM183.539 144.856C181.818 144.856 181.819 142.255 183.539 142.255H238.546C240.267 142.255 240.266 144.856 238.546 144.856H183.539ZM210.972 161.265H184.939C183.218 161.265 183.219 158.664 184.939 158.664H210.972C212.693 158.664 212.692 161.265 210.972 161.265ZM206.306 229.958L189.659 213.675C187.11 211.23 188.515 206.964 192 206.444L215.045 203.114C216.449 202.907 217.646 202.022 218.27 200.774L228.57 179.862C230.131 176.689 234.656 176.689 236.217 179.862L246.569 200.774C247.193 202.022 248.39 202.907 249.742 203.114L272.839 206.444C276.324 206.964 277.677 211.23 275.18 213.675L258.482 229.958C256.477 231.861 257.393 234.17 257.386 234.692H207.401C207.394 234.171 208.307 231.858 206.306 229.958ZM318.876 237.293C348.502 237.293 365.657 270.651 349.275 294.617C348.731 295.099 339.556 310.746 318.876 310.746H167.565C182.662 305.336 193.51 290.926 193.51 273.992C193.51 257.101 182.703 242.722 167.652 237.293H318.876ZM176.602 274.018C176.602 286.243 166.666 296.127 154.442 296.127C142.666 296.127 133.153 286.928 132.465 275.328H143.263C143.928 280.95 148.656 285.328 154.449 285.328C160.705 285.328 165.777 280.257 165.777 274C165.777 267.753 160.705 262.681 154.449 262.681C148.638 262.681 143.9 267.085 143.258 272.727H132.463C133.143 261.112 142.659 251.858 154.442 251.858C166.666 251.858 176.602 261.793 176.602 274.018ZM120.995 294.048H104.478C106.599 288.079 110.325 282.76 115.805 279.332C116.537 284.655 118.339 289.629 120.995 294.048ZM432.441 283.588C431.974 289.359 426.419 294.048 420.056 294.048H352.725C368.191 268.103 349.374 234.692 318.876 234.692H294.634V166.543C294.634 165.827 294.053 165.244 293.335 165.242V124.929C293.335 119.681 289.355 115.374 284.228 114.754C284.235 114.701 284.286 114.669 284.286 114.614C284.286 113.898 283.704 113.314 282.986 113.314H181.829C181.11 113.314 180.528 113.898 180.528 114.614C180.528 114.668 180.579 114.7 180.585 114.752C175.492 115.366 171.504 119.676 171.504 124.929V234.692C151.008 234.87 151.489 234.304 150.739 235.133C130.42 237.054 114.159 254.745 115.521 276.457C108.621 280.315 104.064 286.779 101.7 294.048H32.9239C26.5128 294.048 20.9578 289.359 20.5361 283.593L2.64156 56.5742C2.07879 49.6421 7.23482 44.0365 14.247 44.0365H438.731C445.802 44.0365 450.894 49.7011 450.336 56.5793L444.448 131.429H321.581C318.34 131.429 315.704 134.066 315.704 137.312V171.852C315.704 175.062 318.34 177.678 321.581 177.678H440.806L439.612 192.553H350.192C346.951 192.553 344.315 195.189 344.315 198.436V232.975C344.315 236.186 346.951 238.802 350.192 238.802H435.972L432.441 283.588Z" fill="#FF7500"/>
<path d="M477.981 209.224H413.636C411.776 209.224 410.269 210.732 410.269 212.591V218.784C410.269 220.644 411.776 222.152 413.636 222.152H477.981C479.84 222.152 481.348 220.644 481.348 218.784V212.591C481.348 210.732 479.84 209.224 477.981 209.224ZM381.657 151.642V157.483C381.657 159.44 383.244 161.026 385.2 161.026H449.193C451.15 161.026 452.736 159.44 452.736 157.483V151.642C452.736 149.685 451.15 148.098 449.193 148.098H385.2C383.244 148.098 381.657 149.685 381.657 151.642ZM218.674 274.088H340.021C341.742 274.088 341.741 271.487 340.021 271.487H218.674C216.953 271.487 216.954 274.088 218.674 274.088ZM66.2951 75.433C70.5268 75.433 73.9507 72.0093 73.9507 67.7773C73.9507 63.5666 70.5268 60.1429 66.2951 60.1429C62.084 60.1429 58.6391 63.5666 58.6391 67.7773C58.6391 72.0093 62.084 75.433 66.2951 75.433ZM99.3225 75.433C103.555 75.433 106.979 72.0093 106.979 67.7773C106.979 63.5666 103.555 60.1429 99.3225 60.1429C95.1118 60.1429 91.6669 63.5666 91.6669 67.7773C91.6669 72.0093 95.1118 75.433 99.3225 75.433ZM132.35 75.433C136.582 75.433 140.006 72.0093 140.006 67.7773C140.006 63.5666 136.582 60.1429 132.35 60.1429C128.14 60.1429 124.695 63.5666 124.695 67.7773C124.695 72.0093 128.14 75.433 132.35 75.433ZM383.588 349.73C372.22 350.912 360.419 368.668 366.024 386.53C366.543 388.173 369.017 387.386 368.508 385.748C363.453 369.649 373.877 353.877 383.215 352.403C382.703 358.161 384.316 366.179 388.831 369.385C393.622 372.787 399.727 369.839 399.161 362.603C398.644 355.962 392.72 350.436 386.217 349.746C389.786 332.588 408.703 325.908 422.821 333.647C424.312 334.483 425.59 332.204 424.071 331.371C408.273 322.699 387.234 330.477 383.588 349.73ZM394.81 367.683C393.608 368.461 391.772 368.283 390.337 367.262C386.637 364.64 385.321 357.257 385.818 352.316C395.545 353.251 399.12 364.932 394.81 367.683ZM66.1824 348.044C57.0535 350.955 47.1752 352.057 37.6399 351.3C35.9535 351.098 35.6863 353.755 37.4266 353.891C53.3925 355.207 78.4002 351.023 86.142 336.984C86.49 336.355 86.2614 335.562 85.6314 335.217C82.538 333.474 84.8545 342.085 66.1824 348.044ZM92.1314 352.794C89.1951 358.539 87.3155 364.691 86.5408 371.092C86.3338 372.808 88.9194 373.102 89.1214 371.407C89.8606 365.311 91.6513 359.449 94.4479 353.982C95.2324 352.45 92.9246 351.268 92.1314 352.794ZM114.687 361.481C108.513 365.194 105.593 376.955 105.385 384.123C105.365 384.839 105.931 385.438 106.648 385.459C106.66 385.459 106.673 385.459 106.686 385.459C109.486 385.459 106.37 380.724 111.309 369.822C112.706 366.749 114.204 364.803 116.028 363.706C117.915 362.573 120.796 362.395 122.355 364.066C123.52 365.327 125.435 363.559 124.26 362.298C121.71 359.555 117.428 359.835 114.687 361.481ZM20.576 103.443L30.0782 175.936C30.3075 177.676 32.8763 177.291 32.6589 175.601L23.1566 103.108C22.937 101.434 20.3544 101.72 20.576 103.443ZM345.5 71.6467H421.844C423.565 71.6467 423.564 69.0457 421.844 69.0457H345.5C343.779 69.0457 343.78 71.6467 345.5 71.6467ZM426.126 10.569C424.413 10.5933 424.437 13.17 426.144 13.17C426.664 13.3483 449.873 11.8895 465.347 32.3371C466.375 33.7151 468.463 32.1392 467.419 30.7724C457.334 17.4366 440.828 10.2104 426.126 10.569ZM470.93 11.0871C466.101 6.24583 460.16 2.44594 453.746 0.0938595C452.135 -0.506597 451.233 1.94773 452.852 2.5323C458.91 4.75737 464.526 8.34898 469.091 12.9261C470.308 14.1431 472.146 12.3037 470.93 11.0871ZM379.803 199.604C370.913 199.604 363.682 206.833 363.682 215.723C363.682 224.573 370.913 231.776 379.803 231.776C388.653 231.776 395.854 224.573 395.854 215.723C395.854 206.833 388.653 199.604 379.803 199.604ZM379.803 229.175C372.348 229.175 366.283 223.14 366.283 215.723C366.283 208.271 372.348 202.205 379.803 202.205C387.22 202.205 393.253 208.271 393.253 215.723C393.253 223.14 387.22 229.175 379.803 229.175ZM351.192 138.475C342.302 138.475 335.071 145.709 335.071 154.6C335.071 163.449 342.302 170.648 351.192 170.648C360.042 170.648 367.243 163.449 367.243 154.6C367.243 145.709 360.042 138.475 351.192 138.475ZM351.192 168.047C343.737 168.047 337.672 162.017 337.672 154.6C337.672 147.142 343.737 141.076 351.192 141.076C358.609 141.076 364.642 147.142 364.642 154.6C364.642 162.017 358.609 168.047 351.192 168.047Z" fill="black"/>
</svg>
