<svg width="665" height="1088" viewBox="0 0 665 1088" fill="none" xmlns="http://www.w3.org/2000/svg">
<g opacity="0.0636858">
<mask id="mask0_4190_949" style="mask-type:luminance" maskUnits="userSpaceOnUse" x="0" y="48" width="1053" height="1040">
<path fill-rule="evenodd" clip-rule="evenodd" d="M1052.56 48.3962H0.539795V1088H1052.56V48.3962Z" fill="white"/>
</mask>
<g mask="url(#mask0_4190_949)">
<path fill-rule="evenodd" clip-rule="evenodd" d="M2.4574 480.711C2.12769 473.296 5.60925 466.336 11.7634 462.097L603.721 54.1467C608.491 50.8568 614.275 49.6011 620.004 50.6078C625.73 51.6179 630.719 54.7688 634.043 59.4856L1046.75 644.336C1049.12 647.69 1050.47 651.617 1050.64 655.685C1050.97 663.101 1047.49 670.058 1041.34 674.302L449.383 1082.25C444.608 1085.54 438.83 1086.8 433.097 1085.79C427.372 1084.78 422.382 1081.63 419.057 1076.91L6.35156 492.064C3.98035 488.708 2.63611 484.78 2.4574 480.711ZM1052.54 655.604C1052.34 651.178 1050.88 646.913 1048.3 643.265L635.6 58.4142C631.983 53.2887 626.562 49.8624 620.335 48.7646C614.108 47.6694 607.824 49.0351 602.636 52.6096L10.6768 460.561C3.98816 465.172 0.207642 472.735 0.5625 480.795C0.760376 485.219 2.22314 489.485 4.79883 493.136L417.504 1077.98C421.12 1083.11 426.538 1086.53 432.765 1087.63C438.99 1088.73 445.276 1087.36 450.467 1083.79L1042.42 675.834C1049.11 671.227 1052.9 663.663 1052.54 655.604Z" fill="#DADADA"/>
</g>
<path fill-rule="evenodd" clip-rule="evenodd" d="M29.9548 474.812C29.6376 467.699 32.9456 460.98 38.7934 456.84L610.664 51.9638C615.267 48.7013 620.882 47.4075 626.472 48.3183C632.062 49.2307 636.956 52.2393 640.256 56.789L1049.85 621.789C1052.26 625.107 1053.62 629.003 1053.8 633.059C1054.12 640.174 1050.81 646.893 1044.96 651.029L473.091 1055.91C463.58 1062.64 450.308 1060.48 443.501 1051.09L33.9032 486.083C31.4969 482.767 30.1327 478.867 29.9548 474.812ZM1055.69 632.975C1055.5 628.558 1054.01 624.312 1051.39 620.699L641.793 55.7005C638.2 50.7429 632.868 47.4671 626.78 46.4728C620.692 45.4802 614.576 46.8897 609.559 50.441L37.6909 455.319C31.3162 459.829 27.7177 467.145 28.0583 474.893C28.2571 479.313 29.7399 483.562 32.3616 487.173L441.961 1052.17C449.376 1062.4 463.84 1064.76 474.194 1057.43L1046.06 652.553C1052.43 648.044 1056.04 640.726 1055.69 632.975Z" fill="#DADADA"/>
<path fill-rule="evenodd" clip-rule="evenodd" d="M57.4507 468.911C57.1526 462.1 60.2853 455.621 65.8284 451.581L617.61 49.7792C626.773 43.1076 639.718 45.0441 646.47 54.0956L1052.96 599.245C1055.4 602.518 1056.79 606.39 1056.97 610.437C1057.27 617.247 1054.13 623.725 1048.59 627.762L496.81 1029.57C492.368 1032.8 486.924 1034.13 481.472 1033.31C476.018 1032.5 471.215 1029.63 467.945 1025.25L61.4558 480.099C59.0137 476.827 57.6277 472.957 57.4507 468.911ZM1058.86 610.351C1058.66 605.933 1057.15 601.709 1054.48 598.137L647.994 52.9855C640.623 43.1018 626.489 40.9882 616.487 48.2719L64.7061 450.074C58.6488 454.486 55.2298 461.56 55.5588 468.994C55.7516 473.412 57.2629 477.636 59.9296 481.211L466.42 1026.36C469.992 1031.15 475.232 1034.28 481.186 1035.16C487.137 1036.06 493.083 1034.6 497.927 1031.08L1049.71 629.271C1055.76 624.86 1059.19 617.789 1058.86 610.351Z" fill="#DADADA"/>
<path fill-rule="evenodd" clip-rule="evenodd" d="M84.9382 463.01C84.6534 456.497 87.6157 450.261 92.8624 446.324L624.555 47.5956C628.829 44.3918 634.106 43.0236 639.419 43.7424C644.728 44.4605 649.441 47.1812 652.68 51.4025L1056.07 576.705C1058.55 579.939 1059.96 583.778 1060.13 587.814C1060.42 594.325 1057.46 600.56 1052.21 604.497L520.515 1003.23C511.7 1009.83 499.084 1008.13 492.392 999.421L89.0034 474.119C86.5228 470.887 85.1177 467.046 84.9382 463.01ZM1062.02 587.729C1061.83 583.312 1060.29 579.106 1057.57 575.572L654.189 50.271C650.641 45.6518 645.486 42.6754 639.674 41.8871C633.861 41.1012 628.086 42.5993 623.409 46.1043L91.717 444.835C85.9727 449.141 82.7332 455.966 83.0463 463.092C83.2433 467.51 84.7762 471.715 87.4948 475.252L490.881 1000.55C498.205 1010.08 512.011 1011.96 521.66 1004.72L1053.35 605.986C1059.1 601.679 1062.34 594.858 1062.02 587.729Z" fill="#DADADA"/>
<path fill-rule="evenodd" clip-rule="evenodd" d="M112.428 457.111C112.153 450.894 114.946 444.896 119.899 441.066L631.501 45.4105C635.606 42.2373 640.716 40.831 645.889 41.4548C651.065 42.0777 655.681 44.6536 658.893 48.7095L1059.17 554.162C1061.7 557.346 1063.12 561.156 1063.3 565.185C1063.58 571.402 1060.78 577.399 1055.83 581.23L544.228 976.887C540.12 980.059 535.014 981.464 529.838 980.841C524.664 980.22 520.046 977.641 516.833 973.586L116.554 468.135C114.029 464.952 112.605 461.138 112.428 457.111ZM1065.19 565.102C1065 560.68 1063.43 556.502 1060.67 553.003L660.385 47.5554C656.862 43.1066 651.794 40.28 646.121 39.5975C640.444 38.9134 634.839 40.4545 630.333 43.9379L118.734 439.593C113.299 443.793 110.234 450.373 110.535 457.192C110.73 461.613 112.296 465.796 115.059 469.292L515.342 974.74C518.866 979.194 523.934 982.019 529.609 982.698C535.285 983.386 540.892 981.843 545.392 978.361L1057 582.705C1062.43 578.503 1065.49 571.922 1065.19 565.102Z" fill="#DADADA"/>
<path fill-rule="evenodd" clip-rule="evenodd" d="M139.906 451.21C139.646 445.287 142.271 439.531 146.93 435.81L638.447 43.2262C646.577 36.7325 658.536 37.9833 665.105 46.0156L1062.28 531.621C1064.84 534.753 1066.3 538.538 1066.48 542.559C1066.74 548.484 1064.11 554.238 1059.45 557.961L567.936 950.542C563.996 953.692 559.054 955.131 554.022 954.606C548.984 954.076 544.458 951.644 541.277 947.754L144.1 462.153C141.533 459.016 140.082 455.23 139.906 451.21ZM1068.37 542.478C1068.17 538.054 1066.58 533.894 1063.75 530.442L666.579 44.8394C659.354 36.0046 646.2 34.6281 637.257 41.7696L145.738 434.355C140.615 438.444 137.728 444.778 138.013 451.291C138.208 455.714 139.804 459.876 142.626 463.331L539.803 948.929C543.301 953.211 548.283 955.886 553.819 956.465C559.358 957.047 564.794 955.462 569.124 951.998L1060.64 559.417C1065.77 555.324 1068.66 548.991 1068.37 542.478Z" fill="#DADADA"/>
<path fill-rule="evenodd" clip-rule="evenodd" d="M167.384 445.308C167.129 439.596 169.53 434.215 173.965 430.549L645.393 41.0391C649.167 37.9246 653.938 36.4447 658.836 36.8765C663.734 37.3075 668.166 39.5981 671.319 43.3247L1065.39 509.077C1068 512.167 1069.48 515.919 1069.66 519.932C1069.91 525.647 1067.5 531.03 1063.07 534.693L591.643 924.205C583.855 930.639 572.227 929.614 565.718 921.919L171.65 456.168C169.036 453.079 167.559 449.324 167.384 445.308ZM1071.55 519.848C1071.35 515.425 1069.73 511.283 1066.84 507.874L672.774 42.1236C669.295 38.0123 664.407 35.4868 659.005 35.0128C653.604 34.5364 648.338 36.1685 644.179 39.6048L172.752 429.112C167.86 433.155 165.214 439.086 165.489 445.392C165.685 449.822 167.312 453.961 170.197 457.366L564.265 923.12C571.445 931.606 584.27 932.733 592.86 925.641L1064.29 536.134C1069.18 532.089 1071.83 526.155 1071.55 519.848Z" fill="#DADADA"/>
<path fill-rule="evenodd" clip-rule="evenodd" d="M194.853 439.41C194.615 433.984 196.855 428.841 201.002 425.287L652.341 38.8564C655.946 35.7659 660.552 34.2496 665.314 34.5871C670.073 34.9229 674.412 37.0687 677.538 40.6316L1068.5 486.534C1071.16 489.574 1072.66 493.298 1072.84 497.308C1073.08 502.732 1070.84 507.879 1066.69 511.431L615.355 897.865C611.747 900.952 607.14 902.466 602.381 902.131C597.625 901.798 593.285 899.651 590.16 896.088L199.199 450.184C196.532 447.146 195.028 443.42 194.853 439.41ZM1074.73 497.227C1074.54 492.791 1072.88 488.671 1069.93 485.31L678.969 39.4066C675.513 35.4649 670.712 33.0907 665.448 32.7201C660.183 32.3479 655.088 34.0247 651.101 37.4403L199.765 423.872C195.173 427.803 192.7 433.495 192.96 439.492C193.158 443.926 194.818 448.047 197.764 451.413L588.729 897.311C592.182 901.255 596.984 903.629 602.246 904.002C607.511 904.369 612.607 902.695 616.592 899.278L1067.93 512.844C1072.52 508.916 1075 503.225 1074.73 497.227Z" fill="#DADADA"/>
<path fill-rule="evenodd" clip-rule="evenodd" d="M222.317 433.51C222.09 428.375 224.176 423.462 228.04 420.026L659.291 36.6653C662.728 33.6071 667.168 32.0569 671.788 32.2984C676.408 32.5383 680.658 34.5419 683.751 37.9409L1071.61 463.995C1074.29 466.936 1075.86 470.735 1076.03 474.683C1076.26 479.817 1074.17 484.732 1070.31 488.164L639.061 871.528C635.624 874.583 631.185 876.136 626.56 875.897C621.944 875.655 617.694 873.653 614.599 870.256L226.745 444.2C224.062 441.258 222.489 437.458 222.317 433.51ZM1077.93 474.603C1077.73 470.22 1075.99 466.005 1073.02 462.744L685.16 36.6891C681.729 32.9203 677.014 30.6951 671.887 30.4279C666.76 30.1607 661.837 31.8838 658.021 35.2754L226.771 418.637C222.487 422.445 220.174 427.896 220.425 433.592C220.62 437.973 222.363 442.183 225.335 445.452L613.192 871.507C616.622 875.273 621.336 877.499 626.463 877.766C631.587 878.033 636.513 876.313 640.328 872.917L1071.58 489.553C1075.86 485.748 1078.18 480.296 1077.93 474.603Z" fill="#DADADA"/>
<path fill-rule="evenodd" clip-rule="evenodd" d="M249.769 427.61C249.556 422.761 251.488 418.079 255.073 414.764L666.235 34.4787C669.509 31.4494 673.783 29.8612 678.262 30.0084C682.744 30.1548 686.902 32.0161 689.968 35.2522L1074.72 441.455C1077.45 444.344 1079.06 448.11 1079.23 452.06C1079.44 456.91 1077.51 461.59 1073.93 464.905L662.767 845.189C656.01 851.442 645.362 851.097 639.036 844.419L254.284 438.215C251.547 435.325 249.945 431.56 249.769 427.61ZM1081.12 451.979C1080.93 447.583 1079.14 443.391 1076.1 440.176L691.35 33.9732C687.94 30.3723 683.316 28.3001 678.328 28.1379C673.339 27.9758 668.585 29.7411 664.941 33.1129L253.779 413.4C249.79 417.087 247.642 422.295 247.878 427.692C248.073 432.086 249.856 436.276 252.902 439.495L637.655 845.699C644.694 853.13 656.543 853.514 664.061 846.556L1075.22 466.27C1079.21 462.584 1081.36 457.371 1081.12 451.979Z" fill="#DADADA"/>
<path fill-rule="evenodd" clip-rule="evenodd" d="M277.228 421.709C277.027 417.144 278.807 412.693 282.115 409.502L673.189 32.2871C679.608 26.097 689.928 26.2202 696.192 32.5617L1077.84 418.915C1080.63 421.743 1082.27 425.483 1082.44 429.43C1082.65 434.001 1080.86 438.449 1077.55 441.64L686.481 818.857C680.06 825.045 669.744 824.918 663.482 818.58L281.837 432.229C279.041 429.397 277.403 425.66 277.228 421.709ZM1084.33 429.347C1084.14 424.939 1082.31 420.768 1079.19 417.606L697.545 31.2523C690.552 24.1737 679.034 24.0372 671.869 30.9495L280.793 408.162C277.101 411.724 275.11 416.693 275.336 421.792C275.528 426.202 277.356 430.376 280.481 433.537L662.127 819.888C669.118 826.967 680.637 827.106 687.805 820.193L1078.87 442.977C1082.57 439.416 1084.56 434.447 1084.33 429.347Z" fill="#DADADA"/>
<path fill-rule="evenodd" clip-rule="evenodd" d="M304.669 415.809C304.477 411.519 306.115 407.303 309.152 404.24L680.139 30.0972C686.218 23.9683 696.207 23.8666 702.409 29.8697L1080.95 396.372C1083.81 399.144 1085.48 402.848 1085.66 406.806C1085.85 411.095 1084.21 415.311 1081.17 418.377L710.19 792.522C704.109 798.651 694.121 798.749 687.917 792.741L309.379 426.243C306.517 423.471 304.843 419.765 304.669 415.809ZM1087.55 406.724C1087.35 402.293 1085.48 398.142 1082.27 395.036L703.735 28.5322C696.785 21.8069 685.596 21.9219 678.786 28.787L307.799 402.928C304.393 406.361 302.564 411.086 302.774 415.89C302.97 420.324 304.847 424.473 308.053 427.58L686.589 794.084C693.533 800.808 704.729 800.695 711.538 793.831L1082.52 419.69C1085.93 416.255 1087.76 411.527 1087.55 406.724Z" fill="#DADADA"/>
<path fill-rule="evenodd" clip-rule="evenodd" d="M332.101 409.91C331.922 405.836 333.373 401.95 336.195 398.97L687.092 27.9064C689.868 24.9681 693.641 23.2723 697.707 23.1359C701.776 22.9994 705.655 24.4371 708.629 27.1818L1084.06 373.834C1086.99 376.544 1088.7 380.216 1088.88 384.181C1089.06 388.255 1087.61 392.14 1084.79 395.121L733.891 766.185C728.154 772.251 718.494 772.572 712.353 766.908L336.921 420.255C333.986 417.547 332.278 413.873 332.101 409.91ZM1090.77 384.095C1090.58 379.637 1088.65 375.514 1085.36 372.47L709.922 25.8143C706.578 22.7263 702.219 21.1116 697.642 21.2663C693.069 21.4193 688.831 23.3244 685.704 26.6283L334.809 397.693C331.639 401.043 330.007 405.412 330.207 409.992C330.404 414.449 332.33 418.581 335.63 421.622L711.061 768.278C717.959 774.646 728.825 774.285 735.276 767.466L1086.17 396.398C1089.34 393.045 1090.98 388.681 1090.77 384.095Z" fill="#DADADA"/>
<path fill-rule="evenodd" clip-rule="evenodd" d="M359.527 404.01C359.358 400.207 360.675 396.551 363.232 393.705L694.042 25.7131C699.441 19.7083 708.777 19.1598 714.853 24.4913L1087.18 351.298C1090.19 353.937 1091.94 357.578 1092.11 361.552C1092.28 365.353 1090.97 369.016 1088.41 371.86L757.598 739.852C752.199 745.859 742.867 746.407 736.786 741.072L364.463 414.267C361.453 411.627 359.7 407.984 359.527 404.01ZM1094.01 361.471C1093.81 356.99 1091.83 352.878 1088.43 349.899L716.11 23.0919C709.254 17.0755 698.718 17.6934 692.625 24.4692L361.814 392.463C358.929 395.672 357.441 399.802 357.632 404.093C357.83 408.578 359.809 412.687 363.202 415.667L735.529 742.477C742.387 748.489 752.922 747.873 759.017 741.095L1089.82 373.106C1092.71 369.894 1094.2 365.762 1094.01 361.471Z" fill="#DADADA"/>
<path fill-rule="evenodd" clip-rule="evenodd" d="M386.938 398.113C386.781 394.581 387.967 391.143 390.271 388.435L700.994 23.5184C703.442 20.6396 706.883 18.8752 710.675 18.5534C714.469 18.2299 718.164 19.3839 721.076 21.806L1090.3 328.764C1093.34 331.292 1095.18 334.997 1095.36 338.927C1095.51 342.46 1094.33 345.895 1092.03 348.605L781.304 713.524C776.245 719.464 767.234 720.232 761.221 715.233L392.001 408.28C388.957 405.75 387.111 402.043 386.938 398.113ZM1097.25 338.846C1097.05 334.391 1094.96 330.195 1091.52 327.331L722.296 20.3734C718.993 17.6311 714.811 16.3208 710.513 16.6881C706.214 17.0545 702.319 19.0531 699.543 22.3132L388.824 387.232C386.21 390.3 384.87 394.193 385.046 398.193C385.241 402.647 387.333 406.845 390.781 409.713L760.002 716.667C766.814 722.331 777.022 721.46 782.752 714.729L1093.47 349.807C1096.08 346.741 1097.43 342.848 1097.25 338.846Z" fill="#DADADA"/>
<path fill-rule="evenodd" clip-rule="evenodd" d="M414.339 392.214C414.195 388.943 415.25 385.731 417.31 383.165L707.945 21.323C710.233 18.4749 713.506 16.6756 717.163 16.2596C720.818 15.8426 724.418 16.8585 727.297 19.1168L1093.41 306.225C1096.54 308.679 1098.44 312.35 1098.61 316.302C1098.75 319.567 1097.7 322.78 1095.64 325.35L805.009 687.194C800.285 693.075 791.603 694.064 785.651 689.397L419.538 402.293C416.407 399.839 414.511 396.163 414.339 392.214ZM1100.5 316.217C1100.31 311.726 1098.15 307.551 1094.59 304.758L728.478 17.6508C725.199 15.0806 721.104 13.9258 716.946 14.3998C712.787 14.8738 709.063 16.9187 706.46 20.1597L415.828 382.003C413.484 384.92 412.282 388.578 412.446 392.297C412.645 396.788 414.797 400.966 418.359 403.756L784.478 690.865C791.237 696.17 801.118 695.045 806.49 688.357L1097.12 326.516C1099.47 323.592 1100.67 319.935 1100.5 316.217Z" fill="#DADADA"/>
<path fill-rule="evenodd" clip-rule="evenodd" d="M441.727 386.318C441.594 383.306 442.527 380.315 444.352 377.892L714.897 19.1228C719.285 13.3066 727.642 12.098 733.53 16.4302L1096.53 283.689C1099.76 286.06 1101.71 289.699 1101.88 293.669C1102.01 296.68 1101.08 299.67 1099.26 302.097L828.709 660.868C824.324 666.684 815.966 667.891 810.082 663.558L447.072 396.302C443.848 393.929 441.903 390.291 441.727 386.318ZM1103.77 293.588C1103.58 289.05 1101.35 284.896 1097.66 282.183L734.661 14.9297C727.937 9.97963 718.389 11.3603 713.378 18.0053L442.835 376.775C440.75 379.541 439.68 382.959 439.834 386.4C440.033 390.937 442.26 395.092 445.942 397.805L808.948 665.058C815.672 670.008 825.218 668.625 830.229 661.985L1100.78 303.214C1102.86 300.446 1103.93 297.028 1103.77 293.588Z" fill="#DADADA"/>
<path fill-rule="evenodd" clip-rule="evenodd" d="M469.102 380.424C468.98 377.625 469.77 374.926 471.393 372.62L721.85 16.9231C725.901 11.1689 733.934 9.74363 739.759 13.7441L1099.66 261.152C1102.98 263.437 1104.99 267.04 1105.17 271.04C1105.29 273.84 1104.49 276.536 1102.87 278.841L852.417 634.542C848.366 640.299 840.334 641.723 834.508 637.719L474.605 390.313C471.283 388.03 469.279 384.423 469.102 380.424ZM1107.06 270.957C1106.85 266.37 1104.55 262.234 1100.74 259.614L740.841 12.2086C734.159 7.61836 724.943 9.25296 720.297 15.8534L469.839 371.551C467.977 374.196 467.066 377.291 467.21 380.504C467.411 385.093 469.712 389.229 473.52 391.85L833.427 639.258C840.106 643.849 849.323 642.213 853.969 635.613L1104.43 279.914C1106.29 277.269 1107.2 274.174 1107.06 270.957Z" fill="#DADADA"/>
<path fill-rule="evenodd" clip-rule="evenodd" d="M496.458 374.528C496.345 371.978 497.027 369.495 498.435 367.343L728.804 14.7178C732.521 9.03063 740.23 7.38694 745.99 11.0582L1102.78 238.613C1106.16 240.772 1108.29 244.433 1108.46 248.411C1108.57 250.959 1107.89 253.441 1106.48 255.593L876.117 608.222C872.4 613.908 864.692 615.55 858.932 611.877L502.135 384.321C498.757 382.165 496.636 378.505 496.458 374.528ZM1110.35 248.328C1110.15 243.744 1107.7 239.526 1103.81 237.043L747.015 9.48602C740.381 5.25395 731.496 7.14829 727.211 13.7049L496.844 366.328C495.223 368.808 494.435 371.672 494.565 374.61C494.766 379.192 497.212 383.412 501.11 385.893L857.904 613.451C864.538 617.681 873.423 615.79 877.706 609.235L1108.08 256.612C1109.69 254.13 1110.48 251.268 1110.35 248.328Z" fill="#DADADA"/>
<path fill-rule="evenodd" clip-rule="evenodd" d="M523.803 368.631C523.7 366.329 524.281 364.057 525.477 362.065L735.756 12.5134C739.143 6.88745 746.53 5.02868 752.224 8.37149L1105.91 216.079C1109.41 218.131 1111.6 221.759 1111.78 225.778C1111.88 228.084 1111.3 230.354 1110.1 232.349L899.823 581.899C896.436 587.526 889.051 589.385 883.359 586.039L529.667 378.332C526.171 376.279 523.98 372.653 523.803 368.631ZM1113.67 225.696C1113.46 221.042 1110.93 216.845 1106.88 214.471L753.194 6.76257C746.599 2.89199 738.048 5.04442 734.131 11.558L523.852 361.106C522.463 363.415 521.793 366.043 521.909 368.716C522.115 373.37 524.654 377.565 528.7 379.943L882.39 587.651C888.98 591.519 897.533 589.369 901.451 582.856L1111.73 233.305C1113.12 230.999 1113.79 228.365 1113.67 225.696Z" fill="#DADADA"/>
<path fill-rule="evenodd" clip-rule="evenodd" d="M551.124 362.743C551.033 360.675 551.514 358.613 552.521 356.784L742.712 10.307C745.766 4.74312 752.829 2.6701 758.462 5.68698L1109.04 193.542C1112.66 195.483 1114.93 199.072 1115.11 203.144C1115.2 205.213 1114.72 207.275 1113.72 209.105L923.524 555.582C920.47 561.145 913.406 563.219 907.774 560.201L557.192 372.343C553.571 370.403 551.302 366.816 551.124 362.743ZM1117 203.064C1116.8 198.399 1114.09 194.122 1109.94 191.9L759.362 4.04154C752.814 0.534119 744.596 2.94465 741.044 9.41601L550.853 355.891C549.684 358.023 549.126 360.416 549.229 362.825C549.437 367.488 552.142 371.766 556.286 373.991L906.871 561.848C913.42 565.356 921.636 562.946 925.189 556.472L1115.38 209.998C1116.55 207.866 1117.11 205.47 1117 203.064Z" fill="#DADADA"/>
<mask id="mask1_4190_949" style="mask-type:luminance" maskUnits="userSpaceOnUse" x="576" y="0" width="545" height="538">
<path fill-rule="evenodd" clip-rule="evenodd" d="M1120.37 0H576.517V537.363H1120.37V0Z" fill="white"/>
</mask>
<g mask="url(#mask1_4190_949)">
<path fill-rule="evenodd" clip-rule="evenodd" d="M578.422 356.851C578.342 355.013 578.736 353.163 579.564 351.499L749.666 8.09648C752.387 2.59628 759.132 0.309007 764.699 2.99996L1112.18 171.009C1115.88 172.798 1118.29 176.439 1118.47 180.509C1118.55 182.349 1118.16 184.2 1117.33 185.865L947.228 529.268C944.502 534.766 937.76 537.053 932.193 534.361L584.714 366.356C581.016 364.565 578.604 360.924 578.422 356.851ZM1120.36 180.427C1120.15 175.67 1117.33 171.416 1113.01 169.328L765.533 1.31813C759.029 -1.82449 751.145 0.845788 747.961 7.27331L577.856 350.676C576.895 352.621 576.434 354.784 576.529 356.934C576.739 361.691 579.555 365.946 583.881 368.035L931.359 536.042C937.865 539.189 945.745 536.518 948.928 530.09L1119.03 186.686C1120 184.744 1120.45 182.578 1120.36 180.427Z" fill="#DADADA"/>
</g>
</g>
</svg>
