<svg width="1920" height="2048" viewBox="0 0 1920 2048" fill="none" xmlns="http://www.w3.org/2000/svg">
<g opacity="0.3">
<path d="M-319.06 63.0068C-401.025 233.014 -420.306 432.418 -372.503 615.781C-358.902 667.948 -338.946 720.61 -300.498 758.763C-189.399 869 1.90456 832.147 141.812 825.932C310.648 818.439 479.558 806.812 648.749 813.049C743.735 816.55 850.134 831.643 908.294 906.757C967.185 982.825 953.308 1088.95 947.584 1184.36C940.911 1295.53 949.936 1409.89 993.726 1512.79C1037.52 1615.7 1119.55 1706.23 1225.76 1742.77C1308.94 1771.38 1399.73 1765.52 1486.41 1752.18C1714.14 1717.11 1933.58 1632.1 2124.6 1504.94" stroke="#83848C" stroke-opacity="0.2" stroke-width="0.692997" stroke-miterlimit="10"/>
<path d="M-326.858 68.3562C-399.303 218.608 -415.133 391.555 -379.618 562.964C-376.321 578.883 -372.673 594.728 -368.482 610.443C-354.687 662.075 -334.832 714.139 -297.097 752.113C-187.991 861.997 -1.41793 829.549 137.339 825.376C260.357 821.675 383.999 814.829 508.772 814.675C552.09 814.553 595.424 815.195 638.782 816.968C732.832 820.818 837.948 835.776 896.395 908.797C955.573 982.737 944.333 1085.74 940.973 1178.42C937.067 1286.41 948.329 1397.54 993.2 1497.78C1008.82 1532.68 1028.93 1566.15 1052.95 1596.5C1097.88 1653.3 1156.49 1699.2 1224.96 1723.06C1307.21 1751.71 1396.73 1747.21 1482.03 1735.69C1654.7 1712.43 1821.66 1661.28 1975.66 1584.33C2021.62 1561.38 2066.41 1536.13 2109.84 1508.62" stroke="#83848C" stroke-opacity="0.2" stroke-width="0.692997" stroke-miterlimit="10"/>
<path d="M-334.649 73.7008C-404.68 218.944 -413.805 385.05 -375.803 558.179C-372.35 573.892 -368.686 589.564 -364.45 605.094C-350.452 656.188 -330.708 707.657 -293.683 745.462C-186.567 855.002 -4.74043 826.944 132.876 824.809C253.764 822.936 375.879 817.091 500.12 817.929C542.993 818.083 585.9 818.944 628.826 820.875C721.942 825.067 825.78 839.902 884.506 910.825C943.966 982.644 935.365 1082.53 934.364 1172.47C933.218 1277.27 946.733 1385.19 992.679 1482.75C1008.68 1516.72 1029.02 1549.33 1053.12 1578.95C1098.19 1634.39 1156.46 1679.43 1224.16 1703.32C1305.49 1732.01 1393.71 1728.88 1477.65 1719.19C1647.59 1699.68 1811.05 1654 1962.68 1582.81C2007.93 1561.57 2052.11 1538.07 2095.07 1512.28" stroke="#83848C" stroke-opacity="0.2" stroke-width="0.692997" stroke-miterlimit="10"/>
<path d="M-342.441 79.0494C-410.052 219.286 -412.513 378.532 -371.987 553.399C-368.392 568.915 -364.71 584.406 -360.426 599.745C-346.235 650.305 -326.582 701.172 -290.28 738.802C-185.157 847.988 -8.09103 824.313 128.405 824.242C247.146 824.181 367.744 819.638 491.457 821.173C533.891 821.697 576.364 822.683 618.866 824.776C711.045 829.318 813.607 844.021 872.607 912.844C932.349 982.542 926.389 1079.3 927.751 1166.51C929.372 1268.14 945.126 1372.83 992.145 1467.72C1008.53 1500.75 1029.09 1532.51 1053.28 1561.4C1098.49 1615.47 1156.41 1659.67 1223.35 1683.58C1303.76 1712.31 1390.69 1710.55 1473.26 1702.69C1640.48 1686.92 1800.42 1646.72 1949.69 1581.28C1994.23 1561.76 2037.8 1540 2080.3 1515.92" stroke="#83848C" stroke-opacity="0.2" stroke-width="0.692997" stroke-miterlimit="10"/>
<path d="M-350.23 84.3953C-415.428 219.623 -411.258 372.009 -368.162 548.619C-364.422 563.932 -360.719 579.253 -356.385 594.4C-341.992 644.423 -322.449 694.694 -286.864 732.152C-183.735 840.985 -11.4361 821.673 123.95 823.68C240.536 825.409 359.632 821.994 482.813 824.432C524.806 825.257 566.842 826.433 608.918 828.688C700.164 833.572 801.443 848.141 860.726 914.876C920.755 982.447 917.432 1076.09 921.158 1160.57C925.546 1259.01 943.535 1360.48 991.637 1452.7C1008.4 1484.81 1029.18 1515.7 1053.46 1543.87C1098.81 1596.57 1156.38 1639.91 1222.57 1663.87C1302.05 1692.64 1387.7 1692.24 1468.89 1686.21C1633.39 1674.2 1789.81 1639.47 1936.73 1579.79C1980.57 1561.98 2023.53 1541.97 2065.55 1519.61" stroke="#83848C" stroke-opacity="0.2" stroke-width="0.692997" stroke-miterlimit="10"/>
<path d="M-358.022 89.7451C-420.807 219.963 -410.036 365.484 -364.348 543.839C-360.472 558.953 -356.733 574.093 -352.362 589.053C-337.775 638.541 -318.326 688.218 -283.454 725.496C-182.319 833.976 -14.8049 819.01 119.489 823.111C233.916 826.606 351.503 824.332 474.159 827.674C515.711 828.802 557.316 830.17 598.96 832.584C689.27 837.817 789.273 852.255 848.836 916.893C909.148 982.343 908.459 1072.86 914.555 1154.61C921.699 1249.87 941.937 1348.12 991.122 1437.66C1008.27 1468.84 1029.28 1498.88 1053.64 1526.32C1099.12 1577.65 1156.36 1620.14 1221.77 1644.13C1300.34 1672.93 1384.7 1673.89 1464.52 1669.7C1626.29 1661.43 1779.2 1632.17 1923.75 1578.24C1966.89 1562.15 2009.24 1543.88 2050.8 1523.25" stroke="#83848C" stroke-opacity="0.2" stroke-width="0.692997" stroke-miterlimit="10"/>
<path d="M-365.819 95.094C-426.19 220.303 -408.87 358.959 -360.541 539.066C-356.536 553.977 -352.766 568.942 -348.339 583.715C-333.556 632.662 -314.211 681.746 -280.055 718.853C-180.907 826.982 -18.2022 816.344 115.014 822.561C227.268 827.798 343.367 826.692 465.495 830.945C506.605 832.376 547.78 833.936 588.989 836.515C678.365 842.091 777.082 856.402 836.932 918.946C897.527 982.275 899.478 1069.66 907.938 1148.68C917.849 1240.77 940.326 1335.79 990.59 1422.66C1008.12 1452.91 1029.34 1482.09 1053.8 1508.8C1099.43 1558.77 1156.31 1600.4 1220.97 1624.43C1298.61 1653.27 1381.69 1655.6 1460.13 1653.23C1619.18 1648.71 1768.58 1624.93 1910.76 1576.76C1953.2 1562.38 1994.94 1545.86 2036.02 1526.95" stroke="#83848C" stroke-opacity="0.2" stroke-width="0.692997" stroke-miterlimit="10"/>
<path d="M-373.609 100.439C-431.56 220.641 -407.727 352.424 -356.717 534.284C-352.588 548.999 -348.775 563.787 -344.306 578.365C-329.324 626.781 -310.08 675.267 -276.637 712.194C-179.485 819.977 -21.5838 813.636 110.554 821.987C220.628 828.946 335.237 829.014 456.85 834.185C497.522 835.912 538.259 837.677 579.04 840.409C667.479 846.334 764.92 860.514 825.051 920.96C885.931 982.162 890.517 1066.44 901.336 1142.72C914.008 1231.62 938.73 1323.42 990.07 1407.61C1007.97 1436.94 1029.43 1465.25 1053.97 1491.24C1099.73 1539.84 1156.27 1580.61 1220.18 1604.68C1296.89 1633.56 1378.68 1637.25 1455.77 1636.72C1612.09 1635.95 1757.97 1617.64 1897.8 1575.22C1939.53 1562.56 1980.67 1547.79 2021.28 1530.59" stroke="#83848C" stroke-opacity="0.2" stroke-width="0.692997" stroke-miterlimit="10"/>
<path d="M-381.405 105.788C-436.942 220.981 -406.64 345.894 -352.906 529.505C-348.657 544.02 -344.799 558.624 -340.279 573.021C-325.1 620.895 -305.957 668.783 -273.231 705.538C-178.073 812.968 -25.0012 810.911 106.087 821.425C213.969 830.076 327.105 831.351 448.187 837.44C488.411 839.466 528.724 841.427 569.08 844.321C656.585 850.588 752.741 864.64 813.161 922.986C874.324 982.068 881.551 1063.22 894.734 1136.77C910.172 1222.48 937.14 1311.06 989.552 1392.59C1007.84 1420.98 1029.52 1448.44 1054.14 1473.7C1100.05 1520.93 1156.24 1560.86 1219.39 1584.95C1295.18 1613.87 1375.68 1618.93 1451.4 1620.22C1604.99 1623.2 1747.36 1610.37 1884.83 1573.7C1925.85 1562.76 1966.38 1549.74 2006.53 1534.25" stroke="#83848C" stroke-opacity="0.2" stroke-width="0.692997" stroke-miterlimit="10"/>
<path d="M-389.196 111.139C-442.321 221.323 -405.585 339.375 -349.09 524.727C-344.723 539.043 -340.817 553.472 -336.255 567.675C-320.876 615.018 -301.834 662.308 -269.831 698.887C-176.66 805.967 -28.4223 808.168 101.616 820.861C207.303 831.178 318.969 833.671 439.53 840.691C479.32 843.006 519.195 845.172 559.119 848.225C645.688 854.842 740.568 868.763 801.268 925.011C862.713 981.972 872.581 1059.99 888.127 1130.82C906.332 1213.35 935.539 1298.71 989.034 1377.56C1007.7 1405.02 1029.6 1431.62 1054.32 1456.16C1100.36 1502.02 1156.21 1541.09 1218.58 1565.22C1293.45 1594.18 1372.67 1600.6 1447.02 1603.73C1597.89 1610.45 1736.74 1603.1 1871.84 1572.18C1912.16 1562.96 1952.08 1551.68 1991.76 1537.91" stroke="#83848C" stroke-opacity="0.2" stroke-width="0.692997" stroke-miterlimit="10"/>
<path d="M-396.99 116.48C-447.701 221.654 -404.574 332.841 -345.273 519.948C-340.798 534.069 -336.839 548.317 -332.226 562.338C-316.651 609.141 -297.712 655.839 -266.416 692.242C-175.238 798.968 -31.849 805.404 97.1572 820.31C200.645 832.266 310.839 835.999 430.883 843.961C470.227 846.568 509.675 848.937 549.167 852.148C634.802 859.107 728.397 872.901 789.384 927.055C851.112 981.895 863.621 1056.79 881.53 1124.88C902.495 1204.23 933.947 1286.37 988.522 1362.55C1007.56 1389.09 1029.7 1414.83 1054.5 1438.64C1100.68 1483.14 1156.18 1521.35 1217.8 1545.52C1291.75 1574.51 1369.67 1582.3 1442.65 1587.26C1590.79 1597.73 1726.13 1595.86 1858.88 1570.69C1898.49 1563.18 1937.81 1553.65 1977.01 1541.6" stroke="#83848C" stroke-opacity="0.2" stroke-width="0.692997" stroke-miterlimit="10"/>
<path d="M-404.782 121.832C-453.08 221.997 -403.607 326.33 -341.459 515.171C-336.875 529.097 -332.854 543.16 -328.202 556.993C-312.427 603.265 -293.589 649.364 -263.016 685.592C-173.832 791.965 -35.2925 802.602 92.6859 819.747C193.963 833.312 302.696 838.316 422.219 847.209C461.122 850.102 500.14 852.68 539.2 856.05C623.898 863.358 716.22 877.014 777.477 929.075C839.491 981.787 854.627 1053.57 874.913 1118.92C898.642 1195.09 932.336 1274 987.984 1347.51C1007.4 1373.12 1029.76 1398 1054.65 1421.08C1100.97 1464.21 1156.12 1501.57 1216.99 1525.77C1290.02 1554.8 1366.65 1563.96 1438.26 1570.74C1583.68 1584.96 1715.51 1588.57 1845.89 1569.15C1884.8 1563.37 1923.5 1555.58 1962.23 1545.25" stroke="#83848C" stroke-opacity="0.2" stroke-width="0.692997" stroke-miterlimit="10"/>
<path d="M-412.568 127.177C-458.446 222.336 -402.68 319.823 -337.637 510.387C-332.951 524.113 -328.895 538.012 -324.165 551.644C-308.283 597.406 -289.456 642.875 -259.6 678.931C-172.412 784.957 -38.7264 799.769 88.2245 819.17C187.298 834.314 294.57 840.605 413.569 850.453C452.03 853.632 490.607 856.422 529.249 859.957C613.014 867.608 704.05 881.137 765.594 931.103C827.89 981.695 845.668 1050.35 868.31 1112.97C894.806 1185.96 930.738 1261.64 987.469 1332.48C1007.27 1357.15 1029.85 1381.19 1054.83 1403.54C1101.29 1445.3 1156.1 1481.8 1216.19 1506.04C1288.3 1535.11 1363.65 1545.63 1433.88 1554.24C1576.58 1572.21 1704.89 1581.29 1832.91 1567.63C1871.12 1563.55 1909.21 1557.51 1947.48 1548.9" stroke="#83848C" stroke-opacity="0.2" stroke-width="0.692997" stroke-miterlimit="10"/>
<path d="M-420.366 132.525C-463.83 222.675 -401.813 313.33 -333.821 505.609C-329.037 519.143 -324.915 532.851 -320.14 546.299C-304.066 591.526 -285.332 636.4 -256.192 672.283C-170.992 777.96 -42.1742 796.906 83.7576 818.616C180.615 835.309 286.438 842.918 404.91 853.71C442.922 857.172 481.076 860.173 519.286 863.868C602.114 871.868 691.874 885.266 753.698 933.135C816.277 981.606 836.696 1047.14 861.701 1107.02C890.957 1176.83 929.135 1249.29 986.945 1317.46C1007.13 1341.21 1029.93 1364.38 1055 1386.01C1101.6 1426.4 1156.06 1462.05 1215.4 1486.33C1286.58 1515.44 1360.64 1527.32 1429.51 1537.77C1569.48 1559.48 1694.28 1574.04 1819.94 1566.13C1857.44 1563.78 1894.93 1559.48 1932.72 1552.59" stroke="#83848C" stroke-opacity="0.2" stroke-width="0.692997" stroke-miterlimit="10"/>
<path d="M-428.159 137.878C-469.209 223.018 -400.987 306.853 -330.007 500.833C-325.124 514.175 -320.933 527.701 -316.11 540.957C-299.842 585.651 -281.21 629.926 -252.783 665.63C-169.576 770.953 -45.6237 794.011 79.2962 818.05C173.945 836.263 278.301 845.205 396.259 856.965C433.83 860.712 471.553 863.923 509.331 867.776C591.226 876.119 679.7 889.389 741.811 935.164C804.676 981.508 827.732 1043.92 855.102 1101.08C887.124 1167.7 927.547 1236.94 986.434 1302.43C1007 1325.25 1030.03 1347.56 1055.18 1368.47C1101.92 1407.49 1156.03 1442.29 1214.61 1466.6C1284.88 1495.74 1357.65 1509 1425.15 1521.27C1562.4 1546.73 1683.68 1566.76 1806.98 1564.61C1843.78 1563.97 1880.66 1561.42 1917.98 1556.24" stroke="#83848C" stroke-opacity="0.2" stroke-width="0.692997" stroke-miterlimit="10"/>
<path d="M-435.951 143.219C-474.588 223.35 -400.21 300.382 -326.195 496.052C-321.22 509.198 -316.961 522.543 -312.089 535.608C-295.629 579.767 -277.09 623.447 -249.38 658.979C-168.167 763.949 -49.0841 791.075 74.8253 817.493C167.26 837.198 270.164 847.498 387.603 860.222C424.735 864.249 462.024 867.675 499.371 871.687C580.329 880.379 667.527 893.518 729.918 937.195C793.066 981.418 818.76 1040.71 848.495 1095.13C883.278 1158.57 925.947 1224.59 985.906 1287.41C1006.85 1309.3 1030.1 1330.75 1055.35 1350.93C1102.23 1388.59 1156 1422.52 1213.81 1446.87C1283.15 1476.05 1354.63 1490.67 1420.77 1504.77C1555.29 1533.98 1673.06 1559.49 1793.99 1563.09C1830.09 1564.18 1866.35 1563.37 1903.21 1559.91" stroke="#83848C" stroke-opacity="0.2" stroke-width="0.692997" stroke-miterlimit="10"/>
<path d="M-443.743 148.571C-479.961 223.695 -399.483 293.939 -322.374 491.277C-317.31 504.235 -312.973 517.395 -308.052 530.269C-291.389 573.89 -272.885 616.921 -245.964 652.328C-166.53 756.79 -52.5227 788.102 70.3704 816.929C160.601 838.09 262.04 849.774 378.953 863.476C415.639 867.779 452.502 871.424 489.416 875.595C569.441 884.629 655.353 897.64 718.031 939.224C781.468 981.329 809.796 1037.49 841.888 1089.18C879.438 1149.44 924.345 1212.23 985.387 1272.38C1006.71 1293.34 1030.19 1313.93 1055.52 1333.39C1102.54 1369.67 1155.96 1402.76 1213.01 1427.14C1281.44 1456.36 1351.63 1472.35 1416.39 1488.28C1548.18 1521.24 1662.45 1552.22 1781.02 1561.57C1816.41 1564.38 1852.07 1565.32 1888.46 1563.57" stroke="#83848C" stroke-opacity="0.2" stroke-width="0.692997" stroke-miterlimit="10"/>
<path d="M-451.536 153.912C-485.34 224.027 -398.799 287.506 -318.559 486.489C-313.407 499.259 -308.987 512.227 -304.029 524.913C-287.172 568 -268.769 610.432 -242.561 645.66C-165.125 749.775 -55.9686 785.082 65.8954 816.345C153.92 838.928 253.899 852.023 370.292 866.707C406.536 871.278 442.969 875.149 479.458 879.482C558.546 888.865 643.183 901.746 706.144 941.225C769.867 981.203 800.826 1034.24 835.288 1083.21C875.604 1140.28 922.75 1199.85 984.872 1257.33C1006.57 1277.36 1030.28 1297.1 1055.7 1315.82C1102.85 1350.74 1155.93 1382.97 1212.23 1407.39C1279.72 1436.66 1348.63 1453.99 1412.03 1471.76C1541.09 1508.46 1651.85 1544.92 1768.05 1560.03C1802.74 1564.55 1837.78 1567.23 1873.7 1567.2" stroke="#83848C" stroke-opacity="0.2" stroke-width="0.692997" stroke-miterlimit="10"/>
<path d="M-459.327 159.263C-490.721 224.375 -398.171 281.098 -314.737 481.714C-309.503 494.292 -305.004 507.075 -299.991 519.573C-282.931 562.122 -264.632 603.963 -239.14 639.019C-163.691 742.784 -59.3877 782.035 61.4423 815.797C147.267 839.773 245.783 854.301 361.643 869.977C397.445 874.817 433.445 878.92 469.506 883.405C547.66 893.131 631.014 905.877 694.258 943.269C758.264 981.127 791.864 1031.04 828.69 1077.27C871.763 1131.17 921.154 1187.52 984.358 1242.33C1006.44 1261.43 1030.37 1280.3 1055.88 1298.31C1103.17 1331.86 1155.91 1363.23 1211.44 1387.69C1278.01 1416.99 1345.63 1435.7 1407.66 1455.29C1533.99 1495.75 1641.23 1537.69 1755.08 1558.54C1789.06 1564.77 1823.5 1569.2 1858.95 1570.89" stroke="#83848C" stroke-opacity="0.2" stroke-width="0.692997" stroke-miterlimit="10"/>
<path d="M-467.126 164.611C-496.106 224.714 -397.6 274.721 -310.932 476.94C-305.619 489.333 -301.029 501.92 -295.977 514.231C-278.724 556.246 -260.526 597.488 -235.747 632.365C-162.294 735.783 -62.8257 778.938 56.9645 815.231C140.603 840.571 237.641 856.544 352.98 873.224C388.34 878.334 423.909 882.662 459.535 887.313C536.752 897.388 618.831 910.003 682.355 945.298C746.644 981.034 782.881 1027.83 822.074 1071.33C867.913 1122.04 919.544 1175.16 983.824 1227.3C1006.28 1245.47 1030.44 1263.48 1056.04 1280.76C1103.47 1312.94 1155.86 1343.46 1210.62 1367.95C1276.28 1397.28 1342.61 1417.36 1403.26 1438.78C1526.88 1482.99 1630.6 1530.4 1742.09 1557.01C1775.36 1564.96 1809.19 1571.14 1844.18 1574.55" stroke="#83848C" stroke-opacity="0.2" stroke-width="0.692997" stroke-miterlimit="10"/>
<path d="M-474.913 169.957C-501.473 225.054 -397.076 268.362 -307.112 472.157C-301.72 484.364 -297.041 496.763 -291.941 508.883C-274.485 550.36 -256.391 591.01 -232.335 625.711C-160.872 728.786 -66.2298 775.792 52.5021 814.671C133.959 841.347 229.516 858.794 344.329 876.485C379.246 881.864 414.379 886.415 449.58 891.228C525.864 901.645 606.663 914.136 670.461 947.33C735.035 980.939 773.91 1024.62 815.466 1065.38C864.073 1112.92 917.948 1162.82 983.301 1212.28C1006.14 1229.52 1030.52 1246.67 1056.2 1263.23C1103.78 1294.04 1155.82 1323.7 1209.83 1348.23C1274.55 1377.61 1339.6 1399.05 1398.89 1422.3C1519.77 1470.25 1619.99 1523.14 1729.11 1555.51C1761.68 1565.18 1794.9 1573.1 1829.41 1578.23" stroke="#83848C" stroke-opacity="0.2" stroke-width="0.692997" stroke-miterlimit="10"/>
<path d="M-482.704 175.309C-506.851 225.396 -396.604 262.038 -303.29 467.383C-297.829 479.408 -293.059 491.612 -287.91 503.54C-270.251 544.48 -252.337 584.576 -228.918 619.061C-159.657 721.923 -69.6063 772.601 48.0482 814.107C127.34 842.084 221.395 861.03 335.682 879.733C370.161 885.374 404.861 890.157 439.629 895.129C514.976 905.895 594.494 918.252 658.578 949.352C723.435 980.841 764.951 1021.39 808.863 1059.42C860.23 1103.77 916.351 1150.45 982.787 1197.24C1006 1213.55 1030.61 1229.85 1056.38 1245.68C1104.1 1275.12 1155.78 1303.93 1209.04 1328.49C1272.85 1357.91 1336.61 1380.72 1394.52 1405.8C1512.69 1457.5 1609.39 1515.87 1716.15 1553.98C1748.01 1565.36 1780.62 1575.04 1814.67 1581.87" stroke="#83848C" stroke-opacity="0.2" stroke-width="0.692997" stroke-miterlimit="10"/>
<path d="M-490.501 180.65C-512.235 225.728 -396.193 255.734 -299.479 462.595C-293.94 474.436 -289.078 486.444 -283.884 498.188C-266.022 538.589 -248.212 578.094 -225.517 612.403C-158.252 714.919 -72.9759 769.356 43.5723 813.534C120.715 842.778 213.258 863.242 327.017 882.98C361.057 888.884 395.324 893.899 429.667 899.032C504.081 910.142 582.319 922.374 646.683 951.377C711.823 980.745 755.98 1018.17 802.256 1053.47C856.389 1094.64 914.749 1138.09 982.264 1182.22C1005.86 1197.6 1030.69 1213.04 1056.55 1228.14C1104.4 1256.22 1155.75 1284.18 1208.24 1308.76C1271.13 1338.22 1333.59 1362.39 1390.14 1389.3C1505.58 1444.75 1598.77 1508.59 1703.16 1552.46C1734.33 1565.57 1766.33 1576.99 1799.9 1585.54" stroke="#83848C" stroke-opacity="0.2" stroke-width="0.692997" stroke-miterlimit="10"/>
<path d="M-498.289 186.002C-517.609 226.07 -395.826 249.482 -295.663 457.824C-290.056 469.484 -285.095 481.299 -279.859 492.849C-261.794 532.713 -244.095 571.623 -222.106 605.756C-156.834 707.918 -76.3042 766.071 39.1091 812.98C114.122 843.469 205.134 865.475 318.369 886.241C351.969 892.407 385.799 897.661 419.714 902.947C493.191 914.405 570.147 926.504 634.798 953.412C700.223 980.652 747.008 1014.96 795.657 1047.53C852.558 1085.52 913.156 1125.75 981.747 1167.19C1005.73 1181.65 1030.78 1196.23 1056.73 1210.59C1104.72 1237.31 1155.72 1264.41 1207.45 1289.04C1269.41 1318.53 1330.59 1344.06 1385.77 1372.81C1498.48 1432.01 1588.16 1501.33 1690.19 1550.94C1720.65 1565.77 1752.04 1578.93 1785.15 1589.21" stroke="#83848C" stroke-opacity="0.2" stroke-width="0.692997" stroke-miterlimit="10"/>
<path d="M-506.087 191.35C-522.994 226.41 -395.531 243.255 -291.847 453.047C-286.174 464.531 -281.088 476.135 -275.827 487.507C-257.486 526.801 -239.964 565.151 -218.695 599.102C-155.41 700.914 -79.6072 762.725 34.6491 812.413C107.544 844.119 197.023 867.674 309.713 889.492C342.871 895.91 376.272 901.407 409.755 906.851C482.298 918.652 557.975 930.626 622.906 955.438C688.614 980.557 738.04 1011.74 789.052 1041.58C848.709 1076.39 911.557 1113.39 981.227 1152.17C1005.59 1165.69 1030.86 1179.42 1056.9 1193.06C1105.03 1218.4 1155.68 1244.65 1206.65 1269.31C1267.69 1298.84 1327.59 1325.74 1381.4 1356.31C1491.38 1419.26 1577.55 1494.05 1677.22 1549.43C1706.98 1565.97 1737.76 1580.87 1770.39 1592.87" stroke="#83848C" stroke-opacity="0.2" stroke-width="0.692997" stroke-miterlimit="10"/>
<path d="M-513.876 196.695C-528.363 226.748 -395.28 237.065 -288.03 448.263C-282.288 459.566 -277.107 470.967 -271.804 482.162C-253.267 520.915 -235.845 558.666 -215.296 592.451C-154.005 693.91 -82.8731 759.332 30.1742 811.857C100.982 844.752 188.897 869.883 301.053 892.749C333.775 899.424 366.739 905.159 399.787 910.769C471.394 922.919 545.791 934.752 611.006 957.476C676.997 980.475 729.063 1008.53 782.439 1035.64C844.863 1067.27 909.949 1101.05 980.699 1137.15C1005.44 1149.76 1030.94 1162.62 1057.06 1175.53C1105.33 1199.51 1155.64 1224.9 1205.85 1249.61C1265.97 1279.17 1324.57 1307.44 1377.01 1339.84C1484.27 1406.53 1566.92 1486.8 1664.24 1547.93C1693.29 1566.19 1723.46 1582.84 1755.63 1596.55" stroke="#83848C" stroke-opacity="0.2" stroke-width="0.692997" stroke-miterlimit="10"/>
<path d="M-521.672 202.044C-533.745 227.088 -395.089 230.92 -284.218 443.482C-278.411 454.611 -273.128 465.813 -267.777 476.817C-249.04 515.038 -231.719 552.191 -211.883 585.797C-152.586 686.903 -86.0861 755.888 25.7163 811.29C94.4623 845.355 180.794 872.069 292.399 896C324.689 902.924 357.213 908.905 389.836 914.677C460.51 927.17 533.628 938.879 599.125 959.499C665.399 980.376 720.106 1005.31 775.839 1029.68C841.023 1058.13 908.354 1088.68 980.187 1122.12C1005.3 1133.79 1031.03 1145.79 1057.24 1157.98C1105.65 1180.6 1155.61 1205.13 1205.06 1229.86C1264.25 1259.47 1321.57 1289.1 1372.64 1323.34C1477.17 1393.78 1556.31 1479.53 1651.26 1546.4C1679.61 1566.37 1709.18 1584.78 1740.87 1600.2" stroke="#83848C" stroke-opacity="0.2" stroke-width="0.692997" stroke-miterlimit="10"/>
<path d="M-529.462 207.388C-539.122 227.422 -394.961 224.812 -280.395 438.7C-274.528 449.651 -269.137 460.657 -263.744 471.467C-244.811 509.147 -227.594 545.709 -208.474 579.142C-151.174 679.901 -89.2545 752.391 21.2473 810.719C87.958 845.933 172.676 874.241 283.744 899.244C315.594 906.413 347.686 912.643 379.878 918.574C449.614 931.415 521.449 942.99 587.234 961.516C653.794 980.266 711.136 1002.09 769.234 1023.73C837.185 1048.99 906.762 1076.32 979.668 1107.08C1005.16 1117.82 1031.11 1128.97 1057.42 1140.44C1105.97 1161.69 1155.58 1185.37 1204.27 1210.14C1262.55 1239.79 1318.57 1270.78 1368.27 1306.84C1470.08 1381.03 1545.7 1472.25 1638.29 1544.88C1665.94 1566.58 1694.89 1586.72 1726.12 1603.87" stroke="#83848C" stroke-opacity="0.2" stroke-width="0.692997" stroke-miterlimit="10"/>
<path d="M-537.259 212.737C-544.506 227.762 -394.889 218.759 -276.587 433.927C-270.659 444.709 -265.166 455.5 -259.721 466.128C-240.588 503.278 -223.472 539.24 -205.073 572.492C-149.759 672.901 -92.3742 748.852 16.775 810.162C81.4767 846.504 164.562 876.413 275.083 902.508C306.501 909.926 338.143 916.405 369.912 922.492C438.715 935.676 509.272 947.126 575.33 963.552C642.172 980.181 702.155 998.875 762.617 1017.78C833.335 1039.86 905.15 1063.97 979.132 1092.06C1005 1101.87 1031.19 1112.16 1057.58 1122.9C1106.27 1142.77 1155.54 1165.6 1203.46 1190.41C1260.82 1220.1 1315.55 1252.45 1363.89 1290.35C1462.98 1368.28 1535.08 1464.98 1625.32 1543.37C1652.26 1566.77 1680.6 1588.67 1711.36 1607.53" stroke="#83848C" stroke-opacity="0.2" stroke-width="0.692997" stroke-miterlimit="10"/>
<path d="M-545.047 218.089C-549.874 228.108 -394.871 212.755 -272.769 429.15C-266.785 439.761 -261.18 450.349 -255.694 460.783C-236.365 497.392 -219.349 532.756 -201.663 565.845C-148.342 665.901 -95.43 745.268 12.314 809.603C75.0398 847.056 156.472 878.572 266.43 905.76C297.411 913.416 328.618 920.151 359.955 926.397C427.821 939.93 497.095 951.246 563.44 965.578C630.565 980.087 693.188 995.654 756.014 1011.83C829.492 1030.73 903.553 1051.62 978.614 1077.04C1004.87 1085.92 1031.27 1095.34 1057.75 1105.36C1106.58 1123.87 1155.5 1145.84 1202.66 1170.68C1259.1 1200.4 1312.55 1234.13 1359.51 1273.85C1455.87 1355.53 1524.47 1457.71 1612.33 1541.85C1638.57 1566.98 1666.31 1590.62 1696.6 1611.19" stroke="#83848C" stroke-opacity="0.2" stroke-width="0.692997" stroke-miterlimit="10"/>
<path d="M-552.839 223.434C-555.252 228.443 -394.922 206.794 -268.947 424.368C-262.9 434.811 -257.194 445.184 -251.656 455.437C-232.133 491.511 -215.212 526.28 -198.245 559.187C-146.919 658.889 -98.4091 741.632 7.8572 809.039C68.6437 847.595 148.419 880.586 257.784 909.016C288.345 916.878 319.1 923.903 350.005 930.307C416.938 944.183 484.933 955.375 551.558 967.609C618.968 979.99 684.223 992.435 749.418 1005.89C825.663 1021.6 901.963 1039.26 978.107 1062.01C1004.74 1069.96 1031.37 1078.53 1057.94 1087.82C1106.9 1104.96 1155.48 1126.08 1201.88 1150.96C1257.39 1180.72 1309.56 1215.8 1355.15 1257.36C1448.78 1342.79 1513.87 1450.44 1599.37 1540.33C1624.9 1567.17 1652.03 1592.56 1681.85 1614.85" stroke="#83848C" stroke-opacity="0.2" stroke-width="0.692997" stroke-miterlimit="10"/>
<path d="M-560.636 228.782C-560.636 228.782 -395.034 200.885 -265.137 419.587C-135.24 638.29 -135.119 808.422 249.123 912.263C514.645 984.017 795.983 986.089 1058.09 1070.28C1165.93 1104.92 1269.56 1161.21 1350.76 1240.86C1441.67 1330.04 1503.24 1443.17 1586.39 1538.81C1611.22 1567.38 1637.73 1594.51 1667.08 1618.52" stroke="#83848C" stroke-opacity="0.2" stroke-width="0.692997" stroke-miterlimit="10"/>
</g>
</svg>
