<svg width="79" height="79" viewBox="0 0 79 79" fill="none" xmlns="http://www.w3.org/2000/svg">
<rect opacity="0.1" width="79" height="79" rx="15" fill="#0572D7"/>
<path d="M56.5242 50.6423C56.0247 49.3938 54.6513 48.7071 53.3403 49.2065L44.7252 52.2655C44.6628 52.0782 44.6628 51.8909 44.5379 51.7036C43.9136 49.8932 42.1656 48.5822 40.2303 48.5198L36.7343 48.3949C35.9228 48.3949 35.0488 48.4573 34.2996 48.6446L28.1192 49.7059V48.9568C28.1192 48.6446 27.8695 48.3325 27.4949 48.3325H23.6868C23.3122 48.3325 23.0625 48.6446 23.0625 48.9568V59.632C23.0625 59.9442 23.3122 60.2563 23.6868 60.2563H27.4949C27.8695 60.2563 28.1192 59.9442 28.1192 59.632V58.5708C29.1181 58.3835 30.1169 58.3835 31.1158 58.6332L39.169 60.6933C39.5436 60.8182 39.9806 60.8182 40.3552 60.8182C41.1043 60.8182 41.9159 60.6309 42.6026 60.2563L55.338 53.514C56.3993 53.077 56.8987 51.766 56.5242 50.6423ZM26.8706 59.1326H24.3111V49.6435H26.8706V59.1326ZM56.5242 38.3439C56.4617 38.0318 56.1496 37.8445 55.8374 37.8445C55.2756 37.9069 54.9635 37.7821 54.901 37.7196C54.8386 37.5948 54.9635 37.2826 55.4005 36.9705C55.6502 36.7832 55.7126 36.4086 55.5253 36.1589C54.9635 35.3474 54.2767 34.5982 53.4652 34.0988C53.4027 34.0988 53.4027 34.0364 53.3403 34.0364C53.0906 33.9115 52.7785 34.0364 52.5912 34.2236C52.279 34.7231 51.9045 34.7855 51.842 34.7855C51.7796 34.7231 51.5923 34.4109 51.6547 33.8491C51.7172 33.5994 51.5299 33.2872 51.2802 33.1624C51.2177 33.1624 51.2177 33.1624 51.1553 33.0999C50.1565 32.9127 49.22 32.9127 48.2212 33.0999C47.909 33.1624 47.6593 33.4745 47.7217 33.7867C47.7842 34.3485 47.6593 34.6606 47.5969 34.7231C47.5345 34.7855 47.2223 34.6606 46.8477 34.2236C46.7229 33.9739 46.4107 33.9115 46.0986 34.0988C45.287 34.5982 44.5379 35.3474 44.0385 36.1589C43.8512 36.4711 43.9136 36.7832 44.2258 36.9705C44.6628 37.2826 44.7876 37.6572 44.7876 37.7196C44.7252 37.8445 44.413 37.9694 43.9136 37.9069C43.6015 37.8445 43.2893 38.0942 43.2269 38.4064C43.0396 39.4052 43.0396 40.4041 43.2269 41.3405C43.2893 41.6526 43.6015 41.8399 43.9136 41.8399C44.4755 41.7775 44.7876 41.9024 44.85 41.9648C44.9125 42.0896 44.7876 42.4018 44.2882 42.7139C44.0385 42.9012 43.976 43.2758 44.1633 43.5255C44.7252 44.3371 45.4119 45.0238 46.2235 45.5856C46.2859 45.5856 46.2859 45.6481 46.3483 45.6481C46.598 45.7729 46.9102 45.6481 47.0975 45.4608C47.4096 45.0238 47.7217 44.8989 47.8466 44.8989C47.909 44.8989 48.0963 45.2111 47.9715 45.7729C47.909 46.0851 48.0963 46.3348 48.346 46.4596C48.4085 46.4596 48.4085 46.4596 48.4709 46.5221C48.9703 46.6469 49.4073 46.6469 49.8443 46.6469C50.3437 46.6469 50.8432 46.5845 51.3426 46.4596C51.6547 46.3972 51.842 46.0851 51.842 45.7729C51.7796 45.2111 51.9045 44.8989 51.9669 44.8365C52.0293 44.7741 52.4039 44.8989 52.716 45.3359C52.9033 45.5856 53.2779 45.6481 53.5276 45.4608C54.3392 44.9613 55.0883 44.2122 55.5877 43.4006C55.775 43.1509 55.7126 42.7763 55.4005 42.5891C54.9635 42.2769 54.8386 41.9024 54.901 41.8399C54.901 41.7775 55.2756 41.5902 55.8374 41.6526C56.1496 41.7151 56.4617 41.4654 56.5242 41.1532C56.7739 40.2792 56.7739 39.2804 56.5242 38.3439ZM55.4005 40.4665C54.5889 40.5289 54.027 40.8411 53.7773 41.4029C53.5276 41.9648 53.7149 42.6515 54.2767 43.2133C54.027 43.5879 53.6525 43.9001 53.3403 44.2122C52.7785 43.6503 52.0917 43.4631 51.5299 43.7128C50.968 43.9625 50.5935 44.5868 50.5935 45.3359C50.1565 45.3983 49.657 45.3983 49.22 45.3359C49.1576 44.5868 48.8455 43.9625 48.2836 43.7128C47.7217 43.4631 47.035 43.6503 46.4732 44.2122C46.0986 43.9625 45.7865 43.5879 45.5368 43.2758C46.0986 42.7139 46.2235 42.0272 46.0362 41.4654C45.7865 40.9035 45.1622 40.5289 44.413 40.5289C44.3506 40.0919 44.3506 39.5925 44.413 39.1555C45.2246 39.0931 45.7865 38.7809 46.0362 38.2191C46.2859 37.6572 46.0362 36.9705 45.5368 36.4086C45.7865 36.0341 46.161 35.7219 46.4732 35.4098C47.035 35.9716 47.7217 36.1589 48.2836 35.9092C48.8455 35.6595 49.22 35.0352 49.22 34.2861C49.657 34.2236 50.094 34.2236 50.5935 34.2861C50.6559 35.0976 50.968 35.6595 51.5299 35.9092C52.0917 36.1589 52.7785 35.9716 53.3403 35.4098C53.7149 35.7219 54.027 36.0341 54.2767 36.3462C53.7773 36.9081 53.59 37.5948 53.7773 38.1566C54.027 38.7185 54.6513 39.0306 55.4005 39.0931C55.4629 39.5925 55.4629 40.0295 55.4005 40.4665Z" fill="#0572D7"/>
<path d="M53.0905 39.842C53.0905 41.6525 51.6547 43.0883 49.8442 43.1508C48.0338 43.1508 46.598 41.7149 46.598 39.9045C46.598 38.094 48.0338 36.6582 49.8442 36.5958C50.7182 36.5958 51.5298 36.9703 52.1541 37.5322C52.716 38.0941 53.0905 38.9056 53.0905 39.842ZM29.8671 32.9749C26.059 32.9749 23 36.0339 23 39.842C23 43.6502 26.059 46.7092 29.8671 46.7092C33.6753 46.7092 36.7343 43.6502 36.7343 39.842C36.7343 36.0339 33.6753 32.9749 29.8671 32.9749ZM29.8671 39.2802C31.1157 39.2802 32.1146 40.279 32.1146 41.5276C32.1146 42.5265 31.4278 43.4005 30.4914 43.7126V43.775C30.4914 44.1496 30.2417 44.3993 29.8671 44.3993C29.4926 44.3993 29.2428 44.1496 29.2428 43.775V43.7126C28.3064 43.4629 27.6197 42.5889 27.6197 41.5276C27.6197 41.153 27.8694 40.9033 28.244 40.9033C28.6186 40.9033 28.8683 41.153 28.8683 41.5276C28.8683 42.0895 29.3053 42.5265 29.8671 42.5265C30.429 42.5265 30.866 42.0895 30.866 41.5276C30.866 40.9658 30.429 40.5288 29.8671 40.5288C28.6186 40.5288 27.6197 39.5299 27.6197 38.2813C27.6197 37.2825 28.3064 36.4085 29.2428 36.0963V35.9715C29.2428 35.5969 29.4926 35.3472 29.8671 35.3472C30.2417 35.3472 30.4914 35.5969 30.4914 35.9715V36.0963C31.4278 36.3461 32.1146 37.2201 32.1146 38.2813C32.1146 38.6559 31.8648 38.9056 31.4903 38.9056C31.1157 38.9056 30.866 38.6559 30.866 38.2813C30.866 37.7195 30.429 37.2825 29.8671 37.2825C29.3053 37.2825 28.8683 37.7195 28.8683 38.2813C28.8683 38.8432 29.3053 39.2802 29.8671 39.2802ZM46.0985 24.9841C45.3494 23.2985 43.976 22.0499 42.228 21.4256C40.48 20.8014 38.6695 20.8638 36.984 21.6129C33.5504 23.1736 32.0521 27.2939 33.6128 30.7275C34.799 33.2246 37.2337 34.7229 39.8557 34.7229C40.7921 34.7229 41.791 34.5356 42.7274 34.0986C44.413 33.3495 45.6615 31.9761 46.2858 30.2281C46.9101 28.4801 46.8477 26.6696 46.0985 24.9841ZM39.9181 29.6038C38.9193 29.6038 37.9828 28.2304 37.9828 27.1066C37.9828 26.0454 38.8568 25.1714 39.9181 25.1714C40.9794 25.1714 41.8534 26.0454 41.8534 27.1066C41.791 28.1679 40.917 29.6038 39.9181 29.6038ZM45.0997 29.7911C44.7875 30.7275 44.2257 31.5391 43.4765 32.1009L42.1031 31.3518C41.8534 31.2269 41.7285 30.9772 41.7285 30.7275V30.0408C42.5401 29.2916 43.0395 28.1055 43.0395 27.0442C43.0395 25.2962 41.6037 23.8604 39.8557 23.8604C38.1701 23.9228 36.7343 25.3586 36.7343 27.1066C36.7343 28.1679 37.2337 29.2916 38.0453 30.0408V30.7275C38.0453 30.9772 37.9204 31.2269 37.6707 31.3518L36.2348 32.1009C35.673 31.6015 35.1736 30.9772 34.799 30.2281C33.488 27.4188 34.7366 24.0476 37.5458 22.7991C38.2325 22.4245 39.0441 22.2372 39.8557 22.2372C40.5424 22.2372 41.1667 22.3621 41.791 22.6118C43.2268 23.1112 44.3505 24.1725 44.9748 25.5459C45.5991 26.8569 45.6615 28.4176 45.0997 29.7911Z" fill="#0572D7"/>
<path d="M56.5242 50.6422C56.0247 49.3936 54.6513 48.7069 53.3403 49.2064L44.7252 52.2654C44.6628 52.0781 44.6628 51.8908 44.5379 51.7035C43.9136 49.8931 42.1656 48.5821 40.2303 48.5196L36.7343 48.3948C35.9228 48.3948 35.0488 48.4572 34.2996 48.6445L28.1192 49.7058V48.9566C28.1192 48.6445 27.8695 48.3324 27.4949 48.3324H23.6868C23.3122 48.3324 23.0625 48.6445 23.0625 48.9566V59.6319C23.0625 59.9441 23.3122 60.2562 23.6868 60.2562H27.4949C27.8695 60.2562 28.1192 59.9441 28.1192 59.6319V58.5706C29.1181 58.3833 30.1169 58.3833 31.1158 58.6331L39.169 60.6932C39.5436 60.8181 39.9806 60.8181 40.3552 60.8181C41.1043 60.8181 41.9159 60.6308 42.6026 60.2562L55.338 53.5139C56.3993 53.0769 56.8987 51.7659 56.5242 50.6422ZM26.8706 59.1325H24.3111V49.6434H26.8706V59.1325ZM56.5242 38.3438C56.4617 38.0317 56.1496 37.8444 55.8374 37.8444C55.2756 37.9068 54.9635 37.7819 54.901 37.7195C54.8386 37.5947 54.9635 37.2825 55.4005 36.9704C55.6502 36.7831 55.7126 36.4085 55.5253 36.1588C54.9635 35.3472 54.2767 34.5981 53.4652 34.0987C53.4027 34.0987 53.4027 34.0362 53.3403 34.0362C53.0906 33.9114 52.7785 34.0362 52.5912 34.2235C52.279 34.723 51.9045 34.7854 51.842 34.7854C51.7796 34.723 51.5923 34.4108 51.6547 33.849C51.7172 33.5992 51.5299 33.2871 51.2802 33.1622C51.2177 33.1622 51.2177 33.1622 51.1553 33.0998C50.1565 32.9125 49.22 32.9125 48.2212 33.0998C47.909 33.1622 47.6593 33.4744 47.7217 33.7865C47.7842 34.3484 47.6593 34.6605 47.5969 34.723C47.5345 34.7854 47.2223 34.6605 46.8477 34.2235C46.7229 33.9738 46.4107 33.9114 46.0986 34.0987C45.287 34.5981 44.5379 35.3472 44.0385 36.1588C43.8512 36.471 43.9136 36.7831 44.2258 36.9704C44.6628 37.2825 44.7876 37.6571 44.7876 37.7195C44.7252 37.8444 44.413 37.9692 43.9136 37.9068C43.6015 37.8444 43.2893 38.0941 43.2269 38.4062C43.0396 39.4051 43.0396 40.4039 43.2269 41.3404C43.2893 41.6525 43.6015 41.8398 43.9136 41.8398C44.4755 41.7774 44.7876 41.9022 44.85 41.9647C44.9125 42.0895 44.7876 42.4017 44.2882 42.7138C44.0385 42.9011 43.976 43.2757 44.1633 43.5254C44.7252 44.3369 45.4119 45.0237 46.2235 45.5855C46.2859 45.5855 46.2859 45.6479 46.3483 45.6479C46.598 45.7728 46.9102 45.6479 47.0975 45.4607C47.4096 45.0237 47.7217 44.8988 47.8466 44.8988C47.909 44.8988 48.0963 45.2109 47.9715 45.7728C47.909 46.0849 48.0963 46.3347 48.346 46.4595C48.4085 46.4595 48.4085 46.4595 48.4709 46.5219C48.9703 46.6468 49.4073 46.6468 49.8443 46.6468C50.3437 46.6468 50.8432 46.5844 51.3426 46.4595C51.6547 46.3971 51.842 46.0849 51.842 45.7728C51.7796 45.2109 51.9045 44.8988 51.9669 44.8364C52.0293 44.7739 52.4039 44.8988 52.716 45.3358C52.9033 45.5855 53.2779 45.6479 53.5276 45.4607C54.3392 44.9612 55.0883 44.2121 55.5877 43.4005C55.775 43.1508 55.7126 42.7762 55.4005 42.5889C54.9635 42.2768 54.8386 41.9022 54.901 41.8398C54.901 41.7774 55.2756 41.5901 55.8374 41.6525C56.1496 41.7149 56.4617 41.4652 56.5242 41.1531C56.7739 40.2791 56.7739 39.2802 56.5242 38.3438ZM55.4005 40.4664C54.5889 40.5288 54.027 40.8409 53.7773 41.4028C53.5276 41.9647 53.7149 42.6514 54.2767 43.2132C54.027 43.5878 53.6525 43.8999 53.3403 44.2121C52.7785 43.6502 52.0917 43.4629 51.5299 43.7127C50.968 43.9624 50.5935 44.5867 50.5935 45.3358C50.1565 45.3982 49.657 45.3982 49.22 45.3358C49.1576 44.5867 48.8455 43.9624 48.2836 43.7127C47.7217 43.4629 47.035 43.6502 46.4732 44.2121C46.0986 43.9624 45.7865 43.5878 45.5368 43.2757C46.0986 42.7138 46.2235 42.0271 46.0362 41.4652C45.7865 40.9034 45.1622 40.5288 44.413 40.5288C44.3506 40.0918 44.3506 39.5924 44.413 39.1554C45.2246 39.0929 45.7865 38.7808 46.0362 38.2189C46.2859 37.6571 46.0362 36.9704 45.5368 36.4085C45.7865 36.034 46.161 35.7218 46.4732 35.4097C47.035 35.9715 47.7217 36.1588 48.2836 35.9091C48.8455 35.6594 49.22 35.0351 49.22 34.286C49.657 34.2235 50.094 34.2235 50.5935 34.286C50.6559 35.0975 50.968 35.6594 51.5299 35.9091C52.0917 36.1588 52.7785 35.9715 53.3403 35.4097C53.7149 35.7218 54.027 36.034 54.2767 36.3461C53.7773 36.908 53.59 37.5947 53.7773 38.1565C54.027 38.7184 54.6513 39.0305 55.4005 39.0929C55.4629 39.5924 55.4629 40.0294 55.4005 40.4664Z" fill="#0572D7"/>
<path d="M53.0905 39.842C53.0905 41.6525 51.6547 43.0883 49.8442 43.1508C48.0338 43.1508 46.598 41.7149 46.598 39.9045C46.598 38.094 48.0338 36.6582 49.8442 36.5958C50.7182 36.5958 51.5298 36.9703 52.1541 37.5322C52.716 38.0941 53.0905 38.9056 53.0905 39.842ZM29.8671 32.9749C26.059 32.9749 23 36.0339 23 39.842C23 43.6502 26.059 46.7092 29.8671 46.7092C33.6753 46.7092 36.7343 43.6502 36.7343 39.842C36.7343 36.0339 33.6753 32.9749 29.8671 32.9749ZM29.8671 39.2802C31.1157 39.2802 32.1146 40.279 32.1146 41.5276C32.1146 42.5265 31.4278 43.4005 30.4914 43.7126V43.775C30.4914 44.1496 30.2417 44.3993 29.8671 44.3993C29.4926 44.3993 29.2428 44.1496 29.2428 43.775V43.7126C28.3064 43.4629 27.6197 42.5889 27.6197 41.5276C27.6197 41.153 27.8694 40.9033 28.244 40.9033C28.6186 40.9033 28.8683 41.153 28.8683 41.5276C28.8683 42.0895 29.3053 42.5265 29.8671 42.5265C30.429 42.5265 30.866 42.0895 30.866 41.5276C30.866 40.9658 30.429 40.5288 29.8671 40.5288C28.6186 40.5288 27.6197 39.5299 27.6197 38.2813C27.6197 37.2825 28.3064 36.4085 29.2428 36.0963V35.9715C29.2428 35.5969 29.4926 35.3472 29.8671 35.3472C30.2417 35.3472 30.4914 35.5969 30.4914 35.9715V36.0963C31.4278 36.3461 32.1146 37.2201 32.1146 38.2813C32.1146 38.6559 31.8648 38.9056 31.4903 38.9056C31.1157 38.9056 30.866 38.6559 30.866 38.2813C30.866 37.7195 30.429 37.2825 29.8671 37.2825C29.3053 37.2825 28.8683 37.7195 28.8683 38.2813C28.8683 38.8432 29.3053 39.2802 29.8671 39.2802ZM46.0985 24.9841C45.3494 23.2985 43.976 22.0499 42.228 21.4256C40.48 20.8014 38.6695 20.8638 36.984 21.6129C33.5504 23.1736 32.0521 27.2939 33.6128 30.7275C34.799 33.2246 37.2337 34.7229 39.8557 34.7229C40.7921 34.7229 41.791 34.5356 42.7274 34.0986C44.413 33.3495 45.6615 31.9761 46.2858 30.2281C46.9101 28.4801 46.8477 26.6696 46.0985 24.9841ZM39.9181 29.6038C38.9193 29.6038 37.9828 28.2304 37.9828 27.1066C37.9828 26.0454 38.8568 25.1714 39.9181 25.1714C40.9794 25.1714 41.8534 26.0454 41.8534 27.1066C41.791 28.1679 40.917 29.6038 39.9181 29.6038ZM45.0997 29.7911C44.7875 30.7275 44.2257 31.5391 43.4765 32.1009L42.1031 31.3518C41.8534 31.2269 41.7285 30.9772 41.7285 30.7275V30.0408C42.5401 29.2916 43.0395 28.1055 43.0395 27.0442C43.0395 25.2962 41.6037 23.8604 39.8557 23.8604C38.1701 23.9228 36.7343 25.3586 36.7343 27.1066C36.7343 28.1679 37.2337 29.2916 38.0453 30.0408V30.7275C38.0453 30.9772 37.9204 31.2269 37.6707 31.3518L36.2348 32.1009C35.673 31.6015 35.1736 30.9772 34.799 30.2281C33.488 27.4188 34.7366 24.0476 37.5458 22.7991C38.2325 22.4245 39.0441 22.2372 39.8557 22.2372C40.5424 22.2372 41.1667 22.3621 41.791 22.6118C43.2268 23.1112 44.3505 24.1725 44.9748 25.5459C45.5991 26.8569 45.6615 28.4176 45.0997 29.7911Z" fill="#0572D7"/>
</svg>
