<svg width="79" height="79" viewBox="0 0 79 79" fill="none" xmlns="http://www.w3.org/2000/svg">
<rect opacity="0.1" width="79" height="79" rx="15" fill="#3B79F0"/>
<path d="M40.7802 39.9748C43.3596 39.9748 45.4996 38.0848 45.9044 35.6182H55.8861C56.3522 35.6182 56.7293 35.2411 56.7293 34.7751C56.7293 34.309 56.3522 33.9319 55.8861 33.9319H53.8491V32.6672C53.8491 32.2011 53.4719 31.824 53.0059 31.824C52.5399 31.824 52.1628 32.2011 52.1628 32.6672V33.9319H45.9044C45.4996 31.4655 43.3595 29.5762 40.7802 29.5762C37.9131 29.5762 35.5805 31.908 35.5805 34.7751C35.5805 37.6421 37.9131 39.9748 40.7802 39.9748ZM40.7801 32.3275C42.1295 32.3275 43.2277 33.4257 43.2277 34.7752C43.2277 36.1252 42.1295 37.2234 40.7801 37.2234C39.43 37.2234 38.3318 36.1252 38.3318 34.7752C38.3318 33.4257 39.43 32.3275 40.7801 32.3275ZM24.3602 38.734H20.9286C19.8241 38.734 18.9219 39.6362 18.9219 40.7407V52.5449C18.9219 53.6494 19.8241 54.5516 20.9286 54.5516H24.3602C25.4647 54.5516 26.3669 53.6494 26.3669 52.5449V40.7407C26.3669 39.6362 25.4647 38.734 24.3602 38.734Z" fill="#3B79F0"/>
<path d="M60.9889 43.8017C60.7949 43.026 60.2975 42.3768 59.5976 41.9805C58.8979 41.5842 58.0884 41.4999 57.3127 41.7275L48.1729 44.4847C48.3331 45.0664 48.3331 45.7157 48.1308 46.3396C47.6923 47.6971 46.4445 48.5655 45.087 48.5655C44.8003 48.5655 44.5137 48.5318 44.2354 48.4475L35.2137 45.9771C34.7584 45.859 34.497 45.3953 34.6235 44.9484C34.7415 44.4931 35.2137 44.2402 35.6521 44.3582L44.6739 46.8202C45.4664 47.0394 46.2758 46.601 46.5288 45.8253C46.5288 45.8169 46.5288 45.8169 46.5372 45.8084C46.7564 45.0833 46.2843 44.3245 45.5761 44.0715L35.7786 40.5809C35.669 40.564 35.5678 40.5472 35.4582 40.5303L28.0553 40.8676V52.5452C28.0553 52.5789 28.0553 52.6127 28.0469 52.6464L42.0685 56.39C42.1444 56.4069 42.2203 56.4237 42.3046 56.4237C42.4395 56.4237 42.5828 56.3815 42.7093 56.3141L59.5639 47.09C60.7275 46.4492 61.3177 45.1001 60.9889 43.8017Z" fill="#3B79F0"/>
</svg>
