<svg width="79" height="79" viewBox="0 0 79 79" fill="none" xmlns="http://www.w3.org/2000/svg">
<rect opacity="0.1" width="79" height="79" rx="15" fill="#68D585"/>
<path d="M58.97 40.3586L57.2799 39.3639C56.9681 39.1806 56.5569 39.0889 56.1458 39.0889C55.7346 39.0889 55.3234 39.1806 55.0119 39.3639L53.3218 40.3582C53.1658 40.4532 53.0238 40.5695 52.8998 40.7036L49.1911 37.8287C49.2267 37.6886 49.2461 37.5449 49.249 37.4004V27.958C49.249 27.2343 48.7394 26.3406 48.1168 25.9719L40.1841 21.2763C39.8726 21.0921 39.4624 21 39.0519 21C38.6414 21 38.2312 21.0921 37.9197 21.2763L29.9871 25.9719C29.3644 26.3406 28.8549 27.2343 28.8549 27.958V37.4004C28.8549 37.5386 28.8786 37.6833 28.9128 37.8287L25.204 40.7039C25.0801 40.5698 24.9381 40.4535 24.782 40.3586L23.0919 39.3642C22.7801 39.181 22.3689 39.0892 21.9581 39.0892C21.5472 39.0892 21.1358 39.181 20.8239 39.3642L19.1338 40.3586C18.5102 40.7253 18 41.6177 18 42.342V44.3683C18 45.092 18.5102 45.9844 19.1338 46.3518L20.8239 47.3458C21.1361 47.5294 21.5469 47.6211 21.9581 47.6211C22.3693 47.6211 22.7801 47.529 23.0919 47.3458L24.782 46.3515C25.4057 45.9844 25.9159 45.0923 25.9159 44.3683V42.342C25.9128 42.1825 25.8899 42.0239 25.8478 41.87L29.5371 39.0103C29.6753 39.1622 29.8272 39.2922 29.9871 39.3869L37.9197 44.0821C38.0631 44.1667 38.2293 44.2301 38.4049 44.2755V50.9398C38.2352 50.9818 38.0721 51.0471 37.9204 51.1339L35.5784 52.5236C34.956 52.893 34.4468 53.7871 34.4468 54.5107V57.3452C34.4468 58.0688 34.956 58.9629 35.5784 59.3323L37.9204 60.722C38.2316 60.9069 38.6417 60.9993 39.0519 60.9993C39.4621 60.9993 39.8723 60.9069 40.1835 60.722L42.5255 59.3323C43.1478 58.9629 43.657 58.0692 43.657 57.3452V54.5107C43.657 53.7871 43.1478 52.893 42.5255 52.5239L40.1835 51.1339C40.0383 51.051 39.8826 50.9881 39.7207 50.9467V44.2696C39.8828 44.2282 40.0386 44.1654 40.1841 44.0828L48.1168 39.3869C48.2846 39.2843 48.4362 39.1574 48.5667 39.0103L52.2561 41.87C52.2139 42.0238 52.1911 42.1823 52.188 42.3417V44.3683C52.188 45.092 52.6978 45.9844 53.3218 46.3518L55.0119 47.3458C55.3237 47.5294 55.7349 47.6211 56.1458 47.6211C56.5566 47.6211 56.9681 47.529 57.2799 47.3458L58.97 46.3515C59.5937 45.984 60.1039 45.092 60.1039 44.3683V42.342C60.1039 41.6181 59.5937 40.7257 58.97 40.3586ZM34.4478 40.498L33.1857 39.7507C33.3738 38.2672 34.0988 36.9656 35.1415 36.065C35.4418 36.3946 35.7828 36.6848 36.1563 36.9284C35.129 37.7281 34.4547 39.0277 34.4478 40.498ZM39.0519 35.9074C37.2023 35.9074 35.7027 34.4361 35.7027 32.6213C35.7027 30.8072 37.2023 29.3359 39.0519 29.3359C40.9015 29.3359 42.4012 30.8072 42.4012 32.6216C42.4012 34.4361 40.9015 35.9074 39.0519 35.9074ZM43.656 40.4984C43.6495 39.0274 42.9751 37.7271 41.9489 36.9274C42.3222 36.6837 42.663 36.3935 42.9633 36.064C44.0057 36.9646 44.7304 38.2669 44.9185 39.751L43.656 40.4984Z" fill="#68D585"/>
<path d="M39.053 34.5916C40.1761 34.5916 41.0865 33.7096 41.0865 32.6216C41.0865 31.5336 40.1761 30.6516 39.053 30.6516C37.93 30.6516 37.0195 31.5336 37.0195 32.6216C37.0195 33.7096 37.93 34.5916 39.053 34.5916Z" fill="#68D585"/>
</svg>
