<svg width="79" height="79" viewBox="0 0 79 79" fill="none" xmlns="http://www.w3.org/2000/svg">
<rect opacity="0.1" width="79" height="79" rx="15" fill="#F03B7C"/>
<g clip-path="url(#clip0_0_1)">
<path d="M55.9164 39.7784C55.9164 38.7381 55.3404 37.8094 54.4117 37.3451L49.9271 35.0998L54.4117 32.8487C54.876 32.6136 55.2522 32.2668 55.5109 31.8436C55.7695 31.4263 55.9164 30.9325 55.9164 30.4154C55.9164 29.3751 55.3404 28.4463 54.4117 27.9819L41.8395 21.6812C39.9646 20.7409 37.7252 20.7409 35.8502 21.6812L23.2781 27.9762C22.3495 28.4464 21.7734 29.3751 21.7734 30.4155C21.7734 31.4499 22.3495 32.3844 23.2781 32.8487L27.7627 35.0999L23.2781 37.3452C22.3495 37.8095 21.7734 38.7381 21.7734 39.7785C21.7734 40.8189 22.3495 41.7475 23.2781 42.2119L27.7627 44.463L23.2781 46.7083C22.3495 47.1727 21.7734 48.1071 21.7734 49.1416C21.7734 50.1819 22.3495 51.1165 23.2781 51.5809L35.8503 57.8758C37.7194 58.822 39.9587 58.822 41.8455 57.8758L54.4118 51.5809C55.3405 51.1165 55.9165 50.1819 55.9165 49.1416C55.9165 48.1071 55.3405 47.1727 54.4118 46.7083L49.9272 44.463L54.4118 42.2119C55.3404 41.7473 55.9164 40.8187 55.9164 39.7784ZM53.8827 47.7544C54.4176 48.0247 54.7409 48.5477 54.7409 49.1414C54.7409 49.7409 54.4176 50.2641 53.8827 50.5344L41.3165 56.8294C39.7707 57.6052 37.9251 57.6052 36.3793 56.8294L23.8071 50.5344C23.2723 50.2641 22.949 49.7409 22.949 49.1414C22.949 48.5477 23.2723 48.0247 23.8071 47.7544L29.0734 45.1212L35.8503 48.5126C37.7252 49.4588 39.9587 49.4588 41.8455 48.5126L48.6165 45.1212L53.8827 47.7544ZM41.3165 38.0974C39.7707 38.8732 37.9251 38.8732 36.3734 38.0974L23.8071 31.8024C23.2723 31.5321 22.949 31.0148 22.949 30.4154C22.949 29.8159 23.2723 29.2986 23.8071 29.0282L36.3734 22.7333C37.9192 21.9574 39.7707 21.9574 41.3165 22.7333L53.8887 29.0282C54.4235 29.2985 54.7409 29.8159 54.7409 30.4154C54.7409 31.0148 54.4236 31.5321 53.8887 31.8024C53.8887 31.8024 53.8887 31.8024 53.8828 31.8024L41.3165 38.0974Z" fill="#F03B7C"/>
</g>
<defs>
<clipPath id="clip0_0_1">
<rect width="40" height="40" fill="white" transform="translate(20 21)"/>
</clipPath>
</defs>
</svg>
