<svg width="79" height="79" viewBox="0 0 79 79" fill="none" xmlns="http://www.w3.org/2000/svg">
<rect opacity="0.1" width="79" height="79" rx="15" fill="#ADBC01"/>
<path d="M45.7857 41.643C46.4958 41.643 47.0714 41.0673 47.0714 40.3572C47.0714 39.6472 46.4958 39.0715 45.7857 39.0715C45.0756 39.0715 44.5 39.6472 44.5 40.3572C44.5 41.0673 45.0756 41.643 45.7857 41.643Z" fill="#ADBC01"/>
<path d="M40.9182 42.3756L40.5646 42.2856H36.1417C35.9712 42.2856 35.8077 42.3534 35.6872 42.4739C35.5666 42.5945 35.4989 42.758 35.4989 42.9285V55.7857H43.856C44.0265 55.7857 44.19 55.8534 44.3106 55.9739C44.4312 56.0945 44.4989 56.258 44.4989 56.4285H47.0703C47.0703 56.258 47.138 56.0945 47.2586 55.9739C47.3792 55.8534 47.5427 55.7857 47.7132 55.7857H56.0703V42.9285C56.0703 42.758 56.0026 42.5945 55.882 42.4739C55.7615 42.3534 55.598 42.2856 55.4275 42.2856H51.0046L50.651 42.3756L50.8825 42.7549C50.956 42.8777 50.9864 43.0216 50.969 43.1636C50.9515 43.3057 50.8871 43.4379 50.786 43.5392L48.9668 45.3585C48.8646 45.4582 48.7326 45.5217 48.5909 45.5391C48.4492 45.5565 48.3057 45.527 48.1825 45.4549L47.8032 45.2235L47.6939 45.6542C47.6594 45.7936 47.5793 45.9174 47.4663 46.006C47.3533 46.0945 47.2139 46.1427 47.0703 46.1428H44.4989C44.3553 46.1427 44.2159 46.0945 44.1029 46.006C43.9899 45.9174 43.9098 45.7936 43.8753 45.6542L43.766 45.2235L43.3867 45.4549C43.2635 45.527 43.12 45.5565 42.9783 45.5391C42.8366 45.5217 42.7046 45.4582 42.6025 45.3585L40.7832 43.5392C40.6821 43.4379 40.6177 43.3057 40.6002 43.1636C40.5828 43.0216 40.6132 42.8777 40.6867 42.7549L40.9182 42.3756ZM57.0346 57.0714H48.356C48.356 57.2419 48.2883 57.4054 48.1677 57.5259C48.0472 57.6465 47.8837 57.7142 47.7132 57.7142H43.856C43.6855 57.7142 43.522 57.6465 43.4015 57.5259C43.2809 57.4054 43.2132 57.2419 43.2132 57.0714H34.5346C34.2789 57.0714 34.0336 57.173 33.8527 57.3538C33.6719 57.5346 33.5703 57.7799 33.5703 58.0357C33.5703 58.2914 33.6719 58.5367 33.8527 58.7175C34.0336 58.8983 34.2789 58.9999 34.5346 58.9999H57.0346C57.2904 58.9999 57.5356 58.8983 57.7165 58.7175C57.8973 58.5367 57.9989 58.2914 57.9989 58.0357C57.9989 57.7799 57.8973 57.5346 57.7165 57.3538C57.5356 57.173 57.2904 57.0714 57.0346 57.0714Z" fill="#ADBC01"/>
<path d="M27.1429 34.5714C29.9832 34.5714 32.2857 33.9958 32.2857 33.2857C32.2857 32.5756 29.9832 32 27.1429 32C24.3025 32 22 32.5756 22 33.2857C22 33.9958 24.3025 34.5714 27.1429 34.5714Z" fill="#ADBC01"/>
<path d="M22 34.9058V37.143C22 37.4708 23.7679 38.4287 27.1429 38.4287C30.5179 38.4287 32.2857 37.4708 32.2857 37.143V34.9058C30.661 35.5932 28.9059 35.9179 27.1429 35.8572C25.3798 35.9179 23.6247 35.5932 22 34.9058ZM22 42.6201V44.8573C22 45.1851 23.7679 46.143 27.1429 46.143C30.5179 46.143 32.2857 45.1851 32.2857 44.8573V42.6201C30.661 43.3075 28.9059 43.6322 27.1429 43.5715C25.3798 43.6322 23.6247 43.3075 22 42.6201ZM22 38.763V41.0001C22 41.328 23.7679 42.2858 27.1429 42.2858C30.5179 42.2858 32.2857 41.328 32.2857 41.0001V38.763C30.661 39.4504 28.9059 39.7751 27.1429 39.7144C25.3798 39.7751 23.6247 39.4504 22 38.763ZM40.9193 38.3387L40.6879 37.9594C40.6143 37.8366 40.5839 37.6927 40.6014 37.5507C40.6188 37.4086 40.6832 37.2764 40.7843 37.1751L42.6036 35.3558C42.7057 35.2561 42.8378 35.1926 42.9795 35.1752C43.1211 35.1578 43.2646 35.1874 43.3879 35.2594L43.7672 35.4908L43.8764 35.0601C43.9109 34.9207 43.991 34.7969 44.104 34.7084C44.217 34.6198 44.3564 34.5716 44.5 34.5715H47.0714C47.215 34.5716 47.3544 34.6198 47.4674 34.7084C47.5804 34.7969 47.6606 34.9207 47.695 35.0601L47.8043 35.4908L48.1836 35.2594C48.3068 35.1874 48.4503 35.1578 48.592 35.1752C48.7337 35.1926 48.8657 35.2561 48.9679 35.3558L50.7872 37.1751C50.8883 37.2764 50.9526 37.4086 50.9701 37.5507C50.9876 37.6927 50.9571 37.8366 50.8836 37.9594L50.6522 38.3387L51.0057 38.4287H55.4286C56.1106 38.4287 56.7646 38.1578 57.2469 37.6755C57.7291 37.1933 58 36.5392 58 35.8572C58 35.1753 57.7291 34.5212 57.2469 34.039C56.7646 33.5567 56.1106 33.2858 55.4286 33.2858H54.1364C54.0171 33.2858 53.9 33.2526 53.7985 33.1898C53.6969 33.127 53.6148 33.0372 53.5615 32.9305C53.5081 32.8237 53.4855 32.7041 53.4962 32.5852C53.5069 32.4663 53.5505 32.3528 53.6222 32.2572C54.17 31.5288 54.5379 30.6811 54.6958 29.7834C54.8537 28.8857 54.7971 27.9634 54.5307 27.0917C54.2643 26.2201 53.7955 25.4237 53.1627 24.7677C52.5299 24.1117 51.751 23.6146 50.8894 23.317C50.0279 23.0193 49.1082 22.9296 48.2054 23.055C47.3026 23.1805 46.4423 23.5177 45.6946 24.039C44.9469 24.5603 44.333 25.251 43.9031 26.0547C43.4732 26.8584 43.2394 27.7524 43.2207 28.6637C43.2182 28.8042 43.1696 28.94 43.0825 29.0503C42.9955 29.1606 42.8747 29.2393 42.7386 29.2744C42.602 29.3083 42.4582 29.2972 42.3285 29.2428C42.1987 29.1883 42.09 29.0934 42.0186 28.9722C41.5639 28.17 40.8564 27.541 40.0066 27.1833C39.1567 26.8257 38.2123 26.7595 37.3209 26.9952C36.4294 27.2309 35.6412 27.7552 35.0791 28.4862C34.5171 29.2172 34.213 30.1137 34.2143 31.0358C34.2618 31.3047 34.3647 31.5609 34.5164 31.788C34.6338 31.9918 34.7349 32.2046 34.8186 32.4244C34.8526 32.5222 34.8634 32.6266 34.85 32.7292C34.8366 32.8319 34.7994 32.93 34.7414 33.0158C34.6811 33.0992 34.6019 33.1672 34.5103 33.2141C34.4187 33.2611 34.3172 33.2856 34.2143 33.2858H33.5714V38.4287H40.5657L40.9193 38.3387Z" fill="#ADBC01"/>
<path d="M42.0694 39.38L41.2852 39.5729V41.1415L42.0694 41.3343C42.1667 41.3593 42.2569 41.4066 42.3328 41.4724C42.4086 41.5382 42.4681 41.6208 42.5066 41.7136C42.5455 41.8067 42.5618 41.9077 42.5539 42.0083C42.5461 42.1089 42.5145 42.2062 42.4616 42.2922L42.0502 42.9865L43.1559 44.0922L43.8502 43.6743C43.9372 43.6239 44.0346 43.5942 44.1349 43.5875C44.2353 43.5808 44.3358 43.5973 44.4287 43.6358C44.5215 43.6742 44.6041 43.7337 44.6699 43.8096C44.7358 43.8855 44.783 43.9756 44.808 44.0729L45.0009 44.8572H46.5694L46.7623 44.0729C46.7873 43.9756 46.8345 43.8855 46.9004 43.8096C46.9662 43.7337 47.0488 43.6742 47.1416 43.6358C47.2345 43.5973 47.335 43.5808 47.4354 43.5875C47.5357 43.5942 47.6331 43.6239 47.7202 43.6743L48.4144 44.0922L49.5202 42.9865L49.1087 42.2922C49.0559 42.2062 49.0242 42.1089 49.0164 42.0083C49.0085 41.9077 49.0248 41.8067 49.0637 41.7136C49.1022 41.6208 49.1617 41.5382 49.2376 41.4724C49.3134 41.4066 49.4036 41.3593 49.5009 41.3343L50.2852 41.1415V39.5729L49.5009 39.38C49.4036 39.3551 49.3134 39.3078 49.2376 39.242C49.1617 39.1761 49.1022 39.0936 49.0637 39.0008C49.0248 38.9077 49.0085 38.8066 49.0164 38.706C49.0242 38.6054 49.0559 38.5081 49.1087 38.4222L49.5202 37.7279L48.4144 36.6222L47.7202 37.0336C47.6342 37.0865 47.5369 37.1181 47.4363 37.126C47.3357 37.1338 47.2347 37.1176 47.1416 37.0786C47.0488 37.0402 46.9662 36.9807 46.9004 36.9048C46.8345 36.8289 46.7873 36.7388 46.7623 36.6415L46.5694 35.8572H45.0009L44.808 36.6415C44.783 36.7388 44.7358 36.8289 44.6699 36.9048C44.6041 36.9807 44.5215 37.0402 44.4287 37.0786C44.3356 37.1176 44.2346 37.1338 44.134 37.126C44.0334 37.1181 43.9361 37.0865 43.8502 37.0336L43.1559 36.6222L42.0502 37.7279L42.4616 38.4222C42.5145 38.5081 42.5461 38.6054 42.5539 38.706C42.5618 38.8066 42.5455 38.9077 42.5066 39.0008C42.4681 39.0936 42.4086 39.1761 42.3328 39.242C42.2569 39.3078 42.1667 39.3551 42.0694 39.38ZM45.7852 37.7858C46.2937 37.7858 46.7909 37.9366 47.2138 38.2191C47.6366 38.5017 47.9662 38.9033 48.1609 39.3731C48.3555 39.843 48.4064 40.36 48.3072 40.8588C48.208 41.3576 47.9631 41.8158 47.6034 42.1755C47.2438 42.5351 46.7856 42.78 46.2868 42.8792C45.788 42.9784 45.271 42.9275 44.8011 42.7329C44.3312 42.5382 43.9296 42.2087 43.6471 41.7858C43.3645 41.3629 43.2137 40.8658 43.2137 40.3572C43.2137 39.6752 43.4846 39.0211 43.9669 38.5389C44.4491 38.0567 45.1032 37.7858 45.7852 37.7858Z" fill="#ADBC01"/>
<path d="M27.7857 48.7144H26.5V50.0001H27.7857V48.7144Z" fill="#ADBC01"/>
<path d="M27.7857 55.7856V51.2856H26.5V55.7856C26.501 56.6378 26.84 57.4548 27.4426 58.0574C28.0451 58.6599 28.8621 58.9989 29.7143 58.9999H32.2857V57.7142H29.7143C29.2028 57.7142 28.7123 57.511 28.3506 57.1494C27.9889 56.7877 27.7857 56.2971 27.7857 55.7856Z" fill="#ADBC01"/>
</svg>
