<svg width="79" height="79" viewBox="0 0 79 79" fill="none" xmlns="http://www.w3.org/2000/svg">
<rect opacity="0.1" width="79" height="79" rx="15" fill="#473BF0"/>
<g clip-path="url(#clip0_0_1)">
<path d="M54.4651 32.8292H52.0846V43.5549C52.0846 44.8161 52.6865 45.9047 54.4651 46.0791V32.8292ZM55.203 48.0188C51.1474 50.4626 44.4371 52.4808 38.8481 53.0021C29.7593 53.8493 20.2833 52.5153 18.9589 45.3336C18.313 41.7935 19.9115 38.0368 22.0198 35.71V34.4622C18.2114 37.8394 16.1471 42.1174 17.3355 47.1697C18.8535 53.6519 26.9859 57.3223 39.3963 56.1014C44.3068 55.6203 50.7353 54.0199 55.203 51.5397V48.0188Z" fill="#473BF0"/>
<path d="M26.0836 33.1532H23.7031V35.4398H26.0836V33.1532Z" fill="#473BF0"/>
<path d="M35.849 46.1865V39.5683C35.849 38.2266 35.1418 36.7469 33.0718 36.7469L28.19 36.7431V46.1865H30.5533V38.6732H32.5083C33.206 38.6732 33.4935 39.0182 33.4935 39.5817V46.1846H35.849V46.1865ZM62.7993 34.3799C60.643 23.7366 40.1999 23.0619 27.0266 31.1694V32.0645C40.1845 25.2278 58.849 25.2661 60.551 35.0679C61.1184 38.3129 59.3129 41.6919 56.0871 43.6374V46.1789C59.9684 44.7394 63.955 40.08 62.7993 34.3799ZM23.7031 36.7469V43.7524C23.7031 45.0193 24.3088 46.1079 26.0875 46.2804V36.7469H23.7031Z" fill="#473BF0"/>
<path d="M37.6172 34.1748V43.4764C37.6172 44.8161 38.4394 46.1712 40.3638 46.1712V46.1674H41.7572V44.1779H40.7989C40.2354 44.1779 39.9766 43.8751 39.9766 43.325V38.6751H41.7572V36.7451H39.9785V34.1748H37.6172Z" fill="#473BF0"/>
<path d="M26.0898 46.2823H26.0859V46.29L26.0898 46.2823Z" fill="#473BF0"/>
<path d="M50.7104 41.3411C50.7104 38.6444 49.2537 36.582 46.7352 36.582C44.2493 36.582 42.3633 38.3396 42.3633 41.4504C42.3633 45.0863 44.5291 46.3321 46.7908 46.3321C48.5177 46.3321 49.5029 45.7667 50.4363 44.8352L48.9758 43.4226C48.3701 44.0359 47.8507 44.3254 46.8061 44.3254C45.4644 44.3254 44.7093 43.4226 44.7093 42.2036L50.7104 42.1979V41.3411ZM44.7093 40.5764C44.7112 40.2218 44.7879 39.8729 44.9354 39.549C45.198 38.9798 45.8229 38.5619 46.6317 38.5619C47.843 38.5619 48.303 39.549 48.349 40.5764H44.7093Z" fill="#473BF0"/>
<path d="M54.4651 41H52.0846V43.5568C52.0846 44.818 52.6864 45.9067 54.4651 46.0811V41ZM19.1716 41H17.5156C17.1878 42.0407 17.0096 43.1294 17 44.2641V44.4519C17.0077 45.3297 17.1169 46.2363 17.3354 47.1697C18.6579 52.8182 25.0078 56.3333 34.8346 56.3333C36.2817 56.3333 37.8035 56.2567 39.3963 56.0995C44.3068 55.6184 50.7352 54.018 55.203 51.5378V48.0188C51.1473 50.4626 44.4371 52.4808 38.8481 53.0022C37.3033 53.1459 35.7469 53.2283 34.2213 53.2283C26.7731 53.2283 20.0571 51.2963 18.9588 45.3336C18.6943 43.8884 18.8055 42.4068 19.1716 41Z" fill="#473BF0"/>
<path d="M30.5533 41H28.19V46.1865H30.5533V41ZM35.849 41H33.4915V46.1865H35.849V41ZM61.8467 41H59.0139C58.2606 42.0197 57.2697 42.9243 56.089 43.6354V46.1769C58.2951 45.3604 60.5357 43.5012 61.8467 41ZM26.0875 41H23.7031V43.7543C23.7031 45.0212 24.3088 46.1098 26.0875 46.2823V41ZM39.9775 41H37.6181V43.4763C37.6181 44.8161 38.4404 46.1712 40.3647 46.1712V46.1673H41.7581V44.1778H40.7998C40.2363 44.1778 39.9775 43.875 39.9775 43.3249V41Z" fill="#473BF0"/>
<path d="M26.0894 46.2804H26.0859V46.2856H26.0894V46.2804Z" fill="#473BF0"/>
<path d="M50.7027 41H42.3767C42.3671 41.1476 42.3633 41.2971 42.3633 41.4523C42.3633 45.0883 44.5291 46.3341 46.7908 46.3341C48.5177 46.3341 49.5029 45.7687 50.4363 44.8372L48.9758 43.4246C48.3701 44.0379 47.8507 44.3273 46.8061 44.3273C45.4644 44.3273 44.7093 43.4246 44.7093 42.2056L50.7104 42.1998V41.3412C50.7104 41.2262 50.7065 41.1131 50.7027 41Z" fill="#473BF0"/>
</g>
<defs>
<clipPath id="clip0_0_1">
<rect width="46" height="46" fill="white" transform="translate(17 18)"/>
</clipPath>
</defs>
</svg>
