<svg width="79" height="79" viewBox="0 0 79 79" fill="none" xmlns="http://www.w3.org/2000/svg">
<rect opacity="0.1" width="79" height="79" rx="15" fill="#76CEB8"/>
<path d="M56.5242 49.6423C56.0247 48.3938 54.6513 47.7071 53.3403 48.2065L44.7252 51.2655C44.6628 51.0782 44.6628 50.8909 44.5379 50.7036C43.9136 48.8932 42.1656 47.5822 40.2303 47.5198L36.7343 47.3949C35.9228 47.3949 35.0488 47.4573 34.2996 47.6446L28.1192 48.7059V47.9568C28.1192 47.6446 27.8695 47.3325 27.4949 47.3325H23.6868C23.3122 47.3325 23.0625 47.6446 23.0625 47.9568V58.632C23.0625 58.9442 23.3122 59.2563 23.6868 59.2563H27.4949C27.8695 59.2563 28.1192 58.9442 28.1192 58.632V57.5708C29.1181 57.3835 30.1169 57.3835 31.1158 57.6332L39.169 59.6933C39.5436 59.8182 39.9806 59.8182 40.3552 59.8182C41.1043 59.8182 41.9159 59.6309 42.6026 59.2563L55.338 52.514C56.3993 52.077 56.8987 50.766 56.5242 49.6423ZM26.8706 58.1326H24.3111V48.6435H26.8706V58.1326ZM56.5242 37.3439C56.4617 37.0318 56.1496 36.8445 55.8374 36.8445C55.2756 36.9069 54.9635 36.7821 54.901 36.7196C54.8386 36.5948 54.9635 36.2826 55.4005 35.9705C55.6502 35.7832 55.7126 35.4086 55.5253 35.1589C54.9635 34.3474 54.2767 33.5982 53.4652 33.0988C53.4027 33.0988 53.4027 33.0364 53.3403 33.0364C53.0906 32.9115 52.7785 33.0364 52.5912 33.2236C52.279 33.7231 51.9045 33.7855 51.842 33.7855C51.7796 33.7231 51.5923 33.4109 51.6547 32.8491C51.7172 32.5994 51.5299 32.2872 51.2802 32.1624C51.2177 32.1624 51.2177 32.1624 51.1553 32.0999C50.1565 31.9127 49.22 31.9127 48.2212 32.0999C47.909 32.1624 47.6593 32.4745 47.7217 32.7867C47.7842 33.3485 47.6593 33.6606 47.5969 33.7231C47.5345 33.7855 47.2223 33.6606 46.8477 33.2236C46.7229 32.9739 46.4107 32.9115 46.0986 33.0988C45.287 33.5982 44.5379 34.3474 44.0385 35.1589C43.8512 35.4711 43.9136 35.7832 44.2258 35.9705C44.6628 36.2826 44.7876 36.6572 44.7876 36.7196C44.7252 36.8445 44.413 36.9694 43.9136 36.9069C43.6015 36.8445 43.2893 37.0942 43.2269 37.4064C43.0396 38.4052 43.0396 39.4041 43.2269 40.3405C43.2893 40.6526 43.6015 40.8399 43.9136 40.8399C44.4755 40.7775 44.7876 40.9024 44.85 40.9648C44.9125 41.0896 44.7876 41.4018 44.2882 41.7139C44.0385 41.9012 43.976 42.2758 44.1633 42.5255C44.7252 43.3371 45.4119 44.0238 46.2235 44.5856C46.2859 44.5856 46.2859 44.6481 46.3483 44.6481C46.598 44.7729 46.9102 44.6481 47.0975 44.4608C47.4096 44.0238 47.7217 43.8989 47.8466 43.8989C47.909 43.8989 48.0963 44.2111 47.9715 44.7729C47.909 45.0851 48.0963 45.3348 48.346 45.4596C48.4085 45.4596 48.4085 45.4596 48.4709 45.5221C48.9703 45.6469 49.4073 45.6469 49.8443 45.6469C50.3437 45.6469 50.8432 45.5845 51.3426 45.4596C51.6547 45.3972 51.842 45.0851 51.842 44.7729C51.7796 44.2111 51.9045 43.8989 51.9669 43.8365C52.0293 43.7741 52.4039 43.8989 52.716 44.3359C52.9033 44.5856 53.2779 44.6481 53.5276 44.4608C54.3392 43.9613 55.0883 43.2122 55.5877 42.4006C55.775 42.1509 55.7126 41.7763 55.4005 41.5891C54.9635 41.2769 54.8386 40.9024 54.901 40.8399C54.901 40.7775 55.2756 40.5902 55.8374 40.6526C56.1496 40.7151 56.4617 40.4654 56.5242 40.1532C56.7739 39.2792 56.7739 38.2804 56.5242 37.3439ZM55.4005 39.4665C54.5889 39.5289 54.027 39.8411 53.7773 40.4029C53.5276 40.9648 53.7149 41.6515 54.2767 42.2133C54.027 42.5879 53.6525 42.9001 53.3403 43.2122C52.7785 42.6503 52.0917 42.4631 51.5299 42.7128C50.968 42.9625 50.5935 43.5868 50.5935 44.3359C50.1565 44.3983 49.657 44.3983 49.22 44.3359C49.1576 43.5868 48.8455 42.9625 48.2836 42.7128C47.7217 42.4631 47.035 42.6503 46.4732 43.2122C46.0986 42.9625 45.7865 42.5879 45.5368 42.2758C46.0986 41.7139 46.2235 41.0272 46.0362 40.4654C45.7865 39.9035 45.1622 39.5289 44.413 39.5289C44.3506 39.0919 44.3506 38.5925 44.413 38.1555C45.2246 38.0931 45.7865 37.7809 46.0362 37.2191C46.2859 36.6572 46.0362 35.9705 45.5368 35.4086C45.7865 35.0341 46.161 34.7219 46.4732 34.4098C47.035 34.9716 47.7217 35.1589 48.2836 34.9092C48.8455 34.6595 49.22 34.0352 49.22 33.2861C49.657 33.2236 50.094 33.2236 50.5935 33.2861C50.6559 34.0976 50.968 34.6595 51.5299 34.9092C52.0917 35.1589 52.7785 34.9716 53.3403 34.4098C53.7149 34.7219 54.027 35.0341 54.2767 35.3462C53.7773 35.9081 53.59 36.5948 53.7773 37.1566C54.027 37.7185 54.6513 38.0306 55.4005 38.0931C55.4629 38.5925 55.4629 39.0295 55.4005 39.4665Z" fill="#76CEB8"/>
<path d="M53.0905 38.842C53.0905 40.6525 51.6547 42.0883 49.8442 42.1508C48.0338 42.1508 46.598 40.7149 46.598 38.9045C46.598 37.094 48.0338 35.6582 49.8442 35.5958C50.7182 35.5958 51.5298 35.9703 52.1541 36.5322C52.716 37.0941 53.0905 37.9056 53.0905 38.842ZM29.8671 31.9749C26.059 31.9749 23 35.0339 23 38.842C23 42.6502 26.059 45.7092 29.8671 45.7092C33.6753 45.7092 36.7343 42.6502 36.7343 38.842C36.7343 35.0339 33.6753 31.9749 29.8671 31.9749ZM29.8671 38.2802C31.1157 38.2802 32.1146 39.279 32.1146 40.5276C32.1146 41.5265 31.4278 42.4005 30.4914 42.7126V42.775C30.4914 43.1496 30.2417 43.3993 29.8671 43.3993C29.4926 43.3993 29.2428 43.1496 29.2428 42.775V42.7126C28.3064 42.4629 27.6197 41.5889 27.6197 40.5276C27.6197 40.153 27.8694 39.9033 28.244 39.9033C28.6186 39.9033 28.8683 40.153 28.8683 40.5276C28.8683 41.0895 29.3053 41.5265 29.8671 41.5265C30.429 41.5265 30.866 41.0895 30.866 40.5276C30.866 39.9658 30.429 39.5288 29.8671 39.5288C28.6186 39.5288 27.6197 38.5299 27.6197 37.2813C27.6197 36.2825 28.3064 35.4085 29.2428 35.0963V34.9715C29.2428 34.5969 29.4926 34.3472 29.8671 34.3472C30.2417 34.3472 30.4914 34.5969 30.4914 34.9715V35.0963C31.4278 35.3461 32.1146 36.2201 32.1146 37.2813C32.1146 37.6559 31.8648 37.9056 31.4903 37.9056C31.1157 37.9056 30.866 37.6559 30.866 37.2813C30.866 36.7195 30.429 36.2825 29.8671 36.2825C29.3053 36.2825 28.8683 36.7195 28.8683 37.2813C28.8683 37.8432 29.3053 38.2802 29.8671 38.2802ZM46.0985 23.9841C45.3494 22.2985 43.976 21.0499 42.228 20.4256C40.48 19.8014 38.6695 19.8638 36.984 20.6129C33.5504 22.1736 32.0521 26.2939 33.6128 29.7275C34.799 32.2246 37.2337 33.7229 39.8557 33.7229C40.7921 33.7229 41.791 33.5356 42.7274 33.0986C44.413 32.3495 45.6615 30.9761 46.2858 29.2281C46.9101 27.4801 46.8477 25.6696 46.0985 23.9841ZM39.9181 28.6038C38.9193 28.6038 37.9828 27.2304 37.9828 26.1066C37.9828 25.0454 38.8568 24.1714 39.9181 24.1714C40.9794 24.1714 41.8534 25.0454 41.8534 26.1066C41.791 27.1679 40.917 28.6038 39.9181 28.6038ZM45.0997 28.7911C44.7875 29.7275 44.2257 30.5391 43.4765 31.1009L42.1031 30.3518C41.8534 30.2269 41.7285 29.9772 41.7285 29.7275V29.0408C42.5401 28.2916 43.0395 27.1055 43.0395 26.0442C43.0395 24.2962 41.6037 22.8604 39.8557 22.8604C38.1701 22.9228 36.7343 24.3586 36.7343 26.1066C36.7343 27.1679 37.2337 28.2916 38.0453 29.0408V29.7275C38.0453 29.9772 37.9204 30.2269 37.6707 30.3518L36.2348 31.1009C35.673 30.6015 35.1736 29.9772 34.799 29.2281C33.488 26.4188 34.7366 23.0476 37.5458 21.7991C38.2325 21.4245 39.0441 21.2372 39.8557 21.2372C40.5424 21.2372 41.1667 21.3621 41.791 21.6118C43.2268 22.1112 44.3505 23.1725 44.9748 24.5459C45.5991 25.8569 45.6615 27.4176 45.0997 28.7911Z" fill="#76CEB8"/>
<path d="M56.5242 49.6421C56.0247 48.3935 54.6513 47.7068 53.3403 48.2062L44.7252 51.2652C44.6628 51.0779 44.6628 50.8907 44.5379 50.7034C43.9136 48.893 42.1656 47.582 40.2303 47.5195L36.7343 47.3947C35.9228 47.3947 35.0488 47.4571 34.2996 47.6444L28.1192 48.7057V47.9565C28.1192 47.6444 27.8695 47.3322 27.4949 47.3322H23.6868C23.3122 47.3322 23.0625 47.6444 23.0625 47.9565V58.6318C23.0625 58.9439 23.3122 59.2561 23.6868 59.2561H27.4949C27.8695 59.2561 28.1192 58.9439 28.1192 58.6318V57.5705C29.1181 57.3832 30.1169 57.3832 31.1158 57.6329L39.169 59.6931C39.5436 59.8179 39.9806 59.8179 40.3552 59.8179C41.1043 59.8179 41.9159 59.6306 42.6026 59.2561L55.338 52.5138C56.3993 52.0768 56.8987 50.7658 56.5242 49.6421ZM26.8706 58.1324H24.3111V48.6432H26.8706V58.1324ZM56.5242 37.3437C56.4617 37.0315 56.1496 36.8443 55.8374 36.8443C55.2756 36.9067 54.9635 36.7818 54.901 36.7194C54.8386 36.5945 54.9635 36.2824 55.4005 35.9703C55.6502 35.783 55.7126 35.4084 55.5253 35.1587C54.9635 34.3471 54.2767 33.598 53.4652 33.0985C53.4027 33.0985 53.4027 33.0361 53.3403 33.0361C53.0906 32.9113 52.7785 33.0361 52.5912 33.2234C52.279 33.7228 51.9045 33.7853 51.842 33.7853C51.7796 33.7228 51.5923 33.4107 51.6547 32.8488C51.7172 32.5991 51.5299 32.287 51.2802 32.1621C51.2177 32.1621 51.2177 32.1621 51.1553 32.0997C50.1565 31.9124 49.22 31.9124 48.2212 32.0997C47.909 32.1621 47.6593 32.4743 47.7217 32.7864C47.7842 33.3483 47.6593 33.6604 47.5969 33.7228C47.5345 33.7853 47.2223 33.6604 46.8477 33.2234C46.7229 32.9737 46.4107 32.9113 46.0986 33.0985C45.287 33.598 44.5379 34.3471 44.0385 35.1587C43.8512 35.4708 43.9136 35.783 44.2258 35.9703C44.6628 36.2824 44.7876 36.657 44.7876 36.7194C44.7252 36.8443 44.413 36.9691 43.9136 36.9067C43.6015 36.8443 43.2893 37.094 43.2269 37.4061C43.0396 38.405 43.0396 39.4038 43.2269 40.3403C43.2893 40.6524 43.6015 40.8397 43.9136 40.8397C44.4755 40.7773 44.7876 40.9021 44.85 40.9645C44.9125 41.0894 44.7876 41.4015 44.2882 41.7137C44.0385 41.901 43.976 42.2755 44.1633 42.5252C44.7252 43.3368 45.4119 44.0235 46.2235 44.5854C46.2859 44.5854 46.2859 44.6478 46.3483 44.6478C46.598 44.7727 46.9102 44.6478 47.0975 44.4605C47.4096 44.0235 47.7217 43.8987 47.8466 43.8987C47.909 43.8987 48.0963 44.2108 47.9715 44.7727C47.909 45.0848 48.0963 45.3345 48.346 45.4594C48.4085 45.4594 48.4085 45.4594 48.4709 45.5218C48.9703 45.6467 49.4073 45.6467 49.8443 45.6467C50.3437 45.6467 50.8432 45.5842 51.3426 45.4594C51.6547 45.397 51.842 45.0848 51.842 44.7727C51.7796 44.2108 51.9045 43.8987 51.9669 43.8362C52.0293 43.7738 52.4039 43.8987 52.716 44.3357C52.9033 44.5854 53.2779 44.6478 53.5276 44.4605C54.3392 43.9611 55.0883 43.212 55.5877 42.4004C55.775 42.1507 55.7126 41.7761 55.4005 41.5888C54.9635 41.2767 54.8386 40.9021 54.901 40.8397C54.901 40.7773 55.2756 40.59 55.8374 40.6524C56.1496 40.7148 56.4617 40.4651 56.5242 40.153C56.7739 39.279 56.7739 38.2801 56.5242 37.3437ZM55.4005 39.4663C54.5889 39.5287 54.027 39.8408 53.7773 40.4027C53.5276 40.9645 53.7149 41.6512 54.2767 42.2131C54.027 42.5877 53.6525 42.8998 53.3403 43.212C52.7785 42.6501 52.0917 42.4628 51.5299 42.7125C50.968 42.9622 50.5935 43.5865 50.5935 44.3357C50.1565 44.3981 49.657 44.3981 49.22 44.3357C49.1576 43.5865 48.8455 42.9622 48.2836 42.7125C47.7217 42.4628 47.035 42.6501 46.4732 43.212C46.0986 42.9622 45.7865 42.5877 45.5368 42.2755C46.0986 41.7137 46.2235 41.027 46.0362 40.4651C45.7865 39.9033 45.1622 39.5287 44.413 39.5287C44.3506 39.0917 44.3506 38.5923 44.413 38.1553C45.2246 38.0928 45.7865 37.7807 46.0362 37.2188C46.2859 36.657 46.0362 35.9703 45.5368 35.4084C45.7865 35.0338 46.161 34.7217 46.4732 34.4095C47.035 34.9714 47.7217 35.1587 48.2836 34.909C48.8455 34.6593 49.22 34.035 49.22 33.2858C49.657 33.2234 50.094 33.2234 50.5935 33.2858C50.6559 34.0974 50.968 34.6593 51.5299 34.909C52.0917 35.1587 52.7785 34.9714 53.3403 34.4095C53.7149 34.7217 54.027 35.0338 54.2767 35.346C53.7773 35.9078 53.59 36.5945 53.7773 37.1564C54.027 37.7183 54.6513 38.0304 55.4005 38.0928C55.4629 38.5923 55.4629 39.0293 55.4005 39.4663Z" fill="#76CEB8"/>
<path d="M53.0905 38.842C53.0905 40.6525 51.6547 42.0883 49.8442 42.1508C48.0338 42.1508 46.598 40.7149 46.598 38.9045C46.598 37.094 48.0338 35.6582 49.8442 35.5958C50.7182 35.5958 51.5298 35.9703 52.1541 36.5322C52.716 37.0941 53.0905 37.9056 53.0905 38.842ZM29.8671 31.9749C26.059 31.9749 23 35.0339 23 38.842C23 42.6502 26.059 45.7092 29.8671 45.7092C33.6753 45.7092 36.7343 42.6502 36.7343 38.842C36.7343 35.0339 33.6753 31.9749 29.8671 31.9749ZM29.8671 38.2802C31.1157 38.2802 32.1146 39.279 32.1146 40.5276C32.1146 41.5265 31.4278 42.4005 30.4914 42.7126V42.775C30.4914 43.1496 30.2417 43.3993 29.8671 43.3993C29.4926 43.3993 29.2428 43.1496 29.2428 42.775V42.7126C28.3064 42.4629 27.6197 41.5889 27.6197 40.5276C27.6197 40.153 27.8694 39.9033 28.244 39.9033C28.6186 39.9033 28.8683 40.153 28.8683 40.5276C28.8683 41.0895 29.3053 41.5265 29.8671 41.5265C30.429 41.5265 30.866 41.0895 30.866 40.5276C30.866 39.9658 30.429 39.5288 29.8671 39.5288C28.6186 39.5288 27.6197 38.5299 27.6197 37.2813C27.6197 36.2825 28.3064 35.4085 29.2428 35.0963V34.9715C29.2428 34.5969 29.4926 34.3472 29.8671 34.3472C30.2417 34.3472 30.4914 34.5969 30.4914 34.9715V35.0963C31.4278 35.3461 32.1146 36.2201 32.1146 37.2813C32.1146 37.6559 31.8648 37.9056 31.4903 37.9056C31.1157 37.9056 30.866 37.6559 30.866 37.2813C30.866 36.7195 30.429 36.2825 29.8671 36.2825C29.3053 36.2825 28.8683 36.7195 28.8683 37.2813C28.8683 37.8432 29.3053 38.2802 29.8671 38.2802ZM46.0985 23.9841C45.3494 22.2985 43.976 21.0499 42.228 20.4256C40.48 19.8014 38.6695 19.8638 36.984 20.6129C33.5504 22.1736 32.0521 26.2939 33.6128 29.7275C34.799 32.2246 37.2337 33.7229 39.8557 33.7229C40.7921 33.7229 41.791 33.5356 42.7274 33.0986C44.413 32.3495 45.6615 30.9761 46.2858 29.2281C46.9101 27.4801 46.8477 25.6696 46.0985 23.9841ZM39.9181 28.6038C38.9193 28.6038 37.9828 27.2304 37.9828 26.1066C37.9828 25.0454 38.8568 24.1714 39.9181 24.1714C40.9794 24.1714 41.8534 25.0454 41.8534 26.1066C41.791 27.1679 40.917 28.6038 39.9181 28.6038ZM45.0997 28.7911C44.7875 29.7275 44.2257 30.5391 43.4765 31.1009L42.1031 30.3518C41.8534 30.2269 41.7285 29.9772 41.7285 29.7275V29.0408C42.5401 28.2916 43.0395 27.1055 43.0395 26.0442C43.0395 24.2962 41.6037 22.8604 39.8557 22.8604C38.1701 22.9228 36.7343 24.3586 36.7343 26.1066C36.7343 27.1679 37.2337 28.2916 38.0453 29.0408V29.7275C38.0453 29.9772 37.9204 30.2269 37.6707 30.3518L36.2348 31.1009C35.673 30.6015 35.1736 29.9772 34.799 29.2281C33.488 26.4188 34.7366 23.0476 37.5458 21.7991C38.2325 21.4245 39.0441 21.2372 39.8557 21.2372C40.5424 21.2372 41.1667 21.3621 41.791 21.6118C43.2268 22.1112 44.3505 23.1725 44.9748 24.5459C45.5991 25.8569 45.6615 27.4176 45.0997 28.7911Z" fill="#76CEB8"/>
</svg>
