<svg width="79" height="79" viewBox="0 0 79 79" fill="none" xmlns="http://www.w3.org/2000/svg">
<rect opacity="0.1" width="79" height="79" rx="15" fill="#161C2D"/>
<path d="M53.9665 23.5823H26.497C23.7134 23.5823 21.4609 25.8348 21.4609 28.6184V45.1001C21.4609 47.8836 23.7134 50.1361 26.497 50.1361H39.7556C39.4626 49.2571 39.3161 48.3415 39.3161 47.3892C39.3161 43.2321 42.0814 39.7344 45.8722 38.6173C45.689 38.3792 45.5792 38.0862 45.5792 37.7749V30.4497C45.5792 29.6988 46.1835 29.0762 46.9526 29.0762C47.7035 29.0762 48.3261 29.6988 48.3261 30.4497V36.4014H51.8239C52.5931 36.4014 53.1974 37.024 53.1974 37.7749C53.1974 38.3609 52.8128 38.8736 52.2817 39.0568C55.4316 40.5035 57.6291 43.69 57.6291 47.3892C57.6291 47.8104 57.5925 48.2316 57.5376 48.6345C58.4349 47.7371 59.0026 46.4918 59.0026 45.1001V28.6184C59.0026 25.8348 56.7501 23.5823 53.9665 23.5823ZM32.3022 35.4857H31.057C29.2989 35.4857 27.8705 34.0573 27.8705 32.2993C27.8705 30.5046 29.2989 29.0762 31.057 29.0762H34.1335C34.8844 29.0762 35.507 29.6988 35.507 30.4497C35.507 31.2005 34.8844 31.8231 34.1335 31.8231H31.057C30.8189 31.8231 30.6174 32.0246 30.6174 32.2626C30.6174 32.5373 30.8189 32.7388 31.057 32.7388H32.3022C34.0603 32.7388 35.507 34.1672 35.507 35.9252C35.507 37.7199 34.0603 39.1483 32.3022 39.1483H29.244C28.4931 39.1483 27.8705 38.5257 27.8705 37.7749C27.8705 37.024 28.4931 36.4014 29.244 36.4014H32.3022C32.5586 36.4014 32.7601 36.1999 32.7601 35.9619C32.7601 35.6872 32.5586 35.4857 32.3022 35.4857ZM34.7379 44.6422H29.244C28.4931 44.6422 27.8705 44.0196 27.8705 43.2688C27.8705 42.5179 28.4931 41.8953 29.244 41.8953H34.7379C35.4887 41.8953 36.1113 42.5179 36.1113 43.2688C36.1113 44.0196 35.4887 44.6422 34.7379 44.6422ZM39.6091 32.7388H40.8544C42.6125 32.7388 44.0409 34.1672 44.0409 35.9252C44.0409 37.7199 42.6125 39.1483 40.8544 39.1483H37.7961C37.027 39.1483 36.4227 38.5257 36.4227 37.7749C36.4227 37.024 37.027 36.4014 37.7961 36.4014H40.8544C41.0925 36.4014 41.2939 36.1999 41.2939 35.9619C41.2939 35.6872 41.0925 35.4857 40.8544 35.4857H39.6091C37.8511 35.4857 36.4227 34.0573 36.4227 32.2993C36.4227 30.5046 37.8511 29.0762 39.6091 29.0762H42.6674C43.4365 29.0762 44.0409 29.6988 44.0409 30.4497C44.0409 31.2005 43.4365 31.8231 42.6674 31.8231H39.6091C39.3711 31.8231 39.1696 32.0246 39.1696 32.2626C39.1696 32.5373 39.3711 32.7388 39.6091 32.7388ZM54.8822 47.3892C54.8822 48.8707 54.3566 50.2185 53.5087 51.3063V57.9192C53.5087 58.3953 53.2615 58.8367 52.8586 59.0875C52.637 59.2249 52.3861 59.2926 52.1352 59.2926C51.9265 59.2926 51.7159 59.245 51.5217 59.148L48.4726 57.6243L45.4235 59.148C44.9986 59.3586 44.4932 59.3384 44.0885 59.0875C43.6838 58.8367 43.4384 58.3953 43.4384 57.9192V51.3063C42.5905 50.2204 42.0649 48.8707 42.0649 47.3892C42.0649 43.8548 44.94 40.9796 48.4745 40.9796C52.0089 40.9796 54.8822 43.8548 54.8822 47.3892Z" fill="#161C2D"/>
</svg>
