<svg width="79" height="79" viewBox="0 0 79 79" fill="none" xmlns="http://www.w3.org/2000/svg">
<rect opacity="0.1" width="79" height="79" rx="15" fill="#F64B4B"/>
<path fill-rule="evenodd" clip-rule="evenodd" d="M52.2812 52.1562H20.0312C19.75 52.1562 19.4688 51.9688 19.4688 51.5938V48.5938H16.5625C16.2812 48.5938 16 48.3125 16 48.0312V43.0625V34.9062V30.0312C16 29.75 16.2812 29.4688 16.5625 29.4688H21.5312H43.8438H48.8125H48.9062H49H49.0938V29.5625H49.1875V29.6562H49.2812V29.75V29.8438H49.375V29.9375V30.0312V33.125H52.2812C52.5625 33.125 52.8438 33.3125 52.8438 33.6875V51.5938C52.8438 51.9688 52.5625 52.1562 52.2812 52.1562ZM47.125 59.0938C43.9375 59.0938 40.75 58.25 38.0312 56.4688C37.75 56.2812 37.75 55.9062 37.8438 55.7188C38.0312 55.4375 38.4062 55.3438 38.6875 55.5312C41.2188 57.125 44.125 57.9688 47.125 57.9688C55.8438 57.9688 62.875 50.9375 62.875 42.3125C62.875 34.25 56.7812 27.6875 49.0938 26.6562L52.4688 28.4375C52.75 28.5312 52.8438 28.9062 52.6562 29.1875C52.5625 29.375 52.375 29.4688 52.1875 29.4688C52.0938 29.4688 52 29.4688 51.9062 29.4688L46.5625 26.6562C46.375 26.5625 46.1875 26.375 46.1875 26.1875C46.1875 26 46.375 25.8125 46.5625 25.625L51.9062 22.9062C52.1875 22.8125 52.5625 22.9062 52.6562 23.1875C52.8438 23.4688 52.75 23.8438 52.4688 23.9375L49.2812 25.5312C57.5312 26.6562 64 33.6875 64 42.3125C64 51.5938 56.4062 59.0938 47.125 59.0938ZM32.125 42.5938C31.0938 42.3125 30.3438 41.5625 30.3438 40.5312C30.3438 40.25 30.625 39.9688 30.9062 39.9688C31.2812 39.9688 31.5625 40.25 31.5625 40.5312C31.5625 40.9062 31.75 41.1875 32.125 41.375V39.5C31.0938 39.3125 30.3438 38.4688 30.3438 37.4375C30.3438 36.5 31.0938 35.6562 32.125 35.4688V35.0938C32.125 34.8125 32.4062 34.5312 32.6875 34.5312C32.9688 34.5312 33.25 34.8125 33.25 35.0938V35.4688C34.2812 35.6562 35.0312 36.5 35.0312 37.4375C35.0312 37.8125 34.75 38.0938 34.4688 38.0938C34.0938 38.0938 33.8125 37.8125 33.8125 37.4375C33.8125 37.1562 33.625 36.7812 33.25 36.6875V38.4688C34.2812 38.75 35.0312 39.5938 35.0312 40.5312C35.0312 41.5625 34.2812 42.3125 33.25 42.5938V42.875C33.25 43.25 32.9688 43.4375 32.6875 43.4375C32.4062 43.4375 32.125 43.25 32.125 42.875V42.5938ZM33.25 41.375C33.625 41.1875 33.8125 40.9062 33.8125 40.5312C33.8125 40.1562 33.625 39.875 33.25 39.6875V41.375ZM32.125 36.6875C31.75 36.7812 31.5625 37.1562 31.5625 37.4375C31.5625 37.8125 31.75 38.1875 32.125 38.2812V36.6875ZM32.6875 45.4062C29.2188 45.4062 26.3125 42.5 26.3125 39.0312C26.3125 35.4688 29.2188 32.6562 32.6875 32.6562C36.1562 32.6562 39.0625 35.4688 39.0625 39.0312C39.0625 42.5 36.1562 45.4062 32.6875 45.4062ZM32.6875 33.7812C29.7812 33.7812 27.4375 36.125 27.4375 39.0312C27.4375 41.8438 29.7812 44.1875 32.6875 44.1875C35.5938 44.1875 37.9375 41.8438 37.9375 39.0312C37.9375 36.125 35.5938 33.7812 32.6875 33.7812ZM17.125 42.5C19.75 42.7812 21.8125 44.8438 22 47.375H43.375C43.6562 44.8438 45.625 42.7812 48.25 42.5V35.4688C45.625 35.1875 43.6562 33.2188 43.375 30.5938H22C21.8125 33.2188 19.75 35.1875 17.125 35.4688V42.5ZM43.8438 48.5938H21.5312H20.5938V51.0312H51.7188V34.25H49.375V43.0625V48.0312V48.125V48.2188H49.2812V48.3125V48.4062H49.1875L49.0938 48.5H49L48.9062 48.5938H48.8125H43.8438ZM44.5 47.375H48.25V43.7188C46.2812 43.9062 44.7812 45.5 44.5 47.375ZM20.0312 47.375H20.875C20.5938 45.5 19.0938 43.9062 17.125 43.7188V47.375H20.0312ZM17.125 30.5938V34.3438C19.0938 34.0625 20.5938 32.5625 20.875 30.5938H17.125ZM44.5 30.5938C44.7812 32.5625 46.2812 34.0625 48.25 34.3438V30.5938H44.5Z" fill="#E33333"/>
<path fill-rule="evenodd" clip-rule="evenodd" d="M22 47.375H43.375C43.6562 44.8438 45.625 42.7812 48.25 42.5V35.4688C45.625 35.1875 43.6562 33.2188 43.375 30.5938H22C21.8125 33.2188 19.75 35.1875 17.125 35.4688V42.5C19.75 42.7812 21.8125 44.8438 22 47.375ZM39.0625 39.0312C39.0625 42.5 36.1562 45.4062 32.6875 45.4062C29.2188 45.4062 26.3125 42.5 26.3125 39.0312C26.3125 35.4688 29.2188 32.6562 32.6875 32.6562C36.1562 32.6562 39.0625 35.4688 39.0625 39.0312Z" fill="#F64B4B"/>
<path fill-rule="evenodd" clip-rule="evenodd" d="M43.8438 48.5938H20.5938V51.0312H51.7188V34.25H49.375V48.0312C49.375 48.3125 49.0938 48.5938 48.8125 48.5938H43.8438Z" fill="#F64B4B"/>
<path fill-rule="evenodd" clip-rule="evenodd" d="M48.25 43.7188C46.2812 43.9062 44.7812 45.5 44.5 47.375H48.25V43.7188ZM44.5 30.5938C44.7812 32.5625 46.2812 34.0625 48.25 34.3438V30.5938H44.5ZM17.125 34.3438C19.0938 34.0625 20.5938 32.5625 20.875 30.5938H17.125V34.3438ZM20.875 47.375C20.5938 45.5 19.0938 43.9062 17.125 43.7188V47.375H20.0312H20.875ZM27.4375 39.0312C27.4375 41.8438 29.7812 44.1875 32.6875 44.1875C35.5938 44.1875 37.9375 41.8438 37.9375 39.0312C37.9375 36.125 35.5938 33.7812 32.6875 33.7812C29.7812 33.7812 27.4375 36.125 27.4375 39.0312ZM32.125 42.5938C30.3438 42.125 29.875 39.9688 30.9062 39.9688C31.2812 39.9688 31.5625 40.25 31.5625 40.5312C31.5625 40.9062 31.75 41.1875 32.125 41.375V39.5C29.7812 38.9375 29.7812 35.9375 32.125 35.4688V35.0938C32.125 34.3438 33.25 34.3438 33.25 35.0938V35.4688C35.0312 35.8438 35.5 38.0938 34.4688 38.0938C34.0938 38.0938 33.8125 37.8125 33.8125 37.4375C33.8125 37.1562 33.625 36.7812 33.25 36.6875V38.4688C35.5938 39.0312 35.5938 42.0312 33.25 42.5938V42.875C33.25 43.625 32.125 43.625 32.125 42.875V42.5938Z" fill="#EAEAEA"/>
<path fill-rule="evenodd" clip-rule="evenodd" d="M33.25 39.6875V41.375C34 41 34 40.0625 33.25 39.6875ZM32.125 38.2812V36.6875C31.375 37.0625 31.375 37.9062 32.125 38.2812Z" fill="#EAEAEA"/>
</svg>
