<svg width="517" height="394" viewBox="0 0 517 394" fill="none" xmlns="http://www.w3.org/2000/svg">
<path d="M455.799 283.4C473.709 287.54 493.799 279.25 503.589 263.69C513.379 248.13 512.139 226.44 500.659 212.09C496.499 206.89 491.229 202.69 486.659 197.87C482.089 193.05 477.999 187.29 477.159 180.68C476.599 176.27 477.499 171.68 476.249 167.41C474.999 163.14 471.509 159.53 467.939 156.61C464.369 153.69 460.489 151.02 457.729 147.32C454.969 143.62 456.209 134.65 456.209 130.32L363.979 126.32C366.759 137.87 362.459 151.85 353.619 159.79C349.099 163.86 343.179 167.03 341.089 172.79C338.729 179.25 342.209 186.27 342.519 193.14C342.989 203.23 336.699 212.2 333.139 221.65C330.223 229.591 329.17 238.096 330.061 246.508C330.952 254.921 333.764 263.016 338.279 270.17C340.839 274.17 344.079 277.91 348.439 279.72C351.919 281.17 355.789 281.26 359.549 281.32C373.179 290.65 388.939 297.15 405.449 297.46C421.959 297.77 441.829 292.21 455.799 283.4Z" fill="#22213D"/>
<path d="M372.63 188.53L338.5 268.47L356.17 287.83V313.12C356.174 326.544 354.494 339.915 351.17 352.92L340.84 393.33H488.5L478.68 358.47C471.558 333.208 470.731 306.586 476.27 280.93L486.45 233.8C487.547 228.727 487.618 223.485 486.659 218.384C485.701 213.283 483.732 208.424 480.869 204.095C478.006 199.765 474.307 196.052 469.988 193.173C465.669 190.294 460.818 188.307 455.72 187.33L437.08 183.75L372.63 188.53Z" fill="#4F5B7B"/>
<path d="M355.762 324.49L368.702 338.49C371.78 341.825 375.576 344.418 379.802 346.074C384.028 347.73 388.575 348.405 393.1 348.049C397.625 347.692 402.01 346.314 405.925 344.018C409.84 341.721 413.183 338.566 415.702 334.79L479.072 240.17L386.692 330L355.762 324.49Z" fill="#2B2A47"/>
<path d="M461.422 362.5H420.172V370.25H461.422V362.5Z" fill="#807FA3"/>
<path d="M384.33 364.17C384.33 367.02 382.8 369.33 380.92 369.33C379.04 369.33 377.5 367.02 377.5 364.17C377.5 361.32 379 359 380.92 359C382.84 359 384.33 361.31 384.33 364.17Z" fill="#807FA3"/>
<path d="M437.08 183.75L399 251.87C396.461 256.41 394.857 261.411 394.28 266.58L389.66 308L380.59 264.72C379.431 259.194 379.489 253.482 380.76 247.98L394.81 186.88L437.08 183.75Z" fill="white"/>
<path d="M394.811 186.88L370.001 217.23C368.887 218.596 368.328 220.331 368.438 222.091C368.547 223.85 369.316 225.503 370.591 226.72L373.901 229.87L363.001 248.47C362.374 249.542 362.043 250.763 362.043 252.005C362.043 253.247 362.374 254.468 363.001 255.54L387.551 297.8L380.621 264.72C379.462 259.194 379.52 253.482 380.791 247.98L394.811 186.88Z" fill="#807FA3"/>
<path d="M437.081 183.75L399.001 251.87C396.462 256.41 394.858 261.411 394.281 266.58L390.801 297.8L420.801 257.69C422.351 255.62 423.34 253.184 423.671 250.619C424.002 248.053 423.665 245.446 422.691 243.05L418.631 233.05L430.681 224.56C432.646 223.176 434.249 221.339 435.356 219.206C436.463 217.072 437.041 214.704 437.041 212.3L437.081 183.75Z" fill="#807FA3"/>
<path d="M412.829 194.83L402.289 216.83L413.939 204L421.169 208.84L412.829 194.83Z" fill="#E4E4E0"/>
<path d="M398.5 200L402.42 203.75L402.29 216.83L398.5 205.17L389.66 209.29L390.65 204.96L397.01 198.4L398.5 200Z" fill="#E4E4E0"/>
<path d="M235.422 186.5C233.046 192.168 229.276 197.145 224.464 200.968C219.651 204.791 213.951 207.337 207.892 208.37L205.172 208.84L216.832 189.67L235.422 186.5Z" fill="#2B2A47"/>
<path d="M190.539 162.38C191.419 180.38 200.919 183.79 205.169 185.38L209.669 156.05L190.539 162.38Z" fill="#EBA588"/>
<path d="M209.741 136.21C208.296 135.933 206.809 135.955 205.373 136.275C203.937 136.594 202.581 137.206 201.391 138.07L186.791 148.66C185.752 149.413 185.051 150.544 184.841 151.81L183.781 158.29C183.643 159.118 183.722 159.967 184.009 160.756C184.297 161.544 184.783 162.245 185.421 162.79L187.231 164.34C187.973 164.977 188.89 165.376 189.862 165.485C190.834 165.594 191.816 165.407 192.681 164.95L209.681 156L211.181 139L209.741 136.21Z" fill="#EBA588"/>
<path d="M236.999 198.57L222.169 172L226.419 149.1C226.791 147.094 226.47 145.02 225.509 143.22L217.329 127.92C216.752 126.84 215.96 125.889 215.002 125.125C214.044 124.362 212.941 123.802 211.759 123.48L198.059 119.74C197.477 119.582 196.869 119.546 196.272 119.633C195.676 119.721 195.104 119.931 194.592 120.251C194.081 120.57 193.64 120.991 193.299 121.488C192.958 121.985 192.723 122.548 192.609 123.14C192.398 124.231 192.61 125.361 193.203 126.301C193.795 127.241 194.724 127.92 195.799 128.2L207.169 131.2L211.169 139.03L209.669 156.03L197.749 140.86C197.016 139.932 195.947 139.33 194.773 139.186C193.599 139.042 192.415 139.367 191.479 140.09C190.615 140.764 190.027 141.731 189.826 142.808C189.625 143.886 189.826 145 190.389 145.94L198.499 159.36C194.829 172.2 198.329 179.86 205.169 185.36L216.169 211.7C232.329 211.67 236.999 198.57 236.999 198.57Z" fill="#F0BF9C"/>
<path d="M210.18 201.13C218.705 198.111 226.136 192.617 231.52 185.35L237 198.57L232.8 212.92L216.14 211.67L210.18 201.13Z" fill="white"/>
<path d="M372.632 188.53C357.164 189.672 342.408 195.489 330.322 205.21L276.172 248.75L235.422 186.5C233.046 192.168 229.276 197.145 224.464 200.968C219.651 204.791 213.951 207.337 207.892 208.37L205.172 208.84L252.472 281C254.462 284.034 257.044 286.636 260.062 288.65C263.081 290.664 266.474 292.049 270.04 292.722C273.606 293.395 277.27 293.342 280.815 292.567C284.36 291.792 287.713 290.31 290.672 288.21L347.232 248L372.632 188.53Z" fill="#4F5B7B"/>
<path d="M288.902 268.2L276.172 248.75L278.252 247.07C290.002 248.5 288.902 268.2 288.902 268.2Z" fill="#2B2A47"/>
<path d="M347.231 248L364.001 208.84C341.541 224.33 341.001 243.42 343.211 250.91L347.231 248Z" fill="#2B2A47"/>
<path d="M398.5 162.5L401.33 188.17L398.5 200L402.42 203.75L402.29 216.83L412.83 194.83L431.5 176.5V156.17L398.5 162.5Z" fill="#F0BF9C"/>
<path d="M419.002 171.92C424.371 168.778 428.716 164.148 431.512 158.59V156.17L398.512 162.5L400.002 176C406.604 176.623 413.237 175.198 419.002 171.92Z" fill="#22213D"/>
<path d="M434.298 173.75L412.828 194.83L424.538 214.5L437.078 183.75L434.298 173.75Z" fill="white"/>
<path d="M398.499 200L388.289 189L400.319 179L401.329 188.17L398.499 200Z" fill="white"/>
<path d="M388.292 189L385.172 210.63L397.012 198.4L388.292 189Z" fill="#E4E4E0"/>
<path d="M316.171 231L315.941 232C314.655 237.561 312.208 242.787 308.761 247.337C305.315 251.886 300.946 255.656 295.941 258.4L294.211 259.35L300.581 239.14L316.171 231Z" fill="#2B2A47"/>
<path d="M320.001 242.83L309.831 231.83L305.711 198.06C305.574 196.941 305.063 195.902 304.261 195.11L291.891 182.86C291.075 182.051 290.005 181.547 288.861 181.434C287.717 181.321 286.57 181.606 285.611 182.24L273.421 190.3C273.027 190.563 272.69 190.902 272.429 191.297C272.167 191.693 271.987 192.136 271.899 192.601C271.81 193.066 271.815 193.545 271.914 194.008C272.012 194.471 272.201 194.911 272.471 195.3C272.98 196.027 273.741 196.538 274.606 196.734C275.472 196.929 276.379 196.796 277.151 196.36L287.331 190.62L291.831 195.45L281.321 197C280.128 197.174 279.025 197.733 278.18 198.592C277.335 199.452 276.794 200.564 276.641 201.76L273.591 226C273.464 227.017 273.623 228.049 274.05 228.98C274.478 229.911 275.157 230.704 276.011 231.27L279.781 233.77C280.837 234.468 282.105 234.774 283.363 234.635C284.622 234.497 285.792 233.922 286.671 233.01C288.671 238.01 295.171 240.89 295.171 240.89L307.421 258.76L320.001 242.83Z" fill="#F0BF9C"/>
<path d="M276.35 204.1L273.43 202.22C272.823 201.83 272.137 201.581 271.422 201.489C270.706 201.397 269.98 201.466 269.294 201.69C268.609 201.914 267.982 202.288 267.459 202.784C266.936 203.281 266.529 203.887 266.27 204.56C265.908 205.494 265.843 206.517 266.085 207.489C266.327 208.461 266.863 209.334 267.62 209.99L274.82 216.22L276.35 204.1Z" fill="#EBA588"/>
<path d="M299.078 248.66C305.367 245.502 310.549 240.508 313.938 234.34L319.998 242.83L307.418 258.75L299.078 248.66Z" fill="white"/>
<path d="M286.669 233L279.289 224.5C278.479 230.25 283.599 233.5 286.669 233Z" fill="#EBA588"/>
<path d="M442.281 209.27L378.831 289.67L316.171 231L315.941 232C314.655 237.561 312.208 242.787 308.761 247.337C305.315 251.886 300.946 255.656 295.941 258.4L294.211 259.35L358.871 327.76C361.629 330.669 364.961 332.975 368.656 334.532C372.351 336.088 376.328 336.862 380.337 336.804C384.346 336.745 388.299 335.857 391.947 334.193C395.595 332.53 398.858 330.128 401.531 327.14L479.101 240.14C481.222 237.765 482.849 234.992 483.888 231.983C484.927 228.973 485.356 225.787 485.151 222.609C484.947 219.432 484.112 216.327 482.695 213.475C481.279 210.624 479.309 208.083 476.901 206C474.448 203.865 471.586 202.251 468.49 201.256C465.394 200.261 462.127 199.906 458.89 200.212C455.652 200.517 452.51 201.478 449.655 203.035C446.8 204.592 444.291 206.714 442.281 209.27Z" fill="#4F5B7B"/>
<path d="M365.76 321.9L301.91 254.35C300.03 255.856 298.023 257.195 295.91 258.35L294.18 259.3L358.84 327.71C361.598 330.619 364.93 332.925 368.625 334.482C372.319 336.038 376.297 336.812 380.306 336.754C384.314 336.695 388.268 335.807 391.916 334.143C395.563 332.48 398.827 330.078 401.5 327.09L401.81 326.75C396.149 330.175 389.487 331.562 382.93 330.68C376.372 329.797 370.314 326.7 365.76 321.9Z" fill="#364670"/>
<path d="M394.538 304.37L378.828 289.67L380.248 287.87C391.788 287.12 393.908 296.74 394.538 304.37Z" fill="#2B2A47"/>
<path d="M368.231 111.64L370.231 137.96C370.897 146.876 374.91 155.211 381.464 161.292C388.019 167.374 396.63 170.752 405.571 170.75C414.225 170.751 422.579 167.585 429.06 161.851C435.54 156.117 439.699 148.209 440.751 139.62L443.961 113.42C444.623 108.072 444.141 102.643 442.544 97.4957C440.948 92.3481 438.275 87.5989 434.703 83.5634C431.131 79.5279 426.742 76.2984 421.826 74.0892C416.91 71.8801 411.58 70.7418 406.191 70.75C400.954 70.7478 395.772 71.8269 390.971 73.9197C386.17 76.0124 381.852 79.0739 378.289 82.9123C374.726 86.7507 371.993 91.2834 370.262 96.2266C368.532 101.17 367.84 106.417 368.231 111.64Z" fill="#F0BF9C"/>
<path d="M438.518 143C435.646 139.536 433.701 135.398 432.867 130.976C432.033 126.554 432.336 121.993 433.748 117.72C425.438 110.25 420.748 98.94 423.248 88.04C417.378 94.92 408.478 99.31 399.828 101.95C391.178 104.59 382.098 105.5 373.078 106.1C368.473 106.564 363.829 106.497 359.238 105.9C357.148 92.58 363.738 78.19 373.948 69.38C384.158 60.57 397.648 56.27 411.078 55.1C416.708 54.61 422.518 54.66 427.798 56.66C433.078 58.66 437.798 62.95 438.968 68.46C445.138 65.02 454.098 67.74 458.578 73.19C463.058 78.64 464.258 86.19 463.578 93.19C462.898 100.19 460.578 106.95 458.638 113.75C456.698 120.55 455.238 127.67 456.328 134.64L438.518 143Z" fill="#22213D"/>
<path d="M458.579 73.17C454.099 67.72 445.139 65 438.999 68.44C437.789 62.93 433.109 58.65 427.829 56.64C422.549 54.63 416.739 54.64 411.109 55.08C397.679 56.25 384.179 60.54 373.979 69.36C369.698 73.0927 366.162 77.6021 363.559 82.65C364.003 84.5644 364.929 86.3337 366.249 87.79C370.789 92.72 378.409 93.04 385.069 92.26C403.874 90.0087 421.496 81.9074 435.449 69.1C433.979 74.37 431.909 80.31 432.739 85.71C433.469 91.1915 436.162 96.2222 440.319 99.87C444.529 103.36 450.529 104.87 455.689 103.05C458.559 102.002 461.066 100.148 462.909 97.71C463.199 96.22 463.429 94.71 463.579 93.2C464.259 86.17 463.069 78.63 458.579 73.17Z" fill="#43415A"/>
<path d="M419.67 104.39H398.18C400.301 104.39 402.336 105.233 403.837 106.733C405.337 108.233 406.18 110.268 406.18 112.39V133.33C406.18 135.452 405.337 137.487 403.837 138.987C402.336 140.487 400.301 141.33 398.18 141.33H419.67C421.791 141.33 423.826 140.487 425.327 138.987C426.827 137.487 427.67 135.452 427.67 133.33V112.39C427.67 110.268 426.827 108.233 425.327 106.733C423.826 105.233 421.791 104.39 419.67 104.39Z" fill="#9C4B06"/>
<path d="M398.168 104.39H354.828C350.41 104.39 346.828 107.972 346.828 112.39V133.33C346.828 137.748 350.41 141.33 354.828 141.33H398.168C402.586 141.33 406.168 137.748 406.168 133.33V112.39C406.168 107.972 402.586 104.39 398.168 104.39Z" fill="#FF7500"/>
<path d="M355.792 116.38C354.831 116.377 353.91 115.994 353.232 115.313C352.553 114.633 352.172 113.711 352.172 112.75C352.172 111.789 352.553 110.867 353.232 110.187C353.91 109.506 354.831 109.123 355.792 109.12C356.754 109.123 357.676 109.506 358.356 110.186C359.036 110.866 359.419 111.788 359.422 112.75C359.419 113.712 359.036 114.634 358.356 115.314C357.676 115.994 356.754 116.377 355.792 116.38Z" fill="white"/>
<path d="M355.792 136.42C354.831 136.417 353.91 136.034 353.232 135.353C352.553 134.673 352.172 133.751 352.172 132.79V123.79C352.172 122.83 352.553 121.909 353.232 121.23C353.911 120.551 354.832 120.17 355.792 120.17C356.753 120.17 357.675 120.551 358.355 121.23C359.036 121.908 359.419 122.829 359.422 123.79V132.79C359.419 133.752 359.036 134.674 358.356 135.354C357.676 136.034 356.754 136.417 355.792 136.42Z" fill="white"/>
<path d="M457.89 128.19H423V117.53H459.33L457.89 128.19Z" fill="#402C49"/>
<path d="M439.08 131.7C439.975 130.257 441.179 129.03 442.606 128.11C444.033 127.19 445.647 126.599 447.33 126.38C449.022 126.196 450.731 126.462 452.287 127.15C453.842 127.839 455.189 128.925 456.19 130.3C457.498 132.295 458.084 134.676 457.85 137.05C457.291 141.687 454.966 145.931 451.36 148.9C449.563 150.304 447.351 151.074 445.07 151.09C443.937 151.082 442.82 150.819 441.802 150.321C440.784 149.822 439.891 149.101 439.19 148.21C438.011 146.323 437.339 144.163 437.24 141.94C436.943 139.782 437.027 137.589 437.49 135.46C437.819 134.131 438.356 132.862 439.08 131.7Z" fill="#F0BF9C"/>
<path d="M451.061 131.81C448.835 132.112 446.785 133.185 445.269 134.842C443.752 136.499 442.865 138.636 442.761 140.88C442.653 142.072 442.93 143.267 443.551 144.29C443.871 144.795 444.33 145.196 444.873 145.445C445.417 145.693 446.02 145.779 446.611 145.69C447.1 145.548 447.553 145.302 447.938 144.969C448.322 144.636 448.631 144.224 448.841 143.76C449.213 143.101 449.424 142.364 449.457 141.608C449.49 140.852 449.344 140.099 449.031 139.41C448.696 138.733 448.143 138.188 447.462 137.861C446.78 137.535 446.009 137.447 445.271 137.61C446.311 135.25 448.621 132.64 451.061 131.81Z" fill="#EBA588"/>
<path d="M414.918 147.75L383.078 148.52C384.567 151.363 386.815 153.738 389.573 155.38C392.33 157.021 395.489 157.866 398.698 157.82C405.108 157.71 411.748 153.32 414.918 147.75Z" fill="white"/>
<path d="M419.671 141.33H370.621C374.046 143.282 377.827 144.53 381.741 145C394.151 146.77 407.701 145.08 419.671 141.33Z" fill="#EBA588"/>
<path d="M174.172 97.9V86.5H130.172V34.33H122.502V86.5H103.672V97.9H79.1719V393.9H174.172V372.5H178.762V350.41H174.172V331H178.762V308.94H174.172V289.54H178.762V267.47H174.172V248.07H198.442V97.9H174.172ZM172.172 88.5V97.9H130.172V88.5H172.172ZM124.502 36.33H128.172V86.5H124.502V36.33ZM105.672 88.5H128.172V97.9H105.672V88.5ZM81.1719 99.9H128.172V106H81.1719V99.9ZM81.1719 108H128.172V145.17H81.1719V108ZM81.1719 147.17H128.172V149.77H81.1719V147.17ZM81.1719 151.77H128.172V183.2H81.1719V151.77ZM81.1719 185.2H128.172V187.8H81.1719V185.2ZM81.1719 189.8H128.172V221.23H81.1719V189.8ZM81.1719 223.23H128.172V225.83H81.1719V223.23ZM81.1719 227.83H128.172V259.26H81.1719V227.83ZM81.1719 261.26H128.172V263.87H81.1719V261.26ZM81.1719 265.87H128.172V297.3H81.1719V265.87ZM81.1719 299.3H128.172V301.9H81.1719V299.3ZM81.1719 303.9H128.172V335.33H81.1719V303.9ZM81.1719 337.33H128.172V339.93H81.1719V337.33ZM81.1719 341.93H128.172V373.36H81.1719V341.93ZM81.1719 375.36H128.172V378H81.1719V375.36ZM128.172 391.88H81.1719V380H128.172V391.88ZM172.172 391.88H130.172V380H172.172V391.88ZM172.172 377.96H130.172V375.36H172.172V377.96ZM176.762 352.41V370.48H172.172V373.36H130.172V341.93H172.172V352.41H176.762ZM172.172 339.93H130.172V337.33H172.172V339.93ZM176.762 310.93V329H172.172V335.32H130.172V303.9H172.172V310.9L176.762 310.93ZM172.172 301.93H130.172V299.33H172.172V301.93ZM176.762 269.5V287.57H172.172V297.33H130.172V265.87H172.172V269.47L176.762 269.5ZM172.172 263.9H130.172V261.29H172.172V263.9ZM196.442 246.1H172.172V259.29H130.172V227.83H196.442V246.1ZM196.442 225.86H130.172V223.26H196.442V225.86ZM196.442 221.26H130.172V189.8H196.442V221.26ZM196.442 187.83H130.172V185.23H196.442V187.83ZM196.442 183.23H130.172V151.77H196.442V183.23ZM196.442 149.8H130.172V147.2H196.442V149.8ZM196.442 145.2H130.172V108H196.442V145.2ZM130.172 106V99.9H196.442V106H130.172Z" fill="#FF7500"/>
<path opacity="0.6" d="M210.932 11.33H149.602C147.945 11.33 146.602 12.6731 146.602 14.33V51.82C146.602 53.4768 147.945 54.82 149.602 54.82H210.932C212.588 54.82 213.932 53.4768 213.932 51.82V14.33C213.932 12.6731 212.588 11.33 210.932 11.33Z" fill="#FF7500"/>
<path opacity="0.6" d="M250.6 44.67H204.27C202.613 44.67 201.27 46.0132 201.27 47.67V74.67C201.27 76.3269 202.613 77.67 204.27 77.67H250.6C252.256 77.67 253.6 76.3269 253.6 74.67V47.67C253.6 46.0132 252.256 44.67 250.6 44.67Z" fill="#FF7500"/>
<path d="M311.842 82.17H263.672V86H311.842V82.17Z" fill="white"/>
<path d="M290.922 92.29H263.672V96.12H290.922V92.29Z" fill="white"/>
<path d="M311.841 92.29H297.141V96.12H311.841V92.29Z" fill="white"/>
<path d="M274.292 102.42H263.672V106.25H274.292V102.42Z" fill="white"/>
<path d="M311.841 102.42H282.441V106.25H311.841V102.42Z" fill="white"/>
<path d="M323.529 133.02H286.789V136.85H323.529V133.02Z" fill="white"/>
<path d="M323.538 141.87H298.328V145.7H323.538V141.87Z" fill="white"/>
<path d="M323.529 169.8H286.789V173.63H323.529V169.8Z" fill="white"/>
<path d="M323.529 178.65H286.789V182.48H323.529V178.65Z" fill="white"/>
<path d="M323.538 187.5H298.328V191.33H323.538V187.5Z" fill="white"/>
<path d="M48.17 187.76H0V191.59H48.17V187.76Z" fill="#FF7500"/>
<path d="M48.1719 197.88H20.9219V201.71H48.1719V197.88Z" fill="#FF7500"/>
<path d="M14.7 197.88H0V201.71H14.7V197.88Z" fill="#FF7500"/>
<path d="M10.63 208.01H0V211.84H10.63V208.01Z" fill="#FF7500"/>
<path d="M48.1695 208.01H18.7695V211.84H48.1695V208.01Z" fill="#FF7500"/>
<path d="M31.25 218.26H0V222.09H31.25V218.26Z" fill="#FF7500"/>
<path d="M25.21 229.02H0V232.85H25.21V229.02Z" fill="#FF7500"/>
<path d="M36.74 250.45H0V254.28H36.74V250.45Z" fill="#FF7500"/>
<path d="M36.74 259.3H0V263.13H36.74V259.3Z" fill="#FF7500"/>
<path d="M25.21 268.16H0V271.99H25.21V268.16Z" fill="#FF7500"/>
<path d="M66.6719 379.27H55.9219V80.47H66.6719V82.47H57.9219V377.27H66.6719V379.27Z" fill="white"/>
<path d="M56.92 231.86H50.5V233.86H56.92V231.86Z" fill="white"/>
<path d="M324.672 269.47V246.07H290.002V224.5H256.172V184.33H250.672V224.5H241.922V184.33H236.422V224.5H207.922V246.07H172.172V269.47H176.762V287.54H172.172V310.94H176.762V329H172.172V352.4H176.762V370.47H172.172V393.87H324.672V370.47H320.072V352.41H324.672V329H320.072V310.94H324.672V287.54H320.072V269.47H324.672ZM322.672 248.07V267.47H266.942V248.07H322.672ZM288.002 246.07H257.422V232.75H288.002V246.07ZM257.422 226.5H288.002V230.75H257.422V226.5ZM252.672 186.33H254.172V224.5H252.672V186.33ZM238.422 186.33H239.922V224.5H238.422V186.33ZM209.922 226.5H255.422V230.75H209.922V226.5ZM209.922 232.75H255.422V246.07H209.922V232.75ZM174.172 267.47V248.07H264.942V267.47H174.172ZM178.762 269.47H264.942V287.54H178.762V269.47ZM174.172 308.94V289.54H264.942V308.94H174.172ZM178.762 310.94H264.942V329H178.762V310.94ZM174.172 350.41V331H264.942V350.4H174.172V350.41ZM178.762 352.41H264.942V370.48H178.762V352.41ZM264.942 391.88H174.172V372.48H264.942V391.88ZM322.672 372.48V391.88H266.942V372.48H322.672ZM318.072 370.48H266.942V352.41H318.072V370.48ZM322.672 331.01V350.41H266.942V331H322.672V331.01ZM318.072 329.01H266.942V310.94H318.072V329.01ZM322.672 289.54V308.94H266.942V289.54H322.672ZM318.072 287.54H266.942V269.47H318.072V287.54Z" fill="#717EA0"/>
<path opacity="0.2" d="M53.7119 36.33H42.1719V47.87H53.7119V36.33Z" fill="white"/>
<path opacity="0.2" d="M71.3719 47.88H64.4219V54.83H71.3719V47.88Z" fill="white"/>
<path opacity="0.2" d="M91.4219 27H82.9219V35.5H91.4219V27Z" fill="white"/>
<path opacity="0.2" d="M98.4919 42.1H94.6719V45.92H98.4919V42.1Z" fill="white"/>
<path opacity="0.2" d="M117.172 18.75H104.672V31.25H117.172V18.75Z" fill="white"/>
<path opacity="0.2" d="M35.3995 75.67H18.7695V92.3H35.3995V75.67Z" fill="white"/>
<path opacity="0.2" d="M22.5089 88.5H10.6289V100.38H22.5089V88.5Z" fill="white"/>
<path opacity="0.2" d="M31.66 133.02H22.5V142.18H31.66V133.02Z" fill="white"/>
<path opacity="0.2" d="M330.03 23H310.93V42.1H330.03V23Z" fill="white"/>
<path opacity="0.2" d="M350.821 35.5H342.301V44.02H350.821V35.5Z" fill="white"/>
<path opacity="0.2" d="M345.172 37.75H324.672V58.25H345.172V37.75Z" fill="white"/>
<path opacity="0.2" d="M380.121 4H370.621V13.5H380.121V4Z" fill="white"/>
<path opacity="0.2" d="M398.182 19H392.172V25.01H398.182V19Z" fill="white"/>
<path opacity="0.2" d="M446.002 0H434.672V11.33H446.002V0Z" fill="white"/>
<path opacity="0.2" d="M494.318 35.5H485.148V44.67H494.318V35.5Z" fill="white"/>
<path opacity="0.2" d="M509.882 128.29H494.172V144H509.882V128.29Z" fill="white"/>
<path opacity="0.2" d="M516.122 136.86H503.422V149.56H516.122V136.86Z" fill="white"/>
<path opacity="0.2" d="M508.19 114H502.02V120.17H508.19V114Z" fill="white"/>
<path opacity="0.2" d="M481.252 112.75H476.922V117.08H481.252V112.75Z" fill="white"/>
</svg>
