<svg width="123" height="53" viewBox="0 0 123 53" fill="none" xmlns="http://www.w3.org/2000/svg">
<rect width="121.941" height="52" rx="10" transform="matrix(1 0 0.00274287 0.999996 0.453125 0.46875)" fill="#FF7500"/>
<path d="M22.6565 32.4688V19.3467H28.0925C29.3765 19.3467 30.4625 19.6227 31.3505 20.1747C32.2505 20.7147 32.9285 21.4767 33.3845 22.4607C33.8525 23.4447 34.0865 24.5967 34.0865 25.9167C34.0865 26.8887 33.9545 27.7827 33.6905 28.5987C33.4265 29.4027 33.0365 30.0927 32.5205 30.6687C32.0165 31.2447 31.3925 31.6887 30.6485 32.0007C29.9045 32.3127 29.0525 32.4688 28.0925 32.4688H22.6565ZM25.0325 30.4167H27.7325C28.3085 30.4167 28.8365 30.3327 29.3165 30.1647C29.7965 29.9967 30.2105 29.7327 30.5585 29.3727C30.9065 29.0007 31.1765 28.5267 31.3685 27.9507C31.5605 27.3747 31.6565 26.6787 31.6565 25.8627C31.6565 24.7947 31.4885 23.9367 31.1525 23.2887C30.8165 22.6287 30.3545 22.1487 29.7665 21.8487C29.1905 21.5367 28.5125 21.3807 27.7325 21.3807H25.0325V30.4167ZM40.2195 32.6308C39.4995 32.6308 38.8515 32.5228 38.2755 32.3067C37.6995 32.0787 37.1955 31.7487 36.7635 31.3167C36.3435 30.8847 36.0195 30.3627 35.7915 29.7507C35.5755 29.1387 35.4675 28.4487 35.4675 27.6807C35.4675 26.6967 35.6535 25.8327 36.0255 25.0887C36.4095 24.3447 36.9555 23.7627 37.6635 23.3427C38.3715 22.9227 39.2235 22.7127 40.2195 22.7127C40.9275 22.7127 41.5695 22.8267 42.1455 23.0547C42.7215 23.2827 43.2135 23.6127 43.6215 24.0447C44.0415 24.4767 44.3655 24.9987 44.5935 25.6107C44.8215 26.2107 44.9355 26.9007 44.9355 27.6807C44.9355 28.6527 44.7435 29.5107 44.3595 30.2547C43.9875 30.9987 43.4475 31.5807 42.7395 32.0007C42.0435 32.4208 41.2035 32.6308 40.2195 32.6308ZM40.2015 30.7767C40.6935 30.7767 41.1255 30.6627 41.4975 30.4347C41.8695 30.1947 42.1575 29.8467 42.3615 29.3907C42.5655 28.9227 42.6675 28.3527 42.6675 27.6807C42.6675 27.1767 42.6075 26.7327 42.4875 26.3487C42.3795 25.9527 42.2175 25.6227 42.0015 25.3587C41.7855 25.0947 41.5275 24.8967 41.2275 24.7647C40.9275 24.6327 40.5915 24.5667 40.2195 24.5667C39.7275 24.5667 39.2895 24.6867 38.9055 24.9267C38.5335 25.1547 38.2455 25.5027 38.0415 25.9707C37.8375 26.4267 37.7355 26.9967 37.7355 27.6807C37.7355 28.1847 37.7895 28.6347 37.8975 29.0307C38.0175 29.4147 38.1855 29.7387 38.4015 30.0027C38.6175 30.2547 38.8755 30.4467 39.1755 30.5787C39.4875 30.7107 39.8295 30.7767 40.2015 30.7767ZM51.0828 32.6308C50.3628 32.6308 49.7148 32.5228 49.1388 32.3067C48.5628 32.0787 48.0588 31.7487 47.6268 31.3167C47.2068 30.8847 46.8828 30.3627 46.6548 29.7507C46.4388 29.1387 46.3308 28.4487 46.3308 27.6807C46.3308 26.6967 46.5168 25.8327 46.8888 25.0887C47.2728 24.3447 47.8188 23.7627 48.5268 23.3427C49.2348 22.9227 50.0868 22.7127 51.0828 22.7127C51.7908 22.7127 52.4328 22.8267 53.0088 23.0547C53.5848 23.2827 54.0768 23.6127 54.4848 24.0447C54.9048 24.4767 55.2288 24.9987 55.4568 25.6107C55.6848 26.2107 55.7988 26.9007 55.7988 27.6807C55.7988 28.6527 55.6068 29.5107 55.2227 30.2547C54.8508 30.9987 54.3108 31.5807 53.6028 32.0007C52.9068 32.4208 52.0668 32.6308 51.0828 32.6308ZM51.0648 30.7767C51.5568 30.7767 51.9888 30.6627 52.3608 30.4347C52.7328 30.1947 53.0208 29.8467 53.2248 29.3907C53.4288 28.9227 53.5308 28.3527 53.5308 27.6807C53.5308 27.1767 53.4708 26.7327 53.3508 26.3487C53.2428 25.9527 53.0808 25.6227 52.8648 25.3587C52.6488 25.0947 52.3908 24.8967 52.0908 24.7647C51.7908 24.6327 51.4548 24.5667 51.0828 24.5667C50.5908 24.5667 50.1528 24.6867 49.7688 24.9267C49.3968 25.1547 49.1088 25.5027 48.9048 25.9707C48.7008 26.4267 48.5988 26.9967 48.5988 27.6807C48.5988 28.1847 48.6528 28.6347 48.7608 29.0307C48.8808 29.4147 49.0488 29.7387 49.2648 30.0027C49.4808 30.2547 49.7388 30.4467 50.0388 30.5787C50.3508 30.7107 50.6928 30.7767 51.0648 30.7767ZM57.6123 32.4688V22.8927H59.7903L59.8623 24.7107H59.9703C60.2343 24.0387 60.6423 23.5407 61.1943 23.2168C61.7463 22.8807 62.3523 22.7127 63.0123 22.7127C63.7083 22.7127 64.3323 22.8807 64.8843 23.2168C65.4363 23.5527 65.8383 24.1167 66.0903 24.9087H66.2343C66.4863 24.1767 66.9063 23.6307 67.4943 23.2707C68.0823 22.8987 68.7483 22.7127 69.4923 22.7127C70.1283 22.7127 70.6923 22.8447 71.1843 23.1087C71.6883 23.3727 72.0843 23.7987 72.3723 24.3867C72.6603 24.9747 72.8043 25.7547 72.8043 26.7267V32.4688H70.5543V27.2127C70.5543 26.6127 70.4883 26.1207 70.3563 25.7367C70.2243 25.3407 70.0143 25.0467 69.7263 24.8547C69.4383 24.6627 69.0723 24.5667 68.6283 24.5667C68.1483 24.5667 67.7343 24.6867 67.3863 24.9267C67.0503 25.1667 66.7923 25.4847 66.6123 25.8807C66.4323 26.2767 66.3423 26.7147 66.3423 27.1947V32.4688H64.0743V27.2127C64.0743 26.6127 64.0083 26.1207 63.8763 25.7367C63.7443 25.3407 63.5343 25.0467 63.2463 24.8547C62.9703 24.6627 62.6103 24.5667 62.1663 24.5667C61.6863 24.5667 61.2723 24.6867 60.9243 24.9267C60.5883 25.1667 60.3243 25.4847 60.1323 25.8807C59.9523 26.2767 59.8623 26.7147 59.8623 27.1947V32.4688H57.6123Z" fill="white"/>
<path d="M81.5195 25.4688C80.9672 25.4687 80.5195 25.9165 80.5195 26.4687C80.5195 27.021 80.9672 27.4687 81.5195 27.4688L81.5195 25.4688ZM102.693 27.1759C103.084 26.7853 103.084 26.1522 102.693 25.7616L96.329 19.3977C95.9385 19.0072 95.3053 19.0072 94.9148 19.3977C94.5243 19.7882 94.5243 20.4214 94.9148 20.8119L100.572 26.4688L94.9148 32.1256C94.5243 32.5161 94.5243 33.1493 94.9148 33.5398C95.3053 33.9303 95.9385 33.9303 96.329 33.5398L102.693 27.1759ZM81.5195 26.4688C81.5195 27.4688 81.5196 27.4688 81.5197 27.4688C81.5198 27.4688 81.5199 27.4688 81.5201 27.4688C81.5203 27.4688 81.5205 27.4688 81.5208 27.4688C81.5211 27.4688 81.5214 27.4688 81.5218 27.4688C81.5222 27.4688 81.5226 27.4688 81.5231 27.4688C81.5236 27.4688 81.5241 27.4688 81.5246 27.4688C81.5252 27.4688 81.5258 27.4688 81.5265 27.4688C81.5271 27.4688 81.5278 27.4688 81.5286 27.4688C81.5294 27.4688 81.5302 27.4688 81.531 27.4688C81.5318 27.4688 81.5327 27.4688 81.5337 27.4688C81.5346 27.4688 81.5356 27.4688 81.5366 27.4688C81.5377 27.4688 81.5387 27.4688 81.5399 27.4688C81.541 27.4688 81.5422 27.4688 81.5434 27.4688C81.5446 27.4688 81.5459 27.4688 81.5472 27.4688C81.5485 27.4688 81.5498 27.4688 81.5512 27.4688C81.5526 27.4688 81.5541 27.4688 81.5556 27.4688C81.557 27.4688 81.5586 27.4688 81.5602 27.4688C81.5617 27.4688 81.5634 27.4688 81.565 27.4688C81.5667 27.4688 81.5684 27.4688 81.5702 27.4688C81.572 27.4688 81.5738 27.4688 81.5756 27.4688C81.5775 27.4688 81.5794 27.4688 81.5813 27.4688C81.5833 27.4688 81.5852 27.4688 81.5873 27.4688C81.5893 27.4688 81.5914 27.4688 81.5935 27.4688C81.5956 27.4688 81.5978 27.4688 81.6 27.4688C81.6022 27.4688 81.6045 27.4688 81.6068 27.4688C81.6091 27.4688 81.6114 27.4688 81.6138 27.4688C81.6162 27.4688 81.6186 27.4688 81.6211 27.4688C81.6236 27.4688 81.6261 27.4688 81.6287 27.4688C81.6312 27.4688 81.6338 27.4688 81.6365 27.4688C81.6392 27.4688 81.6419 27.4688 81.6446 27.4688C81.6473 27.4688 81.6501 27.4688 81.653 27.4688C81.6558 27.4688 81.6587 27.4688 81.6616 27.4688C81.6645 27.4688 81.6674 27.4688 81.6704 27.4688C81.6734 27.4688 81.6765 27.4688 81.6796 27.4688C81.6827 27.4688 81.6858 27.4688 81.689 27.4688C81.6922 27.4688 81.6954 27.4688 81.6986 27.4688C81.7019 27.4688 81.7052 27.4688 81.7086 27.4688C81.7119 27.4688 81.7153 27.4688 81.7187 27.4688C81.7222 27.4688 81.7256 27.4688 81.7292 27.4688C81.7327 27.4688 81.7362 27.4688 81.7398 27.4688C81.7435 27.4688 81.7471 27.4688 81.7508 27.4688C81.7545 27.4688 81.7582 27.4688 81.762 27.4688C81.7658 27.4688 81.7696 27.4688 81.7734 27.4688C81.7773 27.4688 81.7812 27.4688 81.7851 27.4688C81.7891 27.4688 81.7931 27.4688 81.7971 27.4688C81.8011 27.4688 81.8052 27.4688 81.8093 27.4688C81.8134 27.4688 81.8176 27.4688 81.8218 27.4688C81.8259 27.4688 81.8302 27.4688 81.8345 27.4688C81.8387 27.4688 81.8431 27.4688 81.8474 27.4688C81.8518 27.4688 81.8562 27.4688 81.8606 27.4688C81.8651 27.4688 81.8695 27.4688 81.8741 27.4688C81.8786 27.4688 81.8832 27.4688 81.8878 27.4688C81.8924 27.4688 81.897 27.4688 81.9017 27.4688C81.9064 27.4688 81.9111 27.4688 81.9159 27.4688C81.9207 27.4688 81.9255 27.4688 81.9303 27.4688C81.9352 27.4688 81.9401 27.4688 81.945 27.4688C81.9499 27.4688 81.9549 27.4688 81.9599 27.4688C81.9649 27.4688 81.97 27.4688 81.9751 27.4688C81.9802 27.4688 81.9853 27.4688 81.9905 27.4688C81.9957 27.4688 82.0009 27.4688 82.0061 27.4688C82.0114 27.4688 82.0167 27.4688 82.022 27.4688C82.0274 27.4688 82.0327 27.4688 82.0382 27.4688C82.0436 27.4688 82.049 27.4688 82.0545 27.4688C82.06 27.4688 82.0655 27.4688 82.0711 27.4688C82.0767 27.4688 82.0823 27.4688 82.088 27.4688C82.0936 27.4688 82.0993 27.4688 82.105 27.4688C82.1108 27.4688 82.1165 27.4688 82.1223 27.4688C82.1282 27.4688 82.134 27.4688 82.1399 27.4688C82.1458 27.4688 82.1517 27.4688 82.1577 27.4688C82.1636 27.4688 82.1696 27.4688 82.1757 27.4688C82.1817 27.4688 82.1878 27.4688 82.1939 27.4688C82.2 27.4688 82.2062 27.4688 82.2124 27.4688C82.2186 27.4688 82.2248 27.4688 82.2311 27.4688C82.2374 27.4688 82.2437 27.4688 82.25 27.4688C82.2564 27.4688 82.2628 27.4688 82.2692 27.4688C82.2756 27.4688 82.2821 27.4688 82.2886 27.4688C82.2951 27.4688 82.3016 27.4688 82.3082 27.4688C82.3148 27.4688 82.3214 27.4688 82.3281 27.4688C82.3347 27.4688 82.3414 27.4688 82.3482 27.4688C82.3549 27.4688 82.3617 27.4688 82.3685 27.4688C82.3753 27.4688 82.3821 27.4688 82.389 27.4688C82.3959 27.4688 82.4028 27.4688 82.4097 27.4688C82.4167 27.4688 82.4237 27.4688 82.4307 27.4688C82.4377 27.4688 82.4448 27.4688 82.4519 27.4688C82.459 27.4688 82.4661 27.4688 82.4733 27.4688C82.4805 27.4688 82.4877 27.4688 82.495 27.4688C82.5022 27.4688 82.5095 27.4688 82.5168 27.4688C82.5241 27.4688 82.5315 27.4688 82.5389 27.4688C82.5463 27.4688 82.5537 27.4688 82.5612 27.4688C82.5687 27.4688 82.5762 27.4688 82.5837 27.4688C82.5913 27.4688 82.5988 27.4688 82.6065 27.4688C82.6141 27.4688 82.6217 27.4688 82.6294 27.4688C82.6371 27.4688 82.6448 27.4688 82.6526 27.4688C82.6603 27.4688 82.6681 27.4688 82.676 27.4688C82.6838 27.4688 82.6916 27.4688 82.6995 27.4688C82.7074 27.4688 82.7154 27.4688 82.7234 27.4688C82.7313 27.4688 82.7393 27.4688 82.7474 27.4688C82.7554 27.4688 82.7635 27.4688 82.7716 27.4688C82.7797 27.4688 82.7879 27.4688 82.7961 27.4688C82.8042 27.4688 82.8125 27.4688 82.8207 27.4688C82.829 27.4688 82.8373 27.4688 82.8456 27.4688C82.8539 27.4688 82.8623 27.4688 82.8707 27.4688C82.879 27.4688 82.8875 27.4688 82.8959 27.4688C82.9044 27.4688 82.9129 27.4688 82.9214 27.4688C82.93 27.4688 82.9385 27.4688 82.9471 27.4688C82.9557 27.4688 82.9644 27.4688 82.973 27.4688C82.9817 27.4688 82.9904 27.4688 82.9991 27.4688C83.0079 27.4688 83.0166 27.4688 83.0254 27.4688C83.0342 27.4688 83.0431 27.4688 83.052 27.4688C83.0608 27.4688 83.0697 27.4688 83.0787 27.4688C83.0876 27.4688 83.0966 27.4688 83.1056 27.4688C83.1146 27.4688 83.1236 27.4688 83.1327 27.4688C83.1418 27.4688 83.1509 27.4688 83.16 27.4688C83.1692 27.4688 83.1784 27.4688 83.1876 27.4688C83.1968 27.4688 83.206 27.4688 83.2153 27.4688C83.2246 27.4688 83.2339 27.4688 83.2432 27.4688C83.2525 27.4688 83.2619 27.4688 83.2713 27.4688C83.2807 27.4688 83.2902 27.4688 83.2996 27.4688C83.3091 27.4688 83.3186 27.4688 83.3281 27.4688C83.3377 27.4688 83.3473 27.4688 83.3569 27.4688C83.3665 27.4688 83.3761 27.4688 83.3858 27.4688C83.3954 27.4688 83.4051 27.4688 83.4148 27.4688C83.4246 27.4688 83.4343 27.4688 83.4441 27.4688C83.4539 27.4688 83.4638 27.4688 83.4736 27.4688C83.4835 27.4688 83.4934 27.4688 83.5033 27.4688C83.5132 27.4688 83.5232 27.4688 83.5331 27.4688C83.5431 27.4688 83.5531 27.4688 83.5632 27.4688C83.5732 27.4688 83.5833 27.4688 83.5934 27.4688C83.6035 27.4688 83.6137 27.4688 83.6239 27.4688C83.634 27.4688 83.6442 27.4688 83.6545 27.4688C83.6647 27.4688 83.675 27.4688 83.6853 27.4688C83.6956 27.4688 83.7059 27.4688 83.7163 27.4688C83.7266 27.4688 83.737 27.4688 83.7475 27.4688C83.7579 27.4688 83.7683 27.4688 83.7788 27.4688C83.7893 27.4688 83.7998 27.4688 83.8104 27.4688C83.8209 27.4688 83.8315 27.4688 83.8421 27.4688C83.8527 27.4688 83.8633 27.4688 83.874 27.4688C83.8847 27.4688 83.8954 27.4688 83.9061 27.4688C83.9168 27.4688 83.9276 27.4688 83.9384 27.4688C83.9491 27.4688 83.96 27.4688 83.9708 27.4688C83.9817 27.4688 83.9925 27.4688 84.0034 27.4688C84.0144 27.4688 84.0253 27.4688 84.0363 27.4688C84.0472 27.4688 84.0582 27.4688 84.0692 27.4688C84.0803 27.4688 84.0913 27.4688 84.1024 27.4688C84.1135 27.4688 84.1246 27.4688 84.1357 27.4688C84.1469 27.4688 84.1581 27.4688 84.1693 27.4688C84.1805 27.4688 84.1917 27.4688 84.203 27.4688C84.2142 27.4688 84.2255 27.4688 84.2368 27.4688C84.2481 27.4688 84.2595 27.4688 84.2709 27.4688C84.2822 27.4688 84.2936 27.4688 84.3051 27.4688C84.3165 27.4688 84.328 27.4688 84.3395 27.4688C84.351 27.4688 84.3625 27.4688 84.374 27.4688C84.3856 27.4688 84.3971 27.4688 84.4087 27.4688C84.4203 27.4688 84.432 27.4688 84.4436 27.4688C84.4553 27.4688 84.467 27.4688 84.4787 27.4688C84.4904 27.4688 84.5022 27.4688 84.5139 27.4688C84.5257 27.4688 84.5375 27.4688 84.5493 27.4688C84.5612 27.4688 84.573 27.4688 84.5849 27.4688C84.5968 27.4688 84.6087 27.4688 84.6206 27.4688C84.6326 27.4688 84.6445 27.4688 84.6565 27.4688C84.6685 27.4688 84.6805 27.4688 84.6926 27.4688C84.7046 27.4688 84.7167 27.4688 84.7288 27.4688C84.7409 27.4688 84.753 27.4688 84.7652 27.4688C84.7774 27.4688 84.7895 27.4688 84.8017 27.4688C84.814 27.4688 84.8262 27.4688 84.8385 27.4688C84.8507 27.4688 84.863 27.4688 84.8753 27.4688C84.8876 27.4688 84.9 27.4688 84.9124 27.4688C84.9247 27.4688 84.9371 27.4688 84.9495 27.4688C84.962 27.4688 84.9744 27.4688 84.9869 27.4688C84.9994 27.4688 85.0119 27.4688 85.0244 27.4688C85.0369 27.4688 85.0495 27.4688 85.0621 27.4688C85.0746 27.4688 85.0872 27.4688 85.0999 27.4688C85.1125 27.4688 85.1252 27.4688 85.1378 27.4688C85.1505 27.4688 85.1632 27.4688 85.176 27.4688C85.1887 27.4688 85.2015 27.4688 85.2143 27.4688C85.227 27.4688 85.2398 27.4688 85.2527 27.4688C85.2655 27.4688 85.2784 27.4688 85.2913 27.4688C85.3042 27.4688 85.3171 27.4688 85.33 27.4688C85.3429 27.4688 85.3559 27.4688 85.3689 27.4688C85.3819 27.4688 85.3949 27.4688 85.4079 27.4688C85.421 27.4688 85.434 27.4688 85.4471 27.4688C85.4602 27.4688 85.4733 27.4688 85.4865 27.4688C85.4996 27.4688 85.5127 27.4688 85.5259 27.4688C85.5391 27.4688 85.5523 27.4688 85.5656 27.4688C85.5788 27.4688 85.5921 27.4688 85.6053 27.4688C85.6186 27.4688 85.6319 27.4688 85.6453 27.4688C85.6586 27.4688 85.6719 27.4688 85.6853 27.4688C85.6987 27.4688 85.7121 27.4688 85.7255 27.4688C85.739 27.4688 85.7524 27.4688 85.7659 27.4688C85.7794 27.4688 85.7929 27.4688 85.8064 27.4688C85.8199 27.4688 85.8334 27.4688 85.847 27.4688C85.8606 27.4688 85.8742 27.4688 85.8878 27.4688C85.9014 27.4688 85.915 27.4688 85.9287 27.4688C85.9424 27.4688 85.956 27.4688 85.9698 27.4688C85.9835 27.4688 85.9972 27.4688 86.0109 27.4688C86.0247 27.4688 86.0385 27.4688 86.0523 27.4688C86.0661 27.4688 86.0799 27.4688 86.0937 27.4688C86.1076 27.4688 86.1215 27.4688 86.1354 27.4688C86.1492 27.4688 86.1632 27.4688 86.1771 27.4688C86.191 27.4688 86.205 27.4688 86.219 27.4688C86.2329 27.4688 86.247 27.4688 86.261 27.4688C86.275 27.4688 86.289 27.4688 86.3031 27.4688C86.3172 27.4688 86.3313 27.4688 86.3454 27.4688C86.3595 27.4688 86.3736 27.4688 86.3878 27.4688C86.402 27.4688 86.4161 27.4688 86.4303 27.4688C86.4445 27.4688 86.4588 27.4688 86.473 27.4688C86.4872 27.4688 86.5015 27.4688 86.5158 27.4688C86.5301 27.4688 86.5444 27.4688 86.5587 27.4688C86.573 27.4688 86.5874 27.4688 86.6018 27.4688C86.6161 27.4688 86.6305 27.4688 86.645 27.4688C86.6594 27.4688 86.6738 27.4688 86.6883 27.4688C86.7027 27.4688 86.7172 27.4688 86.7317 27.4688C86.7462 27.4688 86.7607 27.4688 86.7752 27.4688C86.7898 27.4688 86.8043 27.4688 86.8189 27.4688C86.8335 27.4688 86.8481 27.4688 86.8627 27.4688C86.8773 27.4688 86.892 27.4688 86.9067 27.4688C86.9213 27.4688 86.936 27.4688 86.9507 27.4688C86.9654 27.4688 86.9801 27.4688 86.9949 27.4688C87.0096 27.4688 87.0244 27.4688 87.0392 27.4688C87.0539 27.4688 87.0687 27.4688 87.0836 27.4688C87.0984 27.4688 87.1132 27.4688 87.1281 27.4688C87.143 27.4688 87.1578 27.4688 87.1727 27.4688C87.1876 27.4688 87.2026 27.4688 87.2175 27.4688C87.2324 27.4688 87.2474 27.4688 87.2624 27.4688C87.2774 27.4688 87.2924 27.4688 87.3074 27.4688C87.3224 27.4688 87.3374 27.4688 87.3525 27.4688C87.3675 27.4688 87.3826 27.4688 87.3977 27.4688C87.4128 27.4688 87.4279 27.4688 87.443 27.4688C87.4582 27.4688 87.4733 27.4688 87.4885 27.4688C87.5037 27.4688 87.5189 27.4688 87.5341 27.4688C87.5493 27.4688 87.5645 27.4688 87.5797 27.4688C87.595 27.4688 87.6102 27.4688 87.6255 27.4688C87.6408 27.4688 87.6561 27.4688 87.6714 27.4688C87.6867 27.4688 87.7021 27.4688 87.7174 27.4688C87.7328 27.4688 87.7481 27.4688 87.7635 27.4688C87.7789 27.4688 87.7943 27.4688 87.8097 27.4688C87.8252 27.4688 87.8406 27.4688 87.8561 27.4688C87.8715 27.4688 87.887 27.4688 87.9025 27.4688C87.918 27.4688 87.9335 27.4688 87.949 27.4688C87.9646 27.4688 87.9801 27.4688 87.9957 27.4688C88.0112 27.4688 88.0268 27.4688 88.0424 27.4688C88.058 27.4688 88.0736 27.4688 88.0893 27.4688C88.1049 27.4688 88.1205 27.4688 88.1362 27.4688C88.1519 27.4688 88.1676 27.4688 88.1833 27.4688C88.199 27.4688 88.2147 27.4688 88.2304 27.4688C88.2461 27.4688 88.2619 27.4688 88.2777 27.4688C88.2934 27.4688 88.3092 27.4688 88.325 27.4688C88.3408 27.4688 88.3566 27.4688 88.3725 27.4688C88.3883 27.4688 88.4041 27.4688 88.42 27.4688C88.4359 27.4688 88.4517 27.4688 88.4676 27.4688C88.4835 27.4688 88.4994 27.4688 88.5154 27.4688C88.5313 27.4688 88.5472 27.4688 88.5632 27.4688C88.5792 27.4688 88.5951 27.4688 88.6111 27.4688C88.6271 27.4688 88.6431 27.4688 88.6592 27.4688C88.6752 27.4688 88.6912 27.4688 88.7073 27.4688C88.7233 27.4688 88.7394 27.4688 88.7555 27.4688C88.7716 27.4688 88.7877 27.4688 88.8038 27.4688C88.8199 27.4688 88.836 27.4688 88.8522 27.4688C88.8683 27.4688 88.8845 27.4688 88.9006 27.4688C88.9168 27.4688 88.933 27.4688 88.9492 27.4688C88.9654 27.4688 88.9816 27.4688 88.9979 27.4688C89.0141 27.4688 89.0303 27.4688 89.0466 27.4688C89.0629 27.4688 89.0791 27.4688 89.0954 27.4688C89.1117 27.4688 89.128 27.4688 89.1444 27.4688C89.1607 27.4688 89.177 27.4688 89.1934 27.4688C89.2097 27.4688 89.2261 27.4688 89.2424 27.4688C89.2588 27.4688 89.2752 27.4688 89.2916 27.4688C89.308 27.4688 89.3244 27.4688 89.3409 27.4688C89.3573 27.4688 89.3737 27.4688 89.3902 27.4688C89.4067 27.4688 89.4231 27.4688 89.4396 27.4688C89.4561 27.4688 89.4726 27.4688 89.4891 27.4688C89.5056 27.4688 89.5222 27.4688 89.5387 27.4688C89.5552 27.4688 89.5718 27.4688 89.5884 27.4688C89.6049 27.4688 89.6215 27.4688 89.6381 27.4688C89.6547 27.4688 89.6713 27.4688 89.6879 27.4688C89.7045 27.4688 89.7212 27.4688 89.7378 27.4688C89.7544 27.4688 89.7711 27.4688 89.7878 27.4688C89.8044 27.4688 89.8211 27.4688 89.8378 27.4688C89.8545 27.4688 89.8712 27.4688 89.8879 27.4688C89.9046 27.4688 89.9214 27.4688 89.9381 27.4688C89.9549 27.4688 89.9716 27.4688 89.9884 27.4688C90.0052 27.4688 90.0219 27.4688 90.0387 27.4688C90.0555 27.4688 90.0723 27.4688 90.0891 27.4688C90.106 27.4688 90.1228 27.4688 90.1396 27.4688C90.1565 27.4688 90.1733 27.4688 90.1902 27.4688C90.207 27.4688 90.2239 27.4688 90.2408 27.4688C90.2577 27.4688 90.2746 27.4688 90.2915 27.4688C90.3084 27.4688 90.3253 27.4688 90.3422 27.4688C90.3592 27.4688 90.3761 27.4688 90.3931 27.4688C90.41 27.4688 90.427 27.4688 90.444 27.4688C90.4609 27.4688 90.4779 27.4688 90.4949 27.4688C90.5119 27.4688 90.5289 27.4688 90.5459 27.4688C90.5629 27.4688 90.58 27.4688 90.597 27.4688C90.6141 27.4688 90.6311 27.4688 90.6482 27.4688C90.6652 27.4688 90.6823 27.4688 90.6994 27.4688C90.7165 27.4688 90.7335 27.4688 90.7507 27.4688C90.7678 27.4688 90.7849 27.4688 90.802 27.4688C90.8191 27.4688 90.8362 27.4688 90.8534 27.4688C90.8705 27.4688 90.8877 27.4688 90.9048 27.4688C90.922 27.4688 90.9392 27.4688 90.9563 27.4688C90.9735 27.4688 90.9907 27.4688 91.0079 27.4688C91.0251 27.4688 91.0423 27.4688 91.0596 27.4688C91.0768 27.4688 91.094 27.4688 91.1112 27.4688C91.1285 27.4688 91.1457 27.4688 91.163 27.4688C91.1802 27.4688 91.1975 27.4688 91.2148 27.4688C91.232 27.4688 91.2493 27.4688 91.2666 27.4688C91.2839 27.4688 91.3012 27.4688 91.3185 27.4688C91.3358 27.4688 91.3532 27.4688 91.3705 27.4688C91.3878 27.4688 91.4052 27.4688 91.4225 27.4688C91.4398 27.4688 91.4572 27.4688 91.4746 27.4688C91.4919 27.4688 91.5093 27.4688 91.5267 27.4688C91.544 27.4688 91.5614 27.4688 91.5788 27.4688C91.5962 27.4688 91.6136 27.4688 91.631 27.4688C91.6485 27.4688 91.6659 27.4688 91.6833 27.4688C91.7007 27.4688 91.7182 27.4688 91.7356 27.4688C91.753 27.4688 91.7705 27.4688 91.788 27.4688C91.8054 27.4688 91.8229 27.4688 91.8404 27.4688C91.8578 27.4688 91.8753 27.4688 91.8928 27.4688C91.9103 27.4688 91.9278 27.4688 91.9453 27.4688C91.9628 27.4688 91.9803 27.4688 91.9978 27.4688C92.0153 27.4688 92.0329 27.4688 92.0504 27.4688C92.0679 27.4688 92.0855 27.4688 92.103 27.4688C92.1206 27.4688 92.1381 27.4688 92.1557 27.4688C92.1732 27.4688 92.1908 27.4688 92.2084 27.4688C92.2259 27.4688 92.2435 27.4688 92.2611 27.4688C92.2787 27.4688 92.2963 27.4688 92.3139 27.4688C92.3315 27.4688 92.3491 27.4688 92.3667 27.4688C92.3843 27.4688 92.4019 27.4688 92.4196 27.4688C92.4372 27.4688 92.4548 27.4688 92.4725 27.4688C92.4901 27.4688 92.5077 27.4688 92.5254 27.4688C92.543 27.4688 92.5607 27.4688 92.5783 27.4688C92.596 27.4688 92.6137 27.4688 92.6313 27.4688C92.649 27.4688 92.6667 27.4688 92.6844 27.4688C92.7021 27.4688 92.7197 27.4688 92.7374 27.4688C92.7551 27.4688 92.7728 27.4688 92.7905 27.4688C92.8082 27.4688 92.8259 27.4688 92.8437 27.4688C92.8614 27.4688 92.8791 27.4688 92.8968 27.4688C92.9145 27.4688 92.9323 27.4688 92.95 27.4688C92.9677 27.4688 92.9855 27.4688 93.0032 27.4688C93.021 27.4688 93.0387 27.4688 93.0565 27.4688C93.0742 27.4688 93.092 27.4688 93.1098 27.4688C93.1275 27.4688 93.1453 27.4688 93.1631 27.4688C93.1808 27.4688 93.1986 27.4688 93.2164 27.4688C93.2342 27.4688 93.252 27.4688 93.2697 27.4688C93.2875 27.4688 93.3053 27.4688 93.3231 27.4688C93.3409 27.4688 93.3587 27.4688 93.3765 27.4688C93.3943 27.4688 93.4121 27.4688 93.4299 27.4688C93.4478 27.4688 93.4656 27.4688 93.4834 27.4688C93.5012 27.4688 93.519 27.4688 93.5369 27.4688C93.5547 27.4688 93.5725 27.4688 93.5904 27.4688C93.6082 27.4688 93.626 27.4688 93.6439 27.4688C93.6617 27.4688 93.6796 27.4688 93.6974 27.4688C93.7152 27.4688 93.7331 27.4688 93.7509 27.4688C93.7688 27.4688 93.7867 27.4688 93.8045 27.4688C93.8224 27.4688 93.8402 27.4688 93.8581 27.4688C93.876 27.4688 93.8938 27.4688 93.9117 27.4688C93.9296 27.4688 93.9474 27.4688 93.9653 27.4688C93.9832 27.4688 94.0011 27.4688 94.019 27.4688C94.0368 27.4688 94.0547 27.4688 94.0726 27.4688C94.0905 27.4688 94.1084 27.4688 94.1263 27.4688C94.1441 27.4688 94.162 27.4688 94.1799 27.4688C94.1978 27.4688 94.2157 27.4688 94.2336 27.4688C94.2515 27.4688 94.2694 27.4688 94.2873 27.4688C94.3052 27.4688 94.3231 27.4688 94.341 27.4688C94.3589 27.4688 94.3768 27.4688 94.3947 27.4688C94.4126 27.4688 94.4305 27.4688 94.4485 27.4688C94.4664 27.4688 94.4843 27.4688 94.5022 27.4688C94.5201 27.4688 94.538 27.4688 94.5559 27.4688C94.5738 27.4688 94.5918 27.4688 94.6097 27.4688C94.6276 27.4688 94.6455 27.4688 94.6634 27.4688C94.6813 27.4688 94.6993 27.4688 94.7172 27.4688C94.7351 27.4688 94.753 27.4688 94.7709 27.4688C94.7889 27.4688 94.8068 27.4688 94.8247 27.4688C94.8426 27.4688 94.8605 27.4688 94.8785 27.4688C94.8964 27.4688 94.9143 27.4688 94.9322 27.4688C94.9502 27.4688 94.9681 27.4688 94.986 27.4688C95.0039 27.4688 95.0219 27.4688 95.0398 27.4688C95.0577 27.4688 95.0756 27.4688 95.0936 27.4688C95.1115 27.4688 95.1294 27.4688 95.1473 27.4688C95.1652 27.4688 95.1832 27.4688 95.2011 27.4688C95.219 27.4688 95.2369 27.4688 95.2549 27.4688C95.2728 27.4688 95.2907 27.4688 95.3086 27.4688C95.3265 27.4688 95.3445 27.4688 95.3624 27.4688C95.3803 27.4688 95.3982 27.4688 95.4161 27.4688C95.434 27.4688 95.452 27.4688 95.4699 27.4688C95.4878 27.4688 95.5057 27.4688 95.5236 27.4688C95.5415 27.4688 95.5594 27.4688 95.5774 27.4688C95.5953 27.4688 95.6132 27.4688 95.6311 27.4688C95.649 27.4688 95.6669 27.4688 95.6848 27.4688C95.7027 27.4688 95.7206 27.4688 95.7385 27.4688C95.7564 27.4688 95.7743 27.4688 95.7922 27.4688C95.8101 27.4688 95.828 27.4688 95.8459 27.4688C95.8638 27.4688 95.8817 27.4688 95.8996 27.4688C95.9175 27.4688 95.9354 27.4688 95.9532 27.4688C95.9711 27.4688 95.989 27.4688 96.0069 27.4688C96.0248 27.4688 96.0426 27.4688 96.0605 27.4688C96.0784 27.4688 96.0963 27.4688 96.1141 27.4688C96.132 27.4688 96.1499 27.4688 96.1678 27.4688C96.1856 27.4688 96.2035 27.4688 96.2213 27.4688C96.2392 27.4688 96.2571 27.4688 96.2749 27.4688C96.2928 27.4688 96.3106 27.4688 96.3285 27.4688C96.3463 27.4688 96.3642 27.4688 96.382 27.4688C96.3999 27.4688 96.4177 27.4688 96.4355 27.4688C96.4534 27.4688 96.4712 27.4688 96.489 27.4688C96.5069 27.4688 96.5247 27.4688 96.5425 27.4688C96.5603 27.4688 96.5781 27.4688 96.596 27.4688C96.6138 27.4688 96.6316 27.4688 96.6494 27.4688C96.6672 27.4688 96.685 27.4688 96.7028 27.4688C96.7206 27.4688 96.7384 27.4688 96.7562 27.4688C96.774 27.4688 96.7918 27.4688 96.8096 27.4688C96.8273 27.4688 96.8451 27.4688 96.8629 27.4688C96.8807 27.4688 96.8984 27.4688 96.9162 27.4688C96.934 27.4688 96.9517 27.4688 96.9695 27.4688C96.9873 27.4688 97.005 27.4688 97.0228 27.4688C97.0405 27.4688 97.0582 27.4688 97.076 27.4688C97.0937 27.4688 97.1115 27.4688 97.1292 27.4688C97.1469 27.4688 97.1646 27.4688 97.1824 27.4688C97.2001 27.4688 97.2178 27.4688 97.2355 27.4688C97.2532 27.4688 97.2709 27.4688 97.2886 27.4688C97.3063 27.4688 97.324 27.4688 97.3417 27.4688C97.3594 27.4688 97.377 27.4688 97.3947 27.4688C97.4124 27.4688 97.4301 27.4688 97.4477 27.4688C97.4654 27.4688 97.4831 27.4688 97.5007 27.4688C97.5184 27.4688 97.536 27.4688 97.5536 27.4688C97.5713 27.4688 97.5889 27.4688 97.6065 27.4688C97.6242 27.4688 97.6418 27.4688 97.6594 27.4688C97.677 27.4688 97.6946 27.4688 97.7122 27.4688C97.7299 27.4688 97.7474 27.4688 97.765 27.4688C97.7826 27.4688 97.8002 27.4688 97.8178 27.4688C97.8354 27.4688 97.8529 27.4688 97.8705 27.4688C97.8881 27.4688 97.9056 27.4688 97.9232 27.4688C97.9407 27.4688 97.9583 27.4688 97.9758 27.4688C97.9934 27.4688 98.0109 27.4688 98.0284 27.4688C98.0459 27.4688 98.0634 27.4688 98.081 27.4688C98.0985 27.4688 98.116 27.4688 98.1335 27.4688C98.1509 27.4688 98.1684 27.4688 98.1859 27.4688C98.2034 27.4688 98.2209 27.4688 98.2383 27.4688C98.2558 27.4688 98.2733 27.4688 98.2907 27.4688C98.3081 27.4688 98.3256 27.4688 98.343 27.4688C98.3605 27.4688 98.3779 27.4688 98.3953 27.4688C98.4127 27.4688 98.4301 27.4688 98.4475 27.4688C98.4649 27.4688 98.4823 27.4688 98.4997 27.4688C98.5171 27.4688 98.5345 27.4688 98.5518 27.4688C98.5692 27.4688 98.5866 27.4688 98.6039 27.4688C98.6213 27.4688 98.6386 27.4688 98.6559 27.4688C98.6733 27.4688 98.6906 27.4688 98.7079 27.4688C98.7252 27.4688 98.7425 27.4688 98.7598 27.4688C98.7771 27.4688 98.7944 27.4688 98.8117 27.4688C98.829 27.4688 98.8463 27.4688 98.8635 27.4688C98.8808 27.4688 98.898 27.4688 98.9153 27.4688C98.9325 27.4688 98.9498 27.4688 98.967 27.4688C98.9842 27.4688 99.0014 27.4688 99.0186 27.4688C99.0359 27.4688 99.0531 27.4688 99.0702 27.4688C99.0874 27.4688 99.1046 27.4688 99.1218 27.4688C99.1389 27.4688 99.1561 27.4688 99.1733 27.4688C99.1904 27.4688 99.2075 27.4688 99.2247 27.4688C99.2418 27.4688 99.2589 27.4688 99.276 27.4688C99.2931 27.4688 99.3102 27.4688 99.3273 27.4688C99.3444 27.4688 99.3615 27.4688 99.3786 27.4688C99.3956 27.4688 99.4127 27.4688 99.4297 27.4688C99.4468 27.4688 99.4638 27.4688 99.4808 27.4688C99.4979 27.4688 99.5149 27.4688 99.5319 27.4688C99.5489 27.4688 99.5659 27.4688 99.5829 27.4688C99.5998 27.4688 99.6168 27.4688 99.6338 27.4688C99.6507 27.4688 99.6677 27.4688 99.6846 27.4688C99.7016 27.4688 99.7185 27.4688 99.7354 27.4688C99.7523 27.4688 99.7692 27.4688 99.7861 27.4688C99.803 27.4688 99.8199 27.4688 99.8368 27.4688C99.8536 27.4688 99.8705 27.4688 99.8873 27.4688C99.9042 27.4688 99.921 27.4688 99.9378 27.4688C99.9547 27.4688 99.9715 27.4688 99.9883 27.4688C100.005 27.4688 100.022 27.4688 100.039 27.4688C100.055 27.4688 100.072 27.4688 100.089 27.4688C100.106 27.4688 100.122 27.4688 100.139 27.4688C100.156 27.4688 100.173 27.4688 100.189 27.4688C100.206 27.4688 100.223 27.4688 100.239 27.4688C100.256 27.4688 100.273 27.4688 100.289 27.4688C100.306 27.4688 100.323 27.4688 100.339 27.4688C100.356 27.4688 100.373 27.4688 100.389 27.4688C100.406 27.4688 100.422 27.4688 100.439 27.4688C100.455 27.4688 100.472 27.4688 100.489 27.4688C100.505 27.4688 100.522 27.4688 100.538 27.4688C100.555 27.4688 100.571 27.4688 100.588 27.4688C100.604 27.4688 100.621 27.4688 100.637 27.4688C100.654 27.4688 100.67 27.4688 100.687 27.4688C100.703 27.4688 100.719 27.4688 100.736 27.4688C100.752 27.4688 100.769 27.4688 100.785 27.4688C100.801 27.4688 100.818 27.4688 100.834 27.4688C100.85 27.4688 100.867 27.4688 100.883 27.4688C100.899 27.4688 100.916 27.4688 100.932 27.4688C100.948 27.4688 100.965 27.4688 100.981 27.4688C100.997 27.4688 101.013 27.4688 101.03 27.4688C101.046 27.4688 101.062 27.4688 101.078 27.4688C101.095 27.4688 101.111 27.4688 101.127 27.4688C101.143 27.4688 101.159 27.4688 101.176 27.4688C101.192 27.4688 101.208 27.4688 101.224 27.4688C101.24 27.4688 101.256 27.4688 101.272 27.4688C101.288 27.4688 101.304 27.4688 101.321 27.4688C101.337 27.4688 101.353 27.4688 101.369 27.4688C101.385 27.4688 101.401 27.4688 101.417 27.4688C101.433 27.4688 101.449 27.4688 101.465 27.4688C101.481 27.4688 101.497 27.4688 101.513 27.4688C101.528 27.4688 101.544 27.4688 101.56 27.4688C101.576 27.4688 101.592 27.4688 101.608 27.4688C101.624 27.4688 101.64 27.4688 101.656 27.4688C101.671 27.4688 101.687 27.4688 101.703 27.4688C101.719 27.4688 101.735 27.4688 101.75 27.4688C101.766 27.4688 101.782 27.4688 101.798 27.4688C101.813 27.4688 101.829 27.4688 101.845 27.4688C101.861 27.4688 101.876 27.4688 101.892 27.4688C101.908 27.4688 101.923 27.4688 101.939 27.4688C101.955 27.4688 101.97 27.4688 101.986 27.4688L101.986 25.4688C101.97 25.4688 101.955 25.4688 101.939 25.4688C101.923 25.4688 101.908 25.4688 101.892 25.4688C101.876 25.4688 101.861 25.4688 101.845 25.4688C101.829 25.4688 101.813 25.4688 101.798 25.4688C101.782 25.4688 101.766 25.4688 101.75 25.4688C101.735 25.4688 101.719 25.4688 101.703 25.4688C101.687 25.4688 101.671 25.4688 101.656 25.4688C101.64 25.4688 101.624 25.4688 101.608 25.4688C101.592 25.4688 101.576 25.4688 101.56 25.4688C101.544 25.4688 101.528 25.4688 101.513 25.4688C101.497 25.4688 101.481 25.4688 101.465 25.4688C101.449 25.4688 101.433 25.4688 101.417 25.4688C101.401 25.4688 101.385 25.4688 101.369 25.4688C101.353 25.4688 101.337 25.4688 101.321 25.4688C101.304 25.4688 101.288 25.4688 101.272 25.4688C101.256 25.4688 101.24 25.4688 101.224 25.4688C101.208 25.4688 101.192 25.4688 101.176 25.4688C101.159 25.4688 101.143 25.4688 101.127 25.4688C101.111 25.4688 101.095 25.4688 101.078 25.4688C101.062 25.4688 101.046 25.4688 101.03 25.4688C101.013 25.4688 100.997 25.4688 100.981 25.4688C100.965 25.4688 100.948 25.4688 100.932 25.4688C100.916 25.4688 100.899 25.4688 100.883 25.4688C100.867 25.4688 100.85 25.4688 100.834 25.4688C100.818 25.4688 100.801 25.4688 100.785 25.4688C100.769 25.4688 100.752 25.4688 100.736 25.4688C100.719 25.4688 100.703 25.4688 100.687 25.4688C100.67 25.4688 100.654 25.4688 100.637 25.4688C100.621 25.4688 100.604 25.4688 100.588 25.4688C100.571 25.4688 100.555 25.4688 100.538 25.4688C100.522 25.4688 100.505 25.4688 100.489 25.4688C100.472 25.4688 100.455 25.4688 100.439 25.4688C100.422 25.4688 100.406 25.4688 100.389 25.4688C100.373 25.4688 100.356 25.4688 100.339 25.4688C100.323 25.4688 100.306 25.4688 100.289 25.4688C100.273 25.4688 100.256 25.4688 100.239 25.4688C100.223 25.4688 100.206 25.4688 100.189 25.4688C100.173 25.4688 100.156 25.4688 100.139 25.4688C100.122 25.4688 100.106 25.4688 100.089 25.4688C100.072 25.4688 100.055 25.4688 100.039 25.4688C100.022 25.4688 100.005 25.4688 99.9883 25.4688C99.9715 25.4688 99.9547 25.4688 99.9378 25.4688C99.921 25.4688 99.9042 25.4688 99.8873 25.4688C99.8705 25.4688 99.8536 25.4688 99.8368 25.4688C99.8199 25.4688 99.803 25.4688 99.7861 25.4688C99.7692 25.4688 99.7523 25.4688 99.7354 25.4688C99.7185 25.4688 99.7016 25.4688 99.6846 25.4688C99.6677 25.4688 99.6507 25.4688 99.6338 25.4688C99.6168 25.4688 99.5998 25.4688 99.5829 25.4688C99.5659 25.4688 99.5489 25.4688 99.5319 25.4688C99.5149 25.4688 99.4979 25.4688 99.4808 25.4688C99.4638 25.4688 99.4468 25.4688 99.4297 25.4688C99.4127 25.4688 99.3956 25.4688 99.3786 25.4688C99.3615 25.4688 99.3444 25.4688 99.3273 25.4688C99.3102 25.4688 99.2931 25.4688 99.276 25.4688C99.2589 25.4688 99.2418 25.4688 99.2247 25.4688C99.2075 25.4688 99.1904 25.4688 99.1733 25.4688C99.1561 25.4688 99.1389 25.4688 99.1218 25.4688C99.1046 25.4688 99.0874 25.4688 99.0702 25.4688C99.0531 25.4688 99.0359 25.4688 99.0186 25.4688C99.0014 25.4688 98.9842 25.4688 98.967 25.4688C98.9498 25.4688 98.9325 25.4688 98.9153 25.4688C98.898 25.4688 98.8808 25.4688 98.8635 25.4688C98.8463 25.4688 98.829 25.4688 98.8117 25.4688C98.7944 25.4688 98.7771 25.4688 98.7598 25.4688C98.7425 25.4688 98.7252 25.4688 98.7079 25.4688C98.6906 25.4688 98.6733 25.4688 98.6559 25.4688C98.6386 25.4688 98.6213 25.4688 98.6039 25.4688C98.5866 25.4688 98.5692 25.4688 98.5518 25.4688C98.5345 25.4688 98.5171 25.4688 98.4997 25.4688C98.4823 25.4688 98.4649 25.4688 98.4475 25.4688C98.4301 25.4688 98.4127 25.4688 98.3953 25.4688C98.3779 25.4688 98.3605 25.4688 98.343 25.4688C98.3256 25.4688 98.3081 25.4688 98.2907 25.4688C98.2733 25.4688 98.2558 25.4688 98.2383 25.4688C98.2209 25.4688 98.2034 25.4688 98.1859 25.4688C98.1684 25.4688 98.1509 25.4688 98.1335 25.4688C98.116 25.4688 98.0985 25.4688 98.081 25.4688C98.0634 25.4688 98.0459 25.4688 98.0284 25.4688C98.0109 25.4688 97.9934 25.4688 97.9758 25.4688C97.9583 25.4688 97.9407 25.4688 97.9232 25.4688C97.9056 25.4688 97.8881 25.4688 97.8705 25.4688C97.8529 25.4688 97.8354 25.4688 97.8178 25.4688C97.8002 25.4688 97.7826 25.4688 97.765 25.4688C97.7474 25.4688 97.7299 25.4688 97.7122 25.4688C97.6946 25.4688 97.677 25.4688 97.6594 25.4688C97.6418 25.4688 97.6242 25.4688 97.6065 25.4688C97.5889 25.4688 97.5713 25.4688 97.5536 25.4688C97.536 25.4688 97.5184 25.4688 97.5007 25.4688C97.4831 25.4688 97.4654 25.4688 97.4477 25.4688C97.4301 25.4688 97.4124 25.4688 97.3947 25.4688C97.377 25.4688 97.3594 25.4688 97.3417 25.4688C97.324 25.4688 97.3063 25.4688 97.2886 25.4688C97.2709 25.4688 97.2532 25.4688 97.2355 25.4688C97.2178 25.4688 97.2001 25.4688 97.1824 25.4688C97.1646 25.4688 97.1469 25.4688 97.1292 25.4688C97.1115 25.4688 97.0937 25.4688 97.076 25.4688C97.0582 25.4688 97.0405 25.4688 97.0228 25.4688C97.005 25.4688 96.9873 25.4688 96.9695 25.4688C96.9517 25.4688 96.934 25.4688 96.9162 25.4688C96.8984 25.4688 96.8807 25.4688 96.8629 25.4688C96.8451 25.4688 96.8273 25.4688 96.8096 25.4688C96.7918 25.4688 96.774 25.4688 96.7562 25.4688C96.7384 25.4688 96.7206 25.4688 96.7028 25.4688C96.685 25.4688 96.6672 25.4688 96.6494 25.4688C96.6316 25.4688 96.6138 25.4688 96.596 25.4688C96.5781 25.4688 96.5603 25.4688 96.5425 25.4688C96.5247 25.4688 96.5069 25.4688 96.489 25.4688C96.4712 25.4688 96.4534 25.4688 96.4355 25.4688C96.4177 25.4688 96.3999 25.4688 96.382 25.4688C96.3642 25.4688 96.3463 25.4688 96.3285 25.4688C96.3106 25.4688 96.2928 25.4688 96.2749 25.4688C96.2571 25.4688 96.2392 25.4688 96.2213 25.4688C96.2035 25.4688 96.1856 25.4688 96.1678 25.4688C96.1499 25.4688 96.132 25.4688 96.1141 25.4688C96.0963 25.4688 96.0784 25.4688 96.0605 25.4688C96.0426 25.4688 96.0248 25.4688 96.0069 25.4688C95.989 25.4688 95.9711 25.4688 95.9532 25.4688C95.9354 25.4688 95.9175 25.4688 95.8996 25.4688C95.8817 25.4688 95.8638 25.4688 95.8459 25.4688C95.828 25.4688 95.8101 25.4688 95.7922 25.4688C95.7743 25.4688 95.7564 25.4688 95.7385 25.4688C95.7206 25.4688 95.7027 25.4688 95.6848 25.4688C95.6669 25.4688 95.649 25.4688 95.6311 25.4688C95.6132 25.4688 95.5953 25.4688 95.5774 25.4688C95.5594 25.4688 95.5415 25.4688 95.5236 25.4688C95.5057 25.4688 95.4878 25.4688 95.4699 25.4688C95.452 25.4688 95.434 25.4688 95.4161 25.4688C95.3982 25.4688 95.3803 25.4688 95.3624 25.4688C95.3445 25.4688 95.3265 25.4688 95.3086 25.4688C95.2907 25.4688 95.2728 25.4688 95.2549 25.4688C95.2369 25.4688 95.219 25.4688 95.2011 25.4688C95.1832 25.4688 95.1652 25.4688 95.1473 25.4688C95.1294 25.4688 95.1115 25.4688 95.0936 25.4688C95.0756 25.4688 95.0577 25.4688 95.0398 25.4688C95.0219 25.4688 95.0039 25.4688 94.986 25.4688C94.9681 25.4688 94.9502 25.4688 94.9322 25.4688C94.9143 25.4688 94.8964 25.4688 94.8785 25.4688C94.8605 25.4688 94.8426 25.4688 94.8247 25.4688C94.8068 25.4688 94.7889 25.4688 94.7709 25.4688C94.753 25.4688 94.7351 25.4688 94.7172 25.4688C94.6993 25.4688 94.6813 25.4688 94.6634 25.4688C94.6455 25.4688 94.6276 25.4688 94.6097 25.4688C94.5918 25.4688 94.5738 25.4688 94.5559 25.4688C94.538 25.4688 94.5201 25.4688 94.5022 25.4688C94.4843 25.4688 94.4664 25.4688 94.4485 25.4688C94.4305 25.4688 94.4126 25.4688 94.3947 25.4688C94.3768 25.4688 94.3589 25.4688 94.341 25.4688C94.3231 25.4688 94.3052 25.4688 94.2873 25.4688C94.2694 25.4688 94.2515 25.4688 94.2336 25.4688C94.2157 25.4688 94.1978 25.4688 94.1799 25.4688C94.162 25.4688 94.1441 25.4688 94.1263 25.4688C94.1084 25.4688 94.0905 25.4688 94.0726 25.4688C94.0547 25.4688 94.0368 25.4688 94.019 25.4688C94.0011 25.4688 93.9832 25.4688 93.9653 25.4688C93.9474 25.4688 93.9296 25.4688 93.9117 25.4688C93.8938 25.4688 93.876 25.4688 93.8581 25.4688C93.8402 25.4688 93.8224 25.4688 93.8045 25.4688C93.7867 25.4688 93.7688 25.4688 93.7509 25.4688C93.7331 25.4688 93.7152 25.4688 93.6974 25.4688C93.6796 25.4688 93.6617 25.4688 93.6439 25.4688C93.626 25.4688 93.6082 25.4688 93.5904 25.4688C93.5725 25.4688 93.5547 25.4688 93.5369 25.4688C93.519 25.4688 93.5012 25.4688 93.4834 25.4688C93.4656 25.4688 93.4478 25.4688 93.4299 25.4688C93.4121 25.4688 93.3943 25.4688 93.3765 25.4688C93.3587 25.4688 93.3409 25.4688 93.3231 25.4688C93.3053 25.4688 93.2875 25.4688 93.2697 25.4688C93.252 25.4688 93.2342 25.4688 93.2164 25.4688C93.1986 25.4688 93.1808 25.4688 93.1631 25.4688C93.1453 25.4688 93.1275 25.4688 93.1098 25.4688C93.092 25.4688 93.0742 25.4688 93.0565 25.4688C93.0387 25.4688 93.021 25.4688 93.0032 25.4688C92.9855 25.4688 92.9677 25.4688 92.95 25.4688C92.9323 25.4688 92.9145 25.4688 92.8968 25.4688C92.8791 25.4688 92.8614 25.4688 92.8437 25.4688C92.8259 25.4688 92.8082 25.4688 92.7905 25.4688C92.7728 25.4688 92.7551 25.4688 92.7374 25.4688C92.7197 25.4688 92.7021 25.4688 92.6844 25.4688C92.6667 25.4688 92.649 25.4688 92.6313 25.4688C92.6137 25.4688 92.596 25.4688 92.5783 25.4688C92.5607 25.4688 92.543 25.4688 92.5254 25.4688C92.5077 25.4688 92.4901 25.4688 92.4725 25.4688C92.4548 25.4688 92.4372 25.4688 92.4196 25.4688C92.4019 25.4688 92.3843 25.4688 92.3667 25.4688C92.3491 25.4688 92.3315 25.4688 92.3139 25.4688C92.2963 25.4688 92.2787 25.4688 92.2611 25.4688C92.2435 25.4688 92.2259 25.4688 92.2084 25.4688C92.1908 25.4688 92.1732 25.4688 92.1557 25.4688C92.1381 25.4688 92.1206 25.4688 92.103 25.4688C92.0855 25.4688 92.0679 25.4688 92.0504 25.4688C92.0329 25.4688 92.0153 25.4688 91.9978 25.4688C91.9803 25.4688 91.9628 25.4688 91.9453 25.4688C91.9278 25.4688 91.9103 25.4688 91.8928 25.4688C91.8753 25.4688 91.8578 25.4688 91.8404 25.4688C91.8229 25.4688 91.8054 25.4688 91.788 25.4688C91.7705 25.4688 91.753 25.4688 91.7356 25.4688C91.7182 25.4688 91.7007 25.4688 91.6833 25.4688C91.6659 25.4688 91.6485 25.4688 91.631 25.4688C91.6136 25.4688 91.5962 25.4688 91.5788 25.4688C91.5614 25.4688 91.544 25.4688 91.5267 25.4688C91.5093 25.4688 91.4919 25.4688 91.4746 25.4688C91.4572 25.4688 91.4398 25.4688 91.4225 25.4688C91.4052 25.4688 91.3878 25.4688 91.3705 25.4688C91.3532 25.4688 91.3358 25.4688 91.3185 25.4688C91.3012 25.4688 91.2839 25.4688 91.2666 25.4688C91.2493 25.4688 91.2321 25.4688 91.2148 25.4688C91.1975 25.4688 91.1802 25.4688 91.163 25.4688C91.1457 25.4688 91.1285 25.4688 91.1112 25.4688C91.094 25.4688 91.0768 25.4688 91.0596 25.4688C91.0423 25.4688 91.0251 25.4688 91.0079 25.4688C90.9907 25.4688 90.9735 25.4688 90.9563 25.4688C90.9392 25.4688 90.922 25.4688 90.9048 25.4688C90.8877 25.4688 90.8705 25.4688 90.8534 25.4688C90.8362 25.4688 90.8191 25.4688 90.802 25.4688C90.7849 25.4688 90.7678 25.4688 90.7507 25.4688C90.7335 25.4688 90.7165 25.4688 90.6994 25.4688C90.6823 25.4688 90.6652 25.4688 90.6482 25.4688C90.6311 25.4688 90.6141 25.4688 90.597 25.4688C90.58 25.4688 90.5629 25.4688 90.5459 25.4688C90.5289 25.4688 90.5119 25.4688 90.4949 25.4688C90.4779 25.4688 90.4609 25.4688 90.444 25.4688C90.427 25.4688 90.41 25.4688 90.3931 25.4688C90.3761 25.4688 90.3592 25.4688 90.3422 25.4688C90.3253 25.4688 90.3084 25.4688 90.2915 25.4688C90.2746 25.4688 90.2577 25.4688 90.2408 25.4688C90.2239 25.4688 90.207 25.4688 90.1902 25.4688C90.1733 25.4688 90.1565 25.4688 90.1396 25.4688C90.1228 25.4688 90.106 25.4688 90.0891 25.4688C90.0723 25.4688 90.0555 25.4688 90.0387 25.4688C90.0219 25.4688 90.0052 25.4688 89.9884 25.4688C89.9716 25.4688 89.9549 25.4688 89.9381 25.4688C89.9214 25.4688 89.9046 25.4688 89.8879 25.4688C89.8712 25.4688 89.8545 25.4688 89.8378 25.4688C89.8211 25.4688 89.8044 25.4688 89.7878 25.4688C89.7711 25.4688 89.7544 25.4688 89.7378 25.4688C89.7212 25.4688 89.7045 25.4688 89.6879 25.4688C89.6713 25.4688 89.6547 25.4688 89.6381 25.4688C89.6215 25.4688 89.6049 25.4688 89.5884 25.4688C89.5718 25.4688 89.5552 25.4688 89.5387 25.4688C89.5222 25.4688 89.5056 25.4688 89.4891 25.4688C89.4726 25.4688 89.4561 25.4688 89.4396 25.4688C89.4231 25.4688 89.4067 25.4688 89.3902 25.4688C89.3737 25.4688 89.3573 25.4688 89.3409 25.4688C89.3244 25.4688 89.308 25.4688 89.2916 25.4688C89.2752 25.4688 89.2588 25.4688 89.2424 25.4688C89.2261 25.4688 89.2097 25.4688 89.1934 25.4688C89.177 25.4688 89.1607 25.4688 89.1444 25.4688C89.128 25.4688 89.1117 25.4688 89.0954 25.4688C89.0791 25.4688 89.0629 25.4688 89.0466 25.4688C89.0303 25.4688 89.0141 25.4688 88.9979 25.4688C88.9816 25.4688 88.9654 25.4688 88.9492 25.4688C88.933 25.4688 88.9168 25.4688 88.9006 25.4688C88.8845 25.4688 88.8683 25.4688 88.8522 25.4688C88.836 25.4688 88.8199 25.4688 88.8038 25.4688C88.7877 25.4688 88.7716 25.4688 88.7555 25.4688C88.7394 25.4688 88.7233 25.4688 88.7073 25.4688C88.6912 25.4688 88.6752 25.4688 88.6592 25.4688C88.6431 25.4688 88.6271 25.4688 88.6111 25.4688C88.5951 25.4688 88.5792 25.4688 88.5632 25.4688C88.5472 25.4688 88.5313 25.4688 88.5154 25.4688C88.4994 25.4688 88.4835 25.4688 88.4676 25.4688C88.4517 25.4688 88.4359 25.4688 88.42 25.4688C88.4041 25.4688 88.3883 25.4688 88.3725 25.4688C88.3566 25.4688 88.3408 25.4688 88.325 25.4688C88.3092 25.4688 88.2934 25.4688 88.2777 25.4688C88.2619 25.4688 88.2461 25.4688 88.2304 25.4688C88.2147 25.4688 88.199 25.4688 88.1833 25.4688C88.1676 25.4688 88.1519 25.4688 88.1362 25.4688C88.1205 25.4688 88.1049 25.4688 88.0893 25.4688C88.0736 25.4688 88.058 25.4688 88.0424 25.4688C88.0268 25.4688 88.0112 25.4688 87.9957 25.4688C87.9801 25.4688 87.9646 25.4688 87.949 25.4688C87.9335 25.4688 87.918 25.4688 87.9025 25.4688C87.887 25.4688 87.8715 25.4688 87.8561 25.4688C87.8406 25.4688 87.8252 25.4688 87.8097 25.4688C87.7943 25.4688 87.7789 25.4688 87.7635 25.4688C87.7481 25.4688 87.7328 25.4688 87.7174 25.4688C87.7021 25.4688 87.6867 25.4688 87.6714 25.4688C87.6561 25.4688 87.6408 25.4688 87.6255 25.4688C87.6102 25.4688 87.595 25.4688 87.5797 25.4688C87.5645 25.4688 87.5493 25.4688 87.5341 25.4688C87.5189 25.4688 87.5037 25.4688 87.4885 25.4688C87.4733 25.4688 87.4582 25.4688 87.443 25.4688C87.4279 25.4688 87.4128 25.4688 87.3977 25.4688C87.3826 25.4688 87.3675 25.4688 87.3525 25.4688C87.3374 25.4688 87.3224 25.4688 87.3074 25.4688C87.2924 25.4688 87.2774 25.4688 87.2624 25.4688C87.2474 25.4688 87.2324 25.4688 87.2175 25.4688C87.2026 25.4688 87.1876 25.4688 87.1727 25.4688C87.1578 25.4688 87.143 25.4688 87.1281 25.4688C87.1132 25.4688 87.0984 25.4688 87.0836 25.4688C87.0687 25.4688 87.0539 25.4688 87.0392 25.4688C87.0244 25.4688 87.0096 25.4688 86.9949 25.4688C86.9801 25.4688 86.9654 25.4688 86.9507 25.4688C86.936 25.4688 86.9213 25.4688 86.9067 25.4688C86.892 25.4688 86.8773 25.4688 86.8627 25.4688C86.8481 25.4688 86.8335 25.4688 86.8189 25.4688C86.8043 25.4688 86.7898 25.4688 86.7752 25.4688C86.7607 25.4688 86.7462 25.4688 86.7317 25.4688C86.7172 25.4688 86.7027 25.4688 86.6883 25.4688C86.6738 25.4688 86.6594 25.4688 86.645 25.4688C86.6305 25.4688 86.6161 25.4688 86.6018 25.4688C86.5874 25.4688 86.573 25.4688 86.5587 25.4688C86.5444 25.4688 86.5301 25.4688 86.5158 25.4688C86.5015 25.4688 86.4872 25.4688 86.473 25.4688C86.4588 25.4688 86.4445 25.4688 86.4303 25.4688C86.4161 25.4688 86.402 25.4688 86.3878 25.4688C86.3736 25.4688 86.3595 25.4688 86.3454 25.4688C86.3313 25.4688 86.3172 25.4688 86.3031 25.4688C86.289 25.4688 86.275 25.4688 86.261 25.4688C86.247 25.4688 86.2329 25.4688 86.219 25.4688C86.205 25.4688 86.191 25.4688 86.1771 25.4688C86.1632 25.4688 86.1492 25.4688 86.1354 25.4688C86.1215 25.4688 86.1076 25.4688 86.0937 25.4688C86.0799 25.4688 86.0661 25.4688 86.0523 25.4688C86.0385 25.4688 86.0247 25.4688 86.011 25.4688C85.9972 25.4688 85.9835 25.4688 85.9698 25.4688C85.956 25.4688 85.9424 25.4688 85.9287 25.4688C85.915 25.4688 85.9014 25.4688 85.8878 25.4688C85.8742 25.4688 85.8606 25.4688 85.847 25.4688C85.8334 25.4688 85.8199 25.4688 85.8064 25.4688C85.7929 25.4688 85.7794 25.4688 85.7659 25.4688C85.7524 25.4688 85.739 25.4688 85.7255 25.4688C85.7121 25.4688 85.6987 25.4688 85.6853 25.4688C85.6719 25.4688 85.6586 25.4688 85.6453 25.4688C85.6319 25.4688 85.6186 25.4688 85.6053 25.4688C85.5921 25.4688 85.5788 25.4688 85.5656 25.4688C85.5523 25.4688 85.5391 25.4688 85.5259 25.4688C85.5127 25.4688 85.4996 25.4688 85.4865 25.4688C85.4733 25.4688 85.4602 25.4688 85.4471 25.4688C85.434 25.4688 85.421 25.4688 85.4079 25.4688C85.3949 25.4688 85.3819 25.4688 85.3689 25.4688C85.3559 25.4688 85.3429 25.4688 85.33 25.4688C85.3171 25.4688 85.3042 25.4688 85.2913 25.4688C85.2784 25.4688 85.2655 25.4688 85.2527 25.4688C85.2399 25.4688 85.227 25.4688 85.2143 25.4688C85.2015 25.4688 85.1887 25.4688 85.176 25.4688C85.1632 25.4688 85.1505 25.4688 85.1378 25.4688C85.1252 25.4688 85.1125 25.4688 85.0999 25.4688C85.0872 25.4688 85.0746 25.4688 85.0621 25.4688C85.0495 25.4688 85.0369 25.4688 85.0244 25.4688C85.0119 25.4688 84.9994 25.4688 84.9869 25.4688C84.9744 25.4688 84.962 25.4688 84.9495 25.4688C84.9371 25.4688 84.9247 25.4688 84.9124 25.4688C84.9 25.4688 84.8876 25.4688 84.8753 25.4688C84.863 25.4688 84.8507 25.4688 84.8385 25.4688C84.8262 25.4688 84.814 25.4688 84.8017 25.4688C84.7895 25.4688 84.7774 25.4688 84.7652 25.4688C84.753 25.4688 84.7409 25.4688 84.7288 25.4688C84.7167 25.4688 84.7046 25.4688 84.6926 25.4688C84.6805 25.4688 84.6685 25.4688 84.6565 25.4688C84.6445 25.4688 84.6326 25.4688 84.6206 25.4688C84.6087 25.4688 84.5968 25.4688 84.5849 25.4688C84.573 25.4688 84.5612 25.4688 84.5493 25.4688C84.5375 25.4688 84.5257 25.4688 84.5139 25.4688C84.5022 25.4688 84.4904 25.4688 84.4787 25.4688C84.467 25.4688 84.4553 25.4688 84.4436 25.4688C84.432 25.4688 84.4203 25.4688 84.4087 25.4688C84.3971 25.4688 84.3856 25.4688 84.374 25.4688C84.3625 25.4688 84.351 25.4688 84.3395 25.4688C84.328 25.4688 84.3165 25.4688 84.3051 25.4688C84.2936 25.4688 84.2822 25.4688 84.2709 25.4688C84.2595 25.4688 84.2481 25.4688 84.2368 25.4688C84.2255 25.4688 84.2142 25.4688 84.203 25.4688C84.1917 25.4688 84.1805 25.4688 84.1693 25.4688C84.1581 25.4688 84.1469 25.4688 84.1357 25.4688C84.1246 25.4688 84.1135 25.4688 84.1024 25.4688C84.0913 25.4688 84.0803 25.4688 84.0692 25.4688C84.0582 25.4688 84.0472 25.4688 84.0363 25.4688C84.0253 25.4688 84.0144 25.4688 84.0034 25.4688C83.9925 25.4688 83.9817 25.4688 83.9708 25.4688C83.96 25.4688 83.9491 25.4688 83.9384 25.4688C83.9276 25.4688 83.9168 25.4688 83.9061 25.4688C83.8954 25.4688 83.8847 25.4688 83.874 25.4688C83.8633 25.4688 83.8527 25.4688 83.8421 25.4688C83.8315 25.4688 83.8209 25.4688 83.8104 25.4688C83.7998 25.4688 83.7893 25.4688 83.7788 25.4688C83.7683 25.4688 83.7579 25.4688 83.7475 25.4688C83.737 25.4688 83.7266 25.4688 83.7163 25.4688C83.7059 25.4688 83.6956 25.4688 83.6853 25.4688C83.675 25.4688 83.6647 25.4688 83.6545 25.4688C83.6442 25.4688 83.634 25.4688 83.6239 25.4688C83.6137 25.4688 83.6035 25.4688 83.5934 25.4688C83.5833 25.4688 83.5732 25.4688 83.5632 25.4688C83.5531 25.4688 83.5431 25.4688 83.5331 25.4688C83.5232 25.4688 83.5132 25.4688 83.5033 25.4688C83.4934 25.4688 83.4835 25.4688 83.4736 25.4688C83.4638 25.4688 83.4539 25.4688 83.4441 25.4688C83.4343 25.4688 83.4246 25.4688 83.4148 25.4688C83.4051 25.4688 83.3954 25.4688 83.3858 25.4688C83.3761 25.4688 83.3665 25.4688 83.3569 25.4688C83.3473 25.4688 83.3377 25.4688 83.3281 25.4688C83.3186 25.4688 83.3091 25.4688 83.2996 25.4688C83.2902 25.4688 83.2807 25.4688 83.2713 25.4688C83.2619 25.4688 83.2525 25.4688 83.2432 25.4688C83.2339 25.4688 83.2246 25.4688 83.2153 25.4688C83.206 25.4688 83.1968 25.4688 83.1876 25.4688C83.1784 25.4688 83.1692 25.4688 83.16 25.4688C83.1509 25.4688 83.1418 25.4688 83.1327 25.4688C83.1236 25.4688 83.1146 25.4688 83.1056 25.4688C83.0966 25.4688 83.0876 25.4688 83.0787 25.4688C83.0697 25.4688 83.0608 25.4688 83.052 25.4688C83.0431 25.4688 83.0342 25.4688 83.0254 25.4688C83.0166 25.4688 83.0079 25.4688 82.9991 25.4688C82.9904 25.4688 82.9817 25.4688 82.973 25.4688C82.9644 25.4688 82.9557 25.4688 82.9471 25.4688C82.9385 25.4688 82.93 25.4688 82.9214 25.4688C82.9129 25.4688 82.9044 25.4688 82.8959 25.4688C82.8875 25.4688 82.879 25.4688 82.8707 25.4688C82.8623 25.4688 82.8539 25.4688 82.8456 25.4688C82.8373 25.4688 82.829 25.4688 82.8207 25.4688C82.8125 25.4688 82.8042 25.4688 82.7961 25.4688C82.7879 25.4688 82.7797 25.4688 82.7716 25.4688C82.7635 25.4688 82.7554 25.4688 82.7474 25.4688C82.7393 25.4688 82.7313 25.4688 82.7234 25.4688C82.7154 25.4688 82.7074 25.4688 82.6995 25.4688C82.6916 25.4688 82.6838 25.4688 82.676 25.4688C82.6681 25.4688 82.6603 25.4688 82.6526 25.4688C82.6448 25.4688 82.6371 25.4688 82.6294 25.4688C82.6217 25.4688 82.6141 25.4688 82.6065 25.4688C82.5988 25.4688 82.5913 25.4688 82.5837 25.4688C82.5762 25.4688 82.5687 25.4688 82.5612 25.4688C82.5537 25.4688 82.5463 25.4688 82.5389 25.4688C82.5315 25.4688 82.5241 25.4688 82.5168 25.4688C82.5095 25.4688 82.5022 25.4688 82.495 25.4688C82.4877 25.4688 82.4805 25.4688 82.4733 25.4688C82.4661 25.4688 82.459 25.4688 82.4519 25.4688C82.4448 25.4688 82.4377 25.4688 82.4307 25.4688C82.4237 25.4688 82.4167 25.4688 82.4097 25.4688C82.4028 25.4688 82.3959 25.4688 82.389 25.4688C82.3821 25.4688 82.3753 25.4688 82.3685 25.4688C82.3617 25.4688 82.3549 25.4688 82.3482 25.4688C82.3414 25.4688 82.3347 25.4688 82.3281 25.4688C82.3214 25.4688 82.3148 25.4688 82.3082 25.4688C82.3017 25.4688 82.2951 25.4688 82.2886 25.4688C82.2821 25.4688 82.2756 25.4688 82.2692 25.4688C82.2628 25.4688 82.2564 25.4688 82.25 25.4688C82.2437 25.4688 82.2374 25.4688 82.2311 25.4688C82.2248 25.4688 82.2186 25.4688 82.2124 25.4688C82.2062 25.4688 82.2 25.4688 82.1939 25.4688C82.1878 25.4688 82.1817 25.4688 82.1757 25.4688C82.1696 25.4688 82.1636 25.4688 82.1577 25.4688C82.1517 25.4688 82.1458 25.4688 82.1399 25.4688C82.134 25.4688 82.1282 25.4688 82.1223 25.4688C82.1165 25.4688 82.1108 25.4688 82.105 25.4688C82.0993 25.4688 82.0936 25.4688 82.088 25.4688C82.0823 25.4688 82.0767 25.4688 82.0711 25.4688C82.0655 25.4688 82.06 25.4688 82.0545 25.4688C82.049 25.4688 82.0436 25.4688 82.0382 25.4688C82.0327 25.4688 82.0274 25.4688 82.022 25.4688C82.0167 25.4688 82.0114 25.4688 82.0061 25.4688C82.0009 25.4688 81.9957 25.4688 81.9905 25.4688C81.9853 25.4688 81.9802 25.4688 81.9751 25.4688C81.97 25.4688 81.9649 25.4688 81.9599 25.4688C81.9549 25.4688 81.9499 25.4688 81.945 25.4688C81.9401 25.4688 81.9352 25.4688 81.9303 25.4688C81.9255 25.4688 81.9207 25.4688 81.9159 25.4688C81.9111 25.4688 81.9064 25.4688 81.9017 25.4688C81.897 25.4688 81.8924 25.4688 81.8878 25.4688C81.8832 25.4688 81.8786 25.4688 81.8741 25.4688C81.8695 25.4688 81.8651 25.4688 81.8606 25.4688C81.8562 25.4688 81.8518 25.4688 81.8474 25.4688C81.8431 25.4688 81.8387 25.4688 81.8345 25.4688C81.8302 25.4688 81.8259 25.4688 81.8218 25.4688C81.8176 25.4688 81.8134 25.4688 81.8093 25.4688C81.8052 25.4688 81.8011 25.4688 81.7971 25.4688C81.7931 25.4688 81.7891 25.4688 81.7851 25.4688C81.7812 25.4688 81.7773 25.4688 81.7734 25.4688C81.7696 25.4688 81.7658 25.4688 81.762 25.4688C81.7582 25.4688 81.7545 25.4688 81.7508 25.4688C81.7471 25.4688 81.7435 25.4688 81.7398 25.4688C81.7362 25.4688 81.7327 25.4688 81.7292 25.4688C81.7256 25.4688 81.7222 25.4688 81.7187 25.4688C81.7153 25.4688 81.7119 25.4688 81.7086 25.4688C81.7052 25.4688 81.7019 25.4688 81.6986 25.4688C81.6954 25.4688 81.6922 25.4688 81.689 25.4688C81.6858 25.4688 81.6827 25.4688 81.6796 25.4688C81.6765 25.4688 81.6735 25.4688 81.6704 25.4688C81.6674 25.4688 81.6645 25.4688 81.6616 25.4688C81.6587 25.4688 81.6558 25.4688 81.653 25.4688C81.6501 25.4688 81.6473 25.4688 81.6446 25.4688C81.6419 25.4688 81.6392 25.4688 81.6365 25.4688C81.6339 25.4688 81.6312 25.4688 81.6287 25.4688C81.6261 25.4688 81.6236 25.4688 81.6211 25.4688C81.6186 25.4688 81.6162 25.4688 81.6138 25.4688C81.6114 25.4688 81.6091 25.4688 81.6068 25.4688C81.6045 25.4688 81.6022 25.4688 81.6 25.4688C81.5978 25.4688 81.5956 25.4688 81.5935 25.4688C81.5914 25.4688 81.5893 25.4688 81.5873 25.4688C81.5852 25.4688 81.5833 25.4688 81.5813 25.4688C81.5794 25.4688 81.5775 25.4688 81.5756 25.4688C81.5738 25.4688 81.572 25.4688 81.5702 25.4688C81.5684 25.4688 81.5667 25.4688 81.565 25.4688C81.5634 25.4688 81.5617 25.4688 81.5602 25.4688C81.5586 25.4688 81.557 25.4688 81.5556 25.4688C81.5541 25.4688 81.5526 25.4688 81.5512 25.4688C81.5498 25.4688 81.5485 25.4688 81.5472 25.4688C81.5459 25.4688 81.5446 25.4688 81.5434 25.4688C81.5422 25.4688 81.541 25.4688 81.5399 25.4688C81.5387 25.4688 81.5377 25.4688 81.5366 25.4688C81.5356 25.4688 81.5346 25.4688 81.5337 25.4688C81.5327 25.4688 81.5318 25.4688 81.531 25.4688C81.5302 25.4688 81.5294 25.4688 81.5286 25.4688C81.5278 25.4688 81.5271 25.4688 81.5265 25.4688C81.5258 25.4688 81.5252 25.4688 81.5246 25.4688C81.5241 25.4688 81.5236 25.4688 81.5231 25.4688C81.5226 25.4688 81.5222 25.4688 81.5218 25.4688C81.5214 25.4688 81.5211 25.4688 81.5208 25.4688C81.5205 25.4688 81.5203 25.4688 81.5201 25.4688C81.5199 25.4688 81.5198 25.4688 81.5197 25.4688C81.5196 25.4688 81.5195 25.4688 81.5195 26.4688Z" fill="white"/>
</svg>
