<svg width="54" height="54" viewBox="0 0 54 54" fill="currentColor" xmlns="http://www.w3.org/2000/svg">
<g>
<path d="M27.675 27.495C28.8755 26.4558 29.8385 25.1705 30.4985 23.7263C31.1584 22.2821 31.5 20.7128 31.5 19.125C31.5 16.1413 30.3147 13.2798 28.205 11.17C26.0952 9.06026 23.2337 7.875 20.25 7.875C17.2663 7.875 14.4048 9.06026 12.295 11.17C10.1853 13.2798 9 16.1413 9 19.125C8.99998 20.7128 9.34155 22.2821 10.0015 23.7263C10.6615 25.1705 11.6245 26.4558 12.825 27.495C9.67531 28.9212 7.00305 31.2244 5.12771 34.1292C3.25236 37.034 2.25331 40.4174 2.25 43.875C2.25 44.4717 2.48705 45.044 2.90901 45.466C3.33097 45.8879 3.90326 46.125 4.5 46.125C5.09674 46.125 5.66903 45.8879 6.09099 45.466C6.51295 45.044 6.75 44.4717 6.75 43.875C6.75 40.2946 8.17232 36.8608 10.7041 34.3291C13.2358 31.7973 16.6696 30.375 20.25 30.375C23.8304 30.375 27.2642 31.7973 29.7959 34.3291C32.3277 36.8608 33.75 40.2946 33.75 43.875C33.75 44.4717 33.9871 45.044 34.409 45.466C34.831 45.8879 35.4033 46.125 36 46.125C36.5967 46.125 37.169 45.8879 37.591 45.466C38.0129 45.044 38.25 44.4717 38.25 43.875C38.2467 40.4174 37.2476 37.034 35.3723 34.1292C33.497 31.2244 30.8247 28.9212 27.675 27.495ZM20.25 25.875C18.915 25.875 17.6099 25.4791 16.4999 24.7374C15.3899 23.9957 14.5247 22.9415 14.0138 21.7081C13.5029 20.4747 13.3692 19.1175 13.6297 17.8081C13.8902 16.4988 14.533 15.296 15.477 14.352C16.421 13.408 17.6238 12.7652 18.9331 12.5047C20.2425 12.2443 21.5997 12.3779 22.8331 12.8888C24.0665 13.3997 25.1207 14.2649 25.8624 15.3749C26.6041 16.4849 27 17.79 27 19.125C27 20.9152 26.2888 22.6321 25.023 23.898C23.7571 25.1638 22.0402 25.875 20.25 25.875ZM42.165 26.595C43.6049 24.9735 44.5455 22.9704 44.8736 20.8268C45.2016 18.6832 44.9031 16.4904 44.014 14.5125C43.1249 12.5346 41.683 10.8558 39.8621 9.6782C38.0411 8.50061 35.9186 7.87442 33.75 7.875C33.1533 7.875 32.581 8.11205 32.159 8.53401C31.7371 8.95597 31.5 9.52826 31.5 10.125C31.5 10.7217 31.7371 11.294 32.159 11.716C32.581 12.1379 33.1533 12.375 33.75 12.375C35.5402 12.375 37.2571 13.0862 38.523 14.352C39.7888 15.6179 40.5 17.3348 40.5 19.125C40.4968 20.3068 40.1834 21.467 39.5911 22.4897C38.9989 23.5124 38.1485 24.3616 37.125 24.9525C36.7914 25.1449 36.5128 25.4197 36.3158 25.7507C36.1188 26.0816 36.0101 26.4575 36 26.8425C35.9906 27.2245 36.0786 27.6025 36.2557 27.9411C36.4329 28.2796 36.6933 28.5675 37.0125 28.7775L37.89 29.3625L38.1825 29.52C40.8946 30.8064 43.1827 32.841 44.7772 35.3842C46.3717 37.9274 47.2062 40.8734 47.1825 43.875C47.1825 44.4717 47.4196 45.044 47.8415 45.466C48.2635 45.8879 48.8358 46.125 49.4325 46.125C50.0292 46.125 50.6015 45.8879 51.0235 45.466C51.4454 45.044 51.6825 44.4717 51.6825 43.875C51.7009 40.4222 50.8361 37.0221 49.1703 33.9976C47.5045 30.9732 45.093 28.425 42.165 26.595Z"/>
</g>
</svg>
