<svg width="36" height="49" viewBox="0 0 36 49" fill="none" xmlns="http://www.w3.org/2000/svg">
<path fill-rule="evenodd" clip-rule="evenodd" d="M19.2558 0C20.0996 0 20.7837 0.679035 20.7837 1.51667V3.7791C20.7837 4.6167 20.0996 5.29576 19.2558 5.29576C18.412 5.29576 17.728 4.6167 17.728 3.7791V1.51667C17.728 0.679035 18.412 0 19.2558 0ZM8.2567 2.92498C8.98748 2.50616 9.92187 2.7547 10.3438 3.48014L11.4833 5.43944C11.9052 6.16481 11.6548 7.09243 10.9241 7.5112C10.1934 7.93004 9.2589 7.68148 8.83705 6.9561L7.69752 4.9968C7.2756 4.27137 7.52599 3.34381 8.2567 2.92498ZM2.29203 10.3631C1.56126 9.94423 0.626871 10.1928 0.204954 10.9182C-0.216964 11.6436 0.0334252 12.5712 0.7642 12.99L2.73793 14.1212C3.46864 14.54 4.40309 14.2915 4.82495 13.566C5.24687 12.8407 4.99648 11.9131 4.26576 11.4943L2.29203 10.3631ZM21.2272 10.8757C22.6579 8.16891 25.108 7.54276 27.4451 8.76006C29.2235 9.68634 30.4485 12.6519 29.5155 14.4173L25.2526 22.4824C26.3181 22.2859 27.4464 22.7253 28.1511 23.5273C28.5173 23.9439 28.7691 24.4586 28.8385 25.0328C28.8629 25.2354 28.8647 25.4455 28.8406 25.6613C29.1639 25.6602 29.4796 25.6957 29.7813 25.7645C31.3358 26.1189 32.5187 27.3582 32.4491 29.0435C32.4448 29.1468 32.4359 29.2517 32.4219 29.3583C32.4968 29.3647 32.5711 29.3742 32.6449 29.3869C34.7522 29.7492 36.3841 32.6302 35.4242 34.4464L31.6348 41.616C28.463 47.6169 20.4305 50.1068 13.9757 46.7448C8.8773 44.0893 6.32111 40.4828 4.84857 36.3573C3.89926 33.6977 3.12747 31.3018 2.25478 28.5925C1.82458 27.257 1.36987 25.8454 0.857281 24.2886C-0.150562 21.2275 1.31399 18.8538 3.71968 17.9331C6.0196 17.0529 8.68156 18.6154 9.67395 21.0344L11.9066 25.5375C12.2204 26.3251 12.7011 27.007 13.1385 26.1792L21.2272 10.8757ZM9.11652 26.7792L6.93231 22.3739C6.90057 22.3098 6.87107 22.2446 6.84393 22.1785C6.6124 21.614 6.18038 21.1566 5.72432 20.9097C5.28101 20.6698 4.9805 20.7015 4.8189 20.7634C4.24314 20.9838 3.9116 21.3218 3.75012 21.6475C3.60186 21.9466 3.47558 22.477 3.76175 23.3462C4.28915 24.948 4.75032 26.3798 5.18282 27.7227C6.04604 30.4027 6.79509 32.7284 7.72878 35.3442C8.97731 38.842 11.0617 41.8015 15.3955 44.0587C20.4169 46.6742 26.5729 44.6641 28.9289 40.2066L32.6423 33.181C32.6258 33.0954 32.5822 32.9592 32.4889 32.8012C32.3799 32.6164 32.2502 32.4824 32.1502 32.4092C32.1274 32.3925 32.1099 32.3814 32.0977 32.3745C31.292 32.2892 30.5525 31.8895 30.0429 31.2619C29.5199 30.6178 29.2846 29.7896 29.3915 28.9692C29.3991 28.9113 29.3961 28.8795 29.3939 28.8671C29.3939 28.8671 29.3879 28.8599 29.3815 28.8536C29.335 28.8082 29.1638 28.6936 28.8511 28.6947C27.9805 28.6976 27.1499 28.3318 26.5679 27.6889C26.0205 27.0843 25.7419 26.2885 25.7904 25.4812C25.7821 25.4773 25.7746 25.4743 25.7683 25.4723C24.6314 25.6656 23.48 25.2066 22.7937 24.2833C22.0989 23.3484 22.003 22.1018 22.5468 21.0731L26.7782 13.0674C26.7799 13.0495 26.7815 13.0215 26.7806 12.9825C26.7776 12.8351 26.7404 12.6124 26.6401 12.35C26.5407 12.0899 26.4038 11.8554 26.2616 11.6784C26.1286 11.513 26.0367 11.4535 26.026 11.4466C25.4434 11.1432 25.0925 11.1832 24.9239 11.2365C24.7584 11.2889 24.3563 11.4842 23.9331 12.285L15.8444 27.5885C15.6122 28.0279 15.0356 28.9623 13.8483 29.3902C12.4118 29.9079 11.206 29.3266 10.5991 28.8576C10.0489 28.4325 9.71273 27.9219 9.5375 27.6266C9.36474 27.3357 9.22588 27.0412 9.11652 26.7792ZM10.4429 24.7505C10.4385 24.7587 10.4338 24.7678 10.4338 24.7678L10.4327 24.7699L10.4429 24.7505Z" fill="#FF7500"/>
</svg>
