<svg width="54" height="54" viewBox="0 0 54 54" fill="none" xmlns="http://www.w3.org/2000/svg">
<g opacity="0.3">
<path d="M14.4073 18H5.37804C5.06585 18.0003 4.75973 17.9138 4.49391 17.75C4.22808 17.5863 4.01303 17.3519 3.87279 17.073L0.180542 9.7605C0.0618305 9.52457 0 9.26412 0 9C0 8.73588 0.0618305 8.47544 0.180542 8.2395L3.87279 0.927001C4.01303 0.648079 4.22808 0.41366 4.49391 0.249953C4.75973 0.0862462 5.06585 -0.000296597 5.37804 7.63721e-07H14.4073C14.7053 -7.39063e-05 14.9981 0.0787921 15.2558 0.228577C15.5134 0.378362 15.7269 0.593722 15.8743 0.852751L20.0278 8.16525C20.3203 8.68275 20.3203 9.315 20.0278 9.8325L15.8743 17.145C15.7273 17.4046 15.5141 17.6205 15.2563 17.7708C14.9986 17.921 14.7056 18.0001 14.4073 18ZM6.41754 14.625H13.4263L16.619 9L13.424 3.375H6.41754L3.57579 9L6.41754 14.625ZM31.2823 36H22.253C21.9409 36.0003 21.6347 35.9138 21.3689 35.75C21.1031 35.5863 20.888 35.3519 20.7478 35.073L17.0555 27.7605C16.9368 27.5246 16.875 27.2641 16.875 27C16.875 26.7359 16.9368 26.4754 17.0555 26.2395L20.7478 18.927C20.888 18.6481 21.1031 18.4137 21.3689 18.25C21.6347 18.0862 21.9409 17.9997 22.253 18H31.2823C31.5803 17.9999 31.8731 18.0788 32.1308 18.2286C32.3884 18.3784 32.6019 18.5937 32.7493 18.8527L36.9028 26.1652C37.1953 26.6827 37.1953 27.315 36.9028 27.8325L32.7493 35.145C32.6023 35.4046 32.3891 35.6205 32.1313 35.7708C31.8736 35.921 31.5806 36.0001 31.2823 36ZM23.2925 32.625H30.3013L33.4963 27L30.3013 21.375H23.2925L20.4508 27L23.2925 32.625ZM48.1573 18H39.128C38.8159 18.0003 38.5097 17.9138 38.2439 17.75C37.9781 17.5863 37.763 17.3519 37.6228 17.073L33.9305 9.7605C33.8118 9.52457 33.75 9.26412 33.75 9C33.75 8.73588 33.8118 8.47544 33.9305 8.2395L37.6228 0.927001C37.763 0.648079 37.9781 0.41366 38.2439 0.249953C38.5097 0.0862462 38.8159 -0.000296597 39.128 7.63721e-07H48.1573C48.4553 -7.39063e-05 48.7481 0.0787921 49.0058 0.228577C49.2634 0.378362 49.4769 0.593722 49.6243 0.852751L53.7778 8.16525C54.0703 8.68275 54.0703 9.315 53.7778 9.8325L49.6243 17.145C49.4773 17.4046 49.2641 17.6205 49.0063 17.7708C48.7486 17.921 48.4556 18.0001 48.1573 18ZM40.1675 14.625H47.1763L50.3713 9L47.1763 3.375H40.1675L37.3258 9L40.1675 14.625ZM14.4073 54H5.37804C5.06585 54.0003 4.75973 53.9138 4.49391 53.75C4.22808 53.5863 4.01303 53.3519 3.87279 53.073L0.180542 45.7605C0.0618305 45.5246 0 45.2641 0 45C0 44.7359 0.0618305 44.4754 0.180542 44.2395L3.87279 36.927C4.01303 36.6481 4.22808 36.4137 4.49391 36.25C4.75973 36.0862 5.06585 35.9997 5.37804 36H14.4073C14.7053 35.9999 14.9981 36.0788 15.2558 36.2286C15.5134 36.3784 15.7269 36.5937 15.8743 36.8527L20.0278 44.1652C20.3203 44.6828 20.3203 45.315 20.0278 45.8325L15.8743 53.145C15.7273 53.4046 15.5141 53.6205 15.2563 53.7708C14.9986 53.921 14.7056 54.0001 14.4073 54ZM6.41754 50.625H13.4263L16.6213 45L13.4263 39.375H6.41754L3.57579 45L6.41754 50.625ZM48.1573 54H39.128C38.8159 54.0003 38.5097 53.9138 38.2439 53.75C37.9781 53.5863 37.763 53.3519 37.6228 53.073L33.9305 45.7605C33.8118 45.5246 33.75 45.2641 33.75 45C33.75 44.7359 33.8118 44.4754 33.9305 44.2395L37.6228 36.927C37.763 36.6481 37.9781 36.4137 38.2439 36.25C38.5097 36.0862 38.8159 35.9997 39.128 36H48.1573C48.4553 35.9999 48.7481 36.0788 49.0058 36.2286C49.2634 36.3784 49.4769 36.5937 49.6243 36.8527L53.7778 44.1652C54.0703 44.6828 54.0703 45.315 53.7778 45.8325L49.6243 53.145C49.4773 53.4046 49.2641 53.6205 49.0063 53.7708C48.7486 53.921 48.4556 54.0001 48.1573 54ZM40.1675 50.625H47.1763L50.3713 45L47.1763 39.375H40.1675L37.3258 45L40.1675 50.625Z" fill="white"/>
</g>
</svg>
