<svg width="295" height="404" viewBox="0 0 295 404" fill="none" xmlns="http://www.w3.org/2000/svg">
<g clip-path="url(#clip0_522_2328)">
<path opacity="0.6" d="M283.307 290.525L177.93 229.878C171.969 226.438 167.121 217.226 167.121 209.293V10.2642C167.121 2.38836 171.969 -1.25102 177.93 2.1609L283.45 62.8363C289.41 66.2766 294.259 75.4888 294.259 83.4215V282.45C294.116 290.326 289.268 293.966 283.307 290.525Z" fill="#2E3D55"/>
<path d="M287.615 292.857C285.938 292.806 284.305 292.316 282.88 291.435L177.503 230.646C171.286 227.063 166.095 217.51 166.095 209.293V10.2642C165.931 8.45474 166.245 6.63391 167.005 4.98281C167.766 3.33171 168.946 1.90789 170.43 0.852981C171.683 0.217436 173.086 -0.0654607 174.488 0.0347388C175.89 0.134938 177.238 0.61444 178.387 1.42163L283.907 62.0685C290.096 65.6226 295.144 75.2044 295.144 83.3931V282.422C295.334 284.225 295.05 286.046 294.32 287.706C293.59 289.366 292.439 290.808 290.98 291.89C289.97 292.517 288.804 292.852 287.615 292.857ZM283.764 290.013C284.65 290.652 285.692 291.042 286.781 291.142C287.869 291.242 288.965 291.049 289.953 290.582C291.134 289.65 292.056 288.431 292.63 287.042C293.204 285.653 293.412 284.141 293.233 282.649V83.6205C293.233 76.0006 288.584 67.1011 282.88 63.7176L177.503 2.84327C176.617 2.20455 175.575 1.8148 174.487 1.71477C173.398 1.61474 172.302 1.80809 171.314 2.27462C170.13 3.21195 169.204 4.43484 168.625 5.82781C168.047 7.22078 167.833 8.73785 168.006 10.2358V209.265C168.006 216.913 172.655 225.812 178.387 229.167L283.764 290.013Z" fill="#758AAB"/>
<path opacity="0.6" d="M11.6934 290.525L117.071 229.878C123.031 226.438 127.851 217.226 127.851 209.293V10.2642C127.851 2.33151 123.031 -1.30787 117.071 2.10405L11.6934 62.8363C5.70447 66.2766 0.884766 75.4888 0.884766 83.4215V282.45C0.884766 290.326 5.70447 293.966 11.6934 290.525Z" fill="#2E3D55"/>
<path d="M7.38658 292.857C6.25575 292.86 5.144 292.566 4.16394 292.004C2.68233 290.909 1.51697 289.444 0.785805 287.757C0.0546387 286.069 -0.216381 284.219 0.000175104 282.393V83.3646C0.000175104 75.176 5.04803 65.5942 11.2366 62.0401L116.614 1.42163C117.763 0.61444 119.111 0.134938 120.513 0.0347388C121.915 -0.0654607 123.318 0.217436 124.571 0.852981C126.032 1.93268 127.185 3.37433 127.916 5.03508C128.646 6.69582 128.928 8.51801 128.735 10.3211V209.35C128.735 217.567 123.715 227.12 117.498 230.703L12.1207 291.293C10.71 292.224 9.07593 292.764 7.38658 292.857ZM121.348 1.76283C119.993 1.78647 118.667 2.15863 117.498 2.84327L12.1207 63.6039C6.41694 66.8737 1.76835 75.7731 1.76835 83.5068V282.536C1.59242 284.031 1.80117 285.546 2.37494 286.939C2.94871 288.332 3.86861 289.556 5.04803 290.497C6.04069 290.95 7.13609 291.134 8.22301 291.029C9.30992 290.924 10.3497 290.535 11.2366 289.9L116.757 229.253C122.461 225.983 127.138 217.084 127.138 209.35V10.3211C127.294 8.81056 127.059 7.28534 126.455 5.8914C125.85 4.49747 124.897 3.2815 123.687 2.35991C122.975 1.95649 122.167 1.75034 121.348 1.76283Z" fill="#758AAB"/>
<path d="M144.762 404C139.845 404.105 134.985 402.95 130.645 400.645L35.8477 346.083C34.0589 345.451 32.5105 344.281 31.4155 342.736C30.3204 341.191 29.7324 339.345 29.7324 337.453C29.7324 335.561 30.3204 333.716 31.4155 332.17C32.5105 330.625 34.0589 329.456 35.8477 328.824L130.16 274.176C134.531 271.968 139.362 270.817 144.262 270.817C149.163 270.817 153.994 271.968 158.365 274.176L253.162 328.767C254.941 329.405 256.479 330.575 257.567 332.117C258.654 333.659 259.237 335.497 259.237 337.382C259.237 339.267 258.654 341.106 257.567 342.648C256.479 344.19 254.941 345.359 253.162 345.997L158.85 400.645C154.519 402.947 149.668 404.103 144.762 404ZM144.248 272.527C139.686 272.493 135.191 273.618 131.187 275.797L36.7318 330.359C35.2135 330.834 33.8869 331.779 32.945 333.058C32.0031 334.336 31.4952 335.881 31.4952 337.468C31.4952 339.054 32.0031 340.599 32.945 341.877C33.8869 343.156 35.2135 344.101 36.7318 344.576L131.529 399.138C135.624 401.213 140.153 402.295 144.747 402.295C149.341 402.295 153.87 401.213 157.966 399.138L252.278 344.49C253.796 344.016 255.123 343.07 256.065 341.792C257.007 340.513 257.515 338.969 257.515 337.382C257.515 335.796 257.007 334.251 256.065 332.973C255.123 331.694 253.796 330.749 252.278 330.274L157.452 275.797C153.406 273.594 148.858 272.468 144.248 272.527Z" fill="#758AAB"/>
<path d="M258.839 307.528V262.206L201.373 269.855L158.367 245.09C154.131 242.958 149.452 241.847 144.706 241.847C139.961 241.847 135.282 242.958 131.046 245.09L124.372 249.355L31.1152 261.751V307.869C31.3269 309.522 31.9632 311.091 32.9625 312.426C33.9619 313.762 35.2903 314.817 36.819 315.489L131.616 370.051C135.848 372.196 140.529 373.314 145.277 373.314C150.024 373.314 154.705 372.196 158.937 370.051L253.221 315.375C254.744 314.71 256.069 313.664 257.068 312.34C258.067 311.015 258.706 309.455 258.925 307.812L258.839 307.528Z" fill="url(#paint0_linear_522_2328)"/>
<path d="M253.164 254.018L158.367 199.455C154.134 197.31 149.454 196.192 144.706 196.192C139.958 196.192 135.278 197.31 131.046 199.455L36.7619 254.103C29.2044 258.453 29.2044 265.476 36.7619 269.826L131.559 324.417C135.795 326.549 140.474 327.659 145.219 327.659C149.965 327.659 154.644 326.549 158.88 324.417L253.164 269.741C260.721 265.391 260.721 258.368 253.164 254.018Z" fill="#4F5B7B"/>
<path d="M253.164 266.983L158.88 321.659C154.648 323.804 149.967 324.922 145.219 324.922C140.472 324.922 135.791 323.804 131.559 321.659L36.7619 267.097C35.4631 266.446 34.3136 265.534 33.3859 264.418C32.4582 263.302 31.7724 262.007 31.3718 260.614C30.6873 263.884 32.484 267.324 36.8759 269.826L131.673 324.417C135.909 326.549 140.588 327.659 145.333 327.659C150.079 327.659 154.758 326.549 158.994 324.417L253.164 269.741C257.556 267.267 259.523 263.798 258.668 260.5C258.254 261.904 257.551 263.205 256.603 264.322C255.655 265.438 254.484 266.345 253.164 266.983Z" fill="white"/>
<path d="M171.627 336.501L167.121 339.088V333.913L171.627 331.326V336.501Z" fill="white"/>
<path d="M181.011 331.099L176.533 333.686V328.511L181.011 325.924V331.099Z" fill="white"/>
<path d="M190.393 325.696L185.916 328.284V323.109L190.393 320.522V325.696Z" fill="white"/>
<path d="M182.722 340.567L178.244 343.154V338.008L182.722 335.42V340.567Z" fill="white"/>
<path d="M190.991 335.818L186.514 338.406V333.231L190.991 330.644V335.818Z" fill="white"/>
<path d="M220.509 308.352L216.031 310.94V305.765L220.509 303.178V308.352Z" fill="white"/>
<path d="M246.376 293.482L241.898 296.041V290.895L246.376 288.307V293.482Z" fill="white"/>
<path d="M199.805 320.294L195.299 322.881V317.707L199.805 315.119V320.294Z" fill="white"/>
<path opacity="0.4" d="M139.742 301.387L75.8315 264.651C73.2363 263.145 73.55 260.529 76.5445 258.965L138.887 222.941C140.419 222.087 142.13 221.603 143.884 221.529C145.637 221.455 147.384 221.792 148.983 222.514L212.78 259.249C215.375 260.728 215.033 263.344 212.038 264.936L149.724 300.932C148.204 301.758 146.515 302.228 144.786 302.307C143.057 302.385 141.332 302.071 139.742 301.387Z" fill="#06033E"/>
<path d="M114.504 341.192L61.887 310.798C61.1978 310.302 60.6332 309.654 60.2374 308.904C59.8416 308.154 59.6253 307.323 59.6055 306.476V302.552C59.6055 300.903 60.6322 300.135 61.887 300.846L114.504 331.155C115.229 331.634 115.827 332.279 116.249 333.036C116.671 333.793 116.904 334.64 116.929 335.506V339.401C116.929 341.192 115.759 341.818 114.504 341.192Z" fill="white"/>
<path d="M258.839 222.514V177.193L201.373 184.812L158.367 160.076C154.131 157.944 149.452 156.834 144.706 156.834C139.961 156.834 135.282 157.944 131.046 160.076L124.372 164.341L31.1152 176.738V222.855C31.3269 224.508 31.9632 226.078 32.9625 227.413C33.9619 228.748 35.2903 229.803 36.819 230.475L131.616 285.038C135.848 287.183 140.529 288.301 145.277 288.301C150.024 288.301 154.705 287.183 158.937 285.038L253.164 230.305C254.687 229.639 256.011 228.594 257.011 227.269C258.01 225.944 258.649 224.385 258.868 222.742L258.839 222.514Z" fill="url(#paint1_linear_522_2328)"/>
<path d="M253.164 169.004L158.367 114.442C154.134 112.297 149.454 111.178 144.706 111.178C139.958 111.178 135.278 112.297 131.046 114.442L36.7619 169.089C29.2044 173.439 29.2044 180.462 36.7619 184.812L131.559 239.403C135.795 241.535 140.474 242.646 145.219 242.646C149.965 242.646 154.644 241.535 158.88 239.403L253.164 184.812C260.721 180.377 260.721 173.439 253.164 169.004Z" fill="#4F5B7B"/>
<path opacity="0.4" d="M208.018 172.302L152.777 140.514C150.311 139.266 147.585 138.615 144.82 138.615C142.055 138.615 139.329 139.266 136.863 140.514L81.9072 172.359C77.5153 174.889 77.5153 178.984 81.9072 181.514L137.148 213.245C139.614 214.494 142.34 215.145 145.105 215.145C147.87 215.145 150.597 214.494 153.062 213.245L208.018 181.457C212.41 178.927 212.41 174.833 208.018 172.302Z" fill="#06033E"/>
<path d="M253.164 181.969L158.88 236.645C154.648 238.79 149.967 239.908 145.219 239.908C140.472 239.908 135.791 238.79 131.559 236.645L36.7619 181.969C35.4747 181.331 34.3324 180.436 33.4054 179.341C32.4783 178.246 31.7863 176.973 31.3718 175.6C30.6873 178.87 32.484 182.31 36.8759 184.812L131.559 239.403C135.795 241.535 140.474 242.646 145.219 242.646C149.965 242.646 154.644 241.535 158.88 239.403L253.164 184.812C257.556 182.282 259.381 178.87 258.668 175.572C258.244 176.96 257.536 178.245 256.588 179.346C255.641 180.447 254.475 181.34 253.164 181.969Z" fill="white"/>
<path d="M171.627 251.487L167.121 254.075V248.9L171.627 246.312V251.487Z" fill="white"/>
<path d="M181.011 246.085L176.533 248.672V243.498L181.011 240.91V246.085Z" fill="white"/>
<path d="M190.393 240.683L185.916 243.27V238.095L190.393 235.508V240.683Z" fill="white"/>
<path d="M182.722 255.553L178.244 258.14V252.994L182.722 250.407V255.553Z" fill="white"/>
<path d="M190.991 250.805L186.514 253.392V248.217L190.991 245.63V250.805Z" fill="white"/>
<path d="M220.509 223.339L216.031 225.926V220.751L220.509 218.164V223.339Z" fill="white"/>
<path d="M246.376 208.44L241.898 211.027V205.881L246.376 203.294V208.44Z" fill="white"/>
<path d="M199.805 235.28L195.299 237.868V232.693L199.805 230.106V235.28Z" fill="white"/>
<path d="M258.839 137.5V92.1787L201.373 99.8271L158.367 75.0622C154.131 72.9304 149.452 71.8198 144.706 71.8198C139.961 71.8198 135.282 72.9304 131.046 75.0622L124.372 79.3271L31.1152 91.7238V137.87C31.3269 139.522 31.9632 141.092 32.9625 142.427C33.9619 143.763 35.2903 144.817 36.819 145.49L131.559 200.024C135.791 202.169 140.472 203.287 145.22 203.287C149.967 203.287 154.648 202.169 158.88 200.024L253.164 145.376C254.686 144.702 256.009 143.65 257.007 142.321C258.005 140.992 258.646 139.43 258.868 137.785L258.839 137.5Z" fill="url(#paint2_linear_522_2328)"/>
<path d="M253.164 83.9902L158.367 29.4279C154.134 27.2828 149.454 26.1648 144.706 26.1648C139.958 26.1648 135.278 27.2828 131.046 29.4279L36.7619 84.0755C29.2044 88.4257 29.2044 95.4485 36.7619 99.7987L131.559 154.389C135.795 156.521 140.474 157.632 145.219 157.632C149.965 157.632 154.644 156.521 158.88 154.389L253.164 99.7134C260.721 95.3633 260.721 88.3404 253.164 83.9902Z" fill="url(#paint3_linear_522_2328)"/>
<path d="M253.164 96.9554L158.88 151.631C154.648 153.777 149.967 154.895 145.219 154.895C140.472 154.895 135.791 153.777 131.559 151.631L36.7619 97.0692C35.4631 96.4183 34.3136 95.5063 33.3859 94.3906C32.4582 93.2749 31.7724 91.9796 31.3718 90.5865C30.6873 93.8563 32.484 97.2966 36.8759 99.7987L131.559 154.389C135.795 156.521 140.474 157.632 145.219 157.632C149.965 157.632 154.644 156.521 158.88 154.389L253.164 99.7134C257.556 97.1829 259.523 93.8278 258.668 90.4728C258.259 91.8785 257.558 93.1824 256.609 94.2994C255.661 95.4165 254.487 96.3215 253.164 96.9554Z" fill="white"/>
<path d="M171.627 166.473L167.121 169.061V163.886L171.627 161.299V166.473Z" fill="white"/>
<path d="M181.011 161.071L176.533 163.659V158.484L181.011 155.896V161.071Z" fill="white"/>
<path d="M190.393 155.669L185.916 158.256V153.082L190.393 150.494V155.669Z" fill="white"/>
<path d="M182.722 170.539L178.244 173.127V167.98L182.722 165.393V170.539Z" fill="white"/>
<path d="M190.991 165.791L186.514 168.378V163.204L190.991 160.616V165.791Z" fill="white"/>
<path d="M220.509 138.325L216.031 140.912V135.738L220.509 133.179V138.325Z" fill="white"/>
<path d="M246.376 123.455L241.898 126.014V120.867L246.376 118.28V123.455Z" fill="white"/>
<path d="M199.805 150.267L195.299 152.854V147.679L199.805 145.092V150.267Z" fill="white"/>
<path d="M114.504 257.97L61.887 227.689C61.194 227.19 60.6271 226.537 60.2311 225.782C59.8351 225.027 59.6209 224.191 59.6055 223.339V219.443C59.6055 217.794 60.6322 217.027 61.887 217.737L114.504 248.018C115.197 248.517 115.764 249.17 116.16 249.925C116.556 250.68 116.771 251.517 116.786 252.368V256.264C116.929 257.941 115.759 258.737 114.504 257.97Z" fill="white"/>
<path d="M114.504 174.861L61.887 144.58C61.194 144.081 60.6271 143.429 60.2311 142.674C59.8351 141.919 59.6209 141.082 59.6055 140.23V136.477C59.6055 134.799 60.6322 134.032 61.887 134.771L114.504 164.91C115.197 165.408 115.764 166.061 116.16 166.816C116.556 167.571 116.771 168.408 116.786 169.26V173.155C116.929 174.804 115.759 175.572 114.504 174.861Z" fill="white"/>
</g>
<defs>
<linearGradient id="paint0_linear_522_2328" x1="17.4028" y1="307.594" x2="178.059" y2="307.594" gradientUnits="userSpaceOnUse">
<stop stop-color="#59626B"/>
<stop offset="0.13" stop-color="#5B656F"/>
<stop offset="0.55" stop-color="#5C6A77"/>
<stop offset="0.85" stop-color="#283037"/>
<stop offset="1" stop-color="#262E34"/>
</linearGradient>
<linearGradient id="paint1_linear_522_2328" x1="17.4063" y1="222.58" x2="178.023" y2="222.58" gradientUnits="userSpaceOnUse">
<stop stop-color="#59626B"/>
<stop offset="0.13" stop-color="#5B656F"/>
<stop offset="0.55" stop-color="#5C6A77"/>
<stop offset="0.85" stop-color="#283037"/>
<stop offset="1" stop-color="#262E34"/>
</linearGradient>
<linearGradient id="paint2_linear_522_2328" x1="17.4063" y1="137.566" x2="178.023" y2="137.566" gradientUnits="userSpaceOnUse">
<stop stop-color="#59626B"/>
<stop offset="0.13" stop-color="#5B656F"/>
<stop offset="0.55" stop-color="#5C6A77"/>
<stop offset="0.85" stop-color="#283037"/>
<stop offset="1" stop-color="#262E34"/>
</linearGradient>
<linearGradient id="paint3_linear_522_2328" x1="144.963" y1="26.1648" x2="144.963" y2="157.632" gradientUnits="userSpaceOnUse">
<stop stop-color="#FF8116"/>
<stop offset="1" stop-color="#FFAA61"/>
</linearGradient>
<clipPath id="clip0_522_2328">
<rect width="295" height="404" fill="white"/>
</clipPath>
</defs>
</svg>
