<svg width="70" height="52" viewBox="0 0 70 52" fill="none" xmlns="http://www.w3.org/2000/svg">
<path d="M4.74898 52H15.8299V25.2121L0 13.394V47.2727C0 49.8885 2.12913 52 4.74898 52Z" fill="#4285F4"/>
<path d="M53.8203 52H64.9012C67.5293 52 69.6502 49.8806 69.6502 47.2727V13.394L53.8203 25.2121" fill="#34A853"/>
<path d="M53.8203 4.72727V25.2121L69.6502 13.3939V7.09093C69.6502 1.24485 62.9464 -2.08788 58.2528 1.41818" fill="#FBBC04"/>
<path d="M15.8281 25.2121V4.72726L34.8241 18.9091L53.8198 4.72726V25.2121L34.8241 39.3939" fill="#EA4335"/>
<path d="M0 7.09093V13.3939L15.8299 25.2121V4.72727L11.3976 1.41818C6.69607 -2.08788 0 1.24485 0 7.09093Z" fill="#C5221F"/>
</svg>
