<svg width="62" height="56" viewBox="0 0 62 56" fill="none" xmlns="http://www.w3.org/2000/svg">
<g clip-path="url(#clip0_4388_14852)">
<mask id="mask0_4388_14852" style="mask-type:luminance" maskUnits="userSpaceOnUse" x="0" y="0" width="62" height="56">
<path d="M61.9574 0H0V56H61.9574V0Z" fill="white"/>
</mask>
<g mask="url(#mask0_4388_14852)">
<path d="M4.68407 47.9949L7.41642 52.7692C7.98422 53.7743 8.80035 54.5641 9.75847 55.1384L19.5169 38.0513H0C0 39.1641 0.283883 40.2769 0.851648 41.282L4.68407 47.9949Z" fill="#0066DA"/>
<path d="M30.9787 17.9487L21.2202 0.861542C20.2622 1.4359 19.446 2.22565 18.8782 3.23077L0.851648 34.8205C0.294325 35.804 0.000742046 36.9177 0 38.0513H19.5169L30.9787 17.9487Z" fill="#00AC47"/>
<path d="M52.1974 55.1384C53.1555 54.5641 53.9717 53.7743 54.5394 52.7692L55.675 50.7949L61.1044 41.282C61.6718 40.2769 61.9558 39.1641 61.9558 38.0513H42.4375L46.5907 46.3077L52.1974 55.1384Z" fill="#EA4335"/>
<path d="M30.9772 17.9487L40.7357 0.861538C39.7776 0.28718 38.6776 0 37.542 0H24.4125C23.2769 0 22.1769 0.323077 21.2188 0.861538L30.9772 17.9487Z" fill="#00832D"/>
<path d="M42.4398 38.0513H19.5163L9.75781 55.1384C10.7159 55.7128 11.816 56 12.9515 56H49.0046C50.1401 56 51.2402 55.6769 52.1983 55.1384L42.4398 38.0513Z" fill="#2684FC"/>
<path d="M52.0943 19.0257L43.081 3.23077C42.5132 2.22565 41.6971 1.4359 40.7389 0.861542L30.9805 17.9487L42.4423 38.0513H61.9237C61.9237 36.9384 61.6397 35.8257 61.0723 34.8205L52.0943 19.0257Z" fill="#FFBA00"/>
</g>
</g>
<defs>
<clipPath id="clip0_4388_14852">
<rect width="62" height="56" fill="white"/>
</clipPath>
</defs>
</svg>
