<svg width="57" height="58" viewBox="0 0 57 58" fill="none" xmlns="http://www.w3.org/2000/svg">
<path d="M31.082 24.112L32.7114 26.4307L35.218 24.6133V37.7733H37.9127V20.4773H35.6567L31.082 24.112Z" fill="#1E88E5"/>
<path d="M26.7592 28.624C27.7619 27.7467 28.3885 26.4307 28.3885 25.052C28.3885 22.2947 25.9445 20.0387 22.9992 20.0387C20.4925 20.0387 18.2992 21.6053 17.7352 23.924L20.3672 24.6133C20.6179 23.548 21.7459 22.796 22.9992 22.796C24.5032 22.796 25.6939 23.7987 25.6939 25.052C25.6939 26.3053 24.5032 27.308 22.9992 27.308H21.4325V30.0653H22.9992C24.6912 30.0653 26.1325 31.256 26.1325 32.6347C26.1325 34.076 24.7539 35.204 23.0619 35.204C21.5579 35.204 20.2419 34.264 20.0539 32.948L17.4219 33.3867C17.8605 35.956 20.3045 37.8987 23.1245 37.8987C26.3205 37.8987 28.8899 35.5173 28.8899 32.572C28.8272 31.0053 28.0125 29.564 26.7592 28.624Z" fill="#1E88E5"/>
<path d="M44.2442 57.388H12.6602V44.792H44.2442V57.388Z" fill="#FBC02D"/>
<path d="M56.8382 44.792V13.208H44.2422V44.792H56.8382Z" fill="#4CAF50"/>
<path d="M44.2427 13.208V0.612H4.76267C2.13067 0.612 0 2.74267 0 5.37467V44.8547H12.596V13.208H44.2427Z" fill="#1E88E5"/>
<path d="M44.2422 44.792V57.388L56.8382 44.792H44.2422Z" fill="#E53935"/>
<path d="M52.1382 0.612H44.2422V13.208H56.8382V5.312C56.8382 2.68 54.7702 0.612 52.1382 0.612Z" fill="#1565C0"/>
<path d="M4.7625 57.388H12.6585V44.792H0.0625V52.688C0.0625 55.32 2.1305 57.388 4.7625 57.388Z" fill="#1565C0"/>
</svg>
