<svg width="38" height="54" viewBox="0 0 38 54" fill="none" xmlns="http://www.w3.org/2000/svg">
<mask id="mask0_4388_14882" style="mask-type:alpha" maskUnits="userSpaceOnUse" x="0" y="0" width="38" height="54">
<path d="M23.7261 0H3.55892C1.60151 0 0 1.63659 0 3.63688V49.7039C0 51.7042 1.60151 53.3408 3.55892 53.3408H34.4029C36.3603 53.3408 37.9618 51.7042 37.9618 49.7039V14.5475L23.7261 0Z" fill="white"/>
</mask>
<g mask="url(#mask0_4388_14882)">
<path d="M23.7261 0H3.55892C1.60151 0 0 1.63659 0 3.63688V49.7039C0 51.7042 1.60151 53.3408 3.55892 53.3408H34.4029C36.3603 53.3408 37.9618 51.7042 37.9618 49.7039V14.5475L29.6576 8.48601L23.7261 0Z" fill="#0F9D58"/>
</g>
<mask id="mask1_4388_14882" style="mask-type:alpha" maskUnits="userSpaceOnUse" x="0" y="0" width="38" height="54">
<path d="M23.7261 0H3.55892C1.60151 0 0 1.63659 0 3.63688V49.7039C0 51.7042 1.60151 53.3408 3.55892 53.3408H34.4029C36.3603 53.3408 37.9618 51.7042 37.9618 49.7039V14.5475L23.7261 0Z" fill="white"/>
</mask>
<g mask="url(#mask1_4388_14882)">
<path d="M9.49219 26.0643V43.6425H28.4731V26.0643H9.49219ZM17.7963 41.2179H11.8648V38.1872H17.7963V41.2179ZM17.7963 36.3687H11.8648V33.338H17.7963V36.3687ZM17.7963 31.5196H11.8648V28.4888H17.7963V31.5196ZM26.1005 41.2179H20.1689V38.1872H26.1005V41.2179ZM26.1005 36.3687H20.1689V33.338H26.1005V36.3687ZM26.1005 31.5196H20.1689V28.4888H26.1005V31.5196Z" fill="#F1F1F1"/>
</g>
<mask id="mask2_4388_14882" style="mask-type:alpha" maskUnits="userSpaceOnUse" x="0" y="0" width="38" height="54">
<path d="M23.7261 0H3.55892C1.60151 0 0 1.63659 0 3.63688V49.7039C0 51.7042 1.60151 53.3408 3.55892 53.3408H34.4029C36.3603 53.3408 37.9618 51.7042 37.9618 49.7039V14.5475L23.7261 0Z" fill="white"/>
</mask>
<g mask="url(#mask2_4388_14882)">
<path d="M24.7695 13.4837L37.9642 26.9644V14.5475L24.7695 13.4837Z" fill="url(#paint0_linear_4388_14882)"/>
</g>
<mask id="mask3_4388_14882" style="mask-type:alpha" maskUnits="userSpaceOnUse" x="0" y="0" width="38" height="54">
<path d="M23.7261 0H3.55892C1.60151 0 0 1.63659 0 3.63688V49.7039C0 51.7042 1.60151 53.3408 3.55892 53.3408H34.4029C36.3603 53.3408 37.9618 51.7042 37.9618 49.7039V14.5475L23.7261 0Z" fill="white"/>
</mask>
<g mask="url(#mask3_4388_14882)">
<path d="M23.7266 0V10.9106C23.7266 12.92 25.3191 14.5475 27.2855 14.5475H37.9622L23.7266 0Z" fill="#87CEAC"/>
</g>
<mask id="mask4_4388_14882" style="mask-type:alpha" maskUnits="userSpaceOnUse" x="0" y="0" width="38" height="54">
<path d="M23.7261 0H3.55892C1.60151 0 0 1.63659 0 3.63688V49.7039C0 51.7042 1.60151 53.3408 3.55892 53.3408H34.4029C36.3603 53.3408 37.9618 51.7042 37.9618 49.7039V14.5475L23.7261 0Z" fill="white"/>
</mask>
<g mask="url(#mask4_4388_14882)">
<path d="M3.55892 0C1.60151 0 0 1.63659 0 3.63688V3.93994C0 1.93967 1.60151 0.303074 3.55892 0.303074H23.7261V0H3.55892Z" fill="white" fill-opacity="0.2"/>
</g>
<mask id="mask5_4388_14882" style="mask-type:alpha" maskUnits="userSpaceOnUse" x="0" y="0" width="38" height="54">
<path d="M23.7261 0H3.55892C1.60151 0 0 1.63659 0 3.63688V49.7039C0 51.7042 1.60151 53.3408 3.55892 53.3408H34.4029C36.3603 53.3408 37.9618 51.7042 37.9618 49.7039V14.5475L23.7261 0Z" fill="white"/>
</mask>
<g mask="url(#mask5_4388_14882)">
<path d="M34.4029 53.0377H3.55892C1.60151 53.0377 0 51.4011 0 49.4009V49.7039C0 51.7043 1.60151 53.3408 3.55892 53.3408H34.4029C36.3603 53.3408 37.9618 51.7043 37.9618 49.7039V49.4009C37.9618 51.4011 36.3603 53.0377 34.4029 53.0377Z" fill="#263238" fill-opacity="0.2"/>
</g>
<mask id="mask6_4388_14882" style="mask-type:alpha" maskUnits="userSpaceOnUse" x="0" y="0" width="38" height="54">
<path d="M23.7261 0H3.55892C1.60151 0 0 1.63659 0 3.63688V49.7039C0 51.7042 1.60151 53.3408 3.55892 53.3408H34.4029C36.3603 53.3408 37.9618 51.7042 37.9618 49.7039V14.5475L23.7261 0Z" fill="white"/>
</mask>
<g mask="url(#mask6_4388_14882)">
<path d="M27.2855 14.5475C25.3191 14.5475 23.7266 12.92 23.7266 10.9106V11.2137C23.7266 13.2231 25.3191 14.8506 27.2855 14.8506H37.9622V14.5475H27.2855Z" fill="#263238" fill-opacity="0.1"/>
</g>
<path d="M23.7261 0H3.55892C1.60151 0 0 1.63659 0 3.63688V49.7039C0 51.7042 1.60151 53.3408 3.55892 53.3408H34.4029C36.3603 53.3408 37.9618 51.7042 37.9618 49.7039V14.5475L23.7261 0Z" fill="url(#paint1_radial_4388_14882)"/>
<defs>
<linearGradient id="paint0_linear_4388_14882" x1="31.3676" y1="14.6412" x2="31.3676" y2="26.9663" gradientUnits="userSpaceOnUse">
<stop stop-color="#263238" stop-opacity="0.2"/>
<stop offset="1" stop-color="#263238" stop-opacity="0.02"/>
</linearGradient>
<radialGradient id="paint1_radial_4388_14882" cx="0" cy="0" r="1" gradientUnits="userSpaceOnUse" gradientTransform="translate(1.20265 1.06026) scale(61.2129 62.5537)">
<stop stop-color="white" stop-opacity="0.1"/>
<stop offset="1" stop-color="white" stop-opacity="0"/>
</radialGradient>
</defs>
</svg>
    