<svg width="40" height="55" viewBox="0 0 40 55" fill="none" xmlns="http://www.w3.org/2000/svg">
<mask id="mask0_4388_14968" style="mask-type:alpha" maskUnits="userSpaceOnUse" x="0" y="0" width="40" height="55">
<path d="M24.7188 0H3.70782C1.66852 0 0 1.66364 0 3.69697V50.5252C0 52.5586 1.66852 54.2222 3.70782 54.2222H35.8423C37.8816 54.2222 39.5501 52.5586 39.5501 50.5252V14.7879L24.7188 0Z" fill="white"/>
</mask>
<g mask="url(#mask0_4388_14968)">
<path d="M24.7188 0H3.70782C1.66852 0 0 1.66364 0 3.69697V50.5252C0 52.5586 1.66852 54.2222 3.70782 54.2222H35.8423C37.8816 54.2222 39.5501 52.5586 39.5501 50.5252V14.7879L30.8985 8.62624L24.7188 0Z" fill="#F4B400"/>
</g>
<mask id="mask1_4388_14968" style="mask-type:alpha" maskUnits="userSpaceOnUse" x="0" y="0" width="40" height="55">
<path d="M24.7188 0H3.70782C1.66852 0 0 1.66364 0 3.69697V50.5252C0 52.5586 1.66852 54.2222 3.70782 54.2222H35.8423C37.8816 54.2222 39.5501 52.5586 39.5501 50.5252V14.7879L24.7188 0Z" fill="white"/>
</mask>
<g mask="url(#mask1_4388_14968)">
<path d="M27.8117 24.6465H11.7445C10.7249 24.6465 9.89062 25.4783 9.89062 26.495V42.5152C9.89062 43.5318 10.7249 44.3636 11.7445 44.3636H27.8117C28.8314 44.3636 29.6657 43.5318 29.6657 42.5152V26.495C29.6657 25.4783 28.8314 24.6465 27.8117 24.6465ZM27.1938 38.8182H12.3625V30.1919H27.1938V38.8182Z" fill="#F1F1F1"/>
</g>
<mask id="mask2_4388_14968" style="mask-type:alpha" maskUnits="userSpaceOnUse" x="0" y="0" width="40" height="55">
<path d="M24.7188 0H3.70782C1.66852 0 0 1.66364 0 3.69697V50.5252C0 52.5586 1.66852 54.2222 3.70782 54.2222H35.8423C37.8816 54.2222 39.5501 52.5586 39.5501 50.5252V14.7879L24.7188 0Z" fill="white"/>
</mask>
<g mask="url(#mask2_4388_14968)">
<path d="M25.8008 13.7065L39.5475 27.4099V14.7879L25.8008 13.7065Z" fill="url(#paint0_linear_4388_14968)"/>
</g>
<mask id="mask3_4388_14968" style="mask-type:alpha" maskUnits="userSpaceOnUse" x="0" y="0" width="40" height="55">
<path d="M24.7188 0H3.70782C1.66852 0 0 1.66364 0 3.69697V50.5252C0 52.5586 1.66852 54.2222 3.70782 54.2222H35.8423C37.8816 54.2222 39.5501 52.5586 39.5501 50.5252V14.7879L24.7188 0Z" fill="white"/>
</mask>
<g mask="url(#mask3_4388_14968)">
<path d="M24.7227 0V11.0909C24.7227 13.1335 26.3819 14.7879 28.4305 14.7879H39.554L24.7227 0Z" fill="#FADA80"/>
</g>
<mask id="mask4_4388_14968" style="mask-type:alpha" maskUnits="userSpaceOnUse" x="0" y="0" width="40" height="55">
<path d="M24.7188 0H3.70782C1.66852 0 0 1.66364 0 3.69697V50.5252C0 52.5586 1.66852 54.2222 3.70782 54.2222H35.8423C37.8816 54.2222 39.5501 52.5586 39.5501 50.5252V14.7879L24.7188 0Z" fill="white"/>
</mask>
<g mask="url(#mask4_4388_14968)">
<path d="M24.7227 0V0.308081L39.245 14.7879H39.554L24.7227 0Z" fill="white" fill-opacity="0.1"/>
</g>
<mask id="mask5_4388_14968" style="mask-type:alpha" maskUnits="userSpaceOnUse" x="0" y="0" width="40" height="55">
<path d="M24.7188 0H3.70782C1.66852 0 0 1.66364 0 3.69697V50.5252C0 52.5586 1.66852 54.2222 3.70782 54.2222H35.8423C37.8816 54.2222 39.5501 52.5586 39.5501 50.5252V14.7879L24.7188 0Z" fill="white"/>
</mask>
<g mask="url(#mask5_4388_14968)">
<path d="M3.70782 0C1.66852 0 0 1.66364 0 3.69697V4.00505C0 1.97172 1.66852 0.308081 3.70782 0.308081H24.7188V0H3.70782Z" fill="white" fill-opacity="0.2"/>
</g>
<mask id="mask6_4388_14968" style="mask-type:alpha" maskUnits="userSpaceOnUse" x="0" y="0" width="40" height="55">
<path d="M24.7188 0H3.70782C1.66852 0 0 1.66364 0 3.69697V50.5252C0 52.5586 1.66852 54.2222 3.70782 54.2222H35.8423C37.8816 54.2222 39.5501 52.5586 39.5501 50.5252V14.7879L24.7188 0Z" fill="white"/>
</mask>
<g mask="url(#mask6_4388_14968)">
<path d="M35.8423 53.9141H3.70782C1.66852 53.9141 0 52.2505 0 50.2172V50.5253C0 52.5586 1.66852 54.2222 3.70782 54.2222H35.8423C37.8816 54.2222 39.5501 52.5586 39.5501 50.5253V50.2172C39.5501 52.2505 37.8816 53.9141 35.8423 53.9141Z" fill="#BF360C" fill-opacity="0.2"/>
</g>
<mask id="mask7_4388_14968" style="mask-type:alpha" maskUnits="userSpaceOnUse" x="0" y="0" width="40" height="55">
<path d="M24.7188 0H3.70782C1.66852 0 0 1.66364 0 3.69697V50.5252C0 52.5586 1.66852 54.2222 3.70782 54.2222H35.8423C37.8816 54.2222 39.5501 52.5586 39.5501 50.5252V14.7879L24.7188 0Z" fill="white"/>
</mask>
<g mask="url(#mask7_4388_14968)">
<path d="M28.4305 14.7879C26.3819 14.7879 24.7227 13.1335 24.7227 11.0909V11.399C24.7227 13.4416 26.3819 15.096 28.4305 15.096H39.554V14.7879H28.4305Z" fill="#BF360C" fill-opacity="0.1"/>
</g>
<path d="M24.7188 0H3.70782C1.66852 0 0 1.66364 0 3.69697V50.5252C0 52.5586 1.66852 54.2222 3.70782 54.2222H35.8423C37.8816 54.2222 39.5501 52.5586 39.5501 50.5252V14.7879L24.7188 0Z" fill="url(#paint1_radial_4388_14968)"/>
<defs>
<linearGradient id="paint0_linear_4388_14968" x1="32.6749" y1="14.8831" x2="32.6749" y2="27.4119" gradientUnits="userSpaceOnUse">
<stop stop-color="#BF360C" stop-opacity="0.2"/>
<stop offset="1" stop-color="#BF360C" stop-opacity="0.02"/>
</linearGradient>
<radialGradient id="paint1_radial_4388_14968" cx="0" cy="0" r="1" gradientUnits="userSpaceOnUse" gradientTransform="translate(1.25297 1.07778) scale(63.774 63.5874)">
<stop stop-color="white" stop-opacity="0.1"/>
<stop offset="1" stop-color="white" stop-opacity="0"/>
</radialGradient>
</defs>
</svg>
