<svg width="38" height="54" viewBox="0 0 38 54" fill="none" xmlns="http://www.w3.org/2000/svg">
<mask id="mask0_4388_15015" style="mask-type:alpha" maskUnits="userSpaceOnUse" x="0" y="0" width="38" height="54">
<path d="M23.7253 0H3.55879C1.60146 0 0 1.63125 0 3.625V49.5417C0 51.5354 1.60146 53.1667 3.55879 53.1667H34.4016C36.359 53.1667 37.9604 51.5354 37.9604 49.5417V14.5L23.7253 0Z" fill="white"/>
</mask>
<g mask="url(#mask0_4388_15015)">
<path d="M23.7253 0H3.55879C1.60146 0 0 1.63125 0 3.625V49.5417C0 51.5354 1.60146 53.1667 3.55879 53.1667H34.4016C36.359 53.1667 37.9604 51.5354 37.9604 49.5417V14.5L29.6566 8.45832L23.7253 0Z" fill="#673AB7"/>
</g>
<mask id="mask1_4388_15015" style="mask-type:alpha" maskUnits="userSpaceOnUse" x="0" y="0" width="38" height="54">
<path d="M23.7253 0H3.55879C1.60146 0 0 1.63125 0 3.625V49.5417C0 51.5354 1.60146 53.1667 3.55879 53.1667H34.4016C36.359 53.1667 37.9604 51.5354 37.9604 49.5417V14.5L23.7253 0Z" fill="white"/>
</mask>
<g mask="url(#mask1_4388_15015)">
<path d="M15.4229 41.0833H28.4718V38.6667H15.4229V41.0833ZM15.4229 26.5834V29H28.4718V26.5834H15.4229ZM12.4572 27.7917C12.4572 28.7916 11.6595 29.6042 10.6779 29.6042C9.69621 29.6042 8.89844 28.7916 8.89844 27.7917C8.89844 26.7918 9.69621 25.9792 10.6779 25.9792C11.6595 25.9792 12.4572 26.7918 12.4572 27.7917ZM12.4572 33.8333C12.4572 34.8332 11.6595 35.6459 10.6779 35.6459C9.69621 35.6459 8.89844 34.8332 8.89844 33.8333C8.89844 32.8335 9.69621 32.0208 10.6779 32.0208C11.6595 32.0208 12.4572 32.8335 12.4572 33.8333ZM12.4572 39.875C12.4572 40.8749 11.6595 41.6875 10.6779 41.6875C9.69621 41.6875 8.89844 40.8749 8.89844 39.875C8.89844 38.8751 9.69621 38.0625 10.6779 38.0625C11.6595 38.0625 12.4572 38.8751 12.4572 39.875ZM15.4229 35.0417H28.4718V32.625H15.4229V35.0417Z" fill="#F1F1F1"/>
</g>
<mask id="mask2_4388_15015" style="mask-type:alpha" maskUnits="userSpaceOnUse" x="0" y="0" width="38" height="54">
<path d="M23.7253 0H3.55879C1.60146 0 0 1.63125 0 3.625V49.5417C0 51.5354 1.60146 53.1667 3.55879 53.1667H34.4016C36.359 53.1667 37.9604 51.5354 37.9604 49.5417V14.5L23.7253 0Z" fill="white"/>
</mask>
<g mask="url(#mask2_4388_15015)">
<path d="M24.7695 13.4397L37.9638 26.8764V14.5L24.7695 13.4397Z" fill="url(#paint0_linear_4388_15015)"/>
</g>
<mask id="mask3_4388_15015" style="mask-type:alpha" maskUnits="userSpaceOnUse" x="0" y="0" width="38" height="54">
<path d="M23.7253 0H3.55879C1.60146 0 0 1.63125 0 3.625V49.5417C0 51.5354 1.60146 53.1667 3.55879 53.1667H34.4016C36.359 53.1667 37.9604 51.5354 37.9604 49.5417V14.5L23.7253 0Z" fill="white"/>
</mask>
<g mask="url(#mask3_4388_15015)">
<path d="M23.7227 0V10.875C23.7227 12.8778 25.3152 14.5 27.2815 14.5H37.9578L23.7227 0Z" fill="#B39DDB"/>
</g>
<mask id="mask4_4388_15015" style="mask-type:alpha" maskUnits="userSpaceOnUse" x="0" y="0" width="38" height="54">
<path d="M23.7253 0H3.55879C1.60146 0 0 1.63125 0 3.625V49.5417C0 51.5354 1.60146 53.1667 3.55879 53.1667H34.4016C36.359 53.1667 37.9604 51.5354 37.9604 49.5417V14.5L23.7253 0Z" fill="white"/>
</mask>
<g mask="url(#mask4_4388_15015)">
<path d="M3.55879 0C1.60146 0 0 1.63125 0 3.625V3.92708C0 1.93333 1.60146 0.302083 3.55879 0.302083H23.7252V0H3.55879Z" fill="white" fill-opacity="0.2"/>
</g>
<mask id="mask5_4388_15015" style="mask-type:alpha" maskUnits="userSpaceOnUse" x="0" y="0" width="38" height="54">
<path d="M23.7253 0H3.55879C1.60146 0 0 1.63125 0 3.625V49.5417C0 51.5354 1.60146 53.1667 3.55879 53.1667H34.4016C36.359 53.1667 37.9604 51.5354 37.9604 49.5417V14.5L23.7253 0Z" fill="white"/>
</mask>
<g mask="url(#mask5_4388_15015)">
<path d="M34.4016 52.8646H3.55879C1.60146 52.8646 0 51.2334 0 49.2396V49.5417C0 51.5354 1.60146 53.1667 3.55879 53.1667H34.4016C36.359 53.1667 37.9604 51.5354 37.9604 49.5417V49.2396C37.9604 51.2334 36.359 52.8646 34.4016 52.8646Z" fill="#311B92" fill-opacity="0.2"/>
</g>
<mask id="mask6_4388_15015" style="mask-type:alpha" maskUnits="userSpaceOnUse" x="0" y="0" width="38" height="54">
<path d="M23.7253 0H3.55879C1.60146 0 0 1.63125 0 3.625V49.5417C0 51.5354 1.60146 53.1667 3.55879 53.1667H34.4016C36.359 53.1667 37.9604 51.5354 37.9604 49.5417V14.5L23.7253 0Z" fill="white"/>
</mask>
<g mask="url(#mask6_4388_15015)">
<path d="M27.2815 14.5C25.3152 14.5 23.7227 12.8778 23.7227 10.875V11.177C23.7227 13.1799 25.3152 14.802 27.2815 14.802H37.9578V14.5H27.2815Z" fill="#311B92" fill-opacity="0.1"/>
</g>
<path d="M23.7253 0H3.55879C1.60146 0 0 1.63125 0 3.625V49.5417C0 51.5354 1.60146 53.1667 3.55879 53.1667H34.4016C36.359 53.1667 37.9604 51.5354 37.9604 49.5417V14.5L23.7253 0Z" fill="url(#paint1_radial_4388_15015)"/>
<defs>
<linearGradient id="paint0_linear_4388_15015" x1="31.3674" y1="14.5934" x2="31.3674" y2="26.8782" gradientUnits="userSpaceOnUse">
<stop stop-color="#311B92" stop-opacity="0.2"/>
<stop offset="1" stop-color="#311B92" stop-opacity="0.02"/>
</linearGradient>
<radialGradient id="paint1_radial_4388_15015" cx="0" cy="0" r="1" gradientUnits="userSpaceOnUse" gradientTransform="translate(1.20261 1.0568) scale(61.2107 62.3495)">
<stop stop-color="white" stop-opacity="0.1"/>
<stop offset="1" stop-color="white" stop-opacity="0"/>
</radialGradient>
</defs>
</svg>
