<svg width="565" height="369" viewBox="0 0 565 369" fill="none" xmlns="http://www.w3.org/2000/svg">
<path d="M529.56 93.06V104.27H53.4102V93.06C53.4128 91.1339 53.7949 89.2273 54.5347 87.449C55.2745 85.6707 56.3574 84.0557 57.7216 82.6961C59.0859 81.3365 60.7046 80.2591 62.4854 79.5253C64.2662 78.7916 66.1741 78.416 68.1002 78.42H514.91C518.794 78.42 522.519 79.9621 525.266 82.7073C528.013 85.4526 529.558 89.1763 529.56 93.06Z" fill="#16191C"/>
<path d="M507.029 87.26H476.099C475.11 87.26 474.309 88.0614 474.309 89.05V92.17C474.309 93.1586 475.11 93.96 476.099 93.96H507.029C508.017 93.96 508.819 93.1586 508.819 92.17V89.05C508.819 88.0614 508.017 87.26 507.029 87.26Z" fill="#F2E9DA"/>
<path d="M461.259 87.75H430.329C429.34 87.75 428.539 88.5514 428.539 89.54V92.66C428.539 93.6486 429.34 94.45 430.329 94.45H461.259C462.248 94.45 463.049 93.6486 463.049 92.66V89.54C463.049 88.5514 462.248 87.75 461.259 87.75Z" fill="#BCD4D8"/>
<path d="M415.431 87.75H384.501C383.512 87.75 382.711 88.5514 382.711 89.54V92.66C382.711 93.6486 383.512 94.45 384.501 94.45H415.431C416.42 94.45 417.221 93.6486 417.221 92.66V89.54C417.221 88.5514 416.42 87.75 415.431 87.75Z" fill="#FF7500"/>
<path d="M514.481 368.84H68.4811C64.1438 368.835 59.9856 367.109 56.9187 364.042C53.8517 360.975 52.1264 356.817 52.1211 352.48V93.4799C52.137 89.1426 53.8725 84.9887 56.9469 81.9292C60.0214 78.8698 64.1838 77.1546 68.5211 77.1599H514.521C518.853 77.1705 523.004 78.8988 526.064 81.9658C529.123 85.0327 530.841 89.1879 530.841 93.5199V352.52C530.831 356.852 529.102 361.003 526.035 364.062C522.968 367.122 518.813 368.84 514.481 368.84ZM68.4811 78.1599C64.409 78.1652 60.5052 79.7852 57.6258 82.6646C54.7464 85.544 53.1264 89.4478 53.1211 93.5199V352.52C53.1264 356.592 54.7464 360.496 57.6258 363.375C60.5052 366.255 64.409 367.875 68.4811 367.88H514.481C518.548 367.869 522.445 366.246 525.316 363.367C528.188 360.488 529.801 356.587 529.801 352.52V93.5199C529.801 89.4531 528.188 85.5523 525.316 82.6729C522.445 79.7935 518.548 78.1705 514.481 78.1599H68.4811Z" fill="#FF7500"/>
<path d="M196.01 160.24V213.72C196.01 259.53 170.73 302.89 128.38 329.72L98.01 349L67.64 329.71C25.29 302.9 0 259.53 0 213.71V160.24L98 122.48L196.01 160.24Z" fill="url(#paint0_radial_510_2879)"/>
<path d="M98.0083 339.35C97.9119 339.354 97.8167 339.326 97.7383 339.27L72.1583 323.07C32.1583 297.73 8.23828 256.85 8.23828 213.72V166C8.23893 165.899 8.26972 165.8 8.32671 165.716C8.38369 165.633 8.46431 165.568 8.55828 165.53L97.8283 131.14C97.9449 131.1 98.0717 131.1 98.1883 131.14L187.438 165.53C187.533 165.567 187.614 165.631 187.672 165.715C187.729 165.799 187.759 165.898 187.758 166V213.75C187.758 256.88 163.868 297.75 123.848 323.1L98.2683 339.3C98.1893 339.344 98.0981 339.362 98.0083 339.35ZM9.23828 166.35V213.76C9.23828 256.54 32.9583 297.11 72.6983 322.27L98.0083 338.27L123.318 322.27C163.038 297.11 186.758 256.54 186.758 213.76V166.31L98.0083 132.11L9.23828 166.35Z" fill="#25292B"/>
<path d="M71.6289 213.55C71.6802 216.899 70.7371 220.187 68.9189 223C67 225.879 64.2821 228.135 61.0989 229.49C57.3069 231.097 53.2161 231.877 49.0989 231.78C45.8736 231.836 42.6508 231.568 39.4789 230.98C36.6755 230.373 33.9557 229.43 31.3789 228.17V214.34C34.3223 215.852 37.4202 217.042 40.6189 217.89C43.4846 218.695 46.4426 219.125 49.4189 219.17C51.1927 219.317 52.9682 218.908 54.4989 218C55.0014 217.654 55.4104 217.189 55.6896 216.646C55.9687 216.103 56.1094 215.5 56.0989 214.89C56.1127 214.148 55.8845 213.421 55.4489 212.82C54.8738 212.094 54.1726 211.477 53.3789 211C52.4189 210.4 49.8689 209.17 45.7289 207.31C42.7085 206.027 39.8734 204.345 37.2989 202.31C35.5089 200.82 34.0856 198.938 33.1389 196.81C32.1855 194.479 31.7226 191.977 31.7789 189.46C31.7789 184.173 33.7056 180.047 37.5589 177.08C41.4122 174.113 46.7056 172.633 53.4389 172.64C59.7263 172.713 65.9264 174.121 71.6289 176.77L66.8789 188.77C61.5056 186.31 56.8689 185.08 52.9689 185.08C51.4234 184.953 49.878 185.325 48.5589 186.14C48.1365 186.437 47.7916 186.83 47.5531 187.288C47.3147 187.746 47.1898 188.254 47.1889 188.77C47.2204 189.373 47.3956 189.96 47.7 190.482C48.0045 191.004 48.4292 191.446 48.9389 191.77C50.0989 192.657 53.2622 194.28 58.4289 196.64C63.3756 198.873 66.8122 201.263 68.7389 203.81C70.7649 206.642 71.7825 210.071 71.6289 213.55Z" fill="white"/>
<path d="M118.102 213.55C118.161 216.912 117.217 220.216 115.392 223.04C113.467 225.904 110.749 228.145 107.572 229.49C103.78 231.097 99.6888 231.877 95.5716 231.78C92.3462 231.836 89.1234 231.568 85.9516 230.98C83.1481 230.373 80.4284 229.43 77.8516 228.17V214.34C80.7949 215.852 83.8928 217.042 87.0916 217.89C89.9573 218.695 92.9152 219.125 95.8916 219.17C97.6651 219.306 99.4371 218.886 100.962 217.97C101.462 217.628 101.87 217.168 102.151 216.631C102.431 216.094 102.576 215.496 102.572 214.89C102.585 214.148 102.357 213.421 101.922 212.82C101.341 212.104 100.636 211.497 99.8416 211.03C98.8816 210.43 96.3349 209.2 92.2016 207.34C89.1788 206.061 86.343 204.379 83.7716 202.34C81.9756 200.853 80.5483 198.971 79.6016 196.84C78.6482 194.509 78.1852 192.007 78.2416 189.49C78.2416 184.203 80.1682 180.077 84.0216 177.11C87.8749 174.143 93.1682 172.663 99.9016 172.67C106.196 172.757 112.4 174.182 118.102 176.85L113.352 188.85C107.985 186.39 103.348 185.16 99.4416 185.16C97.8961 185.033 96.3506 185.405 95.0316 186.22C94.6092 186.516 94.2642 186.91 94.0258 187.368C93.7874 187.826 93.6624 188.334 93.6616 188.85C93.693 189.453 93.8683 190.04 94.1727 190.562C94.4771 191.084 94.9019 191.526 95.4116 191.85C96.5716 192.737 99.7349 194.36 104.902 196.72C109.848 198.953 113.285 201.343 115.212 203.89C117.22 206.7 118.237 210.098 118.102 213.55Z" fill="white"/>
<path d="M126.961 231V173.54H142.491V218.46H164.611V231H126.961Z" fill="white"/>
<path d="M89.3691 301.32L61.5391 273.48L74.8391 260.19L89.3691 274.72L125.439 238.65L138.739 251.95L89.3691 301.32Z" fill="white"/>
<path d="M521.879 173.64V345.23C521.876 347.88 520.824 350.422 518.951 352.299C517.078 354.175 514.538 355.232 511.887 355.24H216.389C213.735 355.237 211.19 354.182 209.314 352.305C207.437 350.429 206.381 347.884 206.379 345.23V173.64C206.381 170.986 207.437 168.442 209.314 166.565C211.19 164.688 213.735 163.633 216.389 163.63H511.888C514.54 163.635 517.081 164.692 518.954 166.569C520.827 168.445 521.879 170.988 521.879 173.64Z" stroke="#FF7500"/>
<path d="M522.379 172.84V180.27H205.879V172.84C205.879 170.267 206.901 167.8 208.72 165.981C210.539 164.162 213.006 163.14 215.579 163.14H512.669C515.242 163.14 517.711 164.162 519.531 165.98C521.352 167.799 522.376 170.266 522.379 172.84Z" fill="#366985"/>
<path d="M506.55 169.48H486.86C485.981 169.48 485.27 170.192 485.27 171.07V172.33C485.27 173.208 485.981 173.92 486.86 173.92H506.55C507.428 173.92 508.139 173.208 508.139 172.33V171.07C508.139 170.192 507.428 169.48 506.55 169.48Z" fill="#F2E9DA"/>
<path d="M476.229 169.81H456.539C455.661 169.81 454.949 170.522 454.949 171.4V172.66C454.949 173.538 455.661 174.25 456.539 174.25H476.229C477.107 174.25 477.819 173.538 477.819 172.66V171.4C477.819 170.522 477.107 169.81 476.229 169.81Z" fill="#BCD4D8"/>
<path d="M445.858 169.81H426.168C425.29 169.81 424.578 170.522 424.578 171.4V172.66C424.578 173.538 425.29 174.25 426.168 174.25H445.858C446.736 174.25 447.448 173.538 447.448 172.66V171.4C447.448 170.522 446.736 169.81 445.858 169.81Z" fill="#FF7500"/>
<path d="M499.852 312.14C499.843 312.606 499.731 313.064 499.526 313.482C499.32 313.901 499.025 314.268 498.662 314.56C497.864 315.22 496.857 315.574 495.822 315.56H369.102C366.882 315.56 365.102 314.01 365.102 312.13C365.11 311.664 365.222 311.206 365.427 310.788C365.633 310.369 365.928 310.001 366.292 309.71C367.094 309.052 368.103 308.697 369.142 308.71H495.822C498.042 308.71 499.852 310.25 499.852 312.14Z" fill="#FF7500"/>
<path d="M366.484 290.54L366.484 290.54L366.488 290.537C367.199 289.953 368.094 289.639 369.014 289.65L369.014 289.65H369.02H495.76C497.774 289.65 499.257 291.04 499.26 292.574C499.251 292.965 499.157 293.349 498.986 293.7C498.814 294.053 498.568 294.364 498.264 294.613L498.263 294.613C497.552 295.197 496.657 295.511 495.736 295.5H495.73H369.02C366.999 295.5 365.484 294.104 365.48 292.575C365.489 292.184 365.583 291.8 365.756 291.449C365.929 291.096 366.178 290.786 366.484 290.54Z" stroke="#D5D5D5"/>
<path d="M499.3 252.59L499.3 252.594C499.307 253.351 499.091 254.093 498.68 254.729L498.673 254.74L498.667 254.751C498.542 254.967 498.366 255.149 498.154 255.28C497.946 255.408 497.709 255.484 497.465 255.5H367.57C367.152 255.5 366.715 255.248 366.359 254.72C366.005 254.194 365.77 253.439 365.77 252.58H365.77L365.77 252.571C365.757 251.813 365.966 251.068 366.372 250.428L366.378 250.419L366.384 250.409C366.508 250.193 366.684 250.011 366.896 249.88C367.105 249.752 367.341 249.676 367.585 249.66H497.5C497.916 249.66 498.354 249.914 498.711 250.448C499.065 250.978 499.3 251.736 499.3 252.59ZM499.8 252.59C499.808 253.445 499.564 254.282 499.1 255L499.8 252.59Z" stroke="#D5D5D5"/>
<path d="M365.79 213.86H365.79L365.79 213.851C365.776 213.093 365.982 212.348 366.384 211.705L366.389 211.697L366.393 211.689C366.518 211.472 366.695 211.29 366.909 211.159C367.119 211.03 367.358 210.955 367.604 210.94H497.52C497.931 210.94 498.369 211.192 498.727 211.725C499.083 212.254 499.32 213.012 499.32 213.87L499.32 213.88C499.335 214.637 499.126 215.382 498.718 216.021L498.712 216.031L498.706 216.041C498.582 216.257 498.406 216.439 498.194 216.57C497.985 216.698 497.749 216.774 497.504 216.79H367.59C367.173 216.79 366.735 216.537 366.379 216.005C366.025 215.477 365.79 214.719 365.79 213.86Z" stroke="#D5D5D5"/>
<path d="M435.512 331.3L435.512 331.309C435.526 332.065 435.366 332.814 435.043 333.498C434.756 334.052 434.449 334.22 434.242 334.22H366.762C366.544 334.22 366.23 334.043 365.941 333.481C365.665 332.944 365.482 332.168 365.482 331.29H365.482L365.482 331.279C365.465 330.521 365.63 329.77 365.961 329.089L365.973 329.065L365.981 329.041C366.047 328.862 366.16 328.704 366.309 328.585C366.45 328.472 366.618 328.398 366.797 328.37H434.239C434.444 328.373 434.756 328.55 435.046 329.11C435.324 329.646 435.512 330.419 435.512 331.3Z" stroke="#D5D5D5"/>
<path d="M499.831 233.43C499.849 234.285 499.616 235.126 499.161 235.85C498.995 236.138 498.761 236.38 498.478 236.555C498.195 236.73 497.873 236.831 497.541 236.85H367.601C366.341 236.85 365.301 235.31 365.301 233.43C365.291 232.575 365.527 231.734 365.981 231.01C366.147 230.722 366.382 230.479 366.664 230.305C366.947 230.13 367.269 230.029 367.601 230.01H497.541C498.801 230 499.831 231.55 499.831 233.43Z" fill="#FF7500"/>
<path d="M499.851 273.41C499.844 273.875 499.733 274.332 499.528 274.749C499.322 275.166 499.026 275.532 498.661 275.82C497.863 276.48 496.856 276.834 495.821 276.82H369.101C366.881 276.82 365.051 275.28 365.051 273.4C365.062 272.933 365.174 272.474 365.379 272.054C365.585 271.635 365.879 271.265 366.241 270.97C367.05 270.317 368.061 269.963 369.101 269.97H495.821C498.041 270 499.851 271.52 499.851 273.41Z" fill="#FF7500"/>
<path d="M365.321 194.7C365.304 193.844 365.541 193.002 366.001 192.28C366.167 191.992 366.402 191.75 366.685 191.575C366.967 191.4 367.289 191.299 367.621 191.28H497.561C498.821 191.28 499.851 192.82 499.851 194.71C499.869 195.565 499.636 196.406 499.181 197.13C499.016 197.418 498.781 197.661 498.498 197.835C498.215 198.01 497.893 198.111 497.561 198.13H367.621C366.361 198.12 365.321 196.59 365.321 194.7Z" fill="#FF7500"/>
<path d="M352.92 205.51V326.43C352.92 333.22 347.8 338.73 341.5 338.73H229.36C223.05 338.73 217.93 333.22 217.93 326.43V205.51C217.93 198.72 223.05 193.21 229.36 193.21H341.5C347.8 193.21 352.92 198.72 352.92 205.51Z" fill="#366985"/>
<path d="M329.56 249.12V321.49C329.56 322.857 329.018 324.168 328.053 325.135C327.087 326.103 325.777 326.647 324.41 326.65H243.87C242.505 326.645 241.198 326.099 240.235 325.132C239.271 324.164 238.73 322.855 238.73 321.49V249.12C238.729 248.444 238.861 247.774 239.119 247.148C239.376 246.523 239.754 245.955 240.232 245.475C240.709 244.996 241.276 244.616 241.9 244.356C242.525 244.096 243.194 243.961 243.87 243.96H324.41C325.088 243.96 325.758 244.093 326.384 244.353C327.009 244.612 327.577 244.993 328.056 245.472C328.534 245.951 328.913 246.52 329.171 247.146C329.43 247.772 329.562 248.443 329.56 249.12Z" fill="white"/>
<path d="M318.399 243.89H307.559V234.81C307.625 231.536 307.037 228.281 305.83 225.237C304.623 222.193 302.82 219.42 300.528 217.081C298.236 214.742 295.5 212.884 292.481 211.616C289.461 210.347 286.219 209.694 282.944 209.694C279.669 209.694 276.427 210.347 273.408 211.616C270.389 212.884 267.653 214.742 265.361 217.081C263.069 219.42 261.266 222.193 260.059 225.237C258.851 228.281 258.263 231.536 258.329 234.81V243.89H247.489V234.81C247.41 230.104 248.269 225.429 250.015 221.058C251.762 216.687 254.361 212.708 257.661 209.352C260.961 205.996 264.896 203.33 269.237 201.511C273.578 199.692 278.238 198.755 282.944 198.755C287.651 198.755 292.311 199.692 296.652 201.511C300.993 203.33 304.928 205.996 308.228 209.352C311.528 212.708 314.127 216.687 315.873 221.058C317.62 225.429 318.478 230.104 318.399 234.81V243.89Z" fill="#FF7500"/>
<path d="M292.1 309H268.23C267.467 309.006 266.713 308.837 266.026 308.507C265.338 308.176 264.735 307.693 264.263 307.093C263.791 306.494 263.463 305.795 263.303 305.049C263.143 304.303 263.155 303.53 263.34 302.79L267.75 284.44C266.169 282.726 264.97 280.696 264.232 278.485C263.495 276.273 263.235 273.93 263.47 271.61C263.718 268.967 264.59 266.42 266.015 264.18C267.44 261.94 269.377 260.071 271.666 258.727C273.956 257.383 276.532 256.602 279.182 256.449C281.833 256.297 284.482 256.776 286.91 257.848C289.339 258.92 291.478 260.554 293.151 262.615C294.825 264.676 295.984 267.105 296.534 269.702C297.084 272.3 297.008 274.99 296.314 277.553C295.62 280.115 294.326 282.476 292.54 284.44L296.94 302.79C297.124 303.526 297.137 304.294 296.98 305.037C296.823 305.779 296.499 306.475 296.032 307.074C295.566 307.672 294.97 308.157 294.288 308.49C293.607 308.824 292.859 308.998 292.1 309ZM280.21 257.43C279.541 257.435 278.874 257.478 278.21 257.56C274.666 258.018 271.383 259.667 268.899 262.236C266.415 264.805 264.878 268.142 264.54 271.7C264.316 273.924 264.575 276.17 265.3 278.284C266.025 280.399 267.199 282.331 268.74 283.95L268.92 284.15L264.39 303.03C264.236 303.625 264.222 304.247 264.348 304.849C264.473 305.45 264.736 306.015 265.115 306.498C265.494 306.982 265.98 307.372 266.534 307.637C267.088 307.903 267.696 308.037 268.31 308.03H292.1C292.714 308.037 293.322 307.903 293.876 307.637C294.43 307.372 294.916 306.982 295.295 306.498C295.674 306.015 295.937 305.45 296.063 304.849C296.188 304.247 296.174 303.625 296.02 303.03L291.49 284.15L291.67 283.95C293.769 281.711 295.167 278.907 295.694 275.884C296.221 272.861 295.853 269.749 294.636 266.932C293.418 264.115 291.405 261.715 288.842 260.027C286.279 258.339 283.279 257.436 280.21 257.43Z" fill="#FF7500"/>
<path d="M319.738 249.36H318.738V322.5H319.738V249.36Z" fill="#25292B"/>
<path d="M218.899 116.81H546.249C553.164 116.81 558.769 122.415 558.769 129.33V137.22C558.769 144.135 553.164 149.74 546.249 149.74H218.899C211.984 149.74 206.379 144.135 206.379 137.22V129.33C206.379 122.415 211.984 116.81 218.899 116.81Z" stroke="#FF7500"/>
<path d="M289.881 142.17H286.791V133.27C286.86 132.385 286.623 131.502 286.121 130.77C285.851 130.479 285.517 130.254 285.146 130.111C284.775 129.969 284.377 129.914 283.981 129.95C283.444 129.9 282.903 129.979 282.403 130.179C281.902 130.378 281.456 130.694 281.101 131.1C280.395 132.268 280.076 133.63 280.191 134.99V142.17H277.121V121.8H280.191V127C280.188 127.885 280.138 128.77 280.041 129.65H280.231C280.647 128.953 281.254 128.39 281.981 128.03C282.793 127.632 283.687 127.434 284.591 127.45C288.098 127.45 289.851 129.217 289.851 132.75L289.881 142.17Z" fill="#FF7500"/>
<path d="M299.549 140C300.317 139.999 301.079 139.877 301.809 139.64V141.96C301.385 142.133 300.942 142.257 300.489 142.33C299.938 142.431 299.379 142.481 298.819 142.48C295.906 142.48 294.449 140.947 294.449 137.88V130H292.449V128.64L294.569 127.52L295.619 124.46H297.519V127.68H301.639V130H297.519V137.75C297.493 138.049 297.529 138.35 297.625 138.634C297.722 138.918 297.876 139.179 298.079 139.4C298.27 139.595 298.499 139.749 298.752 139.852C299.005 139.955 299.276 140.006 299.549 140Z" fill="#FF7500"/>
<path d="M310.1 140C310.864 139.998 311.623 139.876 312.35 139.64V141.96C311.929 142.133 311.489 142.257 311.04 142.33C310.489 142.431 309.93 142.481 309.37 142.48C306.463 142.48 305.007 140.947 305 137.88V130H303V128.64L305.12 127.52L306.17 124.46H308.1V127.68H312.22V130H308.1V137.75C308.074 138.048 308.11 138.348 308.204 138.632C308.299 138.916 308.45 139.177 308.65 139.4C308.839 139.593 309.065 139.745 309.314 139.848C309.563 139.951 309.83 140.003 310.1 140Z" fill="#FF7500"/>
<path d="M322.581 142.43C321.76 142.467 320.943 142.305 320.199 141.957C319.455 141.608 318.807 141.084 318.311 140.43H318.101C318.221 141.65 318.281 142.39 318.281 142.65V148.58H315.211V127.7H317.691C317.761 127.97 317.911 128.61 318.131 129.63H318.281C318.743 128.915 319.386 128.335 320.145 127.949C320.904 127.562 321.751 127.383 322.601 127.43C323.414 127.395 324.223 127.558 324.959 127.907C325.694 128.256 326.333 128.778 326.821 129.43C327.815 131.092 328.339 132.993 328.339 134.93C328.339 136.867 327.815 138.767 326.821 140.43C326.327 141.08 325.684 141.601 324.946 141.949C324.208 142.298 323.396 142.462 322.581 142.43ZM321.831 130C321.333 129.955 320.832 130.029 320.368 130.215C319.904 130.401 319.49 130.694 319.161 131.07C318.509 132.089 318.211 133.294 318.311 134.5V134.96C318.207 136.292 318.499 137.624 319.151 138.79C319.473 139.2 319.892 139.523 320.371 139.729C320.849 139.935 321.372 140.018 321.891 139.97C322.38 139.986 322.864 139.874 323.296 139.644C323.728 139.414 324.092 139.075 324.351 138.66C324.989 137.525 325.288 136.23 325.211 134.93C325.294 133.645 324.995 132.365 324.351 131.25C324.076 130.841 323.698 130.51 323.257 130.291C322.815 130.072 322.323 129.972 321.831 130Z" fill="#FF7500"/>
<path d="M341.661 138.05C341.692 138.679 341.566 139.305 341.294 139.873C341.021 140.441 340.611 140.931 340.101 141.3C338.785 142.136 337.237 142.532 335.681 142.43C334.085 142.496 332.495 142.199 331.031 141.56V138.9C332.511 139.631 334.131 140.033 335.781 140.08C337.671 140.08 338.621 139.51 338.621 138.36C338.634 138.029 338.524 137.705 338.311 137.45C338.025 137.14 337.686 136.883 337.311 136.69C336.663 136.353 335.995 136.056 335.311 135.8C334.058 135.404 332.905 134.742 331.931 133.86C331.323 133.169 331.004 132.27 331.041 131.35C331.021 130.78 331.148 130.214 331.411 129.708C331.674 129.201 332.063 128.772 332.541 128.46C333.771 127.726 335.192 127.378 336.621 127.46C338.284 127.442 339.932 127.783 341.451 128.46L340.451 130.77C339.213 130.19 337.876 129.851 336.511 129.77C334.891 129.77 334.081 130.23 334.081 131.15C334.083 131.379 334.141 131.604 334.251 131.805C334.361 132.005 334.519 132.176 334.711 132.3C335.584 132.834 336.513 133.27 337.481 133.6C338.397 133.922 339.273 134.348 340.091 134.87C340.593 135.21 341.004 135.666 341.291 136.2C341.566 136.777 341.693 137.412 341.661 138.05Z" fill="#FF7500"/>
<path d="M344.532 129.36C344.487 129.093 344.505 128.818 344.586 128.559C344.667 128.301 344.807 128.064 344.996 127.87C345.185 127.675 345.417 127.527 345.673 127.439C345.929 127.35 346.203 127.323 346.472 127.36C346.738 127.34 347.005 127.377 347.256 127.466C347.508 127.556 347.738 127.697 347.932 127.88C348.255 128.3 348.431 128.815 348.431 129.345C348.431 129.875 348.255 130.39 347.932 130.81C347.744 130.997 347.518 131.143 347.27 131.236C347.022 131.329 346.756 131.368 346.492 131.35C346.228 131.367 345.963 131.329 345.715 131.238C345.467 131.146 345.241 131.004 345.052 130.82C344.698 130.417 344.512 129.895 344.532 129.36ZM344.532 140.54C344.513 140.274 344.547 140.007 344.633 139.754C344.719 139.502 344.854 139.269 345.032 139.07C345.438 138.734 345.949 138.551 346.477 138.551C347.004 138.551 347.515 138.734 347.922 139.07C348.096 139.267 348.23 139.496 348.316 139.745C348.402 139.994 348.438 140.257 348.422 140.52C348.451 141.058 348.268 141.586 347.912 141.99C347.724 142.177 347.498 142.323 347.25 142.416C347.002 142.509 346.736 142.548 346.472 142.53C346.208 142.547 345.943 142.509 345.695 142.418C345.447 142.326 345.221 142.184 345.032 142C344.687 141.593 344.509 141.072 344.532 140.54Z" fill="#FF7500"/>
<path d="M360.391 123L353.271 142.13H350.371L357.501 123H360.391Z" fill="#FF7500"/>
<path d="M370.848 123L363.728 142.13H360.828L367.958 123H370.848Z" fill="#FF7500"/>
<path d="M259.41 119.4H219.37C213.958 119.4 209.57 123.788 209.57 129.2V137.35C209.57 142.762 213.958 147.15 219.37 147.15H259.41C264.823 147.15 269.21 142.762 269.21 137.35V129.2C269.21 123.788 264.823 119.4 259.41 119.4Z" fill="#FF7500"/>
<path d="M195.688 43.06C195.599 43.0592 195.511 43.0348 195.433 42.9891C195.356 42.9435 195.292 42.8782 195.248 42.8L187.508 29.39C187.465 29.314 187.441 29.2278 187.441 29.14C187.441 29.0523 187.465 28.966 187.508 28.89L195.248 15.48C195.293 15.403 195.357 15.3392 195.434 15.2953C195.512 15.2513 195.599 15.2288 195.688 15.23C195.777 15.2288 195.865 15.2513 195.942 15.2953C196.02 15.3392 196.084 15.403 196.128 15.48L203.888 28.89C203.932 28.966 203.955 29.0523 203.955 29.14C203.955 29.2278 203.932 29.314 203.888 29.39L196.098 42.8C196.057 42.874 195.998 42.9366 195.926 42.9819C195.855 43.0273 195.773 43.0542 195.688 43.06ZM188.528 29.14L195.688 41.54L202.868 29.14L195.688 16.74L188.528 29.14Z" fill="#F2E9DA"/>
<path d="M178.1 25.47C177.238 25.468 176.396 25.2106 175.68 24.7303C174.965 24.2501 174.407 23.5684 174.079 22.7716C173.751 21.9747 173.666 21.0984 173.835 20.2533C174.004 19.4082 174.42 18.6322 175.031 18.0235C175.641 17.4147 176.418 17.0005 177.263 16.833C178.109 16.6656 178.985 16.7526 179.781 17.0828C180.577 17.4131 181.257 17.972 181.736 18.6887C182.215 19.4055 182.47 20.2481 182.47 21.11C182.47 21.6834 182.357 22.2512 182.137 22.7808C181.917 23.3104 181.595 23.7915 181.189 24.1965C180.784 24.6015 180.302 24.9225 179.772 25.141C179.241 25.3595 178.673 25.4713 178.1 25.47ZM178.1 17.76C177.437 17.76 176.79 17.9565 176.239 18.3246C175.688 18.6927 175.259 19.2159 175.005 19.828C174.751 20.4401 174.685 21.1137 174.814 21.7635C174.944 22.4134 175.263 23.0103 175.731 23.4788C176.2 23.9473 176.797 24.2664 177.446 24.3956C178.096 24.5249 178.77 24.4585 179.382 24.205C179.994 23.9514 180.517 23.5221 180.885 22.9712C181.254 22.4202 181.45 21.7726 181.45 21.11C181.447 20.2223 181.094 19.3718 180.466 18.7441C179.838 18.1164 178.988 17.7626 178.1 17.76Z" fill="#F2E9DA"/>
<path d="M191.93 8.26998C191.185 8.26998 190.456 8.04888 189.836 7.63462C189.216 7.22037 188.732 6.63158 188.447 5.9427C188.162 5.25382 188.087 4.4958 188.233 3.76449C188.378 3.03318 188.737 2.36143 189.264 1.83419C189.792 1.30695 190.463 0.947888 191.195 0.802422C191.926 0.656955 192.684 0.731614 193.373 1.01696C194.062 1.3023 194.651 1.78551 195.065 2.40548C195.479 3.02546 195.7 3.75435 195.7 4.49998C195.7 4.99507 195.603 5.4853 195.413 5.9427C195.224 6.4001 194.946 6.8157 194.596 7.16578C194.246 7.51585 193.83 7.79355 193.373 7.98301C192.915 8.17247 192.425 8.26998 191.93 8.26998ZM191.93 1.73998C191.384 1.73998 190.851 1.90185 190.397 2.20513C189.943 2.5084 189.589 2.93945 189.38 3.44378C189.171 3.9481 189.117 4.50305 189.223 5.03843C189.33 5.57382 189.593 6.0656 189.979 6.4516C190.365 6.83759 190.856 7.10046 191.392 7.20695C191.927 7.31345 192.482 7.25879 192.986 7.04989C193.491 6.84099 193.922 6.48724 194.225 6.03336C194.528 5.57948 194.69 5.04586 194.69 4.49998C194.688 3.7688 194.396 3.06831 193.879 2.55128C193.362 2.03425 192.661 1.74262 191.93 1.73998Z" fill="#F2E9DA"/>
<path d="M174.28 10.15C173.744 10.15 173.22 9.99104 172.775 9.69326C172.329 9.39549 171.982 8.97224 171.777 8.47705C171.571 7.98187 171.518 7.43697 171.622 6.91129C171.727 6.3856 171.985 5.90272 172.364 5.52372C172.743 5.14472 173.226 4.88662 173.752 4.78205C174.277 4.67749 174.822 4.73115 175.317 4.93627C175.813 5.14138 176.236 5.48873 176.534 5.93439C176.831 6.38004 176.99 6.90399 176.99 7.43998C176.99 7.79586 176.92 8.14826 176.784 8.47705C176.648 8.80585 176.448 9.1046 176.197 9.35624C175.945 9.60789 175.646 9.80751 175.317 9.9437C174.989 10.0799 174.636 10.15 174.28 10.15ZM174.28 5.73998C173.944 5.738 173.614 5.83602 173.333 6.02161C173.052 6.2072 172.833 6.47201 172.703 6.78246C172.572 7.09291 172.537 7.43504 172.602 7.76546C172.666 8.09589 172.827 8.39973 173.065 8.63848C173.302 8.87723 173.605 9.04014 173.935 9.10655C174.265 9.17296 174.607 9.13988 174.919 9.01151C175.23 8.88314 175.496 8.66526 175.683 8.38548C175.87 8.10571 175.97 7.77663 175.97 7.43998C175.97 6.99084 175.793 6.55995 175.476 6.24142C175.159 5.9229 174.729 5.74262 174.28 5.73998Z" fill="#F2E9DA"/>
<path d="M557.601 228.79C557.512 228.791 557.424 228.769 557.347 228.725C557.27 228.681 557.206 228.617 557.161 228.54L551.231 218.28C551.187 218.204 551.164 218.118 551.164 218.03C551.164 217.942 551.187 217.856 551.231 217.78L557.161 207.51C557.207 207.434 557.272 207.372 557.349 207.328C557.426 207.284 557.513 207.261 557.601 207.26C557.69 207.261 557.777 207.284 557.854 207.328C557.931 207.372 557.995 207.434 558.041 207.51L563.981 217.77C564.025 217.848 564.048 217.936 564.048 218.025C564.048 218.114 564.025 218.202 563.981 218.28L558.041 228.54C557.997 228.617 557.932 228.681 557.855 228.725C557.778 228.769 557.69 228.791 557.601 228.79ZM552.261 218L557.601 227.25L562.961 218L557.601 208.75L552.261 218Z" fill="#F2E9DA"/>
<path d="M543.579 213.39C542.716 213.39 541.873 213.134 541.156 212.655C540.439 212.176 539.881 211.495 539.551 210.698C539.221 209.902 539.134 209.025 539.303 208.179C539.471 207.334 539.886 206.557 540.496 205.947C541.106 205.337 541.882 204.922 542.728 204.754C543.574 204.585 544.451 204.672 545.247 205.002C546.044 205.332 546.725 205.891 547.204 206.608C547.683 207.325 547.939 208.168 547.939 209.03C547.936 210.185 547.476 211.293 546.659 212.11C545.842 212.927 544.734 213.387 543.579 213.39ZM543.579 205.68C542.916 205.68 542.268 205.876 541.718 206.245C541.167 206.613 540.737 207.136 540.484 207.748C540.23 208.36 540.164 209.034 540.293 209.683C540.422 210.333 540.741 210.93 541.21 211.399C541.678 211.867 542.275 212.186 542.925 212.316C543.575 212.445 544.249 212.378 544.861 212.125C545.473 211.871 545.996 211.442 546.364 210.891C546.732 210.34 546.929 209.692 546.929 209.03C546.929 208.141 546.576 207.289 545.948 206.661C545.319 206.033 544.467 205.68 543.579 205.68Z" fill="#F2E9DA"/>
<path d="M557.372 201.82C556.626 201.82 555.897 201.599 555.277 201.185C554.657 200.77 554.174 200.182 553.889 199.493C553.603 198.804 553.529 198.046 553.674 197.315C553.819 196.583 554.178 195.911 554.706 195.384C555.233 194.857 555.905 194.498 556.636 194.352C557.367 194.207 558.125 194.282 558.814 194.567C559.503 194.852 560.092 195.336 560.506 195.956C560.92 196.576 561.142 197.304 561.142 198.05C561.142 199.05 560.744 200.009 560.037 200.716C559.33 201.423 558.371 201.82 557.372 201.82ZM557.372 195.29C556.826 195.29 556.292 195.452 555.838 195.755C555.384 196.058 555.031 196.49 554.822 196.994C554.613 197.498 554.558 198.053 554.665 198.588C554.771 199.124 555.034 199.616 555.42 200.002C555.806 200.388 556.298 200.651 556.833 200.757C557.369 200.864 557.923 200.809 558.428 200.6C558.932 200.391 559.363 200.037 559.666 199.583C559.97 199.13 560.132 198.596 560.132 198.05C560.129 197.319 559.837 196.618 559.32 196.101C558.803 195.584 558.103 195.293 557.372 195.29Z" fill="#F2E9DA"/>
<path d="M543.581 197.49C543.045 197.49 542.521 197.331 542.076 197.033C541.63 196.735 541.282 196.312 541.077 195.817C540.872 195.322 540.819 194.777 540.923 194.251C541.028 193.726 541.286 193.243 541.665 192.864C542.044 192.485 542.527 192.227 543.052 192.122C543.578 192.017 544.123 192.071 544.618 192.276C545.113 192.481 545.537 192.829 545.834 193.274C546.132 193.72 546.291 194.244 546.291 194.78C546.291 195.136 546.221 195.488 546.085 195.817C545.949 196.146 545.749 196.445 545.497 196.696C545.246 196.948 544.947 197.147 544.618 197.284C544.289 197.42 543.937 197.49 543.581 197.49ZM543.581 193.09C543.244 193.088 542.914 193.186 542.633 193.372C542.352 193.558 542.132 193.824 542.002 194.135C541.873 194.446 541.838 194.788 541.903 195.119C541.969 195.45 542.131 195.754 542.369 195.992C542.607 196.23 542.911 196.392 543.242 196.458C543.573 196.523 543.915 196.489 544.226 196.359C544.537 196.229 544.803 196.009 544.989 195.728C545.175 195.447 545.273 195.117 545.271 194.78C545.268 194.333 545.09 193.904 544.773 193.588C544.457 193.271 544.028 193.093 543.581 193.09Z" fill="#F2E9DA"/>
<path d="M179.699 349.66C179.61 349.659 179.523 349.636 179.446 349.592C179.369 349.548 179.305 349.486 179.259 349.41L173.329 339.15C173.285 339.072 173.262 338.984 173.262 338.895C173.262 338.806 173.285 338.718 173.329 338.64L179.259 328.38C179.305 328.304 179.369 328.242 179.446 328.198C179.523 328.154 179.61 328.131 179.699 328.13C179.787 328.129 179.875 328.151 179.952 328.195C180.03 328.239 180.094 328.303 180.139 328.38L186.099 338.64C186.142 338.718 186.165 338.806 186.165 338.895C186.165 338.984 186.142 339.072 186.099 339.15L180.099 349.41C180.058 349.481 180 349.541 179.93 349.585C179.86 349.629 179.781 349.654 179.699 349.66ZM174.359 338.9L179.699 348.14L185.099 338.9L179.749 329.65L174.359 338.9Z" fill="#F2E9DA"/>
<path d="M165.671 334.26C164.806 334.26 163.961 334.003 163.242 333.523C162.523 333.042 161.963 332.359 161.632 331.56C161.302 330.761 161.216 329.882 161.385 329.034C161.555 328.186 161.972 327.407 162.584 326.796C163.196 326.186 163.976 325.77 164.824 325.603C165.673 325.435 166.552 325.523 167.35 325.856C168.148 326.188 168.83 326.75 169.309 327.469C169.788 328.189 170.043 329.035 170.041 329.9C170.038 331.057 169.577 332.166 168.757 332.984C167.938 333.801 166.828 334.26 165.671 334.26ZM165.671 326.54C165.006 326.54 164.357 326.737 163.804 327.106C163.252 327.475 162.821 328 162.567 328.614C162.312 329.228 162.246 329.904 162.375 330.556C162.505 331.207 162.825 331.806 163.295 332.276C163.765 332.746 164.363 333.066 165.015 333.195C165.667 333.325 166.343 333.259 166.957 333.004C167.571 332.75 168.095 332.319 168.465 331.767C168.834 331.214 169.031 330.565 169.031 329.9C169.028 329.01 168.673 328.157 168.044 327.527C167.414 326.898 166.561 326.543 165.671 326.54Z" fill="#F2E9DA"/>
<path d="M179.469 322.69C178.724 322.69 177.995 322.469 177.375 322.055C176.755 321.64 176.272 321.051 175.986 320.363C175.701 319.674 175.626 318.916 175.772 318.184C175.917 317.453 176.276 316.781 176.803 316.254C177.331 315.727 178.002 315.368 178.734 315.222C179.465 315.077 180.223 315.152 180.912 315.437C181.601 315.722 182.19 316.205 182.604 316.825C183.018 317.445 183.239 318.174 183.239 318.92C183.239 319.92 182.842 320.879 182.135 321.586C181.428 322.293 180.469 322.69 179.469 322.69ZM179.469 316.16C178.923 316.16 178.39 316.322 177.936 316.625C177.482 316.928 177.128 317.359 176.919 317.864C176.71 318.368 176.656 318.923 176.762 319.458C176.869 319.994 177.132 320.486 177.518 320.872C177.904 321.258 178.395 321.52 178.931 321.627C179.466 321.733 180.021 321.679 180.525 321.47C181.03 321.261 181.461 320.907 181.764 320.453C182.067 319.999 182.229 319.466 182.229 318.92C182.229 318.188 181.938 317.486 181.421 316.968C180.903 316.451 180.201 316.16 179.469 316.16Z" fill="#F2E9DA"/>
<path d="M165.671 318.36C165.135 318.36 164.611 318.201 164.165 317.903C163.72 317.605 163.372 317.182 163.167 316.687C162.962 316.192 162.908 315.647 163.013 315.121C163.118 314.596 163.376 314.113 163.755 313.734C164.134 313.355 164.617 313.097 165.142 312.992C165.668 312.887 166.213 312.941 166.708 313.146C167.203 313.351 167.626 313.699 167.924 314.144C168.222 314.59 168.381 315.114 168.381 315.65C168.381 316.369 168.095 317.058 167.587 317.566C167.079 318.074 166.39 318.36 165.671 318.36ZM165.671 313.95C165.335 313.95 165.006 314.05 164.726 314.236C164.447 314.423 164.229 314.689 164.1 314.999C163.972 315.31 163.938 315.652 164.004 315.982C164.069 316.311 164.231 316.614 164.469 316.852C164.707 317.09 165.01 317.252 165.339 317.317C165.669 317.383 166.011 317.349 166.321 317.221C166.632 317.092 166.898 316.874 167.084 316.594C167.271 316.315 167.371 315.986 167.371 315.65C167.358 315.208 167.173 314.788 166.856 314.48C166.538 314.172 166.113 314 165.671 314V313.95Z" fill="#F2E9DA"/>
<path d="M26.6797 144.47C26.5471 144.47 26.4199 144.417 26.3261 144.324C26.2324 144.23 26.1797 144.103 26.1797 143.97V137.46C26.1797 137.327 26.2324 137.2 26.3261 137.106C26.4199 137.013 26.5471 136.96 26.6797 136.96C26.8123 136.96 26.9395 137.013 27.0332 137.106C27.127 137.2 27.1797 137.327 27.1797 137.46V144C27.1698 144.127 27.113 144.245 27.0206 144.332C26.9281 144.419 26.8066 144.468 26.6797 144.47ZM26.6797 131.47C26.5471 131.47 26.4199 131.417 26.3261 131.324C26.2324 131.23 26.1797 131.103 26.1797 130.97V124.46C26.1797 124.327 26.2324 124.2 26.3261 124.106C26.4199 124.013 26.5471 123.96 26.6797 123.96C26.8115 123.963 26.9372 124.016 27.0304 124.109C27.1236 124.202 27.1771 124.328 27.1797 124.46V130.97C27.172 131.097 27.116 131.217 27.023 131.304C26.9301 131.392 26.8073 131.44 26.6797 131.44V131.47ZM26.6797 118.47C26.5471 118.47 26.4199 118.417 26.3261 118.324C26.2324 118.23 26.1797 118.103 26.1797 117.97V111.46C26.1797 111.327 26.2324 111.2 26.3261 111.106C26.4199 111.013 26.5471 110.96 26.6797 110.96C26.8115 110.963 26.9372 111.016 27.0304 111.109C27.1236 111.202 27.1771 111.328 27.1797 111.46V117.97C27.1673 118.094 27.1091 118.208 27.0167 118.292C26.9242 118.375 26.8041 118.421 26.6797 118.42V118.47ZM26.6797 105.47C26.5471 105.47 26.4199 105.417 26.3261 105.324C26.2324 105.23 26.1797 105.103 26.1797 104.97V98.46C26.1797 98.3274 26.2324 98.2002 26.3261 98.1064C26.4199 98.0127 26.5471 97.96 26.6797 97.96C26.8123 97.96 26.9395 98.0127 27.0332 98.1064C27.127 98.2002 27.1797 98.3274 27.1797 98.46V104.97C27.1627 105.09 27.1026 105.2 27.0106 105.279C26.9186 105.358 26.801 105.401 26.6797 105.4V105.47ZM26.6797 92.47C26.5471 92.47 26.4199 92.4173 26.3261 92.3236C26.2324 92.2298 26.1797 92.1026 26.1797 91.97V85.46C26.1797 85.3274 26.2324 85.2002 26.3261 85.1064C26.4199 85.0127 26.5471 84.96 26.6797 84.96C26.8123 84.96 26.9395 85.0127 27.0332 85.1064C27.127 85.2002 27.1797 85.3274 27.1797 85.46V91.97C27.1584 92.0865 27.0964 92.1916 27.0049 92.2667C26.9133 92.3418 26.7981 92.3819 26.6797 92.38V92.47ZM26.9297 79.47H26.8697C26.7385 79.4526 26.6196 79.3838 26.539 79.2789C26.4583 79.1739 26.4227 79.0413 26.4397 78.91C26.6983 76.7251 27.1603 74.569 27.8197 72.47C27.8367 72.4063 27.8666 72.3469 27.9076 72.2953C27.9486 72.2437 27.9997 72.2011 28.0579 72.1701C28.1161 72.1392 28.18 72.1205 28.2457 72.1153C28.3113 72.1102 28.3774 72.1186 28.4397 72.14C28.5651 72.1792 28.6701 72.2663 28.7319 72.3823C28.7936 72.4983 28.8072 72.634 28.7697 72.76C28.1293 74.8039 27.6807 76.9029 27.4297 79.03C27.3935 79.1326 27.3255 79.2209 27.2355 79.2821C27.1455 79.3433 27.0384 79.3741 26.9297 79.37V79.47ZM30.7897 67C30.7091 67.0005 30.6298 66.9798 30.5597 66.94C30.5013 66.9105 30.4494 66.8695 30.4071 66.8196C30.3648 66.7697 30.3329 66.7118 30.3133 66.6493C30.2937 66.5869 30.2869 66.5211 30.2931 66.456C30.2994 66.3908 30.3186 66.3276 30.3497 66.27C31.3812 64.3254 32.586 62.4779 33.9497 60.75C33.9897 60.6979 34.0398 60.6543 34.097 60.6219C34.1543 60.5896 34.2174 60.569 34.2827 60.5616C34.348 60.5541 34.4142 60.5598 34.4772 60.5785C34.5403 60.5971 34.5989 60.6282 34.6497 60.67C34.7542 60.751 34.8224 60.8702 34.8393 61.0014C34.8561 61.1326 34.8203 61.2652 34.7397 61.37C33.4084 63.0493 32.2335 64.8467 31.2297 66.74C31.1883 66.8204 31.125 66.8874 31.0472 66.9334C30.9693 66.9794 30.8801 67.0025 30.7897 67ZM38.7897 56.84C38.719 56.8427 38.6486 56.8288 38.5844 56.7992C38.5201 56.7697 38.4637 56.7254 38.4197 56.67C38.3719 56.6251 38.3337 56.5709 38.3077 56.5107C38.2816 56.4505 38.2682 56.3856 38.2682 56.32C38.2682 56.2544 38.2816 56.1895 38.3077 56.1293C38.3337 56.0691 38.3719 56.0149 38.4197 55.97C40.0743 54.5168 41.8584 53.2181 43.7497 52.09C43.8062 52.0551 43.8691 52.0319 43.9347 52.0216C44.0002 52.0113 44.0672 52.0142 44.1317 52.0301C44.1962 52.046 44.2568 52.0745 44.3101 52.1141C44.3634 52.1536 44.4083 52.2034 44.4422 52.2605C44.4761 52.3176 44.4982 52.3809 44.5074 52.4467C44.5165 52.5124 44.5125 52.5794 44.4955 52.6435C44.4785 52.7077 44.4489 52.7679 44.4084 52.8205C44.3679 52.8731 44.3174 52.9171 44.2597 52.95C42.4224 54.0471 40.6886 55.309 39.0797 56.72C39.0078 56.7881 38.9173 56.8334 38.8197 56.85L38.7897 56.84ZM49.9097 50.21C49.8062 50.213 49.7046 50.1825 49.6199 50.123C49.5352 50.0636 49.472 49.9783 49.4397 49.88C49.3941 49.7566 49.399 49.6203 49.4533 49.5005C49.5076 49.3807 49.6069 49.2871 49.7297 49.24C51.7963 48.4789 53.9287 47.9099 56.0997 47.54C56.2307 47.5195 56.3645 47.5509 56.4728 47.6274C56.5811 47.704 56.6553 47.8197 56.6797 47.95C56.7 48.0798 56.6683 48.2124 56.5916 48.3191C56.5148 48.4257 56.3992 48.4979 56.2697 48.52C54.1674 48.8917 52.1025 49.4506 50.0997 50.19L49.9097 50.21ZM233.01 48H232.01C231.877 48 231.75 47.9473 231.656 47.8536C231.562 47.7598 231.51 47.6326 231.51 47.5C231.51 47.3674 231.562 47.2402 231.656 47.1464C231.75 47.0527 231.877 47 232.01 47H233.01C233.142 47 233.269 47.0527 233.363 47.1464C233.457 47.2402 233.51 47.3674 233.51 47.5C233.51 47.6326 233.457 47.7598 233.363 47.8536C233.269 47.9473 233.142 48 233.01 48ZM225.46 48H218.95C218.817 48 218.69 47.9473 218.596 47.8536C218.502 47.7598 218.45 47.6326 218.45 47.5C218.45 47.3674 218.502 47.2402 218.596 47.1464C218.69 47.0527 218.817 47 218.95 47H225.46C225.592 47 225.719 47.0527 225.813 47.1464C225.907 47.2402 225.96 47.3674 225.96 47.5C225.96 47.6326 225.907 47.7598 225.813 47.8536C225.719 47.9473 225.592 48 225.46 48ZM212.46 48H205.95C205.817 48 205.69 47.9473 205.596 47.8536C205.502 47.7598 205.45 47.6326 205.45 47.5C205.45 47.3674 205.502 47.2402 205.596 47.1464C205.69 47.0527 205.817 47 205.95 47H212.46C212.592 47 212.719 47.0527 212.813 47.1464C212.907 47.2402 212.96 47.3674 212.96 47.5C212.96 47.6326 212.907 47.7598 212.813 47.8536C212.719 47.9473 212.592 48 212.46 48ZM199.46 48H192.95C192.817 48 192.69 47.9473 192.596 47.8536C192.502 47.7598 192.45 47.6326 192.45 47.5C192.45 47.3674 192.502 47.2402 192.596 47.1464C192.69 47.0527 192.817 47 192.95 47H199.46C199.592 47 199.719 47.0527 199.813 47.1464C199.907 47.2402 199.96 47.3674 199.96 47.5C199.96 47.6326 199.907 47.7598 199.813 47.8536C199.719 47.9473 199.592 48 199.46 48ZM186.46 48H179.95C179.817 48 179.69 47.9473 179.596 47.8536C179.502 47.7598 179.45 47.6326 179.45 47.5C179.45 47.3674 179.502 47.2402 179.596 47.1464C179.69 47.0527 179.817 47 179.95 47H186.46C186.592 47 186.719 47.0527 186.813 47.1464C186.907 47.2402 186.96 47.3674 186.96 47.5C186.96 47.6326 186.907 47.7598 186.813 47.8536C186.719 47.9473 186.592 48 186.46 48ZM173.46 48H166.95C166.817 48 166.69 47.9473 166.596 47.8536C166.502 47.7598 166.45 47.6326 166.45 47.5C166.45 47.3674 166.502 47.2402 166.596 47.1464C166.69 47.0527 166.817 47 166.95 47H173.46C173.592 47 173.719 47.0527 173.813 47.1464C173.907 47.2402 173.96 47.3674 173.96 47.5C173.96 47.6326 173.907 47.7598 173.813 47.8536C173.719 47.9473 173.592 48 173.46 48ZM160.46 48H153.94C153.807 48 153.68 47.9473 153.586 47.8536C153.492 47.7598 153.44 47.6326 153.44 47.5C153.44 47.3674 153.492 47.2402 153.586 47.1464C153.68 47.0527 153.807 47 153.94 47H160.46C160.592 47 160.719 47.0527 160.813 47.1464C160.907 47.2402 160.96 47.3674 160.96 47.5C160.96 47.6326 160.907 47.7598 160.813 47.8536C160.719 47.9473 160.592 48 160.46 48ZM147.46 48H140.95C140.817 48 140.69 47.9473 140.596 47.8536C140.502 47.7598 140.45 47.6326 140.45 47.5C140.45 47.3674 140.502 47.2402 140.596 47.1464C140.69 47.0527 140.817 47 140.95 47H147.46C147.592 47 147.719 47.0527 147.813 47.1464C147.907 47.2402 147.96 47.3674 147.96 47.5C147.96 47.6326 147.907 47.7598 147.813 47.8536C147.719 47.9473 147.592 48 147.46 48ZM134.46 48H127.8C127.667 48 127.54 47.9473 127.446 47.8536C127.352 47.7598 127.3 47.6326 127.3 47.5C127.3 47.3674 127.352 47.2402 127.446 47.1464C127.54 47.0527 127.667 47 127.8 47H134.31C134.442 47 134.569 47.0527 134.663 47.1464C134.757 47.2402 134.81 47.3674 134.81 47.5C134.81 47.6326 134.757 47.7598 134.663 47.8536C134.569 47.9473 134.442 48 134.31 48H134.46ZM121.46 48H114.95C114.817 48 114.69 47.9473 114.596 47.8536C114.502 47.7598 114.45 47.6326 114.45 47.5C114.45 47.3674 114.502 47.2402 114.596 47.1464C114.69 47.0527 114.817 47 114.95 47H121.46C121.592 47 121.719 47.0527 121.813 47.1464C121.907 47.2402 121.96 47.3674 121.96 47.5C121.96 47.6326 121.907 47.7598 121.813 47.8536C121.719 47.9473 121.592 48 121.46 48ZM108.46 48H101.95C101.817 48 101.69 47.9473 101.596 47.8536C101.502 47.7598 101.45 47.6326 101.45 47.5C101.45 47.3674 101.502 47.2402 101.596 47.1464C101.69 47.0527 101.817 47 101.95 47H108.46C108.592 47 108.719 47.0527 108.813 47.1464C108.907 47.2402 108.96 47.3674 108.96 47.5C108.96 47.6326 108.907 47.7598 108.813 47.8536C108.719 47.9473 108.592 48 108.46 48ZM95.4597 48H88.9497C88.8171 48 88.6899 47.9473 88.5961 47.8536C88.5024 47.7598 88.4497 47.6326 88.4497 47.5C88.4497 47.3674 88.5024 47.2402 88.5961 47.1464C88.6899 47.0527 88.8171 47 88.9497 47H95.4597C95.5923 47 95.7195 47.0527 95.8132 47.1464C95.907 47.2402 95.9597 47.3674 95.9597 47.5C95.9597 47.6326 95.907 47.7598 95.8132 47.8536C95.7195 47.9473 95.5923 48 95.4597 48ZM82.4597 48H75.7097C75.5771 48 75.4499 47.9473 75.3561 47.8536C75.2624 47.7598 75.2097 47.6326 75.2097 47.5C75.2097 47.3674 75.2624 47.2402 75.3561 47.1464C75.4499 47.0527 75.5771 47 75.7097 47H82.2297C82.3623 47 82.4895 47.0527 82.5832 47.1464C82.677 47.2402 82.7297 47.3674 82.7297 47.5C82.7297 47.6326 82.677 47.7598 82.5832 47.8536C82.4895 47.9473 82.3623 48 82.2297 48H82.4597ZM69.4597 48H62.6897C62.5571 48 62.4299 47.9473 62.3361 47.8536C62.2424 47.7598 62.1897 47.6326 62.1897 47.5C62.1897 47.3674 62.2424 47.2402 62.3361 47.1464C62.4299 47.0527 62.5571 47 62.6897 47H69.1997C69.3323 47 69.4595 47.0527 69.5532 47.1464C69.647 47.2402 69.6997 47.3674 69.6997 47.5C69.6997 47.6326 69.647 47.7598 69.5532 47.8536C69.4595 47.9473 69.3323 48 69.1997 48H69.4597Z" fill="#FF7500"/>
<defs>
<radialGradient id="paint0_radial_510_2879" cx="0" cy="0" r="1" gradientUnits="userSpaceOnUse" gradientTransform="translate(-9.04973 144.707) scale(212.209 423.822)">
<stop stop-color="#FF7500"/>
<stop offset="1" stop-color="#FFAB64"/>
</radialGradient>
</defs>
</svg>
