<svg width="55" height="55" viewBox="0 0 55 55" fill="none" xmlns="http://www.w3.org/2000/svg">
<path d="M50.4167 0H4.58333C2.05181 0 0 2.05181 0 4.58333V55L13.0717 44.3056H50.4167C52.9467 44.3056 55 42.2522 55 39.7222V4.58333C55 2.05181 52.9467 0 50.4167 0Z" fill="#CFD8DC"/>
<path d="M9.16536 4.58331H45.832C48.362 4.58331 50.4154 6.63512 50.4154 9.16665V55L32.082 39.7222H9.16536C6.63384 39.7222 4.58203 37.6689 4.58203 35.1389V9.16665C4.58203 6.63512 6.63384 4.58331 9.16536 4.58331Z" fill="#42A5F5"/>
<path d="M38.1931 19.8611C38.1931 21.5478 36.8243 22.9167 35.1376 22.9167C33.4509 22.9167 32.082 21.5478 32.082 19.8611C32.082 18.1744 33.4509 16.8055 35.1376 16.8055C36.8243 16.8055 38.1931 18.1744 38.1931 19.8611Z" fill="#BBDEFB"/>
<path d="M41.2496 28.519C41.2496 28.519 39.5583 24.4445 35.1385 24.4445C30.7186 24.4445 29.0273 28.519 29.0273 28.519V30.5556H41.2496V28.519Z" fill="#BBDEFB"/>
<path d="M27.4987 16.8056C27.4987 19.3356 25.4469 21.3889 22.9154 21.3889C20.3838 21.3889 18.332 19.3356 18.332 16.8056C18.332 14.2756 20.3838 12.2222 22.9154 12.2222C25.4469 12.2222 27.4987 14.2756 27.4987 16.8056Z" fill="#E3F2FD"/>
<path d="M32.0833 28.0103C32.0833 28.0103 29.5472 22.9167 22.9167 22.9167C16.2861 22.9167 13.75 28.0103 13.75 28.0103V30.5556H32.0833V28.0103Z" fill="#E3F2FD"/>
</svg>
