<svg width="104" height="28" viewBox="0 0 104 28" fill="none" xmlns="http://www.w3.org/2000/svg">
<g clip-path="url(#clip0_1880_39279)">
<path d="M23.8813 0.949219H6.84373C4.62495 0.949219 2.82812 2.7619 2.82812 4.9994V22.1812C2.82812 24.4173 4.62495 26.2307 6.84373 26.2307H23.8813C26.0997 26.2307 27.8955 24.4173 27.8955 22.1812V4.9994C27.8955 2.7619 26.0997 0.949219 23.8813 0.949219Z" fill="#1677FF"/>
<path d="M9.60603 20.3904C5.70621 20.3904 4.55324 17.2924 6.48053 15.5975C7.12368 15.0246 8.29891 14.745 8.92547 14.6822C11.2421 14.4513 13.3866 15.3427 15.9171 16.5884C14.1383 18.9287 11.8727 20.3904 9.60603 20.3904ZM23.4715 16.8233C22.4684 16.4844 21.1225 15.9663 19.6233 15.4194C20.5236 13.8409 21.2427 12.0433 21.7154 10.0898H16.7741V8.29485H22.8272V7.29295H16.7741V4.30078H14.3039C13.8705 4.30078 13.8705 4.73222 13.8705 4.73222V7.29295H7.74859V8.29485H13.8705V10.0898H8.81608V11.0914H18.619C18.2603 12.338 17.7787 13.5082 17.207 14.5714C14.0261 13.5129 10.6318 12.655 8.49947 13.1831C7.13576 13.5219 6.25747 14.1267 5.7415 14.7604C3.37328 17.6663 5.07183 22.0803 10.0732 22.0803C13.0303 22.0803 15.879 20.4175 18.087 17.6772C21.3801 19.2737 27.9001 22.0149 27.9001 22.0149V18.1083C27.9001 18.1083 27.0812 18.0424 23.4715 16.8233Z" fill="white"/>
<path d="M57.2578 4.65138C57.2578 5.95921 58.2136 6.83963 59.5467 6.83963C60.8799 6.83963 61.8356 5.95921 61.8356 4.65138C61.8356 3.36865 60.8799 2.46289 59.5467 2.46289C58.2136 2.46289 57.2578 3.36865 57.2578 4.65138Z" fill="#1677FF"/>
<path d="M50.875 21.3774H54.8492V3.01562H50.875V21.3774Z" fill="black"/>
<path d="M38.118 15.0157L40.4822 6.84089H40.583L42.8218 15.0157H38.118ZM43.9034 3.64648H38.5708L32.6094 21.3796H36.2819L37.288 17.9084H43.6015L44.557 21.3796H49.261L43.9034 3.64648Z" fill="black"/>
<path d="M57.5625 21.3805H61.5367V7.89844H57.5625V21.3805Z" fill="black"/>
<path d="M103.069 7.91963L103.094 7.89453H99.3465L96.9823 16.0944H96.8566L94.1401 7.89453H89.6875L95.0455 21.427L92.8069 25.5521V25.6527H96.3032L103.069 7.91963Z" fill="black"/>
<path d="M68.9029 19.0638C68.4504 19.0638 68.0225 19.0136 67.5449 18.8626V11.5682C68.3749 10.9897 69.0541 10.7129 69.9092 10.7129C71.3934 10.7129 72.5755 11.8952 72.5755 14.4105C72.5755 17.63 70.84 19.0638 68.9029 19.0638ZM71.4184 7.61914C69.9596 7.61914 68.8276 8.17254 67.5449 9.22888V7.89572H63.5703V25.6539H67.5449V21.252C68.2994 21.4534 69.0036 21.5539 69.8589 21.5539C73.4054 21.5539 76.6 18.9381 76.6 14.2847C76.6 10.1093 74.2857 7.61914 71.4184 7.61914Z" fill="black"/>
<path d="M84.9284 18.1098C83.872 18.6883 83.2679 18.9147 82.5642 18.9147C81.6083 18.9147 81.0046 18.286 81.0046 17.2798C81.0046 16.9024 81.0799 16.5251 81.3816 16.2234C81.8597 15.7453 82.7906 15.3933 84.9284 14.8903V18.1098ZM88.9026 18.0091V12.375C88.9026 9.30615 87.0918 7.62109 83.8974 7.62109C81.8597 7.62109 80.4512 7.97297 77.8855 8.75275L78.5896 11.8467C80.9289 10.7902 81.9603 10.3374 83.042 10.3374C84.3501 10.3374 84.9284 11.268 84.9284 12.7018V12.8025C80.3755 13.6578 78.967 14.1356 78.0866 15.0161C77.4328 15.67 77.1562 16.6006 77.1562 17.6822C77.1562 20.273 79.1685 21.6565 81.0551 21.6565C82.4636 21.6565 83.5952 21.1283 85.1299 19.971L85.4064 21.3798H89.3807L88.9026 18.0091Z" fill="black"/>
</g>
<defs>
<clipPath id="clip0_1880_39279">
<rect width="103.315" height="26.3784" fill="white" transform="translate(0.671875 0.949219)"/>
</clipPath>
</defs>
</svg>
