<svg width="16" height="15" viewBox="0 0 16 15" fill="none" xmlns="http://www.w3.org/2000/svg">
<path d="M6.93392 1.10156L7.67871 0.35677C8.01725 0.0520828 8.52507 0.0520828 8.82975 0.35677L15.4313 6.92448C15.736 7.26302 15.736 7.77083 15.4313 8.07552L8.82975 14.6771C8.52507 14.9818 8.01725 14.9818 7.67871 14.6771L6.93392 13.9323C6.62923 13.5937 6.62923 13.0859 6.93392 12.7474L11.0303 8.85417H1.31413C0.840169 8.85417 0.501627 8.51562 0.501627 8.04167V6.95833C0.501627 6.51823 0.840169 6.14583 1.31413 6.14583H11.0303L6.93392 2.28646C6.62923 1.94792 6.59538 1.4401 6.93392 1.10156Z" fill="white"/>
</svg>
