<svg width="47" height="48" viewBox="0 0 47 48" fill="none" xmlns="http://www.w3.org/2000/svg">
<rect y="0.457031" width="47" height="47" rx="23.5" fill="#FF7500"/>
<path d="M22.3242 18.7832L22.8828 18.2246C23.1367 17.9961 23.5176 17.9961 23.7461 18.2246L28.6973 23.1504C28.9258 23.4043 28.9258 23.7852 28.6973 24.0137L23.7461 28.9648C23.5176 29.1934 23.1367 29.1934 22.8828 28.9648L22.3242 28.4062C22.0957 28.1523 22.0957 27.7715 22.3242 27.5176L25.3965 24.5977H18.1094C17.7539 24.5977 17.5 24.3438 17.5 23.9883V23.1758C17.5 22.8457 17.7539 22.5664 18.1094 22.5664H25.3965L22.3242 19.6719C22.0957 19.418 22.0703 19.0371 22.3242 18.7832Z" fill="white"/>
</svg>
