<svg width="134" height="169" viewBox="0 0 134 169" fill="none" xmlns="http://www.w3.org/2000/svg">
<path d="M24.512 14V0.877999H33.872V2.93H26.366L26.888 2.408V6.872L26.366 6.35H32.99V8.276H26.366L26.888 7.754V12.47L26.366 11.948H33.908V14H24.512ZM36.0009 14V4.424H38.1609L38.2509 6.242H38.3589C38.6349 5.57 39.0549 5.072 39.6189 4.748C40.1829 4.412 40.8129 4.244 41.5089 4.244C41.9889 4.244 42.4329 4.322 42.8409 4.478C43.2609 4.622 43.6209 4.856 43.9209 5.18C44.2329 5.492 44.4729 5.906 44.6409 6.422C44.8209 6.926 44.9109 7.538 44.9109 8.258V14H42.6609V8.744C42.6609 8.144 42.5889 7.652 42.4449 7.268C42.3009 6.872 42.0789 6.578 41.7789 6.386C41.4909 6.194 41.1129 6.098 40.6449 6.098C40.1409 6.098 39.7089 6.218 39.3489 6.458C39.0009 6.698 38.7309 7.016 38.5389 7.412C38.3469 7.808 38.2509 8.246 38.2509 8.726V14H36.0009ZM50.4913 14.162C49.9153 14.162 49.3873 14.06 48.9073 13.856C48.4393 13.64 48.0313 13.322 47.6833 12.902C47.3473 12.482 47.0893 11.966 46.9093 11.354C46.7293 10.73 46.6393 10.016 46.6393 9.212C46.6393 8.12 46.7953 7.208 47.1073 6.476C47.4313 5.732 47.8813 5.174 48.4573 4.802C49.0453 4.43 49.7233 4.244 50.4913 4.244C51.0193 4.244 51.4873 4.328 51.8953 4.496C52.3153 4.652 52.6753 4.874 52.9753 5.162C53.2753 5.45 53.5033 5.792 53.6593 6.188H53.7853V0.877999H56.0353L56.0173 14H53.8573L53.7853 12.218H53.6593C53.4313 12.806 53.0413 13.28 52.4893 13.64C51.9373 13.988 51.2713 14.162 50.4913 14.162ZM51.3373 12.326C51.8773 12.326 52.3213 12.2 52.6693 11.948C53.0293 11.696 53.2993 11.372 53.4793 10.976C53.6593 10.568 53.7493 10.142 53.7493 9.698V8.708C53.7493 8.36 53.6953 8.03 53.5873 7.718C53.4913 7.406 53.3413 7.13 53.1373 6.89C52.9453 6.638 52.6933 6.44 52.3813 6.296C52.0813 6.152 51.7333 6.08 51.3373 6.08C50.8573 6.08 50.4373 6.194 50.0773 6.422C49.7173 6.65 49.4353 6.998 49.2313 7.466C49.0273 7.922 48.9253 8.504 48.9253 9.212C48.9253 9.896 49.0273 10.472 49.2313 10.94C49.4353 11.408 49.7173 11.756 50.0773 11.984C50.4373 12.212 50.8573 12.326 51.3373 12.326ZM68.0381 14.162C66.8861 14.162 65.9021 13.958 65.0861 13.55C64.2701 13.13 63.6461 12.542 63.2141 11.786C62.7821 11.018 62.5661 10.112 62.5661 9.068V0.877999H64.9241V9.05C64.9241 9.71 65.0501 10.262 65.3021 10.706C65.5541 11.15 65.9141 11.486 66.3821 11.714C66.8501 11.93 67.4081 12.038 68.0561 12.038C68.7521 12.038 69.3281 11.918 69.7841 11.678C70.2401 11.438 70.5821 11.096 70.8101 10.652C71.0501 10.208 71.1701 9.674 71.1701 9.05V0.877999H73.5281V9.068C73.5281 10.124 73.3061 11.036 72.8621 11.804C72.4181 12.56 71.7881 13.142 70.9721 13.55C70.1561 13.958 69.1781 14.162 68.0381 14.162ZM79.6062 14.18C78.7542 14.18 78.0222 14.048 77.4102 13.784C76.7982 13.508 76.3242 13.13 75.9882 12.65C75.6642 12.17 75.5022 11.612 75.5022 10.976H77.7162C77.7282 11.528 77.9142 11.93 78.2742 12.182C78.6342 12.434 79.1022 12.56 79.6782 12.56C80.2422 12.56 80.6682 12.458 80.9562 12.254C81.2562 12.038 81.4062 11.744 81.4062 11.372C81.4062 11.072 81.3402 10.844 81.2082 10.688C81.0762 10.52 80.8602 10.394 80.5602 10.31C80.2602 10.214 79.8642 10.13 79.3722 10.058C78.5682 9.938 77.8962 9.776 77.3562 9.572C76.8162 9.356 76.4142 9.062 76.1502 8.69C75.8862 8.318 75.7542 7.826 75.7542 7.214C75.7542 6.614 75.9162 6.092 76.2402 5.648C76.5642 5.204 77.0202 4.862 77.6082 4.622C78.1962 4.37 78.8862 4.244 79.6782 4.244C80.4462 4.244 81.1122 4.37 81.6762 4.622C82.2522 4.862 82.6962 5.21 83.0082 5.666C83.3322 6.11 83.5002 6.644 83.5122 7.268H81.2982C81.2982 6.932 81.2262 6.662 81.0822 6.458C80.9502 6.242 80.7582 6.086 80.5062 5.99C80.2542 5.894 79.9602 5.846 79.6242 5.846C79.1202 5.846 78.7242 5.954 78.4362 6.17C78.1482 6.374 78.0042 6.656 78.0042 7.016C78.0042 7.28 78.0762 7.496 78.2202 7.664C78.3762 7.82 78.6222 7.946 78.9582 8.042C79.2942 8.138 79.7262 8.222 80.2542 8.294C80.8302 8.378 81.3282 8.486 81.7482 8.618C82.1802 8.75 82.5402 8.93 82.8282 9.158C83.1162 9.374 83.3322 9.65 83.4762 9.986C83.6322 10.31 83.7102 10.706 83.7102 11.174C83.7102 12.134 83.3322 12.878 82.5762 13.406C81.8322 13.922 80.8422 14.18 79.6062 14.18ZM89.5668 14.162C88.5948 14.162 87.7668 13.964 87.0828 13.568C86.4108 13.16 85.8948 12.59 85.5348 11.858C85.1748 11.114 84.9948 10.25 84.9948 9.266C84.9948 8.246 85.1748 7.364 85.5348 6.62C85.8948 5.864 86.4108 5.282 87.0828 4.874C87.7548 4.466 88.5528 4.262 89.4768 4.262C90.5328 4.262 91.3968 4.496 92.0688 4.964C92.7528 5.42 93.2448 6.056 93.5448 6.872C93.8448 7.688 93.9468 8.624 93.8508 9.68H87.1908C87.1908 10.292 87.2868 10.808 87.4788 11.228C87.6828 11.636 87.9588 11.948 88.3068 12.164C88.6668 12.368 89.0868 12.47 89.5668 12.47C90.1308 12.47 90.5988 12.338 90.9708 12.074C91.3428 11.798 91.5828 11.444 91.6908 11.012H93.7968C93.7248 11.66 93.4968 12.224 93.1128 12.704C92.7288 13.172 92.2308 13.532 91.6188 13.784C91.0068 14.036 90.3228 14.162 89.5668 14.162ZM87.1908 8.474L86.9928 8.24H91.8708L91.6548 8.492C91.6788 7.904 91.6008 7.424 91.4208 7.052C91.2408 6.68 90.9828 6.404 90.6468 6.224C90.3108 6.044 89.9208 5.954 89.4768 5.954C89.0208 5.954 88.6248 6.05 88.2888 6.242C87.9528 6.434 87.6888 6.722 87.4968 7.106C87.3048 7.478 87.2028 7.934 87.1908 8.474ZM95.6787 14V4.424H97.7127L97.8207 6.026H97.8927C98.1087 5.414 98.4567 4.976 98.9367 4.712C99.4287 4.436 99.9867 4.298 100.611 4.298C100.719 4.298 100.815 4.298 100.899 4.298C100.995 4.298 101.085 4.298 101.169 4.298V6.422C101.097 6.422 101.007 6.422 100.899 6.422C100.803 6.41 100.695 6.404 100.575 6.404C99.9987 6.404 99.5187 6.5 99.1347 6.692C98.7507 6.872 98.4567 7.136 98.2527 7.484C98.0607 7.832 97.9527 8.258 97.9287 8.762V14H95.6787ZM105.991 14.18C105.139 14.18 104.407 14.048 103.795 13.784C103.183 13.508 102.709 13.13 102.373 12.65C102.049 12.17 101.887 11.612 101.887 10.976H104.101C104.113 11.528 104.299 11.93 104.659 12.182C105.019 12.434 105.487 12.56 106.063 12.56C106.627 12.56 107.053 12.458 107.341 12.254C107.641 12.038 107.791 11.744 107.791 11.372C107.791 11.072 107.725 10.844 107.593 10.688C107.461 10.52 107.245 10.394 106.945 10.31C106.645 10.214 106.249 10.13 105.757 10.058C104.953 9.938 104.281 9.776 103.741 9.572C103.201 9.356 102.799 9.062 102.535 8.69C102.271 8.318 102.139 7.826 102.139 7.214C102.139 6.614 102.301 6.092 102.625 5.648C102.949 5.204 103.405 4.862 103.993 4.622C104.581 4.37 105.271 4.244 106.063 4.244C106.831 4.244 107.497 4.37 108.061 4.622C108.637 4.862 109.081 5.21 109.393 5.666C109.717 6.11 109.885 6.644 109.897 7.268H107.683C107.683 6.932 107.611 6.662 107.467 6.458C107.335 6.242 107.143 6.086 106.891 5.99C106.639 5.894 106.345 5.846 106.009 5.846C105.505 5.846 105.109 5.954 104.821 6.17C104.533 6.374 104.389 6.656 104.389 7.016C104.389 7.28 104.461 7.496 104.605 7.664C104.761 7.82 105.007 7.946 105.343 8.042C105.679 8.138 106.111 8.222 106.639 8.294C107.215 8.378 107.713 8.486 108.133 8.618C108.565 8.75 108.925 8.93 109.213 9.158C109.501 9.374 109.717 9.65 109.861 9.986C110.017 10.31 110.095 10.706 110.095 11.174C110.095 12.134 109.717 12.878 108.961 13.406C108.217 13.922 107.227 14.18 105.991 14.18Z" fill="#16191C"/>
<path d="M65.1156 146.597H0C0 139.269 2.93125 132.779 7.74688 127.963C10.4688 125.241 13.8187 123.147 17.5875 121.682C19.4719 128.172 25.5438 132.779 32.4531 132.779C39.5719 132.779 45.4344 128.172 47.3188 121.682C57.7875 125.241 65.1156 135.082 65.1156 146.597Z" fill="#D8955D"/>
<path d="M47.5281 121.68C45.6438 128.171 39.5719 132.777 32.6625 132.777C25.5438 132.777 19.6812 128.171 17.7969 121.68C18.6344 121.262 19.4719 121.052 20.5188 120.843C22.1938 120.424 23.6594 120.215 25.5437 120.215C26.5906 123.355 29.3125 125.659 32.8719 125.659C36.2219 125.659 39.1531 123.355 40.2 120.215C41.875 120.215 43.55 120.424 45.225 120.843C45.6438 121.262 46.4813 121.471 47.5281 121.68Z" fill="#CF7A32"/>
<path d="M40.2008 113.725V118.121C40.2008 118.959 39.9914 119.587 39.782 120.425C38.7352 123.565 36.0133 125.868 32.4539 125.868C29.1039 125.868 26.1727 123.565 25.1258 120.425C24.9164 119.796 24.707 118.959 24.707 118.121V113.725C27.0102 114.771 29.5227 115.4 32.2445 115.4C35.1758 115.4 37.8977 114.771 40.2008 113.725Z" fill="#E0B28B"/>
<path d="M50.2516 85.041V97.6035C50.2516 98.0223 50.2516 98.2316 50.2516 98.6504C49.8328 105.35 45.8547 111.004 39.9922 113.725C37.6891 114.772 35.1766 115.4 32.4547 115.4C29.7328 115.4 27.2203 114.772 24.9172 113.725C19.2641 111.004 15.0766 105.35 14.8672 98.6504C14.8672 98.2316 14.8672 98.0223 14.8672 97.6035V83.5754C17.5891 86.0879 28.8953 94.8816 40.2016 82.5285C41.2484 81.4816 42.0859 80.2254 43.1328 78.7598L47.5297 82.5285L50.2516 85.041Z" fill="#F0C19A"/>
<path d="M56.5328 93.8352C56.5328 95.0914 55.9047 96.3477 55.0672 97.1852C54.2297 98.0227 52.9734 98.6508 51.7172 98.6508H50.2516C50.2516 98.232 50.2516 98.0227 50.2516 97.6039V89.0195H51.7172C53.1828 89.0195 54.4391 89.6477 55.2766 90.6945C56.1141 91.532 56.5328 92.7883 56.5328 93.8352ZM14.8672 98.6508H13.4016C12.1453 98.6508 10.8891 98.0227 10.0516 97.1852C9.21406 96.3477 8.58594 95.0914 8.58594 93.8352C8.58594 92.5789 9.00469 91.532 9.63281 90.6945C10.4703 89.6477 11.7266 89.0195 13.1922 89.0195H14.6578V97.6039C14.6578 98.0227 14.6578 98.232 14.8672 98.6508Z" fill="#E0B28B"/>
<path d="M55.4836 81.6902V90.6934C54.6461 89.6465 53.3898 89.0184 51.9242 89.0184H50.2492V85.0402L47.318 82.5277L42.9211 78.759C41.8742 80.2246 41.0367 81.4809 39.9898 82.5277C28.893 94.8809 17.3773 86.0871 14.6555 83.5746V89.0184H13.3992C11.9336 89.0184 10.6773 89.6465 9.83984 90.6934V80.434C9.83984 76.4559 11.0961 72.4777 13.1898 69.1277C16.3305 64.3121 22.193 62.8465 27.6367 62.8465C33.918 62.8465 39.7805 63.8934 45.8523 62.4277C45.8523 62.4277 46.8992 65.7777 45.643 68.2902C51.2961 70.1746 55.4836 75.409 55.4836 81.6902Z" fill="#9A8878"/>
<path d="M133.999 146.598H71.6055C71.6055 139.898 74.3273 133.826 78.5148 129.22C78.7242 129.01 78.9336 128.801 79.143 128.591C81.8648 125.87 85.0055 123.776 88.5648 122.52C90.4492 128.591 96.1023 133.198 102.802 133.198C109.502 133.198 115.155 128.801 117.04 122.52C120.809 123.776 124.368 126.079 127.09 129.01C131.487 133.826 133.999 139.898 133.999 146.598Z" fill="#EFA260"/>
<path d="M117.041 122.727C115.157 128.799 109.504 133.405 102.804 133.405C96.1039 133.405 90.2414 129.009 88.5664 122.727C89.4039 122.518 90.2414 122.099 91.0789 121.89C92.5445 121.471 94.2195 121.262 95.8945 121.262C96.732 124.193 99.6633 126.496 102.804 126.496C106.154 126.496 108.876 124.402 109.713 121.262C111.388 121.262 112.854 121.471 114.529 121.89C115.366 122.309 116.204 122.518 117.041 122.727Z" fill="#FF7500"/>
<path d="M110.133 114.98V119.168C110.133 120.005 109.923 120.634 109.714 121.262C108.877 124.193 105.945 126.496 102.805 126.496C99.4547 126.496 96.7328 124.402 95.8953 121.262C95.6859 120.634 95.4766 119.796 95.4766 119.168V114.98C97.7797 116.027 100.292 116.446 102.805 116.446C105.317 116.446 107.83 116.027 110.133 114.98Z" fill="#E0B28B"/>
<path d="M95.8937 121.471C94.2187 121.471 92.7531 121.681 91.0781 122.1C90.2406 122.309 89.4031 122.518 88.5656 122.937C85.0062 124.193 81.6562 126.287 79.1437 129.009C78.9344 129.218 78.725 129.428 78.5156 129.637V96.9746L78.725 97.184C79.5625 98.0215 80.8187 98.6496 82.2844 98.6496H83.9594C84.3781 105.978 88.9844 112.259 95.475 114.981V119.168C95.475 120.006 95.6844 120.634 95.8937 121.471ZM127.091 96.9746V129.218C124.369 126.287 120.809 123.984 117.041 122.728C116.203 122.518 115.366 122.1 114.528 121.89C113.062 121.471 111.388 121.262 109.713 121.262C109.922 120.634 110.131 119.796 110.131 119.168V114.981C116.622 112.259 121.228 105.978 121.647 98.6496H123.322C124.788 98.6496 126.044 98.0215 126.881 97.184C127.091 97.184 127.091 96.9746 127.091 96.9746Z" fill="#6C5644"/>
<path d="M128.345 93.6246C128.345 94.8809 127.927 95.9277 127.089 96.9746L126.88 97.184C126.042 98.0215 124.577 98.6496 123.32 98.6496H121.645C121.645 98.2309 121.645 98.0215 121.645 97.6027V88.5996H123.32C124.786 88.5996 126.252 89.2277 127.089 90.2746C127.927 91.3215 128.345 92.3684 128.345 93.6246ZM83.9578 98.6496H82.2828C80.8172 98.6496 79.5609 98.0215 78.7234 97.184L78.5141 96.9746C77.6766 96.1371 77.2578 94.8809 77.2578 93.6246C77.2578 92.3684 77.6766 91.3215 78.5141 90.2746C79.3516 89.2277 80.8172 88.5996 82.2828 88.5996H83.9578V97.6027C83.9578 98.0215 83.9578 98.4402 83.9578 98.6496Z" fill="#E0B28B"/>
<path d="M121.648 84.4129V97.8129C121.648 98.2316 121.648 98.441 121.648 98.8598C121.23 106.188 116.623 112.469 110.133 115.191C107.83 116.238 105.317 116.657 102.805 116.657C100.292 116.657 97.7797 116.029 95.4766 115.191C88.9859 112.469 84.3797 106.188 83.9609 98.8598C83.9609 98.441 83.9609 98.2316 83.9609 97.8129V82.9473C86.6828 85.4598 98.8266 94.8816 110.761 81.691C111.808 80.4348 112.855 79.1785 113.902 77.7129L118.508 81.691L121.648 84.4129Z" fill="#F0C19A"/>
<path d="M127.091 81.6905V90.2748C126.253 89.228 124.788 88.5998 123.322 88.5998H121.647V84.4123L118.506 81.6905L113.9 77.7123C112.853 79.178 111.806 80.6436 110.759 81.6905C98.825 94.8811 86.8906 85.4592 83.9594 82.9467V88.8092H82.2844C80.8187 88.8092 79.3531 89.4373 78.5156 90.4842V81.8998C78.5156 75.1998 81.2375 69.128 85.6344 64.7311C90.0313 60.3342 96.1031 57.6123 102.803 57.6123C116.203 57.403 127.091 68.2905 127.091 81.6905Z" fill="#6C5644"/>
</svg>
