<svg width="130" height="130" viewBox="0 0 130 130" fill="none" xmlns="http://www.w3.org/2000/svg">
<g clip-path="url(#clip0_887_13694)">
<mask id="mask0_887_13694" style="mask-type:luminance" maskUnits="userSpaceOnUse" x="0" y="0" width="130" height="130">
<path d="M0 0H130V130H0V0Z" fill="white"/>
</mask>
<g mask="url(#mask0_887_13694)">
<path d="M95.7905 30.7889C93.4552 30.7898 91.1327 31.1333 88.8971 31.8083C88.9142 31.4662 88.9484 31.1344 88.9484 30.7889C88.9452 25.8193 87.1385 21.0198 83.864 17.2816C80.5895 13.5434 76.0696 11.1206 71.1437 10.4631C66.2178 9.80563 61.2207 10.9582 57.0803 13.7066C52.94 16.4551 49.9378 20.6128 48.6313 25.4075C46.2211 24.4438 43.6494 23.948 41.0537 23.9468C38.3581 23.9468 35.6889 24.4777 33.1986 25.5092C30.7082 26.5408 28.4454 28.0527 26.5394 29.9588C24.6333 31.8648 23.1214 34.1276 22.0898 36.618C21.0583 39.1084 20.5273 41.7775 20.5273 44.4731C20.5273 47.1686 21.0583 49.8378 22.0898 52.3281C23.1214 54.8185 24.6333 57.0813 26.5394 58.9874C28.4454 60.8934 30.7082 62.4054 33.1986 63.4369C35.6889 64.4685 38.3581 64.9994 41.0537 64.9994C45.5577 64.9965 49.9358 63.5117 53.5124 60.774C57.089 58.0364 59.6655 54.198 60.8444 49.851C63.2544 50.8158 65.8261 51.3127 68.4221 51.3152C69.705 51.3152 70.9537 51.1818 72.1716 50.9594C71.9613 52.2075 71.8515 53.4705 71.8431 54.7362C71.8431 67.9586 82.5681 78.6836 95.7905 78.6836C109.013 78.6836 119.738 67.9586 119.738 54.7362C119.738 48.385 117.215 42.2939 112.724 37.8029C108.233 33.3119 102.142 30.7889 95.7905 30.7889Z" fill="#CCBFB4"/>
<path d="M109.474 78.684C107.922 78.7069 106.381 78.9417 104.893 79.3819C105.632 77.5824 106.053 75.6187 106.053 73.5524C106.053 69.4695 104.431 65.5538 101.544 62.6667C98.6569 59.7796 94.7412 58.1577 90.6583 58.1577C87.3162 58.1674 84.0698 59.2744 81.418 61.3085C80.2162 56.5021 77.443 52.235 73.5388 49.1848C69.6346 46.1347 64.8232 44.4765 59.8688 44.4735C55.2586 44.4759 50.7632 45.9119 47.0053 48.5825C43.2474 51.253 40.4128 55.0261 38.8943 59.379C35.1313 58.2155 31.1614 57.8779 27.2559 58.3894C23.3504 58.9009 19.6014 60.2493 16.2648 62.3426C12.9283 64.436 10.0829 67.2248 7.92303 70.5186C5.76317 73.8125 4.33973 77.5337 3.74995 81.4281C3.16017 85.3226 3.41795 89.2984 4.50569 93.0841C5.59342 96.8697 7.48547 100.376 10.0526 103.363C12.6197 106.351 15.8014 108.749 19.3803 110.394C22.9592 112.039 26.851 112.892 30.7898 112.895H109.474C114.011 112.895 118.361 111.092 121.569 107.885C124.777 104.677 126.579 100.326 126.579 95.7893C126.579 91.2527 124.777 86.9019 121.569 83.694C118.361 80.4862 114.011 78.684 109.474 78.684Z" fill="#FF7500"/>
</g>
</g>
<defs>
<clipPath id="clip0_887_13694">
<rect width="130" height="130" fill="white"/>
</clipPath>
</defs>
</svg>
