<svg width="125" height="162" viewBox="0 0 125 162" fill="none" xmlns="http://www.w3.org/2000/svg">
<path d="M0.512 14V0.877999H2.888V12.326L2.492 11.876H8.936V14H0.512ZM14.3132 14.162C13.5932 14.162 12.9452 14.054 12.3692 13.838C11.7932 13.61 11.2892 13.28 10.8572 12.848C10.4372 12.416 10.1132 11.894 9.88522 11.282C9.66922 10.67 9.56122 9.98 9.56122 9.212C9.56122 8.228 9.74722 7.364 10.1192 6.62C10.5032 5.876 11.0492 5.294 11.7572 4.874C12.4652 4.454 13.3172 4.244 14.3132 4.244C15.0212 4.244 15.6632 4.358 16.2392 4.586C16.8152 4.814 17.3072 5.144 17.7152 5.576C18.1352 6.008 18.4592 6.53 18.6872 7.142C18.9152 7.742 19.0292 8.432 19.0292 9.212C19.0292 10.184 18.8372 11.042 18.4532 11.786C18.0812 12.53 17.5412 13.112 16.8332 13.532C16.1372 13.952 15.2972 14.162 14.3132 14.162ZM14.2952 12.308C14.7872 12.308 15.2192 12.194 15.5912 11.966C15.9632 11.726 16.2512 11.378 16.4552 10.922C16.6592 10.454 16.7612 9.884 16.7612 9.212C16.7612 8.708 16.7012 8.264 16.5812 7.88C16.4732 7.484 16.3112 7.154 16.0952 6.89C15.8792 6.626 15.6212 6.428 15.3212 6.296C15.0212 6.164 14.6852 6.098 14.3132 6.098C13.8212 6.098 13.3832 6.218 12.9992 6.458C12.6272 6.686 12.3392 7.034 12.1352 7.502C11.9312 7.958 11.8292 8.528 11.8292 9.212C11.8292 9.716 11.8832 10.166 11.9912 10.562C12.1112 10.946 12.2792 11.27 12.4952 11.534C12.7112 11.786 12.9692 11.978 13.2692 12.11C13.5812 12.242 13.9232 12.308 14.2952 12.308ZM24.2765 14.162C23.7005 14.162 23.1725 14.06 22.6925 13.856C22.2245 13.64 21.8165 13.322 21.4685 12.902C21.1325 12.482 20.8745 11.966 20.6945 11.354C20.5145 10.73 20.4245 10.016 20.4245 9.212C20.4245 8.12 20.5805 7.208 20.8925 6.476C21.2165 5.732 21.6665 5.174 22.2425 4.802C22.8305 4.43 23.5085 4.244 24.2765 4.244C24.8045 4.244 25.2725 4.328 25.6805 4.496C26.1005 4.652 26.4605 4.874 26.7605 5.162C27.0605 5.45 27.2885 5.792 27.4445 6.188H27.5705L27.6605 4.424H29.8205V14H27.5705V12.218H27.4445C27.2165 12.806 26.8265 13.28 26.2745 13.64C25.7225 13.988 25.0565 14.162 24.2765 14.162ZM25.1225 12.326C25.6625 12.326 26.1065 12.2 26.4545 11.948C26.8145 11.696 27.0845 11.372 27.2645 10.976C27.4445 10.568 27.5345 10.142 27.5345 9.698V8.708C27.5345 8.252 27.4445 7.826 27.2645 7.43C27.0845 7.022 26.8145 6.698 26.4545 6.458C26.1065 6.206 25.6625 6.08 25.1225 6.08C24.6425 6.08 24.2225 6.194 23.8625 6.422C23.5025 6.65 23.2205 6.998 23.0165 7.466C22.8125 7.922 22.7105 8.504 22.7105 9.212C22.7105 9.896 22.8125 10.472 23.0165 10.94C23.2205 11.408 23.5025 11.756 23.8625 11.984C24.2225 12.212 24.6425 12.326 25.1225 12.326ZM35.3859 14.162C34.8099 14.162 34.2819 14.06 33.8019 13.856C33.3339 13.64 32.9259 13.322 32.5779 12.902C32.2419 12.482 31.9839 11.966 31.8039 11.354C31.6239 10.73 31.5339 10.016 31.5339 9.212C31.5339 8.12 31.6899 7.208 32.0019 6.476C32.3259 5.732 32.7759 5.174 33.3519 4.802C33.9399 4.43 34.6179 4.244 35.3859 4.244C35.9139 4.244 36.3819 4.328 36.7899 4.496C37.2099 4.652 37.5699 4.874 37.8699 5.162C38.1699 5.45 38.3979 5.792 38.5539 6.188H38.6799V0.877999H40.9299L40.9119 14H38.7519L38.6799 12.218H38.5539C38.3259 12.806 37.9359 13.28 37.3839 13.64C36.8319 13.988 36.1659 14.162 35.3859 14.162ZM36.2319 12.326C36.7719 12.326 37.2159 12.2 37.5639 11.948C37.9239 11.696 38.1939 11.372 38.3739 10.976C38.5539 10.568 38.6439 10.142 38.6439 9.698V8.708C38.6439 8.36 38.5899 8.03 38.4819 7.718C38.3859 7.406 38.2359 7.13 38.0319 6.89C37.8399 6.638 37.5879 6.44 37.2759 6.296C36.9759 6.152 36.6279 6.08 36.2319 6.08C35.7519 6.08 35.3319 6.194 34.9719 6.422C34.6119 6.65 34.3299 6.998 34.1259 7.466C33.9219 7.922 33.8199 8.504 33.8199 9.212C33.8199 9.896 33.9219 10.472 34.1259 10.94C34.3299 11.408 34.6119 11.756 34.9719 11.984C35.3319 12.212 35.7519 12.326 36.2319 12.326ZM47.5686 14V0.877999H53.8146C54.7026 0.877999 55.4346 1.022 56.0106 1.31C56.5986 1.586 57.0426 1.976 57.3426 2.48C57.6426 2.984 57.7926 3.572 57.7926 4.244C57.7926 4.7 57.7146 5.126 57.5586 5.522C57.4026 5.918 57.1746 6.254 56.8746 6.53C56.5746 6.806 56.2026 7.004 55.7586 7.124V7.25C56.2866 7.346 56.7246 7.544 57.0726 7.844C57.4206 8.132 57.6846 8.486 57.8646 8.906C58.0566 9.314 58.1526 9.77 58.1526 10.274C58.1526 11.078 57.9666 11.762 57.5946 12.326C57.2346 12.878 56.7126 13.298 56.0286 13.586C55.3446 13.862 54.5166 14 53.5446 14H47.5686ZM49.8726 12.146H53.2926C54.1326 12.146 54.7446 11.96 55.1286 11.588C55.5246 11.216 55.7226 10.73 55.7226 10.13C55.7226 9.482 55.5186 8.996 55.1106 8.672C54.7146 8.348 54.1626 8.186 53.4546 8.186H49.8726V12.146ZM49.8726 6.404H53.3466C53.8146 6.404 54.1986 6.326 54.4986 6.17C54.7986 6.014 55.0206 5.804 55.1646 5.54C55.3206 5.264 55.3986 4.94 55.3986 4.568C55.3986 3.968 55.2006 3.512 54.8046 3.2C54.4086 2.876 53.8746 2.714 53.2026 2.714H49.8726V6.404ZM63.2824 14.162C62.7064 14.162 62.1784 14.06 61.6984 13.856C61.2304 13.64 60.8224 13.322 60.4744 12.902C60.1384 12.482 59.8804 11.966 59.7004 11.354C59.5204 10.73 59.4304 10.016 59.4304 9.212C59.4304 8.12 59.5864 7.208 59.8984 6.476C60.2224 5.732 60.6724 5.174 61.2484 4.802C61.8364 4.43 62.5144 4.244 63.2824 4.244C63.8104 4.244 64.2784 4.328 64.6864 4.496C65.1064 4.652 65.4664 4.874 65.7664 5.162C66.0664 5.45 66.2944 5.792 66.4504 6.188H66.5764L66.6664 4.424H68.8264V14H66.5764V12.218H66.4504C66.2224 12.806 65.8324 13.28 65.2804 13.64C64.7284 13.988 64.0624 14.162 63.2824 14.162ZM64.1284 12.326C64.6684 12.326 65.1124 12.2 65.4604 11.948C65.8204 11.696 66.0904 11.372 66.2704 10.976C66.4504 10.568 66.5404 10.142 66.5404 9.698V8.708C66.5404 8.252 66.4504 7.826 66.2704 7.43C66.0904 7.022 65.8204 6.698 65.4604 6.458C65.1124 6.206 64.6684 6.08 64.1284 6.08C63.6484 6.08 63.2284 6.194 62.8684 6.422C62.5084 6.65 62.2264 6.998 62.0224 7.466C61.8184 7.922 61.7164 8.504 61.7164 9.212C61.7164 9.896 61.8184 10.472 62.0224 10.94C62.2264 11.408 62.5084 11.756 62.8684 11.984C63.2284 12.212 63.6484 12.326 64.1284 12.326ZM71.2392 14V0.877999H73.4892V14H71.2392ZM79.173 14.162C78.597 14.162 78.069 14.06 77.589 13.856C77.121 13.64 76.713 13.322 76.365 12.902C76.029 12.482 75.771 11.966 75.591 11.354C75.411 10.73 75.321 10.016 75.321 9.212C75.321 8.12 75.477 7.208 75.789 6.476C76.113 5.732 76.563 5.174 77.139 4.802C77.727 4.43 78.405 4.244 79.173 4.244C79.701 4.244 80.169 4.328 80.577 4.496C80.997 4.652 81.357 4.874 81.657 5.162C81.957 5.45 82.185 5.792 82.341 6.188H82.467L82.557 4.424H84.717V14H82.467V12.218H82.341C82.113 12.806 81.723 13.28 81.171 13.64C80.619 13.988 79.953 14.162 79.173 14.162ZM80.019 12.326C80.559 12.326 81.003 12.2 81.351 11.948C81.711 11.696 81.981 11.372 82.161 10.976C82.341 10.568 82.431 10.142 82.431 9.698V8.708C82.431 8.252 82.341 7.826 82.161 7.43C81.981 7.022 81.711 6.698 81.351 6.458C81.003 6.206 80.559 6.08 80.019 6.08C79.539 6.08 79.119 6.194 78.759 6.422C78.399 6.65 78.117 6.998 77.913 7.466C77.709 7.922 77.607 8.504 77.607 9.212C77.607 9.896 77.709 10.472 77.913 10.94C78.117 11.408 78.399 11.756 78.759 11.984C79.119 12.212 79.539 12.326 80.019 12.326ZM87.1298 14V4.424H89.2898L89.3798 6.242H89.4878C89.7638 5.57 90.1838 5.072 90.7478 4.748C91.3118 4.412 91.9418 4.244 92.6378 4.244C93.1178 4.244 93.5618 4.322 93.9698 4.478C94.3898 4.622 94.7498 4.856 95.0498 5.18C95.3618 5.492 95.6018 5.906 95.7698 6.422C95.9498 6.926 96.0398 7.538 96.0398 8.258V14H93.7898V8.744C93.7898 8.144 93.7178 7.652 93.5738 7.268C93.4298 6.872 93.2078 6.578 92.9078 6.386C92.6198 6.194 92.2418 6.098 91.7738 6.098C91.2698 6.098 90.8378 6.218 90.4778 6.458C90.1298 6.698 89.8598 7.016 89.6678 7.412C89.4758 7.808 89.3798 8.246 89.3798 8.726V14H87.1298ZM102.466 14.162C101.758 14.162 101.116 14.048 100.54 13.82C99.9643 13.58 99.4663 13.244 99.0463 12.812C98.6263 12.368 98.3083 11.846 98.0923 11.246C97.8763 10.634 97.7683 9.956 97.7683 9.212C97.7683 8.204 97.9603 7.334 98.3442 6.602C98.7403 5.858 99.2923 5.282 100 4.874C100.72 4.454 101.566 4.244 102.538 4.244C103.342 4.244 104.056 4.394 104.68 4.694C105.304 4.994 105.802 5.414 106.174 5.954C106.558 6.482 106.768 7.1 106.804 7.808H104.608C104.548 7.436 104.416 7.124 104.212 6.872C104.02 6.62 103.774 6.428 103.474 6.296C103.174 6.164 102.844 6.098 102.484 6.098C101.968 6.098 101.524 6.23 101.152 6.494C100.78 6.746 100.498 7.106 100.306 7.574C100.126 8.042 100.036 8.588 100.036 9.212C100.036 9.896 100.138 10.466 100.342 10.922C100.546 11.378 100.828 11.726 101.188 11.966C101.56 12.194 101.986 12.308 102.466 12.308C102.886 12.308 103.252 12.236 103.564 12.092C103.876 11.936 104.122 11.726 104.302 11.462C104.494 11.186 104.608 10.874 104.644 10.526H106.84C106.792 11.258 106.576 11.9 106.192 12.452C105.808 12.992 105.298 13.412 104.662 13.712C104.026 14.012 103.294 14.162 102.466 14.162ZM112.571 14.162C111.599 14.162 110.771 13.964 110.087 13.568C109.415 13.16 108.899 12.59 108.539 11.858C108.179 11.114 107.999 10.25 107.999 9.266C107.999 8.246 108.179 7.364 108.539 6.62C108.899 5.864 109.415 5.282 110.087 4.874C110.759 4.466 111.557 4.262 112.481 4.262C113.537 4.262 114.401 4.496 115.073 4.964C115.757 5.42 116.249 6.056 116.549 6.872C116.849 7.688 116.951 8.624 116.855 9.68H110.195C110.195 10.292 110.291 10.808 110.483 11.228C110.687 11.636 110.963 11.948 111.311 12.164C111.671 12.368 112.091 12.47 112.571 12.47C113.135 12.47 113.603 12.338 113.975 12.074C114.347 11.798 114.587 11.444 114.695 11.012H116.801C116.729 11.66 116.501 12.224 116.117 12.704C115.733 13.172 115.235 13.532 114.623 13.784C114.011 14.036 113.327 14.162 112.571 14.162ZM110.195 8.474L109.997 8.24H114.875L114.659 8.492C114.683 7.904 114.605 7.424 114.425 7.052C114.245 6.68 113.987 6.404 113.651 6.224C113.315 6.044 112.925 5.954 112.481 5.954C112.025 5.954 111.629 6.05 111.293 6.242C110.957 6.434 110.693 6.722 110.501 7.106C110.309 7.478 110.207 7.934 110.195 8.474ZM118.683 14V4.424H120.717L120.825 6.026H120.897C121.113 5.414 121.461 4.976 121.941 4.712C122.433 4.436 122.991 4.298 123.615 4.298C123.723 4.298 123.819 4.298 123.903 4.298C123.999 4.298 124.089 4.298 124.173 4.298V6.422C124.101 6.422 124.011 6.422 123.903 6.422C123.807 6.41 123.699 6.404 123.579 6.404C123.003 6.404 122.523 6.5 122.139 6.692C121.755 6.872 121.461 7.136 121.257 7.484C121.065 7.832 120.957 8.258 120.933 8.762V14H118.683Z" fill="#16191C"/>
<path d="M103.625 107C100.24 88.975 87.45 86.455 77.725 84.58C68.795 82.85 64.5 81.7 64.5 74.5H59.5C59.5 81.7 55.205 82.85 46.275 84.58C36.55 86.455 23.76 88.98 20.375 107H9.5L22 122L34.5 107H25.455C28.42 93.165 37.94 91.28 47.22 89.49C51.54 88.655 56.12 87.71 59.5 85.29V107H49.5L62 122L74.5 107H64.5V85.29C67.875 87.71 72.46 88.655 76.78 89.49C86.06 91.28 95.58 93.165 98.545 107H89.5L102 122L114.5 107H103.625Z" fill="#423830"/>
<path d="M102 77H22C20.6739 77 19.4021 76.4732 18.4645 75.5355C17.5268 74.5979 17 73.3261 17 72V52C17 50.6739 17.5268 49.4021 18.4645 48.4645C19.4021 47.5268 20.6739 47 22 47H102C103.326 47 104.598 47.5268 105.536 48.4645C106.473 49.4021 107 50.6739 107 52V72C107 73.3261 106.473 74.5979 105.536 75.5355C104.598 76.4732 103.326 77 102 77Z" fill="#423830"/>
<path opacity="0.1" d="M102 47H22C20.6739 47 19.4021 47.5268 18.4645 48.4645C17.5268 49.4021 17 50.6739 17 52V53.25C17 51.9239 17.5268 50.6521 18.4645 49.7145C19.4021 48.7768 20.6739 48.25 22 48.25H102C103.326 48.25 104.598 48.7768 105.536 49.7145C106.473 50.6521 107 51.9239 107 53.25V52C107 50.6739 106.473 49.4021 105.536 48.4645C104.598 47.5268 103.326 47 102 47Z" fill="white"/>
<path opacity="0.2" d="M102 75.75H22C20.6739 75.75 19.4021 75.2232 18.4645 74.2855C17.5268 73.3479 17 72.0761 17 70.75V72C17 73.3261 17.5268 74.5979 18.4645 75.5355C19.4021 76.4732 20.6739 77 22 77H102C103.326 77 104.598 76.4732 105.536 75.5355C106.473 74.5979 107 73.3261 107 72V70.75C107 72.0761 106.473 73.3479 105.536 74.2855C104.598 75.2232 103.326 75.75 102 75.75Z" fill="black"/>
<path d="M94.5 64.5C95.8807 64.5 97 63.3807 97 62C97 60.6193 95.8807 59.5 94.5 59.5C93.1193 59.5 92 60.6193 92 62C92 63.3807 93.1193 64.5 94.5 64.5Z" fill="#FF7500"/>
<path d="M84.5 64.5C85.8807 64.5 87 63.3807 87 62C87 60.6193 85.8807 59.5 84.5 59.5C83.1193 59.5 82 60.6193 82 62C82 63.3807 83.1193 64.5 84.5 64.5Z" fill="#FF7500"/>
<path d="M74.5 64.5C75.8807 64.5 77 63.3807 77 62C77 60.6193 75.8807 59.5 74.5 59.5C73.1193 59.5 72 60.6193 72 62C72 63.3807 73.1193 64.5 74.5 64.5Z" fill="#FF7500"/>
<path d="M29.5 67C32.2614 67 34.5 64.7614 34.5 62C34.5 59.2386 32.2614 57 29.5 57C26.7386 57 24.5 59.2386 24.5 62C24.5 64.7614 26.7386 67 29.5 67Z" fill="#D1CBC6"/>
<path d="M29.5 67C32.2614 67 34.5 64.7614 34.5 62C34.5 59.2386 32.2614 57 29.5 57C26.7386 57 24.5 59.2386 24.5 62C24.5 64.7614 26.7386 67 29.5 67Z" fill="url(#paint0_linear_0_1)"/>
<path d="M47 127H77V157H47V127ZM7 127H37V157H7V127Z" fill="#E56B03"/>
<path opacity="0.2" d="M7 127H37V128.25H7V127Z" fill="white"/>
<path opacity="0.1" d="M7 155.75H37V157H7V155.75Z" fill="black"/>
<path d="M87 127H117V157H87V127Z" fill="#E56B03"/>
<path opacity="0.2" d="M47 127H77V128.25H47V127Z" fill="white"/>
<path opacity="0.1" d="M47 155.75H77V157H47V155.75Z" fill="black"/>
<path opacity="0.2" d="M87 127H117V128.25H87V127Z" fill="white"/>
<path opacity="0.1" d="M87 155.75H117V157H87V155.75Z" fill="black"/>
<path d="M7 157H37V127H7V157ZM46.275 84.58C36.55 86.455 23.76 88.98 20.375 107H9.5L22 122L34.5 107H25.455C28.42 93.165 37.94 91.28 47.22 89.49C51.54 88.655 56.12 87.71 59.5 85.29V107H49.5L62 122L74.5 107H64.5V85.29C67.875 87.71 72.46 88.655 76.78 89.49C86.06 91.28 95.58 93.165 98.545 107H89.5L102 122L114.5 107H103.625C100.24 88.975 87.45 86.455 77.725 84.58C69.95 83.08 65.695 82 64.725 77H102C103.326 77 104.598 76.4732 105.536 75.5355C106.473 74.5979 107 73.3261 107 72V52C107 50.6739 106.473 49.4021 105.536 48.4645C104.598 47.5268 103.326 47 102 47H22C20.6739 47 19.4021 47.5268 18.4645 48.4645C17.5268 49.4021 17 50.6739 17 52V72C17 73.3261 17.5268 74.5979 18.4645 75.5355C19.4021 76.4732 20.6739 77 22 77H59.275C58.305 82 54.05 83.075 46.275 84.58ZM87 127V157H117V127H87ZM47 157H77V127H47V157Z" fill="url(#paint1_linear_0_1)"/>
<defs>
<linearGradient id="paint0_linear_0_1" x1="26.34" y1="58.84" x2="31.935" y2="64.435" gradientUnits="userSpaceOnUse">
<stop stop-opacity="0.1"/>
<stop offset="1" stop-opacity="0"/>
</linearGradient>
<linearGradient id="paint1_linear_0_1" x1="4.22" y1="78.295" x2="127.005" y2="135.55" gradientUnits="userSpaceOnUse">
<stop stop-color="white" stop-opacity="0.2"/>
<stop offset="1" stop-color="white" stop-opacity="0"/>
</linearGradient>
</defs>
</svg>
