<svg width="167" height="163" viewBox="0 0 167 163" fill="none" xmlns="http://www.w3.org/2000/svg">
<path d="M0.036 14L4.554 0.877999H7.902L12.42 14H9.954L8.964 11.12H3.492L2.52 14H0.036ZM4.068 9.284H8.406L7.11 5.594L6.282 3.056H6.192L5.346 5.594L4.068 9.284ZM13.6689 17.006L13.6869 4.424H15.8469L15.9189 6.188H16.0629C16.2909 5.612 16.6749 5.144 17.2149 4.784C17.7669 4.424 18.4329 4.244 19.2129 4.244C19.7889 4.244 20.3109 4.352 20.7789 4.568C21.2589 4.772 21.6669 5.084 22.0029 5.504C22.3509 5.924 22.6149 6.446 22.7949 7.07C22.9869 7.682 23.0829 8.396 23.0829 9.212C23.0829 10.292 22.9209 11.204 22.5969 11.948C22.2729 12.68 21.8169 13.238 21.2289 13.622C20.6529 13.994 19.9809 14.18 19.2129 14.18C18.6969 14.18 18.2289 14.102 17.8089 13.946C17.3889 13.778 17.0289 13.55 16.7289 13.262C16.4409 12.962 16.2189 12.62 16.0629 12.236H15.9189V17.006H13.6689ZM18.3849 12.344C18.8649 12.344 19.2849 12.23 19.6449 12.002C20.0049 11.762 20.2809 11.414 20.4729 10.958C20.6769 10.49 20.7789 9.908 20.7789 9.212C20.7789 8.504 20.6769 7.922 20.4729 7.466C20.2809 6.998 20.0049 6.65 19.6449 6.422C19.2849 6.194 18.8649 6.08 18.3849 6.08C17.8449 6.08 17.3949 6.206 17.0349 6.458C16.6749 6.71 16.4049 7.034 16.2249 7.43C16.0449 7.826 15.9549 8.252 15.9549 8.708V9.716C15.9549 10.052 16.0029 10.376 16.0989 10.688C16.2069 11 16.3569 11.282 16.5489 11.534C16.7529 11.774 17.0049 11.972 17.3049 12.128C17.6169 12.272 17.9769 12.344 18.3849 12.344ZM24.8837 17.006L24.9017 4.424H27.0617L27.1337 6.188H27.2777C27.5057 5.612 27.8897 5.144 28.4297 4.784C28.9817 4.424 29.6477 4.244 30.4277 4.244C31.0037 4.244 31.5257 4.352 31.9937 4.568C32.4737 4.772 32.8817 5.084 33.2177 5.504C33.5657 5.924 33.8297 6.446 34.0097 7.07C34.2017 7.682 34.2977 8.396 34.2977 9.212C34.2977 10.292 34.1357 11.204 33.8117 11.948C33.4877 12.68 33.0317 13.238 32.4437 13.622C31.8677 13.994 31.1957 14.18 30.4277 14.18C29.9117 14.18 29.4437 14.102 29.0237 13.946C28.6037 13.778 28.2437 13.55 27.9437 13.262C27.6557 12.962 27.4337 12.62 27.2777 12.236H27.1337V17.006H24.8837ZM29.5997 12.344C30.0797 12.344 30.4997 12.23 30.8597 12.002C31.2197 11.762 31.4957 11.414 31.6877 10.958C31.8917 10.49 31.9937 9.908 31.9937 9.212C31.9937 8.504 31.8917 7.922 31.6877 7.466C31.4957 6.998 31.2197 6.65 30.8597 6.422C30.4997 6.194 30.0797 6.08 29.5997 6.08C29.0597 6.08 28.6097 6.206 28.2497 6.458C27.8897 6.71 27.6197 7.034 27.4397 7.43C27.2597 7.826 27.1697 8.252 27.1697 8.708V9.716C27.1697 10.052 27.2177 10.376 27.3137 10.688C27.4217 11 27.5717 11.282 27.7637 11.534C27.9677 11.774 28.2197 11.972 28.5197 12.128C28.8317 12.272 29.1917 12.344 29.5997 12.344ZM36.0986 14V0.877999H38.3486V14H36.0986ZM40.7744 14V4.424H43.0244V14H40.7744ZM40.7744 3.074V0.877999H43.0244V3.074H40.7744ZM49.5541 14.162C48.8461 14.162 48.2041 14.048 47.6281 13.82C47.0521 13.58 46.5541 13.244 46.1341 12.812C45.7141 12.368 45.3961 11.846 45.1801 11.246C44.9641 10.634 44.8561 9.956 44.8561 9.212C44.8561 8.204 45.0481 7.334 45.4321 6.602C45.8281 5.858 46.3801 5.282 47.0881 4.874C47.8081 4.454 48.6541 4.244 49.6261 4.244C50.4301 4.244 51.1441 4.394 51.7681 4.694C52.3921 4.994 52.8901 5.414 53.2621 5.954C53.6461 6.482 53.8561 7.1 53.8921 7.808H51.6961C51.6361 7.436 51.5041 7.124 51.3001 6.872C51.1081 6.62 50.8621 6.428 50.5621 6.296C50.2621 6.164 49.9321 6.098 49.5721 6.098C49.0561 6.098 48.6121 6.23 48.2401 6.494C47.8681 6.746 47.5861 7.106 47.3941 7.574C47.2141 8.042 47.1241 8.588 47.1241 9.212C47.1241 9.896 47.2261 10.466 47.4301 10.922C47.6341 11.378 47.9161 11.726 48.2761 11.966C48.6481 12.194 49.0741 12.308 49.5541 12.308C49.9741 12.308 50.3401 12.236 50.6521 12.092C50.9641 11.936 51.2101 11.726 51.3901 11.462C51.5821 11.186 51.6961 10.874 51.7321 10.526H53.9281C53.8801 11.258 53.6641 11.9 53.2801 12.452C52.8961 12.992 52.3861 13.412 51.7501 13.712C51.1141 14.012 50.3821 14.162 49.5541 14.162ZM58.9386 14.162C58.3626 14.162 57.8346 14.06 57.3546 13.856C56.8866 13.64 56.4786 13.322 56.1306 12.902C55.7946 12.482 55.5366 11.966 55.3566 11.354C55.1766 10.73 55.0866 10.016 55.0866 9.212C55.0866 8.12 55.2426 7.208 55.5546 6.476C55.8786 5.732 56.3286 5.174 56.9046 4.802C57.4926 4.43 58.1706 4.244 58.9386 4.244C59.4666 4.244 59.9346 4.328 60.3426 4.496C60.7626 4.652 61.1226 4.874 61.4226 5.162C61.7226 5.45 61.9506 5.792 62.1066 6.188H62.2326L62.3226 4.424H64.4826V14H62.2326V12.218H62.1066C61.8786 12.806 61.4886 13.28 60.9366 13.64C60.3846 13.988 59.7186 14.162 58.9386 14.162ZM59.7846 12.326C60.3246 12.326 60.7686 12.2 61.1166 11.948C61.4766 11.696 61.7466 11.372 61.9266 10.976C62.1066 10.568 62.1966 10.142 62.1966 9.698V8.708C62.1966 8.252 62.1066 7.826 61.9266 7.43C61.7466 7.022 61.4766 6.698 61.1166 6.458C60.7686 6.206 60.3246 6.08 59.7846 6.08C59.3046 6.08 58.8846 6.194 58.5246 6.422C58.1646 6.65 57.8826 6.998 57.6786 7.466C57.4746 7.922 57.3726 8.504 57.3726 9.212C57.3726 9.896 57.4746 10.472 57.6786 10.94C57.8826 11.408 58.1646 11.756 58.5246 11.984C58.8846 12.212 59.3046 12.326 59.7846 12.326ZM69.8655 14C69.2775 14 68.8155 13.916 68.4795 13.748C68.1555 13.568 67.9275 13.316 67.7955 12.992C67.6635 12.668 67.5975 12.278 67.5975 11.822V6.242H65.8335V4.424H67.5975V1.724L69.8295 1.49V4.424H71.8635V6.242H69.8295V11.408C69.8295 11.708 69.8955 11.912 70.0275 12.02C70.1595 12.116 70.3635 12.164 70.6395 12.164H71.8635V14H69.8655ZM73.5927 14V4.424H75.8427V14H73.5927ZM73.5927 3.074V0.877999H75.8427V3.074H73.5927ZM82.4265 14.162C81.7065 14.162 81.0585 14.054 80.4825 13.838C79.9065 13.61 79.4025 13.28 78.9705 12.848C78.5505 12.416 78.2265 11.894 77.9985 11.282C77.7825 10.67 77.6745 9.98 77.6745 9.212C77.6745 8.228 77.8605 7.364 78.2325 6.62C78.6165 5.876 79.1625 5.294 79.8705 4.874C80.5785 4.454 81.4305 4.244 82.4265 4.244C83.1345 4.244 83.7765 4.358 84.3525 4.586C84.9285 4.814 85.4205 5.144 85.8285 5.576C86.2485 6.008 86.5725 6.53 86.8005 7.142C87.0285 7.742 87.1425 8.432 87.1425 9.212C87.1425 10.184 86.9505 11.042 86.5665 11.786C86.1945 12.53 85.6545 13.112 84.9465 13.532C84.2505 13.952 83.4105 14.162 82.4265 14.162ZM82.4085 12.308C82.9005 12.308 83.3325 12.194 83.7045 11.966C84.0765 11.726 84.3645 11.378 84.5685 10.922C84.7725 10.454 84.8745 9.884 84.8745 9.212C84.8745 8.708 84.8145 8.264 84.6945 7.88C84.5865 7.484 84.4245 7.154 84.2085 6.89C83.9925 6.626 83.7345 6.428 83.4345 6.296C83.1345 6.164 82.7985 6.098 82.4265 6.098C81.9345 6.098 81.4965 6.218 81.1125 6.458C80.7405 6.686 80.4525 7.034 80.2485 7.502C80.0445 7.958 79.9425 8.528 79.9425 9.212C79.9425 9.716 79.9965 10.166 80.1045 10.562C80.2245 10.946 80.3925 11.27 80.6085 11.534C80.8245 11.786 81.0825 11.978 81.3825 12.11C81.6945 12.242 82.0365 12.308 82.4085 12.308ZM88.956 14V4.424H91.116L91.206 6.242H91.314C91.59 5.57 92.01 5.072 92.574 4.748C93.138 4.412 93.768 4.244 94.464 4.244C94.944 4.244 95.388 4.322 95.796 4.478C96.216 4.622 96.576 4.856 96.876 5.18C97.188 5.492 97.428 5.906 97.596 6.422C97.776 6.926 97.866 7.538 97.866 8.258V14H95.616V8.744C95.616 8.144 95.544 7.652 95.4 7.268C95.256 6.872 95.034 6.578 94.734 6.386C94.446 6.194 94.068 6.098 93.6 6.098C93.096 6.098 92.664 6.218 92.304 6.458C91.956 6.698 91.686 7.016 91.494 7.412C91.302 7.808 91.206 8.246 91.206 8.726V14H88.956ZM108.896 14.162C107.732 14.162 106.754 13.982 105.962 13.622C105.182 13.262 104.594 12.758 104.198 12.11C103.802 11.462 103.598 10.724 103.586 9.896H106.016C106.028 10.388 106.136 10.814 106.34 11.174C106.556 11.534 106.88 11.816 107.312 12.02C107.744 12.224 108.302 12.326 108.986 12.326C109.802 12.326 110.456 12.176 110.948 11.876C111.44 11.564 111.686 11.108 111.686 10.508C111.686 10.16 111.632 9.872 111.524 9.644C111.416 9.404 111.236 9.206 110.984 9.05C110.732 8.894 110.396 8.762 109.976 8.654C109.568 8.546 109.052 8.438 108.428 8.33C107.684 8.21 107.024 8.054 106.448 7.862C105.884 7.658 105.41 7.412 105.026 7.124C104.642 6.836 104.354 6.488 104.162 6.08C103.97 5.66 103.874 5.162 103.874 4.586C103.874 3.794 104.072 3.11 104.468 2.534C104.876 1.958 105.452 1.514 106.196 1.202C106.94 0.877999 107.828 0.715999 108.86 0.715999C109.88 0.715999 110.75 0.877999 111.47 1.202C112.202 1.526 112.766 1.982 113.162 2.57C113.558 3.146 113.756 3.818 113.756 4.586H111.362C111.338 4.118 111.212 3.734 110.984 3.434C110.756 3.122 110.45 2.894 110.066 2.75C109.694 2.606 109.262 2.534 108.77 2.534C108.266 2.534 107.828 2.606 107.456 2.75C107.096 2.894 106.82 3.098 106.628 3.362C106.436 3.614 106.34 3.92 106.34 4.28C106.34 4.724 106.448 5.066 106.664 5.306C106.892 5.534 107.252 5.714 107.744 5.846C108.248 5.978 108.896 6.11 109.688 6.242C110.252 6.338 110.798 6.458 111.326 6.602C111.866 6.746 112.346 6.962 112.766 7.25C113.198 7.526 113.54 7.91 113.792 8.402C114.044 8.882 114.17 9.506 114.17 10.274C114.17 11.042 113.972 11.72 113.576 12.308C113.18 12.896 112.592 13.352 111.812 13.676C111.032 14 110.06 14.162 108.896 14.162ZM120.092 14.162C119.12 14.162 118.292 13.964 117.608 13.568C116.936 13.16 116.42 12.59 116.06 11.858C115.7 11.114 115.52 10.25 115.52 9.266C115.52 8.246 115.7 7.364 116.06 6.62C116.42 5.864 116.936 5.282 117.608 4.874C118.28 4.466 119.078 4.262 120.002 4.262C121.058 4.262 121.922 4.496 122.594 4.964C123.278 5.42 123.77 6.056 124.07 6.872C124.37 7.688 124.472 8.624 124.376 9.68H117.716C117.716 10.292 117.812 10.808 118.004 11.228C118.208 11.636 118.484 11.948 118.832 12.164C119.192 12.368 119.612 12.47 120.092 12.47C120.656 12.47 121.124 12.338 121.496 12.074C121.868 11.798 122.108 11.444 122.216 11.012H124.322C124.25 11.66 124.022 12.224 123.638 12.704C123.254 13.172 122.756 13.532 122.144 13.784C121.532 14.036 120.848 14.162 120.092 14.162ZM117.716 8.474L117.518 8.24H122.396L122.18 8.492C122.204 7.904 122.126 7.424 121.946 7.052C121.766 6.68 121.508 6.404 121.172 6.224C120.836 6.044 120.446 5.954 120.002 5.954C119.546 5.954 119.15 6.05 118.814 6.242C118.478 6.434 118.214 6.722 118.022 7.106C117.83 7.478 117.728 7.934 117.716 8.474ZM126.204 14V4.424H128.238L128.346 6.026H128.418C128.634 5.414 128.982 4.976 129.462 4.712C129.954 4.436 130.512 4.298 131.136 4.298C131.244 4.298 131.34 4.298 131.424 4.298C131.52 4.298 131.61 4.298 131.694 4.298V6.422C131.622 6.422 131.532 6.422 131.424 6.422C131.328 6.41 131.22 6.404 131.1 6.404C130.524 6.404 130.044 6.5 129.66 6.692C129.276 6.872 128.982 7.136 128.778 7.484C128.586 7.832 128.478 8.258 128.454 8.762V14H126.204ZM135.271 14L131.923 4.406H134.353L136.027 9.914L136.621 12.11H136.693L137.287 9.932L138.961 4.406H141.391L138.061 14H135.271ZM146.301 14.162C145.329 14.162 144.501 13.964 143.817 13.568C143.145 13.16 142.629 12.59 142.269 11.858C141.909 11.114 141.729 10.25 141.729 9.266C141.729 8.246 141.909 7.364 142.269 6.62C142.629 5.864 143.145 5.282 143.817 4.874C144.489 4.466 145.287 4.262 146.211 4.262C147.267 4.262 148.131 4.496 148.803 4.964C149.487 5.42 149.979 6.056 150.279 6.872C150.579 7.688 150.681 8.624 150.585 9.68H143.925C143.925 10.292 144.021 10.808 144.213 11.228C144.417 11.636 144.693 11.948 145.041 12.164C145.401 12.368 145.821 12.47 146.301 12.47C146.865 12.47 147.333 12.338 147.705 12.074C148.077 11.798 148.317 11.444 148.425 11.012H150.531C150.459 11.66 150.231 12.224 149.847 12.704C149.463 13.172 148.965 13.532 148.353 13.784C147.741 14.036 147.057 14.162 146.301 14.162ZM143.925 8.474L143.727 8.24H148.605L148.389 8.492C148.413 7.904 148.335 7.424 148.155 7.052C147.975 6.68 147.717 6.404 147.381 6.224C147.045 6.044 146.655 5.954 146.211 5.954C145.755 5.954 145.359 6.05 145.023 6.242C144.687 6.434 144.423 6.722 144.231 7.106C144.039 7.478 143.937 7.934 143.925 8.474ZM152.413 14V4.424H154.447L154.555 6.026H154.627C154.843 5.414 155.191 4.976 155.671 4.712C156.163 4.436 156.721 4.298 157.345 4.298C157.453 4.298 157.549 4.298 157.633 4.298C157.729 4.298 157.819 4.298 157.903 4.298V6.422C157.831 6.422 157.741 6.422 157.633 6.422C157.537 6.41 157.429 6.404 157.309 6.404C156.733 6.404 156.253 6.5 155.869 6.692C155.485 6.872 155.191 7.136 154.987 7.484C154.795 7.832 154.687 8.258 154.663 8.762V14H152.413ZM162.725 14.18C161.873 14.18 161.141 14.048 160.529 13.784C159.917 13.508 159.443 13.13 159.107 12.65C158.783 12.17 158.621 11.612 158.621 10.976H160.835C160.847 11.528 161.033 11.93 161.393 12.182C161.753 12.434 162.221 12.56 162.797 12.56C163.361 12.56 163.787 12.458 164.075 12.254C164.375 12.038 164.525 11.744 164.525 11.372C164.525 11.072 164.459 10.844 164.327 10.688C164.195 10.52 163.979 10.394 163.679 10.31C163.379 10.214 162.983 10.13 162.491 10.058C161.687 9.938 161.015 9.776 160.475 9.572C159.935 9.356 159.533 9.062 159.269 8.69C159.005 8.318 158.873 7.826 158.873 7.214C158.873 6.614 159.035 6.092 159.359 5.648C159.683 5.204 160.139 4.862 160.727 4.622C161.315 4.37 162.005 4.244 162.797 4.244C163.565 4.244 164.231 4.37 164.795 4.622C165.371 4.862 165.815 5.21 166.127 5.666C166.451 6.11 166.619 6.644 166.631 7.268H164.417C164.417 6.932 164.345 6.662 164.201 6.458C164.069 6.242 163.877 6.086 163.625 5.99C163.373 5.894 163.079 5.846 162.743 5.846C162.239 5.846 161.843 5.954 161.555 6.17C161.267 6.374 161.123 6.656 161.123 7.016C161.123 7.28 161.195 7.496 161.339 7.664C161.495 7.82 161.741 7.946 162.077 8.042C162.413 8.138 162.845 8.222 163.373 8.294C163.949 8.378 164.447 8.486 164.867 8.618C165.299 8.75 165.659 8.93 165.947 9.158C166.235 9.374 166.451 9.65 166.595 9.986C166.751 10.31 166.829 10.706 166.829 11.174C166.829 12.134 166.451 12.878 165.695 13.406C164.951 13.922 163.961 14.18 162.725 14.18Z" fill="#16191C"/>
<g clip-path="url(#clip0_0_1)">
<path d="M84 162.5C119.07 162.5 147.5 134.07 147.5 99C147.5 63.9299 119.07 35.5 84 35.5C48.9299 35.5 20.5 63.9299 20.5 99C20.5 134.07 48.9299 162.5 84 162.5Z" fill="#C3936B"/>
<path d="M133.701 87.6992H34.3008V113.399H133.701V87.6992Z" fill="#FF7500"/>
<path d="M133.699 115.4H34.2992C33.0992 115.4 32.1992 114.4 32.1992 113.3V87.6996C32.1992 86.4996 33.1992 85.5996 34.2992 85.5996H133.699C134.899 85.5996 135.799 86.5996 135.799 87.6996V113.4C135.799 114.5 134.899 115.4 133.699 115.4ZM36.3992 111.2H131.499V89.7996H36.3992V111.2Z" fill="#423931"/>
<path d="M76.9992 145.001H34.2992C33.0992 145.001 32.1992 144.001 32.1992 142.901C32.1992 141.701 33.1992 140.801 34.2992 140.801H76.9992C78.1992 140.801 79.0992 141.801 79.0992 142.901C79.1992 144.001 78.1992 145.001 76.9992 145.001Z" fill="#423931"/>
<path d="M133.698 145.001H90.9984C89.7984 145.001 88.8984 144.001 88.8984 142.901C88.8984 141.701 89.8984 140.801 90.9984 140.801H133.698C134.898 140.801 135.798 141.801 135.798 142.901C135.798 144.001 134.898 145.001 133.698 145.001Z" fill="#423931"/>
<path d="M124.501 102.6H119.901C118.701 102.6 117.801 101.6 117.801 100.5C117.801 99.4004 118.801 98.4004 119.901 98.4004H124.501C125.701 98.4004 126.601 99.4004 126.601 100.5C126.601 101.6 125.601 102.6 124.501 102.6Z" fill="#423931"/>
<path d="M109.302 102.6H104.702C103.502 102.6 102.602 101.6 102.602 100.5C102.602 99.4004 103.602 98.4004 104.702 98.4004H109.302C110.502 98.4004 111.402 99.4004 111.402 100.5C111.402 101.6 110.402 102.6 109.302 102.6Z" fill="#423931"/>
<path d="M94.0984 102.6H89.4984C88.2984 102.6 87.3984 101.6 87.3984 100.5C87.3984 99.4004 88.3984 98.4004 89.4984 98.4004H94.0984C95.2984 98.4004 96.1984 99.4004 96.1984 100.5C96.1984 101.6 95.2984 102.6 94.0984 102.6Z" fill="#423931"/>
<path d="M133.701 49.2988H34.3008V74.9988H133.701V49.2988Z" fill="white"/>
<path d="M133.699 77.0992H34.2992C33.0992 77.0992 32.1992 76.0992 32.1992 74.9992V49.2992C32.1992 48.0992 33.1992 47.1992 34.2992 47.1992H133.699C134.899 47.1992 135.799 48.1992 135.799 49.2992V74.9992C135.799 76.0992 134.899 77.0992 133.699 77.0992ZM36.3992 72.7992H131.499V51.3992H36.3992V72.7992Z" fill="#423931"/>
<path d="M124.501 64.2996H119.901C118.701 64.2996 117.801 63.2996 117.801 62.1996C117.801 60.9996 118.801 60.0996 119.901 60.0996H124.501C125.701 60.0996 126.601 61.0996 126.601 62.1996C126.601 63.2996 125.601 64.2996 124.501 64.2996Z" fill="#423931"/>
<path d="M109.302 64.2996H104.702C103.502 64.2996 102.602 63.2996 102.602 62.1996C102.602 60.9996 103.602 60.0996 104.702 60.0996H109.302C110.502 60.0996 111.402 61.0996 111.402 62.1996C111.402 63.2996 110.402 64.2996 109.302 64.2996Z" fill="#423931"/>
<path d="M94.0984 64.2996H89.4984C88.2984 64.2996 87.3984 63.2996 87.3984 62.1996C87.3984 60.9996 88.3984 60.0996 89.4984 60.0996H94.0984C95.2984 60.0996 96.1984 61.0996 96.1984 62.1996C96.1984 63.2996 95.2984 64.2996 94.0984 64.2996Z" fill="#423931"/>
<path d="M83.9984 139.099C82.7984 139.099 81.8984 138.099 81.8984 136.999V113.299C81.8984 112.099 82.8984 111.199 83.9984 111.199C85.1984 111.199 86.0984 112.199 86.0984 113.299V136.999C86.0984 138.199 85.1984 139.099 83.9984 139.099Z" fill="#423931"/>
<path d="M82.7984 151.398C78.1984 151.398 74.3984 147.598 74.3984 142.998V142.798C74.3984 138.198 78.1984 134.398 82.7984 134.398H85.0984C89.6984 134.398 93.4984 138.198 93.4984 142.798V142.998C93.4984 147.598 89.6984 151.398 85.0984 151.398H82.7984Z" fill="#E8E8E8"/>
<path d="M85.1984 136.499C88.6984 136.499 91.4984 139.299 91.4984 142.799V142.999C91.4984 146.499 88.6984 149.299 85.1984 149.299H82.8984C79.3984 149.299 76.5984 146.499 76.5984 142.999V142.799C76.5984 139.299 79.3984 136.499 82.8984 136.499H85.1984ZM85.1984 132.199H82.8984C77.0984 132.199 72.3984 136.899 72.3984 142.699V142.899C72.3984 148.699 77.0984 153.399 82.8984 153.399H85.1984C90.9984 153.399 95.6984 148.699 95.6984 142.899V142.699C95.6984 136.999 90.9984 132.199 85.1984 132.199Z" fill="#423931"/>
</g>
<defs>
<clipPath id="clip0_0_1">
<rect width="128" height="128" fill="white" transform="translate(20 35)"/>
</clipPath>
</defs>
</svg>
