<svg width="1920" height="922" viewBox="0 0 1920 922" fill="none" xmlns="http://www.w3.org/2000/svg">
<g opacity="0.3">
<path d="M-122.342 2.84281C-127.806 191.498 -64.0469 381.415 54.413 529.315C88.1161 571.392 127.823 611.328 178.492 630.473C324.902 685.784 484.519 574.082 609.715 511.322C760.799 435.592 910.264 356.056 1067.28 292.716C1155.42 257.155 1258.72 227.521 1342.47 272.368C1427.27 317.785 1457.9 420.336 1491.61 509.776C1530.88 613.996 1585.78 714.72 1667.74 790.8C1749.71 866.88 1861.55 916.063 1973.42 906.083C2061.03 898.266 2141.53 855.873 2215.22 808.324C2408.83 683.382 2574.48 516.235 2696.99 322.204" stroke="#83848C" stroke-opacity="0.2" stroke-width="0.692997" stroke-miterlimit="10"/>
<path d="M-127.277 10.9082C-132.11 177.643 -75.9949 341.998 26.368 483.998C35.874 497.186 45.6697 510.164 55.9082 522.801C89.5695 564.311 128.94 603.742 178.885 623.015C323.331 678.816 480.427 573.066 605.406 512.639C716.208 459.066 826.295 402.366 940.146 351.315C979.645 333.529 1019.47 316.433 1059.78 300.36C1147.21 265.5 1249.28 236.267 1332.44 279.084C1416.64 322.443 1448.4 421.07 1483.15 507.053C1523.65 607.24 1579.28 704.106 1661.14 777.31C1689.64 802.797 1721.66 825.15 1755.97 843.059C1820.16 876.586 1892.41 894.575 1964.65 888.413C2051.43 881.011 2131.32 840.386 2204.5 795.061C2352.65 703.365 2484.21 588.54 2593.42 455.456C2626 415.746 2656.59 374.42 2685.02 331.586" stroke="#83848C" stroke-opacity="0.2" stroke-width="0.692997" stroke-miterlimit="10"/>
<path d="M-132.209 18.9659C-136.882 180.143 -77.4377 335.516 27.8994 478.072C37.463 491.008 47.202 503.821 57.4065 516.271C91.0337 557.207 130.06 596.141 179.289 615.548C321.778 671.849 476.331 572.042 601.1 513.942C710.702 462.906 819.806 407.744 933.575 357.815C972.78 340.462 1012.3 323.741 1052.28 307.989C1139 273.823 1239.86 244.997 1322.41 285.786C1406 327.093 1438.91 421.796 1474.69 504.315C1516.41 600.468 1572.78 693.477 1654.53 763.799C1683 788.28 1714.87 809.759 1748.97 826.963C1812.73 859.187 1884.31 876.538 1955.87 870.72C2041.82 863.727 2121.09 824.876 2193.77 781.782C2340.96 694.624 2471.55 586.228 2580.94 459.364C2613.58 421.509 2644.33 382.025 2673.03 340.952" stroke="#83848C" stroke-opacity="0.2" stroke-width="0.692997" stroke-miterlimit="10"/>
<path d="M-137.146 27.0304C-141.652 182.65 -78.9222 329.04 29.4267 472.153C39.0399 484.852 48.7222 497.493 58.8928 509.748C92.4783 550.118 131.176 588.538 179.673 608.081C320.197 664.872 472.193 571.01 596.781 515.251C705.163 466.745 813.412 413.39 926.984 364.314C965.939 347.478 1005.12 331.048 1044.78 315.617C1130.79 282.152 1230.42 253.727 1312.37 292.487C1395.35 331.743 1429.39 422.514 1466.22 501.577C1509.16 593.695 1566.26 682.848 1647.9 750.293C1676.35 773.769 1708.07 794.374 1741.94 810.882C1805.28 841.802 1876.19 858.515 1947.07 853.034C2032.2 846.449 2110.85 809.373 2183.02 768.511C2329.26 685.883 2458.87 583.922 2568.45 463.271C2601.15 427.271 2632.05 389.628 2661.02 350.311" stroke="#83848C" stroke-opacity="0.2" stroke-width="0.692997" stroke-miterlimit="10"/>
<path d="M-142.072 35.0889C-146.419 185.15 -80.4341 322.573 30.972 466.228C40.635 478.682 50.2675 491.158 60.4042 503.22C93.9556 543.016 132.31 580.938 180.082 600.616C318.642 657.898 468.066 569.964 592.488 516.555C699.633 470.564 806.971 418.852 920.426 370.815C959.101 354.435 997.958 338.356 1037.29 323.247C1122.59 290.475 1221 262.452 1302.35 299.19C1384.73 336.387 1419.9 423.234 1457.77 498.84C1501.95 586.925 1559.78 672.227 1641.32 736.79C1669.73 759.267 1701.3 778.991 1734.96 794.803C1797.87 824.412 1868.11 840.486 1938.32 835.357C2022.62 829.188 2100.65 793.88 2172.32 755.248C2317.6 677.158 2446.23 581.626 2556.01 467.195C2588.77 433.049 2619.83 397.249 2649.07 359.693" stroke="#83848C" stroke-opacity="0.2" stroke-width="0.692997" stroke-miterlimit="10"/>
<path d="M-147.001 43.152C-151.189 187.655 -81.9791 316.117 32.507 460.307C42.2122 472.524 51.8031 484.821 61.8983 496.696C95.4079 535.925 133.434 573.342 180.481 593.148C317.078 650.92 463.906 568.907 588.186 517.855C694.08 474.357 800.506 424.302 913.851 377.306C952.246 361.382 990.788 345.654 1029.79 330.866C1114.38 298.795 1211.57 271.173 1292.32 305.882C1374.09 341.027 1410.39 423.944 1449.32 496.093C1494.71 580.151 1553.27 661.589 1634.71 723.268C1663.09 744.74 1694.52 763.591 1727.96 778.705C1790.43 807.011 1860.02 822.447 1929.54 817.655C2013.01 811.894 2090.42 778.354 2161.59 741.953C2305.91 668.393 2433.57 579.297 2543.54 471.078C2576.35 438.788 2607.57 404.829 2637.09 369.036" stroke="#83848C" stroke-opacity="0.2" stroke-width="0.692997" stroke-miterlimit="10"/>
<path d="M-151.94 51.2162C-155.969 190.161 -83.5799 309.683 34.0315 454.395C43.7713 466.375 53.3204 478.499 63.3893 490.18C96.8573 528.835 134.547 565.755 180.87 585.695C315.509 643.959 459.713 567.858 583.872 519.179C688.493 478.157 794.037 429.776 907.272 383.827C945.388 368.359 983.615 352.983 1022.29 338.524C1106.16 307.146 1202.13 279.932 1282.29 312.612C1363.45 345.706 1400.89 424.691 1440.85 493.384C1487.48 573.408 1546.77 650.989 1628.1 709.793C1656.45 730.259 1687.73 748.235 1720.96 762.646C1783.01 789.648 1851.92 804.446 1920.76 799.998C2003.41 794.646 2080.21 762.88 2150.86 728.711C2294.22 659.689 2420.92 577.021 2531.07 475.022C2563.95 444.587 2595.31 412.469 2625.1 378.438" stroke="#83848C" stroke-opacity="0.2" stroke-width="0.692997" stroke-miterlimit="10"/>
<path d="M-156.872 59.2733C-160.733 192.66 -85.203 303.249 35.5715 448.469C45.3458 460.218 54.8608 472.163 64.8883 483.65C98.3221 521.738 135.675 558.153 181.274 578.22C313.949 636.983 455.521 566.765 579.567 520.473C682.9 481.913 787.562 435.212 900.702 390.312C938.538 375.293 976.45 360.282 1014.8 346.137C1097.96 315.461 1192.7 288.647 1272.26 319.299C1352.82 350.333 1391.39 425.402 1432.39 490.63C1480.24 566.621 1540.26 640.344 1621.49 696.265C1649.8 715.733 1680.94 732.828 1713.95 746.542C1775.56 772.241 1843.82 786.393 1911.98 782.289C1993.8 777.354 2069.98 747.355 2140.14 715.417C2282.54 650.925 2408.26 574.693 2518.61 478.907C2551.54 450.326 2583.07 420.051 2613.13 387.782" stroke="#83848C" stroke-opacity="0.2" stroke-width="0.692997" stroke-miterlimit="10"/>
<path d="M-161.807 67.3384C-165.509 195.167 -86.876 296.845 37.0997 442.55C46.901 454.069 56.382 465.828 66.383 477.127C99.7751 514.642 136.792 550.551 181.667 570.754C312.377 630.007 451.288 565.672 575.257 521.783C677.28 485.662 781.091 440.665 894.119 396.819C931.669 382.256 969.274 367.597 1007.3 353.773C1089.74 323.79 1183.27 297.385 1262.23 326C1342.18 354.984 1381.89 426.121 1423.94 487.893C1473.01 559.85 1533.77 629.716 1614.89 682.761C1643.16 701.223 1674.16 717.444 1706.95 730.462C1768.13 754.849 1835.72 768.371 1903.21 764.604C1984.2 760.077 2059.76 731.853 2129.42 702.139C2270.86 642.185 2395.61 572.381 2506.14 482.815C2539.14 456.089 2570.82 427.663 2601.16 397.142" stroke="#83848C" stroke-opacity="0.2" stroke-width="0.692997" stroke-miterlimit="10"/>
<path d="M-166.735 75.4045C-170.278 197.675 -88.5716 290.464 38.6358 436.633C48.464 447.922 57.9181 459.501 67.8778 470.606C101.236 507.554 137.916 542.958 182.059 563.296C310.813 623.04 447.047 564.564 570.948 523.094C671.646 489.39 774.612 446.103 887.545 403.32C924.815 389.198 962.104 374.906 999.799 361.403C1081.53 332.121 1173.84 306.117 1252.2 332.703C1331.54 359.635 1372.39 426.841 1415.48 485.156C1465.78 553.079 1527.27 619.088 1608.28 669.25C1636.52 686.706 1667.38 702.054 1699.95 714.375C1760.71 737.459 1827.63 750.335 1894.43 746.92C1974.59 742.808 2049.54 716.352 2118.69 688.869C2259.17 633.445 2382.94 570.077 2493.67 486.723C2526.72 461.852 2558.56 435.268 2589.16 406.509" stroke="#83848C" stroke-opacity="0.2" stroke-width="0.692997" stroke-miterlimit="10"/>
<path d="M-171.669 83.4592C-175.053 200.172 -90.3113 284.085 40.1729 430.712C50.0205 441.777 59.4481 453.17 69.3812 464.089C102.698 500.463 139.042 535.369 182.468 555.834C309.258 616.069 442.793 563.438 566.654 524.409C666.014 493.098 768.141 451.545 880.986 409.832C917.97 396.159 954.951 382.226 992.317 369.044C1073.34 340.456 1164.42 314.86 1242.19 339.417C1320.92 364.297 1362.9 427.572 1407.04 482.43C1458.55 546.32 1520.78 608.471 1601.69 655.758C1629.9 672.216 1660.62 686.69 1692.97 698.307C1753.29 720.087 1819.55 732.325 1885.67 729.247C1965.02 725.544 2039.33 700.862 2107.98 675.61C2247.51 624.724 2370.31 567.793 2481.23 490.651C2514.33 467.635 2546.33 442.893 2577.21 415.896" stroke="#83848C" stroke-opacity="0.2" stroke-width="0.692997" stroke-miterlimit="10"/>
<path d="M-176.599 91.5256C-179.823 202.68 -92.0847 277.747 41.7072 424.795C51.5741 435.637 60.9829 446.836 70.8745 457.568C104.157 493.375 140.165 527.776 182.859 548.377C307.685 609.102 438.507 562.285 562.343 525.72C660.341 496.78 761.653 456.983 874.402 416.333C911.1 403.101 947.773 389.534 984.809 376.673C1065.12 348.786 1154.98 323.584 1232.15 346.119C1310.27 368.941 1353.38 428.299 1398.56 479.686C1451.31 539.549 1514.26 597.836 1595.06 642.246C1623.24 657.699 1653.81 671.299 1685.95 682.212C1745.84 702.688 1811.43 714.289 1876.87 711.555C1955.4 708.26 2029.1 685.354 2097.24 662.325C2235.8 615.97 2357.63 565.474 2468.74 494.552C2501.91 473.391 2534.06 450.49 2565.21 425.255" stroke="#83848C" stroke-opacity="0.2" stroke-width="0.692997" stroke-miterlimit="10"/>
<path d="M-181.527 99.5817C-184.584 205.178 -93.8945 271.427 43.2432 418.867C53.1219 429.487 62.4963 440.521 72.377 451.036C105.549 486.336 141.29 520.166 183.26 540.901C306.12 602.125 434.215 561.1 558.034 527.013C654.664 500.414 755.167 462.388 867.828 422.824C904.238 410.033 940.597 396.84 977.318 384.3C1056.91 357.107 1145.55 332.313 1222.12 352.819C1299.64 373.589 1343.88 429.016 1390.11 476.946C1444.08 532.775 1507.76 587.205 1588.46 628.733C1616.6 643.18 1647.03 655.906 1678.95 666.123C1738.41 685.288 1803.34 696.25 1868.09 693.86C1945.79 690.981 2018.87 669.842 2086.51 649.045C2224.12 607.227 2344.97 563.16 2456.27 498.451C2489.49 479.144 2521.8 458.086 2553.22 434.605" stroke="#83848C" stroke-opacity="0.2" stroke-width="0.692997" stroke-miterlimit="10"/>
<path d="M-186.465 107.646C-189.363 207.685 -95.7531 265.146 44.7761 412.948C54.6665 423.352 64.0223 434.185 73.869 444.514C106.999 479.247 142.411 512.572 183.657 533.442C304.561 595.157 429.898 559.893 553.728 528.33C648.968 504.05 748.685 467.818 861.25 429.331C897.366 416.982 933.424 404.154 969.816 391.936C1048.7 365.444 1136.12 341.051 1212.09 359.528C1289 378.247 1334.38 429.742 1381.65 474.216C1436.84 526.011 1501.26 576.584 1581.85 615.235C1609.97 628.684 1640.24 640.529 1671.96 650.049C1730.98 667.911 1795.25 678.235 1859.33 676.189C1936.19 673.719 2008.65 654.355 2075.79 635.789C2212.44 598.501 2332.32 560.87 2443.82 502.381C2477.1 484.929 2509.56 465.712 2541.26 443.994" stroke="#83848C" stroke-opacity="0.2" stroke-width="0.692997" stroke-miterlimit="10"/>
<path d="M-191.393 115.713C-194.131 210.193 -97.6391 258.895 46.3123 407.031C56.2143 417.219 65.5592 427.858 75.372 437.993C108.46 472.159 143.536 504.979 184.057 525.976C302.997 588.182 425.57 558.657 549.427 529.634C643.269 507.642 742.192 473.226 854.683 435.832C890.513 423.924 926.263 411.463 962.326 399.566C1040.5 373.767 1126.69 349.783 1202.07 366.231C1278.37 382.891 1324.89 430.462 1373.2 471.479C1429.62 519.24 1494.77 565.956 1575.26 601.725C1603.34 614.168 1633.47 625.139 1664.97 633.963C1723.56 650.52 1787.16 660.206 1850.56 658.498C1926.6 656.436 1998.45 638.847 2065.09 622.504C2200.77 589.755 2319.68 558.551 2431.37 506.275C2464.7 490.678 2497.33 473.303 2529.29 453.347" stroke="#83848C" stroke-opacity="0.2" stroke-width="0.692997" stroke-miterlimit="10"/>
<path d="M-196.332 123.769C-198.911 212.691 -99.5747 252.67 47.8369 401.111C57.7431 411.083 67.076 421.529 76.855 431.469C109.901 465.069 144.649 497.383 184.446 518.516C301.421 581.213 421.208 557.389 545.113 530.95C637.543 511.224 735.695 478.639 848.105 442.338C883.648 430.864 919.09 418.776 954.823 407.201C1032.28 382.103 1117.25 358.519 1192.03 372.939C1267.73 387.547 1315.38 431.194 1364.73 468.747C1422.38 512.475 1488.27 555.333 1568.64 588.226C1596.69 599.664 1626.67 609.761 1657.96 617.881C1716.12 633.135 1779.06 642.175 1841.77 640.811C1916.98 639.165 1988.21 623.343 2054.35 609.232C2189.07 581.012 2307.01 556.245 2418.88 510.189C2452.28 496.454 2485.06 480.921 2517.3 462.72" stroke="#83848C" stroke-opacity="0.2" stroke-width="0.692997" stroke-miterlimit="10"/>
<path d="M-201.263 131.835C-203.676 215.199 -101.541 246.492 49.3772 395.193C59.2874 404.958 68.617 415.202 78.3621 424.948C111.374 457.974 145.825 489.709 184.851 511.05C299.994 574.01 416.856 556.078 540.816 532.253C631.827 514.756 729.206 484.033 841.534 448.839C876.784 437.798 911.925 426.085 947.329 414.831C1024.08 390.426 1107.82 367.251 1182.01 379.641C1257.11 392.198 1305.88 431.914 1356.27 466.01C1415.14 505.704 1481.76 544.705 1562.03 574.715C1590.05 585.154 1619.89 594.37 1650.96 601.794C1708.69 615.737 1770.96 624.146 1833 623.126C1907.39 621.889 1978 607.842 2043.62 595.962C2177.39 572.28 2294.35 553.941 2406.42 514.097C2439.88 502.218 2472.82 488.526 2505.33 472.08" stroke="#83848C" stroke-opacity="0.2" stroke-width="0.692997" stroke-miterlimit="10"/>
<path d="M-206.195 139.891C-208.449 217.697 -103.539 240.34 50.9087 389.266C60.8229 398.822 70.1491 408.858 79.8526 418.417C112.823 450.876 146.937 482.106 185.239 503.575C298.418 567.033 412.48 554.728 536.494 533.546C626.073 518.248 722.693 489.408 834.948 455.323C869.903 444.708 904.745 433.376 939.826 422.443C1015.86 398.74 1098.39 375.965 1171.98 386.319C1246.47 396.817 1296.37 432.609 1347.81 463.249C1407.91 498.909 1475.26 534.053 1555.43 561.187C1583.41 570.62 1613.11 578.963 1643.96 585.689C1701.25 598.329 1762.86 606.093 1824.22 605.417C1897.79 604.596 1967.77 592.309 2032.9 582.66C2165.71 563.508 2281.7 551.605 2393.95 517.981C2427.47 507.957 2460.55 496.107 2493.34 481.423" stroke="#83848C" stroke-opacity="0.2" stroke-width="0.692997" stroke-miterlimit="10"/>
<path d="M-211.13 147.955C-213.224 220.211 -105.585 234.233 52.4456 383.347C62.3562 392.694 71.6787 402.529 81.356 411.894C114.292 443.779 148.07 474.512 185.648 496.116C296.87 560.064 408.111 553.341 532.201 534.863C620.339 521.733 716.209 494.8 828.382 461.837C863.043 451.648 897.584 440.705 932.336 430.086C1007.66 407.076 1088.96 384.703 1161.95 393.035C1235.84 401.481 1286.88 433.342 1339.36 460.525C1400.68 492.159 1468.76 523.445 1548.83 547.696C1576.78 556.124 1606.33 563.593 1636.97 569.623C1693.84 580.959 1754.78 588.085 1815.46 587.753C1888.19 587.341 1957.56 576.828 2022.18 569.411C2154.03 554.797 2269.06 549.33 2381.5 521.911C2415.07 513.741 2448.31 503.733 2481.37 490.811" stroke="#83848C" stroke-opacity="0.2" stroke-width="0.692997" stroke-miterlimit="10"/>
<path d="M-216.067 156.02C-218.002 222.717 -107.664 228.178 53.9724 377.435C63.8794 386.582 73.2058 396.201 82.8415 405.379C115.736 436.697 149.178 466.925 186.031 488.656C295.289 553.103 403.709 551.916 527.882 536.172C614.581 525.181 709.692 500.169 821.798 468.336C856.165 458.573 890.405 448.012 924.828 437.722C999.436 415.413 1079.52 393.44 1151.92 399.743C1225.19 406.138 1277.37 434.075 1330.9 457.794C1393.44 485.394 1462.25 512.823 1542.21 534.191C1570.13 541.621 1599.53 548.208 1629.95 553.535C1686.39 563.567 1746.67 570.054 1806.66 570.06C1878.57 570.056 1947.32 561.318 2011.44 556.131C2142.33 546.048 2256.38 547.017 2369.02 525.818C2402.64 519.503 2436.05 511.337 2469.38 500.177" stroke="#83848C" stroke-opacity="0.2" stroke-width="0.692997" stroke-miterlimit="10"/>
<path d="M-220.991 164.077C-222.759 225.216 -109.777 222.159 55.512 371.509C65.4153 380.454 74.7461 389.865 84.3479 398.849C117.208 429.594 150.314 459.323 186.435 481.189C293.736 546.135 399.321 550.432 523.584 537.482C608.836 528.599 703.195 505.538 815.234 474.843C849.308 465.507 883.24 455.326 917.341 445.357C991.236 423.742 1070.1 402.178 1141.89 406.452C1214.56 410.788 1267.87 434.801 1322.44 455.063C1386.22 478.629 1455.76 502.202 1535.61 520.694C1563.49 527.118 1592.75 532.831 1622.96 537.461C1678.96 546.182 1738.58 552.032 1797.89 552.389C1868.97 552.801 1937.11 545.83 2000.72 542.868C2130.65 537.322 2243.73 544.719 2356.56 529.74C2390.24 525.28 2423.8 518.956 2457.4 509.558" stroke="#83848C" stroke-opacity="0.2" stroke-width="0.692997" stroke-miterlimit="10"/>
<path d="M-225.921 172.143C-227.53 227.724 -111.926 216.193 57.0531 365.592C66.9451 374.343 76.2797 383.538 85.8477 392.327C118.674 422.498 151.39 451.796 186.841 473.724C292.045 539.373 394.936 548.897 519.287 538.785C603.094 531.974 696.693 510.894 808.665 481.337C842.445 472.419 876.076 462.627 909.848 452.979C983.03 432.065 1060.67 410.902 1131.87 413.147C1203.93 415.431 1258.37 435.513 1313.98 452.319C1378.98 471.851 1449.26 491.566 1529 507.175C1556.85 512.593 1585.97 517.433 1615.96 521.366C1671.53 528.784 1730.48 533.995 1789.12 534.689C1859.38 535.51 1926.89 530.314 1990 529.583C2118.98 528.567 2231.08 542.4 2344.1 533.634C2377.84 531.028 2411.55 526.554 2445.43 518.903" stroke="#83848C" stroke-opacity="0.2" stroke-width="0.692997" stroke-miterlimit="10"/>
<path d="M-230.859 180.2C-232.308 230.223 -114.122 210.269 58.5793 359.665C68.4677 368.215 77.8064 377.194 87.3404 385.797C120.133 415.394 152.512 444.194 187.231 466.256C290.471 532.404 390.537 547.309 514.968 540.087C597.329 535.31 690.168 516.233 802.08 487.836C835.567 479.337 868.897 469.934 902.347 460.607C974.817 440.387 1051.24 419.632 1121.83 419.848C1193.29 420.081 1248.87 436.231 1305.52 449.58C1371.74 465.078 1442.76 480.936 1522.4 493.67C1550.22 498.09 1579.18 502.056 1608.96 505.285C1664.1 511.399 1722.39 515.972 1780.34 517.003C1849.77 518.232 1916.66 514.811 1979.27 516.311C2107.29 519.833 2218.42 540.095 2331.63 537.548C2365.43 536.798 2399.3 534.165 2433.45 528.276" stroke="#83848C" stroke-opacity="0.2" stroke-width="0.692997" stroke-miterlimit="10"/>
<path d="M-235.788 188.264C-237.078 232.729 -116.34 204.412 60.1144 353.753C69.9915 362.11 79.342 370.873 88.8346 379.281C121.593 408.304 153.628 436.606 187.63 458.797C288.906 525.435 386.156 545.668 510.665 541.403C591.59 538.632 683.66 521.587 795.513 494.343C828.705 486.262 861.735 477.255 894.855 468.243C966.612 448.723 1041.81 428.369 1111.81 426.556C1182.66 424.73 1239.37 436.964 1297.07 446.849C1364.52 458.313 1436.26 470.314 1515.79 480.164C1543.58 483.579 1572.4 486.671 1601.96 489.196C1656.68 494.007 1714.29 497.934 1771.56 499.317C1840.17 500.961 1906.44 499.308 1968.55 503.039C2095.61 511.092 2205.76 537.789 2319.16 541.455C2353.02 542.56 2387.05 541.769 2421.47 537.642" stroke="#83848C" stroke-opacity="0.2" stroke-width="0.692997" stroke-miterlimit="10"/>
<path d="M-240.724 196.328C-241.854 235.234 -118.611 198.605 61.6496 347.833C71.5152 356.003 80.8929 364.521 90.3362 372.758C123.114 401.148 154.759 429.011 188.03 451.328C287.349 518.458 381.775 543.96 506.362 542.704C585.85 541.908 677.152 526.902 788.937 500.841C821.829 493.171 854.565 484.561 887.356 475.87C958.401 457.044 1032.38 437.098 1101.78 433.256C1172.02 429.379 1229.87 437.681 1288.62 444.109C1357.28 451.547 1429.76 459.684 1509.19 466.658C1536.95 469.067 1565.62 471.285 1594.96 473.114C1649.24 476.613 1706.19 479.91 1762.79 481.63C1830.57 483.683 1896.23 483.804 1957.83 489.759C2083.93 502.35 2193.11 535.475 2306.7 545.361C2340.62 548.32 2374.8 549.371 2409.49 547.007" stroke="#83848C" stroke-opacity="0.2" stroke-width="0.692997" stroke-miterlimit="10"/>
<path d="M-245.657 204.387C-246.62 237.736 -120.91 192.853 63.1809 341.909C73.0351 349.885 82.4169 358.18 91.8261 366.237C124.562 394.054 155.871 421.411 188.417 443.871C285.772 511.492 377.407 542.196 502.048 544.023C580.115 545.165 670.633 532.237 782.358 507.35C814.955 500.092 847.391 491.878 879.852 483.515C950.184 465.39 1022.93 445.838 1091.75 439.975C1161.38 434.046 1220.36 438.416 1280.15 441.388C1350.05 444.793 1423.25 449.072 1502.58 453.17C1530.3 454.581 1558.83 455.918 1587.95 457.05C1641.81 459.246 1698.1 461.897 1754.02 463.969C1820.97 466.43 1886.01 468.327 1947.1 476.513C2072.24 493.633 2180.45 533.195 2294.24 549.293C2328.21 554.107 2362.55 557 2397.51 556.391" stroke="#83848C" stroke-opacity="0.2" stroke-width="0.692997" stroke-miterlimit="10"/>
<path d="M-250.593 212.451C-251.397 240.242 -123.244 187.165 64.7086 335.989C74.5514 343.779 83.9453 351.851 93.3206 359.714C126.023 386.964 156.995 413.816 188.817 436.404C284.207 504.515 373.067 540.363 497.745 545.325C574.408 548.375 664.126 537.538 775.783 513.849C808.087 506.995 840.221 499.184 872.361 491.143C941.98 473.712 1013.51 454.568 1081.72 446.668C1150.75 438.687 1210.87 439.127 1271.69 438.642C1342.81 438.012 1416.75 438.434 1495.97 439.65C1523.67 440.055 1552.05 440.518 1580.96 440.954C1634.38 441.846 1690 443.859 1745.24 446.267C1811.36 449.145 1875.79 452.809 1936.37 463.226C2060.55 484.884 2167.79 530.881 2281.76 553.193C2315.79 559.861 2350.3 564.596 2385.53 565.749" stroke="#83848C" stroke-opacity="0.2" stroke-width="0.692997" stroke-miterlimit="10"/>
<path d="M-255.52 220.507C-256.165 242.739 -125.616 181.534 66.2523 330.062C76.0761 337.665 85.4895 345.514 94.8233 353.183C127.484 379.859 158.12 406.213 189.218 428.936C282.644 497.545 368.752 538.462 493.436 546.625C568.709 551.555 657.605 542.831 769.208 520.34C801.212 513.889 833.053 506.482 864.862 498.763C933.769 482.032 1004.08 463.289 1071.69 453.36C1140.11 443.321 1201.37 439.844 1263.24 435.895C1335.58 431.231 1410.26 427.796 1489.37 426.136C1517.03 425.536 1545.27 425.125 1573.97 424.865C1626.96 424.453 1681.92 425.828 1736.47 428.58C1801.78 431.866 1865.57 437.305 1925.66 449.946C2048.88 476.134 2155.14 528.568 2269.31 557.099C2303.4 565.622 2338.05 572.199 2373.56 575.114" stroke="#83848C" stroke-opacity="0.2" stroke-width="0.692997" stroke-miterlimit="10"/>
<path d="M-260.456 228.573C-260.942 245.247 -128.02 175.98 67.7802 324.152C77.5925 331.576 87.01 339.187 96.3174 346.669C128.944 372.778 159.244 398.627 189.609 421.478C281.079 490.578 364.459 536.505 489.126 547.944C563.025 554.723 651.083 548.127 762.633 526.855C794.343 520.809 825.875 513.813 857.363 506.407C925.557 490.37 994.645 472.035 1061.66 460.078C1129.47 447.987 1191.86 440.578 1254.77 433.173C1328.34 424.476 1403.75 417.183 1482.75 412.64C1510.37 411.041 1538.47 409.749 1566.95 408.785C1619.51 407.062 1673.81 407.799 1727.68 410.895C1792.16 414.598 1855.34 421.803 1914.93 436.676C2037.19 467.395 2142.48 526.264 2256.84 561.008C2290.99 571.386 2325.8 579.812 2361.58 584.481" stroke="#83848C" stroke-opacity="0.2" stroke-width="0.692997" stroke-miterlimit="10"/>
<path d="M-265.385 236.638C-265.704 247.754 -130.455 170.492 69.3152 318.233C79.1083 325.479 88.5454 332.859 97.8114 340.146C130.396 365.682 160.36 391.026 190.009 414.018C279.514 483.61 360.205 534.48 484.823 549.253C557.371 557.853 644.576 553.4 756.058 533.355C787.466 527.705 818.705 521.12 849.864 514.035C917.345 498.7 985.208 480.766 1051.63 466.779C1118.83 452.636 1182.35 441.297 1246.31 430.435C1321.11 417.703 1397.24 406.554 1476.15 399.135C1503.74 396.531 1531.69 394.365 1559.95 392.704C1612.09 389.677 1665.71 389.776 1718.9 393.21C1782.55 397.32 1845.12 406.301 1904.2 423.404C2025.5 458.661 2129.82 523.959 2244.37 564.922C2278.58 577.156 2313.54 587.423 2349.59 593.848" stroke="#83848C" stroke-opacity="0.2" stroke-width="0.692997" stroke-miterlimit="10"/>
<path d="M-270.318 244.696C-270.477 250.254 -132.933 165.07 70.8541 312.307C80.6356 319.374 90.0776 326.516 99.3171 333.617C131.86 358.586 161.496 383.425 190.412 406.545C277.953 476.627 356.002 532.375 480.524 550.556C551.752 560.954 638.046 558.523 749.493 539.855C780.602 534.564 811.547 528.428 842.375 521.664C909.145 507.022 975.789 489.496 1041.61 473.481C1108.2 457.279 1172.86 442.016 1237.87 427.697C1313.89 410.932 1390.75 395.925 1469.55 385.623C1497.11 382.013 1524.92 378.974 1552.96 376.616C1604.66 372.286 1657.63 371.747 1710.14 375.524C1772.96 380.044 1834.91 390.792 1893.49 410.126C2013.83 449.913 2117.17 521.647 2231.91 568.823C2266.18 582.911 2301.3 595.02 2337.62 603.207" stroke="#83848C" stroke-opacity="0.2" stroke-width="0.692997" stroke-miterlimit="10"/>
<path d="M-275.254 252.76C-275.254 252.76 -135.447 159.72 72.3815 306.388C280.21 453.055 349.739 608.332 742.91 546.354C1014.6 503.522 1272.3 390.621 1545.95 360.535C1658.54 348.157 1776.12 357.263 1882.75 396.854C2002.13 441.179 2104.5 519.341 2219.44 572.737C2253.77 588.68 2289.04 602.631 2325.64 612.58" stroke="#83848C" stroke-opacity="0.2" stroke-width="0.692997" stroke-miterlimit="10"/>
</g>
</svg>
