<svg width="88" height="112" viewBox="0 0 88 112" fill="none" xmlns="http://www.w3.org/2000/svg">
<path fill-rule="evenodd" clip-rule="evenodd" d="M0.992519 19.5566H1.00748C2.66085 19.5566 4 18.2126 4 16.5566C4 14.9006 2.66085 13.5566 1.00748 13.5566H0.992519C-0.659352 13.5566 -2 14.9006 -2 16.5566C-2 18.2126 -0.659352 19.5566 0.992519 19.5566Z" fill="#130D3A"/>
<path fill-rule="evenodd" clip-rule="evenodd" d="M18 19.5566C18.789 19.5566 19.563 19.2371 20.121 18.6776C20.6805 18.1196 21 17.3471 21 16.5566C21 15.7661 20.6805 14.9936 20.121 14.4356C19.563 13.8761 18.789 13.5566 18 13.5566C17.2095 13.5566 16.437 13.8761 15.8775 14.4356C15.3195 14.9936 15 15.7661 15 16.5566C15 17.3471 15.3195 18.1196 15.8775 18.6776C16.437 19.2371 17.2095 19.5566 18 19.5566Z" fill="#130D3A"/>
<path fill-rule="evenodd" clip-rule="evenodd" d="M35 19.5566C35.7905 19.5566 36.563 19.2371 37.1225 18.6776C37.6805 18.1196 38 17.3471 38 16.5566C38 15.7661 37.6805 14.9936 37.1225 14.4356C36.563 13.8761 35.7905 13.5566 35 13.5566C34.211 13.5566 33.437 13.8761 32.879 14.4356C32.3195 14.9936 32 15.7661 32 16.5566C32 17.3471 32.3195 18.1196 32.879 18.6776C33.437 19.2371 34.211 19.5566 35 19.5566Z" fill="#130D3A"/>
<path fill-rule="evenodd" clip-rule="evenodd" d="M67.9925 19.5566H68.0075C69.6608 19.5566 71 18.2126 71 16.5566C71 14.9006 69.6608 13.5566 68.0075 13.5566H67.9925C66.3406 13.5566 65 14.9006 65 16.5566C65 18.2126 66.3406 19.5566 67.9925 19.5566Z" fill="#130D3A"/>
<path fill-rule="evenodd" clip-rule="evenodd" d="M50.9925 19.5566H51.0075C52.6594 19.5566 54 18.2126 54 16.5566C54 14.9006 52.6594 13.5566 51.0075 13.5566H50.9925C49.3406 13.5566 48 14.9006 48 16.5566C48 18.2126 49.3406 19.5566 50.9925 19.5566Z" fill="#130D3A"/>
<mask id="mask0_896_13758" style="mask-type:luminance" maskUnits="userSpaceOnUse" x="81" y="13" width="7" height="7">
<path fill-rule="evenodd" clip-rule="evenodd" d="M81.3008 13.3438H87.7005V19.7438H81.3008V13.3438Z" fill="white"/>
</mask>
<g mask="url(#mask0_896_13758)">
<path fill-rule="evenodd" clip-rule="evenodd" d="M84.5008 19.7438C85.3424 19.7438 86.168 19.4029 86.7632 18.8061C87.36 18.2109 87.7008 17.387 87.7008 16.5438C87.7008 15.7006 87.36 14.8765 86.7632 14.2814C86.168 13.6845 85.3424 13.3438 84.5008 13.3438C83.6576 13.3438 82.8336 13.6845 82.2368 14.2814C81.6416 14.8765 81.3008 15.7006 81.3008 16.5438C81.3008 17.387 81.6416 18.2109 82.2368 18.8061C82.8336 19.4029 83.6576 19.7438 84.5008 19.7438Z" fill="#130D3A"/>
</g>
<path fill-rule="evenodd" clip-rule="evenodd" d="M0.992519 6.55664H1.00748C2.66085 6.55664 4 5.21264 4 3.55664C4 1.90064 2.66085 0.556641 1.00748 0.556641H0.992519C-0.659352 0.556641 -2 1.90064 -2 3.55664C-2 5.21264 -0.659352 6.55664 0.992519 6.55664Z" fill="#130D3A"/>
<path fill-rule="evenodd" clip-rule="evenodd" d="M18 6.55664C18.789 6.55664 19.563 6.23714 20.121 5.67764C20.6805 5.11964 21 4.34564 21 3.55664C21 2.76614 20.6805 1.99364 20.121 1.43414C19.563 0.876141 18.789 0.556641 18 0.556641C17.2095 0.556641 16.437 0.876141 15.8775 1.43414C15.3195 1.99364 15 2.76614 15 3.55664C15 4.34564 15.3195 5.11964 15.8775 5.67764C16.437 6.23714 17.2095 6.55664 18 6.55664Z" fill="#130D3A"/>
<path fill-rule="evenodd" clip-rule="evenodd" d="M35 6.55664C35.7905 6.55664 36.563 6.23714 37.1225 5.67764C37.6805 5.11964 38 4.34564 38 3.55664C38 2.76614 37.6805 1.99364 37.1225 1.43414C36.563 0.876141 35.7905 0.556641 35 0.556641C34.211 0.556641 33.437 0.876141 32.879 1.43414C32.3195 1.99364 32 2.76614 32 3.55664C32 4.34564 32.3195 5.11964 32.879 5.67764C33.437 6.23714 34.211 6.55664 35 6.55664Z" fill="#130D3A"/>
<path fill-rule="evenodd" clip-rule="evenodd" d="M67.9925 6.55664H68.0075C69.6608 6.55664 71 5.21264 71 3.55664C71 1.90064 69.6608 0.556641 68.0075 0.556641H67.9925C66.3406 0.556641 65 1.90064 65 3.55664C65 5.21264 66.3406 6.55664 67.9925 6.55664Z" fill="#130D3A"/>
<path fill-rule="evenodd" clip-rule="evenodd" d="M50.9925 6.55664H51.0075C52.6594 6.55664 54 5.21264 54 3.55664C54 1.90064 52.6594 0.556641 51.0075 0.556641H50.9925C49.3406 0.556641 48 1.90064 48 3.55664C48 5.21264 49.3406 6.55664 50.9925 6.55664Z" fill="#130D3A"/>
<mask id="mask1_896_13758" style="mask-type:luminance" maskUnits="userSpaceOnUse" x="81" y="0" width="7" height="7">
<path fill-rule="evenodd" clip-rule="evenodd" d="M81.3008 0H87.7005V6.4H81.3008V0Z" fill="white"/>
</mask>
<g mask="url(#mask1_896_13758)">
<path fill-rule="evenodd" clip-rule="evenodd" d="M84.5008 6.4C85.3424 6.4 86.168 6.0592 86.7632 5.4624C87.36 4.8672 87.7008 4.0416 87.7008 3.2C87.7008 2.3568 87.36 1.5328 86.7632 0.936C86.168 0.3408 85.3424 0 84.5008 0C83.6576 0 82.8336 0.3408 82.2368 0.936C81.6416 1.5328 81.3008 2.3568 81.3008 3.2C81.3008 4.0416 81.6416 4.8672 82.2368 5.4624C82.8336 6.0592 83.6576 6.4 84.5008 6.4Z" fill="#130D3A"/>
</g>
<path fill-rule="evenodd" clip-rule="evenodd" d="M0.992519 32.5566H1.00748C2.66085 32.5566 4 31.2126 4 29.5566C4 27.9006 2.66085 26.5566 1.00748 26.5566H0.992519C-0.659352 26.5566 -2 27.9006 -2 29.5566C-2 31.2126 -0.659352 32.5566 0.992519 32.5566Z" fill="#130D3A"/>
<path fill-rule="evenodd" clip-rule="evenodd" d="M18 32.5566C18.789 32.5566 19.563 32.2371 20.121 31.6776C20.6805 31.1196 21 30.3471 21 29.5566C21 28.7676 20.6805 27.9936 20.121 27.4356C19.563 26.8761 18.789 26.5566 18 26.5566C17.2095 26.5566 16.437 26.8761 15.8775 27.4356C15.3195 27.9936 15 28.7676 15 29.5566C15 30.3471 15.3195 31.1196 15.8775 31.6776C16.437 32.2371 17.2095 32.5566 18 32.5566Z" fill="#130D3A"/>
<path fill-rule="evenodd" clip-rule="evenodd" d="M35 32.5566C35.7905 32.5566 36.563 32.2371 37.1225 31.6776C37.6805 31.1196 38 30.3471 38 29.5566C38 28.7676 37.6805 27.9936 37.1225 27.4356C36.563 26.8761 35.7905 26.5566 35 26.5566C34.211 26.5566 33.437 26.8761 32.879 27.4356C32.3195 27.9936 32 28.7676 32 29.5566C32 30.3471 32.3195 31.1196 32.879 31.6776C33.437 32.2371 34.211 32.5566 35 32.5566Z" fill="#130D3A"/>
<path fill-rule="evenodd" clip-rule="evenodd" d="M67.9925 32.5566H68.0075C69.6608 32.5566 71 31.2126 71 29.5566C71 27.9006 69.6608 26.5566 68.0075 26.5566H67.9925C66.3406 26.5566 65 27.9006 65 29.5566C65 31.2126 66.3406 32.5566 67.9925 32.5566Z" fill="#130D3A"/>
<path fill-rule="evenodd" clip-rule="evenodd" d="M50.9925 32.5566H51.0075C52.6594 32.5566 54 31.2126 54 29.5566C54 27.9006 52.6594 26.5566 51.0075 26.5566H50.9925C49.3406 26.5566 48 27.9006 48 29.5566C48 31.2126 49.3406 32.5566 50.9925 32.5566Z" fill="#130D3A"/>
<mask id="mask2_896_13758" style="mask-type:luminance" maskUnits="userSpaceOnUse" x="81" y="26" width="7" height="8">
<path fill-rule="evenodd" clip-rule="evenodd" d="M81.3008 26.6895H87.7005V33.0895H81.3008V26.6895Z" fill="white"/>
</mask>
<g mask="url(#mask2_896_13758)">
<path fill-rule="evenodd" clip-rule="evenodd" d="M84.5008 33.0895C85.3424 33.0895 86.168 32.7487 86.7632 32.1519C87.36 31.5567 87.7008 30.7327 87.7008 29.8895C87.7008 29.0479 87.36 28.2223 86.7632 27.6271C86.168 27.0303 85.3424 26.6895 84.5008 26.6895C83.6576 26.6895 82.8336 27.0303 82.2368 27.6271C81.6416 28.2223 81.3008 29.0479 81.3008 29.8895C81.3008 30.7327 81.6416 31.5567 82.2368 32.1519C82.8336 32.7487 83.6576 33.0895 84.5008 33.0895Z" fill="#130D3A"/>
</g>
<path fill-rule="evenodd" clip-rule="evenodd" d="M0.992519 45.5566H1.00748C2.66085 45.5566 4 44.2126 4 42.5566C4 40.9006 2.66085 39.5566 1.00748 39.5566H0.992519C-0.659352 39.5566 -2 40.9006 -2 42.5566C-2 44.2126 -0.659352 45.5566 0.992519 45.5566Z" fill="#130D3A"/>
<path fill-rule="evenodd" clip-rule="evenodd" d="M18 45.5566C18.789 45.5566 19.563 45.2371 20.121 44.6776C20.6805 44.1196 21 43.3471 21 42.5566C21 41.7661 20.6805 40.9936 20.121 40.4356C19.563 39.8761 18.789 39.5566 18 39.5566C17.2095 39.5566 16.437 39.8761 15.8775 40.4356C15.3195 40.9936 15 41.7661 15 42.5566C15 43.3471 15.3195 44.1196 15.8775 44.6776C16.437 45.2371 17.2095 45.5566 18 45.5566Z" fill="#130D3A"/>
<path fill-rule="evenodd" clip-rule="evenodd" d="M35 45.5566C35.7905 45.5566 36.563 45.2371 37.1225 44.6776C37.6805 44.1196 38 43.3471 38 42.5566C38 41.7661 37.6805 40.9936 37.1225 40.4356C36.563 39.8761 35.7905 39.5566 35 39.5566C34.211 39.5566 33.437 39.8761 32.879 40.4356C32.3195 40.9936 32 41.7661 32 42.5566C32 43.3471 32.3195 44.1196 32.879 44.6776C33.437 45.2371 34.211 45.5566 35 45.5566Z" fill="#130D3A"/>
<path fill-rule="evenodd" clip-rule="evenodd" d="M67.9925 45.5566H68.0075C69.6608 45.5566 71 44.2126 71 42.5566C71 40.9006 69.6608 39.5566 68.0075 39.5566H67.9925C66.3406 39.5566 65 40.9006 65 42.5566C65 44.2126 66.3406 45.5566 67.9925 45.5566Z" fill="#130D3A"/>
<path fill-rule="evenodd" clip-rule="evenodd" d="M50.9925 45.5566H51.0075C52.6594 45.5566 54 44.2126 54 42.5566C54 40.9006 52.6594 39.5566 51.0075 39.5566H50.9925C49.3406 39.5566 48 40.9006 48 42.5566C48 44.2126 49.3406 45.5566 50.9925 45.5566Z" fill="#130D3A"/>
<mask id="mask3_896_13758" style="mask-type:luminance" maskUnits="userSpaceOnUse" x="81" y="40" width="7" height="7">
<path fill-rule="evenodd" clip-rule="evenodd" d="M81.3008 40.0332H87.7005V46.4332H81.3008V40.0332Z" fill="white"/>
</mask>
<g mask="url(#mask3_896_13758)">
<path fill-rule="evenodd" clip-rule="evenodd" d="M84.5008 46.4332C85.3424 46.4332 86.168 46.0924 86.7632 45.4956C87.36 44.9004 87.7008 44.0764 87.7008 43.2332C87.7008 42.39 87.36 41.566 86.7632 40.9708C86.168 40.374 85.3424 40.0332 84.5008 40.0332C83.6576 40.0332 82.8336 40.374 82.2368 40.9708C81.6416 41.566 81.3008 42.39 81.3008 43.2332C81.3008 44.0764 81.6416 44.9004 82.2368 45.4956C82.8336 46.0924 83.6576 46.4332 84.5008 46.4332Z" fill="#130D3A"/>
</g>
<path fill-rule="evenodd" clip-rule="evenodd" d="M0.992519 59.5566H1.00748C2.66085 59.5566 4 58.2126 4 56.5566C4 54.9006 2.66085 53.5566 1.00748 53.5566H0.992519C-0.659352 53.5566 -2 54.9006 -2 56.5566C-2 58.2126 -0.659352 59.5566 0.992519 59.5566Z" fill="#130D3A"/>
<path fill-rule="evenodd" clip-rule="evenodd" d="M18 59.5566C18.789 59.5566 19.563 59.2371 20.121 58.6776C20.6805 58.1196 21 57.3471 21 56.5566C21 55.7676 20.6805 54.9936 20.121 54.4356C19.563 53.8761 18.789 53.5566 18 53.5566C17.2095 53.5566 16.437 53.8761 15.8775 54.4356C15.3195 54.9936 15 55.7676 15 56.5566C15 57.3471 15.3195 58.1196 15.8775 58.6776C16.437 59.2371 17.2095 59.5566 18 59.5566Z" fill="#130D3A"/>
<path fill-rule="evenodd" clip-rule="evenodd" d="M35 59.5566C35.7905 59.5566 36.563 59.2371 37.1225 58.6776C37.6805 58.1196 38 57.3471 38 56.5566C38 55.7676 37.6805 54.9936 37.1225 54.4356C36.563 53.8761 35.7905 53.5566 35 53.5566C34.211 53.5566 33.437 53.8761 32.879 54.4356C32.3195 54.9936 32 55.7676 32 56.5566C32 57.3471 32.3195 58.1196 32.879 58.6776C33.437 59.2371 34.211 59.5566 35 59.5566Z" fill="#130D3A"/>
<path fill-rule="evenodd" clip-rule="evenodd" d="M67.9925 59.5566H68.0075C69.6608 59.5566 71 58.2126 71 56.5566C71 54.9006 69.6608 53.5566 68.0075 53.5566H67.9925C66.3406 53.5566 65 54.9006 65 56.5566C65 58.2126 66.3406 59.5566 67.9925 59.5566Z" fill="#130D3A"/>
<path fill-rule="evenodd" clip-rule="evenodd" d="M50.9925 59.5566H51.0075C52.6594 59.5566 54 58.2126 54 56.5566C54 54.9006 52.6594 53.5566 51.0075 53.5566H50.9925C49.3406 53.5566 48 54.9006 48 56.5566C48 58.2126 49.3406 59.5566 50.9925 59.5566Z" fill="#130D3A"/>
<mask id="mask4_896_13758" style="mask-type:luminance" maskUnits="userSpaceOnUse" x="81" y="52" width="7" height="8">
<path fill-rule="evenodd" clip-rule="evenodd" d="M81.3008 52.7773H87.7005V59.1773H81.3008V52.7773Z" fill="white"/>
</mask>
<g mask="url(#mask4_896_13758)">
<path fill-rule="evenodd" clip-rule="evenodd" d="M84.5008 59.1773C85.3424 59.1773 86.168 58.8365 86.7632 58.2397C87.36 57.6445 87.7008 56.8205 87.7008 55.9773C87.7008 55.1357 87.36 54.3101 86.7632 53.7149C86.168 53.1181 85.3424 52.7773 84.5008 52.7773C83.6576 52.7773 82.8336 53.1181 82.2368 53.7149C81.6416 54.3101 81.3008 55.1357 81.3008 55.9773C81.3008 56.8205 81.6416 57.6445 82.2368 58.2397C82.8336 58.8365 83.6576 59.1773 84.5008 59.1773Z" fill="#130D3A"/>
</g>
<path fill-rule="evenodd" clip-rule="evenodd" d="M0.992519 72.5566H1.00748C2.66085 72.5566 4 71.2126 4 69.5566C4 67.9006 2.66085 66.5566 1.00748 66.5566H0.992519C-0.659352 66.5566 -2 67.9006 -2 69.5566C-2 71.2126 -0.659352 72.5566 0.992519 72.5566Z" fill="#130D3A"/>
<path fill-rule="evenodd" clip-rule="evenodd" d="M18 72.5566C18.789 72.5566 19.563 72.2371 20.121 71.6791C20.6805 71.1196 21 70.3471 21 69.5566C21 68.7676 20.6805 67.9936 20.121 67.4356C19.563 66.8761 18.789 66.5566 18 66.5566C17.2095 66.5566 16.437 66.8761 15.8775 67.4356C15.3195 67.9936 15 68.7676 15 69.5566C15 70.3471 15.3195 71.1196 15.8775 71.6791C16.437 72.2371 17.2095 72.5566 18 72.5566Z" fill="#130D3A"/>
<path fill-rule="evenodd" clip-rule="evenodd" d="M35 72.5566C35.7905 72.5566 36.563 72.2371 37.1225 71.6791C37.6805 71.1196 38 70.3471 38 69.5566C38 68.7676 37.6805 67.9936 37.1225 67.4356C36.563 66.8761 35.7905 66.5566 35 66.5566C34.211 66.5566 33.437 66.8761 32.879 67.4356C32.3195 67.9936 32 68.7676 32 69.5566C32 70.3471 32.3195 71.1196 32.879 71.6791C33.437 72.2371 34.211 72.5566 35 72.5566Z" fill="#130D3A"/>
<path fill-rule="evenodd" clip-rule="evenodd" d="M67.9925 72.5566H68.0075C69.6608 72.5566 71 71.2126 71 69.5566C71 67.9006 69.6608 66.5566 68.0075 66.5566H67.9925C66.3406 66.5566 65 67.9006 65 69.5566C65 71.2126 66.3406 72.5566 67.9925 72.5566Z" fill="#130D3A"/>
<path fill-rule="evenodd" clip-rule="evenodd" d="M50.9925 72.5566H51.0075C52.6594 72.5566 54 71.2126 54 69.5566C54 67.9006 52.6594 66.5566 51.0075 66.5566H50.9925C49.3406 66.5566 48 67.9006 48 69.5566C48 71.2126 49.3406 72.5566 50.9925 72.5566Z" fill="#130D3A"/>
<mask id="mask5_896_13758" style="mask-type:luminance" maskUnits="userSpaceOnUse" x="81" y="66" width="7" height="7">
<path fill-rule="evenodd" clip-rule="evenodd" d="M81.3008 66.123H87.7005V72.523H81.3008V66.123Z" fill="white"/>
</mask>
<g mask="url(#mask5_896_13758)">
<path fill-rule="evenodd" clip-rule="evenodd" d="M84.5008 72.523C85.3424 72.523 86.168 72.1822 86.7632 71.587C87.36 70.9902 87.7008 70.1662 87.7008 69.323C87.7008 68.4814 87.36 67.6558 86.7632 67.0606C86.168 66.4638 85.3424 66.123 84.5008 66.123C83.6576 66.123 82.8336 66.4638 82.2368 67.0606C81.6416 67.6558 81.3008 68.4814 81.3008 69.323C81.3008 70.1662 81.6416 70.9902 82.2368 71.587C82.8336 72.1822 83.6576 72.523 84.5008 72.523Z" fill="#130D3A"/>
</g>
<path fill-rule="evenodd" clip-rule="evenodd" d="M0.992519 85.5566H1.00748C2.66085 85.5566 4 84.2126 4 82.5566C4 80.9006 2.66085 79.5566 1.00748 79.5566H0.992519C-0.659352 79.5566 -2 80.9006 -2 82.5566C-2 84.2126 -0.659352 85.5566 0.992519 85.5566Z" fill="#130D3A"/>
<path fill-rule="evenodd" clip-rule="evenodd" d="M18 85.5566C18.789 85.5566 19.563 85.2371 20.121 84.6776C20.6805 84.1196 21 83.3471 21 82.5566C21 81.7676 20.6805 80.9936 20.121 80.4356C19.563 79.8761 18.789 79.5566 18 79.5566C17.2095 79.5566 16.437 79.8761 15.8775 80.4356C15.3195 80.9936 15 81.7676 15 82.5566C15 83.3471 15.3195 84.1196 15.8775 84.6776C16.437 85.2371 17.2095 85.5566 18 85.5566Z" fill="#130D3A"/>
<path fill-rule="evenodd" clip-rule="evenodd" d="M35 85.5566C35.7905 85.5566 36.563 85.2371 37.1225 84.6776C37.6805 84.1196 38 83.3471 38 82.5566C38 81.7676 37.6805 80.9936 37.1225 80.4356C36.563 79.8761 35.7905 79.5566 35 79.5566C34.211 79.5566 33.437 79.8761 32.879 80.4356C32.3195 80.9936 32 81.7676 32 82.5566C32 83.3471 32.3195 84.1196 32.879 84.6776C33.437 85.2371 34.211 85.5566 35 85.5566Z" fill="#130D3A"/>
<path fill-rule="evenodd" clip-rule="evenodd" d="M67.9925 85.5566H68.0075C69.6608 85.5566 71 84.2126 71 82.5566C71 80.9006 69.6608 79.5566 68.0075 79.5566H67.9925C66.3406 79.5566 65 80.9006 65 82.5566C65 84.2126 66.3406 85.5566 67.9925 85.5566Z" fill="#130D3A"/>
<path fill-rule="evenodd" clip-rule="evenodd" d="M50.9925 85.5566H51.0075C52.6594 85.5566 54 84.2126 54 82.5566C54 80.9006 52.6594 79.5566 51.0075 79.5566H50.9925C49.3406 79.5566 48 80.9006 48 82.5566C48 84.2126 49.3406 85.5566 50.9925 85.5566Z" fill="#130D3A"/>
<mask id="mask6_896_13758" style="mask-type:luminance" maskUnits="userSpaceOnUse" x="81" y="79" width="7" height="7">
<path fill-rule="evenodd" clip-rule="evenodd" d="M81.3008 79.4668H87.7005V85.8668H81.3008V79.4668Z" fill="white"/>
</mask>
<g mask="url(#mask6_896_13758)">
<path fill-rule="evenodd" clip-rule="evenodd" d="M84.5008 85.8668C85.3424 85.8668 86.168 85.526 86.7632 84.9292C87.36 84.334 87.7008 83.51 87.7008 82.6668C87.7008 81.8252 87.36 80.9996 86.7632 80.4044C86.168 79.8076 85.3424 79.4668 84.5008 79.4668C83.6576 79.4668 82.8336 79.8076 82.2368 80.4044C81.6416 80.9996 81.3008 81.8252 81.3008 82.6668C81.3008 83.51 81.6416 84.334 82.2368 84.9292C82.8336 85.526 83.6576 85.8668 84.5008 85.8668Z" fill="#130D3A"/>
</g>
<path fill-rule="evenodd" clip-rule="evenodd" d="M0.992519 98.5566H1.00748C2.66085 98.5566 4 97.2141 4 95.5566C4 93.9006 2.66085 92.5566 1.00748 92.5566H0.992519C-0.659352 92.5566 -2 93.9006 -2 95.5566C-2 97.2141 -0.659352 98.5566 0.992519 98.5566Z" fill="#130D3A"/>
<path fill-rule="evenodd" clip-rule="evenodd" d="M18 98.5566C18.789 98.5566 19.563 98.2371 20.121 97.6791C20.6805 97.1196 21 96.3471 21 95.5566C21 94.7676 20.6805 93.9936 20.121 93.4356C19.563 92.8761 18.789 92.5566 18 92.5566C17.2095 92.5566 16.437 92.8761 15.8775 93.4356C15.3195 93.9936 15 94.7676 15 95.5566C15 96.3471 15.3195 97.1196 15.8775 97.6791C16.437 98.2371 17.2095 98.5566 18 98.5566Z" fill="#130D3A"/>
<path fill-rule="evenodd" clip-rule="evenodd" d="M35 98.5566C35.7905 98.5566 36.563 98.2371 37.1225 97.6791C37.6805 97.1196 38 96.3471 38 95.5566C38 94.7676 37.6805 93.9936 37.1225 93.4356C36.563 92.8761 35.7905 92.5566 35 92.5566C34.211 92.5566 33.437 92.8761 32.879 93.4356C32.3195 93.9936 32 94.7676 32 95.5566C32 96.3471 32.3195 97.1196 32.879 97.6791C33.437 98.2371 34.211 98.5566 35 98.5566Z" fill="#130D3A"/>
<path fill-rule="evenodd" clip-rule="evenodd" d="M67.9925 98.5566H68.0075C69.6608 98.5566 71 97.2141 71 95.5566C71 93.9006 69.6608 92.5566 68.0075 92.5566H67.9925C66.3406 92.5566 65 93.9006 65 95.5566C65 97.2141 66.3406 98.5566 67.9925 98.5566Z" fill="#130D3A"/>
<path fill-rule="evenodd" clip-rule="evenodd" d="M50.9925 98.5566H51.0075C52.6594 98.5566 54 97.2141 54 95.5566C54 93.9006 52.6594 92.5566 51.0075 92.5566H50.9925C49.3406 92.5566 48 93.9006 48 95.5566C48 97.2141 49.3406 98.5566 50.9925 98.5566Z" fill="#130D3A"/>
<mask id="mask7_896_13758" style="mask-type:luminance" maskUnits="userSpaceOnUse" x="81" y="92" width="7" height="8">
<path fill-rule="evenodd" clip-rule="evenodd" d="M81.3008 92.8125H87.7005V99.2125H81.3008V92.8125Z" fill="white"/>
</mask>
<g mask="url(#mask7_896_13758)">
<path fill-rule="evenodd" clip-rule="evenodd" d="M84.5008 99.2125C85.3424 99.2125 86.168 98.8717 86.7632 98.2765C87.36 97.6797 87.7008 96.8557 87.7008 96.0125C87.7008 95.1709 87.36 94.3453 86.7632 93.7501C86.168 93.1533 85.3424 92.8125 84.5008 92.8125C83.6576 92.8125 82.8336 93.1533 82.2368 93.7501C81.6416 94.3453 81.3008 95.1709 81.3008 96.0125C81.3008 96.8557 81.6416 97.6797 82.2368 98.2765C82.8336 98.8717 83.6576 99.2125 84.5008 99.2125Z" fill="#130D3A"/>
</g>
<mask id="mask8_896_13758" style="mask-type:luminance" maskUnits="userSpaceOnUse" x="-3" y="105" width="8" height="7">
<path fill-rule="evenodd" clip-rule="evenodd" d="M-2.00781 105.557H4.40819V111.556H-2.00781V105.557Z" fill="white"/>
</mask>
<g mask="url(#mask8_896_13758)">
<path fill-rule="evenodd" clip-rule="evenodd" d="M1.19219 111.557H1.20819C2.97619 111.557 4.40819 110.213 4.40819 108.557C4.40819 106.899 2.97619 105.557 1.20819 105.557H1.19219C-0.574212 105.557 -2.00781 106.899 -2.00781 108.557C-2.00781 110.213 -0.574212 111.557 1.19219 111.557Z" fill="#130D3A"/>
</g>
<mask id="mask9_896_13758" style="mask-type:luminance" maskUnits="userSpaceOnUse" x="14" y="105" width="7" height="7">
<path fill-rule="evenodd" clip-rule="evenodd" d="M14.5 105.557H20.9V111.556H14.5V105.557Z" fill="white"/>
</mask>
<g mask="url(#mask9_896_13758)">
<path fill-rule="evenodd" clip-rule="evenodd" d="M17.7 111.557C18.5416 111.557 19.3672 111.237 19.9624 110.678C20.5592 110.12 20.9 109.346 20.9 108.557C20.9 107.766 20.5592 106.994 19.9624 106.434C19.3672 105.876 18.5416 105.557 17.7 105.557C16.8568 105.557 16.0328 105.876 15.436 106.434C14.8408 106.994 14.5 107.766 14.5 108.557C14.5 109.346 14.8408 110.12 15.436 110.678C16.0328 111.237 16.8568 111.557 17.7 111.557Z" fill="#130D3A"/>
</g>
<mask id="mask10_896_13758" style="mask-type:luminance" maskUnits="userSpaceOnUse" x="31" y="105" width="7" height="7">
<path fill-rule="evenodd" clip-rule="evenodd" d="M31.3984 105.557H37.7984V111.556H31.3984V105.557Z" fill="white"/>
</mask>
<g mask="url(#mask10_896_13758)">
<path fill-rule="evenodd" clip-rule="evenodd" d="M34.5984 111.557C35.4416 111.557 36.2656 111.237 36.8624 110.678C37.4576 110.12 37.7984 109.346 37.7984 108.557C37.7984 107.766 37.4576 106.994 36.8624 106.434C36.2656 105.876 35.4416 105.557 34.5984 105.557C33.7568 105.557 32.9312 105.876 32.336 106.434C31.7392 106.994 31.3984 107.766 31.3984 108.557C31.3984 109.346 31.7392 110.12 32.336 110.678C32.9312 111.237 33.7568 111.557 34.5984 111.557Z" fill="#130D3A"/>
</g>
<mask id="mask11_896_13758" style="mask-type:luminance" maskUnits="userSpaceOnUse" x="64" y="105" width="7" height="7">
<path fill-rule="evenodd" clip-rule="evenodd" d="M64.3945 105.557H70.8105V111.556H64.3945V105.557Z" fill="white"/>
</mask>
<g mask="url(#mask11_896_13758)">
<path fill-rule="evenodd" clip-rule="evenodd" d="M67.5945 111.557H67.6105C69.3785 111.557 70.8105 110.213 70.8105 108.557C70.8105 106.899 69.3785 105.557 67.6105 105.557H67.5945C65.8281 105.557 64.3945 106.899 64.3945 108.557C64.3945 110.213 65.8281 111.557 67.5945 111.557Z" fill="#130D3A"/>
</g>
<mask id="mask12_896_13758" style="mask-type:luminance" maskUnits="userSpaceOnUse" x="47" y="105" width="8" height="7">
<path fill-rule="evenodd" clip-rule="evenodd" d="M47.8945 105.557H54.3105V111.556H47.8945V105.557Z" fill="white"/>
</mask>
<g mask="url(#mask12_896_13758)">
<path fill-rule="evenodd" clip-rule="evenodd" d="M51.0945 111.557H51.1105C52.8769 111.557 54.3105 110.213 54.3105 108.557C54.3105 106.899 52.8769 105.557 51.1105 105.557H51.0945C49.3281 105.557 47.8945 106.899 47.8945 108.557C47.8945 110.213 49.3281 111.557 51.0945 111.557Z" fill="#130D3A"/>
</g>
<mask id="mask13_896_13758" style="mask-type:luminance" maskUnits="userSpaceOnUse" x="81" y="105" width="7" height="7">
<path fill-rule="evenodd" clip-rule="evenodd" d="M81.3008 105.557H87.7005V111.556H81.3008V105.557Z" fill="white"/>
</mask>
<g mask="url(#mask13_896_13758)">
<path fill-rule="evenodd" clip-rule="evenodd" d="M84.5008 111.557C85.3424 111.557 86.168 111.237 86.7632 110.678C87.36 110.12 87.7008 109.346 87.7008 108.557C87.7008 107.766 87.36 106.994 86.7632 106.434C86.168 105.876 85.3424 105.557 84.5008 105.557C83.6576 105.557 82.8336 105.876 82.2368 106.434C81.6416 106.994 81.3008 107.766 81.3008 108.557C81.3008 109.346 81.6416 110.12 82.2368 110.678C82.8336 111.237 83.6576 111.557 84.5008 111.557Z" fill="#130D3A"/>
</g>
</svg>
