<svg width="44" height="44" viewBox="0 0 44 44" fill="none" xmlns="http://www.w3.org/2000/svg">
<path d="M41.5009 14.6873C42.2487 14.6873 42.8551 14.0809 42.8551 13.3331C42.8551 12.5853 42.2487 11.9789 41.5009 11.9789C40.7531 11.9789 40.1467 12.5853 40.1467 13.3331C40.1467 14.0809 40.7531 14.6873 41.5009 14.6873ZM35.0009 14.6873C35.7487 14.6873 36.3551 14.0809 36.3551 13.3331C36.3551 12.5853 35.7487 11.9789 35.0009 11.9789C34.2531 11.9789 33.6467 12.5853 33.6467 13.3331C33.6467 14.0809 34.2531 14.6873 35.0009 14.6873ZM38.3927 24.0183C37.9674 23.9379 37.5421 23.8469 37.121 23.7454C36.2311 23.5264 35.3552 23.2552 34.4973 22.9329C32.4372 22.1505 30.1176 23.031 29.0955 24.9832L27.4682 28.1083C22.6396 25.3626 18.6456 21.3591 15.9112 16.5239L19.0174 14.9073C20.9662 13.8822 21.8455 11.5655 21.0677 9.50547C20.7464 8.64615 20.4759 7.76859 20.2574 6.87754C20.1516 6.45436 20.0627 6.03118 19.9823 5.60378C19.3953 2.53204 16.7006 0.316046 13.5733 0.333106H6.90828C4.98957 0.332709 3.16634 1.17047 1.91691 2.62673C0.677263 4.05944 0.126207 5.96255 0.408281 7.83603C3.29673 26.2523 17.7406 40.6996 36.1562 43.5924C36.4769 43.6412 36.8008 43.6659 37.1252 43.6664C40.7453 43.6528 43.6715 40.7124 43.6676 37.0924V30.4273C43.6845 27.2986 41.4661 24.6035 38.3927 24.0183ZM41.5009 37.0924C41.5006 38.3802 40.9381 39.6035 39.9605 40.4418C39.0039 41.2697 37.7333 41.6384 36.482 41.4511C19.0032 38.705 5.29346 24.9936 2.54956 7.51442C2.36257 6.26446 2.73126 4.99533 3.55883 4.04014C4.39712 3.0626 5.6205 2.50004 6.90828 2.49977H13.5733C15.656 2.48218 17.4549 3.95286 17.8516 5.99746C17.9391 6.4664 18.04 6.93268 18.1542 7.39606C18.3923 8.3699 18.6883 9.32866 19.0408 10.2673C19.4333 11.3021 18.9944 12.4674 18.0167 12.9861L13.9351 15.1104L13.9316 15.1123C13.4026 15.3886 13.1976 16.0413 13.4739 16.5704C16.5767 22.5506 21.4449 27.4306 27.4176 30.5479C27.9482 30.8237 28.6019 30.6184 28.8796 30.0888L31.0167 25.984C31.5356 25.0076 32.6992 24.569 33.7335 24.9599C34.6723 25.3142 35.632 25.6109 36.6069 25.8486C37.0675 25.9628 37.5315 26.0623 37.9991 26.1469C40.0449 26.5442 41.5169 28.3433 41.5009 30.4273V37.0924ZM28.5009 14.6873C29.2487 14.6873 29.8551 14.0809 29.8551 13.3331C29.8551 12.5853 29.2487 11.9789 28.5009 11.9789C27.7531 11.9789 27.1467 12.5853 27.1467 13.3331C27.1467 14.0809 27.7531 14.6873 28.5009 14.6873Z" fill="#FF7500"/>
</svg>
