<svg width="166" height="207" viewBox="0 0 166 207" fill="none" xmlns="http://www.w3.org/2000/svg">
<path d="M86.7954 150.874C76.3845 156.897 69.7009 157.2 64.0982 151.887C52.1895 140.552 45.1937 140.568 30.0656 151.918C18.5039 160.602 13.6329 162.335 6.51672 160.11C-3.17784 157.12 3.72009 169.764 13.8578 170.797C21.2676 171.549 25.5397 169.842 34.8334 162.342C49.1672 150.808 54.0693 150.176 62.6043 158.647C72.82 168.879 83.1045 169.176 95.257 159.713C101.545 154.911 96.7649 145.144 86.7954 150.874Z" fill="#FF7500"/>
<path d="M56.6624 95.9009C58.7915 96.207 63.7369 96.0194 67.5581 95.5151C78.0753 94.0511 79.1438 94.5809 81.6215 102.266C86.2186 116.654 100.118 126.208 110.589 122.136C119.539 118.736 116.12 111.602 106.202 113.041C95.6468 114.563 91.1949 112.079 88.0238 102.778C83.1171 88.3546 75.3322 83.1996 61.943 85.3705C50.2131 87.2918 46.6219 85.7837 46.3167 78.849C46.0397 72.7642 40.9411 65.7836 38.9634 68.8193C34.0366 76.2539 45.9206 94.3912 56.6624 95.9009Z" fill="#FF7500"/>
<path d="M106.607 41.4537C113.262 45.7896 113.242 45.6932 110.45 53.9362C105.709 67.9783 114.116 84.4324 127.975 88.3056C140.283 91.7507 135.85 81.9607 128.021 79.937C117.731 77.2242 114.947 71.6685 118.685 61.4635C121.992 52.558 120.271 45.1164 113.145 38.3117C110.177 35.4635 107.083 33.4477 103.776 31.3762C96.9071 26.9846 99.3333 22.4946 103.672 16.0905C111.474 4.62504 103.693 -3.85403 96.101 7.41596C87.7485 19.8535 91.3699 31.5267 106.607 41.4537Z" fill="#FF7500"/>
</svg>
