<svg width="127" height="127" viewBox="0 0 127 127" fill="none" xmlns="http://www.w3.org/2000/svg">
<g opacity="0.2">
<path d="M98.63 51.4995C98.1498 50.941 97.6424 50.3994 97.1145 49.8681C96.5866 49.3368 96.0382 48.8464 95.4797 48.3492L123.853 19.9792C124.393 20.4833 124.928 20.9987 125.457 21.5254C125.986 22.0522 126.5 22.5858 127 23.1261L98.63 51.4995Z" fill="#FF7500"/>
<path d="M21.522 125.459C20.9953 124.93 20.4798 124.395 19.9758 123.855L48.3458 95.4815C48.8294 96.0401 49.3368 96.585 49.8681 97.1163C50.3994 97.6476 50.9421 98.1528 51.4961 98.6319L23.1227 127.002C22.5801 126.493 22.0465 125.979 21.522 125.459Z" fill="#FF7500"/>
<path d="M91.9175 45.6177C90.6329 44.765 89.29 44.0036 87.8987 43.3392L116.991 14.2472C118.194 15.1282 119.369 16.0511 120.516 17.0161L91.9175 45.6177Z" fill="#FF7500"/>
<path d="M17.0156 120.517C16.0507 119.366 15.1277 118.19 14.2467 116.989L43.3387 87.8969C44.0037 89.2879 44.7651 90.6307 45.6172 91.9157L17.0156 120.517Z" fill="#FF7500"/>
<path d="M83.3694 41.5718C81.6873 41.0503 79.9666 40.6631 78.2233 40.4138L109.331 9.30903C110.664 10.056 111.974 10.8507 113.262 11.6931L83.3694 41.5718Z" fill="#FF7500"/>
<path d="M11.678 113.263C10.8401 111.975 10.0511 110.665 9.31097 109.333L40.4192 78.2176C40.6675 79.9616 41.0524 81.6834 41.5703 83.3671L11.678 113.263Z" fill="#FF7500"/>
<path d="M72.2173 40.1141C69.7131 40.2077 67.2274 40.5813 64.8063 41.2278L100.792 5.24593C102.273 5.82832 103.727 6.47201 105.168 7.16338L72.2173 40.1141Z" fill="#FF7500"/>
<path d="M7.16217 105.171C6.48102 103.73 5.83052 102.276 5.24473 100.791L41.2266 64.8093C40.5798 67.2302 40.2062 69.716 40.1129 72.2202L7.16217 105.171Z" fill="#FF7500"/>
<path d="M3.56879 96.1694C3.04431 94.5517 2.57773 92.9135 2.16904 91.2719L91.2705 2.1705C92.9121 2.57919 94.5502 3.04578 96.168 3.57027L3.56879 96.1694Z" fill="#FF7500"/>
<path d="M1.07321 86.0509C0.753067 84.2072 0.504448 82.3568 0.327347 80.4995L80.4955 0.331375C82.3505 0.503936 84.201 0.752556 86.0469 1.07724L1.07321 86.0509Z" fill="#FF7500"/>
<path d="M0.00785065 74.5327C-0.0262068 72.3735 0.0350956 70.2074 0.195168 68.0618L68.0447 0.195236C70.2039 0.0385738 72.37 -0.0227358 74.5156 0.00791168L0.00785065 74.5327Z" fill="#FF7500"/>
<path d="M1.08881 60.8483C1.56778 58.0793 2.20456 55.3401 2.99604 52.6438L52.6588 2.98784C55.3554 2.19834 58.0946 1.56271 60.8633 1.08402L1.08881 60.8483Z" fill="#FF7500"/>
<path d="M6.80585 42.5425C14.1419 26.7975 26.7948 14.1434 42.5391 6.80586L6.80585 42.5425Z" fill="#FF7500"/>
</g>
</svg>
