<svg width="334" height="334" viewBox="0 0 334 334" fill="none" xmlns="http://www.w3.org/2000/svg">
<path d="M100.845 76.4646C101.384 76.1051 101.926 75.7535 102.472 75.4038C103.361 74.8335 103.986 73.9337 104.211 72.9024C104.436 71.871 104.242 70.7925 103.672 69.9042C103.101 69.0159 102.202 68.3905 101.17 68.1656C100.139 67.9407 99.0603 68.1347 98.172 68.705C97.5908 69.078 97.0108 69.4562 96.4321 69.8396C95.9969 70.129 95.6231 70.5014 95.3319 70.9354C95.0407 71.3693 94.8378 71.8564 94.7349 72.3688C94.632 72.8812 94.6311 73.4089 94.7321 73.9216C94.8332 74.4344 95.0343 74.9222 95.324 75.3572C95.9209 76.2218 96.8305 76.8206 97.8607 77.0272C98.8908 77.2338 99.961 77.0321 100.845 76.4646ZM64.5119 106.864C65.3724 107.467 66.4336 107.711 67.4712 107.546C68.5088 107.381 69.4415 106.818 70.0721 105.978C70.4531 105.453 70.8361 104.935 71.2269 104.418C71.8622 103.574 72.1364 102.513 71.9892 101.467C71.842 100.422 71.2854 99.4772 70.4419 98.8419C69.5983 98.2065 68.537 97.9323 67.4912 98.0795C66.4455 98.2268 65.5011 98.7834 64.8658 99.6269C64.4478 100.183 64.0343 100.743 63.6254 101.308C63.3185 101.73 63.0979 102.21 62.9763 102.718C62.8547 103.226 62.8345 103.753 62.9168 104.269C62.9992 104.785 63.1824 105.28 63.4561 105.725C63.7298 106.171 64.0885 106.557 64.5119 106.864Z" fill="#FF7500"/>
<path d="M84.1368 89.8451C84.6053 89.3945 85.0777 88.949 85.554 88.5085C85.9369 88.1526 86.246 87.7248 86.4637 87.2495C86.6813 86.7741 86.8031 86.2606 86.8223 85.7381C86.8414 85.2157 86.7575 84.6946 86.5752 84.2046C86.393 83.7146 86.116 83.2653 85.7601 82.8823C85.4042 82.4993 84.9764 82.1902 84.5011 81.9726C84.0257 81.755 83.5122 81.6331 82.9897 81.614C82.4673 81.5949 81.9462 81.6788 81.4562 81.861C80.9662 82.0433 80.5169 82.3203 80.1339 82.6761C79.6264 83.1483 79.1229 83.6236 78.6233 84.1022C78.2461 84.4639 77.9438 84.8964 77.7338 85.375C77.5238 85.8535 77.4101 86.3688 77.3993 86.8913C77.3885 87.4138 77.4807 87.9333 77.6707 88.4201C77.8607 88.907 78.1448 89.3516 78.5067 89.7287C79.2485 90.4714 80.2488 90.8983 81.2983 90.92C82.3478 90.9417 83.3649 90.5565 84.1368 89.8451Z" fill="#16191C"/>
<path d="M47.2177 184.949C47.2672 185.603 47.3212 186.254 47.3797 186.903L47.2177 184.949ZM47.2177 184.949C47.1472 184.03 46.7145 183.176 46.0148 182.575C45.3149 181.974 44.4051 181.675 43.4851 181.744C42.5652 181.814 41.7104 182.245 41.1086 182.944C40.5068 183.643 40.2071 184.553 40.2751 185.472C40.3274 186.159 40.3815 186.842 40.4431 187.522C40.5489 188.434 41.0009 189.27 41.7058 189.858L41.3856 190.242L41.7058 189.858C42.4107 190.446 43.3145 190.74 44.2303 190.681C45.1474 190.596 45.9938 190.152 46.5842 189.445C47.1758 188.737 47.462 187.822 47.3797 186.903L47.2177 184.949Z" stroke="#FF7500"/>
<path d="M43.5256 169.075C44.5714 169.141 45.6027 168.802 46.4055 168.129C47.2083 167.455 47.7211 166.499 47.8376 165.457C47.894 164.808 47.9555 164.16 48.0222 163.512C48.1235 162.465 47.8061 161.42 47.1394 160.607C46.4726 159.793 45.5108 159.276 44.4641 159.169C43.4174 159.062 42.371 159.374 41.5537 160.037C40.7363 160.699 40.2144 161.658 40.1021 162.704C40.0321 163.39 39.9666 164.077 39.9058 164.766C39.8602 165.286 39.9177 165.811 40.075 166.309C40.2323 166.808 40.4863 167.27 40.8225 167.67C41.1586 168.071 41.5704 168.401 42.0343 168.642C42.4981 168.883 43.0049 169.03 43.5256 169.075Z" fill="#16191C"/>
<path d="M46.8505 146.708C47.7415 146.941 48.6883 146.816 49.4883 146.36C50.2882 145.904 50.8777 145.152 51.1308 144.267C51.3007 143.639 51.4782 143.015 51.6613 142.39C51.7893 141.951 51.8296 141.491 51.78 141.037C51.7304 140.583 51.5917 140.142 51.3719 139.741C51.1521 139.34 50.8555 138.987 50.499 138.701C50.1425 138.414 49.7332 138.201 49.2943 138.073C48.8554 137.945 48.3956 137.905 47.9411 137.954C47.4866 138.004 47.0463 138.143 46.6454 138.362C45.8358 138.806 45.2356 139.554 44.977 140.44L46.8505 146.708ZM46.8505 146.708C45.9611 146.464 45.2047 145.878 44.7474 145.077C44.2897 144.276 44.1689 143.325 44.4116 142.435C44.5949 141.769 44.7834 141.104 44.977 140.44L46.8505 146.708Z" stroke="#FF7500"/>
<path d="M53.7806 126.226C54.7343 126.67 55.8237 126.724 56.8165 126.376C57.8092 126.028 58.6265 125.306 59.0939 124.363C59.3758 123.776 59.6629 123.191 59.9552 122.607C60.4272 121.662 60.5046 120.569 60.1704 119.567C59.8362 118.565 59.1178 117.738 58.1732 117.266C57.2286 116.794 56.1352 116.716 55.1335 117.05C54.1319 117.385 53.304 118.103 52.832 119.048C52.521 119.669 52.2177 120.291 51.9163 120.917C51.6898 121.388 51.5584 121.899 51.5295 122.42C51.5006 122.942 51.5749 123.465 51.748 123.958C51.9212 124.451 52.1898 124.905 52.5386 125.294C52.8873 125.684 53.3094 126 53.7806 126.226Z" fill="#16191C"/>
<path d="M141.782 58.7297L141.782 58.7298C141.143 58.8659 140.507 59.0078 139.874 59.1515C138.974 59.3342 138.039 59.1642 137.261 58.6767C136.484 58.1892 135.924 57.4217 135.696 56.5329C135.595 56.0893 135.582 55.6302 135.658 55.1816C135.734 54.7311 135.899 54.3 136.142 53.9131C136.384 53.5261 136.701 53.1908 137.074 52.9264C137.447 52.662 137.868 52.4736 138.313 52.3721L138.313 52.3721L138.314 52.3717C138.984 52.217 139.656 52.0681 140.33 51.9249L140.33 51.9248C140.777 51.8291 141.239 51.8224 141.688 51.9051C142.138 51.9878 142.567 52.1583 142.95 52.4068C143.334 52.6554 143.665 52.977 143.924 53.3535C144.183 53.73 144.366 54.1538 144.461 54.6009C144.557 55.0479 144.563 55.5093 144.48 55.9588C144.397 56.4083 144.226 56.837 143.977 57.2205C143.728 57.6039 143.407 57.9346 143.03 58.1935C142.653 58.4525 142.229 58.6347 141.782 58.7297ZM223.405 70.2544L223.405 70.2541C223.001 70.0382 222.644 69.7448 222.354 69.3908L221.968 69.7076L222.354 69.3908C222.064 69.0367 221.847 68.6289 221.715 68.1908C221.583 67.7526 221.539 67.2927 221.584 66.8374C221.63 66.382 221.765 65.9402 221.982 65.5372C222.199 65.1342 222.493 64.7779 222.848 64.4888C223.203 64.1996 223.611 63.9833 224.049 63.8521C224.488 63.7209 224.948 63.6775 225.403 63.7244C225.858 63.7712 226.3 63.9074 226.702 64.1251L226.703 64.1254C227.311 64.4535 227.917 64.7842 228.52 65.1175C228.919 65.3395 229.27 65.6379 229.554 65.9957C229.838 66.3538 230.049 66.7642 230.174 67.2037C230.299 67.6432 230.337 68.1031 230.285 68.557C230.232 69.0096 230.092 69.4475 229.871 69.8459C229.409 70.6408 228.657 71.2258 227.772 71.4777C226.888 71.7296 225.94 71.6287 225.129 71.1966C224.557 70.8767 223.981 70.5633 223.405 70.2544ZM263.541 93.8539L263.542 93.8545C263.837 94.2027 264.061 94.6058 264.201 95.0407C264.341 95.4757 264.393 95.9339 264.356 96.3891C264.318 96.8444 264.191 97.2878 263.982 97.694C263.774 98.0982 263.489 98.4577 263.142 98.752C262.426 99.3263 261.518 99.6045 260.603 99.5292C259.689 99.4538 258.838 99.0305 258.226 98.3465C257.807 97.8553 257.384 97.3668 256.958 96.881L256.957 96.8803C256.348 96.1874 256.038 95.2807 256.097 94.3597C256.156 93.4387 256.579 92.5788 257.272 91.9692C257.964 91.3597 258.871 91.0503 259.792 91.1092C260.713 91.1682 261.573 91.5906 262.183 92.2835L262.183 92.2844C262.642 92.8031 263.094 93.3262 263.541 93.8539ZM281.521 137.287C280.69 136.896 280.041 136.2 279.711 135.343C279.491 134.729 279.263 134.118 279.034 133.511C278.712 132.648 278.745 131.693 279.125 130.855C279.506 130.016 280.204 129.362 281.066 129.037C281.928 128.711 282.883 128.741 283.723 129.119C284.564 129.496 285.22 130.192 285.548 131.052C285.792 131.696 286.03 132.342 286.264 132.99C286.419 133.42 286.488 133.876 286.466 134.333C286.445 134.789 286.334 135.237 286.139 135.65C285.944 136.064 285.67 136.435 285.332 136.742C284.995 137.049 284.602 137.286 284.173 137.441C283.303 137.733 282.352 137.678 281.521 137.287Z" stroke="#16191C"/>
<path d="M284.304 154.286C284.423 154.925 284.535 155.566 284.642 156.209C284.819 157.249 285.4 158.176 286.259 158.787C287.118 159.398 288.185 159.644 289.224 159.47C290.264 159.296 291.193 158.717 291.806 157.859C292.419 157.002 292.668 155.936 292.496 154.896C292.382 154.214 292.261 153.534 292.139 152.856C291.948 151.818 291.353 150.899 290.485 150.299C289.616 149.7 288.545 149.469 287.507 149.659C286.469 149.848 285.549 150.442 284.948 151.31C284.348 152.177 284.116 153.248 284.304 154.286ZM119.645 66.2821C120.242 66.0257 120.842 65.7731 121.445 65.5244C121.928 65.3243 122.367 65.031 122.737 64.6611C123.107 64.2912 123.4 63.8522 123.6 63.3689C123.8 62.8857 123.903 62.3678 123.902 61.8449C123.902 61.3219 123.798 60.8042 123.598 60.3212C123.397 59.8382 123.104 59.3995 122.734 59.0301C122.363 58.6607 121.924 58.3679 121.441 58.1684C120.957 57.9689 120.439 57.8666 119.916 57.8673C119.393 57.8681 118.876 57.9719 118.393 58.1728C117.759 58.437 117.127 58.7013 116.495 58.9732C116.015 59.1797 115.581 59.4787 115.216 59.8532C114.852 60.2277 114.564 60.6703 114.371 61.1559C114.178 61.6414 114.082 62.1602 114.089 62.6828C114.096 63.2053 114.207 63.7213 114.413 64.2013C114.849 65.1558 115.636 65.9052 116.611 66.293C117.586 66.6807 118.673 66.6768 119.645 66.2821ZM203.459 62.3285C204.077 62.5266 204.693 62.7306 205.308 62.9404C206.307 63.2682 207.395 63.1924 208.339 62.7293C209.284 62.2661 210.01 61.4523 210.362 60.4614C210.531 59.9668 210.601 59.4438 210.568 58.9222C210.535 58.4006 210.399 57.8907 210.169 57.4215C209.939 56.9524 209.618 56.5333 209.225 56.1882C208.833 55.843 208.376 55.5786 207.882 55.4101C207.221 55.1847 206.558 54.9652 205.893 54.7514C205.395 54.5912 204.871 54.5306 204.35 54.5731C203.829 54.6156 203.321 54.7603 202.856 54.9991C202.391 55.2378 201.977 55.5658 201.639 55.9644C201.301 56.3631 201.045 56.8244 200.885 57.3221C200.725 57.8199 200.665 58.3442 200.707 58.8653C200.75 59.3863 200.895 59.8938 201.134 60.3587C201.373 60.8236 201.702 61.2369 202.101 61.5749C202.499 61.9129 202.961 62.1689 203.459 62.3285ZM160.992 56.7468C161.054 56.7468 162.481 56.6884 163.134 56.6671C163.657 56.6516 164.172 56.5332 164.65 56.3185C165.127 56.1038 165.557 55.7971 165.915 55.4159C166.274 55.0347 166.554 54.5866 166.739 54.0971C166.924 53.6077 167.011 53.0865 166.994 52.5635C166.977 52.0405 166.858 51.5259 166.642 51.0491C166.426 50.5724 166.119 50.1429 165.737 49.7853C165.355 49.4277 164.906 49.1489 164.416 48.9649C163.926 48.781 163.405 48.6954 162.882 48.7132C162.19 48.7346 161.499 48.7611 160.811 48.7928C159.773 48.8403 158.794 49.2922 158.085 50.0519C157.375 50.8117 156.991 51.8189 157.015 52.8581C157.039 53.8973 157.468 54.886 158.211 55.6127C158.954 56.3394 159.952 56.7465 160.992 56.7468ZM51.6988 207.898C51.5239 207.273 51.3553 206.645 51.1933 206.016C50.9268 204.994 50.2657 204.121 49.3553 203.587C48.4449 203.053 47.3598 202.902 46.3384 203.168C45.317 203.434 44.4429 204.094 43.9082 205.004C43.3735 205.914 43.2219 206.999 43.4869 208.021C43.6618 208.689 43.8408 209.359 44.0235 210.024C44.3268 211.028 45.0055 211.876 45.9183 212.392C46.8311 212.909 47.9078 213.053 48.9245 212.796C49.4283 212.657 49.8997 212.419 50.3118 212.098C50.7239 211.776 51.0685 211.377 51.3262 210.922C51.5838 210.467 51.7493 209.966 51.8132 209.447C51.8772 208.928 51.8383 208.402 51.6988 207.898Z" fill="#16191C"/>
<path d="M182.58 57.6385C183.225 57.722 184.901 57.9492 185.095 57.9492C186.1 57.9484 187.067 57.5674 187.803 56.8828C188.538 56.1981 188.988 55.2605 189.06 54.2583C189.133 53.256 188.824 52.2635 188.194 51.4799C187.565 50.6964 186.663 50.1799 185.669 50.0342C184.986 49.9331 184.301 49.8373 183.614 49.7466C183.096 49.6787 182.569 49.7135 182.065 49.8491C181.56 49.9847 181.087 50.2183 180.672 50.5367C180.258 50.8551 179.91 51.252 179.649 51.7048C179.388 52.1575 179.219 52.6573 179.151 53.1754C179.083 53.6936 179.118 54.2201 179.253 54.7248C179.389 55.2296 179.623 55.7026 179.941 56.1171C180.259 56.5315 180.656 56.8792 181.109 57.1402C181.562 57.4012 182.062 57.5705 182.58 57.6385Z" fill="#FF7500"/>
<path d="M241.067 82.459C241.576 82.8631 242.084 83.273 242.585 83.683C243.41 84.3315 244.454 84.6362 245.498 84.5333C246.542 84.4305 247.506 83.9282 248.188 83.1313C248.52 82.7275 248.769 82.2623 248.921 81.7623C249.072 81.2622 249.124 80.7372 249.073 80.2172C249.022 79.6971 248.868 79.1923 248.622 78.7316C248.375 78.2708 248.04 77.8632 247.636 77.532C247.1 77.091 246.561 76.6577 246.017 76.2264C245.607 75.9014 245.138 75.6602 244.636 75.5166C244.133 75.3729 243.608 75.3297 243.088 75.3892C242.569 75.4488 242.067 75.61 241.61 75.8637C241.153 76.1175 240.751 76.4587 240.426 76.8679C240.101 77.2771 239.859 77.7464 239.716 78.2488C239.572 78.7513 239.529 79.2771 239.588 79.7963C239.648 80.3155 239.809 80.8179 240.063 81.2747C240.317 81.7316 240.658 82.134 241.067 82.459ZM274.857 235.827C273.951 235.286 272.867 235.126 271.843 235.383C270.819 235.639 269.939 236.291 269.394 237.195C269.058 237.757 268.718 238.312 268.376 238.868C268.1 239.312 267.915 239.806 267.831 240.322C267.747 240.837 267.765 241.365 267.884 241.874C268.004 242.382 268.223 242.862 268.529 243.286C268.834 243.71 269.22 244.07 269.665 244.345C270.566 244.885 271.643 245.053 272.666 244.813C273.69 244.572 274.579 243.942 275.145 243.057C275.511 242.47 275.871 241.88 276.226 241.287C276.768 240.381 276.929 239.297 276.672 238.274C276.416 237.25 275.763 236.37 274.857 235.827Z" fill="#16191C"/>
<path d="M256.788 254.503C256.364 254.991 255.934 255.474 255.499 255.953C255.148 256.34 254.877 256.792 254.701 257.284C254.525 257.777 254.448 258.298 254.474 258.82C254.499 259.342 254.628 259.854 254.851 260.326C255.075 260.799 255.389 261.222 255.777 261.573C256.57 262.26 257.597 262.614 258.645 262.562C259.692 262.511 260.68 262.057 261.401 261.295C261.868 260.78 262.33 260.261 262.787 259.737C263.479 258.941 263.827 257.903 263.754 256.851C263.682 255.799 263.195 254.819 262.4 254.126C261.605 253.432 260.568 253.083 259.516 253.154C258.463 253.224 257.482 253.71 256.788 254.503Z" fill="#FF7500"/>
<path d="M276.039 110.36C275.493 109.457 274.611 108.807 273.587 108.554C272.563 108.301 271.48 108.464 270.576 109.009C269.672 109.554 269.022 110.435 268.767 111.459C268.513 112.483 268.675 113.566 269.219 114.471C269.553 115.022 269.882 115.578 270.205 116.138C270.751 117.033 271.621 117.683 272.635 117.954C273.648 118.224 274.727 118.093 275.646 117.589C276.56 117.06 277.226 116.191 277.499 115.171C277.771 114.151 277.627 113.065 277.098 112.151C276.748 111.549 276.397 110.954 276.039 110.36ZM241.325 269.294C240.818 269.7 240.306 270.103 239.789 270.503C238.956 271.15 238.413 272.102 238.281 273.149C238.149 274.196 238.439 275.252 239.086 276.086C239.744 276.905 240.694 277.437 241.737 277.568C242.78 277.699 243.832 277.42 244.673 276.79C245.219 276.366 245.761 275.94 246.298 275.511C246.707 275.185 247.047 274.781 247.3 274.323C247.553 273.865 247.713 273.362 247.771 272.842C247.829 272.322 247.784 271.796 247.638 271.294C247.493 270.791 247.25 270.322 246.923 269.914C246.596 269.505 246.192 269.165 245.734 268.913C245.276 268.661 244.772 268.501 244.252 268.444C243.733 268.386 243.206 268.432 242.704 268.578C242.202 268.724 241.733 268.967 241.325 269.294Z" fill="#16191C"/>
<path d="M286.772 175.586V175.585C286.773 174.662 287.14 173.776 287.793 173.124C288.446 172.472 289.331 172.105 290.254 172.105L290.254 172.105C291.177 172.105 292.062 172.472 292.715 173.124C293.368 173.777 293.735 174.662 293.735 175.585L293.735 175.586L293.735 175.601L293.735 175.658L293.733 175.869L293.728 176.555C293.725 177.085 293.721 177.703 293.72 178.049L293.72 178.062L293.721 178.074C293.743 178.535 293.667 178.996 293.497 179.425C293.328 179.854 293.069 180.243 292.738 180.564C292.406 180.886 292.011 181.133 291.576 181.289C291.142 181.446 290.679 181.508 290.219 181.472L290.203 181.471L290.187 181.47C289.265 181.457 288.385 181.077 287.741 180.415C287.098 179.753 286.744 178.863 286.757 177.94C286.762 177.612 286.766 177.023 286.768 176.517C286.77 176.264 286.771 176.031 286.771 175.862L286.772 175.66L286.772 175.605L286.772 175.591L286.772 175.587V175.586L286.772 175.586V175.586ZM285.678 220.542L285.678 220.543C285.435 221.192 285.185 221.84 284.929 222.486C284.576 223.336 283.906 224.014 283.061 224.378C282.215 224.742 281.262 224.762 280.402 224.435C279.979 224.266 279.592 224.016 279.265 223.699C278.937 223.38 278.676 223 278.495 222.581C278.314 222.161 278.217 221.71 278.211 221.253C278.205 220.796 278.288 220.343 278.457 219.918C278.698 219.314 278.93 218.706 279.16 218.097C279.487 217.234 280.142 216.535 280.982 216.154C281.822 215.773 282.779 215.74 283.644 216.063C284.072 216.223 284.464 216.466 284.798 216.778C285.131 217.09 285.401 217.465 285.59 217.881C285.778 218.297 285.884 218.746 285.899 219.203C285.914 219.659 285.839 220.114 285.678 220.542ZM223.715 281.531L223.716 281.531C224.119 281.313 224.56 281.177 225.015 281.13C225.471 281.083 225.931 281.127 226.369 281.258C226.808 281.389 227.216 281.606 227.571 281.895C227.925 282.184 228.219 282.54 228.436 282.943C228.653 283.346 228.788 283.788 228.834 284.243C228.88 284.699 228.836 285.159 228.704 285.597C228.571 286.035 228.354 286.443 228.064 286.797L228.451 287.113L228.064 286.797C227.774 287.151 227.417 287.444 227.014 287.66L227.013 287.661C226.414 287.983 225.813 288.301 225.208 288.615C224.382 289.01 223.437 289.077 222.563 288.802C221.689 288.527 220.952 287.932 220.5 287.136C220.291 286.733 220.163 286.292 220.123 285.84C220.083 285.385 220.133 284.926 220.27 284.49C220.407 284.055 220.629 283.65 220.922 283.3L220.54 282.979L220.922 283.3C221.216 282.95 221.576 282.661 221.981 282.45C222.562 282.148 223.14 281.842 223.715 281.531Z" stroke="#16191C"/>
<path d="M289.002 194.077C288.487 193.982 287.959 193.991 287.448 194.102C286.936 194.212 286.452 194.423 286.022 194.722C285.592 195.02 285.226 195.401 284.944 195.842C284.662 196.283 284.47 196.775 284.379 197.29C284.264 197.929 284.146 198.565 284.019 199.2C283.817 200.235 284.033 201.308 284.621 202.184C285.209 203.059 286.12 203.666 287.155 203.87C288.19 204.075 289.263 203.86 290.14 203.274C291.017 202.687 291.625 201.777 291.831 200.742C291.965 200.06 292.094 199.379 292.218 198.697C292.31 198.182 292.3 197.655 292.189 197.144C292.077 196.633 291.866 196.15 291.567 195.721C291.268 195.292 290.888 194.926 290.448 194.643C290.008 194.361 289.517 194.169 289.002 194.077Z" fill="#16191C"/>
<path d="M82.6245 261.337L82.6255 261.338C83.0851 261.792 83.5491 262.242 84.0177 262.689L84.0182 262.689C84.3492 263.004 84.6149 263.381 84.8001 263.799C84.9854 264.216 85.0865 264.666 85.0977 265.123C85.1089 265.579 85.03 266.034 84.8655 266.46C84.7015 266.885 84.4556 267.273 84.1419 267.603C83.496 268.257 82.6215 268.636 81.7025 268.658C80.7832 268.681 79.8912 268.346 79.214 267.724C78.7116 267.247 78.2143 266.765 77.7221 266.277C77.067 265.627 76.697 264.743 76.6935 263.821C76.69 262.898 77.0532 262.011 77.7033 261.356C78.3534 260.701 79.2371 260.331 80.16 260.327C81.0829 260.324 81.9694 260.687 82.6245 261.337ZM57.9654 226.36L57.9659 226.361C58.2402 226.948 58.5175 227.538 58.8031 228.124C59.2044 228.955 59.2593 229.911 58.9559 230.782C58.653 231.652 58.0175 232.367 57.1889 232.769C56.3534 233.151 55.4026 233.196 54.5347 232.894C53.6668 232.593 52.949 231.967 52.5309 231.149C52.2328 230.533 51.9399 229.914 51.6522 229.293L51.652 229.292C51.2631 228.455 51.2228 227.498 51.5399 226.631C51.8569 225.764 52.5054 225.058 53.3426 224.67C54.1799 224.281 55.1372 224.24 56.0042 224.557C56.8711 224.875 57.5766 225.523 57.9654 226.36ZM117.978 285.483L117.979 285.484C118.573 285.748 119.173 286.012 119.775 286.268C120.196 286.447 120.577 286.707 120.897 287.033C121.217 287.359 121.469 287.745 121.64 288.169C121.811 288.593 121.896 289.046 121.891 289.503C121.887 289.959 121.792 290.409 121.614 290.828C121.247 291.649 120.583 292.3 119.755 292.65C118.926 293.001 117.995 293.024 117.15 292.714L117.15 292.714L117.138 292.71C116.67 292.552 116.237 292.348 115.776 292.131C115.572 292.034 115.361 291.935 115.14 291.836C114.722 291.65 114.346 291.383 114.032 291.052C113.718 290.72 113.472 290.329 113.309 289.902C113.146 289.476 113.069 289.021 113.081 288.564C113.094 288.107 113.196 287.658 113.382 287.241C113.569 286.823 113.836 286.447 114.167 286.133C114.499 285.819 114.89 285.573 115.316 285.41C115.743 285.247 116.198 285.169 116.655 285.182C117.111 285.194 117.561 285.297 117.978 285.483Z" stroke="#FF7500"/>
<path d="M203.81 289.515C203.195 289.715 202.581 289.909 201.961 290.098C201.461 290.25 200.996 290.5 200.592 290.832C200.188 291.164 199.854 291.572 199.609 292.034C199.363 292.495 199.21 293 199.16 293.52C199.11 294.041 199.162 294.566 199.315 295.066C199.644 296.061 200.345 296.891 201.271 297.384C202.196 297.876 203.276 297.993 204.286 297.71C204.953 297.506 205.617 297.296 206.279 297.08C206.776 296.919 207.237 296.661 207.634 296.321C208.032 295.981 208.359 295.566 208.596 295.1C208.833 294.634 208.976 294.126 209.016 293.604C209.057 293.083 208.994 292.559 208.832 292.062C208.67 291.564 208.411 291.104 208.071 290.707C207.73 290.31 207.315 289.984 206.849 289.747C206.382 289.511 205.874 289.368 205.352 289.329C204.831 289.289 204.306 289.352 203.81 289.515ZM69.1323 244.663C68.5248 243.802 67.6003 243.216 66.5618 243.036C65.5232 242.855 64.4553 243.093 63.5924 243.699C62.7295 244.304 62.1421 245.228 61.959 246.266C61.7759 247.304 62.012 248.372 62.6157 249.237C63.0142 249.804 63.4205 250.369 63.8287 250.929C64.465 251.763 65.3994 252.32 66.4364 252.481C67.4734 252.643 68.5327 252.397 69.3927 251.795C69.8148 251.487 70.1721 251.099 70.4442 250.653C70.7162 250.207 70.8977 249.711 70.9782 249.195C71.0587 248.678 71.0367 248.151 70.9135 247.643C70.7902 247.136 70.5681 246.657 70.2598 246.235C69.8788 245.714 69.503 245.19 69.1323 244.663ZM101.115 275.669C100.57 275.309 100.03 274.947 99.4932 274.581C99.0621 274.283 98.5765 274.073 98.0641 273.963C97.5517 273.854 97.0227 273.846 96.5075 273.942C95.9922 274.037 95.5009 274.233 95.0617 274.519C94.6224 274.805 94.244 275.174 93.948 275.607C93.652 276.039 93.4444 276.526 93.337 277.038C93.2296 277.551 93.2245 278.08 93.3221 278.595C93.4197 279.11 93.6181 279.6 93.9057 280.038C94.1934 280.476 94.5647 280.853 94.9984 281.147C95.5701 281.538 96.1455 281.925 96.7248 282.309C97.6105 282.875 98.6819 283.074 99.7119 282.864C100.742 282.654 101.649 282.05 102.242 281.182C102.53 280.746 102.73 280.258 102.829 279.745C102.928 279.231 102.925 278.704 102.82 278.192C102.716 277.68 102.511 277.193 102.219 276.761C101.926 276.328 101.551 275.957 101.115 275.669Z" fill="#16191C"/>
<path d="M182.95 294.266C182.305 294.353 181.658 294.435 181.01 294.511C180.046 294.625 179.157 295.088 178.511 295.812C177.865 296.536 177.505 297.471 177.5 298.442C177.495 299.413 177.845 300.352 178.484 301.082C179.123 301.813 180.007 302.285 180.97 302.409C181.99 302.453 183.013 302.367 184.012 302.154C184.53 302.084 185.029 301.913 185.481 301.651C185.932 301.388 186.328 301.039 186.645 300.623C186.962 300.208 187.194 299.734 187.328 299.229C187.462 298.724 187.495 298.197 187.425 297.679C187.355 297.161 187.184 296.662 186.922 296.21C186.659 295.759 186.31 295.363 185.895 295.046C185.479 294.729 185.005 294.497 184.5 294.363C183.995 294.229 183.468 294.196 182.95 294.266Z" fill="#FF7500"/>
<mask id="path-18-outside-1_1880_35572" maskUnits="userSpaceOnUse" x="57.6406" y="66.5898" width="219" height="239" fill="black">
<rect fill="white" x="57.6406" y="66.5898" width="219" height="239"/>
<path d="M140.333 292.399C139.702 292.257 139.072 292.109 138.444 291.956C137.936 291.83 137.408 291.806 136.891 291.884C136.374 291.963 135.877 292.143 135.429 292.413C134.981 292.684 134.591 293.041 134.282 293.462C133.972 293.884 133.748 294.363 133.624 294.871C133.499 295.379 133.476 295.907 133.556 296.424C133.636 296.941 133.817 297.437 134.089 297.885C134.36 298.332 134.718 298.721 135.14 299.03C135.563 299.338 136.042 299.561 136.55 299.684C137.495 299.989 138.471 300.182 139.461 300.259C140.44 300.259 141.384 299.898 142.114 299.245C142.843 298.592 143.306 297.693 143.414 296.719C143.522 295.746 143.268 294.768 142.7 293.97C142.131 293.173 141.289 292.614 140.333 292.399ZM161.551 295.231C160.898 295.202 160.247 295.168 159.598 295.13C158.544 295.069 157.509 295.429 156.72 296.13C155.932 296.832 155.455 297.818 155.393 298.872C155.332 299.926 155.692 300.961 156.393 301.749C157.095 302.538 158.081 303.015 159.135 303.076C159.823 303.115 161.324 303.185 161.382 303.185C162.422 303.185 163.421 302.777 164.164 302.049C164.907 301.321 165.336 300.331 165.358 299.291C165.38 298.251 164.994 297.244 164.283 296.485C163.571 295.726 162.591 295.276 161.551 295.231ZM274.355 175.947C274.355 154.714 268.059 133.957 256.262 116.303C244.465 98.6478 227.699 84.8876 208.082 76.762C188.465 68.6364 166.879 66.5103 146.053 70.6527C125.228 74.7951 106.099 85.0199 91.0849 100.034C76.0707 115.048 65.8459 134.177 61.7035 155.003C57.5611 175.828 59.6871 197.414 67.8127 217.031C75.9384 236.648 89.6986 253.415 107.353 265.211C125.008 277.008 145.765 283.304 166.998 283.304C195.461 283.272 222.749 271.951 242.875 251.824C263.001 231.698 274.323 204.41 274.355 175.947ZM194.286 94.6234C193.869 91.2941 197.587 85.7298 200.668 82.4236C215.076 87.6464 228.088 96.1149 238.697 107.173C249.306 118.232 257.228 131.584 261.85 146.195C255.005 151.722 250.806 163.184 249.978 165.593C249.654 165.54 249.335 165.464 249.022 165.366C247.034 163.216 245.155 160.967 243.392 158.629C243.345 158.569 243.297 158.508 243.246 158.45C237.14 151.405 227.726 153.845 227.334 153.952C225.993 154.191 224.743 154.789 223.716 155.684C222.69 156.579 221.925 157.735 221.505 159.031C220.222 163.382 223.763 167.583 224.427 168.315C225.103 169.094 223.136 171.202 221.37 172.833L220.723 173.446C220.319 173.85 219.894 174.233 219.451 174.594C217.945 173.522 216.126 172.979 214.278 173.048C212.43 173.118 210.657 173.796 209.235 174.978C207.818 176.366 206.921 178.199 206.696 180.17C206.471 182.141 206.932 184.129 208 185.8C208.369 186.466 208.719 187.157 209.072 187.85C209.874 189.518 210.794 191.125 211.825 192.661C213.268 194.681 215.277 196.228 217.599 197.105C218.13 197.336 218.649 197.594 219.152 197.878C219.086 198.298 218.953 198.705 218.76 199.084L209.173 207.044C209.034 207.159 208.904 207.283 208.783 207.417C206.649 209.667 205.476 212.66 205.515 215.761C205.449 216.627 205.397 217.499 205.343 218.367C205.028 223.572 204.756 228.065 201.685 231.396C197.132 236.501 192.12 241.178 186.712 245.367C185.787 246.029 184.645 246.311 183.519 246.155C182.393 246 181.369 245.419 180.658 244.533C177.373 240.424 175.705 236.772 176.082 234.512C176.179 233.926 176.301 233.324 176.426 232.713C177.246 229.72 177.351 226.576 176.732 223.535C176.203 221.798 175.463 220.131 174.531 218.573C173.92 217.565 173.419 216.494 173.038 215.379C172.832 214.327 172.769 213.252 172.851 212.183C172.927 210.773 172.853 209.358 172.63 207.963C172.37 206.026 171.697 204.168 170.657 202.514C169.617 200.86 168.234 199.448 166.602 198.374C163.463 196.58 159.767 196.029 156.242 196.83C150.12 196.864 144.043 195.775 138.314 193.617C124.343 185.754 129.958 172.272 130.831 170.389C132.417 167.521 134.643 165.058 137.335 163.191C140.028 161.324 143.114 160.103 146.356 159.623C156.874 158.382 167.537 159.536 177.546 162.999C177.645 163.038 177.744 163.071 177.845 163.102C187.288 165.941 196.988 162.357 200.128 157.217C201.062 155.858 201.651 154.292 201.844 152.654C202.036 151.016 201.826 149.355 201.232 147.817C198.831 141.841 190.696 138.897 186.059 137.674C174.694 134.675 156.714 138.284 155.865 138.457C148.379 140.173 146.356 138.88 146.15 138.73C146.07 138.67 145.971 138.598 145.936 138.092C146.191 137.496 147.684 136.527 153.357 135.307C153.821 135.207 154.248 135.115 154.623 135.028C159.045 133.725 163.221 131.7 166.982 129.035C169.825 127.002 170.918 123.282 170.23 117.978C170.073 117.062 170.22 116.12 170.647 115.295C171.074 114.47 171.759 113.808 172.597 113.408C176.818 112.04 181.281 111.582 185.693 112.064C187.813 112.197 189.911 111.576 191.617 110.31C193.323 109.043 194.525 107.214 195.012 105.146C195.581 101.63 195.333 98.0288 194.286 94.6234ZM88.1096 236.329C79.7758 225.496 73.7773 213.053 70.4924 199.786C67.2076 186.519 66.7077 172.714 69.0243 159.244C70.855 159.865 72.4873 160.962 73.7534 162.423C73.8796 162.601 74.0212 162.768 74.1767 162.922C74.2485 162.995 81.4437 170.359 80.9952 184.676C80.8866 187.08 81.2874 189.48 82.1714 191.718C83.0554 193.956 84.4026 195.982 86.1247 197.663C87.4361 198.906 88.9118 199.964 90.5105 200.806C92.8609 202.226 94.6562 204.406 95.5995 206.985C96.5428 209.564 96.5777 212.387 95.6982 214.989C91.9109 221.59 89.3405 228.819 88.1096 236.329ZM166.998 275.352C157.177 275.356 147.41 273.9 138.017 271.031C147.039 267.544 163.222 264.054 178.847 274.621C174.915 275.099 170.958 275.343 166.998 275.352ZM189.368 272.782C163.187 249.181 133.545 263.823 127.578 267.182C116.367 262.312 106.147 255.423 97.4264 246.858C92.6649 239.479 99.8268 223.679 102.777 218.633C102.911 218.403 103.023 218.16 103.109 217.909C104.683 213.507 104.67 208.694 103.072 204.301C101.475 199.908 98.3924 196.211 94.3586 193.85C93.3511 193.325 92.4202 192.666 91.5919 191.889C90.6859 190.979 89.9818 189.889 89.5256 188.689C89.0693 187.489 88.871 186.206 88.9438 184.925C89.4544 168.597 81.5952 159.237 80.0479 157.559C77.5937 154.625 74.3361 152.471 70.6751 151.362C74.1691 137.806 80.4757 125.137 89.1853 114.178C97.8949 103.219 108.813 94.2142 121.229 87.7497C122.264 89.9843 122.466 92.515 121.8 94.8855C121.171 96.5708 118.641 97.6075 116.099 98.5239C111.848 99.9978 107.756 101.897 103.886 104.191C101.999 105.4 100.631 107.269 100.05 109.433C99.4695 111.597 99.7177 113.9 100.746 115.891C102.875 120.325 108.023 121.86 112.618 121.709C118.176 121.217 123.507 119.27 128.073 116.063C128.302 115.92 128.71 115.625 129.251 115.219C133.34 112.149 136.184 110.561 137.912 110.713C138.963 110.753 139.988 110.38 140.766 109.674C141.545 108.967 142.016 107.984 142.079 106.935C142.13 105.881 141.761 104.85 141.052 104.069C140.344 103.288 139.354 102.82 138.301 102.768C133.548 102.518 128.661 105.717 124.477 108.859C124.186 109.076 123.963 109.249 123.844 109.328C120.452 111.754 116.5 113.279 112.358 113.761C111.104 113.802 108.915 113.863 108.06 112.691C107.778 112.303 107.491 111.303 108.011 110.99C111.429 108.965 115.045 107.294 118.802 106.003C121.767 104.933 127.283 102.943 129.251 97.6658C130.649 93.4078 130.406 88.7815 128.572 84.6927C128.516 84.575 128.454 84.4602 128.386 84.3488C148.649 75.8049 171.174 74.224 192.431 79.8537C189.392 83.7687 185.41 90.2355 186.489 96.2292C186.522 96.4073 186.566 96.5831 186.623 96.7553C187.31 98.9211 187.52 101.21 187.238 103.465C187.164 103.673 187.023 103.851 186.838 103.97C186.653 104.09 186.433 104.145 186.213 104.127C180.58 103.567 174.893 104.229 169.539 106.067C167.091 107.139 165.061 108.984 163.761 111.32C162.462 113.656 161.964 116.353 162.344 118.999C162.593 120.209 162.555 121.46 162.233 122.653C159.354 124.672 156.18 126.233 152.823 127.281L151.685 127.532C147.063 128.526 137.444 130.596 138.007 138.701C138.062 139.956 138.396 141.183 138.985 142.293C139.574 143.402 140.403 144.367 141.411 145.116C144.737 147.584 150.041 147.943 157.545 146.231C162.212 145.277 176.072 143.262 184.031 145.363C186.217 145.911 188.332 146.713 190.333 147.754C192.458 148.895 194.938 150.454 193.342 153.07C192.389 154.628 186.64 157.386 180.27 155.526C169.109 151.6 157.193 150.299 145.447 151.725C140.928 152.357 136.62 154.035 132.863 156.626C129.107 159.217 126.008 162.648 123.811 166.647C123.778 166.709 123.745 166.772 123.716 166.836C120.031 174.429 117.583 191.277 134.689 200.701C141.708 203.739 149.329 205.127 156.968 204.761C158.893 204.724 160.645 204.01 162.455 205.161C163.12 205.676 163.674 206.322 164.08 207.06C164.486 207.797 164.737 208.61 164.818 209.448C164.924 210.297 164.952 211.154 164.901 212.008C164.777 213.869 164.941 215.738 165.386 217.549C165.922 219.248 166.653 220.879 167.565 222.409C168.18 223.42 168.681 224.496 169.058 225.618C169.295 227.469 169.15 229.348 168.631 231.14C168.489 231.841 168.351 232.532 168.239 233.204C167.458 237.889 169.547 243.371 174.447 249.497C176.461 251.961 179.337 253.567 182.492 253.989C185.646 254.41 188.843 253.616 191.434 251.766C197.249 247.278 202.638 242.264 207.532 236.786C212.522 231.373 212.926 224.719 213.281 218.848C213.402 216.86 213.128 214.585 214.489 212.968L224.383 204.751C225.445 203.704 226.201 202.386 226.569 200.94C227.144 199.318 227.253 197.567 226.885 195.886C226.624 194.821 226.139 193.824 225.462 192.961C224.785 192.098 223.932 191.389 222.96 190.881C222.235 190.477 221.542 190.161 220.874 189.86C219.861 189.555 218.971 188.935 218.333 188.091C217.556 186.984 214.652 181.24 214.629 181.038C214.892 181.128 215.14 181.258 215.364 181.422C220.3 184.901 224.62 180.739 226.243 179.172L226.763 178.677C233.092 172.835 234.329 167.597 230.396 163.059C230.017 162.62 229.692 162.139 229.425 161.625C229.823 161.53 234.442 160.535 237.169 163.582C243.042 171.785 246.291 172.845 246.291 172.845C253.868 175.264 256.54 170.723 257.34 168.659C259.135 163.919 261.432 159.385 264.193 155.134C269.664 180.641 264.883 207.276 250.884 229.288C236.884 251.3 214.788 266.922 189.368 272.782Z"/>
</mask>
<path d="M140.333 292.399C139.702 292.257 139.072 292.109 138.444 291.956C137.936 291.83 137.408 291.806 136.891 291.884C136.374 291.963 135.877 292.143 135.429 292.413C134.981 292.684 134.591 293.041 134.282 293.462C133.972 293.884 133.748 294.363 133.624 294.871C133.499 295.379 133.476 295.907 133.556 296.424C133.636 296.941 133.817 297.437 134.089 297.885C134.36 298.332 134.718 298.721 135.14 299.03C135.563 299.338 136.042 299.561 136.55 299.684C137.495 299.989 138.471 300.182 139.461 300.259C140.44 300.259 141.384 299.898 142.114 299.245C142.843 298.592 143.306 297.693 143.414 296.719C143.522 295.746 143.268 294.768 142.7 293.97C142.131 293.173 141.289 292.614 140.333 292.399ZM161.551 295.231C160.898 295.202 160.247 295.168 159.598 295.13C158.544 295.069 157.509 295.429 156.72 296.13C155.932 296.832 155.455 297.818 155.393 298.872C155.332 299.926 155.692 300.961 156.393 301.749C157.095 302.538 158.081 303.015 159.135 303.076C159.823 303.115 161.324 303.185 161.382 303.185C162.422 303.185 163.421 302.777 164.164 302.049C164.907 301.321 165.336 300.331 165.358 299.291C165.38 298.251 164.994 297.244 164.283 296.485C163.571 295.726 162.591 295.276 161.551 295.231ZM274.355 175.947C274.355 154.714 268.059 133.957 256.262 116.303C244.465 98.6478 227.699 84.8876 208.082 76.762C188.465 68.6364 166.879 66.5103 146.053 70.6527C125.228 74.7951 106.099 85.0199 91.0849 100.034C76.0707 115.048 65.8459 134.177 61.7035 155.003C57.5611 175.828 59.6871 197.414 67.8127 217.031C75.9384 236.648 89.6986 253.415 107.353 265.211C125.008 277.008 145.765 283.304 166.998 283.304C195.461 283.272 222.749 271.951 242.875 251.824C263.001 231.698 274.323 204.41 274.355 175.947ZM194.286 94.6234C193.869 91.2941 197.587 85.7298 200.668 82.4236C215.076 87.6464 228.088 96.1149 238.697 107.173C249.306 118.232 257.228 131.584 261.85 146.195C255.005 151.722 250.806 163.184 249.978 165.593C249.654 165.54 249.335 165.464 249.022 165.366C247.034 163.216 245.155 160.967 243.392 158.629C243.345 158.569 243.297 158.508 243.246 158.45C237.14 151.405 227.726 153.845 227.334 153.952C225.993 154.191 224.743 154.789 223.716 155.684C222.69 156.579 221.925 157.735 221.505 159.031C220.222 163.382 223.763 167.583 224.427 168.315C225.103 169.094 223.136 171.202 221.37 172.833L220.723 173.446C220.319 173.85 219.894 174.233 219.451 174.594C217.945 173.522 216.126 172.979 214.278 173.048C212.43 173.118 210.657 173.796 209.235 174.978C207.818 176.366 206.921 178.199 206.696 180.17C206.471 182.141 206.932 184.129 208 185.8C208.369 186.466 208.719 187.157 209.072 187.85C209.874 189.518 210.794 191.125 211.825 192.661C213.268 194.681 215.277 196.228 217.599 197.105C218.13 197.336 218.649 197.594 219.152 197.878C219.086 198.298 218.953 198.705 218.76 199.084L209.173 207.044C209.034 207.159 208.904 207.283 208.783 207.417C206.649 209.667 205.476 212.66 205.515 215.761C205.449 216.627 205.397 217.499 205.343 218.367C205.028 223.572 204.756 228.065 201.685 231.396C197.132 236.501 192.12 241.178 186.712 245.367C185.787 246.029 184.645 246.311 183.519 246.155C182.393 246 181.369 245.419 180.658 244.533C177.373 240.424 175.705 236.772 176.082 234.512C176.179 233.926 176.301 233.324 176.426 232.713C177.246 229.72 177.351 226.576 176.732 223.535C176.203 221.798 175.463 220.131 174.531 218.573C173.92 217.565 173.419 216.494 173.038 215.379C172.832 214.327 172.769 213.252 172.851 212.183C172.927 210.773 172.853 209.358 172.63 207.963C172.37 206.026 171.697 204.168 170.657 202.514C169.617 200.86 168.234 199.448 166.602 198.374C163.463 196.58 159.767 196.029 156.242 196.83C150.12 196.864 144.043 195.775 138.314 193.617C124.343 185.754 129.958 172.272 130.831 170.389C132.417 167.521 134.643 165.058 137.335 163.191C140.028 161.324 143.114 160.103 146.356 159.623C156.874 158.382 167.537 159.536 177.546 162.999C177.645 163.038 177.744 163.071 177.845 163.102C187.288 165.941 196.988 162.357 200.128 157.217C201.062 155.858 201.651 154.292 201.844 152.654C202.036 151.016 201.826 149.355 201.232 147.817C198.831 141.841 190.696 138.897 186.059 137.674C174.694 134.675 156.714 138.284 155.865 138.457C148.379 140.173 146.356 138.88 146.15 138.73C146.07 138.67 145.971 138.598 145.936 138.092C146.191 137.496 147.684 136.527 153.357 135.307C153.821 135.207 154.248 135.115 154.623 135.028C159.045 133.725 163.221 131.7 166.982 129.035C169.825 127.002 170.918 123.282 170.23 117.978C170.073 117.062 170.22 116.12 170.647 115.295C171.074 114.47 171.759 113.808 172.597 113.408C176.818 112.04 181.281 111.582 185.693 112.064C187.813 112.197 189.911 111.576 191.617 110.31C193.323 109.043 194.525 107.214 195.012 105.146C195.581 101.63 195.333 98.0288 194.286 94.6234ZM88.1096 236.329C79.7758 225.496 73.7773 213.053 70.4924 199.786C67.2076 186.519 66.7077 172.714 69.0243 159.244C70.855 159.865 72.4873 160.962 73.7534 162.423C73.8796 162.601 74.0212 162.768 74.1767 162.922C74.2485 162.995 81.4437 170.359 80.9952 184.676C80.8866 187.08 81.2874 189.48 82.1714 191.718C83.0554 193.956 84.4026 195.982 86.1247 197.663C87.4361 198.906 88.9118 199.964 90.5105 200.806C92.8609 202.226 94.6562 204.406 95.5995 206.985C96.5428 209.564 96.5777 212.387 95.6982 214.989C91.9109 221.59 89.3405 228.819 88.1096 236.329ZM166.998 275.352C157.177 275.356 147.41 273.9 138.017 271.031C147.039 267.544 163.222 264.054 178.847 274.621C174.915 275.099 170.958 275.343 166.998 275.352ZM189.368 272.782C163.187 249.181 133.545 263.823 127.578 267.182C116.367 262.312 106.147 255.423 97.4264 246.858C92.6649 239.479 99.8268 223.679 102.777 218.633C102.911 218.403 103.023 218.16 103.109 217.909C104.683 213.507 104.67 208.694 103.072 204.301C101.475 199.908 98.3924 196.211 94.3586 193.85C93.3511 193.325 92.4202 192.666 91.5919 191.889C90.6859 190.979 89.9818 189.889 89.5256 188.689C89.0693 187.489 88.871 186.206 88.9438 184.925C89.4544 168.597 81.5952 159.237 80.0479 157.559C77.5937 154.625 74.3361 152.471 70.6751 151.362C74.1691 137.806 80.4757 125.137 89.1853 114.178C97.8949 103.219 108.813 94.2142 121.229 87.7497C122.264 89.9843 122.466 92.515 121.8 94.8855C121.171 96.5708 118.641 97.6075 116.099 98.5239C111.848 99.9978 107.756 101.897 103.886 104.191C101.999 105.4 100.631 107.269 100.05 109.433C99.4695 111.597 99.7177 113.9 100.746 115.891C102.875 120.325 108.023 121.86 112.618 121.709C118.176 121.217 123.507 119.27 128.073 116.063C128.302 115.92 128.71 115.625 129.251 115.219C133.34 112.149 136.184 110.561 137.912 110.713C138.963 110.753 139.988 110.38 140.766 109.674C141.545 108.967 142.016 107.984 142.079 106.935C142.13 105.881 141.761 104.85 141.052 104.069C140.344 103.288 139.354 102.82 138.301 102.768C133.548 102.518 128.661 105.717 124.477 108.859C124.186 109.076 123.963 109.249 123.844 109.328C120.452 111.754 116.5 113.279 112.358 113.761C111.104 113.802 108.915 113.863 108.06 112.691C107.778 112.303 107.491 111.303 108.011 110.99C111.429 108.965 115.045 107.294 118.802 106.003C121.767 104.933 127.283 102.943 129.251 97.6658C130.649 93.4078 130.406 88.7815 128.572 84.6927C128.516 84.575 128.454 84.4602 128.386 84.3488C148.649 75.8049 171.174 74.224 192.431 79.8537C189.392 83.7687 185.41 90.2355 186.489 96.2292C186.522 96.4073 186.566 96.5831 186.623 96.7553C187.31 98.9211 187.52 101.21 187.238 103.465C187.164 103.673 187.023 103.851 186.838 103.97C186.653 104.09 186.433 104.145 186.213 104.127C180.58 103.567 174.893 104.229 169.539 106.067C167.091 107.139 165.061 108.984 163.761 111.32C162.462 113.656 161.964 116.353 162.344 118.999C162.593 120.209 162.555 121.46 162.233 122.653C159.354 124.672 156.18 126.233 152.823 127.281L151.685 127.532C147.063 128.526 137.444 130.596 138.007 138.701C138.062 139.956 138.396 141.183 138.985 142.293C139.574 143.402 140.403 144.367 141.411 145.116C144.737 147.584 150.041 147.943 157.545 146.231C162.212 145.277 176.072 143.262 184.031 145.363C186.217 145.911 188.332 146.713 190.333 147.754C192.458 148.895 194.938 150.454 193.342 153.07C192.389 154.628 186.64 157.386 180.27 155.526C169.109 151.6 157.193 150.299 145.447 151.725C140.928 152.357 136.62 154.035 132.863 156.626C129.107 159.217 126.008 162.648 123.811 166.647C123.778 166.709 123.745 166.772 123.716 166.836C120.031 174.429 117.583 191.277 134.689 200.701C141.708 203.739 149.329 205.127 156.968 204.761C158.893 204.724 160.645 204.01 162.455 205.161C163.12 205.676 163.674 206.322 164.08 207.06C164.486 207.797 164.737 208.61 164.818 209.448C164.924 210.297 164.952 211.154 164.901 212.008C164.777 213.869 164.941 215.738 165.386 217.549C165.922 219.248 166.653 220.879 167.565 222.409C168.18 223.42 168.681 224.496 169.058 225.618C169.295 227.469 169.15 229.348 168.631 231.14C168.489 231.841 168.351 232.532 168.239 233.204C167.458 237.889 169.547 243.371 174.447 249.497C176.461 251.961 179.337 253.567 182.492 253.989C185.646 254.41 188.843 253.616 191.434 251.766C197.249 247.278 202.638 242.264 207.532 236.786C212.522 231.373 212.926 224.719 213.281 218.848C213.402 216.86 213.128 214.585 214.489 212.968L224.383 204.751C225.445 203.704 226.201 202.386 226.569 200.94C227.144 199.318 227.253 197.567 226.885 195.886C226.624 194.821 226.139 193.824 225.462 192.961C224.785 192.098 223.932 191.389 222.96 190.881C222.235 190.477 221.542 190.161 220.874 189.86C219.861 189.555 218.971 188.935 218.333 188.091C217.556 186.984 214.652 181.24 214.629 181.038C214.892 181.128 215.14 181.258 215.364 181.422C220.3 184.901 224.62 180.739 226.243 179.172L226.763 178.677C233.092 172.835 234.329 167.597 230.396 163.059C230.017 162.62 229.692 162.139 229.425 161.625C229.823 161.53 234.442 160.535 237.169 163.582C243.042 171.785 246.291 172.845 246.291 172.845C253.868 175.264 256.54 170.723 257.34 168.659C259.135 163.919 261.432 159.385 264.193 155.134C269.664 180.641 264.883 207.276 250.884 229.288C236.884 251.3 214.788 266.922 189.368 272.782Z" stroke="#FF7500" stroke-width="3" mask="url(#path-18-outside-1_1880_35572)"/>
<path d="M3.97619 303.185C6.17218 303.185 7.95238 301.405 7.95238 299.209C7.95238 297.013 6.17218 295.232 3.97619 295.232C1.7802 295.232 0 297.013 0 299.209C0 301.405 1.7802 303.185 3.97619 303.185Z" fill="#16191C"/>
<path d="M21.8702 295.232H15.9059C14.8513 295.232 13.84 295.651 13.0943 296.397C12.3486 297.143 11.9297 298.154 11.9297 299.209C11.9297 300.263 12.3486 301.275 13.0943 302.02C13.84 302.766 14.8513 303.185 15.9059 303.185H21.8702C22.9247 303.185 23.9361 302.766 24.6818 302.02C25.4274 301.275 25.8464 300.263 25.8464 299.209C25.8464 298.154 25.4274 297.143 24.6818 296.397C23.9361 295.651 22.9247 295.232 21.8702 295.232ZM318.096 295.232H312.132C311.078 295.232 310.066 295.651 309.32 296.397C308.575 297.143 308.156 298.154 308.156 299.209C308.156 300.263 308.575 301.275 309.32 302.02C310.066 302.766 311.078 303.185 312.132 303.185H318.096C319.151 303.185 320.162 302.766 320.908 302.02C321.654 301.275 322.073 300.263 322.073 299.209C322.073 298.154 321.654 297.143 320.908 296.397C320.162 295.651 319.151 295.232 318.096 295.232Z" fill="#16191C"/>
<path d="M330.023 303.185C332.219 303.185 333.999 301.405 333.999 299.209C333.999 297.013 332.219 295.232 330.023 295.232C327.827 295.232 326.047 297.013 326.047 299.209C326.047 301.405 327.827 303.185 330.023 303.185Z" fill="#16191C"/>
<path d="M234.902 311.137H218.386C217.386 311.217 216.453 311.67 215.773 312.407C215.093 313.144 214.715 314.11 214.715 315.113C214.715 316.116 215.093 317.082 215.773 317.819C216.453 318.555 217.386 319.009 218.386 319.089H234.902C235.902 319.009 236.835 318.555 237.515 317.819C238.195 317.082 238.573 316.116 238.573 315.113C238.573 314.11 238.195 313.144 237.515 312.407C236.835 311.67 235.902 311.217 234.902 311.137ZM115.617 311.137H99.1C98.1004 311.217 97.1677 311.67 96.4875 312.407C95.8074 313.144 95.4297 314.11 95.4297 315.113C95.4297 316.116 95.8074 317.082 96.4875 317.819C97.1677 318.555 98.1004 319.009 99.1 319.089H115.617C116.616 319.009 117.549 318.555 118.229 317.819C118.909 317.082 119.287 316.116 119.287 315.113C119.287 314.11 118.909 313.144 118.229 312.407C117.549 311.67 116.616 311.217 115.617 311.137ZM206.763 311.137H127.239C126.185 311.137 125.173 311.556 124.428 312.301C123.682 313.047 123.263 314.058 123.263 315.113C123.263 316.167 123.682 317.179 124.428 317.925C125.173 318.67 126.185 319.089 127.239 319.089H158.93V323.065H143.144C142.089 323.065 141.078 323.484 140.332 324.23C139.587 324.976 139.168 325.987 139.168 327.041C139.168 328.096 139.587 329.107 140.332 329.853C141.078 330.599 142.089 331.018 143.144 331.018H192.846C193.901 331.018 194.912 330.599 195.658 329.853C196.404 329.107 196.823 328.096 196.823 327.041C196.823 325.987 196.404 324.976 195.658 324.23C194.912 323.484 193.901 323.065 192.846 323.065H175.073V319.089H206.763C207.818 319.089 208.829 318.67 209.575 317.925C210.32 317.179 210.739 316.167 210.739 315.113C210.739 314.058 210.32 313.047 209.575 312.301C208.829 311.556 207.818 311.137 206.763 311.137Z" fill="#FF7500"/>
<path d="M128.985 14.911C130.164 14.911 131.317 14.5612 132.298 13.9058C133.279 13.2505 134.043 12.319 134.495 11.2291C134.946 10.1393 135.064 8.94009 134.834 7.78314C134.604 6.62618 134.036 5.56344 133.202 4.72932C132.368 3.8952 131.305 3.32716 130.148 3.09703C128.991 2.86689 127.792 2.98501 126.702 3.43643C125.612 3.88785 124.681 4.65231 124.025 5.63313C123.37 6.61395 123.02 7.76709 123.02 8.94671C123.022 10.528 123.651 12.044 124.769 13.1621C125.887 14.2802 127.403 14.9092 128.985 14.911ZM128.985 5.96457C129.574 5.96457 130.151 6.13947 130.641 6.46715C131.132 6.79483 131.514 7.26058 131.74 7.80549C131.965 8.35041 132.025 8.95002 131.909 9.5285C131.794 10.107 131.51 10.6383 131.093 11.0554C130.676 11.4725 130.145 11.7565 129.566 11.8716C128.988 11.9866 128.388 11.9276 127.843 11.7019C127.298 11.4761 126.833 11.0939 126.505 10.6035C126.177 10.1131 126.002 9.53652 126.002 8.94671C126.003 8.15604 126.318 7.39797 126.877 6.83888C127.436 6.27979 128.194 5.96535 128.985 5.96457ZM322.676 122.631C321.89 122.631 321.121 122.864 320.467 123.301C319.814 123.738 319.304 124.359 319.003 125.086C318.702 125.812 318.623 126.612 318.777 127.383C318.93 128.154 319.309 128.863 319.865 129.419C320.421 129.975 321.129 130.354 321.901 130.507C322.672 130.661 323.471 130.582 324.198 130.281C324.925 129.98 325.546 129.47 325.983 128.816C326.419 128.162 326.653 127.394 326.653 126.607C326.651 125.553 326.232 124.542 325.487 123.797C324.741 123.052 323.731 122.632 322.676 122.631ZM322.676 128.595C322.283 128.595 321.899 128.479 321.572 128.26C321.245 128.042 320.99 127.731 320.84 127.368C320.689 127.005 320.65 126.605 320.727 126.219C320.803 125.834 320.993 125.48 321.271 125.201C321.549 124.923 321.903 124.734 322.289 124.657C322.674 124.581 323.074 124.62 323.437 124.771C323.801 124.921 324.111 125.176 324.329 125.503C324.548 125.83 324.664 126.214 324.664 126.607C324.664 127.134 324.454 127.64 324.082 128.013C323.709 128.385 323.203 128.595 322.676 128.595ZM261.851 44.7324C261.065 44.7324 260.296 44.9656 259.642 45.4025C258.988 45.8394 258.479 46.4604 258.178 47.187C257.877 47.9135 257.798 48.713 257.951 49.4843C258.105 50.2556 258.484 50.9641 259.04 51.5202C259.596 52.0763 260.304 52.455 261.076 52.6084C261.847 52.7618 262.646 52.6831 263.373 52.3821C264.099 52.0812 264.72 51.5716 265.157 50.9177C265.594 50.2638 265.827 49.495 265.827 48.7086C265.826 47.6544 265.407 46.6438 264.661 45.8984C263.916 45.1529 262.905 44.7336 261.851 44.7324ZM261.851 50.6967C261.458 50.6967 261.074 50.5801 260.747 50.3617C260.42 50.1432 260.165 49.8327 260.014 49.4694C259.864 49.1061 259.825 48.7064 259.901 48.3208C259.978 47.9351 260.167 47.5809 260.445 47.3028C260.723 47.0248 261.078 46.8354 261.463 46.7587C261.849 46.682 262.249 46.7214 262.612 46.8719C262.975 47.0223 263.286 47.2771 263.504 47.6041C263.723 47.931 263.839 48.3154 263.839 48.7086C263.839 49.2357 263.629 49.7411 263.256 50.1138C262.884 50.4866 262.378 50.6962 261.851 50.6967ZM314.724 18.8872C313.938 18.8872 313.169 19.1204 312.515 19.5573C311.861 19.9942 311.351 20.6152 311.051 21.3418C310.75 22.0683 310.671 22.8678 310.824 23.6391C310.978 24.4104 311.356 25.1189 311.912 25.675C312.469 26.231 313.177 26.6097 313.948 26.7632C314.72 26.9166 315.519 26.8378 316.246 26.5369C316.972 26.2359 317.593 25.7263 318.03 25.0724C318.467 24.4185 318.7 23.6498 318.7 22.8634C318.699 21.8092 318.28 20.7985 317.534 20.0531C316.789 19.3077 315.778 18.8884 314.724 18.8872ZM314.724 24.8515C314.331 24.8515 313.946 24.7349 313.62 24.5164C313.293 24.298 313.038 23.9875 312.887 23.6242C312.737 23.2609 312.697 22.8612 312.774 22.4755C312.851 22.0899 313.04 21.7356 313.318 21.4576C313.596 21.1795 313.951 20.9902 314.336 20.9135C314.722 20.8368 315.122 20.8761 315.485 21.0266C315.848 21.1771 316.159 21.4319 316.377 21.7589C316.596 22.0858 316.712 22.4702 316.712 22.8634C316.712 23.3905 316.502 23.8959 316.129 24.2686C315.757 24.6413 315.251 24.8509 314.724 24.8515ZM20.8196 26.8396C20.8196 26.0532 20.5864 25.2844 20.1495 24.6305C19.7126 23.9766 19.0916 23.467 18.365 23.166C17.6384 22.8651 16.839 22.7864 16.0677 22.9398C15.2964 23.0932 14.5879 23.4719 14.0318 24.028C13.4757 24.5841 13.097 25.2925 12.9436 26.0639C12.7902 26.8352 12.8689 27.6346 13.1699 28.3612C13.4708 29.0877 13.9804 29.7087 14.6343 30.1456C15.2882 30.5826 16.057 30.8158 16.8434 30.8158C17.8976 30.8146 18.9082 30.3952 19.6536 29.6498C20.3991 28.9044 20.8184 27.8937 20.8196 26.8396ZM14.8553 26.8396C14.8553 26.4464 14.9719 26.062 15.1903 25.735C15.4088 25.4081 15.7193 25.1533 16.0826 25.0028C16.4458 24.8523 16.8456 24.813 17.2312 24.8897C17.6169 24.9664 17.9711 25.1557 18.2492 25.4338C18.5272 25.7118 18.7166 26.0661 18.7933 26.4517C18.87 26.8374 18.8306 27.2371 18.6801 27.6004C18.5297 27.9637 18.2748 28.2742 17.9479 28.4926C17.621 28.7111 17.2366 28.8277 16.8434 28.8277C16.3163 28.8271 15.8109 28.6175 15.4382 28.2448C15.0654 27.8721 14.8558 27.3667 14.8553 26.8396Z" fill="#16191C"/>
<path d="M21.6449 107.853L24.6012 103.966L22.7343 102.908L20.8357 107.262H20.7741L18.8456 102.938L16.947 104.028L19.8715 107.823V107.884L15.2969 107.294V109.409L19.9013 108.819V108.88L16.947 112.674L18.7184 113.795L20.7423 109.409H20.8039L22.6707 113.763L24.631 112.644L21.6449 108.91V108.849L26.3407 109.409V107.294L21.6449 107.916V107.853Z" fill="#FF7500"/>
<path d="M86.3006 49.0117L84.5987 51.1966L85.6186 51.8427L86.7837 49.3158H86.8194L87.895 51.8248L89.0223 51.1787L87.3026 49.0296V48.9938L90.0083 49.3158V48.0991L87.3026 48.457V48.4212L89.0064 46.1826L87.9308 45.5723L86.8373 48.0793H86.8016L85.6922 45.5902L84.5987 46.2164L86.2827 48.4033V48.4391L83.6484 48.0991V49.3158L86.3006 48.9759V49.0117Z" fill="#FF7500"/>
<path d="M305.066 76.4012V74.3276L300.461 74.938V74.8763L303.36 71.0632L301.529 70.0254L299.668 74.2958H299.606L297.716 70.0552L295.853 71.1228L298.722 74.8465V74.9082L294.234 74.3276V76.4012L298.751 75.8227V75.8843L295.853 79.606L297.59 80.7034L299.576 76.4012H299.636L301.467 80.6736L303.39 79.5762L300.461 75.9141V75.8525L305.066 76.4012Z" fill="#FF7500"/>
<path d="M213.464 20.4545L215.965 17.1642L214.384 16.2695L212.78 19.9535H212.726L211.096 16.2954L209.487 17.2179L211.963 20.4286V20.4803L208.094 19.9813V21.7706L211.988 21.2716V21.3233L209.487 24.534L210.988 25.4824L212.7 21.7706H212.752L214.33 25.4545L215.99 24.5082L213.464 21.3491V21.2974L217.436 21.7706V19.9813L213.464 20.5062V20.4545Z" fill="#FF7500"/>
</svg>
