<svg width="96" height="97" viewBox="0 0 96 97" fill="none" xmlns="http://www.w3.org/2000/svg">
<mask id="path-1-inside-1_289_3631" fill="white">
<path d="M0.895415 0.869468C13.3915 0.983648 25.7428 3.558 37.244 8.44555C48.7453 13.3331 59.1712 20.4381 67.9266 29.355C76.6819 38.2718 83.5952 48.8258 88.2718 60.4144C92.9484 72.003 95.2966 84.3993 95.1824 96.8954L0.0259531 96.026L0.895415 0.869468Z"/>
</mask>
<path d="M0.895415 0.869468C13.3915 0.983648 25.7428 3.558 37.244 8.44555C48.7453 13.3331 59.1712 20.4381 67.9266 29.355C76.6819 38.2718 83.5952 48.8258 88.2718 60.4144C92.9484 72.003 95.2966 84.3993 95.1824 96.8954L0.0259531 96.026L0.895415 0.869468Z" fill="#FF7500" stroke="#081E4D" stroke-width="6" mask="url(#path-1-inside-1_289_3631)"/>
</svg>
