<svg width="276" height="64" viewBox="0 0 276 64" fill="none" xmlns="http://www.w3.org/2000/svg">
<path fill-rule="evenodd" clip-rule="evenodd" d="M32 64C56.42 57.31 60 35.32 60 13.42C53.78 12.39 45.48 7.23 44.44 0H19.56C18.52 7.23 10.22 12.39 4 13.42C4 35.32 7.58 57.31 32 64ZM32 21C34.1756 21 36.3023 21.6451 38.1113 22.8538C39.9202 24.0625 41.3301 25.7805 42.1627 27.7905C42.9952 29.8005 43.2131 32.0122 42.7886 34.146C42.3642 36.2798 41.3166 38.2398 39.7782 39.7782C38.2398 41.3166 36.2798 42.3642 34.146 42.7886C32.0122 43.2131 29.8005 42.9952 27.7905 42.1627C25.7805 41.3301 24.0625 39.9202 22.8538 38.1113C21.6451 36.3023 21 34.1756 21 32C21 29.0826 22.1589 26.2847 24.2218 24.2218C26.2847 22.1589 29.0826 21 32 21ZM38.71 28.71L30 37.41L25.29 32.7L26.7 31.29L30 34.59L37.29 27.3L38.7 28.71H38.71ZM22 5H42V7H22V5ZM32 16C35.1645 16 38.2579 16.9384 40.8891 18.6965C43.5203 20.4546 45.5711 22.9534 46.7821 25.8771C47.9931 28.8007 48.3099 32.0177 47.6926 35.1214C47.0752 38.2251 45.5513 41.0761 43.3137 43.3137C41.0761 45.5513 38.2251 47.0752 35.1214 47.6926C32.0177 48.3099 28.8007 47.9931 25.8771 46.7821C22.9534 45.5711 20.4546 43.5203 18.6965 40.8891C16.9384 38.2579 16 35.1645 16 32C16 27.7565 17.6857 23.6869 20.6863 20.6863C23.6869 17.6857 27.7565 16 32 16Z" fill="#FF7500"/>
<path d="M83.238 28.162C82.29 28.162 81.474 27.988 80.79 27.64C80.106 27.292 79.578 26.806 79.206 26.182C78.846 25.546 78.66 24.814 78.648 23.986H80.88C80.868 24.442 80.958 24.838 81.15 25.174C81.342 25.51 81.618 25.774 81.978 25.966C82.338 26.146 82.758 26.236 83.238 26.236C83.718 26.236 84.132 26.152 84.48 25.984C84.84 25.804 85.116 25.558 85.308 25.246C85.512 24.934 85.614 24.562 85.614 24.13C85.614 23.806 85.56 23.53 85.452 23.302C85.356 23.062 85.212 22.864 85.02 22.708C84.84 22.54 84.618 22.414 84.354 22.33C84.102 22.246 83.82 22.204 83.508 22.204H81.978V20.494H83.346C83.802 20.494 84.18 20.416 84.48 20.26C84.792 20.092 85.026 19.864 85.182 19.576C85.338 19.288 85.416 18.97 85.416 18.622C85.416 18.226 85.326 17.896 85.146 17.632C84.966 17.356 84.714 17.146 84.39 17.002C84.078 16.858 83.706 16.786 83.274 16.786C82.806 16.786 82.398 16.876 82.05 17.056C81.714 17.236 81.456 17.488 81.276 17.812C81.096 18.136 81 18.526 80.988 18.982H78.756C78.768 18.142 78.96 17.416 79.332 16.804C79.716 16.192 80.25 15.718 80.934 15.382C81.63 15.034 82.44 14.86 83.364 14.86C84.024 14.86 84.618 14.944 85.146 15.112C85.686 15.268 86.142 15.496 86.514 15.796C86.898 16.096 87.192 16.462 87.396 16.894C87.612 17.314 87.72 17.788 87.72 18.316C87.72 18.784 87.636 19.216 87.468 19.612C87.312 19.996 87.084 20.326 86.784 20.602C86.496 20.878 86.16 21.088 85.776 21.232V21.322C86.232 21.442 86.616 21.646 86.928 21.934C87.252 22.21 87.498 22.552 87.666 22.96C87.834 23.368 87.918 23.824 87.918 24.328C87.918 25.096 87.72 25.768 87.324 26.344C86.928 26.92 86.376 27.37 85.668 27.694C84.972 28.006 84.162 28.162 83.238 28.162ZM94.2461 28.144C93.5021 28.144 92.8301 27.994 92.2301 27.694C91.6421 27.382 91.1381 26.938 90.7181 26.362C90.2981 25.786 89.9801 25.09 89.7641 24.274C89.5481 23.458 89.4401 22.528 89.4401 21.484C89.4401 20.404 89.5541 19.456 89.7821 18.64C90.0101 17.824 90.3341 17.134 90.7541 16.57C91.1861 16.006 91.7021 15.58 92.3021 15.292C92.9021 15.004 93.5621 14.86 94.2821 14.86C95.0261 14.86 95.6921 15.01 96.2801 15.31C96.8681 15.61 97.3721 16.048 97.7921 16.624C98.2121 17.2 98.5301 17.896 98.7461 18.712C98.9621 19.528 99.0701 20.458 99.0701 21.502C99.0701 22.57 98.9501 23.518 98.7101 24.346C98.4821 25.174 98.1521 25.87 97.7201 26.434C97.3001 26.998 96.7961 27.424 96.2081 27.712C95.6321 28 94.9781 28.144 94.2461 28.144ZM94.2641 26.236C94.6481 26.236 94.9961 26.152 95.3081 25.984C95.6201 25.816 95.8901 25.546 96.1181 25.174C96.3461 24.802 96.5201 24.316 96.6401 23.716C96.7601 23.104 96.8201 22.36 96.8201 21.484C96.8201 20.62 96.7601 19.888 96.6401 19.288C96.5201 18.676 96.3461 18.19 96.1181 17.83C95.8901 17.458 95.6201 17.188 95.3081 17.02C94.9961 16.852 94.6481 16.768 94.2641 16.768C93.8681 16.768 93.5141 16.852 93.2021 17.02C92.8901 17.188 92.6201 17.458 92.3921 17.83C92.1641 18.19 91.9901 18.67 91.8701 19.27C91.7501 19.87 91.6901 20.608 91.6901 21.484C91.6901 22.36 91.7501 23.104 91.8701 23.716C91.9901 24.316 92.1641 24.802 92.3921 25.174C92.6201 25.546 92.8901 25.816 93.2021 25.984C93.5141 26.152 93.8681 26.236 94.2641 26.236ZM100.196 24.166V22.258H105.848V24.166H100.196ZM107.901 28V14.878H113.337C114.621 14.878 115.707 15.154 116.595 15.706C117.495 16.246 118.173 17.008 118.629 17.992C119.097 18.976 119.331 20.128 119.331 21.448C119.331 22.42 119.199 23.314 118.935 24.13C118.671 24.934 118.281 25.624 117.765 26.2C117.261 26.776 116.637 27.22 115.893 27.532C115.149 27.844 114.297 28 113.337 28H107.901ZM110.277 25.948H112.977C113.553 25.948 114.081 25.864 114.561 25.696C115.041 25.528 115.455 25.264 115.803 24.904C116.151 24.532 116.421 24.058 116.613 23.482C116.805 22.906 116.901 22.21 116.901 21.394C116.901 20.326 116.733 19.468 116.397 18.82C116.061 18.16 115.599 17.68 115.011 17.38C114.435 17.068 113.757 16.912 112.977 16.912H110.277V25.948ZM119.573 28L124.091 14.878H127.439L131.957 28H129.491L128.501 25.12H123.029L122.057 28H119.573ZM123.605 23.284H127.943L126.647 19.594L125.819 17.056H125.729L124.883 19.594L123.605 23.284ZM135.121 28V22.924L130.261 14.878H132.979L136.255 20.602H136.381L139.693 14.878H142.393L137.497 22.924V28H135.121ZM147.873 28V14.878H151.527L154.659 24.202H154.749L157.881 14.878H161.535V28H159.231V22.33L159.285 17.38H159.159L155.703 28H153.705L150.285 17.38H150.141L150.195 22.366V28H147.873ZM170.243 28.162C169.259 28.162 168.365 28.012 167.561 27.712C166.769 27.4 166.085 26.956 165.509 26.38C164.933 25.804 164.489 25.102 164.177 24.274C163.865 23.434 163.709 22.486 163.709 21.43C163.709 20.374 163.865 19.432 164.177 18.604C164.489 17.776 164.933 17.074 165.509 16.498C166.085 15.922 166.769 15.484 167.561 15.184C168.365 14.872 169.259 14.716 170.243 14.716C171.227 14.716 172.115 14.872 172.907 15.184C173.711 15.484 174.401 15.928 174.977 16.516C175.565 17.092 176.009 17.794 176.309 18.622C176.621 19.438 176.777 20.374 176.777 21.43C176.777 22.486 176.621 23.434 176.309 24.274C175.997 25.102 175.553 25.804 174.977 26.38C174.401 26.956 173.711 27.4 172.907 27.712C172.115 28.012 171.227 28.162 170.243 28.162ZM170.243 26.11C171.083 26.11 171.809 25.93 172.421 25.57C173.033 25.21 173.501 24.682 173.825 23.986C174.161 23.29 174.329 22.438 174.329 21.43C174.329 20.674 174.233 20.008 174.041 19.432C173.849 18.856 173.573 18.37 173.213 17.974C172.865 17.578 172.439 17.278 171.935 17.074C171.431 16.87 170.867 16.768 170.243 16.768C169.415 16.768 168.695 16.948 168.083 17.308C167.471 17.656 166.997 18.178 166.661 18.874C166.337 19.57 166.175 20.422 166.175 21.43C166.175 22.186 166.271 22.858 166.463 23.446C166.655 24.034 166.925 24.526 167.273 24.922C167.633 25.318 168.059 25.618 168.551 25.822C169.055 26.014 169.619 26.11 170.243 26.11ZM178.969 28V14.878H181.849L188.005 24.76H188.113L188.023 20.476V14.878H190.309V28H187.573L181.435 18.28H181.309L181.381 22.204V28H178.969ZM193.33 28V14.878H202.69V16.93H195.184L195.706 16.408V20.872L195.184 20.35H201.808V22.276H195.184L195.706 21.754V26.47L195.184 25.948H202.726V28H193.33ZM208.087 28V22.924L203.227 14.878H205.945L209.221 20.602H209.347L212.659 14.878H215.359L210.463 22.924V28H208.087ZM214.155 24.166V22.258H219.807V24.166H214.155ZM221.86 28V14.878H228.106C228.994 14.878 229.726 15.022 230.302 15.31C230.89 15.586 231.334 15.976 231.634 16.48C231.934 16.984 232.084 17.572 232.084 18.244C232.084 18.7 232.006 19.126 231.85 19.522C231.694 19.918 231.466 20.254 231.166 20.53C230.866 20.806 230.494 21.004 230.05 21.124V21.25C230.578 21.346 231.016 21.544 231.364 21.844C231.712 22.132 231.976 22.486 232.156 22.906C232.348 23.314 232.444 23.77 232.444 24.274C232.444 25.078 232.258 25.762 231.886 26.326C231.526 26.878 231.004 27.298 230.32 27.586C229.636 27.862 228.808 28 227.836 28H221.86ZM224.164 26.146H227.584C228.424 26.146 229.036 25.96 229.42 25.588C229.816 25.216 230.014 24.73 230.014 24.13C230.014 23.482 229.81 22.996 229.402 22.672C229.006 22.348 228.454 22.186 227.746 22.186H224.164V26.146ZM224.164 20.404H227.638C228.106 20.404 228.49 20.326 228.79 20.17C229.09 20.014 229.312 19.804 229.456 19.54C229.612 19.264 229.69 18.94 229.69 18.568C229.69 17.968 229.492 17.512 229.096 17.2C228.7 16.876 228.166 16.714 227.494 16.714H224.164V20.404ZM232.794 28L237.312 14.878H240.66L245.178 28H242.712L241.722 25.12H236.25L235.278 28H232.794ZM236.826 23.284H241.164L239.868 19.594L239.04 17.056H238.95L238.104 19.594L236.826 23.284ZM251.928 28.162C250.956 28.162 250.068 28.012 249.264 27.712C248.472 27.4 247.788 26.956 247.212 26.38C246.636 25.792 246.192 25.084 245.88 24.256C245.568 23.428 245.412 22.486 245.412 21.43C245.412 20.386 245.568 19.45 245.88 18.622C246.192 17.794 246.636 17.092 247.212 16.516C247.788 15.928 248.472 15.484 249.264 15.184C250.068 14.872 250.956 14.716 251.928 14.716C253.032 14.716 254.016 14.908 254.88 15.292C255.744 15.676 256.44 16.216 256.968 16.912C257.508 17.596 257.844 18.406 257.976 19.342H255.546C255.438 18.826 255.216 18.376 254.88 17.992C254.556 17.608 254.142 17.308 253.638 17.092C253.146 16.876 252.576 16.768 251.928 16.768C251.1 16.768 250.38 16.948 249.768 17.308C249.168 17.656 248.7 18.178 248.364 18.874C248.04 19.57 247.878 20.422 247.878 21.43C247.878 22.198 247.974 22.876 248.166 23.464C248.358 24.04 248.628 24.526 248.976 24.922C249.324 25.318 249.744 25.618 250.236 25.822C250.74 26.014 251.304 26.11 251.928 26.11C252.564 26.11 253.134 26.002 253.638 25.786C254.142 25.57 254.562 25.27 254.898 24.886C255.234 24.49 255.45 24.034 255.546 23.518H257.976C257.868 24.454 257.538 25.27 256.986 25.966C256.446 26.662 255.744 27.202 254.88 27.586C254.016 27.97 253.032 28.162 251.928 28.162ZM260.145 28V14.878H262.521V21.43L268.245 14.878H271.107L266.175 20.332L271.197 28H268.371L264.537 22.042L262.521 24.238V28H260.145ZM85.128 50.162C84.12 50.162 83.214 50.006 82.41 49.694C81.618 49.37 80.94 48.914 80.376 48.326C79.824 47.726 79.398 47.012 79.098 46.184C78.81 45.356 78.666 44.438 78.666 43.43C78.666 42.374 78.822 41.438 79.134 40.622C79.458 39.794 79.908 39.092 80.484 38.516C81.06 37.928 81.75 37.484 82.554 37.184C83.358 36.872 84.252 36.716 85.236 36.716C86.376 36.716 87.378 36.908 88.242 37.292C89.106 37.664 89.796 38.192 90.312 38.876C90.84 39.548 91.158 40.34 91.266 41.252H88.818C88.71 40.724 88.488 40.28 88.152 39.92C87.828 39.548 87.414 39.266 86.91 39.074C86.418 38.87 85.86 38.768 85.236 38.768C84.408 38.768 83.682 38.948 83.058 39.308C82.434 39.656 81.954 40.178 81.618 40.874C81.282 41.57 81.114 42.422 81.114 43.43C81.114 44.186 81.204 44.864 81.384 45.464C81.576 46.052 81.852 46.544 82.212 46.94C82.572 47.336 82.998 47.642 83.49 47.858C83.994 48.062 84.552 48.164 85.164 48.164C85.968 48.164 86.664 48.02 87.252 47.732C87.84 47.432 88.296 47.006 88.62 46.454C88.944 45.89 89.106 45.224 89.106 44.456V43.988L89.808 44.816H85.2V43.088H91.518V44.186C91.518 45.098 91.362 45.926 91.05 46.67C90.75 47.402 90.318 48.026 89.754 48.542C89.202 49.058 88.53 49.46 87.738 49.748C86.958 50.024 86.088 50.162 85.128 50.162ZM99.0791 50.162C97.9271 50.162 96.9431 49.958 96.1271 49.55C95.3111 49.13 94.6871 48.542 94.2551 47.786C93.8231 47.018 93.6071 46.112 93.6071 45.068V36.878H95.9651V45.05C95.9651 45.71 96.0911 46.262 96.3431 46.706C96.5951 47.15 96.9551 47.486 97.4231 47.714C97.8911 47.93 98.4491 48.038 99.0971 48.038C99.7931 48.038 100.369 47.918 100.825 47.678C101.281 47.438 101.623 47.096 101.851 46.652C102.091 46.208 102.211 45.674 102.211 45.05V36.878H104.569V45.068C104.569 46.124 104.347 47.036 103.903 47.804C103.459 48.56 102.829 49.142 102.013 49.55C101.197 49.958 100.219 50.162 99.0791 50.162ZM105.317 50L109.835 36.878H113.183L117.701 50H115.235L114.245 47.12H108.773L107.801 50H105.317ZM109.349 45.284H113.687L112.391 41.594L111.563 39.056H111.473L110.627 41.594L109.349 45.284ZM119.256 50V36.878H125.556C126.288 36.878 126.93 36.962 127.482 37.13C128.046 37.286 128.514 37.526 128.886 37.85C129.258 38.162 129.534 38.546 129.714 39.002C129.906 39.446 130.002 39.968 130.002 40.568C130.002 41.348 129.798 42.02 129.39 42.584C128.994 43.148 128.436 43.526 127.716 43.718V43.844C128.4 43.976 128.898 44.252 129.21 44.672C129.534 45.092 129.696 45.668 129.696 46.4V48.524C129.696 48.764 129.702 49.01 129.714 49.262C129.738 49.502 129.804 49.748 129.912 50H127.518C127.446 49.832 127.392 49.622 127.356 49.37C127.32 49.118 127.302 48.83 127.302 48.506V46.814C127.302 46.406 127.242 46.064 127.122 45.788C127.002 45.512 126.786 45.302 126.474 45.158C126.162 45.002 125.718 44.924 125.142 44.924H121.632V50H119.256ZM121.632 43.016H125.214C126.066 43.016 126.672 42.818 127.032 42.422C127.392 42.026 127.572 41.516 127.572 40.892C127.572 40.4 127.47 40.01 127.266 39.722C127.074 39.422 126.798 39.206 126.438 39.074C126.09 38.93 125.682 38.858 125.214 38.858H121.632V43.016ZM130.841 50L135.359 36.878H138.707L143.225 50H140.759L139.769 47.12H134.297L133.325 50H130.841ZM134.873 45.284H139.211L137.915 41.594L137.087 39.056H136.997L136.151 41.594L134.873 45.284ZM144.78 50V36.878H147.66L153.816 46.76H153.924L153.834 42.476V36.878H156.12V50H153.384L147.246 40.28H147.12L147.192 44.204V50H144.78ZM161.787 50V38.948H157.791V36.878H168.231V38.948H164.163V50H161.787ZM169.881 50V36.878H179.241V38.93H171.735L172.257 38.408V42.872L171.735 42.35H178.359V44.276H171.735L172.257 43.754V48.47L171.735 47.948H179.277V50H169.881ZM181.676 50V36.878H191.036V38.93H183.53L184.052 38.408V42.872L183.53 42.35H190.154V44.276H183.53L184.052 43.754V48.47L183.53 47.948H191.072V50H181.676Z" fill="#FF7500"/>
</svg>
