<svg width="499" height="62" viewBox="0 0 499 62" fill="none" xmlns="http://www.w3.org/2000/svg">
<path d="M15.8 31.378C13.504 31.378 11.418 31.028 9.542 30.328C7.694 29.6 6.098 28.564 4.754 27.22C3.41 25.876 2.374 24.238 1.646 22.306C0.918 20.346 0.554 18.134 0.554 15.67C0.554 13.206 0.918 11.008 1.646 9.076C2.374 7.144 3.41 5.506 4.754 4.162C6.098 2.818 7.694 1.796 9.542 1.096C11.418 0.367999 13.504 0.00399852 15.8 0.00399852C18.096 0.00399852 20.168 0.367999 22.016 1.096C23.892 1.796 25.502 2.832 26.846 4.204C28.218 5.548 29.254 7.186 29.954 9.118C30.682 11.022 31.046 13.206 31.046 15.67C31.046 18.134 30.682 20.346 29.954 22.306C29.226 24.238 28.19 25.876 26.846 27.22C25.502 28.564 23.892 29.6 22.016 30.328C20.168 31.028 18.096 31.378 15.8 31.378ZM15.8 26.59C17.76 26.59 19.454 26.17 20.882 25.33C22.31 24.49 23.402 23.258 24.158 21.634C24.942 20.01 25.334 18.022 25.334 15.67C25.334 13.906 25.11 12.352 24.662 11.008C24.214 9.664 23.57 8.53 22.73 7.606C21.918 6.682 20.924 5.982 19.748 5.506C18.572 5.03 17.256 4.792 15.8 4.792C13.868 4.792 12.188 5.212 10.76 6.052C9.332 6.864 8.226 8.082 7.442 9.706C6.686 11.33 6.308 13.318 6.308 15.67C6.308 17.434 6.532 19.002 6.98 20.374C7.428 21.746 8.058 22.894 8.87 23.818C9.71 24.742 10.704 25.442 11.852 25.918C13.028 26.366 14.344 26.59 15.8 26.59ZM43.2588 31.378C41.5508 31.378 40.0948 31.042 38.8908 30.37C37.6868 29.698 36.7768 28.704 36.1608 27.388C35.5448 26.044 35.2368 24.42 35.2368 22.516V8.656H40.4868V21.13C40.4868 22.39 40.6548 23.468 40.9908 24.364C41.3268 25.232 41.8448 25.904 42.5448 26.38C43.2448 26.856 44.1548 27.094 45.2748 27.094C46.3948 27.094 47.3608 26.814 48.1728 26.254C49.0128 25.694 49.6568 24.952 50.1048 24.028C50.5528 23.076 50.7768 22.012 50.7768 20.836V8.656H56.0268V31H50.9868L50.7768 26.674H50.5248C49.9648 28.186 49.0268 29.348 47.7108 30.16C46.4228 30.972 44.9388 31.378 43.2588 31.378ZM61.4507 31V8.656H66.1967L66.4487 12.394H66.6167C67.1207 10.966 67.9327 9.944 69.0527 9.328C70.2007 8.684 71.5027 8.362 72.9587 8.362C73.2107 8.362 73.4347 8.362 73.6307 8.362C73.8547 8.362 74.0647 8.362 74.2607 8.362V13.318C74.0927 13.318 73.8827 13.318 73.6307 13.318C73.4067 13.29 73.1547 13.276 72.8747 13.276C71.5307 13.276 70.4107 13.5 69.5147 13.948C68.6187 14.368 67.9327 14.984 67.4567 15.796C67.0087 16.608 66.7567 17.602 66.7007 18.778V31H61.4507ZM87.5534 31V0.381999H109.351V5.17H92.1314L93.0974 4.204V14.872L92.1314 13.906H107.671V18.442H92.1314L93.0974 17.476V31H87.5534ZM122.248 31.378C119.98 31.378 118.048 30.916 116.452 29.992C114.884 29.04 113.68 27.71 112.84 26.002C112 24.266 111.58 22.25 111.58 19.954C111.58 17.574 112 15.516 112.84 13.78C113.68 12.016 114.884 10.658 116.452 9.706C118.02 8.754 119.882 8.278 122.038 8.278C124.502 8.278 126.518 8.824 128.086 9.916C129.682 10.98 130.83 12.464 131.53 14.368C132.23 16.272 132.468 18.456 132.244 20.92H116.704C116.704 22.348 116.928 23.552 117.376 24.532C117.852 25.484 118.496 26.212 119.308 26.716C120.148 27.192 121.128 27.43 122.248 27.43C123.564 27.43 124.656 27.122 125.524 26.506C126.392 25.862 126.952 25.036 127.204 24.028H132.118C131.95 25.54 131.418 26.856 130.522 27.976C129.626 29.068 128.464 29.908 127.036 30.496C125.608 31.084 124.012 31.378 122.248 31.378ZM116.704 18.106L116.242 17.56H127.624L127.12 18.148C127.176 16.776 126.994 15.656 126.574 14.788C126.154 13.92 125.552 13.276 124.768 12.856C123.984 12.436 123.074 12.226 122.038 12.226C120.974 12.226 120.05 12.45 119.266 12.898C118.482 13.346 117.866 14.018 117.418 14.914C116.97 15.782 116.732 16.846 116.704 18.106ZM144.521 31.378C143.177 31.378 141.945 31.14 140.825 30.664C139.733 30.16 138.781 29.418 137.969 28.438C137.185 27.458 136.583 26.254 136.163 24.826C135.743 23.37 135.533 21.704 135.533 19.828C135.533 17.28 135.897 15.152 136.625 13.444C137.381 11.708 138.431 10.406 139.775 9.538C141.147 8.67 142.729 8.236 144.521 8.236C145.753 8.236 146.845 8.432 147.797 8.824C148.777 9.188 149.617 9.706 150.317 10.378C151.017 11.05 151.549 11.848 151.913 12.772H152.207L152.417 8.656H157.457V31H152.207V26.842H151.913C151.381 28.214 150.471 29.32 149.183 30.16C147.895 30.972 146.341 31.378 144.521 31.378ZM146.495 27.094C147.755 27.094 148.791 26.8 149.603 26.212C150.443 25.624 151.073 24.868 151.493 23.944C151.913 22.992 152.123 21.998 152.123 20.962V18.652C152.123 17.588 151.913 16.594 151.493 15.67C151.073 14.718 150.443 13.962 149.603 13.402C148.791 12.814 147.755 12.52 146.495 12.52C145.375 12.52 144.395 12.786 143.555 13.318C142.715 13.85 142.057 14.662 141.581 15.754C141.105 16.818 140.867 18.176 140.867 19.828C140.867 21.424 141.105 22.768 141.581 23.86C142.057 24.952 142.715 25.764 143.555 26.296C144.395 26.828 145.375 27.094 146.495 27.094ZM170.017 31C168.645 31 167.567 30.804 166.783 30.412C166.027 29.992 165.495 29.404 165.187 28.648C164.879 27.892 164.725 26.982 164.725 25.918V12.898H160.609V8.656H164.725V2.356L169.933 1.81V8.656H174.679V12.898H169.933V24.952C169.933 25.652 170.087 26.128 170.395 26.38C170.703 26.604 171.179 26.716 171.823 26.716H174.679V31H170.017ZM186.526 31.378C184.818 31.378 183.362 31.042 182.158 30.37C180.954 29.698 180.044 28.704 179.428 27.388C178.812 26.044 178.504 24.42 178.504 22.516V8.656H183.754V21.13C183.754 22.39 183.922 23.468 184.258 24.364C184.594 25.232 185.112 25.904 185.812 26.38C186.512 26.856 187.422 27.094 188.542 27.094C189.662 27.094 190.628 26.814 191.44 26.254C192.28 25.694 192.924 24.952 193.372 24.028C193.82 23.076 194.044 22.012 194.044 20.836V8.656H199.294V31H194.254L194.044 26.674H193.792C193.232 28.186 192.294 29.348 190.978 30.16C189.69 30.972 188.206 31.378 186.526 31.378ZM204.718 31V8.656H209.464L209.716 12.394H209.884C210.388 10.966 211.2 9.944 212.32 9.328C213.468 8.684 214.77 8.362 216.226 8.362C216.478 8.362 216.702 8.362 216.898 8.362C217.122 8.362 217.332 8.362 217.528 8.362V13.318C217.36 13.318 217.15 13.318 216.898 13.318C216.674 13.29 216.422 13.276 216.142 13.276C214.798 13.276 213.678 13.5 212.782 13.948C211.886 14.368 211.2 14.984 210.724 15.796C210.276 16.608 210.024 17.602 209.968 18.778V31H204.718ZM229.668 31.378C227.4 31.378 225.468 30.916 223.872 29.992C222.304 29.04 221.1 27.71 220.26 26.002C219.42 24.266 219 22.25 219 19.954C219 17.574 219.42 15.516 220.26 13.78C221.1 12.016 222.304 10.658 223.872 9.706C225.44 8.754 227.302 8.278 229.458 8.278C231.922 8.278 233.938 8.824 235.506 9.916C237.102 10.98 238.25 12.464 238.95 14.368C239.65 16.272 239.888 18.456 239.664 20.92H224.124C224.124 22.348 224.348 23.552 224.796 24.532C225.272 25.484 225.916 26.212 226.728 26.716C227.568 27.192 228.548 27.43 229.668 27.43C230.984 27.43 232.076 27.122 232.944 26.506C233.812 25.862 234.372 25.036 234.624 24.028H239.538C239.37 25.54 238.838 26.856 237.942 27.976C237.046 29.068 235.884 29.908 234.456 30.496C233.028 31.084 231.432 31.378 229.668 31.378ZM224.124 18.106L223.662 17.56H235.044L234.54 18.148C234.596 16.776 234.414 15.656 233.994 14.788C233.574 13.92 232.972 13.276 232.188 12.856C231.404 12.436 230.494 12.226 229.458 12.226C228.394 12.226 227.47 12.45 226.686 12.898C225.902 13.346 225.286 14.018 224.838 14.914C224.39 15.782 224.152 16.846 224.124 18.106ZM251.941 31.378C250.597 31.378 249.365 31.14 248.245 30.664C247.153 30.16 246.201 29.418 245.389 28.438C244.605 27.458 244.003 26.254 243.583 24.826C243.163 23.37 242.953 21.704 242.953 19.828C242.953 17.28 243.317 15.152 244.045 13.444C244.801 11.708 245.851 10.406 247.195 9.538C248.567 8.67 250.149 8.236 251.941 8.236C253.173 8.236 254.265 8.432 255.217 8.824C256.197 9.188 257.037 9.706 257.737 10.378C258.437 11.05 258.969 11.848 259.333 12.772H259.627V0.381999H264.877L264.835 31H259.795L259.627 26.842H259.333C258.801 28.214 257.891 29.32 256.603 30.16C255.315 30.972 253.761 31.378 251.941 31.378ZM253.915 27.094C255.175 27.094 256.211 26.8 257.023 26.212C257.863 25.624 258.493 24.868 258.913 23.944C259.333 22.992 259.543 21.998 259.543 20.962V18.652C259.543 17.84 259.417 17.07 259.165 16.342C258.941 15.614 258.591 14.97 258.115 14.41C257.667 13.822 257.079 13.36 256.351 13.024C255.651 12.688 254.839 12.52 253.915 12.52C252.795 12.52 251.815 12.786 250.975 13.318C250.135 13.85 249.477 14.662 249.001 15.754C248.525 16.818 248.287 18.176 248.287 19.828C248.287 21.424 248.525 22.768 249.001 23.86C249.477 24.952 250.135 25.764 250.975 26.296C251.815 26.828 252.795 27.094 253.915 27.094ZM293.598 31.378C291.33 31.378 289.258 31.028 287.382 30.328C285.534 29.6 283.938 28.564 282.594 27.22C281.25 25.848 280.214 24.196 279.486 22.264C278.758 20.332 278.394 18.134 278.394 15.67C278.394 13.234 278.758 11.05 279.486 9.118C280.214 7.186 281.25 5.548 282.594 4.204C283.938 2.832 285.534 1.796 287.382 1.096C289.258 0.367999 291.33 0.00399852 293.598 0.00399852C296.174 0.00399852 298.47 0.451999 300.486 1.348C302.502 2.244 304.126 3.504 305.358 5.128C306.618 6.724 307.402 8.614 307.71 10.798H302.04C301.788 9.594 301.27 8.544 300.486 7.648C299.73 6.752 298.764 6.052 297.588 5.548C296.44 5.044 295.11 4.792 293.598 4.792C291.666 4.792 289.986 5.212 288.558 6.052C287.158 6.864 286.066 8.082 285.282 9.706C284.526 11.33 284.148 13.318 284.148 15.67C284.148 17.462 284.372 19.044 284.82 20.416C285.268 21.76 285.898 22.894 286.71 23.818C287.522 24.742 288.502 25.442 289.65 25.918C290.826 26.366 292.142 26.59 293.598 26.59C295.082 26.59 296.412 26.338 297.588 25.834C298.764 25.33 299.744 24.63 300.528 23.734C301.312 22.81 301.816 21.746 302.04 20.542H307.71C307.458 22.726 306.688 24.63 305.4 26.254C304.14 27.878 302.502 29.138 300.486 30.034C298.47 30.93 296.174 31.378 293.598 31.378ZM319.863 31.378C318.519 31.378 317.287 31.14 316.167 30.664C315.075 30.16 314.123 29.418 313.311 28.438C312.527 27.458 311.925 26.254 311.505 24.826C311.085 23.37 310.875 21.704 310.875 19.828C310.875 17.28 311.239 15.152 311.967 13.444C312.723 11.708 313.773 10.406 315.117 9.538C316.489 8.67 318.071 8.236 319.863 8.236C321.095 8.236 322.187 8.432 323.139 8.824C324.119 9.188 324.959 9.706 325.659 10.378C326.359 11.05 326.891 11.848 327.255 12.772H327.549L327.759 8.656H332.799V31H327.549V26.842H327.255C326.723 28.214 325.813 29.32 324.525 30.16C323.237 30.972 321.683 31.378 319.863 31.378ZM321.837 27.094C323.097 27.094 324.133 26.8 324.945 26.212C325.785 25.624 326.415 24.868 326.835 23.944C327.255 22.992 327.465 21.998 327.465 20.962V18.652C327.465 17.588 327.255 16.594 326.835 15.67C326.415 14.718 325.785 13.962 324.945 13.402C324.133 12.814 323.097 12.52 321.837 12.52C320.717 12.52 319.737 12.786 318.897 13.318C318.057 13.85 317.399 14.662 316.923 15.754C316.447 16.818 316.209 18.176 316.209 19.828C316.209 21.424 316.447 22.768 316.923 23.86C317.399 24.952 318.057 25.764 318.897 26.296C319.737 26.828 320.717 27.094 321.837 27.094ZM346.577 31.42C344.589 31.42 342.881 31.112 341.453 30.496C340.025 29.852 338.919 28.97 338.135 27.85C337.379 26.73 337.001 25.428 337.001 23.944H342.167C342.195 25.232 342.629 26.17 343.469 26.758C344.309 27.346 345.401 27.64 346.745 27.64C348.061 27.64 349.055 27.402 349.727 26.926C350.427 26.422 350.777 25.736 350.777 24.868C350.777 24.168 350.623 23.636 350.315 23.272C350.007 22.88 349.503 22.586 348.803 22.39C348.103 22.166 347.179 21.97 346.031 21.802C344.155 21.522 342.587 21.144 341.327 20.668C340.067 20.164 339.129 19.478 338.513 18.61C337.897 17.742 337.589 16.594 337.589 15.166C337.589 13.766 337.967 12.548 338.723 11.512C339.479 10.476 340.543 9.678 341.915 9.118C343.287 8.53 344.897 8.236 346.745 8.236C348.537 8.236 350.091 8.53 351.407 9.118C352.751 9.678 353.787 10.49 354.515 11.554C355.271 12.59 355.663 13.836 355.691 15.292H350.525C350.525 14.508 350.357 13.878 350.021 13.402C349.713 12.898 349.265 12.534 348.677 12.31C348.089 12.086 347.403 11.974 346.619 11.974C345.443 11.974 344.519 12.226 343.847 12.73C343.175 13.206 342.839 13.864 342.839 14.704C342.839 15.32 343.007 15.824 343.343 16.216C343.707 16.58 344.281 16.874 345.065 17.098C345.849 17.322 346.857 17.518 348.089 17.686C349.433 17.882 350.595 18.134 351.575 18.442C352.583 18.75 353.423 19.17 354.095 19.702C354.767 20.206 355.271 20.85 355.607 21.634C355.971 22.39 356.153 23.314 356.153 24.406C356.153 26.646 355.271 28.382 353.507 29.614C351.771 30.818 349.461 31.42 346.577 31.42ZM369.819 31.378C367.551 31.378 365.619 30.916 364.023 29.992C362.455 29.04 361.251 27.71 360.411 26.002C359.571 24.266 359.151 22.25 359.151 19.954C359.151 17.574 359.571 15.516 360.411 13.78C361.251 12.016 362.455 10.658 364.023 9.706C365.591 8.754 367.453 8.278 369.609 8.278C372.073 8.278 374.089 8.824 375.657 9.916C377.253 10.98 378.401 12.464 379.101 14.368C379.801 16.272 380.039 18.456 379.815 20.92H364.275C364.275 22.348 364.499 23.552 364.947 24.532C365.423 25.484 366.067 26.212 366.879 26.716C367.719 27.192 368.699 27.43 369.819 27.43C371.135 27.43 372.227 27.122 373.095 26.506C373.963 25.862 374.523 25.036 374.775 24.028H379.689C379.521 25.54 378.989 26.856 378.093 27.976C377.197 29.068 376.035 29.908 374.607 30.496C373.179 31.084 371.583 31.378 369.819 31.378ZM364.275 18.106L363.813 17.56H375.195L374.691 18.148C374.747 16.776 374.565 15.656 374.145 14.788C373.725 13.92 373.123 13.276 372.339 12.856C371.555 12.436 370.645 12.226 369.609 12.226C368.545 12.226 367.621 12.45 366.837 12.898C366.053 13.346 365.437 14.018 364.989 14.914C364.541 15.782 364.303 16.846 364.275 18.106ZM395.252 31.378C392.536 31.378 390.254 30.958 388.406 30.118C386.586 29.278 385.214 28.102 384.29 26.59C383.366 25.078 382.89 23.356 382.862 21.424H388.532C388.56 22.572 388.812 23.566 389.288 24.406C389.792 25.246 390.548 25.904 391.556 26.38C392.564 26.856 393.866 27.094 395.462 27.094C397.366 27.094 398.892 26.744 400.04 26.044C401.188 25.316 401.762 24.252 401.762 22.852C401.762 22.04 401.636 21.368 401.384 20.836C401.132 20.276 400.712 19.814 400.124 19.45C399.536 19.086 398.752 18.778 397.772 18.526C396.82 18.274 395.616 18.022 394.16 17.77C392.424 17.49 390.884 17.126 389.54 16.678C388.224 16.202 387.118 15.628 386.222 14.956C385.326 14.284 384.654 13.472 384.206 12.52C383.758 11.54 383.534 10.378 383.534 9.034C383.534 7.186 383.996 5.59 384.92 4.246C385.872 2.902 387.216 1.866 388.952 1.138C390.688 0.381999 392.76 0.00399852 395.168 0.00399852C397.548 0.00399852 399.578 0.381999 401.258 1.138C402.966 1.894 404.282 2.958 405.206 4.33C406.13 5.674 406.592 7.242 406.592 9.034H401.006C400.95 7.942 400.656 7.046 400.124 6.346C399.592 5.618 398.878 5.086 397.982 4.75C397.114 4.414 396.106 4.246 394.958 4.246C393.782 4.246 392.76 4.414 391.892 4.75C391.052 5.086 390.408 5.562 389.96 6.178C389.512 6.766 389.288 7.48 389.288 8.32C389.288 9.356 389.54 10.154 390.044 10.714C390.576 11.246 391.416 11.666 392.564 11.974C393.74 12.282 395.252 12.59 397.1 12.898C398.416 13.122 399.69 13.402 400.922 13.738C402.182 14.074 403.302 14.578 404.282 15.25C405.29 15.894 406.088 16.79 406.676 17.938C407.264 19.058 407.558 20.514 407.558 22.306C407.558 24.098 407.096 25.68 406.172 27.052C405.248 28.424 403.876 29.488 402.056 30.244C400.236 31 397.968 31.378 395.252 31.378ZM419.023 31C417.651 31 416.573 30.804 415.789 30.412C415.033 29.992 414.501 29.404 414.193 28.648C413.885 27.892 413.731 26.982 413.731 25.918V12.898H409.615V8.656H413.731V2.356L418.939 1.81V8.656H423.685V12.898H418.939V24.952C418.939 25.652 419.093 26.128 419.401 26.38C419.709 26.604 420.185 26.716 420.829 26.716H423.685V31H419.023ZM435.532 31.378C433.824 31.378 432.368 31.042 431.164 30.37C429.96 29.698 429.05 28.704 428.434 27.388C427.818 26.044 427.51 24.42 427.51 22.516V8.656H432.76V21.13C432.76 22.39 432.928 23.468 433.264 24.364C433.6 25.232 434.118 25.904 434.818 26.38C435.518 26.856 436.428 27.094 437.548 27.094C438.668 27.094 439.634 26.814 440.446 26.254C441.286 25.694 441.93 24.952 442.378 24.028C442.826 23.076 443.05 22.012 443.05 20.836V8.656H448.3V31H443.26L443.05 26.674H442.798C442.238 28.186 441.3 29.348 439.984 30.16C438.696 30.972 437.212 31.378 435.532 31.378ZM461.08 31.378C459.736 31.378 458.504 31.14 457.384 30.664C456.292 30.16 455.34 29.418 454.528 28.438C453.744 27.458 453.142 26.254 452.722 24.826C452.302 23.37 452.092 21.704 452.092 19.828C452.092 17.28 452.456 15.152 453.184 13.444C453.94 11.708 454.99 10.406 456.334 9.538C457.706 8.67 459.288 8.236 461.08 8.236C462.312 8.236 463.404 8.432 464.356 8.824C465.336 9.188 466.176 9.706 466.876 10.378C467.576 11.05 468.108 11.848 468.472 12.772H468.766V0.381999H474.016L473.974 31H468.934L468.766 26.842H468.472C467.94 28.214 467.03 29.32 465.742 30.16C464.454 30.972 462.9 31.378 461.08 31.378ZM463.054 27.094C464.314 27.094 465.35 26.8 466.162 26.212C467.002 25.624 467.632 24.868 468.052 23.944C468.472 22.992 468.682 21.998 468.682 20.962V18.652C468.682 17.84 468.556 17.07 468.304 16.342C468.08 15.614 467.73 14.97 467.254 14.41C466.806 13.822 466.218 13.36 465.49 13.024C464.79 12.688 463.978 12.52 463.054 12.52C461.934 12.52 460.954 12.786 460.114 13.318C459.274 13.85 458.616 14.662 458.14 15.754C457.664 16.818 457.426 18.176 457.426 19.828C457.426 21.424 457.664 22.768 458.14 23.86C458.616 24.952 459.274 25.764 460.114 26.296C460.954 26.828 461.934 27.094 463.054 27.094ZM478.596 38.014V33.688H481.074C481.746 33.688 482.306 33.604 482.754 33.436C483.202 33.268 483.58 33.002 483.888 32.638C484.196 32.274 484.448 31.812 484.644 31.252L485.862 28.102V30.454L476.748 8.656H482.502L487.08 21.424L487.92 23.944H488.13L488.886 21.424L493.212 8.656H498.798L489.768 32.47C489.264 33.898 488.634 35.018 487.878 35.83C487.15 36.642 486.296 37.202 485.316 37.51C484.364 37.846 483.272 38.014 482.04 38.014H478.596Z" fill="#16191C"/>
<line x1="273" y1="60" x2="499" y2="60" stroke="#FF7500" stroke-width="4"/>
</svg>
