<svg width="154" height="27" viewBox="0 0 154 27" fill="none" xmlns="http://www.w3.org/2000/svg">
<g clip-path="url(#clip0_1880_39296)">
<path d="M38.5954 4.33567L36.1723 7.85306C35.3642 7.53069 34.5022 7.36487 33.6323 7.36442C33.1212 7.36205 32.6116 7.41896 32.1139 7.53403C32.0415 7.54725 31.97 7.56478 31.8998 7.58653C31.138 7.76358 30.4178 8.08729 29.7797 8.53957C29.7039 8.58607 29.631 8.63732 29.5616 8.69303C28.996 9.10861 28.4976 9.60843 28.0836 10.1751C26.4884 12.1741 25.281 15.0211 23.1892 18.0256C22.9832 18.3285 22.7852 18.6354 22.5309 18.9423C20.9048 21.2074 18.7433 23.0345 16.2391 24.2608L15.8353 24.4586C15.4759 24.6122 15.1124 24.7454 14.745 24.8625C14.5026 24.9352 14.2604 24.9998 14.0141 25.0563C13.3203 25.225 12.6114 25.3238 11.898 25.3511H11.4457C9.6281 25.355 7.83736 24.9127 6.23072 24.0627C4.62409 23.2129 3.25071 21.9815 2.23119 20.4768C1.21168 18.972 0.577217 17.2401 0.383528 15.4328C0.18984 13.6255 0.442851 11.7984 1.12034 10.1118C1.79783 8.42524 2.87907 6.93079 4.26911 5.75973C5.65916 4.58869 7.31547 3.77684 9.09259 3.3955C10.8697 3.01418 12.7133 3.07503 14.4614 3.57271C16.2095 4.07038 17.8087 4.98968 19.1185 6.24985L16.6955 9.78742C15.9453 8.90686 14.9856 8.22924 13.9047 7.817C12.8239 7.40476 11.6566 7.27114 10.5106 7.42848C9.36458 7.5858 8.27656 8.029 7.34678 8.71726C6.41701 9.40552 5.67539 10.3167 5.19025 11.3669C4.70511 12.417 4.49204 13.5724 4.57067 14.7264C4.64931 15.8806 5.01713 16.9964 5.64024 17.971C6.26334 18.9456 7.12171 19.7478 8.13624 20.3036C9.15078 20.8593 10.2889 21.1509 11.4457 21.1513C11.5963 21.1594 11.7473 21.1594 11.898 21.1513C12.826 21.094 13.7322 20.8451 14.5592 20.4203H14.5996C16.9499 19.2936 18.8641 16.8586 22.1311 11.2573C22.2724 11.0191 22.4097 10.7808 22.5349 10.5345C23.618 8.55867 25.1006 6.82994 26.8882 5.45833L27.0901 5.30892C27.1749 5.2443 27.2678 5.18373 27.3566 5.11911C27.5707 4.97777 27.7847 4.8445 27.9907 4.71528C28.1967 4.58605 28.5197 4.42048 28.7782 4.29126L29.0325 4.16607L29.4001 4.00454L29.8927 3.8107C31.3035 3.30901 32.8009 3.09693 34.2955 3.18714C35.79 3.27734 37.2512 3.66797 38.5913 4.33567H38.5954Z" fill="#5022ED"/>
<path d="M44.7414 12.1465V14.2626C44.7414 14.6417 44.7211 15.0204 44.6808 15.3973C44.6505 15.7172 44.6033 16.0354 44.5394 16.3504C44.1714 18.2938 43.2901 20.1032 41.9871 21.5913C40.6842 23.0795 39.007 24.192 37.1293 24.8136C35.2516 25.4352 33.2419 25.5433 31.3084 25.1268C29.3748 24.7101 27.5879 23.784 26.1328 22.4442L28.5558 18.9228C29.3683 19.821 30.4041 20.488 31.5579 20.8565C32.7116 21.2251 33.9423 21.2818 35.125 21.021C36.3077 20.7601 37.4004 20.191 38.2921 19.3714C39.1839 18.5519 39.8429 17.511 40.2023 16.3544H33.3089L36.2004 12.1465H44.7414Z" fill="#5022ED"/>
<path d="M69.401 11.9901C68.7402 11.3711 67.863 11.0362 66.9579 11.0572C66.5591 11.0375 66.1608 11.1016 65.7883 11.2452C65.4158 11.3888 65.0776 11.6089 64.7954 11.8911C64.5131 12.1734 64.2931 12.5116 64.1494 12.8841C64.0058 13.2565 63.9417 13.6549 63.9614 14.0536C63.9532 14.4592 64.0284 14.8622 64.1822 15.2377C64.3358 15.6131 64.5649 15.9531 64.8552 16.2365C65.1454 16.52 65.4908 16.7409 65.8697 16.8858C66.2488 17.0305 66.6534 17.096 67.0587 17.0783C67.9351 17.075 68.7775 16.7404 69.4172 16.1414V19.0691C68.3161 19.6273 67.0727 19.8414 65.8484 19.6836C64.6242 19.5259 63.4757 19.0036 62.552 18.1848C62.0008 17.6597 61.5653 17.0254 61.2733 16.3224C60.9813 15.6193 60.839 14.8631 60.8559 14.1021C60.826 13.3474 60.9521 12.5948 61.2266 11.8912C61.5011 11.1877 61.9179 10.5485 62.451 10.0135C62.9841 9.47857 63.6218 9.0595 64.3243 8.78253C65.027 8.50556 65.7791 8.37668 66.5338 8.40397C67.5291 8.38726 68.5143 8.60588 69.4091 9.04203L69.401 11.9901Z" fill="black"/>
<path d="M82.1257 9.90447C82.6993 10.4366 83.155 11.0832 83.4632 11.8025C83.7713 12.5218 83.9252 13.2976 83.9146 14.0801C83.9217 14.8594 83.766 15.6317 83.4572 16.3473C83.1484 17.0629 82.6935 17.706 82.1216 18.2356C81.213 19.0714 79.8359 19.7337 77.8207 19.7337C75.8057 19.7337 74.4327 19.0714 73.52 18.2356C72.9535 17.6996 72.5023 17.0538 72.194 16.3376C71.8856 15.6213 71.7266 14.8498 71.7266 14.07C71.7266 13.2903 71.8856 12.5187 72.194 11.8024C72.5023 11.0862 72.9535 10.4404 73.52 9.90447C74.4327 9.06854 75.8057 8.40625 77.8207 8.40625C79.8359 8.40625 81.2171 9.06854 82.1257 9.90447ZM80.8254 14.0801C80.8254 13.4867 80.6494 12.9066 80.3197 12.4132C79.9899 11.9197 79.5214 11.5351 78.973 11.308C78.4248 11.0809 77.8215 11.0215 77.2394 11.1373C76.6575 11.2531 76.1229 11.5388 75.7032 11.9585C75.2836 12.3781 74.9978 12.9127 74.882 13.4947C74.7662 14.0768 74.8257 14.6801 75.0528 15.2283C75.2799 15.7766 75.6644 16.2452 76.1579 16.5749C76.6513 16.9047 77.2314 17.0806 77.8248 17.0806C78.2199 17.0844 78.6118 17.0093 78.9776 16.8599C79.3432 16.7104 79.6756 16.4895 79.9549 16.2101C80.2343 15.9308 80.4552 15.5985 80.6047 15.2328C80.754 14.867 80.8291 14.4752 80.8254 14.0801Z" fill="black"/>
<path d="M88.3633 2.45508C88.8379 2.45825 89.2921 2.64818 89.6277 2.98375C89.9632 3.31932 90.1532 3.77354 90.1564 4.2481C90.1564 4.60272 90.0512 4.94938 89.8541 5.24424C89.6572 5.5391 89.3771 5.76892 89.0495 5.90463C88.7218 6.04033 88.3613 6.07585 88.0136 6.00666C87.6657 5.93748 87.3462 5.7667 87.0955 5.51595C86.8447 5.26519 86.674 4.94571 86.6047 4.5979C86.5356 4.25009 86.5711 3.88957 86.7068 3.56194C86.8425 3.23431 87.0723 2.95428 87.3672 2.75725C87.6621 2.56024 88.0087 2.45508 88.3633 2.45508ZM89.8616 8.74679V19.3878H86.8651V8.74679H89.8616Z" fill="black"/>
<path d="M93.3047 8.74978H96.3051V10.1309C96.6676 9.5932 97.1583 9.15433 97.733 8.85395C98.3076 8.55358 98.948 8.40119 99.5964 8.41056C100.529 8.41056 101.906 8.68113 102.742 9.7109C103.477 10.6195 103.578 11.6776 103.578 12.7114V19.3908H100.578V13.5917C100.578 13.0021 100.553 12.0652 100.012 11.4999C99.8275 11.3207 99.6087 11.1805 99.3687 11.0876C99.1286 10.9946 98.8724 10.9508 98.6151 10.9588C98.252 10.9369 97.8896 11.0122 97.5652 11.1768C97.2409 11.3415 96.9662 11.5896 96.7696 11.8957C96.4157 12.523 96.2541 13.2407 96.3051 13.9592V19.3908H93.3047V8.74978Z" fill="black"/>
<path d="M115.164 8.74903H118.16V18.8973C118.16 20.5127 118.015 22.2169 116.686 23.5414C115.951 24.2804 114.667 25.0397 112.487 25.0397C110.423 25.0397 109.191 24.4258 108.504 23.8281C107.608 22.9697 107.006 21.8504 106.784 20.6298H110.015C110.131 21.1183 110.387 21.5619 110.753 21.9059C111.268 22.3137 111.916 22.5151 112.571 22.4713C113.241 22.5001 113.895 22.2619 114.388 21.809C115.078 21.1467 115.151 20.3108 115.151 19.4506V17.9645C114.808 18.5187 114.327 18.9735 113.754 19.2838C113.18 19.5942 112.536 19.749 111.884 19.7333C111.204 19.753 110.526 19.6347 109.893 19.3856C109.259 19.1364 108.682 18.7615 108.197 18.2835C107.646 17.7281 107.212 17.0677 106.921 16.3414C106.629 15.6151 106.487 14.8378 106.501 14.0554C106.485 13.2772 106.622 12.5033 106.905 11.7785C107.189 11.0535 107.613 10.3918 108.153 9.83131C109.139 8.89487 110.452 8.38295 111.812 8.40577C112.473 8.37023 113.132 8.51118 113.721 8.81419C114.31 9.11719 114.808 9.57136 115.164 10.1301V8.74903ZM110.576 11.794C110.262 12.0786 110.013 12.4284 109.848 12.819C109.683 13.2096 109.604 13.6316 109.619 14.0554C109.598 14.8268 109.879 15.576 110.403 16.1432C110.678 16.4417 111.013 16.6793 111.385 16.8406C111.758 17.002 112.16 17.0836 112.567 17.0801C113.298 17.0832 114.006 16.8206 114.557 16.3411C114.864 16.0451 115.107 15.6897 115.272 15.2967C115.436 14.9038 115.519 14.4814 115.515 14.0554C115.522 13.2575 115.212 12.4895 114.655 11.9192C114.388 11.6352 114.064 11.4114 113.704 11.2631C113.344 11.1147 112.956 11.0451 112.567 11.059C111.834 11.0423 111.123 11.3051 110.576 11.794Z" fill="black"/>
<path d="M129.781 8.74677H132.781V19.3878H129.785V18.0107C129.429 18.5505 128.943 18.9914 128.371 19.2922C127.799 19.5931 127.161 19.744 126.514 19.731C123.247 19.731 121.086 17.1748 121.086 14.0531C121.086 10.9315 123.223 8.39947 126.368 8.39947C127.039 8.3655 127.706 8.5071 128.305 8.81025C128.903 9.11341 129.412 9.5676 129.781 10.1279V8.74677ZM124.176 14.0531C124.161 14.4498 124.226 14.8452 124.368 15.2159C124.51 15.5867 124.725 15.925 125 16.2107C125.276 16.4965 125.605 16.7238 125.971 16.879C126.336 17.0343 126.729 17.1143 127.125 17.1143C127.522 17.1143 127.916 17.0343 128.281 16.879C128.646 16.7238 128.976 16.4965 129.251 16.2107C129.527 15.925 129.741 15.5867 129.883 15.2159C130.025 14.8452 130.091 14.4498 130.075 14.0531C130.091 13.6565 130.025 13.2611 129.883 12.8904C129.741 12.5196 129.527 12.1813 129.251 11.8956C128.976 11.6098 128.646 11.3825 128.281 11.2272C127.916 11.072 127.522 10.9919 127.125 10.9919C126.729 10.9919 126.336 11.072 125.971 11.2272C125.605 11.3825 125.276 11.6098 125 11.8956C124.725 12.1813 124.51 12.5196 124.368 12.8904C124.226 13.2611 124.161 13.6565 124.176 14.0531Z" fill="black"/>
<path d="M139.242 11.304V19.3806H136.242V11.304H135.062V8.74778H136.242V5.11328H139.242V8.74778H141.306V11.304H139.242Z" fill="black"/>
<path d="M153.936 16.4139C153.613 17.2013 152.409 19.7334 148.686 19.7334C147.94 19.7693 147.195 19.6552 146.495 19.3979C145.795 19.1405 145.153 18.7451 144.608 18.2351C144.046 17.7038 143.605 17.0575 143.317 16.3402C143.028 15.623 142.899 14.8519 142.936 14.0798C142.906 13.3104 143.035 12.5432 143.312 11.8252C143.59 11.1072 144.012 10.4535 144.551 9.9041C145.084 9.39743 145.712 9.00353 146.401 8.74608C147.089 8.48862 147.823 8.37291 148.557 8.40588C150.721 8.40588 151.973 9.26605 152.708 10.1504C153.839 11.4992 153.989 13.1711 153.989 14.3261V14.5724H146.045C146.031 15.2087 146.211 15.834 146.562 16.3655C146.808 16.6952 147.132 16.9596 147.505 17.1356C147.878 17.3116 148.286 17.3938 148.699 17.375C149.201 17.3913 149.699 17.2691 150.136 17.022C150.574 16.7749 150.936 16.4123 151.181 15.9737L153.936 16.4139ZM151.181 12.6542C151.083 12.0578 150.776 11.5158 150.314 11.1248C149.854 10.7338 149.269 10.5192 148.663 10.5192C148.059 10.5192 147.474 10.7338 147.014 11.1248C146.552 11.5158 146.245 12.0578 146.146 12.6542H151.181Z" fill="black"/>
</g>
<defs>
<clipPath id="clip0_1880_39296">
<rect width="153.874" height="26.3784" fill="white" transform="translate(0.117188 0.257812)"/>
</clipPath>
</defs>
</svg>
