<svg width="55" height="14" viewBox="0 0 55 14" fill="none" xmlns="http://www.w3.org/2000/svg">
<path d="M0.272 13V10.12H3.176V13H0.272ZM11.5175 13.216C10.5735 13.216 9.7175 13.064 8.9495 12.76C8.1815 12.44 7.5175 11.992 6.9575 11.416C6.3975 10.824 5.9735 10.128 5.6855 9.328C5.3975 8.512 5.2535 7.608 5.2535 6.616C5.2535 5.272 5.5095 4.112 6.0215 3.136C6.5495 2.144 7.2855 1.376 8.2295 0.831999C9.1895 0.271999 10.3175 -0.00800133 11.6135 -0.00800133C12.6855 -0.00800133 13.6375 0.191999 14.4695 0.592C15.3015 0.992 15.9655 1.552 16.4615 2.272C16.9735 2.976 17.2535 3.8 17.3015 4.744H14.3735C14.2935 4.248 14.1175 3.832 13.8455 3.496C13.5895 3.16 13.2615 2.904 12.8615 2.728C12.4615 2.552 12.0215 2.464 11.5415 2.464C10.8535 2.464 10.2615 2.64 9.7655 2.992C9.2695 3.328 8.8935 3.808 8.6375 4.432C8.3975 5.056 8.2775 5.784 8.2775 6.616C8.2775 7.528 8.4135 8.288 8.6855 8.896C8.9575 9.504 9.3335 9.968 9.8135 10.288C10.3095 10.592 10.8775 10.744 11.5175 10.744C12.0775 10.744 12.5655 10.648 12.9815 10.456C13.3975 10.248 13.7255 9.968 13.9655 9.616C14.2215 9.248 14.3735 8.832 14.4215 8.368H17.3495C17.2855 9.344 16.9975 10.2 16.4855 10.936C15.9735 11.656 15.2935 12.216 14.4455 12.616C13.5975 13.016 12.6215 13.216 11.5175 13.216ZM25.2301 13.216C24.2701 13.216 23.4061 13.072 22.6381 12.784C21.8701 12.48 21.1981 12.04 20.6221 11.464C20.0621 10.888 19.6301 10.192 19.3261 9.376C19.0381 8.56 18.8941 7.64 18.8941 6.616C18.8941 5.304 19.1421 4.152 19.6381 3.16C20.1501 2.168 20.8781 1.392 21.8221 0.831999C22.7661 0.271999 23.9021 -0.00800133 25.2301 -0.00800133C26.1741 -0.00800133 27.0301 0.143999 27.7981 0.448C28.5661 0.752 29.2221 1.192 29.7661 1.768C30.3261 2.344 30.7581 3.04 31.0621 3.856C31.3661 4.656 31.5181 5.576 31.5181 6.616C31.5181 7.912 31.2621 9.056 30.7501 10.048C30.2541 11.04 29.5341 11.816 28.5901 12.376C27.6621 12.936 26.5421 13.216 25.2301 13.216ZM25.2061 10.744C25.8621 10.744 26.4381 10.592 26.9341 10.288C27.4301 9.968 27.8141 9.504 28.0861 8.896C28.3581 8.272 28.4941 7.512 28.4941 6.616C28.4941 5.944 28.4141 5.352 28.2541 4.84C28.1101 4.312 27.8941 3.872 27.6061 3.52C27.3181 3.168 26.9741 2.904 26.5741 2.728C26.1741 2.552 25.7261 2.464 25.2301 2.464C24.5741 2.464 23.9901 2.624 23.4781 2.944C22.9821 3.248 22.5981 3.712 22.3261 4.336C22.0541 4.944 21.9181 5.704 21.9181 6.616C21.9181 7.288 21.9901 7.888 22.1341 8.416C22.2941 8.928 22.5181 9.36 22.8061 9.712C23.0941 10.048 23.4381 10.304 23.8381 10.48C24.2541 10.656 24.7101 10.744 25.2061 10.744ZM33.9361 13V0.232H36.8401L36.9361 2.656H37.0801C37.4321 1.76 37.9761 1.096 38.7121 0.664C39.4481 0.215999 40.2561 -0.00800133 41.1361 -0.00800133C42.0641 -0.00800133 42.8961 0.215999 43.6321 0.664C44.3681 1.112 44.9041 1.864 45.2401 2.92H45.4321C45.7681 1.944 46.3281 1.216 47.1121 0.735999C47.8961 0.239999 48.7841 -0.00800133 49.7761 -0.00800133C50.6241 -0.00800133 51.3761 0.167999 52.0321 0.519999C52.7041 0.871999 53.2321 1.44 53.6161 2.224C54.0001 3.008 54.1921 4.048 54.1921 5.344V13H51.1921V5.992C51.1921 5.192 51.1041 4.536 50.9281 4.024C50.7521 3.496 50.4721 3.104 50.0881 2.848C49.7041 2.592 49.2161 2.464 48.6241 2.464C47.9841 2.464 47.4321 2.624 46.9681 2.944C46.5201 3.264 46.1761 3.688 45.9361 4.216C45.6961 4.744 45.5761 5.328 45.5761 5.968V13H42.5521V5.992C42.5521 5.192 42.4641 4.536 42.2881 4.024C42.1121 3.496 41.8321 3.104 41.4481 2.848C41.0801 2.592 40.6001 2.464 40.0081 2.464C39.3681 2.464 38.8161 2.624 38.3521 2.944C37.9041 3.264 37.5521 3.688 37.2961 4.216C37.0561 4.744 36.9361 5.328 36.9361 5.968V13H33.9361Z" fill="#16191C"/>
</svg>
