<svg width="1920" height="922" viewBox="0 0 1920 922" fill="none" xmlns="http://www.w3.org/2000/svg">
<g opacity="0.3">
<path d="M-370.342 2.84256C-375.806 191.498 -312.047 381.415 -193.587 529.315C-159.884 571.392 -120.177 611.328 -69.508 630.473C76.9022 685.784 236.519 574.081 361.715 511.322C512.799 435.592 662.264 356.056 819.276 292.716C907.424 257.155 1010.72 227.521 1094.47 272.367C1179.27 317.785 1209.9 420.336 1243.61 509.776C1282.88 613.996 1337.78 714.719 1419.74 790.8C1501.71 866.88 1613.55 916.062 1725.42 906.083C1813.03 898.266 1893.53 855.873 1967.22 808.324C2160.83 683.382 2326.48 516.235 2448.99 322.204" stroke="#83848C" stroke-opacity="0.2" stroke-width="0.692997" stroke-miterlimit="10"/>
<path d="M-375.277 10.9085C-380.11 177.644 -323.995 341.998 -221.632 483.998C-212.126 497.186 -202.33 510.164 -192.092 522.801C-158.43 564.311 -119.06 603.742 -69.1148 623.015C75.3311 678.817 232.427 573.066 357.406 512.64C468.208 459.066 578.295 402.366 692.146 351.315C731.645 333.529 771.469 316.434 811.777 300.36C899.213 265.5 1001.28 236.267 1084.44 279.085C1168.64 322.443 1200.4 421.07 1235.15 507.053C1275.65 607.24 1331.28 704.106 1413.14 777.311C1441.64 802.798 1473.66 825.151 1507.97 843.059C1572.16 876.586 1644.41 894.575 1716.65 888.413C1803.43 881.012 1883.32 840.386 1956.5 795.061C2104.65 703.365 2236.21 588.54 2345.42 455.456C2378 415.747 2408.59 374.421 2437.02 331.586" stroke="#83848C" stroke-opacity="0.2" stroke-width="0.692997" stroke-miterlimit="10"/>
<path d="M-380.205 18.9658C-384.879 180.143 -325.434 335.516 -220.097 478.072C-210.533 491.008 -200.794 503.821 -190.59 516.271C-156.962 557.207 -117.936 596.14 -68.7074 615.548C73.7816 671.849 228.335 572.042 353.103 513.942C462.706 462.906 571.809 407.744 685.579 357.815C724.784 340.462 764.307 323.741 804.286 307.989C891.009 273.822 991.862 244.997 1074.42 285.786C1158.01 327.093 1190.91 421.796 1226.69 504.315C1268.41 600.468 1324.78 693.477 1406.54 763.798C1435.01 788.28 1466.88 809.759 1500.97 826.963C1564.73 859.187 1636.32 876.538 1707.87 870.72C1793.82 863.727 1873.1 824.876 1945.77 781.782C2092.96 694.624 2223.55 586.228 2332.94 459.364C2365.59 421.509 2396.34 382.024 2425.03 340.952" stroke="#83848C" stroke-opacity="0.2" stroke-width="0.692997" stroke-miterlimit="10"/>
<path d="M-385.142 27.0297C-389.648 182.649 -326.918 329.039 -218.569 472.152C-208.956 484.851 -199.274 497.492 -189.103 509.747C-155.518 550.117 -116.82 588.538 -68.3234 608.081C72.2014 664.872 224.197 571.009 348.785 515.25C457.167 466.745 565.415 413.39 678.988 364.313C717.943 347.477 757.122 331.047 796.779 315.616C882.789 282.151 982.424 253.727 1064.37 292.486C1147.35 331.742 1181.39 422.514 1218.22 501.576C1261.16 593.695 1318.26 682.847 1399.91 750.292C1428.35 773.768 1460.08 794.374 1493.95 810.881C1557.29 841.801 1628.2 858.514 1699.08 853.033C1784.2 846.448 1862.85 809.373 1935.03 768.51C2081.27 685.882 2210.88 583.922 2320.45 463.27C2353.15 427.27 2384.06 389.627 2413.03 350.31" stroke="#83848C" stroke-opacity="0.2" stroke-width="0.692997" stroke-miterlimit="10"/>
<path d="M-390.068 35.0878C-394.415 185.149 -328.43 322.572 -217.024 466.227C-207.361 478.681 -197.729 491.157 -187.592 503.219C-154.041 543.014 -115.686 580.937 -67.9141 600.615C70.6463 657.897 220.07 569.963 344.492 516.554C451.637 470.563 558.975 418.85 672.43 370.814C711.105 354.434 749.962 338.355 789.297 323.246C874.594 290.474 973.003 262.451 1054.36 299.189C1136.73 336.386 1171.91 423.233 1209.78 498.839C1253.95 586.924 1311.78 672.226 1393.32 736.789C1421.73 759.266 1453.31 778.99 1486.96 794.801C1549.87 824.411 1620.12 840.485 1690.32 835.356C1774.63 829.187 1852.66 793.879 1924.32 755.247C2069.6 677.157 2198.24 581.625 2308.01 467.194C2340.77 433.048 2371.83 397.248 2401.08 359.692" stroke="#83848C" stroke-opacity="0.2" stroke-width="0.692997" stroke-miterlimit="10"/>
<path d="M-395.005 43.1511C-399.192 187.654 -329.983 316.116 -215.497 460.306C-205.792 472.523 -196.201 484.82 -186.106 496.695C-152.596 535.924 -114.57 573.341 -67.5225 593.147C69.0736 650.919 215.902 568.906 340.182 517.854C446.076 474.356 552.502 424.301 665.847 377.305C704.242 361.381 742.785 345.653 781.79 330.865C866.375 298.794 963.566 271.172 1044.32 305.881C1126.09 341.026 1162.39 423.943 1201.31 496.092C1246.71 580.15 1305.27 661.588 1386.71 723.267C1415.09 744.739 1446.52 763.59 1479.96 778.704C1542.43 807.01 1612.02 822.446 1681.53 817.654C1765.01 811.894 1842.42 778.353 1913.58 741.952C2057.91 668.392 2185.57 579.296 2295.53 471.077C2328.35 438.787 2359.56 404.828 2389.09 369.035" stroke="#83848C" stroke-opacity="0.2" stroke-width="0.692997" stroke-miterlimit="10"/>
<path d="M-399.94 51.2164C-403.969 190.161 -331.58 309.683 -213.968 454.396C-204.229 466.375 -194.68 478.5 -184.611 490.18C-151.143 528.835 -113.453 565.755 -67.13 585.695C67.5093 643.959 211.713 567.859 335.872 519.179C440.493 478.158 546.037 429.776 659.272 383.828C697.388 368.36 735.615 352.983 774.291 338.524C858.163 307.147 954.128 279.932 1034.29 312.613C1115.45 345.707 1152.89 424.691 1192.85 493.384C1239.48 573.409 1298.77 650.989 1380.1 709.793C1408.45 730.259 1439.73 748.236 1472.96 762.646C1535.01 789.648 1603.92 804.446 1672.76 799.998C1755.41 794.647 1832.21 762.881 1902.86 728.711C2046.22 659.689 2172.92 577.021 2283.07 475.022C2315.95 444.587 2347.31 412.47 2377.1 378.439" stroke="#83848C" stroke-opacity="0.2" stroke-width="0.692997" stroke-miterlimit="10"/>
<path d="M-404.868 59.2736C-408.729 192.66 -333.199 303.25 -212.425 448.469C-202.65 460.218 -193.135 472.164 -183.108 483.65C-149.674 521.739 -112.321 558.153 -66.7217 578.221C65.9532 636.983 207.525 566.765 331.571 520.474C434.904 481.914 539.566 435.213 652.705 390.312C690.542 375.293 728.454 360.283 766.801 346.137C849.96 315.461 944.707 288.648 1024.27 319.299C1104.82 350.334 1143.39 425.402 1184.4 490.631C1232.24 566.621 1292.27 640.345 1373.49 696.265C1401.8 715.733 1432.95 732.829 1465.96 746.543C1527.57 772.241 1595.82 786.393 1663.98 782.29C1745.8 777.354 1821.98 747.355 1892.14 715.417C2034.54 650.926 2160.26 574.694 2270.61 478.907C2303.54 450.327 2335.07 420.051 2365.13 387.782" stroke="#83848C" stroke-opacity="0.2" stroke-width="0.692997" stroke-miterlimit="10"/>
<path d="M-409.803 67.3387C-413.505 195.167 -334.872 296.845 -210.896 442.551C-201.095 454.07 -191.614 465.828 -181.613 477.128C-148.221 514.642 -111.204 550.552 -66.3294 570.754C64.3812 630.007 203.292 565.672 327.261 521.784C429.284 485.663 533.094 440.665 646.123 396.819C683.673 382.256 721.277 367.598 759.302 353.773C841.749 323.791 935.27 297.386 1014.24 326.001C1094.18 354.984 1133.89 426.121 1175.94 487.893C1225.01 559.85 1285.77 629.716 1366.89 682.761C1395.17 701.223 1426.16 717.445 1458.96 730.462C1520.13 754.849 1587.72 768.371 1655.21 764.605C1736.21 760.077 1811.76 731.853 1881.42 702.139C2022.86 642.185 2147.61 572.382 2258.15 482.815C2291.14 456.089 2322.82 427.663 2353.16 397.142" stroke="#83848C" stroke-opacity="0.2" stroke-width="0.692997" stroke-miterlimit="10"/>
<path d="M-414.731 75.4035C-418.274 197.674 -336.568 290.463 -209.36 436.632C-199.532 447.921 -190.078 459.5 -180.118 470.605C-146.76 507.553 -110.08 542.957 -65.9367 563.295C62.8171 623.039 199.051 564.563 322.951 523.093C423.65 489.389 526.615 446.102 639.549 403.319C676.819 389.197 714.108 374.905 751.803 361.402C833.537 332.12 925.84 306.116 1004.21 332.702C1083.55 359.634 1124.39 426.84 1167.48 485.155C1217.78 553.078 1279.27 619.087 1360.28 669.249C1388.53 686.705 1419.38 702.053 1451.96 714.374C1512.71 737.458 1579.64 750.334 1646.43 746.919C1726.6 742.807 1801.54 716.351 1870.69 688.868C2011.18 633.444 2134.95 570.076 2245.67 486.722C2278.72 461.851 2310.56 435.267 2341.17 406.508" stroke="#83848C" stroke-opacity="0.2" stroke-width="0.692997" stroke-miterlimit="10"/>
<path d="M-419.673 83.4597C-423.057 200.172 -338.315 284.085 -207.831 430.712C-197.983 441.778 -188.556 453.171 -178.623 464.089C-145.306 500.463 -108.962 535.369 -65.5358 555.835C61.2538 616.07 194.79 563.439 318.65 524.409C418.01 493.099 520.137 451.545 632.982 409.833C669.966 396.16 706.947 382.226 744.313 369.044C825.335 340.456 916.412 314.861 994.187 339.417C1072.92 364.298 1114.9 427.572 1159.03 482.431C1210.55 546.32 1272.78 608.472 1353.69 655.758C1381.9 672.216 1412.61 686.69 1444.97 698.307C1505.29 720.087 1571.55 732.325 1637.67 729.247C1717.01 725.544 1791.33 700.863 1859.98 675.611C1999.5 624.725 2122.3 567.793 2233.23 490.652C2266.33 467.635 2298.33 442.893 2329.21 415.896" stroke="#83848C" stroke-opacity="0.2" stroke-width="0.692997" stroke-miterlimit="10"/>
<path d="M-424.603 91.5252C-427.827 202.68 -340.089 277.746 -206.297 424.794C-196.43 435.637 -187.021 446.836 -177.129 457.567C-143.847 493.375 -107.839 527.776 -65.1445 548.376C59.6808 609.102 190.503 562.285 314.339 525.719C412.337 496.78 513.649 456.983 626.399 416.333C663.096 403.101 699.77 389.534 736.806 376.673C817.115 348.786 906.973 323.584 984.141 346.119C1062.27 368.941 1105.37 428.298 1150.56 479.686C1203.3 539.548 1266.26 597.836 1347.06 642.246C1375.24 657.699 1405.8 671.299 1437.95 682.212C1497.83 702.688 1563.43 714.288 1628.87 711.554C1707.39 708.26 1781.09 685.353 1849.23 662.325C1987.8 615.969 2109.62 565.473 2220.74 494.552C2253.9 473.391 2286.06 450.49 2317.2 425.255" stroke="#83848C" stroke-opacity="0.2" stroke-width="0.692997" stroke-miterlimit="10"/>
<path d="M-429.531 99.5817C-432.588 205.178 -341.898 271.427 -204.761 418.867C-194.882 429.487 -185.508 440.521 -175.627 451.036C-142.455 486.336 -106.714 520.166 -64.7444 540.901C58.1165 602.125 186.211 561.1 310.03 527.013C406.66 500.414 507.163 462.388 619.824 422.824C656.235 410.033 692.593 396.84 729.314 384.3C808.911 357.107 897.544 332.313 974.119 352.819C1051.64 373.589 1095.88 429.016 1142.1 476.946C1196.08 532.775 1259.76 587.205 1340.46 628.733C1368.6 643.18 1399.02 655.906 1430.95 666.123C1490.41 685.288 1555.34 696.25 1620.09 693.86C1697.78 690.981 1770.87 669.842 1838.51 649.045C1976.11 607.227 2096.96 563.16 2208.27 498.451C2241.49 479.144 2273.8 458.086 2305.22 434.605" stroke="#83848C" stroke-opacity="0.2" stroke-width="0.692997" stroke-miterlimit="10"/>
<path d="M-434.465 107.647C-437.363 207.685 -343.753 265.146 -203.224 412.949C-193.334 423.353 -183.978 434.186 -174.131 444.514C-141.001 479.247 -105.589 512.572 -64.3432 533.442C56.5609 595.157 181.898 559.893 305.728 528.33C400.968 504.05 500.685 467.818 613.25 429.332C649.366 416.982 685.424 404.155 721.816 391.937C800.7 365.444 888.115 341.051 964.09 359.529C1041 378.247 1086.38 429.742 1133.65 474.216C1188.84 526.011 1253.26 576.584 1333.85 615.236C1361.97 628.685 1392.24 640.53 1423.96 650.05C1482.98 667.911 1547.25 678.235 1611.33 676.19C1688.19 673.72 1760.65 654.355 1827.79 635.789C1964.44 598.502 2084.32 560.87 2195.82 502.381C2229.1 484.93 2261.56 465.713 2293.26 443.995" stroke="#83848C" stroke-opacity="0.2" stroke-width="0.692997" stroke-miterlimit="10"/>
<path d="M-439.393 115.712C-442.131 210.192 -345.639 258.894 -201.688 407.03C-191.786 417.219 -182.441 427.858 -172.628 437.992C-139.54 472.158 -104.464 504.978 -63.9426 525.976C54.9972 588.182 177.57 558.657 301.427 529.633C395.269 507.642 494.192 473.226 606.683 435.832C642.513 423.923 678.263 411.462 714.326 399.566C792.497 373.767 878.686 349.782 954.069 366.23C1030.37 382.89 1076.89 430.461 1125.2 471.478C1181.62 519.24 1246.77 565.955 1327.26 601.724C1355.34 614.167 1385.47 625.138 1416.97 633.962C1475.56 650.52 1539.16 660.206 1602.56 658.497C1678.6 656.436 1750.45 638.846 1817.09 622.504C1952.77 589.754 2071.68 558.551 2183.37 506.274C2216.7 490.678 2249.33 473.303 2281.29 453.347" stroke="#83848C" stroke-opacity="0.2" stroke-width="0.692997" stroke-miterlimit="10"/>
<path d="M-444.328 123.769C-446.908 212.691 -347.571 252.671 -200.159 401.112C-190.253 411.084 -180.92 421.529 -171.141 431.47C-138.095 465.069 -103.347 497.384 -63.5501 518.517C53.4254 581.213 173.212 557.39 297.117 530.95C389.547 511.225 487.698 478.64 600.109 442.339C635.652 430.864 671.094 418.777 706.827 407.202C784.285 382.104 869.256 358.52 944.039 372.939C1019.73 387.547 1067.39 431.195 1116.74 468.748C1174.38 512.475 1240.27 555.334 1320.65 588.227C1348.7 599.664 1378.68 609.762 1409.96 617.881C1468.13 633.136 1531.07 642.176 1593.78 640.811C1668.99 639.166 1740.22 623.344 1806.35 609.233C1941.08 581.013 2059.01 556.246 2170.89 510.189C2204.29 496.455 2237.06 480.922 2269.3 462.72" stroke="#83848C" stroke-opacity="0.2" stroke-width="0.692997" stroke-miterlimit="10"/>
<path d="M-449.263 131.834C-451.676 215.198 -349.541 246.491 -198.623 395.193C-188.713 404.957 -179.383 415.201 -169.638 424.947C-136.626 457.973 -102.175 489.708 -63.1492 511.05C51.9941 574.009 168.856 556.078 292.816 532.252C383.827 514.755 481.206 484.032 593.534 448.838C628.784 437.797 663.925 426.084 699.329 414.83C776.075 390.425 859.82 367.25 934.01 379.64C1009.11 392.197 1057.88 431.913 1108.27 466.009C1167.14 505.703 1233.76 544.704 1314.03 574.714C1342.05 585.153 1371.89 594.369 1402.96 601.793C1460.69 615.736 1522.96 624.145 1585 623.125C1659.39 621.888 1730 607.841 1795.62 595.961C1929.39 572.279 2046.35 553.94 2158.42 514.096C2191.88 502.217 2224.82 488.526 2257.33 472.079" stroke="#83848C" stroke-opacity="0.2" stroke-width="0.692997" stroke-miterlimit="10"/>
<path d="M-454.199 139.89C-456.452 217.696 -351.543 240.34 -197.095 389.265C-187.181 398.821 -177.855 408.857 -168.151 418.416C-135.181 450.875 -101.067 482.105 -62.7649 503.574C50.414 567.032 164.476 554.727 288.49 533.546C378.069 518.247 474.689 489.407 586.944 455.322C621.899 444.707 656.741 433.375 691.822 422.442C767.856 398.739 850.382 375.965 923.972 386.318C998.461 396.816 1048.37 432.608 1099.81 463.248C1159.91 498.908 1227.25 534.052 1307.42 561.186C1335.41 570.62 1365.1 578.962 1395.95 585.689C1453.25 598.328 1514.86 606.092 1576.22 605.416C1649.78 604.595 1719.77 592.308 1784.89 582.659C1917.7 563.508 2033.7 551.605 2145.95 517.981C2179.47 507.956 2212.55 496.106 2245.34 481.422" stroke="#83848C" stroke-opacity="0.2" stroke-width="0.692997" stroke-miterlimit="10"/>
<path d="M-459.126 147.955C-461.22 220.21 -353.581 234.233 -195.551 383.346C-185.64 392.694 -176.317 402.528 -166.64 411.894C-133.704 443.779 -99.9259 474.511 -62.3485 496.115C48.8736 560.064 160.114 553.34 284.205 534.863C372.343 521.732 468.213 494.799 580.386 461.836C615.047 451.648 649.588 440.704 684.34 430.085C759.661 407.076 840.962 384.702 913.959 393.034C987.841 401.481 1038.88 433.341 1091.37 460.524C1152.68 492.158 1220.77 523.445 1300.83 547.696C1328.79 556.124 1358.33 563.592 1388.97 569.623C1445.84 580.958 1506.79 588.084 1567.46 587.753C1640.2 587.34 1709.56 576.827 1774.19 569.41C1906.04 554.796 2021.06 549.329 2133.5 521.91C2167.07 513.74 2200.32 503.733 2233.38 490.811" stroke="#83848C" stroke-opacity="0.2" stroke-width="0.692997" stroke-miterlimit="10"/>
<path d="M-464.063 156.02C-465.998 222.717 -355.66 228.178 -194.024 377.435C-184.117 386.581 -174.79 396.2 -165.155 405.379C-132.26 436.697 -98.818 466.924 -61.965 488.656C47.2928 553.103 155.713 551.916 279.886 536.172C366.585 525.181 461.695 500.169 573.802 468.336C608.169 458.573 642.409 448.012 676.832 437.721C751.44 415.413 831.523 393.44 903.92 399.743C977.195 406.138 1029.37 434.075 1082.9 457.794C1145.45 485.394 1214.26 512.823 1294.21 534.191C1322.13 541.621 1351.54 548.208 1381.95 553.534C1438.39 563.566 1498.67 570.054 1558.67 570.06C1630.57 570.055 1699.33 561.318 1763.44 556.131C1894.33 546.048 2008.38 547.017 2121.02 525.818C2154.64 519.503 2188.05 511.337 2221.38 500.177" stroke="#83848C" stroke-opacity="0.2" stroke-width="0.692997" stroke-miterlimit="10"/>
<path d="M-468.991 164.077C-470.759 225.216 -357.777 222.159 -192.488 371.509C-182.585 380.454 -173.254 389.865 -163.652 398.849C-130.792 429.593 -97.6861 459.323 -61.565 481.189C45.7359 546.134 151.321 550.432 275.584 537.482C360.836 528.599 455.195 505.538 567.234 474.843C601.308 465.507 635.24 455.326 669.341 445.357C743.236 423.742 822.101 402.178 893.89 406.452C966.558 410.788 1019.87 434.801 1074.44 455.063C1138.22 478.629 1207.76 502.202 1287.61 520.694C1315.49 527.118 1344.75 532.831 1374.96 537.461C1430.96 546.182 1490.58 552.032 1549.89 552.389C1620.97 552.801 1689.11 545.83 1752.72 542.868C1882.65 537.322 1995.73 544.719 2108.56 529.74C2142.24 525.28 2175.8 518.956 2209.4 509.558" stroke="#83848C" stroke-opacity="0.2" stroke-width="0.692997" stroke-miterlimit="10"/>
<path d="M-473.921 172.142C-475.53 227.723 -359.926 216.193 -190.947 365.591C-181.055 374.342 -171.72 383.537 -162.152 392.327C-129.326 422.497 -96.6102 451.795 -61.1594 473.723C44.0452 539.373 146.936 548.897 271.287 538.785C355.094 531.974 448.693 510.893 560.665 481.336C594.445 472.418 628.076 462.627 661.848 452.979C735.03 432.065 812.669 410.901 883.866 413.147C955.926 415.431 1010.37 435.512 1065.98 452.318C1130.98 471.85 1201.26 491.565 1281 507.174C1308.85 512.593 1337.97 517.432 1367.96 521.366C1423.53 528.783 1482.48 533.994 1541.12 534.689C1611.38 535.509 1678.89 530.313 1742 529.582C1870.98 528.567 1983.08 542.4 2096.1 533.633C2129.84 531.028 2163.55 526.553 2197.43 518.903" stroke="#83848C" stroke-opacity="0.2" stroke-width="0.692997" stroke-miterlimit="10"/>
<path d="M-478.855 180.199C-480.305 230.222 -362.118 210.269 -189.417 359.664C-179.528 368.214 -170.19 377.193 -160.656 385.796C-127.863 415.393 -95.4842 444.193 -60.7653 466.256C42.4749 532.404 142.541 547.308 266.972 540.086C349.333 535.31 442.172 516.232 554.084 487.835C587.57 479.336 620.901 469.933 654.35 460.607C726.821 440.386 803.241 419.631 873.838 419.847C945.291 420.08 1000.88 436.23 1057.53 449.579C1123.75 465.078 1194.76 480.936 1274.4 493.669C1302.23 498.089 1331.19 502.055 1360.96 505.284C1416.1 511.398 1474.39 515.972 1532.34 517.002C1601.78 518.231 1668.67 514.81 1731.28 516.31C1859.29 519.833 1970.42 540.094 2083.63 537.548C2117.44 536.797 2151.31 534.164 2185.45 528.276" stroke="#83848C" stroke-opacity="0.2" stroke-width="0.692997" stroke-miterlimit="10"/>
<path d="M-483.784 188.264C-485.074 232.728 -364.336 204.412 -187.882 353.752C-178.005 362.109 -168.654 370.872 -159.162 379.281C-126.403 408.304 -94.3679 436.606 -60.3658 458.796C40.9101 525.435 138.16 545.668 262.669 541.403C343.593 538.631 435.664 521.586 547.517 494.342C580.709 486.261 613.739 477.255 646.859 468.242C718.616 448.723 793.811 428.368 863.815 426.556C934.661 424.73 991.373 436.963 1049.08 446.848C1116.53 458.313 1188.26 470.314 1267.8 480.164C1295.59 483.579 1324.41 486.67 1353.96 489.196C1408.68 494.006 1466.3 497.934 1523.57 499.316C1592.18 500.961 1658.45 499.308 1720.56 503.039C1847.61 511.091 1957.77 537.789 2071.17 541.455C2105.03 542.559 2139.06 541.768 2173.47 537.642" stroke="#83848C" stroke-opacity="0.2" stroke-width="0.692997" stroke-miterlimit="10"/>
<path d="M-488.724 196.328C-489.854 235.235 -366.611 198.606 -186.35 347.834C-176.485 356.004 -167.107 364.522 -157.664 372.758C-124.886 401.149 -93.2408 429.011 -59.9704 451.329C39.3488 518.459 133.775 543.961 258.362 542.705C337.85 541.908 429.152 526.903 540.937 500.841C573.829 493.172 606.565 484.562 639.356 475.87C710.401 457.044 784.377 437.099 853.781 433.257C924.02 429.379 981.867 437.682 1040.62 444.11C1109.28 451.548 1181.76 459.684 1261.19 466.659C1288.95 469.068 1317.62 471.286 1346.96 473.115C1401.24 476.614 1458.19 479.911 1514.79 481.63C1582.57 483.684 1648.23 483.805 1709.83 489.76C1835.93 502.35 1945.11 535.476 2058.7 545.362C2092.62 548.321 2126.8 549.372 2161.49 547.008" stroke="#83848C" stroke-opacity="0.2" stroke-width="0.692997" stroke-miterlimit="10"/>
<path d="M-493.653 204.386C-494.616 237.735 -368.906 192.852 -184.815 341.908C-174.961 349.884 -165.579 358.179 -156.17 366.236C-123.434 394.053 -92.1246 421.41 -59.5787 443.87C37.7761 511.491 129.411 542.195 254.051 544.022C332.119 545.164 422.637 532.236 534.362 507.349C566.959 500.091 599.395 491.877 631.856 483.514C702.188 465.389 774.939 445.837 843.75 439.974C913.382 434.045 972.365 438.416 1032.16 441.387C1102.05 444.792 1175.26 449.071 1254.58 453.169C1282.31 454.58 1310.84 455.917 1339.96 457.05C1393.81 459.245 1450.1 461.896 1506.02 463.968C1572.97 466.429 1638.01 468.326 1699.11 476.512C1824.24 493.632 1932.45 533.194 2046.24 549.292C2080.21 554.106 2114.56 556.999 2149.52 556.39" stroke="#83848C" stroke-opacity="0.2" stroke-width="0.692997" stroke-miterlimit="10"/>
<path d="M-498.589 212.451C-499.393 240.242 -371.24 187.165 -183.288 335.989C-173.445 343.779 -164.051 351.851 -154.676 359.714C-121.973 386.964 -91.0008 413.816 -59.1792 436.404C36.2114 504.515 125.071 540.363 249.749 545.325C326.411 548.375 416.13 537.538 527.787 513.849C560.091 506.995 592.225 499.184 624.364 491.143C693.984 473.712 765.516 454.567 833.727 446.668C902.752 438.687 962.871 439.127 1023.7 438.642C1094.82 438.012 1168.75 438.434 1247.98 439.65C1275.67 440.055 1304.06 440.518 1332.96 440.954C1386.39 441.846 1442.01 443.859 1497.24 446.267C1563.36 449.145 1627.79 452.809 1688.38 463.226C1812.55 484.884 1919.79 530.881 2033.77 553.193C2067.8 559.861 2102.3 564.596 2137.53 565.749" stroke="#83848C" stroke-opacity="0.2" stroke-width="0.692997" stroke-miterlimit="10"/>
<path d="M-503.524 220.508C-504.169 242.74 -373.62 181.535 -181.752 330.062C-171.928 337.666 -162.514 345.515 -153.181 353.183C-120.52 379.859 -89.8836 406.214 -58.7864 428.936C34.6397 497.546 120.748 538.462 245.432 546.626C320.705 551.555 409.601 542.832 521.204 520.34C553.208 513.89 585.049 506.483 616.858 498.763C685.765 482.033 756.072 463.289 823.69 453.361C892.108 443.321 953.362 439.845 1015.23 435.896C1087.58 431.232 1162.25 427.797 1241.37 426.137C1269.02 425.536 1297.27 425.126 1325.96 424.865C1378.95 424.453 1433.91 425.828 1488.47 428.581C1553.77 431.867 1617.57 437.305 1677.66 449.946C1800.87 476.135 1907.14 528.568 2021.3 557.099C2055.39 565.623 2090.05 572.199 2125.56 575.114" stroke="#83848C" stroke-opacity="0.2" stroke-width="0.692997" stroke-miterlimit="10"/>
<path d="M-508.46 228.572C-508.946 245.246 -376.023 175.98 -180.224 324.151C-170.411 331.575 -160.994 339.186 -151.687 346.668C-119.06 372.778 -88.7602 398.627 -58.3947 421.477C33.0747 490.577 116.455 536.504 241.122 547.943C315.021 554.722 403.079 548.126 514.629 526.855C546.339 520.808 577.871 513.812 609.359 506.406C677.553 490.369 746.641 472.034 813.652 460.077C881.463 447.986 943.852 440.578 1006.77 433.172C1080.34 424.475 1155.74 417.182 1234.75 412.639C1262.37 411.04 1290.47 409.748 1318.95 408.784C1371.51 407.061 1425.81 407.798 1479.68 410.895C1544.16 414.597 1607.33 421.803 1666.93 436.675C1789.19 467.394 1894.48 526.263 2008.84 561.007C2042.98 571.385 2077.8 579.811 2113.57 584.481" stroke="#83848C" stroke-opacity="0.2" stroke-width="0.692997" stroke-miterlimit="10"/>
<path d="M-513.385 236.637C-513.704 247.754 -378.455 170.491 -178.685 318.233C-168.892 325.478 -159.455 332.858 -150.189 340.146C-117.604 365.681 -87.6396 391.025 -57.9911 414.018C31.5139 483.61 112.205 534.48 236.823 549.253C309.371 557.852 396.576 553.399 508.058 533.355C539.466 527.704 570.705 521.12 601.864 514.035C669.345 498.699 737.208 480.765 803.626 466.779C870.829 452.636 934.354 441.297 998.314 430.434C1073.11 417.703 1149.24 406.554 1228.15 399.135C1255.74 396.53 1283.69 394.364 1311.95 392.703C1364.09 389.677 1417.71 389.776 1470.9 393.209C1534.55 397.32 1597.12 406.301 1656.2 423.404C1777.5 458.661 1881.82 523.958 1996.37 564.922C2030.58 577.155 2065.54 587.423 2101.59 593.847" stroke="#83848C" stroke-opacity="0.2" stroke-width="0.692997" stroke-miterlimit="10"/>
<path d="M-518.314 244.695C-518.473 250.253 -380.929 165.069 -177.142 312.307C-167.36 319.373 -157.918 326.515 -148.679 333.616C-116.136 358.585 -86.5005 383.424 -57.5838 406.544C29.9569 476.626 108.006 532.374 232.528 550.555C303.756 560.953 390.05 558.523 501.497 539.855C532.606 534.563 563.551 528.427 594.379 521.664C661.148 507.021 727.793 489.496 793.611 473.48C860.207 457.279 924.86 442.015 989.871 427.696C1065.89 410.931 1142.76 395.925 1221.56 385.623C1249.11 382.013 1276.92 378.973 1304.97 376.616C1356.67 372.285 1409.63 371.746 1462.15 375.524C1524.97 380.043 1586.91 390.791 1645.49 410.125C1765.83 449.912 1869.18 521.646 1983.92 568.822C2018.18 582.91 2053.31 595.02 2089.62 603.206" stroke="#83848C" stroke-opacity="0.2" stroke-width="0.692997" stroke-miterlimit="10"/>
<path d="M-523.25 252.759C-523.25 252.759 -383.443 159.72 -175.615 306.387C32.2139 453.055 101.743 608.331 494.914 546.354C766.606 503.522 1024.3 390.62 1297.95 360.534C1410.54 348.156 1528.12 357.263 1634.76 396.854C1754.14 441.178 1856.51 519.34 1971.44 572.737C2005.77 588.68 2041.04 602.631 2077.64 612.58" stroke="#83848C" stroke-opacity="0.2" stroke-width="0.692997" stroke-miterlimit="10"/>
</g>
</svg>
