<svg width="291" height="291" viewBox="0 0 291 291" fill="none" xmlns="http://www.w3.org/2000/svg">
<path d="M201.682 135.117L201.564 176.786L144.07 210.46L144.188 168.791L201.682 135.117Z" fill="#686868"/>
<path d="M144.188 168.791L144.071 210.46L88.1387 178.103L88.2564 136.435L144.188 168.791Z" fill="#FF7500"/>
<path d="M137.98 173.061L92.8502 146.955L92.7324 150.285L137.98 176.459V173.061Z" fill="#686868"/>
<path d="M137.98 181.355L92.8502 155.25L92.7324 158.579L137.98 184.754V181.355Z" fill="#686868"/>
<path d="M137.98 189.652L92.8502 163.544L92.7324 166.876L137.98 193.051V189.652Z" fill="#686868"/>
<path d="M137.98 197.947L92.8502 171.841L92.7324 175.171L137.98 201.345V197.947Z" fill="#686868"/>
<path d="M201.681 135.117L144.188 168.791L88.2559 136.435L145.749 102.761L201.681 135.117Z" fill="#979695"/>
<path d="M194.931 31.5035L194.804 134.809L144.506 164.299L144.632 60.9945L194.931 31.5035Z" fill="#CECECE"/>
<path d="M144.632 60.9944L144.506 164.299L95.8242 136.13L95.9508 32.8252L144.632 60.9944Z" fill="#E0E0E0"/>
<path d="M100.293 133.556L100.406 40.5645L140.162 63.569L140.049 156.56L100.293 133.556Z" fill="#383838"/>
<path d="M194.931 31.5035L144.633 60.9945L95.9512 32.8252L146.25 3.33203L194.931 31.5035Z" fill="#EDECEB"/>
<path d="M161.028 15.817C161.714 16.2133 161.721 16.8567 161.036 17.2546L147.726 24.9893C147.045 25.3855 145.931 25.3855 145.245 24.9893L131.845 17.2531C131.159 16.8568 131.155 16.2118 131.837 15.8156L145.147 8.08089C145.831 7.68302 146.942 7.68462 147.628 8.08085L161.028 15.817Z" fill="#595959"/>
<path d="M153.249 20.1762C152.463 20.6336 151.562 20.998 150.562 21.2689C146.987 22.2327 142.7 21.7931 139.898 20.1762C136.202 18.0443 136.184 14.5753 139.849 12.4432C143.522 10.3113 149.514 10.3113 153.205 12.4432C156.9 14.5753 156.918 18.0443 153.249 20.1762Z" fill="#424242"/>
<path d="M153.207 12.4419C156.9 14.5746 156.918 18.0439 153.248 20.1765C152.463 20.6323 151.56 20.999 150.56 21.2693C146.985 22.2334 142.7 21.7952 139.897 20.1767C136.203 18.044 136.183 14.5732 139.851 12.4419C143.521 10.3092 149.513 10.3092 153.207 12.4419ZM150.413 21.0852C151.375 20.8252 152.246 20.4717 153 20.0334C156.534 17.9796 156.515 14.6374 152.96 12.5851C149.403 10.5313 143.635 10.5327 140.101 12.5865C136.57 14.6389 136.586 17.9797 140.143 20.0336C142.843 21.5922 146.968 22.0143 150.413 21.0852Z" fill="#383838"/>
<path d="M148.076 15.5735C148.969 16.0893 148.961 16.9531 148.072 17.4695C147.151 18.0077 145.669 18.0108 144.742 17.4757C143.832 16.9499 143.816 16.0883 144.737 15.5531C145.637 15.0298 147.132 15.0289 148.015 15.5383C148.024 15.5437 148.033 15.5491 148.043 15.5547C148.054 15.5609 148.065 15.5672 148.076 15.5735Z" fill="#979695"/>
<path d="M152.584 19.3018C152.426 19.4216 152.222 19.4652 152.072 19.3936C152.044 19.3805 152.018 19.3664 151.992 19.3516C151.897 19.2964 151.813 19.2308 151.743 19.1634C151.303 18.7574 150.766 18.398 150.19 18.059L150.13 18.0341C150.018 18.1119 149.906 18.1835 149.807 18.2596C149.788 18.2737 149.812 18.3157 149.837 18.339C150.158 18.6237 150.396 18.9316 150.58 19.252C150.74 19.5242 150.779 19.798 150.577 20.0686C150.425 20.2724 150.171 20.4295 149.852 20.5524C149.107 20.8355 148.278 20.9521 147.408 21.0051C147.218 21.0166 147.084 20.9987 147.003 20.9519C146.91 20.898 146.887 20.8059 146.931 20.6768C147.007 20.4544 147.079 20.2289 147.139 20.0034C147.184 19.8431 147.215 19.6844 147.23 19.5227C147.246 19.4013 147.229 19.2769 147.223 19.1525L147.145 19.1136C147.011 19.1199 146.874 19.1276 146.739 19.1401L146.649 19.1929C146.521 19.417 146.415 19.641 146.274 19.8602C146.138 20.0765 145.97 20.2834 145.697 20.4576C145.28 20.7282 144.748 20.8278 144.133 20.7858C143.617 20.7515 143.136 20.6442 142.692 20.4902C142.385 20.3876 142.087 20.2709 141.793 20.1574C141.73 20.1327 141.673 20.1037 141.619 20.0727C141.588 20.0548 141.558 20.0361 141.529 20.0174C141.384 19.9241 141.421 19.7934 141.6 19.7234C142.345 19.4279 143.093 19.1308 143.716 18.7466C143.746 18.7263 143.78 18.7093 143.821 18.6859C143.683 18.619 143.557 18.5552 143.428 18.4961L143.328 18.4977C142.838 18.6797 142.312 18.8166 141.765 18.9255C141.237 19.0297 140.705 19.0483 140.191 18.8881C140.039 18.8397 139.903 18.7792 139.781 18.7089C139.711 18.6686 139.646 18.6251 139.585 18.5786C139.086 18.2006 138.88 17.7588 138.74 17.3C138.713 17.2097 138.693 17.118 138.688 17.0278C138.684 16.8676 138.834 16.7836 139.111 16.8038C139.35 16.8209 139.583 16.8536 139.82 16.8816C140.476 16.9562 141.142 16.9843 141.811 16.9889L141.923 16.9827C141.904 16.8785 141.89 16.7805 141.865 16.6824L141.779 16.6451C141.314 16.5502 140.841 16.4631 140.381 16.362C140.074 16.2916 139.794 16.1949 139.562 16.061C139.517 16.0352 139.474 16.0081 139.434 15.9794C139.113 15.7538 139.012 15.491 139.061 15.2063C139.126 14.8501 139.366 14.5296 139.69 14.2326C139.869 14.0693 140.064 13.9121 140.264 13.7582C140.334 13.7084 140.438 13.6633 140.543 13.643C140.658 13.6192 140.776 13.6458 140.882 13.707C140.928 13.7339 140.973 13.7674 141.014 13.8064C141.451 14.2357 142.001 14.6152 142.597 14.9746L142.669 15.0072C142.779 14.9248 142.889 14.8486 142.985 14.7645C143.004 14.7506 142.987 14.7101 142.966 14.6883C142.658 14.3959 142.409 14.0879 142.235 13.7613C142.083 13.4781 142.076 13.1982 142.314 12.929C142.461 12.7658 142.677 12.6335 142.94 12.5277C143.629 12.2462 144.42 12.1326 145.236 12.0642C145.395 12.0502 145.569 12.0487 145.72 12.0704C145.775 12.0788 145.82 12.0931 145.853 12.1124C145.924 12.1535 145.946 12.2181 145.925 12.3006C145.87 12.4981 145.777 12.6926 145.74 12.8917C145.683 13.2184 145.655 13.5466 145.614 13.8732L145.628 13.9183C145.8 13.909 145.969 13.9012 146.141 13.8857C146.173 13.8826 146.202 13.8467 146.216 13.8234C146.314 13.6445 146.393 13.4641 146.505 13.2899C146.654 13.0535 146.828 12.8248 147.108 12.6304C147.585 12.2975 148.202 12.2104 148.906 12.2882C149.524 12.3566 150.072 12.5183 150.595 12.7205C150.759 12.7843 150.918 12.8481 151.079 12.9166C151.128 12.937 151.178 12.9607 151.225 12.9874C151.47 13.1296 151.444 13.2727 151.189 13.3707C150.884 13.4889 150.559 13.5994 150.273 13.7316C149.839 13.9276 149.429 14.1438 148.995 14.3585C149.159 14.4378 149.294 14.5 149.429 14.5591L149.539 14.5483C150.072 14.3663 150.63 14.2138 151.223 14.1065C151.917 13.98 152.61 14.085 153.098 14.3665C153.209 14.431 153.31 14.5048 153.398 14.5871C153.838 15.0056 154.037 15.4613 154.147 15.9373C154.163 16.0057 154.153 16.0836 154.113 16.1473C154.057 16.2453 153.893 16.2748 153.66 16.2453C152.797 16.1442 151.927 16.0664 151.043 16.0711C150.992 16.0726 150.938 16.0695 150.877 16.068C150.896 16.1691 150.91 16.264 150.937 16.3573L151.04 16.4101C151.405 16.4817 151.784 16.5424 152.15 16.6201C152.524 16.6995 152.881 16.7975 153.186 16.9514C153.223 16.9703 153.259 16.9896 153.293 17.0091C153.765 17.2818 153.873 17.6226 153.745 17.9998C153.618 18.367 153.33 18.6936 152.961 18.9985C152.838 19.1012 152.715 19.2038 152.584 19.3018ZM143.777 18.0372C145.237 18.8835 147.621 18.8741 149.029 18.0373C150.479 17.2137 150.494 15.844 149.025 14.9961C147.544 14.1439 145.216 14.1454 143.754 14.9947C142.314 15.8347 142.311 17.188 143.777 18.0372Z" fill="#979695"/>
<path d="M104.84 48.153L115.253 54.1649L115.235 60.4634L104.822 54.4515L104.84 48.153ZM114.603 59.375L114.617 54.5209L105.467 49.238L105.453 54.0921L114.603 59.375Z" fill="#FF7500"/>
<path d="M103.18 45.4353L137.018 64.9716L136.99 74.7898L103.152 55.2535L103.18 45.4353ZM115.235 60.4634L115.253 54.1649L104.84 48.1529L104.822 54.4514L115.235 60.4634ZM134.634 67.7008L134.638 66.3213L128.738 62.9149L128.734 64.2944L134.634 67.7008ZM134.625 70.6939L134.629 69.3207L128.729 65.9143L128.725 67.2874L134.625 70.6939ZM126.174 62.8167L126.178 61.4372L120.493 58.155L120.49 59.5345L126.174 62.8167ZM126.166 65.8098L126.17 64.4366L120.485 61.1544L120.481 62.5276L126.166 65.8098Z" fill="#4C4C4C"/>
<path d="M113.815 54.8725L113.811 56.4096L109.15 53.7173L109.155 52.1824L113.815 54.8725Z" fill="#FEB373"/>
<path d="M114.617 54.5209L114.603 59.375L105.453 54.0921L105.467 49.238L114.617 54.5209ZM113.812 56.4088L113.816 54.8733L109.156 52.1828L109.152 53.7183L113.812 56.4088Z" fill="#4C4C4C"/>
<path d="M126.177 61.4366L126.173 62.8161L120.488 59.5351L120.493 58.1556L126.177 61.4366Z" fill="white"/>
<path d="M134.629 69.3203L134.627 70.6931L128.727 67.2877L128.729 65.9149L134.629 69.3203Z" fill="#D98F51"/>
<path d="M134.637 66.3214L134.634 67.7009L128.734 64.2955L128.737 62.916L134.637 66.3214Z" fill="#D98F51"/>
<path d="M126.169 64.4376L126.167 65.8104L120.48 62.5272L120.485 61.1544L126.169 64.4376Z" fill="white"/>
<path d="M104.84 63.2787L115.253 69.2906L115.235 75.5891L104.822 69.5772L104.84 63.2787ZM114.603 74.5007L114.617 69.6467L105.467 64.3638L105.453 69.2178L114.603 74.5007Z" fill="#FF7500"/>
<path d="M103.18 60.561L137.018 80.0973L136.99 89.9155L103.152 70.3792L103.18 60.561ZM115.235 75.5891L115.253 69.2906L104.84 63.2787L104.822 69.5772L115.235 75.5891ZM134.634 82.8265L134.638 81.447L128.738 78.0406L128.734 79.4201L134.634 82.8265ZM134.625 85.8196L134.629 84.4464L128.729 81.04L128.725 82.4132L134.625 85.8196ZM126.174 77.9425L126.178 76.563L120.493 73.2808L120.49 74.6603L126.174 77.9425ZM126.166 80.9355L126.17 79.5624L120.485 76.2802L120.481 77.6533L126.166 80.9355Z" fill="#4C4C4C"/>
<path d="M113.815 69.9999L113.811 71.5349L109.15 68.8448L109.155 67.3076L113.815 69.9999Z" fill="#FEB373"/>
<path d="M114.617 69.6467L114.603 74.5007L105.453 69.2178L105.467 64.3638L114.617 69.6467ZM113.812 71.5345L113.816 69.999L109.156 67.3085L109.152 68.844L113.812 71.5345Z" fill="#4C4C4C"/>
<path d="M126.177 76.5641L126.173 77.9436L120.488 74.6604L120.493 73.2809L126.177 76.5641Z" fill="white"/>
<path d="M134.629 84.4455L134.627 85.8206L128.727 82.413L128.729 81.0402L134.629 84.4455Z" fill="#D98F51"/>
<path d="M134.637 81.4466L134.634 82.8261L128.734 79.4207L128.737 78.0413L134.637 81.4466Z" fill="#D98F51"/>
<path d="M126.169 79.563L126.167 80.9358L120.48 77.6526L120.485 76.2798L126.169 79.563Z" fill="white"/>
<path d="M104.84 78.4044L115.253 84.4163L115.235 90.7149L104.822 84.7029L104.84 78.4044ZM114.603 89.6264L114.617 84.7724L105.467 79.4895L105.453 84.3436L114.603 89.6264Z" fill="#FF7500"/>
<path d="M103.18 75.6868L137.018 95.2231L136.99 105.041L103.152 85.505L103.18 75.6868ZM115.235 90.7149L115.253 84.4163L104.84 78.4044L104.822 84.7029L115.235 90.7149ZM134.634 97.9523L134.638 96.5728L128.738 93.1664L128.734 94.5459L134.634 97.9523ZM134.625 100.945L134.629 99.5722L128.729 96.1658L128.725 97.5389L134.625 100.945ZM126.174 93.0682L126.178 91.6887L120.493 88.4065L120.49 89.786L126.174 93.0682ZM126.166 96.0613L126.17 94.6881L120.485 91.4059L120.481 92.7791L126.166 96.0613Z" fill="#4C4C4C"/>
<path d="M113.815 85.1253L113.811 86.6602L109.15 83.9701L109.155 82.4352L113.815 85.1253Z" fill="#FEB373"/>
<path d="M114.617 84.7724L114.603 89.6264L105.453 84.3435L105.467 79.4895L114.617 84.7724ZM113.812 86.6603L113.816 85.1247L109.156 82.4342L109.152 83.9698L113.812 86.6603Z" fill="#4C4C4C"/>
<path d="M126.177 91.6894L126.173 93.0689L120.488 89.7857L120.493 88.4062L126.177 91.6894Z" fill="white"/>
<path d="M134.629 99.573L134.627 100.946L128.727 97.5382L128.729 96.1654L134.629 99.573Z" fill="#D98F51"/>
<path d="M134.637 96.572L134.634 97.9515L128.734 94.5461L128.737 93.1666L134.637 96.572Z" fill="#D98F51"/>
<path d="M126.169 94.6882L126.167 96.061L120.48 92.7801L120.485 91.405L126.169 94.6882Z" fill="white"/>
<path d="M104.84 93.5303L115.253 99.5422L115.235 105.841L104.822 99.8288L104.84 93.5303ZM114.603 104.752L114.617 99.8983L105.467 94.6154L105.453 99.4694L114.603 104.752Z" fill="#FF7500"/>
<path d="M103.18 90.8126L137.018 110.349L136.99 120.167L103.152 100.631L103.18 90.8126ZM115.235 105.841L115.253 99.5422L104.84 93.5303L104.822 99.8288L115.235 105.841ZM134.634 113.078L134.638 111.699L128.738 108.292L128.734 109.672L134.634 113.078ZM134.625 116.071L134.629 114.698L128.729 111.292L128.725 112.665L134.625 116.071ZM126.174 108.194L126.178 106.815L120.493 103.532L120.49 104.912L126.174 108.194ZM126.166 111.187L126.17 109.814L120.485 106.532L120.481 107.905L126.166 111.187Z" fill="#4C4C4C"/>
<path d="M113.815 100.251L113.811 101.786L109.15 99.0955L109.155 97.5605L113.815 100.251Z" fill="#FEB373"/>
<path d="M114.617 99.8982L114.603 104.752L105.453 99.4694L105.467 94.6154L114.617 99.8982ZM113.812 101.786L113.816 100.251L109.156 97.5601L109.152 99.0956L113.812 101.786Z" fill="#4C4C4C"/>
<path d="M126.177 106.815L126.173 108.194L120.488 104.911L120.493 103.532L126.177 106.815Z" fill="white"/>
<path d="M134.629 114.698L134.627 116.071L128.727 112.664L128.729 111.291L134.629 114.698Z" fill="#D98F51"/>
<path d="M134.637 111.7L134.634 113.079L128.734 109.671L128.737 108.292L134.637 111.7Z" fill="#D98F51"/>
<path d="M126.169 109.814L126.167 111.186L120.48 107.906L120.485 106.533L126.169 109.814Z" fill="white"/>
<path d="M104.84 108.656L115.253 114.668L115.235 120.966L104.822 114.955L104.84 108.656ZM114.603 119.878L114.617 115.024L105.467 109.741L105.453 114.595L114.603 119.878Z" fill="#FF7500"/>
<path d="M103.18 105.938L137.018 125.475L136.99 135.293L103.152 115.757L103.18 105.938ZM115.235 120.966L115.253 114.668L104.84 108.656L104.822 114.954L115.235 120.966ZM134.634 128.204L134.638 126.824L128.738 123.418L128.734 124.797L134.634 128.204ZM134.625 131.197L134.629 129.824L128.729 126.417L128.725 127.79L134.625 131.197ZM126.174 123.32L126.178 121.94L120.493 118.658L120.49 120.038L126.174 123.32ZM126.166 126.313L126.17 124.94L120.485 121.657L120.481 123.031L126.166 126.313Z" fill="#4C4C4C"/>
<path d="M113.815 115.376L113.811 116.911L109.15 114.221L109.155 112.686L113.815 115.376Z" fill="#FEB373"/>
<path d="M114.617 115.024L114.603 119.878L105.453 114.595L105.467 109.741L114.617 115.024ZM113.812 116.912L113.816 115.376L109.156 112.686L109.152 114.221L113.812 116.912Z" fill="#4C4C4C"/>
<path d="M126.177 121.94L126.173 123.319L120.488 120.039L120.493 118.659L126.177 121.94Z" fill="white"/>
<path d="M134.629 129.824L134.627 131.197L128.727 127.791L128.729 126.418L134.629 129.824Z" fill="#D98F51"/>
<path d="M134.637 126.825L134.634 128.204L128.734 124.797L128.737 123.417L134.637 126.825Z" fill="#D98F51"/>
<path d="M126.169 124.939L126.167 126.312L120.48 123.031L120.485 121.658L126.169 124.939Z" fill="white"/>
<path d="M104.84 123.782L115.253 129.794L115.235 136.092L104.822 130.08L104.84 123.782ZM114.603 135.004L114.617 130.15L105.467 124.867L105.453 129.721L114.603 135.004Z" fill="#FF7500"/>
<path d="M103.18 121.064L137.018 140.6L136.99 150.419L103.152 130.882L103.18 121.064ZM115.235 136.092L115.253 129.794L104.84 123.782L104.822 130.08L115.235 136.092ZM134.634 143.33L134.638 141.95L128.738 138.544L128.734 139.923L134.634 143.33ZM134.625 146.323L134.629 144.949L128.729 141.543L128.725 142.916L134.625 146.323ZM126.174 138.446L126.178 137.066L120.493 133.784L120.49 135.163L126.174 138.446ZM126.166 141.439L126.17 140.065L120.485 136.783L120.481 138.156L126.166 141.439Z" fill="#4C4C4C"/>
<path d="M113.815 130.501L113.811 132.038L109.15 129.346L109.155 127.811L113.815 130.501Z" fill="#FEB373"/>
<path d="M114.617 130.15L114.603 135.004L105.453 129.721L105.467 124.867L114.617 130.15ZM113.812 132.038L113.816 130.502L109.156 127.812L109.152 129.347L113.812 132.038Z" fill="#4C4C4C"/>
<path d="M126.177 137.065L126.173 138.445L120.488 135.164L120.493 133.784L126.177 137.065Z" fill="white"/>
<path d="M134.629 144.949L134.627 146.322L128.727 142.917L128.729 141.544L134.629 144.949Z" fill="#D98F51"/>
<path d="M134.637 141.95L134.634 143.33L128.734 139.924L128.737 138.543L134.637 141.95Z" fill="#D98F51"/>
<path d="M126.169 140.066L126.167 141.439L120.48 138.156L120.485 136.783L126.169 140.066Z" fill="white"/>
<path d="M190.496 162.891L190.427 183.297L156.742 203.025L156.811 182.621L190.496 162.891Z" fill="#595959"/>
<path d="M187.257 168.909L160.191 184.567V186.766L187.257 171.11V168.909Z" fill="#4C4C4C"/>
<path d="M187.257 174.28L160.191 189.936V192.138L187.257 176.482V174.28Z" fill="#4C4C4C"/>
<path d="M187.257 179.651L160.191 195.308V197.509L187.257 181.853V179.651Z" fill="#4C4C4C"/>
<path d="M190.328 132.608L148.575 156.714L148.535 142.61L190.288 118.504L190.328 132.608ZM149.396 155.292L189.502 132.137L189.467 119.925L149.361 143.081L149.396 155.292Z" fill="#C1C1C1"/>
<path d="M158.588 139.629L158.595 141.73L160.421 140.677L160.414 138.574L158.588 139.629Z" fill="#C1C1C1"/>
<path d="M150.791 144.129L150.798 146.231L157.133 142.574L157.126 140.473L150.791 144.129Z" fill="#C1C1C1"/>
<path d="M148.275 56.605L144.49 58.8042L140.691 56.6117L144.477 54.4103L148.275 56.605Z" fill="#4C4C4C"/>
<path d="M191.996 31.3391L188.211 33.5405L184.412 31.348L188.197 29.1466L191.996 31.3391Z" fill="#4C4C4C"/>
<path d="M106.359 32.7341L102.574 34.9355L98.7754 32.7408L102.561 30.5416L106.359 32.7341Z" fill="#4C4C4C"/>
<path d="M191.538 67.6075L149.93 91.6473V93.1134L191.538 69.0115V67.6075Z" fill="#979695"/>
<path d="M191.538 72.941L149.93 96.9808V98.4491L191.538 74.3472V72.941Z" fill="#979695"/>
<path d="M191.538 78.2745L149.93 102.314V103.783L191.538 79.6807V78.2745Z" fill="#979695"/>
<path d="M191.538 83.6082L149.93 107.65V109.116L191.538 85.0143V83.6082Z" fill="#979695"/>
<path d="M191.538 88.9417L149.93 112.984V114.45L191.538 90.3478V88.9417Z" fill="#979695"/>
<path d="M268.773 173.902L268.656 215.569L211.162 249.243L211.28 207.576L268.773 173.902Z" fill="#686868"/>
<path d="M211.28 207.576L211.162 249.243L155.23 216.886L155.348 175.22L211.28 207.576Z" fill="#FF7500"/>
<path d="M205.071 211.846L159.942 185.74L159.824 189.07L205.071 215.244V211.846Z" fill="#686868"/>
<path d="M205.071 220.14L159.942 194.035L159.824 197.365L205.071 223.539V220.14Z" fill="#686868"/>
<path d="M205.071 228.437L159.942 202.329L159.824 205.659L205.071 231.836V228.437Z" fill="#686868"/>
<path d="M205.071 236.732L159.942 210.624L159.824 213.954L205.071 240.13V236.732Z" fill="#686868"/>
<path d="M268.773 173.902L211.28 207.576L155.348 175.22L212.841 141.546L268.773 173.902Z" fill="#979695"/>
<path d="M262.023 70.2864L261.896 173.594L211.598 203.085L211.724 99.7796L262.023 70.2864Z" fill="#CECECE"/>
<path d="M211.724 99.7796L211.597 203.085L162.916 174.915L163.043 71.6104L211.724 99.7796Z" fill="#E0E0E0"/>
<path d="M167.385 172.341L167.5 79.3496L207.254 102.354L207.141 195.345L167.385 172.341Z" fill="#383838"/>
<path d="M262.023 70.2864L211.724 99.7796L163.043 71.6104L213.342 42.1172L262.023 70.2864Z" fill="#EDECEB"/>
<path d="M228.321 54.044C229.007 54.4402 229.014 55.0837 228.329 55.4815L215.019 63.2162C214.338 63.6124 213.224 63.6124 212.538 63.2162L199.138 55.48C198.452 55.0838 198.448 54.4387 199.13 54.0425L212.44 46.3078C213.124 45.9099 214.235 45.9115 214.921 46.3078L228.321 54.044Z" fill="#595959"/>
<path d="M220.542 58.4032C219.756 58.8606 218.855 59.2249 217.855 59.4958C214.28 60.4596 209.993 60.02 207.191 58.4032C203.495 56.2712 203.477 52.8022 207.142 50.6701C210.815 48.5382 216.807 48.5382 220.498 50.6701C224.193 52.8023 224.211 56.2712 220.542 58.4032Z" fill="#424242"/>
<path d="M220.499 50.6689C224.193 52.8015 224.21 56.2708 220.541 58.4035C219.756 58.8593 218.853 59.2259 217.853 59.4962C214.278 60.4603 209.993 60.0221 207.19 58.4036C203.496 56.2709 203.476 52.8002 207.144 50.6688C210.814 48.5362 216.806 48.5362 220.499 50.6689ZM217.706 59.3121C218.668 59.0521 219.539 58.6986 220.293 58.2603C223.827 56.2065 223.808 52.8643 220.253 50.812C216.696 48.7582 210.928 48.7596 207.394 50.8134C203.863 52.8658 203.879 56.2066 207.436 58.2605C210.136 59.8191 214.261 60.2412 217.706 59.3121Z" fill="#383838"/>
<path d="M215.369 53.8004C216.262 54.3162 216.254 55.1801 215.365 55.6964C214.444 56.2346 212.962 56.2377 212.035 55.7026C211.125 55.1769 211.109 54.3152 212.03 53.7801C212.93 53.2568 214.425 53.2559 215.308 53.7653C215.317 53.7707 215.326 53.7761 215.336 53.7816C215.347 53.7878 215.358 53.7941 215.369 53.8004Z" fill="#979695"/>
<path d="M219.877 57.5288C219.719 57.6486 219.515 57.6921 219.364 57.6206C219.337 57.6075 219.311 57.5934 219.285 57.5786C219.189 57.5234 219.106 57.4578 219.035 57.3904C218.596 56.9844 218.059 56.625 217.482 56.286L217.423 56.2611C217.311 56.3389 217.199 56.4105 217.1 56.4866C217.081 56.5007 217.105 56.5427 217.13 56.566C217.451 56.8506 217.689 57.1587 217.873 57.479C218.033 57.7512 218.072 58.025 217.87 58.2956C217.718 58.4994 217.464 58.6565 217.145 58.7794C216.4 59.0625 215.571 59.1791 214.701 59.2321C214.511 59.2436 214.377 59.2257 214.296 59.1789C214.203 59.125 214.18 59.0329 214.224 58.9038C214.3 58.6814 214.372 58.4559 214.432 58.2304C214.477 58.0701 214.508 57.9115 214.523 57.7497C214.539 57.6283 214.522 57.5039 214.516 57.3795L214.438 57.3406C214.304 57.3468 214.167 57.3546 214.032 57.3671L213.942 57.4199C213.814 57.6439 213.708 57.8679 213.567 58.0872C213.431 58.3035 213.263 58.5103 212.99 58.6845C212.573 58.9552 212.041 59.0547 211.426 59.0128C210.91 58.9785 210.429 58.8712 209.985 58.7172C209.678 58.6146 209.38 58.4979 209.086 58.3843C209.023 58.3597 208.965 58.3307 208.912 58.2996C208.881 58.2817 208.851 58.2631 208.822 58.2444C208.677 58.1511 208.714 58.0204 208.893 57.9504C209.638 57.6548 210.386 57.3578 211.009 56.9735C211.039 56.9533 211.073 56.9362 211.114 56.9128C210.976 56.846 210.85 56.7822 210.721 56.7231L210.621 56.7247C210.131 56.9066 209.605 57.0436 209.058 57.1524C208.529 57.2566 207.998 57.2753 207.484 57.1151C207.332 57.0667 207.196 57.0062 207.074 56.9358C207.004 56.8955 206.939 56.852 206.878 56.8056C206.379 56.4275 206.173 55.9858 206.033 55.527C206.006 55.4367 205.986 55.3449 205.981 55.2547C205.977 55.0945 206.127 55.0105 206.404 55.0308C206.643 55.0479 206.876 55.0805 207.113 55.1086C207.769 55.1832 208.435 55.2112 209.103 55.2158L209.216 55.2097C209.197 55.1054 209.183 55.0074 209.158 54.9094L209.072 54.872C208.607 54.7772 208.134 54.69 207.674 54.589C207.367 54.5186 207.087 54.4219 206.855 54.2879C206.81 54.2621 206.767 54.235 206.727 54.2063C206.406 53.9807 206.305 53.7179 206.354 53.4332C206.419 53.077 206.659 52.7566 206.983 52.4595C207.162 52.2962 207.357 52.139 207.557 51.9851C207.627 51.9353 207.731 51.8902 207.836 51.8699C207.951 51.8462 208.069 51.8727 208.175 51.9339C208.221 51.9608 208.266 51.9943 208.307 52.0333C208.744 52.4626 209.294 52.8421 209.89 53.2015L209.962 53.2341C210.072 53.1517 210.182 53.0755 210.278 52.9914C210.296 52.9775 210.28 52.937 210.259 52.9152C209.951 52.6228 209.702 52.3148 209.528 51.9882C209.376 51.705 209.369 51.4251 209.607 51.156C209.754 50.9927 209.97 50.8604 210.233 50.7547C210.922 50.4731 211.713 50.3596 212.529 50.2911C212.687 50.2771 212.862 50.2756 213.012 50.2973C213.068 50.3057 213.113 50.32 213.146 50.3393C213.217 50.3805 213.239 50.445 213.218 50.5275C213.163 50.7251 213.07 50.9195 213.033 51.1187C212.976 51.4453 212.948 51.7735 212.907 52.1001L212.921 52.1453C213.093 52.1359 213.262 52.1281 213.434 52.1126C213.466 52.1095 213.495 52.0736 213.508 52.0503C213.607 51.8715 213.686 51.6911 213.798 51.5169C213.947 51.2804 214.12 51.0517 214.401 50.8573C214.878 50.5244 215.495 50.4373 216.199 50.5151C216.817 50.5835 217.365 50.7453 217.888 50.9475C218.052 51.0113 218.21 51.075 218.372 51.1435C218.421 51.1639 218.471 51.1876 218.518 51.2144C218.762 51.3566 218.736 51.4997 218.482 51.5977C218.176 51.7159 217.852 51.8264 217.566 51.9585C217.132 52.1545 216.722 52.3707 216.288 52.5854C216.452 52.6648 216.587 52.727 216.722 52.7861L216.832 52.7752C217.365 52.5932 217.923 52.4407 218.516 52.3334C219.21 52.2069 219.903 52.3119 220.39 52.5934C220.502 52.6579 220.603 52.7317 220.691 52.8141C221.131 53.2325 221.329 53.6882 221.44 54.1643C221.456 54.2327 221.446 54.3105 221.406 54.3742C221.35 54.4722 221.186 54.5017 220.953 54.4722C220.09 54.3711 219.219 54.2933 218.336 54.298C218.285 54.2995 218.231 54.2964 218.169 54.2949C218.189 54.396 218.203 54.4909 218.23 54.5842L218.333 54.637C218.698 54.7086 219.077 54.7693 219.443 54.847C219.817 54.9264 220.174 55.0244 220.479 55.1784C220.516 55.1972 220.552 55.2165 220.586 55.236C221.058 55.5086 221.166 55.8495 221.038 56.2267C220.911 56.5939 220.623 56.9205 220.254 57.2254C220.131 57.3282 220.008 57.4308 219.877 57.5288ZM211.07 56.2642C212.53 57.1104 214.914 57.1011 216.322 56.2642C217.772 55.4407 217.787 54.071 216.318 53.223C214.837 52.3708 212.509 52.3724 211.047 53.2217C209.607 54.0616 209.604 55.4149 211.07 56.2642Z" fill="#979695"/>
<path d="M171.932 86.9377L182.345 92.9497L182.327 99.2482L171.914 93.2363L171.932 86.9377ZM181.695 98.1598L181.709 93.3058L172.558 88.0229L172.545 92.8769L181.695 98.1598Z" fill="#FF7500"/>
<path d="M170.272 84.2201L204.11 103.756L204.082 113.575L170.244 94.0383L170.272 84.2201ZM182.327 99.2482L182.345 92.9497L171.932 86.9377L171.914 93.2363L182.327 99.2482ZM201.726 106.486L201.73 105.106L195.83 101.7L195.826 103.079L201.726 106.486ZM201.717 109.479L201.721 108.106L195.821 104.699L195.817 106.072L201.717 109.479ZM193.266 101.602L193.27 100.222L187.585 96.9398L187.581 98.3193L193.266 101.602ZM193.258 104.595L193.262 103.221L187.577 99.9392L187.573 101.312L193.258 104.595Z" fill="#4C4C4C"/>
<path d="M180.907 93.6575L180.903 95.1925L176.242 92.5024L176.247 90.9674L180.907 93.6575Z" fill="#FEB373"/>
<path d="M181.709 93.3057L181.695 98.1598L172.545 92.8769L172.559 88.0228L181.709 93.3057ZM180.904 95.1936L180.908 93.6581L176.248 90.9676L176.244 92.5031L180.904 95.1936Z" fill="#4C4C4C"/>
<path d="M193.269 100.222L193.265 101.601L187.58 98.3202L187.585 96.9407L193.269 100.222Z" fill="white"/>
<path d="M201.723 108.105L201.718 109.478L195.818 106.073L195.823 104.7L201.723 108.105Z" fill="#D98F51"/>
<path d="M201.728 105.107L201.726 106.486L195.826 103.078L195.828 101.699L201.728 105.107Z" fill="#D98F51"/>
<path d="M193.261 103.221L193.259 104.596L187.572 101.312L187.577 99.9396L193.261 103.221Z" fill="white"/>
<path d="M171.932 102.063L182.345 108.075L182.327 114.374L171.914 108.362L171.932 102.063ZM181.695 113.286L181.709 108.431L172.558 103.149L172.545 108.003L181.695 113.286Z" fill="#FF7500"/>
<path d="M170.272 99.3458L204.11 118.882L204.082 128.7L170.244 109.164L170.272 99.3458ZM182.327 114.374L182.345 108.075L171.932 102.063L171.914 108.362L182.327 114.374ZM201.726 121.611L201.73 120.232L195.83 116.825L195.826 118.205L201.726 121.611ZM201.717 124.604L201.721 123.231L195.821 119.825L195.817 121.198L201.717 124.604ZM193.266 116.727L193.27 115.348L187.585 112.066L187.581 113.445L193.266 116.727ZM193.258 119.72L193.262 118.347L187.577 115.065L187.573 116.438L193.258 119.72Z" fill="#4C4C4C"/>
<path d="M180.907 108.783L180.903 110.32L176.242 107.63L176.247 106.093L180.907 108.783Z" fill="#FEB373"/>
<path d="M181.709 108.431L181.695 113.285L172.545 108.003L172.559 103.149L181.709 108.431ZM180.904 110.319L180.908 108.784L176.248 106.093L176.244 107.629L180.904 110.319Z" fill="#4C4C4C"/>
<path d="M193.269 115.347L193.265 116.726L187.58 113.446L187.585 112.066L193.269 115.347Z" fill="white"/>
<path d="M201.723 123.231L201.718 124.603L195.818 121.198L195.823 119.825L201.723 123.231Z" fill="#D98F51"/>
<path d="M201.728 120.232L201.726 121.611L195.826 118.206L195.828 116.826L201.728 120.232Z" fill="#D98F51"/>
<path d="M193.261 118.348L193.259 119.721L187.572 116.438L187.577 115.065L193.261 118.348Z" fill="white"/>
<path d="M171.932 117.189L182.345 123.201L182.327 129.5L171.914 123.488L171.932 117.189ZM181.695 128.411L181.709 123.557L172.558 118.274L172.545 123.128L181.695 128.411Z" fill="#FF7500"/>
<path d="M170.272 114.472L204.11 134.008L204.082 143.826L170.244 124.29L170.272 114.472ZM182.327 129.5L182.345 123.201L171.932 117.189L171.914 123.488L182.327 129.5ZM201.726 136.737L201.73 135.358L195.83 131.951L195.826 133.331L201.726 136.737ZM201.717 139.73L201.721 138.357L195.821 134.951L195.817 136.324L201.717 139.73ZM193.266 131.853L193.27 130.474L187.585 127.191L187.581 128.571L193.266 131.853ZM193.258 134.846L193.262 133.473L187.577 130.191L187.573 131.564L193.258 134.846Z" fill="#4C4C4C"/>
<path d="M180.907 123.91L180.903 125.445L176.242 122.755L176.247 121.218L180.907 123.91Z" fill="#FEB373"/>
<path d="M181.709 123.557L181.695 128.411L172.545 123.128L172.559 118.274L181.709 123.557ZM180.904 125.445L180.908 123.91L176.248 121.219L176.244 122.755L180.904 125.445Z" fill="#4C4C4C"/>
<path d="M193.269 130.475L193.265 131.854L187.58 128.571L187.585 127.191L193.269 130.475Z" fill="white"/>
<path d="M201.723 138.356L201.718 139.731L195.818 136.323L195.823 134.951L201.723 138.356Z" fill="#D98F51"/>
<path d="M201.728 135.357L201.726 136.737L195.826 133.331L195.828 131.952L201.728 135.357Z" fill="#D98F51"/>
<path d="M193.261 133.473L193.259 134.846L187.572 131.563L187.577 130.19L193.261 133.473Z" fill="white"/>
<path d="M171.932 132.315L182.345 138.327L182.327 144.625L171.914 138.614L171.932 132.315ZM181.695 143.537L181.709 138.683L172.558 133.4L172.545 138.254L181.695 143.537Z" fill="#FF7500"/>
<path d="M170.272 129.597L204.11 149.134L204.082 158.952L170.244 139.416L170.272 129.597ZM182.327 144.626L182.345 138.327L171.932 132.315L171.914 138.614L182.327 144.626ZM201.726 151.863L201.73 150.483L195.83 147.077L195.826 148.457L201.726 151.863ZM201.717 154.856L201.721 153.483L195.821 150.076L195.817 151.45L201.717 154.856ZM193.266 146.979L193.27 145.599L187.585 142.317L187.581 143.697L193.266 146.979ZM193.258 149.972L193.262 148.599L187.577 145.317L187.573 146.69L193.258 149.972Z" fill="#4C4C4C"/>
<path d="M180.907 139.036L180.903 140.571L176.242 137.881L176.247 136.346L180.907 139.036Z" fill="#FEB373"/>
<path d="M181.709 138.683L181.695 143.537L172.545 138.254L172.559 133.4L181.709 138.683ZM180.904 140.571L180.908 139.035L176.248 136.345L176.244 137.88L180.904 140.571Z" fill="#4C4C4C"/>
<path d="M193.269 145.6L193.265 146.979L187.58 143.696L187.585 142.317L193.269 145.6Z" fill="white"/>
<path d="M201.723 153.484L201.718 154.856L195.818 151.449L195.823 150.076L201.723 153.484Z" fill="#D98F51"/>
<path d="M201.728 150.483L201.726 151.862L195.826 148.457L195.828 147.077L201.728 150.483Z" fill="#D98F51"/>
<path d="M193.261 148.599L193.259 149.972L187.572 146.691L187.577 145.316L193.261 148.599Z" fill="white"/>
<path d="M171.932 147.441L182.345 153.453L182.327 159.751L171.914 153.739L171.932 147.441ZM181.695 158.663L181.709 153.809L172.558 148.526L172.545 153.38L181.695 158.663Z" fill="#FF7500"/>
<path d="M170.272 144.723L204.11 164.259L204.082 174.078L170.244 154.541L170.272 144.723ZM182.327 159.751L182.345 153.453L171.932 147.441L171.914 153.739L182.327 159.751ZM201.726 166.989L201.73 165.609L195.83 162.203L195.826 163.582L201.726 166.989ZM201.717 169.982L201.721 168.609L195.821 165.202L195.817 166.575L201.717 169.982ZM193.266 162.105L193.27 160.725L187.585 157.443L187.581 158.822L193.266 162.105ZM193.258 165.098L193.262 163.724L187.577 160.442L187.573 161.815L193.258 165.098Z" fill="#4C4C4C"/>
<path d="M180.907 154.161L180.903 155.696L176.242 153.006L176.247 151.471L180.907 154.161Z" fill="#FEB373"/>
<path d="M181.709 153.809L181.695 158.663L172.545 153.38L172.559 148.526L181.709 153.809ZM180.904 155.697L180.908 154.161L176.248 151.471L176.244 153.006L180.904 155.697Z" fill="#4C4C4C"/>
<path d="M193.269 160.725L193.265 162.105L187.58 158.821L187.585 157.442L193.269 160.725Z" fill="white"/>
<path d="M201.723 168.609L201.718 169.982L195.818 166.576L195.823 165.201L201.723 168.609Z" fill="#D98F51"/>
<path d="M201.728 165.61L201.726 166.989L195.826 163.582L195.828 162.202L201.728 165.61Z" fill="#D98F51"/>
<path d="M193.261 163.724L193.259 165.097L187.572 161.816L187.577 160.443L193.261 163.724Z" fill="white"/>
<path d="M171.932 162.567L182.345 168.579L182.327 174.877L171.914 168.865L171.932 162.567ZM181.695 173.789L181.709 168.935L172.558 163.652L172.545 168.506L181.695 173.789Z" fill="#FF7500"/>
<path d="M170.272 159.849L204.11 179.385L204.082 189.203L170.244 169.667L170.272 159.849ZM182.327 174.877L182.345 168.579L171.932 162.567L171.914 168.865L182.327 174.877ZM201.726 182.114L201.73 180.735L195.83 177.329L195.826 178.708L201.726 182.114ZM201.717 185.108L201.721 183.734L195.821 180.328L195.817 181.701L201.717 185.108ZM193.266 177.23L193.27 175.851L187.585 172.569L187.581 173.948L193.266 177.23ZM193.258 180.224L193.262 178.85L187.577 175.568L187.573 176.941L193.258 180.224Z" fill="#4C4C4C"/>
<path d="M180.907 169.286L180.903 170.821L176.242 168.131L176.247 166.596L180.907 169.286Z" fill="#FEB373"/>
<path d="M181.709 168.935L181.695 173.789L172.545 168.506L172.559 163.652L181.709 168.935ZM180.904 170.822L180.908 169.287L176.248 166.596L176.244 168.132L180.904 170.822Z" fill="#4C4C4C"/>
<path d="M193.269 175.851L193.265 177.23L187.58 173.949L187.585 172.57L193.269 175.851Z" fill="white"/>
<path d="M201.723 183.734L201.718 185.107L195.818 181.702L195.823 180.329L201.723 183.734Z" fill="#D98F51"/>
<path d="M201.728 180.735L201.726 182.115L195.826 178.707L195.828 177.328L201.728 180.735Z" fill="#D98F51"/>
<path d="M193.261 178.849L193.259 180.224L187.572 176.941L187.577 175.568L193.261 178.849Z" fill="white"/>
<path d="M257.588 201.676L257.519 222.08L223.834 241.81L223.903 221.407L257.588 201.676Z" fill="#595959"/>
<path d="M254.348 207.694L227.283 223.352V225.552L254.348 209.895V207.694Z" fill="#4C4C4C"/>
<path d="M254.348 213.065L227.283 228.722V230.923L254.348 215.267V213.065Z" fill="#4C4C4C"/>
<path d="M254.348 218.437L227.283 234.093V236.294L254.348 220.636V218.437Z" fill="#4C4C4C"/>
<path d="M257.42 171.392L215.667 195.498L215.627 181.395L257.38 157.289L257.42 171.392ZM216.487 194.077L256.594 170.922L256.559 158.71L216.453 181.866L216.487 194.077Z" fill="#C1C1C1"/>
<path d="M225.68 178.414L225.686 180.515L227.512 179.46L227.506 177.359L225.68 178.414Z" fill="#C1C1C1"/>
<path d="M217.883 182.915L217.889 185.016L224.225 181.36L224.218 179.258L217.883 182.915Z" fill="#C1C1C1"/>
<path d="M215.367 95.3902L211.582 97.5893L207.783 95.3968L211.568 93.1954L215.367 95.3902Z" fill="#4C4C4C"/>
<path d="M259.088 70.1243L255.302 72.3256L251.504 70.1309L255.289 67.9318L259.088 70.1243Z" fill="#4C4C4C"/>
<path d="M173.451 71.5193L169.666 73.7184L165.867 71.5259L169.652 69.3268L173.451 71.5193Z" fill="#4C4C4C"/>
<path d="M258.63 106.393L217.021 130.432V131.899L258.63 107.797V106.393Z" fill="#979695"/>
<path d="M258.63 111.726L217.021 135.766V137.232L258.63 113.13V111.726Z" fill="#979695"/>
<path d="M258.63 117.06L217.021 141.099V142.566L258.63 118.464V117.06Z" fill="#979695"/>
<path d="M258.63 122.393L217.021 146.433V147.901L258.63 123.799V122.393Z" fill="#979695"/>
<path d="M258.63 127.727L217.021 151.767V153.235L258.63 129.133V127.727Z" fill="#979695"/>
<path d="M135.768 173.543L135.65 215.209L78.1562 248.883L78.274 207.216L135.768 173.543Z" fill="#686868"/>
<path d="M78.2743 207.216L78.1566 248.883L22.2246 216.526L22.3423 174.86L78.2743 207.216Z" fill="#FF7500"/>
<path d="M72.0636 211.486L26.9341 185.38L26.8164 188.71L72.0636 214.885V211.486Z" fill="#686868"/>
<path d="M72.0636 219.78L26.9341 193.675L26.8164 197.005L72.0636 223.179V219.78Z" fill="#686868"/>
<path d="M72.0636 228.077L26.9341 201.969L26.8164 205.299L72.0636 231.476V228.077Z" fill="#686868"/>
<path d="M72.0636 236.372L26.9341 210.264L26.8164 213.594L72.0636 239.771V236.372Z" fill="#686868"/>
<path d="M135.767 173.543L78.2738 207.216L22.3418 174.86L79.8354 141.186L135.767 173.543Z" fill="#979695"/>
<path d="M129.015 69.9265L128.888 173.234L78.5918 202.725L78.7184 99.4197L129.015 69.9265Z" fill="#CECECE"/>
<path d="M78.7182 99.4197L78.5916 202.725L29.9102 174.555L30.0368 71.2505L78.7182 99.4197Z" fill="#E0E0E0"/>
<path d="M34.3789 171.981L34.4922 78.9897L74.2459 101.994L74.1326 194.985L34.3789 171.981Z" fill="#383838"/>
<path d="M129.015 69.9266L78.7185 99.4198L30.0371 71.2505L80.3335 41.7573L129.015 69.9266Z" fill="#EDECEB"/>
<path d="M95.0357 53.5458C95.722 53.942 95.7284 54.5855 95.0438 54.9834L81.7342 62.7181C81.0525 63.1142 79.9388 63.1142 79.2525 62.718L65.853 54.9818C65.1668 54.5856 65.1631 53.9405 65.8449 53.5443L79.1545 45.8097C79.8391 45.4118 80.95 45.4134 81.6363 45.8096L95.0357 53.5458Z" fill="#595959"/>
<path d="M87.2572 57.905C86.471 58.3624 85.5694 58.7267 84.57 58.9976C80.9945 59.9614 76.7082 59.5218 73.9055 57.905C70.2101 55.7731 70.1923 52.3041 73.8567 50.1719C77.5299 48.04 83.5218 48.04 87.2128 50.1719C90.9083 52.3041 90.9261 55.7731 87.2572 57.905Z" fill="#424242"/>
<path d="M87.2144 50.1707C90.9083 52.3034 90.9253 55.7727 87.2555 57.9053C86.4712 58.3611 85.5679 58.7278 84.5682 58.998C80.9926 59.9621 76.708 59.5239 73.9047 57.9054C70.2108 55.7727 70.1912 52.302 73.8587 50.1707C77.5285 48.038 83.5204 48.038 87.2144 50.1707ZM84.4209 58.814C85.3828 58.5539 86.2534 58.2005 87.0076 57.7622C90.5417 55.7084 90.5229 52.3662 86.9681 50.3138C83.4107 48.26 77.6433 48.2615 74.1092 50.3153C70.5775 52.3677 70.5937 55.7085 74.151 57.7623C76.8506 59.3209 80.9762 59.743 84.4209 58.814Z" fill="#383838"/>
<path d="M82.0837 53.3023C82.977 53.818 82.9685 54.6819 82.0799 55.1983C81.1591 55.7365 79.6769 55.7395 78.7501 55.2044C77.8395 54.6787 77.8238 53.817 78.7446 53.2819C79.6451 52.7586 81.1401 52.7577 82.0224 53.2671C82.0318 53.2725 82.0412 53.2779 82.0504 53.2834C82.0615 53.2897 82.0727 53.296 82.0837 53.3023Z" fill="#979695"/>
<path d="M86.5917 57.0306C86.4338 57.1504 86.2301 57.194 86.0793 57.1224C86.0519 57.1093 86.0255 57.0952 85.9999 57.0804C85.9043 57.0252 85.8207 56.9596 85.7503 56.8922C85.3104 56.4862 84.774 56.1269 84.1973 55.7878L84.1381 55.7629C84.0257 55.8407 83.9133 55.9122 83.8145 55.9884C83.7957 56.0025 83.8201 56.0445 83.8444 56.0678C84.1656 56.3524 84.4036 56.6605 84.5881 56.9808C84.7481 57.253 84.7872 57.5268 84.5846 57.7974C84.4327 58.0012 84.1785 58.1583 83.8596 58.2812C83.1147 58.5643 82.2856 58.6809 81.4157 58.7339C81.2261 58.7454 81.0919 58.7275 81.0109 58.6807C80.9176 58.6268 80.8947 58.5347 80.9386 58.4056C81.0152 58.1832 81.0865 57.9577 81.1469 57.7322C81.1917 57.5719 81.2231 57.4133 81.2381 57.2515C81.2537 57.1301 81.2369 57.0057 81.2307 56.8813L81.1527 56.8424C81.0184 56.8486 80.8815 56.8564 80.7473 56.8689L80.6564 56.9217C80.5287 57.1457 80.4225 57.3697 80.2815 57.589C80.1456 57.8053 79.9777 58.0121 79.7048 58.1863C79.2874 58.4569 78.7562 58.5565 78.141 58.5146C77.6253 58.4803 77.144 58.373 76.7 58.219C76.3932 58.1164 76.0946 57.9997 75.8012 57.8861C75.7381 57.8615 75.6803 57.8324 75.6266 57.8014C75.5955 57.7835 75.5659 57.7649 75.5372 57.7462C75.3917 57.6529 75.4285 57.5222 75.6081 57.4521C76.353 57.1566 77.1005 56.8596 77.7241 56.4753C77.7535 56.4551 77.7883 56.438 77.8285 56.4146C77.6911 56.3478 77.5646 56.284 77.4353 56.2248L77.3359 56.2265C76.8456 56.4084 76.32 56.5453 75.7728 56.6542C75.2443 56.7584 74.7128 56.7771 74.199 56.6168C74.0466 56.5684 73.9107 56.508 73.7889 56.4376C73.7191 56.3973 73.6539 56.3538 73.5929 56.3073C73.0941 55.9293 72.8875 55.4876 72.7479 55.0288C72.7206 54.9385 72.7013 54.8467 72.6954 54.7565C72.6918 54.5963 72.8417 54.5123 73.1184 54.5326C73.3575 54.5497 73.5913 54.5823 73.8277 54.6103C74.4835 54.685 75.1495 54.713 75.8183 54.7176L75.9309 54.7115C75.9115 54.6072 75.8976 54.5092 75.873 54.4112L75.7868 54.3739C75.3217 54.279 74.8486 54.1919 74.3888 54.0908C74.0821 54.0203 73.8019 53.9237 73.5699 53.7897C73.5252 53.764 73.4822 53.7368 73.4413 53.7081C73.1206 53.4826 73.0197 53.2197 73.0691 52.935C73.1343 52.5788 73.3742 52.2584 73.6974 51.9613C73.8763 51.798 74.0715 51.6409 74.272 51.4869C74.3416 51.4371 74.446 51.392 74.5507 51.3718C74.6663 51.348 74.7834 51.3745 74.8894 51.4358C74.936 51.4626 74.9804 51.4962 75.0216 51.5351C75.459 51.9644 76.009 52.3439 76.6044 52.7033L76.6772 52.7359C76.7868 52.6535 76.8964 52.5773 76.9926 52.4933C77.0113 52.4793 76.9951 52.4388 76.9734 52.4171C76.6656 52.1246 76.4168 51.8166 76.2431 51.49C76.0912 51.2068 76.0842 50.9269 76.3217 50.6578C76.4684 50.4945 76.6852 50.3623 76.9478 50.2565C77.6364 49.9749 78.4279 49.8614 79.2439 49.793C79.4023 49.7789 79.5768 49.7774 79.7273 49.7992C79.7832 49.8076 79.8274 49.8218 79.8609 49.8411C79.9321 49.8823 79.9542 49.9468 79.9328 50.0293C79.8775 50.2269 79.7845 50.4214 79.748 50.6205C79.6908 50.9471 79.6631 51.2754 79.6221 51.6019L79.6356 51.6471C79.8074 51.6378 79.9766 51.63 80.1484 51.6144C80.1806 51.6113 80.21 51.5755 80.2233 51.5522C80.3216 51.3733 80.4011 51.1929 80.5129 51.0187C80.6619 50.7823 80.8352 50.5536 81.1161 50.3591C81.5923 50.0262 82.2093 49.9392 82.9134 50.0169C83.5314 50.0854 84.0802 50.2471 84.6023 50.4493C84.7664 50.5131 84.9253 50.5768 85.0867 50.6453C85.1355 50.6658 85.1861 50.6894 85.2325 50.7162C85.4773 50.8584 85.4513 51.0015 85.1967 51.0995C84.8912 51.2177 84.5669 51.3282 84.2804 51.4604C83.8464 51.6563 83.4368 51.8725 83.0029 52.0872C83.1672 52.1666 83.3018 52.2288 83.4365 52.2879L83.5464 52.277C84.0798 52.0951 84.6376 51.9425 85.2304 51.8353C85.9244 51.7087 86.618 51.8137 87.1053 52.0953C87.217 52.1598 87.318 52.2335 87.4056 52.3159C87.8456 52.7343 88.0443 53.19 88.1543 53.6661C88.1709 53.7345 88.1605 53.8123 88.1206 53.8761C88.0648 53.9741 87.9012 54.0036 87.6673 53.9741C86.8048 53.8729 85.9343 53.7951 85.0508 53.7998C84.9998 53.8014 84.9461 53.7983 84.8843 53.7967C84.9037 53.8978 84.9176 53.9928 84.9451 54.086L85.0474 54.1389C85.413 54.2105 85.792 54.2711 86.1577 54.3489C86.5314 54.4282 86.8891 54.5262 87.1934 54.6802C87.231 54.6991 87.2667 54.7183 87.3006 54.7379C87.7728 55.0105 87.8805 55.3513 87.7525 55.7286C87.6256 56.0957 87.3375 56.4223 86.9685 56.7272C86.8456 56.83 86.7227 56.9326 86.5917 57.0306ZM77.7845 55.766C79.2447 56.6123 81.6293 56.6029 83.0371 55.7661C84.4864 54.9425 84.5017 53.5729 83.0329 52.7249C81.5517 51.8727 79.2235 51.8742 77.762 52.7235C76.322 53.5635 76.3189 54.9168 77.7845 55.766Z" fill="#979695"/>
<path d="M38.9241 86.5778L49.3371 92.5897L49.3192 98.8882L38.9062 92.8763L38.9241 86.5778ZM48.6871 97.7998L48.7008 92.9458L39.5506 87.6629L39.5368 92.5169L48.6871 97.7998Z" fill="#FF7500"/>
<path d="M37.2642 83.8601L71.102 103.396L71.0742 113.215L37.2363 93.6783L37.2642 83.8601ZM49.319 98.8882L49.3369 92.5897L38.9239 86.5778L38.906 92.8763L49.319 98.8882ZM68.7179 106.126L68.7218 104.746L62.8217 101.34L62.8178 102.719L68.7179 106.126ZM68.7094 109.119L68.7133 107.746L62.8132 104.339L62.8093 105.712L68.7094 109.119ZM60.2585 101.242L60.2624 99.8621L54.5774 96.5799L54.5735 97.9593L60.2585 101.242ZM60.25 104.235L60.2539 102.861L54.5689 99.5793L54.565 100.952L60.25 104.235Z" fill="#4C4C4C"/>
<path d="M47.899 93.2976L47.8945 94.8326L43.2363 92.1425L43.2408 90.6075L47.899 93.2976Z" fill="#FEB373"/>
<path d="M48.7011 92.9458L48.6873 97.7998L39.5371 92.5169L39.5509 87.6628L48.7011 92.9458ZM47.896 94.8336L47.9004 93.2981L43.2404 90.6076L43.236 92.1431L47.896 94.8336Z" fill="#4C4C4C"/>
<path d="M60.2632 99.8618L60.2587 101.241L54.5742 97.9603L54.5764 96.5808L60.2632 99.8618Z" fill="white"/>
<path d="M68.713 107.745L68.7086 109.118L62.8086 105.713L62.813 104.34L68.713 107.745Z" fill="#D98F51"/>
<path d="M68.7228 104.747L68.7183 106.126L62.8184 102.718L62.8228 101.339L68.7228 104.747Z" fill="#D98F51"/>
<path d="M60.2534 102.861L60.2489 104.236L54.5645 100.952L54.5689 99.5796L60.2534 102.861Z" fill="white"/>
<path d="M38.9241 101.704L49.3371 107.716L49.3192 114.014L38.9062 108.002L38.9241 101.704ZM48.6871 112.926L48.7008 108.072L39.5506 102.789L39.5368 107.643L48.6871 112.926Z" fill="#FF7500"/>
<path d="M37.2642 98.986L71.102 118.522L71.0742 128.34L37.2363 108.804L37.2642 98.986ZM49.319 114.014L49.3369 107.716L38.9239 101.704L38.906 108.002L49.319 114.014ZM68.7179 121.251L68.7218 119.872L62.8217 116.466L62.8178 117.845L68.7179 121.251ZM68.7094 124.245L68.7133 122.871L62.8132 119.465L62.8093 120.838L68.7094 124.245ZM60.2585 116.367L60.2624 114.988L54.5774 111.706L54.5735 113.085L60.2585 116.367ZM60.25 119.36L60.2539 117.987L54.5689 114.705L54.565 116.078L60.25 119.36Z" fill="#4C4C4C"/>
<path d="M47.899 108.423L47.8945 109.96L43.2363 107.268L43.2408 105.733L47.899 108.423Z" fill="#FEB373"/>
<path d="M48.7011 108.072L48.6873 112.926L39.5371 107.643L39.5509 102.789L48.7011 108.072ZM47.896 109.959L47.9004 108.424L43.2404 105.733L43.236 107.269L47.896 109.959Z" fill="#4C4C4C"/>
<path d="M60.2632 114.987L60.2587 116.367L54.5742 113.086L54.5764 111.706L60.2632 114.987Z" fill="white"/>
<path d="M68.713 122.871L68.7086 124.244L62.8086 120.838L62.813 119.465L68.713 122.871Z" fill="#D98F51"/>
<path d="M68.7228 119.872L68.7183 121.251L62.8184 117.846L62.8228 116.467L68.7228 119.872Z" fill="#D98F51"/>
<path d="M60.2534 117.988L60.2489 119.361L54.5645 116.078L54.5689 114.705L60.2534 117.988Z" fill="white"/>
<path d="M38.9241 116.829L49.3371 122.841L49.3192 129.14L38.9062 123.128L38.9241 116.829ZM48.6871 128.051L48.7008 123.197L39.5506 117.914L39.5368 122.769L48.6871 128.051Z" fill="#FF7500"/>
<path d="M37.2642 114.112L71.102 133.648L71.0742 143.466L37.2363 123.93L37.2642 114.112ZM49.319 129.14L49.3369 122.841L38.9239 116.829L38.906 123.128L49.319 129.14ZM68.7179 136.377L68.7218 134.998L62.8217 131.591L62.8178 132.971L68.7179 136.377ZM68.7094 139.37L68.7133 137.997L62.8132 134.591L62.8093 135.964L68.7094 139.37ZM60.2585 131.493L60.2624 130.114L54.5774 126.831L54.5735 128.211L60.2585 131.493ZM60.25 134.486L60.2539 133.113L54.5689 129.831L54.565 131.204L60.25 134.486Z" fill="#4C4C4C"/>
<path d="M47.899 123.55L47.8945 125.085L43.2363 122.395L43.2408 120.858L47.899 123.55Z" fill="#FEB373"/>
<path d="M48.7011 123.197L48.6873 128.051L39.5371 122.768L39.5509 117.914L48.7011 123.197ZM47.896 125.085L47.9004 123.55L43.2404 120.859L43.236 122.395L47.896 125.085Z" fill="#4C4C4C"/>
<path d="M60.2632 130.115L60.2587 131.494L54.5742 128.211L54.5764 126.831L60.2632 130.115Z" fill="white"/>
<path d="M68.713 137.996L68.7086 139.371L62.8086 135.964L62.813 134.591L68.713 137.996Z" fill="#D98F51"/>
<path d="M68.7228 134.997L68.7183 136.377L62.8184 132.971L62.8228 131.592L68.7228 134.997Z" fill="#D98F51"/>
<path d="M60.2534 133.114L60.2489 134.486L54.5645 131.203L54.5689 129.83L60.2534 133.114Z" fill="white"/>
<path d="M38.9241 131.955L49.3371 137.967L49.3192 144.266L38.9062 138.254L38.9241 131.955ZM48.6871 143.177L48.7008 138.323L39.5506 133.04L39.5368 137.894L48.6871 143.177Z" fill="#FF7500"/>
<path d="M37.2642 129.238L71.102 148.774L71.0742 158.592L37.2363 139.056L37.2642 129.238ZM49.319 144.266L49.3369 137.967L38.9239 131.955L38.906 138.254L49.319 144.266ZM68.7179 151.503L68.7218 150.124L62.8217 146.717L62.8178 148.097L68.7179 151.503ZM68.7094 154.496L68.7133 153.123L62.8132 149.717L62.8093 151.09L68.7094 154.496ZM60.2585 146.619L60.2624 145.239L54.5774 141.957L54.5735 143.337L60.2585 146.619ZM60.25 149.612L60.2539 148.239L54.5689 144.957L54.565 146.33L60.25 149.612Z" fill="#4C4C4C"/>
<path d="M47.899 138.676L47.8945 140.211L43.2363 137.521L43.2408 135.986L47.899 138.676Z" fill="#FEB373"/>
<path d="M48.7011 138.323L48.6873 143.177L39.5371 137.894L39.5509 133.04L48.7011 138.323ZM47.896 140.211L47.9004 138.676L43.2404 135.985L43.236 137.521L47.896 140.211Z" fill="#4C4C4C"/>
<path d="M60.2632 145.24L60.2587 146.62L54.5742 143.336L54.5764 141.957L60.2632 145.24Z" fill="white"/>
<path d="M68.713 153.124L68.7086 154.497L62.8086 151.089L62.813 149.716L68.713 153.124Z" fill="#D98F51"/>
<path d="M68.7228 150.123L68.7183 151.502L62.8184 148.097L62.8228 146.717L68.7228 150.123Z" fill="#D98F51"/>
<path d="M60.2534 148.239L60.2489 149.612L54.5645 146.331L54.5689 144.956L60.2534 148.239Z" fill="white"/>
<path d="M38.9241 147.081L49.3371 153.093L49.3192 159.391L38.9062 153.379L38.9241 147.081ZM48.6871 158.303L48.7008 153.449L39.5506 148.166L39.5368 153.02L48.6871 158.303Z" fill="#FF7500"/>
<path d="M37.2642 144.363L71.102 163.9L71.0742 173.718L37.2363 154.182L37.2642 144.363ZM49.319 159.391L49.3369 153.093L38.9239 147.081L38.906 153.379L49.319 159.391ZM68.7179 166.629L68.7218 165.249L62.8217 161.843L62.8178 163.222L68.7179 166.629ZM68.7094 169.622L68.7133 168.249L62.8132 164.842L62.8093 166.215L68.7094 169.622ZM60.2585 161.745L60.2624 160.365L54.5774 157.083L54.5735 158.463L60.2585 161.745ZM60.25 164.738L60.2539 163.365L54.5689 160.082L54.565 161.456L60.25 164.738Z" fill="#4C4C4C"/>
<path d="M47.899 153.801L47.8945 155.336L43.2363 152.646L43.2408 151.111L47.899 153.801Z" fill="#FEB373"/>
<path d="M48.7011 153.449L48.6873 158.303L39.5371 153.02L39.5509 148.166L48.7011 153.449ZM47.896 155.337L47.9004 153.801L43.2404 151.111L43.236 152.646L47.896 155.337Z" fill="#4C4C4C"/>
<path d="M60.2632 160.365L60.2587 161.745L54.5742 158.462L54.5764 157.082L60.2632 160.365Z" fill="white"/>
<path d="M68.713 168.249L68.7086 169.622L62.8086 166.216L62.813 164.841L68.713 168.249Z" fill="#D98F51"/>
<path d="M68.7228 165.25L68.7183 166.63L62.8184 163.222L62.8228 161.843L68.7228 165.25Z" fill="#D98F51"/>
<path d="M60.2534 163.364L60.2489 164.737L54.5645 161.456L54.5689 160.083L60.2534 163.364Z" fill="white"/>
<path d="M38.9241 162.207L49.3371 168.219L49.3192 174.517L38.9062 168.505L38.9241 162.207ZM48.6871 173.429L48.7008 168.575L39.5506 163.292L39.5368 168.146L48.6871 173.429Z" fill="#FF7500"/>
<path d="M37.2642 159.489L71.102 179.025L71.0742 188.844L37.2363 169.307L37.2642 159.489ZM49.319 174.517L49.3369 168.219L38.9239 162.207L38.906 168.505L49.319 174.517ZM68.7179 181.755L68.7218 180.375L62.8217 176.969L62.8178 178.348L68.7179 181.755ZM68.7094 184.748L68.7133 183.375L62.8132 179.968L62.8093 181.341L68.7094 184.748ZM60.2585 176.871L60.2624 175.491L54.5774 172.209L54.5735 173.588L60.2585 176.871ZM60.25 179.864L60.2539 178.49L54.5689 175.208L54.565 176.581L60.25 179.864Z" fill="#4C4C4C"/>
<path d="M47.899 168.927L47.8945 170.462L43.2363 167.771L43.2408 166.236L47.899 168.927Z" fill="#FEB373"/>
<path d="M48.7011 168.575L48.6873 173.429L39.5371 168.146L39.5509 163.292L48.7011 168.575ZM47.896 170.463L47.9004 168.927L43.2404 166.237L43.236 167.772L47.896 170.463Z" fill="#4C4C4C"/>
<path d="M60.2632 175.491L60.2587 176.87L54.5742 173.589L54.5764 172.21L60.2632 175.491Z" fill="white"/>
<path d="M68.713 183.374L68.7086 184.747L62.8086 181.342L62.813 179.969L68.713 183.374Z" fill="#D98F51"/>
<path d="M68.7228 180.376L68.7183 181.755L62.8184 178.347L62.8228 176.968L68.7228 180.376Z" fill="#D98F51"/>
<path d="M60.2534 178.49L60.2489 179.865L54.5645 176.581L54.5689 175.209L60.2534 178.49Z" fill="white"/>
<path d="M124.578 201.316L124.509 221.72L90.8242 241.45L90.8931 221.047L124.578 201.316Z" fill="#595959"/>
<path d="M121.341 207.334L94.2754 222.993V225.192L121.341 209.535V207.334Z" fill="#4C4C4C"/>
<path d="M121.341 212.705L94.2754 228.362V230.563L121.341 214.905V212.705Z" fill="#4C4C4C"/>
<path d="M121.341 218.077L94.2754 233.733V235.934L121.341 220.276V218.077Z" fill="#4C4C4C"/>
<path d="M124.414 171.032L82.6611 195.138L82.6211 181.035L124.374 156.929L124.414 171.032ZM83.4816 193.717L123.588 170.562L123.553 158.35L83.447 181.506L83.4816 193.717Z" fill="#C1C1C1"/>
<path d="M92.6738 178.054L92.6783 180.156L94.5042 179.1L94.4976 176.999L92.6738 178.054Z" fill="#C1C1C1"/>
<path d="M84.877 182.555L84.8814 184.656L91.2168 181L91.2123 178.898L84.877 182.555Z" fill="#C1C1C1"/>
<path d="M82.3592 95.0303L78.5739 97.2295L74.7754 95.037L78.5606 92.8356L82.3592 95.0303Z" fill="#4C4C4C"/>
<path d="M126.078 69.7644L122.293 71.9658L118.494 69.7711L122.279 67.5719L126.078 69.7644Z" fill="#4C4C4C"/>
<path d="M40.4434 71.1594L36.656 73.3586L32.8574 71.1661L36.6449 68.9669L40.4434 71.1594Z" fill="#4C4C4C"/>
<path d="M125.624 106.033L84.0137 130.073V131.539L125.624 107.437V106.033Z" fill="#979695"/>
<path d="M125.624 111.366L84.0137 135.406V136.872L125.624 112.77V111.366Z" fill="#979695"/>
<path d="M125.624 116.7L84.0137 140.74V142.206L125.624 118.104V116.7Z" fill="#979695"/>
<path d="M125.624 122.033L84.0137 146.073V147.541L125.624 123.44V122.033Z" fill="#979695"/>
<path d="M125.624 127.367L84.0137 151.407V152.875L125.624 128.773V127.367Z" fill="#979695"/>
<path d="M202.859 212.328L202.742 253.994L145.248 287.668L145.366 246.002L202.859 212.328Z" fill="#686868"/>
<path d="M145.366 246.002L145.248 287.668L89.3164 255.311L89.4341 213.645L145.366 246.002Z" fill="#FF7500"/>
<path d="M139.155 250.271L94.0259 224.165L93.9082 227.495L139.155 253.67V250.271Z" fill="#686868"/>
<path d="M139.155 258.566L94.0259 232.46L93.9082 235.79L139.155 261.964V258.566Z" fill="#686868"/>
<path d="M139.155 266.86L94.0259 240.755L93.9082 244.084L139.155 270.259V266.86Z" fill="#686868"/>
<path d="M139.155 275.157L94.0259 249.049L93.9082 252.379L139.155 278.556V275.157Z" fill="#686868"/>
<path d="M202.859 212.328L145.366 246.002L89.4336 213.645L146.927 179.971L202.859 212.328Z" fill="#979695"/>
<path d="M196.107 108.712L195.98 212.017L145.684 241.51L145.81 138.205L196.107 108.712Z" fill="#CECECE"/>
<path d="M145.81 138.205L145.683 241.51L97.002 213.341L97.1286 110.036L145.81 138.205Z" fill="#E0E0E0"/>
<path d="M101.471 210.766L101.584 117.775L141.338 140.779L141.224 233.771L101.471 210.766Z" fill="#383838"/>
<path d="M196.107 108.712L145.81 138.205L97.1289 110.036L147.425 80.5425L196.107 108.712Z" fill="#EDECEB"/>
<path d="M162.372 92.2638C163.058 92.66 163.064 93.3035 162.38 93.7014L149.07 101.436C148.388 101.832 147.275 101.832 146.588 101.436L133.189 93.6999C132.503 93.3036 132.499 92.6585 133.181 92.2624L146.49 84.5277C147.175 84.1298 148.286 84.1314 148.972 84.5276L162.372 92.2638Z" fill="#595959"/>
<path d="M154.593 96.623C153.807 97.0804 152.905 97.4448 151.906 97.7156C148.33 98.6794 144.044 98.2398 141.241 96.623C137.546 94.4911 137.528 91.0221 141.193 88.89C144.866 86.758 150.858 86.758 154.549 88.89C158.244 91.0221 158.262 94.4911 154.593 96.623Z" fill="#424242"/>
<path d="M154.55 88.8887C158.244 91.0214 158.261 94.4907 154.591 96.6233C153.807 97.0791 152.904 97.4458 151.904 97.716C148.329 98.6801 144.044 98.2419 141.241 96.6234C137.547 94.4907 137.527 91.02 141.195 88.8887C144.864 86.756 150.856 86.756 154.55 88.8887ZM151.757 97.532C152.719 97.272 153.589 96.9185 154.344 96.4802C157.878 94.4264 157.859 91.0842 154.304 89.0318C150.747 86.978 144.979 86.9795 141.445 89.0333C137.913 91.0857 137.93 94.4265 141.487 96.4803C144.187 98.0389 148.312 98.461 151.757 97.532Z" fill="#383838"/>
<path d="M149.42 92.0203C150.313 92.5361 150.304 93.3999 149.416 93.9163C148.495 94.4545 147.013 94.4575 146.086 93.9225C145.175 93.3967 145.16 92.535 146.081 91.9999C146.981 91.4766 148.476 91.4757 149.358 91.9851C149.368 91.9905 149.377 91.9959 149.386 92.0014C149.397 92.0077 149.409 92.014 149.42 92.0203Z" fill="#979695"/>
<path d="M153.928 95.7486C153.77 95.8684 153.566 95.9119 153.415 95.8403C153.388 95.8272 153.361 95.8132 153.336 95.7984C153.24 95.7432 153.157 95.6776 153.086 95.6102C152.646 95.2041 152.11 94.8448 151.533 94.5058L151.474 94.4809C151.362 94.5587 151.249 94.6302 151.15 94.7064C151.132 94.7204 151.156 94.7624 151.18 94.7857C151.502 95.0704 151.74 95.3784 151.924 95.6988C152.084 95.971 152.123 96.2447 151.921 96.5154C151.769 96.7192 151.514 96.8763 151.196 96.9992C150.451 97.2822 149.622 97.3989 148.752 97.4519C148.562 97.4634 148.428 97.4454 148.347 97.3986C148.254 97.3448 148.231 97.2527 148.275 97.1236C148.351 96.9012 148.422 96.6756 148.483 96.4501C148.528 96.2899 148.559 96.1312 148.574 95.9695C148.59 95.8481 148.573 95.7236 148.567 95.5993L148.489 95.5603C148.354 95.5666 148.217 95.5743 148.083 95.5868L147.992 95.6396C147.865 95.8637 147.758 96.0877 147.617 96.3069C147.482 96.5232 147.314 96.7301 147.041 96.9043C146.623 97.1749 146.092 97.2745 145.477 97.2325C144.961 97.1982 144.48 97.0909 144.036 96.9369C143.729 96.8343 143.431 96.7176 143.137 96.604C143.074 96.5794 143.016 96.5504 142.963 96.5194C142.931 96.5015 142.902 96.4828 142.873 96.4641C142.728 96.3708 142.764 96.2402 142.944 96.1701C143.689 95.8745 144.436 95.5775 145.06 95.1932C145.089 95.1731 145.124 95.156 145.164 95.1326C145.027 95.0657 144.9 95.0019 144.771 94.9428L144.672 94.9444C144.182 95.1263 143.656 95.2633 143.109 95.3722C142.58 95.4764 142.049 95.495 141.535 95.3348C141.383 95.2864 141.247 95.2259 141.125 95.1556C141.055 95.1153 140.99 95.0717 140.929 95.0253C140.43 94.6473 140.223 94.2055 140.084 93.7467C140.057 93.6564 140.037 93.5647 140.031 93.4745C140.028 93.3143 140.178 93.2302 140.454 93.2505C140.693 93.2676 140.927 93.3003 141.164 93.3283C141.819 93.4029 142.485 93.431 143.154 93.4355L143.267 93.4294C143.247 93.3252 143.234 93.2271 143.209 93.1291L143.123 93.0918C142.658 92.9969 142.185 92.9098 141.725 92.8087C141.418 92.7383 141.138 92.6416 140.906 92.5077C140.861 92.4819 140.818 92.4547 140.777 92.4261C140.457 92.2005 140.356 91.9376 140.405 91.653C140.47 91.2968 140.71 90.9763 141.033 90.6792C141.212 90.5159 141.407 90.3588 141.608 90.2048C141.678 90.155 141.782 90.11 141.887 90.0897C142.002 90.0659 142.119 90.0925 142.225 90.1537C142.272 90.1805 142.316 90.2141 142.358 90.253C142.795 90.6824 143.345 91.0618 143.94 91.4212L144.013 91.4538C144.123 91.3714 144.232 91.2952 144.329 91.2112C144.347 91.1972 144.331 91.1567 144.309 91.135C144.002 90.8425 143.753 90.5345 143.579 90.2079C143.427 89.9248 143.42 89.6448 143.658 89.3757C143.804 89.2124 144.021 89.0802 144.284 88.9744C144.972 88.6928 145.764 88.5793 146.58 88.5109C146.738 88.4968 146.913 88.4953 147.063 88.5171C147.119 88.5255 147.163 88.5397 147.197 88.559C147.268 88.6002 147.29 88.6647 147.269 88.7472C147.213 88.9448 147.12 89.1393 147.084 89.3384C147.027 89.665 146.999 89.9933 146.958 90.3198L146.972 90.365C147.143 90.3557 147.313 90.3479 147.484 90.3323C147.517 90.3292 147.546 90.2934 147.559 90.2701C147.658 90.0912 147.737 89.9108 147.849 89.7366C147.998 89.5002 148.171 89.2715 148.452 89.077C148.928 88.7441 149.545 88.6571 150.249 88.7348C150.867 88.8033 151.416 88.965 151.938 89.1672C152.102 89.231 152.261 89.2947 152.423 89.3632C152.471 89.3837 152.522 89.4073 152.568 89.4341C152.813 89.5763 152.787 89.7194 152.533 89.8174C152.227 89.9356 151.903 90.0461 151.616 90.1783C151.182 90.3742 150.773 90.5904 150.339 90.8051C150.503 90.8845 150.638 90.9467 150.772 91.0058L150.882 90.9949C151.416 90.8129 151.974 90.6604 152.566 90.5532C153.26 90.4266 153.954 90.5316 154.441 90.8131C154.553 90.8777 154.654 90.9514 154.742 91.0338C155.182 91.4522 155.38 91.9079 155.49 92.384C155.507 92.4524 155.496 92.5302 155.457 92.594C155.401 92.692 155.237 92.7215 155.003 92.692C154.141 92.5908 153.27 92.5131 152.387 92.5177C152.336 92.5193 152.282 92.5162 152.22 92.5146C152.24 92.6157 152.254 92.7107 152.281 92.8039L152.383 92.8568C152.749 92.9284 153.128 92.989 153.494 93.0668C153.867 93.1461 154.225 93.2441 154.529 93.3981C154.567 93.417 154.603 93.4362 154.637 93.4558C155.109 93.7284 155.216 94.0692 155.088 94.4465C154.962 94.8136 154.673 95.1402 154.304 95.4452C154.182 95.548 154.059 95.6506 153.928 95.7486ZM145.12 94.484C146.581 95.3302 148.965 95.3209 150.373 94.484C151.822 93.6605 151.838 92.2908 150.369 91.4428C148.888 90.5906 146.559 90.5921 145.098 91.4415C143.658 92.2814 143.655 93.6347 145.12 94.484Z" fill="#979695"/>
<path d="M106.016 125.363L116.429 131.375L116.411 137.673L105.998 131.661L106.016 125.363ZM115.779 136.585L115.793 131.731L106.642 126.448L106.629 131.302L115.779 136.585Z" fill="#FF7500"/>
<path d="M104.356 122.645L138.194 142.181L138.166 151.999L104.328 132.463L104.356 122.645ZM116.411 137.673L116.429 131.375L106.016 125.363L105.998 131.661L116.411 137.673ZM135.81 144.911L135.814 143.531L129.914 140.125L129.91 141.504L135.81 144.911ZM135.801 147.904L135.805 146.53L129.905 143.124L129.901 144.497L135.801 147.904ZM127.35 140.026L127.354 138.647L121.669 135.365L121.665 136.744L127.35 140.026ZM127.342 143.02L127.346 141.646L121.661 138.364L121.657 139.737L127.342 143.02Z" fill="#4C4C4C"/>
<path d="M114.993 132.083L114.989 133.618L110.328 130.928L110.333 129.393L114.993 132.083Z" fill="#FEB373"/>
<path d="M115.793 131.731L115.779 136.585L106.629 131.302L106.643 126.448L115.793 131.731ZM114.988 133.619L114.992 132.083L110.332 129.392L110.328 130.928L114.988 133.619Z" fill="#4C4C4C"/>
<path d="M127.355 138.647L127.351 140.026L121.666 136.743L121.67 135.364L127.355 138.647Z" fill="white"/>
<path d="M135.805 146.531L135.8 147.903L129.9 144.498L129.905 143.123L135.805 146.531Z" fill="#D98F51"/>
<path d="M135.815 143.532L135.81 144.911L129.91 141.504L129.915 140.124L135.815 143.532Z" fill="#D98F51"/>
<path d="M127.345 141.646L127.341 143.019L121.656 139.738L121.661 138.365L127.345 141.646Z" fill="white"/>
<path d="M106.016 140.488L116.429 146.5L116.411 152.799L105.998 146.787L106.016 140.488ZM115.779 151.71L115.793 146.856L106.642 141.574L106.629 146.428L115.779 151.71Z" fill="#FF7500"/>
<path d="M104.356 137.771L138.194 157.307L138.166 167.125L104.328 147.589L104.356 137.771ZM116.411 152.799L116.429 146.5L106.016 140.488L105.998 146.787L116.411 152.799ZM135.81 160.036L135.814 158.657L129.914 155.25L129.91 156.63L135.81 160.036ZM135.801 163.029L135.805 161.656L129.905 158.25L129.901 159.623L135.801 163.029ZM127.35 155.152L127.354 153.773L121.669 150.491L121.665 151.87L127.35 155.152ZM127.342 158.145L127.346 156.772L121.661 153.49L121.657 154.863L127.342 158.145Z" fill="#4C4C4C"/>
<path d="M114.993 147.208L114.989 148.745L110.328 146.053L110.333 144.518L114.993 147.208Z" fill="#FEB373"/>
<path d="M115.793 146.856L115.779 151.71L106.629 146.428L106.643 141.573L115.793 146.856ZM114.988 148.744L114.992 147.209L110.332 144.518L110.328 146.054L114.988 148.744Z" fill="#4C4C4C"/>
<path d="M127.355 153.772L127.351 155.152L121.666 151.871L121.67 150.491L127.355 153.772Z" fill="white"/>
<path d="M135.805 161.656L135.8 163.029L129.9 159.623L129.905 158.251L135.805 161.656Z" fill="#D98F51"/>
<path d="M135.815 158.657L135.81 160.037L129.91 156.629L129.915 155.25L135.815 158.657Z" fill="#D98F51"/>
<path d="M127.345 156.771L127.341 158.146L121.656 154.863L121.661 153.49L127.345 156.771Z" fill="white"/>
<path d="M106.016 155.614L116.429 161.626L116.411 167.925L105.998 161.913L106.016 155.614ZM115.779 166.836L115.793 161.982L106.642 156.699L106.629 161.553L115.779 166.836Z" fill="#FF7500"/>
<path d="M104.356 152.897L138.194 172.433L138.166 182.251L104.328 162.715L104.356 152.897ZM116.411 167.925L116.429 161.626L106.016 155.614L105.998 161.913L116.411 167.925ZM135.81 175.162L135.814 173.783L129.914 170.376L129.91 171.756L135.81 175.162ZM135.801 178.155L135.805 176.782L129.905 173.376L129.901 174.749L135.801 178.155ZM127.35 170.278L127.354 168.899L121.669 165.616L121.665 166.996L127.35 170.278ZM127.342 173.271L127.346 171.898L121.661 168.616L121.657 169.989L127.342 173.271Z" fill="#4C4C4C"/>
<path d="M114.993 162.334L114.989 163.871L110.328 161.181L110.333 159.643L114.993 162.334Z" fill="#FEB373"/>
<path d="M115.793 161.982L115.779 166.836L106.629 161.553L106.643 156.699L115.793 161.982ZM114.988 163.87L114.992 162.335L110.332 159.644L110.328 161.18L114.988 163.87Z" fill="#4C4C4C"/>
<path d="M127.355 168.898L127.351 170.277L121.666 166.996L121.67 165.617L127.355 168.898Z" fill="white"/>
<path d="M135.805 176.781L135.8 178.154L129.9 174.749L129.905 173.376L135.805 176.781Z" fill="#D98F51"/>
<path d="M135.815 173.782L135.81 175.162L129.91 171.757L129.915 170.377L135.815 173.782Z" fill="#D98F51"/>
<path d="M127.345 171.899L127.341 173.272L121.656 169.988L121.661 168.616L127.345 171.899Z" fill="white"/>
<path d="M106.016 170.74L116.429 176.752L116.411 183.05L105.998 177.038L106.016 170.74ZM115.779 181.962L115.793 177.108L106.642 171.825L106.629 176.679L115.779 181.962Z" fill="#FF7500"/>
<path d="M104.356 168.022L138.194 187.559L138.166 197.377L104.328 177.841L104.356 168.022ZM116.411 183.05L116.429 176.752L106.016 170.74L105.998 177.038L116.411 183.05ZM135.81 190.288L135.814 188.908L129.914 185.502L129.91 186.881L135.81 190.288ZM135.801 193.281L135.805 191.908L129.905 188.501L129.901 189.874L135.801 193.281ZM127.35 185.404L127.354 184.024L121.669 180.742L121.665 182.122L127.35 185.404ZM127.342 188.397L127.346 187.024L121.661 183.741L121.657 185.115L127.342 188.397Z" fill="#4C4C4C"/>
<path d="M114.993 177.461L114.989 178.996L110.328 176.306L110.333 174.771L114.993 177.461Z" fill="#FEB373"/>
<path d="M115.793 177.108L115.779 181.962L106.629 176.679L106.643 171.825L115.793 177.108ZM114.988 178.996L114.992 177.46L110.332 174.77L110.328 176.305L114.988 178.996Z" fill="#4C4C4C"/>
<path d="M127.355 184.025L127.351 185.405L121.666 182.121L121.67 180.742L127.355 184.025Z" fill="white"/>
<path d="M135.805 191.907L135.8 193.282L129.9 189.874L129.905 188.501L135.805 191.907Z" fill="#D98F51"/>
<path d="M135.815 188.908L135.81 190.287L129.91 186.882L129.915 185.502L135.815 188.908Z" fill="#D98F51"/>
<path d="M127.345 187.024L127.341 188.397L121.656 185.114L121.661 183.741L127.345 187.024Z" fill="white"/>
<path d="M106.016 185.866L116.429 191.878L116.411 198.176L105.998 192.164L106.016 185.866ZM115.779 197.088L115.793 192.234L106.642 186.951L106.629 191.805L115.779 197.088Z" fill="#FF7500"/>
<path d="M104.356 183.148L138.194 202.684L138.166 212.503L104.328 192.966L104.356 183.148ZM116.411 198.176L116.429 191.878L106.016 185.866L105.998 192.164L116.411 198.176ZM135.81 205.414L135.814 204.034L129.914 200.628L129.91 202.007L135.81 205.414ZM135.801 208.407L135.805 207.034L129.905 203.627L129.901 205L135.801 208.407ZM127.35 200.53L127.354 199.15L121.669 195.868L121.665 197.247L127.35 200.53ZM127.342 203.523L127.346 202.15L121.661 198.867L121.657 200.24L127.342 203.523Z" fill="#4C4C4C"/>
<path d="M114.993 192.586L114.989 194.121L110.328 191.431L110.333 189.896L114.993 192.586Z" fill="#FEB373"/>
<path d="M115.793 192.234L115.779 197.088L106.629 191.805L106.643 186.951L115.793 192.234ZM114.988 194.122L114.992 192.586L110.332 189.896L110.328 191.431L114.988 194.122Z" fill="#4C4C4C"/>
<path d="M127.355 199.151L127.351 200.53L121.666 197.247L121.67 195.867L127.355 199.151Z" fill="white"/>
<path d="M135.805 207.034L135.8 208.407L129.9 205L129.905 203.627L135.805 207.034Z" fill="#D98F51"/>
<path d="M135.815 204.033L135.81 205.413L129.91 202.007L129.915 200.628L135.815 204.033Z" fill="#D98F51"/>
<path d="M127.345 202.149L127.341 203.522L121.656 200.241L121.661 198.866L127.345 202.149Z" fill="white"/>
<path d="M106.016 200.992L116.429 207.004L116.411 213.302L105.998 207.29L106.016 200.992ZM115.779 212.214L115.793 207.36L106.642 202.077L106.629 206.931L115.779 212.214Z" fill="#FF7500"/>
<path d="M104.356 198.274L138.194 217.81L138.166 227.628L104.328 208.092L104.356 198.274ZM116.411 213.302L116.429 207.003L106.016 200.992L105.998 207.29L116.411 213.302ZM135.81 220.539L135.814 219.16L129.914 215.754L129.91 217.133L135.81 220.539ZM135.801 223.532L135.805 222.159L129.905 218.753L129.901 220.126L135.801 223.532ZM127.35 215.655L127.354 214.276L121.669 210.994L121.665 212.373L127.35 215.655ZM127.342 218.648L127.346 217.275L121.661 213.993L121.657 215.366L127.342 218.648Z" fill="#4C4C4C"/>
<path d="M114.993 207.712L114.989 209.247L110.328 206.557L110.333 205.022L114.993 207.712Z" fill="#FEB373"/>
<path d="M115.793 207.36L115.779 212.214L106.629 206.931L106.643 202.077L115.793 207.36ZM114.988 209.247L114.992 207.712L110.332 205.021L110.328 206.557L114.988 209.247Z" fill="#4C4C4C"/>
<path d="M127.355 214.276L127.351 215.655L121.666 212.372L121.67 210.993L127.355 214.276Z" fill="white"/>
<path d="M135.805 222.16L135.8 223.532L129.9 220.127L129.905 218.752L135.805 222.16Z" fill="#D98F51"/>
<path d="M135.815 219.161L135.81 220.54L129.91 217.133L129.915 215.753L135.815 219.161Z" fill="#D98F51"/>
<path d="M127.345 217.275L127.341 218.648L121.656 215.367L121.661 213.994L127.345 217.275Z" fill="white"/>
<path d="M191.67 240.102L191.601 260.505L157.916 280.235L157.987 259.832L191.67 240.102Z" fill="#595959"/>
<path d="M188.432 246.119L161.367 261.776V263.977L188.432 248.321V246.119Z" fill="#4C4C4C"/>
<path d="M188.432 251.491L161.367 267.147V269.348L188.432 253.69V251.491Z" fill="#4C4C4C"/>
<path d="M188.432 256.86L161.367 272.518V274.719L188.432 259.061V256.86Z" fill="#4C4C4C"/>
<path d="M191.506 209.817L149.753 233.923L149.713 219.82L191.466 195.714L191.506 209.817ZM150.573 232.502L190.68 209.347L190.645 197.135L150.539 220.29L150.573 232.502Z" fill="#C1C1C1"/>
<path d="M159.766 216.839L159.77 218.941L161.596 217.886L161.592 215.784L159.766 216.839Z" fill="#C1C1C1"/>
<path d="M151.969 221.34L151.973 223.441L158.309 219.785L158.304 217.681L151.969 221.34Z" fill="#C1C1C1"/>
<path d="M149.451 133.813L145.666 136.015L141.867 133.82L145.652 131.621L149.451 133.813Z" fill="#4C4C4C"/>
<path d="M193.17 108.55L189.384 110.751L185.586 108.556L189.371 106.357L193.17 108.55Z" fill="#4C4C4C"/>
<path d="M107.535 109.945L103.748 112.144L99.9492 109.951L103.737 107.752L107.535 109.945Z" fill="#4C4C4C"/>
<path d="M192.716 144.818L151.105 168.858V170.324L192.716 146.222V144.818Z" fill="#979695"/>
<path d="M192.716 150.151L151.105 174.191V175.657L192.716 151.555V150.151Z" fill="#979695"/>
<path d="M192.716 155.485L151.105 179.525V180.991L192.716 156.889V155.485Z" fill="#979695"/>
<path d="M192.716 160.819L151.105 184.858V186.324L192.716 162.223V160.819Z" fill="#979695"/>
<path d="M192.716 166.152L151.105 190.192V191.658L192.716 167.556V166.152Z" fill="#979695"/>
</svg>
