<svg width="1920" height="1437" viewBox="0 0 1920 1437" fill="none" xmlns="http://www.w3.org/2000/svg">
<path d="M-497.518 1037.96C-423.483 1187.44 -296.757 1306.19 -139.699 1383.48C-125.113 1390.66 -110.369 1397.52 -95.3959 1403.87C-46.1834 1424.71 7.09309 1441.03 60.2391 1434.59C213.972 1416.02 303.005 1248.89 384.967 1136.84C457.632 1037.51 528.198 935.754 604.739 837.217C631.259 802.964 658.39 769.169 686.429 736.049C747.252 664.211 823.639 590.467 917.162 589.219C1011.86 587.959 1086.22 660.115 1157.28 719.709C1240.08 789.143 1334.68 848.539 1441.34 874.724C1478.47 883.84 1517.23 888.541 1555.93 888.239C1628.36 887.691 1700.58 869.647 1761.47 830.28C1834.61 782.992 1886.07 709.606 1929.39 635.224C2017.13 484.695 2079.36 321.535 2113.27 152.756C2123.39 102.394 2130.99 51.5423 2135.97 0.376794" stroke="#83848C" stroke-opacity="0.2" stroke-width="0.692997" stroke-miterlimit="10"/>
</svg>
