<svg width="1920" height="1976" viewBox="0 0 1920 1976" fill="none" xmlns="http://www.w3.org/2000/svg">
<g opacity="0.3">
<path d="M-496.951 1137.52C-413.18 1306.65 -267.7 1444.38 -93.6594 1519.32C-44.144 1540.64 9.66635 1557.25 63.3919 1550.36C218.628 1530.44 307.092 1356.86 388.15 1242.66C485.974 1104.85 580.581 964.435 689.456 834.779C750.58 761.987 827.861 687.314 922.859 687.579C1019.06 687.851 1094.26 764.005 1166.02 827.141C1249.63 900.712 1345.41 963.856 1453.5 992.532C1561.6 1021.21 1683.43 1012.11 1777.51 950.76C1851.19 902.717 1902.36 827.483 1945.08 750.899C2057.34 549.67 2125.09 324.308 2142.13 95.4696" stroke="#83848C" stroke-opacity="0.2" stroke-width="0.692997" stroke-miterlimit="10"/>
<path d="M-497.518 1146.96C-423.483 1296.44 -296.757 1415.19 -139.699 1492.48C-125.113 1499.66 -110.369 1506.52 -95.3959 1512.87C-46.1834 1533.71 7.09309 1550.03 60.2391 1543.59C213.972 1525.02 303.005 1357.89 384.967 1245.84C457.632 1146.51 528.198 1044.75 604.739 946.217C631.259 911.964 658.39 878.169 686.429 845.049C747.252 773.211 823.639 699.467 917.162 698.219C1011.86 696.959 1086.22 769.115 1157.28 828.709C1240.08 898.143 1334.68 957.539 1441.34 983.724C1478.47 992.84 1517.23 997.541 1555.93 997.239C1628.36 996.691 1700.58 978.647 1761.47 939.28C1834.61 891.992 1886.07 818.606 1929.39 744.224C2017.13 593.695 2079.36 430.535 2113.27 261.756C2123.39 211.394 2130.99 160.542 2135.97 109.377" stroke="#83848C" stroke-opacity="0.2" stroke-width="0.692997" stroke-miterlimit="10"/>
<path d="M-498.088 1156.39C-426.522 1300.88 -301.074 1410.14 -141.129 1486.53C-126.61 1493.46 -111.995 1500.2 -97.1386 1506.4C-48.2258 1526.75 4.5133 1542.79 57.0899 1536.81C209.329 1519.6 298.909 1358.9 381.778 1249.01C454.576 1152.49 524.994 1052.55 601.991 955.039C628.455 921.307 655.496 887.984 683.395 855.302C743.914 784.411 819.418 711.6 911.458 708.842C1004.66 706.056 1078.18 774.215 1148.52 830.263C1230.51 895.563 1323.96 951.205 1429.16 974.896C1465.79 983.14 1504.02 987.135 1542.19 986.315C1613.62 984.82 1684.97 966.521 1745.41 927.782C1818.01 881.243 1869.75 809.716 1913.68 737.539C2002.7 591.467 2067.09 434.439 2104.09 271.063C2115.13 222.312 2123.74 173.012 2129.79 123.273" stroke="#83848C" stroke-opacity="0.2" stroke-width="0.692997" stroke-miterlimit="10"/>
<path d="M-498.661 1165.83C-429.558 1305.33 -305.428 1405.12 -142.562 1480.59C-128.111 1487.28 -113.627 1493.9 -98.8918 1499.94C-50.2819 1519.81 1.92627 1535.56 53.92 1530.04C204.655 1514.18 294.768 1359.93 378.578 1252.2C451.486 1158.48 521.999 1060.53 599.222 963.871C625.707 930.713 652.582 897.808 680.347 865.561C740.567 795.624 815.183 723.739 905.733 719.475C997.431 715.163 1070.11 779.317 1139.75 831.824C1220.93 892.985 1313.21 944.88 1416.96 966.084C1453.1 973.453 1490.79 976.746 1528.44 975.414C1598.88 972.968 1669.33 954.422 1729.34 916.297C1801.4 870.507 1853.43 800.839 1897.96 730.867C1988.27 589.242 2054.81 438.356 2094.9 280.377C2106.86 233.238 2116.46 185.492 2123.58 137.173" stroke="#83848C" stroke-opacity="0.2" stroke-width="0.692997" stroke-miterlimit="10"/>
<path d="M-499.223 1175.25C-432.59 1309.78 -309.798 1400.12 -143.978 1474.63C-129.598 1481.09 -115.235 1487.58 -100.621 1493.47C-52.3107 1512.85 -0.639744 1528.31 50.7778 1523.25C200.009 1508.76 290.635 1360.95 375.403 1255.36C448.4 1164.44 518.88 1068.38 596.487 972.691C622.94 940.067 649.695 907.623 677.327 875.811C737.243 806.821 810.965 735.865 900.043 730.095C990.238 724.25 1062.08 784.407 1131.02 833.372C1211.38 890.395 1302.5 938.549 1404.81 957.256C1440.45 963.759 1477.59 966.344 1514.73 964.497C1584.17 961.097 1653.74 942.299 1713.31 904.802C1784.84 859.765 1837.15 791.948 1882.28 724.186C1973.87 587.017 2042.58 442.264 2085.76 289.684C2098.64 244.153 2109.25 197.961 2117.43 151.07" stroke="#83848C" stroke-opacity="0.2" stroke-width="0.692997" stroke-miterlimit="10"/>
<path d="M-499.796 1184.69C-435.632 1314.24 -314.201 1395.15 -145.411 1468.69C-131.105 1474.91 -116.863 1481.27 -102.374 1487.01C-54.3662 1505.91 -3.22257 1521.08 47.6155 1516.48C195.343 1503.33 286.459 1361.97 372.207 1258.54C445.27 1170.4 515.724 1076.23 593.723 981.513C620.143 949.422 646.784 917.437 674.276 886.063C733.893 818.027 806.728 747.997 894.323 740.717C983.018 733.347 1054.01 789.502 1122.25 834.922C1201.81 887.818 1291.75 932.214 1392.62 948.424C1427.76 954.054 1464.36 955.935 1500.98 953.575C1569.43 949.228 1638.12 930.176 1697.24 893.3C1768.23 849.012 1820.82 783.047 1866.56 717.49C1959.43 584.771 2030.3 446.157 2076.56 298.973C2090.37 255.054 2101.98 210.414 2111.23 164.949" stroke="#83848C" stroke-opacity="0.2" stroke-width="0.692997" stroke-miterlimit="10"/>
<path d="M-500.363 1194.13C-438.669 1318.69 -318.629 1390.22 -146.834 1462.75C-132.61 1468.75 -118.485 1474.97 -104.11 1480.56C-56.4093 1498.97 -5.79648 1513.86 44.4654 1509.71C190.696 1497.92 282.271 1363.02 369.027 1261.73C442.129 1176.38 512.591 1084.1 590.984 990.359C617.371 958.803 643.9 927.275 671.255 896.347C730.568 829.257 802.513 760.164 888.632 751.371C975.828 742.474 1045.97 794.626 1113.52 836.504C1192.26 885.261 1281.04 925.91 1380.46 939.629C1415.1 944.388 1451.16 945.566 1487.26 942.685C1554.72 937.387 1622.52 918.087 1681.2 881.833C1751.66 838.294 1804.54 774.183 1850.88 710.835C1945.03 582.573 2018.06 450.091 2067.41 308.31C2082.15 266 2094.76 222.913 2105.07 178.879" stroke="#83848C" stroke-opacity="0.2" stroke-width="0.692997" stroke-miterlimit="10"/>
<path d="M-500.932 1203.56C-441.7 1323.13 -323.083 1385.3 -148.257 1456.79C-134.11 1462.58 -120.099 1468.65 -105.852 1474.08C-58.4476 1492.01 -8.36886 1506.62 41.3135 1502.92C186.044 1492.49 278.058 1364.02 365.835 1264.89C438.956 1182.32 509.428 1091.94 588.229 999.168C614.581 968.139 641.003 937.083 668.215 906.586C727.228 840.45 798.285 772.282 882.922 761.98C968.615 751.551 1037.92 799.712 1104.76 838.044C1182.68 882.667 1270.3 919.565 1368.27 930.791C1402.41 934.683 1437.93 935.15 1473.52 931.757C1539.98 925.512 1606.88 905.953 1665.13 870.321C1735.06 827.538 1788.22 765.279 1835.17 704.133C1930.6 580.321 2005.8 453.978 2058.24 317.59C2073.89 276.891 2087.51 235.356 2098.89 192.749" stroke="#83848C" stroke-opacity="0.2" stroke-width="0.692997" stroke-miterlimit="10"/>
<path d="M-501.501 1213C-444.739 1327.59 -327.567 1380.43 -149.686 1450.85C-135.624 1456.42 -121.731 1462.35 -107.595 1467.62C-60.4966 1485.06 -10.9521 1499.38 38.1542 1496.15C181.381 1487.07 273.808 1365.04 362.646 1268.07C435.756 1188.27 506.275 1099.79 585.474 1008C611.787 977.513 638.103 946.911 665.181 916.849C723.891 851.66 794.058 784.429 877.215 772.607C961.408 760.651 1029.87 804.808 1096 839.599C1173.12 880.084 1259.57 913.231 1356.1 921.969C1389.74 924.99 1424.72 924.755 1459.79 920.847C1525.25 913.647 1591.27 893.844 1649.08 858.827C1718.47 816.793 1771.92 756.392 1819.47 697.445C1916.19 578.089 1993.54 457.879 2049.07 326.893C2065.65 287.803 2080.27 247.829 2092.72 206.636" stroke="#83848C" stroke-opacity="0.2" stroke-width="0.692997" stroke-miterlimit="10"/>
<path d="M-502.063 1222.43C-447.771 1332.04 -332.06 1375.59 -151.109 1444.9C-137.13 1450.25 -123.346 1456.04 -109.337 1461.16C-62.5351 1478.12 -13.5245 1492.15 34.9989 1489.38C176.729 1481.66 269.545 1366.05 359.457 1271.25C432.533 1194.21 503.11 1107.64 582.723 1016.83C608.997 986.859 635.206 956.729 662.145 927.106C720.554 862.87 789.834 796.565 871.508 783.234C954.202 769.752 1021.82 809.905 1087.25 841.153C1163.56 877.5 1248.84 906.9 1343.93 913.141C1377.06 915.29 1411.51 914.35 1446.05 909.93C1510.53 901.779 1575.66 881.718 1633.03 847.335C1701.88 806.057 1755.62 747.505 1803.76 690.766C1901.76 575.861 1981.28 461.79 2039.89 336.2C2057.39 298.722 2073.02 260.299 2086.53 220.536" stroke="#83848C" stroke-opacity="0.2" stroke-width="0.692997" stroke-miterlimit="10"/>
<path d="M-502.648 1231.86C-450.825 1336.49 -336.602 1370.78 -152.543 1438.96C-138.652 1444.1 -124.979 1449.73 -111.082 1454.71C-64.5857 1471.18 -16.1058 1484.93 31.8448 1482.6C172.071 1476.24 265.249 1367.06 356.273 1274.44C429.291 1200.13 499.942 1115.48 579.98 1025.66C606.211 996.225 632.318 966.556 659.116 937.37C717.222 874.082 785.611 808.713 865.81 793.869C947.004 778.861 1013.78 815.009 1078.51 842.716C1154 874.929 1238.12 900.578 1331.76 904.328C1364.4 905.611 1398.31 903.966 1432.33 899.027C1495.81 889.93 1560.06 869.617 1616.99 835.849C1685.3 795.317 1739.32 738.626 1788.07 684.093C1887.36 573.645 1969.04 465.713 2030.74 345.516C2049.16 309.649 2065.79 272.777 2080.38 234.441" stroke="#83848C" stroke-opacity="0.2" stroke-width="0.692997" stroke-miterlimit="10"/>
<path d="M-503.211 1241.3C-453.858 1340.95 -341.144 1366.02 -153.967 1433.01C-140.164 1437.95 -126.598 1443.42 -112.825 1448.25C-66.6253 1464.23 -18.6792 1477.69 28.6885 1475.83C167.411 1470.83 260.924 1368.06 353.083 1277.62C426.013 1206.05 496.768 1123.33 577.222 1034.49C603.407 1005.58 629.413 976.378 656.072 947.631C713.878 885.296 781.376 820.847 860.088 804.503C939.78 787.963 1005.71 820.124 1069.74 844.272C1144.42 872.353 1227.37 894.248 1319.57 895.511C1351.7 895.922 1385.07 893.575 1418.57 888.115C1481.06 878.07 1544.42 857.506 1600.92 824.359C1668.69 784.576 1723 729.741 1772.35 677.409C1872.91 571.411 1956.76 469.618 2021.55 354.824C2040.89 320.566 2058.52 285.248 2074.17 248.342" stroke="#83848C" stroke-opacity="0.2" stroke-width="0.692997" stroke-miterlimit="10"/>
<path d="M-503.775 1250.73C-456.884 1345.39 -345.705 1361.29 -155.39 1427.06C-141.681 1431.79 -128.223 1437.13 -114.562 1441.78C-68.6982 1457.37 -21.2563 1470.45 25.5353 1469.04C162.757 1465.4 256.582 1369.02 349.89 1280.78C422.711 1211.92 493.585 1131.15 574.469 1043.31C600.608 1014.92 626.512 986.199 653.044 957.883C710.547 896.495 777.154 832.982 854.391 815.125C932.583 797.059 997.673 825.216 1060.99 845.825C1134.86 869.769 1216.65 887.916 1307.39 886.682C1339.02 886.22 1371.86 883.168 1404.84 877.196C1466.34 866.194 1528.81 845.379 1584.86 812.86C1652.1 773.833 1706.69 720.849 1756.64 670.723C1858.49 569.182 1944.5 473.521 2012.37 364.123C2032.63 331.477 2051.27 297.71 2067.99 262.224" stroke="#83848C" stroke-opacity="0.2" stroke-width="0.692997" stroke-miterlimit="10"/>
<path d="M-504.349 1260.16C-459.928 1349.85 -350.298 1356.62 -156.818 1421.11C-143.2 1425.65 -129.853 1430.82 -116.309 1435.32C-70.7484 1450.42 -23.8339 1463.21 22.3815 1462.27C158.107 1459.98 252.203 1369.98 346.706 1283.97C419.388 1217.8 490.41 1138.99 571.716 1052.15C597.803 1024.28 623.613 996.023 650.005 968.146C707.208 907.712 772.929 845.125 848.682 825.758C925.375 806.166 989.622 830.318 1052.24 847.386C1125.29 867.195 1205.91 881.592 1295.22 877.867C1326.36 876.537 1358.65 872.779 1391.12 866.289C1451.62 854.339 1513.21 833.273 1568.82 801.375C1635.52 763.097 1690.4 711.972 1740.96 664.051C1844.09 566.96 1932.25 477.439 2003.22 373.439C2024.41 342.402 2044.05 310.189 2061.83 276.131" stroke="#83848C" stroke-opacity="0.2" stroke-width="0.692997" stroke-miterlimit="10"/>
<path d="M-504.909 1269.6C-462.957 1354.3 -354.896 1351.98 -158.238 1415.17C-144.711 1419.51 -131.465 1424.51 -118.042 1428.85C-72.7844 1443.48 -26.4041 1455.98 19.2318 1455.49C153.453 1454.55 247.804 1370.93 343.523 1287.14C416.046 1223.65 487.22 1146.81 568.974 1060.97C595.015 1033.63 620.726 1005.84 646.978 978.399C703.877 918.912 768.707 857.261 842.985 836.381C918.174 815.256 981.581 835.411 1043.49 848.937C1115.74 864.608 1195.2 875.254 1283.05 869.036C1313.69 866.833 1345.44 862.371 1377.4 855.368C1436.9 842.471 1497.6 821.153 1552.77 789.871C1618.94 752.342 1674.11 703.071 1725.27 657.35C1829.68 564.715 1920.01 481.326 1994.06 382.723C2016.17 353.297 2036.82 322.636 2055.66 290.007" stroke="#83848C" stroke-opacity="0.2" stroke-width="0.692997" stroke-miterlimit="10"/>
<path d="M-505.485 1279.03C-466.003 1358.75 -359.527 1347.39 -159.671 1409.22C-146.242 1413.37 -133.097 1418.21 -119.795 1422.4C-74.8405 1436.54 -28.9872 1448.75 16.0725 1448.72C148.79 1449.14 243.358 1371.85 340.334 1290.32C412.674 1229.5 484.027 1154.64 566.223 1069.8C592.214 1042.98 617.828 1015.66 643.94 988.663C700.539 930.129 764.482 869.403 837.277 847.015C910.967 824.363 973.534 840.521 1034.74 850.498C1106.17 862.035 1184.47 868.93 1270.87 860.224C1301.01 857.149 1332.22 851.985 1363.66 844.461C1422.17 830.613 1481.98 809.037 1536.71 778.383C1602.34 741.61 1657.79 694.191 1709.55 650.675C1815.25 562.49 1907.74 485.24 1984.88 392.04C2007.92 364.229 2029.56 335.122 2049.47 303.914" stroke="#83848C" stroke-opacity="0.2" stroke-width="0.692997" stroke-miterlimit="10"/>
<path d="M-506.048 1288.47C-469.029 1363.2 -364.162 1342.86 -161.088 1403.27C-147.753 1407.24 -134.705 1411.9 -121.525 1415.93C-76.8698 1429.59 -31.5509 1441.43 12.9262 1441.94C144.15 1443.45 238.902 1372.74 337.154 1293.49C409.289 1235.3 480.833 1162.45 563.477 1078.63C589.412 1052.32 614.937 1025.48 640.909 998.918C697.205 941.331 760.257 881.542 831.576 857.641C903.773 833.46 965.49 845.617 1025.99 852.056C1096.6 859.454 1173.74 862.602 1258.7 851.399C1288.34 847.458 1319.01 841.583 1349.92 833.547C1407.44 818.745 1466.37 796.924 1520.66 766.892C1585.76 730.864 1641.5 685.304 1693.86 643.996C1800.83 560.268 1895.48 489.151 1975.72 401.343C1999.67 375.144 2022.32 347.588 2043.3 317.8" stroke="#83848C" stroke-opacity="0.2" stroke-width="0.692997" stroke-miterlimit="10"/>
<path d="M-506.625 1297.9C-472.075 1367.65 -368.82 1338.37 -162.524 1397.32C-149.284 1401.1 -136.337 1405.59 -123.281 1409.47C-78.929 1422.64 -34.1444 1434.19 9.75318 1435.16C139.476 1438.03 234.4 1373.61 333.941 1296.67C405.843 1241.09 477.603 1170.26 560.702 1087.45C586.578 1061.66 612.017 1035.29 637.855 1009.16C693.851 952.531 756.016 893.668 825.849 868.25C896.543 842.537 957.412 850.7 1017.22 853.593C1087.02 856.854 1162.98 856.254 1246.51 842.561C1275.64 837.748 1305.78 831.167 1336.17 822.619C1392.7 806.87 1450.73 784.791 1504.59 755.38C1569.15 720.108 1625.17 676.393 1678.13 637.291C1786.39 558.013 1883.21 493.031 1966.53 410.629C1991.41 386.039 2015.05 360.041 2037.1 331.68" stroke="#83848C" stroke-opacity="0.2" stroke-width="0.692997" stroke-miterlimit="10"/>
<path d="M-507.193 1307.33C-475.109 1372.11 -373.492 1333.94 -163.946 1391.37C-150.806 1394.97 -137.957 1399.28 -125.016 1403C-80.9632 1415.68 -36.7091 1426.95 6.61226 1428.38C134.838 1432.61 229.892 1374.43 330.77 1299.84C402.419 1246.86 474.411 1178.06 557.965 1096.28C583.782 1071 609.138 1045.12 634.833 1019.43C690.525 963.74 751.796 905.806 820.157 878.882C889.351 851.643 949.377 855.802 1008.48 855.153C1077.47 854.286 1152.27 849.935 1234.35 833.745C1262.98 828.059 1292.58 820.777 1322.46 811.714C1377.99 795.014 1435.15 772.684 1488.56 743.897C1552.58 709.375 1608.89 667.518 1662.46 630.621C1772 555.8 1870.98 496.957 1957.38 419.945C1983.18 396.967 2007.83 372.519 2030.95 345.585" stroke="#83848C" stroke-opacity="0.2" stroke-width="0.692997" stroke-miterlimit="10"/>
<path d="M-507.757 1316.77C-478.143 1376.56 -378.165 1329.57 -165.367 1385.44C-152.325 1388.86 -139.574 1392.97 -126.757 1396.55C-83.0072 1408.75 -39.2871 1419.73 3.45479 1421.61C130.181 1427.2 225.344 1375.24 327.579 1303.03C398.961 1252.61 471.186 1185.86 555.212 1105.11C580.969 1080.35 606.239 1054.94 631.797 1029.69C687.19 974.961 747.574 917.953 814.451 889.52C882.146 860.754 941.332 860.915 999.73 856.718C1067.91 851.713 1141.54 843.615 1222.17 824.931C1250.31 818.38 1279.36 810.386 1308.72 800.804C1363.26 783.157 1419.52 760.576 1472.49 732.407C1535.97 698.634 1592.57 658.632 1646.74 623.944C1757.56 553.573 1858.71 500.869 1948.2 429.256C1974.92 407.89 2000.58 384.993 2024.77 359.486" stroke="#83848C" stroke-opacity="0.2" stroke-width="0.692997" stroke-miterlimit="10"/>
<path d="M-508.328 1326.2C-481.177 1381.01 -382.864 1325.25 -166.798 1379.48C-153.854 1382.73 -141.197 1386.66 -128.501 1390.08C-85.0509 1401.79 -41.8616 1412.49 0.297388 1414.83C125.53 1421.78 220.766 1375.99 324.392 1306.2C395.487 1258.32 467.964 1193.65 552.466 1113.94C578.164 1089.69 603.34 1064.77 628.765 1039.95C683.854 986.167 743.354 930.093 808.742 900.153C874.935 869.855 933.28 866.018 990.976 858.279C1058.35 849.136 1130.82 837.287 1210 816.116C1237.63 808.693 1266.14 799.997 1294.99 789.9C1348.53 771.299 1403.91 748.466 1456.44 720.926C1519.39 687.908 1576.27 649.758 1631.04 617.269C1743.15 551.354 1846.45 504.783 1939.03 438.573C1966.68 418.815 1993.34 397.473 2018.59 373.396" stroke="#83848C" stroke-opacity="0.2" stroke-width="0.692997" stroke-miterlimit="10"/>
<path d="M-508.889 1335.64C-484.207 1385.46 -387.56 1320.99 -168.213 1373.54C-155.37 1376.62 -142.81 1380.35 -130.235 1383.62C-87.085 1394.84 -44.4427 1405.34 -2.84656 1408.05C120.866 1416.61 216.178 1376.7 321.215 1309.37C392.006 1264 464.743 1201.43 549.719 1122.75C575.354 1099.02 600.448 1074.58 625.733 1050.2C680.522 997.369 739.128 942.223 803.04 910.771C867.733 878.947 925.235 871.106 982.223 859.828C1048.78 846.551 1120.08 830.951 1197.82 807.282C1224.95 798.987 1252.93 789.586 1281.25 778.977C1333.8 759.425 1388.29 736.345 1440.39 709.419C1502.81 677.147 1559.97 640.855 1615.35 610.571C1728.74 549.107 1834.2 508.675 1929.87 447.861C1958.43 429.715 1986.1 409.93 2012.41 387.267" stroke="#83848C" stroke-opacity="0.2" stroke-width="0.692997" stroke-miterlimit="10"/>
<path d="M-509.469 1345.07C-487.256 1389.91 -392.283 1316.79 -169.652 1367.58C-156.907 1370.49 -144.445 1374.03 -131.988 1377.15C-89.1371 1387.88 -47.0256 1398.1 -6.01228 1401.27C116.2 1411.19 211.544 1377.36 318.009 1312.55C388.48 1269.65 461.486 1209.21 546.954 1131.58C572.527 1108.35 597.538 1084.4 622.689 1060.46C677.175 1008.57 734.898 954.358 797.327 921.396C860.52 888.046 917.178 876.201 973.464 861.382C1039.21 843.966 1109.35 824.619 1185.64 798.46C1212.28 789.295 1239.71 779.196 1267.51 768.066C1319.07 747.566 1372.68 724.231 1424.33 697.927C1486.2 666.404 1543.65 631.97 1599.64 603.892C1714.31 546.884 1821.94 512.585 1920.69 457.17C1950.18 440.632 1978.85 422.402 2006.23 401.17" stroke="#83848C" stroke-opacity="0.2" stroke-width="0.692997" stroke-miterlimit="10"/>
<path d="M-510.031 1354.5C-490.289 1394.36 -396.991 1312.66 -171.072 1361.64C-158.427 1364.38 -146.057 1367.73 -133.727 1370.69C-91.1761 1380.93 -49.6021 1390.88 -9.1616 1394.5C111.547 1405.77 206.907 1377.97 314.83 1315.73C384.974 1275.28 458.256 1216.99 544.213 1140.41C569.723 1117.69 594.654 1094.23 619.662 1070.72C673.848 1019.78 730.676 966.501 791.629 932.026C853.32 897.143 909.134 881.311 964.722 862.939C1029.65 841.386 1098.63 818.291 1173.47 789.638C1199.61 779.601 1226.5 768.797 1253.78 757.148C1304.35 735.698 1357.06 712.108 1408.28 686.432C1469.62 655.665 1527.35 623.083 1583.94 597.21C1699.89 544.653 1809.68 516.492 1911.52 466.473C1941.93 451.548 1971.61 434.868 2000.06 415.063" stroke="#83848C" stroke-opacity="0.2" stroke-width="0.692997" stroke-miterlimit="10"/>
<path d="M-510.6 1363.94C-493.327 1398.82 -401.721 1308.6 -172.494 1355.7C-159.947 1358.28 -147.667 1361.4 -135.462 1364.23C-93.1908 1373.91 -52.1676 1383.64 -12.3134 1387.72C106.898 1400.35 202.24 1378.52 311.645 1318.9C381.448 1280.87 455.01 1224.74 541.462 1149.24C566.899 1127.02 591.758 1104.05 616.626 1080.97C670.508 1030.99 726.453 978.639 785.923 942.654C846.114 906.245 901.085 886.409 955.971 864.495C1020.09 838.814 1087.9 811.962 1161.3 780.818C1186.94 769.91 1213.3 758.4 1240.05 746.239C1289.62 723.835 1341.45 700.001 1392.23 674.939C1453.03 644.922 1511.06 614.195 1568.24 590.524C1685.48 542.423 1797.43 520.395 1902.36 475.779C1933.69 462.461 1964.36 447.337 1993.88 428.958" stroke="#83848C" stroke-opacity="0.2" stroke-width="0.692997" stroke-miterlimit="10"/>
<path d="M-511.171 1373.37C-496.36 1403.26 -406.452 1304.6 -173.924 1349.75C-161.479 1352.16 -149.3 1355.08 -137.21 1357.77C-95.2446 1366.96 -54.7552 1376.41 -15.4737 1380.95C102.234 1394.93 197.555 1379.01 308.454 1322.09C377.914 1286.43 451.758 1232.51 538.709 1158.07C564.08 1136.36 588.859 1113.87 613.591 1091.24C667.173 1042.21 722.22 990.786 780.218 953.295C838.91 915.36 893.037 891.519 947.221 866.064C1010.53 836.245 1077.17 805.645 1149.13 772.011C1174.27 760.237 1200.08 748.019 1226.32 735.343C1274.9 711.991 1325.85 687.895 1376.18 663.465C1436.45 634.197 1494.76 605.328 1552.55 583.863C1671.07 540.212 1785.18 524.323 1893.2 485.099C1925.45 473.394 1957.13 459.82 1987.71 442.865" stroke="#83848C" stroke-opacity="0.2" stroke-width="0.692997" stroke-miterlimit="10"/>
<path d="M-511.744 1382.81C-499.403 1407.72 -411.187 1300.68 -175.358 1343.8C-163.01 1346.06 -150.926 1348.77 -138.956 1351.31C-97.2875 1360.01 -57.3324 1369.18 -18.6305 1374.17C97.5733 1389.51 192.859 1379.43 305.264 1325.26C374.38 1291.95 448.5 1240.25 535.954 1166.9C561.255 1145.68 585.958 1123.69 610.556 1101.5C663.835 1053.41 717.999 1002.92 774.51 963.912C831.702 924.451 884.986 896.606 938.462 867.612C1000.95 833.658 1066.43 799.308 1136.94 763.177C1161.58 750.53 1186.86 737.607 1212.58 724.419C1260.17 700.117 1310.22 675.773 1360.12 651.961C1419.85 623.449 1478.45 596.428 1536.83 577.171C1656.63 537.977 1772.91 528.227 1884.02 494.4C1917.19 484.307 1949.88 472.284 1981.52 456.756" stroke="#83848C" stroke-opacity="0.2" stroke-width="0.692997" stroke-miterlimit="10"/>
<path d="M-512.312 1392.24C-502.441 1412.17 -415.925 1296.82 -176.78 1337.85C-164.536 1339.95 -152.539 1342.46 -140.697 1344.85C-99.3349 1353.06 -59.9103 1361.94 -21.7846 1367.4C92.9189 1384.1 188.156 1379.78 302.07 1328.43C370.841 1297.44 445.228 1247.99 533.197 1175.72C558.422 1155 583.056 1133.5 607.514 1111.75C660.493 1064.62 713.762 1015.05 768.798 974.534C824.487 933.541 876.934 901.705 929.704 869.162C991.385 831.071 1055.7 792.97 1124.77 754.351C1148.9 740.832 1173.64 727.207 1198.86 713.501C1245.45 688.251 1294.61 663.656 1344.07 640.466C1403.27 612.699 1462.15 587.54 1521.14 570.482C1642.22 535.739 1760.66 532.127 1874.85 503.703C1908.95 495.218 1942.64 484.749 1975.36 470.648" stroke="#83848C" stroke-opacity="0.2" stroke-width="0.692997" stroke-miterlimit="10"/>
<path d="M-512.883 1401.68C-505.481 1416.62 -420.656 1293.05 -178.207 1331.91C-166.057 1333.86 -154.169 1336.16 -142.438 1338.39C-101.372 1346.12 -62.4813 1354.71 -24.9418 1360.63C88.2647 1378.68 183.447 1380.07 298.883 1331.62C367.31 1302.9 441.956 1255.73 530.451 1184.56C555.607 1164.33 580.161 1143.35 604.482 1122.02C657.158 1075.84 709.543 1027.2 763.09 985.178C817.279 942.658 868.882 906.818 920.951 870.734C981.822 828.504 1044.97 786.656 1112.58 745.543C1136.22 731.159 1160.42 716.822 1185.11 702.597C1230.71 676.394 1278.99 651.544 1328.01 628.978C1386.67 601.967 1445.83 578.66 1505.43 563.804C1627.8 533.51 1748.4 536.038 1865.68 513.006C1900.7 506.134 1935.4 497.223 1969.17 484.545" stroke="#83848C" stroke-opacity="0.2" stroke-width="0.692997" stroke-miterlimit="10"/>
<path d="M-513.447 1411.11C-508.508 1421.07 -425.384 1289.34 -179.631 1325.97C-167.583 1327.76 -155.785 1329.85 -144.182 1331.93C-103.422 1339.17 -65.0655 1347.48 -28.0921 1353.85C83.6107 1373.26 178.74 1380.28 295.699 1334.8C363.788 1308.32 438.688 1263.44 527.698 1193.38C552.774 1173.65 577.262 1153.16 601.444 1132.28C653.819 1087.05 705.311 1039.34 757.381 995.803C810.071 951.757 860.831 911.913 912.198 872.287C972.251 825.923 1034.24 780.324 1100.41 736.72C1123.55 721.464 1147.21 706.425 1171.38 691.685C1215.99 664.531 1263.38 639.433 1311.95 617.486C1370.08 591.224 1429.53 569.772 1489.73 557.125C1613.37 531.288 1736.14 539.948 1856.51 522.319C1892.45 517.054 1928.15 509.698 1962.99 498.44" stroke="#83848C" stroke-opacity="0.2" stroke-width="0.692997" stroke-miterlimit="10"/>
<path d="M-514.014 1420.54C-511.545 1425.52 -430.116 1285.72 -181.052 1320.01C-169.098 1321.65 -157.408 1323.53 -145.916 1325.46C-105.459 1332.22 -67.6299 1340.23 -31.2426 1347.06C78.9565 1367.83 174.044 1380.39 292.518 1337.96C360.287 1313.69 435.332 1271.02 524.958 1202.2C549.938 1182.92 574.377 1162.97 598.419 1142.53C650.491 1098.24 701.098 1051.47 751.686 1006.42C802.873 960.844 852.786 917.006 903.458 873.834C962.701 823.333 1023.52 773.986 1088.25 727.886C1110.88 711.757 1134.01 696.013 1157.66 680.762C1201.27 652.66 1247.78 627.311 1295.91 605.985C1353.5 580.472 1413.24 560.871 1474.04 550.43C1598.97 529.043 1723.89 543.842 1847.35 531.609C1884.21 527.956 1920.91 522.151 1956.82 512.324" stroke="#83848C" stroke-opacity="0.2" stroke-width="0.692997" stroke-miterlimit="10"/>
<path d="M-514.587 1429.98C-514.587 1429.98 -434.848 1282.18 -182.485 1314.07C69.8786 1345.95 204.184 1450.39 522.197 1211.03C741.951 1045.63 916.445 824.931 1143.91 669.858C1237.5 606.056 1345.58 558.88 1458.32 543.755C1584.54 526.825 1711.62 547.757 1838.17 540.923C1875.96 538.879 1913.66 534.631 1950.64 526.228" stroke="#83848C" stroke-opacity="0.2" stroke-width="0.692997" stroke-miterlimit="10"/>
</g>
</svg>
