<svg width="1920" height="922" viewBox="0 0 1920 922" fill="none" xmlns="http://www.w3.org/2000/svg">
<g opacity="0.3">
<path d="M-370.342 2.84281C-375.806 191.498 -312.047 381.415 -193.587 529.315C-159.884 571.392 -120.177 611.328 -69.508 630.473C76.9022 685.784 236.519 574.082 361.715 511.322C512.799 435.592 662.264 356.056 819.276 292.716C907.424 257.155 1010.72 227.521 1094.47 272.368C1179.27 317.785 1209.9 420.336 1243.61 509.776C1282.88 613.996 1337.78 714.72 1419.74 790.8C1501.71 866.88 1613.55 916.063 1725.42 906.083C1813.03 898.266 1893.53 855.873 1967.22 808.324C2160.83 683.382 2326.48 516.235 2448.99 322.204" stroke="#83848C" stroke-opacity="0.2" stroke-width="0.692997" stroke-miterlimit="10"/>
<path d="M-375.279 10.9082C-380.112 177.643 -323.997 341.998 -221.634 483.998C-212.128 497.186 -202.332 510.164 -192.094 522.801C-158.432 564.311 -119.062 603.742 -69.1168 623.015C75.3292 678.816 232.426 573.066 357.404 512.639C468.206 459.066 578.293 402.366 692.144 351.315C731.643 333.529 771.467 316.433 811.775 300.36C899.211 265.5 1001.28 236.267 1084.44 279.084C1168.63 322.443 1200.4 421.07 1235.15 507.053C1275.65 607.24 1331.27 704.106 1413.14 777.31C1441.64 802.797 1473.66 825.15 1507.97 843.059C1572.16 876.586 1644.4 894.575 1716.65 888.413C1803.43 881.011 1883.32 840.386 1956.5 795.061C2104.65 703.365 2236.21 588.54 2345.41 455.456C2378 415.746 2408.59 374.42 2437.02 331.586" stroke="#83848C" stroke-opacity="0.2" stroke-width="0.692997" stroke-miterlimit="10"/>
<path d="M-380.209 18.9659C-384.882 180.143 -325.438 335.516 -220.101 478.072C-210.537 491.008 -200.798 503.821 -190.594 516.271C-156.966 557.207 -117.94 596.141 -68.7113 615.548C73.7777 671.849 228.331 572.042 353.1 513.942C462.702 462.906 571.806 407.744 685.575 357.815C724.78 340.462 764.303 323.741 804.282 307.989C891.005 273.823 991.858 244.997 1074.41 285.786C1158 327.093 1190.91 421.796 1226.69 504.315C1268.41 600.468 1324.78 693.477 1406.53 763.799C1435 788.28 1466.87 809.759 1500.97 826.963C1564.73 859.187 1636.31 876.538 1707.87 870.72C1793.82 863.727 1873.09 824.876 1945.77 781.782C2092.96 694.624 2223.55 586.228 2332.94 459.364C2365.58 421.509 2396.33 382.025 2425.03 340.952" stroke="#83848C" stroke-opacity="0.2" stroke-width="0.692997" stroke-miterlimit="10"/>
<path d="M-385.144 27.0304C-389.65 182.65 -326.92 329.04 -218.571 472.153C-208.958 484.852 -199.276 497.493 -189.105 509.748C-155.52 550.118 -116.822 588.538 -68.3253 608.081C72.1994 664.872 224.195 571.01 348.783 515.251C457.165 466.745 565.414 413.39 678.986 364.314C717.941 347.478 757.12 331.048 796.777 315.617C882.787 282.152 982.422 253.727 1064.37 292.487C1147.35 331.743 1181.39 422.514 1218.22 501.577C1261.16 593.695 1318.26 682.848 1399.91 750.293C1428.35 773.769 1460.07 794.374 1493.95 810.882C1557.28 841.802 1628.19 858.515 1699.07 853.034C1784.2 846.449 1862.85 809.373 1935.02 768.511C2081.26 685.883 2210.87 583.922 2320.45 463.271C2353.15 427.271 2384.05 389.628 2413.03 350.311" stroke="#83848C" stroke-opacity="0.2" stroke-width="0.692997" stroke-miterlimit="10"/>
<path d="M-390.072 35.0889C-394.419 185.15 -328.434 322.573 -217.028 466.228C-207.365 478.682 -197.733 491.158 -187.596 503.22C-154.044 543.016 -115.69 580.938 -67.918 600.616C70.6424 657.898 220.066 569.964 344.488 516.555C451.633 470.564 558.971 418.852 672.426 370.815C711.101 354.435 749.958 338.356 789.293 323.247C874.59 290.475 973 262.452 1054.35 299.19C1136.73 336.387 1171.9 423.234 1209.77 498.84C1253.95 586.925 1311.78 672.227 1393.32 736.79C1421.73 759.267 1453.3 778.991 1486.96 794.803C1549.87 824.412 1620.11 840.486 1690.32 835.357C1774.62 829.188 1852.65 793.88 1924.32 755.248C2069.6 677.158 2198.23 581.626 2308.01 467.195C2340.77 433.049 2371.83 397.249 2401.07 359.693" stroke="#83848C" stroke-opacity="0.2" stroke-width="0.692997" stroke-miterlimit="10"/>
<path d="M-395.003 43.152C-399.191 187.655 -329.981 316.117 -215.495 460.307C-205.79 472.524 -196.199 484.821 -186.104 496.696C-152.594 535.925 -114.568 573.342 -67.5205 593.148C69.0756 650.92 215.904 568.907 340.184 517.855C446.078 474.357 552.504 424.302 665.849 377.306C704.244 361.382 742.787 345.654 781.792 330.866C866.377 298.795 963.568 271.173 1044.32 305.882C1126.09 341.027 1162.39 423.944 1201.31 496.093C1246.71 580.151 1305.27 661.589 1386.71 723.268C1415.09 744.74 1446.52 763.591 1479.96 778.705C1542.43 807.011 1612.02 822.447 1681.53 817.655C1765.01 811.894 1842.42 778.354 1913.59 741.953C2057.91 668.393 2185.57 579.297 2295.54 471.078C2328.35 438.788 2359.57 404.829 2389.09 369.036" stroke="#83848C" stroke-opacity="0.2" stroke-width="0.692997" stroke-miterlimit="10"/>
<path d="M-399.94 51.2162C-403.969 190.161 -331.58 309.683 -213.968 454.395C-204.229 466.375 -194.68 478.499 -184.611 490.18C-151.143 528.835 -113.453 565.755 -67.13 585.695C67.5093 643.959 211.713 567.858 335.872 519.179C440.493 478.157 546.037 429.776 659.272 383.827C697.388 368.359 735.615 352.983 774.291 338.524C858.163 307.146 954.128 279.932 1034.29 312.612C1115.45 345.706 1152.89 424.691 1192.85 493.384C1239.48 573.408 1298.77 650.989 1380.1 709.793C1408.45 730.259 1439.73 748.235 1472.96 762.646C1535.01 789.648 1603.92 804.446 1672.76 799.998C1755.41 794.646 1832.21 762.88 1902.86 728.711C2046.22 659.689 2172.92 577.021 2283.07 475.022C2315.95 444.587 2347.31 412.469 2377.1 378.438" stroke="#83848C" stroke-opacity="0.2" stroke-width="0.692997" stroke-miterlimit="10"/>
<path d="M-404.87 59.2733C-408.731 192.66 -333.201 303.249 -212.427 448.469C-202.652 460.218 -193.137 472.163 -183.11 483.65C-149.676 521.738 -112.323 558.153 -66.7237 578.22C65.9512 636.983 207.523 566.765 331.569 520.473C434.902 481.913 539.564 435.212 652.703 390.312C690.54 375.293 728.452 360.282 766.799 346.137C849.958 315.461 944.705 288.647 1024.27 319.299C1104.82 350.333 1143.39 425.402 1184.4 490.63C1232.24 566.621 1292.26 640.344 1373.49 696.265C1401.8 715.733 1432.95 732.828 1465.95 746.542C1527.56 772.241 1595.82 786.393 1663.98 782.289C1745.8 777.354 1821.98 747.355 1892.14 715.417C2034.54 650.925 2160.26 574.693 2270.61 478.907C2303.54 450.326 2335.07 420.051 2365.13 387.782" stroke="#83848C" stroke-opacity="0.2" stroke-width="0.692997" stroke-miterlimit="10"/>
<path d="M-409.805 67.3384C-413.507 195.167 -334.874 296.845 -210.898 442.55C-201.097 454.069 -191.616 465.828 -181.615 477.127C-148.223 514.642 -111.206 550.551 -66.3314 570.754C64.3793 630.007 203.29 565.672 327.259 521.783C429.282 485.662 533.093 440.665 646.121 396.819C683.671 382.256 721.275 367.597 759.3 353.773C841.747 323.79 935.268 297.385 1014.24 326C1094.18 354.984 1133.89 426.121 1175.94 487.893C1225.01 559.85 1285.77 629.716 1366.89 682.761C1395.16 701.223 1426.16 717.444 1458.96 730.462C1520.13 754.849 1587.72 768.371 1655.21 764.604C1736.2 760.077 1811.76 731.853 1881.42 702.139C2022.86 642.185 2147.61 572.381 2258.15 482.815C2291.14 456.089 2322.82 427.663 2353.16 397.142" stroke="#83848C" stroke-opacity="0.2" stroke-width="0.692997" stroke-miterlimit="10"/>
<path d="M-414.735 75.4045C-418.278 197.675 -336.572 290.464 -209.364 436.633C-199.536 447.922 -190.082 459.501 -180.122 470.606C-146.764 507.554 -110.084 542.958 -65.9407 563.296C62.8132 623.04 199.047 564.564 322.948 523.094C423.646 489.39 526.612 446.103 639.545 403.32C676.815 389.198 714.104 374.906 751.799 361.403C833.534 332.121 925.836 306.117 1004.2 332.703C1083.54 359.635 1124.39 426.841 1167.48 485.156C1217.78 553.079 1279.27 619.088 1360.28 669.25C1388.52 686.706 1419.38 702.054 1451.95 714.375C1512.71 737.459 1579.63 750.335 1646.43 746.92C1726.59 742.808 1801.54 716.352 1870.69 688.869C2011.17 633.445 2134.94 570.077 2245.67 486.723C2278.72 461.852 2310.56 435.268 2341.16 406.509" stroke="#83848C" stroke-opacity="0.2" stroke-width="0.692997" stroke-miterlimit="10"/>
<path d="M-419.671 83.4592C-423.055 200.172 -338.313 284.085 -207.829 430.712C-197.981 441.777 -188.554 453.17 -178.621 464.089C-145.304 500.463 -108.96 535.369 -65.5338 555.834C61.2558 616.069 194.791 563.438 318.652 524.409C418.012 493.098 520.139 451.545 632.984 409.832C669.968 396.159 706.949 382.226 744.315 369.044C825.337 340.456 916.413 314.86 994.189 339.417C1072.92 364.297 1114.9 427.572 1159.04 482.43C1210.55 546.32 1272.78 608.471 1353.69 655.758C1381.9 672.216 1412.62 686.69 1444.97 698.307C1505.29 720.087 1571.55 732.325 1637.67 729.247C1717.02 725.544 1791.33 700.862 1859.98 675.61C1999.51 624.724 2122.3 567.793 2233.23 490.651C2266.33 467.635 2298.33 442.893 2329.21 415.896" stroke="#83848C" stroke-opacity="0.2" stroke-width="0.692997" stroke-miterlimit="10"/>
<path d="M-424.601 91.5256C-427.825 202.68 -340.087 277.747 -206.295 424.795C-196.428 435.637 -187.019 446.836 -177.127 457.568C-143.845 493.375 -107.837 527.776 -65.1426 548.377C59.6827 609.102 190.505 562.285 314.341 525.72C412.339 496.78 513.651 456.983 626.401 416.333C663.098 403.101 699.771 389.534 736.807 376.673C817.117 348.786 906.975 323.584 984.143 346.119C1062.27 368.941 1105.38 428.299 1150.56 479.686C1203.31 539.549 1266.26 597.836 1347.06 642.246C1375.24 657.699 1405.81 671.299 1437.95 682.212C1497.83 702.688 1563.43 714.289 1628.87 711.555C1707.39 708.26 1781.1 685.354 1849.24 662.325C1987.8 615.97 2109.63 565.474 2220.74 494.552C2253.9 473.391 2286.06 450.49 2317.2 425.255" stroke="#83848C" stroke-opacity="0.2" stroke-width="0.692997" stroke-miterlimit="10"/>
<path d="M-429.529 99.5817C-432.586 205.178 -341.896 271.427 -204.759 418.867C-194.88 429.487 -185.506 440.521 -175.625 451.036C-142.453 486.336 -106.712 520.166 -64.7424 540.901C58.1184 602.125 186.213 561.1 310.032 527.013C406.662 500.414 507.165 462.388 619.826 422.824C656.236 410.033 692.595 396.84 729.316 384.3C808.913 357.107 897.546 332.313 974.121 352.819C1051.64 373.589 1095.88 429.016 1142.1 476.946C1196.08 532.775 1259.76 587.205 1340.46 628.733C1368.6 643.18 1399.03 655.906 1430.95 666.123C1490.41 685.288 1555.34 696.25 1620.09 693.86C1697.79 690.981 1770.87 669.842 1838.51 649.045C1976.11 607.227 2096.97 563.16 2208.27 498.451C2241.49 479.144 2273.8 458.086 2305.22 434.605" stroke="#83848C" stroke-opacity="0.2" stroke-width="0.692997" stroke-miterlimit="10"/>
<path d="M-434.467 107.646C-437.365 207.685 -343.755 265.146 -203.226 412.948C-193.335 423.352 -183.98 434.185 -174.133 444.514C-141.003 479.247 -105.591 512.572 -64.3452 533.442C56.5589 595.157 181.896 559.893 305.726 528.33C400.966 504.05 500.683 467.818 613.248 429.331C649.364 416.982 685.422 404.154 721.814 391.936C800.698 365.444 888.113 341.051 964.088 359.528C1041 378.247 1086.38 429.742 1133.64 474.216C1188.84 526.011 1253.26 576.584 1333.85 615.235C1361.97 628.684 1392.24 640.529 1423.96 650.049C1482.98 667.911 1547.25 678.235 1611.33 676.189C1688.19 673.719 1760.65 654.355 1827.79 635.789C1964.44 598.501 2084.32 560.87 2195.81 502.381C2229.1 484.929 2261.56 465.712 2293.26 443.994" stroke="#83848C" stroke-opacity="0.2" stroke-width="0.692997" stroke-miterlimit="10"/>
<path d="M-439.395 115.713C-442.133 210.193 -345.641 258.895 -201.69 407.031C-191.788 417.219 -182.443 427.858 -172.63 437.993C-139.542 472.159 -104.466 504.979 -63.9445 525.976C54.9953 588.182 177.568 558.657 301.425 529.634C395.267 507.642 494.19 473.226 606.681 435.832C642.511 423.924 678.261 411.463 714.324 399.566C792.495 373.767 878.684 349.783 954.067 366.231C1030.37 382.891 1076.88 430.462 1125.19 471.479C1181.62 519.24 1246.77 565.956 1327.26 601.725C1355.34 614.168 1385.47 625.139 1416.97 633.963C1475.56 650.52 1539.16 660.206 1602.56 658.498C1678.6 656.436 1750.45 638.847 1817.08 622.504C1952.77 589.755 2071.68 558.551 2183.37 506.275C2216.7 490.678 2249.33 473.303 2281.29 453.347" stroke="#83848C" stroke-opacity="0.2" stroke-width="0.692997" stroke-miterlimit="10"/>
<path d="M-444.332 123.769C-446.911 212.691 -347.575 252.67 -200.163 401.111C-190.257 411.083 -180.924 421.529 -171.145 431.469C-138.099 465.069 -103.351 497.383 -63.554 518.516C53.4215 581.213 173.208 557.389 297.113 530.95C389.543 511.224 487.695 478.639 600.105 442.338C635.648 430.864 671.09 418.776 706.823 407.201C784.281 382.103 869.252 358.519 944.035 372.939C1019.73 387.547 1067.38 431.194 1116.73 468.747C1174.38 512.475 1240.27 555.333 1320.64 588.226C1348.69 599.664 1378.67 609.761 1409.96 617.881C1468.12 633.135 1531.06 642.175 1593.77 640.811C1668.98 639.165 1740.21 623.343 1806.35 609.232C1941.07 581.012 2059.01 556.245 2170.88 510.189C2204.28 496.454 2237.06 480.921 2269.3 462.72" stroke="#83848C" stroke-opacity="0.2" stroke-width="0.692997" stroke-miterlimit="10"/>
<path d="M-449.261 131.835C-451.674 215.199 -349.539 246.492 -198.621 395.193C-188.711 404.958 -179.381 415.202 -169.636 424.948C-136.624 457.974 -102.173 489.709 -63.1473 511.05C51.9961 574.01 168.858 556.078 292.818 532.253C383.829 514.756 481.208 484.033 593.536 448.839C628.785 437.798 663.927 426.085 699.331 414.831C776.077 390.426 859.822 367.251 934.012 379.641C1009.11 392.198 1057.89 431.914 1108.28 466.01C1167.15 505.704 1233.76 544.705 1314.04 574.715C1342.05 585.154 1371.89 594.37 1402.96 601.794C1460.69 615.737 1522.97 624.146 1585 623.126C1659.39 621.889 1730 607.842 1795.62 595.962C1929.39 572.28 2046.35 553.941 2158.42 514.097C2191.88 502.218 2224.82 488.526 2257.33 472.08" stroke="#83848C" stroke-opacity="0.2" stroke-width="0.692997" stroke-miterlimit="10"/>
<path d="M-454.197 139.891C-456.451 217.697 -351.541 240.34 -197.093 389.266C-187.179 398.822 -177.853 408.858 -168.149 418.417C-135.179 450.876 -101.065 482.106 -62.763 503.575C50.416 567.033 164.478 554.728 288.492 533.546C378.071 518.248 474.691 489.408 586.946 455.323C621.901 444.708 656.743 433.376 691.824 422.443C767.858 398.74 850.384 375.965 923.974 386.319C998.463 396.817 1048.37 432.609 1099.81 463.249C1159.91 498.909 1227.25 534.053 1307.42 561.187C1335.41 570.62 1365.11 578.963 1395.95 585.689C1453.25 598.329 1514.86 606.093 1576.22 605.417C1649.78 604.596 1719.77 592.309 1784.89 582.66C1917.7 563.508 2033.7 551.605 2145.95 517.981C2179.47 507.957 2212.55 496.107 2245.34 481.423" stroke="#83848C" stroke-opacity="0.2" stroke-width="0.692997" stroke-miterlimit="10"/>
<path d="M-459.128 147.955C-461.222 220.211 -353.583 234.233 -195.552 383.347C-185.642 392.694 -176.319 402.529 -166.642 411.894C-133.706 443.779 -99.9278 474.512 -62.3505 496.116C48.8717 560.064 160.113 553.341 284.203 534.863C372.341 521.733 468.211 494.8 580.384 461.837C615.045 451.648 649.586 440.705 684.338 430.086C759.659 407.076 840.96 384.703 913.957 393.035C987.839 401.481 1038.88 433.342 1091.37 460.525C1152.68 492.159 1220.77 523.445 1300.83 547.696C1328.78 556.124 1358.33 563.593 1388.97 569.623C1445.84 580.959 1506.78 588.085 1567.46 587.753C1640.2 587.341 1709.56 576.828 1774.19 569.411C1906.04 554.797 2021.06 549.33 2133.5 521.911C2167.07 513.741 2200.31 503.733 2233.37 490.811" stroke="#83848C" stroke-opacity="0.2" stroke-width="0.692997" stroke-miterlimit="10"/>
<path d="M-464.065 156.02C-466 222.717 -355.662 228.178 -194.026 377.435C-184.119 386.582 -174.792 396.201 -165.157 405.379C-132.262 436.697 -98.82 466.925 -61.9669 488.656C47.2909 553.103 155.711 551.916 279.884 536.172C366.583 525.181 461.693 500.169 573.8 468.336C608.167 458.573 642.407 448.012 676.83 437.722C751.438 415.413 831.521 393.44 903.918 399.743C977.193 406.138 1029.37 434.075 1082.9 457.794C1145.44 485.394 1214.25 512.823 1294.21 534.191C1322.13 541.621 1351.54 548.208 1381.95 553.535C1438.39 563.567 1498.67 570.054 1558.66 570.06C1630.57 570.056 1699.33 561.318 1763.44 556.131C1894.33 546.048 2008.38 547.017 2121.02 525.818C2154.64 519.503 2188.05 511.337 2221.38 500.177" stroke="#83848C" stroke-opacity="0.2" stroke-width="0.692997" stroke-miterlimit="10"/>
<path d="M-468.993 164.077C-470.761 225.216 -357.779 222.159 -192.49 371.509C-182.587 380.454 -173.256 389.865 -163.654 398.849C-130.794 429.594 -97.6881 459.323 -61.5669 481.189C45.7339 546.135 151.319 550.432 275.582 537.482C360.834 528.599 455.193 505.538 567.232 474.843C601.306 465.507 635.238 455.326 669.339 445.357C743.234 423.742 822.099 402.178 893.888 406.452C966.556 410.788 1019.87 434.801 1074.44 455.063C1138.21 478.629 1207.76 502.202 1287.61 520.694C1315.49 527.118 1344.75 532.831 1374.95 537.461C1430.96 546.182 1490.58 552.032 1549.89 552.389C1620.97 552.801 1689.11 545.83 1752.72 542.868C1882.65 537.322 1995.73 544.719 2108.55 529.74C2142.24 525.28 2175.8 518.956 2209.4 509.558" stroke="#83848C" stroke-opacity="0.2" stroke-width="0.692997" stroke-miterlimit="10"/>
<path d="M-473.923 172.143C-475.532 227.724 -359.928 216.193 -190.949 365.592C-181.057 374.343 -171.722 383.538 -162.154 392.327C-129.328 422.498 -96.6122 451.796 -61.1614 473.724C44.0433 539.373 146.934 548.897 271.285 538.785C355.092 531.974 448.691 510.894 560.663 481.337C594.443 472.419 628.074 462.627 661.846 452.979C735.028 432.065 812.667 410.902 883.864 413.147C955.924 415.431 1010.37 435.513 1065.98 452.319C1130.97 471.851 1201.26 491.566 1281 507.175C1308.85 512.593 1337.97 517.433 1367.95 521.366C1423.53 528.784 1482.48 533.995 1541.12 534.689C1611.38 535.51 1678.89 530.314 1742 529.583C1870.98 528.567 1983.08 542.4 2096.09 533.634C2129.84 531.028 2163.55 526.554 2197.43 518.903" stroke="#83848C" stroke-opacity="0.2" stroke-width="0.692997" stroke-miterlimit="10"/>
<path d="M-478.859 180.2C-480.308 230.223 -362.122 210.269 -189.421 359.665C-179.532 368.215 -170.194 377.194 -160.66 385.797C-127.867 415.394 -95.4881 444.194 -60.7692 466.256C42.471 532.404 142.537 547.309 266.968 540.087C349.329 535.31 442.168 516.233 554.08 487.836C587.567 479.337 620.897 469.934 654.347 460.607C726.817 440.387 803.237 419.632 873.834 419.848C945.287 420.081 1000.87 436.231 1057.52 449.58C1123.74 465.078 1194.76 480.936 1274.4 493.67C1302.22 498.09 1331.18 502.056 1360.96 505.285C1416.1 511.399 1474.39 515.972 1532.34 517.003C1601.77 518.232 1668.66 514.811 1731.27 516.311C1859.29 519.833 1970.42 540.095 2083.63 537.548C2117.43 536.798 2151.3 534.165 2185.45 528.276" stroke="#83848C" stroke-opacity="0.2" stroke-width="0.692997" stroke-miterlimit="10"/>
<path d="M-483.788 188.264C-485.078 232.729 -364.34 204.412 -187.886 353.753C-178.009 362.11 -168.658 370.873 -159.165 379.281C-126.407 408.304 -94.3718 436.606 -60.3697 458.797C40.9062 525.435 138.156 545.668 262.665 541.403C343.59 538.632 435.66 521.587 547.513 494.343C580.705 486.262 613.735 477.255 646.855 468.243C718.612 448.723 793.807 428.369 863.811 426.556C934.657 424.73 991.369 436.964 1049.07 446.849C1116.52 458.313 1188.26 470.314 1267.79 480.164C1295.58 483.579 1324.4 486.671 1353.96 489.196C1408.68 494.007 1466.29 497.934 1523.56 499.317C1592.17 500.961 1658.44 499.308 1720.55 503.039C1847.61 511.092 1957.76 537.789 2071.16 541.455C2105.02 542.56 2139.05 541.769 2173.47 537.642" stroke="#83848C" stroke-opacity="0.2" stroke-width="0.692997" stroke-miterlimit="10"/>
<path d="M-488.724 196.328C-489.854 235.234 -366.611 198.605 -186.35 347.833C-176.485 356.003 -167.107 364.521 -157.664 372.758C-124.886 401.148 -93.2408 429.011 -59.9704 451.328C39.3488 518.458 133.775 543.96 258.362 542.704C337.85 541.908 429.152 526.902 540.937 500.841C573.829 493.171 606.565 484.561 639.356 475.87C710.401 457.044 784.377 437.098 853.781 433.256C924.02 429.379 981.867 437.681 1040.62 444.109C1109.28 451.547 1181.76 459.684 1261.19 466.658C1288.95 469.067 1317.62 471.285 1346.96 473.114C1401.24 476.613 1458.19 479.91 1514.79 481.63C1582.57 483.683 1648.23 483.804 1709.83 489.759C1835.93 502.35 1945.11 535.475 2058.7 545.361C2092.62 548.32 2126.8 549.371 2161.49 547.007" stroke="#83848C" stroke-opacity="0.2" stroke-width="0.692997" stroke-miterlimit="10"/>
<path d="M-493.655 204.387C-494.618 237.736 -368.908 192.853 -184.817 341.909C-174.963 349.885 -165.581 358.18 -156.172 366.237C-123.436 394.054 -92.1266 421.411 -59.5807 443.871C37.7742 511.492 129.409 542.196 254.049 544.023C332.117 545.165 422.635 532.237 534.36 507.35C566.957 500.092 599.393 491.878 631.854 483.515C702.186 465.39 774.937 445.838 843.748 439.975C913.38 434.046 972.363 438.416 1032.15 441.388C1102.05 444.793 1175.25 449.072 1254.58 453.17C1282.3 454.581 1310.84 455.918 1339.96 457.05C1393.81 459.246 1450.1 461.897 1506.02 463.969C1572.97 466.43 1638.01 468.327 1699.1 476.513C1824.24 493.633 1932.45 533.195 2046.24 549.293C2080.21 554.107 2114.56 557 2149.51 556.391" stroke="#83848C" stroke-opacity="0.2" stroke-width="0.692997" stroke-miterlimit="10"/>
<path d="M-498.591 212.451C-499.395 240.242 -371.242 187.165 -183.289 335.989C-173.447 343.779 -164.053 351.851 -154.677 359.714C-121.975 386.964 -91.0028 413.816 -59.1811 436.404C36.2094 504.515 125.069 540.363 249.747 545.325C326.41 548.375 416.128 537.538 527.785 513.849C560.089 506.995 592.223 499.184 624.362 491.143C693.982 473.712 765.514 454.568 833.725 446.668C902.75 438.687 962.869 439.127 1023.7 438.642C1094.81 438.012 1168.75 438.434 1247.98 439.65C1275.67 440.055 1304.06 440.518 1332.96 440.954C1386.38 441.846 1442.01 443.859 1497.24 446.267C1563.36 449.145 1627.79 452.809 1688.38 463.226C1812.55 484.884 1919.79 530.881 2033.77 553.193C2067.79 559.861 2102.3 564.596 2137.53 565.749" stroke="#83848C" stroke-opacity="0.2" stroke-width="0.692997" stroke-miterlimit="10"/>
<path d="M-503.52 220.507C-504.165 242.739 -373.616 181.534 -181.748 330.062C-171.924 337.665 -162.511 345.514 -153.177 353.183C-120.516 379.859 -89.8797 406.213 -58.7825 428.936C34.6437 497.545 120.752 538.462 245.436 546.625C320.709 551.555 409.605 542.831 521.208 520.34C553.212 513.889 585.053 506.482 616.862 498.763C685.769 482.032 756.076 463.289 823.694 453.36C892.112 443.321 953.366 439.844 1015.24 435.895C1087.58 431.231 1162.26 427.796 1241.37 426.136C1269.03 425.536 1297.27 425.125 1325.97 424.865C1378.96 424.453 1433.92 425.828 1488.47 428.58C1553.78 431.866 1617.57 437.305 1677.66 449.946C1800.88 476.134 1907.14 528.568 2021.31 557.099C2055.4 565.622 2090.05 572.199 2125.56 575.114" stroke="#83848C" stroke-opacity="0.2" stroke-width="0.692997" stroke-miterlimit="10"/>
<path d="M-508.456 228.573C-508.942 245.247 -376.02 175.98 -180.22 324.152C-170.408 331.576 -160.99 339.187 -151.683 346.669C-119.056 372.778 -88.7562 398.627 -58.3908 421.478C33.0786 490.578 116.459 536.505 241.126 547.944C315.025 554.723 403.083 548.127 514.633 526.855C546.343 520.809 577.875 513.813 609.363 506.407C677.557 490.37 746.645 472.035 813.656 460.078C881.467 447.987 943.856 440.578 1006.77 433.173C1080.34 424.476 1155.75 417.183 1234.75 412.64C1262.37 411.041 1290.47 409.749 1318.95 408.785C1371.51 407.062 1425.81 407.799 1479.68 410.895C1544.16 414.598 1607.34 421.803 1666.93 436.676C1789.19 467.395 1894.48 526.264 2008.84 561.008C2042.99 571.386 2077.8 579.812 2113.58 584.481" stroke="#83848C" stroke-opacity="0.2" stroke-width="0.692997" stroke-miterlimit="10"/>
<path d="M-513.385 236.638C-513.704 247.754 -378.455 170.492 -178.685 318.233C-168.892 325.479 -159.455 332.859 -150.189 340.146C-117.604 365.682 -87.6396 391.026 -57.9911 414.018C31.5139 483.61 112.205 534.48 236.823 549.253C309.371 557.853 396.576 553.4 508.058 533.355C539.466 527.705 570.705 521.12 601.864 514.035C669.345 498.7 737.208 480.766 803.626 466.779C870.829 452.636 934.354 441.297 998.314 430.435C1073.11 417.703 1149.24 406.554 1228.15 399.135C1255.74 396.531 1283.69 394.365 1311.95 392.704C1364.09 389.677 1417.71 389.776 1470.9 393.21C1534.55 397.32 1597.12 406.301 1656.2 423.404C1777.5 458.661 1881.82 523.959 1996.37 564.922C2030.58 577.156 2065.54 587.423 2101.59 593.848" stroke="#83848C" stroke-opacity="0.2" stroke-width="0.692997" stroke-miterlimit="10"/>
<path d="M-518.316 244.696C-518.475 250.254 -380.931 165.07 -177.144 312.307C-167.362 319.374 -157.92 326.516 -148.681 333.617C-116.138 358.586 -86.5025 383.425 -57.5858 406.545C29.955 476.627 108.004 532.375 232.526 550.556C303.754 560.954 390.048 558.523 501.495 539.855C532.604 534.564 563.549 528.428 594.377 521.664C661.147 507.022 727.791 489.496 793.609 473.481C860.205 457.279 924.858 442.016 989.869 427.697C1065.89 410.932 1142.76 395.925 1221.55 385.623C1249.11 382.013 1276.92 378.974 1304.97 376.616C1356.67 372.286 1409.63 371.747 1462.14 375.524C1524.97 380.044 1586.91 390.792 1645.49 410.126C1765.83 449.913 1869.18 521.647 1983.92 568.823C2018.18 582.911 2053.31 595.02 2089.62 603.207" stroke="#83848C" stroke-opacity="0.2" stroke-width="0.692997" stroke-miterlimit="10"/>
<path d="M-523.252 252.76C-523.252 252.76 -383.445 159.72 -175.617 306.388C32.2119 453.055 101.741 608.332 494.912 546.354C766.604 503.522 1024.3 390.621 1297.95 360.535C1410.54 348.157 1528.12 357.263 1634.76 396.854C1754.14 441.179 1856.51 519.341 1971.44 572.737C2005.77 588.68 2041.04 602.631 2077.64 612.58" stroke="#83848C" stroke-opacity="0.2" stroke-width="0.692997" stroke-miterlimit="10"/>
</g>
</svg>
