<svg width="102" height="19" viewBox="0 0 102 19" fill="none" xmlns="http://www.w3.org/2000/svg">
<path d="M0.215219 18V0.503999H7.46322C9.17522 0.503999 10.6232 0.871999 11.8072 1.608C13.0072 2.328 13.9112 3.344 14.5192 4.656C15.1432 5.968 15.4552 7.504 15.4552 9.264C15.4552 10.56 15.2792 11.752 14.9272 12.84C14.5752 13.912 14.0552 14.832 13.3672 15.6C12.6952 16.368 11.8632 16.96 10.8712 17.376C9.87922 17.792 8.74322 18 7.46322 18H0.215219ZM3.38322 15.264H6.98322C7.75122 15.264 8.45522 15.152 9.09522 14.928C9.73522 14.704 10.2872 14.352 10.7512 13.872C11.2152 13.376 11.5752 12.744 11.8312 11.976C12.0872 11.208 12.2152 10.28 12.2152 9.192C12.2152 7.768 11.9912 6.624 11.5432 5.76C11.0952 4.88 10.4792 4.24 9.69522 3.84C8.92722 3.424 8.02322 3.216 6.98322 3.216H3.38322V15.264ZM23.6325 18.216C22.6725 18.216 21.8085 18.072 21.0405 17.784C20.2725 17.48 19.6005 17.04 19.0245 16.464C18.4645 15.888 18.0325 15.192 17.7285 14.376C17.4405 13.56 17.2965 12.64 17.2965 11.616C17.2965 10.304 17.5445 9.152 18.0405 8.16C18.5525 7.168 19.2805 6.392 20.2245 5.832C21.1685 5.272 22.3045 4.992 23.6325 4.992C24.5765 4.992 25.4325 5.144 26.2005 5.448C26.9685 5.752 27.6245 6.192 28.1685 6.768C28.7285 7.344 29.1605 8.04 29.4645 8.856C29.7685 9.656 29.9205 10.576 29.9205 11.616C29.9205 12.912 29.6645 14.056 29.1525 15.048C28.6565 16.04 27.9365 16.816 26.9925 17.376C26.0645 17.936 24.9445 18.216 23.6325 18.216ZM23.6085 15.744C24.2645 15.744 24.8405 15.592 25.3365 15.288C25.8325 14.968 26.2165 14.504 26.4885 13.896C26.7605 13.272 26.8965 12.512 26.8965 11.616C26.8965 10.944 26.8165 10.352 26.6565 9.84C26.5125 9.312 26.2965 8.872 26.0085 8.52C25.7205 8.168 25.3765 7.904 24.9765 7.728C24.5765 7.552 24.1285 7.464 23.6325 7.464C22.9765 7.464 22.3925 7.624 21.8805 7.944C21.3845 8.248 21.0005 8.712 20.7285 9.336C20.4565 9.944 20.3205 10.704 20.3205 11.616C20.3205 12.288 20.3925 12.888 20.5365 13.416C20.6965 13.928 20.9205 14.36 21.2085 14.712C21.4965 15.048 21.8405 15.304 22.2405 15.48C22.6565 15.656 23.1125 15.744 23.6085 15.744ZM32.3385 18V5.232H35.2425L35.3385 7.656H35.4825C35.8345 6.76 36.3785 6.096 37.1145 5.664C37.8505 5.216 38.6585 4.992 39.5385 4.992C40.4665 4.992 41.2985 5.216 42.0345 5.664C42.7705 6.112 43.3065 6.864 43.6425 7.92H43.8345C44.1705 6.944 44.7305 6.216 45.5145 5.736C46.2985 5.24 47.1865 4.992 48.1785 4.992C49.0265 4.992 49.7785 5.168 50.4345 5.52C51.1065 5.872 51.6345 6.44 52.0185 7.224C52.4025 8.008 52.5945 9.048 52.5945 10.344V18H49.5945V10.992C49.5945 10.192 49.5065 9.536 49.3305 9.024C49.1545 8.496 48.8745 8.104 48.4905 7.848C48.1065 7.592 47.6185 7.464 47.0265 7.464C46.3865 7.464 45.8345 7.624 45.3705 7.944C44.9225 8.264 44.5785 8.688 44.3385 9.216C44.0985 9.744 43.9785 10.328 43.9785 10.968V18H40.9545V10.992C40.9545 10.192 40.8665 9.536 40.6905 9.024C40.5145 8.496 40.2345 8.104 39.8505 7.848C39.4825 7.592 39.0025 7.464 38.4105 7.464C37.7705 7.464 37.2185 7.624 36.7545 7.944C36.3065 8.264 35.9545 8.688 35.6985 9.216C35.4585 9.744 35.3385 10.328 35.3385 10.968V18H32.3385ZM60.0262 18.216C59.2582 18.216 58.5542 18.08 57.9142 17.808C57.2902 17.52 56.7462 17.096 56.2822 16.536C55.8342 15.976 55.4902 15.288 55.2502 14.472C55.0102 13.64 54.8902 12.688 54.8902 11.616C54.8902 10.16 55.0982 8.944 55.5142 7.968C55.9462 6.976 56.5462 6.232 57.3142 5.736C58.0982 5.24 59.0022 4.992 60.0262 4.992C60.7302 4.992 61.3542 5.104 61.8982 5.328C62.4582 5.536 62.9382 5.832 63.3382 6.216C63.7382 6.6 64.0422 7.056 64.2502 7.584H64.4182L64.5382 5.232H67.4182V18H64.4182V15.624H64.2502C63.9462 16.408 63.4262 17.04 62.6902 17.52C61.9542 17.984 61.0662 18.216 60.0262 18.216ZM61.1542 15.768C61.8742 15.768 62.4662 15.6 62.9302 15.264C63.4102 14.928 63.7702 14.496 64.0102 13.968C64.2502 13.424 64.3702 12.856 64.3702 12.264V10.944C64.3702 10.336 64.2502 9.768 64.0102 9.24C63.7702 8.696 63.4102 8.264 62.9302 7.944C62.4662 7.608 61.8742 7.44 61.1542 7.44C60.5142 7.44 59.9542 7.592 59.4742 7.896C58.9942 8.2 58.6182 8.664 58.3462 9.288C58.0742 9.896 57.9382 10.672 57.9382 11.616C57.9382 12.528 58.0742 13.296 58.3462 13.92C58.6182 14.544 58.9942 15.008 59.4742 15.312C59.9542 15.616 60.5142 15.768 61.1542 15.768ZM70.6353 18V5.232H73.6353V18H70.6353ZM70.6353 3.432V0.503999H73.6353V3.432H70.6353ZM76.8697 18V5.232H79.7497L79.8697 7.656H80.0137C80.3817 6.76 80.9417 6.096 81.6937 5.664C82.4457 5.216 83.2857 4.992 84.2137 4.992C84.8537 4.992 85.4457 5.096 85.9897 5.304C86.5497 5.496 87.0297 5.808 87.4297 6.24C87.8457 6.656 88.1657 7.208 88.3897 7.896C88.6297 8.568 88.7497 9.384 88.7497 10.344V18H85.7497V10.992C85.7497 10.192 85.6537 9.536 85.4617 9.024C85.2697 8.496 84.9737 8.104 84.5737 7.848C84.1897 7.592 83.6857 7.464 83.0617 7.464C82.3897 7.464 81.8137 7.624 81.3337 7.944C80.8697 8.264 80.5097 8.688 80.2537 9.216C79.9977 9.744 79.8697 10.328 79.8697 10.968V18H76.8697ZM96.5023 18.24C95.3663 18.24 94.3903 18.064 93.5743 17.712C92.7583 17.344 92.1263 16.84 91.6783 16.2C91.2463 15.56 91.0303 14.816 91.0303 13.968H93.9823C93.9983 14.704 94.2463 15.24 94.7263 15.576C95.2063 15.912 95.8303 16.08 96.5983 16.08C97.3503 16.08 97.9183 15.944 98.3023 15.672C98.7023 15.384 98.9023 14.992 98.9023 14.496C98.9023 14.096 98.8143 13.792 98.6383 13.584C98.4623 13.36 98.1743 13.192 97.7743 13.08C97.3743 12.952 96.8463 12.84 96.1903 12.744C95.1183 12.584 94.2223 12.368 93.5023 12.096C92.7823 11.808 92.2463 11.416 91.8943 10.92C91.5423 10.424 91.3663 9.768 91.3663 8.952C91.3663 8.152 91.5823 7.456 92.0143 6.864C92.4463 6.272 93.0543 5.816 93.8383 5.496C94.6223 5.16 95.5423 4.992 96.5983 4.992C97.6223 4.992 98.5103 5.16 99.2623 5.496C100.03 5.816 100.622 6.28 101.038 6.888C101.47 7.48 101.694 8.192 101.71 9.024H98.7583C98.7583 8.576 98.6623 8.216 98.4703 7.944C98.2943 7.656 98.0383 7.448 97.7023 7.32C97.3663 7.192 96.9743 7.128 96.5263 7.128C95.8543 7.128 95.3263 7.272 94.9423 7.56C94.5583 7.832 94.3663 8.208 94.3663 8.688C94.3663 9.04 94.4623 9.328 94.6543 9.552C94.8623 9.76 95.1903 9.928 95.6383 10.056C96.0863 10.184 96.6623 10.296 97.3663 10.392C98.1343 10.504 98.7983 10.648 99.3583 10.824C99.9343 11 100.414 11.24 100.798 11.544C101.182 11.832 101.47 12.2 101.662 12.648C101.87 13.08 101.974 13.608 101.974 14.232C101.974 15.512 101.47 16.504 100.462 17.208C99.4703 17.896 98.1503 18.24 96.5023 18.24Z" fill="#FF7500"/>
</svg>
