<svg width="153" height="65" viewBox="0 0 153 65" fill="none" xmlns="http://www.w3.org/2000/svg">
<g filter="url(#filter0_i_0_1)">
<path d="M0 8.05264C0 3.60529 3.60529 0 8.05263 0H120.789C138.579 0 153 14.4212 153 32.2105C153 49.9999 138.579 64.4211 120.789 64.4211H32.2105C14.4211 64.4211 0 49.9999 0 32.2105V8.05264Z" fill="white"/>
</g>
<path d="M86.3134 38.7959C84.134 40.9034 81.4186 41.9572 78.1852 41.9572C74.9518 41.9572 72.2544 40.9034 70.0928 38.8138C67.9312 36.7062 66.8594 34.1521 66.8594 31.1159V31.0444C66.8594 27.9902 67.9491 25.4005 70.1285 23.293C72.3258 21.1854 75.0411 20.1316 78.2746 20.1316C81.508 20.1316 84.2054 21.1854 86.367 23.275C88.5286 25.3826 89.6004 27.9367 89.6004 30.973V31.0444C89.5825 34.0986 88.4928 36.6884 86.3134 38.7959ZM78.2746 36.8491C79.918 36.8491 81.24 36.2954 82.2225 35.2059C83.2229 34.1164 83.7052 32.759 83.7052 31.1337V31.0623C83.7052 29.4726 83.1871 28.1152 82.151 26.9722C81.1149 25.8291 79.793 25.2754 78.1852 25.2754C76.5417 25.2754 75.2198 25.8291 74.2372 26.9186C73.2368 28.0081 72.7546 29.3655 72.7546 30.9909V31.0623C72.7546 32.6519 73.2726 34.0093 74.3087 35.1524C75.3269 36.2776 76.6489 36.8491 78.2746 36.8491Z" fill="#0059A2"/>
<path d="M92 41.5107V20.5245H97.9487V22.2749C99.5207 20.5067 101.754 20.1316 104.13 20.1316C106.916 20.1316 108.899 21.2389 110.043 23.4537C111.936 21.2389 114.241 20.1316 116.92 20.1316C119.171 20.1316 120.904 20.7924 122.154 22.1141C123.388 23.4358 124.013 25.3469 124.013 27.8473V41.5107H118.064V29.7942C118.064 26.9544 116.902 25.5255 114.58 25.5255C113.455 25.5255 112.579 25.8827 111.936 26.615C111.293 27.3473 110.972 28.4011 110.972 29.7942V41.4929H105.023V29.7942C105.023 26.9544 103.862 25.5255 101.539 25.5255C100.414 25.5255 99.5386 25.8827 98.8955 26.615C98.2524 27.3473 97.9309 28.4011 97.9309 29.7942V41.4929H92V41.5107Z" fill="#0059A2"/>
<path d="M65.3431 33.4202C65.3431 33.4202 65.2717 33.7953 65.0037 34.5455C63.4138 38.7249 60.3769 41.1539 56.0001 41.7611C50.6946 42.4934 45.6748 39.082 44.317 33.9918C42.8701 28.5979 45.3711 23.2933 50.4087 21.1143C55.9823 18.7031 62.8421 21.6858 64.8787 27.3834C65.1823 28.2942 65.1109 28.8658 65.1109 28.8658C65.1109 28.8658 62.6992 28.8658 62.1275 28.8658C61.6095 28.8658 59.2157 28.8658 59.2157 28.8658C59.2157 28.8658 59.0907 28.6693 58.5548 27.8477C57.4114 26.1153 55.3034 25.5616 53.1955 26.151C51.5699 26.6154 50.2658 28.3121 50.0693 30.2232C49.6048 34.4562 52.8739 37.2424 56.6433 35.8672C57.3042 35.635 57.9295 35.2063 58.3761 34.7776C58.7691 34.4026 59.2693 33.4381 59.2693 33.4381" fill="#0059A2"/>
<path d="M33.8334 36.099C36.5071 36.099 38.6745 33.9319 38.6745 31.2587C38.6745 28.5856 36.5071 26.4185 33.8334 26.4185C31.1597 26.4185 28.9922 28.5856 28.9922 31.2587C28.9922 33.9319 31.1597 36.099 33.8334 36.099Z" fill="url(#paint0_linear_0_1)"/>
<defs>
<filter id="filter0_i_0_1" x="0" y="0" width="153" height="64.421" filterUnits="userSpaceOnUse" color-interpolation-filters="sRGB">
<feFlood flood-opacity="0" result="BackgroundImageFix"/>
<feBlend mode="normal" in="SourceGraphic" in2="BackgroundImageFix" result="shape"/>
<feColorMatrix in="SourceAlpha" type="matrix" values="0 0 0 0 0 0 0 0 0 0 0 0 0 0 0 0 0 0 127 0" result="hardAlpha"/>
<feOffset dy="-2"/>
<feComposite in2="hardAlpha" operator="arithmetic" k2="-1" k3="1"/>
<feColorMatrix type="matrix" values="0 0 0 0 0 0 0 0 0 0 0 0 0 0 0 0 0 0 0.25 0"/>
<feBlend mode="normal" in2="shape" result="effect1_innerShadow_0_1"/>
</filter>
<linearGradient id="paint0_linear_0_1" x1="33.9674" y1="24.4476" x2="33.6786" y2="38.4616" gradientUnits="userSpaceOnUse">
<stop offset="0.21" stop-color="#00C7F6"/>
<stop offset="0.9307" stop-color="#108FDB"/>
</linearGradient>
</defs>
</svg>
