<svg width="90" height="114" viewBox="0 0 90 114" fill="none" xmlns="http://www.w3.org/2000/svg">
<path fill-rule="evenodd" clip-rule="evenodd" d="M3.00033 19.5569H3.01529C4.66866 19.5569 6.00781 18.2129 6.00781 16.5569C6.00781 14.9009 4.66866 13.5569 3.01529 13.5569H3.00033C1.34846 13.5569 0.0078125 14.9009 0.0078125 16.5569C0.0078125 18.2129 1.34846 19.5569 3.00033 19.5569Z" fill="#16191C"/>
<path fill-rule="evenodd" clip-rule="evenodd" d="M20.0078 19.5569C20.7968 19.5569 21.5708 19.2374 22.1288 18.6779C22.6883 18.1199 23.0078 17.3474 23.0078 16.5569C23.0078 15.7664 22.6883 14.9939 22.1288 14.4359C21.5708 13.8764 20.7968 13.5569 20.0078 13.5569C19.2173 13.5569 18.4448 13.8764 17.8853 14.4359C17.3273 14.9939 17.0078 15.7664 17.0078 16.5569C17.0078 17.3474 17.3273 18.1199 17.8853 18.6779C18.4448 19.2374 19.2173 19.5569 20.0078 19.5569Z" fill="#16191C"/>
<path fill-rule="evenodd" clip-rule="evenodd" d="M37.0078 19.5569C37.7983 19.5569 38.5708 19.2374 39.1303 18.6779C39.6883 18.1199 40.0078 17.3474 40.0078 16.5569C40.0078 15.7664 39.6883 14.9939 39.1303 14.4359C38.5708 13.8764 37.7983 13.5569 37.0078 13.5569C36.2188 13.5569 35.4448 13.8764 34.8868 14.4359C34.3273 14.9939 34.0078 15.7664 34.0078 16.5569C34.0078 17.3474 34.3273 18.1199 34.8868 18.6779C35.4448 19.2374 36.2188 19.5569 37.0078 19.5569Z" fill="#16191C"/>
<path fill-rule="evenodd" clip-rule="evenodd" d="M70.0003 19.5569H70.0153C71.6687 19.5569 73.0078 18.2129 73.0078 16.5569C73.0078 14.9009 71.6687 13.5569 70.0153 13.5569H70.0003C68.3485 13.5569 67.0078 14.9009 67.0078 16.5569C67.0078 18.2129 68.3485 19.5569 70.0003 19.5569Z" fill="#16191C"/>
<path fill-rule="evenodd" clip-rule="evenodd" d="M53.0003 19.5569H53.0153C54.6672 19.5569 56.0078 18.2129 56.0078 16.5569C56.0078 14.9009 54.6672 13.5569 53.0153 13.5569H53.0003C51.3485 13.5569 50.0078 14.9009 50.0078 16.5569C50.0078 18.2129 51.3485 19.5569 53.0003 19.5569Z" fill="#16191C"/>
<mask id="mask0_1739_15836" style="mask-type:luminance" maskUnits="userSpaceOnUse" x="83" y="13" width="7" height="7">
<path fill-rule="evenodd" clip-rule="evenodd" d="M83.3086 13.3999H89.7083V19.7999H83.3086V13.3999Z" fill="white"/>
</mask>
<g mask="url(#mask0_1739_15836)">
<path fill-rule="evenodd" clip-rule="evenodd" d="M86.5086 19.7999C87.3502 19.7999 88.1758 19.4591 88.771 18.8623C89.3678 18.2671 89.7086 17.4431 89.7086 16.5999C89.7086 15.7567 89.3678 14.9327 88.771 14.3375C88.1758 13.7407 87.3502 13.3999 86.5086 13.3999C85.6654 13.3999 84.8414 13.7407 84.2446 14.3375C83.6494 14.9327 83.3086 15.7567 83.3086 16.5999C83.3086 17.4431 83.6494 18.2671 84.2446 18.8623C84.8414 19.4591 85.6654 19.7999 86.5086 19.7999Z" fill="#16191C"/>
</g>
<path fill-rule="evenodd" clip-rule="evenodd" d="M3.00033 6.55688H3.01529C4.66866 6.55688 6.00781 5.21288 6.00781 3.55688C6.00781 1.90088 4.66866 0.556885 3.01529 0.556885H3.00033C1.34846 0.556885 0.0078125 1.90088 0.0078125 3.55688C0.0078125 5.21288 1.34846 6.55688 3.00033 6.55688Z" fill="#16191C"/>
<path fill-rule="evenodd" clip-rule="evenodd" d="M20.0078 6.55688C20.7968 6.55688 21.5708 6.23738 22.1288 5.67788C22.6883 5.11988 23.0078 4.34588 23.0078 3.55688C23.0078 2.76638 22.6883 1.99388 22.1288 1.43438C21.5708 0.876385 20.7968 0.556885 20.0078 0.556885C19.2173 0.556885 18.4448 0.876385 17.8853 1.43438C17.3273 1.99388 17.0078 2.76638 17.0078 3.55688C17.0078 4.34588 17.3273 5.11988 17.8853 5.67788C18.4448 6.23738 19.2173 6.55688 20.0078 6.55688Z" fill="#16191C"/>
<path fill-rule="evenodd" clip-rule="evenodd" d="M37.0078 6.55688C37.7983 6.55688 38.5708 6.23738 39.1303 5.67788C39.6883 5.11988 40.0078 4.34588 40.0078 3.55688C40.0078 2.76638 39.6883 1.99388 39.1303 1.43438C38.5708 0.876385 37.7983 0.556885 37.0078 0.556885C36.2188 0.556885 35.4448 0.876385 34.8868 1.43438C34.3273 1.99388 34.0078 2.76638 34.0078 3.55688C34.0078 4.34588 34.3273 5.11988 34.8868 5.67788C35.4448 6.23738 36.2188 6.55688 37.0078 6.55688Z" fill="#16191C"/>
<path fill-rule="evenodd" clip-rule="evenodd" d="M70.0003 6.55688H70.0153C71.6687 6.55688 73.0078 5.21288 73.0078 3.55688C73.0078 1.90088 71.6687 0.556885 70.0153 0.556885H70.0003C68.3485 0.556885 67.0078 1.90088 67.0078 3.55688C67.0078 5.21288 68.3485 6.55688 70.0003 6.55688Z" fill="#16191C"/>
<path fill-rule="evenodd" clip-rule="evenodd" d="M53.0003 6.55688H53.0153C54.6672 6.55688 56.0078 5.21288 56.0078 3.55688C56.0078 1.90088 54.6672 0.556885 53.0153 0.556885H53.0003C51.3485 0.556885 50.0078 1.90088 50.0078 3.55688C50.0078 5.21288 51.3485 6.55688 53.0003 6.55688Z" fill="#16191C"/>
<mask id="mask1_1739_15836" style="mask-type:luminance" maskUnits="userSpaceOnUse" x="83" y="0" width="7" height="7">
<path fill-rule="evenodd" clip-rule="evenodd" d="M83.3086 0H89.7083V6.4H83.3086V0Z" fill="white"/>
</mask>
<g mask="url(#mask1_1739_15836)">
<path fill-rule="evenodd" clip-rule="evenodd" d="M86.5086 6.4C87.3502 6.4 88.1758 6.0592 88.771 5.4624C89.3678 4.8672 89.7086 4.0416 89.7086 3.2C89.7086 2.3568 89.3678 1.5328 88.771 0.936C88.1758 0.3408 87.3502 0 86.5086 0C85.6654 0 84.8414 0.3408 84.2446 0.936C83.6494 1.5328 83.3086 2.3568 83.3086 3.2C83.3086 4.0416 83.6494 4.8672 84.2446 5.4624C84.8414 6.0592 85.6654 6.4 86.5086 6.4Z" fill="#16191C"/>
</g>
<path fill-rule="evenodd" clip-rule="evenodd" d="M3.00033 32.5569H3.01529C4.66866 32.5569 6.00781 31.2129 6.00781 29.5569C6.00781 27.9009 4.66866 26.5569 3.01529 26.5569H3.00033C1.34846 26.5569 0.0078125 27.9009 0.0078125 29.5569C0.0078125 31.2129 1.34846 32.5569 3.00033 32.5569Z" fill="#16191C"/>
<path fill-rule="evenodd" clip-rule="evenodd" d="M20.0078 32.5569C20.7968 32.5569 21.5708 32.2374 22.1288 31.6779C22.6883 31.1199 23.0078 30.3474 23.0078 29.5569C23.0078 28.7679 22.6883 27.9939 22.1288 27.4359C21.5708 26.8764 20.7968 26.5569 20.0078 26.5569C19.2173 26.5569 18.4448 26.8764 17.8853 27.4359C17.3273 27.9939 17.0078 28.7679 17.0078 29.5569C17.0078 30.3474 17.3273 31.1199 17.8853 31.6779C18.4448 32.2374 19.2173 32.5569 20.0078 32.5569Z" fill="#16191C"/>
<path fill-rule="evenodd" clip-rule="evenodd" d="M37.0078 32.5569C37.7983 32.5569 38.5708 32.2374 39.1303 31.6779C39.6883 31.1199 40.0078 30.3474 40.0078 29.5569C40.0078 28.7679 39.6883 27.9939 39.1303 27.4359C38.5708 26.8764 37.7983 26.5569 37.0078 26.5569C36.2188 26.5569 35.4448 26.8764 34.8868 27.4359C34.3273 27.9939 34.0078 28.7679 34.0078 29.5569C34.0078 30.3474 34.3273 31.1199 34.8868 31.6779C35.4448 32.2374 36.2188 32.5569 37.0078 32.5569Z" fill="#16191C"/>
<path fill-rule="evenodd" clip-rule="evenodd" d="M70.0003 32.5569H70.0153C71.6687 32.5569 73.0078 31.2129 73.0078 29.5569C73.0078 27.9009 71.6687 26.5569 70.0153 26.5569H70.0003C68.3485 26.5569 67.0078 27.9009 67.0078 29.5569C67.0078 31.2129 68.3485 32.5569 70.0003 32.5569Z" fill="#16191C"/>
<path fill-rule="evenodd" clip-rule="evenodd" d="M53.0003 32.5569H53.0153C54.6672 32.5569 56.0078 31.2129 56.0078 29.5569C56.0078 27.9009 54.6672 26.5569 53.0153 26.5569H53.0003C51.3485 26.5569 50.0078 27.9009 50.0078 29.5569C50.0078 31.2129 51.3485 32.5569 53.0003 32.5569Z" fill="#16191C"/>
<mask id="mask2_1739_15836" style="mask-type:luminance" maskUnits="userSpaceOnUse" x="83" y="26" width="7" height="8">
<path fill-rule="evenodd" clip-rule="evenodd" d="M83.3086 26.7998H89.7083V33.1998H83.3086V26.7998Z" fill="white"/>
</mask>
<g mask="url(#mask2_1739_15836)">
<path fill-rule="evenodd" clip-rule="evenodd" d="M86.5086 33.1998C87.3502 33.1998 88.1758 32.859 88.771 32.2622C89.3678 31.667 89.7086 30.843 89.7086 29.9998C89.7086 29.1582 89.3678 28.3326 88.771 27.7374C88.1758 27.1406 87.3502 26.7998 86.5086 26.7998C85.6654 26.7998 84.8414 27.1406 84.2446 27.7374C83.6494 28.3326 83.3086 29.1582 83.3086 29.9998C83.3086 30.843 83.6494 31.667 84.2446 32.2622C84.8414 32.859 85.6654 33.1998 86.5086 33.1998Z" fill="#16191C"/>
</g>
<path fill-rule="evenodd" clip-rule="evenodd" d="M3.00033 45.5569H3.01529C4.66866 45.5569 6.00781 44.2129 6.00781 42.5569C6.00781 40.9009 4.66866 39.5569 3.01529 39.5569H3.00033C1.34846 39.5569 0.0078125 40.9009 0.0078125 42.5569C0.0078125 44.2129 1.34846 45.5569 3.00033 45.5569Z" fill="#16191C"/>
<path fill-rule="evenodd" clip-rule="evenodd" d="M20.0078 45.5569C20.7968 45.5569 21.5708 45.2374 22.1288 44.6779C22.6883 44.1199 23.0078 43.3474 23.0078 42.5569C23.0078 41.7664 22.6883 40.9939 22.1288 40.4359C21.5708 39.8764 20.7968 39.5569 20.0078 39.5569C19.2173 39.5569 18.4448 39.8764 17.8853 40.4359C17.3273 40.9939 17.0078 41.7664 17.0078 42.5569C17.0078 43.3474 17.3273 44.1199 17.8853 44.6779C18.4448 45.2374 19.2173 45.5569 20.0078 45.5569Z" fill="#16191C"/>
<path fill-rule="evenodd" clip-rule="evenodd" d="M37.0078 45.5569C37.7983 45.5569 38.5708 45.2374 39.1303 44.6779C39.6883 44.1199 40.0078 43.3474 40.0078 42.5569C40.0078 41.7664 39.6883 40.9939 39.1303 40.4359C38.5708 39.8764 37.7983 39.5569 37.0078 39.5569C36.2188 39.5569 35.4448 39.8764 34.8868 40.4359C34.3273 40.9939 34.0078 41.7664 34.0078 42.5569C34.0078 43.3474 34.3273 44.1199 34.8868 44.6779C35.4448 45.2374 36.2188 45.5569 37.0078 45.5569Z" fill="#16191C"/>
<path fill-rule="evenodd" clip-rule="evenodd" d="M70.0003 45.5569H70.0153C71.6687 45.5569 73.0078 44.2129 73.0078 42.5569C73.0078 40.9009 71.6687 39.5569 70.0153 39.5569H70.0003C68.3485 39.5569 67.0078 40.9009 67.0078 42.5569C67.0078 44.2129 68.3485 45.5569 70.0003 45.5569Z" fill="#16191C"/>
<path fill-rule="evenodd" clip-rule="evenodd" d="M53.0003 45.5569H53.0153C54.6672 45.5569 56.0078 44.2129 56.0078 42.5569C56.0078 40.9009 54.6672 39.5569 53.0153 39.5569H53.0003C51.3485 39.5569 50.0078 40.9009 50.0078 42.5569C50.0078 44.2129 51.3485 45.5569 53.0003 45.5569Z" fill="#16191C"/>
<mask id="mask3_1739_15836" style="mask-type:luminance" maskUnits="userSpaceOnUse" x="83" y="40" width="7" height="7">
<path fill-rule="evenodd" clip-rule="evenodd" d="M83.3086 40.1997H89.7083V46.5997H83.3086V40.1997Z" fill="white"/>
</mask>
<g mask="url(#mask3_1739_15836)">
<path fill-rule="evenodd" clip-rule="evenodd" d="M86.5086 46.5997C87.3502 46.5997 88.1758 46.2589 88.771 45.6621C89.3678 45.0669 89.7086 44.2429 89.7086 43.3997C89.7086 42.5565 89.3678 41.7325 88.771 41.1373C88.1758 40.5405 87.3502 40.1997 86.5086 40.1997C85.6654 40.1997 84.8414 40.5405 84.2446 41.1373C83.6494 41.7325 83.3086 42.5565 83.3086 43.3997C83.3086 44.2429 83.6494 45.0669 84.2446 45.6621C84.8414 46.2589 85.6654 46.5997 86.5086 46.5997Z" fill="#16191C"/>
</g>
<path fill-rule="evenodd" clip-rule="evenodd" d="M3.00033 58.5566H3.01529C4.66866 58.5566 6.00781 57.2126 6.00781 55.5566C6.00781 53.9006 4.66866 52.5566 3.01529 52.5566H3.00033C1.34846 52.5566 0.0078125 53.9006 0.0078125 55.5566C0.0078125 57.2126 1.34846 58.5566 3.00033 58.5566Z" fill="#16191C"/>
<path fill-rule="evenodd" clip-rule="evenodd" d="M20.0078 58.5566C20.7968 58.5566 21.5708 58.2371 22.1288 57.6776C22.6883 57.1196 23.0078 56.3471 23.0078 55.5566C23.0078 54.7676 22.6883 53.9936 22.1288 53.4356C21.5708 52.8761 20.7968 52.5566 20.0078 52.5566C19.2173 52.5566 18.4448 52.8761 17.8853 53.4356C17.3273 53.9936 17.0078 54.7676 17.0078 55.5566C17.0078 56.3471 17.3273 57.1196 17.8853 57.6776C18.4448 58.2371 19.2173 58.5566 20.0078 58.5566Z" fill="#16191C"/>
<path fill-rule="evenodd" clip-rule="evenodd" d="M37.0078 58.5566C37.7983 58.5566 38.5708 58.2371 39.1303 57.6776C39.6883 57.1196 40.0078 56.3471 40.0078 55.5566C40.0078 54.7676 39.6883 53.9936 39.1303 53.4356C38.5708 52.8761 37.7983 52.5566 37.0078 52.5566C36.2188 52.5566 35.4448 52.8761 34.8868 53.4356C34.3273 53.9936 34.0078 54.7676 34.0078 55.5566C34.0078 56.3471 34.3273 57.1196 34.8868 57.6776C35.4448 58.2371 36.2188 58.5566 37.0078 58.5566Z" fill="#16191C"/>
<path fill-rule="evenodd" clip-rule="evenodd" d="M70.0003 58.5566H70.0153C71.6687 58.5566 73.0078 57.2126 73.0078 55.5566C73.0078 53.9006 71.6687 52.5566 70.0153 52.5566H70.0003C68.3485 52.5566 67.0078 53.9006 67.0078 55.5566C67.0078 57.2126 68.3485 58.5566 70.0003 58.5566Z" fill="#16191C"/>
<path fill-rule="evenodd" clip-rule="evenodd" d="M53.0003 58.5566H53.0153C54.6672 58.5566 56.0078 57.2126 56.0078 55.5566C56.0078 53.9006 54.6672 52.5566 53.0153 52.5566H53.0003C51.3485 52.5566 50.0078 53.9006 50.0078 55.5566C50.0078 57.2126 51.3485 58.5566 53.0003 58.5566Z" fill="#16191C"/>
<mask id="mask4_1739_15836" style="mask-type:luminance" maskUnits="userSpaceOnUse" x="83" y="53" width="7" height="7">
<path fill-rule="evenodd" clip-rule="evenodd" d="M83.3086 53.5996H89.7083V59.9996H83.3086V53.5996Z" fill="white"/>
</mask>
<g mask="url(#mask4_1739_15836)">
<path fill-rule="evenodd" clip-rule="evenodd" d="M86.5086 59.9996C87.3502 59.9996 88.1758 59.6588 88.771 59.062C89.3678 58.4668 89.7086 57.6428 89.7086 56.7996C89.7086 55.958 89.3678 55.1324 88.771 54.5372C88.1758 53.9404 87.3502 53.5996 86.5086 53.5996C85.6654 53.5996 84.8414 53.9404 84.2446 54.5372C83.6494 55.1324 83.3086 55.958 83.3086 56.7996C83.3086 57.6428 83.6494 58.4668 84.2446 59.062C84.8414 59.6588 85.6654 59.9996 86.5086 59.9996Z" fill="#16191C"/>
</g>
<path fill-rule="evenodd" clip-rule="evenodd" d="M3.00033 71.5566H3.01529C4.66866 71.5566 6.00781 70.2126 6.00781 68.5566C6.00781 66.9006 4.66866 65.5566 3.01529 65.5566H3.00033C1.34846 65.5566 0.0078125 66.9006 0.0078125 68.5566C0.0078125 70.2126 1.34846 71.5566 3.00033 71.5566Z" fill="#16191C"/>
<path fill-rule="evenodd" clip-rule="evenodd" d="M20.0078 71.5566C20.7968 71.5566 21.5708 71.2371 22.1288 70.6791C22.6883 70.1196 23.0078 69.3471 23.0078 68.5566C23.0078 67.7676 22.6883 66.9936 22.1288 66.4356C21.5708 65.8761 20.7968 65.5566 20.0078 65.5566C19.2173 65.5566 18.4448 65.8761 17.8853 66.4356C17.3273 66.9936 17.0078 67.7676 17.0078 68.5566C17.0078 69.3471 17.3273 70.1196 17.8853 70.6791C18.4448 71.2371 19.2173 71.5566 20.0078 71.5566Z" fill="#16191C"/>
<path fill-rule="evenodd" clip-rule="evenodd" d="M37.0078 71.5566C37.7983 71.5566 38.5708 71.2371 39.1303 70.6791C39.6883 70.1196 40.0078 69.3471 40.0078 68.5566C40.0078 67.7676 39.6883 66.9936 39.1303 66.4356C38.5708 65.8761 37.7983 65.5566 37.0078 65.5566C36.2188 65.5566 35.4448 65.8761 34.8868 66.4356C34.3273 66.9936 34.0078 67.7676 34.0078 68.5566C34.0078 69.3471 34.3273 70.1196 34.8868 70.6791C35.4448 71.2371 36.2188 71.5566 37.0078 71.5566Z" fill="#16191C"/>
<path fill-rule="evenodd" clip-rule="evenodd" d="M70.0003 71.5566H70.0153C71.6687 71.5566 73.0078 70.2126 73.0078 68.5566C73.0078 66.9006 71.6687 65.5566 70.0153 65.5566H70.0003C68.3485 65.5566 67.0078 66.9006 67.0078 68.5566C67.0078 70.2126 68.3485 71.5566 70.0003 71.5566Z" fill="#16191C"/>
<path fill-rule="evenodd" clip-rule="evenodd" d="M53.0003 71.5566H53.0153C54.6672 71.5566 56.0078 70.2126 56.0078 68.5566C56.0078 66.9006 54.6672 65.5566 53.0153 65.5566H53.0003C51.3485 65.5566 50.0078 66.9006 50.0078 68.5566C50.0078 70.2126 51.3485 71.5566 53.0003 71.5566Z" fill="#16191C"/>
<mask id="mask5_1739_15836" style="mask-type:luminance" maskUnits="userSpaceOnUse" x="83" y="66" width="7" height="8">
<path fill-rule="evenodd" clip-rule="evenodd" d="M83.3086 66.9995H89.7083V73.3995H83.3086V66.9995Z" fill="white"/>
</mask>
<g mask="url(#mask5_1739_15836)">
<path fill-rule="evenodd" clip-rule="evenodd" d="M86.5086 73.3995C87.3502 73.3995 88.1758 73.0587 88.771 72.4635C89.3678 71.8667 89.7086 71.0427 89.7086 70.1995C89.7086 69.3579 89.3678 68.5323 88.771 67.9371C88.1758 67.3403 87.3502 66.9995 86.5086 66.9995C85.6654 66.9995 84.8414 67.3403 84.2446 67.9371C83.6494 68.5323 83.3086 69.3579 83.3086 70.1995C83.3086 71.0427 83.6494 71.8667 84.2446 72.4635C84.8414 73.0587 85.6654 73.3995 86.5086 73.3995Z" fill="#16191C"/>
</g>
<path fill-rule="evenodd" clip-rule="evenodd" d="M3.00033 84.5566H3.01529C4.66866 84.5566 6.00781 83.2126 6.00781 81.5566C6.00781 79.9006 4.66866 78.5566 3.01529 78.5566H3.00033C1.34846 78.5566 0.0078125 79.9006 0.0078125 81.5566C0.0078125 83.2126 1.34846 84.5566 3.00033 84.5566Z" fill="#16191C"/>
<path fill-rule="evenodd" clip-rule="evenodd" d="M20.0078 84.5566C20.7968 84.5566 21.5708 84.2371 22.1288 83.6776C22.6883 83.1196 23.0078 82.3471 23.0078 81.5566C23.0078 80.7676 22.6883 79.9936 22.1288 79.4356C21.5708 78.8761 20.7968 78.5566 20.0078 78.5566C19.2173 78.5566 18.4448 78.8761 17.8853 79.4356C17.3273 79.9936 17.0078 80.7676 17.0078 81.5566C17.0078 82.3471 17.3273 83.1196 17.8853 83.6776C18.4448 84.2371 19.2173 84.5566 20.0078 84.5566Z" fill="#16191C"/>
<path fill-rule="evenodd" clip-rule="evenodd" d="M37.0078 84.5566C37.7983 84.5566 38.5708 84.2371 39.1303 83.6776C39.6883 83.1196 40.0078 82.3471 40.0078 81.5566C40.0078 80.7676 39.6883 79.9936 39.1303 79.4356C38.5708 78.8761 37.7983 78.5566 37.0078 78.5566C36.2188 78.5566 35.4448 78.8761 34.8868 79.4356C34.3273 79.9936 34.0078 80.7676 34.0078 81.5566C34.0078 82.3471 34.3273 83.1196 34.8868 83.6776C35.4448 84.2371 36.2188 84.5566 37.0078 84.5566Z" fill="#16191C"/>
<path fill-rule="evenodd" clip-rule="evenodd" d="M70.0003 84.5566H70.0153C71.6687 84.5566 73.0078 83.2126 73.0078 81.5566C73.0078 79.9006 71.6687 78.5566 70.0153 78.5566H70.0003C68.3485 78.5566 67.0078 79.9006 67.0078 81.5566C67.0078 83.2126 68.3485 84.5566 70.0003 84.5566Z" fill="#16191C"/>
<path fill-rule="evenodd" clip-rule="evenodd" d="M53.0003 84.5566H53.0153C54.6672 84.5566 56.0078 83.2126 56.0078 81.5566C56.0078 79.9006 54.6672 78.5566 53.0153 78.5566H53.0003C51.3485 78.5566 50.0078 79.9006 50.0078 81.5566C50.0078 83.2126 51.3485 84.5566 53.0003 84.5566Z" fill="#16191C"/>
<mask id="mask6_1739_15836" style="mask-type:luminance" maskUnits="userSpaceOnUse" x="83" y="80" width="7" height="7">
<path fill-rule="evenodd" clip-rule="evenodd" d="M83.3086 80.3994H89.7083V86.7994H83.3086V80.3994Z" fill="white"/>
</mask>
<g mask="url(#mask6_1739_15836)">
<path fill-rule="evenodd" clip-rule="evenodd" d="M86.5086 86.7994C87.3502 86.7994 88.1758 86.4586 88.771 85.8618C89.3678 85.2666 89.7086 84.4426 89.7086 83.5994C89.7086 82.7578 89.3678 81.9322 88.771 81.337C88.1758 80.7402 87.3502 80.3994 86.5086 80.3994C85.6654 80.3994 84.8414 80.7402 84.2446 81.337C83.6494 81.9322 83.3086 82.7578 83.3086 83.5994C83.3086 84.4426 83.6494 85.2666 84.2446 85.8618C84.8414 86.4586 85.6654 86.7994 86.5086 86.7994Z" fill="#16191C"/>
</g>
<path fill-rule="evenodd" clip-rule="evenodd" d="M3.00033 97.5566H3.01529C4.66866 97.5566 6.00781 96.2141 6.00781 94.5566C6.00781 92.9006 4.66866 91.5566 3.01529 91.5566H3.00033C1.34846 91.5566 0.0078125 92.9006 0.0078125 94.5566C0.0078125 96.2141 1.34846 97.5566 3.00033 97.5566Z" fill="#16191C"/>
<path fill-rule="evenodd" clip-rule="evenodd" d="M20.0078 97.5566C20.7968 97.5566 21.5708 97.2371 22.1288 96.6791C22.6883 96.1196 23.0078 95.3471 23.0078 94.5566C23.0078 93.7676 22.6883 92.9936 22.1288 92.4356C21.5708 91.8761 20.7968 91.5566 20.0078 91.5566C19.2173 91.5566 18.4448 91.8761 17.8853 92.4356C17.3273 92.9936 17.0078 93.7676 17.0078 94.5566C17.0078 95.3471 17.3273 96.1196 17.8853 96.6791C18.4448 97.2371 19.2173 97.5566 20.0078 97.5566Z" fill="#16191C"/>
<path fill-rule="evenodd" clip-rule="evenodd" d="M37.0078 97.5566C37.7983 97.5566 38.5708 97.2371 39.1303 96.6791C39.6883 96.1196 40.0078 95.3471 40.0078 94.5566C40.0078 93.7676 39.6883 92.9936 39.1303 92.4356C38.5708 91.8761 37.7983 91.5566 37.0078 91.5566C36.2188 91.5566 35.4448 91.8761 34.8868 92.4356C34.3273 92.9936 34.0078 93.7676 34.0078 94.5566C34.0078 95.3471 34.3273 96.1196 34.8868 96.6791C35.4448 97.2371 36.2188 97.5566 37.0078 97.5566Z" fill="#16191C"/>
<path fill-rule="evenodd" clip-rule="evenodd" d="M70.0003 97.5566H70.0153C71.6687 97.5566 73.0078 96.2141 73.0078 94.5566C73.0078 92.9006 71.6687 91.5566 70.0153 91.5566H70.0003C68.3485 91.5566 67.0078 92.9006 67.0078 94.5566C67.0078 96.2141 68.3485 97.5566 70.0003 97.5566Z" fill="#16191C"/>
<path fill-rule="evenodd" clip-rule="evenodd" d="M53.0003 97.5566H53.0153C54.6672 97.5566 56.0078 96.2141 56.0078 94.5566C56.0078 92.9006 54.6672 91.5566 53.0153 91.5566H53.0003C51.3485 91.5566 50.0078 92.9006 50.0078 94.5566C50.0078 96.2141 51.3485 97.5566 53.0003 97.5566Z" fill="#16191C"/>
<mask id="mask7_1739_15836" style="mask-type:luminance" maskUnits="userSpaceOnUse" x="83" y="93" width="7" height="8">
<path fill-rule="evenodd" clip-rule="evenodd" d="M83.3086 93.7993H89.7083V100.199H83.3086V93.7993Z" fill="white"/>
</mask>
<g mask="url(#mask7_1739_15836)">
<path fill-rule="evenodd" clip-rule="evenodd" d="M86.5086 100.199C87.3502 100.199 88.1758 99.8585 88.771 99.2633C89.3678 98.6665 89.7086 97.8425 89.7086 96.9993C89.7086 96.1577 89.3678 95.3321 88.771 94.7369C88.1758 94.1401 87.3502 93.7993 86.5086 93.7993C85.6654 93.7993 84.8414 94.1401 84.2446 94.7369C83.6494 95.3321 83.3086 96.1577 83.3086 96.9993C83.3086 97.8425 83.6494 98.6665 84.2446 99.2633C84.8414 99.8585 85.6654 100.199 86.5086 100.199Z" fill="#16191C"/>
</g>
<mask id="mask8_1739_15836" style="mask-type:luminance" maskUnits="userSpaceOnUse" x="0" y="104" width="7" height="7">
<path fill-rule="evenodd" clip-rule="evenodd" d="M0 104.557H6.416V110.556H0V104.557Z" fill="white"/>
</mask>
<g mask="url(#mask8_1739_15836)">
<path fill-rule="evenodd" clip-rule="evenodd" d="M3.2 110.557H3.216C4.984 110.557 6.416 109.213 6.416 107.557C6.416 105.899 4.984 104.557 3.216 104.557H3.2C1.4336 104.557 0 105.899 0 107.557C0 109.213 1.4336 110.557 3.2 110.557Z" fill="#16191C"/>
</g>
<mask id="mask9_1739_15836" style="mask-type:luminance" maskUnits="userSpaceOnUse" x="16" y="104" width="7" height="7">
<path fill-rule="evenodd" clip-rule="evenodd" d="M16.5078 104.557H22.9078V110.556H16.5078V104.557Z" fill="white"/>
</mask>
<g mask="url(#mask9_1739_15836)">
<path fill-rule="evenodd" clip-rule="evenodd" d="M19.7078 110.557C20.5494 110.557 21.375 110.237 21.9702 109.678C22.567 109.12 22.9078 108.346 22.9078 107.557C22.9078 106.766 22.567 105.994 21.9702 105.434C21.375 104.876 20.5494 104.557 19.7078 104.557C18.8646 104.557 18.0406 104.876 17.4438 105.434C16.8486 105.994 16.5078 106.766 16.5078 107.557C16.5078 108.346 16.8486 109.12 17.4438 109.678C18.0406 110.237 18.8646 110.557 19.7078 110.557Z" fill="#16191C"/>
</g>
<mask id="mask10_1739_15836" style="mask-type:luminance" maskUnits="userSpaceOnUse" x="33" y="104" width="7" height="7">
<path fill-rule="evenodd" clip-rule="evenodd" d="M33.4062 104.557H39.8063V110.556H33.4062V104.557Z" fill="white"/>
</mask>
<g mask="url(#mask10_1739_15836)">
<path fill-rule="evenodd" clip-rule="evenodd" d="M36.6063 110.557C37.4495 110.557 38.2735 110.237 38.8703 109.678C39.4655 109.12 39.8063 108.346 39.8063 107.557C39.8063 106.766 39.4655 105.994 38.8703 105.434C38.2735 104.876 37.4495 104.557 36.6063 104.557C35.7647 104.557 34.939 104.876 34.3439 105.434C33.747 105.994 33.4062 106.766 33.4062 107.557C33.4062 108.346 33.747 109.12 34.3439 109.678C34.939 110.237 35.7647 110.557 36.6063 110.557Z" fill="#16191C"/>
</g>
<mask id="mask11_1739_15836" style="mask-type:luminance" maskUnits="userSpaceOnUse" x="66" y="104" width="7" height="7">
<path fill-rule="evenodd" clip-rule="evenodd" d="M66.4023 104.557H72.8183V110.556H66.4023V104.557Z" fill="white"/>
</mask>
<g mask="url(#mask11_1739_15836)">
<path fill-rule="evenodd" clip-rule="evenodd" d="M69.6023 110.557H69.6183C71.3863 110.557 72.8183 109.213 72.8183 107.557C72.8183 105.899 71.3863 104.557 69.6183 104.557H69.6023C67.8359 104.557 66.4023 105.899 66.4023 107.557C66.4023 109.213 67.8359 110.557 69.6023 110.557Z" fill="#16191C"/>
</g>
<mask id="mask12_1739_15836" style="mask-type:luminance" maskUnits="userSpaceOnUse" x="49" y="104" width="8" height="7">
<path fill-rule="evenodd" clip-rule="evenodd" d="M49.9023 104.557H56.3183V110.556H49.9023V104.557Z" fill="white"/>
</mask>
<g mask="url(#mask12_1739_15836)">
<path fill-rule="evenodd" clip-rule="evenodd" d="M53.1023 110.557H53.1183C54.8847 110.557 56.3183 109.213 56.3183 107.557C56.3183 105.899 54.8847 104.557 53.1183 104.557H53.1023C51.3359 104.557 49.9023 105.899 49.9023 107.557C49.9023 109.213 51.3359 110.557 53.1023 110.557Z" fill="#16191C"/>
</g>
<mask id="mask13_1739_15836" style="mask-type:luminance" maskUnits="userSpaceOnUse" x="83" y="107" width="7" height="7">
<path fill-rule="evenodd" clip-rule="evenodd" d="M83.3086 107.199H89.7083V113.199H83.3086V107.199Z" fill="white"/>
</mask>
<g mask="url(#mask13_1739_15836)">
<path fill-rule="evenodd" clip-rule="evenodd" d="M86.5086 113.199C87.3502 113.199 88.1758 112.88 88.771 112.32C89.3678 111.762 89.7086 110.988 89.7086 110.199C89.7086 109.409 89.3678 108.636 88.771 108.077C88.1758 107.519 87.3502 107.199 86.5086 107.199C85.6654 107.199 84.8414 107.519 84.2446 108.077C83.6494 108.636 83.3086 109.409 83.3086 110.199C83.3086 110.988 83.6494 111.762 84.2446 112.32C84.8414 112.88 85.6654 113.199 86.5086 113.199Z" fill="#16191C"/>
</g>
</svg>
