<svg width="106" height="112" viewBox="0 0 106 112" fill="none" xmlns="http://www.w3.org/2000/svg">
<path fill-rule="evenodd" clip-rule="evenodd" d="M3 19.5566C3.789 19.5566 4.563 19.2371 5.121 18.6776C5.6805 18.1196 6 17.3471 6 16.5566C6 15.7661 5.6805 14.9936 5.121 14.4356C4.563 13.8761 3.789 13.5566 3 13.5566C2.2095 13.5566 1.437 13.8761 0.8775 14.4356C0.3195 14.9936 0 15.7661 0 16.5566C0 17.3471 0.3195 18.1196 0.8775 18.6776C1.437 19.2371 2.2095 19.5566 3 19.5566Z" fill="#130D3A"/>
<path fill-rule="evenodd" clip-rule="evenodd" d="M35.9925 19.5566H36.0075C37.6608 19.5566 39 18.2126 39 16.5566C39 14.9006 37.6608 13.5566 36.0075 13.5566H35.9925C34.3406 13.5566 33 14.9006 33 16.5566C33 18.2126 34.3406 19.5566 35.9925 19.5566Z" fill="#130D3A"/>
<path fill-rule="evenodd" clip-rule="evenodd" d="M19.9925 19.5566H20.0075C21.6594 19.5566 23 18.2126 23 16.5566C23 14.9006 21.6594 13.5566 20.0075 13.5566H19.9925C18.3406 13.5566 17 14.9006 17 16.5566C17 18.2126 18.3406 19.5566 19.9925 19.5566Z" fill="#130D3A"/>
<path fill-rule="evenodd" clip-rule="evenodd" d="M53 19.5566C53.789 19.5566 54.563 19.2371 55.121 18.6776C55.6805 18.1196 56 17.3471 56 16.5566C56 15.7661 55.6805 14.9936 55.121 14.4356C54.563 13.8761 53.789 13.5566 53 13.5566C52.2095 13.5566 51.437 13.8761 50.8775 14.4356C50.3195 14.9936 50 15.7661 50 16.5566C50 17.3471 50.3195 18.1196 50.8775 18.6776C51.437 19.2371 52.2095 19.5566 53 19.5566Z" fill="#130D3A"/>
<path fill-rule="evenodd" clip-rule="evenodd" d="M70 19.5566C70.7905 19.5566 71.563 19.2371 72.1225 18.6776C72.6805 18.1196 73 17.3471 73 16.5566C73 15.7661 72.6805 14.9936 72.1225 14.4356C71.563 13.8761 70.7905 13.5566 70 13.5566C69.211 13.5566 68.437 13.8761 67.879 14.4356C67.3195 14.9936 67 15.7661 67 16.5566C67 17.3471 67.3195 18.1196 67.879 18.6776C68.437 19.2371 69.211 19.5566 70 19.5566Z" fill="#130D3A"/>
<path fill-rule="evenodd" clip-rule="evenodd" d="M102.993 19.5566H103.007C104.661 19.5566 106 18.2126 106 16.5566C106 14.9006 104.661 13.5566 103.007 13.5566H102.993C101.341 13.5566 100 14.9006 100 16.5566C100 18.2126 101.341 19.5566 102.993 19.5566Z" fill="#130D3A"/>
<path fill-rule="evenodd" clip-rule="evenodd" d="M85.9925 19.5566H86.0075C87.6594 19.5566 89 18.2126 89 16.5566C89 14.9006 87.6594 13.5566 86.0075 13.5566H85.9925C84.3406 13.5566 83 14.9006 83 16.5566C83 18.2126 84.3406 19.5566 85.9925 19.5566Z" fill="#130D3A"/>
<path fill-rule="evenodd" clip-rule="evenodd" d="M3 6.55664C3.789 6.55664 4.563 6.23714 5.121 5.67764C5.6805 5.11964 6 4.34564 6 3.55664C6 2.76614 5.6805 1.99364 5.121 1.43414C4.563 0.876141 3.789 0.556641 3 0.556641C2.2095 0.556641 1.437 0.876141 0.8775 1.43414C0.3195 1.99364 0 2.76614 0 3.55664C0 4.34564 0.3195 5.11964 0.8775 5.67764C1.437 6.23714 2.2095 6.55664 3 6.55664Z" fill="#130D3A"/>
<path fill-rule="evenodd" clip-rule="evenodd" d="M35.9925 6.55664H36.0075C37.6608 6.55664 39 5.21264 39 3.55664C39 1.90064 37.6608 0.556641 36.0075 0.556641H35.9925C34.3406 0.556641 33 1.90064 33 3.55664C33 5.21264 34.3406 6.55664 35.9925 6.55664Z" fill="#130D3A"/>
<path fill-rule="evenodd" clip-rule="evenodd" d="M19.9925 6.55664H20.0075C21.6594 6.55664 23 5.21264 23 3.55664C23 1.90064 21.6594 0.556641 20.0075 0.556641H19.9925C18.3406 0.556641 17 1.90064 17 3.55664C17 5.21264 18.3406 6.55664 19.9925 6.55664Z" fill="#130D3A"/>
<path fill-rule="evenodd" clip-rule="evenodd" d="M53 6.55664C53.789 6.55664 54.563 6.23714 55.121 5.67764C55.6805 5.11964 56 4.34564 56 3.55664C56 2.76614 55.6805 1.99364 55.121 1.43414C54.563 0.876141 53.789 0.556641 53 0.556641C52.2095 0.556641 51.437 0.876141 50.8775 1.43414C50.3195 1.99364 50 2.76614 50 3.55664C50 4.34564 50.3195 5.11964 50.8775 5.67764C51.437 6.23714 52.2095 6.55664 53 6.55664Z" fill="#130D3A"/>
<path fill-rule="evenodd" clip-rule="evenodd" d="M70 6.55664C70.7905 6.55664 71.563 6.23714 72.1225 5.67764C72.6805 5.11964 73 4.34564 73 3.55664C73 2.76614 72.6805 1.99364 72.1225 1.43414C71.563 0.876141 70.7905 0.556641 70 0.556641C69.211 0.556641 68.437 0.876141 67.879 1.43414C67.3195 1.99364 67 2.76614 67 3.55664C67 4.34564 67.3195 5.11964 67.879 5.67764C68.437 6.23714 69.211 6.55664 70 6.55664Z" fill="#130D3A"/>
<path fill-rule="evenodd" clip-rule="evenodd" d="M102.993 6.55664H103.007C104.661 6.55664 106 5.21264 106 3.55664C106 1.90064 104.661 0.556641 103.007 0.556641H102.993C101.341 0.556641 100 1.90064 100 3.55664C100 5.21264 101.341 6.55664 102.993 6.55664Z" fill="#130D3A"/>
<path fill-rule="evenodd" clip-rule="evenodd" d="M85.9925 6.55664H86.0075C87.6594 6.55664 89 5.21264 89 3.55664C89 1.90064 87.6594 0.556641 86.0075 0.556641H85.9925C84.3406 0.556641 83 1.90064 83 3.55664C83 5.21264 84.3406 6.55664 85.9925 6.55664Z" fill="#130D3A"/>
<path fill-rule="evenodd" clip-rule="evenodd" d="M3 32.5566C3.789 32.5566 4.563 32.2371 5.121 31.6776C5.6805 31.1196 6 30.3471 6 29.5566C6 28.7676 5.6805 27.9936 5.121 27.4356C4.563 26.8761 3.789 26.5566 3 26.5566C2.2095 26.5566 1.437 26.8761 0.8775 27.4356C0.3195 27.9936 0 28.7676 0 29.5566C0 30.3471 0.3195 31.1196 0.8775 31.6776C1.437 32.2371 2.2095 32.5566 3 32.5566Z" fill="#130D3A"/>
<path fill-rule="evenodd" clip-rule="evenodd" d="M35.9925 32.5566H36.0075C37.6608 32.5566 39 31.2126 39 29.5566C39 27.9006 37.6608 26.5566 36.0075 26.5566H35.9925C34.3406 26.5566 33 27.9006 33 29.5566C33 31.2126 34.3406 32.5566 35.9925 32.5566Z" fill="#130D3A"/>
<path fill-rule="evenodd" clip-rule="evenodd" d="M19.9925 32.5566H20.0075C21.6594 32.5566 23 31.2126 23 29.5566C23 27.9006 21.6594 26.5566 20.0075 26.5566H19.9925C18.3406 26.5566 17 27.9006 17 29.5566C17 31.2126 18.3406 32.5566 19.9925 32.5566Z" fill="#130D3A"/>
<path fill-rule="evenodd" clip-rule="evenodd" d="M53 32.5566C53.789 32.5566 54.563 32.2371 55.121 31.6776C55.6805 31.1196 56 30.3471 56 29.5566C56 28.7676 55.6805 27.9936 55.121 27.4356C54.563 26.8761 53.789 26.5566 53 26.5566C52.2095 26.5566 51.437 26.8761 50.8775 27.4356C50.3195 27.9936 50 28.7676 50 29.5566C50 30.3471 50.3195 31.1196 50.8775 31.6776C51.437 32.2371 52.2095 32.5566 53 32.5566Z" fill="#130D3A"/>
<path fill-rule="evenodd" clip-rule="evenodd" d="M70 32.5566C70.7905 32.5566 71.563 32.2371 72.1225 31.6776C72.6805 31.1196 73 30.3471 73 29.5566C73 28.7676 72.6805 27.9936 72.1225 27.4356C71.563 26.8761 70.7905 26.5566 70 26.5566C69.211 26.5566 68.437 26.8761 67.879 27.4356C67.3195 27.9936 67 28.7676 67 29.5566C67 30.3471 67.3195 31.1196 67.879 31.6776C68.437 32.2371 69.211 32.5566 70 32.5566Z" fill="#130D3A"/>
<path fill-rule="evenodd" clip-rule="evenodd" d="M102.993 32.5566H103.007C104.661 32.5566 106 31.2126 106 29.5566C106 27.9006 104.661 26.5566 103.007 26.5566H102.993C101.341 26.5566 100 27.9006 100 29.5566C100 31.2126 101.341 32.5566 102.993 32.5566Z" fill="#130D3A"/>
<path fill-rule="evenodd" clip-rule="evenodd" d="M85.9925 32.5566H86.0075C87.6594 32.5566 89 31.2126 89 29.5566C89 27.9006 87.6594 26.5566 86.0075 26.5566H85.9925C84.3406 26.5566 83 27.9006 83 29.5566C83 31.2126 84.3406 32.5566 85.9925 32.5566Z" fill="#130D3A"/>
<path fill-rule="evenodd" clip-rule="evenodd" d="M3 45.5566C3.789 45.5566 4.563 45.2371 5.121 44.6776C5.6805 44.1196 6 43.3471 6 42.5566C6 41.7661 5.6805 40.9936 5.121 40.4356C4.563 39.8761 3.789 39.5566 3 39.5566C2.2095 39.5566 1.437 39.8761 0.8775 40.4356C0.3195 40.9936 0 41.7661 0 42.5566C0 43.3471 0.3195 44.1196 0.8775 44.6776C1.437 45.2371 2.2095 45.5566 3 45.5566Z" fill="#130D3A"/>
<path fill-rule="evenodd" clip-rule="evenodd" d="M35.9925 45.5566H36.0075C37.6608 45.5566 39 44.2126 39 42.5566C39 40.9006 37.6608 39.5566 36.0075 39.5566H35.9925C34.3406 39.5566 33 40.9006 33 42.5566C33 44.2126 34.3406 45.5566 35.9925 45.5566Z" fill="#130D3A"/>
<path fill-rule="evenodd" clip-rule="evenodd" d="M19.9925 45.5566H20.0075C21.6594 45.5566 23 44.2126 23 42.5566C23 40.9006 21.6594 39.5566 20.0075 39.5566H19.9925C18.3406 39.5566 17 40.9006 17 42.5566C17 44.2126 18.3406 45.5566 19.9925 45.5566Z" fill="#130D3A"/>
<path fill-rule="evenodd" clip-rule="evenodd" d="M53 45.5566C53.789 45.5566 54.563 45.2371 55.121 44.6776C55.6805 44.1196 56 43.3471 56 42.5566C56 41.7661 55.6805 40.9936 55.121 40.4356C54.563 39.8761 53.789 39.5566 53 39.5566C52.2095 39.5566 51.437 39.8761 50.8775 40.4356C50.3195 40.9936 50 41.7661 50 42.5566C50 43.3471 50.3195 44.1196 50.8775 44.6776C51.437 45.2371 52.2095 45.5566 53 45.5566Z" fill="#130D3A"/>
<path fill-rule="evenodd" clip-rule="evenodd" d="M70 45.5566C70.7905 45.5566 71.563 45.2371 72.1225 44.6776C72.6805 44.1196 73 43.3471 73 42.5566C73 41.7661 72.6805 40.9936 72.1225 40.4356C71.563 39.8761 70.7905 39.5566 70 39.5566C69.211 39.5566 68.437 39.8761 67.879 40.4356C67.3195 40.9936 67 41.7661 67 42.5566C67 43.3471 67.3195 44.1196 67.879 44.6776C68.437 45.2371 69.211 45.5566 70 45.5566Z" fill="#130D3A"/>
<path fill-rule="evenodd" clip-rule="evenodd" d="M102.993 45.5566H103.007C104.661 45.5566 106 44.2126 106 42.5566C106 40.9006 104.661 39.5566 103.007 39.5566H102.993C101.341 39.5566 100 40.9006 100 42.5566C100 44.2126 101.341 45.5566 102.993 45.5566Z" fill="#130D3A"/>
<path fill-rule="evenodd" clip-rule="evenodd" d="M85.9925 45.5566H86.0075C87.6594 45.5566 89 44.2126 89 42.5566C89 40.9006 87.6594 39.5566 86.0075 39.5566H85.9925C84.3406 39.5566 83 40.9006 83 42.5566C83 44.2126 84.3406 45.5566 85.9925 45.5566Z" fill="#130D3A"/>
<path fill-rule="evenodd" clip-rule="evenodd" d="M3 59.5566C3.789 59.5566 4.563 59.2371 5.121 58.6776C5.6805 58.1196 6 57.3471 6 56.5566C6 55.7676 5.6805 54.9936 5.121 54.4356C4.563 53.8761 3.789 53.5566 3 53.5566C2.2095 53.5566 1.437 53.8761 0.8775 54.4356C0.3195 54.9936 0 55.7676 0 56.5566C0 57.3471 0.3195 58.1196 0.8775 58.6776C1.437 59.2371 2.2095 59.5566 3 59.5566Z" fill="#130D3A"/>
<path fill-rule="evenodd" clip-rule="evenodd" d="M35.9925 59.5566H36.0075C37.6608 59.5566 39 58.2126 39 56.5566C39 54.9006 37.6608 53.5566 36.0075 53.5566H35.9925C34.3406 53.5566 33 54.9006 33 56.5566C33 58.2126 34.3406 59.5566 35.9925 59.5566Z" fill="#130D3A"/>
<path fill-rule="evenodd" clip-rule="evenodd" d="M19.9925 59.5566H20.0075C21.6594 59.5566 23 58.2126 23 56.5566C23 54.9006 21.6594 53.5566 20.0075 53.5566H19.9925C18.3406 53.5566 17 54.9006 17 56.5566C17 58.2126 18.3406 59.5566 19.9925 59.5566Z" fill="#130D3A"/>
<path fill-rule="evenodd" clip-rule="evenodd" d="M53 59.5566C53.789 59.5566 54.563 59.2371 55.121 58.6776C55.6805 58.1196 56 57.3471 56 56.5566C56 55.7676 55.6805 54.9936 55.121 54.4356C54.563 53.8761 53.789 53.5566 53 53.5566C52.2095 53.5566 51.437 53.8761 50.8775 54.4356C50.3195 54.9936 50 55.7676 50 56.5566C50 57.3471 50.3195 58.1196 50.8775 58.6776C51.437 59.2371 52.2095 59.5566 53 59.5566Z" fill="#130D3A"/>
<path fill-rule="evenodd" clip-rule="evenodd" d="M70 59.5566C70.7905 59.5566 71.563 59.2371 72.1225 58.6776C72.6805 58.1196 73 57.3471 73 56.5566C73 55.7676 72.6805 54.9936 72.1225 54.4356C71.563 53.8761 70.7905 53.5566 70 53.5566C69.211 53.5566 68.437 53.8761 67.879 54.4356C67.3195 54.9936 67 55.7676 67 56.5566C67 57.3471 67.3195 58.1196 67.879 58.6776C68.437 59.2371 69.211 59.5566 70 59.5566Z" fill="#130D3A"/>
<path fill-rule="evenodd" clip-rule="evenodd" d="M102.993 59.5566H103.007C104.661 59.5566 106 58.2126 106 56.5566C106 54.9006 104.661 53.5566 103.007 53.5566H102.993C101.341 53.5566 100 54.9006 100 56.5566C100 58.2126 101.341 59.5566 102.993 59.5566Z" fill="#130D3A"/>
<path fill-rule="evenodd" clip-rule="evenodd" d="M85.9925 59.5566H86.0075C87.6594 59.5566 89 58.2126 89 56.5566C89 54.9006 87.6594 53.5566 86.0075 53.5566H85.9925C84.3406 53.5566 83 54.9006 83 56.5566C83 58.2126 84.3406 59.5566 85.9925 59.5566Z" fill="#130D3A"/>
<path fill-rule="evenodd" clip-rule="evenodd" d="M3 72.5566C3.789 72.5566 4.563 72.2371 5.121 71.6791C5.6805 71.1196 6 70.3471 6 69.5566C6 68.7676 5.6805 67.9936 5.121 67.4356C4.563 66.8761 3.789 66.5566 3 66.5566C2.2095 66.5566 1.437 66.8761 0.8775 67.4356C0.3195 67.9936 0 68.7676 0 69.5566C0 70.3471 0.3195 71.1196 0.8775 71.6791C1.437 72.2371 2.2095 72.5566 3 72.5566Z" fill="#130D3A"/>
<path fill-rule="evenodd" clip-rule="evenodd" d="M35.9925 72.5566H36.0075C37.6608 72.5566 39 71.2126 39 69.5566C39 67.9006 37.6608 66.5566 36.0075 66.5566H35.9925C34.3406 66.5566 33 67.9006 33 69.5566C33 71.2126 34.3406 72.5566 35.9925 72.5566Z" fill="#130D3A"/>
<path fill-rule="evenodd" clip-rule="evenodd" d="M19.9925 72.5566H20.0075C21.6594 72.5566 23 71.2126 23 69.5566C23 67.9006 21.6594 66.5566 20.0075 66.5566H19.9925C18.3406 66.5566 17 67.9006 17 69.5566C17 71.2126 18.3406 72.5566 19.9925 72.5566Z" fill="#130D3A"/>
<path fill-rule="evenodd" clip-rule="evenodd" d="M53 72.5566C53.789 72.5566 54.563 72.2371 55.121 71.6791C55.6805 71.1196 56 70.3471 56 69.5566C56 68.7676 55.6805 67.9936 55.121 67.4356C54.563 66.8761 53.789 66.5566 53 66.5566C52.2095 66.5566 51.437 66.8761 50.8775 67.4356C50.3195 67.9936 50 68.7676 50 69.5566C50 70.3471 50.3195 71.1196 50.8775 71.6791C51.437 72.2371 52.2095 72.5566 53 72.5566Z" fill="#130D3A"/>
<path fill-rule="evenodd" clip-rule="evenodd" d="M70 72.5566C70.7905 72.5566 71.563 72.2371 72.1225 71.6791C72.6805 71.1196 73 70.3471 73 69.5566C73 68.7676 72.6805 67.9936 72.1225 67.4356C71.563 66.8761 70.7905 66.5566 70 66.5566C69.211 66.5566 68.437 66.8761 67.879 67.4356C67.3195 67.9936 67 68.7676 67 69.5566C67 70.3471 67.3195 71.1196 67.879 71.6791C68.437 72.2371 69.211 72.5566 70 72.5566Z" fill="#130D3A"/>
<path fill-rule="evenodd" clip-rule="evenodd" d="M102.993 72.5566H103.007C104.661 72.5566 106 71.2126 106 69.5566C106 67.9006 104.661 66.5566 103.007 66.5566H102.993C101.341 66.5566 100 67.9006 100 69.5566C100 71.2126 101.341 72.5566 102.993 72.5566Z" fill="#130D3A"/>
<path fill-rule="evenodd" clip-rule="evenodd" d="M85.9925 72.5566H86.0075C87.6594 72.5566 89 71.2126 89 69.5566C89 67.9006 87.6594 66.5566 86.0075 66.5566H85.9925C84.3406 66.5566 83 67.9006 83 69.5566C83 71.2126 84.3406 72.5566 85.9925 72.5566Z" fill="#130D3A"/>
<path fill-rule="evenodd" clip-rule="evenodd" d="M3 85.5566C3.789 85.5566 4.563 85.2371 5.121 84.6776C5.6805 84.1196 6 83.3471 6 82.5566C6 81.7676 5.6805 80.9936 5.121 80.4356C4.563 79.8761 3.789 79.5566 3 79.5566C2.2095 79.5566 1.437 79.8761 0.8775 80.4356C0.3195 80.9936 0 81.7676 0 82.5566C0 83.3471 0.3195 84.1196 0.8775 84.6776C1.437 85.2371 2.2095 85.5566 3 85.5566Z" fill="#130D3A"/>
<path fill-rule="evenodd" clip-rule="evenodd" d="M35.9925 85.5566H36.0075C37.6608 85.5566 39 84.2126 39 82.5566C39 80.9006 37.6608 79.5566 36.0075 79.5566H35.9925C34.3406 79.5566 33 80.9006 33 82.5566C33 84.2126 34.3406 85.5566 35.9925 85.5566Z" fill="#130D3A"/>
<path fill-rule="evenodd" clip-rule="evenodd" d="M19.9925 85.5566H20.0075C21.6594 85.5566 23 84.2126 23 82.5566C23 80.9006 21.6594 79.5566 20.0075 79.5566H19.9925C18.3406 79.5566 17 80.9006 17 82.5566C17 84.2126 18.3406 85.5566 19.9925 85.5566Z" fill="#130D3A"/>
<path fill-rule="evenodd" clip-rule="evenodd" d="M53 85.5566C53.789 85.5566 54.563 85.2371 55.121 84.6776C55.6805 84.1196 56 83.3471 56 82.5566C56 81.7676 55.6805 80.9936 55.121 80.4356C54.563 79.8761 53.789 79.5566 53 79.5566C52.2095 79.5566 51.437 79.8761 50.8775 80.4356C50.3195 80.9936 50 81.7676 50 82.5566C50 83.3471 50.3195 84.1196 50.8775 84.6776C51.437 85.2371 52.2095 85.5566 53 85.5566Z" fill="#130D3A"/>
<path fill-rule="evenodd" clip-rule="evenodd" d="M70 85.5566C70.7905 85.5566 71.563 85.2371 72.1225 84.6776C72.6805 84.1196 73 83.3471 73 82.5566C73 81.7676 72.6805 80.9936 72.1225 80.4356C71.563 79.8761 70.7905 79.5566 70 79.5566C69.211 79.5566 68.437 79.8761 67.879 80.4356C67.3195 80.9936 67 81.7676 67 82.5566C67 83.3471 67.3195 84.1196 67.879 84.6776C68.437 85.2371 69.211 85.5566 70 85.5566Z" fill="#130D3A"/>
<path fill-rule="evenodd" clip-rule="evenodd" d="M102.993 85.5566H103.007C104.661 85.5566 106 84.2126 106 82.5566C106 80.9006 104.661 79.5566 103.007 79.5566H102.993C101.341 79.5566 100 80.9006 100 82.5566C100 84.2126 101.341 85.5566 102.993 85.5566Z" fill="#130D3A"/>
<path fill-rule="evenodd" clip-rule="evenodd" d="M85.9925 85.5566H86.0075C87.6594 85.5566 89 84.2126 89 82.5566C89 80.9006 87.6594 79.5566 86.0075 79.5566H85.9925C84.3406 79.5566 83 80.9006 83 82.5566C83 84.2126 84.3406 85.5566 85.9925 85.5566Z" fill="#130D3A"/>
<path fill-rule="evenodd" clip-rule="evenodd" d="M3 98.5566C3.789 98.5566 4.563 98.2371 5.121 97.6791C5.6805 97.1196 6 96.3471 6 95.5566C6 94.7676 5.6805 93.9936 5.121 93.4356C4.563 92.8761 3.789 92.5566 3 92.5566C2.2095 92.5566 1.437 92.8761 0.8775 93.4356C0.3195 93.9936 0 94.7676 0 95.5566C0 96.3471 0.3195 97.1196 0.8775 97.6791C1.437 98.2371 2.2095 98.5566 3 98.5566Z" fill="#130D3A"/>
<path fill-rule="evenodd" clip-rule="evenodd" d="M35.9925 98.5566H36.0075C37.6608 98.5566 39 97.2141 39 95.5566C39 93.9006 37.6608 92.5566 36.0075 92.5566H35.9925C34.3406 92.5566 33 93.9006 33 95.5566C33 97.2141 34.3406 98.5566 35.9925 98.5566Z" fill="#130D3A"/>
<path fill-rule="evenodd" clip-rule="evenodd" d="M19.9925 98.5566H20.0075C21.6594 98.5566 23 97.2141 23 95.5566C23 93.9006 21.6594 92.5566 20.0075 92.5566H19.9925C18.3406 92.5566 17 93.9006 17 95.5566C17 97.2141 18.3406 98.5566 19.9925 98.5566Z" fill="#130D3A"/>
<path fill-rule="evenodd" clip-rule="evenodd" d="M53 98.5566C53.789 98.5566 54.563 98.2371 55.121 97.6791C55.6805 97.1196 56 96.3471 56 95.5566C56 94.7676 55.6805 93.9936 55.121 93.4356C54.563 92.8761 53.789 92.5566 53 92.5566C52.2095 92.5566 51.437 92.8761 50.8775 93.4356C50.3195 93.9936 50 94.7676 50 95.5566C50 96.3471 50.3195 97.1196 50.8775 97.6791C51.437 98.2371 52.2095 98.5566 53 98.5566Z" fill="#130D3A"/>
<path fill-rule="evenodd" clip-rule="evenodd" d="M70 98.5566C70.7905 98.5566 71.563 98.2371 72.1225 97.6791C72.6805 97.1196 73 96.3471 73 95.5566C73 94.7676 72.6805 93.9936 72.1225 93.4356C71.563 92.8761 70.7905 92.5566 70 92.5566C69.211 92.5566 68.437 92.8761 67.879 93.4356C67.3195 93.9936 67 94.7676 67 95.5566C67 96.3471 67.3195 97.1196 67.879 97.6791C68.437 98.2371 69.211 98.5566 70 98.5566Z" fill="#130D3A"/>
<path fill-rule="evenodd" clip-rule="evenodd" d="M102.993 98.5566H103.007C104.661 98.5566 106 97.2141 106 95.5566C106 93.9006 104.661 92.5566 103.007 92.5566H102.993C101.341 92.5566 100 93.9006 100 95.5566C100 97.2141 101.341 98.5566 102.993 98.5566Z" fill="#130D3A"/>
<path fill-rule="evenodd" clip-rule="evenodd" d="M85.9925 98.5566H86.0075C87.6594 98.5566 89 97.2141 89 95.5566C89 93.9006 87.6594 92.5566 86.0075 92.5566H85.9925C84.3406 92.5566 83 93.9006 83 95.5566C83 97.2141 84.3406 98.5566 85.9925 98.5566Z" fill="#130D3A"/>
<mask id="mask0_4513_649" style="mask-type:luminance" maskUnits="userSpaceOnUse" x="0" y="105" width="6" height="7">
<path fill-rule="evenodd" clip-rule="evenodd" d="M0 105.557H6V111.556H0V105.557Z" fill="white"/>
</mask>
<g mask="url(#mask0_4513_649)">
<path fill-rule="evenodd" clip-rule="evenodd" d="M3 111.557C3.789 111.557 4.563 111.237 5.121 110.678C5.6805 110.12 6 109.346 6 108.557C6 107.766 5.6805 106.994 5.121 106.434C4.563 105.876 3.789 105.557 3 105.557C2.2095 105.557 1.437 105.876 0.8775 106.434C0.3195 106.994 0 107.766 0 108.557C0 109.346 0.3195 110.12 0.8775 110.678C1.437 111.237 2.2095 111.557 3 111.557Z" fill="#130D3A"/>
</g>
<mask id="mask1_4513_649" style="mask-type:luminance" maskUnits="userSpaceOnUse" x="32" y="105" width="8" height="7">
<path fill-rule="evenodd" clip-rule="evenodd" d="M32.9922 105.557H39.4082V111.556H32.9922V105.557Z" fill="white"/>
</mask>
<g mask="url(#mask1_4513_649)">
<path fill-rule="evenodd" clip-rule="evenodd" d="M36.1922 111.557H36.2082C37.9762 111.557 39.4082 110.213 39.4082 108.557C39.4082 106.899 37.9762 105.557 36.2082 105.557H36.1922C34.4258 105.557 32.9922 106.899 32.9922 108.557C32.9922 110.213 34.4258 111.557 36.1922 111.557Z" fill="#130D3A"/>
</g>
<mask id="mask2_4513_649" style="mask-type:luminance" maskUnits="userSpaceOnUse" x="16" y="105" width="7" height="7">
<path fill-rule="evenodd" clip-rule="evenodd" d="M16.4922 105.557H22.9082V111.556H16.4922V105.557Z" fill="white"/>
</mask>
<g mask="url(#mask2_4513_649)">
<path fill-rule="evenodd" clip-rule="evenodd" d="M19.6922 111.557H19.7082C21.4746 111.557 22.9082 110.213 22.9082 108.557C22.9082 106.899 21.4746 105.557 19.7082 105.557H19.6922C17.9258 105.557 16.4922 106.899 16.4922 108.557C16.4922 110.213 17.9258 111.557 19.6922 111.557Z" fill="#130D3A"/>
</g>
<mask id="mask3_4513_649" style="mask-type:luminance" maskUnits="userSpaceOnUse" x="49" y="105" width="7" height="7">
<path fill-rule="evenodd" clip-rule="evenodd" d="M49.5 105.557H55.9V111.556H49.5V105.557Z" fill="white"/>
</mask>
<g mask="url(#mask3_4513_649)">
<path fill-rule="evenodd" clip-rule="evenodd" d="M52.7 111.557C53.5416 111.557 54.3672 111.237 54.9624 110.678C55.5592 110.12 55.9 109.346 55.9 108.557C55.9 107.766 55.5592 106.994 54.9624 106.434C54.3672 105.876 53.5416 105.557 52.7 105.557C51.8568 105.557 51.0328 105.876 50.436 106.434C49.8408 106.994 49.5 107.766 49.5 108.557C49.5 109.346 49.8408 110.12 50.436 110.678C51.0328 111.237 51.8568 111.557 52.7 111.557Z" fill="#130D3A"/>
</g>
<mask id="mask4_4513_649" style="mask-type:luminance" maskUnits="userSpaceOnUse" x="66" y="105" width="7" height="7">
<path fill-rule="evenodd" clip-rule="evenodd" d="M66.3984 105.557H72.7984V111.556H66.3984V105.557Z" fill="white"/>
</mask>
<g mask="url(#mask4_4513_649)">
<path fill-rule="evenodd" clip-rule="evenodd" d="M69.5984 111.557C70.4416 111.557 71.2656 111.237 71.8624 110.678C72.4576 110.12 72.7984 109.346 72.7984 108.557C72.7984 107.766 72.4576 106.994 71.8624 106.434C71.2656 105.876 70.4416 105.557 69.5984 105.557C68.7568 105.557 67.9312 105.876 67.336 106.434C66.7392 106.994 66.3984 107.766 66.3984 108.557C66.3984 109.346 66.7392 110.12 67.336 110.678C67.9312 111.237 68.7568 111.557 69.5984 111.557Z" fill="#130D3A"/>
</g>
<mask id="mask5_4513_649" style="mask-type:luminance" maskUnits="userSpaceOnUse" x="99" y="105" width="7" height="7">
<path fill-rule="evenodd" clip-rule="evenodd" d="M99.3945 105.557H105.811V111.556H99.3945V105.557Z" fill="white"/>
</mask>
<g mask="url(#mask5_4513_649)">
<path fill-rule="evenodd" clip-rule="evenodd" d="M102.595 111.557H102.611C104.379 111.557 105.811 110.213 105.811 108.557C105.811 106.899 104.379 105.557 102.611 105.557H102.595C100.828 105.557 99.3945 106.899 99.3945 108.557C99.3945 110.213 100.828 111.557 102.595 111.557Z" fill="#130D3A"/>
</g>
<mask id="mask6_4513_649" style="mask-type:luminance" maskUnits="userSpaceOnUse" x="82" y="105" width="8" height="7">
<path fill-rule="evenodd" clip-rule="evenodd" d="M82.8945 105.557H89.3105V111.556H82.8945V105.557Z" fill="white"/>
</mask>
<g mask="url(#mask6_4513_649)">
<path fill-rule="evenodd" clip-rule="evenodd" d="M86.0945 111.557H86.1105C87.8769 111.557 89.3105 110.213 89.3105 108.557C89.3105 106.899 87.8769 105.557 86.1105 105.557H86.0945C84.3281 105.557 82.8945 106.899 82.8945 108.557C82.8945 110.213 84.3281 111.557 86.0945 111.557Z" fill="#130D3A"/>
</g>
</svg>
