<svg width="40" height="40" viewBox="0 0 40 40" fill="none" xmlns="http://www.w3.org/2000/svg">
<path d="M11 17.5C10.1716 17.5 9.5 18.1716 9.5 19C9.5 19.8284 10.1716 20.5 11 20.5C11.8284 20.5 12.5 19.8284 12.5 19C12.5 18.1716 11.8284 17.5 11 17.5ZM11 11.5C10.1716 11.5 9.5 12.1716 9.5 13C9.5 13.8284 10.1716 14.5 11 14.5C11.8284 14.5 12.5 13.8284 12.5 13C12.5 12.1716 11.8284 11.5 11 11.5ZM31 12H17C16.4478 12 16 12.4478 16 13C16 13.5522 16.4478 14 17 14H31C31.5522 14 32 13.5522 32 13C32 12.4478 31.5522 12 31 12ZM31 18H17C16.4478 18 16 18.4478 16 19C16 19.5522 16.4478 20 17 20H31C31.5522 20 32 19.5522 32 19C32 18.4478 31.5522 18 31 18ZM34 0H6C2.68774 0.0036622 0.0036622 2.68774 0 6V26C0.0036622 29.3123 2.68774 31.9963 6 32H30.5861L38.293 39.707C38.4805 39.8947 38.7347 40 39 40C39.5522 40 40 39.5522 40 39V6C39.9963 2.68774 37.3123 0.0036622 34 0ZM38 36.5859L31.707 30.293C31.5195 30.1053 31.2653 30 31 30H6C3.79199 29.9972 2.00281 28.208 2 26V6C2.00281 3.79199 3.79199 2.00281 6 2H34C36.208 2.00281 37.9972 3.79199 38 6V36.5859Z" fill="#FF7500"/>
</svg>
