<svg width="42" height="48" viewBox="0 0 42 48" fill="none" xmlns="http://www.w3.org/2000/svg">
<path d="M23.3911 38.5022H12.6368V30.1377C12.6368 29.478 12.1015 28.9427 11.4418 28.9427H3.07735V4.64561C3.07735 3.54714 3.97044 2.65404 5.0689 2.65404H27.3742C28.4727 2.65404 29.3657 3.54714 29.3657 4.64561V17.5986C29.3657 18.2583 29.901 18.7935 30.5607 18.7935C31.2204 18.7935 31.7556 18.2583 31.7556 17.5986V4.64561C31.7556 2.22928 29.7905 0.26416 27.3742 0.26416H5.0689C2.6526 0.26416 0.6875 2.22928 0.6875 4.64561C0.6875 4.64561 0.6875 30.1325 0.6875 30.1377C0.6875 30.4305 0.811407 30.7564 1.03758 30.9825C1.03758 30.9825 10.5705 40.5155 10.5969 40.542C10.8147 40.7597 11.1351 40.8921 11.4418 40.8921H23.3911C24.0508 40.8921 24.586 40.3569 24.586 39.6972C24.586 39.0375 24.0508 38.5022 23.3911 38.5022ZM10.2469 36.8125L4.76706 31.3326H10.2469V36.8125Z" fill="#FF7500"/>
<path d="M40.0137 27.5766C39.6605 27.2685 39.4831 26.8391 39.5142 26.3646C39.606 24.9487 39.0832 24.1116 38.632 23.6619C38.1793 23.2061 37.3282 22.6739 35.9248 22.7766C35.4549 22.7906 35.0223 22.6304 34.7127 22.2772C33.7745 21.202 32.8021 20.9764 32.1533 20.9764C31.5045 20.9764 30.532 21.202 29.5923 22.2772C29.2842 22.6319 28.8424 22.7984 28.3803 22.7766C26.9737 22.6786 26.1289 23.2061 25.6777 23.6588C25.2233 24.1116 24.7006 24.9487 24.7924 26.3661C24.8235 26.8391 24.6461 27.2686 24.2929 27.5782C23.2178 28.5164 22.9922 29.4888 22.9922 30.1376C22.9922 30.7865 23.2178 31.7589 24.2929 32.6987C24.6461 33.0067 24.8235 33.4362 24.7924 33.9107C24.7006 35.3266 25.2234 36.1637 25.6746 36.6133C25.9468 36.8876 26.382 37.169 26.9753 37.3427C26.9753 37.3427 26.9753 46.0595 26.9753 46.0702C26.9753 46.9488 27.943 47.5452 28.7241 47.1282L32.1533 45.3327C32.1533 45.3327 35.5732 47.1233 35.5825 47.1282C36.3405 47.5251 37.3313 46.9605 37.3313 46.0702V37.3457C37.9224 37.1714 38.358 36.8883 38.6289 36.6165C39.0832 36.1637 39.606 35.3266 39.5142 33.9092C39.4831 33.4362 39.6605 33.0067 40.0137 32.6971C41.0888 31.7589 41.3144 30.7865 41.3144 30.1376C41.3144 29.4888 41.0888 28.5164 40.0137 27.5766ZM32.7072 42.9257C32.3618 42.7421 31.9448 42.7421 31.5994 42.9257L29.3651 44.0957V37.836C29.4394 37.8934 29.5285 37.9247 29.5923 37.9981C30.5305 39.0733 31.5029 39.2989 32.1533 39.2989C32.8037 39.2989 33.7761 39.0732 34.7143 37.9981C34.7784 37.9243 34.8672 37.8925 34.9415 37.8347V44.0957L32.7072 42.9257ZM38.4422 30.8969C37.5274 31.6951 37.0497 32.8511 37.1306 34.0664C37.176 34.8282 36.8412 35.1608 36.0835 35.115C34.8528 35.0232 33.7108 35.5133 32.9126 36.4266C32.4188 36.9917 31.8978 37.0052 31.394 36.4266C30.6103 35.5265 29.4154 35.0315 28.2248 35.115C27.4823 35.1671 27.1311 34.8154 27.176 34.0679C27.2569 32.8512 26.7793 31.6953 25.8645 30.8986C25.2812 30.3907 25.2777 29.8891 25.8643 29.3784C26.7792 28.5802 27.2569 27.4242 27.176 26.2091C27.1263 25.4627 27.4643 25.1151 28.2231 25.1603C29.4475 25.2474 30.5957 24.762 31.3923 23.8488C31.8845 23.2845 32.4064 23.2674 32.9125 23.8487C33.7106 24.7618 34.8477 25.2473 36.0813 25.1603C36.8245 25.108 37.1745 25.4743 37.1306 26.2074C37.0497 27.4241 37.5273 28.5802 38.4423 29.3769C39.0197 29.8846 39.0235 30.3908 38.4422 30.8969Z" fill="#FF7500"/>
<path d="M32.1555 25.7561C29.7392 25.7561 27.7741 27.7213 27.7741 30.1376C27.7741 32.5539 29.7392 34.519 32.1555 34.519C34.5718 34.519 36.5369 32.5539 36.5369 30.1376C36.5369 27.7213 34.5718 25.7561 32.1555 25.7561ZM32.1555 32.1291C31.057 32.1291 30.1639 31.236 30.1639 30.1376C30.1639 29.0391 31.057 28.146 32.1555 28.146C33.2539 28.146 34.147 29.0391 34.147 30.1376C34.147 31.236 33.2539 32.1291 32.1555 32.1291ZM8.25691 10.6202H9.85015C10.5098 10.6202 11.0451 10.085 11.0451 9.42529C11.0451 8.76558 10.5098 8.23035 9.85015 8.23035H8.25691C6.7197 8.23035 5.46875 9.48131 5.46875 11.0185C5.46875 12.5558 6.7197 13.8067 8.25691 13.8067C8.4763 13.8067 8.65522 13.9857 8.65522 14.205C8.65522 14.4244 8.4763 14.6034 8.25691 14.6034H6.66368C6.00398 14.6034 5.46875 15.1386 5.46875 15.7983C5.46875 16.458 6.00398 16.9932 6.66368 16.9932H8.25691C9.79413 16.9932 11.0451 15.7423 11.0451 14.205C11.0451 12.6678 9.79413 11.4169 8.25691 11.4169C8.03752 11.4169 7.8586 11.2379 7.8586 11.0185C7.8586 10.7991 8.03752 10.6202 8.25691 10.6202ZM16.2231 10.6202H17.8163C18.476 10.6202 19.0113 10.085 19.0113 9.42529C19.0113 8.76558 18.476 8.23035 17.8163 8.23035H16.2231C14.6859 8.23035 13.4349 9.48131 13.4349 11.0185C13.4349 12.5558 14.6859 13.8067 16.2231 13.8067C16.4425 13.8067 16.6214 13.9857 16.6214 14.205C16.6214 14.4244 16.4425 14.6034 16.2231 14.6034H14.6299C13.9702 14.6034 13.4349 15.1386 13.4349 15.7983C13.4349 16.458 13.9702 16.9932 14.6299 16.9932H16.2231C17.7603 16.9932 19.0113 15.7423 19.0113 14.205C19.0113 12.6678 17.7603 11.4169 16.2231 11.4169C16.0037 11.4169 15.8248 11.2379 15.8248 11.0185C15.8248 10.7991 16.0037 10.6202 16.2231 10.6202ZM22.596 8.23035C21.9363 8.23035 21.4011 8.76558 21.4011 9.42529V15.7983C21.4011 16.458 21.9363 16.9932 22.596 16.9932H25.7825C26.4422 16.9932 26.9774 16.458 26.9774 15.7983C26.9774 15.1386 26.4422 14.6034 25.7825 14.6034H23.791V9.42529C23.791 8.76558 23.2557 8.23035 22.596 8.23035Z" fill="#FF7500"/>
</svg>
