<svg width="64" height="44" viewBox="0 0 44 44" fill="none" xmlns="http://www.w3.org/2000/svg">
<g opacity="0.6">
<path d="M8.57143 28.2857C12.2007 28.2857 15.1429 25.3436 15.1429 21.7143C15.1429 18.085 12.2007 15.1428 8.57143 15.1428C4.94213 15.1428 2 18.085 2 21.7143C2 25.3436 4.94213 28.2857 8.57143 28.2857Z" stroke="#FF7500" stroke-width="4" stroke-miterlimit="10"/>
<path d="M36.1712 12.5143C39.0746 12.5143 41.4284 10.1606 41.4284 7.25714C41.4284 4.3537 39.0746 2 36.1712 2C33.2678 2 30.9141 4.3537 30.9141 7.25714C30.9141 10.1606 33.2678 12.5143 36.1712 12.5143Z" stroke="#FF7500" stroke-width="4" stroke-miterlimit="10"/>
<path d="M36.1712 41.4286C39.0746 41.4286 41.4284 39.0749 41.4284 36.1715C41.4284 33.268 39.0746 30.9143 36.1712 30.9143C33.2678 30.9143 30.9141 33.268 30.9141 36.1715C30.9141 39.0749 33.2678 41.4286 36.1712 41.4286Z" stroke="#FF7500" stroke-width="4" stroke-miterlimit="10"/>
<path d="M14.3958 24.7649L31.5144 33.7316M31.5144 9.69727L14.3945 18.6646" stroke="#FF7500" stroke-width="4" stroke-miterlimit="10"/>
</g>
</svg>
