<svg width="44" height="40" viewBox="0 0 44 40" fill="none" xmlns="http://www.w3.org/2000/svg">
<g opacity="0.6" clip-path="url(#clip0_4941_26208)">
<path fill-rule="evenodd" clip-rule="evenodd" d="M21.0961 37.2825V39.7283H13.4609L13.4666 37.6811C15.7303 33.8737 17.0761 31.5184 17.5043 30.6126C17.9324 29.7068 18.1464 29.0003 18.1464 28.4959C18.1464 28.1065 18.079 27.8167 17.9499 27.6234C17.8209 27.4333 17.6244 27.3366 17.3606 27.3366C17.0966 27.3366 16.8972 27.4422 16.7683 27.6537C16.6393 27.865 16.5748 28.2847 16.5748 28.9127V30.2715H13.4609V29.7491C13.4609 28.949 13.5019 28.3148 13.581 27.8529C13.6602 27.3909 13.8596 26.935 14.1734 26.4881C14.49 26.0412 14.9005 25.7 15.4048 25.4705C15.9091 25.241 16.5132 25.1264 17.2168 25.1264C18.5979 25.1264 19.6418 25.4796 20.3514 26.1831C21.058 26.8896 21.4128 27.7803 21.4128 28.8584C21.4128 29.6797 21.2134 30.5462 20.8146 31.461C20.4159 32.376 19.24 34.3144 17.2902 37.2825H21.0961ZM20.6183 14.3802C20.6183 14.1385 20.8086 13.9426 21.0433 13.9426C21.2779 13.9426 21.4682 14.1385 21.4682 14.3802V19.1938C21.7068 19.2671 21.9204 19.4008 22.0919 19.5774C22.2636 19.7542 22.3934 19.9741 22.4646 20.2198H26.3137C26.5483 20.2198 26.7386 20.4158 26.7386 20.6574C26.7386 20.8991 26.5483 21.0951 26.3137 21.0951H22.4646C22.3934 21.3408 22.2636 21.5607 22.0919 21.7373C22.0831 21.7465 22.074 21.7551 22.0646 21.7632C21.7985 22.0243 21.4388 22.1847 21.0433 22.1847C20.6338 22.1847 20.263 22.0138 19.9946 21.7373C19.9857 21.7283 19.9773 21.7188 19.9694 21.7092C19.7159 21.4351 19.5601 21.0646 19.5601 20.6574C19.5601 20.2369 19.7263 19.8557 19.9946 19.5792L19.9954 19.5784L19.9946 19.5774C20.1662 19.4008 20.3797 19.2671 20.6183 19.1938V14.3802ZM21.491 20.1963C21.3765 20.0783 21.2181 20.0053 21.0433 20.0053C20.8684 20.0053 20.71 20.0783 20.5955 20.1963L20.5947 20.1954C20.4806 20.3132 20.41 20.4766 20.41 20.6574C20.41 20.8293 20.4738 20.9855 20.5781 21.1017L20.5955 21.1185C20.71 21.2365 20.8684 21.3096 21.0433 21.3096C21.2101 21.3096 21.3618 21.2439 21.4747 21.1364L21.491 21.1187C21.6057 21.0006 21.6765 20.8375 21.6765 20.6574C21.6765 20.4774 21.6057 20.3143 21.491 20.1963ZM29.1888 25.3981V34.7643H30.174V37.2101H29.1888V39.7283H25.723V37.2101H21.5888V34.7643L24.5941 25.3981H29.1888ZM26.6525 33.62V27.5239L25.1102 33.62H26.6525ZM36.3022 23.8587C36.26 24.0955 36.0393 24.2524 35.8093 24.209C35.5791 24.1657 35.4269 23.9383 35.469 23.7014C35.5324 23.3515 35.5855 22.9902 35.6276 22.6179C35.6517 22.4048 35.6718 22.1926 35.6877 21.9815H30.9091C30.6744 21.9815 30.4842 21.7856 30.4842 21.5439C30.4842 21.3022 30.6744 21.1063 30.9091 21.1063H36.1389V21.1077L36.1588 21.108C36.3924 21.1194 36.5731 21.3237 36.5621 21.5643C36.5437 21.959 36.5131 22.3434 36.4708 22.717C36.4281 23.0944 36.3716 23.4752 36.3022 23.8587ZM36.5621 19.9216C36.5731 20.1623 36.3924 20.3667 36.1588 20.3779C35.9251 20.3893 35.7267 20.2032 35.7156 19.9626C35.6308 18.1404 35.2501 16.3975 34.6219 14.7845C34.0317 13.2687 33.2231 11.8674 32.2363 10.6219L29.0561 14.0891C28.8957 14.2646 28.6274 14.2731 28.457 14.1079C28.2865 13.9427 28.2783 13.6664 28.4386 13.4909L31.9456 9.66744C31.9556 9.65679 31.9661 9.64651 31.9772 9.63659C32.154 9.47896 32.4216 9.4988 32.5747 9.68111C33.7607 11.0893 34.7241 12.7015 35.4087 14.4597C36.0711 16.1608 36.4727 17.9991 36.5621 19.9216ZM31.4704 8.49082C31.6399 8.65692 31.6466 8.93323 31.4853 9.1078C31.324 9.28237 31.0557 9.28927 30.8862 9.12317C29.5548 7.82134 27.9997 6.75929 26.2868 6.00501C24.7601 5.33262 23.108 4.90437 21.3773 4.76827V9.5634C21.3773 9.80511 21.1871 10.0011 20.9524 10.0011C20.7177 10.0011 20.5275 9.80511 20.5275 9.5634V4.30384H20.5288L20.5291 4.2834C20.5402 4.04266 20.7386 3.85672 20.9722 3.86797C22.9694 3.96656 24.8723 4.43256 26.6188 5.20161C28.4257 5.99739 30.0659 7.11763 31.4704 8.49082ZM19.377 3.86772C19.6108 3.85647 19.8092 4.04241 19.8201 4.28316C19.8312 4.52378 19.6506 4.72823 19.4168 4.73948C17.4787 4.83517 15.6332 5.29633 13.9443 6.05739C12.3263 6.78663 10.8517 7.79146 9.57654 9.01405L12.8503 12.5834C13.0107 12.759 13.0026 13.0353 12.832 13.2004C12.6615 13.3657 12.3932 13.3572 12.2329 13.1815L8.67043 9.29761C8.51312 9.12534 8.51747 8.85412 8.68206 8.68753C10.0971 7.25687 11.7631 6.088 13.6057 5.2575C15.3865 4.45506 17.3326 3.96862 19.377 3.86772ZM7.59514 9.89669C7.74551 9.71159 8.01301 9.68716 8.19264 9.84201C8.37238 9.99673 8.39611 10.2722 8.24574 10.4573C7.17116 11.7773 6.29946 13.2782 5.68 14.9086C5.13196 16.3511 4.78116 17.895 4.66169 19.5046H9.42652C9.66124 19.5046 9.85144 19.7005 9.85144 19.9422C9.85144 20.1838 9.66124 20.3797 9.42652 20.3797H4.21069V20.3784L4.19083 20.3779C3.95705 20.3667 3.77648 20.1623 3.78741 19.9216C3.87458 18.0478 4.25791 16.2545 4.88995 14.5907C5.54349 12.8706 6.46252 11.2879 7.59514 9.89669ZM3.78717 21.5643C3.77625 21.3237 3.95681 21.1194 4.19048 21.108C4.42426 21.0968 4.62268 21.2827 4.63361 21.5235C4.71314 23.2298 5.05207 24.8669 5.61068 26.3932C6.12877 27.8086 6.83634 29.1291 7.70169 30.3218L10.8767 26.8599C11.0372 26.6844 11.3054 26.6761 11.4759 26.8412C11.6464 27.0063 11.6545 27.2826 11.4942 27.4583L7.9874 31.2816C7.97107 31.3006 7.95298 31.3185 7.93301 31.3349C7.74974 31.4849 7.48283 31.4535 7.33716 31.2648C6.28125 29.9006 5.42577 28.3633 4.81735 26.7009C4.22831 25.0918 3.87094 23.3652 3.78717 21.5643ZM8.39764 32.5042C8.23458 32.3315 8.23822 32.0553 8.40598 31.8872C8.57374 31.7192 8.84206 31.7231 9.00524 31.8958C9.63434 32.5637 10.3215 33.1767 11.0582 33.7264C11.7889 34.2714 12.5658 34.7521 13.3807 35.1601C13.5916 35.2649 13.68 35.5258 13.5783 35.743C13.4766 35.96 13.2231 36.0511 13.0122 35.9463C12.1484 35.5138 11.3283 35.007 10.5602 34.4339C9.78718 33.8573 9.06351 33.2111 8.39764 32.5042ZM12.3273 38.8992C12.5409 38.9974 12.6366 39.2553 12.5414 39.4752C12.4461 39.6951 12.1956 39.7939 11.982 39.6957C8.40633 38.0543 5.38054 35.3716 3.26862 32.0219C1.22073 28.7739 0.03125 24.9006 0.03125 20.743C0.03125 15.0151 2.28591 9.8293 5.93117 6.07554C9.57642 2.32177 14.6123 0 20.1747 0C25.7371 0 30.7729 2.32177 34.4182 6.07554C38.0634 9.8293 40.3181 15.0151 40.3181 20.743C40.3181 21.2658 40.2985 21.7885 40.2603 22.3104C40.2215 22.8386 40.164 23.3591 40.0887 23.8714C40.0539 24.1102 39.8376 24.2747 39.6057 24.2389C39.3738 24.2031 39.214 23.9802 39.2488 23.7415C39.3217 23.2463 39.377 22.7472 39.4138 22.2453C39.4497 21.754 39.4683 21.2532 39.4683 20.743C39.4683 15.2567 37.3086 10.2896 33.8173 6.69433C30.3259 3.09904 25.5025 0.875141 20.1747 0.875141C14.8469 0.875141 10.0233 3.09904 6.53195 6.69433C3.04059 10.2896 0.881094 15.2567 0.881094 20.743C0.881094 24.7287 2.01935 28.4387 3.97902 31.5467C6.00259 34.7563 8.90162 37.3267 12.3273 38.8992ZM43.9669 25.3981V28.5081L41.7502 39.7283H38.3019L40.7737 27.9706H37.3344V25.3981H43.9669ZM37.1496 25.1264L32.9978 40H30.3675L34.5371 25.1264H37.1496Z" fill="#FF7500"/>
</g>
<defs>
<clipPath id="clip0_4941_26208">
<rect width="44" height="40" fill="white"/>
</clipPath>
</defs>
</svg>
