<svg width="66" height="47" viewBox="0 0 26 47" fill="none" xmlns="http://www.w3.org/2000/svg">
<path d="M9.21804 0C4.13912 0 5.74851e-07 4.12912 5.74851e-07 9.21804C-0.000476241 10.5683 0.295677 11.9021 0.867522 13.1253C1.43937 14.3484 2.27294 15.431 3.3093 16.2965C3.72921 16.6565 4.36907 16.5965 4.719 16.1666C5.06892 15.7467 5.01893 15.1168 4.58903 14.7569C3.77619 14.0807 3.12199 13.234 2.67277 12.2768C2.22356 11.3196 1.99032 10.2754 1.98958 9.21804C1.98958 5.23889 5.22889 1.99958 9.20805 1.99958C13.1872 1.99958 16.4265 5.23889 16.4265 9.21804C16.4265 11.3776 15.4767 13.3972 13.8071 14.7769C13.6485 14.9082 13.5344 15.0853 13.4803 15.2839C13.4262 15.4826 13.4348 15.6931 13.5048 15.8867C13.5748 16.0803 13.7028 16.2475 13.8715 16.3656C14.0401 16.4837 14.2411 16.5469 14.4469 16.5465C14.6669 16.5465 14.8968 16.4665 15.0868 16.3165C16.1318 15.4522 16.9729 14.3678 17.5502 13.1407C18.1274 11.9136 18.4265 10.5741 18.4261 9.21804C18.4361 4.12912 14.307 0 9.21804 0Z" fill="#FF7500"/>
<path d="M20.7448 41.1913C20.6148 41.3612 20.5448 41.5712 20.5448 41.7911L20.5248 45.9903C20.5248 46.5401 20.9648 46.99 21.5146 47H21.5246C22.0745 47 22.5244 46.5601 22.5244 46.0103L22.5444 42.1411C24.694 39.1617 25.8837 35.5125 25.9037 31.8433L25.9337 24.8847C25.9437 23.1651 24.664 21.6854 23.0243 21.5155C22.2845 21.4355 21.5546 21.6154 20.9348 22.0054C20.4149 21.1455 19.5451 20.5357 18.5253 20.4357C17.6055 20.3457 16.6957 20.6356 16.0058 21.2455C15.9858 21.2655 15.9558 21.2855 15.9358 21.3155C15.3559 20.7556 14.5661 20.4057 13.6863 20.4057C13.2864 20.4057 12.8265 20.4857 12.4366 20.6456L12.4666 11.6276C12.4766 9.90792 11.1968 8.42824 9.55718 8.25827C8.63737 8.16829 7.72757 8.45823 7.03771 9.0681C6.35786 9.67797 5.95794 10.5578 5.95794 11.4776L5.91795 22.7552C5.53713 22.599 5.12981 22.5176 4.71821 22.5152H4.70821C3.85839 22.5152 3.05856 22.8452 2.44869 23.445C1.83882 24.0449 1.50889 24.8547 1.49889 25.7046L1.4689 33.5629C1.4589 35.8724 1.95879 37.992 2.8786 39.5516C3.65843 40.8713 4.68821 41.7312 5.84797 42.0511L5.82797 45.9503C5.82797 46.5001 6.26788 46.9501 6.82776 46.9601C7.37764 46.9601 7.82755 46.5201 7.82755 45.9703L7.85754 41.2013C7.85754 40.9313 7.75756 40.6814 7.5676 40.4914C7.37764 40.3015 7.1277 40.2015 6.85775 40.1915C5.73799 40.1915 4.96815 39.1617 4.60823 38.5418C3.86839 37.2921 3.46847 35.5225 3.47847 33.5729L3.50846 25.7146C3.50846 25.3946 3.63844 25.0947 3.86839 24.8647C4.09834 24.6348 4.39827 24.5148 4.71821 24.5148C5.38806 24.5148 5.91795 25.0547 5.91795 25.7246L5.88796 31.8733C5.88796 32.4231 6.32787 32.873 6.88775 32.873C7.43763 32.873 7.88753 32.4331 7.88753 31.8733L7.91753 25.7246L7.96752 11.4576C7.96752 11.0977 8.11749 10.7677 8.38743 10.5278C8.65737 10.2878 8.9973 10.1779 9.35722 10.2179C9.98709 10.2778 10.477 10.8877 10.467 11.5976L10.427 23.615C10.427 24.1649 10.8669 24.6148 11.4268 24.6148C11.9767 24.6148 12.4266 24.1649 12.4266 23.615C12.4266 23.2851 12.5565 22.9751 12.7965 22.7352C12.9718 22.5614 13.1947 22.4434 13.4371 22.3961C13.6794 22.3489 13.9303 22.3744 14.1581 22.4696C14.3859 22.5648 14.5805 22.7254 14.7171 22.931C14.8538 23.1366 14.9265 23.3781 14.926 23.625C14.926 24.1749 15.3659 24.6248 15.9258 24.6248C16.4757 24.6248 16.9256 24.1749 16.9256 23.625C16.9256 23.2651 17.0756 22.9352 17.3455 22.6952C17.6155 22.4553 17.9554 22.3453 18.3153 22.3853C18.9452 22.4453 19.4351 23.0551 19.4251 23.765V24.7048C19.4251 25.2547 19.865 25.7046 20.4249 25.7046C20.9748 25.7046 21.4247 25.2647 21.4247 24.7048C21.4247 24.3449 21.5746 24.0249 21.8446 23.785C22.1145 23.545 22.4644 23.435 22.8144 23.475C23.4442 23.535 23.9341 24.1449 23.9241 24.8547L23.8941 31.8133C23.8755 35.1958 22.7716 38.4831 20.7448 41.1913Z" fill="#FF7500"/>
</svg>
