<svg width="72" height="47" viewBox="0 0 42 47" fill="none" xmlns="http://www.w3.org/2000/svg">
<g opacity="0.6">
<path d="M15.5529 27.4547H25.8582C27.2507 27.4547 28.3837 26.3216 28.3837 24.9291V17.4164C28.3837 16.0239 27.2507 14.8908 25.8582 14.8908H25.5912V13.2622C25.5912 10.5679 23.3995 8.37622 20.7053 8.37622C18.011 8.37622 15.8193 10.5679 15.8193 13.2622V14.8908H15.5529C14.1604 14.8908 13.0273 16.0239 13.0273 17.4164V24.9297C13.0273 26.3216 14.1604 27.4547 15.5529 27.4547ZM18.1459 13.2622C18.1459 11.8511 19.2941 10.7029 20.7053 10.7029C22.1164 10.7029 23.2646 11.8511 23.2646 13.2622V14.8908H18.1459V13.2622ZM15.354 17.4164C15.354 17.307 15.443 17.2174 15.5529 17.2174H16.9826H24.4279H25.8576C25.9669 17.2174 26.0565 17.3064 26.0565 17.4164V24.9297C26.0565 25.039 25.9675 25.1286 25.8576 25.1286H15.5529C15.4436 25.1286 15.354 25.0396 15.354 24.9297V17.4164Z" fill="#FF7500"/>
<path d="M21.8696 19.7766H19.543V22.5686H21.8696V19.7766Z" fill="#FF7500"/>
<path d="M41.4089 17.8059C41.4078 17.7966 41.4072 17.7873 41.406 17.7774C41.4025 17.746 41.3973 17.7152 41.3915 17.6843C41.3903 17.6791 41.3897 17.6739 41.3886 17.6686C41.381 17.6332 41.3717 17.5988 41.3607 17.5645C41.3583 17.5564 41.3554 17.5488 41.3525 17.5407C41.3432 17.5122 41.3322 17.4848 41.3205 17.4575C41.3176 17.4505 41.3147 17.4435 41.3118 17.4366C41.2973 17.4046 41.281 17.3726 41.2635 17.3418C41.2595 17.3348 41.2554 17.3284 41.2513 17.3214C41.2362 17.2964 41.2205 17.2714 41.2036 17.2475C41.1984 17.24 41.1937 17.233 41.1879 17.2254C41.167 17.1969 41.1449 17.169 41.121 17.1422C41.1169 17.1376 41.1123 17.1329 41.1082 17.1283C41.0873 17.1056 41.0652 17.0835 41.0425 17.062C41.0384 17.0585 41.0355 17.0544 41.0314 17.0509L35.8308 12.3465V6.84628C35.8308 5.12399 34.4296 3.72277 32.7073 3.72277H26.2986L23.2868 0.997692C21.8163 -0.332564 19.5984 -0.332564 18.128 0.997692L15.1168 3.72277H8.70803C6.98573 3.72277 5.58452 5.12399 5.58452 6.84628V12.3465L0.383314 17.0527C0.379242 17.0562 0.376334 17.0602 0.372262 17.0637C0.349577 17.0847 0.327474 17.1068 0.306534 17.13C0.302462 17.1347 0.297809 17.1393 0.293737 17.144C0.269889 17.1707 0.247787 17.1981 0.226847 17.2272C0.221612 17.2341 0.216377 17.2417 0.211142 17.2493C0.194274 17.2731 0.178569 17.2981 0.163446 17.3231C0.159375 17.3301 0.155303 17.3365 0.151231 17.3435C0.133781 17.3743 0.118076 17.4057 0.102953 17.4383C0.100045 17.4453 0.0971369 17.4523 0.0942286 17.4592C0.0825954 17.4866 0.0721253 17.5145 0.0622371 17.5424C0.0593288 17.5506 0.0564206 17.5581 0.0540939 17.5663C0.0430424 17.6006 0.0337361 17.6349 0.0261745 17.6704C0.0250112 17.6756 0.0244294 17.6809 0.023266 17.6861C0.0168678 17.7169 0.0122145 17.7477 0.00872454 17.7792C0.00756122 17.7885 0.00639772 17.7978 0.00581606 17.8077C0.00232611 17.8437 0 17.8804 0 17.917V43.8765C0 45.5988 1.40122 47 3.12351 47H38.2912C40.0135 47 41.4148 45.5988 41.4148 43.8765V17.9153C41.4148 17.8786 41.4124 17.842 41.4089 17.8059ZM39.0881 20.5368V43.214L30.746 35.6658L29.1848 37.391L37.2315 44.6716H4.18388L12.2306 37.391L10.6694 35.6658L2.32722 43.214V20.5368L4.96796 22.9257L5.96667 23.8296L5.96725 23.8302L18.1286 34.8328C18.8638 35.4983 19.7857 35.8304 20.7077 35.8304C21.6296 35.8304 22.5515 35.4977 23.2868 34.8328L35.4481 23.8302L35.4487 23.8296L36.4474 22.9257L39.0881 20.5368ZM38.5175 17.9153L35.8308 20.346V15.4845L38.5175 17.9153ZM19.6892 2.72289C20.2697 2.19766 21.1451 2.19766 21.7256 2.72289L22.8307 3.72277H18.5846L19.6892 2.72289ZM7.91115 6.84628C7.91115 6.40655 8.26888 6.04941 8.70803 6.04941H15.5646H25.8507H32.7073C33.147 6.04941 33.5042 6.40713 33.5042 6.84628V12.863V22.451L21.7262 33.1076C21.1457 33.6329 20.2703 33.6329 19.6898 33.1076L7.91115 22.451V12.863V6.84628ZM5.58452 20.346L2.89783 17.9153L5.58452 15.4845V20.346Z" fill="#FF7500"/>
</g>
</svg>
