<svg width="120" height="23" viewBox="0 0 120 23" fill="none" xmlns="http://www.w3.org/2000/svg">
<g clip-path="url(#clip0_705_1931)">
<mask id="mask0_705_1931" style="mask-type:luminance" maskUnits="userSpaceOnUse" x="0" y="0" width="23" height="23">
<path d="M22.5023 8.87394L14.3403 8.34613L11.2578 0.61499L8.1753 8.34613L0.03125 8.87394L6.28022 14.194L4.22921 22.255L11.2578 17.8046L18.2864 22.255L16.2354 14.194L22.5023 8.87394Z" fill="white"/>
</mask>
<g mask="url(#mask0_705_1931)">
<path d="M110.378 0.61499H0.03125V22.255H110.378V0.61499Z" fill="#FCB002"/>
</g>
<mask id="mask1_705_1931" style="mask-type:luminance" maskUnits="userSpaceOnUse" x="24" y="0" width="23" height="23">
<path d="M46.8695 8.87394L38.7075 8.34613L35.625 0.61499L32.5485 8.34613L24.3984 8.87394L30.6474 14.194L28.5964 22.255L35.625 17.8046L42.6596 22.255L40.6026 14.194L46.8695 8.87394Z" fill="white"/>
</mask>
<g mask="url(#mask1_705_1931)">
<path d="M110.378 0.61499H0.03125V22.255H110.378V0.61499Z" fill="#FCB002"/>
</g>
<mask id="mask2_705_1931" style="mask-type:luminance" maskUnits="userSpaceOnUse" x="48" y="0" width="24" height="23">
<path d="M71.2385 8.87394L63.0765 8.34613L60 0.61499L56.9175 8.34613L48.7734 8.87394L55.0224 14.194L52.9654 22.255L60 17.8046L67.0286 22.255L64.9716 14.194L71.2385 8.87394Z" fill="white"/>
</mask>
<g mask="url(#mask2_705_1931)">
<path d="M110.378 0.61499H0.03125V22.255H110.378V0.61499Z" fill="#FCB002"/>
</g>
<mask id="mask3_705_1931" style="mask-type:luminance" maskUnits="userSpaceOnUse" x="73" y="0" width="23" height="23">
<path d="M95.6117 8.87394L87.4497 8.34613L84.3672 0.61499L81.2847 8.34613L73.1406 8.87394L79.3896 14.194L77.3326 22.255L84.3672 17.8046L91.3958 22.255L89.3448 14.194L95.6117 8.87394Z" fill="white"/>
</mask>
<g mask="url(#mask3_705_1931)">
<path d="M110.378 0.61499H0.03125V22.255H110.378V0.61499Z" fill="#FCB002"/>
</g>
<mask id="mask4_705_1931" style="mask-type:luminance" maskUnits="userSpaceOnUse" x="97" y="0" width="23" height="23">
<path d="M119.971 8.87394L111.809 8.34613L108.727 0.61499L105.644 8.34613L97.5 8.87394L103.749 14.194L101.698 22.255L108.727 17.8046L115.755 22.255L113.704 14.194L119.971 8.87394Z" fill="white"/>
</mask>
<g mask="url(#mask4_705_1931)">
<path d="M110.378 0.61499H0.03125V22.255H110.378V0.61499Z" fill="#FCB002"/>
</g>
<path d="M11.2578 2.23439L13.7826 8.56805L13.9205 8.92192L14.2983 8.94591L20.9791 9.37775L15.8456 13.7381L15.5577 13.978L15.6477 14.3439L17.3269 20.9415L11.5697 17.2948L11.2518 17.0909L10.934 17.2948L5.17675 20.9415L6.85594 14.3439L6.94589 13.984L6.66403 13.7441L1.54252 9.38375L8.21128 8.95191L8.5891 8.92792L8.72703 8.57405L11.2578 2.23439ZM11.2578 0.61499L8.1753 8.34613L0.03125 8.87394L6.28022 14.194L4.22921 22.255L11.2578 17.8046L18.2864 22.255L16.2354 14.194L22.5023 8.87394L14.3403 8.34613L11.2578 0.61499Z" fill="#FCB002"/>
<path d="M35.625 2.23439L38.1498 8.56805L38.2877 8.92192L38.6655 8.94591L45.3463 9.37775L40.2128 13.7381L39.9249 13.978L40.0149 14.3439L41.694 20.9415L35.9368 17.2948L35.619 17.0909L35.3011 17.2948L29.5439 20.9415L31.2231 14.3439L31.3131 13.984L31.0312 13.7441L25.9097 9.38375L32.5785 8.95191L32.9563 8.92792L33.0942 8.57405L35.625 2.23439ZM35.625 0.61499L32.5425 8.34613L24.3984 8.87394L30.6474 14.194L28.5964 22.255L35.625 17.8046L42.6536 22.255L40.6026 14.194L46.8695 8.87394L38.7075 8.34613L35.625 0.61499Z" fill="#FCB002"/>
<path d="M60 2.23439L62.5248 8.56805L62.6627 8.92192L63.0405 8.94591L69.7213 9.37775L64.5878 13.7381L64.2999 13.978L64.3899 14.3439L66.069 20.9415L60.3118 17.2948L59.994 17.0909L59.6761 17.2948L53.9189 20.9415L55.5981 14.3439L55.6881 13.984L55.4062 13.7441L50.2847 9.38375L56.9535 8.95191L57.3313 8.92792L57.4692 8.57405L60 2.23439ZM60 0.61499L56.9175 8.34613L48.7734 8.87394L55.0224 14.194L52.9714 22.255L60 17.8046L67.0286 22.255L64.9776 14.194L71.2445 8.87394L63.0825 8.34613L60 0.61499Z" fill="#FCB002"/>
<path d="M84.3672 2.23439L86.892 8.56805L87.0299 8.92192L87.4077 8.94591L94.0885 9.37775L88.955 13.7381L88.6671 13.978L88.757 14.3439L90.4362 20.9415L84.679 17.2948L84.3612 17.0909L84.0433 17.2948L78.2861 20.9415L79.9653 14.3439L80.0553 13.984L79.7734 13.7441L74.6519 9.38375L81.3207 8.95191L81.6985 8.92792L81.8364 8.57405L84.3672 2.23439ZM84.3672 0.61499L81.2847 8.34613L73.1406 8.87394L79.3896 14.194L77.3386 22.255L84.3672 17.8046L91.3958 22.255L89.3448 14.194L95.6117 8.87394L87.4497 8.34613L84.3672 0.61499Z" fill="#FCB002"/>
<path d="M108.727 2.23439L111.251 8.56805L111.389 8.92192L111.767 8.94591L118.448 9.37775L113.314 13.7381L113.026 13.978L113.116 14.3439L114.796 20.9415L109.038 17.2948L108.721 17.0909L108.403 17.2948L102.646 20.9415L104.325 14.3439L104.415 13.984L104.133 13.7441L99.0113 9.38375L105.68 8.95191L106.058 8.92792L106.196 8.57405L108.727 2.23439ZM108.727 0.61499L105.644 8.34613L97.5 8.87394L103.749 14.194L101.698 22.255L108.727 17.8046L115.755 22.255L113.704 14.194L119.971 8.87394L111.809 8.34613L108.727 0.61499Z" fill="#FCB002"/>
</g>
<defs>
<clipPath id="clip0_705_1931">
<rect width="120" height="21.64" fill="white" transform="translate(0 0.61499)"/>
</clipPath>
</defs>
</svg>
