<svg width="62" height="10" viewBox="0 0 62 17" fill="none" xmlns="http://www.w3.org/2000/svg">
<path d="M7.36823 13.9771C6.36023 13.9771 5.45423 13.8211 4.65023 13.5091C3.85823 13.1851 3.18023 12.7291 2.61623 12.1411C2.06423 11.5411 1.63823 10.8271 1.33823 9.99906C1.05023 9.17106 0.906234 8.25306 0.906234 7.24506C0.906234 6.18906 1.06223 5.25306 1.37423 4.43706C1.69823 3.60906 2.14823 2.90706 2.72423 2.33106C3.30023 1.74306 3.99023 1.29906 4.79423 0.999063C5.59823 0.687063 6.49223 0.531063 7.47623 0.531063C8.61623 0.531063 9.61823 0.723063 10.4822 1.10706C11.3462 1.47906 12.0362 2.00706 12.5522 2.69106C13.0802 3.36306 13.3982 4.15506 13.5062 5.06706H11.0582C10.9502 4.53906 10.7282 4.09506 10.3922 3.73506C10.0682 3.36306 9.65423 3.08106 9.15023 2.88906C8.65823 2.68506 8.10023 2.58306 7.47623 2.58306C6.64823 2.58306 5.92223 2.76306 5.29823 3.12306C4.67423 3.47106 4.19423 3.99306 3.85823 4.68906C3.52223 5.38506 3.35423 6.23706 3.35423 7.24506C3.35423 8.00106 3.44423 8.67906 3.62423 9.27906C3.81623 9.86706 4.09223 10.3591 4.45223 10.7551C4.81223 11.1511 5.23823 11.4571 5.73023 11.6731C6.23423 11.8771 6.79223 11.9791 7.40423 11.9791C8.20823 11.9791 8.90423 11.8351 9.49223 11.5471C10.0802 11.2471 10.5362 10.8211 10.8602 10.2691C11.1842 9.70506 11.3462 9.03906 11.3462 8.27106V7.80306L12.0482 8.63106H7.44023V6.90306H13.7582V8.00106C13.7582 8.91306 13.6022 9.74106 13.2902 10.4851C12.9902 11.2171 12.5582 11.8411 11.9942 12.3571C11.4422 12.8731 10.7702 13.2751 9.97823 13.5631C9.19823 13.8391 8.32823 13.9771 7.36823 13.9771ZM41.3698 17.0011C40.5658 17.0011 39.8698 16.8811 39.2818 16.6411C38.6938 16.4131 38.2258 16.0831 37.8778 15.6511C37.5418 15.2311 37.3498 14.7391 37.3018 14.1751H39.4618C39.5098 14.4151 39.6178 14.6251 39.7858 14.8051C39.9658 14.9851 40.1938 15.1231 40.4698 15.2191C40.7458 15.3271 41.0638 15.3811 41.4238 15.3811C41.9638 15.3811 42.4078 15.3031 42.7558 15.1471C43.1158 14.9911 43.3798 14.7511 43.5478 14.4271C43.7278 14.1031 43.8178 13.6831 43.8178 13.1671V11.4031H43.6918C43.4878 11.9551 43.1158 12.4051 42.5758 12.7531C42.0358 13.0891 41.3998 13.2571 40.6678 13.2571C40.0918 13.2571 39.5698 13.1551 39.1018 12.9511C38.6458 12.7471 38.2498 12.4531 37.9138 12.0691C37.5778 11.6731 37.3198 11.1931 37.1398 10.6291C36.9598 10.0531 36.8698 9.39306 36.8698 8.64906C36.8698 7.65306 37.0258 6.81906 37.3378 6.14706C37.6618 5.46306 38.1118 4.94706 38.6878 4.59906C39.2638 4.23906 39.9358 4.05906 40.7038 4.05906C41.4238 4.05906 42.0478 4.22706 42.5758 4.56306C43.1158 4.89906 43.4878 5.33706 43.6918 5.87706H43.8178L43.8898 4.23906H46.0678V12.8071C46.0678 13.5751 45.9538 14.2231 45.7258 14.7511C45.5098 15.2911 45.1918 15.7231 44.7718 16.0471C44.3518 16.3831 43.8538 16.6231 43.2778 16.7671C42.7138 16.9231 42.0778 17.0011 41.3698 17.0011ZM41.4778 11.5111C41.9818 11.5111 42.4018 11.4031 42.7378 11.1871C43.0858 10.9591 43.3498 10.6711 43.5298 10.3231C43.7098 9.96306 43.8058 9.59706 43.8178 9.22506V8.07306C43.8058 7.68906 43.7098 7.32906 43.5298 6.99306C43.3498 6.64506 43.0918 6.36306 42.7558 6.14706C42.4198 5.91906 41.9998 5.80506 41.4958 5.80506C41.0278 5.80506 40.6138 5.91306 40.2538 6.12906C39.9058 6.34506 39.6358 6.66306 39.4438 7.08306C39.2518 7.50306 39.1558 8.02506 39.1558 8.64906C39.1558 9.28506 39.2518 9.81906 39.4438 10.2511C39.6478 10.6711 39.9238 10.9891 40.2718 11.2051C40.6198 11.4091 41.0218 11.5111 41.4778 11.5111Z" fill="#3074F1"/>
<path d="M19.8953 13.9771C19.1753 13.9771 18.5273 13.8691 17.9513 13.6531C17.3753 13.4251 16.8713 13.0951 16.4393 12.6631C16.0193 12.2311 15.6953 11.7091 15.4673 11.0971C15.2513 10.4851 15.1433 9.79506 15.1433 9.02706C15.1433 8.04306 15.3293 7.17906 15.7013 6.43506C16.0853 5.69106 16.6313 5.10906 17.3393 4.68906C18.0473 4.26906 18.8993 4.05906 19.8953 4.05906C20.6033 4.05906 21.2453 4.17306 21.8213 4.40106C22.3973 4.62906 22.8893 4.95906 23.2973 5.39106C23.7173 5.82306 24.0413 6.34506 24.2693 6.95706C24.4973 7.55706 24.6113 8.24706 24.6113 9.02706C24.6113 9.99906 24.4193 10.8571 24.0352 11.6011C23.6633 12.3451 23.1233 12.9271 22.4153 13.3471C21.7193 13.7671 20.8793 13.9771 19.8953 13.9771ZM19.8773 12.1231C20.3693 12.1231 20.8013 12.0091 21.1733 11.7811C21.5453 11.5411 21.8333 11.1931 22.0373 10.7371C22.2413 10.2691 22.3433 9.69906 22.3433 9.02706C22.3433 8.52306 22.2833 8.07906 22.1633 7.69506C22.0553 7.29906 21.8933 6.96906 21.6773 6.70506C21.4613 6.44106 21.2033 6.24306 20.9033 6.11106C20.6033 5.97906 20.2673 5.91306 19.8953 5.91306C19.4033 5.91306 18.9653 6.03306 18.5813 6.27306C18.2093 6.50106 17.9213 6.84906 17.7173 7.31706C17.5133 7.77306 17.4113 8.34306 17.4113 9.02706C17.4113 9.53106 17.4653 9.98106 17.5733 10.3771C17.6933 10.7611 17.8613 11.0851 18.0773 11.3491C18.2933 11.6011 18.5513 11.7931 18.8513 11.9251C19.1633 12.0571 19.5053 12.1231 19.8773 12.1231ZM57.0512 13.9771C56.0792 13.9771 55.2512 13.7791 54.5672 13.3831C53.8952 12.9751 53.3792 12.4051 53.0192 11.6731C52.6592 10.9291 52.4792 10.0651 52.4792 9.08106C52.4792 8.06106 52.6592 7.17906 53.0192 6.43506C53.3792 5.67906 53.8952 5.09706 54.5672 4.68906C55.2392 4.28106 56.0372 4.07706 56.9612 4.07706C58.0172 4.07706 58.8812 4.31106 59.5532 4.77906C60.2372 5.23506 60.7292 5.87106 61.0292 6.68706C61.3292 7.50306 61.4312 8.43906 61.3352 9.49506H54.6752C54.6752 10.1071 54.7712 10.6231 54.9632 11.0431C55.1672 11.4511 55.4432 11.7631 55.7912 11.9791C56.1512 12.1831 56.5712 12.2851 57.0512 12.2851C57.6152 12.2851 58.0832 12.1531 58.4552 11.8891C58.8272 11.6131 59.0672 11.2591 59.1752 10.8271H61.2812C61.2092 11.4751 60.9812 12.0391 60.5972 12.5191C60.2132 12.9871 59.7152 13.3471 59.1032 13.5991C58.4912 13.8511 57.8072 13.9771 57.0512 13.9771ZM54.6752 8.28906L54.4772 8.05506H59.3552L59.1392 8.30706C59.1632 7.71906 59.0852 7.23906 58.9052 6.86706C58.7252 6.49506 58.4672 6.21906 58.1312 6.03906C57.7952 5.85906 57.4052 5.76906 56.9612 5.76906C56.5052 5.76906 56.1092 5.86506 55.7732 6.05706C55.4372 6.24906 55.1732 6.53706 54.9812 6.92106C54.7892 7.29306 54.6872 7.74906 54.6752 8.28906Z" fill="#E73124"/>
<path d="M30.7585 13.9771C30.0385 13.9771 29.3905 13.8691 28.8145 13.6531C28.2385 13.4251 27.7345 13.0951 27.3025 12.6631C26.8825 12.2311 26.5585 11.7091 26.3305 11.0971C26.1145 10.4851 26.0065 9.79506 26.0065 9.02706C26.0065 8.04306 26.1925 7.17906 26.5645 6.43506C26.9485 5.69106 27.4945 5.10906 28.2025 4.68906C28.9105 4.26906 29.7625 4.05906 30.7585 4.05906C31.4665 4.05906 32.1085 4.17306 32.6845 4.40106C33.2605 4.62906 33.7525 4.95906 34.1605 5.39106C34.5805 5.82306 34.9045 6.34506 35.1325 6.95706C35.3605 7.55706 35.4745 8.24706 35.4745 9.02706C35.4745 9.99906 35.2825 10.8571 34.8985 11.6011C34.5265 12.3451 33.9865 12.9271 33.2785 13.3471C32.5825 13.7671 31.7425 13.9771 30.7585 13.9771ZM30.7405 12.1231C31.2325 12.1231 31.6645 12.0091 32.0365 11.7811C32.4085 11.5411 32.6965 11.1931 32.9005 10.7371C33.1045 10.2691 33.2065 9.69906 33.2065 9.02706C33.2065 8.52306 33.1465 8.07906 33.0265 7.69506C32.9185 7.29906 32.7565 6.96906 32.5405 6.70506C32.3245 6.44106 32.0665 6.24306 31.7665 6.11106C31.4665 5.97906 31.1305 5.91306 30.7585 5.91306C30.2665 5.91306 29.8285 6.03306 29.4445 6.27306C29.0725 6.50106 28.7845 6.84906 28.5805 7.31706C28.3765 7.77306 28.2745 8.34306 28.2745 9.02706C28.2745 9.53106 28.3285 9.98106 28.4365 10.3771C28.5565 10.7611 28.7245 11.0851 28.9405 11.3491C29.1565 11.6011 29.4145 11.7931 29.7145 11.9251C30.0265 12.0571 30.3685 12.1231 30.7405 12.1231Z" fill="#FCB002"/>
<path d="M48.3974 13.8151V0.693063H50.6474V13.8151H48.3974Z" fill="#249B41"/>
</svg>
