<svg width="67" height="47" viewBox="0 0 47 47" fill="none" xmlns="http://www.w3.org/2000/svg">
<g opacity="0.6">
<path d="M12.9066 35.6631H5.17734C2.32246 35.6631 0 37.9855 0 40.8404V45.5221C0 46.2381 0.57832 46.8164 1.29434 46.8164H16.7896C17.5057 46.8164 18.084 46.2381 18.084 45.5221V40.8404C18.084 37.9855 15.7615 35.6631 12.9066 35.6631ZM15.4953 44.2277H2.58867V40.8404C2.58867 39.4084 3.75449 38.2518 5.17734 38.2518H12.8975C14.3295 38.2518 15.4861 39.4176 15.4861 40.8404V44.2277H15.4953ZM9.04199 34.0291C11.6766 34.0291 13.8154 31.8902 13.8154 29.2557C13.8154 26.6211 11.6766 24.4822 9.04199 24.4822C6.40742 24.4822 4.26855 26.6211 4.26855 29.2557C4.26855 31.8902 6.40742 34.0291 9.04199 34.0291ZM9.04199 27.0709C10.2445 27.0709 11.2268 28.0531 11.2268 29.2557C11.2268 30.4582 10.2445 31.4404 9.04199 31.4404C7.83945 31.4404 6.85723 30.4582 6.85723 29.2557C6.85723 28.0531 7.83945 27.0709 9.04199 27.0709ZM41.4555 35.6631H33.7354C30.8805 35.6631 28.558 37.9855 28.558 40.8404V45.5221C28.558 46.2381 29.1363 46.8164 29.8523 46.8164H45.3477C46.0637 46.8164 46.642 46.2381 46.642 45.5221V40.8404C46.6328 37.9855 44.3104 35.6631 41.4555 35.6631ZM44.0441 44.2277H31.1375V40.8404C31.1375 39.4084 32.3033 38.2518 33.7262 38.2518H41.4463C42.8783 38.2518 44.035 39.4176 44.035 40.8404V44.2277H44.0441ZM37.5908 34.0291C40.2254 34.0291 42.3643 31.8902 42.3643 29.2557C42.3643 26.6211 40.2254 24.4822 37.5908 24.4822C34.9562 24.4822 32.8174 26.6211 32.8174 29.2557C32.8174 31.8902 34.9562 34.0291 37.5908 34.0291ZM37.5908 27.0709C38.7934 27.0709 39.7756 28.0531 39.7756 29.2557C39.7756 30.4582 38.7934 31.4404 37.5908 31.4404C36.3883 31.4404 35.4061 30.4582 35.4061 29.2557C35.4061 28.0531 36.3883 27.0709 37.5908 27.0709ZM23.3164 9.73047C25.951 9.73047 28.0898 7.5916 28.0898 4.95703C28.0898 2.32246 25.951 0.183594 23.3164 0.183594C20.6818 0.183594 18.543 2.32246 18.543 4.95703C18.543 7.5916 20.6818 9.73047 23.3164 9.73047ZM23.3164 2.77227C24.5189 2.77227 25.5012 3.75449 25.5012 4.95703C25.5012 6.15957 24.5189 7.1418 23.3164 7.1418C22.1139 7.1418 21.1316 6.15957 21.1316 4.95703C21.1316 3.75449 22.1139 2.77227 23.3164 2.77227ZM29.7697 33.7354C30.2746 33.2305 30.2746 32.4135 29.7697 31.8994L24.6107 26.7404V22.5178H31.0641C31.7801 22.5178 32.3584 21.9395 32.3584 21.2234V16.5418C32.3584 13.6869 30.0359 11.3645 27.1811 11.3645H19.4609C16.6061 11.3645 14.2836 13.6869 14.2836 16.5418V21.2234C14.2836 21.9395 14.8619 22.5178 15.5779 22.5178H22.0312V26.7404L16.8723 31.8994C16.3674 32.4043 16.3674 33.2213 16.8723 33.7354C17.3771 34.2402 18.1941 34.2402 18.7082 33.7354L23.3348 29.1088L27.9613 33.7354C28.2184 33.9924 28.5488 34.1117 28.8793 34.1117C29.1914 34.1117 29.5219 33.9924 29.7697 33.7354ZM16.8631 16.5418C16.8631 15.1098 18.0289 13.9531 19.4518 13.9531H27.1719C28.6039 13.9531 29.7605 15.1189 29.7605 16.5418V19.9291H16.8631V16.5418Z" fill="#FF7500"/>
</g>
</svg>
