<svg width="41" height="40" viewBox="0 0 41 40" fill="none" xmlns="http://www.w3.org/2000/svg">
<path opacity="0.6" d="M40.035 19.9999C40.0328 18.3526 39.4628 16.7565 38.421 15.4805C37.3792 14.2045 35.9293 13.3268 34.3157 12.9952V5.70171C34.3156 5.45808 34.2532 5.21853 34.1345 5.00578C34.0158 4.79303 33.8447 4.61414 33.6374 4.48609C33.4301 4.35803 33.1936 4.28506 32.9502 4.2741C32.7068 4.26314 32.4647 4.31455 32.2467 4.42345L15.3892 12.8508H14.8887L2.44213 0.401367C2.17247 0.140914 1.81129 -0.00320368 1.4364 5.4051e-05C1.0615 0.00331178 0.702885 0.153685 0.437785 0.418785C0.172684 0.683885 0.0223114 1.0425 0.0190537 1.4174C0.015796 1.79229 0.159914 2.15347 0.420367 2.42313L10.8466 12.8508H7.1491C6.76989 12.8508 6.40621 13.0015 6.13807 13.2696C5.86992 13.5377 5.71928 13.9014 5.71928 14.2806V15.7105H4.28946C3.15183 15.7105 2.06078 16.1624 1.25635 16.9668C0.451924 17.7712 0 18.8623 0 19.9999C0 21.1376 0.451924 22.2286 1.25635 23.033C2.06078 23.8375 3.15183 24.2894 4.28946 24.2894H5.71928V25.7192C5.71928 26.0984 5.86992 26.4621 6.13807 26.7302C6.40621 26.9984 6.76989 27.149 7.1491 27.149H10.0087V34.2981C10.0087 34.6773 10.1594 35.041 10.4275 35.3092C10.6957 35.5773 11.0594 35.7279 11.4386 35.7279C11.8178 35.7279 12.1815 35.5773 12.4496 35.3092C12.7177 35.041 12.8684 34.6773 12.8684 34.2981V27.149H15.3906L32.2467 35.5764C32.449 35.6793 32.6733 35.731 32.9002 35.727C33.127 35.723 33.3494 35.6635 33.5479 35.5535L37.5943 39.5985C37.8639 39.8589 38.2251 40.003 38.6 39.9998C38.9749 39.9965 39.3335 39.8461 39.5986 39.5811C39.8637 39.3159 40.0141 38.9573 40.0174 38.5824C40.0206 38.2075 39.8765 37.8464 39.616 37.5767L34.3157 32.2764V27.0046C35.9293 26.673 37.3792 25.7953 38.421 24.5193C39.4628 23.2433 40.0328 21.6472 40.035 19.9999ZM34.3157 15.9735C35.1515 16.2647 35.876 16.8088 36.3886 17.5303C36.9013 18.2517 37.1767 19.1149 37.1767 19.9999C37.1767 20.885 36.9013 21.7481 36.3886 22.4696C35.876 23.1911 35.1515 23.7351 34.3157 24.0263V15.9735ZM5.71928 21.4297H4.28946C3.91025 21.4297 3.54657 21.2791 3.27843 21.011C3.01028 20.7428 2.85964 20.3791 2.85964 19.9999C2.85964 19.6207 3.01028 19.257 3.27843 18.9889C3.54657 18.7207 3.91025 18.5701 4.28946 18.5701H5.71928V21.4297ZM14.2982 24.2894H8.57892V15.7105H13.7063L14.2982 16.3024V24.2894ZM17.1578 24.8356V19.162L28.5049 30.5091L17.1578 24.8356ZM31.4561 29.4167L17.1879 15.1485L31.4561 8.01516V29.4167Z" fill="#FF7500"/>
</svg>
