<svg width="64" height="40" viewBox="0 0 44 40" fill="none" xmlns="http://www.w3.org/2000/svg">
<g opacity="0.6">
<path d="M43.7582 5.09699C43.7582 2.27738 41.4808 0 38.6612 0H5.09699C2.27738 0 0 2.27738 0 5.09699V10.5193C0 11.8207 0.488009 13.0136 1.30136 13.8812C0.488009 14.803 0 15.9416 0 17.243V22.6653C0 23.9125 0.488009 25.1054 1.24714 25.973C0.488009 26.8405 0 28.0334 0 29.2806V34.7029C0 37.5225 2.27738 39.7999 5.09699 39.7999H38.7154C41.535 39.7999 43.8124 37.5225 43.8124 34.7029V29.2806C43.8124 28.0334 43.3244 26.8405 42.5653 25.973C43.3244 25.1054 43.8124 23.9125 43.8124 22.6653V17.243C43.8124 15.9416 43.3244 14.7487 42.5111 13.8812C43.3244 12.9594 43.8124 11.8207 43.8124 10.5193V5.09699H43.7582ZM3.52451 5.09699C3.52451 4.22942 4.22942 3.52451 5.09699 3.52451H38.7154C39.583 3.52451 40.2879 4.22942 40.2879 5.09699V10.5193C40.2879 11.3869 39.583 12.0918 38.7154 12.0918H5.09699C4.22942 12.0918 3.52451 11.3869 3.52451 10.5193V5.09699ZM40.2879 22.7196C40.2879 23.5329 39.6915 24.1836 38.9323 24.292C38.8781 24.292 38.7697 24.292 38.7154 24.292H5.09699C5.04277 24.292 4.93432 24.292 4.8801 24.292C4.12097 24.1836 3.52451 23.5329 3.52451 22.7196V17.2972C3.52451 16.4297 4.22942 15.7248 5.09699 15.7248H38.7154C39.583 15.7248 40.2879 16.4297 40.2879 17.2972V22.7196ZM40.2879 34.8114C40.2879 35.6789 39.583 36.3838 38.7154 36.3838H5.09699C4.22942 36.3838 3.52451 35.6789 3.52451 34.8114V29.389C3.52451 28.5757 4.12097 27.925 4.8801 27.8166C4.93432 27.8166 5.04277 27.8166 5.09699 27.8166H38.7154C38.7697 27.8166 38.8781 27.8166 38.9323 27.8166C39.6915 27.925 40.2879 28.5757 40.2879 29.389V34.8114Z" fill="#FF7500"/>
<path d="M8.73097 10.0313C9.95878 10.0313 10.9541 9.03593 10.9541 7.80812C10.9541 6.5803 9.95878 5.58496 8.73097 5.58496C7.50315 5.58496 6.50781 6.5803 6.50781 7.80812C6.50781 9.03593 7.50315 10.0313 8.73097 10.0313Z" fill="#FF7500"/>
<path d="M8.73097 22.2315C9.95878 22.2315 10.9541 21.2361 10.9541 20.0083C10.9541 18.7805 9.95878 17.7852 8.73097 17.7852C7.50315 17.7852 6.50781 18.7805 6.50781 20.0083C6.50781 21.2361 7.50315 22.2315 8.73097 22.2315Z" fill="#FF7500"/>
<path d="M8.73097 34.3235C9.95878 34.3235 10.9541 33.3282 10.9541 32.1004C10.9541 30.8725 9.95878 29.8772 8.73097 29.8772C7.50315 29.8772 6.50781 30.8725 6.50781 32.1004C6.50781 33.3282 7.50315 34.3235 8.73097 34.3235Z" fill="#FF7500"/>
</g>
</svg>
