<svg width="46" height="61" viewBox="0 0 46 61" fill="none" xmlns="http://www.w3.org/2000/svg">
<path d="M35.3569 35.2169L34.3738 37.3038C33.7548 38.486 32.8542 39.4976 31.7517 40.2493L27.1964 43.3427C25.8592 44.254 24.278 44.7404 22.6597 44.7381H13.9245L13.5802 45.1175L13.9344 45.5268C14.1235 45.745 14.2318 46.0215 14.2412 46.3101C14.2506 46.5986 14.1605 46.8816 13.9861 47.1116L11.8155 49.9774C11.7157 50.1095 11.5909 50.2207 11.4481 50.3045C11.3054 50.3883 11.1475 50.4432 10.9835 50.466C10.8195 50.4887 10.6527 50.4789 10.4925 50.4371C10.3323 50.3953 10.1819 50.3224 10.0499 50.2224C9.91798 50.1225 9.807 49.9975 9.72337 49.8546C9.63975 49.7118 9.5851 49.5538 9.56258 49.3898C9.54005 49.2258 9.55008 49.0589 9.59208 48.8988C9.63409 48.7387 9.70726 48.5884 9.80739 48.4565L11.3615 46.4041L7.68228 42.1541C7.57349 42.0291 7.49043 41.8839 7.43786 41.7267C7.38529 41.5696 7.36424 41.4036 7.37593 41.2383C7.38761 41.073 7.43178 40.9117 7.50593 40.7635C7.58008 40.6153 7.68273 40.4832 7.80802 40.3747C7.9333 40.2663 8.07875 40.1836 8.23604 40.1315C8.39333 40.0793 8.55935 40.0587 8.72462 40.0709C8.88988 40.083 9.05112 40.1276 9.19911 40.2021C9.3471 40.2767 9.47893 40.3797 9.58704 40.5053L11.9185 43.1983L12.4343 42.6303C12.5526 42.5005 12.6966 42.3967 12.8572 42.3258C13.0178 42.2548 13.1915 42.2181 13.367 42.2181H22.6595C23.7726 42.2196 24.8602 41.8851 25.78 41.2583L30.3364 38.1649C31.0842 37.6564 31.697 36.9735 32.1218 36.1753L33.0779 34.1438C33.1558 33.9777 33.1673 33.7882 33.1102 33.6139C33.053 33.4396 32.9314 33.2938 32.7703 33.2061C32.6238 33.1266 32.4629 33.0774 32.297 33.0615C32.1311 33.0456 31.9637 33.0634 31.8048 33.1137C31.6459 33.164 31.4988 33.2459 31.3723 33.3543C31.2458 33.4628 31.1425 33.5957 31.0686 33.7451L30.1556 35.5908C30.0715 35.7602 29.9505 35.9087 29.8014 36.0252C29.6523 36.1417 29.479 36.2232 29.2942 36.2638L27.5373 36.6462C27.5802 37.0829 27.531 37.5237 27.3928 37.9401C27.2547 38.3566 27.0307 38.7394 26.7353 39.0638C26.4398 39.3883 26.0796 39.6471 25.6779 39.8235C25.2762 39.9999 24.8419 40.0901 24.4031 40.0881H16.1677C15.8336 40.0881 15.5131 39.9554 15.2768 39.7191C15.0405 39.4828 14.9077 39.1623 14.9077 38.8281C14.9077 38.494 15.0405 38.1735 15.2768 37.9372C15.5131 37.7009 15.8336 37.5681 16.1677 37.5681H24.4033C24.4994 37.568 24.5942 37.5464 24.6809 37.505C24.7676 37.4637 24.844 37.4035 24.9046 37.3289C24.9651 37.2544 25.0083 37.1672 25.031 37.0739C25.0537 36.9805 25.0554 36.8833 25.0358 36.7892C25.0079 36.6627 24.9422 36.5476 24.8475 36.4591L24.8331 36.4436C24.7353 36.355 24.6129 36.2984 24.4821 36.2812L19.0975 35.618C18.8355 35.5858 18.5902 35.4721 18.3962 35.2931L17.8043 34.7456C17.1982 34.1831 16.4016 33.871 15.5747 33.8719H11.807C11.3047 33.8736 10.8093 33.9897 10.3586 34.2114C9.9079 34.4332 9.51363 34.7547 9.20577 35.1516L6.58363 38.5526C6.55088 38.5845 6.51633 38.6145 6.48013 38.6424C6.45504 38.6787 6.42798 38.7136 6.39907 38.747C6.36234 38.7705 6.32434 38.792 6.28524 38.8113C6.1422 38.9076 5.98194 38.9755 5.81322 39.0112C5.76612 39.0198 5.71856 39.0256 5.67078 39.0286C5.55239 39.0383 5.43321 39.0307 5.31703 39.0059C5.28288 38.9986 5.25088 38.9893 5.21736 38.979C5.08935 38.9403 4.96858 38.8807 4.8599 38.8028C4.84637 38.7931 4.82991 38.7917 4.81668 38.7814C4.8033 38.7711 4.79761 38.7552 4.78468 38.7445C4.72702 38.7074 4.67268 38.6654 4.62226 38.6189L3.81138 37.6826L2.24008 39.6218C2.13586 39.7504 2.00732 39.8572 1.86181 39.9362C1.7163 40.0151 1.55666 40.0646 1.39201 40.0819C1.22737 40.0992 1.06093 40.0838 0.902217 40.0367C0.7435 39.9897 0.595607 39.9118 0.466984 39.8076C0.207219 39.5971 0.0417089 39.292 0.00686476 38.9595C-0.0103883 38.7949 0.00495759 38.6284 0.0520256 38.4697C0.0990936 38.311 0.176961 38.1631 0.281185 38.0345L2.79995 34.9263C2.91595 34.7832 3.06191 34.6673 3.22756 34.5867C3.39321 34.5061 3.57451 34.4629 3.75869 34.4599C3.94287 34.457 4.12546 34.4945 4.29358 34.5698C4.46171 34.645 4.61129 34.7562 4.73178 34.8956L5.51959 35.8059L7.20995 33.6134C7.75398 32.9119 8.45074 32.3436 9.2473 31.9517C10.0439 31.5599 10.9193 31.3547 11.807 31.3518H15.5747C17.0358 31.3499 18.4434 31.9012 19.5146 32.8948L19.8087 33.1667L24.7896 33.7807C25.299 33.8541 25.7822 34.0524 26.1962 34.358L28.1661 33.9296L28.8096 32.6278C29.0339 32.1744 29.3473 31.771 29.7312 31.4416C30.115 31.1122 30.5614 30.8637 31.0436 30.7109C31.5258 30.5581 32.0338 30.5042 32.5373 30.5523C33.0408 30.6005 33.5294 30.7498 33.9739 30.9913C34.6998 31.3864 35.2472 32.044 35.5043 32.8295C35.7614 33.615 35.7087 34.469 35.3569 35.2169ZM16.4731 15.2581L17.5063 16.2409C18.2623 16.9465 19.3207 17.9293 19.3207 18.6348C19.322 18.8316 19.2833 19.0267 19.2069 19.2081C19.1305 19.3895 19.0181 19.5535 18.8764 19.6901C18.7346 19.8268 18.5666 19.9331 18.3825 20.0028C18.1984 20.0725 18.0021 20.104 17.8054 20.0955C17.6088 20.0869 17.4159 20.0385 17.2385 19.9531C17.0612 19.8677 16.903 19.7471 16.7737 19.5987C16.6444 19.4503 16.5466 19.2772 16.4862 19.0898C16.4259 18.9025 16.4043 18.7048 16.4227 18.5088C16.4439 18.1759 16.3348 17.8477 16.1185 17.5938C15.9022 17.3398 15.5955 17.1799 15.2635 17.148C15.0973 17.1312 14.9295 17.1481 14.7701 17.1978C14.6106 17.2476 14.4629 17.329 14.3358 17.4373C14.2087 17.5456 14.1048 17.6785 14.0303 17.828C13.9559 17.9775 13.9125 18.1405 13.9027 18.3072C13.9027 18.3323 13.8775 18.6096 13.8775 18.6347C13.8762 19.4678 14.1389 20.28 14.6279 20.9545C15.1168 21.6291 15.8069 22.1315 16.5991 22.3896V23.0196C16.5991 23.3538 16.7318 23.6742 16.9681 23.9105C17.2044 24.1468 17.5249 24.2796 17.8591 24.2796C18.1932 24.2796 18.5137 24.1468 18.75 23.9105C18.9863 23.6742 19.1191 23.3538 19.1191 23.0196V22.3896C19.9112 22.1315 20.6013 21.6291 21.0903 20.9545C21.5792 20.28 21.8419 19.4678 21.8407 18.6347C21.7586 17.886 21.524 17.1621 21.1512 16.5076C20.7785 15.8532 20.2755 15.2821 19.6735 14.8296C19.5223 14.6784 19.3711 14.5272 19.2199 14.4012L18.1867 13.4184C17.4307 12.7128 16.3723 11.73 16.3723 11.0244C16.3709 10.8275 16.4096 10.6325 16.486 10.4511C16.5624 10.2696 16.6749 10.1056 16.8166 9.96903C16.9583 9.83242 17.1263 9.72604 17.3104 9.65637C17.4945 9.58669 17.6909 9.55517 17.8875 9.56372C18.0842 9.57227 18.277 9.62071 18.4544 9.7061C18.6318 9.7915 18.7899 9.91205 18.9192 10.0605C19.0486 10.2089 19.1464 10.382 19.2067 10.5694C19.2671 10.7567 19.2887 10.9544 19.2703 11.1504C19.249 11.4833 19.3581 11.8115 19.5744 12.0655C19.7907 12.3194 20.0974 12.4793 20.4295 12.5112C20.5956 12.528 20.7635 12.5111 20.9229 12.4613C21.0823 12.4116 21.23 12.3302 21.3571 12.2219C21.4843 12.1136 21.5882 11.9807 21.6626 11.8312C21.737 11.6817 21.7805 11.5187 21.7903 11.352C21.7903 11.3268 21.8155 11.0496 21.8155 11.0244C21.8167 10.1912 21.554 9.37911 21.0651 8.70454C20.5761 8.02996 19.8861 7.52762 19.0939 7.26959V6.63959C19.0939 6.30542 18.9611 5.98493 18.7248 5.74864C18.4885 5.51234 18.168 5.37959 17.8339 5.37959C17.4997 5.37959 17.1792 5.51234 16.9429 5.74864C16.7066 5.98493 16.5739 6.30542 16.5739 6.63959V7.26959C15.7817 7.52762 15.0916 8.02996 14.6026 8.70454C14.1137 9.37911 13.851 10.1912 13.8523 11.0244C13.9343 11.7731 14.1689 12.497 14.5417 13.1515C14.9144 13.806 15.4174 14.3771 16.0195 14.8296C16.1707 14.981 16.3219 15.1321 16.4731 15.2581ZM3.521 14.8353C3.52099 12.0045 4.36042 9.23726 5.93313 6.88353C7.50584 4.52979 9.7412 2.69528 12.3565 1.61197C14.9718 0.528666 17.8497 0.245221 20.6261 0.797481C23.4025 1.34974 25.9528 2.7129 27.9545 4.71459C29.9562 6.71627 31.3194 9.26657 31.8716 12.043C32.4239 14.8194 32.1404 17.6972 31.0571 20.3126C29.9738 22.9279 28.1393 25.1632 25.7856 26.736C23.4319 28.3087 20.6646 29.1481 17.8338 29.1481C14.0391 29.1439 10.4011 27.6345 7.71783 24.9513C5.03457 22.268 3.52525 18.63 3.521 14.8353ZM6.041 14.8353C6.041 17.1677 6.73263 19.4477 8.02845 21.3871C9.32426 23.3264 11.166 24.8379 13.3209 25.7305C15.4758 26.623 17.8469 26.8566 20.1345 26.4015C22.4221 25.9465 24.5233 24.8233 26.1726 23.1741C27.8219 21.5248 28.945 19.4236 29.4 17.136C29.8551 14.8484 29.6215 12.4773 28.729 10.3224C27.8364 8.16754 26.3249 6.32575 24.3856 5.02994C22.4462 3.73413 20.1662 3.04249 17.8338 3.04249C14.7072 3.04587 11.7096 4.28941 9.49877 6.50026C7.28792 8.71111 6.04438 11.7087 6.041 14.8353Z" fill="#FF7500"/>
</svg>
