<svg width="47" height="48" viewBox="0 0 47 48" fill="none" xmlns="http://www.w3.org/2000/svg">
<g opacity="0.6">
<path d="M24.032 48C14.7888 48 6.5248 42.8752 2.4624 34.6272C0.8288 31.304 0 27.7296 0 24C0 20.2672 0.8288 16.6896 2.464 13.3696C6.5248 5.1232 14.7888 0 24.032 0C29.888 0 35.3648 2.0736 39.8688 5.9968C40.0368 6.1424 40.136 6.3504 40.1424 6.5728C40.1504 6.7952 40.0656 7.0096 39.9088 7.1664L33.152 13.9152C32.8608 14.2048 32.3968 14.2272 32.08 13.968C29.776 12.0848 26.992 11.0896 24.032 11.0896C18.4368 11.0896 13.504 14.648 11.76 19.9424C11.3248 21.2656 11.104 22.6304 11.104 24C11.104 25.3664 11.3232 26.728 11.7568 28.048C13.5024 33.3472 18.4352 36.9088 24.032 36.9088C26.8224 36.9088 29.3424 36.2496 31.3216 35.0032C32.688 34.1408 33.776 33.0224 34.5552 31.6736C34.776 31.2912 35.2624 31.16 35.6496 31.3808C36.032 31.6032 36.1632 32.0912 35.9424 32.4752C35.032 34.0496 33.7648 35.3552 32.176 36.3568C29.9408 37.7648 27.1264 38.5088 24.0336 38.5088C17.7456 38.5088 12.2016 34.5056 10.2384 28.5472C9.7504 27.0656 9.504 25.536 9.504 24C9.504 22.4592 9.752 20.9264 10.24 19.4416C12.2016 13.4896 17.7424 9.4896 24.032 9.4896C27.1248 9.4896 30.0432 10.4528 32.52 12.2832L38.1616 6.6496C34.0816 3.3424 29.2144 1.6 24.032 1.6C15.4032 1.6 7.6896 6.3808 3.8992 14.0752C2.3728 17.1744 1.6 20.5136 1.6 24C1.6 27.4816 2.3728 30.8208 3.8992 33.92C7.688 41.6176 15.4032 46.4 24.032 46.4C29.5744 46.4 34.7584 44.4224 38.6256 40.832C43.064 36.712 45.4096 30.8928 45.4096 24C45.4096 23.0384 45.296 21.9648 45.0704 20.8H25.104V27.9456H36.4928C36.9344 27.9456 37.2928 28.304 37.2928 28.7456C37.2928 29.1872 36.9344 29.5456 36.4928 29.5456H24.304C23.8624 29.5456 23.504 29.1872 23.504 28.7456V20C23.504 19.5584 23.8624 19.2 24.304 19.2H45.72C46.0944 19.2 46.4208 19.4608 46.5008 19.8272C46.8368 21.3472 47.008 22.752 47.008 24C47.008 31.3488 44.4848 37.5744 39.7136 42.0048C35.5488 45.8704 29.9808 48 24.032 48Z" fill="#FF7500"/>
</g>
</svg>
