<svg width="51" height="47" viewBox="0 0 51 47" fill="none" xmlns="http://www.w3.org/2000/svg">
<path d="M17.9057 5.59521C14.2016 5.59521 11.1914 8.60545 11.1914 12.3095C11.1914 16.0135 14.2016 19.0238 17.9057 19.0238C21.6097 19.0238 24.62 16.0135 24.62 12.3095C24.62 8.60545 21.6097 5.59521 17.9057 5.59521ZM22.2364 11.1905H19.0247V7.97879C20.5914 8.38724 21.828 9.62379 22.2364 11.1905ZM17.9057 16.7857C15.4382 16.7857 13.4295 14.777 13.4295 12.3095C13.4295 10.2281 14.8619 8.47676 16.7866 7.97879V12.3095C16.7866 12.925 17.2902 13.4285 17.9057 13.4285H22.2364C21.7384 15.3533 19.9871 16.7857 17.9057 16.7857ZM29.0962 7.83331H38.0485C38.664 7.83331 39.1676 7.32974 39.1676 6.71426C39.1676 6.09879 38.664 5.59521 38.0485 5.59521H29.0962C28.4807 5.59521 27.9771 6.09879 27.9771 6.71426C27.9771 7.32974 28.4807 7.83331 29.0962 7.83331ZM29.0962 13.4285H38.0485C38.664 13.4285 39.1676 12.925 39.1676 12.3095C39.1676 11.694 38.664 11.1905 38.0485 11.1905H29.0962C28.4807 11.1905 27.9771 11.694 27.9771 12.3095C27.9771 12.925 28.4807 13.4285 29.0962 13.4285ZM29.0962 19.0238H38.0485C38.664 19.0238 39.1676 18.5202 39.1676 17.9047C39.1676 17.2893 38.664 16.7857 38.0485 16.7857H29.0962C28.4807 16.7857 27.9771 17.2893 27.9771 17.9047C27.9771 18.5202 28.4807 19.0238 29.0962 19.0238Z" fill="#FF7500"/>
<path d="M47 27.9762H26.2976V24.619H41.4048C43.2568 24.619 44.7619 23.1139 44.7619 21.2619V3.35714C44.7619 1.50512 43.2568 0 41.4048 0H8.95238C7.10036 0 5.59524 1.50512 5.59524 3.35714V21.2619C5.59524 23.1139 7.10036 24.619 8.95238 24.619H24.0595V27.9762H3.35714C1.50512 27.9762 0 29.4813 0 31.3333V43.6429C0 45.4949 1.50512 47 3.35714 47H47C48.852 47 50.3571 45.4949 50.3571 43.6429V31.3333C50.3571 29.4813 48.852 27.9762 47 27.9762ZM7.83333 21.2619V3.35714C7.83333 2.74167 8.3369 2.2381 8.95238 2.2381H41.4048C42.0202 2.2381 42.5238 2.74167 42.5238 3.35714V21.2619C42.5238 21.8774 42.0202 22.381 41.4048 22.381H8.95238C8.3369 22.381 7.83333 21.8774 7.83333 21.2619ZM48.119 43.6429C48.119 44.2583 47.6155 44.7619 47 44.7619H3.35714C2.74167 44.7619 2.2381 44.2583 2.2381 43.6429V31.3333C2.2381 30.7179 2.74167 30.2143 3.35714 30.2143H47C47.6155 30.2143 48.119 30.7179 48.119 31.3333V43.6429Z" fill="#FF7500"/>
<path d="M22.3808 35.8094C22.9988 35.8094 23.4998 35.3084 23.4998 34.6903C23.4998 34.0723 22.9988 33.5713 22.3808 33.5713C21.7627 33.5713 21.2617 34.0723 21.2617 34.6903C21.2617 35.3084 21.7627 35.8094 22.3808 35.8094Z" fill="#FF7500"/>
<path d="M22.3808 41.4046C22.9988 41.4046 23.4998 40.9036 23.4998 40.2856C23.4998 39.6675 22.9988 39.1665 22.3808 39.1665C21.7627 39.1665 21.2617 39.6675 21.2617 40.2856C21.2617 40.9036 21.7627 41.4046 22.3808 41.4046Z" fill="#FF7500"/>
<path d="M27.9784 35.8094C28.5965 35.8094 29.0975 35.3084 29.0975 34.6903C29.0975 34.0723 28.5965 33.5713 27.9784 33.5713C27.3604 33.5713 26.8594 34.0723 26.8594 34.6903C26.8594 35.3084 27.3604 35.8094 27.9784 35.8094Z" fill="#FF7500"/>
<path d="M27.9784 41.4046C28.5965 41.4046 29.0975 40.9036 29.0975 40.2856C29.0975 39.6675 28.5965 39.1665 27.9784 39.1665C27.3604 39.1665 26.8594 39.6675 26.8594 40.2856C26.8594 40.9036 27.3604 41.4046 27.9784 41.4046Z" fill="#FF7500"/>
<path d="M33.5722 35.8094C34.1902 35.8094 34.6912 35.3084 34.6912 34.6903C34.6912 34.0723 34.1902 33.5713 33.5722 33.5713C32.9541 33.5713 32.4531 34.0723 32.4531 34.6903C32.4531 35.3084 32.9541 35.8094 33.5722 35.8094Z" fill="#FF7500"/>
<path d="M33.5722 41.4046C34.1902 41.4046 34.6912 40.9036 34.6912 40.2856C34.6912 39.6675 34.1902 39.1665 33.5722 39.1665C32.9541 39.1665 32.4531 39.6675 32.4531 40.2856C32.4531 40.9036 32.9541 41.4046 33.5722 41.4046Z" fill="#FF7500"/>
<path d="M16.7842 33.5713H6.7128C6.09732 33.5713 5.59375 34.0749 5.59375 34.6903V40.2856C5.59375 40.9011 6.09732 41.4046 6.7128 41.4046H16.7842C17.3997 41.4046 17.9033 40.9011 17.9033 40.2856V34.6903C17.9033 34.0749 17.3997 33.5713 16.7842 33.5713ZM15.6652 39.1665H7.83185V35.8094H15.6652V39.1665ZM43.6414 36.3689H40.2842V34.6903C40.2842 34.0749 39.7807 33.5713 39.1652 33.5713C38.5497 33.5713 38.0461 34.0749 38.0461 34.6903V40.2856C38.0461 40.9011 38.5497 41.4046 39.1652 41.4046C39.7807 41.4046 40.2842 40.9011 40.2842 40.2856V38.607H43.6414C44.2568 38.607 44.7604 38.1034 44.7604 37.488C44.7604 36.8725 44.2568 36.3689 43.6414 36.3689Z" fill="#FF7500"/>
</svg>
