<svg width="71" height="51" viewBox="0 0 51 51" fill="none" xmlns="http://www.w3.org/2000/svg">
<g opacity="0.6">
<path d="M40.2702 50.6655C38.8311 50.669 37.407 50.3736 36.0881 49.7979C34.7692 49.2222 33.5842 48.3788 32.6084 47.3211C31.6325 46.2635 30.887 45.0146 30.4191 43.6538C29.9512 42.2929 29.7711 40.8496 29.8902 39.4155L15.2102 24.7255C12.9638 25.222 10.624 25.0895 8.44806 24.3425C6.27211 23.5956 4.34428 22.263 2.87656 20.4914C1.40884 18.7198 0.458072 16.5778 0.1288 14.3008C-0.200473 12.0239 0.104504 9.7003 1.0102 7.58547C1.11033 7.36187 1.26236 7.16538 1.45368 7.01233C1.64499 6.85927 1.87006 6.75408 2.1102 6.70547C2.35006 6.66044 2.59726 6.67421 2.83064 6.74562C3.06401 6.81702 3.2766 6.94393 3.4502 7.11547L9.2502 12.9155L12.1002 12.0955L12.9202 9.24547L7.1302 3.44547C6.9547 3.27436 6.82446 3.06234 6.75115 2.82846C6.67784 2.59457 6.66377 2.34614 6.7102 2.10547C6.75903 1.86402 6.86545 1.63792 7.0204 1.44641C7.17535 1.2549 7.37425 1.10363 7.6002 1.00547C9.71458 0.102374 12.0369 -0.200568 14.3122 0.129918C16.5875 0.460405 18.7278 1.41154 20.4978 2.87885C22.2679 4.34617 23.5994 6.27291 24.346 8.44747C25.0927 10.622 25.2256 12.9603 24.7302 15.2055L39.4202 29.8855C40.8227 29.7624 42.2356 29.9252 43.5734 30.3638C44.9113 30.8025 46.1462 31.508 47.2036 32.4376C48.2609 33.3673 49.1187 34.5017 49.7251 35.7724C50.3314 37.043 50.6737 38.4234 50.7312 39.8302C50.7888 41.2369 50.5604 42.6407 50.0598 43.9566C49.5593 45.2726 48.797 46.4733 47.8191 47.4862C46.8412 48.499 45.668 49.303 44.3705 49.8495C43.073 50.396 41.6781 50.6736 40.2702 50.6655ZM15.6702 21.5655C15.8672 21.5651 16.0623 21.6038 16.2443 21.6793C16.4262 21.7548 16.5914 21.8657 16.7302 22.0055L32.5302 37.8055C32.6988 37.973 32.8249 38.1784 32.898 38.4045C32.971 38.6306 32.9889 38.871 32.9502 39.1055C32.7055 40.651 32.9563 42.2344 33.6668 43.6286C34.3772 45.0228 35.5108 46.1564 36.9051 46.8667C38.2994 47.5771 39.8827 47.8279 41.4283 47.5831C42.9738 47.3382 44.4022 46.6104 45.5087 45.504C46.6152 44.3975 47.343 42.9691 47.5878 41.4236C47.8326 39.878 47.5818 38.2947 46.8715 36.9004C46.1611 35.5061 45.0276 34.3725 43.6333 33.6621C42.2391 32.9516 40.6558 32.7008 39.1102 32.9455C38.8757 32.9842 38.6354 32.9663 38.4092 32.8932C38.1831 32.8202 37.9777 32.6941 37.8102 32.5255L22.0102 16.7255C21.8183 16.5345 21.6816 16.2952 21.6147 16.0329C21.5478 15.7705 21.5532 15.495 21.6302 15.2355C22.0879 13.6942 22.1483 12.0623 21.8057 10.4914C21.4631 8.92061 20.7286 7.46199 19.6707 6.25135C18.6127 5.04071 17.2657 4.1174 15.7549 3.56736C14.2442 3.01732 12.6189 2.85842 11.0302 3.10547L15.6702 7.74547C15.8586 7.93665 15.9929 8.1743 16.0597 8.43425C16.1264 8.69421 16.1232 8.9672 16.0502 9.22547L14.7602 13.7255C14.6841 13.9591 14.5538 14.1715 14.38 14.3453C14.2062 14.5191 13.9939 14.6493 13.7602 14.7255L9.2602 16.0155C9.00192 16.0884 8.72893 16.0917 8.46898 16.025C8.20902 15.9582 7.97138 15.8238 7.7802 15.6355L3.1202 11.0255C2.88107 12.5076 2.99854 14.0255 3.46285 15.4532C3.92717 16.8809 4.72498 18.1775 5.7902 19.2355C7.00557 20.4458 8.52446 21.3064 10.1873 21.7269C11.8502 22.1475 13.5956 22.1124 15.2402 21.6255C15.38 21.5853 15.5247 21.5651 15.6702 21.5655ZM40.2702 44.9955C39.6473 44.9989 39.0301 44.8777 38.4547 44.639C37.8794 44.4003 37.3577 44.0489 36.9202 43.6055C36.2588 42.9439 35.8084 42.1011 35.626 41.1836C35.4436 40.2661 35.5373 39.3151 35.8953 38.4509C36.2534 37.5867 36.8596 36.848 37.6375 36.3283C38.4153 35.8086 39.3297 35.5312 40.2652 35.5312C41.2007 35.5312 42.1151 35.8086 42.8929 36.3283C43.6707 36.848 44.277 37.5867 44.635 38.4509C44.9931 39.3151 45.0868 40.2661 44.9044 41.1836C44.722 42.1011 44.2716 42.9439 43.6102 43.6055C43.1739 44.0477 42.6538 44.3984 42.0803 44.637C41.5068 44.8757 40.8914 44.9976 40.2702 44.9955ZM40.2702 38.5455C39.9199 38.5394 39.5759 38.6392 39.2832 38.8318C38.9906 39.0245 38.7629 39.301 38.63 39.6251C38.4971 39.9493 38.4651 40.3061 38.5383 40.6487C38.6115 40.9913 38.7864 41.3039 39.0402 41.5455C39.3685 41.8638 39.8079 42.0418 40.2652 42.0418C40.7225 42.0418 41.1618 41.8638 41.4902 41.5455C41.6514 41.3848 41.7792 41.1938 41.8665 40.9836C41.9537 40.7734 41.9986 40.5481 41.9986 40.3205C41.9986 40.0929 41.9537 39.8675 41.8665 39.6573C41.7792 39.4471 41.6514 39.2562 41.4902 39.0955C41.3368 38.9219 41.1493 38.7818 40.9394 38.6837C40.7295 38.5857 40.5018 38.5318 40.2702 38.5255V38.5455Z" fill="#FF7500"/>
<path d="M40.2707 44.9956C39.6478 44.999 39.0306 44.8778 38.4552 44.6391C37.8799 44.4004 37.3582 44.049 36.9207 43.6056C36.4814 43.1663 36.133 42.6448 35.8952 42.0709C35.6575 41.4969 35.5352 40.8818 35.5352 40.2606C35.5352 39.6394 35.6575 39.0242 35.8952 38.4503C36.133 37.8763 36.4814 37.3548 36.9207 36.9156C37.36 36.4763 37.8815 36.1279 38.4554 35.8901C39.0293 35.6524 39.6445 35.53 40.2657 35.53C40.8869 35.53 41.5021 35.6524 42.076 35.8901C42.6499 36.1279 43.1714 36.4763 43.6107 36.9156C44.05 37.3548 44.3985 37.8763 44.6363 38.4502C44.8741 39.0242 44.9965 39.6393 44.9965 40.2606C44.9965 40.8818 44.8741 41.497 44.6363 42.0709C44.3985 42.6449 44.05 43.1663 43.6107 43.6056C43.1744 44.0478 42.6543 44.3985 42.0808 44.6371C41.5073 44.8758 40.8919 44.9977 40.2707 44.9956ZM40.2707 38.5256C39.9204 38.5195 39.5764 38.6193 39.2837 38.8119C38.9911 39.0046 38.7634 39.2811 38.6305 39.6052C38.4976 39.9294 38.4656 40.2862 38.5388 40.6288C38.612 40.9714 38.7869 41.284 39.0407 41.5256C39.3691 41.8439 39.8084 42.0219 40.2657 42.0219C40.723 42.0219 41.1624 41.8439 41.4907 41.5256C41.6519 41.3649 41.7797 41.1739 41.867 40.9637C41.9542 40.7535 41.9991 40.5282 41.9991 40.3006C41.9991 40.073 41.9542 39.8476 41.867 39.6374C41.7797 39.4272 41.6519 39.2363 41.4907 39.0756C41.3355 38.9057 41.1472 38.7692 40.9375 38.6747C40.7277 38.5801 40.5008 38.5294 40.2707 38.5256Z" fill="#FF7500"/>
<path d="M40.2707 44.9956C39.6478 44.999 39.0306 44.8778 38.4552 44.6391C37.8799 44.4004 37.3582 44.049 36.9207 43.6056C36.4814 43.1663 36.133 42.6448 35.8952 42.0709C35.6575 41.4969 35.5352 40.8818 35.5352 40.2606C35.5352 39.6394 35.6575 39.0242 35.8952 38.4503C36.133 37.8763 36.4814 37.3548 36.9207 36.9156C37.36 36.4763 37.8815 36.1279 38.4554 35.8901C39.0293 35.6524 39.6445 35.53 40.2657 35.53C40.8869 35.53 41.5021 35.6524 42.076 35.8901C42.6499 36.1279 43.1714 36.4763 43.6107 36.9156C44.05 37.3548 44.3985 37.8763 44.6363 38.4502C44.8741 39.0242 44.9965 39.6393 44.9965 40.2606C44.9965 40.8818 44.8741 41.497 44.6363 42.0709C44.3985 42.6449 44.05 43.1663 43.6107 43.6056C43.1744 44.0478 42.6543 44.3985 42.0808 44.6371C41.5073 44.8758 40.8919 44.9977 40.2707 44.9956ZM40.2707 38.5256C39.9204 38.5195 39.5764 38.6193 39.2837 38.8119C38.9911 39.0046 38.7634 39.2811 38.6305 39.6052C38.4976 39.9294 38.4656 40.2862 38.5388 40.6288C38.612 40.9714 38.7869 41.284 39.0407 41.5256C39.3691 41.8439 39.8084 42.0219 40.2657 42.0219C40.723 42.0219 41.1624 41.8439 41.4907 41.5256C41.6519 41.3649 41.7797 41.1739 41.867 40.9637C41.9542 40.7535 41.9991 40.5282 41.9991 40.3006C41.9991 40.073 41.9542 39.8476 41.867 39.6374C41.7797 39.4272 41.6519 39.2363 41.4907 39.0756C41.3355 38.9057 41.1472 38.7692 40.9375 38.6747C40.7277 38.5801 40.5008 38.5294 40.2707 38.5256Z" fill="#FF7500"/>
</g>
</svg>
