<svg width="61" height="28" viewBox="0 0 61 28" fill="none" xmlns="http://www.w3.org/2000/svg">
<g clip-path="url(#clip0_1880_39265)">
<path d="M57.6923 0.640625H3.83636C2.01531 0.640625 0.539062 2.11688 0.539062 3.93793V23.7217C0.539062 25.5428 2.01531 27.019 3.83636 27.019H57.6923C59.5133 27.019 60.9896 25.5428 60.9896 23.7217V3.93793C60.9896 2.11688 59.5133 0.640625 57.6923 0.640625Z" fill="white"/>
<path d="M29.8271 15.092V21.8679H27.6797V5.1416H33.3751C34.749 5.11493 36.0695 5.63512 37.0699 6.59548C38.0703 7.48915 38.6305 8.78297 38.6038 10.1168C38.6305 11.464 38.0703 12.7578 37.0699 13.6648C36.0695 14.6118 34.8423 15.092 33.3884 15.092H29.8271ZM29.8271 7.19571V13.0379H33.4284C34.2288 13.0645 35.0024 12.7445 35.5492 12.1709C36.6831 11.0772 36.6964 9.27648 35.6027 8.14273L35.5492 8.08938C35.0024 7.50249 34.2288 7.18237 33.4284 7.20904L29.8271 7.19571ZM43.5522 10.0501C45.1396 10.0501 46.3933 10.4769 47.3137 11.3173C48.2341 12.1709 48.6876 13.3314 48.6876 14.8119V21.8546H46.6335V20.2673H46.54C45.6464 21.5744 44.4726 22.2281 42.992 22.2281C41.7383 22.2281 40.6712 21.8546 39.8309 21.1076C39.0039 20.414 38.537 19.387 38.5638 18.3066C38.5638 17.1194 39.0172 16.1858 39.9109 15.4788C40.8046 14.7719 42.005 14.4251 43.4989 14.4251C44.7794 14.4251 45.8198 14.6652 46.6468 15.1186V14.6251C46.6468 13.8916 46.3267 13.198 45.7665 12.7311C45.1929 12.2243 44.4593 11.9441 43.699 11.9441C42.4985 11.9441 41.5515 12.451 40.8446 13.4647L38.9505 12.2776C39.9776 10.7971 41.5115 10.0501 43.5522 10.0501ZM40.7779 18.3599C40.7779 18.9201 41.0446 19.4403 41.4848 19.7605C41.965 20.1339 42.552 20.334 43.1522 20.3207C44.0591 20.3207 44.9261 19.9605 45.5663 19.3203C46.2733 18.6534 46.6335 17.8664 46.6335 16.9594C45.9665 16.4258 45.0328 16.1591 43.8324 16.1591C42.9654 16.1591 42.2318 16.3725 41.6449 16.786C41.0714 17.2128 40.7779 17.733 40.7779 18.3599ZM60.4786 10.4236L53.3026 26.9098H51.0884L53.7561 21.1476L49.0343 10.4369H51.3685L54.7698 18.6534H54.8232L58.1445 10.4369L60.4786 10.4236Z" fill="#5F6368"/>
<path d="M21.1465 13.6232C21.1465 12.9696 21.0931 12.316 20.9865 11.6758H11.9297V15.3705H17.1183C16.9049 16.5577 16.2113 17.6247 15.1976 18.2916V20.6925H18.2922C20.1061 19.0252 21.1465 16.5577 21.1465 13.6232Z" fill="#4285F4"/>
<path d="M11.9281 23.0128C14.5158 23.0128 16.7032 22.1593 18.2906 20.692L15.196 18.2911C14.3291 18.878 13.2219 19.2115 11.9281 19.2115C9.42051 19.2115 7.29972 17.5174 6.53943 15.25H3.35156V17.7309C4.97885 20.9587 8.3001 23.0128 11.9281 23.0128Z" fill="#34A853"/>
<path d="M6.53856 15.2525C6.13841 14.0654 6.13841 12.7715 6.53856 11.5711V9.10352H3.3507C2.67332 10.4386 2.32031 11.9147 2.32031 13.4117C2.32031 14.9089 2.67332 16.3849 3.3507 17.7201L6.53856 15.2525Z" fill="#FBBC04"/>
<path d="M11.9281 7.60865C13.302 7.58197 14.6225 8.10217 15.6095 9.04918L18.3439 6.31483C16.6099 4.67421 14.3157 3.78055 11.9281 3.80722C8.3001 3.80722 4.97885 5.86132 3.35156 9.10255L6.53943 11.5835C7.29972 9.30261 9.42051 7.60865 11.9281 7.60865Z" fill="#EA4335"/>
</g>
<defs>
<clipPath id="clip0_1880_39265">
<rect width="60.4505" height="26.3784" fill="white" transform="translate(0.539062 0.640625)"/>
</clipPath>
</defs>
</svg>
