<svg width="88" height="112" viewBox="0 0 88 112" fill="none" xmlns="http://www.w3.org/2000/svg">
<g opacity="0.3">
<path fill-rule="evenodd" clip-rule="evenodd" d="M0.992519 19.5586H1.00748C2.66085 19.5586 4 18.2146 4 16.5586C4 14.9026 2.66085 13.5586 1.00748 13.5586H0.992519C-0.659352 13.5586 -2 14.9026 -2 16.5586C-2 18.2146 -0.659352 19.5586 0.992519 19.5586Z" fill="white"/>
<path fill-rule="evenodd" clip-rule="evenodd" d="M18 19.5586C18.789 19.5586 19.563 19.2391 20.121 18.6796C20.6805 18.1216 21 17.3491 21 16.5586C21 15.7681 20.6805 14.9956 20.121 14.4376C19.563 13.8781 18.789 13.5586 18 13.5586C17.2095 13.5586 16.437 13.8781 15.8775 14.4376C15.3195 14.9956 15 15.7681 15 16.5586C15 17.3491 15.3195 18.1216 15.8775 18.6796C16.437 19.2391 17.2095 19.5586 18 19.5586Z" fill="white"/>
<path fill-rule="evenodd" clip-rule="evenodd" d="M35 19.5586C35.7905 19.5586 36.563 19.2391 37.1225 18.6796C37.6805 18.1216 38 17.3491 38 16.5586C38 15.7681 37.6805 14.9956 37.1225 14.4376C36.563 13.8781 35.7905 13.5586 35 13.5586C34.211 13.5586 33.437 13.8781 32.879 14.4376C32.3195 14.9956 32 15.7681 32 16.5586C32 17.3491 32.3195 18.1216 32.879 18.6796C33.437 19.2391 34.211 19.5586 35 19.5586Z" fill="white"/>
<path fill-rule="evenodd" clip-rule="evenodd" d="M67.9925 19.5586H68.0075C69.6608 19.5586 71 18.2146 71 16.5586C71 14.9026 69.6608 13.5586 68.0075 13.5586H67.9925C66.3406 13.5586 65 14.9026 65 16.5586C65 18.2146 66.3406 19.5586 67.9925 19.5586Z" fill="white"/>
<path fill-rule="evenodd" clip-rule="evenodd" d="M50.9925 19.5586H51.0075C52.6594 19.5586 54 18.2146 54 16.5586C54 14.9026 52.6594 13.5586 51.0075 13.5586H50.9925C49.3406 13.5586 48 14.9026 48 16.5586C48 18.2146 49.3406 19.5586 50.9925 19.5586Z" fill="white"/>
<mask id="mask0_930_2040" style="mask-type:luminance" maskUnits="userSpaceOnUse" x="81" y="13" width="7" height="7">
<path fill-rule="evenodd" clip-rule="evenodd" d="M81.3008 13.3438H87.7005V19.7438H81.3008V13.3438Z" fill="white"/>
</mask>
<g mask="url(#mask0_930_2040)">
<path fill-rule="evenodd" clip-rule="evenodd" d="M84.5008 19.7438C85.3424 19.7438 86.168 19.4029 86.7632 18.8061C87.36 18.2109 87.7008 17.387 87.7008 16.5438C87.7008 15.7006 87.36 14.8765 86.7632 14.2814C86.168 13.6845 85.3424 13.3438 84.5008 13.3438C83.6576 13.3438 82.8336 13.6845 82.2368 14.2814C81.6416 14.8765 81.3008 15.7006 81.3008 16.5438C81.3008 17.387 81.6416 18.2109 82.2368 18.8061C82.8336 19.4029 83.6576 19.7438 84.5008 19.7438Z" fill="white"/>
</g>
<path fill-rule="evenodd" clip-rule="evenodd" d="M0.992519 6.55859H1.00748C2.66085 6.55859 4 5.21459 4 3.55859C4 1.90259 2.66085 0.558594 1.00748 0.558594H0.992519C-0.659352 0.558594 -2 1.90259 -2 3.55859C-2 5.21459 -0.659352 6.55859 0.992519 6.55859Z" fill="white"/>
<path fill-rule="evenodd" clip-rule="evenodd" d="M18 6.55859C18.789 6.55859 19.563 6.23909 20.121 5.67959C20.6805 5.12159 21 4.34759 21 3.55859C21 2.76809 20.6805 1.99559 20.121 1.43609C19.563 0.878094 18.789 0.558594 18 0.558594C17.2095 0.558594 16.437 0.878094 15.8775 1.43609C15.3195 1.99559 15 2.76809 15 3.55859C15 4.34759 15.3195 5.12159 15.8775 5.67959C16.437 6.23909 17.2095 6.55859 18 6.55859Z" fill="white"/>
<path fill-rule="evenodd" clip-rule="evenodd" d="M35 6.55859C35.7905 6.55859 36.563 6.23909 37.1225 5.67959C37.6805 5.12159 38 4.34759 38 3.55859C38 2.76809 37.6805 1.99559 37.1225 1.43609C36.563 0.878094 35.7905 0.558594 35 0.558594C34.211 0.558594 33.437 0.878094 32.879 1.43609C32.3195 1.99559 32 2.76809 32 3.55859C32 4.34759 32.3195 5.12159 32.879 5.67959C33.437 6.23909 34.211 6.55859 35 6.55859Z" fill="white"/>
<path fill-rule="evenodd" clip-rule="evenodd" d="M67.9925 6.55859H68.0075C69.6608 6.55859 71 5.21459 71 3.55859C71 1.90259 69.6608 0.558594 68.0075 0.558594H67.9925C66.3406 0.558594 65 1.90259 65 3.55859C65 5.21459 66.3406 6.55859 67.9925 6.55859Z" fill="white"/>
<path fill-rule="evenodd" clip-rule="evenodd" d="M50.9925 6.55859H51.0075C52.6594 6.55859 54 5.21459 54 3.55859C54 1.90259 52.6594 0.558594 51.0075 0.558594H50.9925C49.3406 0.558594 48 1.90259 48 3.55859C48 5.21459 49.3406 6.55859 50.9925 6.55859Z" fill="white"/>
<mask id="mask1_930_2040" style="mask-type:luminance" maskUnits="userSpaceOnUse" x="81" y="0" width="7" height="7">
<path fill-rule="evenodd" clip-rule="evenodd" d="M81.3008 0H87.7005V6.4H81.3008V0Z" fill="white"/>
</mask>
<g mask="url(#mask1_930_2040)">
<path fill-rule="evenodd" clip-rule="evenodd" d="M84.5008 6.4C85.3424 6.4 86.168 6.0592 86.7632 5.4624C87.36 4.8672 87.7008 4.0416 87.7008 3.2C87.7008 2.3568 87.36 1.5328 86.7632 0.936C86.168 0.3408 85.3424 0 84.5008 0C83.6576 0 82.8336 0.3408 82.2368 0.936C81.6416 1.5328 81.3008 2.3568 81.3008 3.2C81.3008 4.0416 81.6416 4.8672 82.2368 5.4624C82.8336 6.0592 83.6576 6.4 84.5008 6.4Z" fill="white"/>
</g>
<path fill-rule="evenodd" clip-rule="evenodd" d="M0.992519 32.5586H1.00748C2.66085 32.5586 4 31.2146 4 29.5586C4 27.9026 2.66085 26.5586 1.00748 26.5586H0.992519C-0.659352 26.5586 -2 27.9026 -2 29.5586C-2 31.2146 -0.659352 32.5586 0.992519 32.5586Z" fill="white"/>
<path fill-rule="evenodd" clip-rule="evenodd" d="M18 32.5586C18.789 32.5586 19.563 32.2391 20.121 31.6796C20.6805 31.1216 21 30.3491 21 29.5586C21 28.7696 20.6805 27.9956 20.121 27.4376C19.563 26.8781 18.789 26.5586 18 26.5586C17.2095 26.5586 16.437 26.8781 15.8775 27.4376C15.3195 27.9956 15 28.7696 15 29.5586C15 30.3491 15.3195 31.1216 15.8775 31.6796C16.437 32.2391 17.2095 32.5586 18 32.5586Z" fill="white"/>
<path fill-rule="evenodd" clip-rule="evenodd" d="M35 32.5586C35.7905 32.5586 36.563 32.2391 37.1225 31.6796C37.6805 31.1216 38 30.3491 38 29.5586C38 28.7696 37.6805 27.9956 37.1225 27.4376C36.563 26.8781 35.7905 26.5586 35 26.5586C34.211 26.5586 33.437 26.8781 32.879 27.4376C32.3195 27.9956 32 28.7696 32 29.5586C32 30.3491 32.3195 31.1216 32.879 31.6796C33.437 32.2391 34.211 32.5586 35 32.5586Z" fill="white"/>
<path fill-rule="evenodd" clip-rule="evenodd" d="M67.9925 32.5586H68.0075C69.6608 32.5586 71 31.2146 71 29.5586C71 27.9026 69.6608 26.5586 68.0075 26.5586H67.9925C66.3406 26.5586 65 27.9026 65 29.5586C65 31.2146 66.3406 32.5586 67.9925 32.5586Z" fill="white"/>
<path fill-rule="evenodd" clip-rule="evenodd" d="M50.9925 32.5586H51.0075C52.6594 32.5586 54 31.2146 54 29.5586C54 27.9026 52.6594 26.5586 51.0075 26.5586H50.9925C49.3406 26.5586 48 27.9026 48 29.5586C48 31.2146 49.3406 32.5586 50.9925 32.5586Z" fill="white"/>
<mask id="mask2_930_2040" style="mask-type:luminance" maskUnits="userSpaceOnUse" x="81" y="26" width="7" height="8">
<path fill-rule="evenodd" clip-rule="evenodd" d="M81.3008 26.6875H87.7005V33.0875H81.3008V26.6875Z" fill="white"/>
</mask>
<g mask="url(#mask2_930_2040)">
<path fill-rule="evenodd" clip-rule="evenodd" d="M84.5008 33.0875C85.3424 33.0875 86.168 32.7467 86.7632 32.1499C87.36 31.5547 87.7008 30.7307 87.7008 29.8875C87.7008 29.0459 87.36 28.2203 86.7632 27.6251C86.168 27.0283 85.3424 26.6875 84.5008 26.6875C83.6576 26.6875 82.8336 27.0283 82.2368 27.6251C81.6416 28.2203 81.3008 29.0459 81.3008 29.8875C81.3008 30.7307 81.6416 31.5547 82.2368 32.1499C82.8336 32.7467 83.6576 33.0875 84.5008 33.0875Z" fill="white"/>
</g>
<path fill-rule="evenodd" clip-rule="evenodd" d="M0.992519 45.5586H1.00748C2.66085 45.5586 4 44.2146 4 42.5586C4 40.9026 2.66085 39.5586 1.00748 39.5586H0.992519C-0.659352 39.5586 -2 40.9026 -2 42.5586C-2 44.2146 -0.659352 45.5586 0.992519 45.5586Z" fill="white"/>
<path fill-rule="evenodd" clip-rule="evenodd" d="M18 45.5586C18.789 45.5586 19.563 45.2391 20.121 44.6796C20.6805 44.1216 21 43.3491 21 42.5586C21 41.7681 20.6805 40.9956 20.121 40.4376C19.563 39.8781 18.789 39.5586 18 39.5586C17.2095 39.5586 16.437 39.8781 15.8775 40.4376C15.3195 40.9956 15 41.7681 15 42.5586C15 43.3491 15.3195 44.1216 15.8775 44.6796C16.437 45.2391 17.2095 45.5586 18 45.5586Z" fill="white"/>
<path fill-rule="evenodd" clip-rule="evenodd" d="M35 45.5586C35.7905 45.5586 36.563 45.2391 37.1225 44.6796C37.6805 44.1216 38 43.3491 38 42.5586C38 41.7681 37.6805 40.9956 37.1225 40.4376C36.563 39.8781 35.7905 39.5586 35 39.5586C34.211 39.5586 33.437 39.8781 32.879 40.4376C32.3195 40.9956 32 41.7681 32 42.5586C32 43.3491 32.3195 44.1216 32.879 44.6796C33.437 45.2391 34.211 45.5586 35 45.5586Z" fill="white"/>
<path fill-rule="evenodd" clip-rule="evenodd" d="M67.9925 45.5586H68.0075C69.6608 45.5586 71 44.2146 71 42.5586C71 40.9026 69.6608 39.5586 68.0075 39.5586H67.9925C66.3406 39.5586 65 40.9026 65 42.5586C65 44.2146 66.3406 45.5586 67.9925 45.5586Z" fill="white"/>
<path fill-rule="evenodd" clip-rule="evenodd" d="M50.9925 45.5586H51.0075C52.6594 45.5586 54 44.2146 54 42.5586C54 40.9026 52.6594 39.5586 51.0075 39.5586H50.9925C49.3406 39.5586 48 40.9026 48 42.5586C48 44.2146 49.3406 45.5586 50.9925 45.5586Z" fill="white"/>
<mask id="mask3_930_2040" style="mask-type:luminance" maskUnits="userSpaceOnUse" x="81" y="40" width="7" height="7">
<path fill-rule="evenodd" clip-rule="evenodd" d="M81.3008 40.0312H87.7005V46.4313H81.3008V40.0312Z" fill="white"/>
</mask>
<g mask="url(#mask3_930_2040)">
<path fill-rule="evenodd" clip-rule="evenodd" d="M84.5008 46.4313C85.3424 46.4313 86.168 46.0904 86.7632 45.4936C87.36 44.8984 87.7008 44.0745 87.7008 43.2313C87.7008 42.3881 87.36 41.564 86.7632 40.9689C86.168 40.372 85.3424 40.0312 84.5008 40.0312C83.6576 40.0312 82.8336 40.372 82.2368 40.9689C81.6416 41.564 81.3008 42.3881 81.3008 43.2313C81.3008 44.0745 81.6416 44.8984 82.2368 45.4936C82.8336 46.0904 83.6576 46.4313 84.5008 46.4313Z" fill="white"/>
</g>
<path fill-rule="evenodd" clip-rule="evenodd" d="M0.992519 59.5586H1.00748C2.66085 59.5586 4 58.2146 4 56.5586C4 54.9026 2.66085 53.5586 1.00748 53.5586H0.992519C-0.659352 53.5586 -2 54.9026 -2 56.5586C-2 58.2146 -0.659352 59.5586 0.992519 59.5586Z" fill="white"/>
<path fill-rule="evenodd" clip-rule="evenodd" d="M18 59.5586C18.789 59.5586 19.563 59.2391 20.121 58.6796C20.6805 58.1216 21 57.3491 21 56.5586C21 55.7696 20.6805 54.9956 20.121 54.4376C19.563 53.8781 18.789 53.5586 18 53.5586C17.2095 53.5586 16.437 53.8781 15.8775 54.4376C15.3195 54.9956 15 55.7696 15 56.5586C15 57.3491 15.3195 58.1216 15.8775 58.6796C16.437 59.2391 17.2095 59.5586 18 59.5586Z" fill="white"/>
<path fill-rule="evenodd" clip-rule="evenodd" d="M35 59.5586C35.7905 59.5586 36.563 59.2391 37.1225 58.6796C37.6805 58.1216 38 57.3491 38 56.5586C38 55.7696 37.6805 54.9956 37.1225 54.4376C36.563 53.8781 35.7905 53.5586 35 53.5586C34.211 53.5586 33.437 53.8781 32.879 54.4376C32.3195 54.9956 32 55.7696 32 56.5586C32 57.3491 32.3195 58.1216 32.879 58.6796C33.437 59.2391 34.211 59.5586 35 59.5586Z" fill="white"/>
<path fill-rule="evenodd" clip-rule="evenodd" d="M67.9925 59.5586H68.0075C69.6608 59.5586 71 58.2146 71 56.5586C71 54.9026 69.6608 53.5586 68.0075 53.5586H67.9925C66.3406 53.5586 65 54.9026 65 56.5586C65 58.2146 66.3406 59.5586 67.9925 59.5586Z" fill="white"/>
<path fill-rule="evenodd" clip-rule="evenodd" d="M50.9925 59.5586H51.0075C52.6594 59.5586 54 58.2146 54 56.5586C54 54.9026 52.6594 53.5586 51.0075 53.5586H50.9925C49.3406 53.5586 48 54.9026 48 56.5586C48 58.2146 49.3406 59.5586 50.9925 59.5586Z" fill="white"/>
<mask id="mask4_930_2040" style="mask-type:luminance" maskUnits="userSpaceOnUse" x="81" y="52" width="7" height="8">
<path fill-rule="evenodd" clip-rule="evenodd" d="M81.3008 52.7773H87.7005V59.1773H81.3008V52.7773Z" fill="white"/>
</mask>
<g mask="url(#mask4_930_2040)">
<path fill-rule="evenodd" clip-rule="evenodd" d="M84.5008 59.1773C85.3424 59.1773 86.168 58.8365 86.7632 58.2397C87.36 57.6445 87.7008 56.8205 87.7008 55.9773C87.7008 55.1357 87.36 54.3101 86.7632 53.7149C86.168 53.1181 85.3424 52.7773 84.5008 52.7773C83.6576 52.7773 82.8336 53.1181 82.2368 53.7149C81.6416 54.3101 81.3008 55.1357 81.3008 55.9773C81.3008 56.8205 81.6416 57.6445 82.2368 58.2397C82.8336 58.8365 83.6576 59.1773 84.5008 59.1773Z" fill="white"/>
</g>
<path fill-rule="evenodd" clip-rule="evenodd" d="M0.992519 72.5586H1.00748C2.66085 72.5586 4 71.2146 4 69.5586C4 67.9026 2.66085 66.5586 1.00748 66.5586H0.992519C-0.659352 66.5586 -2 67.9026 -2 69.5586C-2 71.2146 -0.659352 72.5586 0.992519 72.5586Z" fill="white"/>
<path fill-rule="evenodd" clip-rule="evenodd" d="M18 72.5586C18.789 72.5586 19.563 72.2391 20.121 71.6811C20.6805 71.1216 21 70.3491 21 69.5586C21 68.7696 20.6805 67.9956 20.121 67.4376C19.563 66.8781 18.789 66.5586 18 66.5586C17.2095 66.5586 16.437 66.8781 15.8775 67.4376C15.3195 67.9956 15 68.7696 15 69.5586C15 70.3491 15.3195 71.1216 15.8775 71.6811C16.437 72.2391 17.2095 72.5586 18 72.5586Z" fill="white"/>
<path fill-rule="evenodd" clip-rule="evenodd" d="M35 72.5586C35.7905 72.5586 36.563 72.2391 37.1225 71.6811C37.6805 71.1216 38 70.3491 38 69.5586C38 68.7696 37.6805 67.9956 37.1225 67.4376C36.563 66.8781 35.7905 66.5586 35 66.5586C34.211 66.5586 33.437 66.8781 32.879 67.4376C32.3195 67.9956 32 68.7696 32 69.5586C32 70.3491 32.3195 71.1216 32.879 71.6811C33.437 72.2391 34.211 72.5586 35 72.5586Z" fill="white"/>
<path fill-rule="evenodd" clip-rule="evenodd" d="M67.9925 72.5586H68.0075C69.6608 72.5586 71 71.2146 71 69.5586C71 67.9026 69.6608 66.5586 68.0075 66.5586H67.9925C66.3406 66.5586 65 67.9026 65 69.5586C65 71.2146 66.3406 72.5586 67.9925 72.5586Z" fill="white"/>
<path fill-rule="evenodd" clip-rule="evenodd" d="M50.9925 72.5586H51.0075C52.6594 72.5586 54 71.2146 54 69.5586C54 67.9026 52.6594 66.5586 51.0075 66.5586H50.9925C49.3406 66.5586 48 67.9026 48 69.5586C48 71.2146 49.3406 72.5586 50.9925 72.5586Z" fill="white"/>
<mask id="mask5_930_2040" style="mask-type:luminance" maskUnits="userSpaceOnUse" x="81" y="66" width="7" height="7">
<path fill-rule="evenodd" clip-rule="evenodd" d="M81.3008 66.125H87.7005V72.525H81.3008V66.125Z" fill="white"/>
</mask>
<g mask="url(#mask5_930_2040)">
<path fill-rule="evenodd" clip-rule="evenodd" d="M84.5008 72.525C85.3424 72.525 86.168 72.1842 86.7632 71.589C87.36 70.9922 87.7008 70.1682 87.7008 69.325C87.7008 68.4834 87.36 67.6578 86.7632 67.0626C86.168 66.4658 85.3424 66.125 84.5008 66.125C83.6576 66.125 82.8336 66.4658 82.2368 67.0626C81.6416 67.6578 81.3008 68.4834 81.3008 69.325C81.3008 70.1682 81.6416 70.9922 82.2368 71.589C82.8336 72.1842 83.6576 72.525 84.5008 72.525Z" fill="white"/>
</g>
<path fill-rule="evenodd" clip-rule="evenodd" d="M0.992519 85.5586H1.00748C2.66085 85.5586 4 84.2146 4 82.5586C4 80.9026 2.66085 79.5586 1.00748 79.5586H0.992519C-0.659352 79.5586 -2 80.9026 -2 82.5586C-2 84.2146 -0.659352 85.5586 0.992519 85.5586Z" fill="white"/>
<path fill-rule="evenodd" clip-rule="evenodd" d="M18 85.5586C18.789 85.5586 19.563 85.2391 20.121 84.6796C20.6805 84.1216 21 83.3491 21 82.5586C21 81.7696 20.6805 80.9956 20.121 80.4376C19.563 79.8781 18.789 79.5586 18 79.5586C17.2095 79.5586 16.437 79.8781 15.8775 80.4376C15.3195 80.9956 15 81.7696 15 82.5586C15 83.3491 15.3195 84.1216 15.8775 84.6796C16.437 85.2391 17.2095 85.5586 18 85.5586Z" fill="white"/>
<path fill-rule="evenodd" clip-rule="evenodd" d="M35 85.5586C35.7905 85.5586 36.563 85.2391 37.1225 84.6796C37.6805 84.1216 38 83.3491 38 82.5586C38 81.7696 37.6805 80.9956 37.1225 80.4376C36.563 79.8781 35.7905 79.5586 35 79.5586C34.211 79.5586 33.437 79.8781 32.879 80.4376C32.3195 80.9956 32 81.7696 32 82.5586C32 83.3491 32.3195 84.1216 32.879 84.6796C33.437 85.2391 34.211 85.5586 35 85.5586Z" fill="white"/>
<path fill-rule="evenodd" clip-rule="evenodd" d="M67.9925 85.5586H68.0075C69.6608 85.5586 71 84.2146 71 82.5586C71 80.9026 69.6608 79.5586 68.0075 79.5586H67.9925C66.3406 79.5586 65 80.9026 65 82.5586C65 84.2146 66.3406 85.5586 67.9925 85.5586Z" fill="white"/>
<path fill-rule="evenodd" clip-rule="evenodd" d="M50.9925 85.5586H51.0075C52.6594 85.5586 54 84.2146 54 82.5586C54 80.9026 52.6594 79.5586 51.0075 79.5586H50.9925C49.3406 79.5586 48 80.9026 48 82.5586C48 84.2146 49.3406 85.5586 50.9925 85.5586Z" fill="white"/>
<mask id="mask6_930_2040" style="mask-type:luminance" maskUnits="userSpaceOnUse" x="81" y="79" width="7" height="7">
<path fill-rule="evenodd" clip-rule="evenodd" d="M81.3008 79.4688H87.7005V85.8688H81.3008V79.4688Z" fill="white"/>
</mask>
<g mask="url(#mask6_930_2040)">
<path fill-rule="evenodd" clip-rule="evenodd" d="M84.5008 85.8688C85.3424 85.8688 86.168 85.5279 86.7632 84.9311C87.36 84.3359 87.7008 83.512 87.7008 82.6688C87.7008 81.8272 87.36 81.0015 86.7632 80.4064C86.168 79.8095 85.3424 79.4688 84.5008 79.4688C83.6576 79.4688 82.8336 79.8095 82.2368 80.4064C81.6416 81.0015 81.3008 81.8272 81.3008 82.6688C81.3008 83.512 81.6416 84.3359 82.2368 84.9311C82.8336 85.5279 83.6576 85.8688 84.5008 85.8688Z" fill="white"/>
</g>
<path fill-rule="evenodd" clip-rule="evenodd" d="M0.992519 98.5586H1.00748C2.66085 98.5586 4 97.2161 4 95.5586C4 93.9026 2.66085 92.5586 1.00748 92.5586H0.992519C-0.659352 92.5586 -2 93.9026 -2 95.5586C-2 97.2161 -0.659352 98.5586 0.992519 98.5586Z" fill="white"/>
<path fill-rule="evenodd" clip-rule="evenodd" d="M18 98.5586C18.789 98.5586 19.563 98.2391 20.121 97.6811C20.6805 97.1216 21 96.3491 21 95.5586C21 94.7696 20.6805 93.9956 20.121 93.4376C19.563 92.8781 18.789 92.5586 18 92.5586C17.2095 92.5586 16.437 92.8781 15.8775 93.4376C15.3195 93.9956 15 94.7696 15 95.5586C15 96.3491 15.3195 97.1216 15.8775 97.6811C16.437 98.2391 17.2095 98.5586 18 98.5586Z" fill="white"/>
<path fill-rule="evenodd" clip-rule="evenodd" d="M35 98.5586C35.7905 98.5586 36.563 98.2391 37.1225 97.6811C37.6805 97.1216 38 96.3491 38 95.5586C38 94.7696 37.6805 93.9956 37.1225 93.4376C36.563 92.8781 35.7905 92.5586 35 92.5586C34.211 92.5586 33.437 92.8781 32.879 93.4376C32.3195 93.9956 32 94.7696 32 95.5586C32 96.3491 32.3195 97.1216 32.879 97.6811C33.437 98.2391 34.211 98.5586 35 98.5586Z" fill="white"/>
<path fill-rule="evenodd" clip-rule="evenodd" d="M67.9925 98.5586H68.0075C69.6608 98.5586 71 97.2161 71 95.5586C71 93.9026 69.6608 92.5586 68.0075 92.5586H67.9925C66.3406 92.5586 65 93.9026 65 95.5586C65 97.2161 66.3406 98.5586 67.9925 98.5586Z" fill="white"/>
<path fill-rule="evenodd" clip-rule="evenodd" d="M50.9925 98.5586H51.0075C52.6594 98.5586 54 97.2161 54 95.5586C54 93.9026 52.6594 92.5586 51.0075 92.5586H50.9925C49.3406 92.5586 48 93.9026 48 95.5586C48 97.2161 49.3406 98.5586 50.9925 98.5586Z" fill="white"/>
<mask id="mask7_930_2040" style="mask-type:luminance" maskUnits="userSpaceOnUse" x="81" y="92" width="7" height="8">
<path fill-rule="evenodd" clip-rule="evenodd" d="M81.3008 92.8125H87.7005V99.2125H81.3008V92.8125Z" fill="white"/>
</mask>
<g mask="url(#mask7_930_2040)">
<path fill-rule="evenodd" clip-rule="evenodd" d="M84.5008 99.2125C85.3424 99.2125 86.168 98.8717 86.7632 98.2765C87.36 97.6797 87.7008 96.8557 87.7008 96.0125C87.7008 95.1709 87.36 94.3453 86.7632 93.7501C86.168 93.1533 85.3424 92.8125 84.5008 92.8125C83.6576 92.8125 82.8336 93.1533 82.2368 93.7501C81.6416 94.3453 81.3008 95.1709 81.3008 96.0125C81.3008 96.8557 81.6416 97.6797 82.2368 98.2765C82.8336 98.8717 83.6576 99.2125 84.5008 99.2125Z" fill="white"/>
</g>
<mask id="mask8_930_2040" style="mask-type:luminance" maskUnits="userSpaceOnUse" x="-3" y="105" width="8" height="7">
<path fill-rule="evenodd" clip-rule="evenodd" d="M-2.00781 105.555H4.40819V111.554H-2.00781V105.555Z" fill="white"/>
</mask>
<g mask="url(#mask8_930_2040)">
<path fill-rule="evenodd" clip-rule="evenodd" d="M1.19219 111.555H1.20819C2.97619 111.555 4.40819 110.211 4.40819 108.555C4.40819 106.897 2.97619 105.555 1.20819 105.555H1.19219C-0.574212 105.555 -2.00781 106.897 -2.00781 108.555C-2.00781 110.211 -0.574212 111.555 1.19219 111.555Z" fill="white"/>
</g>
<mask id="mask9_930_2040" style="mask-type:luminance" maskUnits="userSpaceOnUse" x="14" y="105" width="7" height="7">
<path fill-rule="evenodd" clip-rule="evenodd" d="M14.5 105.555H20.9V111.554H14.5V105.555Z" fill="white"/>
</mask>
<g mask="url(#mask9_930_2040)">
<path fill-rule="evenodd" clip-rule="evenodd" d="M17.7 111.555C18.5416 111.555 19.3672 111.235 19.9624 110.676C20.5592 110.118 20.9 109.344 20.9 108.555C20.9 107.764 20.5592 106.992 19.9624 106.432C19.3672 105.874 18.5416 105.555 17.7 105.555C16.8568 105.555 16.0328 105.874 15.436 106.432C14.8408 106.992 14.5 107.764 14.5 108.555C14.5 109.344 14.8408 110.118 15.436 110.676C16.0328 111.235 16.8568 111.555 17.7 111.555Z" fill="white"/>
</g>
<mask id="mask10_930_2040" style="mask-type:luminance" maskUnits="userSpaceOnUse" x="31" y="105" width="7" height="7">
<path fill-rule="evenodd" clip-rule="evenodd" d="M31.3984 105.555H37.7984V111.554H31.3984V105.555Z" fill="white"/>
</mask>
<g mask="url(#mask10_930_2040)">
<path fill-rule="evenodd" clip-rule="evenodd" d="M34.5984 111.555C35.4416 111.555 36.2656 111.235 36.8624 110.676C37.4576 110.118 37.7984 109.344 37.7984 108.555C37.7984 107.764 37.4576 106.992 36.8624 106.432C36.2656 105.874 35.4416 105.555 34.5984 105.555C33.7568 105.555 32.9312 105.874 32.336 106.432C31.7392 106.992 31.3984 107.764 31.3984 108.555C31.3984 109.344 31.7392 110.118 32.336 110.676C32.9312 111.235 33.7568 111.555 34.5984 111.555Z" fill="white"/>
</g>
<mask id="mask11_930_2040" style="mask-type:luminance" maskUnits="userSpaceOnUse" x="64" y="105" width="7" height="7">
<path fill-rule="evenodd" clip-rule="evenodd" d="M64.3945 105.555H70.8105V111.554H64.3945V105.555Z" fill="white"/>
</mask>
<g mask="url(#mask11_930_2040)">
<path fill-rule="evenodd" clip-rule="evenodd" d="M67.5945 111.555H67.6105C69.3785 111.555 70.8105 110.211 70.8105 108.555C70.8105 106.897 69.3785 105.555 67.6105 105.555H67.5945C65.8281 105.555 64.3945 106.897 64.3945 108.555C64.3945 110.211 65.8281 111.555 67.5945 111.555Z" fill="white"/>
</g>
<mask id="mask12_930_2040" style="mask-type:luminance" maskUnits="userSpaceOnUse" x="47" y="105" width="8" height="7">
<path fill-rule="evenodd" clip-rule="evenodd" d="M47.8945 105.555H54.3105V111.554H47.8945V105.555Z" fill="white"/>
</mask>
<g mask="url(#mask12_930_2040)">
<path fill-rule="evenodd" clip-rule="evenodd" d="M51.0945 111.555H51.1105C52.8769 111.555 54.3105 110.211 54.3105 108.555C54.3105 106.897 52.8769 105.555 51.1105 105.555H51.0945C49.3281 105.555 47.8945 106.897 47.8945 108.555C47.8945 110.211 49.3281 111.555 51.0945 111.555Z" fill="white"/>
</g>
<mask id="mask13_930_2040" style="mask-type:luminance" maskUnits="userSpaceOnUse" x="81" y="105" width="7" height="7">
<path fill-rule="evenodd" clip-rule="evenodd" d="M81.3008 105.555H87.7005V111.554H81.3008V105.555Z" fill="white"/>
</mask>
<g mask="url(#mask13_930_2040)">
<path fill-rule="evenodd" clip-rule="evenodd" d="M84.5008 111.555C85.3424 111.555 86.168 111.235 86.7632 110.676C87.36 110.118 87.7008 109.344 87.7008 108.555C87.7008 107.764 87.36 106.992 86.7632 106.432C86.168 105.874 85.3424 105.555 84.5008 105.555C83.6576 105.555 82.8336 105.874 82.2368 106.432C81.6416 106.992 81.3008 107.764 81.3008 108.555C81.3008 109.344 81.6416 110.118 82.2368 110.676C82.8336 111.235 83.6576 111.555 84.5008 111.555Z" fill="white"/>
</g>
</g>
</svg>
