<svg width="391" height="95" viewBox="0 0 391 95" fill="none" xmlns="http://www.w3.org/2000/svg">
<path d="M0.528 31V0.381999H6.072V13.822L5.358 13.108H22.578L21.864 13.822V0.381999H27.408V31H21.864V17.14L22.578 17.854H5.358L6.072 17.14V31H0.528ZM33.6929 31V8.656H38.9429V31H33.6929ZM33.6929 5.506V0.381999H38.9429V5.506H33.6929ZM44.6031 31V8.656H49.3491L49.6011 12.394H49.7691C50.2731 10.966 51.0851 9.944 52.2051 9.328C53.3531 8.684 54.6551 8.362 56.1111 8.362C56.3631 8.362 56.5871 8.362 56.7831 8.362C57.0071 8.362 57.2171 8.362 57.4131 8.362V13.318C57.2451 13.318 57.0351 13.318 56.7831 13.318C56.5591 13.29 56.3071 13.276 56.0271 13.276C54.6831 13.276 53.5631 13.5 52.6671 13.948C51.7711 14.368 51.0851 14.984 50.6091 15.796C50.1611 16.608 49.9091 17.602 49.8531 18.778V31H44.6031ZM69.553 31.378C67.285 31.378 65.353 30.916 63.757 29.992C62.189 29.04 60.985 27.71 60.145 26.002C59.305 24.266 58.885 22.25 58.885 19.954C58.885 17.574 59.305 15.516 60.145 13.78C60.985 12.016 62.189 10.658 63.757 9.706C65.325 8.754 67.187 8.278 69.343 8.278C71.807 8.278 73.823 8.824 75.391 9.916C76.987 10.98 78.135 12.464 78.835 14.368C79.535 16.272 79.773 18.456 79.549 20.92H64.009C64.009 22.348 64.233 23.552 64.681 24.532C65.157 25.484 65.801 26.212 66.613 26.716C67.453 27.192 68.433 27.43 69.553 27.43C70.869 27.43 71.961 27.122 72.829 26.506C73.697 25.862 74.257 25.036 74.509 24.028H79.423C79.255 25.54 78.723 26.856 77.827 27.976C76.931 29.068 75.769 29.908 74.341 30.496C72.913 31.084 71.317 31.378 69.553 31.378ZM64.009 18.106L63.547 17.56H74.929L74.425 18.148C74.481 16.776 74.299 15.656 73.879 14.788C73.459 13.92 72.857 13.276 72.073 12.856C71.289 12.436 70.379 12.226 69.343 12.226C68.279 12.226 67.355 12.45 66.571 12.898C65.787 13.346 65.171 14.018 64.723 14.914C64.275 15.782 64.037 16.846 64.009 18.106ZM90.2305 31L100.772 0.381999H108.584L119.126 31H113.372L111.062 24.28H98.2945L96.0265 31H90.2305ZM99.6385 19.996H109.76L106.736 11.386L104.804 5.464H104.594L102.62 11.386L99.6385 19.996ZM131.901 31V0.381999H144.627C146.251 0.381999 147.735 0.605998 149.079 1.054C150.423 1.474 151.557 2.118 152.481 2.986C153.433 3.826 154.161 4.862 154.665 6.094C155.197 7.298 155.463 8.684 155.463 10.252C155.463 12.24 155.029 13.99 154.161 15.502C153.293 16.986 152.047 18.148 150.423 18.988C148.827 19.828 146.895 20.248 144.627 20.248L136.899 20.206V15.838L143.703 15.88C144.879 15.88 145.915 15.698 146.811 15.334C147.735 14.97 148.463 14.396 148.995 13.612C149.527 12.8 149.793 11.75 149.793 10.462C149.793 9.174 149.513 8.138 148.953 7.354C148.421 6.57 147.707 6.01 146.811 5.674C145.915 5.31 144.879 5.128 143.703 5.128H136.647L137.445 4.33V31H131.901ZM159.283 31V8.656H164.029L164.281 12.394H164.449C164.953 10.966 165.765 9.944 166.885 9.328C168.033 8.684 169.335 8.362 170.791 8.362C171.043 8.362 171.267 8.362 171.463 8.362C171.687 8.362 171.897 8.362 172.093 8.362V13.318C171.925 13.318 171.715 13.318 171.463 13.318C171.239 13.29 170.987 13.276 170.707 13.276C169.363 13.276 168.243 13.5 167.347 13.948C166.451 14.368 165.765 14.984 165.289 15.796C164.841 16.608 164.589 17.602 164.533 18.778V31H159.283ZM184.653 31.378C182.973 31.378 181.461 31.126 180.117 30.622C178.773 30.09 177.597 29.32 176.589 28.312C175.609 27.304 174.853 26.086 174.321 24.658C173.817 23.23 173.565 21.62 173.565 19.828C173.565 17.532 173.999 15.516 174.867 13.78C175.763 12.044 177.037 10.686 178.689 9.706C180.341 8.726 182.329 8.236 184.653 8.236C186.305 8.236 187.803 8.502 189.147 9.034C190.491 9.566 191.639 10.336 192.591 11.344C193.571 12.352 194.327 13.57 194.859 14.998C195.391 16.398 195.657 18.008 195.657 19.828C195.657 22.096 195.209 24.098 194.313 25.834C193.445 27.57 192.185 28.928 190.533 29.908C188.909 30.888 186.949 31.378 184.653 31.378ZM184.611 27.052C185.759 27.052 186.767 26.786 187.635 26.254C188.503 25.694 189.175 24.882 189.651 23.818C190.127 22.726 190.365 21.396 190.365 19.828C190.365 18.652 190.225 17.616 189.945 16.72C189.693 15.796 189.315 15.026 188.811 14.41C188.307 13.794 187.705 13.332 187.005 13.024C186.305 12.716 185.521 12.562 184.653 12.562C183.505 12.562 182.483 12.842 181.587 13.402C180.719 13.934 180.047 14.746 179.571 15.838C179.095 16.902 178.857 18.232 178.857 19.828C178.857 21.004 178.983 22.054 179.235 22.978C179.515 23.874 179.907 24.63 180.411 25.246C180.915 25.834 181.517 26.282 182.217 26.59C182.945 26.898 183.743 27.052 184.611 27.052ZM207.481 22.054V17.602H220.669V22.054H207.481ZM238.048 31L231.412 0.381999H237.544L240.694 16.552L242.206 24.91H242.5L248.128 0.381999H255.016L260.728 24.994H261.022L262.45 16.594L265.516 0.381999H271.648L265.012 31H257.326L251.698 7.732H251.404L245.692 31H238.048ZM282.875 31.378C280.607 31.378 278.675 30.916 277.079 29.992C275.511 29.04 274.307 27.71 273.467 26.002C272.627 24.266 272.207 22.25 272.207 19.954C272.207 17.574 272.627 15.516 273.467 13.78C274.307 12.016 275.511 10.658 277.079 9.706C278.647 8.754 280.509 8.278 282.665 8.278C285.129 8.278 287.145 8.824 288.713 9.916C290.309 10.98 291.457 12.464 292.157 14.368C292.857 16.272 293.095 18.456 292.871 20.92H277.331C277.331 22.348 277.555 23.552 278.003 24.532C278.479 25.484 279.123 26.212 279.935 26.716C280.775 27.192 281.755 27.43 282.875 27.43C284.191 27.43 285.283 27.122 286.151 26.506C287.019 25.862 287.579 25.036 287.831 24.028H292.745C292.577 25.54 292.045 26.856 291.149 27.976C290.253 29.068 289.091 29.908 287.663 30.496C286.235 31.084 284.639 31.378 282.875 31.378ZM277.331 18.106L276.869 17.56H288.251L287.747 18.148C287.803 16.776 287.621 15.656 287.201 14.788C286.781 13.92 286.179 13.276 285.395 12.856C284.611 12.436 283.701 12.226 282.665 12.226C281.601 12.226 280.677 12.45 279.893 12.898C279.109 13.346 278.493 14.018 278.045 14.914C277.597 15.782 277.359 16.846 277.331 18.106ZM300.58 14.368H298.228L297.052 6.808V0.381999H301.714V6.808L300.58 14.368ZM307.267 31V0.381999H312.517V31H307.267ZM318.177 31V0.381999H323.427V31H318.177ZM338.948 31V0.381999H351.632C354.628 0.381999 357.162 1.026 359.234 2.314C361.334 3.574 362.916 5.352 363.98 7.648C365.072 9.944 365.618 12.632 365.618 15.712C365.618 17.98 365.31 20.066 364.694 21.97C364.078 23.846 363.168 25.456 361.964 26.8C360.788 28.144 359.332 29.18 357.596 29.908C355.86 30.636 353.872 31 351.632 31H338.948ZM344.492 26.212H350.792C352.136 26.212 353.368 26.016 354.488 25.624C355.608 25.232 356.574 24.616 357.386 23.776C358.198 22.908 358.828 21.802 359.276 20.458C359.724 19.114 359.948 17.49 359.948 15.586C359.948 13.094 359.556 11.092 358.772 9.58C357.988 8.04 356.91 6.92 355.538 6.22C354.194 5.492 352.612 5.128 350.792 5.128H344.492V26.212ZM379.928 31.378C378.248 31.378 376.736 31.126 375.392 30.622C374.048 30.09 372.872 29.32 371.864 28.312C370.884 27.304 370.128 26.086 369.596 24.658C369.092 23.23 368.84 21.62 368.84 19.828C368.84 17.532 369.274 15.516 370.142 13.78C371.038 12.044 372.312 10.686 373.964 9.706C375.616 8.726 377.604 8.236 379.928 8.236C381.58 8.236 383.078 8.502 384.422 9.034C385.766 9.566 386.914 10.336 387.866 11.344C388.846 12.352 389.602 13.57 390.134 14.998C390.666 16.398 390.932 18.008 390.932 19.828C390.932 22.096 390.484 24.098 389.588 25.834C388.72 27.57 387.46 28.928 385.808 29.908C384.184 30.888 382.224 31.378 379.928 31.378ZM379.886 27.052C381.034 27.052 382.042 26.786 382.91 26.254C383.778 25.694 384.45 24.882 384.926 23.818C385.402 22.726 385.64 21.396 385.64 19.828C385.64 18.652 385.5 17.616 385.22 16.72C384.968 15.796 384.59 15.026 384.086 14.41C383.582 13.794 382.98 13.332 382.28 13.024C381.58 12.716 380.796 12.562 379.928 12.562C378.78 12.562 377.758 12.842 376.862 13.402C375.994 13.934 375.322 14.746 374.846 15.838C374.37 16.902 374.132 18.232 374.132 19.828C374.132 21.004 374.258 22.054 374.51 22.978C374.79 23.874 375.182 24.63 375.686 25.246C376.19 25.834 376.792 26.282 377.492 26.59C378.22 26.898 379.018 27.052 379.886 27.052ZM0.528 94V63.382H6.072V94H0.528ZM19.2948 94C17.9228 94 16.8448 93.804 16.0608 93.412C15.3048 92.992 14.7728 92.404 14.4648 91.648C14.1568 90.892 14.0028 89.982 14.0028 88.918V75.898H9.88678V71.656H14.0028V65.356L19.2108 64.81V71.656H23.9568V75.898H19.2108V87.952C19.2108 88.652 19.3648 89.128 19.6728 89.38C19.9808 89.604 20.4568 89.716 21.1008 89.716H23.9568V94H19.2948ZM37.8522 94V63.382H59.6502V68.17H42.4302L43.3962 67.204V77.872L42.4302 76.906H57.9702V81.442H42.4302L43.3962 80.476V94H37.8522ZM72.9672 94.378C71.2872 94.378 69.7752 94.126 68.4312 93.622C67.0872 93.09 65.9112 92.32 64.9032 91.312C63.9232 90.304 63.1672 89.086 62.6352 87.658C62.1312 86.23 61.8792 84.62 61.8792 82.828C61.8792 80.532 62.3132 78.516 63.1812 76.78C64.0772 75.044 65.3512 73.686 67.0032 72.706C68.6552 71.726 70.6432 71.236 72.9672 71.236C74.6192 71.236 76.1172 71.502 77.4612 72.034C78.8052 72.566 79.9532 73.336 80.9052 74.344C81.8852 75.352 82.6412 76.57 83.1732 77.998C83.7052 79.398 83.9712 81.008 83.9712 82.828C83.9712 85.096 83.5232 87.098 82.6272 88.834C81.7592 90.57 80.4992 91.928 78.8472 92.908C77.2232 93.888 75.2632 94.378 72.9672 94.378ZM72.9252 90.052C74.0732 90.052 75.0812 89.786 75.9492 89.254C76.8172 88.694 77.4892 87.882 77.9652 86.818C78.4412 85.726 78.6792 84.396 78.6792 82.828C78.6792 81.652 78.5392 80.616 78.2592 79.72C78.0072 78.796 77.6292 78.026 77.1252 77.41C76.6212 76.794 76.0192 76.332 75.3192 76.024C74.6192 75.716 73.8352 75.562 72.9672 75.562C71.8192 75.562 70.7972 75.842 69.9012 76.402C69.0332 76.934 68.3612 77.746 67.8852 78.838C67.4092 79.902 67.1712 81.232 67.1712 82.828C67.1712 84.004 67.2972 85.054 67.5492 85.978C67.8292 86.874 68.2212 87.63 68.7252 88.246C69.2292 88.834 69.8312 89.282 70.5312 89.59C71.2592 89.898 72.0572 90.052 72.9252 90.052ZM88.2027 94V71.656H92.9487L93.2007 75.394H93.3687C93.8727 73.966 94.6847 72.944 95.8047 72.328C96.9527 71.684 98.2547 71.362 99.7107 71.362C99.9627 71.362 100.187 71.362 100.383 71.362C100.607 71.362 100.817 71.362 101.013 71.362V76.318C100.845 76.318 100.635 76.318 100.383 76.318C100.159 76.29 99.9067 76.276 99.6267 76.276C98.2827 76.276 97.1627 76.5 96.2667 76.948C95.3707 77.368 94.6847 77.984 94.2087 78.796C93.7607 79.608 93.5087 80.602 93.4527 81.778V94H88.2027ZM122.201 94V82.156L110.861 63.382H117.203L124.847 76.738H125.141L132.869 63.382H139.169L127.745 82.156V94H122.201ZM147.123 94.378C145.443 94.378 143.931 94.126 142.587 93.622C141.243 93.09 140.067 92.32 139.059 91.312C138.079 90.304 137.323 89.086 136.791 87.658C136.287 86.23 136.035 84.62 136.035 82.828C136.035 80.532 136.469 78.516 137.337 76.78C138.233 75.044 139.507 73.686 141.159 72.706C142.811 71.726 144.799 71.236 147.123 71.236C148.775 71.236 150.273 71.502 151.617 72.034C152.961 72.566 154.109 73.336 155.061 74.344C156.041 75.352 156.797 76.57 157.329 77.998C157.861 79.398 158.127 81.008 158.127 82.828C158.127 85.096 157.679 87.098 156.783 88.834C155.915 90.57 154.655 91.928 153.003 92.908C151.379 93.888 149.419 94.378 147.123 94.378ZM147.081 90.052C148.229 90.052 149.237 89.786 150.105 89.254C150.973 88.694 151.645 87.882 152.121 86.818C152.597 85.726 152.835 84.396 152.835 82.828C152.835 81.652 152.695 80.616 152.415 79.72C152.163 78.796 151.785 78.026 151.281 77.41C150.777 76.794 150.175 76.332 149.475 76.024C148.775 75.716 147.991 75.562 147.123 75.562C145.975 75.562 144.953 75.842 144.057 76.402C143.189 76.934 142.517 77.746 142.041 78.838C141.565 79.902 141.327 81.232 141.327 82.828C141.327 84.004 141.453 85.054 141.705 85.978C141.985 86.874 142.377 87.63 142.881 88.246C143.385 88.834 143.987 89.282 144.687 89.59C145.415 89.898 146.213 90.052 147.081 90.052ZM170.171 94.378C168.463 94.378 167.007 94.042 165.803 93.37C164.599 92.698 163.689 91.704 163.073 90.388C162.457 89.044 162.149 87.42 162.149 85.516V71.656H167.399V84.13C167.399 85.39 167.567 86.468 167.903 87.364C168.239 88.232 168.757 88.904 169.457 89.38C170.157 89.856 171.067 90.094 172.187 90.094C173.307 90.094 174.273 89.814 175.085 89.254C175.925 88.694 176.569 87.952 177.017 87.028C177.465 86.076 177.689 85.012 177.689 83.836V71.656H182.939V94H177.899L177.689 89.674H177.437C176.877 91.186 175.939 92.348 174.623 93.16C173.335 93.972 171.851 94.378 170.171 94.378Z" fill="#16191C"/>
</svg>
