<svg width="44" height="44" viewBox="0 0 44 44" fill="none" xmlns="http://www.w3.org/2000/svg">
<path d="M36.5294 0.353516H6.76471C3.03465 0.353516 0 3.38816 0 7.11822V36.8829C0 40.613 3.03465 43.6476 6.76471 43.6476H36.5294C40.2595 43.6476 43.2941 40.613 43.2941 36.8829V7.11822C43.2941 3.38816 40.2595 0.353516 36.5294 0.353516ZM6.76471 3.0594H36.5294C38.7672 3.0594 40.5882 4.88046 40.5882 7.11822V11.177H2.70588V7.11822C2.70588 4.88046 4.52694 3.0594 6.76471 3.0594ZM36.5294 40.9417H6.76471C4.52694 40.9417 2.70588 39.1207 2.70588 36.8829V13.8829H40.5882V36.8829C40.5882 39.1207 38.7672 40.9417 36.5294 40.9417Z" fill="#FF7500"/>
<path d="M7.71252 8.07915C7.84082 7.95423 7.94279 7.80486 8.01241 7.63988C8.08204 7.4749 8.11791 7.29764 8.11791 7.11857C8.11791 6.93949 8.08204 6.76223 8.01241 6.59725C7.94279 6.43227 7.84082 6.28291 7.71252 6.15798C7.21193 5.65739 6.30546 5.65739 5.80487 6.15798C5.5543 6.41495 5.41406 6.75965 5.41406 7.11857C5.41406 7.47748 5.5543 7.82218 5.80487 8.07915C6.05871 8.33049 6.40148 8.47147 6.7587 8.47147C7.11591 8.47147 7.45868 8.33049 7.71252 8.07915ZM13.1243 8.07915C13.2526 7.95423 13.3546 7.80486 13.4242 7.63988C13.4938 7.4749 13.5297 7.29764 13.5297 7.11857C13.5297 6.93949 13.4938 6.76223 13.4242 6.59725C13.3546 6.43227 13.2526 6.28291 13.1243 6.15798C12.6237 5.65739 11.7172 5.65739 11.2166 6.15798C10.9651 6.41445 10.8242 6.75934 10.8242 7.11857C10.8242 7.47779 10.9651 7.82269 11.2166 8.07915C11.4705 8.33049 11.8132 8.47147 12.1705 8.47147C12.5277 8.47147 12.8704 8.33049 13.1243 8.07915ZM29.3663 21.0444C29.1127 20.7907 28.7686 20.6482 28.4098 20.6482C28.051 20.6482 27.707 20.7907 27.4533 21.0444C27.1996 21.2981 27.0571 21.6422 27.0571 22.0009C27.0571 22.3597 27.1996 22.7038 27.4533 22.9574L31.9085 27.4127L27.4533 31.8679C27.1996 32.1216 27.0571 32.4657 27.0571 32.8244C27.0571 33.1832 27.1996 33.5273 27.4533 33.781C27.707 34.0347 28.051 34.1772 28.4098 34.1772C28.7686 34.1772 29.1127 34.0347 29.3663 33.781L34.7781 28.3692C34.9039 28.2437 35.0036 28.0946 35.0717 27.9304C35.1398 27.7663 35.1748 27.5904 35.1748 27.4127C35.1748 27.235 35.1398 27.0591 35.0717 26.8949C35.0036 26.7308 34.9039 26.5817 34.7781 26.4562L29.3663 21.0444ZM15.8369 21.0444C15.7114 20.9186 15.5623 20.8189 15.3982 20.7508C15.234 20.6827 15.0581 20.6477 14.8804 20.6477C14.7027 20.6477 14.5268 20.6827 14.3626 20.7508C14.1985 20.8189 14.0494 20.9186 13.9239 21.0444L8.51211 26.4562C8.38636 26.5817 8.28659 26.7308 8.21853 26.8949C8.15046 27.0591 8.11542 27.235 8.11542 27.4127C8.11542 27.5904 8.15046 27.7663 8.21853 27.9304C8.28659 28.0946 8.38636 28.2437 8.51211 28.3692L13.9239 33.781C14.1776 34.0347 14.5216 34.1772 14.8804 34.1772C15.2392 34.1772 15.5832 34.0347 15.8369 33.781C16.0906 33.5273 16.2331 33.1832 16.2331 32.8244C16.2331 32.4657 16.0906 32.1216 15.8369 31.8679L11.3817 27.4127L15.8369 22.9574C15.9627 22.8319 16.0624 22.6828 16.1305 22.5187C16.1986 22.3545 16.2336 22.1786 16.2336 22.0009C16.2336 21.8232 16.1986 21.6473 16.1305 21.4832C16.0624 21.319 15.9627 21.1699 15.8369 21.0444ZM24.7785 18.0111C24.61 17.9545 24.432 17.9318 24.2547 17.9441C24.0774 17.9565 23.9042 18.0038 23.7452 18.0832C23.5862 18.1626 23.4444 18.2727 23.3281 18.4071C23.2117 18.5414 23.123 18.6974 23.067 18.8662L17.6553 35.1014C17.5963 35.2706 17.5716 35.4499 17.5824 35.6287C17.5933 35.8076 17.6396 35.9825 17.7186 36.1433C17.7976 36.3041 17.9078 36.4476 18.0427 36.5655C18.1777 36.6834 18.3347 36.7733 18.5046 36.83C18.6746 36.8867 18.8541 36.9091 19.0328 36.8959C19.2115 36.8827 19.3858 36.8341 19.5456 36.7529C19.7053 36.6718 19.8473 36.5597 19.9634 36.4232C20.0795 36.2867 20.1674 36.1286 20.2218 35.9579L25.6336 19.7226C25.69 19.5541 25.7126 19.3761 25.7001 19.1988C25.6877 19.0215 25.6404 18.8485 25.561 18.6895C25.4815 18.5305 25.3716 18.3888 25.2373 18.2724C25.103 18.156 24.9471 18.0672 24.7785 18.0111ZM27.0569 8.47151H36.5275C36.8863 8.47151 37.2304 8.32897 37.4841 8.07524C37.7379 7.82151 37.8804 7.47739 37.8804 7.11857C37.8804 6.75974 37.7379 6.41562 37.4841 6.16189C37.2304 5.90817 36.8863 5.76562 36.5275 5.76562H27.0569C26.698 5.76562 26.3539 5.90817 26.1002 6.16189C25.8465 6.41562 25.7039 6.75974 25.7039 7.11857C25.7039 7.47739 25.8465 7.82151 26.1002 8.07524C26.3539 8.32897 26.698 8.47151 27.0569 8.47151Z" fill="#FF7500"/>
</svg>
