<svg width="535" height="61" viewBox="0 0 535 61" fill="none" xmlns="http://www.w3.org/2000/svg">
<path d="M1.488 12V0.335999H2.848V11.136L2.528 10.752H8.608V12H1.488ZM13.2505 12.144C12.6425 12.144 12.0878 12.0427 11.5865 11.84C11.0958 11.6373 10.6692 11.344 10.3065 10.96C9.9545 10.576 9.67717 10.1227 9.4745 9.6C9.2825 9.06667 9.1865 8.47467 9.1865 7.824C9.1865 6.96 9.35183 6.20267 9.6825 5.552C10.0132 4.90133 10.4825 4.39467 11.0905 4.032C11.7092 3.65867 12.4292 3.472 13.2505 3.472C13.8585 3.472 14.4078 3.57333 14.8985 3.776C15.3998 3.968 15.8265 4.256 16.1785 4.64C16.5305 5.024 16.8025 5.48267 16.9945 6.016C17.1865 6.54933 17.2825 7.14667 17.2825 7.808C17.2825 8.66133 17.1172 9.41333 16.7865 10.064C16.4665 10.7147 16.0025 11.2267 15.3945 11.6C14.7865 11.9627 14.0718 12.144 13.2505 12.144ZM13.2505 11.024C13.7945 11.024 14.2692 10.9013 14.6745 10.656C15.0798 10.4 15.3945 10.032 15.6185 9.552C15.8532 9.06133 15.9705 8.48 15.9705 7.808C15.9705 7.30667 15.9065 6.85867 15.7785 6.464C15.6505 6.05867 15.4692 5.71733 15.2345 5.44C14.9998 5.152 14.7172 4.93333 14.3865 4.784C14.0558 4.63467 13.6772 4.56 13.2505 4.56C12.7065 4.56 12.2265 4.69333 11.8105 4.96C11.4052 5.216 11.0852 5.584 10.8505 6.064C10.6265 6.544 10.5145 7.13067 10.5145 7.824C10.5145 8.31467 10.5732 8.76267 10.6905 9.168C10.8185 9.56267 10.9998 9.89867 11.2345 10.176C11.4798 10.4533 11.7732 10.6667 12.1145 10.816C12.4558 10.9547 12.8345 11.024 13.2505 11.024ZM19.1223 12V3.6H20.2743L20.3543 5.152H20.4183C20.5996 4.61867 20.9196 4.208 21.3783 3.92C21.8369 3.632 22.3489 3.488 22.9143 3.488C23.0103 3.488 23.1009 3.49333 23.1863 3.504C23.2716 3.504 23.3516 3.50933 23.4263 3.52V4.752C23.3516 4.74133 23.2716 4.736 23.1863 4.736C23.1009 4.72533 23.0103 4.72 22.9143 4.72C22.4236 4.72 21.9969 4.81067 21.6343 4.992C21.2716 5.17333 20.9836 5.43467 20.7703 5.776C20.5676 6.10667 20.4449 6.512 20.4023 6.992V12H19.1223ZM27.8539 12.144C27.0539 12.144 26.3659 11.968 25.7899 11.616C25.2245 11.264 24.7925 10.7627 24.4939 10.112C24.1952 9.46133 24.0459 8.704 24.0459 7.84C24.0459 6.95467 24.1952 6.18667 24.4939 5.536C24.7925 4.87467 25.2192 4.368 25.7739 4.016C26.3285 3.65333 27.0059 3.472 27.8059 3.472C28.6592 3.472 29.3632 3.664 29.9179 4.048C30.4725 4.432 30.8725 4.96533 31.1179 5.648C31.3739 6.33067 31.4699 7.12 31.4059 8.016H25.3099C25.3205 8.70933 25.4272 9.29067 25.6299 9.76C25.8432 10.2187 26.1365 10.5653 26.5099 10.8C26.8939 11.024 27.3419 11.136 27.8539 11.136C28.4725 11.136 28.9792 10.9813 29.3739 10.672C29.7685 10.3627 30.0192 9.95733 30.1259 9.456H31.3579C31.2939 10.0213 31.0965 10.5067 30.7659 10.912C30.4459 11.3173 30.0299 11.6267 29.5179 11.84C29.0165 12.0427 28.4619 12.144 27.8539 12.144ZM25.3259 7.28L25.1819 7.088H30.2859L30.1419 7.312C30.1525 6.64 30.0619 6.10133 29.8699 5.696C29.6779 5.28 29.4005 4.976 29.0379 4.784C28.6859 4.58133 28.2752 4.48 27.8059 4.48C27.3152 4.48 26.8885 4.58667 26.5259 4.8C26.1632 5.01333 25.8752 5.328 25.6619 5.744C25.4592 6.14933 25.3472 6.66133 25.3259 7.28ZM33.2473 12V3.6H34.4793L34.5273 5.344H34.6233C34.8686 4.72533 35.2526 4.26133 35.7753 3.952C36.2979 3.632 36.8739 3.472 37.5033 3.472C38.1433 3.472 38.7086 3.62667 39.1993 3.936C39.6899 4.24533 40.0419 4.76267 40.2552 5.488H40.3833C40.6286 4.816 41.0233 4.31467 41.5673 3.984C42.1219 3.64267 42.7406 3.472 43.4233 3.472C43.9886 3.472 44.4899 3.58933 44.9273 3.824C45.3753 4.05867 45.7273 4.44267 45.9833 4.976C46.2393 5.49867 46.3673 6.192 46.3673 7.056V12H45.0873V7.312C45.0873 6.68267 45.0073 6.16533 44.8473 5.76C44.6979 5.35467 44.4686 5.056 44.1593 4.864C43.8606 4.66133 43.4659 4.56 42.9753 4.56C42.4739 4.56 42.0313 4.688 41.6473 4.944C41.2739 5.2 40.9806 5.54667 40.7673 5.984C40.5646 6.41067 40.4633 6.90133 40.4633 7.456V12H39.1513V7.312C39.1513 6.68267 39.0766 6.16533 38.9273 5.76C38.7779 5.35467 38.5486 5.056 38.2393 4.864C37.9406 4.66133 37.5513 4.56 37.0713 4.56C36.5593 4.56 36.1113 4.688 35.7273 4.944C35.3539 5.2 35.0606 5.54667 34.8473 5.984C34.6339 6.41067 34.5273 6.90133 34.5273 7.456V12H33.2473ZM52.6443 12V0.335999H54.0043V12H52.6443ZM56.7316 14.672L56.7476 3.6H57.9796L58.0276 5.344H58.1236C58.3263 4.77867 58.6836 4.32533 59.1956 3.984C59.7183 3.632 60.3476 3.456 61.0836 3.456C61.5956 3.456 62.0596 3.552 62.4756 3.744C62.9023 3.936 63.2703 4.21867 63.5796 4.592C63.889 4.96533 64.1236 5.424 64.2836 5.968C64.4543 6.50133 64.5396 7.11467 64.5396 7.808C64.5396 8.72533 64.3956 9.50933 64.1076 10.16C63.8196 10.8 63.4143 11.2907 62.8916 11.632C62.3796 11.9733 61.777 12.144 61.0836 12.144C60.6036 12.144 60.161 12.0693 59.7556 11.92C59.361 11.76 59.025 11.536 58.7476 11.248C58.4703 10.96 58.2623 10.6293 58.1236 10.256H58.0276V14.672H56.7316ZM60.6516 11.056C61.1636 11.056 61.6116 10.9333 61.9956 10.688C62.3796 10.4427 62.6783 10.08 62.8916 9.6C63.1156 9.10933 63.2276 8.512 63.2276 7.808C63.2276 7.09333 63.1156 6.496 62.8916 6.016C62.6783 5.536 62.3796 5.17333 61.9956 4.928C61.6116 4.672 61.1636 4.544 60.6516 4.544C60.097 4.544 59.6223 4.67733 59.2276 4.944C58.8436 5.2 58.5503 5.54133 58.3476 5.968C58.145 6.384 58.0436 6.82667 58.0436 7.296V8.304C58.0436 8.656 58.1023 8.99733 58.2196 9.328C58.337 9.65867 58.5023 9.95733 58.7156 10.224C58.9396 10.48 59.2116 10.6827 59.5316 10.832C59.8623 10.9813 60.2356 11.056 60.6516 11.056ZM69.2039 12.16C68.4892 12.16 67.8705 12.0427 67.3479 11.808C66.8359 11.5733 66.4412 11.248 66.1639 10.832C65.8972 10.416 65.7639 9.93067 65.7639 9.376H67.0599C67.0599 9.99467 67.2572 10.4533 67.6519 10.752C68.0572 11.04 68.5852 11.184 69.2359 11.184C69.8865 11.184 70.3825 11.0613 70.7239 10.816C71.0759 10.5707 71.2519 10.224 71.2519 9.776C71.2519 9.43467 71.1772 9.17333 71.0279 8.992C70.8785 8.8 70.6492 8.65067 70.3399 8.544C70.0305 8.43733 69.6252 8.34667 69.1239 8.272C68.4305 8.176 67.8492 8.04267 67.3799 7.872C66.9212 7.70133 66.5745 7.46133 66.3399 7.152C66.1159 6.832 66.0039 6.416 66.0039 5.904C66.0039 5.41333 66.1372 4.98667 66.4039 4.624C66.6705 4.25067 67.0439 3.96267 67.5239 3.76C68.0039 3.54667 68.5639 3.44 69.2039 3.44C69.8759 3.44 70.4465 3.552 70.9159 3.776C71.3959 3.98933 71.7585 4.29333 72.0039 4.688C72.2599 5.072 72.3932 5.53067 72.4039 6.064H71.1399C71.1292 5.66933 71.0385 5.35467 70.8679 5.12C70.7079 4.88533 70.4839 4.71467 70.1959 4.608C69.9185 4.49067 69.5825 4.432 69.1879 4.432C68.5905 4.432 68.1265 4.55467 67.7959 4.8C67.4652 5.04533 67.2999 5.37067 67.2999 5.776C67.2999 6.08533 67.3799 6.336 67.5399 6.528C67.6999 6.70933 67.9452 6.85333 68.2759 6.96C68.6065 7.056 69.0332 7.14133 69.5559 7.216C70.0252 7.28 70.4465 7.36533 70.8199 7.472C71.1932 7.57867 71.5079 7.728 71.7639 7.92C72.0305 8.10133 72.2279 8.336 72.3559 8.624C72.4945 8.90133 72.5639 9.248 72.5639 9.664C72.5639 10.464 72.2545 11.0827 71.6359 11.52C71.0279 11.9467 70.2172 12.16 69.2039 12.16ZM77.3635 12.144C76.7448 12.144 76.2062 12.0213 75.7475 11.776C75.2888 11.52 74.9368 11.1413 74.6915 10.64C74.4462 10.128 74.3235 9.49867 74.3235 8.752V3.6H75.6195V8.432C75.6195 8.98667 75.6942 9.46133 75.8435 9.856C75.9928 10.24 76.2275 10.5333 76.5475 10.736C76.8782 10.9387 77.2995 11.04 77.8115 11.04C78.3128 11.04 78.7555 10.9173 79.1395 10.672C79.5235 10.4267 79.8222 10.08 80.0355 9.632C80.2488 9.184 80.3555 8.66667 80.3555 8.08V3.6H81.6515V12H80.4195L80.3555 10.208H80.2755C80.0515 10.8053 79.6782 11.28 79.1555 11.632C78.6328 11.9733 78.0355 12.144 77.3635 12.144ZM83.9973 12V3.6H85.2293L85.2773 5.344H85.3733C85.6186 4.72533 86.0026 4.26133 86.5253 3.952C87.0479 3.632 87.6239 3.472 88.2533 3.472C88.8933 3.472 89.4586 3.62667 89.9493 3.936C90.4399 4.24533 90.7919 4.76267 91.0052 5.488H91.1333C91.3786 4.816 91.7733 4.31467 92.3173 3.984C92.8719 3.64267 93.4906 3.472 94.1733 3.472C94.7386 3.472 95.2399 3.58933 95.6773 3.824C96.1253 4.05867 96.4773 4.44267 96.7333 4.976C96.9893 5.49867 97.1173 6.192 97.1173 7.056V12H95.8373V7.312C95.8373 6.68267 95.7573 6.16533 95.5973 5.76C95.4479 5.35467 95.2186 5.056 94.9093 4.864C94.6106 4.66133 94.2159 4.56 93.7253 4.56C93.2239 4.56 92.7813 4.688 92.3973 4.944C92.0239 5.2 91.7306 5.54667 91.5173 5.984C91.3146 6.41067 91.2133 6.90133 91.2133 7.456V12H89.9013V7.312C89.9013 6.68267 89.8266 6.16533 89.6773 5.76C89.5279 5.35467 89.2986 5.056 88.9893 4.864C88.6906 4.66133 88.3013 4.56 87.8213 4.56C87.3093 4.56 86.8613 4.688 86.4773 4.944C86.1039 5.2 85.8106 5.54667 85.5973 5.984C85.3839 6.41067 85.2773 6.90133 85.2773 7.456V12H83.9973ZM103.394 12V0.335999H107.986C109.085 0.335999 110.024 0.581333 110.802 1.072C111.581 1.552 112.178 2.22933 112.594 3.104C113.01 3.97867 113.218 5.00267 113.218 6.176C113.218 7.05067 113.101 7.84533 112.866 8.56C112.632 9.27467 112.285 9.888 111.826 10.4C111.378 10.912 110.829 11.3067 110.178 11.584C109.538 11.8613 108.808 12 107.986 12H103.394ZM104.754 10.8H107.81C108.418 10.8 108.968 10.704 109.458 10.512C109.949 10.3093 110.37 10.0107 110.722 9.616C111.074 9.22133 111.341 8.736 111.522 8.16C111.714 7.57333 111.81 6.90133 111.81 6.144C111.81 5.12 111.645 4.26667 111.314 3.584C110.984 2.90133 110.514 2.38933 109.906 2.048C109.309 1.70667 108.61 1.536 107.81 1.536H104.754V10.8ZM118.688 12.144C118.08 12.144 117.525 12.0427 117.024 11.84C116.533 11.6373 116.107 11.344 115.744 10.96C115.392 10.576 115.115 10.1227 114.912 9.6C114.72 9.06667 114.624 8.47467 114.624 7.824C114.624 6.96 114.789 6.20267 115.12 5.552C115.451 4.90133 115.92 4.39467 116.528 4.032C117.147 3.65867 117.867 3.472 118.688 3.472C119.296 3.472 119.845 3.57333 120.336 3.776C120.837 3.968 121.264 4.256 121.616 4.64C121.968 5.024 122.24 5.48267 122.432 6.016C122.624 6.54933 122.72 7.14667 122.72 7.808C122.72 8.66133 122.555 9.41333 122.224 10.064C121.904 10.7147 121.44 11.2267 120.832 11.6C120.224 11.9627 119.509 12.144 118.688 12.144ZM118.688 11.024C119.232 11.024 119.707 10.9013 120.112 10.656C120.517 10.4 120.832 10.032 121.056 9.552C121.291 9.06133 121.408 8.48 121.408 7.808C121.408 7.30667 121.344 6.85867 121.216 6.464C121.088 6.05867 120.907 5.71733 120.672 5.44C120.437 5.152 120.155 4.93333 119.824 4.784C119.493 4.63467 119.115 4.56 118.688 4.56C118.144 4.56 117.664 4.69333 117.248 4.96C116.843 5.216 116.523 5.584 116.288 6.064C116.064 6.544 115.952 7.13067 115.952 7.824C115.952 8.31467 116.011 8.76267 116.128 9.168C116.256 9.56267 116.437 9.89867 116.672 10.176C116.917 10.4533 117.211 10.6667 117.552 10.816C117.893 10.9547 118.272 11.024 118.688 11.024ZM124.56 12V0.335999H125.856V12H124.56ZM131.766 12.144C131.158 12.144 130.603 12.0427 130.102 11.84C129.611 11.6373 129.185 11.344 128.822 10.96C128.47 10.576 128.193 10.1227 127.99 9.6C127.798 9.06667 127.702 8.47467 127.702 7.824C127.702 6.96 127.867 6.20267 128.198 5.552C128.529 4.90133 128.998 4.39467 129.606 4.032C130.225 3.65867 130.945 3.472 131.766 3.472C132.374 3.472 132.923 3.57333 133.414 3.776C133.915 3.968 134.342 4.256 134.694 4.64C135.046 5.024 135.318 5.48267 135.51 6.016C135.702 6.54933 135.798 7.14667 135.798 7.808C135.798 8.66133 135.633 9.41333 135.302 10.064C134.982 10.7147 134.518 11.2267 133.91 11.6C133.302 11.9627 132.587 12.144 131.766 12.144ZM131.766 11.024C132.31 11.024 132.785 10.9013 133.19 10.656C133.595 10.4 133.91 10.032 134.134 9.552C134.369 9.06133 134.486 8.48 134.486 7.808C134.486 7.30667 134.422 6.85867 134.294 6.464C134.166 6.05867 133.985 5.71733 133.75 5.44C133.515 5.152 133.233 4.93333 132.902 4.784C132.571 4.63467 132.193 4.56 131.766 4.56C131.222 4.56 130.742 4.69333 130.326 4.96C129.921 5.216 129.601 5.584 129.366 6.064C129.142 6.544 129.03 7.13067 129.03 7.824C129.03 8.31467 129.089 8.76267 129.206 9.168C129.334 9.56267 129.515 9.89867 129.75 10.176C129.995 10.4533 130.289 10.6667 130.63 10.816C130.971 10.9547 131.35 11.024 131.766 11.024ZM137.638 12V3.6H138.79L138.87 5.152H138.934C139.115 4.61867 139.435 4.208 139.894 3.92C140.353 3.632 140.865 3.488 141.43 3.488C141.526 3.488 141.617 3.49333 141.702 3.504C141.787 3.504 141.867 3.50933 141.942 3.52V4.752C141.867 4.74133 141.787 4.736 141.702 4.736C141.617 4.72533 141.526 4.72 141.43 4.72C140.939 4.72 140.513 4.81067 140.15 4.992C139.787 5.17333 139.499 5.43467 139.286 5.776C139.083 6.10667 138.961 6.512 138.918 6.992V12H137.638ZM151.186 12.144C150.162 12.144 149.314 11.984 148.642 11.664C147.981 11.344 147.485 10.9013 147.154 10.336C146.834 9.76 146.664 9.104 146.642 8.368H148.066C148.077 8.912 148.194 9.38667 148.418 9.792C148.653 10.1973 148.994 10.5067 149.442 10.72C149.901 10.9333 150.488 11.04 151.202 11.04C152.109 11.04 152.834 10.8747 153.378 10.544C153.933 10.2027 154.21 9.68533 154.21 8.992C154.21 8.608 154.152 8.288 154.034 8.032C153.917 7.76533 153.73 7.54667 153.474 7.376C153.218 7.20533 152.882 7.06133 152.466 6.944C152.05 6.816 151.549 6.704 150.962 6.608C150.29 6.48 149.704 6.336 149.202 6.176C148.701 6.016 148.28 5.81867 147.938 5.584C147.608 5.33867 147.357 5.04 147.186 4.688C147.016 4.336 146.93 3.91467 146.93 3.424C146.93 2.77333 147.096 2.208 147.426 1.728C147.757 1.23733 148.232 0.864 148.85 0.608C149.469 0.341333 150.216 0.207999 151.09 0.207999C151.976 0.207999 152.722 0.351999 153.33 0.639999C153.938 0.917333 154.408 1.30667 154.738 1.808C155.069 2.30933 155.24 2.90133 155.25 3.584H153.858C153.837 3.072 153.709 2.64533 153.474 2.304C153.24 1.96267 152.914 1.70667 152.498 1.536C152.082 1.36533 151.592 1.28 151.026 1.28C150.45 1.28 149.965 1.36533 149.57 1.536C149.176 1.696 148.872 1.92 148.658 2.208C148.445 2.496 148.338 2.83733 148.338 3.232C148.338 3.70133 148.445 4.06933 148.658 4.336C148.882 4.592 149.234 4.79467 149.714 4.944C150.205 5.09333 150.84 5.23733 151.618 5.376C152.152 5.46133 152.658 5.57333 153.138 5.712C153.618 5.85067 154.045 6.04267 154.418 6.288C154.792 6.53333 155.085 6.864 155.298 7.28C155.522 7.68533 155.634 8.21333 155.634 8.864C155.634 9.51467 155.464 10.0853 155.122 10.576C154.781 11.0667 154.28 11.4507 153.618 11.728C152.957 12.0053 152.146 12.144 151.186 12.144ZM157.607 12V3.6H158.903V12H157.607ZM157.607 2.208V0.335999H158.903V2.208H157.607ZM163.565 12C163.149 12 162.818 11.9413 162.573 11.824C162.338 11.7067 162.168 11.5307 162.061 11.296C161.965 11.0507 161.917 10.752 161.917 10.4V4.672H160.285V3.6H161.917V1.088L163.213 0.912V3.6H165.165V4.672H163.213V10.176C163.213 10.4747 163.266 10.672 163.373 10.768C163.48 10.864 163.677 10.912 163.965 10.912H165.165V12H163.565ZM169.377 12L173.649 0.335999H175.553L179.825 12H178.401L177.345 9.12H171.857L170.817 12H169.377ZM172.209 8.032H176.993L175.553 4.128L174.657 1.616H174.577L173.665 4.128L172.209 8.032ZM181.091 12V3.6H182.323L182.371 5.344H182.467C182.712 4.72533 183.096 4.26133 183.619 3.952C184.142 3.632 184.718 3.472 185.347 3.472C185.987 3.472 186.552 3.62667 187.043 3.936C187.534 4.24533 187.886 4.76267 188.099 5.488H188.227C188.472 4.816 188.867 4.31467 189.411 3.984C189.966 3.64267 190.584 3.472 191.267 3.472C191.832 3.472 192.334 3.58933 192.771 3.824C193.219 4.05867 193.571 4.44267 193.827 4.976C194.083 5.49867 194.211 6.192 194.211 7.056V12H192.931V7.312C192.931 6.68267 192.851 6.16533 192.691 5.76C192.542 5.35467 192.312 5.056 192.003 4.864C191.704 4.66133 191.31 4.56 190.819 4.56C190.318 4.56 189.875 4.688 189.491 4.944C189.118 5.2 188.824 5.54667 188.611 5.984C188.408 6.41067 188.307 6.90133 188.307 7.456V12H186.995V7.312C186.995 6.68267 186.92 6.16533 186.771 5.76C186.622 5.35467 186.392 5.056 186.083 4.864C185.784 4.66133 185.395 4.56 184.915 4.56C184.403 4.56 183.955 4.688 183.571 4.944C183.198 5.2 182.904 5.54667 182.691 5.984C182.478 6.41067 182.371 6.90133 182.371 7.456V12H181.091ZM199.776 12.144C198.976 12.144 198.288 11.968 197.712 11.616C197.146 11.264 196.714 10.7627 196.416 10.112C196.117 9.46133 195.968 8.704 195.968 7.84C195.968 6.95467 196.117 6.18667 196.416 5.536C196.714 4.87467 197.141 4.368 197.696 4.016C198.25 3.65333 198.928 3.472 199.728 3.472C200.581 3.472 201.285 3.664 201.84 4.048C202.394 4.432 202.794 4.96533 203.04 5.648C203.296 6.33067 203.392 7.12 203.328 8.016H197.232C197.242 8.70933 197.349 9.29067 197.552 9.76C197.765 10.2187 198.058 10.5653 198.432 10.8C198.816 11.024 199.264 11.136 199.776 11.136C200.394 11.136 200.901 10.9813 201.296 10.672C201.69 10.3627 201.941 9.95733 202.048 9.456H203.28C203.216 10.0213 203.018 10.5067 202.688 10.912C202.368 11.3173 201.952 11.6267 201.44 11.84C200.938 12.0427 200.384 12.144 199.776 12.144ZM197.248 7.28L197.104 7.088H202.208L202.064 7.312C202.074 6.64 201.984 6.10133 201.792 5.696C201.6 5.28 201.322 4.976 200.96 4.784C200.608 4.58133 200.197 4.48 199.728 4.48C199.237 4.48 198.81 4.58667 198.448 4.8C198.085 5.01333 197.797 5.328 197.584 5.744C197.381 6.14933 197.269 6.66133 197.248 7.28ZM207.393 12C206.977 12 206.646 11.9413 206.401 11.824C206.166 11.7067 205.996 11.5307 205.889 11.296C205.793 11.0507 205.745 10.752 205.745 10.4V4.672H204.113V3.6H205.745V1.088L207.041 0.912V3.6H208.993V4.672H207.041V10.176C207.041 10.4747 207.094 10.672 207.201 10.768C207.308 10.864 207.505 10.912 207.793 10.912H208.993V12H207.393ZM219.461 12.144C218.607 12.144 217.834 12.0053 217.141 11.728C216.447 11.44 215.85 11.0347 215.349 10.512C214.858 9.98933 214.479 9.36533 214.213 8.64C213.946 7.904 213.813 7.08267 213.813 6.176C213.813 5.25867 213.946 4.43733 214.213 3.712C214.479 2.976 214.863 2.34667 215.365 1.824C215.866 1.30133 216.458 0.901333 217.141 0.624C217.834 0.346666 218.607 0.207999 219.461 0.207999C220.399 0.207999 221.237 0.373333 221.973 0.704C222.719 1.024 223.327 1.48267 223.797 2.08C224.277 2.67733 224.575 3.38133 224.693 4.192H223.301C223.194 3.648 222.97 3.168 222.629 2.752C222.287 2.336 221.85 2.01067 221.317 1.776C220.783 1.53067 220.165 1.408 219.461 1.408C218.597 1.408 217.845 1.6 217.205 1.984C216.565 2.368 216.074 2.91733 215.733 3.632C215.391 4.336 215.221 5.184 215.221 6.176C215.221 6.912 215.317 7.57867 215.509 8.176C215.711 8.76267 215.994 9.264 216.357 9.68C216.73 10.0853 217.178 10.4 217.701 10.624C218.223 10.8373 218.81 10.944 219.461 10.944C220.154 10.944 220.767 10.8267 221.301 10.592C221.845 10.3573 222.287 10.0267 222.629 9.6C222.981 9.17333 223.205 8.672 223.301 8.096L224.693 8.112C224.597 8.92267 224.314 9.632 223.845 10.24C223.375 10.848 222.762 11.3173 222.005 11.648C221.258 11.9787 220.41 12.144 219.461 12.144ZM230.172 12.144C229.564 12.144 229.01 12.0427 228.508 11.84C228.018 11.6373 227.591 11.344 227.228 10.96C226.876 10.576 226.599 10.1227 226.396 9.6C226.204 9.06667 226.108 8.47467 226.108 7.824C226.108 6.96 226.274 6.20267 226.604 5.552C226.935 4.90133 227.404 4.39467 228.012 4.032C228.631 3.65867 229.351 3.472 230.172 3.472C230.78 3.472 231.33 3.57333 231.82 3.776C232.322 3.968 232.748 4.256 233.1 4.64C233.452 5.024 233.724 5.48267 233.916 6.016C234.108 6.54933 234.204 7.14667 234.204 7.808C234.204 8.66133 234.039 9.41333 233.708 10.064C233.388 10.7147 232.924 11.2267 232.316 11.6C231.708 11.9627 230.994 12.144 230.172 12.144ZM230.172 11.024C230.716 11.024 231.191 10.9013 231.596 10.656C232.002 10.4 232.316 10.032 232.54 9.552C232.775 9.06133 232.892 8.48 232.892 7.808C232.892 7.30667 232.828 6.85867 232.7 6.464C232.572 6.05867 232.391 5.71733 232.156 5.44C231.922 5.152 231.639 4.93333 231.308 4.784C230.978 4.63467 230.599 4.56 230.172 4.56C229.628 4.56 229.148 4.69333 228.732 4.96C228.327 5.216 228.007 5.584 227.772 6.064C227.548 6.544 227.436 7.13067 227.436 7.824C227.436 8.31467 227.495 8.76267 227.612 9.168C227.74 9.56267 227.922 9.89867 228.156 10.176C228.402 10.4533 228.695 10.6667 229.036 10.816C229.378 10.9547 229.756 11.024 230.172 11.024ZM236.044 12V3.6H237.276L237.324 5.344H237.42C237.676 4.72533 238.071 4.26133 238.604 3.952C239.137 3.632 239.719 3.472 240.348 3.472C240.785 3.472 241.185 3.536 241.548 3.664C241.921 3.792 242.241 4 242.508 4.288C242.785 4.576 242.999 4.94933 243.148 5.408C243.297 5.856 243.372 6.40533 243.372 7.056V12H242.076V7.312C242.076 6.68267 241.996 6.16533 241.836 5.76C241.687 5.35467 241.452 5.056 241.132 4.864C240.823 4.66133 240.423 4.56 239.932 4.56C239.409 4.56 238.951 4.688 238.556 4.944C238.161 5.2 237.857 5.54667 237.644 5.984C237.431 6.41067 237.324 6.90133 237.324 7.456V12H236.044ZM248.548 12.16C247.833 12.16 247.214 12.0427 246.692 11.808C246.18 11.5733 245.785 11.248 245.508 10.832C245.241 10.416 245.108 9.93067 245.108 9.376H246.404C246.404 9.99467 246.601 10.4533 246.996 10.752C247.401 11.04 247.929 11.184 248.58 11.184C249.23 11.184 249.726 11.0613 250.068 10.816C250.42 10.5707 250.596 10.224 250.596 9.776C250.596 9.43467 250.521 9.17333 250.372 8.992C250.222 8.8 249.993 8.65067 249.684 8.544C249.374 8.43733 248.969 8.34667 248.468 8.272C247.774 8.176 247.193 8.04267 246.724 7.872C246.265 7.70133 245.918 7.46133 245.684 7.152C245.46 6.832 245.348 6.416 245.348 5.904C245.348 5.41333 245.481 4.98667 245.748 4.624C246.014 4.25067 246.388 3.96267 246.868 3.76C247.348 3.54667 247.908 3.44 248.548 3.44C249.22 3.44 249.79 3.552 250.26 3.776C250.74 3.98933 251.102 4.29333 251.348 4.688C251.604 5.072 251.737 5.53067 251.748 6.064H250.484C250.473 5.66933 250.382 5.35467 250.212 5.12C250.052 4.88533 249.828 4.71467 249.54 4.608C249.262 4.49067 248.926 4.432 248.532 4.432C247.934 4.432 247.47 4.55467 247.14 4.8C246.809 5.04533 246.644 5.37067 246.644 5.776C246.644 6.08533 246.724 6.336 246.884 6.528C247.044 6.70933 247.289 6.85333 247.62 6.96C247.95 7.056 248.377 7.14133 248.9 7.216C249.369 7.28 249.79 7.36533 250.164 7.472C250.537 7.57867 250.852 7.728 251.108 7.92C251.374 8.10133 251.572 8.336 251.7 8.624C251.838 8.90133 251.908 9.248 251.908 9.664C251.908 10.464 251.598 11.0827 250.98 11.52C250.372 11.9467 249.561 12.16 248.548 12.16ZM257.057 12.144C256.257 12.144 255.569 11.968 254.993 11.616C254.428 11.264 253.996 10.7627 253.697 10.112C253.398 9.46133 253.249 8.704 253.249 7.84C253.249 6.95467 253.398 6.18667 253.697 5.536C253.996 4.87467 254.422 4.368 254.977 4.016C255.532 3.65333 256.209 3.472 257.009 3.472C257.862 3.472 258.566 3.664 259.121 4.048C259.676 4.432 260.076 4.96533 260.321 5.648C260.577 6.33067 260.673 7.12 260.609 8.016H254.513C254.524 8.70933 254.63 9.29067 254.833 9.76C255.046 10.2187 255.34 10.5653 255.713 10.8C256.097 11.024 256.545 11.136 257.057 11.136C257.676 11.136 258.182 10.9813 258.577 10.672C258.972 10.3627 259.222 9.95733 259.329 9.456H260.561C260.497 10.0213 260.3 10.5067 259.969 10.912C259.649 11.3173 259.233 11.6267 258.721 11.84C258.22 12.0427 257.665 12.144 257.057 12.144ZM254.529 7.28L254.385 7.088H259.489L259.345 7.312C259.356 6.64 259.265 6.10133 259.073 5.696C258.881 5.28 258.604 4.976 258.241 4.784C257.889 4.58133 257.478 4.48 257.009 4.48C256.518 4.48 256.092 4.58667 255.729 4.8C255.366 5.01333 255.078 5.328 254.865 5.744C254.662 6.14933 254.55 6.66133 254.529 7.28ZM266.047 12.144C265.439 12.144 264.884 12.0427 264.383 11.84C263.892 11.6267 263.471 11.3333 263.119 10.96C262.767 10.576 262.495 10.1227 262.303 9.6C262.111 9.06667 262.015 8.46933 262.015 7.808C262.015 6.944 262.18 6.18667 262.511 5.536C262.852 4.88533 263.327 4.37867 263.935 4.016C264.553 3.65333 265.273 3.472 266.095 3.472C266.756 3.472 267.348 3.59467 267.871 3.84C268.393 4.08533 268.815 4.432 269.135 4.88C269.455 5.31733 269.636 5.82933 269.679 6.416H268.431C268.356 6.01067 268.207 5.67467 267.983 5.408C267.759 5.14133 267.481 4.93867 267.151 4.8C266.82 4.65067 266.457 4.576 266.063 4.576C265.487 4.576 264.996 4.71467 264.591 4.992C264.185 5.25867 263.871 5.63733 263.647 6.128C263.433 6.608 263.327 7.17333 263.327 7.824C263.327 8.496 263.439 9.072 263.663 9.552C263.897 10.032 264.217 10.4 264.623 10.656C265.028 10.912 265.503 11.04 266.047 11.04C266.495 11.04 266.889 10.96 267.231 10.8C267.583 10.6293 267.86 10.3947 268.063 10.096C268.276 9.79733 268.409 9.45067 268.463 9.056H269.727C269.673 9.67467 269.481 10.2187 269.151 10.688C268.831 11.1467 268.404 11.504 267.871 11.76C267.337 12.016 266.729 12.144 266.047 12.144ZM273.737 12C273.321 12 272.99 11.9413 272.745 11.824C272.51 11.7067 272.34 11.5307 272.233 11.296C272.137 11.0507 272.089 10.752 272.089 10.4V4.672H270.457V3.6H272.089V1.088L273.385 0.912V3.6H275.337V4.672H273.385V10.176C273.385 10.4747 273.438 10.672 273.545 10.768C273.652 10.864 273.849 10.912 274.137 10.912H275.337V12H273.737ZM280.01 12.144C279.21 12.144 278.522 11.968 277.946 11.616C277.381 11.264 276.949 10.7627 276.65 10.112C276.351 9.46133 276.202 8.704 276.202 7.84C276.202 6.95467 276.351 6.18667 276.65 5.536C276.949 4.87467 277.375 4.368 277.93 4.016C278.485 3.65333 279.162 3.472 279.962 3.472C280.815 3.472 281.519 3.664 282.074 4.048C282.629 4.432 283.029 4.96533 283.274 5.648C283.53 6.33067 283.626 7.12 283.562 8.016H277.466C277.477 8.70933 277.583 9.29067 277.786 9.76C277.999 10.2187 278.293 10.5653 278.666 10.8C279.05 11.024 279.498 11.136 280.01 11.136C280.629 11.136 281.135 10.9813 281.53 10.672C281.925 10.3627 282.175 9.95733 282.282 9.456H283.514C283.45 10.0213 283.253 10.5067 282.922 10.912C282.602 11.3173 282.186 11.6267 281.674 11.84C281.173 12.0427 280.618 12.144 280.01 12.144ZM277.482 7.28L277.338 7.088H282.442L282.298 7.312C282.309 6.64 282.218 6.10133 282.026 5.696C281.834 5.28 281.557 4.976 281.194 4.784C280.842 4.58133 280.431 4.48 279.962 4.48C279.471 4.48 279.045 4.58667 278.682 4.8C278.319 5.01333 278.031 5.328 277.818 5.744C277.615 6.14933 277.503 6.66133 277.482 7.28ZM287.628 12C287.212 12 286.881 11.9413 286.636 11.824C286.401 11.7067 286.23 11.5307 286.124 11.296C286.028 11.0507 285.98 10.752 285.98 10.4V4.672H284.348V3.6H285.98V1.088L287.276 0.912V3.6H289.228V4.672H287.276V10.176C287.276 10.4747 287.329 10.672 287.436 10.768C287.542 10.864 287.74 10.912 288.028 10.912H289.228V12H287.628ZM293.895 12.144C293.276 12.144 292.737 12.0213 292.279 11.776C291.82 11.52 291.468 11.1413 291.223 10.64C290.977 10.128 290.855 9.49867 290.855 8.752V3.6H292.151V8.432C292.151 8.98667 292.225 9.46133 292.375 9.856C292.524 10.24 292.759 10.5333 293.079 10.736C293.409 10.9387 293.831 11.04 294.343 11.04C294.844 11.04 295.287 10.9173 295.671 10.672C296.055 10.4267 296.353 10.08 296.567 9.632C296.78 9.184 296.887 8.66667 296.887 8.08V3.6H298.183V12H296.951L296.887 10.208H296.807C296.583 10.8053 296.209 11.28 295.687 11.632C295.164 11.9733 294.567 12.144 293.895 12.144ZM300.529 12V3.6H301.681L301.761 5.152H301.825C302.006 4.61867 302.326 4.208 302.785 3.92C303.243 3.632 303.755 3.488 304.321 3.488C304.417 3.488 304.507 3.49333 304.593 3.504C304.678 3.504 304.758 3.50933 304.833 3.52V4.752C304.758 4.74133 304.678 4.736 304.593 4.736C304.507 4.72533 304.417 4.72 304.321 4.72C303.83 4.72 303.403 4.81067 303.041 4.992C302.678 5.17333 302.39 5.43467 302.177 5.776C301.974 6.10667 301.851 6.512 301.809 6.992V12H300.529ZM304.131 12V10.56H305.459V12H304.131ZM316.415 12.144C315.562 12.144 314.783 12.0053 314.079 11.728C313.386 11.4507 312.783 11.0507 312.271 10.528C311.77 10.0053 311.386 9.376 311.119 8.64C310.852 7.904 310.719 7.08267 310.719 6.176C310.719 5.25867 310.852 4.432 311.119 3.696C311.396 2.96 311.786 2.336 312.287 1.824C312.788 1.30133 313.386 0.901333 314.079 0.624C314.783 0.346666 315.562 0.207999 316.415 0.207999C317.279 0.207999 318.058 0.346666 318.751 0.624C319.455 0.901333 320.058 1.30133 320.559 1.824C321.06 2.34667 321.444 2.976 321.711 3.712C321.988 4.43733 322.127 5.25867 322.127 6.176C322.127 7.09333 321.988 7.92 321.711 8.656C321.444 9.392 321.055 10.0213 320.543 10.544C320.042 11.056 319.439 11.4507 318.735 11.728C318.042 12.0053 317.268 12.144 316.415 12.144ZM316.415 10.944C317.3 10.944 318.063 10.752 318.703 10.368C319.343 9.97333 319.839 9.424 320.191 8.72C320.543 8.00533 320.719 7.15733 320.719 6.176C320.719 5.42933 320.618 4.76267 320.415 4.176C320.212 3.58933 319.924 3.09333 319.551 2.688C319.178 2.272 318.724 1.95733 318.191 1.744C317.668 1.52 317.076 1.408 316.415 1.408C315.53 1.408 314.767 1.6 314.127 1.984C313.498 2.368 313.007 2.91733 312.655 3.632C312.303 4.336 312.127 5.184 312.127 6.176C312.127 6.912 312.228 7.57867 312.431 8.176C312.634 8.76267 312.916 9.264 313.279 9.68C313.652 10.0853 314.1 10.4 314.623 10.624C315.156 10.8373 315.754 10.944 316.415 10.944ZM323.997 12V3.6H325.149L325.229 5.152H325.293C325.475 4.61867 325.795 4.208 326.253 3.92C326.712 3.632 327.224 3.488 327.789 3.488C327.885 3.488 327.976 3.49333 328.061 3.504C328.147 3.504 328.227 3.50933 328.301 3.52V4.752C328.227 4.74133 328.147 4.736 328.061 4.736C327.976 4.72533 327.885 4.72 327.789 4.72C327.299 4.72 326.872 4.81067 326.509 4.992C326.147 5.17333 325.859 5.43467 325.645 5.776C325.443 6.10667 325.32 6.512 325.277 6.992V12H323.997ZM329.825 12V3.6H331.057L331.105 5.344H331.201C331.457 4.72533 331.852 4.26133 332.385 3.952C332.919 3.632 333.5 3.472 334.129 3.472C334.567 3.472 334.967 3.536 335.329 3.664C335.703 3.792 336.023 4 336.289 4.288C336.567 4.576 336.78 4.94933 336.929 5.408C337.079 5.856 337.153 6.40533 337.153 7.056V12H335.857V7.312C335.857 6.68267 335.777 6.16533 335.617 5.76C335.468 5.35467 335.233 5.056 334.913 4.864C334.604 4.66133 334.204 4.56 333.713 4.56C333.191 4.56 332.732 4.688 332.337 4.944C331.943 5.2 331.639 5.54667 331.425 5.984C331.212 6.41067 331.105 6.90133 331.105 7.456V12H329.825ZM342.377 12.144C341.865 12.144 341.396 12.048 340.969 11.856C340.553 11.6533 340.19 11.3707 339.881 11.008C339.572 10.6347 339.332 10.1813 339.161 9.648C339.001 9.104 338.921 8.48533 338.921 7.792C338.921 6.87467 339.065 6.09067 339.353 5.44C339.652 4.78933 340.057 4.29867 340.569 3.968C341.092 3.62667 341.694 3.456 342.377 3.456C342.868 3.456 343.31 3.536 343.705 3.696C344.11 3.84533 344.452 4.064 344.729 4.352C345.006 4.62933 345.214 4.96 345.353 5.344H345.433L345.481 3.6H346.729V12H345.433V10.24H345.353C345.14 10.8053 344.777 11.264 344.265 11.616C343.753 11.968 343.124 12.144 342.377 12.144ZM342.809 11.056C343.374 11.056 343.849 10.9227 344.233 10.656C344.617 10.3893 344.91 10.048 345.113 9.632C345.316 9.216 345.417 8.77333 345.417 8.304V7.28C345.417 6.81067 345.316 6.368 345.113 5.952C344.91 5.52533 344.617 5.184 344.233 4.928C343.849 4.66133 343.374 4.528 342.809 4.528C342.297 4.528 341.849 4.656 341.465 4.912C341.081 5.15733 340.782 5.52 340.569 6C340.356 6.48 340.249 7.07733 340.249 7.792C340.249 8.496 340.356 9.09333 340.569 9.584C340.782 10.064 341.081 10.432 341.465 10.688C341.849 10.9333 342.297 11.056 342.809 11.056ZM349.154 12V3.6H350.306L350.386 5.152H350.45C350.631 4.61867 350.951 4.208 351.41 3.92C351.868 3.632 352.38 3.488 352.946 3.488C353.042 3.488 353.132 3.49333 353.218 3.504C353.303 3.504 353.383 3.50933 353.458 3.52V4.752C353.383 4.74133 353.303 4.736 353.218 4.736C353.132 4.72533 353.042 4.72 352.946 4.72C352.455 4.72 352.028 4.81067 351.666 4.992C351.303 5.17333 351.015 5.43467 350.802 5.776C350.599 6.10667 350.476 6.512 350.434 6.992V12H349.154ZM357.885 12.144C357.085 12.144 356.397 11.968 355.821 11.616C355.256 11.264 354.824 10.7627 354.525 10.112C354.226 9.46133 354.077 8.704 354.077 7.84C354.077 6.95467 354.226 6.18667 354.525 5.536C354.824 4.87467 355.25 4.368 355.805 4.016C356.36 3.65333 357.037 3.472 357.837 3.472C358.69 3.472 359.394 3.664 359.949 4.048C360.504 4.432 360.904 4.96533 361.149 5.648C361.405 6.33067 361.501 7.12 361.437 8.016H355.341C355.352 8.70933 355.458 9.29067 355.661 9.76C355.874 10.2187 356.168 10.5653 356.541 10.8C356.925 11.024 357.373 11.136 357.885 11.136C358.504 11.136 359.01 10.9813 359.405 10.672C359.8 10.3627 360.05 9.95733 360.157 9.456H361.389C361.325 10.0213 361.128 10.5067 360.797 10.912C360.477 11.3173 360.061 11.6267 359.549 11.84C359.048 12.0427 358.493 12.144 357.885 12.144ZM355.357 7.28L355.213 7.088H360.317L360.173 7.312C360.184 6.64 360.093 6.10133 359.901 5.696C359.709 5.28 359.432 4.976 359.069 4.784C358.717 4.58133 358.306 4.48 357.837 4.48C357.346 4.48 356.92 4.58667 356.557 4.8C356.194 5.01333 355.906 5.328 355.693 5.744C355.49 6.14933 355.378 6.66133 355.357 7.28ZM367.207 12V0.335999H375.223V1.536H368.263L368.567 1.216V5.792L368.263 5.472H374.439V6.592H368.263L368.567 6.272V11.104L368.263 10.784H375.239V12H367.207ZM379.315 12C378.899 12 378.568 11.9413 378.323 11.824C378.088 11.7067 377.918 11.5307 377.811 11.296C377.715 11.0507 377.667 10.752 377.667 10.4V4.672H376.035V3.6H377.667V1.088L378.963 0.912V3.6H380.915V4.672H378.963V10.176C378.963 10.4747 379.016 10.672 379.123 10.768C379.23 10.864 379.427 10.912 379.715 10.912H380.915V12H379.315ZM385.127 12L389.399 0.335999H391.303L395.575 12H394.151L393.095 9.12H387.607L386.567 12H385.127ZM387.959 8.032H392.743L391.303 4.128L390.407 1.616H390.327L389.415 4.128L387.959 8.032ZM396.841 12V3.6H398.073L398.121 5.344H398.217C398.462 4.72533 398.846 4.26133 399.369 3.952C399.892 3.632 400.468 3.472 401.097 3.472C401.737 3.472 402.302 3.62667 402.793 3.936C403.284 4.24533 403.636 4.76267 403.849 5.488H403.977C404.222 4.816 404.617 4.31467 405.161 3.984C405.716 3.64267 406.334 3.472 407.017 3.472C407.582 3.472 408.084 3.58933 408.521 3.824C408.969 4.05867 409.321 4.44267 409.577 4.976C409.833 5.49867 409.961 6.192 409.961 7.056V12H408.681V7.312C408.681 6.68267 408.601 6.16533 408.441 5.76C408.292 5.35467 408.062 5.056 407.753 4.864C407.454 4.66133 407.06 4.56 406.569 4.56C406.068 4.56 405.625 4.688 405.241 4.944C404.868 5.2 404.574 5.54667 404.361 5.984C404.158 6.41067 404.057 6.90133 404.057 7.456V12H402.745V7.312C402.745 6.68267 402.67 6.16533 402.521 5.76C402.372 5.35467 402.142 5.056 401.833 4.864C401.534 4.66133 401.145 4.56 400.665 4.56C400.153 4.56 399.705 4.688 399.321 4.944C398.948 5.2 398.654 5.54667 398.441 5.984C398.228 6.41067 398.121 6.90133 398.121 7.456V12H396.841ZM415.526 12.144C414.726 12.144 414.038 11.968 413.462 11.616C412.896 11.264 412.464 10.7627 412.166 10.112C411.867 9.46133 411.718 8.704 411.718 7.84C411.718 6.95467 411.867 6.18667 412.166 5.536C412.464 4.87467 412.891 4.368 413.446 4.016C414 3.65333 414.678 3.472 415.478 3.472C416.331 3.472 417.035 3.664 417.59 4.048C418.144 4.432 418.544 4.96533 418.79 5.648C419.046 6.33067 419.142 7.12 419.078 8.016H412.982C412.992 8.70933 413.099 9.29067 413.302 9.76C413.515 10.2187 413.808 10.5653 414.182 10.8C414.566 11.024 415.014 11.136 415.526 11.136C416.144 11.136 416.651 10.9813 417.046 10.672C417.44 10.3627 417.691 9.95733 417.798 9.456H419.03C418.966 10.0213 418.768 10.5067 418.438 10.912C418.118 11.3173 417.702 11.6267 417.19 11.84C416.688 12.0427 416.134 12.144 415.526 12.144ZM412.998 7.28L412.854 7.088H417.958L417.814 7.312C417.824 6.64 417.734 6.10133 417.542 5.696C417.35 5.28 417.072 4.976 416.71 4.784C416.358 4.58133 415.947 4.48 415.478 4.48C414.987 4.48 414.56 4.58667 414.198 4.8C413.835 5.01333 413.547 5.328 413.334 5.744C413.131 6.14933 413.019 6.66133 412.998 7.28ZM423.143 12C422.727 12 422.396 11.9413 422.151 11.824C421.916 11.7067 421.746 11.5307 421.639 11.296C421.543 11.0507 421.495 10.752 421.495 10.4V4.672H419.863V3.6H421.495V1.088L422.791 0.912V3.6H424.743V4.672H422.791V10.176C422.791 10.4747 422.844 10.672 422.951 10.768C423.058 10.864 423.255 10.912 423.543 10.912H424.743V12H423.143ZM430.379 12V0.335999H431.739V11.136L431.419 10.752H437.499V12H430.379ZM442.141 12.144C441.533 12.144 440.978 12.0427 440.477 11.84C439.986 11.6373 439.56 11.344 439.197 10.96C438.845 10.576 438.568 10.1227 438.365 9.6C438.173 9.06667 438.077 8.47467 438.077 7.824C438.077 6.96 438.242 6.20267 438.573 5.552C438.904 4.90133 439.373 4.39467 439.981 4.032C440.6 3.65867 441.32 3.472 442.141 3.472C442.749 3.472 443.298 3.57333 443.789 3.776C444.29 3.968 444.717 4.256 445.069 4.64C445.421 5.024 445.693 5.48267 445.885 6.016C446.077 6.54933 446.173 7.14667 446.173 7.808C446.173 8.66133 446.008 9.41333 445.677 10.064C445.357 10.7147 444.893 11.2267 444.285 11.6C443.677 11.9627 442.962 12.144 442.141 12.144ZM442.141 11.024C442.685 11.024 443.16 10.9013 443.565 10.656C443.97 10.4 444.285 10.032 444.509 9.552C444.744 9.06133 444.861 8.48 444.861 7.808C444.861 7.30667 444.797 6.85867 444.669 6.464C444.541 6.05867 444.36 5.71733 444.125 5.44C443.89 5.152 443.608 4.93333 443.277 4.784C442.946 4.63467 442.568 4.56 442.141 4.56C441.597 4.56 441.117 4.69333 440.701 4.96C440.296 5.216 439.976 5.584 439.741 6.064C439.517 6.544 439.405 7.13067 439.405 7.824C439.405 8.31467 439.464 8.76267 439.581 9.168C439.709 9.56267 439.89 9.89867 440.125 10.176C440.37 10.4533 440.664 10.6667 441.005 10.816C441.346 10.9547 441.725 11.024 442.141 11.024ZM452.349 12.144C451.869 12.144 451.426 12.0693 451.021 11.92C450.626 11.76 450.29 11.536 450.013 11.248C449.746 10.96 449.538 10.6293 449.389 10.256H449.309L449.261 12H448.013V0.335999H449.309V5.344H449.389C449.602 4.77867 449.965 4.32533 450.477 3.984C450.989 3.632 451.613 3.456 452.349 3.456C452.872 3.456 453.341 3.552 453.757 3.744C454.184 3.936 454.552 4.21867 454.861 4.592C455.17 4.96533 455.405 5.424 455.565 5.968C455.736 6.50133 455.821 7.11467 455.821 7.808C455.821 8.72533 455.672 9.50933 455.373 10.16C455.085 10.8 454.68 11.2907 454.157 11.632C453.645 11.9733 453.042 12.144 452.349 12.144ZM451.933 11.056C452.445 11.056 452.893 10.9333 453.277 10.688C453.661 10.4427 453.96 10.08 454.173 9.6C454.386 9.10933 454.493 8.512 454.493 7.808C454.493 7.27467 454.429 6.80533 454.301 6.4C454.184 5.99467 454.013 5.65333 453.789 5.376C453.565 5.09867 453.293 4.89067 452.973 4.752C452.664 4.61333 452.317 4.544 451.933 4.544C451.368 4.544 450.888 4.67733 450.493 4.944C450.109 5.2 449.816 5.54133 449.613 5.968C449.421 6.384 449.325 6.82667 449.325 7.296V8.304C449.325 8.77333 449.421 9.22133 449.613 9.648C449.816 10.064 450.109 10.4053 450.493 10.672C450.888 10.928 451.368 11.056 451.933 11.056ZM461.282 12.144C460.674 12.144 460.119 12.0427 459.618 11.84C459.127 11.6373 458.7 11.344 458.338 10.96C457.986 10.576 457.708 10.1227 457.506 9.6C457.314 9.06667 457.218 8.47467 457.218 7.824C457.218 6.96 457.383 6.20267 457.714 5.552C458.044 4.90133 458.514 4.39467 459.122 4.032C459.74 3.65867 460.46 3.472 461.282 3.472C461.89 3.472 462.439 3.57333 462.93 3.776C463.431 3.968 463.858 4.256 464.21 4.64C464.562 5.024 464.834 5.48267 465.026 6.016C465.218 6.54933 465.314 7.14667 465.314 7.808C465.314 8.66133 465.148 9.41333 464.818 10.064C464.498 10.7147 464.034 11.2267 463.426 11.6C462.818 11.9627 462.103 12.144 461.282 12.144ZM461.282 11.024C461.826 11.024 462.3 10.9013 462.706 10.656C463.111 10.4 463.426 10.032 463.65 9.552C463.884 9.06133 464.002 8.48 464.002 7.808C464.002 7.30667 463.938 6.85867 463.81 6.464C463.682 6.05867 463.5 5.71733 463.266 5.44C463.031 5.152 462.748 4.93333 462.418 4.784C462.087 4.63467 461.708 4.56 461.282 4.56C460.738 4.56 460.258 4.69333 459.842 4.96C459.436 5.216 459.116 5.584 458.882 6.064C458.658 6.544 458.546 7.13067 458.546 7.824C458.546 8.31467 458.604 8.76267 458.722 9.168C458.85 9.56267 459.031 9.89867 459.266 10.176C459.511 10.4533 459.804 10.6667 460.146 10.816C460.487 10.9547 460.866 11.024 461.282 11.024ZM467.154 12V3.6H468.306L468.386 5.152H468.45C468.631 4.61867 468.951 4.208 469.41 3.92C469.868 3.632 470.38 3.488 470.946 3.488C471.042 3.488 471.132 3.49333 471.218 3.504C471.303 3.504 471.383 3.50933 471.458 3.52V4.752C471.383 4.74133 471.303 4.736 471.218 4.736C471.132 4.72533 471.042 4.72 470.946 4.72C470.455 4.72 470.028 4.81067 469.666 4.992C469.303 5.17333 469.015 5.43467 468.802 5.776C468.599 6.10667 468.476 6.512 468.434 6.992V12H467.154ZM475.565 12C475.149 12 474.818 11.9413 474.573 11.824C474.338 11.7067 474.168 11.5307 474.061 11.296C473.965 11.0507 473.917 10.752 473.917 10.4V4.672H472.285V3.6H473.917V1.088L475.213 0.912V3.6H477.165V4.672H475.213V10.176C475.213 10.4747 475.266 10.672 475.373 10.768C475.48 10.864 475.677 10.912 475.965 10.912H477.165V12H475.565ZM478.872 12V3.6H480.168V12H478.872ZM478.872 2.208V0.335999H480.168V2.208H478.872ZM485.407 12.16C484.692 12.16 484.074 12.0427 483.551 11.808C483.039 11.5733 482.644 11.248 482.367 10.832C482.1 10.416 481.967 9.93067 481.967 9.376H483.263C483.263 9.99467 483.46 10.4533 483.855 10.752C484.26 11.04 484.788 11.184 485.439 11.184C486.09 11.184 486.586 11.0613 486.927 10.816C487.279 10.5707 487.455 10.224 487.455 9.776C487.455 9.43467 487.38 9.17333 487.231 8.992C487.082 8.8 486.852 8.65067 486.543 8.544C486.234 8.43733 485.828 8.34667 485.327 8.272C484.634 8.176 484.052 8.04267 483.583 7.872C483.124 7.70133 482.778 7.46133 482.543 7.152C482.319 6.832 482.207 6.416 482.207 5.904C482.207 5.41333 482.34 4.98667 482.607 4.624C482.874 4.25067 483.247 3.96267 483.727 3.76C484.207 3.54667 484.767 3.44 485.407 3.44C486.079 3.44 486.65 3.552 487.119 3.776C487.599 3.98933 487.962 4.29333 488.207 4.688C488.463 5.072 488.596 5.53067 488.607 6.064H487.343C487.332 5.66933 487.242 5.35467 487.071 5.12C486.911 4.88533 486.687 4.71467 486.399 4.608C486.122 4.49067 485.786 4.432 485.391 4.432C484.794 4.432 484.33 4.55467 483.999 4.8C483.668 5.04533 483.503 5.37067 483.503 5.776C483.503 6.08533 483.583 6.336 483.743 6.528C483.903 6.70933 484.148 6.85333 484.479 6.96C484.81 7.056 485.236 7.14133 485.759 7.216C486.228 7.28 486.65 7.36533 487.023 7.472C487.396 7.57867 487.711 7.728 487.967 7.92C488.234 8.10133 488.431 8.336 488.559 8.624C488.698 8.90133 488.767 9.248 488.767 9.664C488.767 10.464 488.458 11.0827 487.839 11.52C487.231 11.9467 486.42 12.16 485.407 12.16ZM6.368 36.144C5.51467 36.144 4.736 36.0053 4.032 35.728C3.33867 35.4507 2.736 35.0507 2.224 34.528C1.72267 34.0053 1.33867 33.376 1.072 32.64C0.805333 31.904 0.672 31.0827 0.672 30.176C0.672 29.2587 0.805333 28.432 1.072 27.696C1.34933 26.96 1.73867 26.336 2.24 25.824C2.74133 25.3013 3.33867 24.9013 4.032 24.624C4.736 24.3467 5.51467 24.208 6.368 24.208C7.232 24.208 8.01067 24.3467 8.704 24.624C9.408 24.9013 10.0107 25.3013 10.512 25.824C11.0133 26.3467 11.3973 26.976 11.664 27.712C11.9413 28.4373 12.08 29.2587 12.08 30.176C12.08 31.0933 11.9413 31.92 11.664 32.656C11.3973 33.392 11.008 34.0213 10.496 34.544C9.99467 35.056 9.392 35.4507 8.688 35.728C7.99467 36.0053 7.22133 36.144 6.368 36.144ZM6.368 34.944C7.25333 34.944 8.016 34.752 8.656 34.368C9.296 33.9733 9.792 33.424 10.144 32.72C10.496 32.0053 10.672 31.1573 10.672 30.176C10.672 29.4293 10.5707 28.7627 10.368 28.176C10.1653 27.5893 9.87733 27.0933 9.504 26.688C9.13067 26.272 8.67733 25.9573 8.144 25.744C7.62133 25.52 7.02933 25.408 6.368 25.408C5.48267 25.408 4.72 25.6 4.08 25.984C3.45067 26.368 2.96 26.9173 2.608 27.632C2.256 28.336 2.08 29.184 2.08 30.176C2.08 30.912 2.18133 31.5787 2.384 32.176C2.58667 32.7627 2.86933 33.264 3.232 33.68C3.60533 34.0853 4.05333 34.4 4.576 34.624C5.10933 34.8373 5.70667 34.944 6.368 34.944ZM13.9504 36V27.6H15.1024L15.1824 29.152H15.2464C15.4277 28.6187 15.7477 28.208 16.2064 27.92C16.665 27.632 17.177 27.488 17.7424 27.488C17.8384 27.488 17.929 27.4933 18.0144 27.504C18.0997 27.504 18.1797 27.5093 18.2544 27.52V28.752C18.1797 28.7413 18.0997 28.736 18.0144 28.736C17.929 28.7253 17.8384 28.72 17.7424 28.72C17.2517 28.72 16.825 28.8107 16.4624 28.992C16.0997 29.1733 15.8117 29.4347 15.5984 29.776C15.3957 30.1067 15.273 30.512 15.2304 30.992V36H13.9504ZM19.7785 36V27.6H21.0105L21.0585 29.344H21.1545C21.4105 28.7253 21.8052 28.2613 22.3385 27.952C22.8718 27.632 23.4532 27.472 24.0825 27.472C24.5198 27.472 24.9198 27.536 25.2825 27.664C25.6558 27.792 25.9758 28 26.2425 28.288C26.5198 28.576 26.7332 28.9493 26.8825 29.408C27.0318 29.856 27.1065 30.4053 27.1065 31.056V36H25.8105V31.312C25.8105 30.6827 25.7305 30.1653 25.5705 29.76C25.4212 29.3547 25.1865 29.056 24.8665 28.864C24.5572 28.6613 24.1572 28.56 23.6665 28.56C23.1438 28.56 22.6852 28.688 22.2905 28.944C21.8958 29.2 21.5918 29.5467 21.3785 29.984C21.1652 30.4107 21.0585 30.9013 21.0585 31.456V36H19.7785ZM32.33 36.144C31.818 36.144 31.3487 36.048 30.922 35.856C30.506 35.6533 30.1433 35.3707 29.834 35.008C29.5247 34.6347 29.2847 34.1813 29.114 33.648C28.954 33.104 28.874 32.4853 28.874 31.792C28.874 30.8747 29.018 30.0907 29.306 29.44C29.6047 28.7893 30.01 28.2987 30.522 27.968C31.0447 27.6267 31.6473 27.456 32.33 27.456C32.8207 27.456 33.2633 27.536 33.658 27.696C34.0633 27.8453 34.4047 28.064 34.682 28.352C34.9593 28.6293 35.1673 28.96 35.306 29.344H35.386L35.434 27.6H36.682V36H35.386V34.24H35.306C35.0927 34.8053 34.73 35.264 34.218 35.616C33.706 35.968 33.0767 36.144 32.33 36.144ZM32.762 35.056C33.3273 35.056 33.802 34.9227 34.186 34.656C34.57 34.3893 34.8633 34.048 35.066 33.632C35.2687 33.216 35.37 32.7733 35.37 32.304V31.28C35.37 30.8107 35.2687 30.368 35.066 29.952C34.8633 29.5253 34.57 29.184 34.186 28.928C33.802 28.6613 33.3273 28.528 32.762 28.528C32.25 28.528 31.802 28.656 31.418 28.912C31.034 29.1573 30.7353 29.52 30.522 30C30.3087 30.48 30.202 31.0773 30.202 31.792C30.202 32.496 30.3087 33.0933 30.522 33.584C30.7353 34.064 31.034 34.432 31.418 34.688C31.802 34.9333 32.25 35.056 32.762 35.056ZM39.1066 36V27.6H40.2586L40.3386 29.152H40.4026C40.584 28.6187 40.904 28.208 41.3626 27.92C41.8213 27.632 42.3333 27.488 42.8986 27.488C42.9946 27.488 43.0853 27.4933 43.1706 27.504C43.256 27.504 43.336 27.5093 43.4106 27.52V28.752C43.336 28.7413 43.256 28.736 43.1706 28.736C43.0853 28.7253 42.9946 28.72 42.8986 28.72C42.408 28.72 41.9813 28.8107 41.6186 28.992C41.256 29.1733 40.968 29.4347 40.7546 29.776C40.552 30.1067 40.4293 30.512 40.3866 30.992V36H39.1066ZM47.8383 36.144C47.0383 36.144 46.3503 35.968 45.7743 35.616C45.2089 35.264 44.7769 34.7627 44.4783 34.112C44.1796 33.4613 44.0303 32.704 44.0303 31.84C44.0303 30.9547 44.1796 30.1867 44.4783 29.536C44.7769 28.8747 45.2036 28.368 45.7582 28.016C46.3129 27.6533 46.9903 27.472 47.7903 27.472C48.6436 27.472 49.3476 27.664 49.9023 28.048C50.4569 28.432 50.8569 28.9653 51.1023 29.648C51.3583 30.3307 51.4543 31.12 51.3903 32.016H45.2943C45.3049 32.7093 45.4116 33.2907 45.6143 33.76C45.8276 34.2187 46.1209 34.5653 46.4943 34.8C46.8783 35.024 47.3263 35.136 47.8383 35.136C48.4569 35.136 48.9636 34.9813 49.3583 34.672C49.7529 34.3627 50.0036 33.9573 50.1103 33.456H51.3423C51.2783 34.0213 51.0809 34.5067 50.7503 34.912C50.4303 35.3173 50.0143 35.6267 49.5023 35.84C49.0009 36.0427 48.4463 36.144 47.8383 36.144ZM45.3103 31.28L45.1663 31.088H50.2703L50.1263 31.312C50.1369 30.64 50.0463 30.1013 49.8543 29.696C49.6623 29.28 49.3849 28.976 49.0223 28.784C48.6703 28.5813 48.2596 28.48 47.7903 28.48C47.2996 28.48 46.8729 28.5867 46.5103 28.8C46.1476 29.0133 45.8596 29.328 45.6463 29.744C45.4436 30.1493 45.3316 30.6613 45.3103 31.28ZM52.9436 36V34.56H54.2716V36H52.9436ZM64.9234 36.144C63.9527 36.144 63.1154 35.968 62.4114 35.616C61.718 35.2533 61.1847 34.7467 60.8114 34.096C60.438 33.4347 60.2514 32.6453 60.2514 31.728V24.336H61.6114V31.696C61.6114 32.4107 61.7447 33.008 62.0114 33.488C62.2887 33.9573 62.6727 34.3093 63.1634 34.544C63.6647 34.7787 64.2567 34.896 64.9394 34.896C65.686 34.896 66.3047 34.768 66.7954 34.512C67.286 34.2453 67.6487 33.872 67.8834 33.392C68.1287 32.912 68.2514 32.3467 68.2514 31.696V24.336H69.5954V31.728C69.5954 32.624 69.414 33.4027 69.0514 34.064C68.6887 34.7253 68.1554 35.2373 67.4514 35.6C66.758 35.9627 65.9154 36.144 64.9234 36.144ZM72.216 36V24.336H73.512V36H72.216ZM75.9504 36V24.336H77.2464V36H75.9504ZM82.5488 36.144C82.0368 36.144 81.5674 36.048 81.1408 35.856C80.7248 35.6533 80.3621 35.3707 80.0528 35.008C79.7434 34.6347 79.5034 34.1813 79.3328 33.648C79.1728 33.104 79.0928 32.4853 79.0928 31.792C79.0928 30.8747 79.2368 30.0907 79.5247 29.44C79.8234 28.7893 80.2288 28.2987 80.7408 27.968C81.2634 27.6267 81.8661 27.456 82.5488 27.456C83.0394 27.456 83.4821 27.536 83.8768 27.696C84.2821 27.8453 84.6234 28.064 84.9008 28.352C85.1781 28.6293 85.3861 28.96 85.5248 29.344H85.6048L85.6528 27.6H86.9008V36H85.6048V34.24H85.5248C85.3114 34.8053 84.9488 35.264 84.4368 35.616C83.9248 35.968 83.2954 36.144 82.5488 36.144ZM82.9808 35.056C83.5461 35.056 84.0208 34.9227 84.4048 34.656C84.7888 34.3893 85.0821 34.048 85.2848 33.632C85.4874 33.216 85.5888 32.7733 85.5888 32.304V31.28C85.5888 30.8107 85.4874 30.368 85.2848 29.952C85.0821 29.5253 84.7888 29.184 84.4048 28.928C84.0208 28.6613 83.5461 28.528 82.9808 28.528C82.4688 28.528 82.0208 28.656 81.6368 28.912C81.2528 29.1573 80.9541 29.52 80.7408 30C80.5274 30.48 80.4208 31.0773 80.4208 31.792C80.4208 32.496 80.5274 33.0933 80.7408 33.584C80.9541 34.064 81.2528 34.432 81.6368 34.688C82.0208 34.9333 82.4688 35.056 82.9808 35.056ZM89.3254 36V27.6H90.5574L90.6054 29.344H90.7014C90.9467 28.7253 91.3307 28.2613 91.8534 27.952C92.376 27.632 92.952 27.472 93.5814 27.472C94.2214 27.472 94.7867 27.6267 95.2774 27.936C95.768 28.2453 96.12 28.7627 96.3334 29.488H96.4614C96.7067 28.816 97.1014 28.3147 97.6454 27.984C98.2 27.6427 98.8187 27.472 99.5014 27.472C100.067 27.472 100.568 27.5893 101.005 27.824C101.453 28.0587 101.805 28.4427 102.061 28.976C102.317 29.4987 102.445 30.192 102.445 31.056V36H101.165V31.312C101.165 30.6827 101.085 30.1653 100.925 29.76C100.776 29.3547 100.547 29.056 100.237 28.864C99.9387 28.6613 99.544 28.56 99.0534 28.56C98.552 28.56 98.1094 28.688 97.7254 28.944C97.352 29.2 97.0587 29.5467 96.8454 29.984C96.6427 30.4107 96.5414 30.9013 96.5414 31.456V36H95.2294V31.312C95.2294 30.6827 95.1547 30.1653 95.0054 29.76C94.856 29.3547 94.6267 29.056 94.3174 28.864C94.0187 28.6613 93.6294 28.56 93.1494 28.56C92.6374 28.56 92.1894 28.688 91.8054 28.944C91.432 29.2 91.1387 29.5467 90.9254 29.984C90.712 30.4107 90.6054 30.9013 90.6054 31.456V36H89.3254ZM108.234 36.144C107.626 36.144 107.071 36.0427 106.57 35.84C106.079 35.6267 105.658 35.3333 105.306 34.96C104.954 34.576 104.682 34.1227 104.49 33.6C104.298 33.0667 104.202 32.4693 104.202 31.808C104.202 30.944 104.367 30.1867 104.698 29.536C105.039 28.8853 105.514 28.3787 106.122 28.016C106.741 27.6533 107.461 27.472 108.282 27.472C108.943 27.472 109.535 27.5947 110.058 27.84C110.581 28.0853 111.002 28.432 111.322 28.88C111.642 29.3173 111.823 29.8293 111.866 30.416H110.618C110.543 30.0107 110.394 29.6747 110.17 29.408C109.946 29.1413 109.669 28.9387 109.338 28.8C109.007 28.6507 108.645 28.576 108.25 28.576C107.674 28.576 107.183 28.7147 106.778 28.992C106.373 29.2587 106.058 29.6373 105.834 30.128C105.621 30.608 105.514 31.1733 105.514 31.824C105.514 32.496 105.626 33.072 105.85 33.552C106.085 34.032 106.405 34.4 106.81 34.656C107.215 34.912 107.69 35.04 108.234 35.04C108.682 35.04 109.077 34.96 109.418 34.8C109.77 34.6293 110.047 34.3947 110.25 34.096C110.463 33.7973 110.597 33.4507 110.65 33.056H111.914C111.861 33.6747 111.669 34.2187 111.338 34.688C111.018 35.1467 110.591 35.504 110.058 35.76C109.525 36.016 108.917 36.144 108.234 36.144ZM117.172 36.144C116.564 36.144 116.01 36.0427 115.508 35.84C115.018 35.6373 114.591 35.344 114.228 34.96C113.876 34.576 113.599 34.1227 113.396 33.6C113.204 33.0667 113.108 32.4747 113.108 31.824C113.108 30.96 113.274 30.2027 113.604 29.552C113.935 28.9013 114.404 28.3947 115.012 28.032C115.631 27.6587 116.351 27.472 117.172 27.472C117.78 27.472 118.33 27.5733 118.82 27.776C119.322 27.968 119.748 28.256 120.1 28.64C120.452 29.024 120.724 29.4827 120.916 30.016C121.108 30.5493 121.204 31.1467 121.204 31.808C121.204 32.6613 121.039 33.4133 120.708 34.064C120.388 34.7147 119.924 35.2267 119.316 35.6C118.708 35.9627 117.994 36.144 117.172 36.144ZM117.172 35.024C117.716 35.024 118.191 34.9013 118.596 34.656C119.002 34.4 119.316 34.032 119.54 33.552C119.775 33.0613 119.892 32.48 119.892 31.808C119.892 31.3067 119.828 30.8587 119.7 30.464C119.572 30.0587 119.391 29.7173 119.156 29.44C118.922 29.152 118.639 28.9333 118.308 28.784C117.978 28.6347 117.599 28.56 117.172 28.56C116.628 28.56 116.148 28.6933 115.732 28.96C115.327 29.216 115.007 29.584 114.772 30.064C114.548 30.544 114.436 31.1307 114.436 31.824C114.436 32.3147 114.495 32.7627 114.612 33.168C114.74 33.5627 114.922 33.8987 115.156 34.176C115.402 34.4533 115.695 34.6667 116.036 34.816C116.378 34.9547 116.756 35.024 117.172 35.024ZM123.044 36V27.6H124.196L124.276 29.152H124.34C124.521 28.6187 124.841 28.208 125.3 27.92C125.759 27.632 126.271 27.488 126.836 27.488C126.932 27.488 127.023 27.4933 127.108 27.504C127.193 27.504 127.273 27.5093 127.348 27.52V28.752C127.273 28.7413 127.193 28.736 127.108 28.736C127.023 28.7253 126.932 28.72 126.836 28.72C126.345 28.72 125.919 28.8107 125.556 28.992C125.193 29.1733 124.905 29.4347 124.692 29.776C124.489 30.1067 124.367 30.512 124.324 30.992V36H123.044ZM128.872 38.672L128.888 27.6H130.12L130.168 29.344H130.264C130.467 28.7787 130.824 28.3253 131.336 27.984C131.859 27.632 132.488 27.456 133.224 27.456C133.736 27.456 134.2 27.552 134.616 27.744C135.043 27.936 135.411 28.2187 135.72 28.592C136.03 28.9653 136.264 29.424 136.424 29.968C136.595 30.5013 136.68 31.1147 136.68 31.808C136.68 32.7253 136.536 33.5093 136.248 34.16C135.96 34.8 135.555 35.2907 135.032 35.632C134.52 35.9733 133.918 36.144 133.224 36.144C132.744 36.144 132.302 36.0693 131.896 35.92C131.502 35.76 131.166 35.536 130.888 35.248C130.611 34.96 130.403 34.6293 130.264 34.256H130.168V38.672H128.872ZM132.792 35.056C133.304 35.056 133.752 34.9333 134.136 34.688C134.52 34.4427 134.819 34.08 135.032 33.6C135.256 33.1093 135.368 32.512 135.368 31.808C135.368 31.0933 135.256 30.496 135.032 30.016C134.819 29.536 134.52 29.1733 134.136 28.928C133.752 28.672 133.304 28.544 132.792 28.544C132.238 28.544 131.763 28.6773 131.368 28.944C130.984 29.2 130.691 29.5413 130.488 29.968C130.286 30.384 130.184 30.8267 130.184 31.296V32.304C130.184 32.656 130.243 32.9973 130.36 33.328C130.478 33.6587 130.643 33.9573 130.856 34.224C131.08 34.48 131.352 34.6827 131.672 34.832C132.003 34.9813 132.376 35.056 132.792 35.056ZM141.901 36.144C141.101 36.144 140.413 35.968 139.837 35.616C139.271 35.264 138.839 34.7627 138.541 34.112C138.242 33.4613 138.093 32.704 138.093 31.84C138.093 30.9547 138.242 30.1867 138.541 29.536C138.839 28.8747 139.266 28.368 139.821 28.016C140.375 27.6533 141.053 27.472 141.853 27.472C142.706 27.472 143.41 27.664 143.965 28.048C144.519 28.432 144.919 28.9653 145.165 29.648C145.421 30.3307 145.517 31.12 145.453 32.016H139.357C139.367 32.7093 139.474 33.2907 139.677 33.76C139.89 34.2187 140.183 34.5653 140.557 34.8C140.941 35.024 141.389 35.136 141.901 35.136C142.519 35.136 143.026 34.9813 143.421 34.672C143.815 34.3627 144.066 33.9573 144.173 33.456H145.405C145.341 34.0213 145.143 34.5067 144.813 34.912C144.493 35.3173 144.077 35.6267 143.565 35.84C143.063 36.0427 142.509 36.144 141.901 36.144ZM139.373 31.28L139.229 31.088H144.333L144.189 31.312C144.199 30.64 144.109 30.1013 143.917 29.696C143.725 29.28 143.447 28.976 143.085 28.784C142.733 28.5813 142.322 28.48 141.853 28.48C141.362 28.48 140.935 28.5867 140.573 28.8C140.21 29.0133 139.922 29.328 139.709 29.744C139.506 30.1493 139.394 30.6613 139.373 31.28ZM147.294 36V27.6H148.446L148.526 29.152H148.59C148.771 28.6187 149.091 28.208 149.55 27.92C150.009 27.632 150.521 27.488 151.086 27.488C151.182 27.488 151.273 27.4933 151.358 27.504C151.443 27.504 151.523 27.5093 151.598 27.52V28.752C151.523 28.7413 151.443 28.736 151.358 28.736C151.273 28.7253 151.182 28.72 151.086 28.72C150.595 28.72 150.169 28.8107 149.806 28.992C149.443 29.1733 149.155 29.4347 148.942 29.776C148.739 30.1067 148.617 30.512 148.574 30.992V36H147.294ZM155.627 36L159.899 24.336H161.803L166.075 36H164.651L163.595 33.12H158.107L157.067 36H155.627ZM158.459 32.032H163.243L161.803 28.128L160.907 25.616H160.827L159.915 28.128L158.459 32.032ZM170.734 36.144C170.126 36.144 169.571 36.0427 169.07 35.84C168.579 35.6267 168.158 35.3333 167.806 34.96C167.454 34.576 167.182 34.1227 166.99 33.6C166.798 33.0667 166.702 32.4693 166.702 31.808C166.702 30.944 166.867 30.1867 167.198 29.536C167.539 28.8853 168.014 28.3787 168.622 28.016C169.241 27.6533 169.961 27.472 170.782 27.472C171.443 27.472 172.035 27.5947 172.558 27.84C173.081 28.0853 173.502 28.432 173.822 28.88C174.142 29.3173 174.323 29.8293 174.366 30.416H173.118C173.043 30.0107 172.894 29.6747 172.67 29.408C172.446 29.1413 172.169 28.9387 171.838 28.8C171.507 28.6507 171.145 28.576 170.75 28.576C170.174 28.576 169.683 28.7147 169.278 28.992C168.873 29.2587 168.558 29.6373 168.334 30.128C168.121 30.608 168.014 31.1733 168.014 31.824C168.014 32.496 168.126 33.072 168.35 33.552C168.585 34.032 168.905 34.4 169.31 34.656C169.715 34.912 170.19 35.04 170.734 35.04C171.182 35.04 171.577 34.96 171.918 34.8C172.27 34.6293 172.547 34.3947 172.75 34.096C172.963 33.7973 173.097 33.4507 173.15 33.056H174.414C174.361 33.6747 174.169 34.2187 173.838 34.688C173.518 35.1467 173.091 35.504 172.558 35.76C172.025 36.016 171.417 36.144 170.734 36.144ZM179.64 36.144C179.032 36.144 178.478 36.0427 177.976 35.84C177.486 35.6267 177.064 35.3333 176.712 34.96C176.36 34.576 176.088 34.1227 175.896 33.6C175.704 33.0667 175.608 32.4693 175.608 31.808C175.608 30.944 175.774 30.1867 176.104 29.536C176.446 28.8853 176.92 28.3787 177.528 28.016C178.147 27.6533 178.867 27.472 179.688 27.472C180.35 27.472 180.942 27.5947 181.464 27.84C181.987 28.0853 182.408 28.432 182.728 28.88C183.048 29.3173 183.23 29.8293 183.272 30.416H182.024C181.95 30.0107 181.8 29.6747 181.576 29.408C181.352 29.1413 181.075 28.9387 180.744 28.8C180.414 28.6507 180.051 28.576 179.656 28.576C179.08 28.576 178.59 28.7147 178.184 28.992C177.779 29.2587 177.464 29.6373 177.24 30.128C177.027 30.608 176.92 31.1733 176.92 31.824C176.92 32.496 177.032 33.072 177.256 33.552C177.491 34.032 177.811 34.4 178.216 34.656C178.622 34.912 179.096 35.04 179.64 35.04C180.088 35.04 180.483 34.96 180.824 34.8C181.176 34.6293 181.454 34.3947 181.656 34.096C181.87 33.7973 182.003 33.4507 182.056 33.056H183.32C183.267 33.6747 183.075 34.2187 182.744 34.688C182.424 35.1467 181.998 35.504 181.464 35.76C180.931 36.016 180.323 36.144 179.64 36.144ZM188.067 36.144C187.448 36.144 186.909 36.0213 186.451 35.776C185.992 35.52 185.64 35.1413 185.395 34.64C185.149 34.128 185.027 33.4987 185.027 32.752V27.6H186.323V32.432C186.323 32.9867 186.397 33.4613 186.547 33.856C186.696 34.24 186.931 34.5333 187.251 34.736C187.581 34.9387 188.003 35.04 188.515 35.04C189.016 35.04 189.459 34.9173 189.843 34.672C190.227 34.4267 190.525 34.08 190.739 33.632C190.952 33.184 191.059 32.6667 191.059 32.08V27.6H192.355V36H191.123L191.059 34.208H190.979C190.755 34.8053 190.381 35.28 189.859 35.632C189.336 35.9733 188.739 36.144 188.067 36.144ZM194.7 36V27.6H195.932L195.98 29.344H196.076C196.322 28.7253 196.706 28.2613 197.228 27.952C197.751 27.632 198.327 27.472 198.956 27.472C199.596 27.472 200.162 27.6267 200.652 27.936C201.143 28.2453 201.495 28.7627 201.708 29.488H201.836C202.082 28.816 202.476 28.3147 203.02 27.984C203.575 27.6427 204.194 27.472 204.876 27.472C205.442 27.472 205.943 27.5893 206.38 27.824C206.828 28.0587 207.18 28.4427 207.436 28.976C207.692 29.4987 207.82 30.192 207.82 31.056V36H206.54V31.312C206.54 30.6827 206.46 30.1653 206.3 29.76C206.151 29.3547 205.922 29.056 205.612 28.864C205.314 28.6613 204.919 28.56 204.428 28.56C203.927 28.56 203.484 28.688 203.1 28.944C202.727 29.2 202.434 29.5467 202.22 29.984C202.018 30.4107 201.916 30.9013 201.916 31.456V36H200.604V31.312C200.604 30.6827 200.53 30.1653 200.38 29.76C200.231 29.3547 200.002 29.056 199.692 28.864C199.394 28.6613 199.004 28.56 198.524 28.56C198.012 28.56 197.564 28.688 197.18 28.944C196.807 29.2 196.514 29.5467 196.3 29.984C196.087 30.4107 195.98 30.9013 195.98 31.456V36H194.7ZM212.985 36.16C212.27 36.16 211.652 36.0427 211.129 35.808C210.617 35.5733 210.222 35.248 209.945 34.832C209.678 34.416 209.545 33.9307 209.545 33.376H210.841C210.841 33.9947 211.038 34.4533 211.433 34.752C211.838 35.04 212.366 35.184 213.017 35.184C213.668 35.184 214.164 35.0613 214.505 34.816C214.857 34.5707 215.033 34.224 215.033 33.776C215.033 33.4347 214.958 33.1733 214.809 32.992C214.66 32.8 214.43 32.6507 214.121 32.544C213.812 32.4373 213.406 32.3467 212.905 32.272C212.212 32.176 211.63 32.0427 211.161 31.872C210.702 31.7013 210.356 31.4613 210.121 31.152C209.897 30.832 209.785 30.416 209.785 29.904C209.785 29.4133 209.918 28.9867 210.185 28.624C210.452 28.2507 210.825 27.9627 211.305 27.76C211.785 27.5467 212.345 27.44 212.985 27.44C213.657 27.44 214.228 27.552 214.697 27.776C215.177 27.9893 215.54 28.2933 215.785 28.688C216.041 29.072 216.174 29.5307 216.185 30.064H214.921C214.91 29.6693 214.82 29.3547 214.649 29.12C214.489 28.8853 214.265 28.7147 213.977 28.608C213.7 28.4907 213.364 28.432 212.969 28.432C212.372 28.432 211.908 28.5547 211.577 28.8C211.246 29.0453 211.081 29.3707 211.081 29.776C211.081 30.0853 211.161 30.336 211.321 30.528C211.481 30.7093 211.726 30.8533 212.057 30.96C212.388 31.056 212.814 31.1413 213.337 31.216C213.806 31.28 214.228 31.3653 214.601 31.472C214.974 31.5787 215.289 31.728 215.545 31.92C215.812 32.1013 216.009 32.336 216.137 32.624C216.276 32.9013 216.345 33.248 216.345 33.664C216.345 34.464 216.036 35.0827 215.417 35.52C214.809 35.9467 213.998 36.16 212.985 36.16ZM221.143 36.144C220.631 36.144 220.161 36.048 219.735 35.856C219.319 35.6533 218.956 35.3707 218.647 35.008C218.337 34.6347 218.097 34.1813 217.927 33.648C217.767 33.104 217.687 32.4853 217.687 31.792C217.687 30.8747 217.831 30.0907 218.118 29.44C218.417 28.7893 218.823 28.2987 219.335 27.968C219.857 27.6267 220.46 27.456 221.143 27.456C221.633 27.456 222.076 27.536 222.471 27.696C222.876 27.8453 223.217 28.064 223.495 28.352C223.772 28.6293 223.98 28.96 224.119 29.344H224.199L224.247 27.6H225.495V36H224.199V34.24H224.119C223.905 34.8053 223.543 35.264 223.031 35.616C222.519 35.968 221.889 36.144 221.143 36.144ZM221.575 35.056C222.14 35.056 222.615 34.9227 222.999 34.656C223.383 34.3893 223.676 34.048 223.879 33.632C224.081 33.216 224.183 32.7733 224.183 32.304V31.28C224.183 30.8107 224.081 30.368 223.879 29.952C223.676 29.5253 223.383 29.184 222.999 28.928C222.615 28.6613 222.14 28.528 221.575 28.528C221.063 28.528 220.615 28.656 220.231 28.912C219.847 29.1573 219.548 29.52 219.335 30C219.121 30.48 219.015 31.0773 219.015 31.792C219.015 32.496 219.121 33.0933 219.335 33.584C219.548 34.064 219.847 34.432 220.231 34.688C220.615 34.9333 221.063 35.056 221.575 35.056ZM227.919 36V27.6H229.151L229.199 29.344H229.295C229.551 28.7253 229.946 28.2613 230.479 27.952C231.012 27.632 231.594 27.472 232.223 27.472C232.66 27.472 233.06 27.536 233.423 27.664C233.796 27.792 234.116 28 234.383 28.288C234.66 28.576 234.874 28.9493 235.023 29.408C235.172 29.856 235.247 30.4053 235.247 31.056V36H233.951V31.312C233.951 30.6827 233.871 30.1653 233.711 29.76C233.562 29.3547 233.327 29.056 233.007 28.864C232.698 28.6613 232.298 28.56 231.807 28.56C231.284 28.56 230.826 28.688 230.431 28.944C230.036 29.2 229.732 29.5467 229.519 29.984C229.306 30.4107 229.199 30.9013 229.199 31.456V36H227.919ZM241.535 36V24.336H246.127C247.226 24.336 248.164 24.5813 248.943 25.072C249.722 25.552 250.319 26.2293 250.735 27.104C251.151 27.9787 251.359 29.0027 251.359 30.176C251.359 31.0507 251.242 31.8453 251.007 32.56C250.772 33.2747 250.426 33.888 249.967 34.4C249.519 34.912 248.97 35.3067 248.319 35.584C247.679 35.8613 246.948 36 246.127 36H241.535ZM242.895 34.8H245.951C246.559 34.8 247.108 34.704 247.599 34.512C248.09 34.3093 248.511 34.0107 248.863 33.616C249.215 33.2213 249.482 32.736 249.663 32.16C249.855 31.5733 249.951 30.9013 249.951 30.144C249.951 29.12 249.786 28.2667 249.455 27.584C249.124 26.9013 248.655 26.3893 248.047 26.048C247.45 25.7067 246.751 25.536 245.951 25.536H242.895V34.8ZM256.829 36.144C256.221 36.144 255.666 36.0427 255.165 35.84C254.674 35.6373 254.247 35.344 253.885 34.96C253.533 34.576 253.255 34.1227 253.053 33.6C252.861 33.0667 252.765 32.4747 252.765 31.824C252.765 30.96 252.93 30.2027 253.261 29.552C253.591 28.9013 254.061 28.3947 254.669 28.032C255.287 27.6587 256.007 27.472 256.829 27.472C257.437 27.472 257.986 27.5733 258.477 27.776C258.978 27.968 259.405 28.256 259.757 28.64C260.109 29.024 260.381 29.4827 260.573 30.016C260.765 30.5493 260.861 31.1467 260.861 31.808C260.861 32.6613 260.695 33.4133 260.365 34.064C260.045 34.7147 259.581 35.2267 258.973 35.6C258.365 35.9627 257.65 36.144 256.829 36.144ZM256.829 35.024C257.373 35.024 257.847 34.9013 258.253 34.656C258.658 34.4 258.973 34.032 259.197 33.552C259.431 33.0613 259.549 32.48 259.549 31.808C259.549 31.3067 259.485 30.8587 259.357 30.464C259.229 30.0587 259.047 29.7173 258.813 29.44C258.578 29.152 258.295 28.9333 257.965 28.784C257.634 28.6347 257.255 28.56 256.829 28.56C256.285 28.56 255.805 28.6933 255.389 28.96C254.983 29.216 254.663 29.584 254.429 30.064C254.205 30.544 254.093 31.1307 254.093 31.824C254.093 32.3147 254.151 32.7627 254.269 33.168C254.397 33.5627 254.578 33.8987 254.813 34.176C255.058 34.4533 255.351 34.6667 255.693 34.816C256.034 34.9547 256.413 35.024 256.829 35.024ZM262.7 36V27.6H263.932L263.98 29.344H264.076C264.332 28.7253 264.727 28.2613 265.26 27.952C265.794 27.632 266.375 27.472 267.004 27.472C267.442 27.472 267.842 27.536 268.204 27.664C268.578 27.792 268.898 28 269.164 28.288C269.442 28.576 269.655 28.9493 269.804 29.408C269.954 29.856 270.028 30.4053 270.028 31.056V36H268.732V31.312C268.732 30.6827 268.652 30.1653 268.492 29.76C268.343 29.3547 268.108 29.056 267.788 28.864C267.479 28.6613 267.079 28.56 266.588 28.56C266.066 28.56 265.607 28.688 265.212 28.944C264.818 29.2 264.514 29.5467 264.3 29.984C264.087 30.4107 263.98 30.9013 263.98 31.456V36H262.7ZM275.604 36.144C274.804 36.144 274.116 35.968 273.54 35.616C272.975 35.264 272.543 34.7627 272.244 34.112C271.945 33.4613 271.796 32.704 271.796 31.84C271.796 30.9547 271.945 30.1867 272.244 29.536C272.543 28.8747 272.969 28.368 273.524 28.016C274.079 27.6533 274.756 27.472 275.556 27.472C276.409 27.472 277.113 27.664 277.668 28.048C278.223 28.432 278.623 28.9653 278.868 29.648C279.124 30.3307 279.22 31.12 279.156 32.016H273.06C273.071 32.7093 273.177 33.2907 273.38 33.76C273.593 34.2187 273.887 34.5653 274.26 34.8C274.644 35.024 275.092 35.136 275.604 35.136C276.223 35.136 276.729 34.9813 277.124 34.672C277.519 34.3627 277.769 33.9573 277.876 33.456H279.108C279.044 34.0213 278.847 34.5067 278.516 34.912C278.196 35.3173 277.78 35.6267 277.268 35.84C276.767 36.0427 276.212 36.144 275.604 36.144ZM273.076 31.28L272.932 31.088H278.036L277.892 31.312C277.903 30.64 277.812 30.1013 277.62 29.696C277.428 29.28 277.151 28.976 276.788 28.784C276.436 28.5813 276.025 28.48 275.556 28.48C275.065 28.48 274.639 28.5867 274.276 28.8C273.913 29.0133 273.625 29.328 273.412 29.744C273.209 30.1493 273.097 30.6613 273.076 31.28ZM284.594 36.144C283.986 36.144 283.431 36.0427 282.93 35.84C282.439 35.6267 282.018 35.3333 281.666 34.96C281.314 34.576 281.042 34.1227 280.85 33.6C280.658 33.0667 280.562 32.4693 280.562 31.808C280.562 30.944 280.727 30.1867 281.058 29.536C281.399 28.8853 281.874 28.3787 282.482 28.016C283.1 27.6533 283.82 27.472 284.641 27.472C285.303 27.472 285.895 27.5947 286.418 27.84C286.94 28.0853 287.362 28.432 287.682 28.88C288.002 29.3173 288.183 29.8293 288.226 30.416H286.978C286.903 30.0107 286.754 29.6747 286.53 29.408C286.306 29.1413 286.028 28.9387 285.698 28.8C285.367 28.6507 285.004 28.576 284.61 28.576C284.034 28.576 283.543 28.7147 283.138 28.992C282.732 29.2587 282.418 29.6373 282.194 30.128C281.98 30.608 281.874 31.1733 281.874 31.824C281.874 32.496 281.986 33.072 282.21 33.552C282.444 34.032 282.764 34.4 283.17 34.656C283.575 34.912 284.05 35.04 284.594 35.04C285.042 35.04 285.436 34.96 285.778 34.8C286.13 34.6293 286.407 34.3947 286.61 34.096C286.823 33.7973 286.956 33.4507 287.01 33.056H288.274C288.22 33.6747 288.028 34.2187 287.698 34.688C287.378 35.1467 286.951 35.504 286.418 35.76C285.884 36.016 285.276 36.144 284.594 36.144ZM293.988 36V24.336H302.004V25.536H295.044L295.348 25.216V29.792L295.044 29.472H301.22V30.592H295.044L295.348 30.272V35.104L295.044 34.784H302.02V36H293.988ZM306.832 36.144C306.214 36.144 305.675 36.0213 305.216 35.776C304.758 35.52 304.406 35.1413 304.16 34.64C303.915 34.128 303.792 33.4987 303.792 32.752V27.6H305.088V32.432C305.088 32.9867 305.163 33.4613 305.312 33.856C305.462 34.24 305.696 34.5333 306.016 34.736C306.347 34.9387 306.768 35.04 307.28 35.04C307.782 35.04 308.224 34.9173 308.608 34.672C308.992 34.4267 309.291 34.08 309.504 33.632C309.718 33.184 309.824 32.6667 309.824 32.08V27.6H311.12V36H309.888L309.824 34.208H309.744C309.52 34.8053 309.147 35.28 308.624 35.632C308.102 35.9733 307.504 36.144 306.832 36.144ZM322.226 36.144C321.373 36.144 320.6 36.0053 319.906 35.728C319.213 35.44 318.616 35.0347 318.114 34.512C317.624 33.9893 317.245 33.3653 316.978 32.64C316.712 31.904 316.578 31.0827 316.578 30.176C316.578 29.2587 316.712 28.4373 316.978 27.712C317.245 26.976 317.629 26.3467 318.13 25.824C318.632 25.3013 319.224 24.9013 319.906 24.624C320.6 24.3467 321.373 24.208 322.226 24.208C323.165 24.208 324.002 24.3733 324.738 24.704C325.485 25.024 326.093 25.4827 326.562 26.08C327.042 26.6773 327.341 27.3813 327.458 28.192H326.066C325.96 27.648 325.736 27.168 325.394 26.752C325.053 26.336 324.616 26.0107 324.082 25.776C323.549 25.5307 322.93 25.408 322.226 25.408C321.362 25.408 320.61 25.6 319.97 25.984C319.33 26.368 318.84 26.9173 318.498 27.632C318.157 28.336 317.986 29.184 317.986 30.176C317.986 30.912 318.082 31.5787 318.274 32.176C318.477 32.7627 318.76 33.264 319.122 33.68C319.496 34.0853 319.944 34.4 320.466 34.624C320.989 34.8373 321.576 34.944 322.226 34.944C322.92 34.944 323.533 34.8267 324.066 34.592C324.61 34.3573 325.053 34.0267 325.394 33.6C325.746 33.1733 325.97 32.672 326.066 32.096L327.458 32.112C327.362 32.9227 327.08 33.632 326.61 34.24C326.141 34.848 325.528 35.3173 324.77 35.648C324.024 35.9787 323.176 36.144 322.226 36.144ZM332.938 36.144C332.33 36.144 331.775 36.0427 331.274 35.84C330.783 35.6373 330.357 35.344 329.994 34.96C329.642 34.576 329.365 34.1227 329.162 33.6C328.97 33.0667 328.874 32.4747 328.874 31.824C328.874 30.96 329.039 30.2027 329.37 29.552C329.701 28.9013 330.17 28.3947 330.778 28.032C331.397 27.6587 332.117 27.472 332.938 27.472C333.546 27.472 334.095 27.5733 334.586 27.776C335.087 27.968 335.514 28.256 335.866 28.64C336.218 29.024 336.49 29.4827 336.682 30.016C336.874 30.5493 336.97 31.1467 336.97 31.808C336.97 32.6613 336.805 33.4133 336.474 34.064C336.154 34.7147 335.69 35.2267 335.082 35.6C334.474 35.9627 333.759 36.144 332.938 36.144ZM332.938 35.024C333.482 35.024 333.957 34.9013 334.362 34.656C334.767 34.4 335.082 34.032 335.306 33.552C335.541 33.0613 335.658 32.48 335.658 31.808C335.658 31.3067 335.594 30.8587 335.466 30.464C335.338 30.0587 335.157 29.7173 334.922 29.44C334.687 29.152 334.405 28.9333 334.074 28.784C333.743 28.6347 333.365 28.56 332.938 28.56C332.394 28.56 331.914 28.6933 331.498 28.96C331.093 29.216 330.773 29.584 330.538 30.064C330.314 30.544 330.202 31.1307 330.202 31.824C330.202 32.3147 330.261 32.7627 330.378 33.168C330.506 33.5627 330.687 33.8987 330.922 34.176C331.167 34.4533 331.461 34.6667 331.802 34.816C332.143 34.9547 332.522 35.024 332.938 35.024ZM338.81 36V27.6H340.042L340.09 29.344H340.186C340.442 28.7253 340.836 28.2613 341.37 27.952C341.903 27.632 342.484 27.472 343.114 27.472C343.551 27.472 343.951 27.536 344.314 27.664C344.687 27.792 345.007 28 345.274 28.288C345.551 28.576 345.764 28.9493 345.914 29.408C346.063 29.856 346.138 30.4053 346.138 31.056V36H344.842V31.312C344.842 30.6827 344.762 30.1653 344.602 29.76C344.452 29.3547 344.218 29.056 343.898 28.864C343.588 28.6613 343.188 28.56 342.698 28.56C342.175 28.56 341.716 28.688 341.322 28.944C340.927 29.2 340.623 29.5467 340.41 29.984C340.196 30.4107 340.09 30.9013 340.09 31.456V36H338.81ZM351.361 36.144C350.849 36.144 350.38 36.048 349.953 35.856C349.537 35.6533 349.175 35.3707 348.865 35.008C348.556 34.6347 348.316 34.1813 348.145 33.648C347.985 33.104 347.905 32.4853 347.905 31.792C347.905 30.8747 348.049 30.0907 348.337 29.44C348.636 28.7893 349.041 28.2987 349.553 27.968C350.076 27.6267 350.679 27.456 351.361 27.456C351.852 27.456 352.295 27.536 352.689 27.696C353.095 27.8453 353.436 28.064 353.713 28.352C353.991 28.6293 354.199 28.96 354.337 29.344H354.417V24.336H355.713L355.697 36H354.465L354.417 34.24H354.337C354.124 34.8053 353.761 35.264 353.249 35.616C352.737 35.968 352.108 36.144 351.361 36.144ZM351.793 35.056C352.359 35.056 352.833 34.9227 353.217 34.656C353.601 34.3893 353.895 34.048 354.097 33.632C354.3 33.216 354.401 32.7733 354.401 32.304V31.28C354.401 30.928 354.343 30.592 354.225 30.272C354.108 29.9413 353.943 29.648 353.729 29.392C353.516 29.1253 353.244 28.9173 352.913 28.768C352.593 28.608 352.22 28.528 351.793 28.528C351.281 28.528 350.833 28.656 350.449 28.912C350.065 29.1573 349.767 29.52 349.553 30C349.34 30.48 349.233 31.0773 349.233 31.792C349.233 32.496 349.34 33.0933 349.553 33.584C349.767 34.064 350.065 34.432 350.449 34.688C350.833 34.9333 351.281 35.056 351.793 35.056ZM358.138 36V27.6H359.434V36H358.138ZM358.138 26.208V24.336H359.434V26.208H358.138ZM361.872 36V27.6H363.104L363.152 29.344H363.248C363.494 28.7253 363.878 28.2613 364.4 27.952C364.923 27.632 365.499 27.472 366.128 27.472C366.768 27.472 367.334 27.6267 367.824 27.936C368.315 28.2453 368.667 28.7627 368.88 29.488H369.008C369.254 28.816 369.648 28.3147 370.192 27.984C370.747 27.6427 371.366 27.472 372.048 27.472C372.614 27.472 373.115 27.5893 373.552 27.824C374 28.0587 374.352 28.4427 374.608 28.976C374.864 29.4987 374.992 30.192 374.992 31.056V36H373.712V31.312C373.712 30.6827 373.632 30.1653 373.472 29.76C373.323 29.3547 373.094 29.056 372.784 28.864C372.486 28.6613 372.091 28.56 371.6 28.56C371.099 28.56 370.656 28.688 370.272 28.944C369.899 29.2 369.606 29.5467 369.392 29.984C369.19 30.4107 369.088 30.9013 369.088 31.456V36H367.776V31.312C367.776 30.6827 367.702 30.1653 367.552 29.76C367.403 29.3547 367.174 29.056 366.864 28.864C366.566 28.6613 366.176 28.56 365.696 28.56C365.184 28.56 364.736 28.688 364.352 28.944C363.979 29.2 363.686 29.5467 363.472 29.984C363.259 30.4107 363.152 30.9013 363.152 31.456V36H361.872ZM380.557 36.144C379.757 36.144 379.069 35.968 378.493 35.616C377.928 35.264 377.496 34.7627 377.197 34.112C376.898 33.4613 376.749 32.704 376.749 31.84C376.749 30.9547 376.898 30.1867 377.197 29.536C377.496 28.8747 377.922 28.368 378.477 28.016C379.032 27.6533 379.709 27.472 380.509 27.472C381.362 27.472 382.066 27.664 382.621 28.048C383.176 28.432 383.576 28.9653 383.821 29.648C384.077 30.3307 384.173 31.12 384.109 32.016H378.013C378.024 32.7093 378.13 33.2907 378.333 33.76C378.546 34.2187 378.84 34.5653 379.213 34.8C379.597 35.024 380.045 35.136 380.557 35.136C381.176 35.136 381.682 34.9813 382.077 34.672C382.472 34.3627 382.722 33.9573 382.829 33.456H384.061C383.997 34.0213 383.8 34.5067 383.469 34.912C383.149 35.3173 382.733 35.6267 382.221 35.84C381.72 36.0427 381.165 36.144 380.557 36.144ZM378.029 31.28L377.885 31.088H382.989L382.845 31.312C382.856 30.64 382.765 30.1013 382.573 29.696C382.381 29.28 382.104 28.976 381.741 28.784C381.389 28.5813 380.978 28.48 380.509 28.48C380.018 28.48 379.592 28.5867 379.229 28.8C378.866 29.0133 378.578 29.328 378.365 29.744C378.162 30.1493 378.05 30.6613 378.029 31.28ZM385.95 36V27.6H387.182L387.23 29.344H387.326C387.582 28.7253 387.977 28.2613 388.51 27.952C389.044 27.632 389.625 27.472 390.254 27.472C390.692 27.472 391.092 27.536 391.454 27.664C391.828 27.792 392.148 28 392.414 28.288C392.692 28.576 392.905 28.9493 393.054 29.408C393.204 29.856 393.278 30.4053 393.278 31.056V36H391.982V31.312C391.982 30.6827 391.902 30.1653 391.742 29.76C391.593 29.3547 391.358 29.056 391.038 28.864C390.729 28.6613 390.329 28.56 389.838 28.56C389.316 28.56 388.857 28.688 388.462 28.944C388.068 29.2 387.764 29.5467 387.55 29.984C387.337 30.4107 387.23 30.9013 387.23 31.456V36H385.95ZM397.659 36C397.243 36 396.912 35.9413 396.667 35.824C396.432 35.7067 396.261 35.5307 396.155 35.296C396.059 35.0507 396.011 34.752 396.011 34.4V28.672H394.379V27.6H396.011V25.088L397.307 24.912V27.6H399.259V28.672H397.307V34.176C397.307 34.4747 397.36 34.672 397.467 34.768C397.573 34.864 397.771 34.912 398.059 34.912H399.259V36H397.659ZM403.926 36.144C403.307 36.144 402.769 36.0213 402.31 35.776C401.851 35.52 401.499 35.1413 401.254 34.64C401.009 34.128 400.886 33.4987 400.886 32.752V27.6H402.182V32.432C402.182 32.9867 402.257 33.4613 402.406 33.856C402.555 34.24 402.79 34.5333 403.11 34.736C403.441 34.9387 403.862 35.04 404.374 35.04C404.875 35.04 405.318 34.9173 405.702 34.672C406.086 34.4267 406.385 34.08 406.598 33.632C406.811 33.184 406.918 32.6667 406.918 32.08V27.6H408.214V36H406.982L406.918 34.208H406.838C406.614 34.8053 406.241 35.28 405.718 35.632C405.195 35.9733 404.598 36.144 403.926 36.144ZM410.56 36V27.6H411.792L411.84 29.344H411.936C412.181 28.7253 412.565 28.2613 413.088 27.952C413.61 27.632 414.186 27.472 414.816 27.472C415.456 27.472 416.021 27.6267 416.512 27.936C417.002 28.2453 417.354 28.7627 417.568 29.488H417.696C417.941 28.816 418.336 28.3147 418.88 27.984C419.434 27.6427 420.053 27.472 420.736 27.472C421.301 27.472 421.802 27.5893 422.24 27.824C422.688 28.0587 423.04 28.4427 423.296 28.976C423.552 29.4987 423.68 30.192 423.68 31.056V36H422.4V31.312C422.4 30.6827 422.32 30.1653 422.16 29.76C422.01 29.3547 421.781 29.056 421.472 28.864C421.173 28.6613 420.778 28.56 420.288 28.56C419.786 28.56 419.344 28.688 418.96 28.944C418.586 29.2 418.293 29.5467 418.08 29.984C417.877 30.4107 417.776 30.9013 417.776 31.456V36H416.464V31.312C416.464 30.6827 416.389 30.1653 416.24 29.76C416.09 29.3547 415.861 29.056 415.552 28.864C415.253 28.6613 414.864 28.56 414.384 28.56C413.872 28.56 413.424 28.688 413.04 28.944C412.666 29.2 412.373 29.5467 412.16 29.984C411.946 30.4107 411.84 30.9013 411.84 31.456V36H410.56ZM429.957 36V24.336H434.549C435.647 24.336 436.586 24.5813 437.365 25.072C438.143 25.552 438.741 26.2293 439.157 27.104C439.573 27.9787 439.781 29.0027 439.781 30.176C439.781 31.0507 439.663 31.8453 439.429 32.56C439.194 33.2747 438.847 33.888 438.389 34.4C437.941 34.912 437.391 35.3067 436.741 35.584C436.101 35.8613 435.37 36 434.549 36H429.957ZM431.317 34.8H434.373C434.981 34.8 435.53 34.704 436.021 34.512C436.511 34.3093 436.933 34.0107 437.285 33.616C437.637 33.2213 437.903 32.736 438.085 32.16C438.277 31.5733 438.373 30.9013 438.373 30.144C438.373 29.12 438.207 28.2667 437.877 27.584C437.546 26.9013 437.077 26.3893 436.469 26.048C435.871 25.7067 435.173 25.536 434.373 25.536H431.317V34.8ZM441.654 36V27.6H442.95V36H441.654ZM441.654 26.208V24.336H442.95V26.208H441.654ZM448.252 36.144C447.74 36.144 447.271 36.048 446.844 35.856C446.428 35.6533 446.065 35.3707 445.756 35.008C445.447 34.6347 445.207 34.1813 445.036 33.648C444.876 33.104 444.796 32.4853 444.796 31.792C444.796 30.8747 444.94 30.0907 445.228 29.44C445.527 28.7893 445.932 28.2987 446.444 27.968C446.967 27.6267 447.569 27.456 448.252 27.456C448.743 27.456 449.185 27.536 449.58 27.696C449.985 27.8453 450.327 28.064 450.604 28.352C450.881 28.6293 451.089 28.96 451.228 29.344H451.308L451.356 27.6H452.604V36H451.308V34.24H451.228C451.015 34.8053 450.652 35.264 450.14 35.616C449.628 35.968 448.999 36.144 448.252 36.144ZM448.684 35.056C449.249 35.056 449.724 34.9227 450.108 34.656C450.492 34.3893 450.785 34.048 450.988 33.632C451.191 33.216 451.292 32.7733 451.292 32.304V31.28C451.292 30.8107 451.191 30.368 450.988 29.952C450.785 29.5253 450.492 29.184 450.108 28.928C449.724 28.6613 449.249 28.528 448.684 28.528C448.172 28.528 447.724 28.656 447.34 28.912C446.956 29.1573 446.657 29.52 446.444 30C446.231 30.48 446.124 31.0773 446.124 31.792C446.124 32.496 446.231 33.0933 446.444 33.584C446.657 34.064 446.956 34.432 447.34 34.688C447.724 34.9333 448.172 35.056 448.684 35.056ZM455.029 36V27.6H456.261L456.309 29.344H456.405C456.65 28.7253 457.034 28.2613 457.557 27.952C458.079 27.632 458.655 27.472 459.285 27.472C459.925 27.472 460.49 27.6267 460.981 27.936C461.471 28.2453 461.823 28.7627 462.036 29.488H462.165C462.41 28.816 462.805 28.3147 463.349 27.984C463.903 27.6427 464.522 27.472 465.205 27.472C465.77 27.472 466.271 27.5893 466.709 27.824C467.157 28.0587 467.509 28.4427 467.765 28.976C468.021 29.4987 468.149 30.192 468.149 31.056V36H466.869V31.312C466.869 30.6827 466.789 30.1653 466.629 29.76C466.479 29.3547 466.25 29.056 465.941 28.864C465.642 28.6613 465.247 28.56 464.757 28.56C464.255 28.56 463.813 28.688 463.429 28.944C463.055 29.2 462.762 29.5467 462.549 29.984C462.346 30.4107 462.245 30.9013 462.245 31.456V36H460.933V31.312C460.933 30.6827 460.858 30.1653 460.709 29.76C460.559 29.3547 460.33 29.056 460.021 28.864C459.722 28.6613 459.333 28.56 458.853 28.56C458.341 28.56 457.893 28.688 457.509 28.944C457.135 29.2 456.842 29.5467 456.629 29.984C456.415 30.4107 456.309 30.9013 456.309 31.456V36H455.029ZM473.002 36L477.274 24.336H479.178L483.45 36H482.026L480.97 33.12H475.482L474.442 36H473.002ZM475.834 32.032H480.618L479.178 28.128L478.282 25.616H478.202L477.29 28.128L475.834 32.032ZM487.22 36L491.492 24.336H493.396L497.668 36H496.244L495.188 33.12H489.7L488.66 36H487.22ZM490.052 32.032H494.836L493.396 28.128L492.5 25.616H492.42L491.508 28.128L490.052 32.032ZM501.598 36.144C500.979 36.144 500.441 36.0213 499.982 35.776C499.523 35.52 499.171 35.1413 498.926 34.64C498.681 34.128 498.558 33.4987 498.558 32.752V27.6H499.854V32.432C499.854 32.9867 499.929 33.4613 500.078 33.856C500.227 34.24 500.462 34.5333 500.782 34.736C501.113 34.9387 501.534 35.04 502.046 35.04C502.547 35.04 502.99 34.9173 503.374 34.672C503.758 34.4267 504.057 34.08 504.27 33.632C504.483 33.184 504.59 32.6667 504.59 32.08V27.6H505.886V36H504.654L504.59 34.208H504.51C504.286 34.8053 503.913 35.28 503.39 35.632C502.867 35.9733 502.27 36.144 501.598 36.144ZM511.401 38.832C510.771 38.832 510.217 38.736 509.737 38.544C509.257 38.3627 508.867 38.096 508.569 37.744C508.281 37.392 508.105 36.976 508.041 36.496H509.305C509.347 36.7733 509.465 37.0133 509.657 37.216C509.849 37.4187 510.094 37.5733 510.393 37.68C510.691 37.7867 511.038 37.84 511.433 37.84C511.966 37.84 512.419 37.7653 512.793 37.616C513.166 37.4667 513.454 37.216 513.657 36.864C513.859 36.512 513.961 36.0427 513.961 35.456V33.712H513.865C513.673 34.256 513.321 34.6933 512.809 35.024C512.307 35.3547 511.705 35.52 511.001 35.52C510.489 35.52 510.019 35.4293 509.593 35.248C509.177 35.0667 508.819 34.8053 508.521 34.464C508.222 34.112 507.993 33.6853 507.833 33.184C507.673 32.6827 507.593 32.1173 507.593 31.488C507.593 30.6453 507.737 29.9253 508.025 29.328C508.313 28.72 508.713 28.256 509.225 27.936C509.747 27.616 510.35 27.456 511.033 27.456C511.726 27.456 512.323 27.6213 512.825 27.952C513.326 28.272 513.673 28.704 513.865 29.248H513.961L513.993 27.6H515.241V35.344C515.241 35.9733 515.15 36.512 514.969 36.96C514.787 37.408 514.526 37.7653 514.185 38.032C513.843 38.3093 513.433 38.512 512.953 38.64C512.483 38.768 511.966 38.832 511.401 38.832ZM511.417 34.496C511.95 34.496 512.403 34.3733 512.777 34.128C513.161 33.872 513.454 33.5573 513.657 33.184C513.859 32.8 513.961 32.4053 513.961 32V30.976C513.95 30.5707 513.849 30.1813 513.657 29.808C513.465 29.424 513.182 29.1093 512.809 28.864C512.446 28.6187 511.987 28.496 511.433 28.496C510.921 28.496 510.478 28.6187 510.105 28.864C509.731 29.0987 509.438 29.44 509.225 29.888C509.022 30.336 508.921 30.8693 508.921 31.488C508.921 32.128 509.022 32.672 509.225 33.12C509.438 33.568 509.731 33.9093 510.105 34.144C510.478 34.3787 510.915 34.496 511.417 34.496ZM520.567 36.144C519.948 36.144 519.409 36.0213 518.951 35.776C518.492 35.52 518.14 35.1413 517.895 34.64C517.649 34.128 517.527 33.4987 517.527 32.752V27.6H518.823V32.432C518.823 32.9867 518.897 33.4613 519.047 33.856C519.196 34.24 519.431 34.5333 519.751 34.736C520.081 34.9387 520.503 35.04 521.015 35.04C521.516 35.04 521.959 34.9173 522.343 34.672C522.727 34.4267 523.025 34.08 523.239 33.632C523.452 33.184 523.559 32.6667 523.559 32.08V27.6H524.855V36H523.623L523.559 34.208H523.479C523.255 34.8053 522.881 35.28 522.359 35.632C521.836 35.9733 521.239 36.144 520.567 36.144ZM530.37 36.144C529.57 36.144 528.882 35.968 528.306 35.616C527.74 35.264 527.308 34.7627 527.01 34.112C526.711 33.4613 526.562 32.704 526.562 31.84C526.562 30.9547 526.711 30.1867 527.01 29.536C527.308 28.8747 527.735 28.368 528.289 28.016C528.844 27.6533 529.522 27.472 530.322 27.472C531.175 27.472 531.879 27.664 532.434 28.048C532.988 28.432 533.388 28.9653 533.634 29.648C533.89 30.3307 533.986 31.12 533.922 32.016H527.826C527.836 32.7093 527.943 33.2907 528.146 33.76C528.359 34.2187 528.652 34.5653 529.026 34.8C529.41 35.024 529.858 35.136 530.37 35.136C530.988 35.136 531.495 34.9813 531.89 34.672C532.284 34.3627 532.535 33.9573 532.642 33.456H533.874C533.81 34.0213 533.612 34.5067 533.282 34.912C532.962 35.3173 532.546 35.6267 532.034 35.84C531.532 36.0427 530.978 36.144 530.37 36.144ZM527.842 31.28L527.698 31.088H532.802L532.658 31.312C532.668 30.64 532.578 30.1013 532.386 29.696C532.194 29.28 531.916 28.976 531.554 28.784C531.202 28.5813 530.791 28.48 530.322 28.48C529.831 28.48 529.404 28.5867 529.042 28.8C528.679 29.0133 528.391 29.328 528.178 29.744C527.975 30.1493 527.863 30.6613 527.842 31.28ZM0.064 60L4.336 48.336H6.24L10.512 60H9.088L8.032 57.12H2.544L1.504 60H0.064ZM2.896 56.032H7.68L6.24 52.128L5.344 49.616H5.264L4.352 52.128L2.896 56.032ZM11.7785 60V51.6H12.9305L13.0105 53.152H13.0745C13.2558 52.6187 13.5758 52.208 14.0345 51.92C14.4932 51.632 15.0052 51.488 15.5705 51.488C15.6665 51.488 15.7572 51.4933 15.8425 51.504C15.9278 51.504 16.0078 51.5093 16.0825 51.52V52.752C16.0078 52.7413 15.9278 52.736 15.8425 52.736C15.7572 52.7253 15.6665 52.72 15.5705 52.72C15.0798 52.72 14.6532 52.8107 14.2905 52.992C13.9278 53.1733 13.6398 53.4347 13.4265 53.776C13.2238 54.1067 13.1012 54.512 13.0585 54.992V60H11.7785ZM20.7341 60.144C20.1261 60.144 19.5715 60.0427 19.0701 59.84C18.5795 59.6267 18.1581 59.3333 17.8061 58.96C17.4541 58.576 17.1821 58.1227 16.9901 57.6C16.7981 57.0667 16.7021 56.4693 16.7021 55.808C16.7021 54.944 16.8675 54.1867 17.1981 53.536C17.5395 52.8853 18.0141 52.3787 18.6221 52.016C19.2408 51.6533 19.9608 51.472 20.7821 51.472C21.4435 51.472 22.0355 51.5947 22.5581 51.84C23.0808 52.0853 23.5021 52.432 23.8221 52.88C24.1421 53.3173 24.3235 53.8293 24.3661 54.416H23.1181C23.0435 54.0107 22.8941 53.6747 22.6701 53.408C22.4461 53.1413 22.1688 52.9387 21.8381 52.8C21.5075 52.6507 21.1448 52.576 20.7501 52.576C20.1741 52.576 19.6835 52.7147 19.2781 52.992C18.8728 53.2587 18.5581 53.6373 18.3341 54.128C18.1208 54.608 18.0141 55.1733 18.0141 55.824C18.0141 56.496 18.1261 57.072 18.3501 57.552C18.5848 58.032 18.9048 58.4 19.3101 58.656C19.7155 58.912 20.1901 59.04 20.7341 59.04C21.1821 59.04 21.5768 58.96 21.9181 58.8C22.2701 58.6293 22.5475 58.3947 22.7501 58.096C22.9635 57.7973 23.0968 57.4507 23.1501 57.056H24.4141C24.3608 57.6747 24.1688 58.2187 23.8381 58.688C23.5181 59.1467 23.0915 59.504 22.5581 59.76C22.0248 60.016 21.4168 60.144 20.7341 60.144ZM29.1604 60.144C28.5417 60.144 28.003 60.0213 27.5444 59.776C27.0857 59.52 26.7337 59.1413 26.4884 58.64C26.243 58.128 26.1204 57.4987 26.1204 56.752V51.6H27.4164V56.432C27.4164 56.9867 27.491 57.4613 27.6404 57.856C27.7897 58.24 28.0244 58.5333 28.3444 58.736C28.675 58.9387 29.0964 59.04 29.6084 59.04C30.1097 59.04 30.5524 58.9173 30.9364 58.672C31.3204 58.4267 31.619 58.08 31.8324 57.632C32.0457 57.184 32.1524 56.6667 32.1524 56.08V51.6H33.4484V60H32.2164L32.1524 58.208H32.0724C31.8484 58.8053 31.475 59.28 30.9524 59.632C30.4297 59.9733 29.8324 60.144 29.1604 60.144ZM35.5061 60V58.56H36.8341V60H35.5061Z" fill="#16191C"/>
</svg>
