<svg width="47" height="48" viewBox="0 0 47 48" fill="none" xmlns="http://www.w3.org/2000/svg">
<rect x="0.5" y="1.14746" width="46" height="46" rx="23" stroke="#16191C"/>
<path d="M22.3242 18.9736L22.8828 18.415C23.1367 18.1865 23.5176 18.1865 23.7461 18.415L28.6973 23.3408C28.9258 23.5947 28.9258 23.9756 28.6973 24.2041L23.7461 29.1553C23.5176 29.3838 23.1367 29.3838 22.8828 29.1553L22.3242 28.5967C22.0957 28.3428 22.0957 27.9619 22.3242 27.708L25.3965 24.7881H18.1094C17.7539 24.7881 17.5 24.5342 17.5 24.1787V23.3662C17.5 23.0361 17.7539 22.7568 18.1094 22.7568H25.3965L22.3242 19.8623C22.0957 19.6084 22.0703 19.2275 22.3242 18.9736Z" fill="#16191C"/>
</svg>
