<svg width="47" height="44" viewBox="0 0 47 44" fill="none" xmlns="http://www.w3.org/2000/svg">
<path d="M45.7309 36.2188H43.4109V11.5134C43.4109 9.55703 41.8182 7.9643 39.8618 7.9643H37.9782C37.6291 7.9643 37.3382 8.24794 37.3382 8.6043C37.3382 8.96067 37.6218 9.2443 37.9782 9.2443H39.8618C41.1127 9.2443 42.1382 10.2625 42.1382 11.5207V36.2261H4.24727V11.5134C4.24727 10.2625 5.26545 9.23703 6.52364 9.23703H8.4C8.74909 9.23703 9.04 8.95339 9.04 8.59703C9.04 8.24067 8.75636 7.95703 8.4 7.95703H6.52364C4.56727 7.95703 2.97455 9.54976 2.97455 11.5061V36.2188H0.64C0.290909 36.2188 0 36.5025 0 36.8588C0 40.4952 2.96 43.4552 6.59636 43.4552H39.76C43.3964 43.4552 46.3564 40.4952 46.3564 36.8588C46.3709 36.5025 46.08 36.2188 45.7309 36.2188ZM39.7673 42.1825H6.60364C3.88364 42.1825 1.62909 40.1316 1.31636 37.4916H45.0618C44.7418 40.1316 42.4873 42.1825 39.7673 42.1825Z" fill="#FF7500"/>
<path d="M20.9077 40.4725H25.4532C25.8023 40.4725 26.0932 40.1889 26.0932 39.8325C26.0932 39.4761 25.8095 39.1925 25.4532 39.1925H20.9077C20.5586 39.1925 20.2677 39.4761 20.2677 39.8325C20.2677 40.1889 20.5586 40.4725 20.9077 40.4725ZM8.39136 12.1452C8.74045 12.1452 9.03136 11.8616 9.03136 11.5052C9.03136 11.1489 8.74773 10.8652 8.39136 10.8652H6.515C6.16591 10.8652 5.875 11.1489 5.875 11.5052V33.9489C5.875 34.298 6.15864 34.5889 6.515 34.5889H39.8605C40.2095 34.5889 40.5005 34.3052 40.5005 33.9489V11.5125C40.5005 11.1634 40.2168 10.8725 39.8605 10.8725H37.9768C37.6277 10.8725 37.3368 11.1561 37.3368 11.5125C37.3368 11.8689 37.6205 12.1525 37.9768 12.1525H39.2205V33.3161H7.14773V12.1525H8.39136V12.1452Z" fill="#FF7500"/>
<path d="M11.3041 28.7564H35.0713C35.4204 28.7564 35.7113 28.4727 35.7113 28.1164V5.68727V0.64C35.7113 0.290909 35.4277 0 35.0713 0H11.3041C10.955 0 10.6641 0.283636 10.6641 0.64V5.68727V28.1236C10.6713 28.4727 10.955 28.7564 11.3041 28.7564ZM34.4386 27.4836H11.9441V6.32H34.4386V27.4836ZM11.9441 1.28H34.4386V5.05455H11.9441V1.28Z" fill="#FF7500"/>
<path d="M15.0163 3.89107C15.418 3.89107 15.7436 3.56546 15.7436 3.1638C15.7436 2.76213 15.418 2.43652 15.0163 2.43652C14.6147 2.43652 14.2891 2.76213 14.2891 3.1638C14.2891 3.56546 14.6147 3.89107 15.0163 3.89107Z" fill="#FF7500"/>
<path d="M17.739 3.89107C18.1407 3.89107 18.4663 3.56546 18.4663 3.1638C18.4663 2.76213 18.1407 2.43652 17.739 2.43652C17.3373 2.43652 17.0117 2.76213 17.0117 3.1638C17.0117 3.56546 17.3373 3.89107 17.739 3.89107Z" fill="#FF7500"/>
<path d="M20.4656 3.89107C20.8672 3.89107 21.1928 3.56546 21.1928 3.1638C21.1928 2.76213 20.8672 2.43652 20.4656 2.43652C20.0639 2.43652 19.7383 2.76213 19.7383 3.1638C19.7383 3.56546 20.0639 3.89107 20.4656 3.89107Z" fill="#FF7500"/>
<path d="M15.7511 15.5709V24.2763C15.7511 24.6254 16.0348 24.9163 16.3911 24.9163C16.7475 24.9163 17.0311 24.6327 17.0311 24.2763V15.5709C17.933 15.2945 18.5948 14.4654 18.5948 13.4763C18.5948 12.4873 17.933 11.6582 17.0311 11.3818V9.53453C17.0311 9.18544 16.7475 8.89453 16.3911 8.89453C16.0348 8.89453 15.7511 9.17817 15.7511 9.53453V11.3818C14.8493 11.6582 14.1875 12.4873 14.1875 13.4763C14.1875 14.4654 14.8493 15.2945 15.7511 15.5709ZM16.3839 12.5454C16.893 12.5454 17.3075 12.96 17.3075 13.4691C17.3075 13.9782 16.893 14.4 16.3839 14.4C15.8748 14.4 15.4602 13.9854 15.4602 13.4691C15.4602 12.9527 15.8748 12.5454 16.3839 12.5454ZM20.282 22.6109V24.2763C20.282 24.6254 20.5657 24.9163 20.922 24.9163C21.2784 24.9163 21.562 24.6327 21.562 24.2763V22.6109C22.4639 22.3345 23.1257 21.5054 23.1257 20.5163C23.1257 19.5273 22.4639 18.6982 21.562 18.4218V9.53453C21.562 9.18544 21.2784 8.89453 20.922 8.89453C20.5657 8.89453 20.282 9.17817 20.282 9.53453V18.4218C19.3802 18.6982 18.7184 19.5273 18.7184 20.5163C18.7184 21.5054 19.3802 22.3345 20.282 22.6109ZM20.922 19.5927C21.4311 19.5927 21.8457 20.0073 21.8457 20.5163C21.8457 21.0254 21.4311 21.44 20.922 21.44C20.413 21.44 19.9984 21.0254 19.9984 20.5163C19.9984 20.0073 20.4057 19.5927 20.922 19.5927ZM24.8202 15.5709V24.2763C24.8202 24.6254 25.1039 24.9163 25.4602 24.9163C25.8166 24.9163 26.093 24.6254 26.093 24.2763V15.5709C26.9948 15.2945 27.6566 14.4654 27.6566 13.4763C27.6566 12.4873 26.9948 11.6582 26.093 11.3818V9.53453C26.093 9.18544 25.8093 8.89453 25.453 8.89453C25.0966 8.89453 24.813 9.17817 24.813 9.53453V11.3818C23.9111 11.6582 23.2493 12.4873 23.2493 13.4763C23.2493 14.4654 23.9184 15.2945 24.8202 15.5709ZM25.453 12.5454C25.962 12.5454 26.3766 12.96 26.3766 13.4691C26.3766 13.9782 25.962 14.4 25.453 14.4C24.9439 14.4 24.5293 13.9854 24.5293 13.4691C24.5293 12.9527 24.9439 12.5454 25.453 12.5454ZM29.3511 22.6109V24.2763C29.3511 24.6254 29.6348 24.9163 29.9911 24.9163C30.3475 24.9163 30.6311 24.6327 30.6311 24.2763V22.6109C31.533 22.3345 32.1948 21.5054 32.1948 20.5163C32.1948 19.5273 31.533 18.6982 30.6311 18.4218V9.53453C30.6311 9.18544 30.3475 8.89453 29.9911 8.89453C29.6348 8.89453 29.3511 9.17817 29.3511 9.53453V18.4218C28.4493 18.6982 27.7875 19.5273 27.7875 20.5163C27.7875 21.5054 28.4493 22.3345 29.3511 22.6109ZM29.9839 19.5927C30.493 19.5927 30.9075 20.0073 30.9075 20.5163C30.9075 21.0254 30.493 21.44 29.9839 21.44C29.4748 21.44 29.0602 21.0254 29.0602 20.5163C29.0602 20.0073 29.4748 19.5927 29.9839 19.5927Z" fill="#FF7500"/>
</svg>
