<svg width="48" height="48" viewBox="0 0 48 48" fill="none" xmlns="http://www.w3.org/2000/svg">
<path d="M43.32 3.0393H40.31C40.284 2.0953 39.942 1.4993 39.543 1.1383C38.788 0.454299 37.248 0.0132992 34.197 1.8023C33.601 2.1523 32.983 2.5723 32.354 3.0393H4.67C3.43052 3.04195 2.24271 3.53619 1.3672 4.41357C0.491694 5.29095 -2.82955e-06 6.47982 0 7.7193V37.0393C0 37.6743 0.129 38.2883 0.37 38.8563C0.405 38.9403 0.458 39.0143 0.498 39.0953C0.59 39.2823 0.678 39.4713 0.797 39.6453C1.31131 40.4115 2.03949 41.0096 2.891 41.3653C3.45926 41.6029 4.06906 41.7253 4.685 41.7253H16.13L14.828 45.4563H12.171C11.9058 45.4563 11.6514 45.5617 11.4639 45.7492C11.2764 45.9367 11.171 46.1911 11.171 46.4563C11.171 46.7215 11.2764 46.9759 11.4639 47.1634C11.6514 47.3509 11.9058 47.4563 12.171 47.4563H15.53L15.538 47.4573H35.83C36.0952 47.4573 36.3496 47.3519 36.5371 47.1644C36.7246 46.9769 36.83 46.7225 36.83 46.4573C36.83 46.1921 36.7246 45.9377 36.5371 45.7502C36.3496 45.5627 36.0952 45.4573 35.83 45.4573H33.173L31.871 41.7253H43.316C43.95 41.7253 44.553 41.5953 45.105 41.3663C45.106 41.3663 45.108 41.3663 45.11 41.3643C45.9618 41.0087 46.6904 40.4106 47.205 39.6443C47.311 39.4873 47.389 39.3153 47.475 39.1483C47.525 39.0483 47.589 38.9583 47.632 38.8543C47.745 38.5883 47.829 38.3103 47.89 38.0263C47.893 38.0113 47.9 37.9983 47.903 37.9843C47.9672 37.6734 47.9997 37.3568 48 37.0393V7.7293C48 5.1443 45.9 3.0393 43.32 3.0393ZM45.635 38.3633C45.605 38.4173 45.581 38.4753 45.547 38.5263C45.45 38.6703 45.339 38.8063 45.213 38.9323C44.9652 39.1821 44.6703 39.3803 44.3453 39.5154C44.0204 39.6505 43.6719 39.7198 43.32 39.7193H4.68C3.967 39.7193 3.295 39.4393 2.787 38.9323C2.66327 38.8083 2.55176 38.6727 2.454 38.5273C2.405 38.4543 2.369 38.3723 2.328 38.2943C2.289 38.2233 2.244 38.1543 2.213 38.0803C2.078 37.7603 2.003 37.4103 2.003 37.0433V35.1433H45.997V37.0433C45.997 37.4103 45.922 37.7593 45.789 38.0783C45.746 38.1773 45.689 38.2693 45.635 38.3633ZM35.21 3.5273C37.188 2.3673 38.054 2.4873 38.201 2.6203C38.348 2.7533 38.552 3.6033 37.591 5.6853C36.676 7.6703 35.068 9.9823 33.063 12.1933C29.914 15.6693 25.811 19.5933 23.823 20.6633L22.392 19.3673L21.579 18.6313C22.356 16.8213 25.279 12.9743 29.177 8.6723C31.182 6.4603 33.324 4.6333 35.21 3.5273ZM19.765 20.0333C19.868 20.0063 19.972 19.9833 20.075 19.9683L21.84 21.5673L22.602 22.2573C22.492 23.0443 22.052 25.0603 20.365 26.2623C19.003 27.2313 17.105 27.5073 14.702 27.0913C15.552 26.1873 16.535 24.7313 17.395 22.3963C17.417 22.3193 17.977 20.5243 19.765 20.0333ZM4.67 5.0393H29.962C29.1732 5.76914 28.4168 6.53321 27.695 7.3293C26.051 9.1433 20.939 14.9293 19.685 18.0123C19.5361 18.0356 19.3882 18.0656 19.242 18.1023C16.347 18.8963 15.508 21.7193 15.497 21.7693C13.961 25.9343 12.109 26.5953 12.114 26.5943C11.903 26.6501 11.7161 26.7733 11.5816 26.9452C11.4471 27.1171 11.3725 27.3282 11.3691 27.5464C11.3657 27.7646 11.4337 27.978 11.5628 28.154C11.6918 28.33 11.8749 28.459 12.084 28.5213C13.787 29.0253 15.34 29.2783 16.736 29.2783C18.636 29.2773 20.246 28.8103 21.546 27.8763C23.862 26.2133 24.443 23.5903 24.586 22.5113C27.946 20.7953 34.26 13.8513 34.546 13.5363C36.683 11.1783 38.409 8.6883 39.408 6.5233C39.661 5.9733 39.835 5.4933 39.977 5.0393H43.32C44.0319 5.04142 44.7138 5.32583 45.2162 5.83013C45.7187 6.33443 46.0005 7.01743 46 7.7293V33.1443H2V7.7193C1.99947 7.01009 2.28028 6.32962 2.78083 5.8272C3.28138 5.32477 3.96079 5.04142 4.67 5.0393ZM31.054 45.4563H16.947L18.249 41.7253H29.752L31.054 45.4563Z" fill="#FF7500"/>
</svg>
