<svg width="46" height="46" viewBox="0 0 46 46" fill="none" xmlns="http://www.w3.org/2000/svg">
<g clip-path="url(#clip0_4849_10643)">
<path d="M23 36.4047C15.6112 36.4047 9.59531 30.3888 9.59531 23C9.59531 15.6113 15.6112 9.59533 23 9.59533C30.3888 9.59533 36.4047 15.6113 36.4047 23C36.4047 30.3888 30.3959 36.4047 23 36.4047ZM23 10.9897C16.3731 10.9897 10.9897 16.3803 10.9897 23C10.9897 29.6197 16.3803 35.0103 23 35.0103C29.6197 35.0103 35.0103 29.6197 35.0103 23C35.0103 16.3803 29.6269 10.9897 23 10.9897ZM6.01594 12.0319C4.40594 12.0319 2.89656 11.4066 1.76094 10.271C0.625313 9.13533 0 7.61877 0 6.01595C0 4.41314 0.625313 2.89658 1.76094 1.76095C2.31884 1.20111 2.98207 0.757274 3.71237 0.455039C4.44266 0.152805 5.22557 -0.00184271 6.01594 1.65678e-05C7.61875 1.65678e-05 9.13531 0.625329 10.2709 1.76095C12.6141 4.10408 12.6141 7.92064 10.2709 10.271C9.71346 10.8314 9.05032 11.2756 8.31992 11.5779C7.58953 11.8801 6.80641 12.0345 6.01594 12.0319ZM6.01594 1.39439C5.40865 1.39306 4.80709 1.5117 4.24577 1.74349C3.68446 1.97527 3.17446 2.31564 2.74504 2.74506C2.31562 3.17447 1.97525 3.68448 1.74347 4.24579C1.51168 4.8071 1.39305 5.40867 1.39438 6.01595C1.39305 6.62324 1.51168 7.2248 1.74347 7.78612C1.97525 8.34743 2.31562 8.85743 2.74504 9.28685C3.17446 9.71627 3.68446 10.0566 4.24577 10.2884C4.80709 10.5202 5.40865 10.6388 6.01594 10.6375C7.25219 10.6375 8.40938 10.156 9.28625 9.28627C11.0903 7.4822 11.0903 4.5497 9.28625 2.75283C8.85831 2.32105 8.34883 1.97861 7.78742 1.74541C7.22601 1.51221 6.62386 1.39289 6.01594 1.39439ZM39.9841 46C38.3741 46 36.8647 45.3747 35.7291 44.2391C35.1686 43.6816 34.7244 43.0185 34.4221 42.2881C34.1199 41.5577 33.9655 40.7745 33.9681 39.9841C33.9681 38.3741 34.5934 36.8647 35.7291 35.7291C36.2865 35.1687 36.9497 34.7244 37.6801 34.4222C38.4105 34.1199 39.1936 33.9656 39.9841 33.9681C41.5869 33.9681 43.1034 34.5935 44.2391 35.7291C46.5822 38.0722 46.5822 41.8888 44.2391 44.2391C43.6816 44.7995 43.0184 45.2437 42.288 45.546C41.5577 45.8483 40.7745 46.0026 39.9841 46ZM39.9841 35.3625C38.7478 35.3625 37.5906 35.8441 36.7138 36.7138C35.8369 37.5835 35.3625 38.7478 35.3625 39.9841C35.3612 40.5914 35.4798 41.1929 35.7116 41.7542C35.9434 42.3156 36.2838 42.8256 36.7132 43.255C37.1426 43.6844 37.6526 44.0248 38.2139 44.2565C38.7752 44.4883 39.3768 44.607 39.9841 44.6056C41.2203 44.6056 42.3775 44.1241 43.2544 43.2544C45.0584 41.4503 45.0584 38.5178 43.2544 36.721C42.8268 36.2886 42.3174 35.9458 41.7559 35.7126C41.1944 35.4793 40.5921 35.3603 39.9841 35.3625Z" fill="#FF7500"/>
<path d="M36.225 36.9222C36.0453 36.9222 35.8657 36.8575 35.7363 36.7209L31.4957 32.4875C31.3657 32.3553 31.2933 32.177 31.2944 31.9916C31.2944 31.6034 31.6035 31.2944 31.9916 31.2944C32.2072 31.2944 32.4085 31.395 32.5378 31.5531L36.7282 35.7363C37.0013 36.0094 37.0013 36.4478 36.7282 36.7209C36.5844 36.8503 36.4047 36.9222 36.225 36.9222ZM14.0157 14.7128C13.836 14.7128 13.6563 14.6481 13.5197 14.5116L9.27909 10.2709C9.2142 10.2064 9.16271 10.1297 9.12757 10.0452C9.09243 9.96072 9.07434 9.87011 9.07434 9.7786C9.07434 9.68709 9.09243 9.59648 9.12757 9.51199C9.16271 9.4275 9.2142 9.35078 9.27909 9.28626C9.55222 9.01313 9.99066 9.01313 10.2638 9.28626L14.5044 13.5269C14.6016 13.6238 14.6679 13.7474 14.6949 13.882C14.7219 14.0166 14.7084 14.1561 14.6561 14.2831C14.6038 14.41 14.515 14.5185 14.401 14.595C14.287 14.6715 14.1529 14.7125 14.0157 14.7128ZM39.9841 12.0319C38.3741 12.0319 36.8647 11.4066 35.7291 10.2709C34.5935 9.13532 33.9682 7.62595 33.9682 6.01594C33.9682 4.40594 34.5935 2.89657 35.7291 1.76094C36.2874 1.20162 36.9507 0.758112 37.6809 0.455913C38.4111 0.153715 39.1938 -0.00122075 39.9841 7.24273e-06C41.5869 7.24273e-06 43.1035 0.62532 44.2391 1.76094C46.5822 4.10407 46.5822 7.92063 44.2391 10.2709C43.6816 10.8314 43.0185 11.2756 42.2881 11.5779C41.5577 11.8801 40.7746 12.0345 39.9841 12.0319ZM39.9841 1.39438C38.7478 1.39438 37.5907 1.87594 36.7138 2.74563C36.2825 3.17354 35.9408 3.68317 35.7088 4.24469C35.4768 4.80622 35.3591 5.40838 35.3625 6.01594C35.3612 6.62323 35.4798 7.2248 35.7116 7.78611C35.9434 8.34742 36.2838 8.85743 36.7132 9.28684C37.1426 9.71626 37.6526 10.0566 38.2139 10.2884C38.7752 10.5202 39.3768 10.6388 39.9841 10.6375C41.2203 10.6375 42.3775 10.1559 43.2544 9.28626C45.0585 7.48219 45.0585 4.54969 43.2544 2.75282C42.8269 2.32049 42.3175 1.97769 41.756 1.74445C41.1945 1.51121 40.5921 1.3922 39.9841 1.39438ZM6.01597 46C4.40597 46 2.89659 45.3747 1.76097 44.2391C1.20055 43.6816 0.756331 43.0185 0.454056 42.2881C0.151781 41.5577 -0.00254116 40.7745 3.16472e-05 39.9841C3.16472e-05 38.3741 0.625344 36.8647 1.76097 35.7291C2.31844 35.1687 2.98159 34.7244 3.71198 34.4222C4.44238 34.1199 5.2255 33.9656 6.01597 33.9681C7.61878 33.9681 9.13534 34.5934 10.271 35.7291C12.6141 38.0722 12.6141 41.8888 10.271 44.2391C9.7135 44.7995 9.05035 45.2437 8.31995 45.546C7.58956 45.8483 6.80644 46.0026 6.01597 46ZM6.01597 35.3625C4.77972 35.3625 3.62253 35.8441 2.74566 36.7138C1.86878 37.5834 1.39441 38.7478 1.39441 39.9841C1.39308 40.5914 1.51171 41.1929 1.7435 41.7542C1.97529 42.3155 2.31566 42.8256 2.74507 43.255C3.17449 43.6844 3.68449 44.0248 4.24581 44.2565C4.80712 44.4883 5.40868 44.607 6.01597 44.6056C7.25222 44.6056 8.40941 44.1241 9.28628 43.2544C11.0903 41.4503 11.0903 38.5178 9.28628 36.7209C8.85834 36.2892 8.34886 35.9467 7.78745 35.7135C7.22604 35.4803 6.62389 35.361 6.01597 35.3625Z" fill="#FF7500"/>
<path d="M9.77421 36.9218C9.63633 36.923 9.50123 36.883 9.38614 36.8071C9.27104 36.7311 9.18117 36.6226 9.12797 36.4954C9.07477 36.3682 9.06066 36.228 9.08743 36.0928C9.1142 35.9575 9.18063 35.8333 9.27827 35.7359L13.4901 31.5312C13.5833 31.4251 13.7067 31.35 13.8437 31.3159C13.9807 31.2818 14.1248 31.2903 14.2569 31.3403C14.3889 31.3903 14.5026 31.4794 14.5826 31.5957C14.6627 31.712 14.7053 31.85 14.7048 31.9912C14.7048 32.1781 14.633 32.3578 14.4964 32.4943L10.2558 36.7278C10.1336 36.85 9.9539 36.9218 9.77421 36.9218ZM31.9836 14.7125C31.8457 14.7136 31.7106 14.6736 31.5955 14.5977C31.4804 14.5217 31.3905 14.4133 31.3373 14.286C31.2841 14.1588 31.27 14.0187 31.2968 13.8834C31.3236 13.7481 31.39 13.6239 31.4876 13.5265L35.7283 9.2859C36.0014 9.01277 36.4398 9.01277 36.713 9.2859C36.9861 9.55902 36.9861 9.99746 36.713 10.2706L32.4723 14.5112C32.3422 14.6398 32.1666 14.7121 31.9836 14.7125ZM18.5286 24.5593C18.5286 24.969 18.4495 25.3284 18.2986 25.6375C18.1476 25.9465 17.9392 26.2053 17.6805 26.4137C17.4217 26.6221 17.1126 26.7731 16.7605 26.8809C16.3967 26.9892 16.0188 27.0425 15.6392 27.039C15.177 27.0423 14.7177 26.9669 14.2808 26.8162C14.1011 26.7515 13.9573 26.6868 13.8351 26.6221C13.713 26.5503 13.6339 26.4928 13.5764 26.4425C13.5212 26.3782 13.4818 26.3019 13.4614 26.2196C13.4398 26.119 13.4255 25.9825 13.4255 25.7956C13.4255 25.6734 13.4327 25.5656 13.4398 25.4793C13.447 25.3931 13.4614 25.3284 13.4758 25.2709C13.4973 25.2206 13.5189 25.1846 13.5476 25.1559C13.5764 25.1271 13.6123 25.12 13.6555 25.12C13.713 25.12 13.792 25.1559 13.8926 25.2206C13.9933 25.2853 14.1298 25.3571 14.288 25.4434C14.4461 25.5225 14.6402 25.5943 14.863 25.6662C15.0858 25.7309 15.3445 25.7668 15.6392 25.7668C15.8333 25.7668 16.0058 25.7453 16.1567 25.695C16.3076 25.6518 16.437 25.58 16.5448 25.5009C16.6527 25.4146 16.7317 25.314 16.7892 25.1846C16.8467 25.0625 16.8755 24.9187 16.8755 24.7678C16.8755 24.5881 16.8252 24.4372 16.7317 24.315C16.6383 24.1856 16.5089 24.0778 16.358 23.9771C16.1998 23.8765 16.0273 23.7831 15.8333 23.6968L15.2223 23.4237C15.0139 23.3303 14.8126 23.2153 14.6114 23.0931C14.4162 22.9731 14.2394 22.8254 14.0867 22.6546C13.9286 22.4821 13.8064 22.2809 13.713 22.0509C13.6195 21.8209 13.5692 21.5406 13.5692 21.21C13.5692 20.8362 13.6411 20.5056 13.7776 20.2253C13.9142 19.945 14.1011 19.7078 14.3383 19.5209C14.5755 19.334 14.8486 19.1975 15.172 19.104C15.4883 19.0106 15.8333 18.9675 16.1855 18.9675C16.3723 18.9675 16.552 18.9818 16.7389 19.0106C17.067 19.0578 17.3866 19.1522 17.6877 19.2909C17.8098 19.3484 17.8961 19.3987 17.932 19.4418C17.9752 19.485 17.9967 19.5137 18.0111 19.5425C18.0255 19.5712 18.0398 19.6071 18.047 19.6575C18.0542 19.7006 18.0614 19.7653 18.0686 19.83C18.0758 19.9018 18.0758 19.9881 18.0758 20.0959C18.0758 20.2109 18.0758 20.3115 18.0686 20.3906C18.0614 20.4696 18.0542 20.5343 18.0398 20.5918C18.0255 20.6421 18.0039 20.6853 17.9823 20.7068C17.9536 20.7284 17.9177 20.7428 17.8745 20.7428C17.8314 20.7428 17.7595 20.714 17.6661 20.6565C17.5726 20.599 17.4505 20.5415 17.3067 20.4696C17.163 20.405 17.0048 20.3403 16.818 20.29C16.6311 20.2325 16.4298 20.2109 16.207 20.2109C16.0345 20.2109 15.8836 20.2325 15.7542 20.2756C15.6248 20.3187 15.517 20.3762 15.4308 20.4481C15.3445 20.52 15.2798 20.6134 15.2367 20.714C15.1936 20.8218 15.172 20.9296 15.172 21.0446C15.172 21.2171 15.2223 21.3681 15.3158 21.4975C15.4092 21.6268 15.5386 21.7346 15.6967 21.8353C15.8548 21.9359 16.0345 22.0293 16.2358 22.1156C16.437 22.2018 16.6455 22.2953 16.8539 22.3887C17.0623 22.4821 17.2708 22.5971 17.472 22.7193C17.6733 22.8415 17.853 22.9853 18.0111 23.1578C18.1692 23.3303 18.2914 23.5315 18.392 23.7615C18.4927 23.9915 18.5286 24.2503 18.5286 24.5593ZM24.3648 26.2843C24.3648 26.3993 24.3576 26.5 24.3505 26.579C24.3433 26.6581 24.3289 26.7228 24.3073 26.7659C24.2858 26.8162 24.2642 26.8521 24.2355 26.8737C24.2067 26.8953 24.1708 26.9096 24.1348 26.9096H20.2176C20.0883 26.9096 19.9733 26.8737 19.8798 26.7946C19.7864 26.7156 19.7433 26.5862 19.7433 26.4137V19.6071C19.7433 19.4275 19.7864 19.3053 19.8798 19.2262C19.9733 19.1471 20.0811 19.1112 20.2176 19.1112H24.1133C24.1492 19.1112 24.1851 19.1184 24.2067 19.14C24.2355 19.1615 24.257 19.1975 24.2786 19.2478C24.3001 19.2981 24.3145 19.3628 24.3217 19.4418C24.3407 19.6378 24.3407 19.8352 24.3217 20.0312C24.3145 20.1103 24.3001 20.175 24.2786 20.2181C24.257 20.2684 24.2355 20.3043 24.2067 20.3259C24.1806 20.3482 24.1476 20.3608 24.1133 20.3618H21.3245V22.2665H23.682C23.718 22.2665 23.7539 22.2809 23.7826 22.3025C23.8114 22.324 23.8401 22.36 23.8545 22.4031C23.8761 22.4462 23.8905 22.5109 23.8976 22.59C23.9157 22.7812 23.9157 22.9737 23.8976 23.165C23.8905 23.2368 23.8761 23.3015 23.8545 23.3518C23.833 23.395 23.8114 23.4309 23.7826 23.4525C23.7531 23.4727 23.7178 23.4828 23.682 23.4812H21.3245V25.6806H24.1348C24.1708 25.6806 24.2067 25.695 24.2355 25.7165C24.2642 25.7381 24.293 25.774 24.3073 25.8243C24.3289 25.8746 24.3433 25.9393 24.3505 26.0112C24.3576 26.0831 24.3648 26.1621 24.3648 26.2843ZM32.573 22.9062C32.573 23.5531 32.4939 24.1353 32.3286 24.6456C32.1705 25.1559 31.9261 25.5871 31.6098 25.9465C31.2936 26.3059 30.8983 26.5718 30.4311 26.7587C29.9639 26.9456 29.4177 27.039 28.8067 27.039C28.203 27.039 27.6711 26.96 27.2183 26.8018C26.7881 26.6564 26.4005 26.407 26.0898 26.0759C25.788 25.7525 25.5651 25.3356 25.4142 24.8325C25.2633 24.3293 25.1914 23.7328 25.1914 23.05C25.1914 22.4175 25.2705 21.8496 25.4358 21.3465C25.5939 20.8434 25.8383 20.4121 26.1545 20.06C26.4708 19.7078 26.8661 19.4346 27.3333 19.2478C27.8005 19.0609 28.3467 18.9675 28.9648 18.9675C29.5542 18.9675 30.0789 19.0465 30.5317 19.2046C30.9845 19.3628 31.3655 19.6 31.6673 19.9306C31.9692 20.254 32.1992 20.6709 32.3573 21.1668C32.4939 21.6484 32.573 22.2306 32.573 22.9062ZM30.9055 22.9925C30.9055 22.5828 30.8767 22.209 30.812 21.8712C30.7473 21.5334 30.6395 21.2459 30.4814 21.0087C30.3233 20.7715 30.122 20.5846 29.8633 20.4553C29.6045 20.3259 29.2811 20.2612 28.9001 20.2612C28.512 20.2612 28.1814 20.3331 27.9226 20.484C27.6639 20.6278 27.4483 20.829 27.2901 21.0734C27.132 21.3178 27.017 21.6053 26.9523 21.9359C26.8876 22.2665 26.8517 22.6115 26.8517 22.9781C26.8517 23.4021 26.8805 23.7903 26.9452 24.1281C27.0098 24.4659 27.1176 24.7606 27.2686 24.9978C27.4195 25.2421 27.628 25.4218 27.8867 25.5512C28.1455 25.6806 28.4689 25.7381 28.857 25.7381C29.2451 25.7381 29.5758 25.6662 29.8345 25.5225C30.0933 25.3787 30.3089 25.1775 30.467 24.9331C30.6251 24.6815 30.7402 24.394 30.8048 24.0634C30.8767 23.7184 30.9055 23.3662 30.9055 22.9925Z" fill="#FF7500"/>
</g>
<defs>
<clipPath id="clip0_4849_10643">
<rect width="46" height="46" fill="white"/>
</clipPath>
</defs>
</svg>
