<svg width="406" height="473" viewBox="0 0 406 473" fill="none" xmlns="http://www.w3.org/2000/svg">
<g clip-path="url(#clip0_291_3780)">
<path opacity="0.8" d="M248.03 25.1328H244.359V28.7988H248.03V25.1328Z" fill="#FF7500"/>
<path d="M255.827 25.1328H252.156V28.7988H255.827V25.1328Z" fill="#FF7500"/>
<path opacity="0.4" d="M263.623 25.1328H259.953V28.7988H263.623V25.1328Z" fill="#FF7500"/>
<path d="M271.42 25.1328H267.75V28.7988H271.42V25.1328Z" fill="#FF7500"/>
<path d="M296.237 25.1328H292.566V28.7988H296.237V25.1328Z" fill="#FF7500"/>
<path opacity="0.8" d="M271.42 51.2323H267.75V54.8983H271.42V51.2323Z" fill="#FF7500"/>
<path d="M267.752 71.2218H271.422V67.5558H267.752V71.2218Z" fill="#FF7500"/>
<path opacity="0.4" d="M267.752 78.6266H271.422V74.9606H267.752V78.6266Z" fill="#FF7500"/>
<path d="M267.752 86.0498H271.422V82.3838H267.752V86.0498Z" fill="#FF7500"/>
<path opacity="0.8" d="M285.611 75.9274H289.281V72.2614H285.611V75.9274Z" fill="#FF7500"/>
<path d="M291.798 70.2733H295.469V66.6074H291.798V70.2733Z" fill="#FF7500"/>
<path opacity="0.4" d="M304.034 25.1328H300.363V28.7988H304.034V25.1328Z" fill="#FF7500"/>
<path opacity="0.4" d="M149.498 85.3384H153.168V81.6724H149.498V85.3384Z" fill="#FF7500"/>
<path d="M141.701 85.3384H145.371V81.6724H141.701V85.3384Z" fill="#FF7500"/>
<path d="M115.06 46.7273H118.73V43.0613H115.06V46.7273Z" fill="#FF7500"/>
<path d="M115.06 39.1765H118.73V35.5106H115.06V39.1765Z" fill="#FF7500"/>
<path d="M115.06 31.5892H118.73V27.9233H115.06V31.5892Z" fill="#FF7500"/>
<path d="M116.884 85.3384H120.555V81.6724H116.884V85.3384Z" fill="#FF7500"/>
<path opacity="0.8" d="M141.701 59.239H145.371V55.5731H141.701V59.239Z" fill="#FF7500"/>
<path d="M145.37 39.2495H141.699V42.9155H145.37V39.2495Z" fill="#FF7500"/>
<path opacity="0.4" d="M145.37 31.8446H141.699V35.5106H145.37V31.8446Z" fill="#FF7500"/>
<path d="M145.37 24.4215H141.699V28.0875H145.37V24.4215Z" fill="#FF7500"/>
<path opacity="0.4" d="M109.087 85.3384H112.758V81.6724H109.087V85.3384Z" fill="#FF7500"/>
<path d="M29.1981 314.981H28.3398V331.687H29.1981V314.981Z" fill="#758AAB"/>
<path d="M29.1981 335.609H28.3398V340.971H29.1981V335.609Z" fill="#FF7500"/>
<path d="M353.722 16.67H352.863V33.3766H353.722V16.67Z" fill="#FF7500"/>
<path d="M353.722 37.225H352.863V42.0035H353.722V37.225Z" fill="#758AAB"/>
<path d="M353.722 45.9978H352.863V50.7763H353.722V45.9978Z" fill="#758AAB"/>
<path d="M388.307 270.132H387.449V286.839H388.307V270.132Z" fill="#758AAB"/>
<path d="M388.307 290.669H387.449V295.447H388.307V290.669Z" fill="#FF7500"/>
<path d="M388.307 299.441H387.449V304.22H388.307V299.441Z" fill="#FF7500"/>
<path d="M388.307 308.214H387.449V321.766H388.307V308.214Z" fill="#FF7500"/>
<path d="M20.909 247.188H20.0508V252.55H20.909V247.188Z" fill="#758AAB"/>
<path d="M20.909 204.655H20.0508V221.599H20.909V204.655Z" fill="#758AAB"/>
<path d="M57.4285 139.945H56.5703V145.307H57.4285V139.945Z" fill="#758AAB"/>
<path d="M57.4285 119.317H56.5703V136.023H57.4285V119.317Z" fill="#FF7500"/>
<path d="M57.4285 97.4124H56.5703V114.356H57.4285V97.4124Z" fill="#758AAB"/>
<path d="M57.4285 72.2432H56.5703V89.1868H57.4285V72.2432Z" fill="#758AAB"/>
<path style="mix-blend-mode:lighten" opacity="0.3" d="M121.34 283.902V473H280.296V287.13L121.34 283.902Z" fill="#020230"/>
<path style="mix-blend-mode:lighten" opacity="0.6" d="M121.34 283.902V473H123.02V287.13L121.34 283.902Z" fill="url(#paint0_linear_291_3780)"/>
<path style="mix-blend-mode:lighten" opacity="0.6" d="M278.633 283.902V473H280.295V287.13L278.633 283.902Z" fill="url(#paint1_linear_291_3780)"/>
<path opacity="0.4" d="M160.089 191.505C160.092 191.969 159.958 192.422 159.702 192.809C159.447 193.196 159.082 193.498 158.654 193.677C158.226 193.856 157.755 193.904 157.3 193.814C156.845 193.725 156.427 193.502 156.099 193.174C155.771 192.847 155.548 192.429 155.458 191.974C155.368 191.52 155.416 191.049 155.595 190.622C155.775 190.194 156.077 189.83 156.464 189.575C156.851 189.32 157.306 189.185 157.77 189.189C158.385 189.189 158.974 189.433 159.409 189.867C159.844 190.302 160.089 190.891 160.089 191.505Z" fill="#758AAB"/>
<path opacity="0.4" d="M194.108 157.126C194.108 158.951 193.566 160.735 192.551 162.253C191.536 163.77 190.093 164.953 188.405 165.652C186.716 166.35 184.858 166.533 183.066 166.177C181.274 165.821 179.627 164.942 178.335 163.651C177.043 162.361 176.163 160.716 175.806 158.926C175.45 157.136 175.633 155.28 176.332 153.594C177.032 151.908 178.216 150.466 179.735 149.452C181.255 148.438 183.041 147.897 184.869 147.897C187.319 147.897 189.669 148.869 191.402 150.6C193.135 152.331 194.108 154.678 194.108 157.126Z" fill="#758AAB"/>
<path opacity="0.8" d="M188.701 157.126C188.701 157.883 188.476 158.624 188.054 159.254C187.633 159.883 187.034 160.374 186.333 160.664C185.633 160.954 184.862 161.03 184.118 160.882C183.374 160.734 182.691 160.37 182.154 159.834C181.618 159.298 181.253 158.616 181.105 157.873C180.957 157.13 181.033 156.36 181.323 155.66C181.613 154.96 182.105 154.362 182.735 153.941C183.366 153.52 184.107 153.296 184.866 153.296C185.883 153.296 186.858 153.699 187.577 154.417C188.297 155.136 188.701 156.11 188.701 157.126Z" fill="#758AAB"/>
<path opacity="0.4" d="M148.403 148.17C151.004 148.17 153.114 146.064 153.114 143.465C153.114 140.866 151.004 138.759 148.403 138.759C145.801 138.759 143.691 140.866 143.691 143.465C143.691 146.064 145.801 148.17 148.403 148.17Z" fill="#FF7500"/>
<path opacity="0.8" d="M148.401 145.781C149.682 145.781 150.72 144.744 150.72 143.465C150.72 142.186 149.682 141.149 148.401 141.149C147.12 141.149 146.082 142.186 146.082 143.465C146.082 144.744 147.12 145.781 148.401 145.781Z" fill="#FF7500"/>
<path opacity="0.4" d="M113.014 308.032C113.014 308.318 112.929 308.597 112.77 308.834C112.61 309.071 112.384 309.256 112.119 309.365C111.855 309.473 111.564 309.501 111.283 309.443C111.003 309.386 110.746 309.247 110.545 309.044C110.344 308.841 110.208 308.582 110.154 308.302C110.101 308.021 110.132 307.731 110.244 307.468C110.356 307.205 110.544 306.981 110.783 306.825C111.023 306.669 111.304 306.587 111.59 306.591C111.778 306.591 111.965 306.628 112.139 306.701C112.313 306.774 112.471 306.88 112.603 307.014C112.736 307.148 112.84 307.307 112.911 307.482C112.981 307.656 113.016 307.843 113.014 308.032Z" fill="#FF7500"/>
<path opacity="0.6" d="M96.7814 56.3756C128.627 47.1468 166.298 41.9488 206.526 42.2771C211.821 42.2771 217.08 42.4595 222.266 42.6966C257.582 45.9066 270.145 83.1498 248.853 99.4551C239.084 106.933 227.306 106.751 222.266 106.751C217.226 106.751 211.821 106.368 206.526 106.331C166.353 106.003 128.627 111.201 96.7814 120.43C64.6432 128.327 62.7441 95.6797 73.9925 75.7085C78.8479 66.6016 86.9981 59.6874 96.7814 56.3756Z" fill="#2E3D55"/>
<path d="M87.7767 122.363C79.2673 122.363 74.4284 118.715 71.7441 115.195C64.0017 104.981 66.8138 87.0711 73.3875 75.3802C78.338 66.1161 86.6377 59.0851 96.5964 55.7189C129.648 46.1619 167.593 41.2192 206.542 41.584C211.801 41.584 217.115 41.7664 222.319 42.0035C240.068 43.6267 254.347 54.424 258.712 69.5073C262.108 81.2712 258.492 92.9439 249.289 100.002C239.319 107.608 227.377 107.553 222.282 107.498C217.188 107.444 211.764 107.134 206.524 107.097C167.72 106.805 129.83 111.639 96.9616 121.159C93.9579 121.919 90.875 122.323 87.7767 122.363ZM96.9068 57.0321C87.3237 60.3191 79.348 67.1184 74.5927 76.055C68.2199 87.3629 65.4625 104.617 72.7667 114.356C77.4778 120.575 85.7132 122.472 96.5051 119.828C129.374 110.289 167.483 105.383 206.414 105.711C211.673 105.711 216.987 105.893 222.191 106.13C227.395 106.368 238.735 106.24 248.321 98.835C252.633 95.5288 255.823 90.979 257.459 85.8017C259.096 80.6243 259.099 75.0698 257.47 69.8903C253.252 55.2994 239.447 44.9399 222.3 43.3714C217.133 43.1525 211.837 43.0066 206.597 42.9702C167.72 42.6783 129.848 47.5116 96.9981 57.0321H96.9068Z" fill="#758AAB"/>
<path d="M201.194 369.459C197.186 369.543 193.225 368.594 189.69 366.705L112.266 322.075C109.053 320.252 107.281 317.716 107.281 315.017C107.281 312.318 109.107 309.801 112.266 307.959L189.27 263.238C192.838 261.43 196.783 260.489 200.783 260.489C204.784 260.489 208.728 261.43 212.296 263.238L289.72 307.868C292.934 309.691 294.705 312.227 294.705 314.926C294.705 317.625 292.879 320.142 289.72 321.984L212.716 366.705C209.174 368.592 205.207 369.54 201.194 369.459ZM200.792 261.852C197.035 261.778 193.32 262.663 190.001 264.423L112.978 309.199C110.239 310.786 108.724 312.847 108.724 315.017C108.724 317.188 110.239 319.23 112.978 320.817L190.402 365.465C193.748 367.156 197.445 368.037 201.194 368.037C204.944 368.037 208.64 367.156 211.986 365.465L289.008 320.744C291.747 319.157 293.263 317.096 293.263 314.926C293.263 312.756 291.747 310.713 289.008 309.126L211.584 264.46C208.285 262.718 204.597 261.84 200.865 261.906L200.792 261.852Z" fill="#758AAB"/>
<path d="M201.194 395.249C197.189 395.329 193.229 394.387 189.69 392.513L112.266 347.865C109.053 346.041 107.281 343.506 107.281 340.807C107.281 338.107 109.107 335.59 112.266 333.748L189.27 289.027C192.838 287.22 196.783 286.278 200.783 286.278C204.784 286.278 208.728 287.22 212.296 289.027L289.72 333.657C292.934 335.481 294.705 338.016 294.705 340.715C294.705 343.415 292.879 345.932 289.72 347.774L212.716 392.495C209.174 394.381 205.207 395.33 201.194 395.249ZM200.792 287.641C197.035 287.568 193.32 288.453 190.001 290.213L112.978 334.988C110.239 336.575 108.724 338.636 108.724 340.807C108.724 342.977 110.239 345.02 112.978 346.606L190.402 391.255C193.748 392.945 197.445 393.826 201.194 393.826C204.944 393.826 208.64 392.945 211.986 391.255L289.008 346.533C291.747 344.947 293.263 342.886 293.263 340.715C293.263 338.545 291.747 336.502 289.008 334.916L211.584 290.267C208.286 288.519 204.598 287.635 200.865 287.696L200.792 287.641Z" fill="#758AAB"/>
<path d="M201.194 421.038C197.189 421.118 193.229 420.177 189.69 418.302L112.266 373.654C109.053 371.83 107.281 369.295 107.281 366.596C107.281 363.897 109.107 361.398 112.266 359.538L189.27 314.817C192.838 313.009 196.783 312.067 200.783 312.067C204.784 312.067 208.728 313.009 212.296 314.817L289.72 359.465C292.934 361.289 294.705 363.805 294.705 366.505C294.705 369.204 292.879 371.721 289.72 373.563L212.716 418.284C209.174 420.171 205.207 421.119 201.194 421.038ZM200.792 313.43C197.035 313.357 193.32 314.242 190.001 316.002L112.978 360.778C110.239 362.365 108.724 364.426 108.724 366.596C108.724 368.766 110.239 370.827 112.978 372.396L190.402 417.044C193.748 418.735 197.445 419.616 201.194 419.616C204.944 419.616 208.64 418.735 211.986 417.044L289.008 372.323C291.747 370.736 293.263 368.675 293.263 366.505C293.263 364.334 291.747 362.292 289.008 360.705L211.584 316.057C208.286 314.309 204.598 313.424 200.865 313.485L200.792 313.43Z" fill="#758AAB"/>
<path d="M294.358 290.523V253.517L247.447 259.754L212.314 239.509C208.86 237.755 205.041 236.841 201.166 236.841C197.292 236.841 193.472 237.755 190.018 239.509L184.54 242.975L108.395 253.134V290.869C108.56 292.214 109.069 293.493 109.871 294.586C110.674 295.678 111.743 296.546 112.978 297.107L190.402 341.737C193.859 343.491 197.681 344.405 201.559 344.405C205.436 344.405 209.259 343.491 212.716 341.737L289.72 297.016C290.952 296.456 292.02 295.591 292.822 294.502C293.624 293.413 294.134 292.138 294.303 290.796L294.358 290.523Z" fill="url(#paint2_linear_291_3780)"/>
<path d="M289.736 246.75L212.312 202.102C208.858 200.348 205.039 199.434 201.164 199.434C197.29 199.434 193.47 200.348 190.016 202.102L112.994 246.823C106.84 250.38 106.84 256.143 112.994 259.59L190.418 304.238C193.875 305.992 197.698 306.907 201.575 306.907C205.452 306.907 209.275 305.992 212.732 304.238L289.736 259.517C295.908 256.052 295.908 250.288 289.736 246.75Z" fill="#4F5B7B"/>
<path d="M289.738 257.365L212.734 302.086C209.277 303.84 205.454 304.754 201.577 304.754C197.7 304.754 193.877 303.84 190.42 302.086L112.996 257.438C111.917 256.92 110.96 256.179 110.188 255.264C109.417 254.349 108.849 253.281 108.522 252.13C107.938 254.83 109.417 257.602 112.996 259.681L190.42 304.329C193.877 306.083 197.7 306.998 201.577 306.998C205.454 306.998 209.277 306.083 212.734 304.329L289.738 259.608C293.39 257.547 294.796 254.739 294.23 252.057C293.895 253.207 293.322 254.273 292.548 255.187C291.774 256.102 290.817 256.843 289.738 257.365Z" fill="white"/>
<path d="M223.143 314.233L219.473 316.349V312.117L223.143 310.002V314.233Z" fill="white"/>
<path d="M230.811 309.819L227.141 311.917V307.704L230.811 305.588V309.819Z" fill="white"/>
<path d="M238.479 305.387L234.809 307.503V303.272L238.479 301.156V305.387Z" fill="white"/>
<path d="M232.199 317.571L228.547 319.686V315.455L232.199 313.339V317.571Z" fill="white"/>
<path d="M238.955 313.668L235.285 315.783V311.552L238.955 309.454V313.668Z" fill="white"/>
<path d="M263.058 291.198L259.406 293.313V289.082L263.058 286.984V291.198Z" fill="white"/>
<path d="M284.187 279.032L280.535 281.148V276.917L284.187 274.801V279.032Z" fill="white"/>
<path d="M246.151 300.974L242.48 303.089V298.858L246.151 296.742V300.974Z" fill="white"/>
<path opacity="0.4" d="M196.993 285.471L144.897 255.432C142.779 254.21 143.071 252.076 145.499 250.671L196.391 221.326C197.645 220.621 199.048 220.222 200.485 220.162C201.923 220.102 203.354 220.382 204.663 220.979L256.741 251.018C258.859 252.24 258.567 254.374 256.157 255.778L205.247 285.124C203.996 285.826 202.596 286.223 201.162 286.283C199.728 286.343 198.3 286.065 196.993 285.471Z" fill="#06033E"/>
<path d="M176.506 317.99L133.521 293.204C132.962 292.792 132.507 292.257 132.19 291.64C131.873 291.023 131.704 290.341 131.695 289.647V286.474C131.695 285.106 132.535 284.468 133.521 285.069L176.506 309.856C177.067 310.261 177.524 310.793 177.841 311.407C178.158 312.022 178.327 312.703 178.332 313.394V316.586C178.35 317.954 177.529 318.574 176.506 317.99Z" fill="white"/>
<path d="M294.358 220.979V183.9L247.447 190.156L212.314 169.893C208.86 168.139 205.041 167.224 201.166 167.224C197.292 167.224 193.472 168.139 190.018 169.893L184.54 173.358L108.395 183.517V221.271C108.56 222.615 109.069 223.895 109.871 224.987C110.674 226.079 111.743 226.947 112.978 227.508L190.402 272.157C193.859 273.911 197.681 274.825 201.559 274.825C205.436 274.825 209.259 273.911 212.716 272.157L289.72 227.417C290.949 226.859 292.016 225.997 292.818 224.912C293.62 223.826 294.131 222.554 294.303 221.216L294.358 220.979Z" fill="url(#paint3_linear_291_3780)"/>
<path d="M289.736 177.188L212.312 132.54C208.858 130.786 205.039 129.872 201.164 129.872C197.29 129.872 193.47 130.786 190.016 132.54L112.994 177.279C106.84 180.818 106.84 186.581 112.994 190.046L190.418 234.694C193.875 236.449 197.698 237.363 201.575 237.363C205.452 237.363 209.275 236.449 212.732 234.694L289.736 189.955C295.908 186.508 295.908 180.745 289.736 177.188Z" fill="#4F5B7B"/>
<path opacity="0.4" d="M252.868 179.887L207.747 153.879C205.733 152.854 203.506 152.32 201.246 152.32C198.986 152.32 196.759 152.854 194.745 153.879L149.88 179.942C146.228 182.003 146.228 185.414 149.88 187.438L194.983 213.392C196.996 214.417 199.224 214.951 201.483 214.951C203.743 214.951 205.971 214.417 207.984 213.392L252.868 187.329C256.447 185.322 256.447 181.967 252.868 179.887Z" fill="#06033E"/>
<path d="M289.738 187.858L212.734 232.542C209.274 234.286 205.453 235.195 201.577 235.195C197.701 235.195 193.88 234.286 190.42 232.542L112.996 187.858C111.919 187.336 110.965 186.594 110.194 185.679C109.423 184.765 108.854 183.699 108.522 182.55C107.938 185.231 109.417 188.022 112.996 190.101L190.42 234.749C193.879 236.498 197.701 237.409 201.577 237.409C205.453 237.409 209.275 236.498 212.734 234.749L289.738 190.01C293.39 187.949 294.796 185.14 294.23 182.459C293.906 183.625 293.338 184.709 292.564 185.64C291.79 186.57 290.826 187.326 289.738 187.858Z" fill="white"/>
<path d="M223.143 244.671L219.473 246.787V242.555L223.143 240.458V244.671Z" fill="white"/>
<path d="M230.811 240.257L227.141 242.373V238.141L230.811 236.026V240.257Z" fill="white"/>
<path d="M238.479 235.825L234.809 237.941V233.728L238.479 231.612V235.825Z" fill="white"/>
<path d="M232.199 248.009L228.547 250.124V245.893L232.199 243.777V248.009Z" fill="white"/>
<path d="M238.955 244.124L235.285 246.239V242.008L238.955 239.892V244.124Z" fill="white"/>
<path d="M263.058 221.654L259.406 223.769V219.538L263.058 217.422V221.654Z" fill="white"/>
<path d="M284.187 209.47L280.535 211.586V207.355L284.187 205.239V209.47Z" fill="white"/>
<path d="M246.151 231.411L242.48 233.527V229.296L246.151 227.18V231.411Z" fill="white"/>
<path d="M294.358 151.38V114.338L247.447 120.594L212.314 100.312C208.857 98.5683 205.039 97.6597 201.166 97.6597C197.293 97.6597 193.475 98.5683 190.018 100.312L184.54 103.796L108.395 113.937V151.691C108.56 153.033 109.068 154.31 109.871 155.4C110.674 156.489 111.744 157.353 112.978 157.91L190.402 202.558C193.859 204.312 197.681 205.226 201.559 205.226C205.436 205.226 209.259 204.312 212.716 202.558L289.72 157.837C290.951 157.276 292.018 156.41 292.82 155.322C293.622 154.233 294.133 152.958 294.303 151.618L294.358 151.38Z" fill="url(#paint4_linear_291_3780)"/>
<path d="M289.736 107.608L212.312 62.9779C208.858 61.2239 205.039 60.3097 201.164 60.3097C197.29 60.3097 193.47 61.2239 190.016 62.9779L112.994 107.717C106.84 111.274 106.84 117.019 112.994 120.484L190.418 165.132C193.875 166.886 197.698 167.801 201.575 167.801C205.452 167.801 209.275 166.886 212.732 165.132L289.736 120.411C295.908 116.946 295.908 111.255 289.736 107.608Z" fill="#4E7B84"/>
<path d="M289.736 107.608L212.312 62.9779C208.858 61.2239 205.039 60.3097 201.164 60.3097C197.29 60.3097 193.47 61.2239 190.016 62.9779L112.994 107.717C106.84 111.274 106.84 117.019 112.994 120.484L190.418 165.132C193.875 166.886 197.698 167.801 201.575 167.801C205.452 167.801 209.275 166.886 212.732 165.132L289.736 120.411C295.908 116.946 295.908 111.255 289.736 107.608Z" fill="url(#paint5_linear_291_3780)"/>
<path d="M201.504 150.76C198.762 150.835 196.046 150.207 193.616 148.937L142.322 119.262C141.271 118.875 140.364 118.176 139.723 117.258C139.082 116.34 138.738 115.247 138.738 114.128C138.738 113.009 139.082 111.917 139.723 110.999C140.364 110.081 141.271 109.381 142.322 108.994L193.342 79.3745C195.784 78.1157 198.492 77.4589 201.239 77.4589C203.987 77.4589 206.695 78.1157 209.137 79.3745L260.43 108.939C261.482 109.326 262.389 110.026 263.03 110.944C263.671 111.862 264.014 112.954 264.014 114.073C264.014 115.193 263.671 116.285 263.03 117.203C262.389 118.121 261.482 118.821 260.43 119.208L209.411 148.845C206.982 150.147 204.26 150.807 201.504 150.76ZM201.23 79.4657C198.833 79.42 196.464 79.9849 194.346 81.1071L143.327 110.745C142.594 110.962 141.952 111.409 141.495 112.02C141.038 112.632 140.791 113.374 140.791 114.137C140.791 114.9 141.038 115.643 141.495 116.254C141.952 116.865 142.594 117.313 143.327 117.53L194.62 147.113C196.754 148.191 199.112 148.753 201.504 148.753C203.896 148.753 206.254 148.191 208.388 147.113L259.426 117.475C260.158 117.258 260.801 116.811 261.258 116.199C261.715 115.588 261.962 114.845 261.962 114.083C261.962 113.32 261.715 112.577 261.258 111.966C260.801 111.354 260.158 110.907 259.426 110.69L208.169 81.1071C206.035 79.9766 203.646 79.4114 201.23 79.4657Z" fill="white"/>
<path d="M289.738 118.259L212.734 162.98C209.277 164.734 205.454 165.649 201.577 165.649C197.7 165.649 193.877 164.734 190.42 162.98L112.996 118.332C111.925 117.816 110.974 117.083 110.203 116.178C109.433 115.274 108.86 114.218 108.522 113.079C107.938 115.76 109.417 118.551 112.996 120.63L190.42 165.278C193.877 167.032 197.7 167.947 201.577 167.947C205.454 167.947 209.277 167.032 212.734 165.278L289.738 120.557C293.39 118.496 294.796 115.687 294.23 112.988C293.891 114.131 293.317 115.191 292.543 116.099C291.769 117.007 290.814 117.743 289.738 118.259Z" fill="white"/>
<path d="M223.143 175.127L219.473 177.243V173.011L223.143 170.896V175.127Z" fill="white"/>
<path d="M230.811 170.695L227.141 172.811V168.579L230.811 166.482V170.695Z" fill="white"/>
<path d="M238.479 166.281L234.809 168.397V164.166L238.479 162.05V166.281Z" fill="white"/>
<path d="M232.199 178.465L228.547 180.58V176.349L232.199 174.233V178.465Z" fill="white"/>
<path d="M238.955 174.562L235.285 176.677V172.446L238.955 170.33V174.562Z" fill="white"/>
<path d="M263.058 152.092L259.406 154.207V149.976L263.058 147.86V152.092Z" fill="white"/>
<path d="M284.187 139.908L280.535 142.024V137.811L284.187 135.695V139.908Z" fill="white"/>
<path d="M246.151 161.849L242.48 163.965V159.734L246.151 157.636V161.849Z" fill="white"/>
<path opacity="0.6" d="M214.815 254.593C209.739 254.739 204.626 254.775 199.477 254.739C159.103 254.41 121.706 248.556 90.4989 238.743C59.3103 230.427 57.4295 263.019 68.3126 283.136C76.055 297.472 86.573 301.375 90.4989 302.87C121.706 312.683 159.103 318.537 199.477 318.866C204.626 318.866 209.739 318.866 214.815 318.72C251.445 316.02 261.123 280.875 243.922 264.46C239.138 259.882 230.209 254.447 214.815 254.574V254.593Z" fill="#778CAE"/>
<g opacity="0.3">
<path d="M404.502 214.65L403.954 213.538C403.267 212.088 402.657 210.602 402.128 209.087C395.317 189.226 375.413 171.224 344.59 156.998C323.152 144.833 317.966 127.269 316.724 120.265C315.264 112.021 316.925 100.312 324.029 94.1477C329.233 89.6245 336.318 88.7673 345.101 91.5943C376.363 106.003 396.504 124.296 403.443 144.486C404.885 150.177 406.036 154.645 406.036 174.799V209.014C406.036 212.006 406.036 212.188 405.196 213.592L404.502 214.65ZM318.057 120.028C319.263 126.831 324.321 143.921 345.192 155.776C376.326 170.13 396.467 188.423 403.406 208.668C403.826 209.817 404.21 210.784 404.557 211.586C404.61 210.742 404.61 209.895 404.557 209.051V174.817C404.557 154.755 403.424 150.45 402.018 144.887C395.226 125.099 375.322 107.097 344.498 92.871C336.281 90.2264 329.635 91.0471 324.832 95.169C318.131 101.005 316.578 112.149 317.984 120.028H318.057Z" fill="#758AAB"/>
<path d="M1.36952 224.098H0V159.916C0 159.351 0 158.785 0 158.202C0.419987 147.587 4.47378 137.173 12.0701 127.305L12.3622 126.995C13.8231 125.555 15.8134 123.585 17.8403 123.348C20.5976 122.946 23.0628 124.333 24.9619 127.36C31.2799 137.464 30.7139 166.391 13.1474 192.29C2.92165 206.096 2.24602 214.048 1.36952 224.098ZM18.7716 124.588H18.0777C16.2235 125.254 14.5833 126.407 13.33 127.926L13.0927 128.144C5.752 137.793 1.82603 147.915 1.40604 158.256C1.40604 158.822 1.40604 159.369 1.40604 159.916V213.246C2.72079 207.008 5.44158 200.479 12.1066 191.359C29.2165 165.971 29.9652 137.829 23.8297 128.035C23.3469 127.08 22.6298 126.263 21.7452 125.661C20.8607 125.058 19.8377 124.689 18.7716 124.588Z" fill="#758AAB"/>
</g>
<path d="M15.996 257.474C14.3161 257.474 12.0883 256.581 9.64145 253.261C1.29648 241.862 0.511289 230.737 0 224.079V159.916H1.36952C1.53363 170.123 4.81464 180.038 10.7736 188.332C24.4688 210.966 26.094 233.29 24.8888 242.938C23.9028 250.835 20.9629 256.344 17.2012 257.328C16.807 257.426 16.4022 257.475 15.996 257.474ZM1.38778 171.096V223.988C1.86255 230.445 2.64775 241.315 10.7736 252.386C12.2162 254.356 14.4257 256.562 16.8725 256.033C20.0316 255.213 22.6428 250.015 23.5376 242.792C24.7245 233.345 23.1176 211.385 9.64145 189.116C5.82724 183.652 3.02554 177.549 1.36952 171.096H1.38778Z" fill="#758AAB"/>
<path d="M203.001 319.559H199.477C160.381 319.23 122.619 313.686 90.2799 303.527C86.2444 302.013 75.6716 298.055 67.7101 283.464C61.2095 271.445 58.58 253.28 66.4684 243.34C69.9379 238.944 76.9499 234.476 90.6634 238.142C122.911 248.264 160.527 253.79 199.477 254.119C204.59 254.119 209.739 254.119 214.797 253.973C230.428 253.973 239.503 259.444 244.379 264.04C248.339 268.033 251.061 273.082 252.218 278.583C253.374 284.083 252.916 289.8 250.898 295.046C245.876 308.98 232.4 318.081 214.852 319.376C210.944 319.522 206.963 319.559 203.001 319.559ZM81.3323 238.105C78.7238 237.959 76.1177 238.43 73.7254 239.479C71.3332 240.528 69.2223 242.126 67.5641 244.142C60.0225 253.663 62.652 271.172 68.9336 282.808C76.5664 296.925 86.8652 300.773 90.7547 302.232C122.929 312.336 160.546 317.862 199.495 318.191C204.626 318.191 209.775 318.191 214.815 318.045C231.779 316.786 244.817 308.032 249.638 294.626C251.584 289.616 252.036 284.149 250.941 278.887C249.846 273.625 247.25 268.792 243.466 264.971C238.828 260.539 230.209 255.286 215.345 255.286H214.852C209.775 255.413 204.608 255.468 199.495 255.432C160.4 255.103 122.637 249.559 90.2982 239.4C87.3785 238.581 84.3645 238.146 81.3323 238.105Z" fill="#758AAB"/>
<path d="M330.512 296.122C327.654 296.23 324.81 295.681 322.198 294.517C319.586 293.353 317.276 291.606 315.447 289.41C308.435 280.856 308.271 265.335 315.045 252.495C320.47 242.488 328.856 234.399 339.058 229.332C371.05 215.635 392.36 197.962 400.723 178.264C401.418 176.715 402.23 175.221 403.152 173.796L403.316 173.54L404.886 173.34L405.069 173.869C405.617 175.437 405.854 176.076 405.927 183.754V203.488C405.745 231.338 404.101 236.427 402.019 242.865C393.492 262.928 371.926 280.893 339.642 294.718C336.681 295.618 333.607 296.091 330.512 296.122ZM404.046 175.091C403.294 176.316 402.623 177.589 402.038 178.902C393.547 198.965 371.981 216.839 339.697 230.664C329.765 235.6 321.602 243.479 316.324 253.225C309.787 265.591 309.896 280.583 316.561 288.626C320.049 292.876 326.805 297.162 339.24 293.496C371.105 279.835 392.414 262.18 400.778 242.428C402.805 236.153 404.43 231.138 404.594 203.525V183.736C404.539 177.553 404.393 176.112 404.046 175.091Z" fill="#758AAB"/>
<path d="M342.692 394.191C340.889 394.223 339.109 393.79 337.524 392.933L304.181 373.709C303.5 373.44 302.915 372.973 302.503 372.368C302.091 371.763 301.871 371.048 301.871 370.317C301.871 369.585 302.091 368.87 302.503 368.265C302.915 367.66 303.5 367.193 304.181 366.924L337.342 347.646C338.941 346.828 340.712 346.402 342.509 346.402C344.306 346.402 346.077 346.828 347.677 347.646L381.02 366.888C381.701 367.157 382.286 367.624 382.698 368.229C383.11 368.834 383.33 369.549 383.33 370.28C383.33 371.012 383.11 371.726 382.698 372.331C382.286 372.936 381.701 373.404 381.02 373.673L347.859 392.933C346.274 393.79 344.494 394.223 342.692 394.191ZM342.509 347.847C340.964 347.813 339.436 348.177 338.072 348.905L304.948 368.165C304.513 368.351 304.134 368.648 303.849 369.025C303.564 369.403 303.383 369.848 303.323 370.317C303.388 370.784 303.571 371.227 303.856 371.603C304.14 371.98 304.516 372.278 304.948 372.469L338.309 391.692C339.684 392.389 341.205 392.752 342.747 392.752C344.289 392.752 345.809 392.389 347.184 391.692L380.363 372.432C380.828 372.296 381.237 372.012 381.527 371.624C381.818 371.236 381.975 370.765 381.975 370.28C381.975 369.796 381.818 369.324 381.527 368.936C381.237 368.548 380.828 368.265 380.363 368.128L346.946 348.905C345.581 348.183 344.054 347.819 342.509 347.847Z" fill="#758AAB"/>
<path d="M59.8403 394.191C58.044 394.221 56.2704 393.787 54.6909 392.933L21.3292 373.709C20.6481 373.44 20.0636 372.973 19.6517 372.368C19.2398 371.763 19.0195 371.048 19.0195 370.317C19.0195 369.585 19.2398 368.87 19.6517 368.265C20.0636 367.66 20.6481 367.193 21.3292 366.924L54.5083 347.646C56.1078 346.828 57.879 346.402 59.6759 346.402C61.4729 346.402 63.2441 346.828 64.8436 347.646L98.1869 366.888C98.8681 367.157 99.4526 367.624 99.8645 368.229C100.276 368.834 100.497 369.549 100.497 370.28C100.497 371.012 100.276 371.726 99.8645 372.331C99.4526 372.936 98.8681 373.404 98.1869 373.673L65.0079 392.933C63.4227 393.79 61.6426 394.223 59.8403 394.191ZM59.6759 347.847C58.1249 347.816 56.5915 348.18 55.2204 348.905L22.0597 368.165C21.6203 368.347 21.2369 368.642 20.9484 369.02C20.6598 369.398 20.4762 369.845 20.4162 370.317C20.4815 370.786 20.6671 371.231 20.955 371.608C21.2429 371.985 21.6234 372.282 22.0597 372.469L55.403 391.692C56.78 392.394 58.3037 392.759 59.8494 392.759C61.3951 392.759 62.9188 392.394 64.2958 391.692L97.4565 372.432C98.5156 371.812 99.1 371.064 99.1 370.28C99.0399 369.811 98.8584 369.366 98.5734 368.989C98.2884 368.611 97.9097 368.315 97.4748 368.128L64.1132 348.905C62.7496 348.177 61.2214 347.813 59.6759 347.847Z" fill="#758AAB"/>
<g opacity="0.5">
<path d="M342.692 379.181C340.889 379.213 339.109 378.779 337.524 377.922L304.181 358.699C303.494 358.433 302.903 357.966 302.487 357.359C302.07 356.752 301.848 356.033 301.848 355.297C301.848 354.561 302.07 353.843 302.487 353.236C302.903 352.629 303.494 352.161 304.181 351.896L337.341 332.636C338.941 331.818 340.712 331.391 342.509 331.391C344.306 331.391 346.077 331.818 347.677 332.636L381.02 351.859C381.707 352.125 382.298 352.592 382.714 353.199C383.13 353.806 383.353 354.525 383.353 355.261C383.353 355.997 383.13 356.715 382.714 357.322C382.298 357.929 381.707 358.396 381.02 358.662L347.859 377.922C346.274 378.779 344.494 379.213 342.692 379.181ZM342.509 332.818C340.964 332.79 339.438 333.154 338.072 333.876L304.948 353.154C304.479 353.285 304.067 353.565 303.773 353.952C303.479 354.339 303.319 354.811 303.319 355.297C303.319 355.783 303.479 356.255 303.773 356.642C304.067 357.029 304.479 357.309 304.948 357.44L338.309 376.682C339.686 377.375 341.205 377.735 342.747 377.735C344.288 377.735 345.807 377.375 347.184 376.682L380.308 357.477C380.776 357.346 381.189 357.066 381.483 356.679C381.777 356.292 381.936 355.819 381.936 355.334C381.936 354.848 381.777 354.375 381.483 353.989C381.189 353.602 380.776 353.321 380.308 353.191L346.946 333.876C345.578 333.161 344.053 332.797 342.509 332.818Z" fill="#758AAB"/>
<path d="M59.8402 379.181C58.0439 379.21 56.2703 378.777 54.6908 377.922L21.3291 358.699C20.6421 358.433 20.0517 357.966 19.6353 357.359C19.2189 356.752 18.9961 356.033 18.9961 355.297C18.9961 354.561 19.2189 353.843 19.6353 353.236C20.0517 352.629 20.6421 352.161 21.3291 351.896L54.5081 332.636C56.1077 331.818 57.8789 331.391 59.6758 331.391C61.4728 331.391 63.244 331.818 64.8435 332.636L98.1868 351.859C98.8471 352.168 99.4133 352.646 99.8272 353.246C100.241 353.845 100.488 354.544 100.542 355.27C100.491 355.994 100.244 356.692 99.83 357.288C99.4156 357.885 98.848 358.36 98.1868 358.662L65.0078 377.922C63.4226 378.779 61.6425 379.213 59.8402 379.181ZM59.6758 332.818C58.1256 332.794 56.5939 333.158 55.2203 333.876L22.0596 353.154C21.5911 353.285 21.1784 353.565 20.8844 353.952C20.5904 354.339 20.4313 354.811 20.4313 355.297C20.4313 355.783 20.5904 356.255 20.8844 356.642C21.1784 357.029 21.5911 357.309 22.0596 357.44L55.4029 376.682C56.7824 377.375 58.3052 377.736 59.8493 377.736C61.3934 377.736 62.9161 377.375 64.2957 376.682L97.4564 357.477C97.9248 357.346 98.3375 357.066 98.6316 356.679C98.9256 356.292 99.0847 355.819 99.0847 355.334C99.0847 354.848 98.9256 354.375 98.6316 353.989C98.3375 353.602 97.9248 353.321 97.4564 353.191L64.1131 333.876C62.7474 333.154 61.2207 332.79 59.6758 332.818Z" fill="#758AAB"/>
</g>
<path opacity="0.4" d="M64.2215 172.811C64.2215 174.254 63.7932 175.664 62.9906 176.864C62.188 178.064 61.0472 178.999 59.7126 179.551C58.3779 180.103 56.9093 180.248 55.4924 179.966C54.0756 179.685 52.7741 178.99 51.7526 177.969C50.7311 176.949 50.0355 175.649 49.7536 174.234C49.4718 172.819 49.6164 171.352 50.1693 170.019C50.7221 168.686 51.6583 167.547 52.8595 166.745C54.0606 165.943 55.4728 165.515 56.9174 165.515C58.8546 165.515 60.7124 166.284 62.0822 167.652C63.452 169.02 64.2215 170.876 64.2215 172.811Z" fill="#FF7500"/>
<path opacity="0.8" d="M60.5512 172.811C60.5548 173.516 60.3486 174.206 59.9587 174.794C59.5688 175.381 59.0129 175.84 58.3615 176.111C57.7101 176.383 56.9927 176.455 56.3002 176.318C55.6078 176.181 54.9717 175.842 54.4726 175.344C53.9735 174.845 53.634 174.21 53.4972 173.518C53.3604 172.827 53.4325 172.11 53.7042 171.46C53.976 170.809 54.4352 170.254 55.0236 169.864C55.6119 169.475 56.3029 169.269 57.0087 169.273C57.9482 169.273 58.8492 169.645 59.5136 170.309C60.1779 170.972 60.5512 171.872 60.5512 172.811Z" fill="#FF7500"/>
<path opacity="0.4" d="M391.43 334.97C391.434 335.675 391.227 336.365 390.838 336.953C390.448 337.541 389.892 337.999 389.24 338.271C388.589 338.542 387.872 338.614 387.179 338.477C386.487 338.341 385.851 338.002 385.352 337.503C384.852 337.005 384.513 336.369 384.376 335.678C384.239 334.986 384.311 334.27 384.583 333.619C384.855 332.968 385.314 332.413 385.902 332.024C386.491 331.634 387.182 331.428 387.888 331.432C388.827 331.432 389.728 331.805 390.393 332.468C391.057 333.132 391.43 334.032 391.43 334.97Z" fill="#FF7500"/>
<path opacity="0.8" d="M387.887 336.703C388.845 336.703 389.622 335.927 389.622 334.97C389.622 334.013 388.845 333.238 387.887 333.238C386.929 333.238 386.152 334.013 386.152 334.97C386.152 335.927 386.929 336.703 387.887 336.703Z" fill="#FF7500"/>
<path opacity="0.4" d="M359.289 5.98229C359.292 7.17062 358.943 8.33327 358.284 9.32284C357.625 10.3124 356.687 11.0843 355.589 11.5408C354.49 11.9972 353.281 12.1175 352.114 11.8866C350.946 11.6556 349.874 11.0838 349.033 10.2435C348.192 9.40322 347.619 8.33236 347.388 7.16668C347.157 6.001 347.277 4.79299 347.734 3.6958C348.191 2.59861 348.964 1.66165 349.955 1.00369C350.946 0.345737 352.11 -0.00357885 353.299 2.76469e-05C354.888 2.76469e-05 356.411 0.6303 357.534 1.75219C358.658 2.87408 359.289 4.3957 359.289 5.98229Z" fill="#FF7500"/>
<path opacity="0.8" d="M356.24 5.98225C356.244 6.56816 356.073 7.14192 355.75 7.63059C355.426 8.11927 354.964 8.50079 354.423 8.72668C353.882 8.95257 353.285 9.01262 352.71 8.8992C352.134 8.78577 351.605 8.504 351.191 8.08969C350.776 7.67538 350.494 7.14724 350.38 6.5724C350.267 5.99756 350.327 5.40197 350.553 4.86134C350.779 4.32071 351.161 3.85945 351.65 3.53618C352.14 3.21291 352.714 3.04223 353.301 3.04583C354.079 3.05062 354.824 3.36152 355.374 3.91117C355.924 4.46083 356.236 5.20494 356.24 5.98225Z" fill="#FF7500"/>
</g>
<defs>
<linearGradient id="paint0_linear_291_3780" x1="122.18" y1="283.902" x2="122.18" y2="473" gradientUnits="userSpaceOnUse">
<stop stop-color="#758AAB"/>
<stop offset="1" stop-color="#758AAB" stop-opacity="0"/>
</linearGradient>
<linearGradient id="paint1_linear_291_3780" x1="279.464" y1="283.902" x2="279.464" y2="473" gradientUnits="userSpaceOnUse">
<stop stop-color="#758AAB"/>
<stop offset="1" stop-color="#758AAB" stop-opacity="0"/>
</linearGradient>
<linearGradient id="paint2_linear_291_3780" x1="97.201" y1="290.634" x2="228.347" y2="290.634" gradientUnits="userSpaceOnUse">
<stop stop-color="#59626B"/>
<stop offset="0.13" stop-color="#5B656F"/>
<stop offset="0.55" stop-color="#5C6A77"/>
<stop offset="0.85" stop-color="#283037"/>
<stop offset="1" stop-color="#262E34"/>
</linearGradient>
<linearGradient id="paint3_linear_291_3780" x1="97.201" y1="221.035" x2="228.347" y2="221.035" gradientUnits="userSpaceOnUse">
<stop stop-color="#59626B"/>
<stop offset="0.13" stop-color="#5B656F"/>
<stop offset="0.55" stop-color="#5C6A77"/>
<stop offset="0.85" stop-color="#283037"/>
<stop offset="1" stop-color="#262E34"/>
</linearGradient>
<linearGradient id="paint4_linear_291_3780" x1="97.201" y1="151.453" x2="228.347" y2="151.453" gradientUnits="userSpaceOnUse">
<stop stop-color="#59626B"/>
<stop offset="0.13" stop-color="#5B656F"/>
<stop offset="0.55" stop-color="#5C6A77"/>
<stop offset="0.85" stop-color="#283037"/>
<stop offset="1" stop-color="#262E34"/>
</linearGradient>
<linearGradient id="paint5_linear_291_3780" x1="201.372" y1="60.3097" x2="201.372" y2="167.801" gradientUnits="userSpaceOnUse">
<stop stop-color="#FF8116"/>
<stop offset="1" stop-color="#FFAA61"/>
</linearGradient>
<clipPath id="clip0_291_3780">
<rect width="406" height="473" fill="white"/>
</clipPath>
</defs>
</svg>
