<svg width="110" height="27" viewBox="0 0 110 27" fill="none" xmlns="http://www.w3.org/2000/svg">
<g clip-path="url(#clip0_884_2233)">
<path d="M28.9081 9.57227H40.0452V11.65H35.6661V23.3297H33.2581V11.65H28.8984V9.57227H28.9081ZM39.5694 13.3684H41.6279V15.2908H41.6667C41.7347 15.0189 41.8609 14.7568 42.0454 14.5044C42.2299 14.2519 42.4532 14.0092 42.7154 13.8053C42.9776 13.5917 43.2689 13.4267 43.5893 13.2908C43.9097 13.1645 44.2398 13.0966 44.57 13.0966C44.8224 13.0966 45.0069 13.1063 45.104 13.116C45.2011 13.1257 45.2982 13.1451 45.405 13.1548V15.2714C45.2496 15.2422 45.0943 15.2228 44.9292 15.2034C44.7642 15.184 44.6088 15.1743 44.4534 15.1743C44.0845 15.1743 43.7349 15.2519 43.4048 15.3976C43.0747 15.5432 42.7931 15.7665 42.5503 16.0481C42.3076 16.3393 42.1134 16.6888 41.9677 17.116C41.8221 17.5432 41.7541 18.0287 41.7541 18.5821V23.32H39.5597V13.3684H39.5694ZM55.4934 23.3297H53.3379V21.9413H53.299C53.0271 22.4462 52.629 22.8443 52.095 23.1452C51.561 23.4462 51.0172 23.6015 50.4638 23.6015C49.153 23.6015 48.2014 23.2812 47.6188 22.6307C47.0362 21.9802 46.7449 20.9996 46.7449 19.6889V13.3684H48.9393V19.4753C48.9393 20.3491 49.1044 20.9704 49.4443 21.3297C49.7744 21.6889 50.2502 21.8734 50.8522 21.8734C51.3182 21.8734 51.6969 21.8054 52.0076 21.6598C52.3183 21.5141 52.5708 21.3297 52.7553 21.087C52.9495 20.8539 53.0854 20.5627 53.1728 20.2326C53.2602 19.9025 53.299 19.5432 53.299 19.1549V13.3781H55.4934V23.3297ZM59.2317 20.1355C59.2996 20.7763 59.5424 21.2229 59.9599 21.485C60.3871 21.7374 60.892 21.8734 61.4843 21.8734C61.6882 21.8734 61.9213 21.854 62.1834 21.8248C62.4456 21.7957 62.698 21.7277 62.9214 21.6404C63.1544 21.553 63.3389 21.4171 63.4942 21.2423C63.6399 21.0675 63.7079 20.8442 63.6982 20.5627C63.6884 20.2811 63.5816 20.0481 63.3874 19.8733C63.1932 19.6889 62.9505 19.553 62.6495 19.4365C62.3485 19.3297 62.0087 19.2326 61.6203 19.1549C61.2319 19.0772 60.8435 18.9898 60.4454 18.9025C60.0376 18.8151 59.6395 18.6986 59.2608 18.5724C58.8821 18.4461 58.5423 18.2714 58.2413 18.0481C57.9403 17.8345 57.6975 17.5529 57.5228 17.2131C57.3383 16.8733 57.2509 16.4558 57.2509 15.951C57.2509 15.4073 57.3868 14.9607 57.649 14.5917C57.9111 14.2228 58.251 13.9315 58.6491 13.7082C59.0569 13.4849 59.5035 13.3296 59.9987 13.2325C60.4939 13.1451 60.9697 13.0966 61.4164 13.0966C61.931 13.0966 62.4262 13.1548 62.8922 13.2616C63.3583 13.3684 63.7855 13.5432 64.1642 13.7956C64.5429 14.0383 64.8536 14.3587 65.1061 14.7471C65.3585 15.1354 65.5139 15.6112 65.5818 16.1646H63.2903C63.1835 15.6403 62.9505 15.2811 62.5718 15.1063C62.1931 14.9218 61.7562 14.8345 61.2707 14.8345C61.1154 14.8345 60.9309 14.8442 60.7173 14.8733C60.5036 14.9024 60.3094 14.951 60.1153 15.0189C59.9308 15.0869 59.7754 15.1937 59.6395 15.3296C59.5133 15.4655 59.4453 15.6403 59.4453 15.8636C59.4453 16.1354 59.5424 16.349 59.7269 16.5141C59.9113 16.6791 60.1541 16.8151 60.4551 16.9316C60.7561 17.0384 61.0959 17.1355 61.4843 17.2131C61.8727 17.2908 62.2708 17.3782 62.6786 17.4656C63.0767 17.5529 63.4651 17.6694 63.8535 17.7957C64.2419 17.9219 64.5817 18.0966 64.8827 18.3199C65.1837 18.5432 65.4265 18.8151 65.611 19.1452C65.7955 19.4753 65.8925 19.8928 65.8925 20.3782C65.8925 20.9704 65.7566 21.4656 65.4847 21.8831C65.2129 22.2908 64.8633 22.6307 64.4361 22.8831C64.0089 23.1355 63.5234 23.3297 62.999 23.4462C62.4747 23.5627 61.9504 23.621 61.4358 23.621C60.8046 23.621 60.2221 23.553 59.688 23.4074C59.154 23.2617 58.6879 23.0481 58.2995 22.7666C57.9111 22.4753 57.6004 22.1161 57.3771 21.6889C57.1538 21.2617 57.0373 20.7471 57.0178 20.1549H59.2317V20.1355ZM66.4751 13.3684H68.1355V10.3781H70.3299V13.3684H72.3107V15.0092H70.3299V20.3297C70.3299 20.5627 70.3396 20.7569 70.359 20.9316C70.3784 21.0967 70.427 21.2423 70.495 21.3588C70.5629 21.4753 70.6697 21.5627 70.8154 21.6209C70.961 21.6792 71.1455 21.7083 71.398 21.7083C71.5533 21.7083 71.7087 21.7083 71.864 21.6986C72.0194 21.6889 72.1748 21.6695 72.3301 21.6306V23.3297C72.0874 23.3588 71.8446 23.3782 71.6213 23.4074C71.3883 23.4365 71.1552 23.4462 70.9125 23.4462C70.3299 23.4462 69.8638 23.3879 69.5143 23.2812C69.1647 23.1744 68.8832 23.0093 68.689 22.7957C68.4851 22.5821 68.3588 22.32 68.2811 21.9996C68.2132 21.6792 68.1646 21.3103 68.1549 20.9025V15.0286H66.4946V13.3684H66.4751ZM73.8643 13.3684H75.9421V14.718H75.981C76.2917 14.1354 76.7189 13.7277 77.2724 13.4752C77.8258 13.2228 78.4181 13.0966 79.0687 13.0966C79.8552 13.0966 80.5348 13.2325 81.1174 13.5141C81.7 13.7859 82.1855 14.1645 82.5739 14.65C82.9623 15.1354 83.2439 15.6985 83.438 16.3393C83.6322 16.9801 83.7293 17.6694 83.7293 18.3976C83.7293 19.0675 83.642 19.718 83.4672 20.3394C83.2924 20.9704 83.0302 21.5239 82.6807 22.0093C82.3311 22.4947 81.8845 22.8734 81.3407 23.1646C80.797 23.4559 80.1659 23.6015 79.4279 23.6015C79.1075 23.6015 78.7871 23.5724 78.4667 23.5142C78.1462 23.4559 77.8355 23.3588 77.5442 23.2326C77.2529 23.1064 76.9714 22.9413 76.7286 22.7375C76.4762 22.5336 76.2723 22.3006 76.0975 22.0384H76.0586V27.0093H73.8643V13.3684ZM81.5349 18.3588C81.5349 17.9122 81.4767 17.4753 81.3602 17.0481C81.2437 16.6209 81.0689 16.2519 80.8358 15.9218C80.6028 15.5917 80.3115 15.3296 79.9717 15.1354C79.6221 14.9413 79.224 14.8345 78.7774 14.8345C77.8549 14.8345 77.1558 15.1549 76.6898 15.7956C76.2237 16.4364 75.9907 17.2908 75.9907 18.3588C75.9907 18.8636 76.0489 19.3297 76.1752 19.7568C76.3014 20.184 76.4762 20.553 76.7286 20.8636C76.9714 21.1743 77.2627 21.4171 77.6025 21.5918C77.9423 21.7763 78.3404 21.8637 78.7871 21.8637C79.292 21.8637 79.7095 21.7569 80.0591 21.553C80.4086 21.3491 80.6902 21.0772 80.9135 20.7569C81.1368 20.4268 81.3019 20.0578 81.399 19.6403C81.4864 19.2229 81.5349 18.7957 81.5349 18.3588ZM85.4091 9.57227H87.6035V11.65H85.4091V9.57227ZM85.4091 13.3684H87.6035V23.3297H85.4091V13.3684ZM89.5649 9.57227H91.7593V23.3297H89.5649V9.57227ZM98.4882 23.6015C97.6919 23.6015 96.9831 23.4656 96.3617 23.2035C95.7403 22.9413 95.216 22.5724 94.779 22.1161C94.3518 21.6501 94.0217 21.0967 93.7983 20.4559C93.575 19.8151 93.4585 19.1063 93.4585 18.3393C93.4585 17.5821 93.575 16.883 93.7983 16.2422C94.0217 15.6015 94.3518 15.0481 94.779 14.582C95.2063 14.116 95.7403 13.7568 96.3617 13.4946C96.9831 13.2325 97.6919 13.0966 98.4882 13.0966C99.2843 13.0966 99.9932 13.2325 100.615 13.4946C101.236 13.7568 101.76 14.1257 102.197 14.582C102.625 15.0481 102.955 15.6015 103.178 16.2422C103.401 16.883 103.518 17.5821 103.518 18.3393C103.518 19.1063 103.401 19.8151 103.178 20.4559C102.955 21.0967 102.625 21.6501 102.197 22.1161C101.77 22.5821 101.236 22.9413 100.615 23.2035C99.9932 23.4656 99.2843 23.6015 98.4882 23.6015ZM98.4882 21.8637C98.9736 21.8637 99.4009 21.7569 99.7601 21.553C100.119 21.3491 100.411 21.0772 100.644 20.7471C100.877 20.417 101.042 20.0384 101.158 19.6209C101.265 19.2034 101.323 18.7762 101.323 18.3393C101.323 17.9122 101.265 17.4947 101.158 17.0675C101.052 16.6403 100.877 16.2714 100.644 15.9413C100.411 15.6112 100.119 15.349 99.7601 15.1451C99.4009 14.9413 98.9736 14.8345 98.4882 14.8345C98.0027 14.8345 97.5754 14.9413 97.2162 15.1451C96.8569 15.349 96.5656 15.6209 96.3326 15.9413C96.0996 16.2714 95.9345 16.6403 95.818 17.0675C95.7112 17.4947 95.6529 17.9122 95.6529 18.3393C95.6529 18.7762 95.7112 19.2034 95.818 19.6209C95.9248 20.0384 96.0996 20.417 96.3326 20.7471C96.5656 21.0772 96.8569 21.3491 97.2162 21.553C97.5754 21.7666 98.0027 21.8637 98.4882 21.8637ZM104.159 13.3684H105.819V10.3781H108.013V13.3684H109.994V15.0092H108.013V20.3297C108.013 20.5627 108.023 20.7569 108.043 20.9316C108.062 21.0967 108.111 21.2423 108.178 21.3588C108.246 21.4753 108.353 21.5627 108.499 21.6209C108.645 21.6792 108.829 21.7083 109.081 21.7083C109.237 21.7083 109.392 21.7083 109.548 21.6986C109.703 21.6889 109.858 21.6695 110.014 21.6306V23.3297C109.771 23.3588 109.528 23.3782 109.305 23.4074C109.072 23.4365 108.839 23.4462 108.596 23.4462C108.013 23.4462 107.547 23.3879 107.198 23.2812C106.848 23.1744 106.567 23.0093 106.372 22.7957C106.169 22.5821 106.042 22.32 105.965 21.9996C105.897 21.6792 105.848 21.3103 105.838 20.9025V15.0286H104.178V13.3684H104.159Z" fill="white"/>
<path d="M26.3464 9.57292H16.2871L13.18 0L10.0632 9.57292L0.00390625 9.56321L8.15038 15.4856L5.03355 25.0488L13.18 19.1361L21.3168 25.0488L18.2097 15.4856L26.3464 9.57292Z" fill="#00B67A"/>
<path d="M18.9084 17.6516L18.2093 15.4863L13.1797 19.1372L18.9084 17.6516Z" fill="#005128"/>
</g>
<defs>
<clipPath id="clip0_884_2233">
<rect width="110" height="27.01" fill="white"/>
</clipPath>
</defs>
</svg>
