<svg width="97" height="14" viewBox="0 0 97 14" fill="none" xmlns="http://www.w3.org/2000/svg">
<path d="M0.406531 13.8151V0.693063H2.78253V6.45306L2.47653 6.14706H9.85653L9.55053 6.45306V0.693063H11.9265V13.8151H9.55053V7.87506L9.85653 8.18106H2.47653L2.78253 7.87506V13.8151H0.406531ZM18.7781 13.9771C18.0581 13.9771 17.4101 13.8691 16.8341 13.6531C16.2581 13.4251 15.7541 13.0951 15.3221 12.6631C14.9021 12.2311 14.5781 11.7091 14.3501 11.0971C14.1341 10.4851 14.0261 9.79506 14.0261 9.02706C14.0261 8.04306 14.2121 7.17906 14.5841 6.43506C14.9681 5.69106 15.5141 5.10906 16.2221 4.68906C16.9301 4.26906 17.7821 4.05906 18.7781 4.05906C19.4861 4.05906 20.1281 4.17306 20.7041 4.40106C21.2801 4.62906 21.7721 4.95906 22.1801 5.39106C22.6001 5.82306 22.9241 6.34506 23.1521 6.95706C23.3801 7.55706 23.4941 8.24706 23.4941 9.02706C23.4941 9.99906 23.3021 10.8571 22.9181 11.6011C22.5461 12.3451 22.0061 12.9271 21.2981 13.3471C20.6021 13.7671 19.7621 13.9771 18.7781 13.9771ZM18.7601 12.1231C19.2521 12.1231 19.6841 12.0091 20.0561 11.7811C20.4281 11.5411 20.7161 11.1931 20.9201 10.7371C21.1241 10.2691 21.2261 9.69906 21.2261 9.02706C21.2261 8.52306 21.1661 8.07906 21.0461 7.69506C20.9381 7.29906 20.7761 6.96906 20.5601 6.70506C20.3441 6.44106 20.0861 6.24306 19.7861 6.11106C19.4861 5.97906 19.1501 5.91306 18.7781 5.91306C18.2861 5.91306 17.8481 6.03306 17.4641 6.27306C17.0921 6.50106 16.8041 6.84906 16.6001 7.31706C16.3961 7.77306 16.2941 8.34306 16.2941 9.02706C16.2941 9.53106 16.3481 9.98106 16.4561 10.3771C16.5761 10.7611 16.7441 11.0851 16.9601 11.3491C17.1761 11.6011 17.4341 11.7931 17.7341 11.9251C18.0461 12.0571 18.3881 12.1231 18.7601 12.1231ZM28.7996 13.9951C27.9476 13.9951 27.2156 13.8631 26.6036 13.5991C25.9916 13.3231 25.5176 12.9451 25.1816 12.4651C24.8576 11.9851 24.6956 11.4271 24.6956 10.7911H26.9096C26.9216 11.3431 27.1076 11.7451 27.4676 11.9971C27.8276 12.2491 28.2956 12.3751 28.8716 12.3751C29.4356 12.3751 29.8616 12.2731 30.1496 12.0691C30.4496 11.8531 30.5996 11.5591 30.5996 11.1871C30.5996 10.8871 30.5336 10.6591 30.4016 10.5031C30.2696 10.3351 30.0536 10.2091 29.7536 10.1251C29.4536 10.0291 29.0576 9.94506 28.5656 9.87306C27.7616 9.75306 27.0896 9.59106 26.5496 9.38706C26.0096 9.17106 25.6076 8.87706 25.3436 8.50506C25.0796 8.13306 24.9476 7.64106 24.9476 7.02906C24.9476 6.42906 25.1096 5.90706 25.4336 5.46306C25.7576 5.01906 26.2136 4.67706 26.8016 4.43706C27.3896 4.18506 28.0796 4.05906 28.8716 4.05906C29.6396 4.05906 30.3056 4.18506 30.8696 4.43706C31.4456 4.67706 31.8896 5.02506 32.2016 5.48106C32.5256 5.92506 32.6936 6.45906 32.7056 7.08306H30.4916C30.4916 6.74706 30.4196 6.47706 30.2756 6.27306C30.1436 6.05706 29.9516 5.90106 29.6996 5.80506C29.4476 5.70906 29.1536 5.66106 28.8176 5.66106C28.3136 5.66106 27.9176 5.76906 27.6296 5.98506C27.3416 6.18906 27.1976 6.47106 27.1976 6.83106C27.1976 7.09506 27.2696 7.31106 27.4136 7.47906C27.5696 7.63506 27.8156 7.76106 28.1516 7.85706C28.4876 7.95306 28.9196 8.03706 29.4476 8.10906C30.0236 8.19306 30.5216 8.30106 30.9416 8.43306C31.3736 8.56506 31.7336 8.74506 32.0216 8.97306C32.3096 9.18906 32.5256 9.46506 32.6696 9.80106C32.8256 10.1251 32.9036 10.5211 32.9036 10.9891C32.9036 11.9491 32.5256 12.6931 31.7696 13.2211C31.0256 13.7371 30.0356 13.9951 28.7996 13.9951ZM37.6994 13.8151C37.1114 13.8151 36.6494 13.7311 36.3134 13.5631C35.9894 13.3831 35.7614 13.1311 35.6294 12.8071C35.4974 12.4831 35.4314 12.0931 35.4314 11.6371V6.05706H33.6674V4.23906H35.4314V1.53906L37.6634 1.30506V4.23906H39.6974V6.05706H37.6634V11.2231C37.6634 11.5231 37.7294 11.7271 37.8614 11.8351C37.9934 11.9311 38.1974 11.9791 38.4734 11.9791H39.6974V13.8151H37.6994ZM44.4386 13.9771C43.8626 13.9771 43.3346 13.8751 42.8546 13.6711C42.3866 13.4551 41.9786 13.1371 41.6306 12.7171C41.2946 12.2971 41.0366 11.7811 40.8566 11.1691C40.6766 10.5451 40.5866 9.83106 40.5866 9.02706C40.5866 7.93506 40.7426 7.02306 41.0546 6.29106C41.3786 5.54706 41.8286 4.98906 42.4046 4.61706C42.9926 4.24506 43.6706 4.05906 44.4386 4.05906C44.9666 4.05906 45.4346 4.14306 45.8426 4.31106C46.2626 4.46706 46.6226 4.68906 46.9226 4.97706C47.2226 5.26506 47.4506 5.60706 47.6066 6.00306H47.7326L47.8226 4.23906H49.9826V13.8151H47.7326V12.0331H47.6066C47.3786 12.6211 46.9886 13.0951 46.4366 13.4551C45.8846 13.8031 45.2186 13.9771 44.4386 13.9771ZM45.2846 12.1411C45.8246 12.1411 46.2686 12.0151 46.6166 11.7631C46.9766 11.5111 47.2466 11.1871 47.4266 10.7911C47.6066 10.3831 47.6966 9.95706 47.6966 9.51306V8.52306C47.6966 8.06706 47.6066 7.64106 47.4266 7.24506C47.2466 6.83706 46.9766 6.51306 46.6166 6.27306C46.2686 6.02106 45.8246 5.89506 45.2846 5.89506C44.8046 5.89506 44.3846 6.00906 44.0246 6.23706C43.6646 6.46506 43.3826 6.81306 43.1786 7.28106C42.9746 7.73706 42.8726 8.31906 42.8726 9.02706C42.8726 9.71106 42.9746 10.2871 43.1786 10.7551C43.3826 11.2231 43.6646 11.5711 44.0246 11.7991C44.3846 12.0271 44.8046 12.1411 45.2846 12.1411ZM55.548 13.9771C54.972 13.9771 54.444 13.8751 53.964 13.6711C53.496 13.4551 53.088 13.1371 52.74 12.7171C52.404 12.2971 52.146 11.7811 51.966 11.1691C51.786 10.5451 51.696 9.83106 51.696 9.02706C51.696 7.93506 51.852 7.02306 52.164 6.29106C52.488 5.54706 52.938 4.98906 53.514 4.61706C54.102 4.24506 54.78 4.05906 55.548 4.05906C56.076 4.05906 56.544 4.14306 56.952 4.31106C57.372 4.46706 57.732 4.68906 58.032 4.97706C58.332 5.26506 58.56 5.60706 58.716 6.00306H58.842V0.693063H61.092L61.074 13.8151H58.914L58.842 12.0331H58.716C58.488 12.6211 58.098 13.0951 57.546 13.4551C56.994 13.8031 56.328 13.9771 55.548 13.9771ZM56.394 12.1411C56.934 12.1411 57.378 12.0151 57.726 11.7631C58.086 11.5111 58.356 11.1871 58.536 10.7911C58.716 10.3831 58.806 9.95706 58.806 9.51306V8.52306C58.806 8.17506 58.752 7.84506 58.644 7.53306C58.548 7.22106 58.398 6.94506 58.194 6.70506C58.002 6.45306 57.75 6.25506 57.438 6.11106C57.138 5.96706 56.79 5.89506 56.394 5.89506C55.914 5.89506 55.494 6.00906 55.134 6.23706C54.774 6.46506 54.492 6.81306 54.288 7.28106C54.084 7.73706 53.982 8.31906 53.982 9.02706C53.982 9.71106 54.084 10.2871 54.288 10.7551C54.492 11.2231 54.774 11.5711 55.134 11.7991C55.494 12.0271 55.914 12.1411 56.394 12.1411ZM65.6108 13.8151L62.2628 4.22106H64.6928L66.3668 9.72906L66.9608 11.9251H67.0328L67.6268 9.74706L69.3008 4.22106H71.7308L68.4008 13.8151H65.6108ZM72.9091 13.8151V4.23906H75.1591V13.8151H72.9091ZM72.9091 2.88906V0.693063H75.1591V2.88906H72.9091ZM81.6889 13.9771C80.9809 13.9771 80.3389 13.8631 79.7629 13.6351C79.1869 13.3951 78.6889 13.0591 78.2689 12.6271C77.8489 12.1831 77.5309 11.6611 77.3149 11.0611C77.0989 10.4491 76.9909 9.77106 76.9909 9.02706C76.9909 8.01906 77.1829 7.14906 77.5669 6.41706C77.9629 5.67306 78.5149 5.09706 79.2229 4.68906C79.9429 4.26906 80.7889 4.05906 81.7609 4.05906C82.5649 4.05906 83.2789 4.20906 83.9029 4.50906C84.5269 4.80906 85.0249 5.22906 85.3969 5.76906C85.7809 6.29706 85.9909 6.91506 86.0269 7.62306H83.8309C83.7709 7.25106 83.6389 6.93906 83.4349 6.68706C83.2429 6.43506 82.9969 6.24306 82.6969 6.11106C82.3969 5.97906 82.0669 5.91306 81.7069 5.91306C81.1909 5.91306 80.7469 6.04506 80.3749 6.30906C80.0029 6.56106 79.7209 6.92106 79.5289 7.38906C79.3489 7.85706 79.2589 8.40306 79.2589 9.02706C79.2589 9.71106 79.3609 10.2811 79.5649 10.7371C79.7689 11.1931 80.0509 11.5411 80.4109 11.7811C80.7829 12.0091 81.2089 12.1231 81.6889 12.1231C82.1089 12.1231 82.4749 12.0511 82.7869 11.9071C83.0989 11.7511 83.3449 11.5411 83.5249 11.2771C83.7169 11.0011 83.8309 10.6891 83.8669 10.3411H86.0629C86.0149 11.0731 85.7989 11.7151 85.4149 12.2671C85.0309 12.8071 84.5209 13.2271 83.8849 13.5271C83.2489 13.8271 82.5169 13.9771 81.6889 13.9771ZM91.7934 13.9771C90.8214 13.9771 89.9934 13.7791 89.3094 13.3831C88.6374 12.9751 88.1214 12.4051 87.7614 11.6731C87.4014 10.9291 87.2214 10.0651 87.2214 9.08106C87.2214 8.06106 87.4014 7.17906 87.7614 6.43506C88.1214 5.67906 88.6374 5.09706 89.3094 4.68906C89.9814 4.28106 90.7794 4.07706 91.7034 4.07706C92.7594 4.07706 93.6234 4.31106 94.2954 4.77906C94.9794 5.23506 95.4714 5.87106 95.7714 6.68706C96.0714 7.50306 96.1734 8.43906 96.0774 9.49506H89.4174C89.4174 10.1071 89.5134 10.6231 89.7054 11.0431C89.9094 11.4511 90.1854 11.7631 90.5334 11.9791C90.8934 12.1831 91.3134 12.2851 91.7934 12.2851C92.3574 12.2851 92.8254 12.1531 93.1974 11.8891C93.5694 11.6131 93.8094 11.2591 93.9174 10.8271H96.0234C95.9514 11.4751 95.7234 12.0391 95.3394 12.5191C94.9554 12.9871 94.4574 13.3471 93.8454 13.5991C93.2334 13.8511 92.5494 13.9771 91.7934 13.9771ZM89.4174 8.28906L89.2194 8.05506H94.0974L93.8814 8.30706C93.9054 7.71906 93.8274 7.23906 93.6474 6.86706C93.4674 6.49506 93.2094 6.21906 92.8734 6.03906C92.5374 5.85906 92.1474 5.76906 91.7034 5.76906C91.2474 5.76906 90.8514 5.86506 90.5154 6.05706C90.1794 6.24906 89.9154 6.53706 89.7234 6.92106C89.5314 7.29306 89.4294 7.74906 89.4174 8.28906Z" fill="#454545"/>
</svg>
