<svg width="147" height="27" viewBox="0 0 147 27" fill="none" xmlns="http://www.w3.org/2000/svg">
<path d="M12.551 8.64896V0.512498H16.5607V21H12.551V12.5123H4.94138V21H0.902411V0.512498H4.94138V8.64896H12.551ZM40.7373 10.5221C40.7373 11.1465 41.6251 11.6831 43.4007 12.1318C44.0251 12.2684 44.5909 12.4343 45.0983 12.6294C45.6056 12.805 46.1129 13.0684 46.6202 13.4196C47.147 13.7513 47.5568 14.2001 47.8494 14.7659C48.1421 15.3318 48.2884 15.9854 48.2884 16.7269C48.2884 18.2293 47.7226 19.3903 46.5909 20.2098C45.4592 21.0098 44.0641 21.4098 42.4056 21.4098C39.4008 21.4098 37.352 20.2488 36.2594 17.9269L39.5374 16.083C39.9861 17.3513 40.9422 17.9854 42.4056 17.9854C43.7519 17.9854 44.4251 17.5659 44.4251 16.7269C44.4251 16.1025 43.5373 15.5659 41.7617 15.1172C41.0983 14.9416 40.5325 14.7659 40.0642 14.5903C39.5959 14.4147 39.0886 14.1611 38.5423 13.8294C37.9959 13.4782 37.5764 13.0391 37.2837 12.5123C37.0106 11.966 36.874 11.3319 36.874 10.6099C36.874 9.16603 37.4008 8.03434 38.4544 7.21484C39.5276 6.37583 40.8544 5.95632 42.4349 5.95632C43.6251 5.95632 44.708 6.22949 45.6836 6.77582C46.6592 7.30264 47.4299 8.06361 47.9958 9.05871L44.7763 10.8148C44.308 9.81968 43.5275 9.32212 42.4349 9.32212C41.9471 9.32212 41.5373 9.4392 41.2056 9.67334C40.8934 9.88797 40.7373 10.1709 40.7373 10.5221ZM58.6584 6.36607V9.99528H55.3511V16.083C55.3511 16.5903 55.478 16.961 55.7316 17.1952C55.9853 17.4293 56.356 17.5659 56.8438 17.6049C57.3316 17.6244 57.9365 17.6147 58.6584 17.5757V21C56.1024 21.2927 54.278 21.0585 53.1853 20.2976C52.1122 19.5171 51.5756 18.1122 51.5756 16.083V9.99528H49.0293V6.36607H51.5756V3.41002L55.3511 2.26857V6.36607H58.6584ZM74.105 10.3758C75.9001 11.4099 76.7976 12.9709 76.7976 15.0586C76.7976 16.7952 76.183 18.2196 74.9538 19.3317C73.7245 20.4439 72.2123 21 70.4172 21H61.7247V0.512498H69.8026C71.5392 0.512498 73.0123 1.05883 74.2221 2.1515C75.4318 3.24417 76.0367 4.61975 76.0367 6.27827C76.0367 7.9758 75.3928 9.34164 74.105 10.3758ZM69.8026 4.28805H65.7636V8.7953H69.8026C70.427 8.7953 70.9441 8.58067 71.3538 8.15141C71.7831 7.72215 71.9977 7.18557 71.9977 6.54168C71.9977 5.89778 71.7928 5.36121 71.3831 4.93194C70.9733 4.50268 70.4465 4.28805 69.8026 4.28805ZM65.7636 17.2244H70.4172C71.1002 17.2244 71.666 17.0001 72.1148 16.5513C72.5635 16.083 72.7879 15.4976 72.7879 14.7952C72.7879 14.1123 72.5635 13.5465 72.1148 13.0977C71.666 12.6294 71.1002 12.3952 70.4172 12.3952H65.7636V17.2244ZM89.2426 14.2684V6.36607H93.0182V21H89.2426V19.361C88.3451 20.7268 86.8915 21.4098 84.8817 21.4098C83.2818 21.4098 81.9549 20.8732 80.9013 19.8C79.8672 18.7074 79.3501 17.2244 79.3501 15.3513V6.36607H83.1257V14.883C83.1257 15.8391 83.3793 16.5806 83.8866 17.1074C84.4134 17.6342 85.1256 17.8976 86.0232 17.8976C87.0183 17.8976 87.7988 17.5952 88.3646 16.9903C88.95 16.3659 89.2426 15.4586 89.2426 14.2684ZM107.569 8.09287V0.512498H111.344V21H107.569V19.2732C106.456 20.6976 104.876 21.4098 102.827 21.4098C100.857 21.4098 99.1688 20.6683 97.7639 19.1854C96.3786 17.683 95.6859 15.8489 95.6859 13.683C95.6859 11.5367 96.3786 9.71236 97.7639 8.20995C99.1688 6.70753 100.857 5.95632 102.827 5.95632C104.876 5.95632 106.456 6.66851 107.569 8.09287ZM100.603 16.6684C101.403 17.4293 102.378 17.8098 103.53 17.8098C104.7 17.8098 105.666 17.4293 106.427 16.6684C107.188 15.8879 107.569 14.8928 107.569 13.683C107.569 12.4733 107.188 11.4879 106.427 10.727C105.666 9.9465 104.7 9.55627 103.53 9.55627C102.359 9.55627 101.383 9.9465 100.603 10.727C99.842 11.4879 99.4615 12.4733 99.4615 13.683C99.4615 14.8928 99.842 15.8879 100.603 16.6684ZM125.89 8.09287V0.512498H129.665V21H125.89V19.2732C124.777 20.6976 123.197 21.4098 121.148 21.4098C119.178 21.4098 117.49 20.6683 116.085 19.1854C114.7 17.683 114.007 15.8489 114.007 13.683C114.007 11.5367 114.7 9.71236 116.085 8.20995C117.49 6.70753 119.178 5.95632 121.148 5.95632C123.197 5.95632 124.777 6.66851 125.89 8.09287ZM118.924 16.6684C119.724 17.4293 120.699 17.8098 121.851 17.8098C123.021 17.8098 123.987 17.4293 124.748 16.6684C125.509 15.8879 125.89 14.8928 125.89 13.683C125.89 12.4733 125.509 11.4879 124.748 10.727C123.987 9.9465 123.021 9.55627 121.851 9.55627C120.68 9.55627 119.704 9.9465 118.924 10.727C118.163 11.4879 117.782 12.4733 117.782 13.683C117.782 14.8928 118.163 15.8879 118.924 16.6684ZM139.411 16.2001L142.659 6.36607H146.698L141.372 21C140.611 23.1073 139.596 24.6292 138.328 25.5658C137.079 26.5219 135.518 26.9511 133.645 26.8536V23.3414C134.64 23.3609 135.44 23.1463 136.045 22.6975C136.65 22.2488 137.128 21.5268 137.479 20.5317L131.479 6.36607H135.606L139.411 16.2001Z" fill="#16191C"/>
<path d="M32.6592 19.1854C31.1763 20.6683 29.3422 21.4098 27.1568 21.4098C24.9715 21.4098 23.1374 20.6683 21.6545 19.1854C20.1716 17.7025 19.4301 15.8684 19.4301 13.683C19.4301 11.5172 20.1716 9.69285 21.6545 8.20995C23.1569 6.70753 24.991 5.95632 27.1568 5.95632C29.3226 5.95632 31.1568 6.70753 32.6592 8.20995C34.1616 9.71236 34.9128 11.5367 34.9128 13.683C34.9128 15.8489 34.1616 17.683 32.6592 19.1854ZM24.3178 16.5806C25.0788 17.3415 26.0251 17.722 27.1568 17.722C28.2885 17.722 29.2348 17.3415 29.9958 16.5806C30.7568 15.8196 31.1373 14.8537 31.1373 13.683C31.1373 12.5123 30.7568 11.5465 29.9958 10.7855C29.2348 10.0246 28.2885 9.64407 27.1568 9.64407C26.0251 9.64407 25.0788 10.0246 24.3178 10.7855C23.5764 11.566 23.2057 12.5318 23.2057 13.683C23.2057 14.8342 23.5764 15.8001 24.3178 16.5806Z" fill="#FF7500"/>
</svg>
