<svg width="113" height="25" viewBox="0 0 113 25" fill="none" xmlns="http://www.w3.org/2000/svg">
<path d="M1.68384 18.2V6.53601H3.79584V16.712L3.44384 16.312H9.17184V18.2H1.68384ZM13.7916 18.344C12.9276 18.344 12.1916 18.168 11.5836 17.816C10.9863 17.4533 10.5276 16.9467 10.2076 16.296C9.88759 15.6347 9.72759 14.8667 9.72759 13.992C9.72759 13.0853 9.88759 12.3013 10.2076 11.64C10.5276 10.968 10.9863 10.4507 11.5836 10.088C12.1809 9.72535 12.8903 9.54401 13.7116 9.54401C14.6503 9.54401 15.4183 9.75201 16.0156 10.168C16.6236 10.5733 17.0609 11.1387 17.3276 11.864C17.5943 12.5893 17.6849 13.4213 17.5996 14.36H11.6796C11.6796 14.904 11.7649 15.3627 11.9356 15.736C12.1169 16.0987 12.3623 16.376 12.6716 16.568C12.9916 16.7493 13.3649 16.84 13.7916 16.84C14.2929 16.84 14.7089 16.7227 15.0396 16.488C15.3703 16.2427 15.5836 15.928 15.6796 15.544H17.5516C17.4876 16.12 17.2849 16.6213 16.9436 17.048C16.6023 17.464 16.1596 17.784 15.6156 18.008C15.0716 18.232 14.4636 18.344 13.7916 18.344ZM11.6796 13.288L11.5036 13.08H15.8396L15.6476 13.304C15.6689 12.7813 15.5996 12.3547 15.4396 12.024C15.2796 11.6933 15.0503 11.448 14.7516 11.288C14.4529 11.128 14.1063 11.048 13.7116 11.048C13.3063 11.048 12.9543 11.1333 12.6556 11.304C12.3569 11.4747 12.1223 11.7307 11.9516 12.072C11.7809 12.4027 11.6903 12.808 11.6796 13.288ZM22.2766 18.344C21.7646 18.344 21.2953 18.2533 20.8686 18.072C20.4526 17.88 20.0899 17.5973 19.7806 17.224C19.4819 16.8507 19.2526 16.392 19.0926 15.848C18.9326 15.2933 18.8526 14.6587 18.8526 13.944C18.8526 12.9733 18.9913 12.1627 19.2686 11.512C19.5566 10.8507 19.9566 10.3547 20.4686 10.024C20.9913 9.69334 21.5939 9.52801 22.2766 9.52801C22.7459 9.52801 23.1619 9.60268 23.5246 9.75201C23.8979 9.89068 24.2179 10.088 24.4846 10.344C24.7513 10.6 24.9539 10.904 25.0926 11.256H25.2046L25.2846 9.68801H27.2046V18.2H25.2046V16.616H25.0926C24.8899 17.1387 24.5433 17.56 24.0526 17.88C23.5619 18.1893 22.9699 18.344 22.2766 18.344ZM23.0286 16.712C23.5086 16.712 23.9033 16.6 24.2126 16.376C24.5326 16.152 24.7726 15.864 24.9326 15.512C25.0926 15.1493 25.1726 14.7707 25.1726 14.376V13.496C25.1726 13.0907 25.0926 12.712 24.9326 12.36C24.7726 11.9973 24.5326 11.7093 24.2126 11.496C23.9033 11.272 23.5086 11.16 23.0286 11.16C22.6019 11.16 22.2286 11.2613 21.9086 11.464C21.5886 11.6667 21.3379 11.976 21.1566 12.392C20.9753 12.7973 20.8846 13.3147 20.8846 13.944C20.8846 14.552 20.9753 15.064 21.1566 15.48C21.3379 15.896 21.5886 16.2053 21.9086 16.408C22.2286 16.6107 22.6019 16.712 23.0286 16.712ZM29.3493 18.2V9.68801H31.1573L31.2533 11.112H31.3173C31.5093 10.568 31.8187 10.1787 32.2453 9.94401C32.6827 9.69868 33.1787 9.57601 33.7333 9.57601C33.8293 9.57601 33.9147 9.57601 33.9893 9.57601C34.0747 9.57601 34.1547 9.57601 34.2293 9.57601V11.464C34.1653 11.464 34.0853 11.464 33.9893 11.464C33.904 11.4533 33.808 11.448 33.7013 11.448C33.1893 11.448 32.7627 11.5333 32.4213 11.704C32.08 11.864 31.8187 12.0987 31.6373 12.408C31.4667 12.7173 31.3707 13.096 31.3493 13.544V18.2H29.3493ZM35.5368 18.2V9.68801H37.4568L37.5368 11.304H37.6328C37.8782 10.7067 38.2515 10.264 38.7528 9.97601C39.2542 9.67734 39.8142 9.52801 40.4328 9.52801C40.8595 9.52801 41.2542 9.59734 41.6168 9.73601C41.9902 9.86401 42.3102 10.072 42.5768 10.36C42.8542 10.6373 43.0675 11.0053 43.2168 11.464C43.3768 11.912 43.4568 12.456 43.4568 13.096V18.2H41.4568V13.528C41.4568 12.9947 41.3928 12.5573 41.2648 12.216C41.1368 11.864 40.9395 11.6027 40.6728 11.432C40.4168 11.2613 40.0808 11.176 39.6648 11.176C39.2168 11.176 38.8328 11.2827 38.5128 11.496C38.2035 11.7093 37.9635 11.992 37.7928 12.344C37.6222 12.696 37.5368 13.0853 37.5368 13.512V18.2H35.5368ZM49.0056 18.2V9.68801H50.9416L51.0056 11.304H51.1016C51.3363 10.7067 51.6989 10.264 52.1896 9.97601C52.6803 9.67734 53.2189 9.52801 53.8056 9.52801C54.4243 9.52801 54.9789 9.67734 55.4696 9.97601C55.9603 10.2747 56.3176 10.776 56.5416 11.48H56.6696C56.8936 10.8293 57.2669 10.344 57.7896 10.024C58.3123 9.69334 58.9043 9.52801 59.5656 9.52801C60.1309 9.52801 60.6323 9.64534 61.0696 9.88001C61.5176 10.1147 61.8696 10.4933 62.1256 11.016C62.3816 11.5387 62.5096 12.232 62.5096 13.096V18.2H60.5096V13.528C60.5096 12.9947 60.4509 12.5573 60.3336 12.216C60.2163 11.864 60.0296 11.6027 59.7736 11.432C59.5176 11.2613 59.1923 11.176 58.7976 11.176C58.3709 11.176 58.0029 11.2827 57.6936 11.496C57.3949 11.7093 57.1656 11.992 57.0056 12.344C56.8456 12.696 56.7656 13.0853 56.7656 13.512V18.2H54.7496V13.528C54.7496 12.9947 54.6909 12.5573 54.5736 12.216C54.4563 11.864 54.2696 11.6027 54.0136 11.432C53.7683 11.2613 53.4483 11.176 53.0536 11.176C52.6269 11.176 52.2589 11.2827 51.9496 11.496C51.6509 11.7093 51.4163 11.992 51.2456 12.344C51.0856 12.696 51.0056 13.0853 51.0056 13.512V18.2H49.0056ZM68.2641 18.344C67.6241 18.344 67.0481 18.248 66.5361 18.056C66.0241 17.8533 65.5761 17.56 65.1921 17.176C64.8188 16.792 64.5308 16.328 64.3281 15.784C64.1361 15.24 64.0401 14.6267 64.0401 13.944C64.0401 13.0693 64.2054 12.3013 64.5361 11.64C64.8774 10.9787 65.3628 10.4613 65.9921 10.088C66.6214 9.71468 67.3788 9.52801 68.2641 9.52801C68.8934 9.52801 69.4641 9.62934 69.9761 9.83201C70.4881 10.0347 70.9254 10.328 71.2881 10.712C71.6614 11.096 71.9494 11.56 72.1521 12.104C72.3548 12.6373 72.4561 13.2507 72.4561 13.944C72.4561 14.808 72.2854 15.5707 71.9441 16.232C71.6134 16.8933 71.1334 17.4107 70.5041 17.784C69.8854 18.1573 69.1388 18.344 68.2641 18.344ZM68.2481 16.696C68.6854 16.696 69.0694 16.5947 69.4001 16.392C69.7308 16.1787 69.9868 15.8693 70.1681 15.464C70.3494 15.048 70.4401 14.5413 70.4401 13.944C70.4401 13.496 70.3868 13.1013 70.2801 12.76C70.1841 12.408 70.0401 12.1147 69.8481 11.88C69.6561 11.6453 69.4268 11.4693 69.1601 11.352C68.8934 11.2347 68.5948 11.176 68.2641 11.176C67.8268 11.176 67.4374 11.2827 67.0961 11.496C66.7654 11.6987 66.5094 12.008 66.3281 12.424C66.1468 12.8293 66.0561 13.336 66.0561 13.944C66.0561 14.392 66.1041 14.792 66.2001 15.144C66.3068 15.4853 66.4561 15.7733 66.6481 16.008C66.8401 16.232 67.0694 16.4027 67.3361 16.52C67.6134 16.6373 67.9174 16.696 68.2481 16.696ZM74.0681 18.2V9.68801H75.8761L75.9721 11.112H76.0361C76.2281 10.568 76.5374 10.1787 76.9641 9.94401C77.4014 9.69868 77.8974 9.57601 78.4521 9.57601C78.5481 9.57601 78.6334 9.57601 78.7081 9.57601C78.7934 9.57601 78.8734 9.57601 78.9481 9.57601V11.464C78.8841 11.464 78.8041 11.464 78.7081 11.464C78.6228 11.4533 78.5268 11.448 78.4201 11.448C77.9081 11.448 77.4814 11.5333 77.1401 11.704C76.7988 11.864 76.5374 12.0987 76.3561 12.408C76.1854 12.7173 76.0894 13.096 76.0681 13.544V18.2H74.0681ZM83.5728 18.344C82.7088 18.344 81.9728 18.168 81.3648 17.816C80.7675 17.4533 80.3088 16.9467 79.9888 16.296C79.6688 15.6347 79.5088 14.8667 79.5088 13.992C79.5088 13.0853 79.6688 12.3013 79.9888 11.64C80.3088 10.968 80.7675 10.4507 81.3648 10.088C81.9622 9.72535 82.6715 9.54401 83.4928 9.54401C84.4315 9.54401 85.1995 9.75201 85.7968 10.168C86.4048 10.5733 86.8422 11.1387 87.1088 11.864C87.3755 12.5893 87.4662 13.4213 87.3808 14.36H81.4608C81.4608 14.904 81.5462 15.3627 81.7168 15.736C81.8982 16.0987 82.1435 16.376 82.4528 16.568C82.7728 16.7493 83.1462 16.84 83.5728 16.84C84.0742 16.84 84.4902 16.7227 84.8208 16.488C85.1515 16.2427 85.3648 15.928 85.4608 15.544H87.3328C87.2688 16.12 87.0662 16.6213 86.7248 17.048C86.3835 17.464 85.9408 17.784 85.3968 18.008C84.8528 18.232 84.2448 18.344 83.5728 18.344ZM81.4608 13.288L81.2848 13.08H85.6208L85.4288 13.304C85.4502 12.7813 85.3808 12.3547 85.2208 12.024C85.0608 11.6933 84.8315 11.448 84.5328 11.288C84.2342 11.128 83.8875 11.048 83.4928 11.048C83.0875 11.048 82.7355 11.1333 82.4368 11.304C82.1382 11.4747 81.9035 11.7307 81.7328 12.072C81.5622 12.4027 81.4715 12.808 81.4608 13.288Z" fill="#FF7500"/>
<path d="M104.269 17.2834L103.083 16.0549L106.091 13.0473H95.7969V11.3528H106.091L103.083 8.34517L104.269 7.1167L109.352 12.2L104.269 17.2834Z" fill="#FF7500"/>
</svg>
