<svg width="7" height="586" viewBox="0 0 7 586" fill="none" xmlns="http://www.w3.org/2000/svg">
<path d="M3.5 0.333333C2.02724 0.333333 0.833333 1.52724 0.833333 3C0.833333 4.47276 2.02724 5.66667 3.5 5.66667C4.97276 5.66667 6.16667 4.47276 6.16667 3C6.16667 1.52724 4.97276 0.333333 3.5 0.333333ZM3.49997 580.333C2.02722 580.333 0.833308 581.527 0.833308 583C0.833308 584.473 2.02722 585.667 3.49997 585.667C4.97273 585.667 6.16664 584.473 6.16664 583C6.16664 581.527 4.97273 580.333 3.49997 580.333ZM3 3L3 6.53659L4 6.53659L4 3L3 3ZM3 13.6098L3 20.6829L4 20.6829L4 13.6098L3 13.6098ZM3 27.7561L3 34.8293L4 34.8293L4 27.7561L3 27.7561ZM3 41.9024L3 48.9756L4 48.9756L4 41.9024L3 41.9024ZM3 56.0488L3 63.1219L4 63.1219L4 56.0488L3 56.0488ZM3 70.1951L3 77.2683L4 77.2683L4 70.1951L3 70.1951ZM3 84.3415L3 91.4146L4 91.4146L4 84.3415L3 84.3415ZM3 98.4878L3 105.561L4 105.561L4 98.4878L3 98.4878ZM3 112.634L2.99999 119.707L3.99999 119.707L4 112.634L3 112.634ZM2.99999 126.781L2.99999 133.854L3.99999 133.854L3.99999 126.781L2.99999 126.781ZM2.99999 140.927L2.99999 148L3.99999 148L3.99999 140.927L2.99999 140.927ZM2.99999 155.073L2.99999 162.146L3.99999 162.146L3.99999 155.073L2.99999 155.073ZM2.99999 169.219L2.99999 176.293L3.99999 176.293L3.99999 169.219L2.99999 169.219ZM2.99999 183.366L2.99999 190.439L3.99999 190.439L3.99999 183.366L2.99999 183.366ZM2.99999 197.512L2.99999 204.585L3.99999 204.585L3.99999 197.512L2.99999 197.512ZM2.99999 211.658L2.99999 218.732L3.99999 218.732L3.99999 211.658L2.99999 211.658ZM2.99999 225.805L2.99999 232.878L3.99999 232.878L3.99999 225.805L2.99999 225.805ZM2.99999 239.951L2.99999 247.024L3.99999 247.024L3.99999 239.951L2.99999 239.951ZM2.99999 254.097L2.99999 261.171L3.99999 261.171L3.99999 254.097L2.99999 254.097ZM2.99999 268.244L2.99999 275.317L3.99999 275.317L3.99999 268.244L2.99999 268.244ZM2.99999 282.39L2.99999 289.463L3.99999 289.463L3.99999 282.39L2.99999 282.39ZM2.99999 296.537L2.99999 303.61L3.99999 303.61L3.99999 296.537L2.99999 296.537ZM2.99999 310.683L2.99999 317.756L3.99999 317.756L3.99999 310.683L2.99999 310.683ZM2.99999 324.829L2.99999 331.902L3.99999 331.902L3.99999 324.829L2.99999 324.829ZM2.99999 338.976L2.99999 346.049L3.99999 346.049L3.99999 338.976L2.99999 338.976ZM2.99998 353.122L2.99998 360.195L3.99998 360.195L3.99998 353.122L2.99998 353.122ZM2.99998 367.268L2.99998 374.342L3.99998 374.342L3.99998 367.268L2.99998 367.268ZM2.99998 381.415L2.99998 388.488L3.99998 388.488L3.99998 381.415L2.99998 381.415ZM2.99998 395.561L2.99998 402.634L3.99998 402.634L3.99998 395.561L2.99998 395.561ZM2.99998 409.707L2.99998 416.781L3.99998 416.781L3.99998 409.707L2.99998 409.707ZM2.99998 423.854L2.99998 430.927L3.99998 430.927L3.99998 423.854L2.99998 423.854ZM2.99998 438L2.99998 445.073L3.99998 445.073L3.99998 438L2.99998 438ZM2.99998 452.147L2.99998 459.22L3.99998 459.22L3.99998 452.147L2.99998 452.147ZM2.99998 466.293L2.99998 473.366L3.99998 473.366L3.99998 466.293L2.99998 466.293ZM2.99998 480.439L2.99998 487.512L3.99998 487.512L3.99998 480.439L2.99998 480.439ZM2.99998 494.586L2.99998 501.659L3.99998 501.659L3.99998 494.586L2.99998 494.586ZM2.99998 508.732L2.99998 515.805L3.99998 515.805L3.99998 508.732L2.99998 508.732ZM2.99998 522.878L2.99998 529.952L3.99998 529.952L3.99998 522.878L2.99998 522.878ZM2.99998 537.025L2.99998 544.098L3.99998 544.098L3.99998 537.025L2.99998 537.025ZM2.99998 551.171L2.99998 558.244L3.99998 558.244L3.99998 551.171L2.99998 551.171ZM2.99998 565.317L2.99998 572.391L3.99998 572.391L3.99998 565.317L2.99998 565.317ZM2.99997 579.464L2.99997 583L3.99997 583L3.99997 579.464L2.99997 579.464Z" fill="#FF7500"/>
</svg>
