<svg width="1920" height="756" viewBox="0 0 1920 756" fill="none" xmlns="http://www.w3.org/2000/svg">
<g opacity="0.1">
<path d="M-576.342 -163.157C-581.806 25.4977 -518.047 215.415 -399.587 363.315C-365.884 405.392 -326.177 445.328 -275.508 464.473C-129.098 519.784 30.5191 408.081 155.715 345.322C306.799 269.592 456.264 190.056 613.276 126.716C701.424 91.1552 804.721 61.5207 888.468 106.367C973.272 151.785 1003.9 254.336 1037.61 343.776C1076.88 447.996 1131.78 548.719 1213.74 624.8C1295.71 700.88 1407.55 750.062 1519.42 740.083C1607.03 732.266 1687.53 689.873 1761.22 642.324C1954.83 517.382 2120.48 350.235 2242.99 156.204" stroke="#FF7500" stroke-width="0.692997" stroke-miterlimit="10"/>
<path d="M-581.277 -155.092C-586.11 11.6437 -529.995 175.998 -427.632 317.998C-418.126 331.186 -408.33 344.164 -398.092 356.801C-364.43 398.311 -325.06 437.742 -275.115 457.015C-130.669 512.817 26.4275 407.066 151.406 346.64C262.208 293.066 372.295 236.366 486.146 185.315C525.645 167.529 565.469 150.434 605.777 134.36C693.213 99.5004 795.284 70.2668 878.439 113.085C962.636 156.443 994.403 255.07 1029.15 341.053C1069.65 441.24 1125.28 538.106 1207.14 611.311C1235.64 636.798 1267.66 659.151 1301.97 677.059C1366.16 710.586 1438.41 728.575 1510.65 722.413C1597.43 715.012 1677.32 674.386 1750.5 629.061C1898.65 537.365 2030.21 422.54 2139.42 289.456C2172 249.747 2202.59 208.421 2231.02 165.586" stroke="#FF7500" stroke-width="0.692997" stroke-miterlimit="10"/>
<path d="M-586.205 -147.034C-590.879 14.1429 -531.434 169.516 -426.097 312.072C-416.533 325.008 -406.794 337.821 -396.59 350.271C-362.962 391.207 -323.936 430.14 -274.707 449.548C-132.218 505.849 22.3351 406.042 147.103 347.942C256.706 296.906 365.809 241.744 479.579 191.815C518.784 174.462 558.307 157.741 598.286 141.989C685.009 107.822 785.862 78.9973 868.416 119.786C952.006 161.093 984.909 255.796 1020.69 338.315C1062.41 434.468 1118.78 527.477 1200.54 597.798C1229.01 622.28 1260.88 643.759 1294.97 660.963C1358.73 693.187 1430.32 710.538 1501.87 704.72C1587.82 697.727 1667.1 658.876 1739.77 615.782C1886.96 528.624 2017.55 420.228 2126.94 293.364C2159.59 255.509 2190.34 216.024 2219.03 174.952" stroke="#FF7500" stroke-width="0.692997" stroke-miterlimit="10"/>
<path d="M-591.142 -138.97C-595.648 16.6488 -532.918 163.039 -424.569 306.152C-414.956 318.851 -405.274 331.492 -395.103 343.747C-361.518 384.117 -322.82 422.538 -274.323 442.081C-133.799 498.872 18.1973 405.009 142.785 349.25C251.167 300.745 359.415 247.39 472.988 198.313C511.943 181.477 551.122 165.047 590.779 149.616C676.789 116.151 776.424 87.7266 858.371 126.486C941.353 165.742 975.392 256.514 1012.22 335.576C1055.16 427.695 1112.26 516.847 1193.91 584.292C1222.35 607.768 1254.08 628.374 1287.95 644.881C1351.29 675.801 1422.2 692.514 1493.08 687.033C1578.2 680.448 1656.85 643.373 1729.03 602.51C1875.27 519.882 2004.88 417.922 2114.45 297.27C2147.15 261.27 2178.06 223.627 2207.03 184.31" stroke="#FF7500" stroke-width="0.692997" stroke-miterlimit="10"/>
<path d="M-596.068 -130.912C-600.415 19.1489 -534.43 156.572 -423.024 300.227C-413.361 312.681 -403.729 325.157 -393.592 337.219C-360.041 377.014 -321.686 414.937 -273.914 434.615C-135.354 491.897 14.0697 403.963 138.492 350.554C245.637 304.563 352.975 252.85 466.43 204.814C505.105 188.434 543.962 172.355 583.297 157.246C668.594 124.474 767.003 96.4505 848.357 133.189C930.733 170.386 965.907 257.233 1003.78 332.839C1047.95 420.924 1105.78 506.226 1187.32 570.789C1215.73 593.266 1247.31 612.99 1280.96 628.801C1343.87 658.411 1414.12 674.485 1484.32 669.356C1568.63 663.187 1646.66 627.879 1718.32 589.247C1863.6 511.157 1992.24 415.625 2102.01 301.194C2134.77 267.048 2165.83 231.248 2195.08 193.692" stroke="#FF7500" stroke-width="0.692997" stroke-miterlimit="10"/>
<path d="M-601.005 -122.849C-605.192 21.654 -535.983 150.116 -421.497 294.306C-411.792 306.523 -402.201 318.82 -392.106 330.695C-358.596 369.924 -320.57 407.341 -273.522 427.147C-136.926 484.919 9.9024 402.906 134.182 351.854C240.076 308.356 346.502 258.301 459.847 211.305C498.242 195.381 536.785 179.653 575.79 164.865C660.375 132.794 757.566 105.172 838.32 139.881C920.088 175.026 956.39 257.943 995.313 330.092C1040.71 414.15 1099.27 495.588 1180.71 557.267C1209.09 578.739 1240.52 597.59 1273.96 612.704C1336.43 641.01 1406.02 656.446 1475.53 651.654C1559.01 645.894 1636.42 612.353 1707.58 575.952C1851.91 502.392 1979.57 413.296 2089.53 305.077C2122.35 272.787 2153.56 238.828 2183.09 203.035" stroke="#FF7500" stroke-width="0.692997" stroke-miterlimit="10"/>
<path d="M-605.94 -114.784C-609.969 24.1612 -537.58 143.683 -419.968 288.396C-410.229 300.375 -400.68 312.5 -390.611 324.18C-357.143 362.835 -319.453 399.755 -273.13 419.695C-138.491 477.959 5.71316 401.859 129.872 353.179C234.493 312.158 340.037 263.776 453.272 217.828C491.388 202.36 529.615 186.983 568.291 172.524C652.163 141.147 748.128 113.932 828.289 146.613C909.45 179.707 946.888 258.691 986.855 327.384C1033.48 407.409 1092.77 484.989 1174.1 543.793C1202.45 564.259 1233.73 582.236 1266.96 596.646C1329.01 623.648 1397.92 638.446 1466.76 633.998C1549.41 628.647 1626.21 596.881 1696.86 562.711C1840.22 493.689 1966.92 411.021 2077.07 309.022C2109.95 278.587 2141.31 246.47 2171.1 212.439" stroke="#FF7500" stroke-width="0.692997" stroke-miterlimit="10"/>
<path d="M-610.868 -106.726C-614.729 26.6604 -539.199 137.25 -418.425 282.469C-408.65 294.218 -399.135 306.164 -389.108 317.65C-355.674 355.739 -318.321 392.153 -272.722 412.221C-140.047 470.983 1.52522 400.765 125.571 354.474C228.904 315.914 333.566 269.213 446.705 224.312C484.542 209.293 522.454 194.283 560.801 180.137C643.96 149.461 738.707 122.648 818.268 153.299C898.822 184.334 937.395 259.402 978.398 324.631C1026.24 400.621 1086.27 474.345 1167.49 530.265C1195.8 549.733 1226.95 566.829 1259.96 580.543C1321.57 606.241 1389.82 620.393 1457.98 616.29C1539.8 611.354 1615.98 581.355 1686.14 549.417C1828.54 484.926 1954.26 408.694 2064.61 312.907C2097.54 284.327 2129.07 254.051 2159.13 221.782" stroke="#FF7500" stroke-width="0.692997" stroke-miterlimit="10"/>
<path d="M-615.803 -98.6613C-619.505 29.1674 -540.872 130.845 -416.896 276.551C-407.095 288.07 -397.614 299.828 -387.613 311.128C-354.221 348.642 -317.204 384.552 -272.329 404.754C-141.619 464.007 -2.70813 399.672 121.261 355.784C223.284 319.663 327.094 274.665 440.123 230.819C477.673 216.256 515.277 201.598 553.302 187.773C635.749 157.791 729.27 131.386 808.238 160.001C888.185 188.984 927.894 260.121 969.94 321.893C1019.01 393.85 1079.77 463.716 1160.89 516.761C1189.17 535.223 1220.16 551.445 1252.96 564.462C1314.13 588.849 1381.72 602.371 1449.21 598.605C1530.21 594.077 1605.76 565.853 1675.42 536.139C1816.86 476.185 1941.61 406.382 2052.15 316.815C2085.14 290.089 2116.82 261.663 2147.16 231.142" stroke="#FF7500" stroke-width="0.692997" stroke-miterlimit="10"/>
<path d="M-620.731 -90.5965C-624.274 31.6741 -542.568 124.463 -415.36 270.632C-405.532 281.921 -396.078 293.5 -386.118 304.605C-352.76 341.553 -316.08 376.957 -271.937 397.295C-143.183 457.039 -6.9487 398.563 116.951 357.093C217.65 323.389 320.615 280.102 433.549 237.319C470.819 223.197 508.108 208.905 545.803 195.402C627.537 166.12 719.84 140.116 798.209 166.702C877.548 193.634 918.392 260.84 961.483 319.155C1011.78 387.078 1073.27 453.087 1154.28 503.249C1182.53 520.705 1213.38 536.053 1245.96 548.374C1306.71 571.458 1373.64 584.334 1440.43 580.919C1520.6 576.807 1595.54 550.351 1664.69 522.868C1805.18 467.444 1928.95 404.076 2039.67 320.722C2072.72 295.851 2104.56 269.267 2135.17 240.508" stroke="#FF7500" stroke-width="0.692997" stroke-miterlimit="10"/>
<path d="M-625.673 -82.5403C-629.057 34.1722 -544.315 118.085 -413.831 264.712C-403.983 275.778 -394.556 287.171 -384.623 298.089C-351.306 334.463 -314.962 369.369 -271.536 389.835C-144.746 450.07 -11.2105 397.439 112.65 358.409C212.01 327.099 314.137 285.545 426.982 243.833C463.966 230.16 500.947 216.226 538.313 203.044C619.335 174.456 710.412 148.861 788.187 173.417C866.919 198.298 908.9 261.572 953.034 316.431C1004.55 380.32 1066.78 442.472 1147.69 489.758C1175.9 506.216 1206.61 520.69 1238.97 532.307C1299.29 554.087 1365.55 566.325 1431.67 563.247C1511.01 559.544 1585.33 534.863 1653.98 509.611C1793.5 458.725 1916.3 401.793 2027.23 324.652C2060.33 301.635 2092.33 276.893 2123.21 249.896" stroke="#FF7500" stroke-width="0.692997" stroke-miterlimit="10"/>
<path d="M-630.603 -74.4748C-633.827 36.6795 -546.089 111.746 -412.297 258.794C-402.43 269.637 -393.021 280.836 -383.129 291.567C-349.847 327.375 -313.839 361.776 -271.145 382.376C-146.319 443.102 -15.4968 396.285 108.339 359.719C206.337 330.78 307.649 290.983 420.399 250.333C457.096 237.101 493.77 223.534 530.806 210.673C611.115 182.786 700.973 157.584 778.141 180.119C856.266 202.941 899.374 262.298 944.56 313.686C997.305 373.548 1060.26 431.836 1141.06 476.246C1169.24 491.699 1199.8 505.299 1231.95 516.212C1291.83 536.688 1357.43 548.288 1422.87 545.554C1501.39 542.26 1575.09 519.353 1643.23 496.325C1781.8 449.969 1903.62 399.473 2014.74 328.552C2047.9 307.391 2080.06 284.49 2111.2 259.255" stroke="#FF7500" stroke-width="0.692997" stroke-miterlimit="10"/>
<path d="M-635.531 -66.4183C-638.588 39.178 -547.898 105.427 -410.761 252.867C-400.882 263.487 -391.508 274.521 -381.627 285.036C-348.455 320.336 -312.714 354.166 -270.744 374.901C-147.884 436.125 -19.7889 395.1 104.03 361.013C200.66 334.414 301.163 296.388 413.824 256.824C450.235 244.033 486.593 230.84 523.314 218.3C602.911 191.107 691.544 166.313 768.119 186.819C845.637 207.589 889.881 263.016 936.103 310.946C990.075 366.775 1053.76 421.205 1134.46 462.733C1162.6 477.18 1193.02 489.906 1224.95 500.123C1284.41 519.288 1349.34 530.25 1414.09 527.86C1491.78 524.981 1564.87 503.842 1632.51 483.045C1770.11 441.227 1890.96 397.16 2002.27 332.451C2035.49 313.144 2067.8 292.086 2099.22 268.605" stroke="#FF7500" stroke-width="0.692997" stroke-miterlimit="10"/>
<path d="M-640.465 -58.3532C-643.363 41.685 -549.753 99.1461 -409.224 246.949C-399.334 257.353 -389.978 268.186 -380.131 278.514C-347.001 313.247 -311.589 346.572 -270.343 367.442C-149.439 429.157 -24.1019 393.893 99.7284 362.33C194.968 338.05 294.685 301.818 407.25 263.332C443.366 250.982 479.424 238.155 515.816 225.937C594.7 199.444 682.115 175.051 758.09 193.529C835.001 212.247 880.38 263.742 927.646 308.216C982.839 360.011 1047.26 410.584 1127.85 449.236C1155.97 462.685 1186.24 474.53 1217.96 484.05C1276.98 501.911 1341.25 512.235 1405.33 510.19C1482.19 507.72 1554.65 488.355 1621.79 469.789C1758.44 432.502 1878.32 394.87 1989.82 336.381C2023.1 318.93 2055.56 299.713 2087.26 277.995" stroke="#FF7500" stroke-width="0.692997" stroke-miterlimit="10"/>
<path d="M-645.393 -50.288C-648.131 44.192 -551.639 92.894 -407.688 241.03C-397.786 251.219 -388.441 261.858 -378.628 271.992C-345.54 306.158 -310.464 338.978 -269.943 359.976C-151.003 422.182 -28.4296 392.657 95.4271 363.633C189.269 341.642 288.192 307.226 400.683 269.832C436.513 257.923 472.263 245.462 508.326 233.566C586.497 207.767 672.686 183.782 748.069 200.23C824.372 216.89 870.887 264.461 919.197 305.478C975.617 353.24 1040.77 399.955 1121.26 435.724C1149.34 448.167 1179.47 459.138 1210.97 467.962C1269.56 484.52 1333.16 494.206 1396.56 492.497C1472.6 490.436 1544.45 472.846 1611.09 456.504C1746.77 423.754 1865.68 392.551 1977.37 340.274C2010.7 324.678 2043.33 307.303 2075.29 287.347" stroke="#FF7500" stroke-width="0.692997" stroke-miterlimit="10"/>
<path d="M-650.328 -42.2306C-652.908 46.6913 -553.571 86.6707 -406.159 235.112C-396.253 245.084 -386.92 255.529 -377.141 265.47C-344.095 299.069 -309.347 331.384 -269.55 352.517C-152.575 415.213 -32.7878 391.39 91.117 364.95C183.547 345.225 281.698 312.64 394.109 276.339C429.652 264.864 465.094 252.777 500.827 241.202C578.285 216.104 663.256 192.52 738.039 206.939C813.735 221.547 861.385 265.195 910.739 302.748C968.38 346.475 1034.27 389.334 1114.65 422.227C1142.7 433.664 1172.68 443.762 1203.96 451.881C1262.13 467.136 1325.07 476.176 1387.78 474.811C1462.99 473.166 1534.22 457.344 1600.35 443.233C1735.08 415.013 1853.01 390.246 1964.89 344.189C1998.29 330.455 2031.06 314.922 2063.3 296.72" stroke="#FF7500" stroke-width="0.692997" stroke-miterlimit="10"/>
<path d="M-655.263 -34.1662C-657.676 49.1978 -555.541 80.4908 -404.623 229.193C-394.713 238.957 -385.383 249.201 -375.638 258.947C-342.626 291.973 -308.175 323.708 -269.149 345.05C-154.006 408.009 -37.1442 390.078 86.8157 366.252C177.827 348.755 275.206 318.032 387.534 282.838C422.784 271.797 457.925 260.084 493.329 248.83C570.075 224.425 653.82 201.25 728.01 213.64C803.106 226.197 851.884 265.913 902.274 300.009C961.143 339.703 1027.76 378.704 1108.03 408.714C1136.05 419.153 1165.89 428.369 1196.96 435.793C1254.69 449.736 1316.96 458.145 1379 457.125C1453.39 455.888 1524 441.841 1589.62 429.961C1723.39 406.279 1840.35 387.94 1952.42 348.096C1985.88 336.217 2018.82 322.526 2051.33 306.079" stroke="#FF7500" stroke-width="0.692997" stroke-miterlimit="10"/>
<path d="M-660.199 -26.1098C-662.452 51.6961 -557.543 74.3396 -403.095 223.265C-393.181 232.821 -383.855 242.857 -374.151 252.416C-341.181 284.875 -307.067 316.105 -268.765 337.574C-155.586 401.032 -41.5239 388.727 82.4905 367.546C172.069 352.247 268.689 323.407 380.944 289.322C415.899 278.707 450.741 267.375 485.822 256.442C561.856 232.739 644.382 209.965 717.972 220.318C792.461 230.816 842.368 266.608 893.809 297.248C953.906 332.908 1021.25 368.052 1101.42 395.186C1129.41 404.62 1159.1 412.962 1189.95 419.689C1247.25 432.328 1308.86 440.092 1370.22 439.416C1443.78 438.595 1513.77 426.308 1578.89 416.659C1711.7 397.508 1827.7 385.605 1939.95 351.981C1973.47 341.956 2006.55 330.106 2039.34 315.422" stroke="#FF7500" stroke-width="0.692997" stroke-miterlimit="10"/>
<path d="M-665.126 -18.0451C-667.22 54.21 -559.581 68.2327 -401.551 217.346C-391.64 226.694 -382.317 236.528 -372.64 245.894C-339.704 277.779 -305.926 308.511 -268.349 330.115C-157.126 394.064 -45.8855 387.34 78.2048 368.863C166.343 355.732 262.213 328.799 374.386 295.836C409.047 285.648 443.588 274.704 478.34 264.085C553.661 241.076 634.962 218.702 707.959 227.034C781.841 235.481 832.883 267.341 885.368 294.524C946.685 326.158 1014.77 357.445 1094.83 381.696C1122.79 390.124 1152.33 397.592 1182.97 403.623C1239.84 414.958 1300.79 422.084 1361.46 421.753C1434.2 421.34 1503.56 410.827 1568.19 403.41C1700.04 388.796 1815.06 383.329 1927.5 355.91C1961.07 347.74 1994.32 337.733 2027.38 324.811" stroke="#FF7500" stroke-width="0.692997" stroke-miterlimit="10"/>
<path d="M-670.063 -9.98022C-671.998 56.7168 -561.66 62.1779 -400.024 211.435C-390.117 220.581 -380.79 230.2 -371.155 239.379C-338.26 270.697 -304.818 300.924 -267.965 322.656C-158.707 387.103 -50.2871 385.916 73.886 370.172C160.585 359.181 255.695 334.169 367.802 302.336C402.169 292.573 436.409 282.012 470.832 271.721C545.44 249.413 625.523 227.44 697.92 233.743C771.195 240.138 823.372 268.075 876.901 291.794C939.446 319.394 1008.26 346.823 1088.21 368.191C1116.13 375.621 1145.54 382.208 1175.95 387.534C1232.39 397.566 1292.67 404.054 1352.67 404.06C1424.57 404.055 1493.33 395.318 1557.44 390.131C1688.33 380.048 1802.38 381.017 1915.02 359.818C1948.64 353.503 1982.05 345.337 2015.38 334.177" stroke="#FF7500" stroke-width="0.692997" stroke-miterlimit="10"/>
<path d="M-674.991 -1.92279C-676.759 59.2163 -563.777 56.1593 -398.488 205.509C-388.585 214.454 -379.254 223.865 -369.652 232.849C-336.792 263.593 -303.686 293.323 -267.565 315.189C-160.264 380.134 -54.6787 384.432 69.5837 371.482C154.836 362.599 249.195 339.538 361.234 308.843C395.308 299.507 429.24 289.326 463.341 279.357C537.236 257.742 616.101 236.178 687.89 240.452C760.558 244.788 813.871 268.801 868.443 289.063C932.216 312.629 1001.76 336.202 1081.61 354.694C1109.49 361.118 1138.75 366.831 1168.96 371.461C1224.96 380.182 1284.58 386.032 1343.89 386.389C1414.97 386.801 1483.11 379.83 1546.72 376.868C1676.65 371.322 1789.73 378.719 1902.56 363.74C1936.24 359.28 1969.8 352.956 2003.4 343.558" stroke="#FF7500" stroke-width="0.692997" stroke-miterlimit="10"/>
<path d="M-679.921 6.14245C-681.53 61.7234 -565.926 50.1926 -396.947 199.591C-387.055 208.342 -377.72 217.537 -368.152 226.327C-335.326 256.497 -302.61 285.795 -267.159 307.723C-161.955 373.373 -59.0637 382.897 65.287 372.785C149.094 365.974 242.693 344.893 354.665 315.336C388.445 306.418 422.076 296.627 455.848 286.979C529.03 266.065 606.669 244.901 677.866 247.147C749.926 249.431 804.375 269.512 859.984 286.318C924.977 305.85 995.259 325.565 1075 341.174C1102.85 346.593 1131.97 351.432 1161.96 355.366C1217.53 362.783 1276.48 367.994 1335.12 368.689C1405.38 369.509 1472.89 364.313 1536 363.582C1664.98 362.567 1777.08 376.4 1890.1 367.633C1923.84 365.028 1957.55 360.553 1991.43 352.903" stroke="#FF7500" stroke-width="0.692997" stroke-miterlimit="10"/>
<path d="M-684.855 14.1992C-686.305 64.222 -568.118 44.2688 -395.417 193.664C-385.528 202.214 -376.19 211.193 -366.656 219.796C-333.863 249.393 -301.484 278.193 -266.765 300.256C-163.525 366.404 -63.4591 381.308 60.9715 374.086C143.333 369.31 236.172 350.232 348.084 321.835C381.57 313.336 414.901 303.933 448.35 294.607C520.821 274.386 597.241 253.631 667.838 253.847C739.291 254.08 794.875 270.23 851.528 283.579C917.748 299.078 988.759 314.936 1068.4 327.669C1096.23 332.089 1125.19 336.055 1154.96 339.284C1210.1 345.398 1268.39 349.972 1326.34 351.002C1395.78 352.231 1462.67 348.81 1525.28 350.31C1653.29 353.833 1764.42 374.094 1877.63 371.548C1911.44 370.797 1945.31 368.164 1979.45 362.276" stroke="#FF7500" stroke-width="0.692997" stroke-miterlimit="10"/>
<path d="M-689.784 22.2636C-691.074 66.7283 -570.336 38.4116 -393.882 187.752C-384.005 196.109 -374.654 204.872 -365.162 213.281C-332.403 242.304 -300.368 270.606 -266.366 292.796C-165.09 359.435 -67.8403 379.668 56.6689 375.403C137.593 372.631 229.664 355.586 341.517 328.342C374.709 320.261 407.739 311.255 440.859 302.242C512.616 282.723 587.811 262.368 657.815 260.556C728.661 258.73 785.373 270.963 843.077 280.848C910.526 292.313 982.265 304.314 1061.8 314.164C1089.59 317.579 1118.41 320.67 1147.96 323.196C1202.68 328.006 1260.3 331.934 1317.57 333.316C1386.18 334.961 1452.45 333.308 1514.56 337.039C1641.61 345.091 1751.77 371.789 1865.17 375.455C1899.03 376.559 1933.06 375.768 1967.47 371.642" stroke="#FF7500" stroke-width="0.692997" stroke-miterlimit="10"/>
<path d="M-694.724 30.3283C-695.854 69.2348 -572.611 32.6057 -392.35 181.834C-382.485 190.004 -373.107 198.522 -363.664 206.758C-330.886 235.149 -299.241 263.011 -265.97 285.329C-166.651 352.459 -72.2246 377.961 52.3621 376.705C131.85 375.908 223.152 360.903 334.937 334.841C367.829 327.172 400.565 318.562 433.356 309.87C504.401 291.044 578.377 271.099 647.781 267.257C718.02 263.379 775.867 271.682 834.615 278.11C903.284 285.548 975.759 293.684 1055.19 300.659C1082.95 303.068 1111.62 305.286 1140.96 307.115C1195.24 310.614 1252.19 313.911 1308.79 315.63C1376.57 317.684 1442.23 317.805 1503.83 323.76C1629.93 336.35 1739.11 369.476 1852.7 379.362C1886.62 382.321 1920.8 383.372 1955.49 381.008" stroke="#FF7500" stroke-width="0.692997" stroke-miterlimit="10"/>
<path d="M-699.653 38.3862C-700.616 71.7348 -574.906 26.8522 -390.815 175.908C-380.961 183.884 -371.579 192.179 -362.17 200.236C-329.434 228.053 -298.125 255.41 -265.579 277.87C-168.224 345.491 -76.5889 376.195 48.0515 378.022C126.119 379.164 216.637 366.236 328.362 341.349C360.959 334.091 393.395 325.877 425.856 317.514C496.188 299.389 568.939 279.837 637.75 273.974C707.382 268.045 766.365 272.416 826.157 275.387C896.053 278.792 969.256 283.071 1048.58 287.169C1076.31 288.58 1104.84 289.917 1133.96 291.05C1187.81 293.245 1244.1 295.896 1300.02 297.968C1366.97 300.429 1432.01 302.326 1493.11 310.512C1618.24 327.632 1726.45 367.194 1840.24 383.292C1874.21 388.106 1908.56 390.999 1943.52 390.39" stroke="#FF7500" stroke-width="0.692997" stroke-miterlimit="10"/>
<path d="M-704.589 46.4511C-705.393 74.2416 -577.24 21.1647 -389.288 169.989C-379.445 177.779 -370.051 185.851 -360.676 193.714C-327.973 220.964 -297.001 247.816 -265.179 270.404C-169.789 338.515 -80.9288 374.363 43.749 379.325C120.411 382.375 210.13 371.538 321.787 347.849C354.091 340.995 386.225 333.184 418.364 325.143C487.984 307.712 559.516 288.567 627.727 280.668C696.752 272.687 756.871 273.127 817.699 272.642C888.816 272.012 962.754 272.434 1041.98 273.65C1069.67 274.055 1098.06 274.518 1126.96 274.954C1180.39 275.846 1236.01 277.859 1291.24 280.267C1357.36 283.145 1421.79 286.809 1482.38 297.226C1606.55 318.884 1713.79 364.881 1827.77 387.193C1861.8 393.861 1896.3 398.596 1931.53 399.749" stroke="#FF7500" stroke-width="0.692997" stroke-miterlimit="10"/>
<path d="M-709.524 54.5076C-710.169 76.74 -579.62 15.5349 -387.752 164.062C-377.928 171.666 -368.514 179.515 -359.181 187.183C-326.52 213.859 -295.884 240.214 -264.786 262.936C-171.36 331.546 -85.2519 372.462 39.4321 380.626C114.705 385.555 203.601 376.832 315.204 354.34C347.208 347.89 379.049 340.483 410.858 332.763C479.765 316.033 550.072 297.289 617.69 287.361C686.108 277.321 747.362 273.845 809.234 269.896C881.579 265.232 956.253 261.797 1035.37 260.137C1063.02 259.536 1091.27 259.126 1119.96 258.865C1172.95 258.453 1227.91 259.828 1282.47 262.581C1347.77 265.867 1411.57 271.305 1471.66 283.946C1594.87 310.135 1701.14 362.568 1815.3 391.099C1849.39 399.623 1884.05 406.199 1919.56 409.114" stroke="#FF7500" stroke-width="0.692997" stroke-miterlimit="10"/>
<path d="M-714.46 62.5721C-714.946 79.2464 -582.023 9.97959 -386.224 158.151C-376.411 165.575 -366.994 173.186 -357.687 180.668C-325.06 206.778 -294.76 232.627 -264.395 255.477C-172.925 324.577 -89.5446 370.504 35.1217 381.943C109.021 388.722 197.079 382.126 308.629 360.855C340.339 354.808 371.871 347.812 403.359 340.406C471.553 324.369 540.641 306.034 607.652 294.077C675.463 281.986 737.852 274.578 800.768 267.172C874.34 258.475 949.743 251.182 1028.75 246.639C1056.37 245.04 1084.47 243.748 1112.95 242.784C1165.51 241.061 1219.81 241.798 1273.68 244.895C1338.16 248.597 1401.33 255.803 1460.93 270.675C1583.19 301.394 1688.48 360.263 1802.84 395.007C1836.98 405.385 1871.8 413.811 1907.57 418.481" stroke="#FF7500" stroke-width="0.692997" stroke-miterlimit="10"/>
<path d="M-719.385 70.6375C-719.704 81.7537 -584.455 4.49135 -384.685 152.233C-374.892 159.478 -365.455 166.858 -356.189 174.146C-323.604 199.681 -293.64 225.025 -263.991 248.018C-174.486 317.61 -93.7946 368.48 30.8227 383.253C103.371 391.852 190.576 387.399 302.058 367.355C333.466 361.704 364.705 355.12 395.864 348.035C463.345 332.699 531.208 314.765 597.626 300.779C664.829 286.636 728.354 275.297 792.314 264.434C867.107 251.703 943.245 240.554 1022.15 233.135C1049.74 230.53 1077.69 228.364 1105.95 226.703C1158.09 223.677 1211.71 223.776 1264.9 227.209C1328.55 231.32 1391.12 240.301 1450.2 257.404C1571.5 292.661 1675.82 357.958 1790.37 398.922C1824.58 411.155 1859.54 421.423 1895.59 427.847" stroke="#FF7500" stroke-width="0.692997" stroke-miterlimit="10"/>
<path d="M-724.314 78.695C-724.473 84.2531 -586.929 -0.931148 -383.142 146.307C-373.36 153.373 -363.918 160.515 -354.679 167.616C-322.136 192.585 -292.501 217.424 -263.584 240.544C-176.043 310.626 -97.9941 366.374 26.5277 384.555C97.7559 394.953 184.05 392.523 295.497 373.855C326.606 368.563 357.551 362.427 388.379 355.664C455.148 341.021 521.793 323.496 587.611 307.48C654.207 291.279 718.86 276.015 783.871 261.696C859.891 244.931 936.758 229.925 1015.56 219.623C1043.11 216.013 1070.92 212.973 1098.97 210.616C1150.67 206.285 1203.63 205.746 1256.15 209.524C1318.97 214.043 1380.91 224.791 1439.49 244.125C1559.83 283.912 1663.18 355.646 1777.92 402.822C1812.18 416.91 1847.31 429.02 1883.62 437.206" stroke="#FF7500" stroke-width="0.692997" stroke-miterlimit="10"/>
<path d="M-729.25 86.7594C-729.25 86.7594 -589.443 -6.28021 -381.615 140.387C-173.786 287.055 -104.257 442.331 288.914 380.354C560.606 337.522 818.304 224.62 1091.95 194.534C1204.54 182.156 1322.12 191.263 1428.76 230.854C1548.14 275.178 1650.51 353.34 1765.44 406.737C1799.77 422.68 1835.04 436.631 1871.64 446.58" stroke="#FF7500" stroke-width="0.692997" stroke-miterlimit="10"/>
</g>
</svg>
