<svg width="329" height="102" viewBox="0 0 329 102" fill="none" xmlns="http://www.w3.org/2000/svg">
<rect x="0.550781" y="0.35498" width="328.111" height="101.269" rx="10" fill="#16191C"/>
<circle cx="60.1055" cy="50.9895" r="30" fill="white"/>
<g clip-path="url(#clip0_1739_15962)">
<path d="M60.6055 34.9895C57.2432 34.9895 53.9564 35.9865 51.1608 37.8545C48.3651 39.7225 46.1862 42.3775 44.8995 45.4839C43.6128 48.5902 43.2762 52.0084 43.9321 55.306C44.5881 58.6037 46.2072 61.6328 48.5847 64.0103C50.9622 66.3878 53.9913 68.0069 57.2889 68.6628C60.5866 69.3188 64.0048 68.9821 67.1111 67.6955C70.2174 66.4088 72.8725 64.2298 74.7405 61.4342C76.6084 58.6386 77.6055 55.3518 77.6055 51.9895C77.6055 47.4808 75.8144 43.1568 72.6263 39.9687C69.4382 36.7806 65.1142 34.9895 60.6055 34.9895ZM60.6055 42.0728C61.5861 42.0728 62.5448 42.3636 63.3602 42.9085C64.1756 43.4533 64.8111 44.2277 65.1864 45.1337C65.5617 46.0397 65.6599 47.0367 65.4685 47.9985C65.2772 48.9603 64.805 49.8438 64.1115 50.5372C63.4181 51.2307 62.5346 51.7029 61.5728 51.8942C60.611 52.0855 59.614 51.9874 58.708 51.6121C57.802 51.2368 57.0276 50.6013 56.4828 49.7859C55.9379 48.9705 55.6471 48.0118 55.6471 47.0312C55.6471 45.7161 56.1695 44.455 57.0994 43.5251C58.0293 42.5952 59.2904 42.0728 60.6055 42.0728ZM70.5221 59.8662C70.524 60.1334 70.473 60.3983 70.372 60.6458C70.271 60.8932 70.1221 61.1182 69.9338 61.3078C69.7455 61.4974 69.5216 61.6479 69.2748 61.7506C69.0281 61.8533 68.7635 61.9062 68.4963 61.9062H52.7146C52.4474 61.9062 52.1828 61.8533 51.9361 61.7506C51.6894 61.6479 51.4654 61.4974 51.2771 61.3078C51.0888 61.1182 50.9399 60.8932 50.8389 60.6458C50.738 60.3983 50.6869 60.1334 50.6888 59.8662V59.2145C50.6885 58.4326 50.9039 57.6658 51.3114 56.9984C51.7188 56.3311 52.3024 55.7891 52.998 55.432C55.3404 54.1708 57.9461 53.4769 60.6055 53.4062C63.2649 53.4769 65.8706 54.1708 68.213 55.432C68.9086 55.7891 69.4922 56.3311 69.8996 56.9984C70.307 57.6658 70.5224 58.4326 70.5221 59.2145V59.8662Z" fill="#FF7500"/>
</g>
<path d="M116.185 58.1695C115.159 58.1695 114.265 57.9828 113.505 57.6095C112.759 57.2228 112.172 56.6895 111.745 56.0095C111.332 55.3162 111.112 54.5162 111.085 53.6095H113.605C113.619 54.0762 113.732 54.4895 113.945 54.8495C114.159 55.2095 114.459 55.4895 114.845 55.6895C115.232 55.8895 115.685 55.9895 116.205 55.9895C117.059 55.9895 117.719 55.7362 118.185 55.2295C118.665 54.7095 118.905 54.0428 118.905 53.2295C118.905 52.6562 118.792 52.1628 118.565 51.7495C118.352 51.3228 118.045 50.9962 117.645 50.7695C117.245 50.5295 116.765 50.4095 116.205 50.4095C115.579 50.4095 115.059 50.5562 114.645 50.8495C114.232 51.1295 113.932 51.4895 113.745 51.9295H111.385L111.745 43.5695H120.645V45.7495H113.945L113.785 49.3895L113.885 49.4295C114.179 49.0962 114.579 48.8295 115.085 48.6295C115.605 48.4295 116.159 48.3295 116.745 48.3295C117.465 48.3295 118.112 48.4495 118.685 48.6895C119.272 48.9162 119.772 49.2495 120.185 49.6895C120.599 50.1162 120.912 50.6228 121.125 51.2095C121.339 51.7962 121.445 52.4495 121.445 53.1695C121.445 54.1562 121.232 55.0295 120.805 55.7895C120.379 56.5362 119.772 57.1228 118.985 57.5495C118.199 57.9628 117.265 58.1695 116.185 58.1695ZM128.45 58.1495C127.623 58.1495 126.876 57.9828 126.21 57.6495C125.556 57.3028 124.996 56.8095 124.53 56.1695C124.063 55.5295 123.71 54.7562 123.47 53.8495C123.23 52.9428 123.11 51.9095 123.11 50.7495C123.11 49.5495 123.236 48.4962 123.49 47.5895C123.743 46.6828 124.103 45.9162 124.57 45.2895C125.05 44.6628 125.623 44.1895 126.29 43.8695C126.956 43.5495 127.69 43.3895 128.49 43.3895C129.316 43.3895 130.056 43.5562 130.71 43.8895C131.363 44.2228 131.923 44.7095 132.39 45.3495C132.856 45.9895 133.21 46.7628 133.45 47.6695C133.69 48.5762 133.81 49.6095 133.81 50.7695C133.81 51.9562 133.676 53.0095 133.41 53.9295C133.156 54.8495 132.79 55.6228 132.31 56.2495C131.843 56.8762 131.283 57.3495 130.63 57.6695C129.99 57.9895 129.263 58.1495 128.45 58.1495ZM128.47 56.0295C128.896 56.0295 129.283 55.9362 129.63 55.7495C129.976 55.5628 130.276 55.2628 130.53 54.8495C130.783 54.4362 130.976 53.8962 131.11 53.2295C131.243 52.5495 131.31 51.7228 131.31 50.7495C131.31 49.7895 131.243 48.9762 131.11 48.3095C130.976 47.6295 130.783 47.0895 130.53 46.6895C130.276 46.2762 129.976 45.9762 129.63 45.7895C129.283 45.6028 128.896 45.5095 128.47 45.5095C128.03 45.5095 127.636 45.6028 127.29 45.7895C126.943 45.9762 126.643 46.2762 126.39 46.6895C126.136 47.0895 125.943 47.6228 125.81 48.2895C125.676 48.9562 125.61 49.7762 125.61 50.7495C125.61 51.7228 125.676 52.5495 125.81 53.2295C125.943 53.8962 126.136 54.4362 126.39 54.8495C126.643 55.2628 126.943 55.5628 127.29 55.7495C127.636 55.9362 128.03 56.0295 128.47 56.0295ZM140.481 58.1495C139.654 58.1495 138.908 57.9828 138.241 57.6495C137.588 57.3028 137.028 56.8095 136.561 56.1695C136.094 55.5295 135.741 54.7562 135.501 53.8495C135.261 52.9428 135.141 51.9095 135.141 50.7495C135.141 49.5495 135.268 48.4962 135.521 47.5895C135.774 46.6828 136.134 45.9162 136.601 45.2895C137.081 44.6628 137.654 44.1895 138.321 43.8695C138.988 43.5495 139.721 43.3895 140.521 43.3895C141.348 43.3895 142.088 43.5562 142.741 43.8895C143.394 44.2228 143.954 44.7095 144.421 45.3495C144.888 45.9895 145.241 46.7628 145.481 47.6695C145.721 48.5762 145.841 49.6095 145.841 50.7695C145.841 51.9562 145.708 53.0095 145.441 53.9295C145.188 54.8495 144.821 55.6228 144.341 56.2495C143.874 56.8762 143.314 57.3495 142.661 57.6695C142.021 57.9895 141.294 58.1495 140.481 58.1495ZM140.501 56.0295C140.928 56.0295 141.314 55.9362 141.661 55.7495C142.008 55.5628 142.308 55.2628 142.561 54.8495C142.814 54.4362 143.008 53.8962 143.141 53.2295C143.274 52.5495 143.341 51.7228 143.341 50.7495C143.341 49.7895 143.274 48.9762 143.141 48.3095C143.008 47.6295 142.814 47.0895 142.561 46.6895C142.308 46.2762 142.008 45.9762 141.661 45.7895C141.314 45.6028 140.928 45.5095 140.501 45.5095C140.061 45.5095 139.668 45.6028 139.321 45.7895C138.974 45.9762 138.674 46.2762 138.421 46.6895C138.168 47.0895 137.974 47.6228 137.841 48.2895C137.708 48.9562 137.641 49.7762 137.641 50.7495C137.641 51.7228 137.708 52.5495 137.841 53.2295C137.974 53.8962 138.168 54.4362 138.421 54.8495C138.674 55.2628 138.974 55.5628 139.321 55.7495C139.668 55.9362 140.061 56.0295 140.501 56.0295ZM147.832 57.9895V43.4095H150.372V52.0895L151.272 51.0695L154.832 47.3495H157.932L153.812 51.5295L158.032 57.9895H155.092L152.692 54.2895L152.052 53.1895L150.372 54.8495V57.9895H147.832ZM162.651 55.5295V51.7695H158.911V49.7895H162.651V46.0295H164.691V49.7895H168.411V51.7695H164.691V55.5295H162.651ZM175.145 57.9895V43.4095H181.185C182.612 43.4095 183.818 43.7162 184.805 44.3295C185.805 44.9295 186.558 45.7762 187.065 46.8695C187.585 47.9628 187.845 49.2428 187.845 50.7095C187.845 51.7895 187.698 52.7828 187.405 53.6895C187.112 54.5828 186.678 55.3495 186.105 55.9895C185.545 56.6295 184.852 57.1228 184.025 57.4695C183.198 57.8162 182.252 57.9895 181.185 57.9895H175.145ZM177.785 55.7095H180.785C181.425 55.7095 182.012 55.6162 182.545 55.4295C183.078 55.2428 183.538 54.9495 183.925 54.5495C184.312 54.1362 184.612 53.6095 184.825 52.9695C185.038 52.3295 185.145 51.5562 185.145 50.6495C185.145 49.4628 184.958 48.5095 184.585 47.7895C184.212 47.0562 183.698 46.5228 183.045 46.1895C182.405 45.8428 181.652 45.6695 180.785 45.6695H177.785V55.7095ZM193.659 58.1695C193.019 58.1695 192.433 58.0562 191.899 57.8295C191.379 57.5895 190.926 57.2362 190.539 56.7695C190.166 56.3028 189.879 55.7295 189.679 55.0495C189.479 54.3562 189.379 53.5628 189.379 52.6695C189.379 51.4562 189.553 50.4428 189.899 49.6295C190.259 48.8028 190.759 48.1828 191.399 47.7695C192.053 47.3562 192.806 47.1495 193.659 47.1495C194.246 47.1495 194.766 47.2428 195.219 47.4295C195.686 47.6028 196.086 47.8495 196.419 48.1695C196.753 48.4895 197.006 48.8695 197.179 49.3095H197.319L197.419 47.3495H199.819V57.9895H197.319V56.0095H197.179C196.926 56.6628 196.493 57.1895 195.879 57.5895C195.266 57.9762 194.526 58.1695 193.659 58.1695ZM194.599 56.1295C195.199 56.1295 195.693 55.9895 196.079 55.7095C196.479 55.4295 196.779 55.0695 196.979 54.6295C197.179 54.1762 197.279 53.7028 197.279 53.2095V52.1095C197.279 51.6028 197.179 51.1295 196.979 50.6895C196.779 50.2362 196.479 49.8762 196.079 49.6095C195.693 49.3295 195.199 49.1895 194.599 49.1895C194.066 49.1895 193.599 49.3162 193.199 49.5695C192.799 49.8228 192.486 50.2095 192.259 50.7295C192.033 51.2362 191.919 51.8828 191.919 52.6695C191.919 53.4295 192.033 54.0695 192.259 54.5895C192.486 55.1095 192.799 55.4962 193.199 55.7495C193.599 56.0028 194.066 56.1295 194.599 56.1295ZM202.5 57.9895V47.3495H205V57.9895H202.5ZM202.5 45.8495V43.4095H205V45.8495H202.5ZM207.695 57.9895V43.4095H210.195V57.9895H207.695ZM212.391 61.3295V59.2695H213.571C213.891 59.2695 214.157 59.2295 214.371 59.1495C214.584 59.0695 214.764 58.9428 214.911 58.7695C215.057 58.5962 215.177 58.3762 215.271 58.1095L215.851 56.6095V57.7295L211.511 47.3495H214.251L216.431 53.4295L216.831 54.6295H216.931L217.291 53.4295L219.351 47.3495H222.011L217.711 58.6895C217.471 59.3695 217.171 59.9028 216.811 60.2895C216.464 60.6762 216.057 60.9428 215.591 61.0895C215.137 61.2495 214.617 61.3295 214.031 61.3295H212.391ZM231.636 57.9895L226.436 43.4095H229.376L232.556 52.9895L233.356 55.4895H233.496L234.256 52.9895L237.476 43.4095H240.416L235.216 57.9895H231.636ZM241.836 57.9895V47.3495H244.336V57.9895H241.836ZM241.836 45.8495V43.4095H244.336V45.8495H241.836ZM250.853 58.1895C249.906 58.1895 249.093 58.0428 248.413 57.7495C247.733 57.4428 247.206 57.0228 246.833 56.4895C246.473 55.9562 246.293 55.3362 246.293 54.6295H248.753C248.766 55.2428 248.973 55.6895 249.373 55.9695C249.773 56.2495 250.293 56.3895 250.933 56.3895C251.559 56.3895 252.033 56.2762 252.353 56.0495C252.686 55.8095 252.853 55.4828 252.853 55.0695C252.853 54.7362 252.779 54.4828 252.633 54.3095C252.486 54.1228 252.246 53.9828 251.913 53.8895C251.579 53.7828 251.139 53.6895 250.593 53.6095C249.699 53.4762 248.953 53.2962 248.353 53.0695C247.753 52.8295 247.306 52.5028 247.013 52.0895C246.719 51.6762 246.573 51.1295 246.573 50.4495C246.573 49.7828 246.753 49.2028 247.113 48.7095C247.473 48.2162 247.979 47.8362 248.633 47.5695C249.286 47.2895 250.053 47.1495 250.933 47.1495C251.786 47.1495 252.526 47.2895 253.153 47.5695C253.793 47.8362 254.286 48.2228 254.633 48.7295C254.993 49.2228 255.179 49.8162 255.193 50.5095H252.733C252.733 50.1362 252.653 49.8362 252.493 49.6095C252.346 49.3695 252.133 49.1962 251.853 49.0895C251.573 48.9828 251.246 48.9295 250.873 48.9295C250.313 48.9295 249.873 49.0495 249.553 49.2895C249.233 49.5162 249.073 49.8295 249.073 50.2295C249.073 50.5228 249.153 50.7628 249.313 50.9495C249.486 51.1228 249.759 51.2628 250.133 51.3695C250.506 51.4762 250.986 51.5695 251.573 51.6495C252.213 51.7428 252.766 51.8628 253.233 52.0095C253.713 52.1562 254.113 52.3562 254.433 52.6095C254.753 52.8495 254.993 53.1562 255.153 53.5295C255.326 53.8895 255.413 54.3295 255.413 54.8495C255.413 55.9162 254.993 56.7428 254.153 57.3295C253.326 57.9028 252.226 58.1895 250.853 58.1895ZM257.442 57.9895V47.3495H259.942V57.9895H257.442ZM257.442 45.8495V43.4095H259.942V45.8495H257.442ZM265.937 57.9895C265.284 57.9895 264.77 57.8962 264.397 57.7095C264.037 57.5095 263.784 57.2295 263.637 56.8695C263.49 56.5095 263.417 56.0762 263.417 55.5695V49.3695H261.457V47.3495H263.417V44.3495L265.897 44.0895V47.3495H268.157V49.3695H265.897V55.1095C265.897 55.4428 265.97 55.6695 266.117 55.7895C266.264 55.8962 266.49 55.9495 266.797 55.9495H268.157V57.9895H265.937ZM274.425 58.1695C273.625 58.1695 272.905 58.0495 272.265 57.8095C271.625 57.5562 271.065 57.1895 270.585 56.7095C270.118 56.2295 269.758 55.6495 269.505 54.9695C269.265 54.2895 269.145 53.5228 269.145 52.6695C269.145 51.5762 269.352 50.6162 269.765 49.7895C270.192 48.9628 270.798 48.3162 271.585 47.8495C272.372 47.3828 273.318 47.1495 274.425 47.1495C275.212 47.1495 275.925 47.2762 276.565 47.5295C277.205 47.7828 277.752 48.1495 278.205 48.6295C278.672 49.1095 279.032 49.6895 279.285 50.3695C279.538 51.0362 279.665 51.8028 279.665 52.6695C279.665 53.7495 279.452 54.7028 279.025 55.5295C278.612 56.3562 278.012 57.0028 277.225 57.4695C276.452 57.9362 275.518 58.1695 274.425 58.1695ZM274.405 56.1095C274.952 56.1095 275.432 55.9828 275.845 55.7295C276.258 55.4628 276.578 55.0762 276.805 54.5695C277.032 54.0495 277.145 53.4162 277.145 52.6695C277.145 52.1095 277.078 51.6162 276.945 51.1895C276.825 50.7495 276.645 50.3828 276.405 50.0895C276.165 49.7962 275.878 49.5762 275.545 49.4295C275.212 49.2828 274.838 49.2095 274.425 49.2095C273.878 49.2095 273.392 49.3428 272.965 49.6095C272.552 49.8628 272.232 50.2495 272.005 50.7695C271.778 51.2762 271.665 51.9095 271.665 52.6695C271.665 53.2295 271.725 53.7295 271.845 54.1695C271.978 54.5962 272.165 54.9562 272.405 55.2495C272.645 55.5295 272.932 55.7428 273.265 55.8895C273.612 56.0362 273.992 56.1095 274.405 56.1095ZM281.68 57.9895V47.3495H283.94L284.06 49.1295H284.14C284.38 48.4495 284.767 47.9628 285.3 47.6695C285.847 47.3628 286.467 47.2095 287.16 47.2095C287.28 47.2095 287.387 47.2095 287.48 47.2095C287.587 47.2095 287.687 47.2095 287.78 47.2095V49.5695C287.7 49.5695 287.6 49.5695 287.48 49.5695C287.373 49.5562 287.253 49.5495 287.12 49.5495C286.48 49.5495 285.947 49.6562 285.52 49.8695C285.093 50.0695 284.767 50.3628 284.54 50.7495C284.327 51.1362 284.207 51.6095 284.18 52.1695V57.9895H281.68ZM293.138 58.1895C292.191 58.1895 291.378 58.0428 290.698 57.7495C290.018 57.4428 289.491 57.0228 289.118 56.4895C288.758 55.9562 288.578 55.3362 288.578 54.6295H291.038C291.051 55.2428 291.258 55.6895 291.658 55.9695C292.058 56.2495 292.578 56.3895 293.218 56.3895C293.845 56.3895 294.318 56.2762 294.638 56.0495C294.971 55.8095 295.138 55.4828 295.138 55.0695C295.138 54.7362 295.065 54.4828 294.918 54.3095C294.771 54.1228 294.531 53.9828 294.198 53.8895C293.865 53.7828 293.425 53.6895 292.878 53.6095C291.985 53.4762 291.238 53.2962 290.638 53.0695C290.038 52.8295 289.591 52.5028 289.298 52.0895C289.005 51.6762 288.858 51.1295 288.858 50.4495C288.858 49.7828 289.038 49.2028 289.398 48.7095C289.758 48.2162 290.265 47.8362 290.918 47.5695C291.571 47.2895 292.338 47.1495 293.218 47.1495C294.071 47.1495 294.811 47.2895 295.438 47.5695C296.078 47.8362 296.571 48.2228 296.918 48.7295C297.278 49.2228 297.465 49.8162 297.478 50.5095H295.018C295.018 50.1362 294.938 49.8362 294.778 49.6095C294.631 49.3695 294.418 49.1962 294.138 49.0895C293.858 48.9828 293.531 48.9295 293.158 48.9295C292.598 48.9295 292.158 49.0495 291.838 49.2895C291.518 49.5162 291.358 49.8295 291.358 50.2295C291.358 50.5228 291.438 50.7628 291.598 50.9495C291.771 51.1228 292.045 51.2628 292.418 51.3695C292.791 51.4762 293.271 51.5695 293.858 51.6495C294.498 51.7428 295.051 51.8628 295.518 52.0095C295.998 52.1562 296.398 52.3562 296.718 52.6095C297.038 52.8495 297.278 53.1562 297.438 53.5295C297.611 53.8895 297.698 54.3295 297.698 54.8495C297.698 55.9162 297.278 56.7428 296.438 57.3295C295.611 57.9028 294.511 58.1895 293.138 58.1895Z" fill="white"/>
<defs>
<clipPath id="clip0_1739_15962">
<rect width="34" height="34" fill="white" transform="translate(43.6055 34.9895)"/>
</clipPath>
</defs>
</svg>
