<svg width="272" height="102" viewBox="0 0 272 102" fill="none" xmlns="http://www.w3.org/2000/svg">
<rect y="0.0175781" width="271.401" height="101.269" rx="10" fill="#16191C"/>
<circle cx="45.1992" cy="50.6521" r="30" fill="white"/>
<path d="M45.1092 50.6521C53.1892 50.6521 59.7692 48.9121 60.1992 46.7121V40.9621C59.7692 43.1621 53.1992 44.9021 45.1092 44.9021C41.1679 44.9783 37.2375 44.4625 33.4492 43.3721V41.3721C37.2385 42.4558 41.1689 42.9648 45.1092 42.8821C53.1992 42.9021 59.7192 41.1621 60.1992 38.9821C59.9992 35.5721 50.7192 34.6521 45.1992 34.6521C39.6792 34.6521 30.1992 35.5821 30.1992 39.0821V61.6621C30.1992 65.1521 39.6292 66.0921 45.1992 66.0921C50.7692 66.0921 60.1992 65.1621 60.1992 61.6621V56.4621C59.7692 58.6521 53.1992 60.3721 45.1092 60.3721C41.1704 60.4645 37.24 59.9656 33.4492 58.8921V56.8921C37.24 57.9656 41.1704 58.4645 45.1092 58.3721C53.1992 58.3721 59.7692 56.6521 60.1992 54.4621V48.7121C59.7692 50.9121 53.1992 52.6521 45.1092 52.6521C41.1689 52.7348 37.2385 52.2258 33.4492 51.1421V49.1421C37.2385 50.2258 41.1689 50.7348 45.1092 50.6521Z" fill="#FF7500"/>
<path d="M96.0392 57.6521V57.2721C96.0392 56.4321 96.1659 55.6988 96.4192 55.0721C96.6859 54.4321 97.0326 53.8654 97.4592 53.3721C97.8859 52.8788 98.3526 52.4321 98.8592 52.0321C99.3792 51.6321 99.8926 51.2588 100.399 50.9121C100.919 50.5654 101.393 50.2188 101.819 49.8721C102.246 49.5121 102.586 49.1388 102.839 48.7521C103.106 48.3521 103.239 47.9121 103.239 47.4321C103.239 46.9654 103.139 46.5654 102.939 46.2321C102.753 45.8988 102.486 45.6454 102.139 45.4721C101.793 45.2988 101.379 45.2121 100.899 45.2121C100.419 45.2121 99.9926 45.3121 99.6192 45.5121C99.2459 45.7121 98.9592 46.0121 98.7592 46.4121C98.5726 46.7988 98.4992 47.2654 98.5392 47.8121H96.0792C96.0526 46.8521 96.2392 46.0188 96.6392 45.3121C97.0526 44.5921 97.6392 44.0388 98.3992 43.6521C99.1592 43.2521 100.046 43.0521 101.059 43.0521C102.019 43.0521 102.853 43.2254 103.559 43.5721C104.279 43.9188 104.833 44.4121 105.219 45.0521C105.619 45.6788 105.819 46.4254 105.819 47.2921C105.819 47.9188 105.713 48.4788 105.499 48.9721C105.299 49.4654 105.026 49.9188 104.679 50.3321C104.333 50.7321 103.939 51.1054 103.499 51.4521C103.073 51.7988 102.633 52.1321 102.179 52.4521C101.739 52.7588 101.313 53.0721 100.899 53.3921C100.499 53.6988 100.146 54.0188 99.8392 54.3521C99.5326 54.6854 99.3126 55.0521 99.1792 55.4521H105.979V57.6521H96.0392ZM112.899 57.8121C112.072 57.8121 111.326 57.6454 110.659 57.3121C110.006 56.9654 109.446 56.4721 108.979 55.8321C108.512 55.1921 108.159 54.4188 107.919 53.5121C107.679 52.6054 107.559 51.5721 107.559 50.4121C107.559 49.2121 107.686 48.1588 107.939 47.2521C108.192 46.3454 108.552 45.5788 109.019 44.9521C109.499 44.3254 110.072 43.8521 110.739 43.5321C111.406 43.2121 112.139 43.0521 112.939 43.0521C113.766 43.0521 114.506 43.2188 115.159 43.5521C115.812 43.8854 116.372 44.3721 116.839 45.0121C117.306 45.6521 117.659 46.4254 117.899 47.3321C118.139 48.2388 118.259 49.2721 118.259 50.4321C118.259 51.6188 118.126 52.6721 117.859 53.5921C117.606 54.5121 117.239 55.2854 116.759 55.9121C116.292 56.5388 115.732 57.0121 115.079 57.3321C114.439 57.6521 113.712 57.8121 112.899 57.8121ZM112.919 55.6921C113.346 55.6921 113.732 55.5988 114.079 55.4121C114.426 55.2254 114.726 54.9254 114.979 54.5121C115.232 54.0988 115.426 53.5588 115.559 52.8921C115.692 52.2121 115.759 51.3854 115.759 50.4121C115.759 49.4521 115.692 48.6388 115.559 47.9721C115.426 47.2921 115.232 46.7521 114.979 46.3521C114.726 45.9388 114.426 45.6388 114.079 45.4521C113.732 45.2654 113.346 45.1721 112.919 45.1721C112.479 45.1721 112.086 45.2654 111.739 45.4521C111.392 45.6388 111.092 45.9388 110.839 46.3521C110.586 46.7521 110.392 47.2854 110.259 47.9521C110.126 48.6188 110.059 49.4388 110.059 50.4121C110.059 51.3854 110.126 52.2121 110.259 52.8921C110.392 53.5588 110.586 54.0988 110.839 54.5121C111.092 54.9254 111.392 55.2254 111.739 55.4121C112.086 55.5988 112.479 55.6921 112.919 55.6921ZM124.93 57.8121C124.103 57.8121 123.357 57.6454 122.69 57.3121C122.037 56.9654 121.477 56.4721 121.01 55.8321C120.543 55.1921 120.19 54.4188 119.95 53.5121C119.71 52.6054 119.59 51.5721 119.59 50.4121C119.59 49.2121 119.717 48.1588 119.97 47.2521C120.223 46.3454 120.583 45.5788 121.05 44.9521C121.53 44.3254 122.103 43.8521 122.77 43.5321C123.437 43.2121 124.17 43.0521 124.97 43.0521C125.797 43.0521 126.537 43.2188 127.19 43.5521C127.843 43.8854 128.403 44.3721 128.87 45.0121C129.337 45.6521 129.69 46.4254 129.93 47.3321C130.17 48.2388 130.29 49.2721 130.29 50.4321C130.29 51.6188 130.157 52.6721 129.89 53.5921C129.637 54.5121 129.27 55.2854 128.79 55.9121C128.323 56.5388 127.763 57.0121 127.11 57.3321C126.47 57.6521 125.743 57.8121 124.93 57.8121ZM124.95 55.6921C125.377 55.6921 125.763 55.5988 126.11 55.4121C126.457 55.2254 126.757 54.9254 127.01 54.5121C127.263 54.0988 127.457 53.5588 127.59 52.8921C127.723 52.2121 127.79 51.3854 127.79 50.4121C127.79 49.4521 127.723 48.6388 127.59 47.9721C127.457 47.2921 127.263 46.7521 127.01 46.3521C126.757 45.9388 126.457 45.6388 126.11 45.4521C125.763 45.2654 125.377 45.1721 124.95 45.1721C124.51 45.1721 124.117 45.2654 123.77 45.4521C123.423 45.6388 123.123 45.9388 122.87 46.3521C122.617 46.7521 122.423 47.2854 122.29 47.9521C122.157 48.6188 122.09 49.4388 122.09 50.4121C122.09 51.3854 122.157 52.2121 122.29 52.8921C122.423 53.5588 122.617 54.0988 122.87 54.5121C123.123 54.9254 123.423 55.2254 123.77 55.4121C124.117 55.5988 124.51 55.6921 124.95 55.6921ZM143.217 57.8321C142.097 57.8321 141.09 57.6588 140.197 57.3121C139.317 56.9521 138.564 56.4454 137.937 55.7921C137.324 55.1254 136.85 54.3321 136.517 53.4121C136.197 52.4921 136.037 51.4721 136.037 50.3521C136.037 49.1788 136.21 48.1388 136.557 47.2321C136.917 46.3121 137.417 45.5321 138.057 44.8921C138.697 44.2388 139.464 43.7454 140.357 43.4121C141.25 43.0654 142.244 42.8921 143.337 42.8921C144.604 42.8921 145.717 43.1054 146.677 43.5321C147.637 43.9454 148.404 44.5321 148.977 45.2921C149.564 46.0388 149.917 46.9188 150.037 47.9321H147.317C147.197 47.3454 146.95 46.8521 146.577 46.4521C146.217 46.0388 145.757 45.7254 145.197 45.5121C144.65 45.2854 144.03 45.1721 143.337 45.1721C142.417 45.1721 141.61 45.3721 140.917 45.7721C140.224 46.1588 139.69 46.7388 139.317 47.5121C138.944 48.2854 138.757 49.2321 138.757 50.3521C138.757 51.1921 138.857 51.9454 139.057 52.6121C139.27 53.2654 139.577 53.8121 139.977 54.2521C140.377 54.6921 140.85 55.0321 141.397 55.2721C141.957 55.4988 142.577 55.6121 143.257 55.6121C144.15 55.6121 144.924 55.4521 145.577 55.1321C146.23 54.7988 146.737 54.3254 147.097 53.7121C147.457 53.0854 147.637 52.3454 147.637 51.4921V50.9721L148.417 51.8921H143.297V49.9721H150.317V51.1921C150.317 52.2054 150.144 53.1254 149.797 53.9521C149.464 54.7654 148.984 55.4588 148.357 56.0321C147.744 56.6054 146.997 57.0521 146.117 57.3721C145.25 57.6788 144.284 57.8321 143.217 57.8321ZM152.758 57.6521V43.0721H159.698C160.685 43.0721 161.498 43.2321 162.138 43.5521C162.791 43.8588 163.285 44.2921 163.618 44.8521C163.951 45.4121 164.118 46.0654 164.118 46.8121C164.118 47.3188 164.031 47.7921 163.858 48.2321C163.685 48.6721 163.431 49.0454 163.098 49.3521C162.765 49.6588 162.351 49.8788 161.858 50.0121V50.1521C162.445 50.2588 162.931 50.4788 163.318 50.8121C163.705 51.1321 163.998 51.5254 164.198 51.9921C164.411 52.4454 164.518 52.9521 164.518 53.5121C164.518 54.4054 164.311 55.1654 163.898 55.7921C163.498 56.4054 162.918 56.8721 162.158 57.1921C161.398 57.4988 160.478 57.6521 159.398 57.6521H152.758ZM155.318 55.5921H159.118C160.051 55.5921 160.731 55.3854 161.158 54.9721C161.598 54.5588 161.818 54.0188 161.818 53.3521C161.818 52.6321 161.591 52.0921 161.138 51.7321C160.698 51.3721 160.085 51.1921 159.298 51.1921H155.318V55.5921ZM155.318 49.2121H159.178C159.698 49.2121 160.125 49.1254 160.458 48.9521C160.791 48.7788 161.038 48.5454 161.198 48.2521C161.371 47.9454 161.458 47.5854 161.458 47.1721C161.458 46.5054 161.238 45.9988 160.798 45.6521C160.358 45.2921 159.765 45.1121 159.018 45.1121H155.318V49.2121ZM169.932 55.1921V51.4321H166.192V49.4521H169.932V45.6921H171.972V49.4521H175.692V51.4321H171.972V55.1921H169.932ZM187.406 57.8321C186.113 57.8321 185.026 57.6321 184.146 57.2321C183.279 56.8321 182.626 56.2721 182.186 55.5521C181.746 54.8321 181.519 54.0121 181.506 53.0921H184.206C184.219 53.6388 184.339 54.1121 184.566 54.5121C184.806 54.9121 185.166 55.2254 185.646 55.4521C186.126 55.6788 186.746 55.7921 187.506 55.7921C188.413 55.7921 189.139 55.6254 189.686 55.2921C190.233 54.9454 190.506 54.4388 190.506 53.7721C190.506 53.3854 190.446 53.0654 190.326 52.8121C190.206 52.5454 190.006 52.3254 189.726 52.1521C189.446 51.9788 189.073 51.8321 188.606 51.7121C188.153 51.5921 187.579 51.4721 186.886 51.3521C186.059 51.2188 185.326 51.0454 184.686 50.8321C184.059 50.6054 183.533 50.3321 183.106 50.0121C182.679 49.6921 182.359 49.3054 182.146 48.8521C181.933 48.3854 181.826 47.8321 181.826 47.1921C181.826 46.3121 182.046 45.5521 182.486 44.9121C182.939 44.2721 183.579 43.7788 184.406 43.4321C185.233 43.0721 186.219 42.8921 187.366 42.8921C188.499 42.8921 189.466 43.0721 190.266 43.4321C191.079 43.7921 191.706 44.2988 192.146 44.9521C192.586 45.5921 192.806 46.3388 192.806 47.1921H190.146C190.119 46.6721 189.979 46.2454 189.726 45.9121C189.473 45.5654 189.133 45.3121 188.706 45.1521C188.293 44.9921 187.813 44.9121 187.266 44.9121C186.706 44.9121 186.219 44.9921 185.806 45.1521C185.406 45.3121 185.099 45.5388 184.886 45.8321C184.673 46.1121 184.566 46.4521 184.566 46.8521C184.566 47.3454 184.686 47.7254 184.926 47.9921C185.179 48.2454 185.579 48.4454 186.126 48.5921C186.686 48.7388 187.406 48.8854 188.286 49.0321C188.913 49.1388 189.519 49.2721 190.106 49.4321C190.706 49.5921 191.239 49.8321 191.706 50.1521C192.186 50.4588 192.566 50.8854 192.846 51.4321C193.126 51.9654 193.266 52.6588 193.266 53.5121C193.266 54.3654 193.046 55.1188 192.606 55.7721C192.166 56.4254 191.513 56.9321 190.646 57.2921C189.779 57.6521 188.699 57.8321 187.406 57.8321ZM198.726 57.6521C198.073 57.6521 197.559 57.5588 197.186 57.3721C196.826 57.1721 196.573 56.8921 196.426 56.5321C196.279 56.1721 196.206 55.7388 196.206 55.2321V49.0321H194.246V47.0121H196.206V44.0121L198.686 43.7521V47.0121H200.946V49.0321H198.686V54.7721C198.686 55.1054 198.759 55.3321 198.906 55.4521C199.053 55.5588 199.279 55.6121 199.586 55.6121H200.946V57.6521H198.726ZM207.214 57.8321C206.414 57.8321 205.694 57.7121 205.054 57.4721C204.414 57.2188 203.854 56.8521 203.374 56.3721C202.907 55.8921 202.547 55.3121 202.294 54.6321C202.054 53.9521 201.934 53.1854 201.934 52.3321C201.934 51.2388 202.141 50.2788 202.554 49.4521C202.981 48.6254 203.587 47.9788 204.374 47.5121C205.161 47.0454 206.107 46.8121 207.214 46.8121C208.001 46.8121 208.714 46.9388 209.354 47.1921C209.994 47.4454 210.541 47.8121 210.994 48.2921C211.461 48.7721 211.821 49.3521 212.074 50.0321C212.327 50.6988 212.454 51.4654 212.454 52.3321C212.454 53.4121 212.241 54.3654 211.814 55.1921C211.401 56.0188 210.801 56.6654 210.014 57.1321C209.241 57.5988 208.307 57.8321 207.214 57.8321ZM207.194 55.7721C207.741 55.7721 208.221 55.6454 208.634 55.3921C209.047 55.1254 209.367 54.7388 209.594 54.2321C209.821 53.7121 209.934 53.0788 209.934 52.3321C209.934 51.7721 209.867 51.2788 209.734 50.8521C209.614 50.4121 209.434 50.0454 209.194 49.7521C208.954 49.4588 208.667 49.2388 208.334 49.0921C208.001 48.9454 207.627 48.8721 207.214 48.8721C206.667 48.8721 206.181 49.0054 205.754 49.2721C205.341 49.5254 205.021 49.9121 204.794 50.4321C204.567 50.9388 204.454 51.5721 204.454 52.3321C204.454 52.8921 204.514 53.3921 204.634 53.8321C204.767 54.2588 204.954 54.6188 205.194 54.9121C205.434 55.1921 205.721 55.4054 206.054 55.5521C206.401 55.6988 206.781 55.7721 207.194 55.7721ZM214.469 57.6521V47.0121H216.729L216.849 48.7921H216.929C217.169 48.1121 217.556 47.6254 218.089 47.3321C218.636 47.0254 219.256 46.8721 219.949 46.8721C220.069 46.8721 220.176 46.8721 220.269 46.8721C220.376 46.8721 220.476 46.8721 220.569 46.8721V49.2321C220.489 49.2321 220.389 49.2321 220.269 49.2321C220.162 49.2188 220.042 49.2121 219.909 49.2121C219.269 49.2121 218.736 49.3188 218.309 49.5321C217.882 49.7321 217.556 50.0254 217.329 50.4121C217.116 50.7988 216.996 51.2721 216.969 51.8321V57.6521H214.469ZM225.55 57.8321C224.91 57.8321 224.323 57.7188 223.79 57.4921C223.27 57.2521 222.817 56.8988 222.43 56.4321C222.057 55.9654 221.77 55.3921 221.57 54.7121C221.37 54.0188 221.27 53.2254 221.27 52.3321C221.27 51.1188 221.443 50.1054 221.79 49.2921C222.15 48.4654 222.65 47.8454 223.29 47.4321C223.943 47.0188 224.697 46.8121 225.55 46.8121C226.137 46.8121 226.657 46.9054 227.11 47.0921C227.577 47.2654 227.977 47.5121 228.31 47.8321C228.643 48.1521 228.897 48.5321 229.07 48.9721H229.21L229.31 47.0121H231.71V57.6521H229.21V55.6721H229.07C228.817 56.3254 228.383 56.8521 227.77 57.2521C227.157 57.6388 226.417 57.8321 225.55 57.8321ZM226.49 55.7921C227.09 55.7921 227.583 55.6521 227.97 55.3721C228.37 55.0921 228.67 54.7321 228.87 54.2921C229.07 53.8388 229.17 53.3654 229.17 52.8721V51.7721C229.17 51.2654 229.07 50.7921 228.87 50.3521C228.67 49.8988 228.37 49.5388 227.97 49.2721C227.583 48.9921 227.09 48.8521 226.49 48.8521C225.957 48.8521 225.49 48.9788 225.09 49.2321C224.69 49.4854 224.377 49.8721 224.15 50.3921C223.923 50.8988 223.81 51.5454 223.81 52.3321C223.81 53.0921 223.923 53.7321 224.15 54.2521C224.377 54.7721 224.69 55.1588 225.09 55.4121C225.49 55.6654 225.957 55.7921 226.49 55.7921ZM238.614 61.1921C237.72 61.1921 236.947 61.0588 236.294 60.7921C235.64 60.5388 235.12 60.1721 234.734 59.6921C234.36 59.2254 234.147 58.6788 234.094 58.0521H236.494C236.547 58.3188 236.667 58.5521 236.854 58.7521C237.054 58.9521 237.307 59.1054 237.614 59.2121C237.92 59.3321 238.274 59.3921 238.674 59.3921C239.274 59.3921 239.767 59.3054 240.154 59.1321C240.554 58.9588 240.847 58.6921 241.034 58.3321C241.234 57.9721 241.334 57.5054 241.334 56.9321V54.9721H241.194C240.967 55.5854 240.554 56.0854 239.954 56.4721C239.354 56.8454 238.647 57.0321 237.834 57.0321C237.194 57.0321 236.614 56.9188 236.094 56.6921C235.587 56.4654 235.147 56.1388 234.774 55.7121C234.4 55.2721 234.114 54.7388 233.914 54.1121C233.714 53.4721 233.614 52.7388 233.614 51.9121C233.614 50.8054 233.787 49.8788 234.134 49.1321C234.494 48.3721 234.994 47.7988 235.634 47.4121C236.274 47.0121 237.02 46.8121 237.874 46.8121C238.674 46.8121 239.367 46.9988 239.954 47.3721C240.554 47.7454 240.967 48.2321 241.194 48.8321H241.334L241.414 47.0121H243.834V56.5321C243.834 57.3854 243.707 58.1054 243.454 58.6921C243.214 59.2921 242.86 59.7721 242.394 60.1321C241.927 60.5054 241.374 60.7721 240.734 60.9321C240.107 61.1054 239.4 61.1921 238.614 61.1921ZM238.734 55.0921C239.294 55.0921 239.76 54.9721 240.134 54.7321C240.52 54.4788 240.814 54.1588 241.014 53.7721C241.214 53.3721 241.32 52.9654 241.334 52.5521V51.2721C241.32 50.8454 241.214 50.4454 241.014 50.0721C240.814 49.6854 240.527 49.3721 240.154 49.1321C239.78 48.8788 239.314 48.7521 238.754 48.7521C238.234 48.7521 237.774 48.8721 237.374 49.1121C236.987 49.3521 236.687 49.7054 236.474 50.1721C236.26 50.6388 236.154 51.2188 236.154 51.9121C236.154 52.6188 236.26 53.2121 236.474 53.6921C236.7 54.1588 237.007 54.5121 237.394 54.7521C237.78 54.9788 238.227 55.0921 238.734 55.0921ZM250.725 57.8321C249.645 57.8321 248.725 57.6121 247.965 57.1721C247.218 56.7188 246.645 56.0854 246.245 55.2721C245.845 54.4454 245.645 53.4854 245.645 52.3921C245.645 51.2588 245.845 50.2788 246.245 49.4521C246.645 48.6121 247.218 47.9654 247.965 47.5121C248.712 47.0588 249.598 46.8321 250.625 46.8321C251.798 46.8321 252.758 47.0921 253.505 47.6121C254.265 48.1188 254.812 48.8254 255.145 49.7321C255.478 50.6388 255.592 51.6788 255.485 52.8521H248.085C248.085 53.5321 248.192 54.1054 248.405 54.5721C248.632 55.0254 248.938 55.3721 249.325 55.6121C249.725 55.8388 250.192 55.9521 250.725 55.9521C251.352 55.9521 251.872 55.8054 252.285 55.5121C252.698 55.2054 252.965 54.8121 253.085 54.3321H255.425C255.345 55.0521 255.092 55.6788 254.665 56.2121C254.238 56.7321 253.685 57.1321 253.005 57.4121C252.325 57.6921 251.565 57.8321 250.725 57.8321ZM248.085 51.5121L247.865 51.2521H253.285L253.045 51.5321C253.072 50.8788 252.985 50.3454 252.785 49.9321C252.585 49.5188 252.298 49.2121 251.925 49.0121C251.552 48.8121 251.118 48.7121 250.625 48.7121C250.118 48.7121 249.678 48.8188 249.305 49.0321C248.932 49.2454 248.638 49.5654 248.425 49.9921C248.212 50.4054 248.098 50.9121 248.085 51.5121Z" fill="white"/>
</svg>
