<svg width="45" height="6" viewBox="0 0 45 6" fill="none" xmlns="http://www.w3.org/2000/svg">
<path d="M0.333333 3C0.333333 4.47276 1.52724 5.66667 3 5.66667C4.47276 5.66667 5.66667 4.47276 5.66667 3C5.66667 1.52724 4.47276 0.333333 3 0.333333C1.52724 0.333333 0.333333 1.52724 0.333333 3ZM39.3333 3C39.3333 4.47276 40.5272 5.66666 42 5.66666C43.4728 5.66666 44.6667 4.47276 44.6667 3C44.6667 1.52724 43.4728 0.33333 42 0.33333C40.5272 0.33333 39.3333 1.52724 39.3333 3ZM3 3.5L6.25 3.5L6.25 2.5L3 2.5L3 3.5ZM12.75 3.5L19.25 3.5L19.25 2.5L12.75 2.5L12.75 3.5ZM25.75 3.5L32.25 3.5L32.25 2.5L25.75 2.5L25.75 3.5ZM38.75 3.5L42 3.5L42 2.5L38.75 2.5L38.75 3.5Z" fill="#FF7500"/>
</svg>
