<svg width="36" height="36" viewBox="0 0 36 36" fill="none" xmlns="http://www.w3.org/2000/svg">
<g clip-path="url(#clip0_1746_14291)">
<path d="M32.3013 24.3471C31.6063 23.3371 31.9943 21.8771 31.8213 20.2651C31.6433 17.6351 30.5133 15.0871 28.3213 13.0491L20.8553 6.10709C20.8553 6.10709 19.3843 4.73809 18.0143 6.21009C16.6463 7.68109 18.1183 9.05009 18.1183 9.05009L21.2723 11.9841L24.0063 14.5261C24.0063 14.5261 23.3213 15.2621 20.2953 12.4481L10.0753 2.94209C10.0753 2.94209 8.60234 1.57409 7.23334 3.04609C5.86534 4.51709 7.33634 5.88609 7.33634 5.88609L17.0003 14.8751C16.9793 14.8551 16.2693 15.5671 16.2563 15.5551L5.91634 5.93809C5.91634 5.93809 4.44434 4.56909 3.07534 6.04109C1.70634 7.51309 3.17834 8.88109 3.17834 8.88109L13.5193 18.5001C13.5313 18.5121 12.8653 19.2641 12.8853 19.2831L3.96534 10.9851C3.96534 10.9851 2.49334 9.61609 1.12434 11.0881C-0.244657 12.5601 1.22734 13.9291 1.22734 13.9291L10.7113 22.7491C10.7983 22.8301 10.2113 23.6571 10.3203 23.7581L3.48634 17.4021C3.48634 17.4021 2.01434 16.0331 0.645343 17.5061C-0.723657 18.9781 0.748343 20.3471 0.748343 20.3471L11.8953 30.7101C13.7563 32.4411 15.6673 33.3171 17.9713 33.6381C18.4403 33.7031 19.0403 33.7031 19.2863 33.7341C20.0633 33.8321 20.7453 34.1081 21.6583 34.6681C22.8333 35.3881 24.5963 35.6881 25.6093 34.6051L29.0633 30.9101L32.2523 27.4981C33.2643 26.4161 33.0833 25.4821 32.3013 24.3471Z" fill="#EF9645"/>
<path d="M1.95655 35.0261C1.70055 35.0261 1.44455 34.9281 1.24955 34.7331C0.858554 34.3421 0.858554 33.7101 1.24955 33.3191L4.80055 29.7701C5.19155 29.3791 5.82355 29.3791 6.21455 29.7701C6.60555 30.1611 6.60555 30.7931 6.21455 31.1841L2.66355 34.7341C2.46855 34.9291 2.21255 35.0261 1.95655 35.0261ZM8.70255 35.9481C8.59355 35.9481 8.48155 35.9301 8.37155 35.8921C7.85055 35.7101 7.57555 35.1401 7.75855 34.6181L8.72955 31.8451C8.91155 31.3241 9.48255 31.0501 10.0036 31.2311C10.5246 31.4141 10.7996 31.9841 10.6166 32.5051L9.64555 35.2781C9.50155 35.6901 9.11555 35.9481 8.70255 35.9481ZM1.03555 28.2811C0.623554 28.2811 0.237554 28.0241 0.0925537 27.6141C-0.0914463 27.0931 0.181554 26.5221 0.702554 26.3381L3.19755 25.4571C3.72055 25.2771 4.28955 25.5481 4.47355 26.0671C4.65755 26.5881 4.38455 27.1591 3.86355 27.3431L1.36855 28.2241C1.25755 28.2631 1.14555 28.2811 1.03555 28.2811ZM30.4956 6.51412C30.2396 6.51412 29.9836 6.41612 29.7886 6.22112C29.3976 5.83012 29.3976 5.19712 29.7886 4.80612L33.3406 1.25612C33.7316 0.866122 34.3636 0.866122 34.7546 1.25612C35.1456 1.64612 35.1456 2.28012 34.7546 2.67112L31.2026 6.22112C31.0076 6.41712 30.7516 6.51412 30.4956 6.51412ZM26.3316 4.81712C26.2226 4.81712 26.1106 4.79812 26.0016 4.76012C25.4806 4.57812 25.2056 4.00812 25.3876 3.48612L26.3576 0.713122C26.5406 0.192122 27.1096 -0.0828775 27.6316 0.0991225C28.1526 0.281122 28.4276 0.851122 28.2456 1.37312L27.2756 4.14612C27.1316 4.55912 26.7446 4.81712 26.3316 4.81712ZM32.4746 10.5911C32.0626 10.5911 31.6766 10.3341 31.5316 9.92412C31.3476 9.40312 31.6216 8.83212 32.1416 8.64812L34.6356 7.76712C35.1576 7.58212 35.7276 7.85712 35.9116 8.37712C36.0956 8.89812 35.8216 9.46912 35.3016 9.65312L32.8076 10.5341C32.6966 10.5731 32.5846 10.5911 32.4746 10.5911Z" fill="#FF7500"/>
<path d="M35.389 23.8221C34.728 22.7901 35.165 21.3431 35.047 19.7261C34.957 17.0921 33.914 14.5071 31.792 12.3961L24.564 5.20712C24.564 5.20712 23.14 3.79013 21.721 5.21513C20.304 6.63912 21.729 8.05713 21.729 8.05713L24.783 11.0961L27.429 13.7281C27.429 13.7281 26.719 14.4401 23.79 11.5261C20.859 8.61112 13.896 1.68112 13.896 1.68112C13.896 1.68112 12.471 0.264125 11.053 1.68913C9.63498 3.11313 11.06 4.53013 11.06 4.53013L20.416 13.8401C20.396 13.8201 19.662 14.5071 19.649 14.4941L9.63898 4.53412C9.63898 4.53412 8.21397 3.11612 6.79597 4.54112C5.37897 5.96612 6.80297 7.38312 6.80297 7.38312L16.814 17.3451C16.826 17.3571 16.134 18.0861 16.154 18.1061L7.51898 9.51312C7.51898 9.51312 6.09398 8.09612 4.67598 9.52112C3.25798 10.9461 4.68298 12.3641 4.68298 12.3641L13.864 21.4991C13.948 21.5821 13.334 22.3901 13.439 22.4951L6.82297 15.9121C6.82297 15.9121 5.39797 14.4951 3.97997 15.9201C2.56198 17.3451 3.98697 18.7631 3.98697 18.7631L14.777 29.4951C16.579 31.2881 18.459 32.2271 20.751 32.6261C21.218 32.7071 21.818 32.7271 22.062 32.7661C22.835 32.8901 23.507 33.1891 24.402 33.7801C25.552 34.5391 27.304 34.8981 28.353 33.8501L31.93 30.2741L35.232 26.9721C36.281 25.9221 36.132 24.9821 35.389 23.8221Z" fill="#FFDB5E"/>
</g>
<defs>
<clipPath id="clip0_1746_14291">
<rect width="36" height="36" fill="white"/>
</clipPath>
</defs>
</svg>
