<svg width="36" height="48" viewBox="0 0 36 48" fill="none" xmlns="http://www.w3.org/2000/svg">
<path d="M0 6C0 4.4087 0.632141 2.88258 1.75736 1.75736C2.88258 0.632141 4.4087 0 6 0L30 0C31.5913 0 33.1174 0.632141 34.2426 1.75736C35.3679 2.88258 36 4.4087 36 6V42C36 43.5913 35.3679 45.1174 34.2426 46.2426C33.1174 47.3679 31.5913 48 30 48H6C4.4087 48 2.88258 47.3679 1.75736 46.2426C0.632141 45.1174 0 43.5913 0 42V6ZM30 3H6C5.20435 3 4.44129 3.31607 3.87868 3.87868C3.31607 4.44129 3 5.20435 3 6V42C3 42.7957 3.31607 43.5587 3.87868 44.1213C4.44129 44.6839 5.20435 45 6 45H30C30.7956 45 31.5587 44.6839 32.1213 44.1213C32.6839 43.5587 33 42.7957 33 42V6C33 5.20435 32.6839 4.44129 32.1213 3.87868C31.5587 3.31607 30.7956 3 30 3Z" fill="#FF7500"/>
</svg>
