<svg width="99" height="27" viewBox="0 0 99 27" fill="none" xmlns="http://www.w3.org/2000/svg">
<g clip-path="url(#clip0_1880_39247)">
<path d="M18.567 3.16087C17.4234 1.85757 15.3565 1.29883 12.7124 1.29883H5.03811C4.77636 1.29869 4.52315 1.39198 4.32405 1.56189C4.12495 1.73183 3.99303 1.96722 3.95203 2.22575L0.75802 22.493C0.74321 22.587 0.748959 22.6832 0.77487 22.7747C0.800781 22.8663 0.846239 22.9512 0.908112 23.0235C0.969985 23.0959 1.0468 23.1539 1.13327 23.1937C1.21974 23.2335 1.3138 23.254 1.40898 23.2539H6.14673L7.33663 15.7067L7.29974 15.943C7.33996 15.6851 7.47099 15.4499 7.66924 15.2799C7.86749 15.11 8.11991 15.0165 8.38104 15.0162H10.6324C15.0553 15.0162 18.5184 13.2197 19.5301 8.02294C19.5601 7.86924 19.586 7.71965 19.6086 7.57347C19.9092 5.65269 19.6059 4.34462 18.567 3.16087Z" fill="#003087"/>
<path d="M76.5725 12.8043C76.2828 14.7059 74.8306 14.7059 73.4263 14.7059H72.6271L73.1879 11.1554C73.2221 10.9409 73.4065 10.7831 73.6237 10.7831H73.9905C74.9468 10.7831 75.8498 10.7831 76.3156 11.3275C76.5937 11.6533 76.6776 12.1369 76.5725 12.8043ZM75.9611 7.84248H70.6633C70.4878 7.84257 70.3181 7.90519 70.1847 8.01912C70.0512 8.13304 69.9627 8.2908 69.9351 8.46407L67.7944 22.0483C67.7845 22.1112 67.7884 22.1755 67.8058 22.2369C67.8232 22.2982 67.8535 22.355 67.8949 22.4035C67.9364 22.452 67.9877 22.491 68.0456 22.5177C68.1034 22.5444 68.1664 22.5583 68.2302 22.5585H70.9488C71.2023 22.5585 71.418 22.374 71.4577 22.124L72.0656 18.2715C72.1216 17.9143 72.4304 17.65 72.7924 17.65H74.4687C77.9591 17.65 79.9727 15.9621 80.4988 12.6143C80.7357 11.1513 80.5083 10.001 79.8232 9.19564C79.0697 8.31039 77.7337 7.84248 75.9611 7.84248Z" fill="#009CDE"/>
<path d="M38.7835 12.8063C38.4938 14.7079 37.0417 14.7079 35.6366 14.7079H34.8375L35.3982 11.1573C35.4324 10.9428 35.6168 10.785 35.834 10.785H36.2008C37.1571 10.785 38.0601 10.785 38.5259 11.3294C38.8047 11.6553 38.8886 12.1389 38.7835 12.8063ZM38.1721 7.84443H32.8743C32.5123 7.84443 32.2035 8.10809 32.1469 8.46603L30.0054 22.0501C29.9955 22.1131 29.9992 22.1775 30.0166 22.239C30.0339 22.3003 30.0643 22.3572 30.1057 22.4057C30.1472 22.4543 30.1986 22.4932 30.2565 22.5199C30.3145 22.5466 30.3774 22.5604 30.4412 22.5604H32.9713C33.3334 22.5604 33.6414 22.2968 33.698 21.9388L34.2766 18.2742C34.3327 17.9162 34.6414 17.6526 35.0034 17.6526H36.6797C40.1701 17.6526 42.1839 15.9641 42.7098 12.6163C42.9467 11.1532 42.7193 10.0029 42.0342 9.19759C41.2808 8.31233 39.9448 7.84443 38.1721 7.84443ZM50.4722 17.6833C50.2262 19.1328 49.0767 20.1062 47.6087 20.1062C46.8731 20.1062 46.2836 19.8691 45.9052 19.4211C45.5294 18.977 45.3887 18.3439 45.5077 17.6396C45.7357 16.2025 46.9052 15.1983 48.3505 15.1983C49.0712 15.1983 49.6552 15.4374 50.0418 15.8896C50.4304 16.3451 50.5835 16.9818 50.4722 17.6833ZM54.0077 12.7447H51.4708C51.3653 12.7446 51.2633 12.7822 51.1831 12.8508C51.103 12.9192 51.0499 13.0142 51.0336 13.1184L50.9229 13.8274L50.7453 13.5706C50.1962 12.7734 48.9715 12.5063 47.7487 12.5063C44.9461 12.5063 42.5519 14.6307 42.0861 17.6089C41.8437 19.0959 42.1879 20.516 43.0308 21.5072C43.8047 22.4177 44.9092 22.7968 46.2255 22.7968C48.4851 22.7968 49.7379 21.3459 49.7379 21.3459L49.6244 22.0508C49.6144 22.1139 49.6183 22.1784 49.6357 22.2398C49.653 22.3013 49.6835 22.3582 49.725 22.4067C49.7664 22.4552 49.818 22.4941 49.876 22.5208C49.934 22.5475 49.997 22.5612 50.0609 22.5611H52.345C52.7071 22.5611 53.0158 22.2981 53.0725 21.9395L54.4441 13.2557C54.454 13.1926 54.4502 13.1281 54.4327 13.0666C54.4152 13.0053 54.3846 12.9484 54.3431 12.8998C54.3016 12.8513 54.25 12.8124 54.192 12.7858C54.1339 12.7591 54.0715 12.7446 54.0077 12.7447Z" fill="#003087"/>
<path d="M88.2588 17.6828C88.0129 19.1323 86.8632 20.1057 85.3954 20.1057C84.6598 20.1057 84.0702 19.8686 83.6918 19.4206C83.3161 18.9766 83.1754 18.3434 83.2942 17.6391C83.5224 16.202 84.6911 15.1979 86.1372 15.1979C86.8578 15.1979 87.4418 15.4369 87.8285 15.8891C88.2171 16.3447 88.3701 16.9814 88.2588 17.6828ZM91.7943 12.7443H89.2574C89.152 12.7441 89.0499 12.7817 88.9698 12.8503C88.8895 12.9188 88.8366 13.0138 88.8203 13.1179L88.7096 13.827L88.532 13.5701C87.9828 12.7729 86.758 12.5059 85.5354 12.5059C82.7335 12.5059 80.3393 14.6302 79.8727 17.6084C79.6303 19.0954 79.9753 20.5156 80.8182 21.5067C81.5921 22.4172 82.6965 22.7963 84.0128 22.7963C86.2731 22.7963 87.5259 21.3455 87.5259 21.3455L87.4125 22.0503C87.4022 22.1133 87.4059 22.1778 87.4231 22.2393C87.4403 22.3007 87.4706 22.3576 87.512 22.4062C87.5534 22.4547 87.6048 22.4937 87.6628 22.5203C87.7208 22.547 87.7838 22.5608 87.8476 22.5607H90.1311C90.4931 22.5607 90.8019 22.2976 90.8592 21.939L92.2308 13.2552C92.2407 13.1921 92.2367 13.1276 92.2194 13.0662C92.2019 13.0049 92.1713 12.9479 92.1298 12.8993C92.0883 12.8509 92.0367 12.812 91.9787 12.7854C91.9206 12.7587 91.8582 12.7441 91.7943 12.7443Z" fill="#009CDE"/>
<path d="M67.5162 12.7448H64.9657C64.7219 12.7448 64.4944 12.8657 64.3577 13.0679L60.84 18.2483L59.3488 13.2701C59.3033 13.1183 59.2101 12.9851 59.083 12.8904C58.956 12.7957 58.8018 12.7444 58.6432 12.7441H56.137C56.0668 12.7441 55.9975 12.761 55.935 12.7932C55.8726 12.8253 55.8186 12.8719 55.7777 12.929C55.7369 12.9863 55.7102 13.0523 55.7 13.1219C55.6898 13.1914 55.6963 13.2624 55.719 13.3289L58.5265 21.5707L55.8857 25.2969C55.8391 25.363 55.8115 25.4407 55.8059 25.5214C55.8004 25.6022 55.8171 25.683 55.8543 25.7549C55.8916 25.8267 55.9478 25.887 56.0169 25.9291C56.086 25.9712 56.1654 25.9935 56.2464 25.9936H58.7942C59.0346 25.9936 59.2608 25.8754 59.3987 25.6774L67.8783 13.4381C67.9243 13.3719 67.9514 13.2945 67.9565 13.214C67.9616 13.1336 67.9445 13.0533 67.9073 12.9819C67.8699 12.9104 67.8138 12.8505 67.7448 12.8088C67.6759 12.767 67.5969 12.7449 67.5162 12.7448Z" fill="#003087"/>
<path d="M94.7818 8.21738L92.6069 22.0501C92.597 22.1132 92.6009 22.1776 92.6183 22.239C92.6357 22.3004 92.6662 22.3572 92.7077 22.4057C92.7491 22.4542 92.8007 22.4932 92.8586 22.5199C92.9165 22.5465 92.9796 22.5603 93.0433 22.5605H95.2299C95.5918 22.5605 95.9006 22.2968 95.9573 21.9388L98.1015 8.354C98.1114 8.29094 98.1077 8.22648 98.0903 8.16505C98.0729 8.10361 98.0425 8.04668 98.0009 7.99818C97.9594 7.94966 97.908 7.91073 97.8499 7.88408C97.7919 7.85741 97.7288 7.84365 97.6649 7.84375H95.2182C95.1129 7.84348 95.0109 7.88096 94.9309 7.94937C94.8508 8.01779 94.7979 8.11331 94.7818 8.21738Z" fill="#009CDE"/>
<path d="M18.567 3.16087C17.4234 1.85757 15.3565 1.29883 12.7124 1.29883H5.03811C4.77636 1.29869 4.52315 1.39198 4.32405 1.56189C4.12495 1.73183 3.99303 1.96722 3.95203 2.22575L0.75802 22.493C0.74321 22.587 0.748959 22.6832 0.77487 22.7747C0.800781 22.8663 0.846239 22.9512 0.908112 23.0235C0.969985 23.0959 1.0468 23.1539 1.13327 23.1937C1.21974 23.2335 1.3138 23.254 1.40898 23.2539H6.14673L7.33663 15.7067L7.29974 15.943C7.33996 15.6851 7.47099 15.4499 7.66924 15.2799C7.86749 15.11 8.11991 15.0165 8.38104 15.0162H10.6324C15.0553 15.0162 18.5184 13.2197 19.5301 8.02294C19.5601 7.86924 19.586 7.71965 19.6086 7.57347C19.9092 5.65269 19.6059 4.34462 18.567 3.16087Z" fill="#003087"/>
<path d="M8.61544 7.60002C8.65134 7.37412 8.76658 7.16843 8.94045 7.01983C9.11434 6.87123 9.33549 6.78947 9.56422 6.78921H15.5807C16.2931 6.78921 16.9577 6.83566 17.565 6.93266C17.897 6.98607 18.2254 7.05953 18.5486 7.15261C18.9156 7.25578 19.2707 7.39727 19.608 7.57474C19.9099 5.65328 19.6067 4.34657 18.5677 3.16214C17.4235 1.85953 15.3573 1.30078 12.7131 1.30078H5.03822C4.7767 1.30097 4.52382 1.3944 4.325 1.5643C4.12618 1.73419 3.99447 1.96941 3.95352 2.2277L0.758128 22.4929C0.743218 22.5869 0.748868 22.6831 0.77469 22.7746C0.800512 22.8663 0.84589 22.9513 0.9077 23.0236C0.96951 23.096 1.04628 23.1542 1.13272 23.1941C1.21916 23.2338 1.31322 23.2545 1.4084 23.2545H6.14684L7.33673 15.7067L8.61544 7.60002Z" fill="#003087"/>
<path d="M19.6093 7.57227C19.5859 7.72256 19.5597 7.8724 19.5308 8.02173C18.5192 13.2178 15.056 15.0149 10.6332 15.0149H8.38109C8.12001 15.0151 7.8676 15.1087 7.66943 15.2787C7.47128 15.4486 7.34042 15.6838 7.30049 15.9419L6.14746 23.252L5.81959 25.3258C5.80656 25.4081 5.81154 25.4923 5.83417 25.5725C5.85681 25.6528 5.89657 25.7272 5.95073 25.7905C6.00488 25.8539 6.07212 25.9048 6.14784 25.9396C6.22354 25.9745 6.30592 25.9925 6.38928 25.9925H10.3832C10.8558 25.9925 11.2574 25.6483 11.332 25.1817L11.3709 24.9782L12.1236 20.2076L12.1714 19.9439C12.2072 19.7179 12.3225 19.512 12.4966 19.3634C12.6707 19.2148 12.892 19.1331 13.1209 19.1331H13.7185C17.5875 19.1331 20.6168 17.5621 21.5022 13.0157C21.871 11.1167 21.6797 9.52994 20.7029 8.41586C20.3927 8.07045 20.0222 7.78458 19.6093 7.57227Z" fill="#009CDE"/>
<path d="M18.5541 7.15119C18.3998 7.10542 18.2406 7.06444 18.0766 7.02823C17.9128 6.99203 17.7433 6.95992 17.5698 6.93261C16.9619 6.83356 16.298 6.78711 15.5849 6.78711H9.56905C9.34008 6.78684 9.11855 6.86849 8.94453 7.01733C8.77052 7.16616 8.6555 7.37234 8.62028 7.5986L7.34157 15.7066L7.30469 15.9423C7.34462 15.6842 7.47548 15.449 7.67364 15.279C7.87181 15.109 8.12422 15.0155 8.3853 15.0153H10.6374C15.0603 15.0153 18.5234 13.2188 19.535 8.02209C19.565 7.86841 19.5903 7.7195 19.6135 7.57264C19.3464 7.43284 19.0681 7.31541 18.7816 7.22154C18.7071 7.19695 18.6312 7.17441 18.5541 7.15119Z" fill="#012169"/>
</g>
<defs>
<clipPath id="clip0_1880_39247">
<rect width="98.9191" height="26.3784" fill="white" transform="translate(0.0703125 0.333984)"/>
</clipPath>
</defs>
</svg>
