<svg width="207" height="22" viewBox="0 0 207 22" fill="none" xmlns="http://www.w3.org/2000/svg">
<path d="M0.238656 18V0.503999H7.51066C8.43866 0.503999 9.28666 0.631999 10.0547 0.887999C10.8227 1.128 11.4707 1.496 11.9987 1.992C12.5427 2.472 12.9587 3.064 13.2467 3.768C13.5507 4.456 13.7027 5.248 13.7027 6.144C13.7027 7.28 13.4547 8.28 12.9587 9.144C12.4627 9.992 11.7507 10.656 10.8227 11.136C9.91066 11.616 8.80666 11.856 7.51066 11.856L3.09466 11.832V9.336L6.98266 9.36C7.65466 9.36 8.24666 9.256 8.75866 9.048C9.28666 8.84 9.70266 8.512 10.0067 8.064C10.3107 7.6 10.4627 7 10.4627 6.264C10.4627 5.528 10.3027 4.936 9.98266 4.488C9.67866 4.04 9.27066 3.72 8.75866 3.528C8.24666 3.32 7.65466 3.216 6.98266 3.216H2.95066L3.40666 2.76V18H0.238656ZM15.8853 18V5.232H18.5973L18.7413 7.368H18.8373C19.1253 6.552 19.5893 5.968 20.2293 5.616C20.8853 5.248 21.6293 5.064 22.4613 5.064C22.6053 5.064 22.7333 5.064 22.8453 5.064C22.9733 5.064 23.0933 5.064 23.2053 5.064V7.896C23.1093 7.896 22.9893 7.896 22.8453 7.896C22.7173 7.88 22.5733 7.872 22.4133 7.872C21.6453 7.872 21.0053 8 20.4933 8.256C19.9813 8.496 19.5893 8.848 19.3173 9.312C19.0613 9.776 18.9173 10.344 18.8853 11.016V18H15.8853ZM25.1666 18V5.232H28.1666V18H25.1666ZM25.1666 3.432V0.503999H28.1666V3.432H25.1666ZM34.209 18L29.745 5.208H32.985L35.217 12.552L36.009 15.48H36.105L36.897 12.576L39.129 5.208H42.369L37.929 18H34.209ZM47.9559 18.216C47.1879 18.216 46.4839 18.08 45.8439 17.808C45.2199 17.52 44.6759 17.096 44.2119 16.536C43.7639 15.976 43.4199 15.288 43.1799 14.472C42.9399 13.64 42.8199 12.688 42.8199 11.616C42.8199 10.16 43.0279 8.944 43.4439 7.968C43.8759 6.976 44.4759 6.232 45.2439 5.736C46.0279 5.24 46.9319 4.992 47.9559 4.992C48.6599 4.992 49.2839 5.104 49.8279 5.328C50.3879 5.536 50.8679 5.832 51.2679 6.216C51.6679 6.6 51.9719 7.056 52.1799 7.584H52.3479L52.4679 5.232H55.3479V18H52.3479V15.624H52.1799C51.8759 16.408 51.3559 17.04 50.6199 17.52C49.8839 17.984 48.9959 18.216 47.9559 18.216ZM49.0839 15.768C49.8039 15.768 50.3959 15.6 50.8599 15.264C51.3399 14.928 51.6999 14.496 51.9399 13.968C52.1799 13.424 52.2999 12.856 52.2999 12.264V10.944C52.2999 10.336 52.1799 9.768 51.9399 9.24C51.6999 8.696 51.3399 8.264 50.8599 7.944C50.3959 7.608 49.8039 7.44 49.0839 7.44C48.4439 7.44 47.8839 7.592 47.4039 7.896C46.9239 8.2 46.5479 8.664 46.2759 9.288C46.0039 9.896 45.8679 10.672 45.8679 11.616C45.8679 12.528 46.0039 13.296 46.2759 13.92C46.5479 14.544 46.9239 15.008 47.4039 15.312C47.8839 15.616 48.4439 15.768 49.0839 15.768ZM63.8964 18.216C62.9524 18.216 62.0964 18.064 61.3284 17.76C60.5604 17.44 59.8964 16.992 59.3364 16.416C58.7764 15.824 58.3524 15.128 58.0644 14.328C57.7764 13.512 57.6324 12.608 57.6324 11.616C57.6324 10.272 57.8884 9.112 58.4004 8.136C58.9284 7.144 59.6644 6.376 60.6084 5.832C61.5684 5.272 62.6964 4.992 63.9924 4.992C65.0644 4.992 66.0164 5.192 66.8484 5.592C67.6804 5.992 68.3444 6.552 68.8404 7.272C69.3524 7.976 69.6324 8.8 69.6804 9.744H66.7524C66.6724 9.248 66.4964 8.832 66.2244 8.496C65.9684 8.16 65.6404 7.904 65.2404 7.728C64.8404 7.552 64.4004 7.464 63.9204 7.464C63.2324 7.464 62.6404 7.64 62.1444 7.992C61.6484 8.328 61.2724 8.808 61.0164 9.432C60.7764 10.056 60.6564 10.784 60.6564 11.616C60.6564 12.528 60.7924 13.288 61.0644 13.896C61.3364 14.504 61.7124 14.968 62.1924 15.288C62.6884 15.592 63.2564 15.744 63.8964 15.744C64.4564 15.744 64.9444 15.648 65.3604 15.456C65.7764 15.248 66.1044 14.968 66.3444 14.616C66.6004 14.248 66.7524 13.832 66.8004 13.368H69.7284C69.6644 14.344 69.3764 15.2 68.8644 15.936C68.3524 16.656 67.6724 17.216 66.8244 17.616C65.9764 18.016 65.0004 18.216 63.8964 18.216ZM71.465 22.008V19.536H72.881C73.265 19.536 73.585 19.488 73.841 19.392C74.097 19.296 74.313 19.144 74.489 18.936C74.665 18.728 74.809 18.464 74.921 18.144L75.617 16.344V17.688L70.409 5.232H73.697L76.313 12.528L76.793 13.968H76.913L77.345 12.528L79.817 5.232H83.009L77.849 18.84C77.561 19.656 77.201 20.296 76.769 20.76C76.353 21.224 75.865 21.544 75.305 21.72C74.761 21.912 74.137 22.008 73.433 22.008H71.465ZM90.2152 18V0.503999H97.4872C98.4152 0.503999 99.2632 0.631999 100.031 0.887999C100.799 1.128 101.447 1.496 101.975 1.992C102.519 2.472 102.935 3.064 103.223 3.768C103.527 4.456 103.679 5.248 103.679 6.144C103.679 7.28 103.431 8.28 102.935 9.144C102.439 9.992 101.727 10.656 100.799 11.136C99.8872 11.616 98.7832 11.856 97.4872 11.856L93.0712 11.832V9.336L96.9592 9.36C97.6312 9.36 98.2232 9.256 98.7352 9.048C99.2632 8.84 99.6792 8.512 99.9832 8.064C100.287 7.6 100.439 7 100.439 6.264C100.439 5.528 100.279 4.936 99.9592 4.488C99.6552 4.04 99.2472 3.72 98.7352 3.528C98.2232 3.32 97.6312 3.216 96.9592 3.216H92.9272L93.3832 2.76V18H90.2152ZM105.862 18V5.232H108.574L108.718 7.368H108.814C109.102 6.552 109.566 5.968 110.206 5.616C110.862 5.248 111.606 5.064 112.438 5.064C112.582 5.064 112.71 5.064 112.822 5.064C112.95 5.064 113.07 5.064 113.182 5.064V7.896C113.086 7.896 112.966 7.896 112.822 7.896C112.694 7.88 112.55 7.872 112.39 7.872C111.622 7.872 110.982 8 110.47 8.256C109.958 8.496 109.566 8.848 109.294 9.312C109.038 9.776 108.894 10.344 108.862 11.016V18H105.862ZM120.359 18.216C119.399 18.216 118.535 18.072 117.767 17.784C116.999 17.48 116.327 17.04 115.751 16.464C115.191 15.888 114.759 15.192 114.455 14.376C114.167 13.56 114.023 12.64 114.023 11.616C114.023 10.304 114.271 9.152 114.767 8.16C115.279 7.168 116.007 6.392 116.951 5.832C117.895 5.272 119.031 4.992 120.359 4.992C121.303 4.992 122.159 5.144 122.927 5.448C123.695 5.752 124.351 6.192 124.895 6.768C125.455 7.344 125.887 8.04 126.191 8.856C126.495 9.656 126.647 10.576 126.647 11.616C126.647 12.912 126.391 14.056 125.879 15.048C125.383 16.04 124.663 16.816 123.719 17.376C122.791 17.936 121.671 18.216 120.359 18.216ZM120.335 15.744C120.991 15.744 121.567 15.592 122.063 15.288C122.559 14.968 122.943 14.504 123.215 13.896C123.487 13.272 123.623 12.512 123.623 11.616C123.623 10.944 123.543 10.352 123.383 9.84C123.239 9.312 123.023 8.872 122.735 8.52C122.447 8.168 122.103 7.904 121.703 7.728C121.303 7.552 120.855 7.464 120.359 7.464C119.703 7.464 119.119 7.624 118.607 7.944C118.111 8.248 117.727 8.712 117.455 9.336C117.183 9.944 117.047 10.704 117.047 11.616C117.047 12.288 117.119 12.888 117.263 13.416C117.423 13.928 117.647 14.36 117.935 14.712C118.223 15.048 118.567 15.304 118.967 15.48C119.383 15.656 119.839 15.744 120.335 15.744ZM133.025 18C132.241 18 131.625 17.888 131.177 17.664C130.745 17.424 130.441 17.088 130.265 16.656C130.089 16.224 130.001 15.704 130.001 15.096V7.656H127.649V5.232H130.001V1.632L132.977 1.32V5.232H135.689V7.656H132.977V14.544C132.977 14.944 133.065 15.216 133.241 15.36C133.417 15.488 133.689 15.552 134.057 15.552H135.689V18H133.025ZM142.971 18.216C141.675 18.216 140.571 17.952 139.659 17.424C138.763 16.88 138.075 16.12 137.595 15.144C137.115 14.152 136.875 13 136.875 11.688C136.875 10.328 137.115 9.152 137.595 8.16C138.075 7.152 138.763 6.376 139.659 5.832C140.555 5.288 141.619 5.016 142.851 5.016C144.259 5.016 145.411 5.328 146.307 5.952C147.219 6.56 147.875 7.408 148.275 8.496C148.675 9.584 148.811 10.832 148.683 12.24H139.803C139.803 13.056 139.931 13.744 140.187 14.304C140.459 14.848 140.827 15.264 141.291 15.552C141.771 15.824 142.331 15.96 142.971 15.96C143.723 15.96 144.347 15.784 144.843 15.432C145.339 15.064 145.659 14.592 145.803 14.016H148.611C148.515 14.88 148.211 15.632 147.699 16.272C147.187 16.896 146.523 17.376 145.707 17.712C144.891 18.048 143.979 18.216 142.971 18.216ZM139.803 10.632L139.539 10.32H146.043L145.755 10.656C145.787 9.872 145.683 9.232 145.443 8.736C145.203 8.24 144.859 7.872 144.411 7.632C143.963 7.392 143.443 7.272 142.851 7.272C142.243 7.272 141.715 7.4 141.267 7.656C140.819 7.912 140.467 8.296 140.211 8.808C139.955 9.304 139.819 9.912 139.803 10.632ZM156.826 18.216C155.882 18.216 155.026 18.064 154.258 17.76C153.49 17.44 152.826 16.992 152.266 16.416C151.706 15.824 151.282 15.128 150.994 14.328C150.706 13.512 150.562 12.608 150.562 11.616C150.562 10.272 150.818 9.112 151.33 8.136C151.858 7.144 152.594 6.376 153.538 5.832C154.498 5.272 155.626 4.992 156.922 4.992C157.994 4.992 158.946 5.192 159.778 5.592C160.61 5.992 161.274 6.552 161.77 7.272C162.282 7.976 162.562 8.8 162.61 9.744H159.682C159.602 9.248 159.426 8.832 159.154 8.496C158.898 8.16 158.57 7.904 158.17 7.728C157.77 7.552 157.33 7.464 156.85 7.464C156.162 7.464 155.57 7.64 155.074 7.992C154.578 8.328 154.202 8.808 153.946 9.432C153.706 10.056 153.586 10.784 153.586 11.616C153.586 12.528 153.722 13.288 153.994 13.896C154.266 14.504 154.642 14.968 155.122 15.288C155.618 15.592 156.186 15.744 156.826 15.744C157.386 15.744 157.874 15.648 158.29 15.456C158.706 15.248 159.034 14.968 159.274 14.616C159.53 14.248 159.682 13.832 159.73 13.368H162.658C162.594 14.344 162.306 15.2 161.794 15.936C161.282 16.656 160.602 17.216 159.754 17.616C158.906 18.016 157.93 18.216 156.826 18.216ZM168.955 18C168.171 18 167.555 17.888 167.107 17.664C166.675 17.424 166.371 17.088 166.195 16.656C166.019 16.224 165.931 15.704 165.931 15.096V7.656H163.579V5.232H165.931V1.632L168.907 1.32V5.232H171.619V7.656H168.907V14.544C168.907 14.944 168.995 15.216 169.171 15.36C169.347 15.488 169.619 15.552 169.987 15.552H171.619V18H168.955ZM173.924 18V5.232H176.924V18H173.924ZM173.924 3.432V0.503999H176.924V3.432H173.924ZM185.703 18.216C184.743 18.216 183.879 18.072 183.111 17.784C182.343 17.48 181.671 17.04 181.095 16.464C180.535 15.888 180.103 15.192 179.799 14.376C179.511 13.56 179.367 12.64 179.367 11.616C179.367 10.304 179.615 9.152 180.111 8.16C180.623 7.168 181.351 6.392 182.295 5.832C183.239 5.272 184.375 4.992 185.703 4.992C186.647 4.992 187.503 5.144 188.271 5.448C189.039 5.752 189.695 6.192 190.239 6.768C190.799 7.344 191.231 8.04 191.535 8.856C191.839 9.656 191.991 10.576 191.991 11.616C191.991 12.912 191.735 14.056 191.223 15.048C190.727 16.04 190.007 16.816 189.063 17.376C188.135 17.936 187.015 18.216 185.703 18.216ZM185.679 15.744C186.335 15.744 186.911 15.592 187.407 15.288C187.903 14.968 188.287 14.504 188.559 13.896C188.831 13.272 188.967 12.512 188.967 11.616C188.967 10.944 188.887 10.352 188.727 9.84C188.583 9.312 188.367 8.872 188.079 8.52C187.791 8.168 187.447 7.904 187.047 7.728C186.647 7.552 186.199 7.464 185.703 7.464C185.047 7.464 184.463 7.624 183.951 7.944C183.455 8.248 183.071 8.712 182.799 9.336C182.527 9.944 182.391 10.704 182.391 11.616C182.391 12.288 182.463 12.888 182.607 13.416C182.767 13.928 182.991 14.36 183.279 14.712C183.567 15.048 183.911 15.304 184.311 15.48C184.727 15.656 185.183 15.744 185.679 15.744ZM194.409 18V5.232H197.289L197.409 7.656H197.553C197.921 6.76 198.481 6.096 199.233 5.664C199.985 5.216 200.825 4.992 201.753 4.992C202.393 4.992 202.985 5.096 203.529 5.304C204.089 5.496 204.569 5.808 204.969 6.24C205.385 6.656 205.705 7.208 205.929 7.896C206.169 8.568 206.289 9.384 206.289 10.344V18H203.289V10.992C203.289 10.192 203.193 9.536 203.001 9.024C202.809 8.496 202.513 8.104 202.113 7.848C201.729 7.592 201.225 7.464 200.601 7.464C199.929 7.464 199.353 7.624 198.873 7.944C198.409 8.264 198.049 8.688 197.793 9.216C197.537 9.744 197.409 10.328 197.409 10.968V18H194.409Z" fill="#FF7500"/>
</svg>
