<svg width="193" height="28" viewBox="0 0 193 28" fill="none" xmlns="http://www.w3.org/2000/svg">
<path d="M0.352 27.676V0.795999H7.548V3.484H3.628V25.016H7.548V27.676H0.352ZM16.2387 23V2.588H24.7227C25.8054 2.588 26.7947 2.73733 27.6907 3.036C28.5867 3.316 29.3427 3.74533 29.9587 4.324C30.5934 4.884 31.0787 5.57467 31.4147 6.396C31.7694 7.19867 31.9467 8.12267 31.9467 9.168C31.9467 10.4933 31.6574 11.66 31.0787 12.668C30.5001 13.6573 29.6694 14.432 28.5867 14.992C27.5227 15.552 26.2347 15.832 24.7227 15.832L19.5707 15.804V12.892L24.1067 12.92C24.8907 12.92 25.5814 12.7987 26.1787 12.556C26.7947 12.3133 27.2801 11.9307 27.6347 11.408C27.9894 10.8667 28.1667 10.1667 28.1667 9.308C28.1667 8.44933 27.9801 7.75867 27.6067 7.236C27.2521 6.71333 26.7761 6.34 26.1787 6.116C25.5814 5.87333 24.8907 5.752 24.1067 5.752H19.4027L19.9347 5.22V23H16.2387ZM34.4932 23V8.104H37.6572L37.8252 10.596H37.9372C38.2732 9.644 38.8145 8.96267 39.5612 8.552C40.3265 8.12267 41.1945 7.908 42.1652 7.908C42.3332 7.908 42.4825 7.908 42.6132 7.908C42.7625 7.908 42.9025 7.908 43.0332 7.908V11.212C42.9212 11.212 42.7812 11.212 42.6132 11.212C42.4639 11.1933 42.2959 11.184 42.1092 11.184C41.2132 11.184 40.4665 11.3333 39.8692 11.632C39.2719 11.912 38.8145 12.3227 38.4972 12.864C38.1985 13.4053 38.0305 14.068 37.9932 14.852V23H34.4932ZM51.4065 23.252C50.2865 23.252 49.2785 23.084 48.3825 22.748C47.4865 22.3933 46.7025 21.88 46.0305 21.208C45.3772 20.536 44.8732 19.724 44.5185 18.772C44.1825 17.82 44.0145 16.7467 44.0145 15.552C44.0145 14.0213 44.3038 12.6773 44.8825 11.52C45.4798 10.3627 46.3292 9.45733 47.4305 8.804C48.5318 8.15067 49.8572 7.824 51.4065 7.824C52.5078 7.824 53.5065 8.00133 54.4025 8.356C55.2985 8.71067 56.0638 9.224 56.6985 9.896C57.3518 10.568 57.8558 11.38 58.2105 12.332C58.5652 13.2653 58.7425 14.3387 58.7425 15.552C58.7425 17.064 58.4438 18.3987 57.8465 19.556C57.2678 20.7133 56.4278 21.6187 55.3265 22.272C54.2438 22.9253 52.9372 23.252 51.4065 23.252ZM51.3785 20.368C52.1438 20.368 52.8158 20.1907 53.3945 19.836C53.9732 19.4627 54.4212 18.9213 54.7385 18.212C55.0558 17.484 55.2145 16.5973 55.2145 15.552C55.2145 14.768 55.1212 14.0773 54.9345 13.48C54.7665 12.864 54.5145 12.3507 54.1785 11.94C53.8425 11.5293 53.4412 11.2213 52.9745 11.016C52.5078 10.8107 51.9852 10.708 51.4065 10.708C50.6412 10.708 49.9598 10.8947 49.3625 11.268C48.7838 11.6227 48.3358 12.164 48.0185 12.892C47.7012 13.6013 47.5425 14.488 47.5425 15.552C47.5425 16.336 47.6265 17.036 47.7945 17.652C47.9812 18.2493 48.2425 18.7533 48.5785 19.164C48.9145 19.556 49.3158 19.8547 49.7825 20.06C50.2678 20.2653 50.7998 20.368 51.3785 20.368ZM75.1092 23.252C73.2985 23.252 71.7772 22.972 70.5452 22.412C69.3318 21.852 68.4172 21.068 67.8012 20.06C67.1852 19.052 66.8678 17.904 66.8492 16.616H70.6292C70.6478 17.3813 70.8158 18.044 71.1332 18.604C71.4692 19.164 71.9732 19.6027 72.6452 19.92C73.3172 20.2373 74.1852 20.396 75.2492 20.396C76.5185 20.396 77.5358 20.1627 78.3012 19.696C79.0665 19.2107 79.4492 18.5013 79.4492 17.568C79.4492 17.0267 79.3652 16.5787 79.1972 16.224C79.0292 15.8507 78.7492 15.5427 78.3572 15.3C77.9652 15.0573 77.4425 14.852 76.7892 14.684C76.1545 14.516 75.3518 14.348 74.3812 14.18C73.2238 13.9933 72.1972 13.7507 71.3012 13.452C70.4238 13.1347 69.6865 12.752 69.0892 12.304C68.4918 11.856 68.0438 11.3147 67.7452 10.68C67.4465 10.0267 67.2972 9.252 67.2972 8.356C67.2972 7.124 67.6052 6.06 68.2212 5.164C68.8558 4.268 69.7518 3.57733 70.9092 3.092C72.0665 2.588 73.4478 2.336 75.0532 2.336C76.6398 2.336 77.9932 2.588 79.1132 3.092C80.2518 3.596 81.1292 4.30533 81.7452 5.22C82.3612 6.116 82.6692 7.16133 82.6692 8.356H78.9452C78.9078 7.628 78.7118 7.03067 78.3572 6.564C78.0025 6.07867 77.5265 5.724 76.9292 5.5C76.3505 5.276 75.6785 5.164 74.9132 5.164C74.1292 5.164 73.4478 5.276 72.8692 5.5C72.3092 5.724 71.8798 6.04133 71.5812 6.452C71.2825 6.844 71.1332 7.32 71.1332 7.88C71.1332 8.57067 71.3012 9.10267 71.6372 9.476C71.9918 9.83067 72.5518 10.1107 73.3172 10.316C74.1012 10.5213 75.1092 10.7267 76.3412 10.932C77.2185 11.0813 78.0678 11.268 78.8892 11.492C79.7292 11.716 80.4758 12.052 81.1292 12.5C81.8012 12.9293 82.3332 13.5267 82.7252 14.292C83.1172 15.0387 83.3132 16.0093 83.3132 17.204C83.3132 18.3987 83.0052 19.4533 82.3892 20.368C81.7732 21.2827 80.8585 21.992 79.6452 22.496C78.4318 23 76.9198 23.252 75.1092 23.252ZM92.5249 23.252C91.0129 23.252 89.7249 22.944 88.6609 22.328C87.6156 21.6933 86.8129 20.8067 86.2529 19.668C85.6929 18.5107 85.4129 17.1667 85.4129 15.636C85.4129 14.0493 85.6929 12.6773 86.2529 11.52C86.8129 10.344 87.6156 9.43867 88.6609 8.804C89.7063 8.16933 90.9476 7.852 92.3849 7.852C94.0276 7.852 95.3716 8.216 96.4169 8.944C97.4809 9.65333 98.2463 10.6427 98.7129 11.912C99.1796 13.1813 99.3383 14.6373 99.1889 16.28H88.8289C88.8289 17.232 88.9783 18.0347 89.2769 18.688C89.5943 19.3227 90.0236 19.808 90.5649 20.144C91.1249 20.4613 91.7783 20.62 92.5249 20.62C93.4023 20.62 94.1303 20.4147 94.7089 20.004C95.2876 19.5747 95.6609 19.024 95.8289 18.352H99.1049C98.9929 19.36 98.6383 20.2373 98.0409 20.984C97.4436 21.712 96.6689 22.272 95.7169 22.664C94.7649 23.056 93.7009 23.252 92.5249 23.252ZM88.8289 14.404L88.5209 14.04H96.1089L95.7729 14.432C95.8103 13.5173 95.6889 12.7707 95.4089 12.192C95.1289 11.6133 94.7276 11.184 94.2049 10.904C93.6823 10.624 93.0756 10.484 92.3849 10.484C91.6756 10.484 91.0596 10.6333 90.5369 10.932C90.0143 11.2307 89.6036 11.6787 89.3049 12.276C89.0063 12.8547 88.8476 13.564 88.8289 14.404ZM102.032 23V8.104H105.196L105.364 10.596H105.476C105.812 9.644 106.354 8.96267 107.1 8.552C107.866 8.12267 108.734 7.908 109.704 7.908C109.872 7.908 110.022 7.908 110.152 7.908C110.302 7.908 110.442 7.908 110.572 7.908V11.212C110.46 11.212 110.32 11.212 110.152 11.212C110.003 11.1933 109.835 11.184 109.648 11.184C108.752 11.184 108.006 11.3333 107.408 11.632C106.811 11.912 106.354 12.3227 106.036 12.864C105.738 13.4053 105.57 14.068 105.532 14.852V23H102.032ZM116.136 23L110.928 8.076H114.708L117.312 16.644L118.236 20.06H118.348L119.272 16.672L121.876 8.076H125.656L120.476 23H116.136ZM127.489 23V8.104H130.989V23H127.489ZM127.489 6.004V2.588H130.989V6.004H127.489ZM141.147 23.252C140.045 23.252 139.047 23.0747 138.151 22.72C137.255 22.3467 136.48 21.824 135.827 21.152C135.173 20.4613 134.679 19.6493 134.343 18.716C134.007 17.764 133.839 16.7093 133.839 15.552C133.839 13.984 134.137 12.6307 134.735 11.492C135.351 10.3347 136.209 9.43867 137.311 8.804C138.431 8.15067 139.747 7.824 141.259 7.824C142.509 7.824 143.62 8.05733 144.591 8.524C145.561 8.99067 146.336 9.644 146.915 10.484C147.512 11.3053 147.839 12.2667 147.895 13.368H144.479C144.385 12.7893 144.18 12.304 143.863 11.912C143.564 11.52 143.181 11.2213 142.715 11.016C142.248 10.8107 141.735 10.708 141.175 10.708C140.372 10.708 139.681 10.9133 139.103 11.324C138.524 11.716 138.085 12.276 137.787 13.004C137.507 13.732 137.367 14.5813 137.367 15.552C137.367 16.616 137.525 17.5027 137.843 18.212C138.16 18.9213 138.599 19.4627 139.159 19.836C139.737 20.1907 140.4 20.368 141.147 20.368C141.8 20.368 142.369 20.256 142.855 20.032C143.34 19.7893 143.723 19.4627 144.003 19.052C144.301 18.6227 144.479 18.1373 144.535 17.596H147.951C147.876 18.7347 147.54 19.7333 146.943 20.592C146.345 21.432 145.552 22.0853 144.563 22.552C143.573 23.0187 142.435 23.252 141.147 23.252ZM156.865 23.252C155.353 23.252 154.065 22.944 153.001 22.328C151.955 21.6933 151.153 20.8067 150.593 19.668C150.033 18.5107 149.753 17.1667 149.753 15.636C149.753 14.0493 150.033 12.6773 150.593 11.52C151.153 10.344 151.955 9.43867 153.001 8.804C154.046 8.16933 155.287 7.852 156.725 7.852C158.367 7.852 159.711 8.216 160.757 8.944C161.821 9.65333 162.586 10.6427 163.053 11.912C163.519 13.1813 163.678 14.6373 163.529 16.28H153.169C153.169 17.232 153.318 18.0347 153.617 18.688C153.934 19.3227 154.363 19.808 154.905 20.144C155.465 20.4613 156.118 20.62 156.865 20.62C157.742 20.62 158.47 20.4147 159.049 20.004C159.627 19.5747 160.001 19.024 160.169 18.352H163.445C163.333 19.36 162.978 20.2373 162.381 20.984C161.783 21.712 161.009 22.272 160.057 22.664C159.105 23.056 158.041 23.252 156.865 23.252ZM153.169 14.404L152.861 14.04H160.449L160.113 14.432C160.15 13.5173 160.029 12.7707 159.749 12.192C159.469 11.6133 159.067 11.184 158.545 10.904C158.022 10.624 157.415 10.484 156.725 10.484C156.015 10.484 155.399 10.6333 154.877 10.932C154.354 11.2307 153.943 11.6787 153.645 12.276C153.346 12.8547 153.187 13.564 153.169 14.404ZM171.804 23.28C170.479 23.28 169.34 23.0747 168.388 22.664C167.436 22.2347 166.699 21.6467 166.176 20.9C165.672 20.1533 165.42 19.2853 165.42 18.296H168.864C168.883 19.1547 169.172 19.78 169.732 20.172C170.292 20.564 171.02 20.76 171.916 20.76C172.793 20.76 173.456 20.6013 173.904 20.284C174.371 19.948 174.604 19.4907 174.604 18.912C174.604 18.4453 174.501 18.0907 174.296 17.848C174.091 17.5867 173.755 17.3907 173.288 17.26C172.821 17.1107 172.205 16.98 171.44 16.868C170.189 16.6813 169.144 16.4293 168.304 16.112C167.464 15.776 166.839 15.3187 166.428 14.74C166.017 14.1613 165.812 13.396 165.812 12.444C165.812 11.5107 166.064 10.6987 166.568 10.008C167.072 9.31733 167.781 8.78533 168.696 8.412C169.611 8.02 170.684 7.824 171.916 7.824C173.111 7.824 174.147 8.02 175.024 8.412C175.92 8.78533 176.611 9.32667 177.096 10.036C177.6 10.7267 177.861 11.5573 177.88 12.528H174.436C174.436 12.0053 174.324 11.5853 174.1 11.268C173.895 10.932 173.596 10.6893 173.204 10.54C172.812 10.3907 172.355 10.316 171.832 10.316C171.048 10.316 170.432 10.484 169.984 10.82C169.536 11.1373 169.312 11.576 169.312 12.136C169.312 12.5467 169.424 12.8827 169.648 13.144C169.891 13.3867 170.273 13.5827 170.796 13.732C171.319 13.8813 171.991 14.012 172.812 14.124C173.708 14.2547 174.483 14.4227 175.136 14.628C175.808 14.8333 176.368 15.1133 176.816 15.468C177.264 15.804 177.6 16.2333 177.824 16.756C178.067 17.26 178.188 17.876 178.188 18.604C178.188 20.0973 177.6 21.2547 176.424 22.076C175.267 22.8787 173.727 23.28 171.804 23.28ZM192.698 0.795999V27.676H185.502V24.988H189.422V3.456H185.502V0.795999H192.698Z" fill="#FF7500"/>
</svg>
