<svg width="120" height="72" viewBox="0 0 120 78" fill="none" xmlns="http://www.w3.org/2000/svg">
<path d="M5.994 13.4721C4.83 13.4721 3.852 13.2921 3.06 12.9321C2.28 12.5721 1.692 12.0681 1.296 11.4201C0.9 10.7721 0.696 10.0341 0.684 9.20606H3.114C3.126 9.69806 3.234 10.1241 3.438 10.4841C3.654 10.8441 3.978 11.1261 4.41 11.3301C4.842 11.5341 5.4 11.6361 6.084 11.6361C6.9 11.6361 7.554 11.4861 8.046 11.1861C8.538 10.8741 8.784 10.4181 8.784 9.81806C8.784 9.47006 8.73 9.18206 8.622 8.95406C8.514 8.71406 8.334 8.51606 8.082 8.36006C7.83 8.20406 7.494 8.07206 7.074 7.96406C6.666 7.85606 6.15 7.74806 5.526 7.64006C4.782 7.52006 4.122 7.36406 3.546 7.17206C2.982 6.96806 2.508 6.72206 2.124 6.43406C1.74 6.14606 1.452 5.79806 1.26 5.39006C1.068 4.97006 0.972 4.47206 0.972 3.89606C0.972 3.10406 1.17 2.42006 1.566 1.84406C1.974 1.26806 2.55 0.824058 3.294 0.512058C4.038 0.188058 4.926 0.026058 5.958 0.026058C6.978 0.026058 7.848 0.188058 8.568 0.512058C9.3 0.836058 9.864 1.29206 10.26 1.88006C10.656 2.45606 10.854 3.12806 10.854 3.89606H8.46C8.436 3.42806 8.31 3.04406 8.082 2.74406C7.854 2.43206 7.548 2.20406 7.164 2.06006C6.792 1.91606 6.36 1.84406 5.868 1.84406C5.364 1.84406 4.926 1.91606 4.554 2.06006C4.194 2.20406 3.918 2.40806 3.726 2.67206C3.534 2.92406 3.438 3.23006 3.438 3.59006C3.438 4.03406 3.546 4.37606 3.762 4.61606C3.99 4.84406 4.35 5.02406 4.842 5.15606C5.346 5.28806 5.994 5.42006 6.786 5.55206C7.35 5.64806 7.896 5.76806 8.424 5.91206C8.964 6.05606 9.444 6.27206 9.864 6.56006C10.296 6.83606 10.638 7.22006 10.89 7.71206C11.142 8.19206 11.268 8.81606 11.268 9.58406C11.268 10.3521 11.07 11.0301 10.674 11.6181C10.278 12.2061 9.69 12.6621 8.91 12.9861C8.13 13.3101 7.158 13.4721 5.994 13.4721ZM17.1899 13.4721C16.2179 13.4721 15.3899 13.2741 14.7059 12.8781C14.0339 12.4701 13.5179 11.9001 13.1579 11.1681C12.7979 10.4241 12.6179 9.56006 12.6179 8.57606C12.6179 7.55606 12.7979 6.67406 13.1579 5.93006C13.5179 5.17406 14.0339 4.59206 14.7059 4.18406C15.3779 3.77606 16.1759 3.57206 17.0999 3.57206C18.1559 3.57206 19.0199 3.80606 19.6919 4.27406C20.3759 4.73006 20.8679 5.36606 21.1679 6.18206C21.4679 6.99806 21.5699 7.93406 21.4739 8.99006H14.8139C14.8139 9.60206 14.9099 10.1181 15.1019 10.5381C15.3059 10.9461 15.5819 11.2581 15.9299 11.4741C16.2899 11.6781 16.7099 11.7801 17.1899 11.7801C17.7539 11.7801 18.2219 11.6481 18.5939 11.3841C18.9659 11.1081 19.2059 10.7541 19.3139 10.3221H21.4199C21.3479 10.9701 21.1199 11.5341 20.7359 12.0141C20.3519 12.4821 19.8539 12.8421 19.2419 13.0941C18.6299 13.3461 17.9459 13.4721 17.1899 13.4721ZM14.8139 7.78406L14.6159 7.55006H19.4939L19.2779 7.80206C19.3019 7.21406 19.2239 6.73406 19.0439 6.36206C18.8639 5.99006 18.6059 5.71406 18.2699 5.53406C17.9339 5.35406 17.5439 5.26406 17.0999 5.26406C16.6439 5.26406 16.2479 5.36006 15.9119 5.55206C15.5759 5.74406 15.3119 6.03206 15.1199 6.41606C14.9279 6.78806 14.8259 7.24406 14.8139 7.78406ZM23.3017 13.3101V3.73406H25.3357L25.4437 5.33606H25.5157C25.7317 4.72406 26.0797 4.28606 26.5597 4.02206C27.0517 3.74606 27.6097 3.60806 28.2337 3.60806C28.3417 3.60806 28.4377 3.60806 28.5217 3.60806C28.6177 3.60806 28.7077 3.60806 28.7917 3.60806V5.73206C28.7197 5.73206 28.6297 5.73206 28.5217 5.73206C28.4257 5.72006 28.3177 5.71406 28.1977 5.71406C27.6217 5.71406 27.1417 5.81006 26.7577 6.00206C26.3737 6.18206 26.0797 6.44606 25.8757 6.79406C25.6837 7.14206 25.5757 7.56806 25.5517 8.07206V13.3101H23.3017ZM34.1205 13.4721C33.4125 13.4721 32.7705 13.3581 32.1945 13.1301C31.6185 12.8901 31.1205 12.5541 30.7005 12.1221C30.2805 11.6781 29.9625 11.1561 29.7465 10.5561C29.5305 9.94406 29.4225 9.26606 29.4225 8.52206C29.4225 7.51406 29.6145 6.64406 29.9985 5.91206C30.3945 5.16806 30.9465 4.59206 31.6545 4.18406C32.3745 3.76406 33.2205 3.55406 34.1925 3.55406C34.9965 3.55406 35.7105 3.70406 36.3345 4.00406C36.9585 4.30406 37.4565 4.72406 37.8285 5.26406C38.2125 5.79206 38.4225 6.41006 38.4585 7.11806H36.2625C36.2025 6.74606 36.0705 6.43406 35.8665 6.18206C35.6745 5.93006 35.4285 5.73806 35.1285 5.60606C34.8285 5.47406 34.4985 5.40806 34.1385 5.40806C33.6225 5.40806 33.1785 5.54006 32.8065 5.80406C32.4345 6.05606 32.1525 6.41606 31.9605 6.88406C31.7805 7.35206 31.6905 7.89806 31.6905 8.52206C31.6905 9.20606 31.7925 9.77606 31.9965 10.2321C32.2005 10.6881 32.4825 11.0361 32.8425 11.2761C33.2145 11.5041 33.6405 11.6181 34.1205 11.6181C34.5405 11.6181 34.9065 11.5461 35.2185 11.4021C35.5305 11.2461 35.7765 11.0361 35.9565 10.7721C36.1485 10.4961 36.2625 10.1841 36.2985 9.83606H38.4945C38.4465 10.5681 38.2305 11.2101 37.8465 11.7621C37.4625 12.3021 36.9525 12.7221 36.3165 13.0221C35.6805 13.3221 34.9485 13.4721 34.1205 13.4721ZM40.247 13.3101V0.188058H42.497V5.55206H42.605C42.881 4.88006 43.301 4.38206 43.865 4.05806C44.429 3.72206 45.059 3.55406 45.755 3.55406C46.235 3.55406 46.679 3.63206 47.087 3.78806C47.507 3.93206 47.867 4.16606 48.167 4.49006C48.479 4.80206 48.719 5.21606 48.887 5.73206C49.067 6.23606 49.157 6.84806 49.157 7.56806V13.3101H46.907V8.05406C46.907 7.45406 46.835 6.96206 46.691 6.57806C46.547 6.18206 46.325 5.88806 46.025 5.69606C45.737 5.50406 45.359 5.40806 44.891 5.40806C44.387 5.40806 43.955 5.52806 43.595 5.76806C43.247 6.00806 42.977 6.32606 42.785 6.72206C42.593 7.11806 42.497 7.55606 42.497 8.03606V13.3101H40.247ZM55.4574 13.4721C54.4854 13.4721 53.6574 13.2741 52.9734 12.8781C52.3014 12.4701 51.7854 11.9001 51.4254 11.1681C51.0654 10.4241 50.8854 9.56006 50.8854 8.57606C50.8854 7.55606 51.0654 6.67406 51.4254 5.93006C51.7854 5.17406 52.3014 4.59206 52.9734 4.18406C53.6454 3.77606 54.4434 3.57206 55.3674 3.57206C56.4234 3.57206 57.2874 3.80606 57.9594 4.27406C58.6434 4.73006 59.1354 5.36606 59.4354 6.18206C59.7354 6.99806 59.8374 7.93406 59.7414 8.99006H53.0814C53.0814 9.60206 53.1774 10.1181 53.3694 10.5381C53.5734 10.9461 53.8494 11.2581 54.1974 11.4741C54.5574 11.6781 54.9774 11.7801 55.4574 11.7801C56.0214 11.7801 56.4894 11.6481 56.8614 11.3841C57.2334 11.1081 57.4734 10.7541 57.5814 10.3221H59.6874C59.6154 10.9701 59.3874 11.5341 59.0034 12.0141C58.6194 12.4821 58.1214 12.8421 57.5094 13.0941C56.8974 13.3461 56.2134 13.4721 55.4574 13.4721ZM53.0814 7.78406L52.8834 7.55006H57.7614L57.5454 7.80206C57.5694 7.21406 57.4914 6.73406 57.3114 6.36206C57.1314 5.99006 56.8734 5.71406 56.5374 5.53406C56.2014 5.35406 55.8114 5.26406 55.3674 5.26406C54.9114 5.26406 54.5154 5.36006 54.1794 5.55206C53.8434 5.74406 53.5794 6.03206 53.3874 6.41606C53.1954 6.78806 53.0934 7.24406 53.0814 7.78406ZM61.5693 13.3101V3.73406H63.7293L63.8193 5.55206H63.9273C64.2033 4.88006 64.6233 4.38206 65.1873 4.05806C65.7513 3.72206 66.3813 3.55406 67.0773 3.55406C67.5573 3.55406 68.0013 3.63206 68.4093 3.78806C68.8293 3.93206 69.1893 4.16606 69.4893 4.49006C69.8013 4.80206 70.0413 5.21606 70.2093 5.73206C70.3893 6.23606 70.4793 6.84806 70.4793 7.56806V13.3101H68.2293V8.05406C68.2293 7.45406 68.1573 6.96206 68.0133 6.57806C67.8693 6.18206 67.6473 5.88806 67.3473 5.69606C67.0593 5.50406 66.6813 5.40806 66.2133 5.40806C65.7093 5.40806 65.2773 5.52806 64.9173 5.76806C64.5693 6.00806 64.2993 6.32606 64.1073 6.72206C63.9153 7.11806 63.8193 7.55606 63.8193 8.03606V13.3101H61.5693Z" fill="#454545"/>
<g clip-path="url(#clip0_0_1)">
<mask id="mask0_0_1" style="mask-type:luminance" maskUnits="userSpaceOnUse" x="0" y="27" width="23" height="22">
<path d="M22.5023 35.3689L14.3403 34.8411L11.2578 27.11L8.1753 34.8411L0.03125 35.3689L6.28022 40.689L4.22921 48.75L11.2578 44.2996L18.2864 48.75L16.2354 40.689L22.5023 35.3689Z" fill="white"/>
</mask>
<g mask="url(#mask0_0_1)">
<path d="M110.378 27.11H0.03125V48.75H110.378V27.11Z" fill="#73CF11"/>
</g>
<mask id="mask1_0_1" style="mask-type:luminance" maskUnits="userSpaceOnUse" x="24" y="27" width="23" height="22">
<path d="M46.8695 35.3689L38.7075 34.8411L35.625 27.11L32.5485 34.8411L24.3984 35.3689L30.6474 40.689L28.5964 48.75L35.625 44.2996L42.6596 48.75L40.6026 40.689L46.8695 35.3689Z" fill="white"/>
</mask>
<g mask="url(#mask1_0_1)">
<path d="M110.378 27.11H0.03125V48.75H110.378V27.11Z" fill="#73CF11"/>
</g>
<mask id="mask2_0_1" style="mask-type:luminance" maskUnits="userSpaceOnUse" x="48" y="27" width="24" height="22">
<path d="M71.2385 35.3689L63.0765 34.8411L60 27.11L56.9175 34.8411L48.7734 35.3689L55.0224 40.689L52.9654 48.75L60 44.2996L67.0286 48.75L64.9716 40.689L71.2385 35.3689Z" fill="white"/>
</mask>
<g mask="url(#mask2_0_1)">
<path d="M110.378 27.11H0.03125V48.75H110.378V27.11Z" fill="#73CF11"/>
</g>
<mask id="mask3_0_1" style="mask-type:luminance" maskUnits="userSpaceOnUse" x="73" y="27" width="23" height="22">
<path d="M95.6117 35.3689L87.4497 34.8411L84.3672 27.11L81.2847 34.8411L73.1406 35.3689L79.3896 40.689L77.3326 48.75L84.3672 44.2996L91.3958 48.75L89.3448 40.689L95.6117 35.3689Z" fill="white"/>
</mask>
<g mask="url(#mask3_0_1)">
<path d="M110.378 27.11H0.03125V48.75H110.378V27.11Z" fill="#73CF11"/>
</g>
<mask id="mask4_0_1" style="mask-type:luminance" maskUnits="userSpaceOnUse" x="97" y="27" width="23" height="22">
<path d="M119.971 35.3689L111.809 34.8411L108.727 27.11L105.644 34.8411L97.5 35.3689L103.749 40.689L101.698 48.75L108.727 44.2996L115.755 48.75L113.704 40.689L119.971 35.3689Z" fill="white"/>
</mask>
<g mask="url(#mask4_0_1)">
<path d="M110.378 27.11H0.03125V48.75H110.378V27.11Z" fill="#73CF11"/>
</g>
<path d="M11.2578 28.7294L13.7826 35.063L13.9205 35.4169L14.2983 35.4409L20.9791 35.8727L15.8456 40.2331L15.5577 40.473L15.6477 40.8389L17.3269 47.4365L11.5697 43.7898L11.2518 43.5859L10.934 43.7898L5.17675 47.4365L6.85594 40.8389L6.94589 40.479L6.66403 40.2391L1.54252 35.8787L8.21128 35.4469L8.5891 35.4229L8.72703 35.069L11.2578 28.7294ZM11.2578 27.11L8.1753 34.8411L0.03125 35.3689L6.28022 40.689L4.22921 48.75L11.2578 44.2996L18.2864 48.75L16.2354 40.689L22.5023 35.3689L14.3403 34.8411L11.2578 27.11Z" fill="#73CF11"/>
<path d="M35.625 28.7294L38.1498 35.063L38.2877 35.4169L38.6655 35.4409L45.3463 35.8727L40.2128 40.2331L39.9249 40.473L40.0149 40.8389L41.694 47.4365L35.9368 43.7898L35.619 43.5859L35.3011 43.7898L29.5439 47.4365L31.2231 40.8389L31.3131 40.479L31.0312 40.2391L25.9097 35.8787L32.5785 35.4469L32.9563 35.4229L33.0942 35.069L35.625 28.7294ZM35.625 27.11L32.5425 34.8411L24.3984 35.3689L30.6474 40.689L28.5964 48.75L35.625 44.2996L42.6536 48.75L40.6026 40.689L46.8695 35.3689L38.7075 34.8411L35.625 27.11Z" fill="#73CF11"/>
<path d="M60 28.7294L62.5248 35.063L62.6627 35.4169L63.0405 35.4409L69.7213 35.8727L64.5878 40.2331L64.2999 40.473L64.3899 40.8389L66.069 47.4365L60.3118 43.7898L59.994 43.5859L59.6761 43.7898L53.9189 47.4365L55.5981 40.8389L55.6881 40.479L55.4062 40.2391L50.2847 35.8787L56.9535 35.4469L57.3313 35.4229L57.4692 35.069L60 28.7294ZM60 27.11L56.9175 34.8411L48.7734 35.3689L55.0224 40.689L52.9714 48.75L60 44.2996L67.0286 48.75L64.9776 40.689L71.2445 35.3689L63.0825 34.8411L60 27.11Z" fill="#73CF11"/>
<path d="M84.3672 28.7294L86.892 35.063L87.0299 35.4169L87.4077 35.4409L94.0885 35.8727L88.955 40.2331L88.6671 40.473L88.757 40.8389L90.4362 47.4365L84.679 43.7898L84.3612 43.5859L84.0433 43.7898L78.2861 47.4365L79.9653 40.8389L80.0553 40.479L79.7734 40.2391L74.6519 35.8787L81.3207 35.4469L81.6985 35.4229L81.8364 35.069L84.3672 28.7294ZM84.3672 27.11L81.2847 34.8411L73.1406 35.3689L79.3896 40.689L77.3386 48.75L84.3672 44.2996L91.3958 48.75L89.3448 40.689L95.6117 35.3689L87.4497 34.8411L84.3672 27.11Z" fill="#73CF11"/>
<path d="M108.727 28.7294L111.251 35.063L111.389 35.4169L111.767 35.4409L118.448 35.8727L113.314 40.2331L113.026 40.473L113.116 40.8389L114.796 47.4365L109.038 43.7898L108.721 43.5859L108.403 43.7898L102.646 47.4365L104.325 40.8389L104.415 40.479L104.133 40.2391L99.0113 35.8787L105.68 35.4469L106.058 35.4229L106.196 35.069L108.727 28.7294ZM108.727 27.11L105.644 34.8411L97.5 35.3689L103.749 40.689L101.698 48.75L108.727 44.2996L115.755 48.75L113.704 40.689L119.971 35.3689L111.809 34.8411L108.727 27.11Z" fill="#73CF11"/>
</g>
<path d="M5.25 76.75L5.236 74.44H0.518V72.9L4.746 66.656H7.308V72.76H8.624L8.61 74.44H7.308V76.75H5.25ZM2.562 72.76H5.25V68.854L2.562 72.76ZM9.87383 76.75V74.86H11.8478V76.75H9.87383ZM17.0308 76.876C16.4241 76.876 15.8828 76.778 15.4068 76.582C14.9308 76.3767 14.5248 76.0687 14.1888 75.658C13.8621 75.2473 13.6101 74.734 13.4328 74.118C13.2648 73.502 13.1808 72.774 13.1808 71.934C13.1808 71.0193 13.2648 70.226 13.4328 69.554C13.6101 68.8727 13.8668 68.308 14.2028 67.86C14.5388 67.412 14.9541 67.0807 15.4488 66.866C15.9434 66.642 16.5128 66.53 17.1568 66.53C17.8381 66.53 18.4261 66.6467 18.9208 66.88C19.4248 67.104 19.8214 67.4213 20.1108 67.832C20.4094 68.2427 20.5868 68.728 20.6428 69.288H18.6408C18.6034 69.0827 18.5148 68.9053 18.3748 68.756C18.2348 68.6067 18.0574 68.4947 17.8428 68.42C17.6374 68.3453 17.4041 68.308 17.1428 68.308C16.7974 68.308 16.5034 68.378 16.2608 68.518C16.0274 68.6487 15.8361 68.84 15.6868 69.092C15.5374 69.344 15.4301 69.652 15.3648 70.016C15.2994 70.3707 15.2668 70.7767 15.2668 71.234H15.3508C15.4721 71.0007 15.6354 70.7953 15.8408 70.618C16.0554 70.4407 16.3121 70.3053 16.6108 70.212C16.9094 70.1093 17.2361 70.058 17.5908 70.058C18.2254 70.058 18.7761 70.198 19.2428 70.478C19.7188 70.758 20.0874 71.15 20.3488 71.654C20.6101 72.1487 20.7408 72.7273 20.7408 73.39C20.7408 74.1273 20.5821 74.7573 20.2648 75.28C19.9568 75.7933 19.5228 76.19 18.9628 76.47C18.4121 76.7407 17.7681 76.876 17.0308 76.876ZM17.0728 75.084C17.3994 75.084 17.6841 75.014 17.9268 74.874C18.1694 74.7247 18.3561 74.5193 18.4868 74.258C18.6174 73.9967 18.6828 73.6887 18.6828 73.334C18.6828 72.9793 18.6174 72.676 18.4868 72.424C18.3561 72.1627 18.1694 71.962 17.9268 71.822C17.6934 71.682 17.4088 71.612 17.0728 71.612C16.7461 71.612 16.4568 71.6867 16.2048 71.836C15.9621 71.9853 15.7754 72.1907 15.6448 72.452C15.5141 72.7133 15.4488 73.0167 15.4488 73.362C15.4488 73.7167 15.5141 74.0247 15.6448 74.286C15.7848 74.538 15.9761 74.734 16.2188 74.874C16.4614 75.014 16.7461 75.084 17.0728 75.084ZM21.7208 77.898L25.8928 66.544H27.8668L23.6808 77.898H21.7208ZM32.9142 76.876C32.1676 76.876 31.5236 76.7453 30.9822 76.484C30.4409 76.2133 30.0162 75.84 29.7082 75.364C29.4096 74.8787 29.2509 74.3187 29.2322 73.684H31.3182C31.3276 73.964 31.3976 74.2113 31.5282 74.426C31.6682 74.6313 31.8549 74.7947 32.0882 74.916C32.3309 75.028 32.6109 75.084 32.9282 75.084C33.4509 75.084 33.8569 74.93 34.1462 74.622C34.4449 74.3047 34.5942 73.8987 34.5942 73.404C34.5942 73.0587 34.5242 72.7553 34.3842 72.494C34.2536 72.2327 34.0622 72.032 33.8102 71.892C33.5582 71.7427 33.2596 71.668 32.9142 71.668C32.5129 71.668 32.1816 71.7613 31.9202 71.948C31.6682 72.1253 31.4909 72.354 31.3882 72.634H29.4282L29.6942 66.656H36.0782V68.448H31.5142L31.4162 70.562L31.5002 70.59C31.6962 70.394 31.9622 70.24 32.2982 70.128C32.6342 70.016 32.9889 69.96 33.3622 69.96C33.8756 69.96 34.3329 70.044 34.7342 70.212C35.1449 70.3707 35.4949 70.604 35.7842 70.912C36.0736 71.2107 36.2929 71.57 36.4422 71.99C36.6009 72.4007 36.6802 72.8533 36.6802 73.348C36.6802 74.048 36.5262 74.664 36.2182 75.196C35.9196 75.728 35.4856 76.1433 34.9162 76.442C34.3562 76.7313 33.6889 76.876 32.9142 76.876ZM41.4247 77.688V66.544H43.2867V77.688H41.4247ZM51.8667 76.876C51.2601 76.876 50.7187 76.778 50.2427 76.582C49.7667 76.3767 49.3607 76.0687 49.0247 75.658C48.6981 75.2473 48.4461 74.734 48.2687 74.118C48.1007 73.502 48.0167 72.774 48.0167 71.934C48.0167 71.0193 48.1007 70.226 48.2687 69.554C48.4461 68.8727 48.7027 68.308 49.0387 67.86C49.3747 67.412 49.7901 67.0807 50.2847 66.866C50.7794 66.642 51.3487 66.53 51.9927 66.53C52.6741 66.53 53.2621 66.6467 53.7567 66.88C54.2607 67.104 54.6574 67.4213 54.9467 67.832C55.2454 68.2427 55.4227 68.728 55.4787 69.288H53.4767C53.4394 69.0827 53.3507 68.9053 53.2107 68.756C53.0707 68.6067 52.8934 68.4947 52.6787 68.42C52.4734 68.3453 52.2401 68.308 51.9787 68.308C51.6334 68.308 51.3394 68.378 51.0967 68.518C50.8634 68.6487 50.6721 68.84 50.5227 69.092C50.3734 69.344 50.2661 69.652 50.2007 70.016C50.1354 70.3707 50.1027 70.7767 50.1027 71.234H50.1867C50.3081 71.0007 50.4714 70.7953 50.6767 70.618C50.8914 70.4407 51.1481 70.3053 51.4467 70.212C51.7454 70.1093 52.0721 70.058 52.4267 70.058C53.0614 70.058 53.6121 70.198 54.0787 70.478C54.5547 70.758 54.9234 71.15 55.1847 71.654C55.4461 72.1487 55.5767 72.7273 55.5767 73.39C55.5767 74.1273 55.4181 74.7573 55.1007 75.28C54.7927 75.7933 54.3587 76.19 53.7987 76.47C53.2481 76.7407 52.6041 76.876 51.8667 76.876ZM51.9087 75.084C52.2354 75.084 52.5201 75.014 52.7627 74.874C53.0054 74.7247 53.1921 74.5193 53.3227 74.258C53.4534 73.9967 53.5187 73.6887 53.5187 73.334C53.5187 72.9793 53.4534 72.676 53.3227 72.424C53.1921 72.1627 53.0054 71.962 52.7627 71.822C52.5294 71.682 52.2447 71.612 51.9087 71.612C51.5821 71.612 51.2927 71.6867 51.0407 71.836C50.7981 71.9853 50.6114 72.1907 50.4807 72.452C50.3501 72.7133 50.2847 73.0167 50.2847 73.362C50.2847 73.7167 50.3501 74.0247 50.4807 74.286C50.6207 74.538 50.8121 74.734 51.0547 74.874C51.2974 75.014 51.5821 75.084 51.9087 75.084ZM56.6967 76.75V76.456C56.6967 75.8587 56.7854 75.3313 56.9627 74.874C57.1401 74.4167 57.3734 74.0153 57.6627 73.67C57.9614 73.3153 58.2834 73.0027 58.6287 72.732C58.9834 72.452 59.3334 72.1953 59.6787 71.962C60.0334 71.7193 60.3554 71.4813 60.6447 71.248C60.9434 71.0147 61.1814 70.772 61.3587 70.52C61.5361 70.2587 61.6247 69.9693 61.6247 69.652C61.6247 69.372 61.5641 69.1293 61.4427 68.924C61.3214 68.7187 61.1534 68.5647 60.9387 68.462C60.7334 68.35 60.4861 68.294 60.1967 68.294C59.8981 68.294 59.6321 68.3593 59.3987 68.49C59.1747 68.6113 59.0067 68.798 58.8947 69.05C58.7827 69.2927 58.7407 69.5913 58.7687 69.946H56.7247C56.7061 69.2553 56.8414 68.6533 57.1307 68.14C57.4294 67.6267 57.8494 67.23 58.3907 66.95C58.9414 66.67 59.5854 66.53 60.3227 66.53C61.0134 66.53 61.6154 66.6513 62.1287 66.894C62.6421 67.1367 63.0387 67.4867 63.3187 67.944C63.6081 68.392 63.7527 68.9287 63.7527 69.554C63.7527 69.9833 63.6827 70.366 63.5427 70.702C63.4121 71.038 63.2347 71.346 63.0107 71.626C62.7867 71.906 62.5347 72.1627 62.2547 72.396C61.9747 72.62 61.6854 72.8347 61.3867 73.04C61.0974 73.2453 60.8127 73.4507 60.5327 73.656C60.2621 73.852 60.0194 74.0573 59.8047 74.272C59.5901 74.4773 59.4267 74.7013 59.3147 74.944H63.8507V76.75H56.6967ZM67.3052 76.75V69.974H64.7572V68.406H65.1772C65.8492 68.406 66.3766 68.2473 66.7592 67.93C67.1512 67.6033 67.3706 67.1787 67.4172 66.656H69.3632V76.75H67.3052ZM74.8785 76.75V69.4H75.8865L75.9565 70.758H76.0125C76.1711 70.2913 76.4511 69.932 76.8525 69.68C77.2538 69.428 77.7018 69.302 78.1965 69.302C78.2805 69.302 78.3598 69.3067 78.4345 69.316C78.5091 69.316 78.5791 69.3207 78.6445 69.33V70.408C78.5791 70.3987 78.5091 70.394 78.4345 70.394C78.3598 70.3847 78.2805 70.38 78.1965 70.38C77.7671 70.38 77.3938 70.4593 77.0765 70.618C76.7591 70.7767 76.5071 71.0053 76.3205 71.304C76.1431 71.5933 76.0358 71.948 75.9985 72.368V76.75H74.8785ZM82.5186 76.876C81.8186 76.876 81.2166 76.722 80.7126 76.414C80.218 76.106 79.84 75.6673 79.5786 75.098C79.3173 74.5287 79.1866 73.866 79.1866 73.11C79.1866 72.3353 79.3173 71.6633 79.5786 71.094C79.84 70.5153 80.2133 70.072 80.6986 69.764C81.184 69.4467 81.7766 69.288 82.4766 69.288C83.2233 69.288 83.8393 69.456 84.3246 69.792C84.81 70.128 85.16 70.5947 85.3746 71.192C85.5986 71.7893 85.6826 72.48 85.6266 73.264H80.2926C80.302 73.8707 80.3953 74.3793 80.5726 74.79C80.7593 75.1913 81.016 75.4947 81.3426 75.7C81.6786 75.896 82.0706 75.994 82.5186 75.994C83.06 75.994 83.5033 75.8587 83.8486 75.588C84.194 75.3173 84.4133 74.9627 84.5066 74.524H85.5846C85.5286 75.0187 85.356 75.4433 85.0666 75.798C84.7866 76.1527 84.4226 76.4233 83.9746 76.61C83.536 76.7873 83.0506 76.876 82.5186 76.876ZM80.3066 72.62L80.1806 72.452H84.6466L84.5206 72.648C84.53 72.06 84.4506 71.5887 84.2826 71.234C84.1146 70.87 83.872 70.604 83.5546 70.436C83.2466 70.2587 82.8873 70.17 82.4766 70.17C82.0473 70.17 81.674 70.2633 81.3566 70.45C81.0393 70.6367 80.7873 70.912 80.6006 71.276C80.4233 71.6307 80.3253 72.0787 80.3066 72.62ZM88.6968 76.75L85.9948 69.4H87.2268L88.8788 74.23L89.3688 75.742H89.4108L89.8728 74.23L91.5248 69.4H92.7428L90.0688 76.75H88.6968ZM93.7456 76.75V69.4H94.8796V76.75H93.7456ZM93.7456 68.182V66.544H94.8796V68.182H93.7456ZM99.8272 76.876C99.1272 76.876 98.5252 76.722 98.0212 76.414C97.5266 76.106 97.1486 75.6673 96.8872 75.098C96.6259 74.5287 96.4952 73.866 96.4952 73.11C96.4952 72.3353 96.6259 71.6633 96.8872 71.094C97.1486 70.5153 97.5219 70.072 98.0072 69.764C98.4926 69.4467 99.0852 69.288 99.7852 69.288C100.532 69.288 101.148 69.456 101.633 69.792C102.119 70.128 102.469 70.5947 102.683 71.192C102.907 71.7893 102.991 72.48 102.935 73.264H97.6012C97.6106 73.8707 97.7039 74.3793 97.8812 74.79C98.0679 75.1913 98.3246 75.4947 98.6512 75.7C98.9872 75.896 99.3792 75.994 99.8272 75.994C100.369 75.994 100.812 75.8587 101.157 75.588C101.503 75.3173 101.722 74.9627 101.815 74.524H102.893C102.837 75.0187 102.665 75.4433 102.375 75.798C102.095 76.1527 101.731 76.4233 101.283 76.61C100.845 76.7873 100.359 76.876 99.8272 76.876ZM97.6152 72.62L97.4892 72.452H101.955L101.829 72.648C101.839 72.06 101.759 71.5887 101.591 71.234C101.423 70.87 101.181 70.604 100.863 70.436C100.555 70.2587 100.196 70.17 99.7852 70.17C99.3559 70.17 98.9826 70.2633 98.6652 70.45C98.3479 70.6367 98.0959 70.912 97.9092 71.276C97.7319 71.6307 97.6339 72.0787 97.6152 72.62ZM105.348 76.75L103.458 69.4H104.592L106.146 75.658H106.202L107.616 69.4H108.988L110.486 75.658H110.528L112.054 69.4H113.146L111.256 76.75H109.758L108.302 70.828H108.246L106.888 76.75H105.348ZM116.594 76.89C115.969 76.89 115.428 76.7873 114.97 76.582C114.522 76.3767 114.177 76.092 113.934 75.728C113.701 75.364 113.584 74.9393 113.584 74.454H114.718C114.718 74.9953 114.891 75.3967 115.236 75.658C115.591 75.91 116.053 76.036 116.622 76.036C117.192 76.036 117.626 75.9287 117.924 75.714C118.232 75.4993 118.386 75.196 118.386 74.804C118.386 74.5053 118.321 74.2767 118.19 74.118C118.06 73.95 117.859 73.8193 117.588 73.726C117.318 73.6327 116.963 73.5533 116.524 73.488C115.918 73.404 115.409 73.2873 114.998 73.138C114.597 72.9887 114.294 72.7787 114.088 72.508C113.892 72.228 113.794 71.864 113.794 71.416C113.794 70.9867 113.911 70.6133 114.144 70.296C114.378 69.9693 114.704 69.7173 115.124 69.54C115.544 69.3533 116.034 69.26 116.594 69.26C117.182 69.26 117.682 69.358 118.092 69.554C118.512 69.7407 118.83 70.0067 119.044 70.352C119.268 70.688 119.385 71.0893 119.394 71.556H118.288C118.279 71.2107 118.2 70.9353 118.05 70.73C117.91 70.5247 117.714 70.3753 117.462 70.282C117.22 70.1793 116.926 70.128 116.58 70.128C116.058 70.128 115.652 70.2353 115.362 70.45C115.073 70.6647 114.928 70.9493 114.928 71.304C114.928 71.5747 114.998 71.794 115.138 71.962C115.278 72.1207 115.493 72.2467 115.782 72.34C116.072 72.424 116.445 72.4987 116.902 72.564C117.313 72.62 117.682 72.6947 118.008 72.788C118.335 72.8813 118.61 73.012 118.834 73.18C119.068 73.3387 119.24 73.544 119.352 73.796C119.474 74.0387 119.534 74.342 119.534 74.706C119.534 75.406 119.264 75.9473 118.722 76.33C118.19 76.7033 117.481 76.89 116.594 76.89Z" fill="#454545"/>
<defs>
<clipPath id="clip0_0_1">
<rect width="120" height="21.64" fill="white" transform="translate(0 27.11)"/>
</clipPath>
</defs>
</svg>
