<svg width="136" height="87" viewBox="0 0 136 87" fill="none" xmlns="http://www.w3.org/2000/svg">
<path d="M2.40604 18.8151V5.69306H4.78204V11.4531L4.47604 11.1471H11.856L11.55 11.4531V5.69306H13.926V18.8151H11.55V12.8751L11.856 13.1811H4.47604L4.78204 12.8751V18.8151H2.40604ZM20.7776 18.9771C20.0576 18.9771 19.4096 18.8691 18.8336 18.6531C18.2576 18.4251 17.7536 18.0951 17.3216 17.6631C16.9016 17.2311 16.5776 16.7091 16.3496 16.0971C16.1336 15.4851 16.0256 14.7951 16.0256 14.0271C16.0256 13.0431 16.2116 12.1791 16.5836 11.4351C16.9676 10.6911 17.5136 10.1091 18.2216 9.68906C18.9296 9.26906 19.7816 9.05906 20.7776 9.05906C21.4856 9.05906 22.1276 9.17306 22.7036 9.40106C23.2796 9.62906 23.7716 9.95906 24.1796 10.3911C24.5996 10.8231 24.9236 11.3451 25.1516 11.9571C25.3796 12.5571 25.4936 13.2471 25.4936 14.0271C25.4936 14.9991 25.3016 15.8571 24.9176 16.6011C24.5456 17.3451 24.0056 17.9271 23.2976 18.3471C22.6016 18.7671 21.7616 18.9771 20.7776 18.9771ZM20.7596 17.1231C21.2516 17.1231 21.6836 17.0091 22.0556 16.7811C22.4276 16.5411 22.7156 16.1931 22.9196 15.7371C23.1236 15.2691 23.2256 14.6991 23.2256 14.0271C23.2256 13.5231 23.1656 13.0791 23.0456 12.6951C22.9376 12.2991 22.7756 11.9691 22.5596 11.7051C22.3436 11.4411 22.0856 11.2431 21.7856 11.1111C21.4856 10.9791 21.1496 10.9131 20.7776 10.9131C20.2856 10.9131 19.8476 11.0331 19.4636 11.2731C19.0916 11.5011 18.8036 11.8491 18.5996 12.3171C18.3956 12.7731 18.2936 13.3431 18.2936 14.0271C18.2936 14.5311 18.3476 14.9811 18.4556 15.3771C18.5756 15.7611 18.7436 16.0851 18.9596 16.3491C19.1756 16.6011 19.4336 16.7931 19.7336 16.9251C20.0456 17.0571 20.3876 17.1231 20.7596 17.1231ZM30.7991 18.9951C29.9471 18.9951 29.2151 18.8631 28.6031 18.5991C27.9911 18.3231 27.5171 17.9451 27.1811 17.4651C26.8571 16.9851 26.6951 16.4271 26.6951 15.7911H28.9091C28.9211 16.3431 29.1071 16.7451 29.4671 16.9971C29.8271 17.2491 30.2951 17.3751 30.8711 17.3751C31.4351 17.3751 31.8611 17.2731 32.1491 17.0691C32.4491 16.8531 32.5991 16.5591 32.5991 16.1871C32.5991 15.8871 32.5331 15.6591 32.4011 15.5031C32.2691 15.3351 32.0531 15.2091 31.7531 15.1251C31.4531 15.0291 31.0571 14.9451 30.5651 14.8731C29.7611 14.7531 29.0891 14.5911 28.5491 14.3871C28.0091 14.1711 27.6071 13.8771 27.3431 13.5051C27.0791 13.1331 26.9471 12.6411 26.9471 12.0291C26.9471 11.4291 27.1091 10.9071 27.4331 10.4631C27.7571 10.0191 28.2131 9.67706 28.8011 9.43706C29.3891 9.18506 30.0791 9.05906 30.8711 9.05906C31.6391 9.05906 32.3051 9.18506 32.8691 9.43706C33.4451 9.67706 33.8891 10.0251 34.2011 10.4811C34.5251 10.9251 34.6931 11.4591 34.7051 12.0831H32.4911C32.4911 11.7471 32.4191 11.4771 32.2751 11.2731C32.1431 11.0571 31.9511 10.9011 31.6991 10.8051C31.4471 10.7091 31.1531 10.6611 30.8171 10.6611C30.3131 10.6611 29.9171 10.7691 29.6291 10.9851C29.3411 11.1891 29.1971 11.4711 29.1971 11.8311C29.1971 12.0951 29.2691 12.3111 29.4131 12.4791C29.5691 12.6351 29.8151 12.7611 30.1511 12.8571C30.4871 12.9531 30.9191 13.0371 31.4471 13.1091C32.0231 13.1931 32.5211 13.3011 32.9411 13.4331C33.3731 13.5651 33.7331 13.7451 34.0211 13.9731C34.3091 14.1891 34.5251 14.4651 34.6691 14.8011C34.8251 15.1251 34.9031 15.5211 34.9031 15.9891C34.9031 16.9491 34.5251 17.6931 33.7691 18.2211C33.0251 18.7371 32.0351 18.9951 30.7991 18.9951ZM39.6989 18.8151C39.1109 18.8151 38.6489 18.7311 38.3129 18.5631C37.9889 18.3831 37.7609 18.1311 37.6289 17.8071C37.4969 17.4831 37.4309 17.0931 37.4309 16.6371V11.0571H35.6669V9.23906H37.4309V6.53906L39.6629 6.30506V9.23906H41.6969V11.0571H39.6629V16.2231C39.6629 16.5231 39.7289 16.7271 39.8609 16.8351C39.9929 16.9311 40.1969 16.9791 40.4729 16.9791H41.6969V18.8151H39.6989ZM46.4381 18.9771C45.8621 18.9771 45.3341 18.8751 44.8541 18.6711C44.3861 18.4551 43.9781 18.1371 43.6301 17.7171C43.2941 17.2971 43.0361 16.7811 42.8561 16.1691C42.6761 15.5451 42.5861 14.8311 42.5861 14.0271C42.5861 12.9351 42.7421 12.0231 43.0541 11.2911C43.3781 10.5471 43.8281 9.98906 44.4041 9.61706C44.9921 9.24506 45.6701 9.05906 46.4381 9.05906C46.9661 9.05906 47.4341 9.14306 47.8421 9.31106C48.2621 9.46706 48.6221 9.68906 48.9221 9.97706C49.2221 10.2651 49.4501 10.6071 49.6061 11.0031H49.7321L49.8221 9.23906H51.9821V18.8151H49.7321V17.0331H49.6061C49.3781 17.6211 48.9881 18.0951 48.4361 18.4551C47.8841 18.8031 47.2181 18.9771 46.4381 18.9771ZM47.2841 17.1411C47.8241 17.1411 48.2681 17.0151 48.6161 16.7631C48.9761 16.5111 49.2461 16.1871 49.4261 15.7911C49.6061 15.3831 49.6961 14.9571 49.6961 14.5131V13.5231C49.6961 13.0671 49.6061 12.6411 49.4261 12.2451C49.2461 11.8371 48.9761 11.5131 48.6161 11.2731C48.2681 11.0211 47.8241 10.8951 47.2841 10.8951C46.8041 10.8951 46.3841 11.0091 46.0241 11.2371C45.6641 11.4651 45.3821 11.8131 45.1781 12.2811C44.9741 12.7371 44.8721 13.3191 44.8721 14.0271C44.8721 14.7111 44.9741 15.2871 45.1781 15.7551C45.3821 16.2231 45.6641 16.5711 46.0241 16.7991C46.3841 17.0271 46.8041 17.1411 47.2841 17.1411ZM57.5475 18.9771C56.9715 18.9771 56.4435 18.8751 55.9635 18.6711C55.4955 18.4551 55.0875 18.1371 54.7395 17.7171C54.4035 17.2971 54.1455 16.7811 53.9655 16.1691C53.7855 15.5451 53.6955 14.8311 53.6955 14.0271C53.6955 12.9351 53.8515 12.0231 54.1635 11.2911C54.4875 10.5471 54.9375 9.98906 55.5135 9.61706C56.1015 9.24506 56.7795 9.05906 57.5475 9.05906C58.0755 9.05906 58.5435 9.14306 58.9515 9.31106C59.3715 9.46706 59.7315 9.68906 60.0315 9.97706C60.3315 10.2651 60.5595 10.6071 60.7155 11.0031H60.8415V5.69306H63.0915L63.0735 18.8151H60.9135L60.8415 17.0331H60.7155C60.4875 17.6211 60.0975 18.0951 59.5455 18.4551C58.9935 18.8031 58.3275 18.9771 57.5475 18.9771ZM58.3935 17.1411C58.9335 17.1411 59.3775 17.0151 59.7255 16.7631C60.0855 16.5111 60.3555 16.1871 60.5355 15.7911C60.7155 15.3831 60.8055 14.9571 60.8055 14.5131V13.5231C60.8055 13.1751 60.7515 12.8451 60.6435 12.5331C60.5475 12.2211 60.3975 11.9451 60.1935 11.7051C60.0015 11.4531 59.7495 11.2551 59.4375 11.1111C59.1375 10.9671 58.7895 10.8951 58.3935 10.8951C57.9135 10.8951 57.4935 11.0091 57.1335 11.2371C56.7735 11.4651 56.4915 11.8131 56.2875 12.2811C56.0835 12.7371 55.9815 13.3191 55.9815 14.0271C55.9815 14.7111 56.0835 15.2871 56.2875 15.7551C56.4915 16.2231 56.7735 16.5711 57.1335 16.7991C57.4935 17.0271 57.9135 17.1411 58.3935 17.1411ZM67.6103 18.8151L64.2623 9.22106H66.6923L68.3663 14.7291L68.9603 16.9251H69.0323L69.6263 14.7471L71.3003 9.22106H73.7303L70.4003 18.8151H67.6103ZM74.9086 18.8151V9.23906H77.1586V18.8151H74.9086ZM74.9086 7.88906V5.69306H77.1586V7.88906H74.9086ZM83.6884 18.9771C82.9804 18.9771 82.3384 18.8631 81.7624 18.6351C81.1864 18.3951 80.6884 18.0591 80.2684 17.6271C79.8484 17.1831 79.5304 16.6611 79.3144 16.0611C79.0984 15.4491 78.9904 14.7711 78.9904 14.0271C78.9904 13.0191 79.1824 12.1491 79.5664 11.4171C79.9624 10.6731 80.5144 10.0971 81.2224 9.68906C81.9424 9.26906 82.7884 9.05906 83.7604 9.05906C84.5644 9.05906 85.2784 9.20906 85.9024 9.50906C86.5264 9.80906 87.0244 10.2291 87.3964 10.7691C87.7804 11.2971 87.9904 11.9151 88.0264 12.6231H85.8304C85.7704 12.2511 85.6384 11.9391 85.4344 11.6871C85.2424 11.4351 84.9964 11.2431 84.6964 11.1111C84.3964 10.9791 84.0664 10.9131 83.7064 10.9131C83.1904 10.9131 82.7464 11.0451 82.3744 11.3091C82.0024 11.5611 81.7204 11.9211 81.5284 12.3891C81.3484 12.8571 81.2584 13.4031 81.2584 14.0271C81.2584 14.7111 81.3604 15.2811 81.5644 15.7371C81.7684 16.1931 82.0504 16.5411 82.4104 16.7811C82.7824 17.0091 83.2084 17.1231 83.6884 17.1231C84.1084 17.1231 84.4744 17.0511 84.7864 16.9071C85.0984 16.7511 85.3444 16.5411 85.5244 16.2771C85.7164 16.0011 85.8304 15.6891 85.8664 15.3411H88.0624C88.0144 16.0731 87.7984 16.7151 87.4144 17.2671C87.0304 17.8071 86.5204 18.2271 85.8844 18.5271C85.2484 18.8271 84.5164 18.9771 83.6884 18.9771ZM93.7929 18.9771C92.8209 18.9771 91.9929 18.7791 91.3089 18.3831C90.6369 17.9751 90.1209 17.4051 89.7609 16.6731C89.4009 15.9291 89.2209 15.0651 89.2209 14.0811C89.2209 13.0611 89.4009 12.1791 89.7609 11.4351C90.1209 10.6791 90.6369 10.0971 91.3089 9.68906C91.9809 9.28106 92.7789 9.07706 93.7029 9.07706C94.7589 9.07706 95.6229 9.31106 96.2949 9.77906C96.9789 10.2351 97.4709 10.8711 97.7709 11.6871C98.0709 12.5031 98.1729 13.4391 98.0769 14.4951H91.4169C91.4169 15.1071 91.5129 15.6231 91.7049 16.0431C91.9089 16.4511 92.1849 16.7631 92.5329 16.9791C92.8929 17.1831 93.3129 17.2851 93.7929 17.2851C94.3569 17.2851 94.8249 17.1531 95.1969 16.8891C95.5689 16.6131 95.8089 16.2591 95.9169 15.8271H98.0229C97.9509 16.4751 97.7229 17.0391 97.3389 17.5191C96.9549 17.9871 96.4569 18.3471 95.8449 18.5991C95.2329 18.8511 94.5489 18.9771 93.7929 18.9771ZM91.4169 13.2891L91.2189 13.0551H96.0969L95.8809 13.3071C95.9049 12.7191 95.8269 12.2391 95.6469 11.8671C95.4669 11.4951 95.2089 11.2191 94.8729 11.0391C94.5369 10.8591 94.1469 10.7691 93.7029 10.7691C93.2469 10.7691 92.8509 10.8651 92.5149 11.0571C92.1789 11.2491 91.9149 11.5371 91.7229 11.9211C91.5309 12.2931 91.4289 12.7491 91.4169 13.2891Z" fill="#454545"/>
<path d="M6.14404 82.255L6.13004 79.945H1.41204V78.405L5.64004 72.161H8.20204V78.265H9.51804L9.50404 79.945H8.20204V82.255H6.14404ZM3.45604 78.265H6.14404V74.359L3.45604 78.265ZM10.7679 82.255V80.365H12.7419V82.255H10.7679ZM17.9248 82.381C17.3182 82.381 16.7768 82.283 16.3008 82.087C15.8248 81.8817 15.4188 81.5737 15.0828 81.163C14.7562 80.7523 14.5042 80.239 14.3268 79.623C14.1588 79.007 14.0748 78.279 14.0748 77.439C14.0748 76.5243 14.1588 75.731 14.3268 75.059C14.5042 74.3777 14.7608 73.813 15.0968 73.365C15.4328 72.917 15.8482 72.5857 16.3428 72.371C16.8375 72.147 17.4068 72.035 18.0508 72.035C18.7322 72.035 19.3202 72.1517 19.8148 72.385C20.3188 72.609 20.7155 72.9263 21.0048 73.337C21.3035 73.7477 21.4808 74.233 21.5368 74.793H19.5348C19.4975 74.5877 19.4088 74.4103 19.2688 74.261C19.1288 74.1117 18.9515 73.9997 18.7368 73.925C18.5315 73.8503 18.2982 73.813 18.0368 73.813C17.6915 73.813 17.3975 73.883 17.1548 74.023C16.9215 74.1537 16.7302 74.345 16.5808 74.597C16.4315 74.849 16.3242 75.157 16.2588 75.521C16.1935 75.8757 16.1608 76.2817 16.1608 76.739H16.2448C16.3662 76.5057 16.5295 76.3003 16.7348 76.123C16.9495 75.9457 17.2062 75.8103 17.5048 75.717C17.8035 75.6143 18.1302 75.563 18.4848 75.563C19.1195 75.563 19.6702 75.703 20.1368 75.983C20.6128 76.263 20.9815 76.655 21.2428 77.159C21.5042 77.6537 21.6348 78.2323 21.6348 78.895C21.6348 79.6323 21.4762 80.2623 21.1588 80.785C20.8508 81.2983 20.4168 81.695 19.8568 81.975C19.3062 82.2457 18.6622 82.381 17.9248 82.381ZM17.9668 80.589C18.2935 80.589 18.5782 80.519 18.8208 80.379C19.0635 80.2297 19.2502 80.0243 19.3808 79.763C19.5115 79.5017 19.5768 79.1937 19.5768 78.839C19.5768 78.4843 19.5115 78.181 19.3808 77.929C19.2502 77.6677 19.0635 77.467 18.8208 77.327C18.5875 77.187 18.3028 77.117 17.9668 77.117C17.6402 77.117 17.3508 77.1917 17.0988 77.341C16.8562 77.4903 16.6695 77.6957 16.5388 77.957C16.4082 78.2183 16.3428 78.5217 16.3428 78.867C16.3428 79.2217 16.4082 79.5297 16.5388 79.791C16.6788 80.043 16.8702 80.239 17.1128 80.379C17.3555 80.519 17.6402 80.589 17.9668 80.589ZM22.6148 83.403L26.7868 72.049H28.7608L24.5748 83.403H22.6148ZM33.8083 82.381C33.0616 82.381 32.4176 82.2503 31.8763 81.989C31.3349 81.7183 30.9103 81.345 30.6023 80.869C30.3036 80.3837 30.1449 79.8237 30.1263 79.189H32.2123C32.2216 79.469 32.2916 79.7163 32.4223 79.931C32.5623 80.1363 32.7489 80.2997 32.9823 80.421C33.2249 80.533 33.5049 80.589 33.8223 80.589C34.3449 80.589 34.7509 80.435 35.0403 80.127C35.3389 79.8097 35.4883 79.4037 35.4883 78.909C35.4883 78.5637 35.4183 78.2603 35.2783 77.999C35.1476 77.7377 34.9563 77.537 34.7043 77.397C34.4523 77.2477 34.1536 77.173 33.8083 77.173C33.4069 77.173 33.0756 77.2663 32.8143 77.453C32.5623 77.6303 32.3849 77.859 32.2823 78.139H30.3223L30.5883 72.161H36.9723V73.953H32.4083L32.3103 76.067L32.3943 76.095C32.5903 75.899 32.8563 75.745 33.1923 75.633C33.5283 75.521 33.8829 75.465 34.2563 75.465C34.7696 75.465 35.2269 75.549 35.6283 75.717C36.0389 75.8757 36.3889 76.109 36.6783 76.417C36.9676 76.7157 37.1869 77.075 37.3363 77.495C37.4949 77.9057 37.5743 78.3583 37.5743 78.853C37.5743 79.553 37.4203 80.169 37.1123 80.701C36.8136 81.233 36.3796 81.6483 35.8103 81.947C35.2503 82.2363 34.5829 82.381 33.8083 82.381ZM42.3187 83.193V72.049H44.1807V83.193H42.3187ZM51.1368 82.255V75.479H48.5888V73.911H49.0088C49.6808 73.911 50.2081 73.7523 50.5908 73.435C50.9828 73.1083 51.2021 72.6837 51.2488 72.161H53.1948V82.255H51.1368ZM58.7868 82.381C58.0401 82.381 57.3961 82.2503 56.8548 81.989C56.3134 81.7183 55.8888 81.345 55.5808 80.869C55.2821 80.3837 55.1234 79.8237 55.1048 79.189H57.1908C57.2001 79.469 57.2701 79.7163 57.4008 79.931C57.5408 80.1363 57.7274 80.2997 57.9608 80.421C58.2034 80.533 58.4834 80.589 58.8008 80.589C59.3234 80.589 59.7294 80.435 60.0188 80.127C60.3174 79.8097 60.4668 79.4037 60.4668 78.909C60.4668 78.5637 60.3968 78.2603 60.2568 77.999C60.1261 77.7377 59.9348 77.537 59.6828 77.397C59.4308 77.2477 59.1321 77.173 58.7868 77.173C58.3854 77.173 58.0541 77.2663 57.7928 77.453C57.5408 77.6303 57.3634 77.859 57.2608 78.139H55.3008L55.5668 72.161H61.9508V73.953H57.3868L57.2888 76.067L57.3728 76.095C57.5688 75.899 57.8348 75.745 58.1708 75.633C58.5068 75.521 58.8614 75.465 59.2348 75.465C59.7481 75.465 60.2054 75.549 60.6068 75.717C61.0174 75.8757 61.3674 76.109 61.6568 76.417C61.9461 76.7157 62.1654 77.075 62.3148 77.495C62.4734 77.9057 62.5528 78.3583 62.5528 78.853C62.5528 79.553 62.3988 80.169 62.0908 80.701C61.7921 81.233 61.3581 81.6483 60.7888 81.947C60.2288 82.2363 59.5614 82.381 58.7868 82.381ZM67.6768 82.381C67.0701 82.381 66.5288 82.283 66.0528 82.087C65.5768 81.8817 65.1708 81.5737 64.8348 81.163C64.5081 80.7523 64.2561 80.239 64.0788 79.623C63.9108 79.007 63.8268 78.279 63.8268 77.439C63.8268 76.5243 63.9108 75.731 64.0788 75.059C64.2561 74.3777 64.5128 73.813 64.8488 73.365C65.1848 72.917 65.6001 72.5857 66.0948 72.371C66.5894 72.147 67.1588 72.035 67.8028 72.035C68.4841 72.035 69.0721 72.1517 69.5668 72.385C70.0708 72.609 70.4674 72.9263 70.7568 73.337C71.0554 73.7477 71.2328 74.233 71.2888 74.793H69.2868C69.2494 74.5877 69.1608 74.4103 69.0208 74.261C68.8808 74.1117 68.7034 73.9997 68.4888 73.925C68.2834 73.8503 68.0501 73.813 67.7888 73.813C67.4434 73.813 67.1494 73.883 66.9068 74.023C66.6734 74.1537 66.4821 74.345 66.3328 74.597C66.1834 74.849 66.0761 75.157 66.0108 75.521C65.9454 75.8757 65.9128 76.2817 65.9128 76.739H65.9968C66.1181 76.5057 66.2814 76.3003 66.4868 76.123C66.7014 75.9457 66.9581 75.8103 67.2568 75.717C67.5554 75.6143 67.8821 75.563 68.2368 75.563C68.8714 75.563 69.4221 75.703 69.8888 75.983C70.3648 76.263 70.7334 76.655 70.9948 77.159C71.2561 77.6537 71.3868 78.2323 71.3868 78.895C71.3868 79.6323 71.2281 80.2623 70.9108 80.785C70.6028 81.2983 70.1688 81.695 69.6088 81.975C69.0581 82.2457 68.4141 82.381 67.6768 82.381ZM67.7188 80.589C68.0454 80.589 68.3301 80.519 68.5728 80.379C68.8154 80.2297 69.0021 80.0243 69.1328 79.763C69.2634 79.5017 69.3288 79.1937 69.3288 78.839C69.3288 78.4843 69.2634 78.181 69.1328 77.929C69.0021 77.6677 68.8154 77.467 68.5728 77.327C68.3394 77.187 68.0548 77.117 67.7188 77.117C67.3921 77.117 67.1028 77.1917 66.8508 77.341C66.6081 77.4903 66.4214 77.6957 66.2908 77.957C66.1601 78.2183 66.0948 78.5217 66.0948 78.867C66.0948 79.2217 66.1601 79.5297 66.2908 79.791C66.4308 80.043 66.6221 80.239 66.8648 80.379C67.1074 80.519 67.3921 80.589 67.7188 80.589ZM72.5068 82.255V81.961C72.5068 81.3637 72.5954 80.8363 72.7728 80.379C72.9501 79.9217 73.1834 79.5203 73.4728 79.175C73.7714 78.8203 74.0934 78.5077 74.4388 78.237C74.7934 77.957 75.1434 77.7003 75.4888 77.467C75.8434 77.2243 76.1654 76.9863 76.4548 76.753C76.7534 76.5197 76.9914 76.277 77.1688 76.025C77.3461 75.7637 77.4348 75.4743 77.4348 75.157C77.4348 74.877 77.3741 74.6343 77.2528 74.429C77.1314 74.2237 76.9634 74.0697 76.7488 73.967C76.5434 73.855 76.2961 73.799 76.0068 73.799C75.7081 73.799 75.4421 73.8643 75.2088 73.995C74.9848 74.1163 74.8168 74.303 74.7048 74.555C74.5928 74.7977 74.5508 75.0963 74.5788 75.451H72.5348C72.5161 74.7603 72.6514 74.1583 72.9408 73.645C73.2394 73.1317 73.6594 72.735 74.2008 72.455C74.7514 72.175 75.3954 72.035 76.1328 72.035C76.8234 72.035 77.4254 72.1563 77.9388 72.399C78.4521 72.6417 78.8488 72.9917 79.1288 73.449C79.4181 73.897 79.5628 74.4337 79.5628 75.059C79.5628 75.4883 79.4928 75.871 79.3528 76.207C79.2221 76.543 79.0448 76.851 78.8208 77.131C78.5968 77.411 78.3448 77.6677 78.0648 77.901C77.7848 78.125 77.4954 78.3397 77.1968 78.545C76.9074 78.7503 76.6228 78.9557 76.3428 79.161C76.0721 79.357 75.8294 79.5623 75.6148 79.777C75.4001 79.9823 75.2368 80.2063 75.1248 80.449H79.6608V82.255H72.5068ZM84.5225 82.255V74.905H85.5305L85.6005 76.263H85.6565C85.8152 75.7963 86.0952 75.437 86.4965 75.185C86.8978 74.933 87.3458 74.807 87.8405 74.807C87.9245 74.807 88.0038 74.8117 88.0785 74.821C88.1532 74.821 88.2232 74.8257 88.2885 74.835V75.913C88.2232 75.9037 88.1532 75.899 88.0785 75.899C88.0038 75.8897 87.9245 75.885 87.8405 75.885C87.4112 75.885 87.0378 75.9643 86.7205 76.123C86.4032 76.2817 86.1512 76.5103 85.9645 76.809C85.7872 77.0983 85.6798 77.453 85.6425 77.873V82.255H84.5225ZM92.1627 82.381C91.4627 82.381 90.8607 82.227 90.3567 81.919C89.862 81.611 89.484 81.1723 89.2227 80.603C88.9613 80.0337 88.8307 79.371 88.8307 78.615C88.8307 77.8403 88.9613 77.1683 89.2227 76.599C89.484 76.0203 89.8573 75.577 90.3427 75.269C90.828 74.9517 91.4207 74.793 92.1207 74.793C92.8673 74.793 93.4833 74.961 93.9687 75.297C94.454 75.633 94.804 76.0997 95.0187 76.697C95.2427 77.2943 95.3267 77.985 95.2707 78.769H89.9367C89.946 79.3757 90.0393 79.8843 90.2167 80.295C90.4033 80.6963 90.66 80.9997 90.9867 81.205C91.3227 81.401 91.7147 81.499 92.1627 81.499C92.704 81.499 93.1473 81.3637 93.4927 81.093C93.838 80.8223 94.0573 80.4677 94.1507 80.029H95.2287C95.1727 80.5237 95 80.9483 94.7107 81.303C94.4307 81.6577 94.0667 81.9283 93.6187 82.115C93.18 82.2923 92.6947 82.381 92.1627 82.381ZM89.9507 78.125L89.8247 77.957H94.2907L94.1647 78.153C94.174 77.565 94.0947 77.0937 93.9267 76.739C93.7587 76.375 93.516 76.109 93.1987 75.941C92.8907 75.7637 92.5313 75.675 92.1207 75.675C91.6913 75.675 91.318 75.7683 91.0007 75.955C90.6833 76.1417 90.4313 76.417 90.2447 76.781C90.0673 77.1357 89.9693 77.5837 89.9507 78.125ZM98.3408 82.255L95.6388 74.905H96.8708L98.5228 79.735L99.0128 81.247H99.0548L99.5168 79.735L101.169 74.905H102.387L99.7128 82.255H98.3408ZM103.39 82.255V74.905H104.524V82.255H103.39ZM103.39 73.687V72.049H104.524V73.687H103.39ZM109.471 82.381C108.771 82.381 108.169 82.227 107.665 81.919C107.171 81.611 106.793 81.1723 106.531 80.603C106.27 80.0337 106.139 79.371 106.139 78.615C106.139 77.8403 106.27 77.1683 106.531 76.599C106.793 76.0203 107.166 75.577 107.651 75.269C108.137 74.9517 108.729 74.793 109.429 74.793C110.176 74.793 110.792 74.961 111.277 75.297C111.763 75.633 112.113 76.0997 112.327 76.697C112.551 77.2943 112.635 77.985 112.579 78.769H107.245C107.255 79.3757 107.348 79.8843 107.525 80.295C107.712 80.6963 107.969 80.9997 108.295 81.205C108.631 81.401 109.023 81.499 109.471 81.499C110.013 81.499 110.456 81.3637 110.801 81.093C111.147 80.8223 111.366 80.4677 111.459 80.029H112.537C112.481 80.5237 112.309 80.9483 112.019 81.303C111.739 81.6577 111.375 81.9283 110.927 82.115C110.489 82.2923 110.003 82.381 109.471 82.381ZM107.259 78.125L107.133 77.957H111.599L111.473 78.153C111.483 77.565 111.403 77.0937 111.235 76.739C111.067 76.375 110.825 76.109 110.507 75.941C110.199 75.7637 109.84 75.675 109.429 75.675C109 75.675 108.627 75.7683 108.309 75.955C107.992 76.1417 107.74 76.417 107.553 76.781C107.376 77.1357 107.278 77.5837 107.259 78.125ZM114.992 82.255L113.102 74.905H114.236L115.79 81.163H115.846L117.26 74.905H118.632L120.13 81.163H120.172L121.698 74.905H122.79L120.9 82.255H119.402L117.946 76.333H117.89L116.532 82.255H114.992ZM126.238 82.395C125.613 82.395 125.072 82.2923 124.614 82.087C124.166 81.8817 123.821 81.597 123.578 81.233C123.345 80.869 123.228 80.4443 123.228 79.959H124.362C124.362 80.5003 124.535 80.9017 124.88 81.163C125.235 81.415 125.697 81.541 126.266 81.541C126.836 81.541 127.27 81.4337 127.568 81.219C127.876 81.0043 128.03 80.701 128.03 80.309C128.03 80.0103 127.965 79.7817 127.834 79.623C127.704 79.455 127.503 79.3243 127.232 79.231C126.962 79.1377 126.607 79.0583 126.168 78.993C125.562 78.909 125.053 78.7923 124.642 78.643C124.241 78.4937 123.938 78.2837 123.732 78.013C123.536 77.733 123.438 77.369 123.438 76.921C123.438 76.4917 123.555 76.1183 123.788 75.801C124.022 75.4743 124.348 75.2223 124.768 75.045C125.188 74.8583 125.678 74.765 126.238 74.765C126.826 74.765 127.326 74.863 127.736 75.059C128.156 75.2457 128.474 75.5117 128.688 75.857C128.912 76.193 129.029 76.5943 129.038 77.061H127.932C127.923 76.7157 127.844 76.4403 127.694 76.235C127.554 76.0297 127.358 75.8803 127.106 75.787C126.864 75.6843 126.57 75.633 126.224 75.633C125.702 75.633 125.296 75.7403 125.006 75.955C124.717 76.1697 124.572 76.4543 124.572 76.809C124.572 77.0797 124.642 77.299 124.782 77.467C124.922 77.6257 125.137 77.7517 125.426 77.845C125.716 77.929 126.089 78.0037 126.546 78.069C126.957 78.125 127.326 78.1997 127.652 78.293C127.979 78.3863 128.254 78.517 128.478 78.685C128.712 78.8437 128.884 79.049 128.996 79.301C129.118 79.5437 129.178 79.847 129.178 80.211C129.178 80.911 128.908 81.4523 128.366 81.835C127.834 82.2083 127.125 82.395 126.238 82.395Z" fill="#454545"/>
<g clip-path="url(#clip0_705_1965)">
<mask id="mask0_705_1965" style="mask-type:luminance" maskUnits="userSpaceOnUse" x="0" y="32" width="23" height="23">
<path d="M22.9862 40.8739L14.8242 40.3461L11.7417 32.615L8.65918 40.3461L0.515137 40.8739L6.7641 46.194L4.7131 54.255L11.7417 49.8046L18.7703 54.255L16.7193 46.194L22.9862 40.8739Z" fill="white"/>
</mask>
<g mask="url(#mask0_705_1965)">
<path d="M110.862 32.615H0.515137V54.255H110.862V32.615Z" fill="#FCB002"/>
</g>
<mask id="mask1_705_1965" style="mask-type:luminance" maskUnits="userSpaceOnUse" x="24" y="32" width="24" height="23">
<path d="M47.3534 40.8739L39.1914 40.3461L36.1089 32.615L33.0324 40.3461L24.8823 40.8739L31.1313 46.194L29.0803 54.255L36.1089 49.8046L43.1435 54.255L41.0865 46.194L47.3534 40.8739Z" fill="white"/>
</mask>
<g mask="url(#mask1_705_1965)">
<path d="M110.862 32.615H0.515137V54.255H110.862V32.615Z" fill="#FCB002"/>
</g>
<mask id="mask2_705_1965" style="mask-type:luminance" maskUnits="userSpaceOnUse" x="49" y="32" width="23" height="23">
<path d="M71.7224 40.8739L63.5604 40.3461L60.4839 32.615L57.4014 40.3461L49.2573 40.8739L55.5063 46.194L53.4493 54.255L60.4839 49.8046L67.5125 54.255L65.4555 46.194L71.7224 40.8739Z" fill="white"/>
</mask>
<g mask="url(#mask2_705_1965)">
<path d="M110.862 32.615H0.515137V54.255H110.862V32.615Z" fill="#FCB002"/>
</g>
<mask id="mask3_705_1965" style="mask-type:luminance" maskUnits="userSpaceOnUse" x="73" y="32" width="24" height="23">
<path d="M96.0956 40.8739L87.9336 40.3461L84.8511 32.615L81.7686 40.3461L73.6245 40.8739L79.8735 46.194L77.8165 54.255L84.8511 49.8046L91.8797 54.255L89.8286 46.194L96.0956 40.8739Z" fill="white"/>
</mask>
<g mask="url(#mask3_705_1965)">
<path d="M110.862 32.615H0.515137V54.255H110.862V32.615Z" fill="#FCB002"/>
</g>
<mask id="mask4_705_1965" style="mask-type:luminance" maskUnits="userSpaceOnUse" x="97" y="32" width="24" height="23">
<path d="M120.455 40.8739L112.293 40.3461L109.21 32.615L106.128 40.3461L97.9839 40.8739L104.233 46.194L102.182 54.255L109.21 49.8046L116.239 54.255L114.188 46.194L120.455 40.8739Z" fill="white"/>
</mask>
<g mask="url(#mask4_705_1965)">
<path d="M110.862 32.615H0.515137V54.255H110.862V32.615Z" fill="#FCB002"/>
</g>
<path d="M11.7417 34.2344L14.2665 40.568L14.4044 40.9219L14.7822 40.9459L21.463 41.3778L16.3295 45.7381L16.0416 45.978L16.1316 46.3439L17.8107 52.9415L12.0535 49.2948L11.7357 49.0909L11.4178 49.2948L5.66064 52.9415L7.33983 46.3439L7.42978 45.984L7.14792 45.7441L2.0264 41.3837L8.69517 40.9519L9.07298 40.9279L9.21092 40.574L11.7417 34.2344ZM11.7417 32.615L8.65918 40.3461L0.515137 40.8739L6.7641 46.194L4.7131 54.255L11.7417 49.8046L18.7703 54.255L16.7193 46.194L22.9862 40.8739L14.8242 40.3461L11.7417 32.615Z" fill="#FCB002"/>
<path d="M36.1089 34.2344L38.6337 40.568L38.7716 40.9219L39.1494 40.9459L45.8302 41.3778L40.6966 45.7381L40.4088 45.978L40.4987 46.3439L42.1779 52.9415L36.4207 49.2948L36.1029 49.0909L35.785 49.2948L30.0278 52.9415L31.707 46.3439L31.797 45.984L31.5151 45.7441L26.3936 41.3837L33.0624 40.9519L33.4402 40.9279L33.5781 40.574L36.1089 34.2344ZM36.1089 32.615L33.0264 40.3461L24.8823 40.8739L31.1313 46.194L29.0803 54.255L36.1089 49.8046L43.1375 54.255L41.0865 46.194L47.3534 40.8739L39.1914 40.3461L36.1089 32.615Z" fill="#FCB002"/>
<path d="M60.4839 34.2344L63.0087 40.568L63.1466 40.9219L63.5244 40.9459L70.2052 41.3778L65.0717 45.7381L64.7838 45.978L64.8737 46.3439L66.5529 52.9415L60.7957 49.2948L60.4779 49.0909L60.16 49.2948L54.4028 52.9415L56.082 46.3439L56.172 45.984L55.8901 45.7441L50.7686 41.3837L57.4374 40.9519L57.8152 40.9279L57.9531 40.574L60.4839 34.2344ZM60.4839 32.615L57.4014 40.3461L49.2573 40.8739L55.5063 46.194L53.4553 54.255L60.4839 49.8046L67.5125 54.255L65.4615 46.194L71.7284 40.8739L63.5664 40.3461L60.4839 32.615Z" fill="#FCB002"/>
<path d="M84.8511 34.2344L87.3758 40.568L87.5138 40.9219L87.8916 40.9459L94.5723 41.3778L89.4388 45.7381L89.151 45.978L89.2409 46.3439L90.9201 52.9415L85.1629 49.2948L84.8451 49.0909L84.5272 49.2948L78.77 52.9415L80.4492 46.3439L80.5392 45.984L80.2573 45.7441L75.1358 41.3837L81.8045 40.9519L82.1824 40.9279L82.3203 40.574L84.8511 34.2344ZM84.8511 32.615L81.7686 40.3461L73.6245 40.8739L79.8735 46.194L77.8225 54.255L84.8511 49.8046L91.8797 54.255L89.8286 46.194L96.0956 40.8739L87.9336 40.3461L84.8511 32.615Z" fill="#FCB002"/>
<path d="M109.21 34.2344L111.735 40.568L111.873 40.9219L112.251 40.9459L118.932 41.3778L113.798 45.7381L113.51 45.978L113.6 46.3439L115.279 52.9415L109.522 49.2948L109.204 49.0909L108.887 49.2948L103.129 52.9415L104.809 46.3439L104.899 45.984L104.617 45.7441L99.4952 41.3837L106.164 40.9519L106.542 40.9279L106.68 40.574L109.21 34.2344ZM109.21 32.615L106.128 40.3461L97.9839 40.8739L104.233 46.194L102.182 54.255L109.21 49.8046L116.239 54.255L114.188 46.194L120.455 40.8739L112.293 40.3461L109.21 32.615Z" fill="#FCB002"/>
</g>
<defs>
<clipPath id="clip0_705_1965">
<rect width="120" height="21.64" fill="white" transform="translate(0.483887 32.615)"/>
</clipPath>
</defs>
</svg>
