<svg width="120" height="78" viewBox="0 0 120 78" fill="none" xmlns="http://www.w3.org/2000/svg">
<path d="M5.994 13.4725C4.83 13.4725 3.852 13.2925 3.06 12.9325C2.28 12.5725 1.692 12.0685 1.296 11.4205C0.9 10.7725 0.696 10.0345 0.684 9.20655H3.114C3.126 9.69855 3.234 10.1245 3.438 10.4845C3.654 10.8445 3.978 11.1265 4.41 11.3305C4.842 11.5345 5.4 11.6365 6.084 11.6365C6.9 11.6365 7.554 11.4865 8.046 11.1865C8.538 10.8745 8.784 10.4185 8.784 9.81855C8.784 9.47055 8.73 9.18255 8.622 8.95455C8.514 8.71455 8.334 8.51655 8.082 8.36055C7.83 8.20455 7.494 8.07255 7.074 7.96455C6.666 7.85655 6.15 7.74855 5.526 7.64055C4.782 7.52055 4.122 7.36455 3.546 7.17255C2.982 6.96855 2.508 6.72255 2.124 6.43455C1.74 6.14655 1.452 5.79855 1.26 5.39055C1.068 4.97055 0.972 4.47255 0.972 3.89655C0.972 3.10455 1.17 2.42055 1.566 1.84455C1.974 1.26855 2.55 0.824546 3.294 0.512546C4.038 0.188546 4.926 0.0265462 5.958 0.0265462C6.978 0.0265462 7.848 0.188546 8.568 0.512546C9.3 0.836547 9.864 1.29255 10.26 1.88055C10.656 2.45655 10.854 3.12855 10.854 3.89655H8.46C8.436 3.42855 8.31 3.04455 8.082 2.74455C7.854 2.43255 7.548 2.20455 7.164 2.06055C6.792 1.91655 6.36 1.84455 5.868 1.84455C5.364 1.84455 4.926 1.91655 4.554 2.06055C4.194 2.20455 3.918 2.40855 3.726 2.67255C3.534 2.92455 3.438 3.23055 3.438 3.59055C3.438 4.03455 3.546 4.37655 3.762 4.61655C3.99 4.84455 4.35 5.02455 4.842 5.15655C5.346 5.28855 5.994 5.42055 6.786 5.55255C7.35 5.64855 7.896 5.76855 8.424 5.91255C8.964 6.05655 9.444 6.27255 9.864 6.56055C10.296 6.83655 10.638 7.22055 10.89 7.71255C11.142 8.19255 11.268 8.81655 11.268 9.58455C11.268 10.3525 11.07 11.0305 10.674 11.6185C10.278 12.2065 9.69 12.6625 8.91 12.9865C8.13 13.3105 7.158 13.4725 5.994 13.4725ZM17.1899 13.4725C16.2179 13.4725 15.3899 13.2745 14.7059 12.8785C14.0339 12.4705 13.5179 11.9005 13.1579 11.1685C12.7979 10.4245 12.6179 9.56055 12.6179 8.57655C12.6179 7.55655 12.7979 6.67455 13.1579 5.93055C13.5179 5.17455 14.0339 4.59255 14.7059 4.18455C15.3779 3.77655 16.1759 3.57255 17.0999 3.57255C18.1559 3.57255 19.0199 3.80655 19.6919 4.27455C20.3759 4.73055 20.8679 5.36655 21.1679 6.18255C21.4679 6.99855 21.5699 7.93455 21.4739 8.99055H14.8139C14.8139 9.60255 14.9099 10.1185 15.1019 10.5385C15.3059 10.9465 15.5819 11.2585 15.9299 11.4745C16.2899 11.6785 16.7099 11.7805 17.1899 11.7805C17.7539 11.7805 18.2219 11.6485 18.5939 11.3845C18.9659 11.1085 19.2059 10.7545 19.3139 10.3225H21.4199C21.3479 10.9705 21.1199 11.5345 20.7359 12.0145C20.3519 12.4825 19.8539 12.8425 19.2419 13.0945C18.6299 13.3465 17.9459 13.4725 17.1899 13.4725ZM14.8139 7.78455L14.6159 7.55055H19.4939L19.2779 7.80255C19.3019 7.21455 19.2239 6.73455 19.0439 6.36255C18.8639 5.99055 18.6059 5.71455 18.2699 5.53455C17.9339 5.35455 17.5439 5.26455 17.0999 5.26455C16.6439 5.26455 16.2479 5.36055 15.9119 5.55255C15.5759 5.74455 15.3119 6.03255 15.1199 6.41655C14.9279 6.78855 14.8259 7.24455 14.8139 7.78455ZM23.3017 13.3105V3.73455H25.3357L25.4437 5.33655H25.5157C25.7317 4.72455 26.0797 4.28655 26.5597 4.02255C27.0517 3.74655 27.6097 3.60855 28.2337 3.60855C28.3417 3.60855 28.4377 3.60855 28.5217 3.60855C28.6177 3.60855 28.7077 3.60855 28.7917 3.60855V5.73255C28.7197 5.73255 28.6297 5.73255 28.5217 5.73255C28.4257 5.72055 28.3177 5.71455 28.1977 5.71455C27.6217 5.71455 27.1417 5.81055 26.7577 6.00255C26.3737 6.18255 26.0797 6.44655 25.8757 6.79455C25.6837 7.14255 25.5757 7.56855 25.5517 8.07255V13.3105H23.3017ZM34.1205 13.4725C33.4125 13.4725 32.7705 13.3585 32.1945 13.1305C31.6185 12.8905 31.1205 12.5545 30.7005 12.1225C30.2805 11.6785 29.9625 11.1565 29.7465 10.5565C29.5305 9.94455 29.4225 9.26655 29.4225 8.52255C29.4225 7.51455 29.6145 6.64455 29.9985 5.91255C30.3945 5.16855 30.9465 4.59255 31.6545 4.18455C32.3745 3.76455 33.2205 3.55455 34.1925 3.55455C34.9965 3.55455 35.7105 3.70455 36.3345 4.00455C36.9585 4.30455 37.4565 4.72455 37.8285 5.26455C38.2125 5.79255 38.4225 6.41055 38.4585 7.11855H36.2625C36.2025 6.74655 36.0705 6.43455 35.8665 6.18255C35.6745 5.93055 35.4285 5.73855 35.1285 5.60655C34.8285 5.47455 34.4985 5.40855 34.1385 5.40855C33.6225 5.40855 33.1785 5.54055 32.8065 5.80455C32.4345 6.05655 32.1525 6.41655 31.9605 6.88455C31.7805 7.35255 31.6905 7.89855 31.6905 8.52255C31.6905 9.20655 31.7925 9.77655 31.9965 10.2325C32.2005 10.6885 32.4825 11.0365 32.8425 11.2765C33.2145 11.5045 33.6405 11.6185 34.1205 11.6185C34.5405 11.6185 34.9065 11.5465 35.2185 11.4025C35.5305 11.2465 35.7765 11.0365 35.9565 10.7725C36.1485 10.4965 36.2625 10.1845 36.2985 9.83655H38.4945C38.4465 10.5685 38.2305 11.2105 37.8465 11.7625C37.4625 12.3025 36.9525 12.7225 36.3165 13.0225C35.6805 13.3225 34.9485 13.4725 34.1205 13.4725ZM40.247 13.3105V0.188546H42.497V5.55255H42.605C42.881 4.88055 43.301 4.38255 43.865 4.05855C44.429 3.72255 45.059 3.55455 45.755 3.55455C46.235 3.55455 46.679 3.63255 47.087 3.78855C47.507 3.93255 47.867 4.16655 48.167 4.49055C48.479 4.80255 48.719 5.21655 48.887 5.73255C49.067 6.23655 49.157 6.84855 49.157 7.56855V13.3105H46.907V8.05455C46.907 7.45455 46.835 6.96255 46.691 6.57855C46.547 6.18255 46.325 5.88855 46.025 5.69655C45.737 5.50455 45.359 5.40855 44.891 5.40855C44.387 5.40855 43.955 5.52855 43.595 5.76855C43.247 6.00855 42.977 6.32655 42.785 6.72255C42.593 7.11855 42.497 7.55655 42.497 8.03655V13.3105H40.247ZM55.4574 13.4725C54.4854 13.4725 53.6574 13.2745 52.9734 12.8785C52.3014 12.4705 51.7854 11.9005 51.4254 11.1685C51.0654 10.4245 50.8854 9.56055 50.8854 8.57655C50.8854 7.55655 51.0654 6.67455 51.4254 5.93055C51.7854 5.17455 52.3014 4.59255 52.9734 4.18455C53.6454 3.77655 54.4434 3.57255 55.3674 3.57255C56.4234 3.57255 57.2874 3.80655 57.9594 4.27455C58.6434 4.73055 59.1354 5.36655 59.4354 6.18255C59.7354 6.99855 59.8374 7.93455 59.7414 8.99055H53.0814C53.0814 9.60255 53.1774 10.1185 53.3694 10.5385C53.5734 10.9465 53.8494 11.2585 54.1974 11.4745C54.5574 11.6785 54.9774 11.7805 55.4574 11.7805C56.0214 11.7805 56.4894 11.6485 56.8614 11.3845C57.2334 11.1085 57.4734 10.7545 57.5814 10.3225H59.6874C59.6154 10.9705 59.3874 11.5345 59.0034 12.0145C58.6194 12.4825 58.1214 12.8425 57.5094 13.0945C56.8974 13.3465 56.2134 13.4725 55.4574 13.4725ZM53.0814 7.78455L52.8834 7.55055H57.7614L57.5454 7.80255C57.5694 7.21455 57.4914 6.73455 57.3114 6.36255C57.1314 5.99055 56.8734 5.71455 56.5374 5.53455C56.2014 5.35455 55.8114 5.26455 55.3674 5.26455C54.9114 5.26455 54.5154 5.36055 54.1794 5.55255C53.8434 5.74455 53.5794 6.03255 53.3874 6.41655C53.1954 6.78855 53.0934 7.24455 53.0814 7.78455ZM61.5693 13.3105V3.73455H63.7293L63.8193 5.55255H63.9273C64.2033 4.88055 64.6233 4.38255 65.1873 4.05855C65.7513 3.72255 66.3813 3.55455 67.0773 3.55455C67.5573 3.55455 68.0013 3.63255 68.4093 3.78855C68.8293 3.93255 69.1893 4.16655 69.4893 4.49055C69.8013 4.80255 70.0413 5.21655 70.2093 5.73255C70.3893 6.23655 70.4793 6.84855 70.4793 7.56855V13.3105H68.2293V8.05455C68.2293 7.45455 68.1573 6.96255 68.0133 6.57855C67.8693 6.18255 67.6473 5.88855 67.3473 5.69655C67.0593 5.50455 66.6813 5.40855 66.2133 5.40855C65.7093 5.40855 65.2773 5.52855 64.9173 5.76855C64.5693 6.00855 64.2993 6.32655 64.1073 6.72255C63.9153 7.11855 63.8193 7.55655 63.8193 8.03655V13.3105H61.5693Z" fill="white"/>
<g clip-path="url(#clip0_0_1)">
<mask id="mask0_0_1" style="mask-type:luminance" maskUnits="userSpaceOnUse" x="0" y="27" width="23" height="22">
<path d="M22.4984 35.3703L14.3364 34.8425L11.2539 27.1113L8.17139 34.8425L0.0273438 35.3703L6.27631 40.6903L4.22531 48.7513L11.2539 44.301L18.2825 48.7513L16.2315 40.6903L22.4984 35.3703Z" fill="white"/>
</mask>
<g mask="url(#mask0_0_1)">
<path d="M110.374 27.1113H0.0273438V48.7513H110.374V27.1113Z" fill="#73CF11"/>
</g>
<mask id="mask1_0_1" style="mask-type:luminance" maskUnits="userSpaceOnUse" x="24" y="27" width="23" height="22">
<path d="M46.8617 35.3703L38.6997 34.8425L35.6172 27.1113L32.5407 34.8425L24.3906 35.3703L30.6396 40.6903L28.5886 48.7513L35.6172 44.301L42.6518 48.7513L40.5948 40.6903L46.8617 35.3703Z" fill="white"/>
</mask>
<g mask="url(#mask1_0_1)">
<path d="M110.37 27.1113H0.0234375V48.7513H110.37V27.1113Z" fill="#73CF11"/>
</g>
<mask id="mask2_0_1" style="mask-type:luminance" maskUnits="userSpaceOnUse" x="48" y="27" width="24" height="22">
<path d="M71.2307 35.3703L63.0687 34.8425L59.9922 27.1113L56.9097 34.8425L48.7656 35.3703L55.0146 40.6903L52.9576 48.7513L59.9922 44.301L67.0208 48.7513L64.9638 40.6903L71.2307 35.3703Z" fill="white"/>
</mask>
<g mask="url(#mask2_0_1)">
<path d="M110.374 27.1113H0.0273438V48.7513H110.374V27.1113Z" fill="#73CF11"/>
</g>
<mask id="mask3_0_1" style="mask-type:luminance" maskUnits="userSpaceOnUse" x="73" y="27" width="23" height="22">
<path d="M95.6039 35.3703L87.4419 34.8425L84.3594 27.1113L81.2769 34.8425L73.1328 35.3703L79.3818 40.6903L77.3248 48.7513L84.3594 44.301L91.388 48.7513L89.3369 40.6903L95.6039 35.3703Z" fill="white"/>
</mask>
<g mask="url(#mask3_0_1)">
<path d="M110.374 27.1113H0.0273438V48.7513H110.374V27.1113Z" fill="#73CF11"/>
</g>
<mask id="mask4_0_1" style="mask-type:luminance" maskUnits="userSpaceOnUse" x="97" y="27" width="23" height="22">
<path d="M119.967 35.3703L111.805 34.8425L108.723 27.1113L105.64 34.8425L97.4961 35.3703L103.745 40.6903L101.694 48.7513L108.723 44.301L115.751 48.7513L113.7 40.6903L119.967 35.3703Z" fill="white"/>
</mask>
<g mask="url(#mask4_0_1)">
<path d="M110.374 27.1113H0.0273438V48.7513H110.374V27.1113Z" fill="#73CF11"/>
</g>
<path d="M11.2539 28.7307L13.7787 35.0644L13.9166 35.4183L14.2944 35.4422L20.9752 35.8741L15.8417 40.2345L15.5538 40.4744L15.6438 40.8403L17.323 47.4378L11.5657 43.7912L11.2479 43.5872L10.9301 43.7912L5.17285 47.4378L6.85203 40.8403L6.94199 40.4804L6.66013 40.2405L1.53861 35.8801L8.20737 35.4482L8.58519 35.4243L8.72312 35.0704L11.2539 28.7307ZM11.2539 27.1113L8.17139 34.8425L0.0273438 35.3703L6.27631 40.6903L4.22531 48.7513L11.2539 44.301L18.2825 48.7513L16.2315 40.6903L22.4984 35.3703L14.3364 34.8425L11.2539 27.1113Z" fill="#73CF11"/>
<path d="M35.6172 28.7307L38.142 35.0644L38.2799 35.4183L38.6577 35.4422L45.3385 35.8741L40.205 40.2345L39.9171 40.4744L40.007 40.8403L41.6862 47.4378L35.929 43.7912L35.6112 43.5872L35.2933 43.7912L29.5361 47.4378L31.2153 40.8403L31.3053 40.4804L31.0234 40.2405L25.9019 35.8801L32.5707 35.4482L32.9485 35.4243L33.0864 35.0704L35.6172 28.7307ZM35.6172 27.1113L32.5347 34.8425L24.3906 35.3703L30.6396 40.6903L28.5886 48.7513L35.6172 44.301L42.6458 48.7513L40.5948 40.6903L46.8617 35.3703L38.6997 34.8425L35.6172 27.1113Z" fill="#73CF11"/>
<path d="M59.9922 28.7307L62.517 35.0644L62.6549 35.4183L63.0327 35.4422L69.7135 35.8741L64.58 40.2345L64.2921 40.4744L64.382 40.8403L66.0612 47.4378L60.304 43.7912L59.9862 43.5872L59.6683 43.7912L53.9111 47.4378L55.5903 40.8403L55.6803 40.4804L55.3984 40.2405L50.2769 35.8801L56.9457 35.4482L57.3235 35.4243L57.4614 35.0704L59.9922 28.7307ZM59.9922 27.1113L56.9097 34.8425L48.7656 35.3703L55.0146 40.6903L52.9636 48.7513L59.9922 44.301L67.0208 48.7513L64.9698 40.6903L71.2367 35.3703L63.0747 34.8425L59.9922 27.1113Z" fill="#73CF11"/>
<path d="M84.3594 28.7307L86.8841 35.0644L87.0221 35.4183L87.3999 35.4422L94.0806 35.8741L88.9471 40.2345L88.6593 40.4744L88.7492 40.8403L90.4284 47.4378L84.6712 43.7912L84.3534 43.5872L84.0355 43.7912L78.2783 47.4378L79.9575 40.8403L80.0475 40.4804L79.7656 40.2405L74.6441 35.8801L81.3128 35.4482L81.6907 35.4243L81.8286 35.0704L84.3594 28.7307ZM84.3594 27.1113L81.2769 34.8425L73.1328 35.3703L79.3818 40.6903L77.3308 48.7513L84.3594 44.301L91.388 48.7513L89.3369 40.6903L95.6039 35.3703L87.4419 34.8425L84.3594 27.1113Z" fill="#73CF11"/>
<path d="M108.723 28.7307L111.247 35.0644L111.385 35.4183L111.763 35.4422L118.444 35.8741L113.31 40.2345L113.023 40.4744L113.113 40.8403L114.792 47.4378L109.034 43.7912L108.717 43.5872L108.399 43.7912L102.642 47.4378L104.321 40.8403L104.411 40.4804L104.129 40.2405L99.0074 35.8801L105.676 35.4482L106.054 35.4243L106.192 35.0704L108.723 28.7307ZM108.723 27.1113L105.64 34.8425L97.4961 35.3703L103.745 40.6903L101.694 48.7513L108.723 44.301L115.751 48.7513L113.7 40.6903L119.967 35.3703L111.805 34.8425L108.723 27.1113Z" fill="#73CF11"/>
</g>
<path d="M5.25 76.75L5.236 74.44H0.518V72.9L4.746 66.656H7.308V72.76H8.624L8.61 74.44H7.308V76.75H5.25ZM2.562 72.76H5.25V68.854L2.562 72.76ZM9.87383 76.75V74.86H11.8478V76.75H9.87383ZM17.0308 76.876C16.4241 76.876 15.8828 76.778 15.4068 76.582C14.9308 76.3767 14.5248 76.0687 14.1888 75.658C13.8621 75.2473 13.6101 74.734 13.4328 74.118C13.2648 73.502 13.1808 72.774 13.1808 71.934C13.1808 71.0193 13.2648 70.226 13.4328 69.554C13.6101 68.8727 13.8668 68.308 14.2028 67.86C14.5388 67.412 14.9541 67.0807 15.4488 66.866C15.9434 66.642 16.5128 66.53 17.1568 66.53C17.8381 66.53 18.4261 66.6467 18.9208 66.88C19.4248 67.104 19.8214 67.4213 20.1108 67.832C20.4094 68.2427 20.5868 68.728 20.6428 69.288H18.6408C18.6034 69.0827 18.5148 68.9053 18.3748 68.756C18.2348 68.6067 18.0574 68.4947 17.8428 68.42C17.6374 68.3453 17.4041 68.308 17.1428 68.308C16.7974 68.308 16.5034 68.378 16.2608 68.518C16.0274 68.6487 15.8361 68.84 15.6868 69.092C15.5374 69.344 15.4301 69.652 15.3648 70.016C15.2994 70.3707 15.2668 70.7767 15.2668 71.234H15.3508C15.4721 71.0007 15.6354 70.7953 15.8408 70.618C16.0554 70.4407 16.3121 70.3053 16.6108 70.212C16.9094 70.1093 17.2361 70.058 17.5908 70.058C18.2254 70.058 18.7761 70.198 19.2428 70.478C19.7188 70.758 20.0874 71.15 20.3488 71.654C20.6101 72.1487 20.7408 72.7273 20.7408 73.39C20.7408 74.1273 20.5821 74.7573 20.2648 75.28C19.9568 75.7933 19.5228 76.19 18.9628 76.47C18.4121 76.7407 17.7681 76.876 17.0308 76.876ZM17.0728 75.084C17.3994 75.084 17.6841 75.014 17.9268 74.874C18.1694 74.7247 18.3561 74.5193 18.4868 74.258C18.6174 73.9967 18.6828 73.6887 18.6828 73.334C18.6828 72.9793 18.6174 72.676 18.4868 72.424C18.3561 72.1627 18.1694 71.962 17.9268 71.822C17.6934 71.682 17.4088 71.612 17.0728 71.612C16.7461 71.612 16.4568 71.6867 16.2048 71.836C15.9621 71.9853 15.7754 72.1907 15.6448 72.452C15.5141 72.7133 15.4488 73.0167 15.4488 73.362C15.4488 73.7167 15.5141 74.0247 15.6448 74.286C15.7848 74.538 15.9761 74.734 16.2188 74.874C16.4614 75.014 16.7461 75.084 17.0728 75.084ZM21.7208 77.898L25.8928 66.544H27.8668L23.6808 77.898H21.7208ZM32.9142 76.876C32.1676 76.876 31.5236 76.7453 30.9822 76.484C30.4409 76.2133 30.0162 75.84 29.7082 75.364C29.4096 74.8787 29.2509 74.3187 29.2322 73.684H31.3182C31.3276 73.964 31.3976 74.2113 31.5282 74.426C31.6682 74.6313 31.8549 74.7947 32.0882 74.916C32.3309 75.028 32.6109 75.084 32.9282 75.084C33.4509 75.084 33.8569 74.93 34.1462 74.622C34.4449 74.3047 34.5942 73.8987 34.5942 73.404C34.5942 73.0587 34.5242 72.7553 34.3842 72.494C34.2536 72.2327 34.0622 72.032 33.8102 71.892C33.5582 71.7427 33.2596 71.668 32.9142 71.668C32.5129 71.668 32.1816 71.7613 31.9202 71.948C31.6682 72.1253 31.4909 72.354 31.3882 72.634H29.4282L29.6942 66.656H36.0782V68.448H31.5142L31.4162 70.562L31.5002 70.59C31.6962 70.394 31.9622 70.24 32.2982 70.128C32.6342 70.016 32.9889 69.96 33.3622 69.96C33.8756 69.96 34.3329 70.044 34.7342 70.212C35.1449 70.3707 35.4949 70.604 35.7842 70.912C36.0736 71.2107 36.2929 71.57 36.4422 71.99C36.6009 72.4007 36.6802 72.8533 36.6802 73.348C36.6802 74.048 36.5262 74.664 36.2182 75.196C35.9196 75.728 35.4856 76.1433 34.9162 76.442C34.3562 76.7313 33.6889 76.876 32.9142 76.876ZM41.4247 77.688V66.544H43.2867V77.688H41.4247ZM51.8667 76.876C51.2601 76.876 50.7187 76.778 50.2427 76.582C49.7667 76.3767 49.3607 76.0687 49.0247 75.658C48.6981 75.2473 48.4461 74.734 48.2687 74.118C48.1007 73.502 48.0167 72.774 48.0167 71.934C48.0167 71.0193 48.1007 70.226 48.2687 69.554C48.4461 68.8727 48.7027 68.308 49.0387 67.86C49.3747 67.412 49.7901 67.0807 50.2847 66.866C50.7794 66.642 51.3487 66.53 51.9927 66.53C52.6741 66.53 53.2621 66.6467 53.7567 66.88C54.2607 67.104 54.6574 67.4213 54.9467 67.832C55.2454 68.2427 55.4227 68.728 55.4787 69.288H53.4767C53.4394 69.0827 53.3507 68.9053 53.2107 68.756C53.0707 68.6067 52.8934 68.4947 52.6787 68.42C52.4734 68.3453 52.2401 68.308 51.9787 68.308C51.6334 68.308 51.3394 68.378 51.0967 68.518C50.8634 68.6487 50.6721 68.84 50.5227 69.092C50.3734 69.344 50.2661 69.652 50.2007 70.016C50.1354 70.3707 50.1027 70.7767 50.1027 71.234H50.1867C50.3081 71.0007 50.4714 70.7953 50.6767 70.618C50.8914 70.4407 51.1481 70.3053 51.4467 70.212C51.7454 70.1093 52.0721 70.058 52.4267 70.058C53.0614 70.058 53.6121 70.198 54.0787 70.478C54.5547 70.758 54.9234 71.15 55.1847 71.654C55.4461 72.1487 55.5767 72.7273 55.5767 73.39C55.5767 74.1273 55.4181 74.7573 55.1007 75.28C54.7927 75.7933 54.3587 76.19 53.7987 76.47C53.2481 76.7407 52.6041 76.876 51.8667 76.876ZM51.9087 75.084C52.2354 75.084 52.5201 75.014 52.7627 74.874C53.0054 74.7247 53.1921 74.5193 53.3227 74.258C53.4534 73.9967 53.5187 73.6887 53.5187 73.334C53.5187 72.9793 53.4534 72.676 53.3227 72.424C53.1921 72.1627 53.0054 71.962 52.7627 71.822C52.5294 71.682 52.2447 71.612 51.9087 71.612C51.5821 71.612 51.2927 71.6867 51.0407 71.836C50.7981 71.9853 50.6114 72.1907 50.4807 72.452C50.3501 72.7133 50.2847 73.0167 50.2847 73.362C50.2847 73.7167 50.3501 74.0247 50.4807 74.286C50.6207 74.538 50.8121 74.734 51.0547 74.874C51.2974 75.014 51.5821 75.084 51.9087 75.084ZM56.6967 76.75V76.456C56.6967 75.8587 56.7854 75.3313 56.9627 74.874C57.1401 74.4167 57.3734 74.0153 57.6627 73.67C57.9614 73.3153 58.2834 73.0027 58.6287 72.732C58.9834 72.452 59.3334 72.1953 59.6787 71.962C60.0334 71.7193 60.3554 71.4813 60.6447 71.248C60.9434 71.0147 61.1814 70.772 61.3587 70.52C61.5361 70.2587 61.6247 69.9693 61.6247 69.652C61.6247 69.372 61.5641 69.1293 61.4427 68.924C61.3214 68.7187 61.1534 68.5647 60.9387 68.462C60.7334 68.35 60.4861 68.294 60.1967 68.294C59.8981 68.294 59.6321 68.3593 59.3987 68.49C59.1747 68.6113 59.0067 68.798 58.8947 69.05C58.7827 69.2927 58.7407 69.5913 58.7687 69.946H56.7247C56.7061 69.2553 56.8414 68.6533 57.1307 68.14C57.4294 67.6267 57.8494 67.23 58.3907 66.95C58.9414 66.67 59.5854 66.53 60.3227 66.53C61.0134 66.53 61.6154 66.6513 62.1287 66.894C62.6421 67.1367 63.0387 67.4867 63.3187 67.944C63.6081 68.392 63.7527 68.9287 63.7527 69.554C63.7527 69.9833 63.6827 70.366 63.5427 70.702C63.4121 71.038 63.2347 71.346 63.0107 71.626C62.7867 71.906 62.5347 72.1627 62.2547 72.396C61.9747 72.62 61.6854 72.8347 61.3867 73.04C61.0974 73.2453 60.8127 73.4507 60.5327 73.656C60.2621 73.852 60.0194 74.0573 59.8047 74.272C59.5901 74.4773 59.4267 74.7013 59.3147 74.944H63.8507V76.75H56.6967ZM67.3052 76.75V69.974H64.7572V68.406H65.1772C65.8492 68.406 66.3766 68.2473 66.7592 67.93C67.1512 67.6033 67.3706 67.1787 67.4172 66.656H69.3632V76.75H67.3052ZM74.8785 76.75V69.4H75.8865L75.9565 70.758H76.0125C76.1711 70.2913 76.4511 69.932 76.8525 69.68C77.2538 69.428 77.7018 69.302 78.1965 69.302C78.2805 69.302 78.3598 69.3067 78.4345 69.316C78.5091 69.316 78.5791 69.3207 78.6445 69.33V70.408C78.5791 70.3987 78.5091 70.394 78.4345 70.394C78.3598 70.3847 78.2805 70.38 78.1965 70.38C77.7671 70.38 77.3938 70.4593 77.0765 70.618C76.7591 70.7767 76.5071 71.0053 76.3205 71.304C76.1431 71.5933 76.0358 71.948 75.9985 72.368V76.75H74.8785ZM82.5186 76.876C81.8186 76.876 81.2166 76.722 80.7126 76.414C80.218 76.106 79.84 75.6673 79.5786 75.098C79.3173 74.5287 79.1866 73.866 79.1866 73.11C79.1866 72.3353 79.3173 71.6633 79.5786 71.094C79.84 70.5153 80.2133 70.072 80.6986 69.764C81.184 69.4467 81.7766 69.288 82.4766 69.288C83.2233 69.288 83.8393 69.456 84.3246 69.792C84.81 70.128 85.16 70.5947 85.3746 71.192C85.5986 71.7893 85.6826 72.48 85.6266 73.264H80.2926C80.302 73.8707 80.3953 74.3793 80.5726 74.79C80.7593 75.1913 81.016 75.4947 81.3426 75.7C81.6786 75.896 82.0706 75.994 82.5186 75.994C83.06 75.994 83.5033 75.8587 83.8486 75.588C84.194 75.3173 84.4133 74.9627 84.5066 74.524H85.5846C85.5286 75.0187 85.356 75.4433 85.0666 75.798C84.7866 76.1527 84.4226 76.4233 83.9746 76.61C83.536 76.7873 83.0506 76.876 82.5186 76.876ZM80.3066 72.62L80.1806 72.452H84.6466L84.5206 72.648C84.53 72.06 84.4506 71.5887 84.2826 71.234C84.1146 70.87 83.872 70.604 83.5546 70.436C83.2466 70.2587 82.8873 70.17 82.4766 70.17C82.0473 70.17 81.674 70.2633 81.3566 70.45C81.0393 70.6367 80.7873 70.912 80.6006 71.276C80.4233 71.6307 80.3253 72.0787 80.3066 72.62ZM88.6968 76.75L85.9948 69.4H87.2268L88.8788 74.23L89.3688 75.742H89.4108L89.8728 74.23L91.5248 69.4H92.7428L90.0688 76.75H88.6968ZM93.7456 76.75V69.4H94.8796V76.75H93.7456ZM93.7456 68.182V66.544H94.8796V68.182H93.7456ZM99.8272 76.876C99.1272 76.876 98.5252 76.722 98.0212 76.414C97.5266 76.106 97.1486 75.6673 96.8872 75.098C96.6259 74.5287 96.4952 73.866 96.4952 73.11C96.4952 72.3353 96.6259 71.6633 96.8872 71.094C97.1486 70.5153 97.5219 70.072 98.0072 69.764C98.4926 69.4467 99.0852 69.288 99.7852 69.288C100.532 69.288 101.148 69.456 101.633 69.792C102.119 70.128 102.469 70.5947 102.683 71.192C102.907 71.7893 102.991 72.48 102.935 73.264H97.6012C97.6106 73.8707 97.7039 74.3793 97.8812 74.79C98.0679 75.1913 98.3246 75.4947 98.6512 75.7C98.9872 75.896 99.3792 75.994 99.8272 75.994C100.369 75.994 100.812 75.8587 101.157 75.588C101.503 75.3173 101.722 74.9627 101.815 74.524H102.893C102.837 75.0187 102.665 75.4433 102.375 75.798C102.095 76.1527 101.731 76.4233 101.283 76.61C100.845 76.7873 100.359 76.876 99.8272 76.876ZM97.6152 72.62L97.4892 72.452H101.955L101.829 72.648C101.839 72.06 101.759 71.5887 101.591 71.234C101.423 70.87 101.181 70.604 100.863 70.436C100.555 70.2587 100.196 70.17 99.7852 70.17C99.3559 70.17 98.9826 70.2633 98.6652 70.45C98.3479 70.6367 98.0959 70.912 97.9092 71.276C97.7319 71.6307 97.6339 72.0787 97.6152 72.62ZM105.348 76.75L103.458 69.4H104.592L106.146 75.658H106.202L107.616 69.4H108.988L110.486 75.658H110.528L112.054 69.4H113.146L111.256 76.75H109.758L108.302 70.828H108.246L106.888 76.75H105.348ZM116.594 76.89C115.969 76.89 115.428 76.7873 114.97 76.582C114.522 76.3767 114.177 76.092 113.934 75.728C113.701 75.364 113.584 74.9393 113.584 74.454H114.718C114.718 74.9953 114.891 75.3967 115.236 75.658C115.591 75.91 116.053 76.036 116.622 76.036C117.192 76.036 117.626 75.9287 117.924 75.714C118.232 75.4993 118.386 75.196 118.386 74.804C118.386 74.5053 118.321 74.2767 118.19 74.118C118.06 73.95 117.859 73.8193 117.588 73.726C117.318 73.6327 116.963 73.5533 116.524 73.488C115.918 73.404 115.409 73.2873 114.998 73.138C114.597 72.9887 114.294 72.7787 114.088 72.508C113.892 72.228 113.794 71.864 113.794 71.416C113.794 70.9867 113.911 70.6133 114.144 70.296C114.378 69.9693 114.704 69.7173 115.124 69.54C115.544 69.3533 116.034 69.26 116.594 69.26C117.182 69.26 117.682 69.358 118.092 69.554C118.512 69.7407 118.83 70.0067 119.044 70.352C119.268 70.688 119.385 71.0893 119.394 71.556H118.288C118.279 71.2107 118.2 70.9353 118.05 70.73C117.91 70.5247 117.714 70.3753 117.462 70.282C117.22 70.1793 116.926 70.128 116.58 70.128C116.058 70.128 115.652 70.2353 115.362 70.45C115.073 70.6647 114.928 70.9493 114.928 71.304C114.928 71.5747 114.998 71.794 115.138 71.962C115.278 72.1207 115.493 72.2467 115.782 72.34C116.072 72.424 116.445 72.4987 116.902 72.564C117.313 72.62 117.682 72.6947 118.008 72.788C118.335 72.8813 118.61 73.012 118.834 73.18C119.068 73.3387 119.24 73.544 119.352 73.796C119.474 74.0387 119.534 74.342 119.534 74.706C119.534 75.406 119.264 75.9473 118.722 76.33C118.19 76.7033 117.481 76.89 116.594 76.89Z" fill="white"/>
<defs>
<clipPath id="clip0_0_1">
<rect width="120" height="21.64" fill="white" transform="translate(0 27.1113)"/>
</clipPath>
</defs>
</svg>
