<svg width="155" height="90" viewBox="0 0 155 90" fill="none" xmlns="http://www.w3.org/2000/svg">
<g clip-path="url(#clip0_705_1908)">
<path d="M28.9081 9.57288H40.0452V11.6506H35.6661V23.3303H33.2581V11.6506H28.8984V9.57288H28.9081ZM39.5694 13.369H41.6279V15.2914H41.6667C41.7347 15.0195 41.8609 14.7574 42.0454 14.505C42.2299 14.2525 42.4532 14.0098 42.7154 13.8059C42.9776 13.5923 43.2689 13.4273 43.5893 13.2914C43.9097 13.1651 44.2398 13.0972 44.57 13.0972C44.8224 13.0972 45.0069 13.1069 45.104 13.1166C45.2011 13.1263 45.2982 13.1457 45.405 13.1554V15.272C45.2496 15.2428 45.0943 15.2234 44.9292 15.204C44.7642 15.1846 44.6088 15.1749 44.4534 15.1749C44.0845 15.1749 43.7349 15.2525 43.4048 15.3982C43.0747 15.5438 42.7931 15.7671 42.5503 16.0487C42.3076 16.3399 42.1134 16.6895 41.9677 17.1166C41.8221 17.5438 41.7541 18.0293 41.7541 18.5827V23.3206H39.5597V13.369H39.5694ZM55.4934 23.3303H53.3379V21.9419H53.299C53.0271 22.4468 52.629 22.8449 52.095 23.1458C51.561 23.4468 51.0172 23.6022 50.4638 23.6022C49.153 23.6022 48.2014 23.2818 47.6188 22.6313C47.0362 21.9808 46.7449 21.0002 46.7449 19.6895V13.369H48.9393V19.4759C48.9393 20.3497 49.1044 20.9711 49.4443 21.3303C49.7744 21.6895 50.2502 21.874 50.8522 21.874C51.3182 21.874 51.6969 21.806 52.0076 21.6604C52.3183 21.5148 52.5708 21.3303 52.7553 21.0876C52.9495 20.8546 53.0854 20.5633 53.1728 20.2332C53.2602 19.9031 53.299 19.5439 53.299 19.1555V13.3787H55.4934V23.3303ZM59.2317 20.1361C59.2996 20.7769 59.5424 21.2235 59.9599 21.4856C60.3871 21.7381 60.892 21.874 61.4843 21.874C61.6882 21.874 61.9213 21.8546 62.1834 21.8254C62.4456 21.7963 62.698 21.7283 62.9214 21.641C63.1544 21.5536 63.3389 21.4177 63.4942 21.2429C63.6399 21.0681 63.7079 20.8448 63.6982 20.5633C63.6884 20.2817 63.5816 20.0487 63.3874 19.874C63.1932 19.6895 62.9505 19.5536 62.6495 19.4371C62.3485 19.3303 62.0087 19.2332 61.6203 19.1555C61.2319 19.0778 60.8435 18.9905 60.4454 18.9031C60.0376 18.8157 59.6395 18.6992 59.2608 18.573C58.8821 18.4468 58.5423 18.272 58.2413 18.0487C57.9403 17.8351 57.6975 17.5535 57.5228 17.2137C57.3383 16.8739 57.2509 16.4564 57.2509 15.9516C57.2509 15.4079 57.3868 14.9613 57.649 14.5923C57.9111 14.2234 58.251 13.9321 58.6491 13.7088C59.0569 13.4855 59.5035 13.3302 59.9987 13.2331C60.4939 13.1457 60.9697 13.0972 61.4164 13.0972C61.931 13.0972 62.4262 13.1554 62.8922 13.2622C63.3583 13.369 63.7855 13.5438 64.1642 13.7962C64.5429 14.0389 64.8536 14.3593 65.1061 14.7477C65.3585 15.136 65.5139 15.6118 65.5818 16.1652H63.2903C63.1835 15.6409 62.9505 15.2817 62.5718 15.1069C62.1931 14.9224 61.7562 14.8351 61.2707 14.8351C61.1154 14.8351 60.9309 14.8448 60.7173 14.8739C60.5036 14.903 60.3094 14.9516 60.1153 15.0195C59.9308 15.0875 59.7754 15.1943 59.6395 15.3302C59.5133 15.4661 59.4453 15.6409 59.4453 15.8642C59.4453 16.1361 59.5424 16.3496 59.7269 16.5147C59.9113 16.6797 60.1541 16.8157 60.4551 16.9322C60.7561 17.039 61.0959 17.1361 61.4843 17.2137C61.8727 17.2914 62.2708 17.3788 62.6786 17.4662C63.0767 17.5535 63.4651 17.6701 63.8535 17.7963C64.2419 17.9225 64.5817 18.0972 64.8827 18.3205C65.1837 18.5438 65.4265 18.8157 65.611 19.1458C65.7955 19.4759 65.8925 19.8934 65.8925 20.3788C65.8925 20.9711 65.7566 21.4662 65.4847 21.8837C65.2129 22.2915 64.8633 22.6313 64.4361 22.8837C64.0089 23.1361 63.5234 23.3303 62.999 23.4468C62.4747 23.5633 61.9504 23.6216 61.4358 23.6216C60.8046 23.6216 60.2221 23.5536 59.688 23.408C59.154 23.2623 58.6879 23.0487 58.2995 22.7672C57.9111 22.4759 57.6004 22.1167 57.3771 21.6895C57.1538 21.2623 57.0373 20.7478 57.0178 20.1555H59.2317V20.1361ZM66.4751 13.369H68.1355V10.3787H70.3299V13.369H72.3107V15.0098H70.3299V20.3303C70.3299 20.5633 70.3396 20.7575 70.359 20.9322C70.3784 21.0973 70.427 21.2429 70.495 21.3594C70.5629 21.4759 70.6697 21.5633 70.8154 21.6215C70.961 21.6798 71.1455 21.7089 71.398 21.7089C71.5533 21.7089 71.7087 21.7089 71.864 21.6992C72.0194 21.6895 72.1748 21.6701 72.3301 21.6313V23.3303C72.0874 23.3594 71.8446 23.3788 71.6213 23.408C71.3883 23.4371 71.1552 23.4468 70.9125 23.4468C70.3299 23.4468 69.8638 23.3886 69.5143 23.2818C69.1647 23.175 68.8832 23.0099 68.689 22.7963C68.4851 22.5827 68.3588 22.3206 68.2811 22.0002C68.2132 21.6798 68.1646 21.3109 68.1549 20.9031V15.0292H66.4946V13.369H66.4751ZM73.8643 13.369H75.9421V14.7186H75.981C76.2917 14.136 76.7189 13.7283 77.2724 13.4758C77.8258 13.2234 78.4181 13.0972 79.0687 13.0972C79.8552 13.0972 80.5348 13.2331 81.1174 13.5147C81.7 13.7865 82.1855 14.1652 82.5739 14.6506C82.9623 15.136 83.2439 15.6992 83.438 16.3399C83.6322 16.9807 83.7293 17.6701 83.7293 18.3982C83.7293 19.0681 83.642 19.7186 83.4672 20.34C83.2924 20.9711 83.0302 21.5245 82.6807 22.0099C82.3311 22.4953 81.8845 22.874 81.3407 23.1653C80.797 23.4565 80.1659 23.6022 79.4279 23.6022C79.1075 23.6022 78.7871 23.573 78.4667 23.5148C78.1462 23.4565 77.8355 23.3594 77.5442 23.2332C77.2529 23.107 76.9714 22.942 76.7286 22.7381C76.4762 22.5342 76.2723 22.3012 76.0975 22.039H76.0586V27.01H73.8643V13.369ZM81.5349 18.3594C81.5349 17.9128 81.4767 17.4759 81.3602 17.0487C81.2437 16.6215 81.0689 16.2526 80.8358 15.9225C80.6028 15.5924 80.3115 15.3302 79.9717 15.136C79.6221 14.9419 79.224 14.8351 78.7774 14.8351C77.8549 14.8351 77.1558 15.1555 76.6898 15.7962C76.2237 16.437 75.9907 17.2914 75.9907 18.3594C75.9907 18.8642 76.0489 19.3303 76.1752 19.7575C76.3014 20.1846 76.4762 20.5536 76.7286 20.8643C76.9714 21.1749 77.2627 21.4177 77.6025 21.5924C77.9423 21.7769 78.3404 21.8643 78.7871 21.8643C79.292 21.8643 79.7095 21.7575 80.0591 21.5536C80.4086 21.3497 80.6902 21.0779 80.9135 20.7575C81.1368 20.4274 81.3019 20.0584 81.399 19.6409C81.4864 19.2235 81.5349 18.7963 81.5349 18.3594ZM85.4091 9.57288H87.6035V11.6506H85.4091V9.57288ZM85.4091 13.369H87.6035V23.3303H85.4091V13.369ZM89.5649 9.57288H91.7593V23.3303H89.5649V9.57288ZM98.4882 23.6022C97.6919 23.6022 96.9831 23.4662 96.3617 23.2041C95.7403 22.942 95.216 22.573 94.779 22.1167C94.3518 21.6507 94.0217 21.0973 93.7983 20.4565C93.575 19.8157 93.4585 19.107 93.4585 18.34C93.4585 17.5827 93.575 16.8836 93.7983 16.2429C94.0217 15.6021 94.3518 15.0487 94.779 14.5826C95.2063 14.1166 95.7403 13.7574 96.3617 13.4952C96.9831 13.2331 97.6919 13.0972 98.4882 13.0972C99.2843 13.0972 99.9932 13.2331 100.615 13.4952C101.236 13.7574 101.76 14.1263 102.197 14.5826C102.625 15.0487 102.955 15.6021 103.178 16.2429C103.401 16.8836 103.518 17.5827 103.518 18.34C103.518 19.107 103.401 19.8157 103.178 20.4565C102.955 21.0973 102.625 21.6507 102.197 22.1167C101.77 22.5827 101.236 22.942 100.615 23.2041C99.9932 23.4662 99.2843 23.6022 98.4882 23.6022ZM98.4882 21.8643C98.9736 21.8643 99.4009 21.7575 99.7601 21.5536C100.119 21.3497 100.411 21.0779 100.644 20.7478C100.877 20.4177 101.042 20.039 101.158 19.6215C101.265 19.204 101.323 18.7769 101.323 18.34C101.323 17.9128 101.265 17.4953 101.158 17.0681C101.052 16.6409 100.877 16.272 100.644 15.9419C100.411 15.6118 100.119 15.3496 99.7601 15.1458C99.4009 14.9419 98.9736 14.8351 98.4882 14.8351C98.0027 14.8351 97.5754 14.9419 97.2162 15.1458C96.8569 15.3496 96.5656 15.6215 96.3326 15.9419C96.0996 16.272 95.9345 16.6409 95.818 17.0681C95.7112 17.4953 95.6529 17.9128 95.6529 18.34C95.6529 18.7769 95.7112 19.204 95.818 19.6215C95.9248 20.039 96.0996 20.4177 96.3326 20.7478C96.5656 21.0779 96.8569 21.3497 97.2162 21.5536C97.5754 21.7672 98.0027 21.8643 98.4882 21.8643ZM104.159 13.369H105.819V10.3787H108.013V13.369H109.994V15.0098H108.013V20.3303C108.013 20.5633 108.023 20.7575 108.043 20.9322C108.062 21.0973 108.111 21.2429 108.178 21.3594C108.246 21.4759 108.353 21.5633 108.499 21.6215C108.645 21.6798 108.829 21.7089 109.081 21.7089C109.237 21.7089 109.392 21.7089 109.548 21.6992C109.703 21.6895 109.858 21.6701 110.014 21.6313V23.3303C109.771 23.3594 109.528 23.3788 109.305 23.408C109.072 23.4371 108.839 23.4468 108.596 23.4468C108.013 23.4468 107.547 23.3886 107.198 23.2818C106.848 23.175 106.567 23.0099 106.372 22.7963C106.169 22.5827 106.042 22.3206 105.965 22.0002C105.897 21.6798 105.848 21.3109 105.838 20.9031V15.0292H104.178V13.369H104.159Z" fill="#454545"/>
<path d="M26.3503 9.57292H16.291L13.1839 0L10.0671 9.57292L0.0078125 9.56321L8.15429 15.4856L5.03746 25.0488L13.1839 19.1361L21.3207 25.0488L18.2136 15.4856L26.3503 9.57292Z" fill="#00B67A"/>
<path d="M18.9084 17.6509L18.2093 15.4856L13.1797 19.1365L18.9084 17.6509Z" fill="#005128"/>
</g>
<g clip-path="url(#clip1_705_1908)">
<rect width="155" height="29.06" transform="translate(0 37.01)" fill="#DCDCE6"/>
<path d="M151.9 37.01H0V66.07H151.9V37.01Z" fill="#00B67A"/>
<path d="M14.5312 56.5953L18.9512 55.4753L20.7978 61.1662L14.5312 56.5953ZM24.7031 49.2395H16.9229L14.5312 41.9139L12.1396 49.2395H4.35938L10.6563 53.7801L8.26465 61.1056L14.5615 56.565L18.4365 53.7801L24.7031 49.2395Z" fill="white"/>
<path d="M32.5531 37.01H29.4531V66.07H32.5531V37.01Z" fill="white"/>
<path d="M46.0156 56.5953L50.4355 55.4753L52.2822 61.1662L46.0156 56.5953ZM56.1875 49.2395H48.4072L46.0156 41.9139L43.624 49.2395H35.8438L42.1406 53.7801L39.749 61.1056L46.0459 56.565L49.9209 53.7801L56.1875 49.2395Z" fill="white"/>
<path d="M63.5531 37.01H60.4531V66.07H63.5531V37.01Z" fill="white"/>
<path d="M77.5 56.5953L81.9199 55.4753L83.7666 61.1662L77.5 56.5953ZM87.6719 49.2395H79.8916L77.5 41.9139L75.1084 49.2395H67.3281L73.625 53.7801L71.2334 61.1056L77.5303 56.565L81.4053 53.7801L87.6719 49.2395Z" fill="white"/>
<path d="M94.5531 37.01H91.4531V66.07H94.5531V37.01Z" fill="white"/>
<path d="M108.984 56.5953L113.404 55.4753L115.251 61.1662L108.984 56.5953ZM119.156 49.2395H111.376L108.984 41.9139L106.593 49.2395H98.8125L105.109 53.7801L102.718 61.1056L109.015 56.565L112.89 53.7801L119.156 49.2395Z" fill="white"/>
<path d="M125.553 37.01H122.453V66.07H125.553V37.01Z" fill="white"/>
<path d="M140.469 56.5953L144.889 55.4753L146.735 61.1662L140.469 56.5953ZM150.641 49.2395H142.86L140.469 41.9139L138.077 49.2395H130.297L136.594 53.7801L134.202 61.1056L140.499 56.565L144.374 53.7801L150.641 49.2395Z" fill="white"/>
</g>
<path d="M7.77246 83.0087H6.56934V85.08H4.50488V83.0087H0.239258V81.5389L4.62109 75.0858H6.56934V81.368H7.77246V83.0087ZM4.50488 81.368V79.6727C4.50488 79.3902 4.51628 78.98 4.53906 78.4423C4.56185 77.9045 4.58008 77.5923 4.59375 77.5057H4.53906C4.37044 77.8794 4.16764 78.244 3.93066 78.5995L2.09863 81.368H4.50488ZM8.79785 84.1024C8.79785 83.7196 8.90039 83.4302 9.10547 83.2343C9.31055 83.0383 9.60905 82.9403 10.001 82.9403C10.3792 82.9403 10.6709 83.0406 10.876 83.2411C11.0856 83.4416 11.1904 83.7287 11.1904 84.1024C11.1904 84.4624 11.0856 84.7473 10.876 84.9569C10.6663 85.162 10.3747 85.2645 10.001 85.2645C9.61816 85.2645 9.32194 85.1643 9.1123 84.9637C8.90267 84.7587 8.79785 84.4716 8.79785 84.1024ZM19.4961 79.3514C19.4961 81.3202 19.0814 82.7899 18.252 83.7606C17.4225 84.7313 16.167 85.2167 14.4854 85.2167C13.8929 85.2167 13.444 85.1848 13.1387 85.121V83.4257C13.5215 83.5214 13.9225 83.5692 14.3418 83.5692C15.0482 83.5692 15.6292 83.4667 16.085 83.2616C16.5407 83.052 16.8893 82.7261 17.1309 82.2841C17.3724 81.8374 17.5114 81.2245 17.5479 80.4452H17.4658C17.2015 80.8736 16.8962 81.1744 16.5498 81.3475C16.2035 81.5207 15.7705 81.6073 15.251 81.6073C14.3805 81.6073 13.6947 81.3293 13.1934 80.7733C12.6921 80.2128 12.4414 79.4358 12.4414 78.4423C12.4414 77.3713 12.7445 76.5259 13.3506 75.9061C13.9613 75.2818 14.7907 74.9696 15.8389 74.9696C16.5771 74.9696 17.222 75.1428 17.7734 75.4891C18.3294 75.8355 18.7555 76.3391 19.0518 76.9999C19.348 77.6561 19.4961 78.44 19.4961 79.3514ZM15.8799 76.6649C15.4424 76.6649 15.1006 76.8153 14.8545 77.1161C14.6084 77.4169 14.4854 77.8498 14.4854 78.4149C14.4854 78.898 14.597 79.2808 14.8203 79.5634C15.0436 79.8459 15.3831 79.9872 15.8389 79.9872C16.2673 79.9872 16.6341 79.8482 16.9395 79.5702C17.2448 79.2876 17.3975 78.9641 17.3975 78.5995C17.3975 78.0572 17.2539 77.5992 16.9668 77.2255C16.6842 76.8518 16.3219 76.6649 15.8799 76.6649ZM25.7031 75.0858L21.9775 85.08H20.084L23.8096 75.0858H25.7031ZM29.9688 78.6952C30.9349 78.6952 31.7028 78.9663 32.2725 79.5087C32.8467 80.051 33.1338 80.7938 33.1338 81.7372C33.1338 82.8537 32.7897 83.7128 32.1016 84.3143C31.4134 84.9159 30.429 85.2167 29.1484 85.2167C28.0365 85.2167 27.1387 85.0367 26.4551 84.6766V82.8514C26.8151 83.0428 27.2344 83.2001 27.7129 83.3231C28.1914 83.4416 28.6449 83.5009 29.0732 83.5009C30.363 83.5009 31.0078 82.9722 31.0078 81.9149C31.0078 80.9078 30.3402 80.4042 29.0049 80.4042C28.7633 80.4042 28.4967 80.4292 28.2051 80.4794C27.9134 80.5249 27.6764 80.5751 27.4941 80.6298L26.6533 80.1786L27.0293 75.0858H32.4502V76.8768H28.8818L28.6973 78.8387L28.9365 78.7909C29.2145 78.7271 29.5586 78.6952 29.9688 78.6952ZM40.5166 74.4843H42.0137V88.2587H40.5166V74.4843ZM56.2598 79.3514C56.2598 81.3202 55.8451 82.7899 55.0156 83.7606C54.1862 84.7313 52.9307 85.2167 51.249 85.2167C50.6566 85.2167 50.2077 85.1848 49.9023 85.121V83.4257C50.2852 83.5214 50.6862 83.5692 51.1055 83.5692C51.8118 83.5692 52.3929 83.4667 52.8486 83.2616C53.3044 83.052 53.653 82.7261 53.8945 82.2841C54.1361 81.8374 54.2751 81.2245 54.3115 80.4452H54.2295C53.9652 80.8736 53.6598 81.1744 53.3135 81.3475C52.9671 81.5207 52.5342 81.6073 52.0146 81.6073C51.1442 81.6073 50.4583 81.3293 49.957 80.7733C49.4557 80.2128 49.2051 79.4358 49.2051 78.4423C49.2051 77.3713 49.5081 76.5259 50.1143 75.9061C50.7249 75.2818 51.5544 74.9696 52.6025 74.9696C53.3408 74.9696 53.9857 75.1428 54.5371 75.4891C55.0931 75.8355 55.5192 76.3391 55.8154 76.9999C56.1117 77.6561 56.2598 78.44 56.2598 79.3514ZM52.6436 76.6649C52.2061 76.6649 51.8643 76.8153 51.6182 77.1161C51.3721 77.4169 51.249 77.8498 51.249 78.4149C51.249 78.898 51.3607 79.2808 51.584 79.5634C51.8073 79.8459 52.1468 79.9872 52.6025 79.9872C53.0309 79.9872 53.3978 79.8482 53.7031 79.5702C54.0085 79.2876 54.1611 78.9641 54.1611 78.5995C54.1611 78.0572 54.0176 77.5992 53.7305 77.2255C53.4479 76.8518 53.0856 76.6649 52.6436 76.6649ZM64.2441 80.0829C64.2441 81.8283 63.957 83.1203 63.3828 83.9589C62.8132 84.7974 61.9336 85.2167 60.7441 85.2167C59.5911 85.2167 58.7207 84.7837 58.1328 83.9178C57.5495 83.052 57.2578 81.7736 57.2578 80.0829C57.2578 78.3192 57.5426 77.0204 58.1123 76.1864C58.682 75.3479 59.5592 74.9286 60.7441 74.9286C61.8971 74.9286 62.7676 75.3661 63.3555 76.2411C63.9479 77.1161 64.2441 78.3967 64.2441 80.0829ZM59.3564 80.0829C59.3564 81.3088 59.4613 82.1884 59.6709 82.7216C59.8851 83.2502 60.2428 83.5145 60.7441 83.5145C61.2363 83.5145 61.5918 83.2456 61.8105 82.7079C62.0293 82.1701 62.1387 81.2951 62.1387 80.0829C62.1387 78.857 62.027 77.9774 61.8037 77.4442C61.585 76.9065 61.2318 76.6376 60.7441 76.6376C60.2474 76.6376 59.8919 76.9065 59.6777 77.4442C59.4635 77.9774 59.3564 78.857 59.3564 80.0829ZM70.5332 85.08H68.4209V79.2968L68.4414 78.3466L68.4756 77.3075C68.1247 77.6584 67.8809 77.8885 67.7441 77.9979L66.5957 78.9208L65.5771 77.6493L68.7969 75.0858H70.5332V85.08ZM80.2402 80.0829C80.2402 81.8283 79.9531 83.1203 79.3789 83.9589C78.8092 84.7974 77.9297 85.2167 76.7402 85.2167C75.5872 85.2167 74.7168 84.7837 74.1289 83.9178C73.5456 83.052 73.2539 81.7736 73.2539 80.0829C73.2539 78.3192 73.5387 77.0204 74.1084 76.1864C74.6781 75.3479 75.5553 74.9286 76.7402 74.9286C77.8932 74.9286 78.7637 75.3661 79.3516 76.2411C79.944 77.1161 80.2402 78.3967 80.2402 80.0829ZM75.3525 80.0829C75.3525 81.3088 75.4574 82.1884 75.667 82.7216C75.8812 83.2502 76.2389 83.5145 76.7402 83.5145C77.2324 83.5145 77.5879 83.2456 77.8066 82.7079C78.0254 82.1701 78.1348 81.2951 78.1348 80.0829C78.1348 78.857 78.0231 77.9774 77.7998 77.4442C77.5811 76.9065 77.2279 76.6376 76.7402 76.6376C76.2435 76.6376 75.888 76.9065 75.6738 77.4442C75.4596 77.9774 75.3525 78.857 75.3525 80.0829ZM89.0039 77.451C89.3366 77.451 89.6351 77.4784 89.8994 77.5331L89.7422 78.5858C89.4323 78.5175 89.1589 78.4833 88.9219 78.4833C88.3158 78.4833 87.7962 78.7294 87.3633 79.2216C86.9349 79.7137 86.7207 80.3267 86.7207 81.0604V85.08H85.5859V77.5878H86.5225L86.6523 78.9755H86.707C86.985 78.4878 87.32 78.1119 87.7119 77.8475C88.1038 77.5832 88.5345 77.451 89.0039 77.451ZM94.4658 85.2167C93.3584 85.2167 92.4834 84.8794 91.8408 84.205C91.2028 83.5305 90.8838 82.594 90.8838 81.3954C90.8838 80.1877 91.18 79.2284 91.7725 78.5175C92.3695 77.8065 93.1693 77.451 94.1719 77.451C95.1107 77.451 95.8535 77.7609 96.4004 78.3807C96.9473 78.996 97.2207 79.8094 97.2207 80.8212V81.5389H92.0596C92.0824 82.4185 92.3034 83.0861 92.7227 83.5419C93.1465 83.9976 93.7412 84.2255 94.5068 84.2255C95.3135 84.2255 96.111 84.0568 96.8994 83.7196V84.7313C96.4984 84.9045 96.1178 85.0275 95.7578 85.1005C95.4023 85.1779 94.9717 85.2167 94.4658 85.2167ZM94.1582 78.4012C93.5566 78.4012 93.0758 78.5972 92.7158 78.9891C92.3604 79.3811 92.1507 79.9234 92.0869 80.6161H96.0039C96.0039 79.9006 95.8444 79.3537 95.5254 78.9755C95.2064 78.5927 94.7507 78.4012 94.1582 78.4012ZM100.803 85.08L97.959 77.5878H99.1758L100.789 82.0311C101.154 83.0702 101.368 83.7447 101.432 84.0546H101.486C101.536 83.813 101.694 83.314 101.958 82.5575C102.227 81.7964 102.826 80.1399 103.756 77.5878H104.973L102.129 85.08H100.803ZM107.311 85.08H106.176V77.5878H107.311V85.08ZM106.08 75.5575C106.08 75.2977 106.144 75.1086 106.271 74.9901C106.399 74.8671 106.559 74.8055 106.75 74.8055C106.932 74.8055 107.09 74.8671 107.222 74.9901C107.354 75.1132 107.42 75.3023 107.42 75.5575C107.42 75.8127 107.354 76.0041 107.222 76.1317C107.09 76.2548 106.932 76.3163 106.75 76.3163C106.559 76.3163 106.399 76.2548 106.271 76.1317C106.144 76.0041 106.08 75.8127 106.08 75.5575ZM112.882 85.2167C111.774 85.2167 110.899 84.8794 110.257 84.205C109.619 83.5305 109.3 82.594 109.3 81.3954C109.3 80.1877 109.596 79.2284 110.188 78.5175C110.785 77.8065 111.585 77.451 112.588 77.451C113.527 77.451 114.27 77.7609 114.816 78.3807C115.363 78.996 115.637 79.8094 115.637 80.8212V81.5389H110.476C110.498 82.4185 110.719 83.0861 111.139 83.5419C111.562 83.9976 112.157 84.2255 112.923 84.2255C113.729 84.2255 114.527 84.0568 115.315 83.7196V84.7313C114.914 84.9045 114.534 85.0275 114.174 85.1005C113.818 85.1779 113.388 85.2167 112.882 85.2167ZM112.574 78.4012C111.973 78.4012 111.492 78.5972 111.132 78.9891C110.776 79.3811 110.567 79.9234 110.503 80.6161H114.42C114.42 79.9006 114.26 79.3537 113.941 78.9755C113.622 78.5927 113.167 78.4012 112.574 78.4012ZM123.696 85.08L122.322 80.6844C122.236 80.4156 122.074 79.8049 121.837 78.8524H121.782C121.6 79.6499 121.44 80.2652 121.304 80.6981L119.889 85.08H118.576L116.532 77.5878H117.722C118.205 79.4699 118.572 80.9032 118.822 81.8876C119.077 82.8719 119.223 83.535 119.26 83.8768H119.314C119.365 83.6171 119.444 83.2821 119.554 82.8719C119.668 82.4572 119.766 82.1291 119.848 81.8876L121.222 77.5878H122.452L123.792 81.8876C124.047 82.6714 124.22 83.33 124.312 83.8632H124.366C124.384 83.6991 124.432 83.4462 124.51 83.1044C124.592 82.7626 125.068 80.9237 125.938 77.5878H127.114L125.043 85.08H123.696ZM133.308 83.036C133.308 83.7333 133.048 84.271 132.528 84.6493C132.009 85.0275 131.28 85.2167 130.341 85.2167C129.347 85.2167 128.573 85.0594 128.017 84.745V83.6923C128.377 83.8746 128.762 84.0181 129.172 84.1229C129.587 84.2277 129.985 84.2802 130.368 84.2802C130.961 84.2802 131.416 84.1867 131.735 83.9999C132.054 83.8085 132.214 83.5191 132.214 83.1317C132.214 82.84 132.086 82.5917 131.831 82.3866C131.58 82.177 131.088 81.9309 130.354 81.6483C129.657 81.3885 129.16 81.163 128.864 80.9716C128.573 80.7756 128.354 80.5546 128.208 80.3085C128.067 80.0624 127.996 79.7684 127.996 79.4266C127.996 78.816 128.244 78.3352 128.741 77.9843C129.238 77.6288 129.919 77.451 130.785 77.451C131.592 77.451 132.38 77.6151 133.15 77.9432L132.747 78.8661C131.995 78.5562 131.314 78.4012 130.703 78.4012C130.165 78.4012 129.76 78.4856 129.486 78.6542C129.213 78.8228 129.076 79.0552 129.076 79.3514C129.076 79.552 129.126 79.7229 129.227 79.8641C129.331 80.0054 129.498 80.1399 129.726 80.2675C129.953 80.3951 130.391 80.5796 131.038 80.8212C131.927 81.1447 132.526 81.4706 132.836 81.7987C133.15 82.1268 133.308 82.5393 133.308 83.036Z" fill="#454545"/>
<defs>
<clipPath id="clip0_705_1908">
<rect width="110" height="27.01" fill="white"/>
</clipPath>
<clipPath id="clip1_705_1908">
<rect width="155" height="29.06" fill="white" transform="translate(0 37.01)"/>
</clipPath>
</defs>
</svg>
