<svg width="135" height="87" viewBox="0 0 135 87" fill="none" xmlns="http://www.w3.org/2000/svg">
<path d="M7.37019 18.9765C6.36219 18.9765 5.45619 18.8205 4.65219 18.5085C3.86019 18.1845 3.18219 17.7285 2.61819 17.1405C2.06619 16.5405 1.64019 15.8265 1.34019 14.9985C1.05219 14.1705 0.908188 13.2525 0.908188 12.2445C0.908188 11.1885 1.06419 10.2525 1.37619 9.43645C1.70019 8.60845 2.15019 7.90645 2.72619 7.33045C3.30219 6.74245 3.99219 6.29845 4.79619 5.99845C5.60019 5.68645 6.49419 5.53045 7.47819 5.53045C8.61819 5.53045 9.62019 5.72245 10.4842 6.10645C11.3482 6.47845 12.0382 7.00645 12.5542 7.69045C13.0822 8.36245 13.4002 9.15445 13.5082 10.0665H11.0602C10.9522 9.53845 10.7302 9.09445 10.3942 8.73445C10.0702 8.36245 9.65619 8.08045 9.15219 7.88845C8.66019 7.68445 8.10219 7.58245 7.47819 7.58245C6.65019 7.58245 5.92419 7.76245 5.30019 8.12245C4.67619 8.47045 4.19619 8.99245 3.86019 9.68845C3.52419 10.3845 3.35619 11.2365 3.35619 12.2445C3.35619 13.0005 3.44619 13.6785 3.62619 14.2785C3.81819 14.8665 4.09419 15.3585 4.45419 15.7545C4.81419 16.1505 5.24019 16.4565 5.73219 16.6725C6.23619 16.8765 6.79419 16.9785 7.40619 16.9785C8.21019 16.9785 8.90619 16.8345 9.49419 16.5465C10.0822 16.2465 10.5382 15.8205 10.8622 15.2685C11.1862 14.7045 11.3482 14.0385 11.3482 13.2705V12.8025L12.0502 13.6305H7.44219V11.9025H13.7602V13.0005C13.7602 13.9125 13.6042 14.7405 13.2922 15.4845C12.9922 16.2165 12.5602 16.8405 11.9962 17.3565C11.4442 17.8725 10.7722 18.2745 9.98019 18.5625C9.20019 18.8385 8.33019 18.9765 7.37019 18.9765ZM41.3718 22.0005C40.5678 22.0005 39.8718 21.8805 39.2838 21.6405C38.6958 21.4125 38.2278 21.0825 37.8798 20.6505C37.5438 20.2305 37.3518 19.7385 37.3038 19.1745H39.4638C39.5118 19.4145 39.6198 19.6245 39.7878 19.8045C39.9678 19.9845 40.1958 20.1225 40.4718 20.2185C40.7478 20.3265 41.0658 20.3805 41.4258 20.3805C41.9658 20.3805 42.4098 20.3025 42.7578 20.1465C43.1178 19.9905 43.3818 19.7505 43.5498 19.4265C43.7298 19.1025 43.8198 18.6825 43.8198 18.1665V16.4025H43.6938C43.4898 16.9545 43.1178 17.4045 42.5778 17.7525C42.0378 18.0885 41.4018 18.2565 40.6698 18.2565C40.0938 18.2565 39.5718 18.1545 39.1038 17.9505C38.6478 17.7465 38.2518 17.4525 37.9158 17.0685C37.5798 16.6725 37.3218 16.1925 37.1418 15.6285C36.9618 15.0525 36.8718 14.3925 36.8718 13.6485C36.8718 12.6525 37.0278 11.8185 37.3398 11.1465C37.6638 10.4625 38.1138 9.94645 38.6898 9.59845C39.2658 9.23845 39.9378 9.05845 40.7058 9.05845C41.4258 9.05845 42.0498 9.22645 42.5778 9.56245C43.1178 9.89845 43.4898 10.3365 43.6938 10.8765H43.8198L43.8918 9.23845H46.0698V17.8065C46.0698 18.5745 45.9558 19.2225 45.7278 19.7505C45.5118 20.2905 45.1938 20.7225 44.7738 21.0465C44.3538 21.3825 43.8558 21.6225 43.2798 21.7665C42.7158 21.9225 42.0798 22.0005 41.3718 22.0005ZM41.4798 16.5105C41.9838 16.5105 42.4038 16.4025 42.7398 16.1865C43.0878 15.9585 43.3518 15.6705 43.5318 15.3225C43.7118 14.9625 43.8078 14.5965 43.8198 14.2245V13.0725C43.8078 12.6885 43.7118 12.3285 43.5318 11.9925C43.3518 11.6445 43.0938 11.3625 42.7578 11.1465C42.4218 10.9185 42.0018 10.8045 41.4978 10.8045C41.0298 10.8045 40.6158 10.9125 40.2558 11.1285C39.9078 11.3445 39.6378 11.6625 39.4458 12.0825C39.2538 12.5025 39.1578 13.0245 39.1578 13.6485C39.1578 14.2845 39.2538 14.8185 39.4458 15.2505C39.6498 15.6705 39.9258 15.9885 40.2738 16.2045C40.6218 16.4085 41.0238 16.5105 41.4798 16.5105Z" fill="#3074F1"/>
<path d="M19.8972 18.9765C19.1772 18.9765 18.5292 18.8685 17.9532 18.6525C17.3772 18.4245 16.8732 18.0945 16.4412 17.6625C16.0212 17.2305 15.6972 16.7085 15.4692 16.0965C15.2532 15.4845 15.1452 14.7945 15.1452 14.0265C15.1452 13.0425 15.3312 12.1785 15.7032 11.4345C16.0872 10.6905 16.6332 10.1085 17.3412 9.68845C18.0492 9.26845 18.9012 9.05845 19.8972 9.05845C20.6052 9.05845 21.2472 9.17245 21.8232 9.40045C22.3992 9.62845 22.8912 9.95845 23.2992 10.3905C23.7192 10.8225 24.0432 11.3445 24.2712 11.9565C24.4992 12.5565 24.6132 13.2465 24.6132 14.0265C24.6132 14.9985 24.4212 15.8565 24.0372 16.6005C23.6652 17.3445 23.1252 17.9265 22.4172 18.3465C21.7212 18.7665 20.8812 18.9765 19.8972 18.9765ZM19.8792 17.1225C20.3712 17.1225 20.8032 17.0085 21.1752 16.7805C21.5472 16.5405 21.8352 16.1925 22.0392 15.7365C22.2432 15.2685 22.3452 14.6985 22.3452 14.0265C22.3452 13.5225 22.2852 13.0785 22.1652 12.6945C22.0572 12.2985 21.8952 11.9685 21.6792 11.7045C21.4632 11.4405 21.2052 11.2425 20.9052 11.1105C20.6052 10.9785 20.2692 10.9125 19.8972 10.9125C19.4052 10.9125 18.9672 11.0325 18.5832 11.2725C18.2112 11.5005 17.9232 11.8485 17.7192 12.3165C17.5152 12.7725 17.4132 13.3425 17.4132 14.0265C17.4132 14.5305 17.4672 14.9805 17.5752 15.3765C17.6952 15.7605 17.8632 16.0845 18.0792 16.3485C18.2952 16.6005 18.5532 16.7925 18.8532 16.9245C19.1652 17.0565 19.5072 17.1225 19.8792 17.1225ZM57.0531 18.9765C56.0811 18.9765 55.2531 18.7785 54.5691 18.3825C53.8971 17.9745 53.3811 17.4045 53.0211 16.6725C52.6611 15.9285 52.4811 15.0645 52.4811 14.0805C52.4811 13.0605 52.6611 12.1785 53.0211 11.4345C53.3811 10.6785 53.8971 10.0965 54.5691 9.68845C55.2411 9.28045 56.0391 9.07645 56.9631 9.07645C58.0191 9.07645 58.8831 9.31045 59.5551 9.77845C60.2391 10.2345 60.7311 10.8705 61.0311 11.6865C61.3311 12.5025 61.4331 13.4385 61.3371 14.4945H54.6771C54.6771 15.1065 54.7731 15.6225 54.9651 16.0425C55.1691 16.4505 55.4451 16.7625 55.7931 16.9785C56.1531 17.1825 56.5731 17.2845 57.0531 17.2845C57.6171 17.2845 58.0851 17.1525 58.4571 16.8885C58.8291 16.6125 59.0691 16.2585 59.1771 15.8265H61.2831C61.2111 16.4745 60.9831 17.0385 60.5991 17.5185C60.2151 17.9865 59.7171 18.3465 59.1051 18.5985C58.4931 18.8505 57.8091 18.9765 57.0531 18.9765ZM54.6771 13.2885L54.4791 13.0545H59.3571L59.1411 13.3065C59.1651 12.7185 59.0871 12.2385 58.9071 11.8665C58.7271 11.4945 58.4691 11.2185 58.1331 11.0385C57.7971 10.8585 57.4071 10.7685 56.9631 10.7685C56.5071 10.7685 56.1111 10.8645 55.7751 11.0565C55.4391 11.2485 55.1751 11.5365 54.9831 11.9205C54.7911 12.2925 54.6891 12.7485 54.6771 13.2885Z" fill="#E73124"/>
<path d="M30.7605 18.9765C30.0405 18.9765 29.3925 18.8685 28.8165 18.6525C28.2405 18.4245 27.7365 18.0945 27.3045 17.6625C26.8845 17.2305 26.5605 16.7085 26.3325 16.0965C26.1165 15.4845 26.0085 14.7945 26.0085 14.0265C26.0085 13.0425 26.1945 12.1785 26.5665 11.4345C26.9505 10.6905 27.4965 10.1085 28.2045 9.68845C28.9125 9.26845 29.7645 9.05845 30.7605 9.05845C31.4685 9.05845 32.1105 9.17245 32.6865 9.40045C33.2625 9.62845 33.7545 9.95845 34.1625 10.3905C34.5825 10.8225 34.9065 11.3445 35.1345 11.9565C35.3625 12.5565 35.4765 13.2465 35.4765 14.0265C35.4765 14.9985 35.2845 15.8565 34.9005 16.6005C34.5285 17.3445 33.9885 17.9265 33.2805 18.3465C32.5845 18.7665 31.7445 18.9765 30.7605 18.9765ZM30.7425 17.1225C31.2345 17.1225 31.6665 17.0085 32.0385 16.7805C32.4105 16.5405 32.6985 16.1925 32.9025 15.7365C33.1065 15.2685 33.2085 14.6985 33.2085 14.0265C33.2085 13.5225 33.1485 13.0785 33.0285 12.6945C32.9205 12.2985 32.7585 11.9685 32.5425 11.7045C32.3265 11.4405 32.0685 11.2425 31.7685 11.1105C31.4685 10.9785 31.1325 10.9125 30.7605 10.9125C30.2685 10.9125 29.8305 11.0325 29.4465 11.2725C29.0745 11.5005 28.7865 11.8485 28.5825 12.3165C28.3785 12.7725 28.2765 13.3425 28.2765 14.0265C28.2765 14.5305 28.3305 14.9805 28.4385 15.3765C28.5585 15.7605 28.7265 16.0845 28.9425 16.3485C29.1585 16.6005 29.4165 16.7925 29.7165 16.9245C30.0285 17.0565 30.3705 17.1225 30.7425 17.1225Z" fill="#FCB002"/>
<path d="M48.3994 18.8145V5.69245H50.6494V18.8145H48.3994Z" fill="#249B41"/>
<path d="M5.49219 82.2539L5.47819 79.9439H0.760188V78.4039L4.98819 72.1599H7.55019V78.2639H8.86619L8.85219 79.9439H7.55019V82.2539H5.49219ZM2.80419 78.2639H5.49219V74.3579L2.80419 78.2639ZM10.116 82.2539V80.3639H12.09V82.2539H10.116ZM18.043 82.2539L18.029 79.9439H13.311V78.4039L17.539 72.1599H20.101V78.2639H21.417L21.403 79.9439H20.101V82.2539H18.043ZM15.355 78.2639H18.043V74.3579L15.355 78.2639ZM22.3868 83.4019L26.5588 72.0479H28.5328L24.3468 83.4019H22.3868ZM33.5802 82.3799C32.8336 82.3799 32.1896 82.2492 31.6482 81.9879C31.1069 81.7172 30.6822 81.3439 30.3742 80.8679C30.0756 80.3826 29.9169 79.8226 29.8982 79.1879H31.9842C31.9936 79.4679 32.0636 79.7152 32.1942 79.9299C32.3342 80.1352 32.5209 80.2986 32.7542 80.4199C32.9969 80.5319 33.2769 80.5879 33.5942 80.5879C34.1169 80.5879 34.5229 80.4339 34.8122 80.1259C35.1109 79.8086 35.2602 79.4026 35.2602 78.9079C35.2602 78.5626 35.1902 78.2592 35.0502 77.9979C34.9196 77.7366 34.7282 77.5359 34.4762 77.3959C34.2242 77.2466 33.9256 77.1719 33.5802 77.1719C33.1789 77.1719 32.8476 77.2652 32.5862 77.4519C32.3342 77.6292 32.1569 77.8579 32.0542 78.1379H30.0942L30.3602 72.1599H36.7442V73.9519H32.1802L32.0822 76.0659L32.1662 76.0939C32.3622 75.8979 32.6282 75.7439 32.9642 75.6319C33.3002 75.5199 33.6549 75.4639 34.0282 75.4639C34.5416 75.4639 34.9989 75.5479 35.4002 75.7159C35.8109 75.8746 36.1609 76.1079 36.4502 76.4159C36.7396 76.7146 36.9589 77.0739 37.1082 77.4939C37.2669 77.9046 37.3462 78.3572 37.3462 78.8519C37.3462 79.5519 37.1922 80.1679 36.8842 80.6999C36.5856 81.2319 36.1516 81.6472 35.5822 81.9459C35.0222 82.2352 34.3549 82.3799 33.5802 82.3799ZM42.0907 83.1919V72.0479H43.9527V83.1919H42.0907ZM53.3027 82.2539L53.2887 79.9439H48.5707V78.4039L52.7987 72.1599H55.3607V78.2639H56.6767L56.6627 79.9439H55.3607V82.2539H53.3027ZM50.6147 78.2639H53.3027V74.3579L50.6147 78.2639ZM62.4766 82.2539L62.4626 79.9439H57.7446V78.4039L61.9726 72.1599H64.5346V78.2639H65.8506L65.8366 79.9439H64.5346V82.2539H62.4766ZM59.7886 78.2639H62.4766V74.3579L59.7886 78.2639ZM71.6504 82.2539L71.6364 79.9439H66.9184V78.4039L71.1464 72.1599H73.7084V78.2639H75.0244L75.0104 79.9439H73.7084V82.2539H71.6504ZM68.9624 78.2639H71.6504V74.3579L68.9624 78.2639ZM79.7322 82.3799C78.9669 82.3799 78.3089 82.2446 77.7582 81.9739C77.2169 81.7032 76.7969 81.3252 76.4982 80.8399C76.2089 80.3452 76.0549 79.7712 76.0362 79.1179H78.0802C78.0802 79.4259 78.1456 79.6919 78.2762 79.9159C78.4162 80.1399 78.6076 80.3172 78.8502 80.4479C79.1022 80.5692 79.3962 80.6299 79.7322 80.6299C80.0682 80.6299 80.3576 80.5692 80.6002 80.4479C80.8429 80.3266 81.0296 80.1586 81.1602 79.9439C81.3002 79.7292 81.3702 79.4726 81.3702 79.1739C81.3702 78.9592 81.3329 78.7726 81.2582 78.6139C81.1929 78.4552 81.0949 78.3199 80.9642 78.2079C80.8429 78.0959 80.6936 78.0119 80.5162 77.9559C80.3482 77.8999 80.1569 77.8719 79.9422 77.8719H78.6822V76.3319H79.7742C80.0916 76.3319 80.3576 76.2759 80.5722 76.1639C80.7869 76.0519 80.9456 75.8979 81.0482 75.7019C81.1602 75.5059 81.2162 75.2866 81.2162 75.0439C81.2162 74.7732 81.1556 74.5446 81.0342 74.3579C80.9129 74.1712 80.7402 74.0312 80.5162 73.9379C80.3016 73.8352 80.0449 73.7839 79.7462 73.7839C79.4289 73.7839 79.1536 73.8446 78.9202 73.9659C78.6869 74.0872 78.5049 74.2552 78.3742 74.4699C78.2529 74.6846 78.1876 74.9459 78.1782 75.2539H76.1202C76.1389 74.5912 76.3022 74.0219 76.6102 73.5459C76.9182 73.0699 77.3476 72.7012 77.8982 72.4399C78.4489 72.1692 79.0976 72.0339 79.8442 72.0339C80.3669 72.0339 80.8382 72.0992 81.2582 72.2299C81.6876 72.3512 82.0516 72.5332 82.3502 72.7759C82.6582 73.0092 82.8962 73.2939 83.0642 73.6299C83.2322 73.9659 83.3162 74.3392 83.3162 74.7499C83.3162 75.1046 83.2556 75.4312 83.1342 75.7299C83.0129 76.0286 82.8449 76.2852 82.6302 76.4999C82.4156 76.7146 82.1636 76.8779 81.8742 76.9899V77.0739C82.2196 77.1672 82.5089 77.3212 82.7422 77.5359C82.9756 77.7506 83.1529 78.0166 83.2742 78.3339C83.4049 78.6419 83.4702 78.9872 83.4702 79.3699C83.4702 79.9766 83.3116 80.5086 82.9942 80.9659C82.6769 81.4139 82.2382 81.7639 81.6782 82.0159C81.1182 82.2586 80.4696 82.3799 79.7322 82.3799ZM88.437 82.2539V74.9039H89.445L89.515 76.2619H89.571C89.7297 75.7952 90.0097 75.4359 90.411 75.1839C90.8124 74.9319 91.2604 74.8059 91.755 74.8059C91.839 74.8059 91.9184 74.8106 91.993 74.8199C92.0677 74.8199 92.1377 74.8246 92.203 74.8339V75.9119C92.1377 75.9026 92.0677 75.8979 91.993 75.8979C91.9184 75.8886 91.839 75.8839 91.755 75.8839C91.3257 75.8839 90.9524 75.9632 90.635 76.1219C90.3177 76.2806 90.0657 76.5092 89.879 76.8079C89.7017 77.0972 89.5944 77.4519 89.557 77.8719V82.2539H88.437ZM96.0772 82.3799C95.3772 82.3799 94.7752 82.2259 94.2712 81.9179C93.7766 81.6099 93.3986 81.1712 93.1372 80.6019C92.8759 80.0326 92.7452 79.3699 92.7452 78.6139C92.7452 77.8392 92.8759 77.1672 93.1372 76.5979C93.3986 76.0192 93.7719 75.5759 94.2572 75.2679C94.7426 74.9506 95.3352 74.7919 96.0352 74.7919C96.7819 74.7919 97.3979 74.9599 97.8832 75.2959C98.3686 75.6319 98.7186 76.0986 98.9332 76.6959C99.1572 77.2932 99.2412 77.9839 99.1852 78.7679H93.8512C93.8606 79.3746 93.9539 79.8832 94.1312 80.2939C94.3179 80.6952 94.5746 80.9986 94.9012 81.2039C95.2372 81.3999 95.6292 81.4979 96.0772 81.4979C96.6186 81.4979 97.0619 81.3626 97.4072 81.0919C97.7526 80.8212 97.9719 80.4666 98.0652 80.0279H99.1432C99.0872 80.5226 98.9146 80.9472 98.6252 81.3019C98.3452 81.6566 97.9812 81.9272 97.5332 82.1139C97.0946 82.2912 96.6092 82.3799 96.0772 82.3799ZM93.8652 78.1239L93.7392 77.9559H98.2052L98.0792 78.1519C98.0886 77.5639 98.0092 77.0926 97.8412 76.7379C97.6732 76.3739 97.4306 76.1079 97.1132 75.9399C96.8052 75.7626 96.4459 75.6739 96.0352 75.6739C95.6059 75.6739 95.2326 75.7672 94.9152 75.9539C94.5979 76.1406 94.3459 76.4159 94.1592 76.7799C93.9819 77.1346 93.8839 77.5826 93.8652 78.1239ZM102.255 82.2539L99.5534 74.9039H100.785L102.437 79.7339L102.927 81.2459H102.969L103.431 79.7339L105.083 74.9039H106.301L103.627 82.2539H102.255ZM107.304 82.2539V74.9039H108.438V82.2539H107.304ZM107.304 73.6859V72.0479H108.438V73.6859H107.304ZM113.386 82.3799C112.686 82.3799 112.084 82.2259 111.58 81.9179C111.085 81.6099 110.707 81.1712 110.446 80.6019C110.184 80.0326 110.054 79.3699 110.054 78.6139C110.054 77.8392 110.184 77.1672 110.446 76.5979C110.707 76.0192 111.08 75.5759 111.566 75.2679C112.051 74.9506 112.644 74.7919 113.344 74.7919C114.09 74.7919 114.706 74.9599 115.192 75.2959C115.677 75.6319 116.027 76.0986 116.242 76.6959C116.466 77.2932 116.55 77.9839 116.494 78.7679H111.16C111.169 79.3746 111.262 79.8832 111.44 80.2939C111.626 80.6952 111.883 80.9986 112.21 81.2039C112.546 81.3999 112.938 81.4979 113.386 81.4979C113.927 81.4979 114.37 81.3626 114.716 81.0919C115.061 80.8212 115.28 80.4666 115.374 80.0279H116.452C116.396 80.5226 116.223 80.9472 115.934 81.3019C115.654 81.6566 115.29 81.9272 114.842 82.1139C114.403 82.2912 113.918 82.3799 113.386 82.3799ZM111.174 78.1239L111.048 77.9559H115.514L115.388 78.1519C115.397 77.5639 115.318 77.0926 115.15 76.7379C114.982 76.3739 114.739 76.1079 114.422 75.9399C114.114 75.7626 113.754 75.6739 113.344 75.6739C112.914 75.6739 112.541 75.7672 112.224 75.9539C111.906 76.1406 111.654 76.4159 111.468 76.7799C111.29 77.1346 111.192 77.5826 111.174 78.1239ZM118.906 82.2539L117.016 74.9039H118.15L119.704 81.1619H119.76L121.174 74.9039H122.546L124.044 81.1619H124.086L125.612 74.9039H126.704L124.814 82.2539H123.316L121.86 76.3319H121.804L120.446 82.2539H118.906ZM130.153 82.3939C129.528 82.3939 128.986 82.2912 128.529 82.0859C128.081 81.8806 127.736 81.5959 127.493 81.2319C127.26 80.8679 127.143 80.4432 127.143 79.9579H128.277C128.277 80.4992 128.45 80.9006 128.795 81.1619C129.15 81.4139 129.612 81.5399 130.181 81.5399C130.75 81.5399 131.184 81.4326 131.483 81.2179C131.791 81.0032 131.945 80.6999 131.945 80.3079C131.945 80.0092 131.88 79.7806 131.749 79.6219C131.618 79.4539 131.418 79.3232 131.147 79.2299C130.876 79.1366 130.522 79.0572 130.083 78.9919C129.476 78.9079 128.968 78.7912 128.557 78.6419C128.156 78.4926 127.852 78.2826 127.647 78.0119C127.451 77.7319 127.353 77.3679 127.353 76.9199C127.353 76.4906 127.47 76.1172 127.703 75.7999C127.936 75.4732 128.263 75.2212 128.683 75.0439C129.103 74.8572 129.593 74.7639 130.153 74.7639C130.741 74.7639 131.24 74.8619 131.651 75.0579C132.071 75.2446 132.388 75.5106 132.603 75.8559C132.827 76.1919 132.944 76.5932 132.953 77.0599H131.847C131.838 76.7146 131.758 76.4392 131.609 76.2339C131.469 76.0286 131.273 75.8792 131.021 75.7859C130.778 75.6832 130.484 75.6319 130.139 75.6319C129.616 75.6319 129.21 75.7392 128.921 75.9539C128.632 76.1686 128.487 76.4532 128.487 76.8079C128.487 77.0786 128.557 77.2979 128.697 77.4659C128.837 77.6246 129.052 77.7506 129.341 77.8439C129.63 77.9279 130.004 78.0026 130.461 78.0679C130.872 78.1239 131.24 78.1986 131.567 78.2919C131.894 78.3852 132.169 78.5159 132.393 78.6839C132.626 78.8426 132.799 79.0479 132.911 79.2999C133.032 79.5426 133.093 79.8459 133.093 80.2099C133.093 80.9099 132.822 81.4512 132.281 81.8339C131.749 82.2072 131.04 82.3939 130.153 82.3939Z" fill="white"/>
<g clip-path="url(#clip0_884_2252)">
<mask id="mask0_884_2252" style="mask-type:luminance" maskUnits="userSpaceOnUse" x="0" y="32" width="23" height="23">
<path d="M22.4984 40.8742L14.3364 40.3464L11.2539 32.6152L8.17139 40.3464L0.0273438 40.8742L6.27631 46.1942L4.22531 54.2552L11.2539 49.8049L18.2825 54.2552L16.2315 46.1942L22.4984 40.8742Z" fill="white"/>
</mask>
<g mask="url(#mask0_884_2252)">
<path d="M110.374 32.6152H0.0273438V54.2552H110.374V32.6152Z" fill="#FCB002"/>
</g>
<mask id="mask1_884_2252" style="mask-type:luminance" maskUnits="userSpaceOnUse" x="24" y="32" width="23" height="23">
<path d="M46.8617 40.8742L38.6997 40.3464L35.6172 32.6152L32.5407 40.3464L24.3906 40.8742L30.6396 46.1942L28.5886 54.2552L35.6172 49.8049L42.6518 54.2552L40.5948 46.1942L46.8617 40.8742Z" fill="white"/>
</mask>
<g mask="url(#mask1_884_2252)">
<path d="M110.37 32.6152H0.0234375V54.2552H110.37V32.6152Z" fill="#FCB002"/>
</g>
<mask id="mask2_884_2252" style="mask-type:luminance" maskUnits="userSpaceOnUse" x="48" y="32" width="24" height="23">
<path d="M71.2307 40.8742L63.0687 40.3464L59.9922 32.6152L56.9097 40.3464L48.7656 40.8742L55.0146 46.1942L52.9576 54.2552L59.9922 49.8049L67.0208 54.2552L64.9638 46.1942L71.2307 40.8742Z" fill="white"/>
</mask>
<g mask="url(#mask2_884_2252)">
<path d="M110.374 32.6152H0.0273438V54.2552H110.374V32.6152Z" fill="#FCB002"/>
</g>
<mask id="mask3_884_2252" style="mask-type:luminance" maskUnits="userSpaceOnUse" x="73" y="32" width="23" height="23">
<path d="M95.6039 40.8742L87.4419 40.3464L84.3594 32.6152L81.2769 40.3464L73.1328 40.8742L79.3818 46.1942L77.3248 54.2552L84.3594 49.8049L91.388 54.2552L89.3369 46.1942L95.6039 40.8742Z" fill="white"/>
</mask>
<g mask="url(#mask3_884_2252)">
<path d="M110.374 32.6152H0.0273438V54.2552H110.374V32.6152Z" fill="#FCB002"/>
</g>
<mask id="mask4_884_2252" style="mask-type:luminance" maskUnits="userSpaceOnUse" x="97" y="32" width="23" height="23">
<path d="M119.967 40.8742L111.805 40.3464L108.723 32.6152L105.64 40.3464L97.4961 40.8742L103.745 46.1942L101.694 54.2552L108.723 49.8049L115.751 54.2552L113.7 46.1942L119.967 40.8742Z" fill="white"/>
</mask>
<g mask="url(#mask4_884_2252)">
<path d="M110.374 32.6152H0.0273438V54.2552H110.374V32.6152Z" fill="#FCB002"/>
</g>
<path d="M11.2539 34.2346L13.7787 40.5683L13.9166 40.9222L14.2944 40.9462L20.9752 41.378L15.8417 45.7384L15.5538 45.9783L15.6438 46.3442L17.323 52.9417L11.5657 49.2951L11.2479 49.0911L10.9301 49.2951L5.17285 52.9417L6.85203 46.3442L6.94199 45.9843L6.66013 45.7444L1.53861 41.384L8.20737 40.9522L8.58519 40.9282L8.72312 40.5743L11.2539 34.2346ZM11.2539 32.6152L8.17139 40.3464L0.0273438 40.8742L6.27631 46.1942L4.22531 54.2552L11.2539 49.8049L18.2825 54.2552L16.2315 46.1942L22.4984 40.8742L14.3364 40.3464L11.2539 32.6152Z" fill="#FCB002"/>
<path d="M35.6172 34.2346L38.142 40.5683L38.2799 40.9222L38.6577 40.9462L45.3385 41.378L40.205 45.7384L39.9171 45.9783L40.007 46.3442L41.6862 52.9417L35.929 49.2951L35.6112 49.0911L35.2933 49.2951L29.5361 52.9417L31.2153 46.3442L31.3053 45.9843L31.0234 45.7444L25.9019 41.384L32.5707 40.9522L32.9485 40.9282L33.0864 40.5743L35.6172 34.2346ZM35.6172 32.6152L32.5347 40.3464L24.3906 40.8742L30.6396 46.1942L28.5886 54.2552L35.6172 49.8049L42.6458 54.2552L40.5948 46.1942L46.8617 40.8742L38.6997 40.3464L35.6172 32.6152Z" fill="#FCB002"/>
<path d="M59.9922 34.2346L62.517 40.5683L62.6549 40.9222L63.0327 40.9462L69.7135 41.378L64.58 45.7384L64.2921 45.9783L64.382 46.3442L66.0612 52.9417L60.304 49.2951L59.9862 49.0911L59.6683 49.2951L53.9111 52.9417L55.5903 46.3442L55.6803 45.9843L55.3984 45.7444L50.2769 41.384L56.9457 40.9522L57.3235 40.9282L57.4614 40.5743L59.9922 34.2346ZM59.9922 32.6152L56.9097 40.3464L48.7656 40.8742L55.0146 46.1942L52.9636 54.2552L59.9922 49.8049L67.0208 54.2552L64.9698 46.1942L71.2367 40.8742L63.0747 40.3464L59.9922 32.6152Z" fill="#FCB002"/>
<path d="M84.3594 34.2346L86.8841 40.5683L87.0221 40.9222L87.3999 40.9462L94.0806 41.378L88.9471 45.7384L88.6593 45.9783L88.7492 46.3442L90.4284 52.9417L84.6712 49.2951L84.3534 49.0911L84.0355 49.2951L78.2783 52.9417L79.9575 46.3442L80.0475 45.9843L79.7656 45.7444L74.6441 41.384L81.3128 40.9522L81.6907 40.9282L81.8286 40.5743L84.3594 34.2346ZM84.3594 32.6152L81.2769 40.3464L73.1328 40.8742L79.3818 46.1942L77.3308 54.2552L84.3594 49.8049L91.388 54.2552L89.3369 46.1942L95.6039 40.8742L87.4419 40.3464L84.3594 32.6152Z" fill="#FCB002"/>
<path d="M108.723 34.2346L111.247 40.5683L111.385 40.9222L111.763 40.9462L118.444 41.378L113.31 45.7384L113.023 45.9783L113.113 46.3442L114.792 52.9417L109.034 49.2951L108.717 49.0911L108.399 49.2951L102.642 52.9417L104.321 46.3442L104.411 45.9843L104.129 45.7444L99.0074 41.384L105.676 40.9522L106.054 40.9282L106.192 40.5743L108.723 34.2346ZM108.723 32.6152L105.64 40.3464L97.4961 40.8742L103.745 46.1942L101.694 54.2552L108.723 49.8049L115.751 54.2552L113.7 46.1942L119.967 40.8742L111.805 40.3464L108.723 32.6152Z" fill="#FCB002"/>
</g>
<defs>
<clipPath id="clip0_884_2252">
<rect width="120" height="21.64" fill="white" transform="translate(0 32.6152)"/>
</clipPath>
</defs>
</svg>
