<svg width="130" height="79" viewBox="0 0 130 79" fill="none" xmlns="http://www.w3.org/2000/svg">
<path d="M2.40653 13.8145V0.692453H4.78253V6.45245L4.47653 6.14645H11.8565L11.5505 6.45245V0.692453H13.9265V13.8145H11.5505V7.87445L11.8565 8.18045H4.47653L4.78253 7.87445V13.8145H2.40653ZM20.7781 13.9765C20.0581 13.9765 19.4101 13.8685 18.8341 13.6525C18.2581 13.4245 17.7541 13.0945 17.3221 12.6625C16.9021 12.2305 16.5781 11.7085 16.3501 11.0965C16.1341 10.4845 16.0261 9.79445 16.0261 9.02645C16.0261 8.04245 16.2121 7.17845 16.5841 6.43445C16.9681 5.69045 17.5141 5.10845 18.2221 4.68845C18.9301 4.26845 19.7821 4.05845 20.7781 4.05845C21.4861 4.05845 22.1281 4.17245 22.7041 4.40045C23.2801 4.62845 23.7721 4.95845 24.1801 5.39045C24.6001 5.82245 24.9241 6.34445 25.1521 6.95645C25.3801 7.55645 25.4941 8.24645 25.4941 9.02645C25.4941 9.99845 25.3021 10.8565 24.9181 11.6005C24.5461 12.3445 24.0061 12.9265 23.2981 13.3465C22.6021 13.7665 21.7621 13.9765 20.7781 13.9765ZM20.7601 12.1225C21.2521 12.1225 21.6841 12.0085 22.0561 11.7805C22.4281 11.5405 22.7161 11.1925 22.9201 10.7365C23.1241 10.2685 23.2261 9.69845 23.2261 9.02645C23.2261 8.52245 23.1661 8.07845 23.0461 7.69445C22.9381 7.29845 22.7761 6.96845 22.5601 6.70445C22.3441 6.44045 22.0861 6.24245 21.7861 6.11045C21.4861 5.97845 21.1501 5.91245 20.7781 5.91245C20.2861 5.91245 19.8481 6.03245 19.4641 6.27245C19.0921 6.50045 18.8041 6.84845 18.6001 7.31645C18.3961 7.77245 18.2941 8.34245 18.2941 9.02645C18.2941 9.53045 18.3481 9.98045 18.4561 10.3765C18.5761 10.7605 18.7441 11.0845 18.9601 11.3485C19.1761 11.6005 19.4341 11.7925 19.7341 11.9245C20.0461 12.0565 20.3881 12.1225 20.7601 12.1225ZM30.7996 13.9945C29.9476 13.9945 29.2156 13.8625 28.6036 13.5985C27.9916 13.3225 27.5176 12.9445 27.1816 12.4645C26.8576 11.9845 26.6956 11.4265 26.6956 10.7905H28.9096C28.9216 11.3425 29.1076 11.7445 29.4676 11.9965C29.8276 12.2485 30.2956 12.3745 30.8716 12.3745C31.4356 12.3745 31.8616 12.2725 32.1496 12.0685C32.4496 11.8525 32.5996 11.5585 32.5996 11.1865C32.5996 10.8865 32.5336 10.6585 32.4016 10.5025C32.2696 10.3345 32.0536 10.2085 31.7536 10.1245C31.4536 10.0285 31.0576 9.94445 30.5656 9.87245C29.7616 9.75245 29.0896 9.59045 28.5496 9.38645C28.0096 9.17045 27.6076 8.87645 27.3436 8.50445C27.0796 8.13245 26.9476 7.64045 26.9476 7.02845C26.9476 6.42845 27.1096 5.90645 27.4336 5.46245C27.7576 5.01845 28.2136 4.67645 28.8016 4.43645C29.3896 4.18445 30.0796 4.05845 30.8716 4.05845C31.6396 4.05845 32.3056 4.18445 32.8696 4.43645C33.4456 4.67645 33.8896 5.02445 34.2016 5.48045C34.5256 5.92445 34.6936 6.45845 34.7056 7.08245H32.4916C32.4916 6.74645 32.4196 6.47645 32.2756 6.27245C32.1436 6.05645 31.9516 5.90045 31.6996 5.80445C31.4476 5.70845 31.1536 5.66045 30.8176 5.66045C30.3136 5.66045 29.9176 5.76845 29.6296 5.98445C29.3416 6.18845 29.1976 6.47045 29.1976 6.83045C29.1976 7.09445 29.2696 7.31045 29.4136 7.47845C29.5696 7.63445 29.8156 7.76045 30.1516 7.85645C30.4876 7.95245 30.9196 8.03645 31.4476 8.10845C32.0236 8.19245 32.5216 8.30045 32.9416 8.43245C33.3736 8.56445 33.7336 8.74445 34.0216 8.97245C34.3096 9.18845 34.5256 9.46445 34.6696 9.80045C34.8256 10.1245 34.9036 10.5205 34.9036 10.9885C34.9036 11.9485 34.5256 12.6925 33.7696 13.2205C33.0256 13.7365 32.0356 13.9945 30.7996 13.9945ZM39.6994 13.8145C39.1114 13.8145 38.6494 13.7305 38.3134 13.5625C37.9894 13.3825 37.7614 13.1305 37.6294 12.8065C37.4974 12.4825 37.4314 12.0925 37.4314 11.6365V6.05645H35.6674V4.23845H37.4314V1.53845L39.6634 1.30445V4.23845H41.6974V6.05645H39.6634V11.2225C39.6634 11.5225 39.7294 11.7265 39.8614 11.8345C39.9934 11.9305 40.1974 11.9785 40.4734 11.9785H41.6974V13.8145H39.6994ZM46.4386 13.9765C45.8626 13.9765 45.3346 13.8745 44.8546 13.6705C44.3866 13.4545 43.9786 13.1365 43.6306 12.7165C43.2946 12.2965 43.0366 11.7805 42.8566 11.1685C42.6766 10.5445 42.5866 9.83045 42.5866 9.02645C42.5866 7.93445 42.7426 7.02245 43.0546 6.29045C43.3786 5.54645 43.8286 4.98845 44.4046 4.61645C44.9926 4.24445 45.6706 4.05845 46.4386 4.05845C46.9666 4.05845 47.4346 4.14245 47.8426 4.31045C48.2626 4.46645 48.6226 4.68845 48.9226 4.97645C49.2226 5.26445 49.4506 5.60645 49.6066 6.00245H49.7326L49.8226 4.23845H51.9826V13.8145H49.7326V12.0325H49.6066C49.3786 12.6205 48.9886 13.0945 48.4366 13.4545C47.8846 13.8025 47.2186 13.9765 46.4386 13.9765ZM47.2846 12.1405C47.8246 12.1405 48.2686 12.0145 48.6166 11.7625C48.9766 11.5105 49.2466 11.1865 49.4266 10.7905C49.6066 10.3825 49.6966 9.95645 49.6966 9.51245V8.52245C49.6966 8.06645 49.6066 7.64045 49.4266 7.24445C49.2466 6.83645 48.9766 6.51245 48.6166 6.27245C48.2686 6.02045 47.8246 5.89445 47.2846 5.89445C46.8046 5.89445 46.3846 6.00845 46.0246 6.23645C45.6646 6.46445 45.3826 6.81245 45.1786 7.28045C44.9746 7.73645 44.8726 8.31845 44.8726 9.02645C44.8726 9.71045 44.9746 10.2865 45.1786 10.7545C45.3826 11.2225 45.6646 11.5705 46.0246 11.7985C46.3846 12.0265 46.8046 12.1405 47.2846 12.1405ZM57.548 13.9765C56.972 13.9765 56.444 13.8745 55.964 13.6705C55.496 13.4545 55.088 13.1365 54.74 12.7165C54.404 12.2965 54.146 11.7805 53.966 11.1685C53.786 10.5445 53.696 9.83045 53.696 9.02645C53.696 7.93445 53.852 7.02245 54.164 6.29045C54.488 5.54645 54.938 4.98845 55.514 4.61645C56.102 4.24445 56.78 4.05845 57.548 4.05845C58.076 4.05845 58.544 4.14245 58.952 4.31045C59.372 4.46645 59.732 4.68845 60.032 4.97645C60.332 5.26445 60.56 5.60645 60.716 6.00245H60.842V0.692453H63.092L63.074 13.8145H60.914L60.842 12.0325H60.716C60.488 12.6205 60.098 13.0945 59.546 13.4545C58.994 13.8025 58.328 13.9765 57.548 13.9765ZM58.394 12.1405C58.934 12.1405 59.378 12.0145 59.726 11.7625C60.086 11.5105 60.356 11.1865 60.536 10.7905C60.716 10.3825 60.806 9.95645 60.806 9.51245V8.52245C60.806 8.17445 60.752 7.84445 60.644 7.53245C60.548 7.22045 60.398 6.94445 60.194 6.70445C60.002 6.45245 59.75 6.25445 59.438 6.11045C59.138 5.96645 58.79 5.89445 58.394 5.89445C57.914 5.89445 57.494 6.00845 57.134 6.23645C56.774 6.46445 56.492 6.81245 56.288 7.28045C56.084 7.73645 55.982 8.31845 55.982 9.02645C55.982 9.71045 56.084 10.2865 56.288 10.7545C56.492 11.2225 56.774 11.5705 57.134 11.7985C57.494 12.0265 57.914 12.1405 58.394 12.1405ZM67.6108 13.8145L64.2628 4.22045H66.6928L68.3668 9.72845L68.9608 11.9245H69.0328L69.6268 9.74645L71.3008 4.22045H73.7308L70.4008 13.8145H67.6108ZM74.9091 13.8145V4.23845H77.1591V13.8145H74.9091ZM74.9091 2.88845V0.692453H77.1591V2.88845H74.9091ZM83.6889 13.9765C82.9809 13.9765 82.3389 13.8625 81.7629 13.6345C81.1869 13.3945 80.6889 13.0585 80.2689 12.6265C79.8489 12.1825 79.5309 11.6605 79.3149 11.0605C79.0989 10.4485 78.9909 9.77045 78.9909 9.02645C78.9909 8.01845 79.1829 7.14845 79.5669 6.41645C79.9629 5.67245 80.5149 5.09645 81.2229 4.68845C81.9429 4.26845 82.7889 4.05845 83.7609 4.05845C84.5649 4.05845 85.2789 4.20845 85.9029 4.50845C86.5269 4.80845 87.0249 5.22845 87.3969 5.76845C87.7809 6.29645 87.9909 6.91445 88.0269 7.62245H85.8309C85.7709 7.25045 85.6389 6.93845 85.4349 6.68645C85.2429 6.43445 84.9969 6.24245 84.6969 6.11045C84.3969 5.97845 84.0669 5.91245 83.7069 5.91245C83.1909 5.91245 82.7469 6.04445 82.3749 6.30845C82.0029 6.56045 81.7209 6.92045 81.5289 7.38845C81.3489 7.85645 81.2589 8.40245 81.2589 9.02645C81.2589 9.71045 81.3609 10.2805 81.5649 10.7365C81.7689 11.1925 82.0509 11.5405 82.4109 11.7805C82.7829 12.0085 83.2089 12.1225 83.6889 12.1225C84.1089 12.1225 84.4749 12.0505 84.7869 11.9065C85.0989 11.7505 85.3449 11.5405 85.5249 11.2765C85.7169 11.0005 85.8309 10.6885 85.8669 10.3405H88.0629C88.0149 11.0725 87.7989 11.7145 87.4149 12.2665C87.0309 12.8065 86.5209 13.2265 85.8849 13.5265C85.2489 13.8265 84.5169 13.9765 83.6889 13.9765ZM93.7934 13.9765C92.8214 13.9765 91.9934 13.7785 91.3094 13.3825C90.6374 12.9745 90.1214 12.4045 89.7614 11.6725C89.4014 10.9285 89.2214 10.0645 89.2214 9.08045C89.2214 8.06045 89.4014 7.17845 89.7614 6.43445C90.1214 5.67845 90.6374 5.09645 91.3094 4.68845C91.9814 4.28045 92.7794 4.07645 93.7034 4.07645C94.7594 4.07645 95.6234 4.31045 96.2954 4.77845C96.9794 5.23445 97.4714 5.87045 97.7714 6.68645C98.0714 7.50245 98.1734 8.43845 98.0774 9.49445H91.4174C91.4174 10.1065 91.5134 10.6225 91.7054 11.0425C91.9094 11.4505 92.1854 11.7625 92.5334 11.9785C92.8934 12.1825 93.3134 12.2845 93.7934 12.2845C94.3574 12.2845 94.8254 12.1525 95.1974 11.8885C95.5694 11.6125 95.8094 11.2585 95.9174 10.8265H98.0234C97.9514 11.4745 97.7234 12.0385 97.3394 12.5185C96.9554 12.9865 96.4574 13.3465 95.8454 13.5985C95.2334 13.8505 94.5494 13.9765 93.7934 13.9765ZM91.4174 8.28845L91.2194 8.05445H96.0974L95.8814 8.30645C95.9054 7.71845 95.8274 7.23845 95.6474 6.86645C95.4674 6.49445 95.2094 6.21845 94.8734 6.03845C94.5374 5.85845 94.1474 5.76845 93.7034 5.76845C93.2474 5.76845 92.8514 5.86445 92.5154 6.05645C92.1794 6.24845 91.9154 6.53645 91.7234 6.92045C91.5314 7.29245 91.4294 7.74845 91.4174 8.28845Z" fill="white"/>
<path d="M6.14453 77.2539L6.13053 74.9439H1.41253V73.4039L5.64053 67.1599H8.20253V73.2639H9.51853L9.50453 74.9439H8.20253V77.2539H6.14453ZM3.45653 73.2639H6.14453V69.3579L3.45653 73.2639ZM10.7684 77.2539V75.3639H12.7424V77.2539H10.7684ZM17.9253 77.3799C17.3186 77.3799 16.7773 77.2819 16.3013 77.0859C15.8253 76.8806 15.4193 76.5726 15.0833 76.1619C14.7566 75.7512 14.5046 75.2379 14.3273 74.6219C14.1593 74.0059 14.0753 73.2779 14.0753 72.4379C14.0753 71.5232 14.1593 70.7299 14.3273 70.0579C14.5046 69.3766 14.7613 68.8119 15.0973 68.3639C15.4333 67.9159 15.8486 67.5846 16.3433 67.3699C16.838 67.1459 17.4073 67.0339 18.0513 67.0339C18.7326 67.0339 19.3206 67.1506 19.8153 67.3839C20.3193 67.6079 20.716 67.9252 21.0053 68.3359C21.304 68.7466 21.4813 69.2319 21.5373 69.7919H19.5353C19.498 69.5866 19.4093 69.4092 19.2693 69.2599C19.1293 69.1106 18.952 68.9986 18.7373 68.9239C18.532 68.8492 18.2986 68.8119 18.0373 68.8119C17.692 68.8119 17.398 68.8819 17.1553 69.0219C16.922 69.1526 16.7306 69.3439 16.5813 69.5959C16.432 69.8479 16.3246 70.1559 16.2593 70.5199C16.194 70.8746 16.1613 71.2806 16.1613 71.7379H16.2453C16.3666 71.5046 16.53 71.2992 16.7353 71.1219C16.95 70.9446 17.2066 70.8092 17.5053 70.7159C17.804 70.6132 18.1306 70.5619 18.4853 70.5619C19.12 70.5619 19.6706 70.7019 20.1373 70.9819C20.6133 71.2619 20.982 71.6539 21.2433 72.1579C21.5046 72.6526 21.6353 73.2312 21.6353 73.8939C21.6353 74.6312 21.4766 75.2612 21.1593 75.7839C20.8513 76.2972 20.4173 76.6939 19.8573 76.9739C19.3066 77.2446 18.6626 77.3799 17.9253 77.3799ZM17.9673 75.5879C18.294 75.5879 18.5786 75.5179 18.8213 75.3779C19.064 75.2286 19.2506 75.0232 19.3813 74.7619C19.512 74.5006 19.5773 74.1926 19.5773 73.8379C19.5773 73.4832 19.512 73.1799 19.3813 72.9279C19.2506 72.6666 19.064 72.4659 18.8213 72.3259C18.588 72.1859 18.3033 72.1159 17.9673 72.1159C17.6406 72.1159 17.3513 72.1906 17.0993 72.3399C16.8566 72.4892 16.67 72.6946 16.5393 72.9559C16.4086 73.2172 16.3433 73.5206 16.3433 73.8659C16.3433 74.2206 16.4086 74.5286 16.5393 74.7899C16.6793 75.0419 16.8706 75.2379 17.1133 75.3779C17.356 75.5179 17.6406 75.5879 17.9673 75.5879ZM22.6153 78.4019L26.7873 67.0479H28.7613L24.5753 78.4019H22.6153ZM33.8088 77.3799C33.0621 77.3799 32.4181 77.2492 31.8768 76.9879C31.3354 76.7172 30.9108 76.3439 30.6028 75.8679C30.3041 75.3826 30.1454 74.8226 30.1268 74.1879H32.2128C32.2221 74.4679 32.2921 74.7152 32.4228 74.9299C32.5628 75.1352 32.7494 75.2986 32.9828 75.4199C33.2254 75.5319 33.5054 75.5879 33.8228 75.5879C34.3454 75.5879 34.7514 75.4339 35.0408 75.1259C35.3394 74.8086 35.4888 74.4026 35.4888 73.9079C35.4888 73.5626 35.4188 73.2592 35.2788 72.9979C35.1481 72.7366 34.9568 72.5359 34.7048 72.3959C34.4528 72.2466 34.1541 72.1719 33.8088 72.1719C33.4074 72.1719 33.0761 72.2652 32.8148 72.4519C32.5628 72.6292 32.3854 72.8579 32.2828 73.1379H30.3228L30.5888 67.1599H36.9728V68.9519H32.4088L32.3108 71.0659L32.3948 71.0939C32.5908 70.8979 32.8568 70.7439 33.1928 70.6319C33.5288 70.5199 33.8834 70.4639 34.2568 70.4639C34.7701 70.4639 35.2274 70.5479 35.6288 70.7159C36.0394 70.8746 36.3894 71.1079 36.6788 71.4159C36.9681 71.7146 37.1874 72.0739 37.3368 72.4939C37.4954 72.9046 37.5748 73.3572 37.5748 73.8519C37.5748 74.5519 37.4208 75.1679 37.1128 75.6999C36.8141 76.2319 36.3801 76.6472 35.8108 76.9459C35.2508 77.2352 34.5834 77.3799 33.8088 77.3799ZM42.3192 78.1919V67.0479H44.1812V78.1919H42.3192ZM51.1373 77.2539V70.4779H48.5893V68.9099H49.0093C49.6813 68.9099 50.2086 68.7512 50.5913 68.4339C50.9833 68.1072 51.2026 67.6826 51.2493 67.1599H53.1953V77.2539H51.1373ZM58.7873 77.3799C58.0406 77.3799 57.3966 77.2492 56.8553 76.9879C56.3139 76.7172 55.8893 76.3439 55.5813 75.8679C55.2826 75.3826 55.1239 74.8226 55.1053 74.1879H57.1913C57.2006 74.4679 57.2706 74.7152 57.4013 74.9299C57.5413 75.1352 57.7279 75.2986 57.9613 75.4199C58.2039 75.5319 58.4839 75.5879 58.8013 75.5879C59.3239 75.5879 59.7299 75.4339 60.0193 75.1259C60.3179 74.8086 60.4673 74.4026 60.4673 73.9079C60.4673 73.5626 60.3973 73.2592 60.2573 72.9979C60.1266 72.7366 59.9353 72.5359 59.6833 72.3959C59.4313 72.2466 59.1326 72.1719 58.7873 72.1719C58.3859 72.1719 58.0546 72.2652 57.7933 72.4519C57.5413 72.6292 57.3639 72.8579 57.2613 73.1379H55.3013L55.5673 67.1599H61.9513V68.9519H57.3873L57.2893 71.0659L57.3733 71.0939C57.5693 70.8979 57.8353 70.7439 58.1713 70.6319C58.5073 70.5199 58.8619 70.4639 59.2353 70.4639C59.7486 70.4639 60.2059 70.5479 60.6073 70.7159C61.0179 70.8746 61.3679 71.1079 61.6573 71.4159C61.9466 71.7146 62.1659 72.0739 62.3153 72.4939C62.4739 72.9046 62.5533 73.3572 62.5533 73.8519C62.5533 74.5519 62.3993 75.1679 62.0913 75.6999C61.7926 76.2319 61.3586 76.6472 60.7893 76.9459C60.2293 77.2352 59.5619 77.3799 58.7873 77.3799ZM67.6773 77.3799C67.0706 77.3799 66.5293 77.2819 66.0533 77.0859C65.5773 76.8806 65.1713 76.5726 64.8353 76.1619C64.5086 75.7512 64.2566 75.2379 64.0793 74.6219C63.9113 74.0059 63.8273 73.2779 63.8273 72.4379C63.8273 71.5232 63.9113 70.7299 64.0793 70.0579C64.2566 69.3766 64.5133 68.8119 64.8493 68.3639C65.1853 67.9159 65.6006 67.5846 66.0953 67.3699C66.5899 67.1459 67.1593 67.0339 67.8033 67.0339C68.4846 67.0339 69.0726 67.1506 69.5673 67.3839C70.0713 67.6079 70.4679 67.9252 70.7573 68.3359C71.0559 68.7466 71.2333 69.2319 71.2893 69.7919H69.2873C69.2499 69.5866 69.1613 69.4092 69.0213 69.2599C68.8813 69.1106 68.7039 68.9986 68.4893 68.9239C68.2839 68.8492 68.0506 68.8119 67.7893 68.8119C67.4439 68.8119 67.1499 68.8819 66.9073 69.0219C66.6739 69.1526 66.4826 69.3439 66.3333 69.5959C66.1839 69.8479 66.0766 70.1559 66.0113 70.5199C65.9459 70.8746 65.9133 71.2806 65.9133 71.7379H65.9973C66.1186 71.5046 66.2819 71.2992 66.4873 71.1219C66.7019 70.9446 66.9586 70.8092 67.2573 70.7159C67.5559 70.6132 67.8826 70.5619 68.2373 70.5619C68.8719 70.5619 69.4226 70.7019 69.8893 70.9819C70.3653 71.2619 70.7339 71.6539 70.9953 72.1579C71.2566 72.6526 71.3873 73.2312 71.3873 73.8939C71.3873 74.6312 71.2286 75.2612 70.9113 75.7839C70.6033 76.2972 70.1693 76.6939 69.6093 76.9739C69.0586 77.2446 68.4146 77.3799 67.6773 77.3799ZM67.7193 75.5879C68.0459 75.5879 68.3306 75.5179 68.5733 75.3779C68.8159 75.2286 69.0026 75.0232 69.1333 74.7619C69.2639 74.5006 69.3293 74.1926 69.3293 73.8379C69.3293 73.4832 69.2639 73.1799 69.1333 72.9279C69.0026 72.6666 68.8159 72.4659 68.5733 72.3259C68.3399 72.1859 68.0553 72.1159 67.7193 72.1159C67.3926 72.1159 67.1033 72.1906 66.8513 72.3399C66.6086 72.4892 66.4219 72.6946 66.2913 72.9559C66.1606 73.2172 66.0953 73.5206 66.0953 73.8659C66.0953 74.2206 66.1606 74.5286 66.2913 74.7899C66.4313 75.0419 66.6226 75.2379 66.8653 75.3779C67.1079 75.5179 67.3926 75.5879 67.7193 75.5879ZM72.5073 77.2539V76.9599C72.5073 76.3626 72.5959 75.8352 72.7733 75.3779C72.9506 74.9206 73.1839 74.5192 73.4733 74.1739C73.7719 73.8192 74.0939 73.5066 74.4393 73.2359C74.7939 72.9559 75.1439 72.6992 75.4893 72.4659C75.8439 72.2232 76.1659 71.9852 76.4553 71.7519C76.7539 71.5186 76.9919 71.2759 77.1693 71.0239C77.3466 70.7626 77.4353 70.4732 77.4353 70.1559C77.4353 69.8759 77.3746 69.6332 77.2533 69.4279C77.1319 69.2226 76.9639 69.0686 76.7493 68.9659C76.5439 68.8539 76.2966 68.7979 76.0073 68.7979C75.7086 68.7979 75.4426 68.8632 75.2093 68.9939C74.9853 69.1152 74.8173 69.3019 74.7053 69.5539C74.5933 69.7966 74.5513 70.0952 74.5793 70.4499H72.5353C72.5166 69.7592 72.6519 69.1572 72.9413 68.6439C73.2399 68.1306 73.6599 67.7339 74.2013 67.4539C74.7519 67.1739 75.3959 67.0339 76.1333 67.0339C76.8239 67.0339 77.4259 67.1552 77.9393 67.3979C78.4526 67.6406 78.8493 67.9906 79.1293 68.4479C79.4186 68.8959 79.5633 69.4326 79.5633 70.0579C79.5633 70.4872 79.4933 70.8699 79.3533 71.2059C79.2226 71.5419 79.0453 71.8499 78.8213 72.1299C78.5973 72.4099 78.3453 72.6666 78.0653 72.8999C77.7853 73.1239 77.4959 73.3386 77.1973 73.5439C76.9079 73.7492 76.6233 73.9546 76.3433 74.1599C76.0726 74.3559 75.8299 74.5612 75.6153 74.7759C75.4006 74.9812 75.2373 75.2052 75.1253 75.4479H79.6613V77.2539H72.5073ZM84.523 77.2539V69.9039H85.531L85.601 71.2619H85.657C85.8157 70.7952 86.0957 70.4359 86.497 70.1839C86.8983 69.9319 87.3463 69.8059 87.841 69.8059C87.925 69.8059 88.0043 69.8106 88.079 69.8199C88.1537 69.8199 88.2237 69.8246 88.289 69.8339V70.9119C88.2237 70.9026 88.1537 70.8979 88.079 70.8979C88.0043 70.8886 87.925 70.8839 87.841 70.8839C87.4117 70.8839 87.0383 70.9632 86.721 71.1219C86.4037 71.2806 86.1517 71.5092 85.965 71.8079C85.7877 72.0972 85.6803 72.4519 85.643 72.8719V77.2539H84.523ZM92.1632 77.3799C91.4632 77.3799 90.8612 77.2259 90.3572 76.9179C89.8625 76.6099 89.4845 76.1712 89.2232 75.6019C88.9618 75.0326 88.8312 74.3699 88.8312 73.6139C88.8312 72.8392 88.9618 72.1672 89.2232 71.5979C89.4845 71.0192 89.8578 70.5759 90.3432 70.2679C90.8285 69.9506 91.4212 69.7919 92.1212 69.7919C92.8678 69.7919 93.4838 69.9599 93.9692 70.2959C94.4545 70.6319 94.8045 71.0986 95.0192 71.6959C95.2432 72.2932 95.3272 72.9839 95.2712 73.7679H89.9372C89.9465 74.3746 90.0398 74.8832 90.2172 75.2939C90.4038 75.6952 90.6605 75.9986 90.9872 76.2039C91.3232 76.3999 91.7152 76.4979 92.1632 76.4979C92.7045 76.4979 93.1478 76.3626 93.4932 76.0919C93.8385 75.8212 94.0578 75.4666 94.1512 75.0279H95.2292C95.1732 75.5226 95.0005 75.9472 94.7112 76.3019C94.4312 76.6566 94.0672 76.9272 93.6192 77.1139C93.1805 77.2912 92.6952 77.3799 92.1632 77.3799ZM89.9512 73.1239L89.8252 72.9559H94.2912L94.1652 73.1519C94.1745 72.5639 94.0952 72.0926 93.9272 71.7379C93.7592 71.3739 93.5165 71.1079 93.1992 70.9399C92.8912 70.7626 92.5318 70.6739 92.1212 70.6739C91.6918 70.6739 91.3185 70.7672 91.0012 70.9539C90.6838 71.1406 90.4318 71.4159 90.2452 71.7799C90.0678 72.1346 89.9698 72.5826 89.9512 73.1239ZM98.3413 77.2539L95.6393 69.9039H96.8713L98.5233 74.7339L99.0133 76.2459H99.0553L99.5173 74.7339L101.169 69.9039H102.387L99.7133 77.2539H98.3413ZM103.39 77.2539V69.9039H104.524V77.2539H103.39ZM103.39 68.6859V67.0479H104.524V68.6859H103.39ZM109.472 77.3799C108.772 77.3799 108.17 77.2259 107.666 76.9179C107.171 76.6099 106.793 76.1712 106.532 75.6019C106.27 75.0326 106.14 74.3699 106.14 73.6139C106.14 72.8392 106.27 72.1672 106.532 71.5979C106.793 71.0192 107.166 70.5759 107.652 70.2679C108.137 69.9506 108.73 69.7919 109.43 69.7919C110.176 69.7919 110.792 69.9599 111.278 70.2959C111.763 70.6319 112.113 71.0986 112.328 71.6959C112.552 72.2932 112.636 72.9839 112.58 73.7679H107.246C107.255 74.3746 107.348 74.8832 107.526 75.2939C107.712 75.6952 107.969 75.9986 108.296 76.2039C108.632 76.3999 109.024 76.4979 109.472 76.4979C110.013 76.4979 110.456 76.3626 110.802 76.0919C111.147 75.8212 111.366 75.4666 111.46 75.0279H112.538C112.482 75.5226 112.309 75.9472 112.02 76.3019C111.74 76.6566 111.376 76.9272 110.928 77.1139C110.489 77.2912 110.004 77.3799 109.472 77.3799ZM107.26 73.1239L107.134 72.9559H111.6L111.474 73.1519C111.483 72.5639 111.404 72.0926 111.236 71.7379C111.068 71.3739 110.825 71.1079 110.508 70.9399C110.2 70.7626 109.84 70.6739 109.43 70.6739C109 70.6739 108.627 70.7672 108.31 70.9539C107.992 71.1406 107.74 71.4159 107.554 71.7799C107.376 72.1346 107.278 72.5826 107.26 73.1239ZM114.992 77.2539L113.102 69.9039H114.236L115.79 76.1619H115.846L117.26 69.9039H118.632L120.13 76.1619H120.172L121.698 69.9039H122.79L120.9 77.2539H119.402L117.946 71.3319H117.89L116.532 77.2539H114.992ZM126.239 77.3939C125.614 77.3939 125.072 77.2912 124.615 77.0859C124.167 76.8806 123.822 76.5959 123.579 76.2319C123.346 75.8679 123.229 75.4432 123.229 74.9579H124.363C124.363 75.4992 124.536 75.9006 124.881 76.1619C125.236 76.4139 125.698 76.5399 126.267 76.5399C126.836 76.5399 127.27 76.4326 127.569 76.2179C127.877 76.0032 128.031 75.6999 128.031 75.3079C128.031 75.0092 127.966 74.7806 127.835 74.6219C127.704 74.4539 127.504 74.3232 127.233 74.2299C126.962 74.1366 126.608 74.0572 126.169 73.9919C125.562 73.9079 125.054 73.7912 124.643 73.6419C124.242 73.4926 123.938 73.2826 123.733 73.0119C123.537 72.7319 123.439 72.3679 123.439 71.9199C123.439 71.4906 123.556 71.1172 123.789 70.7999C124.022 70.4732 124.349 70.2212 124.769 70.0439C125.189 69.8572 125.679 69.7639 126.239 69.7639C126.827 69.7639 127.326 69.8619 127.737 70.0579C128.157 70.2446 128.474 70.5106 128.689 70.8559C128.913 71.1919 129.03 71.5932 129.039 72.0599H127.933C127.924 71.7146 127.844 71.4392 127.695 71.2339C127.555 71.0286 127.359 70.8792 127.107 70.7859C126.864 70.6832 126.57 70.6319 126.225 70.6319C125.702 70.6319 125.296 70.7392 125.007 70.9539C124.718 71.1686 124.573 71.4532 124.573 71.8079C124.573 72.0786 124.643 72.2979 124.783 72.4659C124.923 72.6246 125.138 72.7506 125.427 72.8439C125.716 72.9279 126.09 73.0026 126.547 73.0679C126.958 73.1239 127.326 73.1986 127.653 73.2919C127.98 73.3852 128.255 73.5159 128.479 73.6839C128.712 73.8426 128.885 74.0479 128.997 74.2999C129.118 74.5426 129.179 74.8459 129.179 75.2099C129.179 75.9099 128.908 76.4512 128.367 76.8339C127.835 77.2072 127.126 77.3939 126.239 77.3939Z" fill="white"/>
<g clip-path="url(#clip0_0_1)">
<mask id="mask0_0_1" style="mask-type:luminance" maskUnits="userSpaceOnUse" x="0" y="27" width="23" height="23">
<path d="M22.9828 35.8742L14.8208 35.3464L11.7383 27.6152L8.65577 35.3464L0.511719 35.8742L6.76069 41.1942L4.70968 49.2552L11.7383 44.8049L18.7669 49.2552L16.7159 41.1942L22.9828 35.8742Z" fill="white"/>
</mask>
<g mask="url(#mask0_0_1)">
<path d="M110.858 27.6152H0.511719V49.2552H110.858V27.6152Z" fill="#FCB002"/>
</g>
<mask id="mask1_0_1" style="mask-type:luminance" maskUnits="userSpaceOnUse" x="24" y="27" width="24" height="23">
<path d="M47.3461 35.8742L39.1841 35.3464L36.1016 27.6152L33.025 35.3464L24.875 35.8742L31.124 41.1942L29.073 49.2552L36.1016 44.8049L43.1361 49.2552L41.0791 41.1942L47.3461 35.8742Z" fill="white"/>
</mask>
<g mask="url(#mask1_0_1)">
<path d="M110.854 27.6152H0.507812V49.2552H110.854V27.6152Z" fill="#FCB002"/>
</g>
<mask id="mask2_0_1" style="mask-type:luminance" maskUnits="userSpaceOnUse" x="49" y="27" width="23" height="23">
<path d="M71.7151 35.8742L63.5531 35.3464L60.4766 27.6152L57.394 35.3464L49.25 35.8742L55.499 41.1942L53.442 49.2552L60.4766 44.8049L67.5051 49.2552L65.4481 41.1942L71.7151 35.8742Z" fill="white"/>
</mask>
<g mask="url(#mask2_0_1)">
<path d="M110.858 27.6152H0.511719V49.2552H110.858V27.6152Z" fill="#FCB002"/>
</g>
<mask id="mask3_0_1" style="mask-type:luminance" maskUnits="userSpaceOnUse" x="73" y="27" width="24" height="23">
<path d="M96.0883 35.8742L87.9262 35.3464L84.8437 27.6152L81.7612 35.3464L73.6172 35.8742L79.8662 41.1942L77.8092 49.2552L84.8437 44.8049L91.8723 49.2552L89.8213 41.1942L96.0883 35.8742Z" fill="white"/>
</mask>
<g mask="url(#mask3_0_1)">
<path d="M110.858 27.6152H0.511719V49.2552H110.858V27.6152Z" fill="#FCB002"/>
</g>
<mask id="mask4_0_1" style="mask-type:luminance" maskUnits="userSpaceOnUse" x="97" y="27" width="24" height="23">
<path d="M120.452 35.8742L112.29 35.3464L109.207 27.6152L106.125 35.3464L97.9805 35.8742L104.229 41.1942L102.178 49.2552L109.207 44.8049L116.236 49.2552L114.185 41.1942L120.452 35.8742Z" fill="white"/>
</mask>
<g mask="url(#mask4_0_1)">
<path d="M110.858 27.6152H0.511719V49.2552H110.858V27.6152Z" fill="#FCB002"/>
</g>
<path d="M11.7383 29.2346L14.263 35.5683L14.401 35.9222L14.7788 35.9462L21.4596 36.378L16.326 40.7384L16.0382 40.9783L16.1281 41.3442L17.8073 47.9417L12.0501 44.2951L11.7323 44.0911L11.4144 44.2951L5.65722 47.9417L7.33641 41.3442L7.42636 40.9843L7.1445 40.7444L2.02299 36.384L8.69175 35.9522L9.06957 35.9282L9.2075 35.5743L11.7383 29.2346ZM11.7383 27.6152L8.65577 35.3464L0.511719 35.8742L6.76069 41.1942L4.70968 49.2552L11.7383 44.8049L18.7669 49.2552L16.7159 41.1942L22.9828 35.8742L14.8208 35.3464L11.7383 27.6152Z" fill="#FCB002"/>
<path d="M36.1016 29.2346L38.6263 35.5683L38.7643 35.9222L39.1421 35.9462L45.8228 36.378L40.6893 40.7384L40.4015 40.9783L40.4914 41.3442L42.1706 47.9417L36.4134 44.2951L36.0956 44.0911L35.7777 44.2951L30.0205 47.9417L31.6997 41.3442L31.7896 40.9843L31.5078 40.7444L26.3863 36.384L33.055 35.9522L33.4328 35.9282L33.5708 35.5743L36.1016 29.2346ZM36.1016 27.6152L33.019 35.3464L24.875 35.8742L31.124 41.1942L29.073 49.2552L36.1016 44.8049L43.1301 49.2552L41.0791 41.1942L47.3461 35.8742L39.1841 35.3464L36.1016 27.6152Z" fill="#FCB002"/>
<path d="M60.4766 29.2346L63.0013 35.5683L63.1393 35.9222L63.5171 35.9462L70.1978 36.378L65.0643 40.7384L64.7765 40.9783L64.8664 41.3442L66.5456 47.9417L60.7884 44.2951L60.4706 44.0911L60.1527 44.2951L54.3955 47.9417L56.0747 41.3442L56.1646 40.9843L55.8828 40.7444L50.7613 36.384L57.43 35.9522L57.8078 35.9282L57.9458 35.5743L60.4766 29.2346ZM60.4766 27.6152L57.394 35.3464L49.25 35.8742L55.499 41.1942L53.448 49.2552L60.4766 44.8049L67.5051 49.2552L65.4541 41.1942L71.7211 35.8742L63.5591 35.3464L60.4766 27.6152Z" fill="#FCB002"/>
<path d="M84.8437 29.2346L87.3685 35.5683L87.5064 35.9222L87.8843 35.9462L94.565 36.378L89.4315 40.7384L89.1436 40.9783L89.2336 41.3442L90.9128 47.9417L85.1556 44.2951L84.8377 44.0911L84.5199 44.2951L78.7627 47.9417L80.4419 41.3442L80.5318 40.9843L80.25 40.7444L75.1285 36.384L81.7972 35.9522L82.175 35.9282L82.313 35.5743L84.8437 29.2346ZM84.8437 27.6152L81.7612 35.3464L73.6172 35.8742L79.8662 41.1942L77.8151 49.2552L84.8437 44.8049L91.8723 49.2552L89.8213 41.1942L96.0883 35.8742L87.9262 35.3464L84.8437 27.6152Z" fill="#FCB002"/>
<path d="M109.207 29.2346L111.732 35.5683L111.87 35.9222L112.248 35.9462L118.928 36.378L113.795 40.7384L113.507 40.9783L113.597 41.3442L115.276 47.9417L109.519 44.2951L109.201 44.0911L108.883 44.2951L103.126 47.9417L104.805 41.3442L104.895 40.9843L104.613 40.7444L99.4917 36.384L106.16 35.9522L106.538 35.9282L106.676 35.5743L109.207 29.2346ZM109.207 27.6152L106.125 35.3464L97.9805 35.8742L104.229 41.1942L102.178 49.2552L109.207 44.8049L116.236 49.2552L114.185 41.1942L120.452 35.8742L112.29 35.3464L109.207 27.6152Z" fill="#FCB002"/>
</g>
<defs>
<clipPath id="clip0_0_1">
<rect width="120" height="21.64" fill="white" transform="translate(0.484375 27.6152)"/>
</clipPath>
</defs>
</svg>
