<svg width="135" height="87" viewBox="0 0 135 87" fill="none" xmlns="http://www.w3.org/2000/svg">
<path d="M7.36823 18.9771C6.36023 18.9771 5.45423 18.8211 4.65023 18.5091C3.85823 18.1851 3.18023 17.7291 2.61623 17.1411C2.06423 16.5411 1.63823 15.8271 1.33823 14.9991C1.05023 14.1711 0.906234 13.2531 0.906234 12.2451C0.906234 11.1891 1.06223 10.2531 1.37423 9.43706C1.69823 8.60906 2.14823 7.90706 2.72423 7.33106C3.30023 6.74306 3.99023 6.29906 4.79423 5.99906C5.59823 5.68706 6.49223 5.53106 7.47623 5.53106C8.61623 5.53106 9.61823 5.72306 10.4822 6.10706C11.3462 6.47906 12.0362 7.00706 12.5522 7.69106C13.0802 8.36306 13.3982 9.15506 13.5062 10.0671H11.0582C10.9502 9.53906 10.7282 9.09506 10.3922 8.73506C10.0682 8.36306 9.65423 8.08106 9.15023 7.88906C8.65823 7.68506 8.10023 7.58306 7.47623 7.58306C6.64823 7.58306 5.92223 7.76306 5.29823 8.12306C4.67423 8.47106 4.19423 8.99306 3.85823 9.68906C3.52223 10.3851 3.35423 11.2371 3.35423 12.2451C3.35423 13.0011 3.44423 13.6791 3.62423 14.2791C3.81623 14.8671 4.09223 15.3591 4.45223 15.7551C4.81223 16.1511 5.23823 16.4571 5.73023 16.6731C6.23423 16.8771 6.79223 16.9791 7.40423 16.9791C8.20823 16.9791 8.90423 16.8351 9.49223 16.5471C10.0802 16.2471 10.5362 15.8211 10.8602 15.2691C11.1842 14.7051 11.3462 14.0391 11.3462 13.2711V12.8031L12.0482 13.6311H7.44023V11.9031H13.7582V13.0011C13.7582 13.9131 13.6022 14.7411 13.2902 15.4851C12.9902 16.2171 12.5582 16.8411 11.9942 17.3571C11.4422 17.8731 10.7702 18.2751 9.97823 18.5631C9.19823 18.8391 8.32823 18.9771 7.36823 18.9771ZM41.3698 22.0011C40.5658 22.0011 39.8698 21.8811 39.2818 21.6411C38.6938 21.4131 38.2258 21.0831 37.8778 20.6511C37.5418 20.2311 37.3498 19.7391 37.3018 19.1751H39.4618C39.5098 19.4151 39.6178 19.6251 39.7858 19.8051C39.9658 19.9851 40.1938 20.1231 40.4698 20.2191C40.7458 20.3271 41.0638 20.3811 41.4238 20.3811C41.9638 20.3811 42.4078 20.3031 42.7558 20.1471C43.1158 19.9911 43.3798 19.7511 43.5478 19.4271C43.7278 19.1031 43.8178 18.6831 43.8178 18.1671V16.4031H43.6918C43.4878 16.9551 43.1158 17.4051 42.5758 17.7531C42.0358 18.0891 41.3998 18.2571 40.6678 18.2571C40.0918 18.2571 39.5698 18.1551 39.1018 17.9511C38.6458 17.7471 38.2498 17.4531 37.9138 17.0691C37.5778 16.6731 37.3198 16.1931 37.1398 15.6291C36.9598 15.0531 36.8698 14.3931 36.8698 13.6491C36.8698 12.6531 37.0258 11.8191 37.3378 11.1471C37.6618 10.4631 38.1118 9.94706 38.6878 9.59906C39.2638 9.23906 39.9358 9.05906 40.7038 9.05906C41.4238 9.05906 42.0478 9.22706 42.5758 9.56306C43.1158 9.89906 43.4878 10.3371 43.6918 10.8771H43.8178L43.8898 9.23906H46.0678V17.8071C46.0678 18.5751 45.9538 19.2231 45.7258 19.7511C45.5098 20.2911 45.1918 20.7231 44.7718 21.0471C44.3518 21.3831 43.8538 21.6231 43.2778 21.7671C42.7138 21.9231 42.0778 22.0011 41.3698 22.0011ZM41.4778 16.5111C41.9818 16.5111 42.4018 16.4031 42.7378 16.1871C43.0858 15.9591 43.3498 15.6711 43.5298 15.3231C43.7098 14.9631 43.8058 14.5971 43.8178 14.2251V13.0731C43.8058 12.6891 43.7098 12.3291 43.5298 11.9931C43.3498 11.6451 43.0918 11.3631 42.7558 11.1471C42.4198 10.9191 41.9998 10.8051 41.4958 10.8051C41.0278 10.8051 40.6138 10.9131 40.2538 11.1291C39.9058 11.3451 39.6358 11.6631 39.4438 12.0831C39.2518 12.5031 39.1558 13.0251 39.1558 13.6491C39.1558 14.2851 39.2518 14.8191 39.4438 15.2511C39.6478 15.6711 39.9238 15.9891 40.2718 16.2051C40.6198 16.4091 41.0218 16.5111 41.4778 16.5111Z" fill="#3074F1"/>
<path d="M19.8953 18.9771C19.1753 18.9771 18.5273 18.8691 17.9513 18.6531C17.3753 18.4251 16.8713 18.0951 16.4393 17.6631C16.0193 17.2311 15.6953 16.7091 15.4673 16.0971C15.2513 15.4851 15.1433 14.7951 15.1433 14.0271C15.1433 13.0431 15.3293 12.1791 15.7013 11.4351C16.0853 10.6911 16.6313 10.1091 17.3393 9.68906C18.0473 9.26906 18.8993 9.05906 19.8953 9.05906C20.6033 9.05906 21.2453 9.17306 21.8213 9.40106C22.3973 9.62906 22.8893 9.95906 23.2973 10.3911C23.7173 10.8231 24.0413 11.3451 24.2693 11.9571C24.4973 12.5571 24.6113 13.2471 24.6113 14.0271C24.6113 14.9991 24.4193 15.8571 24.0352 16.6011C23.6633 17.3451 23.1233 17.9271 22.4153 18.3471C21.7193 18.7671 20.8793 18.9771 19.8953 18.9771ZM19.8773 17.1231C20.3693 17.1231 20.8013 17.0091 21.1733 16.7811C21.5453 16.5411 21.8333 16.1931 22.0373 15.7371C22.2413 15.2691 22.3433 14.6991 22.3433 14.0271C22.3433 13.5231 22.2833 13.0791 22.1633 12.6951C22.0553 12.2991 21.8933 11.9691 21.6773 11.7051C21.4613 11.4411 21.2033 11.2431 20.9033 11.1111C20.6033 10.9791 20.2673 10.9131 19.8953 10.9131C19.4033 10.9131 18.9653 11.0331 18.5813 11.2731C18.2093 11.5011 17.9213 11.8491 17.7173 12.3171C17.5133 12.7731 17.4113 13.3431 17.4113 14.0271C17.4113 14.5311 17.4653 14.9811 17.5733 15.3771C17.6933 15.7611 17.8613 16.0851 18.0773 16.3491C18.2933 16.6011 18.5513 16.7931 18.8513 16.9251C19.1633 17.0571 19.5053 17.1231 19.8773 17.1231ZM57.0512 18.9771C56.0792 18.9771 55.2512 18.7791 54.5672 18.3831C53.8952 17.9751 53.3792 17.4051 53.0192 16.6731C52.6592 15.9291 52.4792 15.0651 52.4792 14.0811C52.4792 13.0611 52.6592 12.1791 53.0192 11.4351C53.3792 10.6791 53.8952 10.0971 54.5672 9.68906C55.2392 9.28106 56.0372 9.07706 56.9612 9.07706C58.0172 9.07706 58.8812 9.31106 59.5532 9.77906C60.2372 10.2351 60.7292 10.8711 61.0292 11.6871C61.3292 12.5031 61.4312 13.4391 61.3352 14.4951H54.6752C54.6752 15.1071 54.7712 15.6231 54.9632 16.0431C55.1672 16.4511 55.4432 16.7631 55.7912 16.9791C56.1512 17.1831 56.5712 17.2851 57.0512 17.2851C57.6152 17.2851 58.0832 17.1531 58.4552 16.8891C58.8272 16.6131 59.0672 16.2591 59.1752 15.8271H61.2812C61.2092 16.4751 60.9812 17.0391 60.5972 17.5191C60.2132 17.9871 59.7152 18.3471 59.1032 18.5991C58.4912 18.8511 57.8072 18.9771 57.0512 18.9771ZM54.6752 13.2891L54.4772 13.0551H59.3552L59.1392 13.3071C59.1632 12.7191 59.0852 12.2391 58.9052 11.8671C58.7252 11.4951 58.4672 11.2191 58.1312 11.0391C57.7952 10.8591 57.4052 10.7691 56.9612 10.7691C56.5052 10.7691 56.1092 10.8651 55.7732 11.0571C55.4372 11.2491 55.1732 11.5371 54.9812 11.9211C54.7892 12.2931 54.6872 12.7491 54.6752 13.2891Z" fill="#E73124"/>
<path d="M30.7585 18.9771C30.0385 18.9771 29.3905 18.8691 28.8145 18.6531C28.2385 18.4251 27.7345 18.0951 27.3025 17.6631C26.8825 17.2311 26.5585 16.7091 26.3305 16.0971C26.1145 15.4851 26.0065 14.7951 26.0065 14.0271C26.0065 13.0431 26.1925 12.1791 26.5645 11.4351C26.9485 10.6911 27.4945 10.1091 28.2025 9.68906C28.9105 9.26906 29.7625 9.05906 30.7585 9.05906C31.4665 9.05906 32.1085 9.17306 32.6845 9.40106C33.2605 9.62906 33.7525 9.95906 34.1605 10.3911C34.5805 10.8231 34.9045 11.3451 35.1325 11.9571C35.3605 12.5571 35.4745 13.2471 35.4745 14.0271C35.4745 14.9991 35.2825 15.8571 34.8985 16.6011C34.5265 17.3451 33.9865 17.9271 33.2785 18.3471C32.5825 18.7671 31.7425 18.9771 30.7585 18.9771ZM30.7405 17.1231C31.2325 17.1231 31.6645 17.0091 32.0365 16.7811C32.4085 16.5411 32.6965 16.1931 32.9005 15.7371C33.1045 15.2691 33.2065 14.6991 33.2065 14.0271C33.2065 13.5231 33.1465 13.0791 33.0265 12.6951C32.9185 12.2991 32.7565 11.9691 32.5405 11.7051C32.3245 11.4411 32.0665 11.2431 31.7665 11.1111C31.4665 10.9791 31.1305 10.9131 30.7585 10.9131C30.2665 10.9131 29.8285 11.0331 29.4445 11.2731C29.0725 11.5011 28.7845 11.8491 28.5805 12.3171C28.3765 12.7731 28.2745 13.3431 28.2745 14.0271C28.2745 14.5311 28.3285 14.9811 28.4365 15.3771C28.5565 15.7611 28.7245 16.0851 28.9405 16.3491C29.1565 16.6011 29.4145 16.7931 29.7145 16.9251C30.0265 17.0571 30.3685 17.1231 30.7405 17.1231Z" fill="#FCB002"/>
<path d="M48.3974 18.8151V5.69306H50.6474V18.8151H48.3974Z" fill="#249B41"/>
<path d="M5.49023 82.255L5.47623 79.945H0.758234V78.405L4.98623 72.161H7.54823V78.265H8.86424L8.85023 79.945H7.54823V82.255H5.49023ZM2.80223 78.265H5.49023V74.359L2.80223 78.265ZM10.1141 82.255V80.365H12.0881V82.255H10.1141ZM18.041 82.255L18.027 79.945H13.309V78.405L17.537 72.161H20.099V78.265H21.415L21.401 79.945H20.099V82.255H18.041ZM15.353 78.265H18.041V74.359L15.353 78.265ZM22.3848 83.403L26.5568 72.049H28.5308L24.3448 83.403H22.3848ZM33.5783 82.381C32.8316 82.381 32.1876 82.2503 31.6463 81.989C31.1049 81.7183 30.6803 81.345 30.3723 80.869C30.0736 80.3837 29.9149 79.8237 29.8963 79.189H31.9823C31.9916 79.469 32.0616 79.7163 32.1923 79.931C32.3323 80.1363 32.5189 80.2997 32.7523 80.421C32.9949 80.533 33.2749 80.589 33.5923 80.589C34.1149 80.589 34.5209 80.435 34.8103 80.127C35.1089 79.8097 35.2583 79.4037 35.2583 78.909C35.2583 78.5637 35.1883 78.2603 35.0483 77.999C34.9176 77.7377 34.7263 77.537 34.4743 77.397C34.2223 77.2477 33.9236 77.173 33.5783 77.173C33.1769 77.173 32.8456 77.2663 32.5843 77.453C32.3323 77.6303 32.1549 77.859 32.0523 78.139H30.0923L30.3583 72.161H36.7423V73.953H32.1783L32.0803 76.067L32.1643 76.095C32.3603 75.899 32.6263 75.745 32.9623 75.633C33.2983 75.521 33.6529 75.465 34.0263 75.465C34.5396 75.465 34.9969 75.549 35.3983 75.717C35.8089 75.8757 36.1589 76.109 36.4483 76.417C36.7376 76.7157 36.9569 77.075 37.1063 77.495C37.2649 77.9057 37.3443 78.3583 37.3443 78.853C37.3443 79.553 37.1903 80.169 36.8823 80.701C36.5836 81.233 36.1496 81.6483 35.5803 81.947C35.0203 82.2363 34.3529 82.381 33.5783 82.381ZM42.0888 83.193V72.049H43.9508V83.193H42.0888ZM53.3008 82.255L53.2868 79.945H48.5688V78.405L52.7968 72.161H55.3588V78.265H56.6748L56.6608 79.945H55.3588V82.255H53.3008ZM50.6128 78.265H53.3008V74.359L50.6128 78.265ZM62.4746 82.255L62.4606 79.945H57.7426V78.405L61.9706 72.161H64.5326V78.265H65.8486L65.8346 79.945H64.5326V82.255H62.4746ZM59.7866 78.265H62.4746V74.359L59.7866 78.265ZM71.6484 82.255L71.6344 79.945H66.9164V78.405L71.1444 72.161H73.7064V78.265H75.0224L75.0084 79.945H73.7064V82.255H71.6484ZM68.9604 78.265H71.6484V74.359L68.9604 78.265ZM79.7303 82.381C78.9649 82.381 78.3069 82.2457 77.7563 81.975C77.2149 81.7043 76.7949 81.3263 76.4963 80.841C76.2069 80.3463 76.0529 79.7723 76.0343 79.119H78.0783C78.0783 79.427 78.1436 79.693 78.2743 79.917C78.4143 80.141 78.6056 80.3183 78.8483 80.449C79.1003 80.5703 79.3943 80.631 79.7303 80.631C80.0663 80.631 80.3556 80.5703 80.5983 80.449C80.8409 80.3277 81.0276 80.1597 81.1583 79.945C81.2983 79.7303 81.3683 79.4737 81.3683 79.175C81.3683 78.9603 81.3309 78.7737 81.2563 78.615C81.1909 78.4563 81.0929 78.321 80.9623 78.209C80.8409 78.097 80.6916 78.013 80.5143 77.957C80.3463 77.901 80.1549 77.873 79.9403 77.873H78.6803V76.333H79.7723C80.0896 76.333 80.3556 76.277 80.5703 76.165C80.7849 76.053 80.9436 75.899 81.0463 75.703C81.1583 75.507 81.2143 75.2877 81.2143 75.045C81.2143 74.7743 81.1536 74.5457 81.0323 74.359C80.9109 74.1723 80.7383 74.0323 80.5143 73.939C80.2996 73.8363 80.0429 73.785 79.7443 73.785C79.4269 73.785 79.1516 73.8457 78.9183 73.967C78.6849 74.0883 78.5029 74.2563 78.3723 74.471C78.2509 74.6857 78.1856 74.947 78.1763 75.255H76.1183C76.1369 74.5923 76.3003 74.023 76.6083 73.547C76.9163 73.071 77.3456 72.7023 77.8963 72.441C78.4469 72.1703 79.0956 72.035 79.8423 72.035C80.3649 72.035 80.8363 72.1003 81.2563 72.231C81.6856 72.3523 82.0496 72.5343 82.3483 72.777C82.6563 73.0103 82.8943 73.295 83.0623 73.631C83.2303 73.967 83.3143 74.3403 83.3143 74.751C83.3143 75.1057 83.2536 75.4323 83.1323 75.731C83.0109 76.0297 82.8429 76.2863 82.6283 76.501C82.4136 76.7157 82.1616 76.879 81.8723 76.991V77.075C82.2176 77.1683 82.5069 77.3223 82.7403 77.537C82.9736 77.7517 83.1509 78.0177 83.2723 78.335C83.4029 78.643 83.4683 78.9883 83.4683 79.371C83.4683 79.9777 83.3096 80.5097 82.9923 80.967C82.6749 81.415 82.2363 81.765 81.6763 82.017C81.1163 82.2597 80.4676 82.381 79.7303 82.381ZM88.4351 82.255V74.905H89.4431L89.5131 76.263H89.5691C89.7278 75.7963 90.0078 75.437 90.4091 75.185C90.8104 74.933 91.2584 74.807 91.7531 74.807C91.8371 74.807 91.9164 74.8117 91.9911 74.821C92.0658 74.821 92.1358 74.8257 92.2011 74.835V75.913C92.1358 75.9037 92.0658 75.899 91.9911 75.899C91.9164 75.8897 91.8371 75.885 91.7531 75.885C91.3238 75.885 90.9504 75.9643 90.6331 76.123C90.3158 76.2817 90.0638 76.5103 89.8771 76.809C89.6998 77.0983 89.5924 77.453 89.5551 77.873V82.255H88.4351ZM96.0753 82.381C95.3753 82.381 94.7733 82.227 94.2693 81.919C93.7746 81.611 93.3966 81.1723 93.1353 80.603C92.8739 80.0337 92.7433 79.371 92.7433 78.615C92.7433 77.8403 92.8739 77.1683 93.1353 76.599C93.3966 76.0203 93.7699 75.577 94.2553 75.269C94.7406 74.9517 95.3333 74.793 96.0333 74.793C96.7799 74.793 97.3959 74.961 97.8813 75.297C98.3666 75.633 98.7166 76.0997 98.9313 76.697C99.1553 77.2943 99.2393 77.985 99.1833 78.769H93.8493C93.8586 79.3757 93.9519 79.8843 94.1293 80.295C94.3159 80.6963 94.5726 80.9997 94.8993 81.205C95.2353 81.401 95.6273 81.499 96.0753 81.499C96.6166 81.499 97.0599 81.3637 97.4053 81.093C97.7506 80.8223 97.9699 80.4677 98.0633 80.029H99.1413C99.0853 80.5237 98.9126 80.9483 98.6233 81.303C98.3433 81.6577 97.9793 81.9283 97.5313 82.115C97.0926 82.2923 96.6073 82.381 96.0753 82.381ZM93.8633 78.125L93.7373 77.957H98.2033L98.0773 78.153C98.0866 77.565 98.0073 77.0937 97.8393 76.739C97.6713 76.375 97.4286 76.109 97.1113 75.941C96.8033 75.7637 96.4439 75.675 96.0333 75.675C95.6039 75.675 95.2306 75.7683 94.9133 75.955C94.5959 76.1417 94.3439 76.417 94.1573 76.781C93.9799 77.1357 93.8819 77.5837 93.8633 78.125ZM102.253 82.255L99.5514 74.905H100.783L102.435 79.735L102.925 81.247H102.967L103.429 79.735L105.081 74.905H106.299L103.625 82.255H102.253ZM107.302 82.255V74.905H108.436V82.255H107.302ZM107.302 73.687V72.049H108.436V73.687H107.302ZM113.384 82.381C112.684 82.381 112.082 82.227 111.578 81.919C111.083 81.611 110.705 81.1723 110.444 80.603C110.183 80.0337 110.052 79.371 110.052 78.615C110.052 77.8403 110.183 77.1683 110.444 76.599C110.705 76.0203 111.079 75.577 111.564 75.269C112.049 74.9517 112.642 74.793 113.342 74.793C114.089 74.793 114.705 74.961 115.19 75.297C115.675 75.633 116.025 76.0997 116.24 76.697C116.464 77.2943 116.548 77.985 116.492 78.769H111.158C111.167 79.3757 111.261 79.8843 111.438 80.295C111.625 80.6963 111.881 80.9997 112.208 81.205C112.544 81.401 112.936 81.499 113.384 81.499C113.925 81.499 114.369 81.3637 114.714 81.093C115.059 80.8223 115.279 80.4677 115.372 80.029H116.45C116.394 80.5237 116.221 80.9483 115.932 81.303C115.652 81.6577 115.288 81.9283 114.84 82.115C114.401 82.2923 113.916 82.381 113.384 82.381ZM111.172 78.125L111.046 77.957H115.512L115.386 78.153C115.395 77.565 115.316 77.0937 115.148 76.739C114.98 76.375 114.737 76.109 114.42 75.941C114.112 75.7637 113.753 75.675 113.342 75.675C112.913 75.675 112.539 75.7683 112.222 75.955C111.905 76.1417 111.653 76.417 111.466 76.781C111.289 77.1357 111.191 77.5837 111.172 78.125ZM118.904 82.255L117.014 74.905H118.148L119.702 81.163H119.758L121.172 74.905H122.544L124.042 81.163H124.084L125.61 74.905H126.702L124.812 82.255H123.314L121.858 76.333H121.802L120.444 82.255H118.904ZM130.151 82.395C129.526 82.395 128.984 82.2923 128.527 82.087C128.079 81.8817 127.734 81.597 127.491 81.233C127.258 80.869 127.141 80.4443 127.141 79.959H128.275C128.275 80.5003 128.448 80.9017 128.793 81.163C129.148 81.415 129.61 81.541 130.179 81.541C130.748 81.541 131.182 81.4337 131.481 81.219C131.789 81.0043 131.943 80.701 131.943 80.309C131.943 80.0103 131.878 79.7817 131.747 79.623C131.616 79.455 131.416 79.3243 131.145 79.231C130.874 79.1377 130.52 79.0583 130.081 78.993C129.474 78.909 128.966 78.7923 128.555 78.643C128.154 78.4937 127.85 78.2837 127.645 78.013C127.449 77.733 127.351 77.369 127.351 76.921C127.351 76.4917 127.468 76.1183 127.701 75.801C127.934 75.4743 128.261 75.2223 128.681 75.045C129.101 74.8583 129.591 74.765 130.151 74.765C130.739 74.765 131.238 74.863 131.649 75.059C132.069 75.2457 132.386 75.5117 132.601 75.857C132.825 76.193 132.942 76.5943 132.951 77.061H131.845C131.836 76.7157 131.756 76.4403 131.607 76.235C131.467 76.0297 131.271 75.8803 131.019 75.787C130.776 75.6843 130.482 75.633 130.137 75.633C129.614 75.633 129.208 75.7403 128.919 75.955C128.63 76.1697 128.485 76.4543 128.485 76.809C128.485 77.0797 128.555 77.299 128.695 77.467C128.835 77.6257 129.05 77.7517 129.339 77.845C129.628 77.929 130.002 78.0037 130.459 78.069C130.87 78.125 131.238 78.1997 131.565 78.293C131.892 78.3863 132.167 78.517 132.391 78.685C132.624 78.8437 132.797 79.049 132.909 79.301C133.03 79.5437 133.091 79.847 133.091 80.211C133.091 80.911 132.82 81.4523 132.279 81.835C131.747 82.2083 131.038 82.395 130.151 82.395Z" fill="#454545"/>
<g clip-path="url(#clip0_705_1928)">
<mask id="mask0_705_1928" style="mask-type:luminance" maskUnits="userSpaceOnUse" x="0" y="32" width="23" height="23">
<path d="M22.5023 40.8739L14.3403 40.3461L11.2578 32.615L8.1753 40.3461L0.03125 40.8739L6.28022 46.194L4.22921 54.255L11.2578 49.8046L18.2864 54.255L16.2354 46.194L22.5023 40.8739Z" fill="white"/>
</mask>
<g mask="url(#mask0_705_1928)">
<path d="M110.378 32.615H0.03125V54.255H110.378V32.615Z" fill="#FCB002"/>
</g>
<mask id="mask1_705_1928" style="mask-type:luminance" maskUnits="userSpaceOnUse" x="24" y="32" width="23" height="23">
<path d="M46.8695 40.8739L38.7075 40.3461L35.625 32.615L32.5485 40.3461L24.3984 40.8739L30.6474 46.194L28.5964 54.255L35.625 49.8046L42.6596 54.255L40.6026 46.194L46.8695 40.8739Z" fill="white"/>
</mask>
<g mask="url(#mask1_705_1928)">
<path d="M110.378 32.615H0.03125V54.255H110.378V32.615Z" fill="#FCB002"/>
</g>
<mask id="mask2_705_1928" style="mask-type:luminance" maskUnits="userSpaceOnUse" x="48" y="32" width="24" height="23">
<path d="M71.2385 40.8739L63.0765 40.3461L60 32.615L56.9175 40.3461L48.7734 40.8739L55.0224 46.194L52.9654 54.255L60 49.8046L67.0286 54.255L64.9716 46.194L71.2385 40.8739Z" fill="white"/>
</mask>
<g mask="url(#mask2_705_1928)">
<path d="M110.378 32.615H0.03125V54.255H110.378V32.615Z" fill="#FCB002"/>
</g>
<mask id="mask3_705_1928" style="mask-type:luminance" maskUnits="userSpaceOnUse" x="73" y="32" width="23" height="23">
<path d="M95.6117 40.8739L87.4497 40.3461L84.3672 32.615L81.2847 40.3461L73.1406 40.8739L79.3896 46.194L77.3326 54.255L84.3672 49.8046L91.3958 54.255L89.3448 46.194L95.6117 40.8739Z" fill="white"/>
</mask>
<g mask="url(#mask3_705_1928)">
<path d="M110.378 32.615H0.03125V54.255H110.378V32.615Z" fill="#FCB002"/>
</g>
<mask id="mask4_705_1928" style="mask-type:luminance" maskUnits="userSpaceOnUse" x="97" y="32" width="23" height="23">
<path d="M119.971 40.8739L111.809 40.3461L108.727 32.615L105.644 40.3461L97.5 40.8739L103.749 46.194L101.698 54.255L108.727 49.8046L115.755 54.255L113.704 46.194L119.971 40.8739Z" fill="white"/>
</mask>
<g mask="url(#mask4_705_1928)">
<path d="M110.378 32.615H0.03125V54.255H110.378V32.615Z" fill="#FCB002"/>
</g>
<path d="M11.2578 34.2344L13.7826 40.568L13.9205 40.9219L14.2983 40.9459L20.9791 41.3778L15.8456 45.7381L15.5577 45.978L15.6477 46.3439L17.3269 52.9415L11.5697 49.2948L11.2518 49.0909L10.934 49.2948L5.17675 52.9415L6.85594 46.3439L6.94589 45.984L6.66403 45.7441L1.54252 41.3837L8.21128 40.9519L8.5891 40.9279L8.72703 40.574L11.2578 34.2344ZM11.2578 32.615L8.1753 40.3461L0.03125 40.8739L6.28022 46.194L4.22921 54.255L11.2578 49.8046L18.2864 54.255L16.2354 46.194L22.5023 40.8739L14.3403 40.3461L11.2578 32.615Z" fill="#FCB002"/>
<path d="M35.625 34.2344L38.1498 40.568L38.2877 40.9219L38.6655 40.9459L45.3463 41.3778L40.2128 45.7381L39.9249 45.978L40.0149 46.3439L41.694 52.9415L35.9368 49.2948L35.619 49.0909L35.3011 49.2948L29.5439 52.9415L31.2231 46.3439L31.3131 45.984L31.0312 45.7441L25.9097 41.3837L32.5785 40.9519L32.9563 40.9279L33.0942 40.574L35.625 34.2344ZM35.625 32.615L32.5425 40.3461L24.3984 40.8739L30.6474 46.194L28.5964 54.255L35.625 49.8046L42.6536 54.255L40.6026 46.194L46.8695 40.8739L38.7075 40.3461L35.625 32.615Z" fill="#FCB002"/>
<path d="M60 34.2344L62.5248 40.568L62.6627 40.9219L63.0405 40.9459L69.7213 41.3778L64.5878 45.7381L64.2999 45.978L64.3899 46.3439L66.069 52.9415L60.3118 49.2948L59.994 49.0909L59.6761 49.2948L53.9189 52.9415L55.5981 46.3439L55.6881 45.984L55.4062 45.7441L50.2847 41.3837L56.9535 40.9519L57.3313 40.9279L57.4692 40.574L60 34.2344ZM60 32.615L56.9175 40.3461L48.7734 40.8739L55.0224 46.194L52.9714 54.255L60 49.8046L67.0286 54.255L64.9776 46.194L71.2445 40.8739L63.0825 40.3461L60 32.615Z" fill="#FCB002"/>
<path d="M84.3672 34.2344L86.892 40.568L87.0299 40.9219L87.4077 40.9459L94.0885 41.3778L88.955 45.7381L88.6671 45.978L88.757 46.3439L90.4362 52.9415L84.679 49.2948L84.3612 49.0909L84.0433 49.2948L78.2861 52.9415L79.9653 46.3439L80.0553 45.984L79.7734 45.7441L74.6519 41.3837L81.3207 40.9519L81.6985 40.9279L81.8364 40.574L84.3672 34.2344ZM84.3672 32.615L81.2847 40.3461L73.1406 40.8739L79.3896 46.194L77.3386 54.255L84.3672 49.8046L91.3958 54.255L89.3448 46.194L95.6117 40.8739L87.4497 40.3461L84.3672 32.615Z" fill="#FCB002"/>
<path d="M108.727 34.2344L111.251 40.568L111.389 40.9219L111.767 40.9459L118.448 41.3778L113.314 45.7381L113.026 45.978L113.116 46.3439L114.796 52.9415L109.038 49.2948L108.721 49.0909L108.403 49.2948L102.646 52.9415L104.325 46.3439L104.415 45.984L104.133 45.7441L99.0113 41.3837L105.68 40.9519L106.058 40.9279L106.196 40.574L108.727 34.2344ZM108.727 32.615L105.644 40.3461L97.5 40.8739L103.749 46.194L101.698 54.255L108.727 49.8046L115.755 54.255L113.704 46.194L119.971 40.8739L111.809 40.3461L108.727 32.615Z" fill="#FCB002"/>
</g>
<defs>
<clipPath id="clip0_705_1928">
<rect width="120" height="21.64" fill="white" transform="translate(0 32.615)"/>
</clipPath>
</defs>
</svg>
