<svg width="330" height="24" viewBox="0 0 330 24" fill="none" xmlns="http://www.w3.org/2000/svg">
<path opacity="0.7" d="M137.488 20V8.336H142.768C143.387 8.336 143.931 8.40533 144.4 8.544C144.869 8.68267 145.259 8.89067 145.568 9.168C145.888 9.43467 146.128 9.76533 146.288 10.16C146.448 10.544 146.528 10.9867 146.528 11.488C146.528 12.192 146.352 12.7947 146 13.296C145.648 13.7973 145.131 14.1387 144.448 14.32V14.432C145.109 14.5387 145.579 14.784 145.856 15.168C146.133 15.552 146.272 16.08 146.272 16.752V18.768C146.272 18.96 146.277 19.1573 146.288 19.36C146.309 19.5627 146.363 19.776 146.448 20H145.072C144.997 19.8293 144.949 19.6427 144.928 19.44C144.907 19.2267 144.896 18.9867 144.896 18.72V16.992C144.896 16.5547 144.832 16.1973 144.704 15.92C144.587 15.632 144.368 15.4187 144.048 15.28C143.728 15.1307 143.269 15.056 142.672 15.056H138.848V20H137.488ZM138.848 13.936H142.592C143.499 13.936 144.144 13.7227 144.528 13.296C144.923 12.8693 145.12 12.3253 145.12 11.664C145.12 11.152 145.013 10.7413 144.8 10.432C144.597 10.112 144.304 9.87733 143.92 9.728C143.547 9.57867 143.104 9.504 142.592 9.504H138.848V13.936ZM151.682 20.144C150.882 20.144 150.194 19.968 149.618 19.616C149.053 19.264 148.621 18.7627 148.322 18.112C148.023 17.4613 147.874 16.704 147.874 15.84C147.874 14.9547 148.023 14.1867 148.322 13.536C148.621 12.8747 149.047 12.368 149.602 12.016C150.157 11.6533 150.834 11.472 151.634 11.472C152.487 11.472 153.191 11.664 153.746 12.048C154.301 12.432 154.701 12.9653 154.946 13.648C155.202 14.3307 155.298 15.12 155.234 16.016H149.138C149.149 16.7093 149.255 17.2907 149.458 17.76C149.671 18.2187 149.965 18.5653 150.338 18.8C150.722 19.024 151.17 19.136 151.682 19.136C152.301 19.136 152.807 18.9813 153.202 18.672C153.597 18.3627 153.847 17.9573 153.954 17.456H155.186C155.122 18.0213 154.925 18.5067 154.594 18.912C154.274 19.3173 153.858 19.6267 153.346 19.84C152.845 20.0427 152.29 20.144 151.682 20.144ZM149.154 15.28L149.01 15.088H154.114L153.97 15.312C153.981 14.64 153.89 14.1013 153.698 13.696C153.506 13.28 153.229 12.976 152.866 12.784C152.514 12.5813 152.103 12.48 151.634 12.48C151.143 12.48 150.717 12.5867 150.354 12.8C149.991 13.0133 149.703 13.328 149.49 13.744C149.287 14.1493 149.175 14.6613 149.154 15.28ZM157.075 20V11.6H158.307L158.355 13.344H158.451C158.707 12.7253 159.102 12.2613 159.635 11.952C160.169 11.632 160.75 11.472 161.379 11.472C161.817 11.472 162.217 11.536 162.579 11.664C162.953 11.792 163.273 12 163.539 12.288C163.817 12.576 164.03 12.9493 164.179 13.408C164.329 13.856 164.403 14.4053 164.403 15.056V20H163.107V15.312C163.107 14.6827 163.027 14.1653 162.867 13.76C162.718 13.3547 162.483 13.056 162.163 12.864C161.854 12.6613 161.454 12.56 160.963 12.56C160.441 12.56 159.982 12.688 159.587 12.944C159.193 13.2 158.889 13.5467 158.675 13.984C158.462 14.4107 158.355 14.9013 158.355 15.456V20H157.075ZM169.979 20.144C169.179 20.144 168.491 19.968 167.915 19.616C167.35 19.264 166.918 18.7627 166.619 18.112C166.32 17.4613 166.171 16.704 166.171 15.84C166.171 14.9547 166.32 14.1867 166.619 13.536C166.918 12.8747 167.344 12.368 167.899 12.016C168.454 11.6533 169.131 11.472 169.931 11.472C170.784 11.472 171.488 11.664 172.043 12.048C172.598 12.432 172.998 12.9653 173.243 13.648C173.499 14.3307 173.595 15.12 173.531 16.016H167.435C167.446 16.7093 167.552 17.2907 167.755 17.76C167.968 18.2187 168.262 18.5653 168.635 18.8C169.019 19.024 169.467 19.136 169.979 19.136C170.598 19.136 171.104 18.9813 171.499 18.672C171.894 18.3627 172.144 17.9573 172.251 17.456H173.483C173.419 18.0213 173.222 18.5067 172.891 18.912C172.571 19.3173 172.155 19.6267 171.643 19.84C171.142 20.0427 170.587 20.144 169.979 20.144ZM167.451 15.28L167.307 15.088H172.411L172.267 15.312C172.278 14.64 172.187 14.1013 171.995 13.696C171.803 13.28 171.526 12.976 171.163 12.784C170.811 12.5813 170.4 12.48 169.931 12.48C169.44 12.48 169.014 12.5867 168.651 12.8C168.288 13.0133 168 13.328 167.787 13.744C167.584 14.1493 167.472 14.6613 167.451 15.28ZM176.288 20L174.128 11.6H175.424L177.2 18.752H177.264L178.88 11.6H180.448L182.16 18.752H182.208L183.952 11.6H185.2L183.04 20H181.328L179.664 13.232H179.6L178.048 20H176.288ZM189.361 20.144C188.849 20.144 188.38 20.048 187.953 19.856C187.537 19.6533 187.175 19.3707 186.865 19.008C186.556 18.6347 186.316 18.1813 186.145 17.648C185.985 17.104 185.905 16.4853 185.905 15.792C185.905 14.8747 186.049 14.0907 186.337 13.44C186.636 12.7893 187.041 12.2987 187.553 11.968C188.076 11.6267 188.679 11.456 189.361 11.456C189.852 11.456 190.295 11.536 190.689 11.696C191.095 11.8453 191.436 12.064 191.713 12.352C191.991 12.6293 192.199 12.96 192.337 13.344H192.417L192.465 11.6H193.713V20H192.417V18.24H192.337C192.124 18.8053 191.761 19.264 191.249 19.616C190.737 19.968 190.108 20.144 189.361 20.144ZM189.793 19.056C190.359 19.056 190.833 18.9227 191.217 18.656C191.601 18.3893 191.895 18.048 192.097 17.632C192.3 17.216 192.401 16.7733 192.401 16.304V15.28C192.401 14.8107 192.3 14.368 192.097 13.952C191.895 13.5253 191.601 13.184 191.217 12.928C190.833 12.6613 190.359 12.528 189.793 12.528C189.281 12.528 188.833 12.656 188.449 12.912C188.065 13.1573 187.767 13.52 187.553 14C187.34 14.48 187.233 15.0773 187.233 15.792C187.233 16.496 187.34 17.0933 187.553 17.584C187.767 18.064 188.065 18.432 188.449 18.688C188.833 18.9333 189.281 19.056 189.793 19.056ZM196.138 20V8.336H197.434V20H196.138ZM203.801 20V8.336H208.377C208.985 8.336 209.534 8.416 210.025 8.576C210.526 8.736 210.953 8.976 211.305 9.296C211.657 9.60533 211.923 9.984 212.105 10.432C212.297 10.88 212.393 11.3973 212.393 11.984C212.393 12.72 212.227 13.3653 211.897 13.92C211.577 14.464 211.113 14.8853 210.505 15.184C209.907 15.4827 209.193 15.632 208.361 15.632H204.985V14.512H208.169C208.745 14.512 209.241 14.4213 209.657 14.24C210.083 14.048 210.409 13.7653 210.633 13.392C210.867 13.008 210.985 12.5493 210.985 12.016C210.985 11.4613 210.867 11.0027 210.633 10.64C210.409 10.2773 210.083 10.0053 209.657 9.824C209.241 9.632 208.745 9.536 208.169 9.536H204.905L205.161 9.296V20H203.801ZM214.06 20V11.6H215.212L215.292 13.152H215.356C215.537 12.6187 215.857 12.208 216.316 11.92C216.774 11.632 217.286 11.488 217.852 11.488C217.948 11.488 218.038 11.4933 218.124 11.504C218.209 11.504 218.289 11.5093 218.364 11.52V12.752C218.289 12.7413 218.209 12.736 218.124 12.736C218.038 12.7253 217.948 12.72 217.852 12.72C217.361 12.72 216.934 12.8107 216.572 12.992C216.209 13.1733 215.921 13.4347 215.708 13.776C215.505 14.1067 215.382 14.512 215.34 14.992V20H214.06ZM219.888 20V11.6H221.184V20H219.888ZM219.888 10.208V8.336H221.184V10.208H219.888ZM227.062 20.144C226.454 20.144 225.9 20.0427 225.398 19.84C224.908 19.6267 224.486 19.3333 224.134 18.96C223.782 18.576 223.51 18.1227 223.318 17.6C223.126 17.0667 223.03 16.4693 223.03 15.808C223.03 14.944 223.196 14.1867 223.526 13.536C223.868 12.8853 224.342 12.3787 224.95 12.016C225.569 11.6533 226.289 11.472 227.11 11.472C227.772 11.472 228.364 11.5947 228.886 11.84C229.409 12.0853 229.83 12.432 230.15 12.88C230.47 13.3173 230.652 13.8293 230.694 14.416H229.446C229.372 14.0107 229.222 13.6747 228.998 13.408C228.774 13.1413 228.497 12.9387 228.166 12.8C227.836 12.6507 227.473 12.576 227.078 12.576C226.502 12.576 226.012 12.7147 225.606 12.992C225.201 13.2587 224.886 13.6373 224.662 14.128C224.449 14.608 224.342 15.1733 224.342 15.824C224.342 16.496 224.454 17.072 224.678 17.552C224.913 18.032 225.233 18.4 225.638 18.656C226.044 18.912 226.518 19.04 227.062 19.04C227.51 19.04 227.905 18.96 228.246 18.8C228.598 18.6293 228.876 18.3947 229.078 18.096C229.292 17.7973 229.425 17.4507 229.478 17.056H230.742C230.689 17.6747 230.497 18.2187 230.166 18.688C229.846 19.1467 229.42 19.504 228.886 19.76C228.353 20.016 227.745 20.144 227.062 20.144ZM235.745 20.144C234.945 20.144 234.257 19.968 233.681 19.616C233.115 19.264 232.683 18.7627 232.385 18.112C232.086 17.4613 231.937 16.704 231.937 15.84C231.937 14.9547 232.086 14.1867 232.385 13.536C232.683 12.8747 233.11 12.368 233.664 12.016C234.219 11.6533 234.897 11.472 235.697 11.472C236.55 11.472 237.254 11.664 237.809 12.048C238.363 12.432 238.763 12.9653 239.009 13.648C239.265 14.3307 239.361 15.12 239.297 16.016H233.201C233.211 16.7093 233.318 17.2907 233.521 17.76C233.734 18.2187 234.027 18.5653 234.401 18.8C234.785 19.024 235.233 19.136 235.745 19.136C236.363 19.136 236.87 18.9813 237.265 18.672C237.659 18.3627 237.91 17.9573 238.017 17.456H239.249C239.185 18.0213 238.987 18.5067 238.657 18.912C238.337 19.3173 237.921 19.6267 237.409 19.84C236.907 20.0427 236.353 20.144 235.745 20.144ZM233.217 15.28L233.073 15.088H238.177L238.033 15.312C238.043 14.64 237.953 14.1013 237.761 13.696C237.569 13.28 237.291 12.976 236.929 12.784C236.577 12.5813 236.166 12.48 235.697 12.48C235.206 12.48 234.779 12.5867 234.417 12.8C234.054 13.0133 233.766 13.328 233.553 13.744C233.35 14.1493 233.238 14.6613 233.217 15.28ZM248.682 20.144C247.701 20.144 246.89 19.984 246.25 19.664C245.61 19.344 245.13 18.9013 244.81 18.336C244.501 17.76 244.335 17.104 244.314 16.368H245.722C245.733 16.912 245.845 17.3867 246.058 17.792C246.271 18.1973 246.597 18.512 247.034 18.736C247.471 18.9493 248.031 19.056 248.714 19.056C249.557 19.056 250.239 18.8853 250.762 18.544C251.295 18.2027 251.562 17.6853 251.562 16.992C251.562 16.608 251.503 16.288 251.386 16.032C251.279 15.776 251.103 15.5627 250.858 15.392C250.623 15.2107 250.309 15.0613 249.914 14.944C249.519 14.816 249.034 14.6987 248.458 14.592C247.839 14.4747 247.29 14.3413 246.81 14.192C246.33 14.032 245.925 13.8347 245.594 13.6C245.263 13.3653 245.013 13.072 244.842 12.72C244.671 12.3573 244.586 11.92 244.586 11.408C244.586 10.7573 244.746 10.192 245.066 9.712C245.386 9.232 245.845 8.864 246.442 8.608C247.039 8.34133 247.759 8.208 248.602 8.208C249.445 8.208 250.159 8.352 250.746 8.64C251.343 8.91733 251.797 9.30667 252.106 9.808C252.426 10.3093 252.591 10.9013 252.602 11.584H251.226C251.205 11.072 251.082 10.6453 250.858 10.304C250.634 9.96267 250.325 9.70667 249.93 9.536C249.535 9.36533 249.071 9.28 248.538 9.28C248.005 9.28 247.546 9.36 247.162 9.52C246.789 9.68 246.501 9.90933 246.298 10.208C246.095 10.496 245.994 10.8373 245.994 11.232C245.994 11.712 246.095 12.08 246.298 12.336C246.511 12.592 246.847 12.7947 247.306 12.944C247.765 13.0933 248.367 13.2373 249.114 13.376C249.626 13.472 250.111 13.5893 250.57 13.728C251.029 13.856 251.439 14.0427 251.802 14.288C252.165 14.5333 252.447 14.864 252.65 15.28C252.863 15.6853 252.97 16.2133 252.97 16.864C252.97 17.5147 252.805 18.0853 252.474 18.576C252.154 19.0667 251.674 19.4507 251.034 19.728C250.394 20.0053 249.61 20.144 248.682 20.144ZM248.17 21.36V6.976H249.146V21.36H248.17ZM256.998 20V11.344H254.278V10.352H254.71C255.478 10.352 256.044 10.1813 256.406 9.84C256.769 9.488 256.977 9.02933 257.03 8.464H258.294V20H256.998ZM264.672 20.144C263.904 20.144 263.232 19.9893 262.656 19.68C262.091 19.3707 261.648 18.944 261.328 18.4C261.008 17.8453 260.848 17.2053 260.848 16.48H262.128C262.128 16.9813 262.23 17.4187 262.432 17.792C262.646 18.1653 262.944 18.4587 263.328 18.672C263.712 18.8853 264.166 18.992 264.688 18.992C265.542 18.992 266.198 18.736 266.656 18.224C267.115 17.712 267.344 17.0507 267.344 16.24C267.344 15.6427 267.232 15.1413 267.008 14.736C266.795 14.32 266.491 14 266.096 13.776C265.712 13.552 265.254 13.44 264.72 13.44C264.134 13.44 263.632 13.5733 263.216 13.84C262.8 14.1067 262.496 14.448 262.304 14.864H261.088L261.344 8.464H268.128V9.6H262.48L262.304 13.52L262.384 13.552C262.63 13.1893 262.982 12.896 263.44 12.672C263.91 12.448 264.422 12.336 264.976 12.336C265.542 12.336 266.054 12.432 266.512 12.624C266.971 12.8053 267.36 13.072 267.68 13.424C268.011 13.7653 268.262 14.1707 268.432 14.64C268.603 15.0987 268.688 15.616 268.688 16.192C268.688 16.9813 268.523 17.6747 268.192 18.272C267.862 18.8587 267.398 19.3173 266.8 19.648C266.203 19.9787 265.494 20.144 264.672 20.144ZM270.459 20V18.56H271.787V20H270.459ZM277.263 20.128C276.58 20.128 275.983 20.0053 275.471 19.76C274.959 19.5147 274.548 19.1733 274.239 18.736C273.94 18.2987 273.759 17.776 273.695 17.168H274.943C274.985 17.5413 275.108 17.8667 275.311 18.144C275.513 18.4107 275.78 18.6187 276.111 18.768C276.452 18.9173 276.841 18.992 277.279 18.992C277.865 18.992 278.34 18.8747 278.703 18.64C279.065 18.3947 279.343 18.0533 279.535 17.616C279.737 17.168 279.876 16.6347 279.951 16.016C280.025 15.3973 280.063 14.7093 280.063 13.952H279.999C279.807 14.5387 279.449 15.0187 278.927 15.392C278.404 15.7653 277.748 15.952 276.959 15.952C276.255 15.952 275.636 15.7973 275.103 15.488C274.569 15.168 274.153 14.7253 273.855 14.16C273.556 13.5947 273.407 12.9387 273.407 12.192C273.407 11.3813 273.572 10.688 273.903 10.112C274.233 9.536 274.692 9.09333 275.279 8.784C275.876 8.47467 276.559 8.32 277.327 8.32C277.999 8.32 278.585 8.43733 279.087 8.672C279.599 8.90667 280.02 9.25333 280.351 9.712C280.692 10.1707 280.943 10.736 281.103 11.408C281.273 12.0693 281.359 12.8373 281.359 13.712C281.359 14.9067 281.268 15.9147 281.087 16.736C280.916 17.5467 280.655 18.2027 280.303 18.704C279.961 19.2053 279.535 19.568 279.023 19.792C278.521 20.016 277.935 20.128 277.263 20.128ZM277.247 14.928C277.801 14.928 278.271 14.8053 278.655 14.56C279.049 14.3147 279.348 13.9787 279.551 13.552C279.753 13.1253 279.855 12.6507 279.855 12.128C279.855 11.5733 279.748 11.0987 279.535 10.704C279.321 10.3093 279.023 10.0053 278.639 9.792C278.255 9.568 277.801 9.456 277.279 9.456C276.767 9.456 276.319 9.57333 275.935 9.808C275.551 10.032 275.252 10.352 275.039 10.768C274.836 11.184 274.735 11.6693 274.735 12.224C274.735 12.7893 274.836 13.2747 275.039 13.68C275.252 14.0747 275.551 14.384 275.935 14.608C276.319 14.8213 276.756 14.928 277.247 14.928ZM286.685 20.128C286.002 20.128 285.405 20.0053 284.893 19.76C284.381 19.5147 283.97 19.1733 283.661 18.736C283.362 18.2987 283.181 17.776 283.117 17.168H284.365C284.407 17.5413 284.53 17.8667 284.733 18.144C284.935 18.4107 285.202 18.6187 285.533 18.768C285.874 18.9173 286.263 18.992 286.701 18.992C287.287 18.992 287.762 18.8747 288.125 18.64C288.487 18.3947 288.765 18.0533 288.957 17.616C289.159 17.168 289.298 16.6347 289.373 16.016C289.447 15.3973 289.485 14.7093 289.485 13.952H289.421C289.229 14.5387 288.871 15.0187 288.349 15.392C287.826 15.7653 287.17 15.952 286.381 15.952C285.677 15.952 285.058 15.7973 284.525 15.488C283.991 15.168 283.575 14.7253 283.277 14.16C282.978 13.5947 282.829 12.9387 282.829 12.192C282.829 11.3813 282.994 10.688 283.325 10.112C283.655 9.536 284.114 9.09333 284.701 8.784C285.298 8.47467 285.981 8.32 286.749 8.32C287.421 8.32 288.007 8.43733 288.509 8.672C289.021 8.90667 289.442 9.25333 289.773 9.712C290.114 10.1707 290.365 10.736 290.525 11.408C290.695 12.0693 290.781 12.8373 290.781 13.712C290.781 14.9067 290.69 15.9147 290.509 16.736C290.338 17.5467 290.077 18.2027 289.725 18.704C289.383 19.2053 288.957 19.568 288.445 19.792C287.943 20.016 287.357 20.128 286.685 20.128ZM286.669 14.928C287.223 14.928 287.693 14.8053 288.077 14.56C288.471 14.3147 288.77 13.9787 288.973 13.552C289.175 13.1253 289.277 12.6507 289.277 12.128C289.277 11.5733 289.17 11.0987 288.957 10.704C288.743 10.3093 288.445 10.0053 288.061 9.792C287.677 9.568 287.223 9.456 286.701 9.456C286.189 9.456 285.741 9.57333 285.357 9.808C284.973 10.032 284.674 10.352 284.461 10.768C284.258 11.184 284.157 11.6693 284.157 12.224C284.157 12.7893 284.258 13.2747 284.461 13.68C284.674 14.0747 284.973 14.384 285.357 14.608C285.741 14.8213 286.178 14.928 286.669 14.928ZM292.043 21.296L297.099 8.336H298.347L293.323 21.296H292.043ZM298.871 22.672V21.6H299.735C299.991 21.6 300.21 21.5627 300.391 21.488C300.573 21.4133 300.727 21.3013 300.855 21.152C300.994 21.0027 301.106 20.8107 301.191 20.576L301.751 19.136V19.712L298.295 11.6H299.719L301.831 17.024L302.231 18.08H302.295L302.663 17.024L304.663 11.6H306.023L302.407 20.896C302.247 21.3227 302.055 21.664 301.831 21.92C301.607 22.1867 301.341 22.3787 301.031 22.496C300.722 22.6133 300.354 22.672 299.927 22.672H298.871ZM310.307 20.144C309.507 20.144 308.819 19.968 308.243 19.616C307.678 19.264 307.246 18.7627 306.947 18.112C306.648 17.4613 306.499 16.704 306.499 15.84C306.499 14.9547 306.648 14.1867 306.947 13.536C307.246 12.8747 307.672 12.368 308.227 12.016C308.782 11.6533 309.459 11.472 310.259 11.472C311.112 11.472 311.816 11.664 312.371 12.048C312.926 12.432 313.326 12.9653 313.571 13.648C313.827 14.3307 313.923 15.12 313.859 16.016H307.763C307.774 16.7093 307.88 17.2907 308.083 17.76C308.296 18.2187 308.59 18.5653 308.963 18.8C309.347 19.024 309.795 19.136 310.307 19.136C310.926 19.136 311.432 18.9813 311.827 18.672C312.222 18.3627 312.472 17.9573 312.579 17.456H313.811C313.747 18.0213 313.55 18.5067 313.219 18.912C312.899 19.3173 312.483 19.6267 311.971 19.84C311.47 20.0427 310.915 20.144 310.307 20.144ZM307.779 15.28L307.635 15.088H312.739L312.595 15.312C312.606 14.64 312.515 14.1013 312.323 13.696C312.131 13.28 311.854 12.976 311.491 12.784C311.139 12.5813 310.728 12.48 310.259 12.48C309.768 12.48 309.342 12.5867 308.979 12.8C308.616 13.0133 308.328 13.328 308.115 13.744C307.912 14.1493 307.8 14.6613 307.779 15.28ZM318.721 20.144C318.209 20.144 317.739 20.048 317.313 19.856C316.897 19.6533 316.534 19.3707 316.225 19.008C315.915 18.6347 315.675 18.1813 315.505 17.648C315.345 17.104 315.265 16.4853 315.265 15.792C315.265 14.8747 315.409 14.0907 315.697 13.44C315.995 12.7893 316.401 12.2987 316.913 11.968C317.435 11.6267 318.038 11.456 318.721 11.456C319.211 11.456 319.654 11.536 320.049 11.696C320.454 11.8453 320.795 12.064 321.073 12.352C321.35 12.6293 321.558 12.96 321.697 13.344H321.777L321.825 11.6H323.073V20H321.777V18.24H321.697C321.483 18.8053 321.121 19.264 320.609 19.616C320.097 19.968 319.467 20.144 318.721 20.144ZM319.153 19.056C319.718 19.056 320.193 18.9227 320.577 18.656C320.961 18.3893 321.254 18.048 321.457 17.632C321.659 17.216 321.761 16.7733 321.761 16.304V15.28C321.761 14.8107 321.659 14.368 321.457 13.952C321.254 13.5253 320.961 13.184 320.577 12.928C320.193 12.6613 319.718 12.528 319.153 12.528C318.641 12.528 318.193 12.656 317.809 12.912C317.425 13.1573 317.126 13.52 316.913 14C316.699 14.48 316.593 15.0773 316.593 15.792C316.593 16.496 316.699 17.0933 316.913 17.584C317.126 18.064 317.425 18.432 317.809 18.688C318.193 18.9333 318.641 19.056 319.153 19.056ZM325.497 20V11.6H326.649L326.729 13.152H326.793C326.975 12.6187 327.295 12.208 327.753 11.92C328.212 11.632 328.724 11.488 329.289 11.488C329.385 11.488 329.476 11.4933 329.561 11.504C329.647 11.504 329.727 11.5093 329.801 11.52V12.752C329.727 12.7413 329.647 12.736 329.561 12.736C329.476 12.7253 329.385 12.72 329.289 12.72C328.799 12.72 328.372 12.8107 328.009 12.992C327.647 13.1733 327.359 13.4347 327.145 13.776C326.943 14.1067 326.82 14.512 326.777 14.992V20H325.497Z" fill="#16191C"/>
<path d="M7.728 20.216C6.224 20.216 4.968 19.976 3.96 19.496C2.952 19.016 2.192 18.344 1.68 17.48C1.184 16.616 0.928 15.632 0.912 14.528H4.128C4.144 15.184 4.28 15.76 4.536 16.256C4.808 16.752 5.216 17.136 5.76 17.408C6.304 17.664 7 17.792 7.848 17.792C8.872 17.792 9.688 17.592 10.296 17.192C10.92 16.792 11.232 16.176 11.232 15.344C11.232 14.88 11.16 14.488 11.016 14.168C10.888 13.848 10.664 13.584 10.344 13.376C10.024 13.168 9.6 12.992 9.072 12.848C8.544 12.704 7.896 12.568 7.128 12.44C6.216 12.264 5.4 12.064 4.68 11.84C3.976 11.6 3.368 11.288 2.856 10.904C2.344 10.52 1.952 10.048 1.68 9.488C1.408 8.928 1.272 8.248 1.272 7.448C1.272 6.392 1.528 5.48 2.04 4.712C2.568 3.944 3.304 3.352 4.248 2.936C5.208 2.504 6.352 2.288 7.68 2.288C8.992 2.288 10.112 2.504 11.04 2.936C11.984 3.368 12.712 3.976 13.224 4.76C13.736 5.528 13.992 6.424 13.992 7.448H10.824C10.792 6.808 10.632 6.288 10.344 5.888C10.056 5.488 9.68 5.192 9.216 5C8.752 4.792 8.208 4.688 7.584 4.688C6.96 4.688 6.416 4.792 5.952 5C5.504 5.192 5.16 5.464 4.92 5.816C4.68 6.152 4.56 6.56 4.56 7.04C4.56 7.632 4.696 8.088 4.968 8.408C5.24 8.712 5.68 8.952 6.288 9.128C6.896 9.304 7.704 9.48 8.712 9.656C9.448 9.784 10.16 9.944 10.848 10.136C11.536 10.328 12.16 10.616 12.72 11C13.28 11.368 13.72 11.88 14.04 12.536C14.36 13.192 14.52 14.032 14.52 15.056C14.52 16.08 14.264 16.984 13.752 17.768C13.24 18.536 12.48 19.136 11.472 19.568C10.48 20 9.232 20.216 7.728 20.216ZM6.792 22.04V19.04H8.664V22.04H6.792ZM6.792 3.584V0.439999H8.664V3.584H6.792ZM22.5956 20.216C21.4756 20.216 20.4996 20.024 19.6676 19.64C18.8356 19.256 18.1716 18.72 17.6756 18.032C17.1956 17.328 16.9076 16.512 16.8116 15.584H19.7396C19.8036 15.984 19.9636 16.344 20.2196 16.664C20.4756 16.968 20.8036 17.2 21.2036 17.36C21.6196 17.52 22.0916 17.6 22.6196 17.6C23.2916 17.6 23.8516 17.472 24.2996 17.216C24.7636 16.944 25.1236 16.552 25.3796 16.04C25.6516 15.528 25.8356 14.912 25.9316 14.192C26.0436 13.472 26.0996 12.656 26.0996 11.744H25.9556C25.6676 12.432 25.1636 12.992 24.4436 13.424C23.7396 13.856 22.8836 14.072 21.8756 14.072C20.8036 14.072 19.8676 13.84 19.0676 13.376C18.2676 12.896 17.6436 12.232 17.1956 11.384C16.7476 10.52 16.5236 9.52 16.5236 8.384C16.5236 7.152 16.7796 6.096 17.2916 5.216C17.8196 4.336 18.5476 3.664 19.4756 3.2C20.4036 2.72 21.4756 2.48 22.6916 2.48C23.7316 2.48 24.6436 2.656 25.4276 3.008C26.2276 3.344 26.8996 3.864 27.4436 4.568C28.0036 5.256 28.4196 6.128 28.6916 7.184C28.9796 8.224 29.1236 9.44 29.1236 10.832C29.1236 12.496 28.9796 13.928 28.6916 15.128C28.4196 16.312 27.9956 17.28 27.4196 18.032C26.8596 18.784 26.1716 19.336 25.3556 19.688C24.5556 20.04 23.6356 20.216 22.5956 20.216ZM22.6196 11.792C23.2756 11.792 23.8356 11.648 24.2996 11.36C24.7796 11.072 25.1476 10.672 25.4036 10.16C25.6596 9.632 25.7876 9.04 25.7876 8.384C25.7876 7.696 25.6516 7.112 25.3796 6.632C25.1236 6.152 24.7636 5.776 24.2996 5.504C23.8356 5.232 23.2756 5.096 22.6196 5.096C22.0116 5.096 21.4676 5.24 20.9876 5.528C20.5236 5.8 20.1636 6.192 19.9076 6.704C19.6516 7.2 19.5236 7.792 19.5236 8.48C19.5236 9.152 19.6516 9.744 19.9076 10.256C20.1636 10.752 20.5236 11.136 20.9876 11.408C21.4516 11.664 21.9956 11.792 22.6196 11.792ZM31.5064 20V17.12H34.4104V20H31.5064ZM42.7519 20.216C41.6319 20.216 40.6559 20.024 39.8239 19.64C38.9919 19.256 38.3279 18.72 37.8319 18.032C37.3519 17.328 37.0639 16.512 36.9679 15.584H39.8959C39.9599 15.984 40.1199 16.344 40.3759 16.664C40.6319 16.968 40.9599 17.2 41.3599 17.36C41.7759 17.52 42.2479 17.6 42.7759 17.6C43.4479 17.6 44.0079 17.472 44.4559 17.216C44.9199 16.944 45.2799 16.552 45.5359 16.04C45.8079 15.528 45.9919 14.912 46.0879 14.192C46.1999 13.472 46.2559 12.656 46.2559 11.744H46.1119C45.8239 12.432 45.3199 12.992 44.5999 13.424C43.8959 13.856 43.0399 14.072 42.0319 14.072C40.9599 14.072 40.0239 13.84 39.2239 13.376C38.4239 12.896 37.7999 12.232 37.3519 11.384C36.9039 10.52 36.6799 9.52 36.6799 8.384C36.6799 7.152 36.9359 6.096 37.4479 5.216C37.9759 4.336 38.7039 3.664 39.6319 3.2C40.5599 2.72 41.6319 2.48 42.8479 2.48C43.8879 2.48 44.7999 2.656 45.5839 3.008C46.3839 3.344 47.0559 3.864 47.5999 4.568C48.1599 5.256 48.5759 6.128 48.8479 7.184C49.1359 8.224 49.2799 9.44 49.2799 10.832C49.2799 12.496 49.1359 13.928 48.8479 15.128C48.5759 16.312 48.1519 17.28 47.5759 18.032C47.0159 18.784 46.3279 19.336 45.5119 19.688C44.7119 20.04 43.7919 20.216 42.7519 20.216ZM42.7759 11.792C43.4319 11.792 43.9919 11.648 44.4559 11.36C44.9359 11.072 45.3039 10.672 45.5599 10.16C45.8159 9.632 45.9439 9.04 45.9439 8.384C45.9439 7.696 45.8079 7.112 45.5359 6.632C45.2799 6.152 44.9199 5.776 44.4559 5.504C43.9919 5.232 43.4319 5.096 42.7759 5.096C42.1679 5.096 41.6239 5.24 41.1439 5.528C40.6799 5.8 40.3199 6.192 40.0639 6.704C39.8079 7.2 39.6799 7.792 39.6799 8.48C39.6799 9.152 39.8079 9.744 40.0639 10.256C40.3199 10.752 40.6799 11.136 41.1439 11.408C41.6079 11.664 42.1519 11.792 42.7759 11.792ZM57.4706 20.216C56.3506 20.216 55.3746 20.024 54.5426 19.64C53.7106 19.256 53.0466 18.72 52.5506 18.032C52.0706 17.328 51.7826 16.512 51.6866 15.584H54.6146C54.6786 15.984 54.8386 16.344 55.0946 16.664C55.3506 16.968 55.6786 17.2 56.0786 17.36C56.4946 17.52 56.9666 17.6 57.4946 17.6C58.1666 17.6 58.7266 17.472 59.1746 17.216C59.6386 16.944 59.9986 16.552 60.2546 16.04C60.5266 15.528 60.7106 14.912 60.8066 14.192C60.9186 13.472 60.9746 12.656 60.9746 11.744H60.8306C60.5426 12.432 60.0386 12.992 59.3186 13.424C58.6146 13.856 57.7586 14.072 56.7506 14.072C55.6786 14.072 54.7426 13.84 53.9426 13.376C53.1426 12.896 52.5186 12.232 52.0706 11.384C51.6226 10.52 51.3986 9.52 51.3986 8.384C51.3986 7.152 51.6546 6.096 52.1666 5.216C52.6946 4.336 53.4226 3.664 54.3506 3.2C55.2786 2.72 56.3506 2.48 57.5666 2.48C58.6066 2.48 59.5186 2.656 60.3026 3.008C61.1026 3.344 61.7746 3.864 62.3186 4.568C62.8786 5.256 63.2946 6.128 63.5666 7.184C63.8546 8.224 63.9986 9.44 63.9986 10.832C63.9986 12.496 63.8546 13.928 63.5666 15.128C63.2946 16.312 62.8706 17.28 62.2946 18.032C61.7346 18.784 61.0466 19.336 60.2306 19.688C59.4306 20.04 58.5106 20.216 57.4706 20.216ZM57.4946 11.792C58.1506 11.792 58.7106 11.648 59.1746 11.36C59.6546 11.072 60.0226 10.672 60.2786 10.16C60.5346 9.632 60.6626 9.04 60.6626 8.384C60.6626 7.696 60.5266 7.112 60.2546 6.632C59.9986 6.152 59.6386 5.776 59.1746 5.504C58.7106 5.232 58.1506 5.096 57.4946 5.096C56.8866 5.096 56.3426 5.24 55.8626 5.528C55.3986 5.8 55.0386 6.192 54.7826 6.704C54.5266 7.2 54.3986 7.792 54.3986 8.48C54.3986 9.152 54.5266 9.744 54.7826 10.256C55.0386 10.752 55.3986 11.136 55.8626 11.408C56.3266 11.664 56.8706 11.792 57.4946 11.792ZM65.8294 21.968L73.1254 2.504H76.0054L68.7094 21.968H65.8294ZM77.0393 24.008V21.536H78.4553C78.8393 21.536 79.1593 21.488 79.4153 21.392C79.6713 21.296 79.8873 21.144 80.0633 20.936C80.2393 20.728 80.3833 20.464 80.4953 20.144L81.1913 18.344V19.688L75.9832 7.232H79.2713L81.8873 14.528L82.3672 15.968H82.4873L82.9193 14.528L85.3913 7.232H88.5833L83.4233 20.84C83.1353 21.656 82.7753 22.296 82.3433 22.76C81.9273 23.224 81.4393 23.544 80.8793 23.72C80.3353 23.912 79.7113 24.008 79.0073 24.008H77.0393ZM95.1776 20.216C93.8816 20.216 92.7776 19.952 91.8656 19.424C90.9696 18.88 90.2816 18.12 89.8016 17.144C89.3216 16.152 89.0816 15 89.0816 13.688C89.0816 12.328 89.3216 11.152 89.8016 10.16C90.2816 9.152 90.9696 8.376 91.8656 7.832C92.7616 7.288 93.8256 7.016 95.0576 7.016C96.4656 7.016 97.6176 7.328 98.5136 7.952C99.4256 8.56 100.082 9.408 100.482 10.496C100.882 11.584 101.018 12.832 100.89 14.24H92.0096C92.0096 15.056 92.1376 15.744 92.3936 16.304C92.6656 16.848 93.0336 17.264 93.4976 17.552C93.9776 17.824 94.5376 17.96 95.1776 17.96C95.9296 17.96 96.5536 17.784 97.0496 17.432C97.5456 17.064 97.8656 16.592 98.0096 16.016H100.818C100.722 16.88 100.418 17.632 99.9056 18.272C99.3936 18.896 98.7296 19.376 97.9136 19.712C97.0976 20.048 96.1856 20.216 95.1776 20.216ZM92.0096 12.632L91.7456 12.32H98.2496L97.9616 12.656C97.9936 11.872 97.8896 11.232 97.6496 10.736C97.4096 10.24 97.0656 9.872 96.6176 9.632C96.1696 9.392 95.6496 9.272 95.0576 9.272C94.4496 9.272 93.9216 9.4 93.4736 9.656C93.0256 9.912 92.6736 10.296 92.4176 10.808C92.1616 11.304 92.0256 11.912 92.0096 12.632ZM107.905 20.216C107.137 20.216 106.433 20.08 105.793 19.808C105.169 19.52 104.625 19.096 104.161 18.536C103.713 17.976 103.369 17.288 103.129 16.472C102.889 15.64 102.769 14.688 102.769 13.616C102.769 12.16 102.977 10.944 103.393 9.968C103.825 8.976 104.425 8.232 105.193 7.736C105.977 7.24 106.881 6.992 107.905 6.992C108.609 6.992 109.233 7.104 109.777 7.328C110.337 7.536 110.817 7.832 111.217 8.216C111.617 8.6 111.921 9.056 112.129 9.584H112.297L112.417 7.232H115.297V20H112.297V17.624H112.129C111.825 18.408 111.305 19.04 110.569 19.52C109.833 19.984 108.945 20.216 107.905 20.216ZM109.033 17.768C109.753 17.768 110.345 17.6 110.809 17.264C111.289 16.928 111.649 16.496 111.889 15.968C112.129 15.424 112.249 14.856 112.249 14.264V12.944C112.249 12.336 112.129 11.768 111.889 11.24C111.649 10.696 111.289 10.264 110.809 9.944C110.345 9.608 109.753 9.44 109.033 9.44C108.393 9.44 107.833 9.592 107.353 9.896C106.873 10.2 106.497 10.664 106.225 11.288C105.953 11.896 105.817 12.672 105.817 13.616C105.817 14.528 105.953 15.296 106.225 15.92C106.497 16.544 106.873 17.008 107.353 17.312C107.833 17.616 108.393 17.768 109.033 17.768ZM118.514 20V7.232H121.226L121.37 9.368H121.466C121.754 8.552 122.218 7.968 122.858 7.616C123.514 7.248 124.258 7.064 125.09 7.064C125.234 7.064 125.362 7.064 125.474 7.064C125.602 7.064 125.722 7.064 125.834 7.064V9.896C125.738 9.896 125.618 9.896 125.474 9.896C125.346 9.88 125.202 9.872 125.042 9.872C124.274 9.872 123.634 10 123.122 10.256C122.61 10.496 122.218 10.848 121.946 11.312C121.69 11.776 121.546 12.344 121.514 13.016V20H118.514Z" fill="#16191C"/>
</svg>
