<svg width="49" height="36" viewBox="0 0 49 36" fill="none" xmlns="http://www.w3.org/2000/svg">
<path d="M43.4676 0.398438H5.07813C3.73179 0.39997 2.44104 0.935477 1.48904 1.88748C0.537039 2.83948 0.0015322 4.13023 0 5.47656V30.5219C0.0015322 31.8682 0.537039 33.159 1.48904 34.111C2.44104 35.063 3.73179 35.5985 5.07813 35.6H43.4675C44.8139 35.5985 46.1046 35.063 47.0566 34.111C48.0086 33.159 48.5441 31.8682 48.5457 30.5219V5.47656C48.5442 4.13023 48.0087 2.83946 47.0567 1.88745C46.1047 0.935445 44.814 0.399943 43.4676 0.398438ZM34.4387 17.9923L46.5145 8.5147V29.7147L34.4387 17.9923ZM5.07813 2.42969H43.4675C44.2753 2.4306 45.0498 2.7519 45.621 3.32311C46.1922 3.89431 46.5135 4.66876 46.5144 5.47656V5.93258L26.9728 21.2703C26.2583 21.8281 25.3777 22.1307 24.4713 22.13C23.5649 22.1293 22.6848 21.8252 21.9712 21.2663L2.03125 5.92872V5.47656C2.03216 4.66876 2.35347 3.89431 2.92467 3.32311C3.49587 2.7519 4.27032 2.4306 5.07813 2.42969ZM14.4664 18.0561L2.03125 29.7556V8.49134L14.4664 18.0561ZM43.4676 33.5687H5.07813C4.55796 33.5684 4.04653 33.435 3.59253 33.1811C3.13852 32.9273 2.75705 32.5614 2.48442 32.1184L16.0972 19.3114L20.7267 22.8722C21.7973 23.7085 23.1169 24.1626 24.4755 24.1622C25.834 24.1619 27.1534 23.7071 28.2236 22.8703L32.8263 19.2586L46.0665 32.1103C45.7944 32.5555 45.4125 32.9235 44.9575 33.1788C44.5024 33.4342 43.9894 33.5684 43.4676 33.5687Z" fill="#FF7500"/>
</svg>
