<svg width="44" height="44" viewBox="0 0 44 44" fill="none" xmlns="http://www.w3.org/2000/svg">
<path d="M41.5009 14.6863C42.2487 14.6863 42.8551 14.08 42.8551 13.3321C42.8551 12.5843 42.2487 11.978 41.5009 11.978C40.7531 11.978 40.1467 12.5843 40.1467 13.3321C40.1467 14.08 40.7531 14.6863 41.5009 14.6863ZM35.0009 14.6863C35.7487 14.6863 36.3551 14.08 36.3551 13.3321C36.3551 12.5843 35.7487 11.978 35.0009 11.978C34.2531 11.978 33.6467 12.5843 33.6467 13.3321C33.6467 14.08 34.2531 14.6863 35.0009 14.6863ZM38.3927 24.0173C37.9674 23.9369 37.5421 23.846 37.121 23.7444C36.2311 23.5254 35.3552 23.2542 34.4973 22.9319C32.4372 22.1495 30.1176 23.03 29.0955 24.9822L27.4682 28.1074C22.6396 25.3616 18.6456 21.3581 15.9112 16.5229L19.0174 14.9063C20.9662 13.8812 21.8455 11.5646 21.0677 9.50449C20.7464 8.64518 20.4759 7.76761 20.2574 6.87656C20.1516 6.45338 20.0627 6.03021 19.9823 5.6028C19.3953 2.53106 16.7006 0.31507 13.5733 0.332129H6.90828C4.98957 0.331732 3.16634 1.16949 1.91691 2.62575C0.677263 4.05847 0.126207 5.96157 0.408281 7.83506C3.29673 26.2513 17.7406 40.6986 36.1562 43.5914C36.4769 43.6402 36.8008 43.6649 37.1252 43.6655C40.7453 43.6518 43.6715 40.7114 43.6676 37.0914V30.4264C43.6845 27.2976 41.4661 24.6025 38.3927 24.0173ZM41.5009 37.0914C41.5006 38.3792 40.9381 39.6026 39.9605 40.4409C39.0039 41.2687 37.7333 41.6374 36.482 41.4501C19.0032 38.704 5.29346 24.9926 2.54956 7.51344C2.36257 6.26348 2.73126 4.99435 3.55883 4.03916C4.39712 3.06162 5.6205 2.49906 6.90828 2.4988H13.5733C15.656 2.48121 17.4549 3.95188 17.8516 5.99649C17.9391 6.46542 18.04 6.93171 18.1542 7.39509C18.3923 8.36892 18.6883 9.32768 19.0408 10.2663C19.4333 11.3011 18.9944 12.4665 18.0167 12.9851L13.9351 15.1095L13.9316 15.1113C13.4026 15.3876 13.1976 16.0403 13.4739 16.5694C16.5767 22.5496 21.4449 27.4296 27.4176 30.547C27.9482 30.8227 28.6019 30.6175 28.8796 30.0878L31.0167 25.983C31.5356 25.0067 32.6992 24.568 33.7335 24.9589C34.6723 25.3132 35.632 25.6099 36.6069 25.8476C37.0675 25.9618 37.5315 26.0613 37.9991 26.1459C40.0449 26.5432 41.5169 28.3424 41.5009 30.4264V37.0914ZM28.5009 14.6863C29.2487 14.6863 29.8551 14.08 29.8551 13.3321C29.8551 12.5843 29.2487 11.978 28.5009 11.978C27.7531 11.978 27.1467 12.5843 27.1467 13.3321C27.1467 14.08 27.7531 14.6863 28.5009 14.6863Z" fill="#FF7500"/>
</svg>
