<svg width="49" height="36" viewBox="0 0 49 36" fill="none" xmlns="http://www.w3.org/2000/svg">
<path d="M43.4676 0.399414H5.07813C3.73179 0.400946 2.44104 0.936454 1.48904 1.88845C0.537039 2.84046 0.0015322 4.13121 0 5.47754V30.5229C0.0015322 31.8692 0.537039 33.1599 1.48904 34.1119C2.44104 35.0639 3.73179 35.5994 5.07813 35.601H43.4675C44.8139 35.5994 46.1046 35.0639 47.0566 34.1119C48.0086 33.1599 48.5441 31.8692 48.5457 30.5229V5.47754C48.5442 4.13121 48.0087 2.84044 47.0567 1.88843C46.1047 0.936422 44.814 0.400919 43.4676 0.399414ZM34.4387 17.9933L46.5145 8.51568V29.7156L34.4387 17.9933ZM5.07813 2.43066H43.4675C44.2753 2.43158 45.0498 2.75288 45.621 3.32408C46.1922 3.89528 46.5135 4.66974 46.5144 5.47754V5.93356L26.9728 21.2713C26.2583 21.8291 25.3777 22.1317 24.4713 22.131C23.5649 22.1302 22.6848 21.8262 21.9712 21.2673L2.03125 5.9297V5.47754C2.03216 4.66974 2.35347 3.89528 2.92467 3.32408C3.49587 2.75288 4.27032 2.43158 5.07813 2.43066ZM14.4664 18.0571L2.03125 29.7566V8.49232L14.4664 18.0571ZM43.4676 33.5697H5.07813C4.55796 33.5694 4.04653 33.436 3.59253 33.1821C3.13852 32.9283 2.75705 32.5624 2.48442 32.1194L16.0972 19.3124L20.7267 22.8732C21.7973 23.7095 23.1169 24.1636 24.4755 24.1632C25.834 24.1629 27.1534 23.7081 28.2236 22.8712L32.8263 19.2596L46.0665 32.1113C45.7944 32.5565 45.4125 32.9244 44.9575 33.1798C44.5024 33.4352 43.9894 33.5694 43.4676 33.5697Z" fill="#FF7500"/>
</svg>
