<svg width="71" height="14" viewBox="0 0 71 14" fill="none" xmlns="http://www.w3.org/2000/svg">
<path d="M5.994 13.4721C4.83 13.4721 3.852 13.2921 3.06 12.9321C2.28 12.5721 1.692 12.0681 1.296 11.4201C0.9 10.7721 0.696 10.0341 0.684 9.20606H3.114C3.126 9.69806 3.234 10.1241 3.438 10.4841C3.654 10.8441 3.978 11.1261 4.41 11.3301C4.842 11.5341 5.4 11.6361 6.084 11.6361C6.9 11.6361 7.554 11.4861 8.046 11.1861C8.538 10.8741 8.784 10.4181 8.784 9.81806C8.784 9.47006 8.73 9.18206 8.622 8.95406C8.514 8.71406 8.334 8.51606 8.082 8.36006C7.83 8.20406 7.494 8.07206 7.074 7.96406C6.666 7.85606 6.15 7.74806 5.526 7.64006C4.782 7.52006 4.122 7.36406 3.546 7.17206C2.982 6.96806 2.508 6.72206 2.124 6.43406C1.74 6.14606 1.452 5.79806 1.26 5.39006C1.068 4.97006 0.972 4.47206 0.972 3.89606C0.972 3.10406 1.17 2.42006 1.566 1.84406C1.974 1.26806 2.55 0.824058 3.294 0.512058C4.038 0.188058 4.926 0.026058 5.958 0.026058C6.978 0.026058 7.848 0.188058 8.568 0.512058C9.3 0.836058 9.864 1.29206 10.26 1.88006C10.656 2.45606 10.854 3.12806 10.854 3.89606H8.46C8.436 3.42806 8.31 3.04406 8.082 2.74406C7.854 2.43206 7.548 2.20406 7.164 2.06006C6.792 1.91606 6.36 1.84406 5.868 1.84406C5.364 1.84406 4.926 1.91606 4.554 2.06006C4.194 2.20406 3.918 2.40806 3.726 2.67206C3.534 2.92406 3.438 3.23006 3.438 3.59006C3.438 4.03406 3.546 4.37606 3.762 4.61606C3.99 4.84406 4.35 5.02406 4.842 5.15606C5.346 5.28806 5.994 5.42006 6.786 5.55206C7.35 5.64806 7.896 5.76806 8.424 5.91206C8.964 6.05606 9.444 6.27206 9.864 6.56006C10.296 6.83606 10.638 7.22006 10.89 7.71206C11.142 8.19206 11.268 8.81606 11.268 9.58406C11.268 10.3521 11.07 11.0301 10.674 11.6181C10.278 12.2061 9.69 12.6621 8.91 12.9861C8.13 13.3101 7.158 13.4721 5.994 13.4721ZM17.1899 13.4721C16.2179 13.4721 15.3899 13.2741 14.7059 12.8781C14.0339 12.4701 13.5179 11.9001 13.1579 11.1681C12.7979 10.4241 12.6179 9.56006 12.6179 8.57606C12.6179 7.55606 12.7979 6.67406 13.1579 5.93006C13.5179 5.17406 14.0339 4.59206 14.7059 4.18406C15.3779 3.77606 16.1759 3.57206 17.0999 3.57206C18.1559 3.57206 19.0199 3.80606 19.6919 4.27406C20.3759 4.73006 20.8679 5.36606 21.1679 6.18206C21.4679 6.99806 21.5699 7.93406 21.4739 8.99006H14.8139C14.8139 9.60206 14.9099 10.1181 15.1019 10.5381C15.3059 10.9461 15.5819 11.2581 15.9299 11.4741C16.2899 11.6781 16.7099 11.7801 17.1899 11.7801C17.7539 11.7801 18.2219 11.6481 18.5939 11.3841C18.9659 11.1081 19.2059 10.7541 19.3139 10.3221H21.4199C21.3479 10.9701 21.1199 11.5341 20.7359 12.0141C20.3519 12.4821 19.8539 12.8421 19.2419 13.0941C18.6299 13.3461 17.9459 13.4721 17.1899 13.4721ZM14.8139 7.78406L14.6159 7.55006H19.4939L19.2779 7.80206C19.3019 7.21406 19.2239 6.73406 19.0439 6.36206C18.8639 5.99006 18.6059 5.71406 18.2699 5.53406C17.9339 5.35406 17.5439 5.26406 17.0999 5.26406C16.6439 5.26406 16.2479 5.36006 15.9119 5.55206C15.5759 5.74406 15.3119 6.03206 15.1199 6.41606C14.9279 6.78806 14.8259 7.24406 14.8139 7.78406ZM23.3017 13.3101V3.73406H25.3357L25.4437 5.33606H25.5157C25.7317 4.72406 26.0797 4.28606 26.5597 4.02206C27.0517 3.74606 27.6097 3.60806 28.2337 3.60806C28.3417 3.60806 28.4377 3.60806 28.5217 3.60806C28.6177 3.60806 28.7077 3.60806 28.7917 3.60806V5.73206C28.7197 5.73206 28.6297 5.73206 28.5217 5.73206C28.4257 5.72006 28.3177 5.71406 28.1977 5.71406C27.6217 5.71406 27.1417 5.81006 26.7577 6.00206C26.3737 6.18206 26.0797 6.44606 25.8757 6.79406C25.6837 7.14206 25.5757 7.56806 25.5517 8.07206V13.3101H23.3017ZM34.1205 13.4721C33.4125 13.4721 32.7705 13.3581 32.1945 13.1301C31.6185 12.8901 31.1205 12.5541 30.7005 12.1221C30.2805 11.6781 29.9625 11.1561 29.7465 10.5561C29.5305 9.94406 29.4225 9.26606 29.4225 8.52206C29.4225 7.51406 29.6145 6.64406 29.9985 5.91206C30.3945 5.16806 30.9465 4.59206 31.6545 4.18406C32.3745 3.76406 33.2205 3.55406 34.1925 3.55406C34.9965 3.55406 35.7105 3.70406 36.3345 4.00406C36.9585 4.30406 37.4565 4.72406 37.8285 5.26406C38.2125 5.79206 38.4225 6.41006 38.4585 7.11806H36.2625C36.2025 6.74606 36.0705 6.43406 35.8665 6.18206C35.6745 5.93006 35.4285 5.73806 35.1285 5.60606C34.8285 5.47406 34.4985 5.40806 34.1385 5.40806C33.6225 5.40806 33.1785 5.54006 32.8065 5.80406C32.4345 6.05606 32.1525 6.41606 31.9605 6.88406C31.7805 7.35206 31.6905 7.89806 31.6905 8.52206C31.6905 9.20606 31.7925 9.77606 31.9965 10.2321C32.2005 10.6881 32.4825 11.0361 32.8425 11.2761C33.2145 11.5041 33.6405 11.6181 34.1205 11.6181C34.5405 11.6181 34.9065 11.5461 35.2185 11.4021C35.5305 11.2461 35.7765 11.0361 35.9565 10.7721C36.1485 10.4961 36.2625 10.1841 36.2985 9.83606H38.4945C38.4465 10.5681 38.2305 11.2101 37.8465 11.7621C37.4625 12.3021 36.9525 12.7221 36.3165 13.0221C35.6805 13.3221 34.9485 13.4721 34.1205 13.4721ZM40.247 13.3101V0.188058H42.497V5.55206H42.605C42.881 4.88006 43.301 4.38206 43.865 4.05806C44.429 3.72206 45.059 3.55406 45.755 3.55406C46.235 3.55406 46.679 3.63206 47.087 3.78806C47.507 3.93206 47.867 4.16606 48.167 4.49006C48.479 4.80206 48.719 5.21606 48.887 5.73206C49.067 6.23606 49.157 6.84806 49.157 7.56806V13.3101H46.907V8.05406C46.907 7.45406 46.835 6.96206 46.691 6.57806C46.547 6.18206 46.325 5.88806 46.025 5.69606C45.737 5.50406 45.359 5.40806 44.891 5.40806C44.387 5.40806 43.955 5.52806 43.595 5.76806C43.247 6.00806 42.977 6.32606 42.785 6.72206C42.593 7.11806 42.497 7.55606 42.497 8.03606V13.3101H40.247ZM55.4574 13.4721C54.4854 13.4721 53.6574 13.2741 52.9734 12.8781C52.3014 12.4701 51.7854 11.9001 51.4254 11.1681C51.0654 10.4241 50.8854 9.56006 50.8854 8.57606C50.8854 7.55606 51.0654 6.67406 51.4254 5.93006C51.7854 5.17406 52.3014 4.59206 52.9734 4.18406C53.6454 3.77606 54.4434 3.57206 55.3674 3.57206C56.4234 3.57206 57.2874 3.80606 57.9594 4.27406C58.6434 4.73006 59.1354 5.36606 59.4354 6.18206C59.7354 6.99806 59.8374 7.93406 59.7414 8.99006H53.0814C53.0814 9.60206 53.1774 10.1181 53.3694 10.5381C53.5734 10.9461 53.8494 11.2581 54.1974 11.4741C54.5574 11.6781 54.9774 11.7801 55.4574 11.7801C56.0214 11.7801 56.4894 11.6481 56.8614 11.3841C57.2334 11.1081 57.4734 10.7541 57.5814 10.3221H59.6874C59.6154 10.9701 59.3874 11.5341 59.0034 12.0141C58.6194 12.4821 58.1214 12.8421 57.5094 13.0941C56.8974 13.3461 56.2134 13.4721 55.4574 13.4721ZM53.0814 7.78406L52.8834 7.55006H57.7614L57.5454 7.80206C57.5694 7.21406 57.4914 6.73406 57.3114 6.36206C57.1314 5.99006 56.8734 5.71406 56.5374 5.53406C56.2014 5.35406 55.8114 5.26406 55.3674 5.26406C54.9114 5.26406 54.5154 5.36006 54.1794 5.55206C53.8434 5.74406 53.5794 6.03206 53.3874 6.41606C53.1954 6.78806 53.0934 7.24406 53.0814 7.78406ZM61.5693 13.3101V3.73406H63.7293L63.8193 5.55206H63.9273C64.2033 4.88006 64.6233 4.38206 65.1873 4.05806C65.7513 3.72206 66.3813 3.55406 67.0773 3.55406C67.5573 3.55406 68.0013 3.63206 68.4093 3.78806C68.8293 3.93206 69.1893 4.16606 69.4893 4.49006C69.8013 4.80206 70.0413 5.21606 70.2093 5.73206C70.3893 6.23606 70.4793 6.84806 70.4793 7.56806V13.3101H68.2293V8.05406C68.2293 7.45406 68.1573 6.96206 68.0133 6.57806C67.8693 6.18206 67.6473 5.88806 67.3473 5.69606C67.0593 5.50406 66.6813 5.40806 66.2133 5.40806C65.7093 5.40806 65.2773 5.52806 64.9173 5.76806C64.5693 6.00806 64.2993 6.32606 64.1073 6.72206C63.9153 7.11806 63.8193 7.55606 63.8193 8.03606V13.3101H61.5693Z" fill="#454545"/>
</svg>
