<svg width="71" height="14" viewBox="0 0 71 14" fill="none" xmlns="http://www.w3.org/2000/svg">
<path d="M5.994 13.4725C4.83 13.4725 3.852 13.2925 3.06 12.9325C2.28 12.5725 1.692 12.0685 1.296 11.4205C0.9 10.7725 0.696 10.0345 0.684 9.20655H3.114C3.126 9.69855 3.234 10.1245 3.438 10.4845C3.654 10.8445 3.978 11.1265 4.41 11.3305C4.842 11.5345 5.4 11.6365 6.084 11.6365C6.9 11.6365 7.554 11.4865 8.046 11.1865C8.538 10.8745 8.784 10.4185 8.784 9.81855C8.784 9.47055 8.73 9.18255 8.622 8.95455C8.514 8.71455 8.334 8.51655 8.082 8.36055C7.83 8.20455 7.494 8.07255 7.074 7.96455C6.666 7.85655 6.15 7.74855 5.526 7.64055C4.782 7.52055 4.122 7.36455 3.546 7.17255C2.982 6.96855 2.508 6.72255 2.124 6.43455C1.74 6.14655 1.452 5.79855 1.26 5.39055C1.068 4.97055 0.972 4.47255 0.972 3.89655C0.972 3.10455 1.17 2.42055 1.566 1.84455C1.974 1.26855 2.55 0.824546 3.294 0.512546C4.038 0.188546 4.926 0.0265462 5.958 0.0265462C6.978 0.0265462 7.848 0.188546 8.568 0.512546C9.3 0.836547 9.864 1.29255 10.26 1.88055C10.656 2.45655 10.854 3.12855 10.854 3.89655H8.46C8.436 3.42855 8.31 3.04455 8.082 2.74455C7.854 2.43255 7.548 2.20455 7.164 2.06055C6.792 1.91655 6.36 1.84455 5.868 1.84455C5.364 1.84455 4.926 1.91655 4.554 2.06055C4.194 2.20455 3.918 2.40855 3.726 2.67255C3.534 2.92455 3.438 3.23055 3.438 3.59055C3.438 4.03455 3.546 4.37655 3.762 4.61655C3.99 4.84455 4.35 5.02455 4.842 5.15655C5.346 5.28855 5.994 5.42055 6.786 5.55255C7.35 5.64855 7.896 5.76855 8.424 5.91255C8.964 6.05655 9.444 6.27255 9.864 6.56055C10.296 6.83655 10.638 7.22055 10.89 7.71255C11.142 8.19255 11.268 8.81655 11.268 9.58455C11.268 10.3525 11.07 11.0305 10.674 11.6185C10.278 12.2065 9.69 12.6625 8.91 12.9865C8.13 13.3105 7.158 13.4725 5.994 13.4725ZM17.1899 13.4725C16.2179 13.4725 15.3899 13.2745 14.7059 12.8785C14.0339 12.4705 13.5179 11.9005 13.1579 11.1685C12.7979 10.4245 12.6179 9.56055 12.6179 8.57655C12.6179 7.55655 12.7979 6.67455 13.1579 5.93055C13.5179 5.17455 14.0339 4.59255 14.7059 4.18455C15.3779 3.77655 16.1759 3.57255 17.0999 3.57255C18.1559 3.57255 19.0199 3.80655 19.6919 4.27455C20.3759 4.73055 20.8679 5.36655 21.1679 6.18255C21.4679 6.99855 21.5699 7.93455 21.4739 8.99055H14.8139C14.8139 9.60255 14.9099 10.1185 15.1019 10.5385C15.3059 10.9465 15.5819 11.2585 15.9299 11.4745C16.2899 11.6785 16.7099 11.7805 17.1899 11.7805C17.7539 11.7805 18.2219 11.6485 18.5939 11.3845C18.9659 11.1085 19.2059 10.7545 19.3139 10.3225H21.4199C21.3479 10.9705 21.1199 11.5345 20.7359 12.0145C20.3519 12.4825 19.8539 12.8425 19.2419 13.0945C18.6299 13.3465 17.9459 13.4725 17.1899 13.4725ZM14.8139 7.78455L14.6159 7.55055H19.4939L19.2779 7.80255C19.3019 7.21455 19.2239 6.73455 19.0439 6.36255C18.8639 5.99055 18.6059 5.71455 18.2699 5.53455C17.9339 5.35455 17.5439 5.26455 17.0999 5.26455C16.6439 5.26455 16.2479 5.36055 15.9119 5.55255C15.5759 5.74455 15.3119 6.03255 15.1199 6.41655C14.9279 6.78855 14.8259 7.24455 14.8139 7.78455ZM23.3017 13.3105V3.73455H25.3357L25.4437 5.33655H25.5157C25.7317 4.72455 26.0797 4.28655 26.5597 4.02255C27.0517 3.74655 27.6097 3.60855 28.2337 3.60855C28.3417 3.60855 28.4377 3.60855 28.5217 3.60855C28.6177 3.60855 28.7077 3.60855 28.7917 3.60855V5.73255C28.7197 5.73255 28.6297 5.73255 28.5217 5.73255C28.4257 5.72055 28.3177 5.71455 28.1977 5.71455C27.6217 5.71455 27.1417 5.81055 26.7577 6.00255C26.3737 6.18255 26.0797 6.44655 25.8757 6.79455C25.6837 7.14255 25.5757 7.56855 25.5517 8.07255V13.3105H23.3017ZM34.1205 13.4725C33.4125 13.4725 32.7705 13.3585 32.1945 13.1305C31.6185 12.8905 31.1205 12.5545 30.7005 12.1225C30.2805 11.6785 29.9625 11.1565 29.7465 10.5565C29.5305 9.94455 29.4225 9.26655 29.4225 8.52255C29.4225 7.51455 29.6145 6.64455 29.9985 5.91255C30.3945 5.16855 30.9465 4.59255 31.6545 4.18455C32.3745 3.76455 33.2205 3.55455 34.1925 3.55455C34.9965 3.55455 35.7105 3.70455 36.3345 4.00455C36.9585 4.30455 37.4565 4.72455 37.8285 5.26455C38.2125 5.79255 38.4225 6.41055 38.4585 7.11855H36.2625C36.2025 6.74655 36.0705 6.43455 35.8665 6.18255C35.6745 5.93055 35.4285 5.73855 35.1285 5.60655C34.8285 5.47455 34.4985 5.40855 34.1385 5.40855C33.6225 5.40855 33.1785 5.54055 32.8065 5.80455C32.4345 6.05655 32.1525 6.41655 31.9605 6.88455C31.7805 7.35255 31.6905 7.89855 31.6905 8.52255C31.6905 9.20655 31.7925 9.77655 31.9965 10.2325C32.2005 10.6885 32.4825 11.0365 32.8425 11.2765C33.2145 11.5045 33.6405 11.6185 34.1205 11.6185C34.5405 11.6185 34.9065 11.5465 35.2185 11.4025C35.5305 11.2465 35.7765 11.0365 35.9565 10.7725C36.1485 10.4965 36.2625 10.1845 36.2985 9.83655H38.4945C38.4465 10.5685 38.2305 11.2105 37.8465 11.7625C37.4625 12.3025 36.9525 12.7225 36.3165 13.0225C35.6805 13.3225 34.9485 13.4725 34.1205 13.4725ZM40.247 13.3105V0.188546H42.497V5.55255H42.605C42.881 4.88055 43.301 4.38255 43.865 4.05855C44.429 3.72255 45.059 3.55455 45.755 3.55455C46.235 3.55455 46.679 3.63255 47.087 3.78855C47.507 3.93255 47.867 4.16655 48.167 4.49055C48.479 4.80255 48.719 5.21655 48.887 5.73255C49.067 6.23655 49.157 6.84855 49.157 7.56855V13.3105H46.907V8.05455C46.907 7.45455 46.835 6.96255 46.691 6.57855C46.547 6.18255 46.325 5.88855 46.025 5.69655C45.737 5.50455 45.359 5.40855 44.891 5.40855C44.387 5.40855 43.955 5.52855 43.595 5.76855C43.247 6.00855 42.977 6.32655 42.785 6.72255C42.593 7.11855 42.497 7.55655 42.497 8.03655V13.3105H40.247ZM55.4574 13.4725C54.4854 13.4725 53.6574 13.2745 52.9734 12.8785C52.3014 12.4705 51.7854 11.9005 51.4254 11.1685C51.0654 10.4245 50.8854 9.56055 50.8854 8.57655C50.8854 7.55655 51.0654 6.67455 51.4254 5.93055C51.7854 5.17455 52.3014 4.59255 52.9734 4.18455C53.6454 3.77655 54.4434 3.57255 55.3674 3.57255C56.4234 3.57255 57.2874 3.80655 57.9594 4.27455C58.6434 4.73055 59.1354 5.36655 59.4354 6.18255C59.7354 6.99855 59.8374 7.93455 59.7414 8.99055H53.0814C53.0814 9.60255 53.1774 10.1185 53.3694 10.5385C53.5734 10.9465 53.8494 11.2585 54.1974 11.4745C54.5574 11.6785 54.9774 11.7805 55.4574 11.7805C56.0214 11.7805 56.4894 11.6485 56.8614 11.3845C57.2334 11.1085 57.4734 10.7545 57.5814 10.3225H59.6874C59.6154 10.9705 59.3874 11.5345 59.0034 12.0145C58.6194 12.4825 58.1214 12.8425 57.5094 13.0945C56.8974 13.3465 56.2134 13.4725 55.4574 13.4725ZM53.0814 7.78455L52.8834 7.55055H57.7614L57.5454 7.80255C57.5694 7.21455 57.4914 6.73455 57.3114 6.36255C57.1314 5.99055 56.8734 5.71455 56.5374 5.53455C56.2014 5.35455 55.8114 5.26455 55.3674 5.26455C54.9114 5.26455 54.5154 5.36055 54.1794 5.55255C53.8434 5.74455 53.5794 6.03255 53.3874 6.41655C53.1954 6.78855 53.0934 7.24455 53.0814 7.78455ZM61.5693 13.3105V3.73455H63.7293L63.8193 5.55255H63.9273C64.2033 4.88055 64.6233 4.38255 65.1873 4.05855C65.7513 3.72255 66.3813 3.55455 67.0773 3.55455C67.5573 3.55455 68.0013 3.63255 68.4093 3.78855C68.8293 3.93255 69.1893 4.16655 69.4893 4.49055C69.8013 4.80255 70.0413 5.21655 70.2093 5.73255C70.3893 6.23655 70.4793 6.84855 70.4793 7.56855V13.3105H68.2293V8.05455C68.2293 7.45455 68.1573 6.96255 68.0133 6.57855C67.8693 6.18255 67.6473 5.88855 67.3473 5.69655C67.0593 5.50455 66.6813 5.40855 66.2133 5.40855C65.7093 5.40855 65.2773 5.52855 64.9173 5.76855C64.5693 6.00855 64.2993 6.32655 64.1073 6.72255C63.9153 7.11855 63.8193 7.55655 63.8193 8.03655V13.3105H61.5693Z" fill="white"/>
</svg>
