<svg width="60" height="59" viewBox="0 0 60 59" fill="none" xmlns="http://www.w3.org/2000/svg">
<path d="M37 54H5C3.67441 53.9984 2.40356 53.4711 1.46622 52.5338C0.528882 51.5964 0.00158786 50.3256 0 49V5C0.00158786 3.67441 0.528882 2.40356 1.46622 1.46622C2.40356 0.528882 3.67441 0.00158786 5 0H51C52.3256 0.00158786 53.5964 0.528882 54.5338 1.46622C55.4711 2.40356 55.9984 3.67441 56 5V37C56 37.2652 55.8946 37.5196 55.7071 37.7071C55.5196 37.8946 55.2652 38 55 38C54.7348 38 54.4804 37.8946 54.2929 37.7071C54.1054 37.5196 54 37.2652 54 37V5C54 4.20435 53.6839 3.44129 53.1213 2.87868C52.5587 2.31607 51.7957 2 51 2H5C4.20435 2 3.44129 2.31607 2.87868 2.87868C2.31607 3.44129 2 4.20435 2 5V49C2 49.7957 2.31607 50.5587 2.87868 51.1213C3.44129 51.6839 4.20435 52 5 52H37C37.2652 52 37.5196 52.1054 37.7071 52.2929C37.8946 52.4804 38 52.7348 38 53C38 53.2652 37.8946 53.5196 37.7071 53.7071C37.5196 53.8946 37.2652 54 37 54Z" fill="#FF7500"/>
<path d="M8 8C9.10457 8 10 7.10457 10 6C10 4.89543 9.10457 4 8 4C6.89543 4 6 4.89543 6 6C6 7.10457 6.89543 8 8 8Z" fill="#FF7500"/>
<path d="M13 8C14.1046 8 15 7.10457 15 6C15 4.89543 14.1046 4 13 4C11.8954 4 11 4.89543 11 6C11 7.10457 11.8954 8 13 8Z" fill="#FF7500"/>
<path d="M18 8C19.1046 8 20 7.10457 20 6C20 4.89543 19.1046 4 18 4C16.8954 4 16 4.89543 16 6C16 7.10457 16.8954 8 18 8Z" fill="#FF7500"/>
<path d="M55 12H1C0.734784 12 0.48043 11.8946 0.292893 11.7071C0.105357 11.5196 0 11.2652 0 11V5C0.00158786 3.67441 0.528882 2.40356 1.46622 1.46622C2.40356 0.528882 3.67441 0.00158786 5 0H51C52.3256 0.00158786 53.5964 0.528882 54.5338 1.46622C55.4711 2.40356 55.9984 3.67441 56 5V11C56 11.2652 55.8946 11.5196 55.7071 11.7071C55.5196 11.8946 55.2652 12 55 12ZM2 10H54V5C54 4.20435 53.6839 3.44129 53.1213 2.87868C52.5587 2.31607 51.7957 2 51 2H5C4.20435 2 3.44129 2.31607 2.87868 2.87868C2.31607 3.44129 2 4.20435 2 5V10Z" fill="#FF7500"/>
<path d="M49 7H43C42.7348 7 42.4804 6.89464 42.2929 6.70711C42.1054 6.51957 42 6.26522 42 6C42 5.73478 42.1054 5.48043 42.2929 5.29289C42.4804 5.10536 42.7348 5 43 5H49C49.2652 5 49.5196 5.10536 49.7071 5.29289C49.8946 5.48043 50 5.73478 50 6C50 6.26522 49.8946 6.51957 49.7071 6.70711C49.5196 6.89464 49.2652 7 49 7ZM39 7H37C36.7348 7 36.4804 6.89464 36.2929 6.70711C36.1054 6.51957 36 6.26522 36 6C36 5.73478 36.1054 5.48043 36.2929 5.29289C36.4804 5.10536 36.7348 5 37 5H39C39.2652 5 39.5196 5.10536 39.7071 5.29289C39.8946 5.48043 40 5.73478 40 6C40 6.26522 39.8946 6.51957 39.7071 6.70711C39.5196 6.89464 39.2652 7 39 7ZM37 36H9C8.20435 36 7.44129 35.6839 6.87868 35.1213C6.31607 34.5587 6 33.7956 6 33V19C6 18.2044 6.31607 17.4413 6.87868 16.8787C7.44129 16.3161 8.20435 16 9 16H47C47.7957 16 48.5587 16.3161 49.1213 16.8787C49.6839 17.4413 50 18.2044 50 19V27C50 27.2652 49.8946 27.5196 49.7071 27.7071C49.5196 27.8946 49.2652 28 49 28C48.7348 28 48.4804 27.8946 48.2929 27.7071C48.1054 27.5196 48 27.2652 48 27V19C48 18.7348 47.8946 18.4804 47.7071 18.2929C47.5196 18.1054 47.2652 18 47 18H9C8.73478 18 8.48043 18.1054 8.29289 18.2929C8.10536 18.4804 8 18.7348 8 19V33C8 33.2652 8.10536 33.5196 8.29289 33.7071C8.48043 33.8946 8.73478 34 9 34H37C37.2652 34 37.5196 34.1054 37.7071 34.2929C37.8946 34.4804 38 34.7348 38 35C38 35.2652 37.8946 35.5196 37.7071 35.7071C37.5196 35.8946 37.2652 36 37 36Z" fill="#FF7500"/>
<path d="M47 59C44.4288 59 41.9154 58.2376 39.7776 56.8091C37.6398 55.3807 35.9735 53.3503 34.9896 50.9749C34.0056 48.5995 33.7482 45.9856 34.2498 43.4638C34.7514 40.9421 35.9895 38.6257 37.8076 36.8076C39.6257 34.9895 41.9421 33.7514 44.4638 33.2498C46.9856 32.7482 49.5995 33.0056 51.9749 33.9896C54.3503 34.9735 56.3807 36.6398 57.8091 38.7776C59.2376 40.9154 60 43.4288 60 46C59.996 49.4466 58.6251 52.7509 56.188 55.188C53.7509 57.6251 50.4466 58.996 47 59ZM47 35C44.8244 35 42.6977 35.6451 40.8887 36.8538C39.0798 38.0625 37.6699 39.7805 36.8373 41.7905C36.0048 43.8005 35.7869 46.0122 36.2114 48.146C36.6358 50.2798 37.6835 52.2398 39.2218 53.7782C40.7602 55.3166 42.7202 56.3642 44.854 56.7886C46.9878 57.2131 49.1995 56.9952 51.2095 56.1627C53.2195 55.3301 54.9375 53.9202 56.1462 52.1113C57.3549 50.3023 58 48.1756 58 46C57.9966 43.0837 56.8365 40.2878 54.7744 38.2256C52.7122 36.1635 49.9163 35.0034 47 35Z" fill="#FF7500"/>
<path d="M47 56C45.0222 56 43.0888 55.4135 41.4443 54.3147C39.7998 53.2159 38.5181 51.6541 37.7612 49.8268C37.0043 47.9996 36.8063 45.9889 37.1922 44.0491C37.578 42.1093 38.5304 40.3275 39.9289 38.9289C41.3275 37.5304 43.1093 36.578 45.0491 36.1922C46.9889 35.8063 48.9996 36.0043 50.8268 36.7612C52.6541 37.5181 54.2159 38.7998 55.3147 40.4443C56.4135 42.0888 57 44.0222 57 46C56.9971 48.6513 55.9426 51.1931 54.0679 53.0679C52.1931 54.9426 49.6513 55.9971 47 56ZM47 38C45.4178 38 43.871 38.4692 42.5554 39.3482C41.2399 40.2273 40.2145 41.4767 39.609 42.9385C39.0035 44.4003 38.845 46.0089 39.1537 47.5607C39.4624 49.1126 40.2243 50.538 41.3432 51.6569C42.462 52.7757 43.8874 53.5376 45.4393 53.8463C46.9911 54.155 48.5997 53.9965 50.0615 53.391C51.5233 52.7855 52.7727 51.7602 53.6518 50.4446C54.5308 49.129 55 47.5823 55 46C54.9976 43.879 54.154 41.8456 52.6542 40.3458C51.1545 38.846 49.121 38.0024 47 38Z" fill="#FF7500"/>
<path d="M47 47.5C47.8284 47.5 48.5 46.8284 48.5 46C48.5 45.1716 47.8284 44.5 47 44.5C46.1716 44.5 45.5 45.1716 45.5 46C45.5 46.8284 46.1716 47.5 47 47.5Z" fill="#FF7500"/>
<path d="M40 47H38C37.7348 47 37.4804 46.8946 37.2929 46.7071C37.1054 46.5196 37 46.2652 37 46C37 45.7348 37.1054 45.4804 37.2929 45.2929C37.4804 45.1054 37.7348 45 38 45H40C40.2652 45 40.5196 45.1054 40.7071 45.2929C40.8946 45.4804 41 45.7348 41 46C41 46.2652 40.8946 46.5196 40.7071 46.7071C40.5196 46.8946 40.2652 47 40 47ZM40.636 53.364C40.4383 53.364 40.2449 53.3053 40.0805 53.1954C39.9161 53.0855 39.788 52.9294 39.7123 52.7467C39.6367 52.564 39.6169 52.3629 39.6554 52.169C39.694 51.975 39.7892 51.7969 39.929 51.657L41.343 50.243C41.5316 50.0608 41.7842 49.96 42.0464 49.9623C42.3086 49.9646 42.5594 50.0698 42.7448 50.2552C42.9302 50.4406 43.0354 50.6914 43.0377 50.9536C43.04 51.2158 42.9392 51.4684 42.757 51.657L41.343 53.071C41.1555 53.2585 40.9012 53.3639 40.636 53.364ZM47 56C46.7348 56 46.4804 55.8946 46.2929 55.7071C46.1054 55.5196 46 55.2652 46 55V53C46 52.7348 46.1054 52.4804 46.2929 52.2929C46.4804 52.1054 46.7348 52 47 52C47.2652 52 47.5196 52.1054 47.7071 52.2929C47.8946 52.4804 48 52.7348 48 53V55C48 55.2652 47.8946 55.5196 47.7071 55.7071C47.5196 55.8946 47.2652 56 47 56ZM53.364 53.364C53.0988 53.3639 52.8445 53.2585 52.657 53.071L51.243 51.657C51.0608 51.4684 50.96 51.2158 50.9623 50.9536C50.9646 50.6914 51.0698 50.4406 51.2552 50.2552C51.4406 50.0698 51.6914 49.9646 51.9536 49.9623C52.2158 49.96 52.4684 50.0608 52.657 50.243L54.071 51.657C54.2108 51.7969 54.306 51.975 54.3446 52.169C54.3832 52.3629 54.3633 52.564 54.2877 52.7467C54.212 52.9294 54.0839 53.0855 53.9195 53.1954C53.7551 53.3053 53.5617 53.364 53.364 53.364ZM56 47H54C53.7348 47 53.4804 46.8946 53.2929 46.7071C53.1054 46.5196 53 46.2652 53 46C53 45.7348 53.1054 45.4804 53.2929 45.2929C53.4804 45.1054 53.7348 45 54 45H56C56.2652 45 56.5196 45.1054 56.7071 45.2929C56.8946 45.4804 57 45.7348 57 46C57 46.2652 56.8946 46.5196 56.7071 46.7071C56.5196 46.8946 56.2652 47 56 47ZM51.95 42.05C51.7523 42.05 51.559 41.9913 51.3945 41.8814C51.2301 41.7715 51.102 41.6154 51.0263 41.4327C50.9507 41.25 50.9309 41.0489 50.9694 40.855C51.008 40.661 51.1032 40.4829 51.243 40.343L52.657 38.929C52.8456 38.7468 53.0982 38.646 53.3604 38.6483C53.6226 38.6506 53.8734 38.7558 54.0588 38.9412C54.2442 39.1266 54.3494 39.3774 54.3517 39.6396C54.354 39.9018 54.2532 40.1544 54.071 40.343L52.657 41.757C52.5644 41.8502 52.4542 41.9241 52.3329 41.9743C52.2115 42.0246 52.0814 42.0504 51.95 42.05ZM47 40C46.7348 40 46.4804 39.8946 46.2929 39.7071C46.1054 39.5196 46 39.2652 46 39V37C46 36.7348 46.1054 36.4804 46.2929 36.2929C46.4804 36.1054 46.7348 36 47 36C47.2652 36 47.5196 36.1054 47.7071 36.2929C47.8946 36.4804 48 36.7348 48 37V39C48 39.2652 47.8946 39.5196 47.7071 39.7071C47.5196 39.8946 47.2652 40 47 40ZM42.05 42.05C41.9186 42.0504 41.7885 42.0246 41.6671 41.9743C41.5458 41.9241 41.4356 41.8502 41.343 41.757L39.929 40.343C39.7468 40.1544 39.646 39.9018 39.6483 39.6396C39.6506 39.3774 39.7558 39.1266 39.9412 38.9412C40.1266 38.7558 40.3774 38.6506 40.6396 38.6483C40.9018 38.646 41.1544 38.7468 41.343 38.929L42.757 40.343C42.8968 40.4829 42.992 40.661 43.0306 40.855C43.0691 41.0489 43.0493 41.25 42.9737 41.4327C42.898 41.6154 42.7699 41.7715 42.6055 41.8814C42.441 41.9913 42.2477 42.05 42.05 42.05ZM49 49C48.7348 48.9999 48.4805 48.8946 48.293 48.707L46.293 46.707C46.1054 46.5195 46.0001 46.2652 46 46V42C46 41.7348 46.1054 41.4804 46.2929 41.2929C46.4804 41.1054 46.7348 41 47 41C47.2652 41 47.5196 41.1054 47.7071 41.2929C47.8946 41.4804 48 41.7348 48 42V45.586L49.707 47.293C49.8468 47.4329 49.942 47.611 49.9806 47.805C50.0192 47.9989 49.9993 48.2 49.9237 48.3827C49.848 48.5654 49.7199 48.7215 49.5555 48.8314C49.391 48.9413 49.1978 49 49 49ZM47 35C46.7348 35 46.4804 34.8946 46.2929 34.7071C46.1054 34.5196 46 34.2652 46 34V30C46 29.7348 46.1054 29.4804 46.2929 29.2929C46.4804 29.1054 46.7348 29 47 29C47.2652 29 47.5196 29.1054 47.7071 29.2929C47.8946 29.4804 48 29.7348 48 30V34C48 34.2652 47.8946 34.5196 47.7071 34.7071C47.5196 34.8946 47.2652 35 47 35Z" fill="#FF7500"/>
<path d="M50 31H44C43.7348 31 43.4804 30.8946 43.2929 30.7071C43.1054 30.5196 43 30.2652 43 30C43 29.7348 43.1054 29.4804 43.2929 29.2929C43.4804 29.1054 43.7348 29 44 29H50C50.2652 29 50.5196 29.1054 50.7071 29.2929C50.8946 29.4804 51 29.7348 51 30C51 30.2652 50.8946 30.5196 50.7071 30.7071C50.5196 30.8946 50.2652 31 50 31ZM31 41H8C7.73478 41 7.48043 40.8946 7.29289 40.7071C7.10536 40.5196 7 40.2652 7 40C7 39.7348 7.10536 39.4804 7.29289 39.2929C7.48043 39.1054 7.73478 39 8 39H31C31.2652 39 31.5196 39.1054 31.7071 39.2929C31.8946 39.4804 32 39.7348 32 40C32 40.2652 31.8946 40.5196 31.7071 40.7071C31.5196 40.8946 31.2652 41 31 41ZM31 45H8C7.73478 45 7.48043 44.8946 7.29289 44.7071C7.10536 44.5196 7 44.2652 7 44C7 43.7348 7.10536 43.4804 7.29289 43.2929C7.48043 43.1054 7.73478 43 8 43H31C31.2652 43 31.5196 43.1054 31.7071 43.2929C31.8946 43.4804 32 43.7348 32 44C32 44.2652 31.8946 44.5196 31.7071 44.7071C31.5196 44.8946 31.2652 45 31 45ZM31 49H8C7.73478 49 7.48043 48.8946 7.29289 48.7071C7.10536 48.5196 7 48.2652 7 48C7 47.7348 7.10536 47.4804 7.29289 47.2929C7.48043 47.1054 7.73478 47 8 47H31C31.2652 47 31.5196 47.1054 31.7071 47.2929C31.8946 47.4804 32 47.7348 32 48C32 48.2652 31.8946 48.5196 31.7071 48.7071C31.5196 48.8946 31.2652 49 31 49Z" fill="#FF7500"/>
</svg>
