<svg width="48" height="49" viewBox="0 0 48 49" fill="none" xmlns="http://www.w3.org/2000/svg" >
<path d="M18 3.08984H3V45.0898H18V3.08984ZM45 3.08984H30V18.0898H45V3.08984ZM45 30.0898V45.0898H30V30.0898H45ZM0 3.08984C0 2.29419 0.316071 1.53113 0.87868 0.968523C1.44129 0.405914 2.20435 0.0898438 3 0.0898438L18 0.0898438C18.7956 0.0898438 19.5587 0.405914 20.1213 0.968523C20.6839 1.53113 21 2.29419 21 3.08984V45.0898C21 45.8855 20.6839 46.6486 20.1213 47.2112C19.5587 47.7738 18.7956 48.0898 18 48.0898H3C2.20435 48.0898 1.44129 47.7738 0.87868 47.2112C0.316071 46.6486 0 45.8855 0 45.0898V3.08984ZM27 3.08984C27 2.29419 27.3161 1.53113 27.8787 0.968523C28.4413 0.405914 29.2044 0.0898438 30 0.0898438L45 0.0898438C45.7956 0.0898438 46.5587 0.405914 47.1213 0.968523C47.6839 1.53113 48 2.29419 48 3.08984V18.0898C48 18.8855 47.6839 19.6486 47.1213 20.2112C46.5587 20.7738 45.7956 21.0898 45 21.0898H30C29.2044 21.0898 28.4413 20.7738 27.8787 20.2112C27.3161 19.6486 27 18.8855 27 18.0898V3.08984ZM30 27.0898C29.2044 27.0898 28.4413 27.4059 27.8787 27.9685C27.3161 28.5311 27 29.2942 27 30.0898V45.0898C27 45.8855 27.3161 46.6486 27.8787 47.2112C28.4413 47.7738 29.2044 48.0898 30 48.0898H45C45.7956 48.0898 46.5587 47.7738 47.1213 47.2112C47.6839 46.6486 48 45.8855 48 45.0898V30.0898C48 29.2942 47.6839 28.5311 47.1213 27.9685C46.5587 27.4059 45.7956 27.0898 45 27.0898H30Z" fill="#16191C"/>
</svg>
