<svg width="36" height="49" viewBox="0 0 36 49" fill="none" xmlns="http://www.w3.org/2000/svg">
<path fill-rule="evenodd" clip-rule="evenodd" d="M1.75736 1.8472C0.632141 2.97242 0 4.49854 0 6.08984V42.0898C0 43.6811 0.632141 45.2073 1.75736 46.3325C2.88258 47.4577 4.4087 48.0898 6 48.0898H30C31.5913 48.0898 33.1174 47.4577 34.2426 46.3325C35.3679 45.2073 36 43.6811 36 42.0898V6.08984C36 4.49854 35.3679 2.97242 34.2426 1.8472C33.1174 0.721985 31.5913 0.0898438 30 0.0898438H6C4.4087 0.0898438 2.88258 0.721985 1.75736 1.8472ZM6 3.08984H30C30.7956 3.08984 31.5587 3.40591 32.1213 3.96852C32.6839 4.53113 33 5.29419 33 6.08984V42.0898C33 42.8855 32.6839 43.6486 32.1213 44.2112C31.5587 44.7738 30.7956 45.0898 30 45.0898H6C5.20435 45.0898 4.44129 44.7738 3.87868 44.2112C3.31607 43.6486 3 42.8855 3 42.0898V6.08984C3 5.29419 3.31607 4.53113 3.87868 3.96852C4.44129 3.40591 5.20435 3.08984 6 3.08984ZM7.93934 12.5292C8.22064 12.2479 8.60218 12.0898 9 12.0898H27C27.3978 12.0898 27.7794 12.2479 28.0607 12.5292C28.342 12.8105 28.5 13.192 28.5 13.5898C28.5 13.9877 28.342 14.3692 28.0607 14.6505C27.7794 14.9318 27.3978 15.0898 27 15.0898H9C8.60218 15.0898 8.22064 14.9318 7.93934 14.6505C7.65804 14.3692 7.5 13.9877 7.5 13.5898C7.5 13.192 7.65804 12.8105 7.93934 12.5292ZM7.93934 18.5292C7.65804 18.8105 7.5 19.192 7.5 19.5898C7.5 19.9877 7.65804 20.3692 7.93934 20.6505C8.22064 20.9318 8.60218 21.0898 9 21.0898H27C27.3978 21.0898 27.7794 20.9318 28.0607 20.6505C28.342 20.3692 28.5 19.9877 28.5 19.5898C28.5 19.192 28.342 18.8105 28.0607 18.5292C27.7794 18.2479 27.3978 18.0898 27 18.0898H9C8.60218 18.0898 8.22064 18.2479 7.93934 18.5292ZM7.93934 24.5292C8.22064 24.2479 8.60218 24.0898 9 24.0898H27C27.3978 24.0898 27.7794 24.2479 28.0607 24.5292C28.342 24.8105 28.5 25.192 28.5 25.5898C28.5 25.9877 28.342 26.3692 28.0607 26.6505C27.7794 26.9318 27.3978 27.0898 27 27.0898H9C8.60218 27.0898 8.22064 26.9318 7.93934 26.6505C7.65804 26.3692 7.5 25.9877 7.5 25.5898C7.5 25.192 7.65804 24.8105 7.93934 24.5292ZM7.93934 30.5292C8.22064 30.2479 8.60218 30.0898 9 30.0898H18C18.3978 30.0898 18.7794 30.2479 19.0607 30.5292C19.342 30.8105 19.5 31.192 19.5 31.5898C19.5 31.9877 19.342 32.3692 19.0607 32.6505C18.7794 32.9318 18.3978 33.0898 18 33.0898H9C8.60218 33.0898 8.22064 32.9318 7.93934 32.6505C7.65804 32.3692 7.5 31.9877 7.5 31.5898C7.5 31.192 7.65804 30.8105 7.93934 30.5292Z" fill="#FF7500"/>
</svg>
