<svg width="20" height="19" viewBox="0 0 15 14" fill="currentColor" xmlns="http://www.w3.org/2000/svg">
<path id="Vector" d="M13.6975 5.18717L9.54852 4.58418L7.6938 0.824082C7.64314 0.721132 7.5598 0.637793 7.45685 0.587135C7.19866 0.459674 6.88491 0.565891 6.75582 0.824082L4.9011 4.58418L0.752083 5.18717C0.637695 5.20351 0.533111 5.25743 0.45304 5.33914C0.356237 5.43864 0.302895 5.57249 0.304733 5.7113C0.306572 5.8501 0.363441 5.9825 0.462844 6.07939L3.46471 9.00609L2.75551 13.1388C2.73888 13.2349 2.74951 13.3338 2.78622 13.4242C2.82292 13.5146 2.88421 13.5929 2.96315 13.6502C3.04209 13.7075 3.13552 13.7416 3.23283 13.7485C3.33015 13.7555 3.42746 13.735 3.51374 13.6895L7.22481 11.7383L10.9359 13.6895C11.0372 13.7434 11.1549 13.7614 11.2676 13.7418C11.5519 13.6927 11.7431 13.4231 11.6941 13.1388L10.9849 9.00609L13.9868 6.07939C14.0685 5.99932 14.1224 5.89474 14.1387 5.78035C14.1829 5.49438 13.9835 5.22965 13.6975 5.18717Z"/>
</svg>
