<svg width="23" height="22" viewBox="0 0 23 22" fill="none" xmlns="http://www.w3.org/2000/svg">
<path d="M11.2539 1.73268L13.7787 8.06634L13.9166 8.42021L14.2944 8.4442L20.9752 8.87604L15.8417 13.2364L15.5538 13.4763L15.6438 13.8422L17.323 20.4398L11.5657 16.7931L11.2479 16.5892L10.9301 16.7931L5.17285 20.4398L6.85203 13.8422L6.94199 13.4823L6.66013 13.2424L1.53861 8.88204L8.20737 8.4502L8.58519 8.42621L8.72312 8.07234L11.2539 1.73268ZM11.2539 0.113281L8.17139 7.84442L0.0273438 8.37223L6.27631 13.6923L4.22531 21.7533L11.2539 17.3029L18.2825 21.7533L16.2315 13.6923L22.4984 8.37223L14.3364 7.84442L11.2539 0.113281Z" fill="#73CF11"/>
</svg>
