<svg width="498" height="348" viewBox="0 0 498 348" fill="none" xmlns="http://www.w3.org/2000/svg">
<path d="M437.055 37.5119L437.068 37.4641L437.071 37.4147L437.961 23.5933L441.07 19.6417L444.715 16.4359L448.731 14.1165L453.318 14.6693L458.279 16.6875L462.517 21.2347L463.827 29.1164L460.677 35.7841L450.534 42.1963L450.484 42.2283L450.442 42.2713L445.835 47.0354L443.61 45.37L453.928 30.1193L454.132 29.8172L453.907 29.5304L451.788 26.8297L451.635 26.6344L451.386 26.6385L446.391 26.721L446.055 26.7266L445.933 27.0391L439.363 43.8627L435.909 41.7905L437.055 37.5119Z" fill="white" stroke="#FF7500"/>
<path d="M202.948 28.7593H12.2703C6.16885 28.7593 1.22266 33.7077 1.22266 39.8118V334.759C1.22266 340.863 6.16885 345.811 12.2703 345.811H202.948C209.049 345.811 213.995 340.863 213.995 334.759V39.8118C213.995 33.7077 209.049 28.7593 202.948 28.7593Z" stroke="#18181B"/>
<path d="M34.957 33.9422C34.957 31.0798 37.2765 28.7593 40.1377 28.7593H202.947C209.049 28.7593 213.995 33.7077 213.995 39.8119V334.759C213.995 340.863 209.049 345.812 202.947 345.812H40.1377C37.2765 345.812 34.957 343.491 34.957 340.629V33.9422Z" stroke="#18181B"/>
<path d="M297.731 110.972C293.613 121.958 287.985 136.79 281.945 130.198C275.905 123.606 284.004 108.682 288.808 102.045L297.731 110.972Z" fill="#18181B" stroke="#18181B" stroke-linecap="round" stroke-linejoin="round"/>
<path d="M284.691 79.3846L297.045 97.238L295.673 97.9246L298.418 110.285L296.359 115.091L289.495 101.358L277.827 85.5646L271.65 81.4446L268.218 78.698L268.904 71.1446L260.668 64.9646V63.5913L279.2 73.8913L284.004 64.278L284.691 79.3846Z" fill="white"/>
<path d="M331.364 319.718C334.658 313.126 337.313 294.541 338.228 286.071C343.032 285.385 352.778 285.522 353.328 291.565C354.014 299.118 338.914 322.465 337.541 324.525C336.443 326.173 336.168 329.789 336.168 331.391C332.737 334.138 324.912 339.219 321.068 337.571C316.264 335.511 327.246 327.958 331.364 319.718Z" fill="white" stroke="#18181B"/>
<path d="M408.922 194.745C407.824 186.505 400 166.591 393.136 154.231C381.925 151.255 356.621 146.678 345.091 149.425C333.56 152.171 333.422 240.522 334.795 284.698C354.7 299.118 432.945 291.565 436.377 283.325C443.812 265.471 413.041 232.511 410.295 224.271C407.55 216.031 410.295 205.045 408.922 194.745Z" fill="white" stroke="#18181B" stroke-linecap="round"/>
<path d="M304.739 143.021L297.731 111.658L284.004 131.572L285.377 133.632L288.808 135.692L292.24 137.065L294.299 136.378C299.79 142.558 307.478 145.305 310.772 145.305C314.067 145.305 316.263 143.932 316.949 143.245L304.739 143.021Z" fill="white"/>
<path d="M384.215 59.4717L378.724 69.7717L397.942 88.9983L410.297 115.092L413.728 126.078L415.101 137.752L411.669 143.932L408.924 148.052L404.806 150.798L393.824 154.232V158.352L361.565 149.425L358.133 143.245H389.706V139.812L365.683 138.438L356.074 97.925H325.188L334.11 86.2517L338.915 80.7583L343.719 76.6383L351.269 75.9517L359.506 77.325L360.192 72.2607C360.192 72.2607 358.133 70.4583 356.074 64.965L357.447 53.2917L358.133 47.7983H369.115L380.783 53.2917L384.215 59.4717Z" fill="white"/>
<path d="M491.97 106.852H464.515C461.862 106.852 459.711 109.004 459.711 111.658V144.618C459.711 147.273 461.862 149.425 464.515 149.425H491.97C494.624 149.425 496.775 147.273 496.775 144.618V111.658C496.775 109.004 494.624 106.852 491.97 106.852Z" stroke="#FF7500"/>
<path d="M408.922 319.032C405.627 314.088 406.406 297.974 406.863 290.878L392.449 292.252C394.051 294.541 397.666 302.964 399.313 315.598C401.372 331.392 388.331 339.632 397.254 339.632C406.176 339.632 413.04 325.212 408.922 319.032Z" fill="white" stroke="#18181B" stroke-linecap="round"/>
<path d="M348.52 172.085C357.305 172.085 362.477 152.629 362.934 143.932L345.088 146.678C342.571 155.148 339.735 172.085 348.52 172.085Z" fill="#18181B" stroke="#18181B" stroke-linecap="round" stroke-linejoin="round"/>
<path d="M183.192 41.9668H65.7578V64.0718H183.192V41.9668Z" stroke="#18181B"/>
<path d="M73.871 55.9546C75.4911 55.9546 76.8045 54.6406 76.8045 53.0198C76.8045 51.3989 75.4911 50.085 73.871 50.085C72.2509 50.085 70.9375 51.3989 70.9375 53.0198C70.9375 54.6406 72.2509 55.9546 73.871 55.9546Z" fill="#18181B"/>
<path d="M82.6757 55.9546C84.2958 55.9546 85.6092 54.6406 85.6092 53.0198C85.6092 51.3989 84.2958 50.085 82.6757 50.085C81.0556 50.085 79.7422 51.3989 79.7422 53.0198C79.7422 54.6406 81.0556 55.9546 82.6757 55.9546Z" fill="#FF7500"/>
<path d="M91.4726 55.9546C93.0927 55.9546 94.4061 54.6406 94.4061 53.0198C94.4061 51.3989 93.0927 50.085 91.4726 50.085C89.8524 50.085 88.5391 51.3989 88.5391 53.0198C88.5391 54.6406 89.8524 55.9546 91.4726 55.9546Z" fill="#18181B"/>
<path d="M100.277 55.9546C101.897 55.9546 103.211 54.6406 103.211 53.0198C103.211 51.3989 101.897 50.085 100.277 50.085C98.6571 50.085 97.3438 51.3989 97.3438 53.0198C97.3438 54.6406 98.6571 55.9546 100.277 55.9546Z" fill="#FF7500"/>
<path d="M109.074 55.9546C110.694 55.9546 112.008 54.6406 112.008 53.0198C112.008 51.3989 110.694 50.085 109.074 50.085C107.454 50.085 106.141 51.3989 106.141 53.0198C106.141 54.6406 107.454 55.9546 109.074 55.9546Z" fill="#18181B"/>
<path d="M153.078 50.8652H167.744" stroke="#18181B"/>
<path d="M153.078 55.2676H167.744" stroke="#18181B"/>
<path d="M175.766 47.1499V58.8892" stroke="#18181B"/>
<path d="M65.8536 46.3691H61.3594V61.1371H65.8536V46.3691Z" stroke="#18181B"/>
<path d="M187.596 46.3691H183.102V61.1371H187.596V46.3691Z" stroke="#18181B"/>
<path d="M183.192 68.3794H65.7578V90.4844H183.192V68.3794Z" stroke="#18181B"/>
<path d="M73.871 82.3672C75.4911 82.3672 76.8045 81.0532 76.8045 79.4324C76.8045 77.8115 75.4911 76.4976 73.871 76.4976C72.2509 76.4976 70.9375 77.8115 70.9375 79.4324C70.9375 81.0532 72.2509 82.3672 73.871 82.3672Z" fill="#FF7500"/>
<path d="M82.6757 82.3672C84.2958 82.3672 85.6092 81.0532 85.6092 79.4324C85.6092 77.8115 84.2958 76.4976 82.6757 76.4976C81.0556 76.4976 79.7422 77.8115 79.7422 79.4324C79.7422 81.0532 81.0556 82.3672 82.6757 82.3672Z" fill="#18181B"/>
<path d="M91.4726 82.3672C93.0927 82.3672 94.4061 81.0532 94.4061 79.4324C94.4061 77.8115 93.0927 76.4976 91.4726 76.4976C89.8524 76.4976 88.5391 77.8115 88.5391 79.4324C88.5391 81.0532 89.8524 82.3672 91.4726 82.3672Z" fill="#FF7500"/>
<path d="M100.277 82.3672C101.897 82.3672 103.211 81.0532 103.211 79.4324C103.211 77.8115 101.897 76.4976 100.277 76.4976C98.6571 76.4976 97.3438 77.8115 97.3438 79.4324C97.3438 81.0532 98.6571 82.3672 100.277 82.3672Z" fill="#18181B"/>
<path d="M109.074 82.3672C110.694 82.3672 112.008 81.0532 112.008 79.4324C112.008 77.8115 110.694 76.4976 109.074 76.4976C107.454 76.4976 106.141 77.8115 106.141 79.4324C106.141 81.0532 107.454 82.3672 109.074 82.3672Z" fill="#FF7500"/>
<path d="M153.078 77.2778H167.744" stroke="#18181B"/>
<path d="M153.078 81.6802H167.744" stroke="#18181B"/>
<path d="M175.766 73.5625V85.3016" stroke="#18181B"/>
<path d="M65.8536 72.7817H61.3594V87.5497H65.8536V72.7817Z" stroke="#18181B"/>
<path d="M187.596 72.7817H183.102V87.5497H187.596V72.7817Z" stroke="#18181B"/>
<path d="M183.192 187.24H65.7578V209.345H183.192V187.24Z" stroke="#18181B"/>
<path d="M73.871 201.227C75.4911 201.227 76.8045 199.913 76.8045 198.292C76.8045 196.671 75.4911 195.357 73.871 195.357C72.2509 195.357 70.9375 196.671 70.9375 198.292C70.9375 199.913 72.2509 201.227 73.871 201.227Z" fill="#FF7500"/>
<path d="M82.6757 201.227C84.2958 201.227 85.6092 199.913 85.6092 198.292C85.6092 196.671 84.2958 195.357 82.6757 195.357C81.0556 195.357 79.7422 196.671 79.7422 198.292C79.7422 199.913 81.0556 201.227 82.6757 201.227Z" fill="#18181B"/>
<path d="M91.4726 201.227C93.0927 201.227 94.4061 199.913 94.4061 198.292C94.4061 196.671 93.0927 195.357 91.4726 195.357C89.8524 195.357 88.5391 196.671 88.5391 198.292C88.5391 199.913 89.8524 201.227 91.4726 201.227Z" fill="#FF7500"/>
<path d="M100.277 201.227C101.897 201.227 103.211 199.913 103.211 198.292C103.211 196.671 101.897 195.357 100.277 195.357C98.6571 195.357 97.3438 196.671 97.3438 198.292C97.3438 199.913 98.6571 201.227 100.277 201.227Z" fill="#18181B"/>
<path d="M109.074 201.227C110.694 201.227 112.008 199.913 112.008 198.292C112.008 196.671 110.694 195.357 109.074 195.357C107.454 195.357 106.141 196.671 106.141 198.292C106.141 199.913 107.454 201.227 109.074 201.227Z" fill="#FF7500"/>
<path d="M153.078 196.139H167.744" stroke="#18181B"/>
<path d="M153.078 200.541H167.744" stroke="#18181B"/>
<path d="M175.766 192.422V204.162" stroke="#18181B"/>
<path d="M65.8536 191.643H61.3594V206.411H65.8536V191.643Z" stroke="#18181B"/>
<path d="M187.596 191.643H183.102V206.411H187.596V191.643Z" stroke="#18181B"/>
<path d="M183.192 213.65H65.7578V235.755H183.192V213.65Z" stroke="#18181B"/>
<path d="M73.871 227.638C75.4911 227.638 76.8045 226.324 76.8045 224.703C76.8045 223.082 75.4911 221.768 73.871 221.768C72.2509 221.768 70.9375 223.082 70.9375 224.703C70.9375 226.324 72.2509 227.638 73.871 227.638Z" fill="#18181B"/>
<path d="M82.6757 227.638C84.2958 227.638 85.6092 226.324 85.6092 224.703C85.6092 223.082 84.2958 221.768 82.6757 221.768C81.0556 221.768 79.7422 223.082 79.7422 224.703C79.7422 226.324 81.0556 227.638 82.6757 227.638Z" fill="#FF7500"/>
<path d="M91.4726 227.638C93.0927 227.638 94.4061 226.324 94.4061 224.703C94.4061 223.082 93.0927 221.768 91.4726 221.768C89.8524 221.768 88.5391 223.082 88.5391 224.703C88.5391 226.324 89.8524 227.638 91.4726 227.638Z" fill="#18181B"/>
<path d="M100.277 227.638C101.897 227.638 103.211 226.324 103.211 224.703C103.211 223.082 101.897 221.768 100.277 221.768C98.6571 221.768 97.3438 223.082 97.3438 224.703C97.3438 226.324 98.6571 227.638 100.277 227.638Z" fill="#FF7500"/>
<path d="M109.074 227.638C110.694 227.638 112.008 226.324 112.008 224.703C112.008 223.082 110.694 221.768 109.074 221.768C107.454 221.768 106.141 223.082 106.141 224.703C106.141 226.324 107.454 227.638 109.074 227.638Z" fill="#18181B"/>
<path d="M153.078 222.548H167.744" stroke="#18181B"/>
<path d="M153.078 226.951H167.744" stroke="#18181B"/>
<path d="M175.766 218.833V230.571" stroke="#18181B"/>
<path d="M65.8536 218.052H61.3594V232.82H65.8536V218.052Z" stroke="#18181B"/>
<path d="M187.596 218.052H183.102V232.82H187.596V218.052Z" stroke="#18181B"/>
<path d="M183.192 240.065H65.7578V262.17H183.192V240.065Z" stroke="#18181B"/>
<path d="M73.871 254.052C75.4911 254.052 76.8045 252.738 76.8045 251.117C76.8045 249.497 75.4911 248.183 73.871 248.183C72.2509 248.183 70.9375 249.497 70.9375 251.117C70.9375 252.738 72.2509 254.052 73.871 254.052Z" fill="#FF7500"/>
<path d="M82.6757 254.052C84.2958 254.052 85.6092 252.738 85.6092 251.117C85.6092 249.497 84.2958 248.183 82.6757 248.183C81.0556 248.183 79.7422 249.497 79.7422 251.117C79.7422 252.738 81.0556 254.052 82.6757 254.052Z" fill="#18181B"/>
<path d="M91.4726 254.052C93.0927 254.052 94.4061 252.738 94.4061 251.117C94.4061 249.497 93.0927 248.183 91.4726 248.183C89.8524 248.183 88.5391 249.497 88.5391 251.117C88.5391 252.738 89.8524 254.052 91.4726 254.052Z" fill="#FF7500"/>
<path d="M100.277 254.052C101.897 254.052 103.211 252.738 103.211 251.117C103.211 249.497 101.897 248.183 100.277 248.183C98.6571 248.183 97.3438 249.497 97.3438 251.117C97.3438 252.738 98.6571 254.052 100.277 254.052Z" fill="#18181B"/>
<path d="M109.074 254.052C110.694 254.052 112.008 252.738 112.008 251.117C112.008 249.497 110.694 248.183 109.074 248.183C107.454 248.183 106.141 249.497 106.141 251.117C106.141 252.738 107.454 254.052 109.074 254.052Z" fill="#FF7500"/>
<path d="M153.078 248.963H167.744" stroke="#18181B"/>
<path d="M153.078 253.366H167.744" stroke="#18181B"/>
<path d="M175.766 245.248V256.987" stroke="#18181B"/>
<path d="M65.8536 244.468H61.3594V259.236H65.8536V244.468Z" stroke="#18181B"/>
<path d="M187.596 244.468H183.102V259.236H187.596V244.468Z" stroke="#18181B"/>
<path d="M73.8728 141.061H66.5391V148.398H73.8728V141.061Z" fill="#18181B"/>
<path d="M85.6072 141.061H78.2734V148.398H85.6072V141.061Z" fill="#FF7500"/>
<path d="M97.3416 141.061H90.0078V148.398H97.3416V141.061Z" fill="#FF7500"/>
<path d="M109.076 141.061H101.742V148.398H109.076V141.061Z" fill="#FF7500"/>
<path d="M120.81 141.061H113.477V148.398H120.81V141.061Z" fill="#FF7500"/>
<path d="M132.545 141.061H125.211V148.398H132.545V141.061Z" fill="#FF7500"/>
<path d="M144.279 141.061H136.945V148.398H144.279V141.061Z" fill="#FF7500"/>
<path d="M156.013 141.061H148.68V148.398H156.013V141.061Z" fill="#FF7500"/>
<path d="M167.748 141.061H160.414V148.398H167.748V141.061Z" fill="#FF7500"/>
<path d="M179.482 141.061H172.148V148.398H179.482V141.061Z" fill="#18181B"/>
<path d="M82.6719 146.198C85.8506 150.599 94.2599 156.763 102.473 146.198" stroke="#FF7500" stroke-linejoin="round"/>
<path d="M94.4062 146.198C97.5841 150.599 105.993 156.763 114.206 146.198" stroke="#FF7500" stroke-linejoin="round"/>
<path d="M106.141 146.198C109.318 150.599 117.728 156.763 125.941 146.198" stroke="#FF7500" stroke-linejoin="round"/>
<path d="M131.078 146.198C134.256 150.599 142.665 156.763 150.878 146.198" stroke="#FF7500" stroke-linejoin="round"/>
<path d="M142.812 146.198C145.99 150.599 154.4 156.763 162.614 146.198" stroke="#FF7500" stroke-linejoin="round"/>
<path d="M73.8728 157.204H66.5391V164.541H73.8728V157.204Z" fill="#18181B"/>
<path d="M85.6072 157.204H78.2734V164.541H85.6072V157.204Z" fill="#FF7500"/>
<path d="M97.3416 157.204H90.0078V164.541H97.3416V157.204Z" fill="#FF7500"/>
<path d="M109.076 157.204H101.742V164.541H109.076V157.204Z" fill="#FF7500"/>
<path d="M120.81 157.204H113.477V164.541H120.81V157.204Z" fill="#FF7500"/>
<path d="M132.545 157.204H125.211V164.541H132.545V157.204Z" fill="#FF7500"/>
<path d="M144.279 157.204H136.945V164.541H144.279V157.204Z" fill="#FF7500"/>
<path d="M156.013 157.204H148.68V164.541H156.013V157.204Z" fill="#FF7500"/>
<path d="M167.748 157.204H160.414V164.541H167.748V157.204Z" fill="#FF7500"/>
<path d="M179.482 157.204H172.148V164.541H179.482V157.204Z" fill="#18181B"/>
<path d="M82.6719 162.338C85.8499 166.741 94.2592 172.903 102.474 162.338" stroke="#FF7500" stroke-linejoin="round"/>
<path d="M94.4062 162.338C97.5841 166.741 105.993 172.903 114.206 162.338" stroke="#FF7500" stroke-linejoin="round"/>
<path d="M106.141 162.338C109.318 166.741 117.728 172.903 125.941 162.338" stroke="#FF7500" stroke-linejoin="round"/>
<path d="M131.078 162.338C134.256 166.741 142.665 172.903 150.88 162.338" stroke="#FF7500" stroke-linejoin="round"/>
<path d="M142.812 162.338C145.99 166.741 154.4 172.903 162.614 162.338" stroke="#FF7500" stroke-linejoin="round"/>
<path d="M127.457 279.683H46.6914V300.32H127.457V279.683Z" stroke="#18181B"/>
<path d="M64.3367 295.137C67.172 295.137 69.4704 292.837 69.4704 290.001C69.4704 287.164 67.172 284.865 64.3367 284.865C61.5015 284.865 59.2031 287.164 59.2031 290.001C59.2031 292.837 61.5015 295.137 64.3367 295.137Z" fill="#18181B"/>
<path d="M73.875 290.049H117.877" stroke="#18181B"/>
<path d="M127.457 311.966H46.6914V332.603H127.457V311.966Z" stroke="#18181B"/>
<path d="M64.3367 327.421C67.172 327.421 69.4704 325.121 69.4704 322.285C69.4704 319.448 67.172 317.149 64.3367 317.149C61.5015 317.149 59.2031 319.448 59.2031 322.285C59.2031 325.121 61.5015 327.421 64.3367 327.421Z" fill="#FF7500"/>
<path d="M73.875 322.332H117.877" stroke="#18181B"/>
<path d="M202.261 178.434H43.7578V268.039H202.261V178.434Z" stroke="#18181B"/>
<path d="M202.261 37.5625H43.7578V93.4176H202.261V37.5625Z" stroke="#18181B"/>
<path d="M479.617 112.345H476.872C471.944 112.345 467.949 116.341 467.949 121.271V135.005C467.949 139.935 471.944 143.931 476.872 143.931H479.617C484.545 143.931 488.54 139.935 488.54 135.005V121.271C488.54 116.341 484.545 112.345 479.617 112.345Z" fill="white" stroke="#18181B"/>
<path d="M194.927 102.131H49.625V125.703H194.927V102.131Z" stroke="#18181B"/>
<path d="M84.9234 108H62.8281V121.3H84.9234V108Z" stroke="#18181B"/>
<path d="M90.6953 108.781V120.521" stroke="#18181B"/>
<path d="M99.4922 108.781V120.521" stroke="#18181B"/>
<path d="M108.297 108.781V120.521" stroke="#18181B"/>
<path d="M117.094 108.781V120.521" stroke="#18181B"/>
<path d="M134.695 105.846V121.987" stroke="#18181B"/>
<path d="M142.031 105.846V121.987" stroke="#18181B"/>
<path d="M149.363 105.846V121.987" stroke="#18181B"/>
<path d="M156.695 105.846V121.987" stroke="#18181B"/>
<path d="M164.031 105.846V121.987" stroke="#18181B"/>
<path d="M171.367 105.846V121.987" stroke="#18181B"/>
<path d="M178.699 105.846V121.987" stroke="#18181B"/>
<path d="M186.031 105.846V121.987" stroke="#18181B"/>
<path d="M66.5391 112.496H81.2067" stroke="#18181B"/>
<path d="M66.5391 116.899H81.2067" stroke="#18181B"/>
<path d="M325.87 6.59814H270.961C268.307 6.59814 266.156 8.75016 266.156 11.4048V19.6448C266.156 22.2995 268.307 24.4515 270.961 24.4515H325.87C328.523 24.4515 330.674 22.2995 330.674 19.6448V11.4048C330.674 8.75016 328.523 6.59814 325.87 6.59814Z" fill="white" stroke="#18181B"/>
<path d="M272.819 17.4133L274.775 15.1473L271.789 14.4263L272.304 12.7783L275.187 13.8083L274.981 10.7183H276.834L276.628 13.8083L279.511 12.7783L280.025 14.4263L277.04 15.1473L278.996 17.4133L277.657 18.5463L275.907 15.9713L274.157 18.5463L272.819 17.4133ZM283.741 17.4133L285.698 15.1473L282.712 14.4263L283.227 12.7783L286.109 13.8083L285.903 10.7183H287.757L287.551 13.8083L290.433 12.7783L290.948 14.4263L287.963 15.1473L289.919 17.4133L288.58 18.5463L286.83 15.9713L285.08 18.5463L283.741 17.4133ZM294.664 17.4133L296.62 15.1473L293.635 14.4263L294.149 12.7783L297.032 13.8083L296.826 10.7183H298.679L298.474 13.8083L301.356 12.7783L301.871 14.4263L298.885 15.1473L300.841 17.4133L299.503 18.5463L297.753 15.9713L296.003 18.5463L294.664 17.4133ZM305.587 17.4133L307.543 15.1473L304.557 14.4263L305.072 12.7783L307.955 13.8083L307.749 10.7183H309.602L309.396 13.8083L312.279 12.7783L312.794 14.4263L309.808 15.1473L311.764 17.4133L310.426 18.5463L308.676 15.9713L306.925 18.5463L305.587 17.4133ZM316.51 17.4133L318.466 15.1473L315.48 14.4263L315.995 12.7783L318.878 13.8083L318.672 10.7183H320.525L320.319 13.8083L323.202 12.7783L323.717 14.4263L320.731 15.1473L322.687 17.4133L321.349 18.5463L319.598 15.9713L317.848 18.5463L316.51 17.4133Z" fill="#FF7500"/>
<path d="M470.008 140.498C470.694 133.631 474.126 124.018 477.558 124.018C480.99 124.018 476.871 137.751 476.871 143.931" stroke="#18181B" stroke-linejoin="round"/>
<path d="M468.637 130.506C469.234 124.23 476.408 117.955 480.592 120.465C484.776 122.976 479.995 138.036 481.787 143.245" stroke="#18181B" stroke-linejoin="round"/>
<path d="M467.949 124.018C468.636 117.151 478.931 113.651 483.736 116.397C488.54 119.144 483.049 136.172 485.108 141.871" stroke="#18181B" stroke-linejoin="round"/>
<path d="M433.148 42.8892L446.668 50.7787" stroke="#18181B"/>
<path d="M432.438 45.542L445.957 53.4315" stroke="#18181B"/>
<path d="M431.742 48.2036L443.936 55.7377" stroke="#18181B"/>
<path d="M429.695 50.4937L443.215 58.3832" stroke="#18181B"/>
<path d="M434.342 41.9219L447.969 48.2792L444.024 56.7447C442.902 59.1506 440.044 60.1915 437.639 59.0696L432.721 56.775C430.316 55.6531 429.275 52.7933 430.397 50.3874L434.342 41.9219Z" stroke="#18181B"/>
<path d="M435.328 42.0245C439.094 35.9249 434.558 28.453 438.669 21.5931C443.807 13.0183 451.81 12.3202 457.422 15.2462C463.034 18.1723 466.869 27.7309 462.262 34.3161C458.578 39.5842 451.335 40.6282 446.067 47.0356" stroke="#FF7500" stroke-linejoin="round"/>
<path d="M446.042 28.5465C444.798 33.1895 442.079 39.8062 439.789 43.9318L442.926 45.4837C443.755 42.3885 446.384 37.8797 451.961 32.9766C457.538 28.0735 447.286 23.9034 446.042 28.5465Z" stroke="#FF7500" stroke-linejoin="round"/>
<path d="M447.961 1L449.255 9.99273" stroke="#FF7500" stroke-linecap="round"/>
<path d="M460.766 11.6902L464.793 5.58789" stroke="#FF7500" stroke-linecap="round"/>
<path d="M470.5 19.8855L477.294 16.9077" stroke="#FF7500" stroke-linecap="round"/>
<path d="M358.82 51.2312C359.507 50.5446 361.566 47.1112 361.566 47.1112C361.566 47.1112 360.879 50.5445 362.252 51.2312C363.625 51.9178 373.92 51.2313 375.979 52.6046C378.038 53.978 375.979 58.7846 375.979 58.7846C375.979 58.7846 381.47 54.6646 381.47 61.5313C381.47 68.398 375.979 66.338 375.979 66.338C375.979 66.338 373.234 68.398 373.234 71.8313C373.234 75.2646 375.979 80.0713 375.979 80.0713C383.117 79.522 394.511 85.5646 398.629 88.998L396.57 81.4446L404.12 84.1913C402.977 82.3601 400.414 77.5993 399.316 73.2046C397.943 67.7113 393.138 68.398 391.079 64.9646C389.02 61.5313 392.452 52.6046 389.707 49.858C386.961 47.1113 383.529 47.1113 380.097 45.738C376.666 44.3646 376.666 40.2445 368.429 39.5578C361.84 39.0085 356.075 47.1112 354.016 51.2312C354.016 51.2312 358.134 51.9178 358.82 51.2312Z" fill="#18181B" stroke="#18181B" stroke-linejoin="round"/>
<path d="M375.976 80.0714C370.258 85.3358 358.955 92.2941 359.504 78.0114L360.19 72.5181" stroke="#18181B" stroke-linecap="round"/>
<path d="M358.135 50.5449C355.389 60.8449 353.329 76.6383 368.43 71.8316" stroke="#18181B" stroke-linecap="round"/>
<path d="M367.741 56.7249C368.12 56.7249 368.427 56.4175 368.427 56.0382C368.427 55.659 368.12 55.3516 367.741 55.3516C367.362 55.3516 367.055 55.659 367.055 56.0382C367.055 56.4175 367.362 56.7249 367.741 56.7249Z" fill="#18181B"/>
<path d="M359.507 56.7249C359.886 56.7249 360.193 56.4175 360.193 56.0382C360.193 55.659 359.886 55.3516 359.507 55.3516C359.128 55.3516 358.82 55.659 358.82 56.0382C358.82 56.4175 359.128 56.7249 359.507 56.7249Z" fill="#18181B"/>
<path d="M362.169 59.4717C361.071 61.1197 361.711 61.9894 362.169 62.2183" stroke="#18181B" stroke-linecap="round"/>
<path d="M368.428 64.2783C368.199 65.4227 366.781 67.5743 362.938 67.025" stroke="#18181B" stroke-linecap="round"/>
<path d="M395.883 331.391C395.196 333.451 384.213 342.378 388.331 346.498C392.45 350.618 413.315 334.962 414.413 330.018C415.511 325.074 413.041 322.465 410.296 320.405C410.296 320.405 399.315 337.571 395.883 331.391Z" fill="#FF7500"/>
<path d="M319.695 334.138C314.753 334.687 305.281 340.318 305.281 343.065C305.281 345.811 316.949 346.498 322.44 346.498C327.931 346.498 333.879 343.751 337.54 341.691C337.77 341.691 338.227 333.451 336.854 330.018C336.854 330.018 325.872 338.945 319.695 334.138Z" fill="#FF7500"/>
<path d="M395.196 85.5649C405.492 99.2983 418.258 132.121 414.414 139.812C409.61 149.425 406.731 152.79 384.214 155.605C373.233 156.978 382.842 172.085 348.523 172.085" stroke="#18181B" stroke-linecap="round"/>
<path d="M351.954 97.9248H295.672L304.595 143.245H389.704V139.811L364.308 138.438L351.954 97.9248Z" stroke="#18181B" stroke-linejoin="round"/>
<path d="M351.953 97.9248H356.071L365.68 138.438" stroke="#18181B" stroke-linejoin="round"/>
<path d="M330.03 127.799C333.118 127.213 335.04 123.676 334.324 119.901C333.607 116.125 330.523 113.539 327.435 114.126C324.347 114.712 322.425 118.248 323.141 122.024C323.858 125.8 326.942 128.386 330.03 127.799Z" fill="#18181B"/>
<path d="M359.506 77.3235C355.387 76.179 346.053 74.7142 341.66 78.0102C337.267 81.3062 328.849 92.6591 325.188 97.9235" stroke="#18181B" stroke-linejoin="round"/>
<path d="M364.996 132.944C375.521 130.884 398.079 127.588 404.119 130.884" stroke="#18181B" stroke-linecap="round" stroke-linejoin="round"/>
<path d="M398.629 125.392C395.654 125.621 389.157 126.765 386.961 129.512" stroke="#18181B" stroke-linecap="round" stroke-linejoin="round"/>
<path d="M388.332 108.225C387.189 112.345 385.861 123.057 389.705 127.452" stroke="#18181B" stroke-linecap="round" stroke-linejoin="round"/>
<path d="M344.361 141.571C344.249 138.64 344.075 130.198 345.777 130.198C347.065 130.198 347.547 134.493 347.728 138.047C347.75 134.259 348.027 129.512 349.209 129.512C350.646 129.512 351.193 134.868 351.312 138.801C351.427 134.762 351.842 129.512 353.327 129.512C355.386 129.512 354.7 141.185 354.7 141.185C360.877 145.305 356.073 137.752 358.818 137.752C361.564 137.752 361.564 142.558 361.564 142.558L362.25 148.738C355.473 149.726 340.973 148.414 340.973 142.558C340.973 139.625 341.659 131.572 342.345 131.572C342.959 131.572 344.12 138.334 344.361 141.571Z" fill="white"/>
<path d="M361.564 142.558C361.399 143.054 362.25 148.738 362.25 148.738M361.564 142.558L362.25 148.738M361.564 142.558C361.564 142.558 361.564 137.752 358.818 137.752C356.073 137.752 360.877 145.305 354.7 141.185C354.7 141.185 355.386 129.512 353.327 129.512C351.269 129.512 351.268 139.584 351.268 142.558C351.497 140.498 351.268 129.512 349.209 129.512C347.15 129.512 347.836 143.932 347.836 142.558C347.836 141.185 347.836 130.198 345.777 130.198C343.718 130.198 344.404 142.558 344.404 142.558C344.404 140.038 343.032 131.572 342.345 131.572C341.659 131.572 340.973 139.625 340.973 142.558C340.973 148.414 355.473 149.726 362.25 148.738" stroke="#18181B" stroke-linecap="round" stroke-linejoin="round"/>
<path d="M297.731 97.9261C297.731 97.9261 285.376 81.4461 284.69 79.3861C284.004 77.3261 285.376 66.3394 284.004 64.2794C282.631 62.2194 281.945 72.5194 279.199 73.2061C276.454 73.8928 260.667 61.5328 259.981 63.5928C259.295 65.6528 276.454 75.9528 276.454 75.9528" stroke="#18181B" stroke-linecap="round" stroke-linejoin="round"/>
<path d="M268.905 71.8315C267.531 73.8915 273.71 78.0115 275.082 78.0115C276.454 78.0115 276.454 75.9515 276.454 75.9515" stroke="#18181B" stroke-linecap="round" stroke-linejoin="round"/>
<path d="M268.414 74.5781C267.041 76.6381 273.021 80.0715 274.394 80.0715C275.767 80.0715 275.08 78.0115 275.08 78.0115" stroke="#18181B" stroke-linecap="round" stroke-linejoin="round"/>
<path d="M268.414 77.3247C267.041 79.3847 273.021 82.818 274.394 82.818C275.767 82.818 275.08 80.758 275.08 80.758" stroke="#18181B" stroke-linecap="round" stroke-linejoin="round"/>
<path d="M274.395 82.8184C281.945 88.3117 293.338 106.165 294.985 114.405L297.731 110.972" stroke="#18181B" stroke-linecap="round" stroke-linejoin="round"/>
<path d="M283.32 131.572C284.464 133.402 288.262 137.065 294.302 137.065" stroke="#18181B" stroke-linecap="round" stroke-linejoin="round"/>
<path d="M291.555 132.945C295.902 139.354 307.89 149.837 318.323 143.245" stroke="#18181B" stroke-linecap="round" stroke-linejoin="round"/>
</svg>
