<svg width="498" height="368" viewBox="0 0 498 368" fill="none" xmlns="http://www.w3.org/2000/svg">
<path d="M0.34375 366.479H491.644V367.925H0.34375V366.479Z" fill="#FF7500"/>
<path d="M450.517 357.583V366.763C450.517 367.168 450.185 367.486 449.795 367.486H333.227C332.837 367.486 332.504 367.168 332.504 366.763V357.583C332.504 357.178 332.837 356.86 333.227 356.86H449.795C450.185 356.86 450.517 357.178 450.517 357.583ZM206.957 358.65V367.165C206.957 367.589 206.624 367.922 206.2 367.922H193.722C193.622 367.923 193.523 367.905 193.431 367.867C193.339 367.829 193.255 367.773 193.185 367.703C193.114 367.632 193.058 367.548 193.021 367.456C192.983 367.364 192.964 367.265 192.965 367.165V358.65C192.965 358.226 193.297 357.892 193.722 357.892H206.2C206.623 357.892 206.957 358.226 206.957 358.65Z" fill="#16191C"/>
<path d="M246.481 367.89H206.195C206.003 367.89 205.819 367.814 205.684 367.679C205.548 367.543 205.472 367.359 205.472 367.168V358.645C205.472 358.453 205.548 358.27 205.684 358.134C205.819 357.998 206.003 357.922 206.195 357.922H246.481C246.673 357.922 246.856 357.998 246.992 358.134C247.127 358.27 247.204 358.453 247.204 358.645V367.168C247.204 367.359 247.127 367.543 246.992 367.679C246.856 367.814 246.673 367.89 246.481 367.89ZM206.917 366.445H245.759V359.368H206.917V366.445ZM186.259 367.89H74.2342C74.0426 367.89 73.8588 367.814 73.7233 367.679C73.5878 367.543 73.5117 367.359 73.5117 367.168V359.471C73.5125 358.82 73.7712 358.196 74.2312 357.736C74.6912 357.275 75.3148 357.017 75.9653 357.016H184.528C185.179 357.017 185.802 357.275 186.262 357.736C186.722 358.196 186.981 358.82 186.982 359.471V367.168C186.982 367.359 186.906 367.543 186.77 367.679C186.635 367.814 186.451 367.89 186.259 367.89ZM74.9567 366.445H185.537V359.471C185.536 359.203 185.43 358.947 185.241 358.758C185.052 358.569 184.795 358.462 184.528 358.461H75.9653C75.6981 358.462 75.442 358.569 75.253 358.758C75.064 358.947 74.9575 359.203 74.9567 359.471V366.445ZM415.85 25.3574C425.771 29.002 433.25 37.6937 435.369 48.0363C435.416 48.2146 435.53 48.368 435.687 48.4651C435.844 48.5623 436.032 48.5958 436.213 48.5589C436.393 48.522 436.553 48.4174 436.66 48.2665C436.766 48.1157 436.811 47.9299 436.785 47.7471C434.567 36.9159 426.736 27.8165 416.348 23.9984C416.168 23.9338 415.97 23.9426 415.796 24.0229C415.623 24.1032 415.488 24.2487 415.42 24.4278C415.355 24.608 415.363 24.807 415.443 24.9812C415.524 25.1554 415.67 25.2907 415.85 25.3574ZM281.941 81.0347C272.069 91.6694 269.886 106.873 275.648 119.517C275.73 119.687 275.876 119.818 276.053 119.882C276.231 119.947 276.427 119.939 276.598 119.861C276.77 119.782 276.905 119.64 276.973 119.464C277.041 119.288 277.038 119.092 276.963 118.918C271.429 106.771 273.549 92.2014 282.999 82.0164C283.068 81.9478 283.123 81.8659 283.16 81.7757C283.197 81.6854 283.215 81.5886 283.213 81.4911C283.212 81.3937 283.191 81.2975 283.151 81.2084C283.111 81.1194 283.054 81.0393 282.983 80.9729C282.911 80.9065 282.827 80.8553 282.736 80.8223C282.644 80.7893 282.546 80.7752 282.449 80.7809C282.352 80.7865 282.257 80.8118 282.169 80.8551C282.082 80.8985 282.005 80.9606 281.941 81.0347Z" fill="#16191C"/>
<path d="M350.524 306.404C353.916 306.404 356.665 303.653 356.665 300.26C356.665 296.867 353.916 294.116 350.524 294.116C347.132 294.116 344.383 296.867 344.383 300.26C344.383 303.653 347.132 306.404 350.524 306.404Z" fill="#FF7500"/>
<path d="M350.524 265.129C353.916 265.129 356.665 262.378 356.665 258.985C356.665 255.591 353.916 252.84 350.524 252.84C347.132 252.84 344.383 255.591 344.383 258.985C344.383 262.378 347.132 265.129 350.524 265.129Z" fill="#16191C"/>
<path d="M330.54 347.68C333.931 347.68 336.681 344.929 336.681 341.535C336.681 338.142 333.931 335.391 330.54 335.391C327.148 335.391 324.398 338.142 324.398 341.535C324.398 344.929 327.148 347.68 330.54 347.68Z" fill="#FF7500"/>
<path d="M330.54 306.404C333.931 306.404 336.681 303.653 336.681 300.26C336.681 296.867 333.931 294.116 330.54 294.116C327.148 294.116 324.398 296.867 324.398 300.26C324.398 303.653 327.148 306.404 330.54 306.404Z" fill="#16191C"/>
<path d="M330.54 265.129C333.931 265.129 336.681 262.378 336.681 258.985C336.681 255.591 333.931 252.84 330.54 252.84C327.148 252.84 324.398 255.591 324.398 258.985C324.398 262.378 327.148 265.129 330.54 265.129Z" fill="#FF7500"/>
<path d="M350.524 347.68C353.916 347.68 356.665 344.929 356.665 341.535C356.665 338.142 353.916 335.391 350.524 335.391C347.132 335.391 344.383 338.142 344.383 341.535C344.383 344.929 347.132 347.68 350.524 347.68Z" fill="#16191C"/>
<path d="M369.758 268.629H457.18C457.585 268.629 457.903 268.297 457.903 267.906V250.066C457.903 249.661 457.585 249.343 457.18 249.343H369.758C369.368 249.343 369.035 249.661 369.035 250.066V267.906C369.035 268.297 369.368 268.629 369.758 268.629ZM449.549 255.889C449.549 255.698 449.625 255.514 449.761 255.378C449.896 255.243 450.08 255.167 450.272 255.167C450.463 255.167 450.647 255.243 450.783 255.378C450.918 255.514 450.994 255.698 450.994 255.889V262.083C450.994 262.275 450.918 262.458 450.783 262.594C450.647 262.73 450.463 262.806 450.272 262.806C450.08 262.806 449.896 262.73 449.761 262.594C449.625 262.458 449.549 262.275 449.549 262.083V255.889ZM442.188 255.889C442.188 255.698 442.264 255.514 442.4 255.378C442.535 255.243 442.719 255.167 442.911 255.167C443.102 255.167 443.286 255.243 443.422 255.378C443.557 255.514 443.633 255.698 443.633 255.889V262.083C443.633 262.275 443.557 262.458 443.422 262.594C443.286 262.73 443.102 262.806 442.911 262.806C442.719 262.806 442.535 262.73 442.4 262.594C442.264 262.458 442.188 262.275 442.188 262.083V255.889ZM434.829 255.889C434.829 255.698 434.905 255.514 435.041 255.378C435.176 255.243 435.36 255.167 435.551 255.167C435.743 255.167 435.927 255.243 436.062 255.378C436.198 255.514 436.274 255.698 436.274 255.889V262.083C436.274 262.275 436.198 262.458 436.062 262.594C435.927 262.73 435.743 262.806 435.551 262.806C435.36 262.806 435.176 262.73 435.041 262.594C434.905 262.458 434.829 262.275 434.829 262.083V255.889ZM427.468 255.889C427.468 255.698 427.544 255.514 427.68 255.378C427.815 255.243 427.999 255.167 428.191 255.167C428.382 255.167 428.566 255.243 428.701 255.378C428.837 255.514 428.913 255.698 428.913 255.889V262.083C428.913 262.275 428.837 262.458 428.701 262.594C428.566 262.73 428.382 262.806 428.191 262.806C427.999 262.806 427.815 262.73 427.68 262.594C427.544 262.458 427.468 262.275 427.468 262.083V255.889ZM420.106 255.889C420.106 255.698 420.182 255.514 420.317 255.378C420.453 255.243 420.637 255.167 420.828 255.167C421.02 255.167 421.204 255.243 421.339 255.378C421.475 255.514 421.551 255.698 421.551 255.889V262.083C421.551 262.275 421.475 262.458 421.339 262.594C421.204 262.73 421.02 262.806 420.828 262.806C420.637 262.806 420.453 262.73 420.317 262.594C420.182 262.458 420.106 262.275 420.106 262.083V255.889ZM412.745 255.889C412.745 255.698 412.821 255.514 412.957 255.378C413.092 255.243 413.276 255.167 413.467 255.167C413.659 255.167 413.843 255.243 413.978 255.378C414.114 255.514 414.19 255.698 414.19 255.889V262.083C414.19 262.275 414.114 262.458 413.978 262.594C413.843 262.73 413.659 262.806 413.467 262.806C413.276 262.806 413.092 262.73 412.957 262.594C412.821 262.458 412.745 262.275 412.745 262.083V255.889ZM405.386 255.889C405.386 255.698 405.462 255.514 405.597 255.378C405.733 255.243 405.916 255.167 406.108 255.167C406.3 255.167 406.483 255.243 406.619 255.378C406.754 255.514 406.831 255.698 406.831 255.889V262.083C406.831 262.275 406.754 262.458 406.619 262.594C406.483 262.73 406.3 262.806 406.108 262.806C405.916 262.806 405.733 262.73 405.597 262.594C405.462 262.458 405.386 262.275 405.386 262.083V255.889ZM398.025 255.889C398.025 255.698 398.101 255.514 398.236 255.378C398.372 255.243 398.556 255.167 398.747 255.167C398.939 255.167 399.123 255.243 399.258 255.378C399.394 255.514 399.47 255.698 399.47 255.889V262.083C399.47 262.275 399.394 262.458 399.258 262.594C399.123 262.73 398.939 262.806 398.747 262.806C398.556 262.806 398.372 262.73 398.236 262.594C398.101 262.458 398.025 262.275 398.025 262.083V255.889ZM390.664 255.889C390.664 255.698 390.74 255.514 390.876 255.378C391.011 255.243 391.195 255.167 391.386 255.167C391.578 255.167 391.762 255.243 391.897 255.378C392.033 255.514 392.109 255.698 392.109 255.889V262.083C392.109 262.275 392.033 262.458 391.897 262.594C391.762 262.73 391.578 262.806 391.386 262.806C391.195 262.806 391.011 262.73 390.876 262.594C390.74 262.458 390.664 262.275 390.664 262.083V255.889ZM383.303 255.889C383.303 255.698 383.379 255.514 383.515 255.378C383.65 255.243 383.834 255.167 384.026 255.167C384.217 255.167 384.401 255.243 384.536 255.378C384.672 255.514 384.748 255.698 384.748 255.889V262.083C384.748 262.275 384.672 262.458 384.536 262.594C384.401 262.73 384.217 262.806 384.026 262.806C383.834 262.806 383.65 262.73 383.515 262.594C383.379 262.458 383.303 262.275 383.303 262.083V255.889ZM375.944 255.889C375.944 255.698 376.02 255.514 376.155 255.378C376.291 255.243 376.475 255.167 376.666 255.167C376.858 255.167 377.042 255.243 377.177 255.378C377.313 255.514 377.389 255.698 377.389 255.889V262.083C377.389 262.275 377.313 262.458 377.177 262.594C377.042 262.73 376.858 262.806 376.666 262.806C376.475 262.806 376.291 262.73 376.155 262.594C376.02 262.458 375.944 262.275 375.944 262.083V255.889ZM369.758 309.904H457.18C457.585 309.904 457.903 309.572 457.903 309.181V291.341C457.903 290.936 457.585 290.618 457.18 290.618H369.758C369.368 290.618 369.035 290.936 369.035 291.341V309.181C369.035 309.572 369.368 309.904 369.758 309.904ZM449.549 297.166C449.549 296.974 449.625 296.79 449.761 296.655C449.896 296.519 450.08 296.443 450.272 296.443C450.463 296.443 450.647 296.519 450.783 296.655C450.918 296.79 450.994 296.974 450.994 297.166V303.358C450.994 303.55 450.918 303.734 450.783 303.869C450.647 304.005 450.463 304.081 450.272 304.081C450.08 304.081 449.896 304.005 449.761 303.869C449.625 303.734 449.549 303.55 449.549 303.358V297.166ZM442.188 297.166C442.188 296.974 442.264 296.79 442.4 296.655C442.535 296.519 442.719 296.443 442.911 296.443C443.102 296.443 443.286 296.519 443.422 296.655C443.557 296.79 443.633 296.974 443.633 297.166V303.358C443.633 303.55 443.557 303.734 443.422 303.869C443.286 304.005 443.102 304.081 442.911 304.081C442.719 304.081 442.535 304.005 442.4 303.869C442.264 303.734 442.188 303.55 442.188 303.358V297.166ZM434.829 297.166C434.829 296.974 434.905 296.79 435.041 296.655C435.176 296.519 435.36 296.443 435.551 296.443C435.743 296.443 435.927 296.519 436.062 296.655C436.198 296.79 436.274 296.974 436.274 297.166V303.358C436.274 303.55 436.198 303.734 436.062 303.869C435.927 304.005 435.743 304.081 435.551 304.081C435.36 304.081 435.176 304.005 435.041 303.869C434.905 303.734 434.829 303.55 434.829 303.358V297.166ZM427.468 297.166C427.468 296.974 427.544 296.79 427.68 296.655C427.815 296.519 427.999 296.443 428.191 296.443C428.382 296.443 428.566 296.519 428.701 296.655C428.837 296.79 428.913 296.974 428.913 297.166V303.358C428.913 303.55 428.837 303.734 428.701 303.869C428.566 304.005 428.382 304.081 428.191 304.081C427.999 304.081 427.815 304.005 427.68 303.869C427.544 303.734 427.468 303.55 427.468 303.358V297.166ZM420.106 297.166C420.106 296.974 420.182 296.79 420.317 296.655C420.453 296.519 420.637 296.443 420.828 296.443C421.02 296.443 421.204 296.519 421.339 296.655C421.475 296.79 421.551 296.974 421.551 297.166V303.358C421.551 303.55 421.475 303.734 421.339 303.869C421.204 304.005 421.02 304.081 420.828 304.081C420.637 304.081 420.453 304.005 420.317 303.869C420.182 303.734 420.106 303.55 420.106 303.358V297.166ZM412.745 297.166C412.745 296.974 412.821 296.79 412.957 296.655C413.092 296.519 413.276 296.443 413.467 296.443C413.659 296.443 413.843 296.519 413.978 296.655C414.114 296.79 414.19 296.974 414.19 297.166V303.358C414.19 303.55 414.114 303.734 413.978 303.869C413.843 304.005 413.659 304.081 413.467 304.081C413.276 304.081 413.092 304.005 412.957 303.869C412.821 303.734 412.745 303.55 412.745 303.358V297.166ZM405.386 297.166C405.386 296.974 405.462 296.79 405.597 296.655C405.733 296.519 405.916 296.443 406.108 296.443C406.3 296.443 406.483 296.519 406.619 296.655C406.754 296.79 406.831 296.974 406.831 297.166V303.358C406.831 303.55 406.754 303.734 406.619 303.869C406.483 304.005 406.3 304.081 406.108 304.081C405.916 304.081 405.733 304.005 405.597 303.869C405.462 303.734 405.386 303.55 405.386 303.358V297.166ZM398.025 297.166C398.025 296.974 398.101 296.79 398.236 296.655C398.372 296.519 398.556 296.443 398.747 296.443C398.939 296.443 399.123 296.519 399.258 296.655C399.394 296.79 399.47 296.974 399.47 297.166V303.358C399.47 303.55 399.394 303.734 399.258 303.869C399.123 304.005 398.939 304.081 398.747 304.081C398.556 304.081 398.372 304.005 398.236 303.869C398.101 303.734 398.025 303.55 398.025 303.358V297.166ZM390.664 297.166C390.664 296.974 390.74 296.79 390.876 296.655C391.011 296.519 391.195 296.443 391.386 296.443C391.578 296.443 391.762 296.519 391.897 296.655C392.033 296.79 392.109 296.974 392.109 297.166V303.358C392.109 303.55 392.033 303.734 391.897 303.869C391.762 304.005 391.578 304.081 391.386 304.081C391.195 304.081 391.011 304.005 390.876 303.869C390.74 303.734 390.664 303.55 390.664 303.358V297.166ZM383.303 297.166C383.303 296.974 383.379 296.79 383.515 296.655C383.65 296.519 383.834 296.443 384.026 296.443C384.217 296.443 384.401 296.519 384.536 296.655C384.672 296.79 384.748 296.974 384.748 297.166V303.358C384.748 303.55 384.672 303.734 384.536 303.869C384.401 304.005 384.217 304.081 384.026 304.081C383.834 304.081 383.65 304.005 383.515 303.869C383.379 303.734 383.303 303.55 383.303 303.358V297.166ZM375.944 297.166C375.944 296.974 376.02 296.79 376.155 296.655C376.291 296.519 376.475 296.443 376.666 296.443C376.858 296.443 377.042 296.519 377.177 296.655C377.313 296.79 377.389 296.974 377.389 297.166V303.358C377.389 303.55 377.313 303.734 377.177 303.869C377.042 304.005 376.858 304.081 376.666 304.081C376.475 304.081 376.291 304.005 376.155 303.869C376.02 303.734 375.944 303.55 375.944 303.358V297.166ZM457.18 331.895H369.758C369.368 331.895 369.035 332.213 369.035 332.618V350.458C369.035 350.848 369.368 351.181 369.758 351.181H457.18C457.585 351.181 457.903 350.848 457.903 350.458V332.618C457.903 332.213 457.585 331.895 457.18 331.895ZM377.387 344.635C377.387 344.826 377.311 345.01 377.176 345.146C377.04 345.281 376.856 345.357 376.665 345.357C376.473 345.357 376.289 345.281 376.154 345.146C376.018 345.01 375.942 344.826 375.942 344.635V338.441C375.942 338.249 376.018 338.066 376.154 337.93C376.289 337.794 376.473 337.718 376.665 337.718C376.856 337.718 377.04 337.794 377.176 337.93C377.311 338.066 377.387 338.249 377.387 338.441V344.635ZM384.748 344.635C384.748 344.826 384.672 345.01 384.536 345.146C384.401 345.281 384.217 345.357 384.026 345.357C383.834 345.357 383.65 345.281 383.515 345.146C383.379 345.01 383.303 344.826 383.303 344.635V338.441C383.303 338.249 383.379 338.066 383.515 337.93C383.65 337.794 383.834 337.718 384.026 337.718C384.217 337.718 384.401 337.794 384.536 337.93C384.672 338.066 384.748 338.249 384.748 338.441V344.635ZM392.109 344.635C392.109 344.826 392.033 345.01 391.897 345.146C391.762 345.281 391.578 345.357 391.386 345.357C391.195 345.357 391.011 345.281 390.876 345.146C390.74 345.01 390.664 344.826 390.664 344.635V338.441C390.664 338.249 390.74 338.066 390.876 337.93C391.011 337.794 391.195 337.718 391.386 337.718C391.578 337.718 391.762 337.794 391.897 337.93C392.033 338.066 392.109 338.249 392.109 338.441V344.635ZM399.47 344.635C399.47 344.826 399.394 345.01 399.258 345.146C399.123 345.281 398.939 345.357 398.747 345.357C398.556 345.357 398.372 345.281 398.236 345.146C398.101 345.01 398.025 344.826 398.025 344.635V338.441C398.025 338.249 398.101 338.066 398.236 337.93C398.372 337.794 398.556 337.718 398.747 337.718C398.939 337.718 399.123 337.794 399.258 337.93C399.394 338.066 399.47 338.249 399.47 338.441V344.635ZM406.831 344.635C406.831 344.826 406.754 345.01 406.619 345.146C406.483 345.281 406.3 345.357 406.108 345.357C405.916 345.357 405.733 345.281 405.597 345.146C405.462 345.01 405.386 344.826 405.386 344.635V338.441C405.386 338.249 405.462 338.066 405.597 337.93C405.733 337.794 405.916 337.718 406.108 337.718C406.3 337.718 406.483 337.794 406.619 337.93C406.754 338.066 406.831 338.249 406.831 338.441V344.635ZM414.19 344.635C414.19 344.826 414.114 345.01 413.978 345.146C413.843 345.281 413.659 345.357 413.467 345.357C413.276 345.357 413.092 345.281 412.957 345.146C412.821 345.01 412.745 344.826 412.745 344.635V338.441C412.745 338.249 412.821 338.066 412.957 337.93C413.092 337.794 413.276 337.718 413.467 337.718C413.659 337.718 413.843 337.794 413.978 337.93C414.114 338.066 414.19 338.249 414.19 338.441V344.635ZM421.551 344.635C421.551 344.826 421.475 345.01 421.339 345.146C421.204 345.281 421.02 345.357 420.828 345.357C420.637 345.357 420.453 345.281 420.317 345.146C420.182 345.01 420.106 344.826 420.106 344.635V338.441C420.106 338.249 420.182 338.066 420.317 337.93C420.453 337.794 420.637 337.718 420.828 337.718C421.02 337.718 421.204 337.794 421.339 337.93C421.475 338.066 421.551 338.249 421.551 338.441V344.635ZM428.913 344.635C428.913 344.826 428.837 345.01 428.701 345.146C428.566 345.281 428.382 345.357 428.191 345.357C427.999 345.357 427.815 345.281 427.68 345.146C427.544 345.01 427.468 344.826 427.468 344.635V338.441C427.468 338.249 427.544 338.066 427.68 337.93C427.815 337.794 427.999 337.718 428.191 337.718C428.382 337.718 428.566 337.794 428.701 337.93C428.837 338.066 428.913 338.249 428.913 338.441V344.635ZM436.274 344.635C436.274 344.826 436.198 345.01 436.062 345.146C435.927 345.281 435.743 345.357 435.551 345.357C435.36 345.357 435.176 345.281 435.041 345.146C434.905 345.01 434.829 344.826 434.829 344.635V338.441C434.829 338.249 434.905 338.066 435.041 337.93C435.176 337.794 435.36 337.718 435.551 337.718C435.743 337.718 435.927 337.794 436.062 337.93C436.198 338.066 436.274 338.249 436.274 338.441V344.635ZM443.633 344.635C443.633 344.826 443.557 345.01 443.422 345.146C443.286 345.281 443.102 345.357 442.911 345.357C442.719 345.357 442.535 345.281 442.4 345.146C442.264 345.01 442.188 344.826 442.188 344.635V338.441C442.188 338.249 442.264 338.066 442.4 337.93C442.535 337.794 442.719 337.718 442.911 337.718C443.102 337.718 443.286 337.794 443.422 337.93C443.557 338.066 443.633 338.249 443.633 338.441V344.635ZM450.994 344.635C450.994 344.826 450.918 345.01 450.783 345.146C450.647 345.281 450.463 345.357 450.272 345.357C450.08 345.357 449.896 345.281 449.761 345.146C449.625 345.01 449.549 344.826 449.549 344.635V338.441C449.549 338.249 449.625 338.066 449.761 337.93C449.896 337.794 450.08 337.718 450.272 337.718C450.463 337.718 450.647 337.794 450.783 337.93C450.918 338.066 450.994 338.249 450.994 338.441V344.635Z" fill="#16191C"/>
<path d="M478.512 242.116L442.18 242.113V208.681C442.18 205.947 439.956 203.722 437.224 203.722H422.008C421.076 203.721 420.183 203.35 419.525 202.691C418.866 202.032 418.496 201.139 418.495 200.206V178.57H421.801C422.767 178.57 423.553 177.783 423.553 176.818V166.351H426.265C427.651 166.351 428.778 165.222 428.778 163.835L428.792 148.638H440.316C464.37 148.638 483.939 129.059 483.939 104.995C483.939 82.6121 467.39 64.091 445.311 61.5885C445.752 59.1539 445.976 56.6789 445.976 54.2241C445.976 31.7721 427.735 13.5055 405.314 13.5055C394.596 13.5055 384.549 17.6113 376.901 25.0958C376.464 24.1874 376.002 23.2917 375.514 22.4097C348.426 -26.0434 273.974 11.8588 297.972 62.3692C278.215 66.8235 263.971 84.6 263.971 104.995C263.971 129.059 283.539 148.638 307.593 148.638H329.232L329.246 163.835C329.246 165.222 330.373 166.351 331.761 166.351H334.47V176.818C334.47 177.783 335.256 178.57 336.223 178.57H339.527V200.206C339.529 201.522 340.051 202.783 340.981 203.713C341.91 204.643 343.171 205.167 344.485 205.168H359.701C361.637 205.168 363.214 206.744 363.214 208.681V242.113H317.805C317.613 242.113 317.429 242.19 317.294 242.325C317.158 242.461 317.082 242.645 317.082 242.836V244.912H308.213C308.021 244.912 307.837 244.988 307.702 245.124C307.566 245.26 307.49 245.443 307.49 245.635V255.803H296.221L296.279 253.844C296.289 253.46 296.148 253.088 295.884 252.809C295.621 252.529 295.258 252.366 294.874 252.355L287.721 252.147L287.772 250.449V250.442C287.777 249.915 287.576 249.407 287.212 249.027C286.848 248.646 286.349 248.423 285.823 248.405L282.031 248.394L286.883 222.544C286.902 222.44 286.899 222.333 286.872 222.23C286.845 222.128 286.796 222.032 286.728 221.951C286.661 221.869 286.576 221.804 286.48 221.758C286.384 221.713 286.28 221.69 286.174 221.69L142.327 221.651C142.152 221.649 141.982 221.709 141.846 221.82C141.71 221.93 141.618 222.085 141.584 222.257L138.42 239.112C135.949 232.877 132.509 226.354 127.712 220.451C122.137 211.944 107.271 201.555 82.144 199.685C81.8868 199.3 81.9489 199.229 81.6484 199.02V195.596C85.414 194.966 88.3821 193.133 90.4802 190.14C93.3919 185.984 94.2314 180.233 94.178 174.784C99.38 168.781 96.9639 161.534 95.6793 158.699C95.6793 158.699 97.0145 157.591 98.6994 155.619C99.7109 154.434 98.5404 152.699 97.0521 153.133C95.9683 153.465 94.7401 153.682 93.4396 153.696C93.4396 153.696 95.1158 152.815 97.6012 149.735C98.4537 148.68 97.6156 147.104 96.2573 147.22C92.8327 147.523 87.8041 147.769 85.7233 146.829C82.4576 145.326 65.5655 136.362 57.04 153.118C57.04 153.118 44.9931 157.448 55.1933 176.731C55.1572 176.987 55.0661 177.808 55.1153 178.044C55.4043 179.926 57.407 182.115 60.7537 182.76C60.8216 183.906 60.9878 184.972 61.245 185.932L61.2305 199.806C52.1184 200.548 43.9931 202.168 37.0846 204.643C24.7009 209.102 16.3474 224.382 15.2304 230.645C14.6567 233.855 8.94753 244.288 7.60513 284.25C7.15284 298.2 8.29583 328.252 13.7825 339.841C14.7926 342.235 20.087 347.786 26.4277 350.283C28.4204 351.104 29.9188 351.446 31.7453 351.707C33.9417 352.04 38.69 352.58 43.3111 352.799L43.2966 367.169C43.2964 367.264 43.315 367.358 43.3512 367.446C43.3874 367.534 43.4406 367.614 43.5077 367.681C43.5748 367.748 43.6545 367.802 43.7423 367.838C43.8301 367.875 43.9241 367.893 44.0191 367.893H74.2341C74.4257 367.893 74.6095 367.817 74.745 367.682C74.8805 367.546 74.9566 367.362 74.9566 367.171V359.465C74.9566 358.916 75.4117 358.467 75.9681 358.467H134.579C134.77 358.467 134.954 358.391 135.09 358.256C135.225 358.12 135.301 357.936 135.301 357.745L135.316 341.784H206.598L210.918 358.641H215.578C215.974 359.331 215.931 359.364 216.324 359.364H238.158C238.268 359.364 238.376 359.338 238.475 359.29C238.574 359.241 238.661 359.171 238.728 359.084C238.796 358.997 238.842 358.896 238.865 358.788C238.887 358.68 238.884 358.568 238.857 358.462L234.58 341.784H263.906C264.075 341.784 264.238 341.725 264.368 341.617C264.498 341.51 264.586 341.36 264.617 341.194L268.813 318.833L278.004 318.942L278.085 318.943C279.135 318.943 280.011 318.103 280.057 317.026L280.106 315.324L287.256 315.534H287.296C288.074 315.534 288.718 314.912 288.744 314.127L288.811 311.858H300.762C300.954 311.858 301.138 311.781 301.273 311.646C301.409 311.51 301.485 311.326 301.485 311.135V298.889H317.084V316.407C317.084 316.599 317.16 316.783 317.295 316.918C317.431 317.054 317.615 317.13 317.806 317.13H332.506V324.667H317.806C317.615 324.667 317.431 324.743 317.295 324.878C317.16 325.014 317.084 325.198 317.084 325.389V357.682C317.084 357.874 317.16 358.058 317.295 358.194C317.431 358.329 317.615 358.405 317.806 358.405L478.513 358.41C478.918 358.41 479.236 358.077 479.236 357.687V325.389C479.236 324.985 478.918 324.667 478.513 324.667H450.519V317.13C453.383 317.13 440.148 317.13 478.513 317.134C478.918 317.134 479.236 316.802 479.236 316.412V284.114C479.236 283.71 478.918 283.391 478.513 283.391H450.519V275.854L478.513 275.859C478.918 275.859 479.236 275.527 479.236 275.136V242.839C479.236 242.434 478.918 242.116 478.513 242.116H478.512ZM318.527 326.112C494.625 326.245 435.695 326.118 464.495 326.112V356.96H318.527V326.112ZM422.008 205.168H437.224C439.16 205.168 440.735 206.744 440.735 208.681V242.113H403.419V208.681C403.419 205.947 401.196 203.722 398.462 203.722H383.247C382.316 203.721 381.423 203.35 380.764 202.691C380.106 202.032 379.735 201.139 379.734 200.206V178.57H383.041C384.006 178.57 384.792 177.783 384.792 176.818V166.351H387.503C388.89 166.351 390.017 165.222 390.017 163.835L390.03 148.638H406.755L406.769 163.835C406.769 165.222 407.896 166.351 409.282 166.351H411.994V176.818C411.994 177.783 412.78 178.57 413.745 178.57H417.05V200.206C417.051 201.522 417.574 202.783 418.503 203.713C419.433 204.643 420.693 205.167 422.008 205.168ZM369.45 152.66H388.572V163.835C388.572 164.119 388.459 164.391 388.259 164.592C388.058 164.792 387.786 164.905 387.503 164.905H370.521C370.238 164.905 369.966 164.792 369.765 164.592C369.565 164.391 369.452 164.119 369.452 163.835L369.45 152.66ZM374.678 166.351H383.347V176.818C383.347 176.899 383.315 176.977 383.257 177.034C383.2 177.092 383.122 177.124 383.041 177.124H374.985C374.904 177.124 374.826 177.092 374.768 177.034C374.711 176.977 374.678 176.899 374.678 176.818V166.351ZM422.108 176.818C422.108 176.899 422.075 176.977 422.018 177.034C421.961 177.092 421.883 177.124 421.801 177.124H413.745C413.664 177.124 413.586 177.092 413.529 177.034C413.471 176.977 413.439 176.899 413.439 176.818V166.351H422.108V176.818ZM426.265 164.905H409.282C408.998 164.905 408.726 164.792 408.526 164.592C408.325 164.391 408.213 164.119 408.213 163.835V152.66H427.333V163.835C427.333 163.976 427.305 164.115 427.251 164.245C427.198 164.374 427.119 164.492 427.02 164.592C426.92 164.691 426.802 164.77 426.673 164.824C426.543 164.877 426.404 164.905 426.263 164.905H426.265ZM265.415 104.995C265.415 85.1522 279.362 67.8817 298.648 63.7108C300.073 66.4844 301.792 69.0964 303.775 71.5018C303.835 71.5753 303.91 71.6362 303.993 71.6809C304.077 71.7256 304.169 71.7532 304.264 71.7622C304.358 71.7713 304.454 71.7614 304.544 71.7334C304.635 71.7053 304.719 71.6595 304.792 71.5987C304.866 71.5383 304.926 71.4641 304.971 71.3803C305.016 71.2964 305.043 71.2046 305.052 71.1101C305.061 71.0156 305.052 70.9202 305.024 70.8294C304.996 70.7386 304.951 70.6541 304.891 70.5809C302.588 67.7878 300.656 64.709 299.141 61.4208L299.083 61.295C276.606 12.1408 348.957 -23.6696 374.535 23.6371C376.507 27.2621 377.93 31.1598 378.758 35.2028C378.839 35.5931 379.229 35.8432 379.61 35.7666C379.798 35.728 379.962 35.6165 380.068 35.4566C380.174 35.2967 380.212 35.1015 380.174 34.9137C379.581 32.0316 378.696 29.2177 377.532 26.5155C384.955 19.0585 394.799 14.9498 405.314 14.9498C426.938 14.9498 444.531 32.5687 444.531 54.2241C444.531 56.8466 444.267 59.4908 443.747 62.083C443.727 62.1823 443.728 62.2847 443.75 62.3835C443.772 62.4823 443.815 62.5754 443.875 62.6567C443.935 62.7381 444.012 62.8058 444.1 62.8557C444.188 62.9055 444.286 62.9363 444.387 62.9461C466.112 65.0192 482.494 83.0964 482.494 104.995C482.494 128.262 463.573 147.192 440.316 147.192C414.735 146.971 333.234 147.118 307.593 147.192C284.336 147.192 265.415 128.262 265.415 104.995ZM330.69 163.835V152.66H349.811V163.835C349.811 164.119 349.699 164.391 349.498 164.592C349.298 164.792 349.026 164.905 348.742 164.905H331.758C331.474 164.905 331.202 164.792 331.002 164.592C330.801 164.391 330.688 164.119 330.688 163.835H330.69ZM335.915 176.818V166.351H344.585V176.818C344.585 176.899 344.553 176.977 344.495 177.034C344.438 177.092 344.36 177.124 344.279 177.124H336.223C336.141 177.124 336.063 177.092 336.006 177.035C335.948 176.977 335.915 176.899 335.915 176.818ZM359.7 203.722H344.485C342.549 203.722 340.974 202.145 340.974 200.206V178.57H344.279C345.242 178.57 346.028 177.783 346.028 176.818V166.351H348.741C350.128 166.351 351.255 165.222 351.255 163.835L351.269 148.638H367.994L368.005 163.835C368.005 165.222 369.133 166.351 370.52 166.351H373.233V176.818C373.233 177.783 374.02 178.57 374.985 178.57H378.289V200.206C378.291 201.522 378.813 202.783 379.743 203.713C380.672 204.643 381.933 205.167 383.247 205.168H398.462C400.398 205.168 401.974 206.744 401.974 208.681V242.113H364.66V208.681C364.66 205.947 362.435 203.722 359.701 203.722H359.7ZM318.527 243.559H464.495V274.408C432.026 274.376 347.881 274.218 318.527 274.408V243.559ZM308.213 257.25C308.404 257.25 308.588 257.174 308.724 257.038C308.859 256.903 308.935 256.719 308.935 256.527V246.358H317.082V269.919H304.525C304.334 269.919 304.15 269.995 304.014 270.131C303.879 270.266 303.803 270.45 303.803 270.642V282.885H292.542L292.592 281.151C292.599 280.96 292.567 280.771 292.5 280.593C292.432 280.415 292.33 280.252 292.199 280.114C292.069 279.975 291.913 279.863 291.74 279.785C291.566 279.707 291.379 279.664 291.189 279.659L284.038 279.452L284.087 277.76V277.753C284.099 277.225 283.901 276.714 283.536 276.332C283.172 275.95 282.671 275.728 282.144 275.715L276.913 275.664L279.047 264.298L285.37 264.337C286.596 264.337 287.382 263.441 287.425 262.407L287.474 260.715L294.667 260.925C295.445 260.925 296.091 260.308 296.112 259.52L296.179 257.25H308.213ZM276.642 277.108L282.122 277.16C282.193 277.163 282.263 277.179 282.328 277.208C282.392 277.238 282.451 277.28 282.499 277.332C282.547 277.384 282.585 277.446 282.61 277.512C282.634 277.579 282.645 277.65 282.642 277.721L282.573 280.114C282.573 280.121 282.57 280.126 282.568 280.131L282.362 287.256L282.365 287.275L282.295 289.663C282.282 289.967 282.025 290.168 281.723 290.201L274.198 290.134L276.642 277.108ZM283.997 280.896L291.146 281.104L291.168 280.381L290.98 286.783L283.831 286.575L283.996 280.898L283.997 280.896ZM294.832 253.801L294.667 259.479L287.515 259.271L287.681 253.592L294.832 253.801ZM285.791 249.851C285.935 249.857 286.072 249.918 286.172 250.023C286.272 250.128 286.328 250.267 286.327 250.412L285.98 262.355C285.968 262.651 285.771 262.885 285.405 262.89L279.317 262.854L281.759 249.838L285.791 249.851ZM126.679 221.502C129.085 225.29 130.807 230.422 129.082 236.552C129.041 236.733 129.071 236.923 129.165 237.082C129.26 237.242 129.412 237.359 129.591 237.41C129.77 237.46 129.961 237.44 130.125 237.354C130.289 237.267 130.414 237.121 130.473 236.945C131.505 233.28 131.394 229.951 130.653 227.019C133.785 231.897 136.147 236.984 137.912 241.823L123.751 317.257L123.799 276.628C123.799 276.437 123.724 276.253 123.588 276.117C123.453 275.981 123.27 275.904 123.078 275.904C122.886 275.904 122.702 275.98 122.567 276.115C122.431 276.25 122.354 276.434 122.354 276.626L122.298 325.003L119.309 340.925C119.29 341.034 119.295 341.146 119.324 341.253C119.352 341.359 119.403 341.459 119.474 341.544C119.545 341.629 119.633 341.698 119.733 341.745C119.833 341.792 119.942 341.817 120.052 341.819H122.277L122.262 357.022H91.5524L90.7504 350.183C95.5984 352.8 97.7428 350.584 101.604 350.468C104.497 350.341 105.641 352.232 106.748 354.022C107.554 355.33 108.317 356.566 109.725 356.618C111.68 356.702 113.33 354.616 114.3 352.9C117.08 347.989 118.321 339.984 115.482 335.618C114.412 333.98 112.245 332.111 108.075 332.528C101.438 333.185 100.384 332.008 100.217 331.632C99.9161 330.955 106.998 323.112 101.887 316.255C100.933 314.975 99.7614 314.398 98.6878 314.654C97.8642 314.855 96.7934 315.619 96.3758 318.132C95.6533 322.499 91.2504 325.051 87.9601 326.373L75.4132 219.335L88.8936 212.893C89.0856 212.795 89.2323 212.627 89.3025 212.423C89.3319 212.322 89.3403 212.216 89.3274 212.111C89.3145 212.007 89.2805 211.906 89.2274 211.816L83.0327 201.207C100.285 202.709 114.135 206.014 126.679 221.502ZM97.802 318.371C98.0188 317.056 98.4783 316.195 99.0274 316.06C99.4985 315.945 100.154 316.351 100.73 317.12C105.455 323.464 97.9624 330.113 98.8959 332.218C99.669 333.965 102.633 334.516 108.216 333.97C111.017 333.695 113.038 334.516 114.269 336.409C115.139 337.747 115.557 339.543 115.628 341.503C113.983 339.644 111.431 338.21 107.983 337.243C107.333 337.065 107.066 338.038 107.709 338.217C110.385 338.968 113.866 340.439 115.612 343.159C115.557 344.106 115.432 345.069 115.245 346.024C113.645 344.025 111.04 342.489 107.46 341.461C106.829 341.263 106.53 342.248 107.18 342.433C109.806 343.188 113.229 344.659 114.944 347.357C114.654 348.478 114.279 349.562 113.843 350.567C112.356 348.652 109.953 347.152 106.667 346.105C106.02 345.908 105.728 346.868 106.359 347.071C109.694 348.132 112.032 349.663 113.344 351.616C113.243 351.81 113.146 352.007 113.042 352.19C111.964 354.096 110.707 355.269 109.777 355.174C109.141 355.151 108.602 354.276 107.978 353.263C106.423 350.743 104.839 348.911 101.559 349.024C95.9452 349.197 94.6548 353.091 85.1337 343.993V328.832C87.5541 328.224 96.6215 325.492 97.802 318.371ZM80.4331 153.336C82.8922 154.019 85.488 154.039 87.9573 153.395C90.4266 152.75 92.6814 151.463 94.493 149.664C94.6375 149.52 94.8687 149.52 94.9987 149.664C95.1432 149.794 95.1432 150.026 94.9987 150.17C91.0842 154.088 85.3317 155.469 80.2453 154.03C80.1995 154.017 80.1568 153.996 80.1196 153.966C80.0824 153.936 80.0515 153.899 80.0286 153.858C80.0057 153.816 79.9914 153.77 79.9864 153.723C79.9815 153.676 79.9859 153.628 79.9996 153.582C80.043 153.394 80.2453 153.279 80.4331 153.336ZM71.8787 155.968C72.0377 155.852 72.2689 155.91 72.37 156.083C74.6965 159.933 85.1843 162.04 92.8601 156.286C93.0335 156.17 93.2503 156.213 93.3659 156.372C93.4959 156.531 93.4526 156.748 93.2936 156.878C85.5527 162.645 74.4956 160.978 71.7487 156.459C71.7246 156.418 71.7089 156.373 71.7024 156.326C71.696 156.28 71.6989 156.232 71.711 156.186C71.7231 156.14 71.7441 156.098 71.7729 156.06C71.8017 156.023 71.8377 155.991 71.8787 155.968ZM54.7121 170.743C53.8885 168.69 53.0504 166.565 52.6891 164.338C51.4825 156.907 56.1412 153.792 58.2379 155.982C58.368 156.127 58.368 156.358 58.2235 156.488C58.079 156.633 57.8478 156.618 57.7033 156.474C56.1571 154.839 52.3178 157.662 53.3972 164.208C53.7584 166.362 54.5821 168.459 55.3768 170.483C55.4491 170.671 55.3624 170.873 55.1745 170.945C54.9491 171.022 54.78 170.911 54.7121 170.743ZM56.5473 177.818C56.6557 169.953 63.5237 176.244 64.476 175.587C64.8922 175.297 68.4179 172.413 68.3197 158.463C71.688 160.922 81.4894 166.971 91.3096 162.486C91.6102 163.939 91.9888 166.038 92.2763 168.46C91.2359 167.97 89.2447 167.574 86.5874 169.544C86.5082 169.6 86.4409 169.67 86.3894 169.752C86.3379 169.834 86.3033 169.925 86.2877 170.02C86.272 170.115 86.2757 170.213 86.2983 170.307C86.3209 170.401 86.3622 170.489 86.4195 170.567C86.4769 170.645 86.5493 170.71 86.6323 170.759C86.7154 170.808 86.8074 170.84 86.9031 170.854C86.9988 170.867 87.0961 170.86 87.1893 170.835C87.2825 170.81 87.3697 170.766 87.4457 170.707C90.5423 168.411 92.0639 170.127 92.4599 170.204C93.035 176.458 92.8211 184.279 89.2953 189.313C84.862 195.642 77.0128 195.086 71.1418 190.412C70.98 190.284 70.7834 190.208 70.5776 190.194C70.3719 190.18 70.1668 190.228 69.9892 190.333C69.8116 190.438 69.6698 190.594 69.5826 190.781C69.4953 190.968 69.4666 191.177 69.5003 191.38C69.5205 191.443 70.7964 198.269 80.2034 198.411V200.042L80.1918 200.072L80.1846 200.087L74.4436 216.693C74.419 216.693 74.3974 216.685 74.3728 216.688C74.2596 216.704 74.152 216.747 74.0592 216.813L62.6755 199.852L62.69 185.839C62.69 185.496 62.2435 184.542 62.1698 182.113C62.1639 181.937 62.0938 181.769 61.9728 181.64C61.8518 181.512 61.688 181.432 61.5123 181.415C61.3461 181.401 57.462 181.006 56.5473 177.818ZM21.1072 284.479C13.164 259.93 15.7593 237.053 16.4875 231.965C20.691 219.576 27.2542 209.721 37.5744 206.005C44.2503 203.613 52.0981 202.032 60.904 201.286L57.592 215.372C57.5686 215.471 57.5654 215.575 57.5824 215.675C57.5995 215.776 57.6365 215.872 57.6913 215.959C57.7461 216.045 57.8176 216.119 57.9015 216.177C57.9855 216.236 58.0802 216.276 58.1801 216.297L73.9711 219.469L86.5628 326.89C85.9993 327.081 85.5123 327.227 85.1308 327.332L85.1337 325.374C85.1337 325.207 85.0762 325.045 84.9709 324.916C84.8656 324.787 84.7189 324.698 84.5557 324.665L48.2761 317.28C48.2616 317.263 48.2544 317.241 48.2371 317.227L48.2342 317.224L45.6361 298.039C45.6257 297.944 45.5961 297.852 45.5491 297.769C45.5021 297.685 45.4385 297.613 45.3624 297.555C45.2863 297.497 45.1992 297.455 45.1064 297.431C45.0136 297.408 44.917 297.404 44.8225 297.419C44.7285 297.432 44.6379 297.463 44.5559 297.511C44.474 297.559 44.4022 297.622 44.3448 297.698C44.2874 297.774 44.2454 297.86 44.2212 297.952C44.1971 298.043 44.1913 298.139 44.2041 298.233L46.834 317.658L40.5526 324.282C40.278 324.571 40.2881 325.029 40.58 325.303C40.8748 325.585 41.3314 325.562 41.6002 325.277L47.8628 318.671L83.6873 325.963L83.6526 350.066C79.9823 350.499 60.8389 352.57 41.132 351.171C29.0012 348.729 26.1734 339.915 26.0578 339.533C26.0305 339.442 25.9855 339.357 25.9255 339.284C25.8654 339.21 25.7915 339.149 25.7079 339.104C25.6243 339.059 25.5327 339.031 25.4383 339.022C25.3438 339.012 25.2484 339.021 25.1575 339.049C25.0666 339.076 24.982 339.121 24.9085 339.181C24.835 339.241 24.774 339.315 24.7291 339.399C24.6841 339.482 24.6561 339.574 24.6465 339.668C24.637 339.763 24.6461 339.858 24.6735 339.949C24.7746 340.288 26.8236 346.799 34.709 350.585C33.8685 350.491 33.0289 350.39 32.1904 350.28C31.7207 350.188 30.1934 350.092 27.6993 349.219C21.8615 347.055 16.4962 342.024 15.0902 339.219L15.0772 339.199C6.59507 318.541 7.48085 266.474 14.3041 239.429C13.6799 249.419 13.8417 266.719 19.733 284.925C19.7938 285.106 19.9232 285.255 20.0932 285.34C20.2632 285.426 20.46 285.441 20.641 285.382C20.8219 285.323 20.9724 285.195 21.0596 285.026C21.1469 284.857 21.164 284.66 21.1072 284.479ZM73.513 359.468V366.451H44.7431L44.7575 352.828C58.1527 353.498 74.1387 352.755 84.4661 351.424C84.6401 351.401 84.7999 351.316 84.9158 351.185C85.0317 351.053 85.0958 350.884 85.0961 350.708L85.1034 345.937C86.6466 347.348 87.9919 348.424 89.1826 349.229L90.0958 357.022H75.9695C74.6141 357.022 73.513 358.12 73.513 359.466V359.468ZM133.856 357.023H123.707L123.724 341.82L133.871 341.785L133.856 357.023ZM216.918 357.919L203.416 305.238H223.709L237.226 357.919H216.918ZM263.305 340.34H234.209L224.969 304.337C224.929 304.182 224.839 304.044 224.713 303.945C224.586 303.847 224.43 303.793 224.27 303.793C222.286 303.79 199.813 303.764 197.826 303.764C197.711 303.762 197.596 303.787 197.491 303.836C197.387 303.886 197.295 303.959 197.224 304.05C197.152 304.141 197.103 304.248 197.079 304.361C197.056 304.475 197.06 304.592 197.089 304.704L206.225 340.34H131.192L153.209 223.136H285.302L263.305 340.34ZM278.041 317.497L269.082 317.392L271.524 304.377L278.42 304.457C278.564 304.463 278.701 304.524 278.801 304.629C278.901 304.734 278.957 304.873 278.956 305.018L278.887 307.426L278.885 307.437L278.677 314.561L278.68 314.578L278.611 316.975C278.608 317.047 278.59 317.118 278.56 317.183C278.53 317.248 278.487 317.306 278.434 317.355C278.381 317.403 278.319 317.441 278.252 317.465C278.184 317.49 278.113 317.501 278.041 317.497ZM280.147 313.88L280.311 308.201L287.46 308.411H287.463L287.295 314.09L280.147 313.88ZM318.527 284.837C495.015 284.876 454.44 284.846 464.495 284.837V315.686C288.476 315.553 347.262 315.68 318.527 315.686V284.837ZM332.505 283.391H317.805C317.613 283.391 317.429 283.468 317.294 283.603C317.158 283.739 317.082 283.923 317.082 284.114V297.444H300.762C300.571 297.444 300.387 297.52 300.251 297.656C300.116 297.791 300.04 297.975 300.04 298.167V310.412H288.853L288.91 308.453C288.916 308.263 288.884 308.073 288.816 307.895C288.748 307.718 288.646 307.555 288.515 307.417C288.384 307.278 288.228 307.167 288.054 307.089C287.88 307.012 287.693 306.969 287.503 306.964L280.353 306.756L280.402 305.057V305.051C280.409 304.525 280.209 304.017 279.847 303.636C279.484 303.255 278.987 303.031 278.462 303.011L271.797 302.935L273.929 291.58L281.703 291.648H281.743C282.804 291.648 283.694 290.795 283.742 289.716L283.791 288.022L290.938 288.23H290.986C291.362 288.232 291.724 288.085 291.994 287.822C292.264 287.56 292.42 287.202 292.429 286.825L292.501 284.333H304.528C304.72 284.333 304.903 284.256 305.039 284.121C305.174 283.985 305.251 283.801 305.251 283.61V271.365H317.085V275.132C317.085 275.324 317.161 275.508 317.297 275.643C317.432 275.779 317.616 275.855 317.808 275.855H332.506V283.391H332.505Z" fill="#16191C"/>
<path d="M44.7251 327.997L47.7957 324.921C47.8647 324.854 47.9198 324.775 47.9577 324.686C47.9955 324.598 48.0155 324.503 48.0163 324.407C48.0171 324.311 47.9988 324.216 47.9625 324.127C47.9262 324.038 47.8725 323.958 47.8047 323.89C47.7369 323.822 47.6562 323.768 47.5674 323.732C47.4786 323.696 47.3835 323.677 47.2875 323.678C47.1916 323.679 47.0968 323.699 47.0086 323.737C46.9205 323.775 46.8408 323.83 46.7741 323.899L43.7049 326.975C43.6359 327.042 43.5809 327.122 43.543 327.21C43.5052 327.298 43.4852 327.393 43.4844 327.489C43.4836 327.585 43.5019 327.68 43.5382 327.769C43.5745 327.858 43.6282 327.938 43.696 328.006C43.7638 328.074 43.8445 328.128 43.9333 328.164C44.0221 328.201 44.1172 328.219 44.2132 328.218C44.3091 328.217 44.4039 328.197 44.492 328.159C44.5802 328.122 44.6585 328.066 44.7251 327.997ZM83.1072 183.44C83.6144 183.44 84.5349 183.834 85.2357 183.922C86.4365 184.075 87.7644 183.32 87.7254 182.093C87.6474 179.725 83.3659 181.974 84.782 169.111C84.803 168.92 84.7475 168.728 84.6276 168.579C84.5077 168.429 84.3332 168.333 84.1426 168.312C83.9519 168.291 83.7607 168.346 83.6109 168.466C83.4612 168.586 83.3653 168.761 83.3442 168.951C81.8486 182.566 86.2458 180.96 86.2804 182.139C86.2949 182.365 85.7227 182.534 85.4163 182.488C84.7357 182.404 84.0147 181.995 83.1072 181.995C82.9156 181.995 82.7318 182.071 82.5963 182.206C82.4608 182.342 82.3847 182.526 82.3847 182.718C82.3847 182.909 82.4608 183.093 82.5963 183.229C82.7318 183.364 82.9156 183.44 83.1072 183.44ZM73.9358 171.454C76.8431 169.301 78.5107 170.712 78.5945 170.786C78.7344 170.915 78.9196 170.983 79.1097 170.976C79.2998 170.969 79.4793 170.886 79.6089 170.747C79.674 170.678 79.7249 170.597 79.7586 170.508C79.7923 170.419 79.8081 170.325 79.8051 170.23C79.8022 170.135 79.7805 170.042 79.7414 169.955C79.7022 169.869 79.6464 169.791 79.5771 169.726C79.4745 169.628 77.0006 167.387 73.0775 170.29C73.0011 170.347 72.9366 170.417 72.8876 170.499C72.8386 170.58 72.8061 170.67 72.7919 170.764C72.7777 170.858 72.7822 170.954 72.8051 171.046C72.8279 171.138 72.8687 171.225 72.925 171.301C72.9814 171.378 73.0522 171.442 73.1335 171.491C73.2148 171.541 73.305 171.573 73.3988 171.587C73.4927 171.601 73.5884 171.597 73.6806 171.574C73.7727 171.551 73.8594 171.51 73.9358 171.454ZM76.6885 172.686C76.3271 172.683 75.9793 172.823 75.7216 173.077C75.4639 173.33 75.3174 173.676 75.3143 174.037C75.3113 174.399 75.4519 174.747 75.7053 175.005C75.9586 175.263 76.304 175.409 76.6654 175.412C77.0266 175.416 77.3743 175.275 77.632 175.022C77.8897 174.769 78.0363 174.423 78.0396 174.062C78.0428 173.701 77.9025 173.353 77.6494 173.095C77.3963 172.837 77.0512 172.69 76.69 172.687L76.6885 172.686ZM90.1978 174.662C90.3768 174.661 90.5538 174.625 90.7187 174.556C90.8837 174.486 91.0334 174.385 91.1592 174.258C91.2851 174.13 91.3847 173.98 91.4523 173.814C91.5199 173.648 91.5542 173.471 91.5532 173.292C91.5523 173.112 91.5161 172.935 91.4467 172.77C91.3774 172.605 91.2762 172.456 91.149 172.33C91.0218 172.204 90.8711 172.104 90.7054 172.036C90.5397 171.969 90.3623 171.934 90.1834 171.935C89.822 171.937 89.4761 172.083 89.222 172.34C88.9678 172.597 88.826 172.944 88.828 173.306C88.8299 173.668 88.9753 174.014 89.2322 174.268C89.4891 174.522 89.8364 174.664 90.1978 174.662ZM88.4277 187.509C88.4998 187.447 88.5591 187.372 88.6022 187.288C88.6453 187.203 88.6713 187.111 88.6788 187.017C88.6864 186.922 88.6752 186.827 88.646 186.737C88.6168 186.647 88.5701 186.563 88.5086 186.491C88.4471 186.419 88.3721 186.359 88.2877 186.316C88.2033 186.273 88.1112 186.247 88.0167 186.24C87.9223 186.232 87.8273 186.243 87.7371 186.272C87.647 186.302 87.5634 186.348 87.4913 186.41C87.4697 186.427 85.4033 188.145 82.7301 186.352C82.5706 186.254 82.3795 186.222 82.1967 186.262C82.0139 186.302 81.8536 186.411 81.7495 186.566C81.6455 186.722 81.6056 186.912 81.6384 187.096C81.6711 187.28 81.7739 187.445 81.9252 187.555C84.2199 189.087 86.8642 188.849 88.4277 187.509ZM117.922 287.866C118.113 287.866 118.297 287.79 118.433 287.655C118.568 287.52 118.645 287.337 118.646 287.146L118.656 278.009C118.656 277.914 118.637 277.82 118.601 277.732C118.565 277.644 118.512 277.565 118.445 277.497C118.378 277.43 118.299 277.377 118.211 277.34C118.123 277.304 118.029 277.285 117.935 277.285C117.84 277.284 117.746 277.303 117.658 277.339C117.57 277.375 117.491 277.428 117.423 277.495C117.356 277.562 117.303 277.642 117.266 277.73C117.23 277.817 117.211 277.911 117.211 278.006L117.201 287.143C117.201 287.335 117.277 287.519 117.412 287.654C117.548 287.79 117.73 287.866 117.922 287.866ZM66.3943 236.494C67.2786 236.396 68.0879 235.951 68.6446 235.256C69.2013 234.562 69.4599 233.675 69.3638 232.79C69.3163 232.351 69.1828 231.926 68.9709 231.54C68.7591 231.153 68.473 230.811 68.1291 230.535C67.7852 230.259 67.3903 230.054 66.9669 229.93C66.5435 229.807 66.1 229.769 65.6617 229.818C65.2234 229.865 64.7987 229.999 64.412 230.211C64.0253 230.423 63.6842 230.709 63.4082 231.053C63.1322 231.397 62.9268 231.792 62.8037 232.216C62.6806 232.639 62.6423 233.083 62.6908 233.521C62.7886 234.407 63.2335 235.217 63.9279 235.774C64.6223 236.332 65.5094 236.59 66.3943 236.494ZM67.3307 245.032C66.8923 245.08 66.4676 245.213 66.081 245.425C65.6943 245.637 65.3532 245.923 65.0772 246.267C64.8012 246.612 64.5958 247.007 64.4727 247.43C64.3496 247.854 64.3112 248.298 64.3598 248.736C64.4579 249.621 64.903 250.431 65.5973 250.988C66.2917 251.545 67.1786 251.804 68.0633 251.707C68.9476 251.609 69.7569 251.164 70.3136 250.469C70.8703 249.775 71.1289 248.888 71.0328 248.003C70.9851 247.565 70.8515 247.14 70.6395 246.753C70.4276 246.367 70.1415 246.025 69.7976 245.749C69.4538 245.473 69.0589 245.268 68.6356 245.145C68.2122 245.022 67.7688 244.984 67.3307 245.032ZM68.9997 260.245C68.5613 260.293 68.1366 260.427 67.7499 260.639C67.3632 260.85 67.0221 261.137 66.7462 261.481C66.4702 261.825 66.2648 262.22 66.1417 262.644C66.0186 263.067 65.9802 263.511 66.0288 263.949C66.1265 264.835 66.5715 265.645 67.2659 266.202C67.9604 266.759 68.8475 267.017 69.7323 266.92C70.6166 266.822 71.4258 266.377 71.9825 265.683C72.5392 264.988 72.7979 264.101 72.7018 263.216C72.6541 262.778 72.5205 262.353 72.3085 261.966C72.0966 261.58 71.8105 261.239 71.4666 260.963C71.1227 260.687 70.7278 260.481 70.3045 260.358C69.8812 260.235 69.4378 260.197 68.9997 260.245ZM70.6686 275.459C70.2304 275.506 69.8059 275.64 69.4194 275.852C69.0328 276.064 68.6919 276.35 68.4161 276.694C68.1403 277.039 67.935 277.434 67.8119 277.857C67.6889 278.281 67.6506 278.724 67.6992 279.163C67.7969 280.048 68.2417 280.858 68.9357 281.415C69.6298 281.972 70.5165 282.231 71.4013 282.135C72.2858 282.037 73.0953 281.592 73.6521 280.897C74.2088 280.202 74.4673 279.315 74.3707 278.43C74.3231 277.991 74.1894 277.566 73.9775 277.18C73.7655 276.793 73.4795 276.452 73.1356 276.176C72.7917 275.9 72.3968 275.695 71.9735 275.572C71.5502 275.448 71.1068 275.41 70.6686 275.459ZM72.3376 290.672C71.8992 290.72 71.4746 290.853 71.088 291.066C70.7013 291.278 70.3603 291.564 70.0845 291.908C69.8086 292.252 69.6034 292.648 69.4805 293.071C69.3576 293.495 69.3194 293.939 69.3681 294.377C69.4663 295.262 69.9111 296.072 70.6052 296.629C71.2992 297.186 72.1857 297.444 73.0702 297.348C73.9545 297.25 74.7638 296.805 75.3205 296.111C75.8772 295.416 76.1358 294.529 76.0397 293.644C75.9922 293.206 75.8587 292.781 75.6469 292.394C75.435 292.007 75.1489 291.666 74.805 291.39C74.4611 291.114 74.0662 290.908 73.6428 290.785C73.2194 290.662 72.7759 290.623 72.3376 290.672ZM211.311 265.407C204.851 265.407 199.62 270.655 199.62 277.117C199.62 283.565 204.851 288.813 211.311 288.813C217.77 288.813 223.015 283.565 223.015 277.117C223.015 270.655 217.77 265.407 211.311 265.407ZM156.019 173.416H178.064L194.254 200.422C194.387 200.643 194.644 200.783 194.89 200.783H201.392C201.652 200.783 201.883 200.653 202.013 200.436L218.235 173.416H240.277C240.682 173.416 240.999 173.098 240.999 172.693V102.388C240.999 101.983 240.682 101.665 240.277 101.665H156.019C155.827 101.665 155.644 101.741 155.508 101.877C155.373 102.012 155.297 102.196 155.297 102.388V172.693C155.297 172.885 155.373 173.069 155.508 173.204C155.644 173.34 155.827 173.416 156.019 173.416ZM156.742 103.111H233.052V171.97H211.319C211.059 171.97 210.828 172.1 210.698 172.317L194.888 198.652L179.094 172.321C179.03 172.214 178.939 172.125 178.83 172.063C178.721 172.002 178.598 171.97 178.473 171.97H156.74L156.742 103.111Z" fill="#16191C"/>
<path d="M193.585 160.621C193.745 160.821 193.947 160.981 194.178 161.092C194.408 161.202 194.66 161.259 194.915 161.259C195.17 161.259 195.422 161.202 195.652 161.092C195.882 160.981 196.084 160.821 196.244 160.621L210.68 142.29C211.537 141.148 210.74 139.557 209.35 139.557H205.42V121.067C205.42 120.127 204.668 119.375 203.729 119.375H186.042C185.118 119.375 184.366 120.127 184.366 121.067V139.557H180.436C180.119 139.557 179.809 139.647 179.541 139.815C179.273 139.984 179.058 140.225 178.92 140.51C178.783 140.796 178.729 141.114 178.764 141.429C178.8 141.744 178.923 142.042 179.121 142.29L193.585 160.621ZM321.143 93.7384C319.384 93.7384 317.698 94.4372 316.455 95.6812C315.212 96.9251 314.513 98.6122 314.513 100.371C314.513 102.131 315.212 103.818 316.455 105.062C317.698 106.305 319.384 107.004 321.143 107.004C322.901 107.004 324.587 106.305 325.831 105.062C327.074 103.818 327.772 102.131 327.772 100.371C327.772 98.6122 327.074 96.9251 325.831 95.6812C324.587 94.4372 322.901 93.7384 321.143 93.7384ZM344.935 107.004C346.693 107.004 348.379 106.305 349.623 105.062C350.866 103.818 351.564 102.131 351.564 100.371C351.564 98.6122 350.866 96.9251 349.623 95.6812C348.379 94.4372 346.693 93.7384 344.935 93.7384C343.176 93.7384 341.49 94.4372 340.247 95.6812C339.003 96.9251 338.305 98.6122 338.305 100.371C338.305 102.131 339.003 103.818 340.247 105.062C341.49 106.305 343.176 107.004 344.935 107.004ZM368.728 110.153C370.012 110.153 371.283 109.9 372.469 109.408C373.656 108.917 374.733 108.196 375.641 107.288C376.549 106.38 377.269 105.301 377.761 104.115C378.252 102.928 378.505 101.656 378.505 100.371C378.505 99.0868 378.252 97.8148 377.761 96.6281C377.269 95.4413 376.549 94.363 375.641 93.4546C374.733 92.5463 373.656 91.8258 372.469 91.3342C371.283 90.8427 370.012 90.5897 368.728 90.5897C366.135 90.5897 363.648 91.6202 361.815 93.4546C359.981 95.2891 358.951 97.7771 358.951 100.371C358.951 102.966 359.981 105.454 361.815 107.288C363.648 109.122 366.135 110.153 368.728 110.153ZM392.52 108.355C394.636 108.355 396.666 107.513 398.162 106.016C399.659 104.519 400.499 102.489 400.499 100.371C400.499 98.2541 399.659 96.2235 398.162 94.7264C396.666 93.2292 394.636 92.3881 392.52 92.3881C390.404 92.3881 388.374 93.2292 386.878 94.7264C385.381 96.2235 384.541 98.2541 384.541 100.371C384.541 102.489 385.381 104.519 386.878 106.016C388.374 107.513 390.404 108.355 392.52 108.355ZM416.313 107.004C418.072 107.004 419.758 106.305 421.001 105.062C422.245 103.818 422.943 102.131 422.943 100.371C422.943 98.6122 422.245 96.9251 421.001 95.6812C419.758 94.4372 418.072 93.7384 416.313 93.7384C414.555 93.7384 412.869 94.4372 411.625 95.6812C410.382 96.9251 409.684 98.6122 409.684 100.371C409.684 102.131 410.382 103.818 411.625 105.062C412.869 106.305 414.555 107.004 416.313 107.004ZM65.7693 127.815C68.9342 127.819 72.0711 127.223 75.0144 126.059L83.576 130.522C83.6924 130.583 83.8231 130.611 83.9543 130.603C84.0854 130.595 84.212 130.552 84.3203 130.478C84.4287 130.403 84.5147 130.301 84.5692 130.181C84.6236 130.062 84.6445 129.929 84.6294 129.799L83.5529 120.434C85.893 118.106 87.748 115.336 89.0106 112.286C90.2731 109.235 90.918 105.964 90.908 102.663C90.908 88.7955 79.6312 77.5117 65.7693 77.5117C51.8973 77.5117 40.6133 88.7955 40.6133 102.663C40.6133 116.53 51.8973 127.815 65.7693 127.815ZM65.7693 78.9574C78.835 78.9574 89.4644 89.5907 89.4644 102.663C89.4644 109.111 86.9169 115.141 82.2914 119.65C82.2121 119.727 82.1514 119.821 82.1141 119.925C82.0768 120.029 82.0638 120.14 82.0761 120.25L83.037 128.61L75.3872 124.623C75.2942 124.575 75.1917 124.547 75.0869 124.542C74.9822 124.537 74.8775 124.555 74.7803 124.594C71.9214 125.769 68.86 126.373 65.7693 126.37C52.6949 126.37 42.0583 115.735 42.0583 102.663C42.0583 89.5907 52.6935 78.9574 65.7693 78.9574Z" fill="#FF7500"/>
<path d="M65.2158 121.717C75.5187 121.717 83.8997 113.332 83.8997 103.024C83.8997 92.7018 75.5187 84.3167 65.2158 84.3167C54.913 84.3167 46.5175 92.7018 46.5175 103.024C46.5175 113.332 54.913 121.717 65.2158 121.717ZM65.9239 111.077C65.9239 111.467 65.606 111.8 65.2014 111.8C64.8112 111.8 64.4789 111.467 64.4789 111.077V110.918C64.4789 110.513 64.8112 110.195 65.2014 110.195C65.606 110.195 65.9239 110.513 65.9239 110.918V111.077ZM65.3892 94.2343C70.386 94.4323 71.9495 101.129 67.5134 103.501C65.3574 104.643 66.0481 106.878 65.9239 107.622C65.9239 108.012 65.606 108.344 65.2014 108.344C64.8112 108.344 64.4789 108.012 64.4789 107.622C64.619 106.909 63.7882 103.861 66.8342 102.215C70.019 100.543 68.785 95.7928 65.3459 95.68C63.476 95.5426 61.7334 97.1315 61.7334 99.1497C61.7334 99.5545 61.4155 99.8726 61.0109 99.8726C60.6063 99.8726 60.2884 99.5545 60.2884 99.1497C60.2884 96.4462 62.4631 94.1707 65.3892 94.2343ZM490.305 47.3541C490.435 46.8395 490.429 46.2999 490.288 45.7882C490.146 45.2765 489.875 44.8103 489.499 44.4352C489.124 44.0602 488.658 43.7892 488.146 43.6487C487.634 43.5083 487.095 43.5033 486.581 43.6343C486.049 43.7677 485.564 44.0428 485.177 44.4303C484.789 44.8178 484.514 45.3031 484.38 45.8347C484.249 46.3492 484.254 46.889 484.394 47.4011C484.535 47.9132 484.806 48.3799 485.181 48.7556C485.556 49.1313 486.022 49.403 486.534 49.5441C487.045 49.6851 487.585 49.6907 488.099 49.5603C488.632 49.4263 489.118 49.1504 489.507 48.7619C489.895 48.3734 490.171 47.8869 490.305 47.3541ZM268.458 14.0289L273.653 10.2744C273.734 10.2207 273.803 10.151 273.857 10.0697C273.911 9.98842 273.947 9.89711 273.965 9.80127C273.982 9.70544 273.98 9.60706 273.959 9.51204C273.937 9.41703 273.897 9.32733 273.84 9.24836C273.783 9.16939 273.71 9.10276 273.627 9.05247C273.544 9.00219 273.451 8.96929 273.354 8.95575C273.258 8.94221 273.16 8.9483 273.066 8.97368C272.972 8.99905 272.884 9.04317 272.807 9.10339L267.611 12.8565C267.532 12.9111 267.464 12.9811 267.413 13.0622C267.361 13.1434 267.326 13.2341 267.309 13.329C267.293 13.4239 267.296 13.5211 267.318 13.6149C267.339 13.7087 267.38 13.7972 267.436 13.8752C267.492 13.9532 267.564 14.0192 267.646 14.0692C267.728 14.1192 267.82 14.1523 267.915 14.1665C268.01 14.1807 268.107 14.1757 268.2 14.1518C268.294 14.1279 268.381 14.0871 268.458 14.0289ZM24.357 141.755C24.758 141.755 25.1551 141.676 25.5256 141.523C25.8962 141.37 26.2329 141.145 26.5166 140.862C26.8004 140.578 27.0255 140.242 27.1792 139.871C27.3329 139.501 27.4122 139.103 27.4125 138.702C27.4127 138.301 27.334 137.904 27.1809 137.533C27.0277 137.162 26.803 136.825 26.5197 136.542C26.2364 136.258 25.8999 136.032 25.5296 135.879C25.1593 135.725 24.7623 135.646 24.3613 135.645C23.5516 135.645 22.7747 135.966 22.2017 136.539C21.6287 137.111 21.3065 137.888 21.3059 138.698C21.3053 139.508 21.6264 140.285 22.1986 140.859C22.7708 141.432 23.5472 141.754 24.357 141.755ZM16.9427 59.527C18.3005 60.3931 19.6035 61.3424 20.8442 62.3693C20.9919 62.4899 21.1813 62.5472 21.3711 62.5287C21.5609 62.5102 21.7357 62.4173 21.8573 62.2704C21.979 62.1235 22.0377 61.9345 22.0206 61.7445C22.0035 61.5545 21.912 61.3789 21.7661 61.2561C20.4796 60.1903 19.1284 59.2053 17.7201 58.3068C17.5584 58.2039 17.3624 58.1694 17.1753 58.211C16.9882 58.2527 16.8252 58.3669 16.7223 58.5288C16.6194 58.6906 16.585 58.8866 16.6266 59.0738C16.6682 59.2611 16.781 59.4241 16.9427 59.527ZM140.671 143.102L145.867 139.348C145.946 139.293 146.014 139.223 146.066 139.142C146.117 139.061 146.153 138.97 146.169 138.875C146.185 138.78 146.182 138.683 146.161 138.589C146.139 138.496 146.099 138.407 146.042 138.329C145.986 138.251 145.914 138.185 145.832 138.135C145.75 138.085 145.658 138.052 145.563 138.038C145.468 138.024 145.371 138.029 145.278 138.052C145.185 138.076 145.097 138.119 145.02 138.177L139.824 141.931C139.745 141.986 139.677 142.056 139.626 142.137C139.574 142.218 139.539 142.309 139.522 142.404C139.506 142.499 139.509 142.596 139.531 142.69C139.552 142.783 139.593 142.872 139.649 142.95C139.705 143.028 139.777 143.094 139.859 143.144C139.941 143.194 140.033 143.227 140.128 143.241C140.223 143.255 140.32 143.25 140.413 143.227C140.507 143.203 140.594 143.16 140.671 143.102ZM471.988 156.656C471.457 156.79 470.972 157.065 470.584 157.452C470.197 157.84 469.922 158.325 469.788 158.856C469.658 159.371 469.662 159.91 469.803 160.422C469.943 160.934 470.214 161.401 470.589 161.776C470.964 162.152 471.43 162.424 471.941 162.565C472.453 162.706 472.992 162.712 473.506 162.582C474.039 162.448 474.525 162.172 474.913 161.784C475.301 161.396 475.577 160.91 475.711 160.377C475.841 159.863 475.835 159.323 475.694 158.811C475.553 158.299 475.282 157.833 474.906 157.458C474.531 157.083 474.064 156.812 473.553 156.671C473.041 156.531 472.502 156.525 471.988 156.656ZM497.395 101.216C495.116 99.3262 492.634 97.6947 489.997 96.3508C489.827 96.2722 489.633 96.2626 489.456 96.3241C489.278 96.3856 489.132 96.5134 489.047 96.6806C488.963 96.8479 488.946 97.0415 489.001 97.2207C489.056 97.4 489.178 97.5509 489.342 97.6418C491.886 98.9368 494.278 100.51 496.476 102.332C496.549 102.392 496.634 102.438 496.724 102.466C496.815 102.493 496.91 102.503 497.005 102.494C497.099 102.485 497.191 102.458 497.275 102.413C497.359 102.369 497.433 102.308 497.493 102.235C497.554 102.162 497.599 102.077 497.627 101.987C497.655 101.896 497.665 101.8 497.656 101.706C497.647 101.611 497.619 101.52 497.575 101.436C497.53 101.352 497.47 101.278 497.397 101.217L497.395 101.216ZM198.702 63.4189C199.234 63.2847 199.72 63.0087 200.108 62.6202C200.496 62.2318 200.772 61.7453 200.906 61.2127C201.036 60.6982 201.03 60.1588 200.889 59.6473C200.748 59.1358 200.476 58.6697 200.101 58.2946C199.726 57.9196 199.259 57.6486 198.748 57.508C198.237 57.3675 197.697 57.3623 197.183 57.4929C196.652 57.6264 196.167 57.9015 195.779 58.2889C195.392 58.6764 195.116 59.1617 194.983 59.6933C194.852 60.2078 194.857 60.7474 194.998 61.2593C195.138 61.7711 195.41 62.2377 195.784 62.6132C196.159 62.9888 196.625 63.2605 197.137 63.4017C197.648 63.543 198.188 63.5489 198.702 63.4189ZM269.981 192.774C269.981 192.373 269.902 191.976 269.748 191.605C269.594 191.235 269.369 190.898 269.086 190.615C268.802 190.331 268.465 190.106 268.095 189.953C267.724 189.799 267.327 189.721 266.926 189.721C266.525 189.721 266.128 189.8 265.758 189.954C265.388 190.108 265.051 190.333 264.768 190.617C264.484 190.9 264.26 191.237 264.106 191.608C263.953 191.979 263.874 192.376 263.874 192.777C263.875 193.587 264.197 194.364 264.77 194.937C265.343 195.509 266.119 195.831 266.929 195.83C267.739 195.83 268.515 195.508 269.088 194.935C269.66 194.361 269.981 193.584 269.981 192.774ZM129.021 60.166C129.831 60.1666 130.608 59.8452 131.181 59.2726C131.755 58.7 132.077 57.923 132.077 57.1127C132.078 56.3023 131.757 55.5249 131.184 54.9515C130.612 54.378 129.836 54.0556 129.026 54.055C128.216 54.0546 127.439 54.3761 126.866 54.9487C126.293 55.5213 125.971 56.2981 125.971 57.1083C125.97 57.9185 126.292 58.6957 126.864 59.2688C127.436 59.842 128.213 60.1642 129.023 60.1646L129.021 60.166ZM120.845 107.616C121.655 107.616 122.432 107.295 123.006 106.722C123.579 106.15 123.901 105.373 123.902 104.562C123.902 103.752 123.581 102.975 123.009 102.401C122.436 101.828 121.66 101.505 120.85 101.505C120.449 101.504 120.052 101.583 119.681 101.737C119.31 101.89 118.973 102.115 118.69 102.398C118.116 102.971 117.794 103.748 117.794 104.558C117.793 105.368 118.114 106.146 118.687 106.719C119.259 107.293 120.035 107.615 120.845 107.616ZM308.146 192.268L313.341 188.514C313.42 188.459 313.488 188.389 313.54 188.308C313.591 188.227 313.627 188.136 313.643 188.041C313.659 187.946 313.656 187.849 313.635 187.755C313.613 187.661 313.573 187.573 313.516 187.495C313.46 187.417 313.388 187.351 313.306 187.301C313.224 187.251 313.133 187.218 313.037 187.204C312.942 187.189 312.845 187.194 312.752 187.218C312.659 187.242 312.571 187.284 312.494 187.343L307.3 191.096C307.22 191.15 307.153 191.22 307.101 191.301C307.049 191.383 307.014 191.473 306.998 191.568C306.981 191.663 306.984 191.76 307.006 191.854C307.028 191.948 307.068 192.036 307.124 192.114C307.181 192.192 307.252 192.258 307.335 192.308C307.417 192.358 307.508 192.391 307.603 192.406C307.699 192.42 307.796 192.415 307.889 192.391C307.982 192.367 308.07 192.326 308.146 192.268ZM284.295 164.787C284.295 164.385 284.216 163.988 284.062 163.618C283.908 163.247 283.683 162.911 283.399 162.627C283.116 162.344 282.779 162.119 282.408 161.966C282.038 161.812 281.641 161.734 281.24 161.734C280.839 161.734 280.442 161.814 280.071 161.967C279.701 162.121 279.365 162.346 279.081 162.63C278.798 162.914 278.573 163.251 278.42 163.622C278.267 163.992 278.188 164.39 278.189 164.791C278.189 165.601 278.511 166.378 279.084 166.95C279.657 167.523 280.434 167.844 281.244 167.844C282.054 167.843 282.83 167.521 283.402 166.947C283.975 166.374 284.296 165.597 284.295 164.787ZM485.387 200.198L480.192 203.951C480.113 204.006 480.046 204.076 479.994 204.157C479.942 204.238 479.907 204.329 479.891 204.423C479.874 204.518 479.877 204.616 479.899 204.709C479.921 204.803 479.961 204.892 480.017 204.97C480.074 205.048 480.145 205.114 480.227 205.164C480.31 205.214 480.401 205.247 480.496 205.261C480.591 205.275 480.688 205.27 480.782 205.246C480.875 205.222 480.962 205.18 481.039 205.122L486.235 201.369C486.315 201.314 486.382 201.244 486.434 201.163C486.486 201.082 486.521 200.991 486.537 200.896C486.553 200.802 486.551 200.704 486.529 200.611C486.507 200.517 486.467 200.428 486.41 200.35C486.354 200.272 486.283 200.206 486.2 200.156C486.118 200.106 486.027 200.073 485.932 200.059C485.836 200.045 485.739 200.05 485.646 200.074C485.553 200.097 485.465 200.14 485.389 200.198H485.387ZM132.264 192.309C134.808 193.603 137.2 195.176 139.396 196.999C139.544 197.121 139.734 197.18 139.925 197.162C140.116 197.144 140.292 197.051 140.414 196.904C140.537 196.756 140.596 196.566 140.578 196.375C140.56 196.184 140.467 196.008 140.32 195.885C138.04 193.995 135.557 192.363 132.918 191.019C132.748 190.94 132.554 190.931 132.377 190.992C132.2 191.054 132.054 191.182 131.969 191.349C131.884 191.516 131.868 191.71 131.923 191.889C131.978 192.068 132.1 192.219 132.264 192.31V192.309ZM241.016 78.9733C243.56 80.2683 245.952 81.8412 248.15 83.6632C248.223 83.7237 248.308 83.7691 248.398 83.7969C248.489 83.8248 248.585 83.8344 248.679 83.8254C248.774 83.8163 248.865 83.7887 248.949 83.7441C249.033 83.6996 249.107 83.6389 249.168 83.5656C249.228 83.4923 249.274 83.4079 249.302 83.317C249.329 83.2262 249.339 83.1307 249.33 83.0362C249.321 82.9416 249.293 82.8497 249.249 82.7658C249.204 82.6819 249.144 82.6076 249.07 82.5471C246.791 80.6576 244.309 79.0261 241.671 77.6823C241.5 77.6036 241.306 77.5941 241.129 77.6556C240.952 77.7171 240.806 77.8449 240.721 78.0121C240.636 78.1794 240.62 78.373 240.675 78.5522C240.73 78.7315 240.852 78.8824 241.016 78.9733Z" fill="#FF7500"/>
</svg>
