<svg width="140" height="52" viewBox="0 0 140 52" fill="none" xmlns="http://www.w3.org/2000/svg">
<rect x="0.933594" y="0.808594" width="139" height="51" rx="10" fill="url(#paint0_linear_2042_18)"/>
<path d="M20.9276 33.4706C19.7636 33.4706 18.7856 33.2906 17.9936 32.9306C17.2136 32.5706 16.6256 32.0666 16.2296 31.4186C15.8336 30.7706 15.6296 30.0326 15.6176 29.2046H18.0476C18.0596 29.6966 18.1676 30.1226 18.3716 30.4826C18.5876 30.8426 18.9116 31.1246 19.3436 31.3286C19.7756 31.5326 20.3336 31.6346 21.0176 31.6346C21.8336 31.6346 22.4876 31.4846 22.9796 31.1846C23.4716 30.8726 23.7176 30.4166 23.7176 29.8166C23.7176 29.4686 23.6636 29.1806 23.5556 28.9526C23.4476 28.7126 23.2676 28.5146 23.0156 28.3586C22.7636 28.2026 22.4276 28.0706 22.0076 27.9626C21.5996 27.8546 21.0836 27.7466 20.4596 27.6386C19.7156 27.5186 19.0556 27.3626 18.4796 27.1706C17.9156 26.9666 17.4416 26.7206 17.0576 26.4326C16.6736 26.1446 16.3856 25.7966 16.1936 25.3886C16.0016 24.9686 15.9056 24.4706 15.9056 23.8946C15.9056 23.1026 16.1036 22.4186 16.4996 21.8426C16.9076 21.2666 17.4836 20.8226 18.2276 20.5106C18.9716 20.1866 19.8596 20.0246 20.8916 20.0246C21.9116 20.0246 22.7816 20.1866 23.5016 20.5106C24.2336 20.8346 24.7976 21.2906 25.1936 21.8786C25.5896 22.4546 25.7876 23.1266 25.7876 23.8946H23.3936C23.3696 23.4266 23.2436 23.0426 23.0156 22.7426C22.7876 22.4306 22.4816 22.2026 22.0976 22.0586C21.7256 21.9146 21.2936 21.8426 20.8016 21.8426C20.2976 21.8426 19.8596 21.9146 19.4876 22.0586C19.1276 22.2026 18.8516 22.4066 18.6596 22.6706C18.4676 22.9226 18.3716 23.2286 18.3716 23.5886C18.3716 24.0326 18.4796 24.3746 18.6956 24.6146C18.9236 24.8426 19.2836 25.0226 19.7756 25.1546C20.2796 25.2866 20.9276 25.4186 21.7196 25.5506C22.2836 25.6466 22.8296 25.7666 23.3576 25.9106C23.8976 26.0546 24.3776 26.2706 24.7976 26.5586C25.2296 26.8346 25.5716 27.2186 25.8236 27.7106C26.0756 28.1906 26.2016 28.8146 26.2016 29.5826C26.2016 30.3506 26.0036 31.0286 25.6076 31.6166C25.2116 32.2046 24.6236 32.6606 23.8436 32.9846C23.0636 33.3086 22.0916 33.4706 20.9276 33.4706ZM30.8935 33.4706C30.1615 33.4706 29.5375 33.3266 29.0215 33.0386C28.5055 32.7506 28.1155 32.3246 27.8515 31.7606C27.5875 31.1846 27.4555 30.4886 27.4555 29.6726V23.7326H29.7055V29.0786C29.7055 29.6186 29.7775 30.0806 29.9215 30.4646C30.0655 30.8366 30.2875 31.1246 30.5875 31.3286C30.8875 31.5326 31.2775 31.6346 31.7575 31.6346C32.2375 31.6346 32.6515 31.5146 32.9995 31.2746C33.3595 31.0346 33.6355 30.7166 33.8275 30.3206C34.0195 29.9126 34.1155 29.4566 34.1155 28.9526V23.7326H36.3655V33.3086H34.2055L34.1155 31.4546H34.0075C33.7675 32.1026 33.3655 32.6006 32.8015 32.9486C32.2495 33.2966 31.6135 33.4706 30.8935 33.4706ZM43.616 33.4886C43.112 33.4886 42.65 33.4106 42.23 33.2546C41.81 33.0866 41.45 32.8586 41.15 32.5706C40.85 32.2706 40.622 31.9286 40.466 31.5446H40.34L40.25 33.3086H38.09V20.1866H40.34V25.4966H40.466C40.694 24.9206 41.084 24.4526 41.636 24.0926C42.188 23.7326 42.848 23.5526 43.616 23.5526C44.204 23.5526 44.732 23.6606 45.2 23.8766C45.68 24.0806 46.088 24.3926 46.424 24.8126C46.772 25.2326 47.036 25.7546 47.216 26.3786C47.396 26.9906 47.486 27.7046 47.486 28.5206C47.486 29.6006 47.324 30.5126 47 31.2566C46.688 31.9886 46.238 32.5466 45.65 32.9306C45.074 33.3026 44.396 33.4886 43.616 33.4886ZM42.788 31.6526C43.268 31.6526 43.688 31.5386 44.048 31.3106C44.408 31.0706 44.69 30.7226 44.894 30.2666C45.098 29.7986 45.2 29.2166 45.2 28.5206C45.2 27.9926 45.14 27.5366 45.02 27.1526C44.912 26.7566 44.75 26.4266 44.534 26.1626C44.318 25.8986 44.06 25.7066 43.76 25.5866C43.472 25.4546 43.148 25.3886 42.788 25.3886C42.26 25.3886 41.816 25.5146 41.456 25.7666C41.096 26.0186 40.82 26.3426 40.628 26.7386C40.448 27.1346 40.358 27.5606 40.358 28.0166V29.0246C40.358 29.4686 40.448 29.8886 40.628 30.2846C40.82 30.6806 41.096 31.0106 41.456 31.2746C41.816 31.5266 42.26 31.6526 42.788 31.6526ZM52.1968 33.4886C51.3448 33.4886 50.6128 33.3566 50.0008 33.0926C49.3888 32.8166 48.9148 32.4386 48.5788 31.9586C48.2548 31.4786 48.0928 30.9206 48.0928 30.2846H50.3068C50.3188 30.8366 50.5048 31.2386 50.8648 31.4906C51.2248 31.7426 51.6928 31.8686 52.2688 31.8686C52.8328 31.8686 53.2588 31.7666 53.5468 31.5626C53.8468 31.3466 53.9968 31.0526 53.9968 30.6806C53.9968 30.3806 53.9308 30.1526 53.7988 29.9966C53.6668 29.8286 53.4508 29.7026 53.1508 29.6186C52.8508 29.5226 52.4548 29.4386 51.9628 29.3666C51.1588 29.2466 50.4868 29.0846 49.9468 28.8806C49.4068 28.6646 49.0048 28.3706 48.7408 27.9986C48.4768 27.6266 48.3448 27.1346 48.3448 26.5226C48.3448 25.9226 48.5068 25.4006 48.8308 24.9566C49.1548 24.5126 49.6108 24.1706 50.1988 23.9306C50.7868 23.6786 51.4768 23.5526 52.2688 23.5526C53.0368 23.5526 53.7028 23.6786 54.2668 23.9306C54.8428 24.1706 55.2868 24.5186 55.5988 24.9746C55.9228 25.4186 56.0908 25.9526 56.1028 26.5766H53.8888C53.8888 26.2406 53.8168 25.9706 53.6728 25.7666C53.5408 25.5506 53.3488 25.3946 53.0968 25.2986C52.8448 25.2026 52.5508 25.1546 52.2148 25.1546C51.7108 25.1546 51.3148 25.2626 51.0268 25.4786C50.7388 25.6826 50.5948 25.9646 50.5948 26.3246C50.5948 26.5886 50.6668 26.8046 50.8108 26.9726C50.9668 27.1286 51.2128 27.2546 51.5488 27.3506C51.8848 27.4466 52.3168 27.5306 52.8448 27.6026C53.4208 27.6866 53.9188 27.7946 54.3388 27.9266C54.7708 28.0586 55.1308 28.2386 55.4188 28.4666C55.7068 28.6826 55.9228 28.9586 56.0668 29.2946C56.2228 29.6186 56.3008 30.0146 56.3008 30.4826C56.3008 31.4426 55.9228 32.1866 55.1668 32.7146C54.4228 33.2306 53.4328 33.4886 52.1968 33.4886ZM61.6834 33.4706C60.9754 33.4706 60.3334 33.3566 59.7574 33.1286C59.1814 32.8886 58.6834 32.5526 58.2634 32.1206C57.8434 31.6766 57.5254 31.1546 57.3094 30.5546C57.0934 29.9426 56.9854 29.2646 56.9854 28.5206C56.9854 27.5126 57.1774 26.6426 57.5614 25.9106C57.9574 25.1666 58.5094 24.5906 59.2174 24.1826C59.9374 23.7626 60.7834 23.5526 61.7554 23.5526C62.5594 23.5526 63.2734 23.7026 63.8974 24.0026C64.5214 24.3026 65.0194 24.7226 65.3914 25.2626C65.7754 25.7906 65.9854 26.4086 66.0214 27.1166H63.8254C63.7654 26.7446 63.6334 26.4326 63.4294 26.1806C63.2374 25.9286 62.9914 25.7366 62.6914 25.6046C62.3914 25.4726 62.0614 25.4066 61.7014 25.4066C61.1854 25.4066 60.7414 25.5386 60.3694 25.8026C59.9974 26.0546 59.7154 26.4146 59.5234 26.8826C59.3434 27.3506 59.2534 27.8966 59.2534 28.5206C59.2534 29.2046 59.3554 29.7746 59.5594 30.2306C59.7634 30.6866 60.0454 31.0346 60.4054 31.2746C60.7774 31.5026 61.2034 31.6166 61.6834 31.6166C62.1034 31.6166 62.4694 31.5446 62.7814 31.4006C63.0934 31.2446 63.3394 31.0346 63.5194 30.7706C63.7114 30.4946 63.8254 30.1826 63.8614 29.8346H66.0574C66.0094 30.5666 65.7934 31.2086 65.4094 31.7606C65.0254 32.3006 64.5154 32.7206 63.8794 33.0206C63.2434 33.3206 62.5114 33.4706 61.6834 33.4706ZM67.2099 33.3086V23.7326H69.2439L69.3519 25.3346H69.4239C69.6399 24.7226 69.9879 24.2846 70.4679 24.0206C70.9599 23.7446 71.5179 23.6066 72.1419 23.6066C72.2499 23.6066 72.3459 23.6066 72.4299 23.6066C72.5259 23.6066 72.6159 23.6066 72.6999 23.6066V25.7306C72.6279 25.7306 72.5379 25.7306 72.4299 25.7306C72.3339 25.7186 72.2259 25.7126 72.1059 25.7126C71.5299 25.7126 71.0499 25.8086 70.6659 26.0006C70.2819 26.1806 69.9879 26.4446 69.7839 26.7926C69.5919 27.1406 69.4839 27.5666 69.4599 28.0706V33.3086H67.2099ZM73.5708 33.3086V23.7326H75.8208V33.3086H73.5708ZM73.5708 22.3826V20.1866H75.8208V22.3826H73.5708ZM83.1726 33.4886C82.6686 33.4886 82.2066 33.4106 81.7866 33.2546C81.3666 33.0866 81.0066 32.8586 80.7066 32.5706C80.4066 32.2706 80.1786 31.9286 80.0226 31.5446H79.8966L79.8066 33.3086H77.6466V20.1866H79.8966V25.4966H80.0226C80.2506 24.9206 80.6406 24.4526 81.1926 24.0926C81.7446 23.7326 82.4046 23.5526 83.1726 23.5526C83.7606 23.5526 84.2886 23.6606 84.7566 23.8766C85.2366 24.0806 85.6446 24.3926 85.9806 24.8126C86.3286 25.2326 86.5926 25.7546 86.7726 26.3786C86.9526 26.9906 87.0426 27.7046 87.0426 28.5206C87.0426 29.6006 86.8806 30.5126 86.5566 31.2566C86.2446 31.9886 85.7946 32.5466 85.2066 32.9306C84.6306 33.3026 83.9526 33.4886 83.1726 33.4886ZM82.3446 31.6526C82.8246 31.6526 83.2446 31.5386 83.6046 31.3106C83.9646 31.0706 84.2466 30.7226 84.4506 30.2666C84.6546 29.7986 84.7566 29.2166 84.7566 28.5206C84.7566 27.9926 84.6966 27.5366 84.5766 27.1526C84.4686 26.7566 84.3066 26.4266 84.0906 26.1626C83.8746 25.8986 83.6166 25.7066 83.3166 25.5866C83.0286 25.4546 82.7046 25.3886 82.3446 25.3886C81.8166 25.3886 81.3726 25.5146 81.0126 25.7666C80.6526 26.0186 80.3766 26.3426 80.1846 26.7386C80.0046 27.1346 79.9146 27.5606 79.9146 28.0166V29.0246C79.9146 29.4686 80.0046 29.8886 80.1846 30.2846C80.3766 30.6806 80.6526 31.0106 81.0126 31.2746C81.3726 31.5266 81.8166 31.6526 82.3446 31.6526ZM92.4152 33.4706C91.4432 33.4706 90.6152 33.2726 89.9312 32.8766C89.2592 32.4686 88.7432 31.8986 88.3832 31.1666C88.0232 30.4226 87.8432 29.5586 87.8432 28.5746C87.8432 27.5546 88.0232 26.6726 88.3832 25.9286C88.7432 25.1726 89.2592 24.5906 89.9312 24.1826C90.6032 23.7746 91.4012 23.5706 92.3252 23.5706C93.3812 23.5706 94.2452 23.8046 94.9172 24.2726C95.6012 24.7286 96.0932 25.3646 96.3932 26.1806C96.6932 26.9966 96.7952 27.9326 96.6992 28.9886H90.0392C90.0392 29.6006 90.1352 30.1166 90.3272 30.5366C90.5312 30.9446 90.8072 31.2566 91.1552 31.4726C91.5152 31.6766 91.9352 31.7786 92.4152 31.7786C92.9792 31.7786 93.4472 31.6466 93.8192 31.3826C94.1912 31.1066 94.4312 30.7526 94.5392 30.3206H96.6452C96.5732 30.9686 96.3452 31.5326 95.9612 32.0126C95.5772 32.4806 95.0792 32.8406 94.4672 33.0926C93.8552 33.3446 93.1712 33.4706 92.4152 33.4706ZM90.0392 27.7826L89.8412 27.5486H94.7192L94.5032 27.8006C94.5272 27.2126 94.4492 26.7326 94.2692 26.3606C94.0892 25.9886 93.8312 25.7126 93.4952 25.5326C93.1592 25.3526 92.7692 25.2626 92.3252 25.2626C91.8692 25.2626 91.4732 25.3586 91.1372 25.5506C90.8012 25.7426 90.5372 26.0306 90.3452 26.4146C90.1532 26.7866 90.0512 27.2426 90.0392 27.7826Z" fill="#FF7500"/>
<path d="M118.758 21.1348L119.316 20.5762C119.57 20.3477 119.951 20.3477 120.18 20.5762L125.131 25.502C125.359 25.7559 125.359 26.1367 125.131 26.3652L120.18 31.3164C119.951 31.5449 119.57 31.5449 119.316 31.3164L118.758 30.7578C118.529 30.5039 118.529 30.123 118.758 29.8691L121.83 26.9492H114.543C114.188 26.9492 113.934 26.6953 113.934 26.3398V25.5273C113.934 25.1973 114.188 24.918 114.543 24.918H121.83L118.758 22.0234C118.529 21.7695 118.504 21.3887 118.758 21.1348Z" fill="#FF7500"/>
<defs>
<linearGradient id="paint0_linear_2042_18" x1="70.4336" y1="0.808594" x2="70.4336" y2="51.8086" gradientUnits="userSpaceOnUse">
<stop stop-color="#292E34"/>
<stop offset="1" stop-color="#16191C"/>
</linearGradient>
</defs>
</svg>
