<svg width="1920" height="922" viewBox="0 0 1920 922" fill="none" xmlns="http://www.w3.org/2000/svg">
<g opacity="0.3">
<path d="M33.658 2.84281C28.1939 191.498 91.9531 381.415 210.413 529.315C244.116 571.392 283.823 611.328 334.492 630.473C480.902 685.784 640.519 574.082 765.715 511.322C916.799 435.592 1066.26 356.056 1223.28 292.716C1311.42 257.155 1414.72 227.521 1498.47 272.368C1583.27 317.785 1613.9 420.336 1647.61 509.776C1686.88 613.996 1741.78 714.72 1823.74 790.8C1905.71 866.88 2017.55 916.063 2129.42 906.083C2217.03 898.266 2297.53 855.873 2371.22 808.324C2564.83 683.382 2730.48 516.235 2852.99 322.204" stroke="#83848C" stroke-opacity="0.2" stroke-width="0.692997" stroke-miterlimit="10"/>
<path d="M28.7232 10.9087C23.8904 177.644 80.0051 341.998 182.368 483.998C191.874 497.186 201.67 510.164 211.908 522.801C245.57 564.311 284.94 603.742 334.885 623.015C479.331 678.817 636.427 573.066 761.406 512.64C872.208 459.066 982.295 402.367 1096.15 351.316C1135.65 333.529 1175.47 316.434 1215.78 300.36C1303.21 265.501 1405.28 236.267 1488.44 279.085C1572.64 322.444 1604.4 421.07 1639.15 507.054C1679.65 607.24 1735.28 704.106 1817.14 777.311C1845.64 802.798 1877.66 825.151 1911.97 843.059C1976.16 876.587 2048.41 894.575 2120.65 888.413C2207.43 881.012 2287.32 840.387 2360.5 795.061C2508.65 703.365 2640.21 588.541 2749.42 455.457C2782 415.747 2812.59 374.421 2841.02 331.586" stroke="#83848C" stroke-opacity="0.2" stroke-width="0.692997" stroke-miterlimit="10"/>
<path d="M23.7909 18.9659C19.1175 180.143 78.5623 335.516 183.899 478.072C193.463 491.008 203.202 503.821 213.406 516.271C247.034 557.207 286.06 596.141 335.289 615.548C477.778 671.849 632.331 572.042 757.1 513.942C866.702 462.906 975.806 407.744 1089.57 357.815C1128.78 340.462 1168.3 323.741 1208.28 307.989C1295 273.823 1395.86 244.997 1478.41 285.786C1562 327.093 1594.91 421.796 1630.69 504.315C1672.41 600.468 1728.78 693.477 1810.53 763.799C1839 788.28 1870.87 809.759 1904.97 826.963C1968.73 859.187 2040.31 876.538 2111.87 870.72C2197.82 863.727 2277.09 824.876 2349.77 781.782C2496.96 694.624 2627.55 586.228 2736.94 459.364C2769.58 421.509 2800.33 382.025 2829.03 340.952" stroke="#83848C" stroke-opacity="0.2" stroke-width="0.692997" stroke-miterlimit="10"/>
<path d="M18.8545 27.0299C14.3479 182.649 77.0778 329.04 185.427 472.152C195.04 484.851 204.722 497.492 214.893 509.748C248.478 550.117 287.176 588.538 335.673 608.081C476.197 664.872 628.193 571.009 752.781 515.251C861.163 466.745 969.412 413.39 1082.98 364.314C1121.94 347.477 1161.12 331.047 1200.78 315.616C1286.79 282.151 1386.42 253.727 1468.37 292.486C1551.35 331.742 1585.39 422.514 1622.22 501.576C1665.16 593.695 1722.26 682.847 1803.9 750.293C1832.35 773.768 1864.07 794.374 1897.94 810.881C1961.28 841.802 2032.19 858.514 2103.07 853.033C2188.2 846.449 2266.85 809.373 2339.02 768.51C2485.26 685.882 2614.87 583.922 2724.45 463.27C2757.15 427.27 2788.05 389.628 2817.02 350.31" stroke="#83848C" stroke-opacity="0.2" stroke-width="0.692997" stroke-miterlimit="10"/>
<path d="M13.928 35.0882C9.58082 185.149 75.5659 322.572 186.972 466.227C196.635 478.681 206.267 491.158 216.404 503.219C249.956 543.015 288.31 580.937 336.082 600.615C474.642 657.897 624.066 569.963 748.488 516.554C855.633 470.563 962.971 418.851 1076.43 370.815C1115.1 354.434 1153.96 338.356 1193.29 323.246C1278.59 290.474 1377 262.451 1458.35 299.189C1540.73 336.386 1575.9 423.234 1613.77 498.839C1657.95 586.924 1715.78 672.227 1797.32 736.789C1825.73 759.267 1857.3 778.991 1890.96 794.802C1953.87 824.411 2024.11 840.485 2094.32 835.356C2178.62 829.188 2256.65 793.879 2328.32 755.247C2473.6 677.158 2602.23 581.625 2712.01 467.194C2744.77 433.049 2775.83 397.248 2805.07 359.693" stroke="#83848C" stroke-opacity="0.2" stroke-width="0.692997" stroke-miterlimit="10"/>
<path d="M8.9993 43.1513C4.81143 187.654 74.0209 316.116 188.507 460.307C198.212 472.524 207.803 484.82 217.898 496.695C251.408 535.924 289.434 573.341 336.481 593.147C473.078 650.92 619.906 568.906 744.186 517.854C850.08 474.356 956.506 424.301 1069.85 377.305C1108.25 361.381 1146.79 345.653 1185.79 330.865C1270.38 298.795 1367.57 271.172 1448.32 305.881C1530.09 341.027 1566.39 423.943 1605.32 496.092C1650.71 580.151 1709.27 661.588 1790.71 723.268C1819.09 744.74 1850.52 763.59 1883.96 778.704C1946.43 807.01 2016.02 822.446 2085.54 817.654C2169.01 811.894 2246.42 778.353 2317.59 741.952C2461.91 668.393 2589.57 579.296 2699.54 471.077C2732.35 438.787 2763.57 404.828 2793.09 369.035" stroke="#83848C" stroke-opacity="0.2" stroke-width="0.692997" stroke-miterlimit="10"/>
<path d="M4.05986 51.2167C0.0313362 190.161 72.4201 309.684 190.032 454.396C199.771 466.375 209.32 478.5 219.389 490.18C252.857 528.835 290.547 565.755 336.87 585.695C471.509 643.959 615.713 567.859 739.872 519.179C844.493 478.158 950.037 429.776 1063.27 383.828C1101.39 368.36 1139.62 352.984 1178.29 338.524C1262.16 307.147 1358.13 279.933 1438.29 312.613C1519.45 345.707 1556.89 424.692 1596.85 493.384C1643.48 573.409 1702.77 650.989 1784.1 709.793C1812.45 730.259 1843.73 748.236 1876.96 762.646C1939.01 789.648 2007.92 804.447 2076.76 799.998C2159.41 794.647 2236.21 762.881 2306.86 728.711C2450.22 659.689 2576.92 577.022 2687.07 475.022C2719.95 444.587 2751.31 412.47 2781.1 378.439" stroke="#83848C" stroke-opacity="0.2" stroke-width="0.692997" stroke-miterlimit="10"/>
<path d="M-0.871579 59.2738C-4.73324 192.661 70.797 303.25 191.571 448.469C201.346 460.219 210.861 472.164 220.888 483.65C254.322 521.739 291.675 558.153 337.274 578.221C469.949 636.983 611.521 566.766 735.567 520.474C838.9 481.914 943.562 435.213 1056.7 390.312C1094.54 375.293 1132.45 360.283 1170.8 346.137C1253.96 315.461 1348.7 288.648 1428.26 319.299C1508.82 350.334 1547.39 425.402 1588.39 490.631C1636.24 566.622 1696.26 640.345 1777.49 696.265C1805.8 715.733 1836.94 732.829 1869.95 746.543C1931.56 772.241 1999.82 786.394 2067.98 782.29C2149.8 777.354 2225.98 747.355 2296.14 715.417C2438.54 650.926 2564.26 574.694 2674.61 478.907C2707.54 450.327 2739.07 420.051 2769.13 387.783" stroke="#83848C" stroke-opacity="0.2" stroke-width="0.692997" stroke-miterlimit="10"/>
<path d="M-5.80707 67.3391C-9.50939 195.168 69.124 296.846 193.1 442.551C202.901 454.07 212.382 465.829 222.383 477.128C255.775 514.643 292.792 550.552 337.667 570.755C468.377 630.008 607.288 565.673 731.257 521.784C833.28 485.663 937.091 440.665 1050.12 396.82C1087.67 382.257 1125.27 367.598 1163.3 353.774C1245.74 323.791 1339.27 297.386 1418.23 326.001C1498.18 354.984 1537.89 426.122 1579.94 487.893C1629.01 559.85 1689.77 629.717 1770.89 682.761C1799.16 701.224 1830.16 717.445 1862.95 730.463C1924.13 754.85 1991.72 768.372 2059.21 764.605C2140.2 760.078 2215.76 731.854 2285.42 702.139C2426.86 642.186 2551.61 572.382 2662.14 482.815C2695.14 456.09 2726.82 427.664 2757.16 397.142" stroke="#83848C" stroke-opacity="0.2" stroke-width="0.692997" stroke-miterlimit="10"/>
<path d="M-10.735 75.4038C-14.278 197.674 67.4284 290.463 194.636 436.632C204.464 447.921 213.918 459.5 223.878 470.605C257.236 507.554 293.916 542.958 338.059 563.295C466.813 623.039 603.047 564.564 726.948 523.093C827.646 489.389 930.612 446.102 1043.54 403.319C1080.82 389.198 1118.1 374.905 1155.8 361.402C1237.53 332.12 1329.84 306.116 1408.2 332.702C1487.54 359.634 1528.39 426.84 1571.48 485.155C1621.78 553.078 1683.27 619.087 1764.28 669.249C1792.52 686.706 1823.38 702.053 1855.95 714.374C1916.71 737.458 1983.63 750.334 2050.43 746.919C2130.59 742.808 2205.54 716.351 2274.69 688.868C2415.17 633.444 2538.94 570.077 2649.67 486.723C2682.72 461.852 2714.56 435.267 2745.16 406.508" stroke="#83848C" stroke-opacity="0.2" stroke-width="0.692997" stroke-miterlimit="10"/>
<path d="M-15.6692 83.46C-19.0528 200.172 65.6887 284.086 196.173 430.712C206.02 441.778 215.448 453.171 225.381 464.089C258.698 500.464 295.042 535.37 338.468 555.835C465.258 616.07 598.793 563.439 722.654 524.41C822.014 493.099 924.141 451.545 1036.99 409.833C1073.97 396.16 1110.95 382.226 1148.32 369.044C1229.34 340.456 1320.42 314.861 1398.19 339.418C1476.92 364.298 1518.9 427.572 1563.04 482.431C1614.55 546.32 1676.78 608.472 1757.69 655.758C1785.9 672.217 1816.62 686.691 1848.97 698.308C1909.29 720.088 1975.55 732.326 2041.67 729.247C2121.02 725.545 2195.33 700.863 2263.98 675.611C2403.51 624.725 2526.31 567.793 2637.23 490.652C2670.33 467.636 2702.33 442.893 2733.21 415.896" stroke="#83848C" stroke-opacity="0.2" stroke-width="0.692997" stroke-miterlimit="10"/>
<path d="M-20.5986 91.5256C-23.8229 202.68 63.9153 277.747 197.707 424.795C207.574 435.637 216.983 446.836 226.875 457.568C260.157 493.375 296.165 527.776 338.859 548.377C463.685 609.102 594.507 562.285 718.343 525.72C816.341 496.78 917.653 456.983 1030.4 416.333C1067.1 403.101 1103.77 389.534 1140.81 376.673C1221.12 348.786 1310.98 323.584 1388.15 346.119C1466.27 368.941 1509.38 428.299 1554.56 479.686C1607.31 539.549 1670.26 597.836 1751.06 642.246C1779.24 657.699 1809.81 671.299 1841.95 682.212C1901.84 702.688 1967.43 714.289 2032.87 711.555C2111.4 708.26 2185.1 685.354 2253.24 662.325C2391.8 615.97 2513.63 565.474 2624.74 494.552C2657.91 473.391 2690.06 450.49 2721.21 425.255" stroke="#83848C" stroke-opacity="0.2" stroke-width="0.692997" stroke-miterlimit="10"/>
<path d="M-25.5267 99.5819C-28.5841 205.178 62.1055 271.428 199.243 418.867C209.122 429.487 218.496 440.521 228.377 451.037C261.549 486.336 297.29 520.166 339.26 540.901C462.12 602.125 590.215 561.1 714.034 527.013C810.664 500.415 911.167 462.389 1023.83 422.824C1060.24 410.034 1096.6 396.84 1133.32 384.301C1212.91 357.107 1301.55 332.313 1378.12 352.82C1455.64 373.59 1499.88 429.016 1546.11 476.946C1600.08 532.776 1663.76 587.205 1744.46 628.733C1772.6 643.18 1803.03 655.906 1834.95 666.123C1894.41 685.288 1959.34 696.25 2024.09 693.86C2101.79 690.982 2174.87 669.842 2242.51 649.045C2380.12 607.227 2500.97 563.16 2612.27 498.451C2645.49 479.144 2677.8 458.086 2709.22 434.606" stroke="#83848C" stroke-opacity="0.2" stroke-width="0.692997" stroke-miterlimit="10"/>
<path d="M-30.4652 107.647C-33.3633 207.685 60.2469 265.146 200.776 412.949C210.666 423.353 220.022 434.186 229.869 444.515C262.999 479.247 298.411 512.572 339.657 533.442C460.561 595.157 585.898 559.894 709.728 528.331C804.968 504.051 904.685 467.819 1017.25 429.332C1053.37 416.982 1089.42 404.155 1125.82 391.937C1204.7 365.445 1292.12 341.052 1368.09 359.529C1445 378.248 1490.38 429.743 1537.65 474.216C1592.84 526.012 1657.26 576.584 1737.85 615.236C1765.97 628.685 1796.24 640.53 1827.96 650.05C1886.98 667.912 1951.25 678.236 2015.33 676.19C2092.19 673.72 2164.65 654.356 2231.79 635.79C2368.44 598.502 2488.32 560.87 2599.82 502.382C2633.1 484.93 2665.56 465.713 2697.26 443.995" stroke="#83848C" stroke-opacity="0.2" stroke-width="0.692997" stroke-miterlimit="10"/>
<path d="M-35.3927 115.712C-38.1315 210.192 58.3609 258.894 202.312 407.031C212.214 417.219 221.559 427.858 231.372 437.993C264.46 472.159 299.536 504.978 340.057 525.976C458.997 588.182 581.57 558.657 705.427 529.633C799.269 507.642 898.192 473.226 1010.68 435.832C1046.51 423.924 1082.26 411.463 1118.33 399.566C1196.5 373.767 1282.69 349.782 1358.07 366.231C1434.37 382.89 1480.89 430.462 1529.2 471.479C1585.62 519.24 1650.77 565.956 1731.26 601.724C1759.34 614.168 1789.47 625.139 1820.97 633.962C1879.56 650.52 1943.16 660.206 2006.56 658.497C2082.6 656.436 2154.45 638.846 2221.09 622.504C2356.77 589.754 2475.68 558.551 2587.37 506.275C2620.7 490.678 2653.33 473.303 2685.29 453.347" stroke="#83848C" stroke-opacity="0.2" stroke-width="0.692997" stroke-miterlimit="10"/>
<path d="M-40.332 123.769C-42.9114 212.691 56.4253 252.671 203.837 401.112C213.743 411.084 223.076 421.53 232.855 431.47C265.901 465.069 300.649 497.384 340.446 518.517C457.421 581.213 577.208 557.39 701.113 530.95C793.543 511.225 891.695 478.64 1004.1 442.339C1039.65 430.864 1075.09 418.777 1110.82 407.202C1188.28 382.104 1273.25 358.52 1348.03 372.939C1423.73 387.547 1471.38 431.195 1520.73 468.748C1578.38 512.475 1644.27 555.334 1724.64 588.227C1752.69 599.664 1782.67 609.762 1813.96 617.881C1872.12 633.136 1935.06 642.176 1997.77 640.811C2072.98 639.166 2144.21 623.344 2210.35 609.233C2345.07 581.013 2463.01 556.246 2574.88 510.189C2608.28 496.455 2641.06 480.922 2673.3 462.721" stroke="#83848C" stroke-opacity="0.2" stroke-width="0.692997" stroke-miterlimit="10"/>
<path d="M-45.2631 131.834C-47.6756 215.198 54.4594 246.491 205.377 395.193C215.287 404.957 224.617 415.201 234.362 424.947C267.374 457.973 301.825 489.708 340.851 511.05C455.994 574.009 572.856 556.078 696.816 532.252C787.827 514.755 885.206 484.032 997.534 448.838C1032.78 437.797 1067.93 426.084 1103.33 414.83C1180.08 390.426 1263.82 367.25 1338.01 379.64C1413.11 392.197 1461.88 431.913 1512.27 466.009C1571.14 505.703 1637.76 544.704 1718.03 574.714C1746.05 585.153 1775.89 594.37 1806.96 601.793C1864.69 615.736 1926.96 624.145 1989 623.125C2063.39 621.888 2134 607.841 2199.62 595.961C2333.39 572.279 2450.35 553.94 2562.42 514.097C2595.88 502.217 2628.82 488.526 2661.33 472.079" stroke="#83848C" stroke-opacity="0.2" stroke-width="0.692997" stroke-miterlimit="10"/>
<path d="M-50.1953 139.891C-52.4485 217.696 52.4613 240.34 206.909 389.266C216.823 398.822 226.149 408.857 235.853 418.417C268.823 450.876 302.937 482.106 341.239 503.575C454.418 567.032 568.48 554.727 692.494 533.546C782.073 518.247 878.693 489.408 990.948 455.322C1025.9 444.707 1060.74 433.375 1095.83 422.443C1171.86 398.739 1254.39 375.965 1327.98 386.319C1402.47 396.817 1452.37 432.608 1503.81 463.248C1563.91 498.908 1631.26 534.052 1711.43 561.186C1739.41 570.62 1769.11 578.962 1799.96 585.689C1857.25 598.328 1918.86 606.092 1980.22 605.417C2053.79 604.596 2123.77 592.308 2188.9 582.659C2321.71 563.508 2437.7 551.605 2549.95 517.981C2583.47 507.956 2616.55 496.107 2649.34 481.422" stroke="#83848C" stroke-opacity="0.2" stroke-width="0.692997" stroke-miterlimit="10"/>
<path d="M-55.1299 147.955C-57.2239 220.21 50.4154 234.233 208.446 383.347C218.356 392.694 227.679 402.529 237.356 411.894C270.292 443.779 304.07 474.511 341.648 496.115C452.87 560.064 564.111 553.34 688.201 534.863C776.339 521.733 872.209 494.799 984.382 461.837C1019.04 451.648 1053.58 440.704 1088.34 430.086C1163.66 407.076 1244.96 384.702 1317.95 393.035C1391.84 401.481 1442.88 433.341 1495.36 460.525C1556.68 492.158 1624.76 523.445 1704.83 547.696C1732.78 556.124 1762.33 563.592 1792.97 569.623C1849.84 580.958 1910.78 588.084 1971.46 587.753C2044.19 587.34 2113.56 576.828 2178.18 569.41C2310.03 554.796 2425.06 549.329 2537.5 521.91C2571.07 513.74 2604.31 503.733 2637.37 490.811" stroke="#83848C" stroke-opacity="0.2" stroke-width="0.692997" stroke-miterlimit="10"/>
<path d="M-60.067 156.02C-62.0016 222.717 48.336 228.178 209.972 377.436C219.879 386.582 229.206 396.201 238.842 405.379C271.736 436.698 305.178 466.925 342.031 488.656C451.289 553.103 559.709 551.916 683.882 536.173C770.581 525.181 865.692 500.169 977.798 468.336C1012.17 458.574 1046.41 448.012 1080.83 437.722C1155.44 415.413 1235.52 393.44 1307.92 399.744C1381.19 406.138 1433.37 434.075 1486.9 457.794C1549.44 485.394 1618.25 512.824 1698.21 534.191C1726.13 541.621 1755.53 548.209 1785.95 553.535C1842.39 563.567 1902.67 570.055 1962.66 570.06C2034.57 570.056 2103.32 561.318 2167.44 556.132C2298.33 546.048 2412.38 547.017 2525.02 525.818C2558.64 519.503 2592.05 511.337 2625.38 500.177" stroke="#83848C" stroke-opacity="0.2" stroke-width="0.692997" stroke-miterlimit="10"/>
<path d="M-64.9911 164.078C-66.7589 225.217 46.2233 222.16 211.512 371.51C221.415 380.455 230.746 389.865 240.348 398.849C273.208 429.594 306.314 459.323 342.435 481.189C449.736 546.135 555.321 550.433 679.584 537.482C764.836 528.6 859.195 505.539 971.234 474.844C1005.31 465.507 1039.24 455.327 1073.34 445.358C1147.24 423.743 1226.1 402.178 1297.89 406.452C1370.56 410.788 1423.87 434.801 1478.44 455.064C1542.22 478.629 1611.76 502.202 1691.61 520.694C1719.49 527.118 1748.75 532.832 1778.96 537.461C1834.96 546.182 1894.58 552.032 1953.89 552.389C2024.97 552.801 2093.11 545.83 2156.72 542.868C2286.65 537.322 2399.73 544.719 2512.56 529.74C2546.24 525.28 2579.8 518.956 2613.4 509.558" stroke="#83848C" stroke-opacity="0.2" stroke-width="0.692997" stroke-miterlimit="10"/>
<path d="M-69.9214 172.143C-71.5299 227.724 44.0736 216.193 213.053 365.591C222.945 374.343 232.28 383.537 241.848 392.327C274.674 422.498 307.39 451.796 342.841 473.723C448.045 539.373 550.936 548.897 675.287 538.785C759.094 531.974 852.693 510.894 964.665 481.336C998.445 472.419 1032.08 462.627 1065.85 452.979C1139.03 432.065 1216.67 410.901 1287.87 413.147C1359.93 415.431 1414.37 435.513 1469.98 452.318C1534.98 471.85 1605.26 491.566 1685 507.175C1712.85 512.593 1741.97 517.433 1771.96 521.366C1827.53 528.783 1886.48 533.995 1945.12 534.689C2015.38 535.509 2082.89 530.314 2146 529.582C2274.98 528.567 2387.08 542.4 2500.1 533.634C2533.84 531.028 2567.55 526.553 2601.43 518.903" stroke="#83848C" stroke-opacity="0.2" stroke-width="0.692997" stroke-miterlimit="10"/>
<path d="M-74.8593 180.199C-76.3084 230.222 41.878 210.269 214.579 359.664C224.468 368.215 233.806 377.193 243.34 385.796C276.133 415.393 308.512 444.193 343.231 466.256C446.471 532.404 546.537 547.308 670.968 540.086C753.329 535.31 846.168 516.232 958.08 487.835C991.567 479.336 1024.9 469.933 1058.35 460.607C1130.82 440.386 1207.24 419.631 1277.83 419.847C1349.29 420.08 1404.87 436.23 1461.52 449.58C1527.74 465.078 1598.76 480.936 1678.4 493.669C1706.22 498.09 1735.18 502.055 1764.96 505.285C1820.1 511.398 1878.39 515.972 1936.34 517.002C2005.77 518.231 2072.66 514.811 2135.27 516.31C2263.29 519.833 2374.42 540.094 2487.63 537.548C2521.43 536.797 2555.3 534.164 2589.45 528.276" stroke="#83848C" stroke-opacity="0.2" stroke-width="0.692997" stroke-miterlimit="10"/>
<path d="M-79.7877 188.264C-81.0775 232.728 39.6602 204.412 216.114 353.753C225.991 362.109 235.342 370.872 244.835 379.281C277.593 408.304 309.628 436.606 343.63 458.796C444.906 525.435 542.156 545.668 666.665 541.403C747.59 538.631 839.66 521.586 951.513 494.342C984.705 486.262 1017.73 477.255 1050.85 468.242C1122.61 448.723 1197.81 428.368 1267.81 426.556C1338.66 424.73 1395.37 436.963 1453.07 446.849C1520.52 458.313 1592.26 470.314 1671.79 480.164C1699.58 483.579 1728.4 486.671 1757.96 489.196C1812.68 494.006 1870.29 497.934 1927.56 499.316C1996.17 500.961 2062.44 499.308 2124.55 503.039C2251.61 511.091 2361.76 537.789 2475.16 541.455C2509.02 542.559 2543.05 541.768 2577.47 537.642" stroke="#83848C" stroke-opacity="0.2" stroke-width="0.692997" stroke-miterlimit="10"/>
<path d="M-84.724 196.329C-85.8544 235.235 37.3888 198.606 217.65 347.834C227.515 356.004 236.893 364.522 246.336 372.759C279.114 401.149 310.759 429.012 344.03 451.329C443.349 518.459 537.775 543.961 662.362 542.705C741.85 541.908 833.152 526.903 944.937 500.842C977.829 493.172 1010.57 484.562 1043.36 475.871C1114.4 457.045 1188.38 437.099 1257.78 433.257C1328.02 429.38 1385.87 437.682 1444.62 444.11C1513.28 451.548 1585.76 459.685 1665.19 466.659C1692.95 469.068 1721.62 471.286 1750.96 473.115C1805.24 476.614 1862.19 479.911 1918.79 481.631C1986.57 483.684 2052.23 483.805 2113.83 489.76C2239.93 502.351 2349.11 535.476 2462.7 545.362C2496.62 548.321 2530.8 549.372 2565.49 547.008" stroke="#83848C" stroke-opacity="0.2" stroke-width="0.692997" stroke-miterlimit="10"/>
<path d="M-89.6568 204.386C-90.6203 237.735 35.0897 192.852 219.181 341.908C229.035 349.885 238.417 358.179 247.826 366.236C280.562 394.053 311.871 421.41 344.417 443.87C441.772 511.491 533.407 542.195 658.048 544.023C736.115 545.164 826.633 532.236 938.358 507.349C970.955 500.091 1003.39 491.877 1035.85 483.515C1106.18 465.39 1178.93 445.837 1247.75 439.974C1317.38 434.045 1376.36 438.416 1436.15 441.388C1506.05 444.792 1579.25 449.071 1658.58 453.17C1686.3 454.581 1714.83 455.917 1743.95 457.05C1797.81 459.245 1854.1 461.897 1910.02 463.968C1976.97 466.429 2042.01 468.326 2103.1 476.512C2228.24 493.632 2336.45 533.194 2450.24 549.293C2484.21 554.107 2518.55 556.999 2553.51 556.39" stroke="#83848C" stroke-opacity="0.2" stroke-width="0.692997" stroke-miterlimit="10"/>
<path d="M-94.5928 212.451C-95.397 240.242 32.7559 187.165 220.709 335.99C230.551 343.78 239.945 351.851 249.321 359.714C282.023 386.964 312.995 413.816 344.817 436.404C440.207 504.516 529.067 540.363 653.745 545.325C730.408 548.375 820.126 537.539 931.783 513.849C964.087 506.995 996.221 499.185 1028.36 491.143C1097.98 473.712 1169.51 454.568 1237.72 446.668C1306.75 438.688 1366.87 439.127 1427.69 438.642C1498.81 438.013 1572.75 438.435 1651.97 439.65C1679.67 440.056 1708.05 440.519 1736.96 440.954C1790.38 441.846 1846 443.86 1901.24 446.267C1967.36 449.145 2031.79 452.809 2092.37 463.226C2216.55 484.884 2323.79 530.882 2437.76 553.193C2471.79 559.862 2506.3 564.596 2541.53 565.749" stroke="#83848C" stroke-opacity="0.2" stroke-width="0.692997" stroke-miterlimit="10"/>
<path d="M-99.5205 220.508C-100.165 242.74 30.3841 181.535 222.252 330.063C232.076 337.666 241.489 345.515 250.823 353.183C283.484 379.859 314.12 406.214 345.218 428.936C438.644 497.546 524.752 538.463 649.436 546.626C724.709 551.555 813.605 542.832 925.208 520.34C957.212 513.89 989.053 506.483 1020.86 498.763C1089.77 482.033 1160.08 463.29 1227.69 453.361C1296.11 443.322 1357.37 439.845 1419.24 435.896C1491.58 431.232 1566.26 427.797 1645.37 426.137C1673.03 425.537 1701.27 425.126 1729.97 424.865C1782.96 424.453 1837.92 425.829 1892.47 428.581C1957.78 431.867 2021.57 437.306 2081.66 449.946C2204.88 476.135 2311.14 528.568 2425.31 557.099C2459.4 565.623 2494.05 572.199 2529.56 575.115" stroke="#83848C" stroke-opacity="0.2" stroke-width="0.692997" stroke-miterlimit="10"/>
<path d="M-104.456 228.573C-104.942 245.247 27.9804 175.98 223.78 324.151C233.592 331.576 243.01 339.186 252.317 346.668C284.944 372.778 315.244 398.627 345.609 421.477C437.079 490.578 520.459 536.504 645.126 547.943C719.025 554.722 807.083 548.127 918.633 526.855C950.343 520.808 981.875 513.813 1013.36 506.407C1081.56 490.37 1150.65 472.035 1217.66 460.077C1285.47 447.986 1347.86 440.578 1410.77 433.172C1484.34 424.475 1559.75 417.183 1638.75 412.639C1666.37 411.041 1694.47 409.749 1722.95 408.784C1775.51 407.061 1829.81 407.798 1883.68 410.895C1948.16 414.597 2011.34 421.803 2070.93 436.675C2193.19 467.394 2298.48 526.263 2412.84 561.007C2446.99 571.385 2481.8 579.811 2517.58 584.481" stroke="#83848C" stroke-opacity="0.2" stroke-width="0.692997" stroke-miterlimit="10"/>
<path d="M-109.385 236.638C-109.704 247.754 25.5448 170.492 225.315 318.233C235.108 325.479 244.545 332.859 253.811 340.146C286.396 365.682 316.36 391.026 346.009 414.018C435.514 483.61 516.205 534.48 640.823 549.253C713.371 557.853 800.576 553.4 912.058 533.355C943.466 527.705 974.705 521.12 1005.86 514.035C1073.35 498.7 1141.21 480.766 1207.63 466.779C1274.83 452.636 1338.35 441.297 1402.31 430.435C1477.11 417.703 1553.24 406.554 1632.15 399.135C1659.74 396.531 1687.69 394.365 1715.95 392.704C1768.09 389.677 1821.71 389.776 1874.9 393.21C1938.55 397.32 2001.12 406.301 2060.2 423.404C2181.5 458.661 2285.82 523.959 2400.37 564.922C2434.58 577.156 2469.54 587.423 2505.59 593.848" stroke="#83848C" stroke-opacity="0.2" stroke-width="0.692997" stroke-miterlimit="10"/>
<path d="M-114.318 244.695C-114.477 250.253 23.0666 165.069 226.854 312.307C236.636 319.373 246.078 326.515 255.317 333.616C287.86 358.585 317.496 383.424 346.412 406.544C433.953 476.627 512.002 532.375 636.524 550.555C707.752 560.953 794.046 558.523 905.493 539.855C936.602 534.563 967.547 528.427 998.375 521.664C1065.14 507.022 1131.79 489.496 1197.61 473.481C1264.2 457.279 1328.86 442.015 1393.87 427.697C1469.89 410.932 1546.75 395.925 1625.55 385.623C1653.11 382.013 1680.92 378.973 1708.96 376.616C1760.66 372.285 1813.63 371.746 1866.14 375.524C1928.96 380.043 1990.91 390.791 2049.49 410.126C2169.83 449.913 2273.17 521.646 2387.91 568.822C2422.18 582.91 2457.3 595.02 2493.62 603.207" stroke="#83848C" stroke-opacity="0.2" stroke-width="0.692997" stroke-miterlimit="10"/>
<path d="M-119.254 252.76C-119.254 252.76 20.553 159.72 228.381 306.388C436.21 453.055 505.739 608.332 898.91 546.354C1170.6 503.522 1428.3 390.621 1701.95 360.535C1814.54 348.157 1932.12 357.263 2038.75 396.854C2158.13 441.179 2260.5 519.341 2375.44 572.737C2409.77 588.68 2445.04 602.631 2481.64 612.58" stroke="#83848C" stroke-opacity="0.2" stroke-width="0.692997" stroke-miterlimit="10"/>
</g>
</svg>
