<svg width="12" height="10" viewBox="0 0 12 10" fill="none" xmlns="http://www.w3.org/2000/svg">
<path d="M3.89645 7.33107L10.1412 1.08629C10.2886 0.938919 10.4636 0.865234 10.6662 0.865234C10.8689 0.865234 11.0439 0.938919 11.1912 1.08629C11.3386 1.23366 11.4123 1.40866 11.4123 1.61129C11.4123 1.81392 11.3386 1.98893 11.1912 2.1363L4.41224 8.91529C4.26487 9.06266 4.09294 9.13634 3.89645 9.13634C3.69995 9.13634 3.52802 9.06266 3.38065 8.91529L0.212212 5.74685C0.0648425 5.59948 -0.00577197 5.42447 0.000368423 5.22184C0.00650881 5.01921 0.0832637 4.84421 0.230633 4.69684C0.378002 4.54947 0.553004 4.47578 0.755637 4.47578C0.958269 4.47578 1.13327 4.54947 1.28064 4.69684L3.89645 7.33107Z" fill="#05D71A"/>
</svg>
