<svg width="281" height="20" viewBox="0 0 281 20" fill="none" xmlns="http://www.w3.org/2000/svg">
<path d="M5.58306 18V3.264H0.255063V0.503999H14.1751V3.264H8.75106V18H5.58306ZM15.9674 18V5.232H18.6794L18.8234 7.368H18.9194C19.2074 6.552 19.6714 5.968 20.3114 5.616C20.9674 5.248 21.7114 5.064 22.5434 5.064C22.6874 5.064 22.8154 5.064 22.9274 5.064C23.0554 5.064 23.1754 5.064 23.2874 5.064V7.896C23.1914 7.896 23.0714 7.896 22.9274 7.896C22.7994 7.88 22.6554 7.872 22.4954 7.872C21.7274 7.872 21.0874 8 20.5754 8.256C20.0634 8.496 19.6714 8.848 19.3994 9.312C19.1434 9.776 18.9994 10.344 18.9674 11.016V18H15.9674ZM29.2645 18.216C28.4965 18.216 27.7925 18.08 27.1525 17.808C26.5285 17.52 25.9845 17.096 25.5205 16.536C25.0725 15.976 24.7285 15.288 24.4885 14.472C24.2485 13.64 24.1285 12.688 24.1285 11.616C24.1285 10.16 24.3365 8.944 24.7525 7.968C25.1845 6.976 25.7845 6.232 26.5525 5.736C27.3365 5.24 28.2405 4.992 29.2645 4.992C29.9685 4.992 30.5925 5.104 31.1365 5.328C31.6965 5.536 32.1765 5.832 32.5765 6.216C32.9765 6.6 33.2805 7.056 33.4885 7.584H33.6565L33.7765 5.232H36.6565V18H33.6565V15.624H33.4885C33.1845 16.408 32.6645 17.04 31.9285 17.52C31.1925 17.984 30.3045 18.216 29.2645 18.216ZM30.3925 15.768C31.1125 15.768 31.7045 15.6 32.1685 15.264C32.6485 14.928 33.0085 14.496 33.2485 13.968C33.4885 13.424 33.6085 12.856 33.6085 12.264V10.944C33.6085 10.336 33.4885 9.768 33.2485 9.24C33.0085 8.696 32.6485 8.264 32.1685 7.944C31.7045 7.608 31.1125 7.44 30.3925 7.44C29.7525 7.44 29.1925 7.592 28.7125 7.896C28.2325 8.2 27.8565 8.664 27.5845 9.288C27.3125 9.896 27.1765 10.672 27.1765 11.616C27.1765 12.528 27.3125 13.296 27.5845 13.92C27.8565 14.544 28.2325 15.008 28.7125 15.312C29.1925 15.616 29.7525 15.768 30.3925 15.768ZM39.8736 18V5.232H42.7536L42.8736 7.656H43.0176C43.3856 6.76 43.9456 6.096 44.6976 5.664C45.4496 5.216 46.2896 4.992 47.2176 4.992C47.8576 4.992 48.4496 5.096 48.9936 5.304C49.5536 5.496 50.0336 5.808 50.4336 6.24C50.8496 6.656 51.1696 7.208 51.3936 7.896C51.6336 8.568 51.7536 9.384 51.7536 10.344V18H48.7536V10.992C48.7536 10.192 48.6576 9.536 48.4656 9.024C48.2736 8.496 47.9776 8.104 47.5776 7.848C47.1936 7.592 46.6896 7.464 46.0656 7.464C45.3936 7.464 44.8176 7.624 44.3376 7.944C43.8736 8.264 43.5136 8.688 43.2576 9.216C43.0016 9.744 42.8736 10.328 42.8736 10.968V18H39.8736ZM59.5062 18.24C58.3702 18.24 57.3942 18.064 56.5782 17.712C55.7622 17.344 55.1302 16.84 54.6822 16.2C54.2502 15.56 54.0342 14.816 54.0342 13.968H56.9862C57.0022 14.704 57.2502 15.24 57.7302 15.576C58.2102 15.912 58.8342 16.08 59.6022 16.08C60.3542 16.08 60.9222 15.944 61.3062 15.672C61.7062 15.384 61.9062 14.992 61.9062 14.496C61.9062 14.096 61.8182 13.792 61.6422 13.584C61.4662 13.36 61.1782 13.192 60.7782 13.08C60.3782 12.952 59.8502 12.84 59.1942 12.744C58.1222 12.584 57.2262 12.368 56.5062 12.096C55.7862 11.808 55.2502 11.416 54.8982 10.92C54.5462 10.424 54.3702 9.768 54.3702 8.952C54.3702 8.152 54.5862 7.456 55.0182 6.864C55.4502 6.272 56.0582 5.816 56.8422 5.496C57.6262 5.16 58.5462 4.992 59.6022 4.992C60.6262 4.992 61.5142 5.16 62.2662 5.496C63.0342 5.816 63.6262 6.28 64.0422 6.888C64.4742 7.48 64.6982 8.192 64.7142 9.024H61.7622C61.7622 8.576 61.6662 8.216 61.4742 7.944C61.2982 7.656 61.0422 7.448 60.7062 7.32C60.3702 7.192 59.9782 7.128 59.5302 7.128C58.8582 7.128 58.3302 7.272 57.9462 7.56C57.5622 7.832 57.3702 8.208 57.3702 8.688C57.3702 9.04 57.4662 9.328 57.6582 9.552C57.8662 9.76 58.1942 9.928 58.6422 10.056C59.0902 10.184 59.6662 10.296 60.3702 10.392C61.1382 10.504 61.8022 10.648 62.3622 10.824C62.9382 11 63.4182 11.24 63.8022 11.544C64.1862 11.832 64.4742 12.2 64.6662 12.648C64.8742 13.08 64.9782 13.608 64.9782 14.232C64.9782 15.512 64.4742 16.504 63.4662 17.208C62.4742 17.896 61.1542 18.24 59.5062 18.24ZM68.0847 18V7.632H66.0687V5.232H68.0847V3.624C68.0847 2.6 68.3887 1.824 68.9967 1.296C69.6207 0.767999 70.4927 0.503999 71.6127 0.503999H73.8207V2.616H72.4047C71.8927 2.616 71.5407 2.728 71.3487 2.952C71.1727 3.176 71.0847 3.472 71.0847 3.84V5.232H73.6047V7.632H71.0847V18H68.0847ZM80.4745 18.216C79.1785 18.216 78.0745 17.952 77.1625 17.424C76.2665 16.88 75.5785 16.12 75.0985 15.144C74.6185 14.152 74.3785 13 74.3785 11.688C74.3785 10.328 74.6185 9.152 75.0985 8.16C75.5785 7.152 76.2665 6.376 77.1625 5.832C78.0585 5.288 79.1225 5.016 80.3545 5.016C81.7625 5.016 82.9145 5.328 83.8105 5.952C84.7225 6.56 85.3785 7.408 85.7785 8.496C86.1785 9.584 86.3145 10.832 86.1865 12.24H77.3065C77.3065 13.056 77.4345 13.744 77.6905 14.304C77.9625 14.848 78.3305 15.264 78.7945 15.552C79.2745 15.824 79.8345 15.96 80.4745 15.96C81.2265 15.96 81.8505 15.784 82.3465 15.432C82.8425 15.064 83.1625 14.592 83.3065 14.016H86.1145C86.0185 14.88 85.7145 15.632 85.2025 16.272C84.6905 16.896 84.0265 17.376 83.2105 17.712C82.3945 18.048 81.4825 18.216 80.4745 18.216ZM77.3065 10.632L77.0425 10.32H83.5465L83.2585 10.656C83.2905 9.872 83.1865 9.232 82.9465 8.736C82.7065 8.24 82.3625 7.872 81.9145 7.632C81.4665 7.392 80.9465 7.272 80.3545 7.272C79.7465 7.272 79.2185 7.4 78.7705 7.656C78.3225 7.912 77.9705 8.296 77.7145 8.808C77.4585 9.304 77.3225 9.912 77.3065 10.632ZM88.6236 18V5.232H91.3356L91.4796 7.368H91.5756C91.8636 6.552 92.3276 5.968 92.9676 5.616C93.6236 5.248 94.3676 5.064 95.1996 5.064C95.3436 5.064 95.4716 5.064 95.5836 5.064C95.7116 5.064 95.8316 5.064 95.9436 5.064V7.896C95.8476 7.896 95.7276 7.896 95.5836 7.896C95.4556 7.88 95.3116 7.872 95.1516 7.872C94.3836 7.872 93.7436 8 93.2316 8.256C92.7196 8.496 92.3276 8.848 92.0556 9.312C91.7996 9.776 91.6556 10.344 91.6236 11.016V18H88.6236ZM102.243 19.968L109.539 0.503999H112.419L105.123 19.968H102.243ZM120.883 18V0.503999H129.283C130.259 0.503999 131.115 0.615999 131.851 0.839999C132.603 1.048 133.227 1.368 133.723 1.8C134.219 2.216 134.587 2.728 134.827 3.336C135.083 3.928 135.211 4.624 135.211 5.424C135.211 6.464 134.939 7.36 134.395 8.112C133.867 8.864 133.123 9.368 132.163 9.624V9.792C133.075 9.968 133.739 10.336 134.155 10.896C134.587 11.456 134.803 12.224 134.803 13.2V16.032C134.803 16.352 134.811 16.68 134.827 17.016C134.859 17.336 134.947 17.664 135.091 18H131.899C131.803 17.776 131.731 17.496 131.683 17.16C131.635 16.824 131.611 16.44 131.611 16.008V13.752C131.611 13.208 131.531 12.752 131.371 12.384C131.211 12.016 130.923 11.736 130.507 11.544C130.091 11.336 129.499 11.232 128.731 11.232H124.051V18H120.883ZM124.051 8.688H128.827C129.963 8.688 130.771 8.424 131.251 7.896C131.731 7.368 131.971 6.688 131.971 5.856C131.971 5.2 131.835 4.68 131.563 4.296C131.307 3.896 130.939 3.608 130.459 3.432C129.995 3.24 129.451 3.144 128.827 3.144H124.051V8.688ZM142.959 18.216C141.663 18.216 140.559 17.952 139.647 17.424C138.751 16.88 138.063 16.12 137.583 15.144C137.103 14.152 136.863 13 136.863 11.688C136.863 10.328 137.103 9.152 137.583 8.16C138.063 7.152 138.751 6.376 139.647 5.832C140.543 5.288 141.607 5.016 142.839 5.016C144.247 5.016 145.399 5.328 146.295 5.952C147.207 6.56 147.863 7.408 148.263 8.496C148.663 9.584 148.799 10.832 148.671 12.24H139.791C139.791 13.056 139.919 13.744 140.175 14.304C140.447 14.848 140.815 15.264 141.279 15.552C141.759 15.824 142.319 15.96 142.959 15.96C143.711 15.96 144.335 15.784 144.831 15.432C145.327 15.064 145.647 14.592 145.791 14.016H148.599C148.503 14.88 148.199 15.632 147.687 16.272C147.175 16.896 146.511 17.376 145.695 17.712C144.879 18.048 143.967 18.216 142.959 18.216ZM139.791 10.632L139.527 10.32H146.031L145.743 10.656C145.775 9.872 145.671 9.232 145.431 8.736C145.191 8.24 144.847 7.872 144.399 7.632C143.951 7.392 143.431 7.272 142.839 7.272C142.231 7.272 141.703 7.4 141.255 7.656C140.807 7.912 140.455 8.296 140.199 8.808C139.943 9.304 139.807 9.912 139.791 10.632ZM151.108 18V5.232H153.988L154.108 7.656H154.252C154.62 6.76 155.18 6.096 155.932 5.664C156.684 5.216 157.524 4.992 158.452 4.992C159.092 4.992 159.684 5.096 160.228 5.304C160.788 5.496 161.268 5.808 161.668 6.24C162.084 6.656 162.404 7.208 162.628 7.896C162.868 8.568 162.988 9.384 162.988 10.344V18H159.988V10.992C159.988 10.192 159.892 9.536 159.7 9.024C159.508 8.496 159.212 8.104 158.812 7.848C158.428 7.592 157.924 7.464 157.3 7.464C156.628 7.464 156.052 7.624 155.572 7.944C155.108 8.264 154.748 8.688 154.492 9.216C154.236 9.744 154.108 10.328 154.108 10.968V18H151.108ZM171.389 18.216C170.093 18.216 168.989 17.952 168.077 17.424C167.181 16.88 166.493 16.12 166.013 15.144C165.533 14.152 165.293 13 165.293 11.688C165.293 10.328 165.533 9.152 166.013 8.16C166.493 7.152 167.181 6.376 168.077 5.832C168.973 5.288 170.037 5.016 171.269 5.016C172.677 5.016 173.829 5.328 174.725 5.952C175.637 6.56 176.293 7.408 176.693 8.496C177.093 9.584 177.229 10.832 177.101 12.24H168.221C168.221 13.056 168.349 13.744 168.605 14.304C168.877 14.848 169.245 15.264 169.709 15.552C170.189 15.824 170.749 15.96 171.389 15.96C172.141 15.96 172.765 15.784 173.261 15.432C173.757 15.064 174.077 14.592 174.221 14.016H177.029C176.933 14.88 176.629 15.632 176.117 16.272C175.605 16.896 174.941 17.376 174.125 17.712C173.309 18.048 172.397 18.216 171.389 18.216ZM168.221 10.632L167.957 10.32H174.461L174.173 10.656C174.205 9.872 174.101 9.232 173.861 8.736C173.621 8.24 173.277 7.872 172.829 7.632C172.381 7.392 171.861 7.272 171.269 7.272C170.661 7.272 170.133 7.4 169.685 7.656C169.237 7.912 168.885 8.296 168.629 8.808C168.373 9.304 168.237 9.912 168.221 10.632ZM180.959 18L177.863 5.232H180.911L183.095 15.048H183.239L185.207 5.232H188.591L190.607 15.072H190.703L192.911 5.232H195.839L192.719 18H188.783L186.839 9.024H186.719L184.871 18H180.959ZM201.835 18.216C201.067 18.216 200.363 18.08 199.723 17.808C199.099 17.52 198.555 17.096 198.091 16.536C197.643 15.976 197.299 15.288 197.059 14.472C196.819 13.64 196.699 12.688 196.699 11.616C196.699 10.16 196.907 8.944 197.323 7.968C197.755 6.976 198.355 6.232 199.123 5.736C199.907 5.24 200.811 4.992 201.835 4.992C202.539 4.992 203.163 5.104 203.707 5.328C204.267 5.536 204.747 5.832 205.147 6.216C205.547 6.6 205.851 7.056 206.059 7.584H206.227L206.347 5.232H209.227V18H206.227V15.624H206.059C205.755 16.408 205.235 17.04 204.499 17.52C203.763 17.984 202.875 18.216 201.835 18.216ZM202.963 15.768C203.683 15.768 204.275 15.6 204.739 15.264C205.219 14.928 205.579 14.496 205.819 13.968C206.059 13.424 206.179 12.856 206.179 12.264V10.944C206.179 10.336 206.059 9.768 205.819 9.24C205.579 8.696 205.219 8.264 204.739 7.944C204.275 7.608 203.683 7.44 202.963 7.44C202.323 7.44 201.763 7.592 201.283 7.896C200.803 8.2 200.427 8.664 200.155 9.288C199.883 9.896 199.747 10.672 199.747 11.616C199.747 12.528 199.883 13.296 200.155 13.92C200.427 14.544 200.803 15.008 201.283 15.312C201.763 15.616 202.323 15.768 202.963 15.768ZM212.444 18V0.503999H215.444V18H212.444ZM224.313 18V0.503999H231.585C232.513 0.503999 233.361 0.631999 234.129 0.887999C234.897 1.128 235.545 1.496 236.073 1.992C236.617 2.472 237.033 3.064 237.321 3.768C237.625 4.456 237.777 5.248 237.777 6.144C237.777 7.28 237.529 8.28 237.033 9.144C236.537 9.992 235.825 10.656 234.897 11.136C233.985 11.616 232.881 11.856 231.585 11.856L227.169 11.832V9.336L231.057 9.36C231.729 9.36 232.321 9.256 232.833 9.048C233.361 8.84 233.777 8.512 234.081 8.064C234.385 7.6 234.537 7 234.537 6.264C234.537 5.528 234.377 4.936 234.057 4.488C233.753 4.04 233.345 3.72 232.833 3.528C232.321 3.32 231.729 3.216 231.057 3.216H227.025L227.481 2.76V18H224.313ZM239.96 18V5.232H242.672L242.816 7.368H242.912C243.2 6.552 243.664 5.968 244.304 5.616C244.96 5.248 245.704 5.064 246.536 5.064C246.68 5.064 246.808 5.064 246.92 5.064C247.048 5.064 247.168 5.064 247.28 5.064V7.896C247.184 7.896 247.064 7.896 246.92 7.896C246.792 7.88 246.648 7.872 246.488 7.872C245.72 7.872 245.08 8 244.568 8.256C244.056 8.496 243.664 8.848 243.392 9.312C243.136 9.776 242.992 10.344 242.96 11.016V18H239.96ZM249.241 18V5.232H252.241V18H249.241ZM249.241 3.432V0.503999H252.241V3.432H249.241ZM260.947 18.216C260.003 18.216 259.147 18.064 258.379 17.76C257.611 17.44 256.947 16.992 256.387 16.416C255.827 15.824 255.403 15.128 255.115 14.328C254.827 13.512 254.683 12.608 254.683 11.616C254.683 10.272 254.939 9.112 255.451 8.136C255.979 7.144 256.715 6.376 257.659 5.832C258.619 5.272 259.747 4.992 261.043 4.992C262.115 4.992 263.067 5.192 263.899 5.592C264.731 5.992 265.395 6.552 265.891 7.272C266.403 7.976 266.683 8.8 266.731 9.744H263.803C263.723 9.248 263.547 8.832 263.275 8.496C263.019 8.16 262.691 7.904 262.291 7.728C261.891 7.552 261.451 7.464 260.971 7.464C260.283 7.464 259.691 7.64 259.195 7.992C258.699 8.328 258.323 8.808 258.067 9.432C257.827 10.056 257.707 10.784 257.707 11.616C257.707 12.528 257.843 13.288 258.115 13.896C258.387 14.504 258.763 14.968 259.243 15.288C259.739 15.592 260.307 15.744 260.947 15.744C261.507 15.744 261.995 15.648 262.411 15.456C262.827 15.248 263.155 14.968 263.395 14.616C263.651 14.248 263.803 13.832 263.851 13.368H266.779C266.715 14.344 266.427 15.2 265.915 15.936C265.403 16.656 264.723 17.216 263.875 17.616C263.027 18.016 262.051 18.216 260.947 18.216ZM274.42 18.216C273.124 18.216 272.02 17.952 271.108 17.424C270.212 16.88 269.524 16.12 269.044 15.144C268.564 14.152 268.324 13 268.324 11.688C268.324 10.328 268.564 9.152 269.044 8.16C269.524 7.152 270.212 6.376 271.108 5.832C272.004 5.288 273.068 5.016 274.3 5.016C275.708 5.016 276.86 5.328 277.756 5.952C278.668 6.56 279.324 7.408 279.724 8.496C280.124 9.584 280.26 10.832 280.132 12.24H271.252C271.252 13.056 271.38 13.744 271.636 14.304C271.908 14.848 272.276 15.264 272.74 15.552C273.22 15.824 273.78 15.96 274.42 15.96C275.172 15.96 275.796 15.784 276.292 15.432C276.788 15.064 277.108 14.592 277.252 14.016H280.06C279.964 14.88 279.66 15.632 279.148 16.272C278.636 16.896 277.972 17.376 277.156 17.712C276.34 18.048 275.428 18.216 274.42 18.216ZM271.252 10.632L270.988 10.32H277.492L277.204 10.656C277.236 9.872 277.132 9.232 276.892 8.736C276.652 8.24 276.308 7.872 275.86 7.632C275.412 7.392 274.892 7.272 274.3 7.272C273.692 7.272 273.164 7.4 272.716 7.656C272.268 7.912 271.916 8.296 271.66 8.808C271.404 9.304 271.268 9.912 271.252 10.632Z" fill="#FF7500"/>
</svg>
