<svg width="110" height="23" viewBox="0 0 110 27" fill="none" xmlns="http://www.w3.org/2000/svg">
<g id="Link &#226;&#134;&#146; SVG" clip-path="url(#clip0_265_1954)">
<path id="Vector" d="M28.9081 9.57288H40.0452V11.6506H35.6661V23.3303H33.2581V11.6506H28.8984V9.57288H28.9081ZM39.5694 13.369H41.6279V15.2914H41.6667C41.7347 15.0195 41.8609 14.7574 42.0454 14.505C42.2299 14.2525 42.4532 14.0098 42.7154 13.8059C42.9776 13.5923 43.2689 13.4273 43.5893 13.2914C43.9097 13.1651 44.2398 13.0972 44.57 13.0972C44.8224 13.0972 45.0069 13.1069 45.104 13.1166C45.2011 13.1263 45.2982 13.1457 45.405 13.1554V15.272C45.2496 15.2428 45.0943 15.2234 44.9292 15.204C44.7642 15.1846 44.6088 15.1749 44.4534 15.1749C44.0845 15.1749 43.7349 15.2525 43.4048 15.3982C43.0747 15.5438 42.7931 15.7671 42.5503 16.0487C42.3076 16.3399 42.1134 16.6895 41.9677 17.1166C41.8221 17.5438 41.7541 18.0293 41.7541 18.5827V23.3206H39.5597V13.369H39.5694ZM55.4934 23.3303H53.3379V21.9419H53.299C53.0271 22.4468 52.629 22.8449 52.095 23.1458C51.561 23.4468 51.0172 23.6022 50.4638 23.6022C49.153 23.6022 48.2014 23.2818 47.6188 22.6313C47.0362 21.9808 46.7449 21.0002 46.7449 19.6895V13.369H48.9393V19.4759C48.9393 20.3497 49.1044 20.9711 49.4443 21.3303C49.7744 21.6895 50.2502 21.874 50.8522 21.874C51.3182 21.874 51.6969 21.806 52.0076 21.6604C52.3183 21.5148 52.5708 21.3303 52.7553 21.0876C52.9495 20.8546 53.0854 20.5633 53.1728 20.2332C53.2602 19.9031 53.299 19.5439 53.299 19.1555V13.3787H55.4934V23.3303ZM59.2317 20.1361C59.2996 20.7769 59.5424 21.2235 59.9599 21.4856C60.3871 21.7381 60.892 21.874 61.4843 21.874C61.6882 21.874 61.9213 21.8546 62.1834 21.8254C62.4456 21.7963 62.698 21.7283 62.9214 21.641C63.1544 21.5536 63.3389 21.4177 63.4942 21.2429C63.6399 21.0681 63.7079 20.8448 63.6982 20.5633C63.6884 20.2817 63.5816 20.0487 63.3874 19.874C63.1932 19.6895 62.9505 19.5536 62.6495 19.4371C62.3485 19.3303 62.0087 19.2332 61.6203 19.1555C61.2319 19.0778 60.8435 18.9905 60.4454 18.9031C60.0376 18.8157 59.6395 18.6992 59.2608 18.573C58.8821 18.4468 58.5423 18.272 58.2413 18.0487C57.9403 17.8351 57.6975 17.5535 57.5228 17.2137C57.3383 16.8739 57.2509 16.4564 57.2509 15.9516C57.2509 15.4079 57.3868 14.9613 57.649 14.5923C57.9111 14.2234 58.251 13.9321 58.6491 13.7088C59.0569 13.4855 59.5035 13.3302 59.9987 13.2331C60.4939 13.1457 60.9697 13.0972 61.4164 13.0972C61.931 13.0972 62.4262 13.1554 62.8922 13.2622C63.3583 13.369 63.7855 13.5438 64.1642 13.7962C64.5429 14.0389 64.8536 14.3593 65.1061 14.7477C65.3585 15.136 65.5139 15.6118 65.5818 16.1652H63.2903C63.1835 15.6409 62.9505 15.2817 62.5718 15.1069C62.1931 14.9224 61.7562 14.8351 61.2707 14.8351C61.1154 14.8351 60.9309 14.8448 60.7173 14.8739C60.5036 14.903 60.3094 14.9516 60.1153 15.0195C59.9308 15.0875 59.7754 15.1943 59.6395 15.3302C59.5133 15.4661 59.4453 15.6409 59.4453 15.8642C59.4453 16.1361 59.5424 16.3496 59.7269 16.5147C59.9113 16.6797 60.1541 16.8157 60.4551 16.9322C60.7561 17.039 61.0959 17.1361 61.4843 17.2137C61.8727 17.2914 62.2708 17.3788 62.6786 17.4662C63.0767 17.5535 63.4651 17.6701 63.8535 17.7963C64.2419 17.9225 64.5817 18.0972 64.8827 18.3205C65.1837 18.5438 65.4265 18.8157 65.611 19.1458C65.7955 19.4759 65.8925 19.8934 65.8925 20.3788C65.8925 20.9711 65.7566 21.4662 65.4847 21.8837C65.2129 22.2915 64.8633 22.6313 64.4361 22.8837C64.0089 23.1361 63.5234 23.3303 62.999 23.4468C62.4747 23.5633 61.9504 23.6216 61.4358 23.6216C60.8046 23.6216 60.2221 23.5536 59.688 23.408C59.154 23.2623 58.6879 23.0487 58.2995 22.7672C57.9111 22.4759 57.6004 22.1167 57.3771 21.6895C57.1538 21.2623 57.0373 20.7478 57.0178 20.1555H59.2317V20.1361ZM66.4751 13.369H68.1355V10.3787H70.3299V13.369H72.3107V15.0098H70.3299V20.3303C70.3299 20.5633 70.3396 20.7575 70.359 20.9322C70.3784 21.0973 70.427 21.2429 70.495 21.3594C70.5629 21.4759 70.6697 21.5633 70.8154 21.6215C70.961 21.6798 71.1455 21.7089 71.398 21.7089C71.5533 21.7089 71.7087 21.7089 71.864 21.6992C72.0194 21.6895 72.1748 21.6701 72.3301 21.6313V23.3303C72.0874 23.3594 71.8446 23.3788 71.6213 23.408C71.3883 23.4371 71.1552 23.4468 70.9125 23.4468C70.3299 23.4468 69.8638 23.3886 69.5143 23.2818C69.1647 23.175 68.8832 23.0099 68.689 22.7963C68.4851 22.5827 68.3588 22.3206 68.2811 22.0002C68.2132 21.6798 68.1646 21.3109 68.1549 20.9031V15.0292H66.4946V13.369H66.4751ZM73.8643 13.369H75.9421V14.7186H75.981C76.2917 14.136 76.7189 13.7283 77.2724 13.4758C77.8258 13.2234 78.4181 13.0972 79.0687 13.0972C79.8552 13.0972 80.5348 13.2331 81.1174 13.5147C81.7 13.7865 82.1855 14.1652 82.5739 14.6506C82.9623 15.136 83.2439 15.6992 83.438 16.3399C83.6322 16.9807 83.7293 17.6701 83.7293 18.3982C83.7293 19.0681 83.642 19.7186 83.4672 20.34C83.2924 20.9711 83.0302 21.5245 82.6807 22.0099C82.3311 22.4953 81.8845 22.874 81.3407 23.1653C80.797 23.4565 80.1659 23.6022 79.4279 23.6022C79.1075 23.6022 78.7871 23.573 78.4667 23.5148C78.1462 23.4565 77.8355 23.3594 77.5442 23.2332C77.2529 23.107 76.9714 22.942 76.7286 22.7381C76.4762 22.5342 76.2723 22.3012 76.0975 22.039H76.0586V27.01H73.8643V13.369ZM81.5349 18.3594C81.5349 17.9128 81.4767 17.4759 81.3602 17.0487C81.2437 16.6215 81.0689 16.2526 80.8358 15.9225C80.6028 15.5924 80.3115 15.3302 79.9717 15.136C79.6221 14.9419 79.224 14.8351 78.7774 14.8351C77.8549 14.8351 77.1558 15.1555 76.6898 15.7962C76.2237 16.437 75.9907 17.2914 75.9907 18.3594C75.9907 18.8642 76.0489 19.3303 76.1752 19.7575C76.3014 20.1846 76.4762 20.5536 76.7286 20.8643C76.9714 21.1749 77.2627 21.4177 77.6025 21.5924C77.9423 21.7769 78.3404 21.8643 78.7871 21.8643C79.292 21.8643 79.7095 21.7575 80.0591 21.5536C80.4086 21.3497 80.6902 21.0779 80.9135 20.7575C81.1368 20.4274 81.3019 20.0584 81.399 19.6409C81.4864 19.2235 81.5349 18.7963 81.5349 18.3594ZM85.4091 9.57288H87.6035V11.6506H85.4091V9.57288ZM85.4091 13.369H87.6035V23.3303H85.4091V13.369ZM89.5649 9.57288H91.7593V23.3303H89.5649V9.57288ZM98.4882 23.6022C97.6919 23.6022 96.9831 23.4662 96.3617 23.2041C95.7403 22.942 95.216 22.573 94.779 22.1167C94.3518 21.6507 94.0217 21.0973 93.7983 20.4565C93.575 19.8157 93.4585 19.107 93.4585 18.34C93.4585 17.5827 93.575 16.8836 93.7983 16.2429C94.0217 15.6021 94.3518 15.0487 94.779 14.5826C95.2063 14.1166 95.7403 13.7574 96.3617 13.4952C96.9831 13.2331 97.6919 13.0972 98.4882 13.0972C99.2843 13.0972 99.9932 13.2331 100.615 13.4952C101.236 13.7574 101.76 14.1263 102.197 14.5826C102.625 15.0487 102.955 15.6021 103.178 16.2429C103.401 16.8836 103.518 17.5827 103.518 18.34C103.518 19.107 103.401 19.8157 103.178 20.4565C102.955 21.0973 102.625 21.6507 102.197 22.1167C101.77 22.5827 101.236 22.942 100.615 23.2041C99.9932 23.4662 99.2843 23.6022 98.4882 23.6022ZM98.4882 21.8643C98.9736 21.8643 99.4009 21.7575 99.7601 21.5536C100.119 21.3497 100.411 21.0779 100.644 20.7478C100.877 20.4177 101.042 20.039 101.158 19.6215C101.265 19.204 101.323 18.7769 101.323 18.34C101.323 17.9128 101.265 17.4953 101.158 17.0681C101.052 16.6409 100.877 16.272 100.644 15.9419C100.411 15.6118 100.119 15.3496 99.7601 15.1458C99.4009 14.9419 98.9736 14.8351 98.4882 14.8351C98.0027 14.8351 97.5754 14.9419 97.2162 15.1458C96.8569 15.3496 96.5656 15.6215 96.3326 15.9419C96.0996 16.272 95.9345 16.6409 95.818 17.0681C95.7112 17.4953 95.6529 17.9128 95.6529 18.34C95.6529 18.7769 95.7112 19.204 95.818 19.6215C95.9248 20.039 96.0996 20.4177 96.3326 20.7478C96.5656 21.0779 96.8569 21.3497 97.2162 21.5536C97.5754 21.7672 98.0027 21.8643 98.4882 21.8643ZM104.159 13.369H105.819V10.3787H108.013V13.369H109.994V15.0098H108.013V20.3303C108.013 20.5633 108.023 20.7575 108.043 20.9322C108.062 21.0973 108.111 21.2429 108.178 21.3594C108.246 21.4759 108.353 21.5633 108.499 21.6215C108.645 21.6798 108.829 21.7089 109.081 21.7089C109.237 21.7089 109.392 21.7089 109.548 21.6992C109.703 21.6895 109.858 21.6701 110.014 21.6313V23.3303C109.771 23.3594 109.528 23.3788 109.305 23.408C109.072 23.4371 108.839 23.4468 108.596 23.4468C108.013 23.4468 107.547 23.3886 107.198 23.2818C106.848 23.175 106.567 23.0099 106.372 22.7963C106.169 22.5827 106.042 22.3206 105.965 22.0002C105.897 21.6798 105.848 21.3109 105.838 20.9031V15.0292H104.178V13.369H104.159Z" fill="#454545"/>
<path id="Vector_2" d="M26.3464 9.57292H16.2871L13.18 0L10.0632 9.57292L0.00390625 9.56321L8.15038 15.4856L5.03355 25.0488L13.18 19.1361L21.3168 25.0488L18.2097 15.4856L26.3464 9.57292Z" fill="#00B67A"/>
<path id="Vector_3" d="M18.9084 17.6509L18.2093 15.4856L13.1797 19.1365L18.9084 17.6509Z" fill="#005128"/>
</g>
<defs>
<clipPath id="clip0_265_1954">
<rect width="110" height="27.01" fill="white"/>
</clipPath>
</defs>
</svg>
