<svg width="155" height="28" viewBox="0 0 155 32" fill="none" xmlns="http://www.w3.org/2000/svg">
<g id="Frame">
<path id="Vector" d="M151.9 0.0100098H0V29.07H151.9V0.0100098Z" fill="#00B67A"/>
<g id="Layer_1_starsRatingFeb21_copy_2TrustpilotReview">
<path id="Vector_2" d="M14.5312 19.5953L18.9512 18.4753L20.7978 24.1662L14.5312 19.5953ZM24.7031 12.2395H16.9229L14.5312 4.91394L12.1396 12.2395H4.35938L10.6563 16.7801L8.26465 24.1056L14.5615 19.565L18.4365 16.7801L24.7031 12.2395Z" fill="white"/>
<path id="Vector_3" d="M32.5492 0.0100098H29.4492V29.07H32.5492V0.0100098Z" fill="white"/>
<path id="Vector_4" d="M46.0156 19.5953L50.4355 18.4753L52.2822 24.1662L46.0156 19.5953ZM56.1875 12.2395H48.4072L46.0156 4.91394L43.624 12.2395H35.8438L42.1406 16.7801L39.749 24.1056L46.0459 19.565L49.9209 16.7801L56.1875 12.2395Z" fill="white"/>
<path id="Vector_5" d="M63.5492 0.0100098H60.4492V29.07H63.5492V0.0100098Z" fill="white"/>
<path id="Vector_6" d="M77.5 19.5953L81.9199 18.4753L83.7666 24.1662L77.5 19.5953ZM87.6719 12.2395H79.8916L77.5 4.91394L75.1084 12.2395H67.3281L73.625 16.7801L71.2334 24.1056L77.5303 19.565L81.4053 16.7801L87.6719 12.2395Z" fill="white"/>
<path id="Vector_7" d="M94.5492 0.0100098H91.4492V29.07H94.5492V0.0100098Z" fill="white"/>
<path id="Vector_8" d="M108.984 19.5953L113.404 18.4753L115.251 24.1662L108.984 19.5953ZM119.156 12.2395H111.376L108.984 4.91394L106.593 12.2395H98.8125L105.109 16.7801L102.718 24.1056L109.015 19.565L112.89 16.7801L119.156 12.2395Z" fill="white"/>
<path id="Vector_9" d="M125.549 0.0100098H122.449V29.07H125.549V0.0100098Z" fill="white"/>
<path id="Vector_10" d="M140.469 19.5953L144.889 18.4753L146.735 24.1662L140.469 19.5953ZM150.641 12.2395H142.86L140.469 4.91394L138.077 12.2395H130.297L136.594 16.7801L134.202 24.1056L140.499 19.565L144.374 16.7801L150.641 12.2395Z" fill="white"/>
</g>
</g>
</svg>
