<svg width="36" height="49" viewBox="0 0 36 49" fill="none" xmlns="http://www.w3.org/2000/svg">
<path d="M0 6.09082C0 4.49952 0.632141 2.9734 1.75736 1.84818C2.88258 0.722961 4.4087 0.0908203 6 0.0908203L30 0.0908203C31.5913 0.0908203 33.1174 0.722961 34.2426 1.84818C35.3679 2.9734 36 4.49952 36 6.09082V42.0908C36 43.6821 35.3679 45.2082 34.2426 46.3335C33.1174 47.4587 31.5913 48.0908 30 48.0908H6C4.4087 48.0908 2.88258 47.4587 1.75736 46.3335C0.632141 45.2082 0 43.6821 0 42.0908V6.09082ZM30 3.09082H6C5.20435 3.09082 4.44129 3.40689 3.87868 3.9695C3.31607 4.53211 3 5.29517 3 6.09082V42.0908C3 42.8865 3.31607 43.6495 3.87868 44.2121C4.44129 44.7747 5.20435 45.0908 6 45.0908H30C30.7956 45.0908 31.5587 44.7747 32.1213 44.2121C32.6839 43.6495 33 42.8865 33 42.0908V6.09082C33 5.29517 32.6839 4.53211 32.1213 3.9695C31.5587 3.40689 30.7956 3.09082 30 3.09082Z" fill="#FF7500"/>
</svg>
