<svg width="48" height="49" viewBox="0 0 48 49" fill="none" xmlns="http://www.w3.org/2000/svg">
<path d="M18 3.09082H3V45.0908H18V3.09082ZM45 3.09082H30V18.0908H45V3.09082ZM45 30.0908V45.0908H30V30.0908H45ZM0 3.09082C0 2.29517 0.316071 1.53211 0.87868 0.9695C1.44129 0.406891 2.20435 0.0908203 3 0.0908203L18 0.0908203C18.7956 0.0908203 19.5587 0.406891 20.1213 0.9695C20.6839 1.53211 21 2.29517 21 3.09082V45.0908C21 45.8865 20.6839 46.6495 20.1213 47.2121C19.5587 47.7747 18.7956 48.0908 18 48.0908H3C2.20435 48.0908 1.44129 47.7747 0.87868 47.2121C0.316071 46.6495 0 45.8865 0 45.0908V3.09082ZM27 3.09082C27 2.29517 27.3161 1.53211 27.8787 0.9695C28.4413 0.406891 29.2044 0.0908203 30 0.0908203L45 0.0908203C45.7957 0.0908203 46.5587 0.406891 47.1213 0.9695C47.6839 1.53211 48 2.29517 48 3.09082V18.0908C48 18.8865 47.6839 19.6495 47.1213 20.2121C46.5587 20.7747 45.7957 21.0908 45 21.0908H30C29.2044 21.0908 28.4413 20.7747 27.8787 20.2121C27.3161 19.6495 27 18.8865 27 18.0908V3.09082ZM30 27.0908C29.2044 27.0908 28.4413 27.4069 27.8787 27.9695C27.3161 28.5321 27 29.2952 27 30.0908V45.0908C27 45.8865 27.3161 46.6495 27.8787 47.2121C28.4413 47.7747 29.2044 48.0908 30 48.0908H45C45.7957 48.0908 46.5587 47.7747 47.1213 47.2121C47.6839 46.6495 48 45.8865 48 45.0908V30.0908C48 29.2952 47.6839 28.5321 47.1213 27.9695C46.5587 27.4069 45.7957 27.0908 45 27.0908H30Z" fill="#16191C"/>
</svg>
