<svg width="48" height="49" viewBox="0 0 48 49" fill="none" xmlns="http://www.w3.org/2000/svg">
<path d="M5.76 1.60857C5.99478 1.57033 6.23528 1.58847 6.46167 1.6615C6.68805 1.73452 6.89383 1.86034 7.062 2.02857L9 3.96957L10.938 2.02857C11.0773 1.88888 11.2429 1.77805 11.4251 1.70243C11.6073 1.62682 11.8027 1.58789 12 1.58789C12.1973 1.58789 12.3927 1.62682 12.5749 1.70243C12.7571 1.77805 12.9227 1.88888 13.062 2.02857L15 3.96957L16.938 2.02857C17.0773 1.88888 17.2429 1.77805 17.4251 1.70243C17.6073 1.62682 17.8027 1.58789 18 1.58789C18.1973 1.58789 18.3927 1.62682 18.5749 1.70243C18.7571 1.77805 18.9227 1.88888 19.062 2.02857L21 3.96957L22.938 2.02857C23.0773 1.88888 23.2429 1.77805 23.4251 1.70243C23.6073 1.62682 23.8027 1.58789 24 1.58789C24.1973 1.58789 24.3927 1.62682 24.5749 1.70243C24.7571 1.77805 24.9227 1.88888 25.062 2.02857L27 3.96957L28.938 2.02857C29.0773 1.88888 29.2429 1.77805 29.4251 1.70243C29.6073 1.62682 29.8027 1.58789 30 1.58789C30.1973 1.58789 30.3927 1.62682 30.5749 1.70243C30.7571 1.77805 30.9227 1.88888 31.062 2.02857L33 3.96957L34.938 2.02857C35.0773 1.88888 35.2429 1.77805 35.4251 1.70243C35.6073 1.62682 35.8027 1.58789 36 1.58789C36.1973 1.58789 36.3927 1.62682 36.5749 1.70243C36.7571 1.77805 36.9227 1.88888 37.062 2.02857L39 3.96957L40.938 2.02857C41.1061 1.86037 41.3117 1.73453 41.538 1.66144C41.7643 1.58835 42.0047 1.5701 42.2394 1.60819C42.4741 1.64629 42.6964 1.73963 42.8879 1.88053C43.0795 2.02143 43.2347 2.20585 43.341 2.41857L44.841 5.41857C44.9455 5.62716 45 5.85725 45 6.09057V42.0906C45 42.3239 44.9455 42.554 44.841 42.7626L43.341 45.7626C43.2346 45.9748 43.0794 46.1587 42.8881 46.2992C42.6968 46.4397 42.4749 46.5328 42.2407 46.5709C42.0064 46.609 41.7664 46.5909 41.5405 46.5182C41.3145 46.4455 41.1091 46.3202 40.941 46.1526L39 44.2116L37.062 46.1526C36.9227 46.2923 36.7571 46.4031 36.5749 46.4787C36.3927 46.5543 36.1973 46.5933 36 46.5933C35.8027 46.5933 35.6073 46.5543 35.4251 46.4787C35.2429 46.4031 35.0773 46.2923 34.938 46.1526L33 44.2116L31.062 46.1526C30.9227 46.2923 30.7571 46.4031 30.5749 46.4787C30.3927 46.5543 30.1973 46.5933 30 46.5933C29.8027 46.5933 29.6073 46.5543 29.4251 46.4787C29.2429 46.4031 29.0773 46.2923 28.938 46.1526L27 44.2116L25.062 46.1526C24.9227 46.2923 24.7571 46.4031 24.5749 46.4787C24.3927 46.5543 24.1973 46.5933 24 46.5933C23.8027 46.5933 23.6073 46.5543 23.4251 46.4787C23.2429 46.4031 23.0773 46.2923 22.938 46.1526L21 44.2116L19.062 46.1526C18.9227 46.2923 18.7571 46.4031 18.5749 46.4787C18.3927 46.5543 18.1973 46.5933 18 46.5933C17.8027 46.5933 17.6073 46.5543 17.4251 46.4787C17.2429 46.4031 17.0773 46.2923 16.938 46.1526L15 44.2116L13.062 46.1526C12.9227 46.2923 12.7571 46.4031 12.5749 46.4787C12.3927 46.5543 12.1973 46.5933 12 46.5933C11.8027 46.5933 11.6073 46.5543 11.4251 46.4787C11.2429 46.4031 11.0773 46.2923 10.938 46.1526L9 44.2116L7.062 46.1526C6.89393 46.3208 6.68828 46.4466 6.46201 46.5197C6.23574 46.5928 5.99534 46.611 5.76063 46.573C5.52592 46.5349 5.30362 46.4415 5.11209 46.3006C4.92055 46.1597 4.76525 45.9753 4.659 45.7626L3.159 42.7626C3.05446 42.554 3.00002 42.3239 3 42.0906V6.09057C3.00002 5.85725 3.05446 5.62716 3.159 5.41857L4.659 2.41857C4.76523 2.206 4.92046 2.0217 5.11188 1.88088C5.3033 1.74005 5.52544 1.64672 5.76 1.60857ZM6.411 5.62257L6 6.44457V41.7366L6.411 42.5586L7.941 41.0286C8.22229 40.7474 8.60375 40.5894 9.0015 40.5894C9.39925 40.5894 9.78071 40.7474 10.062 41.0286L12 42.9696L13.938 41.0316C14.0773 40.8919 14.2429 40.7811 14.4251 40.7054C14.6073 40.6298 14.8027 40.5909 15 40.5909C15.1973 40.5909 15.3927 40.6298 15.5749 40.7054C15.7571 40.7811 15.9227 40.8919 16.062 41.0316L18 42.9696L19.938 41.0316C20.0773 40.8919 20.2429 40.7811 20.4251 40.7054C20.6073 40.6298 20.8027 40.5909 21 40.5909C21.1973 40.5909 21.3927 40.6298 21.5749 40.7054C21.7571 40.7811 21.9227 40.8919 22.062 41.0316L24 42.9696L25.938 41.0316C26.0773 40.8919 26.2429 40.7811 26.4251 40.7054C26.6073 40.6298 26.8027 40.5909 27 40.5909C27.1973 40.5909 27.3927 40.6298 27.5749 40.7054C27.7571 40.7811 27.9227 40.8919 28.062 41.0316L30 42.9696L31.938 41.0316C32.0773 40.8919 32.2429 40.7811 32.4251 40.7054C32.6073 40.6298 32.8027 40.5909 33 40.5909C33.1973 40.5909 33.3927 40.6298 33.5749 40.7054C33.7571 40.7811 33.9227 40.8919 34.062 41.0316L36 42.9696L37.938 41.0316C38.0773 40.8919 38.2429 40.7811 38.4251 40.7054C38.6073 40.6298 38.8027 40.5909 39 40.5909C39.1973 40.5909 39.3927 40.6298 39.5749 40.7054C39.7571 40.7811 39.9227 40.8919 40.062 41.0316L41.589 42.5586L42 41.7366V6.44457L41.589 5.62257L40.059 7.15257C39.7777 7.43378 39.3962 7.59175 38.9985 7.59175C38.6008 7.59175 38.2193 7.43378 37.938 7.15257L36 5.21157L34.062 7.15257C33.9227 7.29226 33.7571 7.40309 33.5749 7.47871C33.3927 7.55433 33.1973 7.59325 33 7.59325C32.8027 7.59325 32.6073 7.55433 32.4251 7.47871C32.2429 7.40309 32.0773 7.29226 31.938 7.15257L30 5.21157L28.062 7.15257C27.9227 7.29226 27.7571 7.40309 27.5749 7.47871C27.3927 7.55433 27.1973 7.59325 27 7.59325C26.8027 7.59325 26.6073 7.55433 26.4251 7.47871C26.2429 7.40309 26.0773 7.29226 25.938 7.15257L24 5.21157L22.062 7.15257C21.9227 7.29226 21.7571 7.40309 21.5749 7.47871C21.3927 7.55433 21.1973 7.59325 21 7.59325C20.8027 7.59325 20.6073 7.55433 20.4251 7.47871C20.2429 7.40309 20.0773 7.29226 19.938 7.15257L18 5.21157L16.062 7.15257C15.9227 7.29226 15.7571 7.40309 15.5749 7.47871C15.3927 7.55433 15.1973 7.59325 15 7.59325C14.8027 7.59325 14.6073 7.55433 14.4251 7.47871C14.2429 7.40309 14.0773 7.29226 13.938 7.15257L12 5.21157L10.062 7.15257C9.92266 7.29226 9.75714 7.40309 9.5749 7.47871C9.39267 7.55433 9.1973 7.59325 9 7.59325C8.8027 7.59325 8.60733 7.55433 8.4251 7.47871C8.24286 7.40309 8.07734 7.29226 7.938 7.15257L6.411 5.62257Z" fill="#16191C"/>
<path d="M9 13.5898C9 13.192 9.15804 12.8105 9.43934 12.5292C9.72064 12.2479 10.1022 12.0898 10.5 12.0898H28.5C28.8978 12.0898 29.2794 12.2479 29.5607 12.5292C29.842 12.8105 30 13.192 30 13.5898C30 13.9877 29.842 14.3692 29.5607 14.6505C29.2794 14.9318 28.8978 15.0898 28.5 15.0898H10.5C10.1022 15.0898 9.72064 14.9318 9.43934 14.6505C9.15804 14.3692 9 13.9877 9 13.5898ZM9 19.5898C9 19.192 9.15804 18.8105 9.43934 18.5292C9.72064 18.2479 10.1022 18.0898 10.5 18.0898H28.5C28.8978 18.0898 29.2794 18.2479 29.5607 18.5292C29.842 18.8105 30 19.192 30 19.5898C30 19.9877 29.842 20.3692 29.5607 20.6505C29.2794 20.9318 28.8978 21.0898 28.5 21.0898H10.5C10.1022 21.0898 9.72064 20.9318 9.43934 20.6505C9.15804 20.3692 9 19.9877 9 19.5898ZM9 25.5898C9 25.192 9.15804 24.8105 9.43934 24.5292C9.72064 24.2479 10.1022 24.0898 10.5 24.0898H28.5C28.8978 24.0898 29.2794 24.2479 29.5607 24.5292C29.842 24.8105 30 25.192 30 25.5898C30 25.9877 29.842 26.3692 29.5607 26.6505C29.2794 26.9318 28.8978 27.0898 28.5 27.0898H10.5C10.1022 27.0898 9.72064 26.9318 9.43934 26.6505C9.15804 26.3692 9 25.9877 9 25.5898ZM9 31.5898C9 31.192 9.15804 30.8105 9.43934 30.5292C9.72064 30.2479 10.1022 30.0898 10.5 30.0898H28.5C28.8978 30.0898 29.2794 30.2479 29.5607 30.5292C29.842 30.8105 30 31.192 30 31.5898C30 31.9877 29.842 32.3692 29.5607 32.6505C29.2794 32.9318 28.8978 33.0898 28.5 33.0898H10.5C10.1022 33.0898 9.72064 32.9318 9.43934 32.6505C9.15804 32.3692 9 31.9877 9 31.5898ZM33 13.5898C33 13.192 33.158 12.8105 33.4393 12.5292C33.7206 12.2479 34.1022 12.0898 34.5 12.0898H37.5C37.8978 12.0898 38.2794 12.2479 38.5607 12.5292C38.842 12.8105 39 13.192 39 13.5898C39 13.9877 38.842 14.3692 38.5607 14.6505C38.2794 14.9318 37.8978 15.0898 37.5 15.0898H34.5C34.1022 15.0898 33.7206 14.9318 33.4393 14.6505C33.158 14.3692 33 13.9877 33 13.5898ZM33 19.5898C33 19.192 33.158 18.8105 33.4393 18.5292C33.7206 18.2479 34.1022 18.0898 34.5 18.0898H37.5C37.8978 18.0898 38.2794 18.2479 38.5607 18.5292C38.842 18.8105 39 19.192 39 19.5898C39 19.9877 38.842 20.3692 38.5607 20.6505C38.2794 20.9318 37.8978 21.0898 37.5 21.0898H34.5C34.1022 21.0898 33.7206 20.9318 33.4393 20.6505C33.158 20.3692 33 19.9877 33 19.5898ZM33 25.5898C33 25.192 33.158 24.8105 33.4393 24.5292C33.7206 24.2479 34.1022 24.0898 34.5 24.0898H37.5C37.8978 24.0898 38.2794 24.2479 38.5607 24.5292C38.842 24.8105 39 25.192 39 25.5898C39 25.9877 38.842 26.3692 38.5607 26.6505C38.2794 26.9318 37.8978 27.0898 37.5 27.0898H34.5C34.1022 27.0898 33.7206 26.9318 33.4393 26.6505C33.158 26.3692 33 25.9877 33 25.5898ZM33 31.5898C33 31.192 33.158 30.8105 33.4393 30.5292C33.7206 30.2479 34.1022 30.0898 34.5 30.0898H37.5C37.8978 30.0898 38.2794 30.2479 38.5607 30.5292C38.842 30.8105 39 31.192 39 31.5898C39 31.9877 38.842 32.3692 38.5607 32.6505C38.2794 32.9318 37.8978 33.0898 37.5 33.0898H34.5C34.1022 33.0898 33.7206 32.9318 33.4393 32.6505C33.158 32.3692 33 31.9877 33 31.5898Z" fill="#16191C"/>
</svg>
