<svg width="48" height="55" viewBox="0 0 48 55" fill="none" xmlns="http://www.w3.org/2000/svg">
  <style>
    /* Define the hover color */
    #svgContainer:hover path {
      fill: orange;
    }
  </style>
  <g opacity="0.3">
<path d="M5.76 7.60882C5.99478 7.57057 6.23528 7.58871 6.46167 7.66174C6.68805 7.73477 6.89383 7.86059 7.062 8.02882L9 9.96982L10.938 8.02882C11.0773 7.88913 11.2429 7.7783 11.4251 7.70268C11.6073 7.62706 11.8027 7.58813 12 7.58813C12.1973 7.58813 12.3927 7.62706 12.5749 7.70268C12.7571 7.7783 12.9227 7.88913 13.062 8.02882L15 9.96982L16.938 8.02882C17.0773 7.88913 17.2429 7.7783 17.4251 7.70268C17.6073 7.62706 17.8027 7.58813 18 7.58813C18.1973 7.58813 18.3927 7.62706 18.5749 7.70268C18.7571 7.7783 18.9227 7.88913 19.062 8.02882L21 9.96982L22.938 8.02882C23.0773 7.88913 23.2429 7.7783 23.4251 7.70268C23.6073 7.62706 23.8027 7.58813 24 7.58813C24.1973 7.58813 24.3927 7.62706 24.5749 7.70268C24.7571 7.7783 24.9227 7.88913 25.062 8.02882L27 9.96982L28.938 8.02882C29.0773 7.88913 29.2429 7.7783 29.4251 7.70268C29.6073 7.62706 29.8027 7.58813 30 7.58813C30.1973 7.58813 30.3927 7.62706 30.5749 7.70268C30.7571 7.7783 30.9227 7.88913 31.062 8.02882L33 9.96982L34.938 8.02882C35.0773 7.88913 35.2429 7.7783 35.4251 7.70268C35.6073 7.62706 35.8027 7.58813 36 7.58813C36.1973 7.58813 36.3927 7.62706 36.5749 7.70268C36.7571 7.7783 36.9227 7.88913 37.062 8.02882L39 9.96982L40.938 8.02882C41.1061 7.86061 41.3117 7.73478 41.538 7.66169C41.7643 7.5886 42.0047 7.57034 42.2394 7.60844C42.4741 7.64653 42.6964 7.73988 42.8879 7.88078C43.0795 8.02168 43.2347 8.20609 43.341 8.41882L44.841 11.4188C44.9455 11.6274 45 11.8575 45 12.0908V48.0908C45 48.3241 44.9455 48.5542 44.841 48.7628L43.341 51.7628C43.2346 51.975 43.0794 52.1589 42.8881 52.2994C42.6968 52.44 42.4749 52.5331 42.2407 52.5712C42.0064 52.6092 41.7664 52.5912 41.5405 52.5184C41.3145 52.4457 41.1091 52.3204 40.941 52.1528L39 50.2118L37.062 52.1528C36.9227 52.2925 36.7571 52.4033 36.5749 52.479C36.3927 52.5546 36.1973 52.5935 36 52.5935C35.8027 52.5935 35.6073 52.5546 35.4251 52.479C35.2429 52.4033 35.0773 52.2925 34.938 52.1528L33 50.2118L31.062 52.1528C30.9227 52.2925 30.7571 52.4033 30.5749 52.479C30.3927 52.5546 30.1973 52.5935 30 52.5935C29.8027 52.5935 29.6073 52.5546 29.4251 52.479C29.2429 52.4033 29.0773 52.2925 28.938 52.1528L27 50.2118L25.062 52.1528C24.9227 52.2925 24.7571 52.4033 24.5749 52.479C24.3927 52.5546 24.1973 52.5935 24 52.5935C23.8027 52.5935 23.6073 52.5546 23.4251 52.479C23.2429 52.4033 23.0773 52.2925 22.938 52.1528L21 50.2118L19.062 52.1528C18.9227 52.2925 18.7571 52.4033 18.5749 52.479C18.3927 52.5546 18.1973 52.5935 18 52.5935C17.8027 52.5935 17.6073 52.5546 17.4251 52.479C17.2429 52.4033 17.0773 52.2925 16.938 52.1528L15 50.2118L13.062 52.1528C12.9227 52.2925 12.7571 52.4033 12.5749 52.479C12.3927 52.5546 12.1973 52.5935 12 52.5935C11.8027 52.5935 11.6073 52.5546 11.4251 52.479C11.2429 52.4033 11.0773 52.2925 10.938 52.1528L9 50.2118L7.062 52.1528C6.89393 52.321 6.68828 52.4469 6.46201 52.5199C6.23574 52.593 5.99534 52.6113 5.76063 52.5732C5.52592 52.5351 5.30362 52.4418 5.11209 52.3009C4.92055 52.16 4.76525 51.9755 4.659 51.7628L3.159 48.7628C3.05446 48.5542 3.00002 48.3241 3 48.0908V12.0908C3.00002 11.8575 3.05446 11.6274 3.159 11.4188L4.659 8.41882C4.76523 8.20624 4.92046 8.02195 5.11188 7.88112C5.3033 7.74029 5.52544 7.64696 5.76 7.60882ZM6.411 11.6228L6 12.4448V47.7368L6.411 48.5588L7.941 47.0288C8.22229 46.7476 8.60375 46.5896 9.0015 46.5896C9.39925 46.5896 9.78071 46.7476 10.062 47.0288L12 48.9698L13.938 47.0318C14.0773 46.8921 14.2429 46.7813 14.4251 46.7057C14.6073 46.6301 14.8027 46.5911 15 46.5911C15.1973 46.5911 15.3927 46.6301 15.5749 46.7057C15.7571 46.7813 15.9227 46.8921 16.062 47.0318L18 48.9698L19.938 47.0318C20.0773 46.8921 20.2429 46.7813 20.4251 46.7057C20.6073 46.6301 20.8027 46.5911 21 46.5911C21.1973 46.5911 21.3927 46.6301 21.5749 46.7057C21.7571 46.7813 21.9227 46.8921 22.062 47.0318L24 48.9698L25.938 47.0318C26.0773 46.8921 26.2429 46.7813 26.4251 46.7057C26.6073 46.6301 26.8027 46.5911 27 46.5911C27.1973 46.5911 27.3927 46.6301 27.5749 46.7057C27.7571 46.7813 27.9227 46.8921 28.062 47.0318L30 48.9698L31.938 47.0318C32.0773 46.8921 32.2429 46.7813 32.4251 46.7057C32.6073 46.6301 32.8027 46.5911 33 46.5911C33.1973 46.5911 33.3927 46.6301 33.5749 46.7057C33.7571 46.7813 33.9227 46.8921 34.062 47.0318L36 48.9698L37.938 47.0318C38.0773 46.8921 38.2429 46.7813 38.4251 46.7057C38.6073 46.6301 38.8027 46.5911 39 46.5911C39.1973 46.5911 39.3927 46.6301 39.5749 46.7057C39.7571 46.7813 39.9227 46.8921 40.062 47.0318L41.589 48.5588L42 47.7368V12.4448L41.589 11.6228L40.059 13.1528C39.7777 13.434 39.3962 13.592 38.9985 13.592C38.6008 13.592 38.2193 13.434 37.938 13.1528L36 11.2118L34.062 13.1528C33.9227 13.2925 33.7571 13.4033 33.5749 13.479C33.3927 13.5546 33.1973 13.5935 33 13.5935C32.8027 13.5935 32.6073 13.5546 32.4251 13.479C32.2429 13.4033 32.0773 13.2925 31.938 13.1528L30 11.2118L28.062 13.1528C27.9227 13.2925 27.7571 13.4033 27.5749 13.479C27.3927 13.5546 27.1973 13.5935 27 13.5935C26.8027 13.5935 26.6073 13.5546 26.4251 13.479C26.2429 13.4033 26.0773 13.2925 25.938 13.1528L24 11.2118L22.062 13.1528C21.9227 13.2925 21.7571 13.4033 21.5749 13.479C21.3927 13.5546 21.1973 13.5935 21 13.5935C20.8027 13.5935 20.6073 13.5546 20.4251 13.479C20.2429 13.4033 20.0773 13.2925 19.938 13.1528L18 11.2118L16.062 13.1528C15.9227 13.2925 15.7571 13.4033 15.5749 13.479C15.3927 13.5546 15.1973 13.5935 15 13.5935C14.8027 13.5935 14.6073 13.5546 14.4251 13.479C14.2429 13.4033 14.0773 13.2925 13.938 13.1528L12 11.2118L10.062 13.1528C9.92266 13.2925 9.75714 13.4033 9.5749 13.479C9.39267 13.5546 9.1973 13.5935 9 13.5935C8.8027 13.5935 8.60733 13.5546 8.4251 13.479C8.24286 13.4033 8.07734 13.2925 7.938 13.1528L6.411 11.6228Z" fill="#16191C"/>
<path d="M9 19.5908C9 19.193 9.15804 18.8115 9.43934 18.5302C9.72064 18.2489 10.1022 18.0908 10.5 18.0908H28.5C28.8978 18.0908 29.2794 18.2489 29.5607 18.5302C29.842 18.8115 30 19.193 30 19.5908C30 19.9886 29.842 20.3702 29.5607 20.6515C29.2794 20.9328 28.8978 21.0908 28.5 21.0908H10.5C10.1022 21.0908 9.72064 20.9328 9.43934 20.6515C9.15804 20.3702 9 19.9886 9 19.5908ZM9 25.5908C9 25.193 9.15804 24.8115 9.43934 24.5302C9.72064 24.2489 10.1022 24.0908 10.5 24.0908H28.5C28.8978 24.0908 29.2794 24.2489 29.5607 24.5302C29.842 24.8115 30 25.193 30 25.5908C30 25.9886 29.842 26.3702 29.5607 26.6515C29.2794 26.9328 28.8978 27.0908 28.5 27.0908H10.5C10.1022 27.0908 9.72064 26.9328 9.43934 26.6515C9.15804 26.3702 9 25.9886 9 25.5908ZM9 31.5908C9 31.193 9.15804 30.8115 9.43934 30.5302C9.72064 30.2489 10.1022 30.0908 10.5 30.0908H28.5C28.8978 30.0908 29.2794 30.2489 29.5607 30.5302C29.842 30.8115 30 31.193 30 31.5908C30 31.9886 29.842 32.3702 29.5607 32.6515C29.2794 32.9328 28.8978 33.0908 28.5 33.0908H10.5C10.1022 33.0908 9.72064 32.9328 9.43934 32.6515C9.15804 32.3702 9 31.9886 9 31.5908ZM9 37.5908C9 37.193 9.15804 36.8115 9.43934 36.5302C9.72064 36.2489 10.1022 36.0908 10.5 36.0908H28.5C28.8978 36.0908 29.2794 36.2489 29.5607 36.5302C29.842 36.8115 30 37.193 30 37.5908C30 37.9886 29.842 38.3702 29.5607 38.6515C29.2794 38.9328 28.8978 39.0908 28.5 39.0908H10.5C10.1022 39.0908 9.72064 38.9328 9.43934 38.6515C9.15804 38.3702 9 37.9886 9 37.5908ZM33 19.5908C33 19.193 33.158 18.8115 33.4393 18.5302C33.7206 18.2489 34.1022 18.0908 34.5 18.0908H37.5C37.8978 18.0908 38.2794 18.2489 38.5607 18.5302C38.842 18.8115 39 19.193 39 19.5908C39 19.9886 38.842 20.3702 38.5607 20.6515C38.2794 20.9328 37.8978 21.0908 37.5 21.0908H34.5C34.1022 21.0908 33.7206 20.9328 33.4393 20.6515C33.158 20.3702 33 19.9886 33 19.5908ZM33 25.5908C33 25.193 33.158 24.8115 33.4393 24.5302C33.7206 24.2489 34.1022 24.0908 34.5 24.0908H37.5C37.8978 24.0908 38.2794 24.2489 38.5607 24.5302C38.842 24.8115 39 25.193 39 25.5908C39 25.9886 38.842 26.3702 38.5607 26.6515C38.2794 26.9328 37.8978 27.0908 37.5 27.0908H34.5C34.1022 27.0908 33.7206 26.9328 33.4393 26.6515C33.158 26.3702 33 25.9886 33 25.5908ZM33 31.5908C33 31.193 33.158 30.8115 33.4393 30.5302C33.7206 30.2489 34.1022 30.0908 34.5 30.0908H37.5C37.8978 30.0908 38.2794 30.2489 38.5607 30.5302C38.842 30.8115 39 31.193 39 31.5908C39 31.9886 38.842 32.3702 38.5607 32.6515C38.2794 32.9328 37.8978 33.0908 37.5 33.0908H34.5C34.1022 33.0908 33.7206 32.9328 33.4393 32.6515C33.158 32.3702 33 31.9886 33 31.5908ZM33 37.5908C33 37.193 33.158 36.8115 33.4393 36.5302C33.7206 36.2489 34.1022 36.0908 34.5 36.0908H37.5C37.8978 36.0908 38.2794 36.2489 38.5607 36.5302C38.842 36.8115 39 37.193 39 37.5908C39 37.9886 38.842 38.3702 38.5607 38.6515C38.2794 38.9328 37.8978 39.0908 37.5 39.0908H34.5C34.1022 39.0908 33.7206 38.9328 33.4393 38.6515C33.158 38.3702 33 37.9886 33 37.5908Z" fill="#16191C"/>
</g>
</svg>
