<svg width="182" height="27" viewBox="0 0 182 27" fill="none" xmlns="http://www.w3.org/2000/svg">
<g clip-path="url(#clip0_1880_39156)">
<g clip-path="url(#clip1_1880_39156)">
<path d="M46.0163 0.244141H0.953125V26.6226H46.0163V0.244141Z" fill="white"/>
<mask id="mask0_1880_39156" style="mask-type:luminance" maskUnits="userSpaceOnUse" x="1" y="6" width="45" height="15">
<path d="M45.4673 6.83789H1.60938V20.2009H45.4673V6.83789Z" fill="white"/>
</mask>
<g mask="url(#mask0_1880_39156)">
<path fill-rule="evenodd" clip-rule="evenodd" d="M17.0469 20.002L19.2763 7.05078H22.8336L20.6042 20.002H17.0469Z" fill="#00589B"/>
<path fill-rule="evenodd" clip-rule="evenodd" d="M33.4983 7.37359C32.4763 7.01506 31.4 6.83322 30.3162 6.83597C26.7929 6.83597 24.3296 8.58686 24.3125 11.1054C24.2954 12.9653 26.0741 14.0115 27.4216 14.6266C28.769 15.2417 29.2734 15.6607 29.2563 16.2347C29.2563 17.1089 28.1599 17.5011 27.1341 17.5011C25.982 17.5342 24.8379 17.3021 23.7911 16.8231L23.3233 16.6076L22.8359 19.5136C23.6619 19.8865 25.1897 20.1916 26.7905 20.2087C30.5282 20.2087 32.9379 18.4771 32.9745 15.7793C32.9915 14.3142 32.0388 13.1881 29.9897 12.2582C28.7495 11.6696 27.9941 11.2774 27.9941 10.6695C27.9941 10.115 28.6423 9.54344 30.0263 9.54344C30.9389 9.52053 31.846 9.69143 32.687 10.0447L33.0086 10.1876L33.4959 7.38328L33.4983 7.37359Z" fill="#00589B"/>
<path fill-rule="evenodd" clip-rule="evenodd" d="M42.6063 7.06836H39.8554C39.01 7.06836 38.3643 7.31052 37.9866 8.14117L32.7188 20.0173H36.4394C36.4394 20.0173 37.051 18.4116 37.1947 18.0799H41.7438C41.851 18.5279 42.1751 20.0173 42.1751 20.0173H45.4644L42.6063 7.06836ZM38.2205 15.416L39.641 11.8076C39.6045 11.844 39.9285 11.0569 40.1064 10.575L40.35 11.6817C40.35 11.6817 41.0348 14.7742 41.1785 15.416H38.2205Z" fill="#00589B"/>
<path fill-rule="evenodd" clip-rule="evenodd" d="M14.0841 7.06836L10.5974 15.9003L10.249 14.1083C9.59109 12.0256 7.56876 9.80246 5.3125 8.67637L8.49464 20.0026H12.2518L17.8413 7.06836H14.0841Z" fill="#00589B"/>
<path fill-rule="evenodd" clip-rule="evenodd" d="M7.37913 7.05219H1.64592L1.60938 7.33794C6.04878 8.40833 9.01406 10.9996 10.247 14.1091L8.97752 8.15164C8.76309 7.33068 8.15152 7.08125 7.37913 7.04492V7.05219Z" fill="#EFA841"/>
</g>
<path d="M95.4772 0.244141H50.4141V26.6226H95.4772V0.244141Z" fill="white"/>
<path d="M74.1022 14.0483C76.0745 14.0483 77.6733 12.4496 77.6733 10.4773C77.6733 8.50506 76.0745 6.90625 74.1022 6.90625C72.13 6.90625 70.5312 8.50506 70.5312 10.4773C70.5312 12.4496 72.13 14.0483 74.1022 14.0483Z" fill="#EF9122"/>
<path d="M70.5312 10.4773C70.5312 8.48575 72.1108 6.90625 74.1022 6.90625C76.0938 6.90625 77.6733 8.48575 77.6733 10.4773C77.6733 12.4688 76.0938 14.0483 74.1022 14.0483" fill="#F26E21"/>
<path d="M71.6328 7.93636C73.0064 6.56288 75.2726 6.56288 76.646 7.93636C78.0195 9.30983 78.0195 11.5761 76.646 12.9495" fill="#F44500"/>
<path d="M53.4307 7.11328H51.5078V13.8433H53.4307C54.4608 13.8433 55.2162 13.5686 55.8343 13.0879C56.5897 12.4699 57.0704 11.5084 57.0704 10.4783C57.0704 8.48675 55.6282 7.11328 53.4307 7.11328ZM55.0102 12.1951C54.5982 12.5385 54.0487 12.7445 53.2246 12.7445H52.8127V8.28073H53.156C53.98 8.28073 54.5295 8.41808 54.9415 8.83012C55.4223 9.24216 55.6969 9.86023 55.6969 10.4783C55.7656 11.0964 55.4908 11.783 55.0102 12.1951Z" fill="#595A5B"/>
<path d="M57.6953 7.11328H59.0002V13.8433H57.6953V7.11328Z" fill="#595A5B"/>
<path d="M62.2939 9.7232C61.4698 9.4485 61.2637 9.24249 61.2637 8.89912C61.2637 8.48707 61.6757 8.1437 62.2252 8.1437C62.6372 8.1437 62.9806 8.28105 63.3239 8.69309L64.0107 7.80033C63.4613 7.31962 62.7745 7.04492 62.0191 7.04492C60.8517 7.04492 59.8902 7.86901 59.8902 8.96779C59.8902 9.92923 60.3023 10.3413 61.5384 10.822C62.0878 11.028 62.2939 11.0967 62.4311 11.234C62.7059 11.3714 62.8432 11.6461 62.8432 11.9208C62.8432 12.4702 62.4311 12.8822 61.8131 12.8822C61.1951 12.8822 60.6456 12.5388 60.371 11.9894L59.5469 12.8136C60.1649 13.7062 60.9203 14.1183 61.8818 14.1183C63.2552 14.1183 64.2167 13.2256 64.2167 11.9208C64.2167 10.7533 63.8047 10.2726 62.2939 9.7232Z" fill="#595A5B"/>
<path d="M64.6328 10.4776C64.6328 12.4691 66.2123 13.98 68.2038 13.98C68.7532 13.98 69.234 13.8426 69.852 13.5679V11.9884C69.3026 12.5378 68.8219 12.7438 68.2725 12.7438C66.9677 12.7438 66.0062 11.7824 66.0062 10.4089C66.0062 9.10413 66.9677 8.07402 68.2038 8.07402C68.8219 8.07402 69.3026 8.28004 69.852 8.82943V7.24993C69.3026 6.97523 68.8219 6.83789 68.2038 6.83789C66.2809 6.97523 64.6328 8.55473 64.6328 10.4776Z" fill="#3B3D3F"/>
<path d="M80.6261 11.6458L78.8406 7.11328H77.3984L80.214 14.0493H80.9694L83.9224 7.11328H82.4802L80.6261 11.6458Z" fill="black"/>
<path d="M84.4766 13.8433H88.2536V12.7445H85.85V10.8903H88.1849V9.72289H85.85V8.28073H88.2536V7.11328H84.4766V13.8433Z" fill="black"/>
<path d="M91.9641 11.0277C92.9942 10.8217 93.5436 10.1349 93.5436 9.10482C93.5436 7.86869 92.6508 7.11328 91.14 7.11328H89.1484V13.8433H90.4533V11.165H90.6593L92.5135 13.8433H94.093L91.9641 11.0277ZM90.8653 10.2036H90.4533V8.14338H90.8653C91.6895 8.14338 92.1701 8.48675 92.1701 9.17349C92.1701 9.86023 91.6895 10.2036 90.8653 10.2036Z" fill="#595A5B"/>
<path d="M53.4307 7.11328H51.5078V13.8433H53.4307C54.4608 13.8433 55.2162 13.5686 55.8343 13.0879C56.5897 12.4699 57.0704 11.5084 57.0704 10.4783C57.0704 8.48676 55.6282 7.11328 53.4307 7.11328ZM55.0102 12.1952C54.5982 12.5386 54.0487 12.7445 53.2246 12.7445H52.8127V8.28074H53.156C53.98 8.28074 54.5295 8.41808 54.9415 8.83012C55.4223 9.24216 55.6969 9.86023 55.6969 10.4783C55.7656 11.0964 55.4908 11.7831 55.0102 12.1952Z" fill="#595A5B"/>
<path d="M57.6953 7.11328H59.0002V13.8433H57.6953V7.11328Z" fill="#595A5B"/>
<path d="M62.2939 9.7232C61.4698 9.4485 61.2637 9.24249 61.2637 8.89912C61.2637 8.48707 61.6757 8.1437 62.2252 8.1437C62.6372 8.1437 62.9806 8.28105 63.3239 8.69309L64.0107 7.80033C63.4613 7.31962 62.7745 7.04492 62.0191 7.04492C60.8517 7.04492 59.8902 7.86901 59.8902 8.96779C59.8902 9.92921 60.3023 10.3413 61.5384 10.822C62.0878 11.028 62.2939 11.0967 62.4311 11.234C62.7059 11.3713 62.8432 11.6461 62.8432 11.9208C62.8432 12.4701 62.4311 12.8821 61.8131 12.8821C61.1951 12.8821 60.6456 12.5388 60.371 11.9895L59.5469 12.8136C60.1649 13.7063 60.9203 14.1183 61.8818 14.1183C63.2552 14.1183 64.2167 13.2255 64.2167 11.9208C64.2167 10.7533 63.8047 10.2726 62.2939 9.7232Z" fill="#595A5B"/>
<path d="M68.2684 13.9814C68.8179 13.9814 69.2986 13.8441 69.9167 13.5694V11.9899C69.3673 12.5392 68.8866 12.7453 68.3371 12.7453C67.0324 12.7453 66.0709 11.7838 66.0709 10.4104C66.0709 9.72365 66.3457 9.17425 66.7576 8.69354L65.8649 7.80078C65.1782 8.41884 64.6975 9.38028 64.6975 10.4104C64.6288 12.4705 66.2083 13.9814 68.2684 13.9814Z" fill="#595A5B"/>
<path d="M91.9641 11.0277C92.9942 10.8217 93.5436 10.1349 93.5436 9.10482C93.5436 7.86869 92.6508 7.11328 91.14 7.11328H89.1484V13.8433H90.4533V11.165H90.6593L92.5135 13.8433H94.093L91.9641 11.0277ZM90.8653 10.2036H90.4533V8.14339H90.8653C91.6895 8.14339 92.1701 8.48676 92.1701 9.17349C92.1701 9.86023 91.6895 10.2036 90.8653 10.2036Z" fill="black"/>
<path d="M61.1953 20.0915V16.3145L63.8049 18.9927V16.5204H64.3542V20.2975L61.7446 17.6192V20.0915H61.1953Z" fill="#F26E21"/>
<path d="M67.1009 17.0708H65.6587V17.8949H67.0323V18.4444H65.6587V19.6118H67.1009V20.0925H65.1094V16.5215H67.1009V17.0708Z" fill="#F26E21"/>
<path d="M68.8187 17.0706V20.0922H68.2694V17.0706H67.4453V16.5898H69.6429V17.0706H68.8187Z" fill="#F26E21"/>
<path d="M70.4634 16.5904L71.3562 18.994L72.3176 16.4531L73.2104 18.994L74.1718 16.5904H74.8586L73.2791 20.3675L72.3863 17.8266L71.4249 20.3675L69.9141 16.5904H70.4634Z" fill="#F26E21"/>
<path d="M74.9297 18.3073C74.9354 17.8173 75.1326 17.349 75.4791 17.0025C75.8256 16.656 76.2939 16.4588 76.7839 16.4531C77.2739 16.4588 77.7422 16.656 78.0887 17.0025C78.4352 17.349 78.6323 17.8173 78.6381 18.3073C78.6323 18.7973 78.4352 19.2656 78.0887 19.6121C77.7422 19.9586 77.2739 20.1558 76.7839 20.1615C76.3031 20.1615 75.8911 20.0241 75.5477 19.6807C75.1357 19.3374 74.9297 18.9253 74.9297 18.3073ZM75.4791 18.3073C75.4791 18.7194 75.6164 18.994 75.8911 19.2687C76.1658 19.5434 76.4405 19.6807 76.7839 19.6807C77.1272 19.6807 77.4706 19.5434 77.7454 19.2687C78.02 18.994 78.1573 18.7194 78.1573 18.3073C78.1573 17.8953 78.02 17.6206 77.7454 17.3458C77.4706 17.0711 77.1959 16.9338 76.7839 16.9338C76.4405 16.9338 76.0972 17.0711 75.8225 17.3458C75.6164 17.6206 75.4791 17.964 75.4791 18.3073Z" fill="#F26E21"/>
<path d="M80.5564 18.5816L81.6552 20.0925H80.9684L79.9383 18.6503H79.8696V20.0925H79.3203V16.5215H79.9383C80.4191 16.5215 80.7624 16.5902 80.9684 16.7961C81.1745 17.0022 81.3118 17.2769 81.3118 17.5516C81.3118 17.8262 81.2432 18.0323 81.1058 18.1696C80.9684 18.4444 80.7624 18.5816 80.5564 18.5816ZM79.8696 18.1696H80.007C80.4878 18.1696 80.7624 17.9636 80.7624 17.6203C80.7624 17.2769 80.4878 17.0708 80.007 17.0708H79.801V18.1696H79.8696Z" fill="#F26E21"/>
<path d="M82.6884 17.9639L84.0619 16.5217H84.7486L83.1692 18.1012L84.7486 20.0241H84.0619L82.7571 18.4446L82.6198 18.582V20.0241H82.0703V16.4531H82.6198V17.9639H82.6884Z" fill="#F26E21"/>
<path d="M87.0862 12.7443H85.85V11.5082L84.4766 10.1348V13.8431H88.1849L87.0862 12.7443Z" fill="#3B3D3F"/>
<path d="M82.1369 7.80197L80.6261 11.6478L78.8406 7.11523H77.3984L80.214 14.0513H80.9694L83.167 8.83208L82.1369 7.80197Z" fill="#3B3D3F"/>
<path d="M148.235 0.244141H99.875V26.6226H148.235V0.244141Z" fill="white"/>
<mask id="mask1_1880_39156" style="mask-type:luminance" maskUnits="userSpaceOnUse" x="99" y="6" width="50" height="14">
<path d="M148.228 6.83789H99.8672V19.9862H148.228V6.83789Z" fill="white"/>
</mask>
<g mask="url(#mask1_1880_39156)">
<path d="M108.764 16.4489L108.725 16.416C108.725 16.19 108.732 15.9631 108.717 15.7381C108.707 15.5808 108.749 15.5307 108.915 15.5323C109.898 15.5409 110.88 15.5323 111.863 15.5396C112.004 15.5396 112.056 15.5094 112.05 15.3585C112.038 15.0359 112.041 14.7126 112.05 14.3891C112.052 14.2697 112.015 14.236 111.895 14.2363C110.376 14.24 108.858 14.24 107.34 14.2363C107.206 14.2363 107.179 14.2806 107.18 14.4023C107.183 16.2119 107.183 18.0215 107.18 19.8311C107.18 19.9512 107.213 19.9823 107.331 19.9819C108.843 19.978 110.356 19.978 111.868 19.9819C112.021 19.9819 112.053 19.9245 112.05 19.788C112.042 19.4848 112.037 19.1804 112.05 18.8775C112.058 18.7049 112.008 18.6631 111.836 18.6646C110.855 18.6735 109.872 18.6666 108.89 18.672C108.757 18.672 108.707 18.6433 108.717 18.5034C108.733 18.3294 108.733 18.1545 108.717 17.9806C108.697 17.7895 108.765 17.748 108.95 17.748C109.887 17.7581 110.824 17.748 111.761 17.7565C111.925 17.7565 111.967 17.7065 111.962 17.549C111.95 17.2458 111.949 16.9414 111.962 16.6385C111.968 16.4804 111.913 16.4486 111.767 16.4494C110.766 16.4544 109.764 16.4501 108.764 16.4489Z" fill="#FEFEFE"/>
<path d="M143.059 9.13152H143.152C143.42 9.53596 143.7 9.93148 143.967 10.3359C144.438 11.0543 144.914 11.7695 145.395 12.4815C145.415 12.5168 145.446 12.5454 145.484 12.564C145.52 12.5827 145.561 12.5906 145.602 12.5869C146.125 12.583 146.649 12.5811 147.172 12.5869C147.293 12.5869 147.322 12.5516 147.322 12.4341C147.319 10.6191 147.319 8.80412 147.322 6.98912C147.322 6.8662 147.284 6.8379 147.167 6.84022C146.779 6.84681 146.391 6.85069 146.005 6.84022C145.846 6.83557 145.798 6.87279 145.799 7.03837C145.807 8.05237 145.803 9.06638 145.803 10.0804V10.2948C145.749 10.2646 145.703 10.2199 145.673 10.1657C144.959 9.09585 144.243 8.02833 143.533 6.95694C143.48 6.87939 143.434 6.84061 143.337 6.84061C142.781 6.84526 142.226 6.84526 141.67 6.84061C141.555 6.84061 141.531 6.87939 141.531 6.98408C141.533 8.80579 141.533 10.6273 141.531 12.4485C141.531 12.5617 141.57 12.5884 141.674 12.5869C142.069 12.5811 142.463 12.5764 142.857 12.5869C143.018 12.5924 143.059 12.5481 143.058 12.3853C143.051 11.3015 143.058 10.2165 143.059 9.13152Z" fill="#FEFEFE"/>
<path d="M113.085 8.58944C113.088 8.66699 113.094 8.74454 113.094 8.82209C113.094 10.0168 113.096 11.2115 113.09 12.4062C113.09 12.5508 113.125 12.5923 113.272 12.5885C113.665 12.5779 114.06 12.5807 114.454 12.5885C114.573 12.5885 114.606 12.5524 114.606 12.4333C114.603 10.6186 114.603 8.80374 114.606 6.98875C114.606 6.88638 114.586 6.83984 114.469 6.84062C113.745 6.84527 113.021 6.84527 112.298 6.84062C112.208 6.84062 112.184 6.87397 112.158 6.94881C112.013 7.36565 111.864 7.78056 111.713 8.19546C111.448 8.92938 111.183 9.66303 110.916 10.3964C110.851 10.3782 110.857 10.3259 110.843 10.2851C110.444 9.18672 110.045 8.08806 109.646 6.98913C109.611 6.89103 109.571 6.83674 109.447 6.83791C108.743 6.84605 108.039 6.84411 107.335 6.83791C107.221 6.83791 107.18 6.86388 107.18 6.9872C107.183 8.80194 107.183 10.6167 107.18 12.4314C107.18 12.5505 107.215 12.5865 107.335 12.5842C107.723 12.5779 108.11 12.5733 108.498 12.5861C108.662 12.5916 108.699 12.5423 108.699 12.383C108.692 11.1173 108.696 9.85123 108.699 8.58556H108.716L108.732 8.57897C108.997 9.28896 109.281 9.99314 109.522 10.7117C109.704 11.2519 109.934 11.7737 110.104 12.3178C110.133 12.412 110.134 12.5959 110.345 12.5865C110.712 12.5702 111.082 12.5772 111.449 12.5865C111.555 12.5888 111.594 12.5434 111.626 12.4558C111.976 11.4895 112.322 10.5213 112.685 9.55924C112.808 9.23312 112.89 8.88957 113.072 8.58556L113.082 8.59177L113.085 8.58944Z" fill="#FEFEFE"/>
<path d="M129.441 17.9092C129.629 17.8569 129.811 17.788 129.987 17.7033C130.495 17.4446 130.822 17.0383 130.93 16.4841C131.039 15.92 130.962 15.3798 130.581 14.9168C130.271 14.5426 129.855 14.2804 129.397 14.2615C128.179 14.2114 126.957 14.2425 125.738 14.2367C125.621 14.2367 125.601 14.2821 125.602 14.3847C125.604 16.1988 125.604 18.0129 125.602 19.827C125.602 19.9465 125.635 19.9821 125.754 19.9795C126.161 19.9729 126.569 19.9714 126.974 19.9795C127.111 19.9821 127.149 19.943 127.147 19.8069C127.14 19.2454 127.144 18.6823 127.145 18.1217C127.145 18.0728 127.123 18.0151 127.171 17.9766C127.245 17.9177 127.705 17.9859 127.771 18.0623C128.231 18.5963 128.702 19.1213 129.144 19.6689C129.334 19.905 129.536 20.0008 129.842 19.9833C130.327 19.9558 130.814 19.976 131.354 19.976C130.698 19.271 130.082 18.6033 129.441 17.9092Z" fill="#FEFEFE"/>
<path d="M131.783 17.1148C131.783 18.0128 131.783 18.9107 131.783 19.8086C131.783 19.9032 131.775 19.9803 131.916 19.9799C133.449 19.9755 134.98 19.9755 136.511 19.9799C136.613 19.9799 136.643 19.9462 136.642 19.8461C136.636 19.5297 136.627 19.2125 136.644 18.897C136.654 18.7112 136.605 18.6615 136.414 18.6643C135.439 18.6752 134.463 18.6674 133.487 18.672C133.362 18.672 133.298 18.6542 133.309 18.5075C133.323 18.327 133.323 18.1454 133.309 17.9647C133.295 17.7972 133.342 17.7467 133.518 17.7487C134.474 17.7584 135.43 17.751 136.388 17.7561C136.521 17.7561 136.568 17.7208 136.563 17.5832C136.554 17.2729 136.55 16.9628 136.563 16.6525C136.57 16.4923 136.524 16.4474 136.363 16.4489C135.401 16.4567 134.438 16.4489 133.475 16.4552C133.354 16.4552 133.301 16.4311 133.31 16.2977C133.323 16.1107 133.323 15.9232 133.31 15.7363C133.298 15.5757 133.349 15.5311 133.511 15.5327C134.493 15.5404 135.475 15.5327 136.458 15.5393C136.595 15.5393 136.652 15.516 136.646 15.3617C136.633 15.0456 136.632 14.7284 136.646 14.4124C136.652 14.2573 136.594 14.236 136.458 14.2363C134.959 14.2411 133.46 14.2411 131.96 14.2363C131.81 14.2363 131.78 14.2825 131.781 14.4221C131.786 15.3191 131.783 16.217 131.783 17.1148Z" fill="#FEFEFE"/>
<path d="M103.365 6.8444C103.094 6.8444 102.822 6.84944 102.551 6.84207C102.429 6.83897 102.351 6.86107 102.3 6.98981C102.192 7.25736 102.061 7.51562 101.945 7.77969C101.773 8.17171 101.609 8.56724 101.436 8.95848C101.262 9.34974 101.077 9.73402 100.904 10.1253C100.729 10.5227 100.567 10.926 100.392 11.323C100.232 11.6856 100.062 12.0432 99.8989 12.4041C99.8454 12.5233 99.8434 12.5957 100.022 12.5903C100.461 12.5771 100.901 12.5736 101.34 12.5923C101.508 12.5992 101.565 12.522 101.615 12.3984C101.728 12.1196 101.845 11.8422 101.955 11.5627C101.994 11.4595 102.053 11.4204 102.17 11.4212C102.958 11.427 103.746 11.4235 104.535 11.4255C104.593 11.4255 104.661 11.3991 104.696 11.4879C104.822 11.8019 104.968 12.1083 105.081 12.4274C105.123 12.5438 105.164 12.5906 105.287 12.5895C105.765 12.584 106.243 12.584 106.722 12.5895C106.859 12.5895 106.888 12.5678 106.827 12.4317C106.511 11.7387 106.204 11.0427 105.896 10.3455C105.399 9.21584 104.905 8.08512 104.413 6.95336C104.376 6.86999 104.328 6.84207 104.239 6.84362C103.947 6.84789 103.656 6.8444 103.365 6.8444Z" fill="#FEFEFE"/>
<path d="M141.233 12.5846C140.95 11.9534 140.678 11.3485 140.409 10.7409C139.859 9.48811 139.309 8.23435 138.762 6.97954C138.718 6.87717 138.66 6.83879 138.544 6.83995C137.989 6.84693 137.433 6.8508 136.877 6.83995C136.712 6.83646 136.658 6.9175 136.608 7.04468C136.531 7.23857 136.444 7.42663 136.36 7.61703C136.198 7.98463 136.035 8.35146 135.873 8.71944C135.702 9.11108 135.533 9.50427 135.359 9.89553C135.196 10.2631 135.029 10.628 134.866 10.9948C134.662 11.4477 134.503 11.9208 134.233 12.3412C134.189 12.4102 134.204 12.4826 134.215 12.5451C134.226 12.6184 134.309 12.5839 134.361 12.5839C134.819 12.5866 135.278 12.5839 135.736 12.5882C135.846 12.5882 135.897 12.5529 135.934 12.4529C136.047 12.1531 136.171 11.8576 136.292 11.5609C136.324 11.4811 136.359 11.4198 136.469 11.4206C137.276 11.4256 138.084 11.4244 138.892 11.4206C138.965 11.4206 139.016 11.4411 139.043 11.5083C139.15 11.7688 139.247 12.0341 139.366 12.2888C139.416 12.3935 139.414 12.5754 139.564 12.5793C140.112 12.5932 140.659 12.5846 141.233 12.5846Z" fill="#FEFEFE"/>
<path d="M119.241 14.2408C118.585 14.2408 117.971 14.2408 117.358 14.2408C117.333 14.2396 117.307 14.2445 117.284 14.255C117.26 14.2655 117.24 14.2813 117.224 14.3012C117.073 14.4773 116.923 14.653 116.771 14.8286C116.493 15.1505 116.217 15.4742 115.934 15.7911C115.841 15.8938 115.749 15.9228 115.638 15.7786C115.483 15.5766 115.324 15.3711 115.151 15.1853C114.911 14.9267 114.673 14.6704 114.466 14.3839C114.403 14.2951 114.327 14.2403 114.211 14.2403C113.63 14.2403 113.048 14.2403 112.467 14.2403C112.425 14.2403 112.365 14.2179 112.353 14.2791C112.348 14.3058 112.385 14.3446 112.409 14.3722C112.715 14.7181 113.021 15.0633 113.329 15.4079C113.791 15.9244 114.248 16.4475 114.721 16.9516C114.821 17.0594 114.798 17.1067 114.721 17.1921C114.385 17.5638 114.05 17.9371 113.717 18.3118C113.374 18.6965 113.023 19.0758 112.691 19.4702C112.554 19.633 112.37 19.7629 112.281 19.9765C112.876 19.9765 113.457 19.9723 114.038 19.9801C114.176 19.9801 114.257 19.9296 114.343 19.8273C114.778 19.31 115.225 18.8024 115.662 18.2874C115.753 18.1796 115.795 18.1897 115.887 18.2999C116.301 18.7978 116.733 19.2813 117.15 19.7757C117.204 19.8461 117.276 19.9018 117.357 19.9377C117.438 19.9737 117.527 19.9887 117.615 19.9816C118.1 19.9664 118.585 19.9765 119.069 19.9765H119.317C119.312 19.9568 119.305 19.9374 119.296 19.9192C118.499 19.0165 117.706 18.1114 116.9 17.2153C116.779 17.0795 116.783 16.9907 116.897 16.8663C117.255 16.4766 117.605 16.0814 117.956 15.6871C118.375 15.2179 118.792 14.746 119.241 14.2408Z" fill="#FEFEFE"/>
<path d="M140.587 14.2393C140.065 14.2668 139.424 14.18 138.789 14.2897C138.145 14.401 137.649 14.7162 137.402 15.3569C137.26 15.7229 137.243 16.0898 137.315 16.4736C137.43 17.0797 137.932 17.5726 138.54 17.6916C138.974 17.7769 139.411 17.7416 139.848 17.7521C140.106 17.7579 140.364 17.749 140.622 17.766C140.84 17.78 141.01 17.9475 141.036 18.1251C141.093 18.5027 140.835 18.6645 140.511 18.6661C139.555 18.6707 138.599 18.67 137.642 18.6641C137.494 18.6641 137.457 18.7029 137.461 18.8475C137.472 19.164 137.472 19.4805 137.461 19.7971C137.457 19.9418 137.497 19.9817 137.643 19.9809C138.619 19.974 139.595 19.974 140.57 19.9809C140.794 19.9818 141.016 19.954 141.232 19.8984C141.735 19.772 142.122 19.4931 142.378 19.0383C142.602 18.6392 142.632 18.203 142.571 17.7688C142.499 17.2542 142.213 16.8768 141.73 16.652C141.408 16.5015 141.066 16.4612 140.719 16.4553C140.286 16.448 139.853 16.4527 139.421 16.4553C139.324 16.4576 139.228 16.4452 139.134 16.4185C139.044 16.3919 138.966 16.3373 138.909 16.2626C138.853 16.1879 138.822 16.0971 138.821 16.0036C138.817 15.7954 138.913 15.6717 139.119 15.5895C139.228 15.5503 139.343 15.533 139.46 15.5384C140.209 15.5384 140.959 15.5341 141.708 15.5418C141.853 15.5418 141.924 15.4988 141.98 15.3661C142.119 15.0362 142.271 14.7116 142.428 14.3894C142.488 14.2676 142.468 14.2373 142.334 14.2389C141.789 14.2424 141.246 14.2393 140.587 14.2393Z" fill="#FEFEFE"/>
<path d="M148.123 14.2441C147.018 14.2441 145.94 14.2441 144.861 14.2441C144.628 14.2459 144.398 14.2829 144.177 14.3538C143.637 14.5213 143.225 14.844 143.027 15.3826C142.879 15.7843 142.885 16.2043 142.996 16.6172C143.136 17.1419 143.494 17.4587 143.993 17.6398C144.274 17.7421 144.567 17.7499 144.859 17.753C145.299 17.7573 145.738 17.7421 146.177 17.7612C146.6 17.7797 146.791 18.0621 146.661 18.3776C146.59 18.5476 146.403 18.6681 146.185 18.6685C145.235 18.6685 144.284 18.6755 143.336 18.6638C143.142 18.6611 143.099 18.7212 143.109 18.9011C143.125 19.1914 143.125 19.4822 143.109 19.7725C143.099 19.9501 143.16 19.9838 143.326 19.9822C144.339 19.973 145.354 19.9791 146.368 19.9722C146.772 19.9703 147.165 19.8458 147.497 19.615C148.072 19.2196 148.273 18.6405 148.236 17.9759C148.207 17.4785 148.021 17.0496 147.573 16.7638C147.206 16.5311 146.801 16.466 146.382 16.4563C145.943 16.4462 145.504 16.4528 145.064 16.4543C144.967 16.4563 144.87 16.4444 144.777 16.419C144.711 16.3995 144.65 16.3647 144.601 16.3177C144.55 16.2707 144.512 16.2126 144.488 16.148C144.463 16.0835 144.455 16.0142 144.462 15.9458C144.47 15.8773 144.493 15.8116 144.531 15.7536C144.661 15.5501 144.869 15.54 145.076 15.5389C145.845 15.5358 146.613 15.5389 147.382 15.5389C147.46 15.5389 147.532 15.5516 147.576 15.4562C147.751 15.0577 147.933 14.6641 148.123 14.2441Z" fill="#FEFEFE"/>
<path d="M119.535 17.1167C119.535 18.0139 119.538 18.9112 119.532 19.8089C119.532 19.9445 119.571 19.9838 119.705 19.9807C120.098 19.9721 120.492 19.9729 120.886 19.9807C121.015 19.9833 121.068 19.9577 121.066 19.814C121.057 19.3098 121.069 18.8058 121.058 18.3016C121.056 18.1434 121.095 18.0961 121.259 18.0961C121.904 18.0961 122.55 18.1279 123.195 18.0802C123.663 18.0527 124.101 17.8468 124.421 17.5052C124.882 17.015 125.025 16.426 124.897 15.7603C124.828 15.4027 124.687 15.0901 124.439 14.8295C124.012 14.379 123.461 14.2402 122.863 14.2387C121.816 14.2356 120.769 14.2387 119.726 14.2344C119.579 14.2344 119.531 14.265 119.531 14.4229C119.539 15.3225 119.535 16.2194 119.535 17.1167Z" fill="#FEFEFE"/>
<path d="M134.085 11.2836C133.798 11.2836 133.534 11.2874 133.27 11.2836C132.78 11.275 132.318 11.1921 131.991 10.7698C131.76 10.4728 131.701 10.1238 131.695 9.76665C131.689 9.28311 131.778 8.82632 132.185 8.49711C132.478 8.26057 132.824 8.19853 133.185 8.19581C133.689 8.19116 134.194 8.18923 134.697 8.19776C134.838 8.20047 134.868 8.15587 134.865 8.02403C134.856 7.68203 134.856 7.33976 134.865 6.99723C134.868 6.86423 134.821 6.83748 134.7 6.84213C133.985 6.85958 133.266 6.80646 132.553 6.8809C131.948 6.94528 131.383 7.13063 130.945 7.57113C130.477 8.03203 130.203 8.6537 130.176 9.30986C130.138 10.0699 130.168 10.8082 130.603 11.4813C131.029 12.1405 131.666 12.4356 132.392 12.5671C132.705 12.6233 133.035 12.5811 133.358 12.5826C133.414 12.5826 133.471 12.5923 133.504 12.5202C133.693 12.1154 133.884 11.714 134.085 11.2836Z" fill="#FEFEFE"/>
<path d="M129.347 9.70793C129.347 8.81064 129.345 7.91296 129.35 7.01568C129.35 6.88384 129.32 6.83653 129.18 6.84002C128.774 6.84933 128.365 6.84662 127.96 6.84002C127.846 6.84002 127.805 6.86406 127.805 6.98853C127.809 8.80302 127.809 10.6172 127.805 12.4312C127.805 12.5704 127.86 12.5863 127.975 12.5863C128.363 12.5812 128.751 12.5766 129.139 12.5883C129.302 12.5929 129.358 12.5596 129.356 12.3804C129.341 11.4897 129.347 10.5986 129.347 9.70793Z" fill="#FEFEFE"/>
<path d="M113.072 8.58752C112.893 8.89152 112.809 9.23509 112.685 9.56119C112.322 10.5232 111.977 11.4915 111.626 12.4578C111.595 12.5454 111.555 12.5908 111.449 12.5885C111.081 12.5811 110.712 12.5741 110.345 12.5885C110.134 12.5977 110.133 12.414 110.104 12.3198C109.933 11.7769 109.703 11.2537 109.522 10.7136C109.281 9.9951 108.997 9.29092 108.732 8.58092C108.722 8.55999 108.713 8.53943 108.703 8.51849L108.699 8.58752C108.699 9.85318 108.694 11.1192 108.699 12.3849C108.699 12.5443 108.662 12.5936 108.498 12.5881C108.11 12.5753 107.723 12.5799 107.335 12.5862C107.217 12.5885 107.18 12.5524 107.18 12.4334C107.183 10.6186 107.183 8.80389 107.18 6.98915C107.18 6.86584 107.222 6.83909 107.335 6.83986C108.039 6.84451 108.743 6.84645 109.447 6.83986C109.571 6.83986 109.611 6.89299 109.646 6.99108C110.044 8.09001 110.442 9.18868 110.843 10.2871C110.857 10.3278 110.851 10.3802 110.915 10.3984C111.182 9.66472 111.448 8.93081 111.714 8.19664C111.864 7.78174 112.014 7.36683 112.158 6.94999C112.185 6.87515 112.208 6.84102 112.298 6.84181C113.022 6.84671 113.745 6.84671 114.47 6.84181C114.586 6.84181 114.607 6.88756 114.607 6.98993C114.605 8.80492 114.605 10.6198 114.607 12.4345C114.607 12.5509 114.574 12.5896 114.454 12.5896C114.061 12.5827 113.666 12.5799 113.273 12.5896C113.127 12.5936 113.09 12.5509 113.092 12.4074C113.097 11.2127 113.095 10.018 113.094 8.82328C113.094 8.74572 113.089 8.66817 113.086 8.59062V8.52741L113.072 8.58752Z" fill="#0270CF"/>
<path d="M143.058 9.1323C143.058 10.218 143.051 11.3038 143.058 12.3872C143.058 12.5485 143.019 12.5942 142.857 12.5889C142.462 12.5768 142.069 12.5815 141.674 12.5889C141.568 12.5889 141.53 12.5636 141.531 12.4504C141.535 10.6289 141.535 8.80749 141.531 6.98603C141.531 6.87978 141.555 6.84139 141.669 6.84256C142.225 6.84799 142.781 6.84799 143.336 6.84256C143.434 6.84256 143.48 6.8794 143.532 6.95889C144.243 8.03028 144.959 9.09779 145.673 10.1676C145.703 10.2218 145.749 10.2665 145.803 10.2968V10.0823C145.803 9.06832 145.807 8.05433 145.799 7.04032C145.799 6.87474 145.846 6.83751 146.004 6.84217C146.391 6.8542 146.779 6.85032 147.167 6.84217C147.284 6.83984 147.322 6.86815 147.322 6.99107C147.318 8.80633 147.318 10.6213 147.322 12.4361C147.322 12.5524 147.293 12.5912 147.172 12.5889C146.649 12.5823 146.124 12.5841 145.601 12.5889C145.561 12.5926 145.52 12.5847 145.483 12.566C145.446 12.5473 145.415 12.5187 145.395 12.4834C144.913 11.7722 144.437 11.057 143.966 10.3379C143.701 9.93343 143.421 9.5379 143.151 9.13347C143.138 9.07647 143.135 9.01171 143.045 9.00202C143.05 9.04777 143.054 9.09004 143.058 9.1323Z" fill="#0270CF"/>
<path d="M129.443 17.9104C130.084 18.6044 130.7 19.2723 131.352 19.978C130.814 19.978 130.326 19.9578 129.84 19.9853C129.535 20.0027 129.336 19.9078 129.142 19.6709C128.702 19.1229 128.231 18.5983 127.772 18.0643C127.706 17.9867 127.245 17.9197 127.171 17.9786C127.124 18.0174 127.146 18.0748 127.146 18.1237C127.146 18.6856 127.14 19.2482 127.148 19.8088C127.148 19.945 127.112 19.9841 126.975 19.9814C126.569 19.9725 126.161 19.974 125.754 19.9814C125.636 19.9834 125.602 19.9485 125.602 19.8291C125.605 18.0149 125.605 16.2007 125.602 14.3867C125.602 14.284 125.621 14.2378 125.738 14.2387C126.958 14.2444 128.181 14.2134 129.398 14.2634C129.855 14.2824 130.272 14.5446 130.582 14.9188C130.964 15.3818 131.042 15.922 130.93 16.4861C130.823 17.0402 130.496 17.4466 129.988 17.7053C129.812 17.7897 129.631 17.8583 129.443 17.9104ZM128.058 16.6912V16.6886C128.323 16.6886 128.588 16.6971 128.852 16.6858C129.085 16.6762 129.282 16.5854 129.386 16.3628C129.431 16.2725 129.45 16.1712 129.441 16.0707C129.431 15.9701 129.393 15.8742 129.333 15.7936C129.187 15.5904 128.963 15.5423 128.732 15.5393C128.248 15.533 127.762 15.5393 127.28 15.5353C127.184 15.5353 127.14 15.5563 127.143 15.6632C127.149 15.9665 127.148 16.2697 127.143 16.573C127.143 16.6668 127.172 16.6947 127.265 16.6932C127.529 16.6882 127.793 16.6912 128.058 16.6912Z" fill="#0270CF"/>
<path d="M121.635 12.4986C121.635 10.6912 121.642 8.88342 121.633 7.07566C121.633 6.8748 121.687 6.83602 121.877 6.83796C122.87 6.84804 123.865 6.83796 124.86 6.84455C125.359 6.84765 125.845 6.92211 126.267 7.22146C126.732 7.5526 126.965 8.00358 126.994 8.57359C127.026 9.15524 126.841 9.64498 126.425 10.0452C126.213 10.2475 125.95 10.39 125.664 10.4581C125.473 10.5054 125.514 10.5745 125.613 10.6811C126.136 11.2425 126.657 11.8054 127.176 12.3694C127.231 12.4288 127.279 12.4943 127.351 12.5834C126.722 12.5834 126.124 12.5834 125.527 12.5834C125.495 12.5823 125.463 12.5739 125.436 12.5588C125.408 12.5437 125.384 12.5222 125.365 12.4962C124.872 11.9128 124.376 11.3311 123.879 10.7513C123.773 10.626 123.39 10.5407 123.223 10.6035C123.143 10.6342 123.176 10.7016 123.176 10.7517C123.172 11.3004 123.166 11.8495 123.176 12.3981C123.178 12.5532 123.131 12.592 122.981 12.5889C122.549 12.5804 122.118 12.5889 121.684 12.5889C121.633 12.5889 121.636 12.5471 121.635 12.4986ZM124.09 8.15791V8.15248C123.826 8.15248 123.561 8.15481 123.296 8.15248C123.208 8.15248 123.167 8.17459 123.168 8.27114C123.173 8.58135 123.17 8.89156 123.168 9.20177C123.168 9.26925 123.186 9.31306 123.265 9.31267C123.815 9.30724 124.364 9.3212 124.911 9.29328C125.27 9.27506 125.48 9.02883 125.469 8.72095C125.458 8.41306 125.218 8.17807 124.863 8.16256C124.607 8.14744 124.349 8.15791 124.09 8.15791Z" fill="#0270CF"/>
<path d="M108.763 16.4494C109.765 16.4494 110.766 16.4548 111.768 16.4494C111.915 16.4494 111.97 16.4804 111.961 16.6385C111.948 16.9414 111.949 17.2458 111.961 17.549C111.968 17.7065 111.926 17.7581 111.76 17.7565C110.824 17.7484 109.887 17.7565 108.95 17.748C108.765 17.746 108.697 17.7868 108.717 17.9806C108.732 18.1545 108.732 18.3295 108.717 18.5034C108.707 18.6433 108.756 18.6727 108.89 18.672C109.871 18.6666 110.854 18.672 111.837 18.6646C112.007 18.6646 112.059 18.7034 112.049 18.8775C112.035 19.1804 112.04 19.4848 112.049 19.788C112.054 19.9245 112.021 19.9819 111.868 19.9819C110.356 19.9765 108.844 19.9765 107.331 19.9819C107.215 19.9819 107.179 19.9512 107.18 19.8311C107.184 18.0215 107.184 16.2119 107.18 14.4023C107.18 14.2806 107.206 14.2356 107.339 14.2363C108.858 14.2411 110.376 14.2411 111.894 14.2363C112.013 14.2363 112.049 14.2698 112.049 14.3891C112.043 14.7118 112.039 15.0352 112.049 15.3585C112.055 15.5094 112.003 15.5404 111.862 15.5397C110.881 15.5338 109.898 15.5397 108.915 15.5323C108.749 15.5323 108.707 15.5808 108.717 15.7381C108.732 15.9631 108.723 16.19 108.725 16.416C108.722 16.4471 108.735 16.4552 108.763 16.4494Z" fill="#0270CF"/>
<path d="M115.781 12.4985C115.781 10.69 115.787 8.88142 115.781 7.07289C115.781 6.89258 115.814 6.83674 116.009 6.83791C117.488 6.84721 118.966 6.84489 120.446 6.83791C120.591 6.83791 120.649 6.86311 120.643 7.02441C120.628 7.34045 120.629 7.65764 120.643 7.97366C120.648 8.12295 120.6 8.15475 120.458 8.15397C119.482 8.14777 118.507 8.15397 117.531 8.14699C117.368 8.14699 117.297 8.17802 117.312 8.35523C117.328 8.52909 117.329 8.70392 117.316 8.87793C117.304 9.02993 117.363 9.05825 117.502 9.05747C118.451 9.05165 119.402 9.05747 120.35 9.0501C120.522 9.0501 120.572 9.08888 120.562 9.26182C120.547 9.55205 120.547 9.84289 120.562 10.1331C120.572 10.313 120.533 10.3716 120.337 10.3693C119.394 10.3573 118.451 10.3669 117.506 10.3607C117.358 10.3607 117.297 10.391 117.312 10.55C117.327 10.7238 117.327 10.8985 117.312 11.0723C117.299 11.2367 117.34 11.2925 117.52 11.2906C118.495 11.2801 119.471 11.2883 120.446 11.2824C120.592 11.2824 120.648 11.3103 120.643 11.4697C120.63 11.8245 120.643 12.1802 120.643 12.5353C120.643 12.5598 120.603 12.5873 120.555 12.5873H115.83C115.789 12.5721 115.793 12.5295 115.781 12.4985Z" fill="#0270CF"/>
<path d="M131.785 17.1154C131.785 16.2178 131.788 15.3197 131.781 14.4221C131.781 14.2824 131.81 14.2356 131.96 14.2363C133.46 14.2425 134.959 14.2425 136.458 14.2363C136.594 14.2363 136.652 14.2569 136.646 14.4123C136.632 14.7284 136.633 15.0456 136.646 15.3616C136.652 15.5167 136.596 15.54 136.459 15.5392C135.476 15.5337 134.495 15.5392 133.511 15.5326C133.349 15.5326 133.298 15.5756 133.31 15.7362C133.323 15.9231 133.323 16.1107 133.31 16.2977C133.301 16.431 133.354 16.4554 133.476 16.4551C134.438 16.4505 135.401 16.4551 136.363 16.4489C136.526 16.4489 136.57 16.4924 136.563 16.6525C136.55 16.9627 136.552 17.2729 136.563 17.5831C136.568 17.7207 136.521 17.7564 136.388 17.756C135.431 17.751 134.475 17.7584 133.518 17.7486C133.342 17.7468 133.295 17.7971 133.309 17.9647C133.323 18.1453 133.323 18.3269 133.309 18.5076C133.299 18.6541 133.362 18.6723 133.487 18.672C134.463 18.6673 135.439 18.6751 136.414 18.6642C136.604 18.6642 136.654 18.7119 136.645 18.8969C136.627 19.2125 136.637 19.5297 136.641 19.846C136.641 19.9462 136.614 19.9802 136.511 19.9799C134.98 19.977 133.447 19.977 131.918 19.9799C131.775 19.9799 131.783 19.9023 131.783 19.8084C131.786 18.9119 131.786 18.0143 131.785 17.1154Z" fill="#0270CF"/>
<path d="M103.367 6.8436C103.658 6.8436 103.949 6.84709 104.24 6.8436C104.329 6.8436 104.377 6.86996 104.413 6.95334C104.906 8.08355 105.4 9.21362 105.896 10.3436C106.203 11.0415 106.511 11.7368 106.827 12.4297C106.888 12.5659 106.859 12.5891 106.722 12.5875C106.244 12.5818 105.766 12.5818 105.287 12.5875C105.164 12.5875 105.123 12.543 105.081 12.4255C104.967 12.1071 104.822 11.8 104.696 11.4859C104.661 11.3971 104.593 11.4235 104.535 11.4235C103.747 11.4215 102.959 11.4235 102.17 11.4192C102.053 11.4192 101.995 11.458 101.955 11.5608C101.845 11.8404 101.728 12.1176 101.615 12.3964C101.565 12.5213 101.508 12.5984 101.34 12.5903C100.902 12.5717 100.462 12.5751 100.022 12.5883C99.8434 12.5938 99.8454 12.5213 99.8989 12.4022C100.062 12.0412 100.232 11.6836 100.392 11.3211C100.567 10.924 100.729 10.5208 100.904 10.1233C101.077 9.73244 101.262 9.34779 101.436 8.95653C101.609 8.56527 101.773 8.16975 101.945 7.77772C102.062 7.51365 102.192 7.25541 102.3 6.98785C102.351 6.85912 102.429 6.83701 102.551 6.84011C102.825 6.84864 103.096 6.8436 103.367 6.8436ZM104.154 10.1648C103.906 9.57269 103.673 9.01353 103.438 8.45476C103.414 8.39621 103.386 8.33843 103.347 8.25196C103.085 8.87703 102.833 9.47729 102.582 10.0779C102.54 10.1799 102.618 10.164 102.672 10.164C103.156 10.1648 103.64 10.1648 104.154 10.1648Z" fill="#0270CF"/>
<path d="M141.231 12.5851C140.658 12.5851 140.111 12.5935 139.564 12.5793C139.413 12.5754 139.415 12.3935 139.366 12.2888C139.246 12.0341 139.149 11.7688 139.043 11.5083C139.015 11.4411 138.965 11.4206 138.891 11.4206C138.083 11.4237 137.275 11.4249 136.469 11.4206C136.359 11.4206 136.325 11.4811 136.292 11.5609C136.172 11.8584 136.047 12.1539 135.933 12.4529C135.895 12.5529 135.845 12.5897 135.737 12.5882C135.278 12.582 134.819 12.5882 134.361 12.5839C134.31 12.5839 134.225 12.6176 134.214 12.5451C134.205 12.4826 134.188 12.4102 134.233 12.3412C134.505 11.9208 134.663 11.4493 134.865 10.9948C135.029 10.628 135.196 10.2631 135.36 9.89553C135.532 9.50428 135.701 9.11108 135.873 8.71944C136.035 8.35146 136.198 7.98463 136.36 7.61703C136.443 7.42663 136.531 7.23818 136.608 7.04468C136.658 6.91711 136.712 6.83646 136.876 6.83995C137.433 6.85236 137.988 6.84848 138.545 6.83995C138.66 6.83995 138.717 6.87873 138.761 6.97954C139.309 8.23383 139.858 9.48761 140.409 10.7409C140.677 11.3489 140.951 11.9538 141.231 12.5851ZM137.689 8.24482C137.422 8.88114 137.175 9.46899 136.927 10.0557C136.889 10.1526 136.936 10.165 137.015 10.1646C137.46 10.1646 137.906 10.1615 138.351 10.1646C138.475 10.1646 138.475 10.122 138.435 10.0266C138.191 9.45154 137.95 8.87339 137.689 8.24482Z" fill="#0270CF"/>
<path d="M119.242 14.2411C118.793 14.7452 118.376 15.2182 117.957 15.6886C117.605 16.083 117.255 16.4781 116.899 16.8677C116.784 16.9926 116.779 17.0814 116.901 17.2168C117.704 18.1152 118.5 19.0184 119.297 19.921C119.306 19.9393 119.312 19.9585 119.317 19.9784H119.069C118.586 19.9784 118.1 19.9683 117.616 19.9835C117.527 19.9906 117.438 19.9756 117.357 19.9396C117.276 19.9037 117.205 19.848 117.15 19.7776C116.733 19.2831 116.302 18.7996 115.887 18.3017C115.795 18.1916 115.753 18.1815 115.662 18.2893C115.225 18.8042 114.778 19.3118 114.344 19.8292C114.257 19.9315 114.177 19.9842 114.039 19.9819C113.457 19.9741 112.876 19.9784 112.281 19.9784C112.37 19.7647 112.553 19.6348 112.691 19.4719C113.024 19.0776 113.374 18.6984 113.718 18.3137C114.052 17.9399 114.386 17.5667 114.721 17.1938C114.799 17.1093 114.822 17.0613 114.721 16.9535C114.248 16.447 113.79 15.9247 113.33 15.4075C113.023 15.0631 112.716 14.7179 112.412 14.3717C112.387 14.3442 112.35 14.3054 112.355 14.2787C112.367 14.2189 112.429 14.2399 112.469 14.2399C113.051 14.2399 113.633 14.2399 114.215 14.2399C114.329 14.2399 114.406 14.2945 114.47 14.3833C114.675 14.67 114.914 14.9263 115.153 15.1849C115.326 15.3707 115.484 15.5761 115.64 15.7782C115.752 15.9224 115.843 15.8945 115.936 15.7905C116.219 15.4738 116.495 15.15 116.774 14.8281C116.926 14.6528 117.077 14.4771 117.226 14.3008C117.243 14.2809 117.263 14.265 117.287 14.2545C117.31 14.244 117.335 14.2391 117.361 14.2402C117.972 14.2414 118.586 14.2411 119.242 14.2411Z" fill="#0270CF"/>
<path d="M140.587 14.2393C141.247 14.2393 141.79 14.2424 142.333 14.237C142.467 14.237 142.488 14.2657 142.427 14.3875C142.27 14.7096 142.117 15.0342 141.978 15.3643C141.923 15.4968 141.851 15.5414 141.706 15.5399C140.958 15.5321 140.208 15.536 139.457 15.5364C139.342 15.531 139.225 15.5485 139.117 15.5876C138.911 15.6698 138.816 15.7935 138.819 16.0017C138.82 16.0953 138.852 16.1859 138.908 16.2607C138.964 16.3353 139.043 16.3899 139.133 16.4166C139.225 16.4432 139.322 16.4557 139.419 16.4535C139.852 16.4515 140.285 16.4469 140.718 16.4535C141.066 16.4593 141.406 16.4996 141.729 16.6501C142.211 16.8742 142.496 17.2523 142.57 17.7668C142.632 18.2011 142.602 18.6374 142.375 19.0364C142.12 19.4919 141.733 19.7708 141.232 19.8976C141.016 19.9532 140.793 19.981 140.57 19.9802C139.594 19.974 138.619 19.974 137.643 19.9802C137.495 19.9802 137.456 19.9414 137.461 19.7964C137.472 19.4799 137.472 19.1634 137.461 18.8468C137.456 18.7032 137.494 18.6621 137.642 18.6633C138.598 18.6702 139.555 18.6709 140.511 18.6653C140.835 18.6653 141.093 18.502 141.035 18.1243C141.008 17.9467 140.841 17.7792 140.622 17.7652C140.365 17.7482 140.106 17.7571 139.846 17.7513C139.411 17.7408 138.974 17.7761 138.539 17.6908C137.933 17.571 137.428 17.0797 137.315 16.4736C137.243 16.0898 137.26 15.7229 137.402 15.3569C137.649 14.717 138.145 14.401 138.789 14.2897C139.423 14.18 140.065 14.2668 140.587 14.2393Z" fill="#0270CF"/>
<path d="M148.116 14.2437C147.926 14.6629 147.744 15.058 147.568 15.4547C147.525 15.5501 147.451 15.5374 147.374 15.5374C146.605 15.5374 145.837 15.5374 145.067 15.5374C144.862 15.5374 144.653 15.5486 144.522 15.7521C144.486 15.8101 144.462 15.8758 144.455 15.9443C144.448 16.0127 144.456 16.082 144.479 16.1465C144.504 16.211 144.542 16.2691 144.593 16.3162C144.643 16.3632 144.704 16.398 144.77 16.4175C144.863 16.4428 144.96 16.4548 145.056 16.4528C145.495 16.4528 145.935 16.4447 146.374 16.4548C146.793 16.4645 147.198 16.5284 147.565 16.7623C148.014 17.0481 148.2 17.477 148.227 17.9744C148.267 18.639 148.064 19.218 147.489 19.6135C147.158 19.8443 146.763 19.9688 146.36 19.9706C145.346 19.9776 144.332 19.9706 143.318 19.9807C143.152 19.9807 143.091 19.9485 143.101 19.7709C143.117 19.4807 143.117 19.1899 143.101 18.8996C143.092 18.7197 143.133 18.6596 143.329 18.6623C144.277 18.674 145.229 18.6682 146.176 18.6669C146.396 18.6669 146.583 18.5459 146.653 18.3761C146.783 18.0605 146.593 17.7782 146.17 17.7596C145.731 17.7406 145.292 17.7557 144.851 17.7515C144.559 17.7483 144.267 17.7406 143.985 17.6382C143.487 17.4572 143.129 17.1403 142.988 16.6157C142.877 16.2028 142.871 15.7828 143.019 15.3811C143.218 14.8424 143.63 14.5198 144.168 14.3523C144.39 14.2812 144.621 14.2441 144.853 14.2422C145.932 14.2442 147.011 14.2437 148.116 14.2437Z" fill="#0270CF"/>
<path d="M119.536 17.1168C119.536 16.2194 119.54 15.3221 119.531 14.4248C119.531 14.267 119.58 14.2356 119.726 14.2363C120.772 14.2426 121.82 14.2363 122.863 14.2406C123.461 14.2406 124.01 14.381 124.439 14.8316C124.687 15.093 124.827 15.4055 124.897 15.7622C125.025 16.4265 124.882 17.0155 124.421 17.5072C124.101 17.8488 123.663 18.0546 123.195 18.0822C122.55 18.1299 121.904 18.0997 121.259 18.0981C121.095 18.0981 121.056 18.1454 121.059 18.3037C121.069 18.8077 121.059 19.3119 121.066 19.8159C121.068 19.9598 121.015 19.9854 120.886 19.9827C120.492 19.9753 120.098 19.9745 119.705 19.9827C119.57 19.9857 119.531 19.9466 119.532 19.8109C119.539 18.9113 119.536 18.014 119.536 17.1168ZM121.969 16.8019C122.234 16.8019 122.499 16.81 122.763 16.8019C123.224 16.7848 123.489 16.4358 123.38 16.0011C123.311 15.7196 123.084 15.5505 122.722 15.5432C122.212 15.5327 121.702 15.5432 121.192 15.5377C121.089 15.5377 121.06 15.5734 121.061 15.6723C121.067 16.0011 121.07 16.3314 121.061 16.6592C121.057 16.7859 121.104 16.81 121.216 16.8069C121.466 16.796 121.717 16.8019 121.969 16.8019Z" fill="#0270CF"/>
<path d="M134.083 11.2847C133.882 11.7113 133.692 12.1164 133.505 12.5217C133.472 12.5938 133.416 12.5845 133.359 12.5841C133.037 12.5841 132.706 12.6249 132.394 12.5686C131.667 12.4384 131.031 12.142 130.604 11.4829C130.167 10.8089 130.137 10.0706 130.177 9.31137C130.204 8.65462 130.478 8.03233 130.947 7.57109C131.385 7.13059 131.95 6.94524 132.555 6.88087C133.269 6.80331 133.987 6.85761 134.702 6.84209C134.823 6.83938 134.87 6.86614 134.867 6.9972C134.857 7.33921 134.857 7.68147 134.867 8.024C134.87 8.15583 134.839 8.20044 134.699 8.19772C134.194 8.18919 133.691 8.19113 133.187 8.19578C132.826 8.19849 132.48 8.26053 132.187 8.49707C131.78 8.82629 131.691 9.28307 131.697 9.76661C131.703 10.1237 131.762 10.4727 131.993 10.7698C132.319 11.192 132.781 11.2739 133.272 11.2835C133.534 11.2886 133.797 11.2847 134.083 11.2847Z" fill="#0270CF"/>
<path d="M129.342 9.70753C129.342 10.5994 129.337 11.4913 129.348 12.3803C129.35 12.5595 129.294 12.5929 129.131 12.5882C128.743 12.5766 128.355 12.5813 127.967 12.5863C127.851 12.5863 127.797 12.5708 127.797 12.4312C127.802 10.617 127.802 8.80275 127.797 6.98853C127.797 6.86406 127.84 6.83846 127.952 6.84002C128.359 6.84584 128.766 6.84855 129.172 6.84002C129.313 6.83653 129.343 6.88383 129.342 7.01567C129.34 7.91257 129.342 8.81025 129.342 9.70753Z" fill="#0270CF"/>
<path d="M143.052 9.13334C143.048 9.09135 143.043 9.04935 143.039 9.00195C143.127 9.01159 143.131 9.07593 143.145 9.13257L143.052 9.13334Z" fill="#BFDBF2"/>
<path d="M115.777 12.5C115.789 12.5325 115.785 12.5737 115.826 12.5908C115.807 12.675 115.756 12.6265 115.736 12.6028C115.686 12.5492 115.717 12.5155 115.777 12.5Z" fill="#BFDBF2"/>
<path d="M108.703 8.59138L108.708 8.52148C108.718 8.54269 108.727 8.56349 108.736 8.58469L108.72 8.59138H108.703Z" fill="#BFDBF2"/>
<path d="M113.07 8.58976L113.089 8.5293V8.59329L113.079 8.59603L113.07 8.58976Z" fill="#BFDBF2"/>
<path d="M108.769 16.4542C108.739 16.4605 108.725 16.4494 108.727 16.418L108.769 16.4542Z" fill="#BFDBF2"/>
<path d="M128.056 16.689C127.791 16.689 127.528 16.686 127.263 16.689C127.17 16.689 127.14 16.6627 127.141 16.5689C127.146 16.2657 127.146 15.9624 127.141 15.6592C127.141 15.5521 127.182 15.5308 127.278 15.5313C127.762 15.5351 128.247 15.5289 128.73 15.5351C128.963 15.5382 129.185 15.5863 129.331 15.7894C129.393 15.8701 129.429 15.9661 129.439 16.0666C129.448 16.1672 129.429 16.2683 129.384 16.3588C129.281 16.5813 129.082 16.672 128.851 16.6817C128.586 16.693 128.321 16.6844 128.056 16.6844V16.689Z" fill="#FEFEFE"/>
<path d="M124.091 8.16014C124.349 8.16014 124.608 8.15084 124.867 8.16246C125.221 8.17837 125.461 8.40831 125.472 8.72085C125.483 9.03338 125.273 9.27496 124.915 9.29318C124.367 9.3211 123.817 9.30714 123.269 9.31257C123.191 9.31257 123.171 9.26915 123.172 9.20167C123.172 8.89146 123.174 8.58125 123.172 8.27104C123.172 8.17449 123.21 8.15122 123.299 8.15238C123.563 8.15626 123.828 8.15238 124.093 8.15238L124.091 8.16014Z" fill="#FEFEFE"/>
<path d="M104.154 10.164C103.64 10.164 103.156 10.164 102.672 10.164C102.618 10.164 102.54 10.1799 102.583 10.0779C102.833 9.47729 103.087 8.87587 103.347 8.25195C103.386 8.33882 103.414 8.3962 103.439 8.45475C103.673 9.01197 103.906 9.57113 104.154 10.164Z" fill="#FEFEFE"/>
<path d="M137.689 8.24609C137.952 8.87466 138.194 9.45282 138.436 10.0298C138.475 10.1252 138.475 10.169 138.353 10.1678C137.908 10.1636 137.462 10.1655 137.016 10.1678C136.938 10.1678 136.888 10.1558 136.928 10.0589C137.177 9.47026 137.423 8.88242 137.689 8.24609Z" fill="#FEFEFE"/>
<path d="M121.973 16.802C121.721 16.802 121.468 16.7974 121.218 16.8043C121.106 16.8075 121.058 16.7834 121.063 16.6566C121.073 16.3277 121.068 15.9975 121.063 15.6697C121.063 15.5709 121.09 15.5341 121.194 15.5352C121.704 15.5399 122.214 15.5301 122.724 15.5407C123.087 15.548 123.314 15.7171 123.383 15.9986C123.491 16.4333 123.227 16.7822 122.765 16.7994C122.5 16.809 122.236 16.7994 121.971 16.7994L121.973 16.802Z" fill="#FEFEFE"/>
</g>
<path d="M171.186 6.52734H162.727V20.3439H171.186V6.52734Z" fill="#FF5F00"/>
<path d="M163.602 13.4395C163.601 12.109 163.902 10.7958 164.484 9.59918C165.065 8.40253 165.912 7.35381 166.958 6.53239C165.662 5.51371 164.105 4.88025 162.466 4.70442C160.826 4.52859 159.171 4.81747 157.688 5.53804C156.205 6.25863 154.956 7.38183 154.081 8.77929C153.206 10.1768 152.742 11.7921 152.742 13.4407C152.742 15.0893 153.206 16.7046 154.081 18.1021C154.956 19.4995 156.205 20.6227 157.688 21.3434C159.171 22.0639 160.826 22.3528 162.466 22.1769C164.105 22.0011 165.662 21.3676 166.958 20.349C165.911 19.5273 165.065 18.4782 164.484 17.2811C163.902 16.0839 163.6 14.7703 163.602 13.4395Z" fill="#EB001B"/>
<path d="M180.332 18.8827V18.5996H180.454V18.541H180.164V18.5996H180.278V18.8827H180.332ZM180.896 18.8827V18.541H180.808L180.706 18.785L180.604 18.541H180.516V18.8827H180.578V18.624L180.674 18.8461H180.74L180.836 18.624V18.8827H180.896Z" fill="#F79E1B"/>
<path d="M181.178 13.437C181.178 15.0858 180.713 16.7012 179.839 18.0987C178.964 19.4962 177.713 20.6194 176.231 21.3399C174.748 22.0604 173.092 22.349 171.453 22.1729C169.813 21.9968 168.257 21.3631 166.961 20.3441C168.006 19.522 168.852 18.4729 169.434 17.2762C170.015 16.0795 170.318 14.7664 170.318 13.4358C170.318 12.1053 170.015 10.7921 169.434 9.59541C168.852 8.3987 168.006 7.3497 166.961 6.52755C168.257 5.50855 169.813 4.87478 171.453 4.6987C173.092 4.52261 174.748 4.81131 176.231 5.53178C177.713 6.25227 178.964 7.37545 179.839 8.77295C180.713 10.1705 181.178 11.7859 181.178 13.4346V13.437Z" fill="#F79E1B"/>
</g>
</g>
<defs>
<clipPath id="clip0_1880_39156">
<rect width="180.253" height="26.3784" fill="white" transform="translate(0.953125 0.244141)"/>
</clipPath>
<clipPath id="clip1_1880_39156">
<rect width="180.253" height="26.3784" fill="white" transform="translate(0.953125 0.244141)"/>
</clipPath>
</defs>
</svg>
