<svg width="1920" height="922" viewBox="0 0 1920 922" fill="none" xmlns="http://www.w3.org/2000/svg">
<g opacity="0.3">
<path d="M-122.342 2.84085C-127.806 191.496 -64.0469 381.413 54.413 529.313C88.1161 571.39 127.823 611.326 178.492 630.472C324.902 685.782 484.519 574.08 609.715 511.32C760.799 435.59 910.264 356.054 1067.28 292.714C1155.42 257.154 1258.72 227.519 1342.47 272.366C1427.27 317.783 1457.9 420.334 1491.61 509.774C1530.88 613.994 1585.78 714.718 1667.74 790.798C1749.71 866.878 1861.55 916.061 1973.42 906.081C2061.03 898.264 2141.53 855.871 2215.22 808.322C2408.83 683.38 2574.48 516.233 2696.99 322.202" stroke="#83848C" stroke-opacity="0.2" stroke-width="0.692997" stroke-miterlimit="10"/>
<path d="M-127.277 10.9082C-132.11 177.643 -75.9949 341.998 26.368 483.998C35.874 497.186 45.6697 510.164 55.9082 522.801C89.5695 564.311 128.94 603.742 178.885 623.015C323.331 678.816 480.427 573.066 605.406 512.639C716.208 459.066 826.295 402.366 940.146 351.315C979.645 333.529 1019.47 316.433 1059.78 300.36C1147.21 265.5 1249.28 236.267 1332.44 279.084C1416.64 322.443 1448.4 421.07 1483.15 507.053C1523.65 607.24 1579.28 704.106 1661.14 777.31C1689.64 802.797 1721.66 825.15 1755.97 843.059C1820.16 876.586 1892.41 894.575 1964.65 888.413C2051.43 881.011 2131.32 840.386 2204.5 795.061C2352.65 703.365 2484.21 588.54 2593.42 455.456C2626 415.746 2656.59 374.42 2685.02 331.586" stroke="#83848C" stroke-opacity="0.2" stroke-width="0.692997" stroke-miterlimit="10"/>
<path d="M-132.209 18.9639C-136.882 180.141 -77.4377 335.514 27.8994 478.07C37.463 491.006 47.202 503.819 57.4065 516.269C91.0337 557.205 130.06 596.139 179.289 615.547C321.778 671.847 476.331 572.04 601.1 513.94C710.702 462.904 819.806 407.742 933.575 357.813C972.78 340.46 1012.3 323.739 1052.28 307.987C1139 273.821 1239.86 244.995 1322.41 285.784C1406 327.092 1438.91 421.794 1474.69 504.313C1516.41 600.466 1572.78 693.475 1654.53 763.797C1683 788.278 1714.87 809.757 1748.97 826.961C1812.73 859.185 1884.31 876.536 1955.87 870.718C2041.82 863.725 2121.09 824.874 2193.77 781.78C2340.96 694.622 2471.55 586.226 2580.94 459.362C2613.58 421.507 2644.33 382.023 2673.03 340.95" stroke="#83848C" stroke-opacity="0.2" stroke-width="0.692997" stroke-miterlimit="10"/>
<path d="M-137.146 27.0284C-141.652 182.648 -78.9222 329.038 29.4267 472.151C39.0399 484.85 48.7222 497.491 58.8928 509.746C92.4783 550.116 131.176 588.536 179.673 608.079C320.197 664.87 472.193 571.008 596.781 515.249C705.163 466.743 813.412 413.388 926.984 364.312C965.939 347.476 1005.12 331.046 1044.78 315.615C1130.79 282.15 1230.42 253.725 1312.37 292.485C1395.35 331.741 1429.39 422.512 1466.22 501.575C1509.16 593.694 1566.26 682.846 1647.9 750.291C1676.35 773.767 1708.07 794.372 1741.94 810.88C1805.28 841.8 1876.19 858.513 1947.07 853.032C2032.2 846.447 2110.85 809.371 2183.02 768.509C2329.26 685.881 2458.87 583.92 2568.45 463.269C2601.15 427.269 2632.05 389.626 2661.02 350.309" stroke="#83848C" stroke-opacity="0.2" stroke-width="0.692997" stroke-miterlimit="10"/>
<path d="M-142.072 35.087C-146.419 185.148 -80.4341 322.571 30.972 466.226C40.635 478.68 50.2675 491.156 60.4042 503.218C93.9556 543.014 132.31 580.936 180.082 600.614C318.642 657.896 468.066 569.962 592.488 516.553C699.633 470.562 806.971 418.85 920.426 370.813C959.101 354.433 997.958 338.354 1037.29 323.245C1122.59 290.473 1221 262.45 1302.35 299.188C1384.73 336.385 1419.9 423.232 1457.77 498.838C1501.95 586.923 1559.78 672.225 1641.32 736.788C1669.73 759.265 1701.3 778.99 1734.96 794.801C1797.87 824.41 1868.11 840.484 1938.32 835.355C2022.62 829.186 2100.65 793.878 2172.32 755.246C2317.6 677.156 2446.23 581.624 2556.01 467.193C2588.77 433.048 2619.83 397.247 2649.07 359.691" stroke="#83848C" stroke-opacity="0.2" stroke-width="0.692997" stroke-miterlimit="10"/>
<path d="M-147.001 43.1501C-151.189 187.653 -81.9791 316.115 32.507 460.305C42.2122 472.522 51.8031 484.819 61.8983 496.694C95.4079 535.923 133.434 573.34 180.481 593.146C317.078 650.918 463.906 568.905 588.186 517.853C694.08 474.355 800.506 424.3 913.851 377.304C952.246 361.38 990.788 345.652 1029.79 330.864C1114.38 298.793 1211.57 271.171 1292.32 305.88C1374.09 341.025 1410.39 423.942 1449.32 496.091C1494.71 580.149 1553.27 661.587 1634.71 723.266C1663.09 744.738 1694.52 763.589 1727.96 778.703C1790.43 807.009 1860.02 822.445 1929.54 817.653C2013.01 811.893 2090.42 778.352 2161.59 741.951C2305.91 668.391 2433.57 579.295 2543.54 471.076C2576.35 438.786 2607.57 404.827 2637.09 369.034" stroke="#83848C" stroke-opacity="0.2" stroke-width="0.692997" stroke-miterlimit="10"/>
<path d="M-151.94 51.2142C-155.969 190.159 -83.5799 309.681 34.0315 454.393C43.7713 466.373 53.3204 478.497 63.3893 490.178C96.8573 528.833 134.547 565.753 180.87 585.693C315.509 643.957 459.713 567.856 583.872 519.177C688.493 478.155 794.037 429.774 907.272 383.825C945.388 368.358 983.615 352.981 1022.29 338.522C1106.16 307.144 1202.13 279.93 1282.29 312.61C1363.45 345.704 1400.89 424.689 1440.85 493.382C1487.48 573.407 1546.77 650.987 1628.1 709.791C1656.45 730.257 1687.73 748.233 1720.96 762.644C1783.01 789.646 1851.92 804.444 1920.76 799.996C2003.41 794.644 2080.21 762.878 2150.86 728.709C2294.22 659.687 2420.92 577.019 2531.07 475.02C2563.95 444.585 2595.31 412.467 2625.1 378.436" stroke="#83848C" stroke-opacity="0.2" stroke-width="0.692997" stroke-miterlimit="10"/>
<path d="M-156.872 59.2713C-160.733 192.658 -85.203 303.247 35.5715 448.467C45.3458 460.216 54.8608 472.161 64.8883 483.648C98.3221 521.736 135.675 558.151 181.274 578.218C313.949 636.981 455.521 566.763 579.567 520.471C682.9 481.911 787.562 435.21 900.702 390.31C938.538 375.291 976.45 360.28 1014.8 346.135C1097.96 315.459 1192.7 288.645 1272.26 319.297C1352.82 350.332 1391.39 425.4 1432.39 490.628C1480.24 566.619 1540.26 640.342 1621.49 696.263C1649.8 715.731 1680.94 732.826 1713.95 746.54C1775.56 772.239 1843.82 786.391 1911.98 782.287C1993.8 777.352 2069.98 747.353 2140.14 715.415C2282.54 650.923 2408.26 574.691 2518.61 478.905C2551.54 450.324 2583.07 420.049 2613.13 387.78" stroke="#83848C" stroke-opacity="0.2" stroke-width="0.692997" stroke-miterlimit="10"/>
<path d="M-161.807 67.3384C-165.509 195.167 -86.876 296.845 37.0997 442.55C46.901 454.069 56.382 465.828 66.383 477.127C99.7751 514.642 136.792 550.551 181.667 570.754C312.377 630.007 451.288 565.672 575.257 521.783C677.28 485.662 781.091 440.665 894.119 396.819C931.669 382.256 969.274 367.597 1007.3 353.773C1089.74 323.79 1183.27 297.385 1262.23 326C1342.18 354.984 1381.89 426.121 1423.94 487.893C1473.01 559.85 1533.77 629.716 1614.89 682.761C1643.16 701.223 1674.16 717.444 1706.95 730.462C1768.13 754.849 1835.72 768.371 1903.21 764.604C1984.2 760.077 2059.76 731.853 2129.42 702.139C2270.86 642.185 2395.61 572.381 2506.14 482.815C2539.14 456.089 2570.82 427.663 2601.16 397.142" stroke="#83848C" stroke-opacity="0.2" stroke-width="0.692997" stroke-miterlimit="10"/>
<path d="M-166.735 75.4026C-170.278 197.673 -88.5716 290.462 38.6358 436.631C48.464 447.92 57.9181 459.499 67.8778 470.604C101.236 507.552 137.916 542.956 182.059 563.294C310.813 623.038 447.047 564.562 570.948 523.092C671.646 489.388 774.612 446.101 887.545 403.318C924.815 389.196 962.104 374.904 999.799 361.401C1081.53 332.119 1173.84 306.115 1252.2 332.701C1331.54 359.633 1372.39 426.839 1415.48 485.154C1465.78 553.077 1527.27 619.086 1608.28 669.248C1636.52 686.704 1667.38 702.052 1699.95 714.373C1760.71 737.457 1827.63 750.333 1894.43 746.918C1974.59 742.806 2049.54 716.35 2118.69 688.867C2259.17 633.443 2382.94 570.075 2493.67 486.721C2526.72 461.85 2558.56 435.266 2589.16 406.507" stroke="#83848C" stroke-opacity="0.2" stroke-width="0.692997" stroke-miterlimit="10"/>
<path d="M-171.669 83.4573C-175.053 200.17 -90.3113 284.083 40.1729 430.71C50.0205 441.776 59.4481 453.168 69.3812 464.087C102.698 500.461 139.042 535.367 182.468 555.832C309.258 616.067 442.793 563.436 566.654 524.407C666.014 493.096 768.141 451.543 880.986 409.83C917.97 396.157 954.951 382.224 992.317 369.042C1073.34 340.454 1164.42 314.858 1242.19 339.415C1320.92 364.295 1362.9 427.57 1407.04 482.428C1458.55 546.318 1520.78 608.469 1601.69 655.756C1629.9 672.214 1660.62 686.688 1692.97 698.305C1753.29 720.085 1819.55 732.323 1885.67 729.245C1965.02 725.542 2039.33 700.86 2107.98 675.608C2247.51 624.722 2370.31 567.791 2481.23 490.649C2514.33 467.633 2546.33 442.891 2577.21 415.894" stroke="#83848C" stroke-opacity="0.2" stroke-width="0.692997" stroke-miterlimit="10"/>
<path d="M-176.599 91.5217C-179.823 202.676 -92.0847 277.743 41.7072 424.791C51.5741 435.633 60.9829 446.832 70.8745 457.564C104.157 493.371 140.165 527.772 182.859 548.373C307.685 609.098 438.507 562.281 562.343 525.716C660.341 496.776 761.653 456.979 874.402 416.329C911.1 403.098 947.773 389.53 984.809 376.67C1065.12 348.783 1154.98 323.58 1232.15 346.116C1310.27 368.937 1353.38 428.295 1398.56 479.682C1451.31 539.545 1514.26 597.832 1595.06 642.242C1623.24 657.695 1653.81 671.295 1685.95 682.208C1745.84 702.685 1811.43 714.285 1876.87 711.551C1955.4 708.257 2029.1 685.35 2097.24 662.321C2235.8 615.966 2357.63 565.47 2468.74 494.548C2501.91 473.387 2534.06 450.487 2565.21 425.251" stroke="#83848C" stroke-opacity="0.2" stroke-width="0.692997" stroke-miterlimit="10"/>
<path d="M-181.527 99.5817C-184.584 205.178 -93.8945 271.427 43.2432 418.867C53.1219 429.487 62.4963 440.521 72.377 451.036C105.549 486.336 141.29 520.166 183.26 540.901C306.12 602.125 434.215 561.1 558.034 527.013C654.664 500.414 755.167 462.388 867.828 422.824C904.238 410.033 940.597 396.84 977.318 384.3C1056.91 357.107 1145.55 332.313 1222.12 352.819C1299.64 373.589 1343.88 429.016 1390.11 476.946C1444.08 532.775 1507.76 587.205 1588.46 628.733C1616.6 643.18 1647.03 655.906 1678.95 666.123C1738.41 685.288 1803.34 696.25 1868.09 693.86C1945.79 690.981 2018.87 669.842 2086.51 649.045C2224.12 607.227 2344.97 563.16 2456.27 498.451C2489.49 479.144 2521.8 458.086 2553.22 434.605" stroke="#83848C" stroke-opacity="0.2" stroke-width="0.692997" stroke-miterlimit="10"/>
<path d="M-186.465 107.644C-189.363 207.683 -95.7531 265.144 44.7761 412.946C54.6665 423.35 64.0223 434.183 73.869 444.512C106.999 479.245 142.411 512.57 183.657 533.44C304.561 595.155 429.898 559.891 553.728 528.328C648.968 504.048 748.685 467.816 861.25 429.329C897.366 416.98 933.424 404.152 969.816 391.934C1048.7 365.442 1136.12 341.049 1212.09 359.526C1289 378.245 1334.38 429.74 1381.65 474.214C1436.84 526.009 1501.26 576.582 1581.85 615.233C1609.97 628.682 1640.24 640.527 1671.96 650.048C1730.98 667.909 1795.25 678.233 1859.33 676.187C1936.19 673.717 2008.65 654.353 2075.79 635.787C2212.44 598.499 2332.32 560.868 2443.82 502.379C2477.1 484.927 2509.56 465.71 2541.26 443.992" stroke="#83848C" stroke-opacity="0.2" stroke-width="0.692997" stroke-miterlimit="10"/>
<path d="M-191.393 115.711C-194.131 210.191 -97.6391 258.893 46.3123 407.029C56.2143 417.217 65.5592 427.856 75.372 437.991C108.46 472.157 143.536 504.977 184.057 525.974C302.997 588.18 425.57 558.655 549.427 529.632C643.269 507.64 742.192 473.224 854.683 435.83C890.513 423.922 926.263 411.461 962.326 399.564C1040.5 373.765 1126.69 349.781 1202.07 366.229C1278.37 382.889 1324.89 430.46 1373.2 471.477C1429.62 519.238 1494.77 565.954 1575.26 601.723C1603.34 614.166 1633.47 625.137 1664.97 633.961C1723.56 650.519 1787.16 660.204 1850.56 658.496C1926.6 656.434 1998.45 638.845 2065.09 622.502C2200.77 589.753 2319.68 558.549 2431.37 506.273C2464.7 490.676 2497.33 473.301 2529.29 453.345" stroke="#83848C" stroke-opacity="0.2" stroke-width="0.692997" stroke-miterlimit="10"/>
<path d="M-196.332 123.767C-198.911 212.689 -99.5747 252.668 47.8369 401.109C57.7431 411.081 67.076 421.527 76.855 431.467C109.901 465.067 144.649 497.381 184.446 518.514C301.421 581.211 421.208 557.387 545.113 530.948C637.543 511.222 735.695 478.637 848.105 442.336C883.648 430.862 919.09 418.774 954.823 407.199C1032.28 382.101 1117.25 358.517 1192.03 372.937C1267.73 387.545 1315.38 431.192 1364.73 468.745C1422.38 512.473 1488.27 555.331 1568.64 588.224C1596.69 599.662 1626.67 609.759 1657.96 617.879C1716.12 633.133 1779.06 642.173 1841.77 640.809C1916.98 639.163 1988.21 623.341 2054.35 609.23C2189.07 581.011 2307.01 556.243 2418.88 510.187C2452.28 496.452 2485.06 480.919 2517.3 462.718" stroke="#83848C" stroke-opacity="0.2" stroke-width="0.692997" stroke-miterlimit="10"/>
<path d="M-201.263 131.833C-203.676 215.197 -101.541 246.49 49.3772 395.191C59.2874 404.956 68.617 415.2 78.3621 424.946C111.374 457.972 145.825 489.707 184.851 511.048C299.994 574.008 416.856 556.076 540.816 532.251C631.827 514.754 729.206 484.031 841.534 448.837C876.784 437.796 911.925 426.083 947.329 414.829C1024.08 390.424 1107.82 367.249 1182.01 379.639C1257.11 392.196 1305.88 431.912 1356.27 466.008C1415.14 505.702 1481.76 544.703 1562.03 574.713C1590.05 585.152 1619.89 594.368 1650.96 601.792C1708.69 615.735 1770.96 624.144 1833 623.124C1907.39 621.887 1978 607.84 2043.62 595.96C2177.39 572.278 2294.35 553.939 2406.42 514.095C2439.88 502.216 2472.82 488.524 2505.33 472.078" stroke="#83848C" stroke-opacity="0.2" stroke-width="0.692997" stroke-miterlimit="10"/>
<path d="M-206.195 139.887C-208.449 217.693 -103.539 240.337 50.9087 389.262C60.8229 398.818 70.1491 408.854 79.8526 418.413C112.823 450.872 146.937 482.102 185.239 503.571C298.418 567.029 412.48 554.724 536.494 533.543C626.073 518.244 722.693 489.404 834.948 455.319C869.903 444.704 904.745 433.372 939.826 422.439C1015.86 398.736 1098.39 375.961 1171.98 386.315C1246.47 396.813 1296.37 432.605 1347.81 463.245C1407.91 498.905 1475.26 534.049 1555.43 561.183C1583.41 570.616 1613.11 578.959 1643.96 585.686C1701.25 598.325 1762.86 606.089 1824.22 605.413C1897.79 604.592 1967.77 592.305 2032.9 582.656C2165.71 563.505 2281.7 551.601 2393.95 517.977C2427.47 507.953 2460.55 496.103 2493.34 481.419" stroke="#83848C" stroke-opacity="0.2" stroke-width="0.692997" stroke-miterlimit="10"/>
<path d="M-211.13 147.952C-213.224 220.207 -105.585 234.229 52.4456 383.343C62.3562 392.69 71.6787 402.525 81.356 411.89C114.292 443.775 148.07 474.508 185.648 496.112C296.87 560.06 408.111 553.337 532.201 534.859C620.339 521.729 716.209 494.796 828.382 461.833C863.043 451.644 897.584 440.701 932.336 430.082C1007.66 407.072 1088.96 384.699 1161.95 393.031C1235.84 401.477 1286.88 433.338 1339.36 460.521C1400.68 492.155 1468.76 523.442 1548.83 547.693C1576.78 556.121 1606.33 563.589 1636.97 569.619C1693.84 580.955 1754.78 588.081 1815.46 587.749C1888.19 587.337 1957.56 576.824 2022.18 569.407C2154.03 554.793 2269.06 549.326 2381.5 521.907C2415.07 513.737 2448.31 503.729 2481.37 490.807" stroke="#83848C" stroke-opacity="0.2" stroke-width="0.692997" stroke-miterlimit="10"/>
<path d="M-216.067 156.018C-218.002 222.715 -107.664 228.176 53.9724 377.433C63.8794 386.58 73.2058 396.199 82.8415 405.377C115.736 436.695 149.178 466.923 186.031 488.654C295.289 553.101 403.709 551.914 527.882 536.17C614.581 525.179 709.692 500.167 821.798 468.334C856.165 458.572 890.405 448.01 924.828 437.72C999.436 415.411 1079.52 393.438 1151.92 399.741C1225.19 406.136 1277.37 434.073 1330.9 457.792C1393.44 485.392 1462.25 512.821 1542.21 534.189C1570.13 541.619 1599.53 548.206 1629.95 553.533C1686.39 563.565 1746.67 570.052 1806.66 570.058C1878.57 570.054 1947.32 561.316 2011.44 556.129C2142.33 546.046 2256.38 547.015 2369.02 525.816C2402.64 519.501 2436.05 511.335 2469.38 500.175" stroke="#83848C" stroke-opacity="0.2" stroke-width="0.692997" stroke-miterlimit="10"/>
<path d="M-220.991 164.075C-222.759 225.214 -109.777 222.157 55.512 371.507C65.4153 380.452 74.7461 389.863 84.3479 398.847C117.208 429.592 150.314 459.321 186.435 481.187C293.736 546.133 399.321 550.43 523.584 537.48C608.836 528.598 703.195 505.536 815.234 474.842C849.308 465.505 883.24 455.324 917.341 445.356C991.236 423.74 1070.1 402.176 1141.89 406.45C1214.56 410.786 1267.87 434.799 1322.44 455.061C1386.22 478.627 1455.76 502.2 1535.61 520.692C1563.49 527.116 1592.75 532.829 1622.96 537.459C1678.96 546.18 1738.58 552.03 1797.89 552.387C1868.97 552.799 1937.11 545.828 2000.72 542.866C2130.65 537.32 2243.73 544.717 2356.56 529.738C2390.24 525.278 2423.8 518.954 2457.4 509.556" stroke="#83848C" stroke-opacity="0.2" stroke-width="0.692997" stroke-miterlimit="10"/>
<path d="M-225.921 172.139C-227.53 227.72 -111.926 216.189 57.0531 365.588C66.9451 374.339 76.2797 383.534 85.8477 392.323C118.674 422.494 151.39 451.792 186.841 473.72C292.045 539.369 394.936 548.894 519.287 538.781C603.094 531.97 696.693 510.89 808.665 481.333C842.445 472.415 876.076 462.623 909.848 452.976C983.03 432.061 1060.67 410.898 1131.87 413.143C1203.93 415.428 1258.37 435.509 1313.98 452.315C1378.98 471.847 1449.26 491.562 1529 507.171C1556.85 512.589 1585.97 517.429 1615.96 521.362C1671.53 528.78 1730.48 533.991 1789.12 534.685C1859.38 535.506 1926.89 530.31 1990 529.579C2118.98 528.563 2231.08 542.396 2344.1 533.63C2377.84 531.024 2411.55 526.55 2445.43 518.899" stroke="#83848C" stroke-opacity="0.2" stroke-width="0.692997" stroke-miterlimit="10"/>
<path d="M-230.859 180.198C-232.308 230.221 -114.122 210.267 58.5793 359.663C68.4677 368.213 77.8064 377.192 87.3404 385.795C120.133 415.392 152.512 444.192 187.231 466.254C290.471 532.402 390.537 547.307 514.968 540.085C597.329 535.308 690.168 516.231 802.08 487.834C835.567 479.335 868.897 469.932 902.347 460.605C974.817 440.385 1051.24 419.63 1121.83 419.846C1193.29 420.079 1248.87 436.229 1305.52 449.578C1371.74 465.076 1442.76 480.934 1522.4 493.668C1550.22 498.088 1579.18 502.054 1608.96 505.283C1664.1 511.397 1722.39 515.97 1780.34 517.001C1849.77 518.23 1916.66 514.809 1979.27 516.309C2107.29 519.831 2218.42 540.093 2331.63 537.546C2365.43 536.796 2399.3 534.163 2433.45 528.275" stroke="#83848C" stroke-opacity="0.2" stroke-width="0.692997" stroke-miterlimit="10"/>
<path d="M-235.788 188.26C-237.078 232.725 -116.34 204.408 60.1144 353.749C69.9915 362.106 79.342 370.869 88.8346 379.278C121.593 408.301 153.628 436.602 187.63 458.793C288.906 525.431 386.156 545.665 510.665 541.399C591.59 538.628 683.66 521.583 795.513 494.339C828.705 486.258 861.735 477.251 894.855 468.239C966.612 448.719 1041.81 428.365 1111.81 426.553C1182.66 424.726 1239.37 436.96 1297.07 446.845C1364.52 458.309 1436.26 470.31 1515.79 480.161C1543.58 483.575 1572.4 486.667 1601.96 489.192C1656.68 494.003 1714.29 497.93 1771.56 499.313C1840.17 500.958 1906.44 499.304 1968.55 503.035C2095.61 511.088 2205.76 537.785 2319.16 541.451C2353.02 542.556 2387.05 541.765 2421.47 537.639" stroke="#83848C" stroke-opacity="0.2" stroke-width="0.692997" stroke-miterlimit="10"/>
<path d="M-240.724 196.326C-241.854 235.232 -118.611 198.603 61.6496 347.831C71.5152 356.001 80.8929 364.519 90.3362 372.756C123.114 401.146 154.759 429.009 188.03 451.326C287.349 518.456 381.775 543.958 506.362 542.702C585.85 541.906 677.152 526.9 788.937 500.839C821.829 493.169 854.565 484.559 887.356 475.868C958.401 457.042 1032.38 437.096 1101.78 433.254C1172.02 429.377 1229.87 437.679 1288.62 444.107C1357.28 451.545 1429.76 459.682 1509.19 466.656C1536.95 469.065 1565.62 471.284 1594.96 473.112C1649.24 476.611 1706.19 479.908 1762.79 481.628C1830.57 483.681 1896.23 483.803 1957.83 489.757C2083.93 502.348 2193.11 535.473 2306.7 545.359C2340.62 548.318 2374.8 549.369 2409.49 547.005" stroke="#83848C" stroke-opacity="0.2" stroke-width="0.692997" stroke-miterlimit="10"/>
<path d="M-245.657 204.383C-246.62 237.732 -120.91 192.849 63.1809 341.905C73.0351 349.881 82.4169 358.176 91.8261 366.233C124.562 394.05 155.871 421.407 188.417 443.867C285.772 511.488 377.407 542.192 502.048 544.019C580.115 545.161 670.633 532.233 782.358 507.346C814.955 500.088 847.391 491.874 879.852 483.511C950.184 465.386 1022.93 445.834 1091.75 439.971C1161.38 434.042 1220.36 438.413 1280.15 441.384C1350.05 444.789 1423.25 449.068 1502.58 453.167C1530.3 454.577 1558.83 455.914 1587.95 457.047C1641.81 459.242 1698.1 461.894 1754.02 463.965C1820.97 466.426 1886.01 468.323 1947.1 476.509C2072.24 493.629 2180.45 533.191 2294.24 549.29C2328.21 554.103 2362.55 556.996 2397.51 556.387" stroke="#83848C" stroke-opacity="0.2" stroke-width="0.692997" stroke-miterlimit="10"/>
<path d="M-250.593 212.451C-251.397 240.242 -123.244 187.165 64.7086 335.989C74.5514 343.779 83.9453 351.851 93.3206 359.714C126.023 386.964 156.995 413.816 188.817 436.404C284.207 504.515 373.067 540.363 497.745 545.325C574.408 548.375 664.126 537.538 775.783 513.849C808.087 506.995 840.221 499.184 872.361 491.143C941.98 473.712 1013.51 454.568 1081.72 446.668C1150.75 438.687 1210.87 439.127 1271.69 438.642C1342.81 438.012 1416.75 438.434 1495.97 439.65C1523.67 440.055 1552.05 440.518 1580.96 440.954C1634.38 441.846 1690 443.859 1745.24 446.267C1811.36 449.145 1875.79 452.809 1936.37 463.226C2060.55 484.884 2167.79 530.881 2281.76 553.193C2315.79 559.861 2350.3 564.596 2385.53 565.749" stroke="#83848C" stroke-opacity="0.2" stroke-width="0.692997" stroke-miterlimit="10"/>
<path d="M-255.52 220.505C-256.165 242.737 -125.616 181.532 66.2523 330.06C76.0761 337.663 85.4895 345.512 94.8233 353.181C127.484 379.857 158.12 406.211 189.218 428.934C282.644 497.543 368.752 538.46 493.436 546.623C568.709 551.553 657.605 542.829 769.208 520.338C801.212 513.887 833.053 506.48 864.862 498.761C933.769 482.03 1004.08 463.287 1071.69 453.358C1140.11 443.319 1201.37 439.842 1263.24 435.893C1335.58 431.229 1410.26 427.794 1489.37 426.134C1517.03 425.534 1545.27 425.123 1573.97 424.863C1626.96 424.451 1681.92 425.826 1736.47 428.578C1801.78 431.864 1865.57 437.303 1925.66 449.944C2048.88 476.132 2155.14 528.566 2269.31 557.097C2303.4 565.62 2338.05 572.197 2373.56 575.112" stroke="#83848C" stroke-opacity="0.2" stroke-width="0.692997" stroke-miterlimit="10"/>
<path d="M-260.456 228.569C-260.942 245.243 -128.02 175.977 67.7802 324.148C77.5925 331.572 87.01 339.183 96.3174 346.665C128.944 372.775 159.244 398.624 189.609 421.474C281.079 490.574 364.459 536.501 489.126 547.94C563.025 554.719 651.083 548.123 762.633 526.851C794.343 520.805 825.875 513.809 857.363 506.403C925.557 490.366 994.645 472.031 1061.66 460.074C1129.47 447.983 1191.86 440.575 1254.77 433.169C1328.34 424.472 1403.75 417.179 1482.75 412.636C1510.37 411.037 1538.47 409.745 1566.95 408.781C1619.51 407.058 1673.81 407.795 1727.68 410.891C1792.16 414.594 1855.34 421.799 1914.93 436.672C2037.19 467.391 2142.48 526.26 2256.84 561.004C2290.99 571.382 2325.8 579.808 2361.58 584.477" stroke="#83848C" stroke-opacity="0.2" stroke-width="0.692997" stroke-miterlimit="10"/>
<path d="M-265.385 236.634C-265.704 247.75 -130.455 170.488 69.3152 318.229C79.1083 325.475 88.5454 332.855 97.8114 340.142C130.396 365.678 160.36 391.022 190.009 414.014C279.514 483.606 360.205 534.476 484.823 549.249C557.371 557.849 644.576 553.396 756.058 533.351C787.466 527.701 818.705 521.116 849.864 514.032C917.345 498.696 985.208 480.762 1051.63 466.775C1118.83 452.633 1182.35 441.293 1246.31 430.431C1321.11 417.699 1397.24 406.55 1476.15 399.131C1503.74 396.527 1531.69 394.361 1559.95 392.7C1612.09 389.673 1665.71 389.772 1718.9 393.206C1782.55 397.316 1845.12 406.297 1904.2 423.4C2025.5 458.657 2129.82 523.955 2244.37 564.918C2278.58 577.152 2313.54 587.419 2349.59 593.844" stroke="#83848C" stroke-opacity="0.2" stroke-width="0.692997" stroke-miterlimit="10"/>
<path d="M-270.318 244.692C-270.477 250.25 -132.933 165.066 70.8541 312.303C80.6356 319.37 90.0776 326.512 99.3171 333.613C131.86 358.582 161.496 383.421 190.412 406.541C277.953 476.623 356.002 532.371 480.524 550.552C551.752 560.95 638.046 558.52 749.493 539.851C780.602 534.56 811.547 528.424 842.375 521.661C909.145 507.018 975.789 489.493 1041.61 473.477C1108.2 457.276 1172.86 442.012 1237.87 427.693C1313.89 410.928 1390.75 395.921 1469.55 385.62C1497.11 382.009 1524.92 378.97 1552.96 376.612C1604.66 372.282 1657.63 371.743 1710.14 375.521C1772.96 380.04 1834.91 390.788 1893.49 410.122C2013.83 449.909 2117.17 521.643 2231.91 568.819C2266.18 582.907 2301.3 595.017 2337.62 603.203" stroke="#83848C" stroke-opacity="0.2" stroke-width="0.692997" stroke-miterlimit="10"/>
<path d="M-275.254 252.758C-275.254 252.758 -135.447 159.718 72.3815 306.386C280.21 453.053 349.739 608.33 742.91 546.352C1014.6 503.52 1272.3 390.619 1545.95 360.533C1658.54 348.155 1776.12 357.261 1882.75 396.852C2002.13 441.177 2104.5 519.339 2219.44 572.735C2253.77 588.678 2289.04 602.629 2325.64 612.578" stroke="#83848C" stroke-opacity="0.2" stroke-width="0.692997" stroke-miterlimit="10"/>
</g>
</svg>
