<svg width="335" height="39" viewBox="0 0 335 39" fill="none" xmlns="http://www.w3.org/2000/svg">
<path d="M0.528 31.5V0.881999H15.228C16.936 0.881999 18.434 1.078 19.722 1.47C21.038 1.834 22.13 2.394 22.998 3.15C23.866 3.878 24.51 4.774 24.93 5.838C25.378 6.874 25.602 8.092 25.602 9.492C25.602 11.312 25.126 12.88 24.174 14.196C23.25 15.512 21.948 16.394 20.268 16.842V17.136C21.864 17.444 23.026 18.088 23.754 19.068C24.51 20.048 24.888 21.392 24.888 23.1V28.056C24.888 28.616 24.902 29.19 24.93 29.778C24.986 30.338 25.14 30.912 25.392 31.5H19.806C19.638 31.108 19.512 30.618 19.428 30.03C19.344 29.442 19.302 28.77 19.302 28.014V24.066C19.302 23.114 19.162 22.316 18.882 21.672C18.602 21.028 18.098 20.538 17.37 20.202C16.642 19.838 15.606 19.656 14.262 19.656H6.072V31.5H0.528ZM6.072 15.204H14.43C16.418 15.204 17.832 14.742 18.672 13.818C19.512 12.894 19.932 11.704 19.932 10.248C19.932 9.1 19.694 8.19 19.218 7.518C18.77 6.818 18.126 6.314 17.286 6.006C16.474 5.67 15.522 5.502 14.43 5.502H6.072V15.204ZM39.1605 31.878C36.8925 31.878 34.9605 31.416 33.3645 30.492C31.7965 29.54 30.5925 28.21 29.7525 26.502C28.9125 24.766 28.4925 22.75 28.4925 20.454C28.4925 18.074 28.9125 16.016 29.7525 14.28C30.5925 12.516 31.7965 11.158 33.3645 10.206C34.9325 9.254 36.7945 8.778 38.9505 8.778C41.4145 8.778 43.4305 9.324 44.9985 10.416C46.5945 11.48 47.7425 12.964 48.4425 14.868C49.1425 16.772 49.3805 18.956 49.1565 21.42H33.6165C33.6165 22.848 33.8405 24.052 34.2885 25.032C34.7645 25.984 35.4085 26.712 36.2205 27.216C37.0605 27.692 38.0405 27.93 39.1605 27.93C40.4765 27.93 41.5685 27.622 42.4365 27.006C43.3045 26.362 43.8645 25.536 44.1165 24.528H49.0305C48.8625 26.04 48.3305 27.356 47.4345 28.476C46.5385 29.568 45.3765 30.408 43.9485 30.996C42.5205 31.584 40.9245 31.878 39.1605 31.878ZM33.6165 18.606L33.1545 18.06H44.5365L44.0325 18.648C44.0885 17.276 43.9065 16.156 43.4865 15.288C43.0665 14.42 42.4645 13.776 41.6805 13.356C40.8965 12.936 39.9865 12.726 38.9505 12.726C37.8865 12.726 36.9625 12.95 36.1785 13.398C35.3945 13.846 34.7785 14.518 34.3305 15.414C33.8825 16.282 33.6445 17.346 33.6165 18.606ZM53.4214 31.5V9.156H58.5034L58.6714 13.398H58.9234C59.5394 11.83 60.4914 10.668 61.7794 9.912C63.0674 9.128 64.4814 8.736 66.0214 8.736C67.6454 8.736 69.1014 9.128 70.3894 9.912C71.6774 10.696 72.6154 12.012 73.2034 13.86H73.5394C74.1274 12.152 75.1074 10.878 76.4794 10.038C77.8514 9.17 79.4054 8.736 81.1414 8.736C82.6254 8.736 83.9414 9.044 85.0894 9.66C86.2654 10.276 87.1894 11.27 87.8614 12.642C88.5334 14.014 88.8694 15.834 88.8694 18.102V31.5H83.6194V19.236C83.6194 17.836 83.4654 16.688 83.1574 15.792C82.8494 14.868 82.3594 14.182 81.6874 13.734C81.0154 13.286 80.1614 13.062 79.1254 13.062C78.0054 13.062 77.0394 13.342 76.2274 13.902C75.4434 14.462 74.8414 15.204 74.4214 16.128C74.0014 17.052 73.7914 18.074 73.7914 19.194V31.5H68.4994V19.236C68.4994 17.836 68.3454 16.688 68.0374 15.792C67.7294 14.868 67.2394 14.182 66.5674 13.734C65.9234 13.286 65.0834 13.062 64.0474 13.062C62.9274 13.062 61.9614 13.342 61.1494 13.902C60.3654 14.462 59.7494 15.204 59.3014 16.128C58.8814 17.052 58.6714 18.074 58.6714 19.194V31.5H53.4214ZM101.875 31.878C100.531 31.878 99.299 31.64 98.179 31.164C97.087 30.66 96.135 29.918 95.323 28.938C94.539 27.958 93.937 26.754 93.517 25.326C93.097 23.87 92.887 22.204 92.887 20.328C92.887 17.78 93.251 15.652 93.979 13.944C94.735 12.208 95.785 10.906 97.129 10.038C98.501 9.17 100.083 8.736 101.875 8.736C103.107 8.736 104.199 8.932 105.151 9.324C106.131 9.688 106.971 10.206 107.671 10.878C108.371 11.55 108.903 12.348 109.267 13.272H109.561L109.771 9.156H114.811V31.5H109.561V27.342H109.267C108.735 28.714 107.825 29.82 106.537 30.66C105.249 31.472 103.695 31.878 101.875 31.878ZM103.849 27.594C105.109 27.594 106.145 27.3 106.957 26.712C107.797 26.124 108.427 25.368 108.847 24.444C109.267 23.492 109.477 22.498 109.477 21.462V19.152C109.477 18.088 109.267 17.094 108.847 16.17C108.427 15.218 107.797 14.462 106.957 13.902C106.145 13.314 105.109 13.02 103.849 13.02C102.729 13.02 101.749 13.286 100.909 13.818C100.069 14.35 99.411 15.162 98.935 16.254C98.459 17.318 98.221 18.676 98.221 20.328C98.221 21.924 98.459 23.268 98.935 24.36C99.411 25.452 100.069 26.264 100.909 26.796C101.749 27.328 102.729 27.594 103.849 27.594ZM120.441 31.5V9.156H125.691V31.5H120.441ZM120.441 6.006V0.881999H125.691V6.006H120.441ZM131.351 31.5V9.156H136.391L136.601 13.398H136.853C137.497 11.83 138.477 10.668 139.793 9.912C141.109 9.128 142.579 8.736 144.203 8.736C145.323 8.736 146.359 8.918 147.311 9.282C148.291 9.618 149.131 10.164 149.831 10.92C150.559 11.648 151.119 12.614 151.511 13.818C151.931 14.994 152.141 16.422 152.141 18.102V31.5H146.891V19.236C146.891 17.836 146.723 16.688 146.387 15.792C146.051 14.868 145.533 14.182 144.833 13.734C144.161 13.286 143.279 13.062 142.187 13.062C141.011 13.062 140.003 13.342 139.163 13.902C138.351 14.462 137.721 15.204 137.273 16.128C136.825 17.052 136.601 18.074 136.601 19.194V31.5H131.351ZM157.56 31.5V9.156H162.81V31.5H157.56ZM157.56 6.006V0.881999H162.81V6.006H157.56ZM168.47 31.5V9.156H173.51L173.72 13.398H173.972C174.616 11.83 175.596 10.668 176.912 9.912C178.228 9.128 179.698 8.736 181.322 8.736C182.442 8.736 183.478 8.918 184.43 9.282C185.41 9.618 186.25 10.164 186.95 10.92C187.678 11.648 188.238 12.614 188.63 13.818C189.05 14.994 189.26 16.422 189.26 18.102V31.5H184.01V19.236C184.01 17.836 183.842 16.688 183.506 15.792C183.17 14.868 182.652 14.182 181.952 13.734C181.28 13.286 180.398 13.062 179.306 13.062C178.13 13.062 177.122 13.342 176.282 13.902C175.47 14.462 174.84 15.204 174.392 16.128C173.944 17.052 173.72 18.074 173.72 19.194V31.5H168.47ZM203.793 38.934C201.917 38.934 200.293 38.654 198.921 38.094C197.549 37.562 196.457 36.792 195.645 35.784C194.861 34.804 194.413 33.656 194.301 32.34H199.341C199.453 32.9 199.705 33.39 200.097 33.81C200.517 34.23 201.049 34.552 201.693 34.776C202.337 35.028 203.079 35.154 203.919 35.154C205.179 35.154 206.215 34.972 207.027 34.608C207.867 34.244 208.483 33.684 208.875 32.928C209.295 32.172 209.505 31.192 209.505 29.988V25.872H209.211C208.735 27.16 207.867 28.21 206.607 29.022C205.347 29.806 203.863 30.198 202.155 30.198C200.811 30.198 199.593 29.96 198.501 29.484C197.437 29.008 196.513 28.322 195.729 27.426C194.945 26.502 194.343 25.382 193.923 24.066C193.503 22.722 193.293 21.182 193.293 19.446C193.293 17.122 193.657 15.176 194.385 13.608C195.141 12.012 196.191 10.808 197.535 9.996C198.879 9.156 200.447 8.736 202.239 8.736C203.919 8.736 205.375 9.128 206.607 9.912C207.867 10.696 208.735 11.718 209.211 12.978H209.505L209.673 9.156H214.755V29.148C214.755 30.94 214.489 32.452 213.957 33.684C213.453 34.944 212.711 35.952 211.731 36.708C210.751 37.492 209.589 38.052 208.245 38.388C206.929 38.752 205.445 38.934 203.793 38.934ZM204.045 26.124C205.221 26.124 206.201 25.872 206.985 25.368C207.797 24.836 208.413 24.164 208.833 23.352C209.253 22.512 209.477 21.658 209.505 20.79V18.102C209.477 17.206 209.253 16.366 208.833 15.582C208.413 14.77 207.811 14.112 207.027 13.608C206.243 13.076 205.263 12.81 204.087 12.81C202.995 12.81 202.029 13.062 201.189 13.566C200.377 14.07 199.747 14.812 199.299 15.792C198.851 16.772 198.627 17.99 198.627 19.446C198.627 20.93 198.851 22.176 199.299 23.184C199.775 24.164 200.419 24.906 201.231 25.41C202.043 25.886 202.981 26.124 204.045 26.124ZM236.225 31.5V5.712H226.901V0.881999H251.261V5.712H241.769V31.5H236.225ZM254.398 31.5V9.156H259.648V31.5H254.398ZM254.398 6.006V0.881999H259.648V6.006H254.398ZM265.308 31.5V9.156H270.39L270.558 13.398H270.81C271.426 11.83 272.378 10.668 273.666 9.912C274.954 9.128 276.368 8.736 277.908 8.736C279.532 8.736 280.988 9.128 282.276 9.912C283.564 10.696 284.502 12.012 285.09 13.86H285.426C286.014 12.152 286.994 10.878 288.366 10.038C289.738 9.17 291.292 8.736 293.028 8.736C294.512 8.736 295.828 9.044 296.976 9.66C298.152 10.276 299.076 11.27 299.748 12.642C300.42 14.014 300.756 15.834 300.756 18.102V31.5H295.506V19.236C295.506 17.836 295.352 16.688 295.044 15.792C294.736 14.868 294.246 14.182 293.574 13.734C292.902 13.286 292.048 13.062 291.012 13.062C289.892 13.062 288.926 13.342 288.114 13.902C287.33 14.462 286.728 15.204 286.308 16.128C285.888 17.052 285.678 18.074 285.678 19.194V31.5H280.386V19.236C280.386 17.836 280.232 16.688 279.924 15.792C279.616 14.868 279.126 14.182 278.454 13.734C277.81 13.286 276.97 13.062 275.934 13.062C274.814 13.062 273.848 13.342 273.036 13.902C272.252 14.462 271.636 15.204 271.188 16.128C270.768 17.052 270.558 18.074 270.558 19.194V31.5H265.308ZM315.442 31.878C313.174 31.878 311.242 31.416 309.646 30.492C308.078 29.54 306.874 28.21 306.034 26.502C305.194 24.766 304.774 22.75 304.774 20.454C304.774 18.074 305.194 16.016 306.034 14.28C306.874 12.516 308.078 11.158 309.646 10.206C311.214 9.254 313.076 8.778 315.232 8.778C317.696 8.778 319.712 9.324 321.28 10.416C322.876 11.48 324.024 12.964 324.724 14.868C325.424 16.772 325.662 18.956 325.438 21.42H309.898C309.898 22.848 310.122 24.052 310.57 25.032C311.046 25.984 311.69 26.712 312.502 27.216C313.342 27.692 314.322 27.93 315.442 27.93C316.758 27.93 317.85 27.622 318.718 27.006C319.586 26.362 320.146 25.536 320.398 24.528H325.312C325.144 26.04 324.612 27.356 323.716 28.476C322.82 29.568 321.658 30.408 320.23 30.996C318.802 31.584 317.206 31.878 315.442 31.878ZM309.898 18.606L309.436 18.06H320.818L320.314 18.648C320.37 17.276 320.188 16.156 319.768 15.288C319.348 14.42 318.746 13.776 317.962 13.356C317.178 12.936 316.268 12.726 315.232 12.726C314.168 12.726 313.244 12.95 312.46 13.398C311.676 13.846 311.06 14.518 310.612 15.414C310.164 16.282 309.926 17.346 309.898 18.606ZM329.115 14.154V9.156H334.197V14.154H329.115ZM329.115 31.5V26.46H334.197V31.5H329.115Z" fill="#16191C"/>
</svg>
