<svg width="530" height="130" viewBox="0 0 530 130" fill="none" xmlns="http://www.w3.org/2000/svg">
<circle cx="130.802" cy="42.0428" r="3.11429" fill="#16191C"/>
<circle cx="130.802" cy="57.6142" r="3.11429" fill="#16191C"/>
<circle cx="264.716" cy="42.0428" r="3.11429" fill="#16191C"/>
<circle cx="264.716" cy="57.6142" r="3.11429" fill="#16191C"/>
<circle cx="398.63" cy="42.0428" r="3.11429" fill="#16191C"/>
<circle cx="398.63" cy="57.6142" r="3.11429" fill="#16191C"/>
<rect x="6.22656" width="115.229" height="48.6854" rx="7" fill="#FF7500"/>
<rect x="6.22656" y="51.3857" width="115.229" height="48.6854" rx="7" fill="#FF7500"/>
<path d="M40.0789 80.1719C36.9469 80.1719 34.0849 79.5239 31.4929 78.2279C28.9549 76.8779 26.7679 74.9339 24.9319 72.3959C23.0959 69.8579 21.6919 66.7259 20.7199 62.9999C19.7479 59.2739 19.2619 55.0079 19.2619 50.2019C19.2619 45.3419 19.7479 41.0489 20.7199 37.3229C21.7459 33.5969 23.1769 30.4919 25.0129 28.0079C26.8489 25.4699 29.0359 23.5799 31.5739 22.3379C34.1119 21.0419 36.9469 20.3939 40.0789 20.3939C43.2109 20.3939 46.0189 21.0419 48.5029 22.3379C51.0409 23.6339 53.2009 25.5509 54.9829 28.0889C56.8189 30.6269 58.2229 33.7589 59.1949 37.4849C60.1669 41.1569 60.6529 45.3959 60.6529 50.2019C60.6529 55.1159 60.1399 59.4359 59.1139 63.1619C58.1419 66.8339 56.7379 69.9659 54.9019 72.5579C53.1199 75.0959 50.9599 77.0129 48.4219 78.3089C45.9379 79.5509 43.1569 80.1719 40.0789 80.1719ZM39.9979 74.5019C42.2119 74.5019 44.1829 74.0159 45.9109 73.0439C47.6389 72.0179 49.0969 70.5059 50.2849 68.5079C51.5269 66.5099 52.4449 63.9989 53.0389 60.9749C53.6869 57.8969 54.0109 54.3059 54.0109 50.2019C54.0109 46.0979 53.6869 42.5339 53.0389 39.5099C52.4449 36.4859 51.5269 33.9749 50.2849 31.9769C49.0969 29.9789 47.6389 28.4939 45.9109 27.5219C44.1829 26.4959 42.2119 25.9829 39.9979 25.9829C37.7839 25.9829 35.8129 26.4959 34.0849 27.5219C32.3569 28.4939 30.8719 29.9789 29.6299 31.9769C28.4419 33.9209 27.5239 36.4319 26.8759 39.5099C26.2279 42.5339 25.9039 46.0979 25.9039 50.2019C25.9039 54.3059 26.2279 57.8969 26.8759 60.9749C27.5239 63.9989 28.4419 66.5099 29.6299 68.5079C30.8719 70.5059 32.3569 72.0179 34.0849 73.0439C35.8129 74.0159 37.7839 74.5019 39.9979 74.5019ZM80.5738 80.1719C76.6858 80.1719 73.2838 79.3889 70.3678 77.8229C67.5058 76.2569 65.2648 74.0969 63.6448 71.3429C62.0248 68.5349 61.2148 65.2949 61.2148 61.6229H67.6948C67.6948 64.1609 68.2078 66.3749 69.2338 68.2649C70.3138 70.1549 71.8258 71.6399 73.7698 72.7199C75.7138 73.7999 78.0088 74.3399 80.6548 74.3399C84.9748 74.3399 88.2958 73.0439 90.6178 70.4519C92.9398 67.8599 94.1008 64.5119 94.1008 60.4079C94.1008 57.3839 93.5338 54.8459 92.3998 52.7939C91.3198 50.6879 89.7808 49.0679 87.7828 47.9339C85.8388 46.7999 83.5168 46.2329 80.8168 46.2329C77.8468 46.2329 75.3088 46.9079 73.2028 48.2579C71.0968 49.6079 69.5578 51.3359 68.5858 53.4419H62.4298L63.7258 21.0419H98.0698V26.7929H69.4768L68.5858 46.6379L68.9908 46.7999C70.2328 44.9639 72.0148 43.4789 74.3368 42.3449C76.7128 41.2109 79.3048 40.6439 82.1128 40.6439C84.9748 40.6439 87.5668 41.1299 89.8888 42.1019C92.2108 43.0199 94.1818 44.3699 95.8018 46.1519C97.4758 47.8799 98.7448 49.9319 99.6088 52.3079C100.473 54.6299 100.905 57.2489 100.905 60.1649C100.905 64.1609 100.068 67.6709 98.3938 70.6949C96.7198 73.6649 94.3708 75.9869 91.3468 77.6609C88.3228 79.3349 84.7318 80.1719 80.5738 80.1719Z" fill="white"/>
<circle cx="6.22857" cy="49.8285" r="6.22857" fill="white"/>
<circle cx="121.455" cy="49.8285" r="6.22857" fill="white"/>
<rect x="9.34375" y="48.2714" width="109" height="3.11429" fill="white"/>
<circle cx="15.5728" cy="45.1572" r="1.55714" fill="#0D5239"/>
<circle cx="15.5728" cy="54.5" r="1.55714" fill="#0D5239"/>
<circle cx="112.112" cy="45.1572" r="1.55714" fill="#0D5239"/>
<circle cx="112.112" cy="54.5" r="1.55714" fill="#0D5239"/>
<rect x="407.43" y="51.3857" width="115.229" height="48.6854" rx="7" fill="#FF7500"/>
<circle cx="407.658" cy="49.8287" r="6.22857" fill="#E5E5E5"/>
<circle cx="522.885" cy="49.8287" r="6.22857" fill="#E5E5E5"/>
<rect x="410.773" y="48.2715" width="109" height="3.11429" fill="#E5E5E5"/>
<rect x="407.43" width="115.229" height="48.6854" rx="7" fill="#FF7500"/>
<circle cx="464.987" cy="45.1572" r="1.55714" fill="#0D5239"/>
<circle cx="464.987" cy="45.1572" r="1.55714" fill="#0D5239"/>
<rect x="407.43" y="12.4429" width="115" height="36" rx="7" fill="#FF7500"/>
<circle cx="407.658" cy="49.8287" r="6.22857" fill="white"/>
<circle cx="522.885" cy="49.8287" r="6.22857" fill="white"/>
<rect x="410.773" y="48.2715" width="109" height="3.11429" fill="white"/>
<circle cx="512.987" cy="46" r="1.55714" fill="#0D5239"/>
<circle cx="512.987" cy="55.3428" r="1.55714" fill="#0D5239"/>
<circle cx="417.987" cy="45" r="1.55714" fill="#0D5239"/>
<circle cx="417.987" cy="54.3428" r="1.55714" fill="#0D5239"/>
<rect x="274.055" width="115.229" height="48.6854" rx="7" fill="#FF7500"/>
<rect x="274.055" y="51.3857" width="115.229" height="48.6854" rx="7" fill="#FF7500"/>
<path d="M312.969 79.4429V35.6219H299.199V30.5999H301.386C305.274 30.5999 308.136 29.7359 309.972 28.0079C311.808 26.2259 312.861 23.9039 313.131 21.0419H319.53V79.4429H312.969ZM324.845 79.4429V78.1469C324.845 74.9609 325.385 72.1529 326.465 69.7229C327.599 67.2929 329.057 65.1059 330.839 63.1619C332.675 61.2179 334.673 59.4359 336.833 57.8159C339.047 56.1419 341.234 54.5759 343.394 53.1179C345.554 51.6059 347.525 50.0669 349.307 48.5009C351.143 46.9349 352.601 45.2609 353.681 43.4789C354.815 41.6429 355.382 39.5909 355.382 37.3229C355.382 35.0009 354.896 33.0029 353.924 31.3289C352.952 29.6549 351.575 28.3589 349.793 27.4409C348.011 26.5229 345.932 26.0639 343.556 26.0639C341.072 26.0639 338.885 26.5769 336.995 27.6029C335.159 28.6289 333.728 30.0869 332.702 31.9769C331.676 33.8129 331.217 36.0539 331.325 38.6999H325.007C324.899 34.9739 325.628 31.7609 327.194 29.0609C328.76 26.3069 331.001 24.1739 333.917 22.6619C336.833 21.0959 340.181 20.3129 343.961 20.3129C347.633 20.3129 350.819 21.0149 353.519 22.4189C356.273 23.7689 358.406 25.7129 359.918 28.2509C361.43 30.7349 362.186 33.6239 362.186 36.9179C362.186 39.5099 361.7 41.8589 360.728 43.9649C359.756 46.0709 358.433 47.9879 356.759 49.7159C355.139 51.4439 353.33 53.0639 351.332 54.5759C349.334 56.0879 347.309 57.5729 345.257 59.0309C343.259 60.4349 341.369 61.8929 339.587 63.4049C337.805 64.8629 336.32 66.4289 335.132 68.1029C333.944 69.7769 333.188 71.6129 332.864 73.6109H362.915V79.4429H324.845Z" fill="white"/>
<circle cx="274.057" cy="49.8287" r="6.22857" fill="white"/>
<circle cx="389.283" cy="49.8287" r="6.22857" fill="white"/>
<rect x="277.172" y="48.2715" width="109" height="3.11429" fill="white"/>
<circle cx="283.401" cy="45.1572" r="1.55714" fill="#0D5239"/>
<circle cx="283.401" cy="54.5" r="1.55714" fill="#0D5239"/>
<circle cx="379.94" cy="45.1572" r="1.55714" fill="#0D5239"/>
<circle cx="379.94" cy="54.5" r="1.55714" fill="#0D5239"/>
<rect x="140.141" width="115.229" height="48.6854" rx="7" fill="#FF7500"/>
<rect x="140.141" y="51.3857" width="115.229" height="48.6854" rx="7" fill="#FF7500"/>
<path d="M156.543 79.4429V78.1469C156.543 74.9609 157.083 72.1529 158.163 69.7229C159.297 67.2929 160.755 65.1059 162.537 63.1619C164.373 61.2179 166.371 59.4359 168.531 57.8159C170.745 56.1419 172.932 54.5759 175.092 53.1179C177.252 51.6059 179.223 50.0669 181.005 48.5009C182.841 46.9349 184.299 45.2609 185.379 43.4789C186.513 41.6429 187.08 39.5909 187.08 37.3229C187.08 35.0009 186.594 33.0029 185.622 31.3289C184.65 29.6549 183.273 28.3589 181.491 27.4409C179.709 26.5229 177.63 26.0639 175.254 26.0639C172.77 26.0639 170.583 26.5769 168.693 27.6029C166.857 28.6289 165.426 30.0869 164.4 31.9769C163.374 33.8129 162.915 36.0539 163.023 38.6999H156.705C156.597 34.9739 157.326 31.7609 158.892 29.0609C160.458 26.3069 162.699 24.1739 165.615 22.6619C168.531 21.0959 171.879 20.3129 175.659 20.3129C179.331 20.3129 182.517 21.0149 185.217 22.4189C187.971 23.7689 190.104 25.7129 191.616 28.2509C193.128 30.7349 193.884 33.6239 193.884 36.9179C193.884 39.5099 193.398 41.8589 192.426 43.9649C191.454 46.0709 190.131 47.9879 188.457 49.7159C186.837 51.4439 185.028 53.0639 183.03 54.5759C181.032 56.0879 179.007 57.5729 176.955 59.0309C174.957 60.4349 173.067 61.8929 171.285 63.4049C169.503 64.8629 168.018 66.4289 166.83 68.1029C165.642 69.7769 164.886 71.6129 164.562 73.6109H194.613V79.4429H156.543ZM215.626 80.1719C212.495 80.1719 209.633 79.5239 207.041 78.2279C204.503 76.8779 202.316 74.9339 200.48 72.3959C198.644 69.8579 197.24 66.7259 196.268 62.9999C195.296 59.2739 194.81 55.0079 194.81 50.2019C194.81 45.3419 195.296 41.0489 196.268 37.3229C197.294 33.5969 198.725 30.4919 200.561 28.0079C202.397 25.4699 204.584 23.5799 207.122 22.3379C209.66 21.0419 212.495 20.3939 215.626 20.3939C218.759 20.3939 221.567 21.0419 224.051 22.3379C226.589 23.6339 228.749 25.5509 230.531 28.0889C232.367 30.6269 233.771 33.7589 234.743 37.4849C235.715 41.1569 236.201 45.3959 236.201 50.2019C236.201 55.1159 235.688 59.4359 234.662 63.1619C233.69 66.8339 232.286 69.9659 230.45 72.5579C228.668 75.0959 226.508 77.0129 223.97 78.3089C221.486 79.5509 218.705 80.1719 215.626 80.1719ZM215.546 74.5019C217.76 74.5019 219.731 74.0159 221.459 73.0439C223.187 72.0179 224.645 70.5059 225.833 68.5079C227.075 66.5099 227.993 63.9989 228.587 60.9749C229.235 57.8969 229.559 54.3059 229.559 50.2019C229.559 46.0979 229.235 42.5339 228.587 39.5099C227.993 36.4859 227.075 33.9749 225.833 31.9769C224.645 29.9789 223.187 28.4939 221.459 27.5219C219.731 26.4959 217.76 25.9829 215.546 25.9829C213.332 25.9829 211.361 26.4959 209.633 27.5219C207.905 28.4939 206.42 29.9789 205.178 31.9769C203.99 33.9209 203.072 36.4319 202.424 39.5099C201.776 42.5339 201.452 46.0979 201.452 50.2019C201.452 54.3059 201.776 57.8969 202.424 60.9749C203.072 63.9989 203.99 66.5099 205.178 68.5079C206.42 70.5059 207.905 72.0179 209.633 73.0439C211.361 74.0159 213.332 74.5019 215.546 74.5019Z" fill="white"/>
<circle cx="140.143" cy="49.8285" r="6.22857" fill="white"/>
<circle cx="255.369" cy="49.8285" r="6.22857" fill="white"/>
<rect x="143.258" y="48.2714" width="109" height="3.11429" fill="white"/>
<circle cx="149.487" cy="45.1572" r="1.55714" fill="#0D5239"/>
<circle cx="149.487" cy="54.5" r="1.55714" fill="#0D5239"/>
<circle cx="246.026" cy="45.1572" r="1.55714" fill="#0D5239"/>
<circle cx="246.026" cy="54.5" r="1.55714" fill="#0D5239"/>
<path d="M42.1554 125.443V112.321H47.3214C48.5574 112.321 49.6134 112.597 50.4894 113.149C51.3654 113.689 52.0374 114.451 52.5054 115.435C52.9734 116.419 53.2074 117.571 53.2074 118.891C53.2074 119.875 53.0754 120.769 52.8114 121.573C52.5474 122.377 52.1574 123.067 51.6414 123.643C51.1374 124.219 50.5194 124.663 49.7874 124.975C49.0674 125.287 48.2454 125.443 47.3214 125.443H42.1554ZM43.6854 124.093H47.1234C47.8074 124.093 48.4254 123.985 48.9774 123.769C49.5294 123.541 50.0034 123.205 50.3994 122.761C50.7954 122.317 51.0954 121.771 51.2994 121.123C51.5154 120.463 51.6234 119.707 51.6234 118.855C51.6234 117.703 51.4374 116.743 51.0654 115.975C50.6934 115.207 50.1654 114.631 49.4814 114.247C48.8094 113.863 48.0234 113.671 47.1234 113.671H43.6854V124.093ZM53.614 125.443L58.42 112.321H60.562L65.368 125.443H63.766L62.578 122.203H56.404L55.234 125.443H53.614ZM56.8 120.979H62.182L60.562 116.587L59.554 113.761H59.464L58.438 116.587L56.8 120.979ZM68.7748 125.443V120.205L63.9148 112.321H65.6608L69.4948 118.711H69.5848L73.4548 112.321H75.1828L70.3048 120.205V125.443H68.7748ZM80.523 125.605C79.371 125.605 78.417 125.425 77.661 125.065C76.917 124.705 76.359 124.207 75.987 123.571C75.627 122.923 75.435 122.185 75.411 121.357H77.013C77.025 121.969 77.157 122.503 77.409 122.959C77.673 123.415 78.057 123.763 78.561 124.003C79.077 124.243 79.737 124.363 80.541 124.363C81.561 124.363 82.377 124.177 82.989 123.805C83.613 123.421 83.925 122.839 83.925 122.059C83.925 121.627 83.859 121.267 83.727 120.979C83.595 120.679 83.385 120.433 83.097 120.241C82.809 120.049 82.431 119.887 81.963 119.755C81.495 119.611 80.931 119.485 80.271 119.377C79.515 119.233 78.855 119.071 78.291 118.891C77.727 118.711 77.253 118.489 76.869 118.225C76.497 117.949 76.215 117.613 76.023 117.217C75.831 116.821 75.735 116.347 75.735 115.795C75.735 115.063 75.921 114.427 76.293 113.887C76.665 113.335 77.199 112.915 77.895 112.627C78.591 112.327 79.431 112.177 80.415 112.177C81.411 112.177 82.251 112.339 82.935 112.663C83.619 112.975 84.147 113.413 84.519 113.977C84.891 114.541 85.083 115.207 85.095 115.975H83.529C83.505 115.399 83.361 114.919 83.097 114.535C82.833 114.151 82.467 113.863 81.999 113.671C81.531 113.479 80.979 113.383 80.343 113.383C79.695 113.383 79.149 113.479 78.705 113.671C78.261 113.851 77.919 114.103 77.679 114.427C77.439 114.751 77.319 115.135 77.319 115.579C77.319 116.107 77.439 116.521 77.679 116.821C77.931 117.109 78.327 117.337 78.867 117.505C79.419 117.673 80.133 117.835 81.009 117.991C81.609 118.087 82.179 118.213 82.719 118.369C83.259 118.525 83.739 118.741 84.159 119.017C84.579 119.293 84.909 119.665 85.149 120.133C85.401 120.589 85.527 121.183 85.527 121.915C85.527 122.647 85.335 123.289 84.951 123.841C84.567 124.393 84.003 124.825 83.259 125.137C82.515 125.449 81.603 125.605 80.523 125.605Z" fill="#16191C"/>
<path d="M166.117 125.443V112.321H167.647V118.369L167.395 118.117H175.837L175.585 118.369V112.321H177.115V125.443H175.585V119.215L175.837 119.467H167.395L167.647 119.215V125.443H166.117ZM185.969 125.605C185.009 125.605 184.133 125.449 183.341 125.137C182.561 124.825 181.883 124.375 181.307 123.787C180.743 123.199 180.311 122.491 180.011 121.663C179.711 120.835 179.561 119.911 179.561 118.891C179.561 117.859 179.711 116.929 180.011 116.101C180.323 115.273 180.761 114.571 181.325 113.995C181.889 113.407 182.561 112.957 183.341 112.645C184.133 112.333 185.009 112.177 185.969 112.177C186.941 112.177 187.817 112.333 188.597 112.645C189.389 112.957 190.067 113.407 190.631 113.995C191.195 114.583 191.627 115.291 191.927 116.119C192.239 116.935 192.395 117.859 192.395 118.891C192.395 119.923 192.239 120.853 191.927 121.681C191.627 122.509 191.189 123.217 190.613 123.805C190.049 124.381 189.371 124.825 188.579 125.137C187.799 125.449 186.929 125.605 185.969 125.605ZM185.969 124.255C186.965 124.255 187.823 124.039 188.543 123.607C189.263 123.163 189.821 122.545 190.217 121.753C190.613 120.949 190.811 119.995 190.811 118.891C190.811 118.051 190.697 117.301 190.469 116.641C190.241 115.981 189.917 115.423 189.497 114.967C189.077 114.499 188.567 114.145 187.967 113.905C187.379 113.653 186.713 113.527 185.969 113.527C184.973 113.527 184.115 113.743 183.395 114.175C182.687 114.607 182.135 115.225 181.739 116.029C181.343 116.821 181.145 117.775 181.145 118.891C181.145 119.719 181.259 120.469 181.487 121.141C181.715 121.801 182.033 122.365 182.441 122.833C182.861 123.289 183.365 123.643 183.953 123.895C184.553 124.135 185.225 124.255 185.969 124.255ZM199.953 125.605C198.861 125.605 197.919 125.407 197.127 125.011C196.347 124.603 195.747 124.033 195.327 123.301C194.907 122.557 194.697 121.669 194.697 120.637V112.321H196.227V120.601C196.227 121.405 196.377 122.077 196.677 122.617C196.989 123.145 197.421 123.541 197.973 123.805C198.537 124.069 199.203 124.201 199.971 124.201C200.811 124.201 201.507 124.057 202.059 123.769C202.611 123.469 203.019 123.049 203.283 122.509C203.559 121.969 203.697 121.333 203.697 120.601V112.321H205.209V120.637C205.209 121.645 205.005 122.521 204.597 123.265C204.189 124.009 203.589 124.585 202.797 124.993C202.017 125.401 201.069 125.605 199.953 125.605ZM208.463 125.443V112.321H214.403C215.099 112.321 215.711 112.399 216.239 112.555C216.767 112.711 217.205 112.945 217.553 113.257C217.913 113.557 218.183 113.929 218.363 114.373C218.543 114.805 218.633 115.303 218.633 115.867C218.633 116.659 218.435 117.337 218.039 117.901C217.643 118.465 217.061 118.849 216.293 119.053V119.179C217.037 119.299 217.565 119.575 217.877 120.007C218.189 120.439 218.345 121.033 218.345 121.789V124.057C218.345 124.273 218.351 124.495 218.363 124.723C218.387 124.951 218.447 125.191 218.543 125.443H216.995C216.911 125.251 216.857 125.041 216.833 124.813C216.809 124.573 216.797 124.303 216.797 124.003V122.059C216.797 121.567 216.725 121.165 216.581 120.853C216.449 120.529 216.203 120.289 215.843 120.133C215.483 119.965 214.967 119.881 214.295 119.881H209.993V125.443H208.463ZM209.993 118.621H214.205C215.225 118.621 215.951 118.381 216.383 117.901C216.827 117.421 217.049 116.809 217.049 116.065C217.049 115.489 216.929 115.027 216.689 114.679C216.461 114.319 216.131 114.055 215.699 113.887C215.279 113.719 214.781 113.635 214.205 113.635H209.993V118.621ZM225.561 125.605C224.409 125.605 223.455 125.425 222.699 125.065C221.955 124.705 221.397 124.207 221.025 123.571C220.665 122.923 220.473 122.185 220.449 121.357H222.051C222.063 121.969 222.195 122.503 222.447 122.959C222.711 123.415 223.095 123.763 223.599 124.003C224.115 124.243 224.775 124.363 225.579 124.363C226.599 124.363 227.415 124.177 228.027 123.805C228.651 123.421 228.963 122.839 228.963 122.059C228.963 121.627 228.897 121.267 228.765 120.979C228.633 120.679 228.423 120.433 228.135 120.241C227.847 120.049 227.469 119.887 227.001 119.755C226.533 119.611 225.969 119.485 225.309 119.377C224.553 119.233 223.893 119.071 223.329 118.891C222.765 118.711 222.291 118.489 221.907 118.225C221.535 117.949 221.253 117.613 221.061 117.217C220.869 116.821 220.773 116.347 220.773 115.795C220.773 115.063 220.959 114.427 221.331 113.887C221.703 113.335 222.237 112.915 222.933 112.627C223.629 112.327 224.469 112.177 225.453 112.177C226.449 112.177 227.289 112.339 227.973 112.663C228.657 112.975 229.185 113.413 229.557 113.977C229.929 114.541 230.121 115.207 230.133 115.975H228.567C228.543 115.399 228.399 114.919 228.135 114.535C227.871 114.151 227.505 113.863 227.037 113.671C226.569 113.479 226.017 113.383 225.381 113.383C224.733 113.383 224.187 113.479 223.743 113.671C223.299 113.851 222.957 114.103 222.717 114.427C222.477 114.751 222.357 115.135 222.357 115.579C222.357 116.107 222.477 116.521 222.717 116.821C222.969 117.109 223.365 117.337 223.905 117.505C224.457 117.673 225.171 117.835 226.047 117.991C226.647 118.087 227.217 118.213 227.757 118.369C228.297 118.525 228.777 118.741 229.197 119.017C229.617 119.293 229.947 119.665 230.187 120.133C230.439 120.589 230.565 121.183 230.565 121.915C230.565 122.647 230.373 123.289 229.989 123.841C229.605 124.393 229.041 124.825 228.297 125.137C227.553 125.449 226.641 125.605 225.561 125.605Z" fill="#16191C"/>
<path d="M292.33 125.443V112.321H294.778L298.828 123.103H298.882L302.968 112.321H305.398V125.443H303.904V118.819L303.958 113.959H303.832L299.53 125.443H298.18L293.914 113.959H293.806L293.842 118.855V125.443H292.33ZM308.748 125.443V112.321H310.278V125.443H308.748ZM313.653 125.443V112.321H315.597L323.013 123.445H323.121L323.031 118.963V112.321H324.525V125.443H322.653L315.255 114.409H315.147L315.219 118.621V125.443H313.653ZM333.021 125.605C331.929 125.605 330.987 125.407 330.195 125.011C329.415 124.603 328.815 124.033 328.395 123.301C327.975 122.557 327.765 121.669 327.765 120.637V112.321H329.295V120.601C329.295 121.405 329.445 122.077 329.745 122.617C330.057 123.145 330.489 123.541 331.041 123.805C331.605 124.069 332.271 124.201 333.039 124.201C333.879 124.201 334.575 124.057 335.127 123.769C335.679 123.469 336.087 123.049 336.351 122.509C336.627 121.969 336.765 121.333 336.765 120.601V112.321H338.277V120.637C338.277 121.645 338.073 122.521 337.665 123.265C337.257 124.009 336.657 124.585 335.865 124.993C335.085 125.401 334.137 125.605 333.021 125.605ZM343.916 125.443V113.671H339.668V112.321H349.73V113.671H345.464V125.443H343.916ZM351.586 125.443V112.321H360.604V113.671H352.774L353.116 113.311V118.459L352.774 118.099H359.722V119.359H352.774L353.116 118.999V124.435L352.774 124.075H360.622V125.443H351.586ZM367.348 125.605C366.196 125.605 365.242 125.425 364.486 125.065C363.742 124.705 363.184 124.207 362.812 123.571C362.452 122.923 362.26 122.185 362.236 121.357H363.838C363.85 121.969 363.982 122.503 364.234 122.959C364.498 123.415 364.882 123.763 365.386 124.003C365.902 124.243 366.562 124.363 367.366 124.363C368.386 124.363 369.202 124.177 369.814 123.805C370.438 123.421 370.75 122.839 370.75 122.059C370.75 121.627 370.684 121.267 370.552 120.979C370.42 120.679 370.21 120.433 369.922 120.241C369.634 120.049 369.256 119.887 368.788 119.755C368.32 119.611 367.756 119.485 367.096 119.377C366.34 119.233 365.68 119.071 365.116 118.891C364.552 118.711 364.078 118.489 363.694 118.225C363.322 117.949 363.04 117.613 362.848 117.217C362.656 116.821 362.56 116.347 362.56 115.795C362.56 115.063 362.746 114.427 363.118 113.887C363.49 113.335 364.024 112.915 364.72 112.627C365.416 112.327 366.256 112.177 367.24 112.177C368.236 112.177 369.076 112.339 369.76 112.663C370.444 112.975 370.972 113.413 371.344 113.977C371.716 114.541 371.908 115.207 371.92 115.975H370.354C370.33 115.399 370.186 114.919 369.922 114.535C369.658 114.151 369.292 113.863 368.824 113.671C368.356 113.479 367.804 113.383 367.168 113.383C366.52 113.383 365.974 113.479 365.53 113.671C365.086 113.851 364.744 114.103 364.504 114.427C364.264 114.751 364.144 115.135 364.144 115.579C364.144 116.107 364.264 116.521 364.504 116.821C364.756 117.109 365.152 117.337 365.692 117.505C366.244 117.673 366.958 117.835 367.834 117.991C368.434 118.087 369.004 118.213 369.544 118.369C370.084 118.525 370.564 118.741 370.984 119.017C371.404 119.293 371.734 119.665 371.974 120.133C372.226 120.589 372.352 121.183 372.352 121.915C372.352 122.647 372.16 123.289 371.776 123.841C371.392 124.393 370.828 124.825 370.084 125.137C369.34 125.449 368.428 125.605 367.348 125.605Z" fill="#16191C"/>
<path d="M425.851 125.605C424.699 125.605 423.745 125.425 422.989 125.065C422.245 124.705 421.687 124.207 421.315 123.571C420.955 122.923 420.763 122.185 420.739 121.357H422.341C422.353 121.969 422.485 122.503 422.737 122.959C423.001 123.415 423.385 123.763 423.889 124.003C424.405 124.243 425.065 124.363 425.869 124.363C426.889 124.363 427.705 124.177 428.317 123.805C428.941 123.421 429.253 122.839 429.253 122.059C429.253 121.627 429.187 121.267 429.055 120.979C428.923 120.679 428.713 120.433 428.425 120.241C428.137 120.049 427.759 119.887 427.291 119.755C426.823 119.611 426.259 119.485 425.599 119.377C424.843 119.233 424.183 119.071 423.619 118.891C423.055 118.711 422.581 118.489 422.197 118.225C421.825 117.949 421.543 117.613 421.351 117.217C421.159 116.821 421.063 116.347 421.063 115.795C421.063 115.063 421.249 114.427 421.621 113.887C421.993 113.335 422.527 112.915 423.223 112.627C423.919 112.327 424.759 112.177 425.743 112.177C426.739 112.177 427.579 112.339 428.263 112.663C428.947 112.975 429.475 113.413 429.847 113.977C430.219 114.541 430.411 115.207 430.423 115.975H428.857C428.833 115.399 428.689 114.919 428.425 114.535C428.161 114.151 427.795 113.863 427.327 113.671C426.859 113.479 426.307 113.383 425.671 113.383C425.023 113.383 424.477 113.479 424.033 113.671C423.589 113.851 423.247 114.103 423.007 114.427C422.767 114.751 422.647 115.135 422.647 115.579C422.647 116.107 422.767 116.521 423.007 116.821C423.259 117.109 423.655 117.337 424.195 117.505C424.747 117.673 425.461 117.835 426.337 117.991C426.937 118.087 427.507 118.213 428.047 118.369C428.587 118.525 429.067 118.741 429.487 119.017C429.907 119.293 430.237 119.665 430.477 120.133C430.729 120.589 430.855 121.183 430.855 121.915C430.855 122.647 430.663 123.289 430.279 123.841C429.895 124.393 429.331 124.825 428.587 125.137C427.843 125.449 426.931 125.605 425.851 125.605ZM433.38 125.443V112.321H442.398V113.671H434.568L434.91 113.311V118.459L434.568 118.099H441.516V119.359H434.568L434.91 118.999V124.435L434.568 124.075H442.416V125.443H433.38ZM450.066 125.605C449.106 125.605 448.236 125.449 447.456 125.137C446.676 124.813 446.004 124.357 445.44 123.769C444.888 123.181 444.462 122.479 444.162 121.663C443.862 120.835 443.712 119.911 443.712 118.891C443.712 117.859 443.862 116.935 444.162 116.119C444.462 115.291 444.894 114.583 445.458 113.995C446.022 113.407 446.688 112.957 447.456 112.645C448.236 112.333 449.106 112.177 450.066 112.177C451.122 112.177 452.064 112.363 452.892 112.735C453.732 113.095 454.416 113.611 454.944 114.283C455.484 114.955 455.82 115.747 455.952 116.659H454.386C454.266 116.047 454.014 115.507 453.63 115.039C453.246 114.571 452.754 114.205 452.154 113.941C451.554 113.665 450.858 113.527 450.066 113.527C449.094 113.527 448.248 113.743 447.528 114.175C446.808 114.607 446.256 115.225 445.872 116.029C445.488 116.821 445.296 117.775 445.296 118.891C445.296 119.719 445.404 120.469 445.62 121.141C445.848 121.801 446.166 122.365 446.574 122.833C446.994 123.289 447.498 123.643 448.086 123.895C448.674 124.135 449.334 124.255 450.066 124.255C450.846 124.255 451.536 124.123 452.136 123.859C452.748 123.595 453.246 123.223 453.63 122.743C454.026 122.263 454.278 121.699 454.386 121.051L455.952 121.069C455.844 121.981 455.526 122.779 454.998 123.463C454.47 124.147 453.78 124.675 452.928 125.047C452.088 125.419 451.134 125.605 450.066 125.605ZM464.165 125.605C463.205 125.605 462.329 125.449 461.537 125.137C460.757 124.825 460.079 124.375 459.503 123.787C458.939 123.199 458.507 122.491 458.207 121.663C457.907 120.835 457.757 119.911 457.757 118.891C457.757 117.859 457.907 116.929 458.207 116.101C458.519 115.273 458.957 114.571 459.521 113.995C460.085 113.407 460.757 112.957 461.537 112.645C462.329 112.333 463.205 112.177 464.165 112.177C465.137 112.177 466.013 112.333 466.793 112.645C467.585 112.957 468.263 113.407 468.827 113.995C469.391 114.583 469.823 115.291 470.123 116.119C470.435 116.935 470.591 117.859 470.591 118.891C470.591 119.923 470.435 120.853 470.123 121.681C469.823 122.509 469.385 123.217 468.809 123.805C468.245 124.381 467.567 124.825 466.775 125.137C465.995 125.449 465.125 125.605 464.165 125.605ZM464.165 124.255C465.161 124.255 466.019 124.039 466.739 123.607C467.459 123.163 468.017 122.545 468.413 121.753C468.809 120.949 469.007 119.995 469.007 118.891C469.007 118.051 468.893 117.301 468.665 116.641C468.437 115.981 468.113 115.423 467.693 114.967C467.273 114.499 466.763 114.145 466.163 113.905C465.575 113.653 464.909 113.527 464.165 113.527C463.169 113.527 462.311 113.743 461.591 114.175C460.883 114.607 460.331 115.225 459.935 116.029C459.539 116.821 459.341 117.775 459.341 118.891C459.341 119.719 459.455 120.469 459.683 121.141C459.911 121.801 460.229 122.365 460.637 122.833C461.057 123.289 461.561 123.643 462.149 123.895C462.749 124.135 463.421 124.255 464.165 124.255ZM473.001 125.443V112.321H474.945L482.361 123.445H482.469L482.379 118.963V112.321H483.873V125.443H482.001L474.603 114.409H474.495L474.567 118.621V125.443H473.001ZM487.222 125.443V112.321H492.388C493.624 112.321 494.68 112.597 495.556 113.149C496.432 113.689 497.104 114.451 497.572 115.435C498.04 116.419 498.274 117.571 498.274 118.891C498.274 119.875 498.142 120.769 497.878 121.573C497.614 122.377 497.224 123.067 496.708 123.643C496.204 124.219 495.586 124.663 494.854 124.975C494.134 125.287 493.312 125.443 492.388 125.443H487.222ZM488.752 124.093H492.19C492.874 124.093 493.492 123.985 494.044 123.769C494.596 123.541 495.07 123.205 495.466 122.761C495.862 122.317 496.162 121.771 496.366 121.123C496.582 120.463 496.69 119.707 496.69 118.855C496.69 117.703 496.504 116.743 496.132 115.975C495.76 115.207 495.232 114.631 494.548 114.247C493.876 113.863 493.09 113.671 492.19 113.671H488.752V124.093ZM505.093 125.605C503.941 125.605 502.987 125.425 502.231 125.065C501.487 124.705 500.929 124.207 500.557 123.571C500.197 122.923 500.005 122.185 499.981 121.357H501.583C501.595 121.969 501.727 122.503 501.979 122.959C502.243 123.415 502.627 123.763 503.131 124.003C503.647 124.243 504.307 124.363 505.111 124.363C506.131 124.363 506.947 124.177 507.559 123.805C508.183 123.421 508.495 122.839 508.495 122.059C508.495 121.627 508.429 121.267 508.297 120.979C508.165 120.679 507.955 120.433 507.667 120.241C507.379 120.049 507.001 119.887 506.533 119.755C506.065 119.611 505.501 119.485 504.841 119.377C504.085 119.233 503.425 119.071 502.861 118.891C502.297 118.711 501.823 118.489 501.439 118.225C501.067 117.949 500.785 117.613 500.593 117.217C500.401 116.821 500.305 116.347 500.305 115.795C500.305 115.063 500.491 114.427 500.863 113.887C501.235 113.335 501.769 112.915 502.465 112.627C503.161 112.327 504.001 112.177 504.985 112.177C505.981 112.177 506.821 112.339 507.505 112.663C508.189 112.975 508.717 113.413 509.089 113.977C509.461 114.541 509.653 115.207 509.665 115.975H508.099C508.075 115.399 507.931 114.919 507.667 114.535C507.403 114.151 507.037 113.863 506.569 113.671C506.101 113.479 505.549 113.383 504.913 113.383C504.265 113.383 503.719 113.479 503.275 113.671C502.831 113.851 502.489 114.103 502.249 114.427C502.009 114.751 501.889 115.135 501.889 115.579C501.889 116.107 502.009 116.521 502.249 116.821C502.501 117.109 502.897 117.337 503.437 117.505C503.989 117.673 504.703 117.835 505.579 117.991C506.179 118.087 506.749 118.213 507.289 118.369C507.829 118.525 508.309 118.741 508.729 119.017C509.149 119.293 509.479 119.665 509.719 120.133C509.971 120.589 510.097 121.183 510.097 121.915C510.097 122.647 509.905 123.289 509.521 123.841C509.137 124.393 508.573 124.825 507.829 125.137C507.085 125.449 506.173 125.605 505.093 125.605Z" fill="#16191C"/>
<path d="M442.387 82.1719C438.445 82.1719 435.016 81.3889 432.1 79.8229C429.238 78.2569 427.024 76.0699 425.458 73.2619C423.892 70.4539 423.136 67.2139 423.19 63.5419H429.589C429.535 66.0799 430.021 68.3209 431.047 70.2649C432.073 72.2089 433.558 73.7209 435.502 74.8009C437.5 75.8809 439.795 76.4209 442.387 76.4209C445.033 76.4209 447.328 75.9619 449.272 75.0439C451.216 74.0719 452.728 72.7219 453.808 70.9939C454.888 69.2119 455.428 67.1599 455.428 64.8379C455.428 63.0019 455.131 61.4089 454.537 60.0589C453.997 58.6549 453.187 57.5209 452.107 56.6569C451.081 55.7389 449.839 55.0639 448.381 54.6319C446.923 54.1459 445.303 53.9029 443.521 53.9029H437.527V48.7189H443.278C445.762 48.7189 447.814 48.2599 449.434 47.3419C451.108 46.4239 452.377 45.1819 453.241 43.6159C454.105 41.9959 454.537 40.1869 454.537 38.1889C454.537 36.0289 454.024 34.1929 452.998 32.6809C452.026 31.1689 450.649 30.0349 448.867 29.2789C447.139 28.4689 445.06 28.0639 442.63 28.0639C439.984 28.0639 437.716 28.6039 435.826 29.6839C433.936 30.7099 432.505 32.1679 431.533 34.0579C430.561 35.9479 430.048 38.1619 429.994 40.6999H423.676C423.622 37.0279 424.378 33.8149 425.944 31.0609C427.51 28.2529 429.751 26.0929 432.667 24.5809C435.583 23.0689 438.958 22.3129 442.792 22.3129C445.654 22.3129 448.219 22.6909 450.487 23.4469C452.755 24.1489 454.699 25.1749 456.319 26.5249C457.939 27.8209 459.181 29.4139 460.045 31.3039C460.909 33.1399 461.341 35.2189 461.341 37.5409C461.341 39.7549 460.936 41.7799 460.126 43.6159C459.37 45.3979 458.263 46.9099 456.805 48.1519C455.401 49.3939 453.754 50.3119 451.864 50.9059V51.3109C454.078 51.7969 455.941 52.7149 457.453 54.0649C459.019 55.3609 460.207 56.9539 461.017 58.8439C461.827 60.7339 462.232 62.8939 462.232 65.3239C462.232 68.6719 461.395 71.6149 459.721 74.1529C458.101 76.6369 455.806 78.6079 452.836 80.0659C449.866 81.4699 446.383 82.1719 442.387 82.1719ZM482.735 82.0909C479.279 82.0909 476.255 81.4699 473.663 80.2279C471.071 78.9859 468.992 77.2579 467.426 75.0439C465.914 72.8299 464.996 70.1839 464.672 67.1059H470.99C471.206 68.9959 471.827 70.6429 472.853 72.0469C473.879 73.3969 475.229 74.4499 476.903 75.2059C478.631 75.9619 480.602 76.3399 482.816 76.3399C485.786 76.3399 488.189 75.7459 490.025 74.5579C491.861 73.3159 493.265 71.5879 494.237 69.3739C495.263 67.1059 495.965 64.4059 496.343 61.2739C496.721 58.1419 496.91 54.6589 496.91 50.8249H496.586C495.614 53.7949 493.805 56.2249 491.159 58.1149C488.513 60.0049 485.192 60.9499 481.196 60.9499C477.632 60.9499 474.5 60.1669 471.8 58.6009C469.1 56.9809 466.994 54.7399 465.482 51.8779C463.97 49.0159 463.214 45.6949 463.214 41.9149C463.214 37.8109 464.051 34.3009 465.725 31.3849C467.399 28.4689 469.721 26.2279 472.691 24.6619C475.715 23.0959 479.171 22.3129 483.059 22.3129C486.461 22.3129 489.431 22.9069 491.969 24.0949C494.561 25.2829 496.694 27.0379 498.368 29.3599C500.096 31.6819 501.365 34.5439 502.175 37.9459C503.039 41.2939 503.471 45.1819 503.471 49.6099C503.471 55.6579 503.012 60.7609 502.094 64.9189C501.23 69.0229 499.907 72.3439 498.125 74.8819C496.397 77.4199 494.237 79.2559 491.645 80.3899C489.107 81.5239 486.137 82.0909 482.735 82.0909ZM482.654 55.7659C485.462 55.7659 487.838 55.1449 489.782 53.9029C491.78 52.6609 493.292 50.9599 494.318 48.7999C495.344 46.6399 495.857 44.2369 495.857 41.5909C495.857 38.7829 495.317 36.3799 494.237 34.3819C493.157 32.3839 491.645 30.8449 489.701 29.7649C487.757 28.6309 485.462 28.0639 482.816 28.0639C480.224 28.0639 477.956 28.6579 476.012 29.8459C474.068 30.9799 472.556 32.5999 471.476 34.7059C470.45 36.8119 469.937 39.2689 469.937 42.0769C469.937 44.9389 470.45 47.3959 471.476 49.4479C472.556 51.4459 474.068 53.0119 476.012 54.1459C477.956 55.2259 480.17 55.7659 482.654 55.7659Z" fill="white"/>
</svg>
