<svg width="742" height="641" viewBox="0 0 742 641" fill="none" xmlns="http://www.w3.org/2000/svg">
<mask id="mask0_816_6658" style="mask-type:alpha" maskUnits="userSpaceOnUse" x="0" y="0" width="793" height="641">
<rect width="793" height="641" fill="#D9D9D9"/>
</mask>
<g mask="url(#mask0_816_6658)">
<g opacity="0.0636858">
<mask id="mask1_816_6658" style="mask-type:luminance" maskUnits="userSpaceOnUse" x="71" y="47" width="1047" height="1040">
<path fill-rule="evenodd" clip-rule="evenodd" d="M1117.55 47.3963H71.0034V1087H1117.55V47.3963Z" fill="white"/>
</mask>
<g mask="url(#mask1_816_6658)">
<path fill-rule="evenodd" clip-rule="evenodd" d="M72.9073 479.711C72.5792 472.296 76.0427 465.336 82.1649 461.097L671.039 53.1467C675.784 49.8568 681.538 48.6011 687.238 49.6079C692.934 50.6179 697.897 53.7688 701.203 58.4856L1111.76 643.336C1114.12 646.69 1115.46 650.617 1115.64 654.685C1115.96 662.101 1112.5 669.058 1106.38 673.302L517.505 1081.25C512.755 1084.54 507.007 1085.8 501.304 1084.79C495.609 1083.78 490.645 1080.63 487.337 1075.91L76.7811 491.064C74.4224 487.708 73.0851 483.78 72.9073 479.711ZM1117.52 654.604C1117.33 650.178 1115.87 645.913 1113.31 642.265L702.756 57.4143C699.158 52.2888 693.765 48.8624 687.571 47.7647C681.376 46.6695 675.125 48.0352 669.964 51.6096L81.0875 459.561C74.4338 464.172 70.673 471.735 71.026 479.795C71.2228 484.219 72.678 488.485 75.2404 492.136L485.796 1076.98C489.393 1082.11 494.783 1085.53 500.977 1086.63C507.17 1087.73 513.424 1086.36 518.587 1082.79L1107.46 674.834C1114.11 670.227 1117.88 662.663 1117.52 654.604Z" fill="#FF7500"/>
</g>
<path fill-rule="evenodd" clip-rule="evenodd" d="M100.262 473.812C99.9466 466.699 103.237 459.98 109.055 455.84L677.947 50.9638C682.526 47.7012 688.112 46.4075 693.672 47.3182C699.234 48.2307 704.102 51.2393 707.385 55.789L1114.85 620.789C1117.24 624.107 1118.6 628.003 1118.78 632.059C1119.09 639.174 1115.8 645.893 1109.98 650.029L541.091 1054.91C531.629 1061.64 518.426 1059.48 511.654 1050.09L104.19 485.083C101.796 481.767 100.439 477.867 100.262 473.812ZM1120.66 631.975C1120.47 627.558 1118.98 623.312 1116.38 619.699L708.914 54.7004C705.34 49.7429 700.035 46.4671 693.979 45.4728C687.923 44.4801 681.839 45.8897 676.848 49.441L107.958 454.319C101.616 458.829 98.0366 466.145 98.3755 473.893C98.5732 478.313 100.048 482.562 102.656 486.173L510.122 1051.17C517.499 1061.4 531.888 1063.76 542.188 1056.43L1111.08 651.553C1117.42 647.044 1121 639.726 1120.66 631.975Z" fill="#FF7500"/>
<path fill-rule="evenodd" clip-rule="evenodd" d="M127.616 467.911C127.319 461.1 130.436 454.621 135.95 450.581L684.858 48.7792C693.972 42.1076 706.85 44.0441 713.567 53.0956L1117.94 598.245C1120.37 601.518 1121.75 605.39 1121.93 609.437C1122.22 616.247 1119.11 622.725 1113.59 626.762L564.687 1028.57C560.267 1031.8 554.852 1033.13 549.428 1032.31C544.003 1031.5 539.225 1028.63 535.972 1024.25L131.6 479.099C129.171 475.827 127.792 471.957 127.616 467.911ZM1123.81 609.351C1123.61 604.933 1122.11 600.709 1119.46 597.137L715.083 51.9853C707.751 42.1017 693.691 39.9881 683.74 47.2718L134.833 449.074C128.808 453.486 125.406 460.56 125.734 467.994C125.926 472.412 127.429 476.636 130.082 480.211L534.455 1025.36C538.008 1030.15 543.221 1033.28 549.144 1034.16C555.064 1035.06 560.979 1033.6 565.798 1030.08L1114.71 628.271C1120.73 623.86 1124.13 616.789 1123.81 609.351Z" fill="#FF7500"/>
<path fill-rule="evenodd" clip-rule="evenodd" d="M154.959 462.009C154.676 455.497 157.622 449.261 162.842 445.324L691.765 46.5954C696.017 43.3916 701.266 42.0234 706.552 42.7422C711.834 43.4603 716.521 46.181 719.744 50.4023L1121.03 575.705C1123.5 578.939 1124.9 582.777 1125.07 586.813C1125.36 593.324 1122.42 599.56 1117.19 603.497L588.267 1002.23C579.498 1008.83 566.947 1007.13 560.29 998.42L159.003 473.119C156.535 469.887 155.137 466.046 154.959 462.009ZM1126.96 586.729C1126.76 582.312 1125.23 578.106 1122.53 574.572L721.247 49.2709C717.717 44.6517 712.589 41.6753 706.807 40.887C701.025 40.1011 695.28 41.5992 690.627 45.1042L161.704 443.835C155.99 448.141 152.767 454.966 153.079 462.092C153.275 466.51 154.8 470.715 157.504 474.252L558.789 999.551C566.075 1009.08 579.809 1010.96 589.408 1003.72L1118.33 604.986C1124.05 600.679 1127.27 593.858 1126.96 586.729Z" fill="#FF7500"/>
<path fill-rule="evenodd" clip-rule="evenodd" d="M182.31 456.111C182.037 449.894 184.815 443.896 189.742 440.066L698.68 44.4105C702.764 41.2373 707.847 39.831 712.993 40.4547C718.142 41.0776 722.734 43.6536 725.929 47.7094L1124.13 553.162C1126.64 556.346 1128.05 560.156 1128.23 564.185C1128.5 570.402 1125.72 576.399 1120.8 580.23L611.861 975.887C607.775 979.059 602.695 980.464 597.546 979.841C592.399 979.219 587.805 976.641 584.609 972.586L186.415 467.135C183.903 463.952 182.486 460.138 182.31 456.111ZM1130.11 564.102C1129.92 559.68 1128.36 555.502 1125.61 552.003L727.412 46.5554C723.907 42.1066 718.865 39.28 713.221 38.5975C707.574 37.9134 701.999 39.4545 697.516 42.9379L188.581 438.593C183.175 442.793 180.126 449.373 180.426 456.192C180.619 460.613 182.177 464.796 184.926 468.292L583.124 973.74C586.629 978.194 591.671 981.019 597.316 981.698C602.963 982.386 608.541 980.843 613.018 977.361L1121.96 581.705C1127.36 577.503 1130.41 570.922 1130.11 564.102Z" fill="#FF7500"/>
<path fill-rule="evenodd" clip-rule="evenodd" d="M209.644 450.21C209.385 444.287 211.996 438.531 216.632 434.81L705.588 42.2262C713.676 35.7325 725.573 36.9832 732.108 45.0156L1127.22 530.621C1129.77 533.753 1131.21 537.538 1131.39 541.559C1131.65 547.484 1129.03 553.238 1124.4 556.961L635.445 949.542C631.525 952.692 626.609 954.131 621.603 953.606C616.591 953.076 612.089 950.644 608.925 946.754L213.816 461.153C211.263 458.016 209.819 454.23 209.644 450.21ZM1133.27 541.478C1133.08 537.054 1131.49 532.893 1128.68 529.442L733.574 43.8393C726.387 35.0045 713.301 33.628 704.404 40.7694L215.446 433.355C210.349 437.444 207.477 443.778 207.761 450.291C207.955 454.713 209.543 458.876 212.35 462.331L607.458 947.929C610.938 952.211 615.894 954.886 621.401 955.465C626.912 956.047 632.319 954.462 636.627 950.998L1125.58 558.417C1130.68 554.324 1133.56 547.991 1133.27 541.478Z" fill="#FF7500"/>
<path fill-rule="evenodd" clip-rule="evenodd" d="M236.98 444.308C236.726 438.596 239.115 433.215 243.527 429.549L712.499 40.0391C716.254 36.9246 721 35.4447 725.873 35.8765C730.745 36.3075 735.154 38.5981 738.29 42.3247L1130.31 508.077C1132.91 511.167 1134.38 514.919 1134.55 518.932C1134.8 524.647 1132.41 530.03 1128 533.693L659.029 923.205C651.281 929.639 639.714 928.614 633.24 920.919L241.224 455.168C238.623 452.079 237.154 448.324 236.98 444.308ZM1136.43 518.848C1136.24 514.425 1134.62 510.283 1131.76 506.874L739.738 41.1236C736.277 37.0123 731.414 34.4868 726.041 34.0128C720.668 33.5363 715.429 35.1684 711.291 38.6047L242.32 428.112C237.453 432.155 234.821 438.086 235.095 444.392C235.29 448.822 236.908 452.961 239.779 456.366L631.794 922.12C638.937 930.606 651.695 931.733 660.24 924.641L1129.21 535.134C1134.08 531.089 1136.71 525.155 1136.43 518.848Z" fill="#FF7500"/>
<path fill-rule="evenodd" clip-rule="evenodd" d="M264.302 438.41C264.064 432.984 266.292 427.841 270.418 424.287L719.406 37.8565C722.992 34.766 727.575 33.2497 732.311 33.5872C737.046 33.923 741.362 36.0689 744.472 39.6317L1133.39 485.534C1136.05 488.575 1137.54 492.298 1137.72 496.308C1137.96 501.732 1135.72 506.879 1131.6 510.432L682.613 896.865C679.024 899.952 674.441 901.466 669.706 901.131C664.975 900.798 660.658 898.651 657.549 895.089L268.625 449.184C265.972 446.146 264.475 442.42 264.302 438.41ZM1139.6 496.227C1139.4 491.791 1137.75 487.671 1134.82 484.31L745.894 38.4066C742.456 34.4649 737.679 32.0908 732.444 31.7202C727.206 31.348 722.137 33.0247 718.171 36.4403L269.185 422.873C264.618 426.803 262.157 432.495 262.416 438.492C262.613 442.926 264.264 447.047 267.195 450.413L656.124 896.311C659.558 900.255 664.336 902.629 669.571 903.002C674.808 903.369 679.877 901.696 683.842 898.278L1132.83 511.845C1137.4 507.916 1139.86 502.226 1139.6 496.227Z" fill="#FF7500"/>
<path fill-rule="evenodd" clip-rule="evenodd" d="M291.627 432.51C291.401 427.375 293.476 422.461 297.32 419.026L726.325 35.6652C729.745 32.607 734.161 31.0568 738.757 31.2983C743.353 31.5382 747.581 33.5417 750.658 36.9408L1136.49 462.994C1139.16 465.936 1140.72 469.735 1140.9 473.683C1141.12 478.817 1139.05 483.732 1135.2 487.164L706.2 870.528C702.782 873.583 698.366 875.136 693.765 874.897C689.173 874.655 684.945 872.653 681.865 869.256L296.031 443.2C293.363 440.257 291.798 436.458 291.627 432.51ZM1142.78 473.603C1142.58 469.22 1140.85 465.005 1137.89 461.744L752.057 35.6891C748.644 31.9202 743.954 29.695 738.853 29.4278C733.754 29.1606 728.856 30.8837 725.06 34.2753L296.056 417.637C291.794 421.445 289.493 426.896 289.743 432.591C289.936 436.973 291.671 441.183 294.628 444.452L680.464 870.507C683.877 874.273 688.566 876.499 693.666 876.766C698.763 877.033 703.664 875.313 707.458 871.917L1136.46 488.553C1140.73 484.748 1143.03 479.296 1142.78 473.603Z" fill="#FF7500"/>
<path fill-rule="evenodd" clip-rule="evenodd" d="M318.937 426.61C318.725 421.76 320.647 417.079 324.213 413.764L733.234 33.4785C736.49 30.4493 740.742 28.861 745.198 29.0082C749.657 29.1547 753.793 31.0159 756.843 34.252L1139.59 440.455C1142.31 443.344 1143.9 447.11 1144.08 451.06C1144.29 455.91 1142.37 460.59 1138.81 463.905L729.784 844.188C723.062 850.442 712.469 850.096 706.176 843.419L323.429 437.215C320.706 434.325 319.112 430.56 318.937 426.61ZM1145.96 450.979C1145.76 446.583 1143.99 442.39 1140.96 439.176L758.216 32.973C754.824 29.3721 750.224 27.3 745.262 27.1378C740.299 26.9757 735.57 28.741 731.945 32.1127L322.924 412.4C318.956 416.086 316.819 421.295 317.054 426.691C317.248 431.086 319.022 435.276 322.052 438.495L704.801 844.699C711.803 852.13 723.59 852.514 731.069 845.556L1140.09 465.27C1144.06 461.584 1146.19 456.371 1145.96 450.979Z" fill="#FF7500"/>
<path fill-rule="evenodd" clip-rule="evenodd" d="M346.252 420.709C346.052 416.144 347.823 411.693 351.114 408.502L740.15 31.2871C746.537 25.097 756.803 25.2203 763.033 31.5618L1142.69 417.915C1145.47 420.743 1147.1 424.483 1147.27 428.43C1147.48 433.001 1145.7 437.449 1142.41 440.64L753.374 817.857C746.986 824.045 736.723 823.918 730.494 817.58L350.837 431.229C348.056 428.397 346.426 424.66 346.252 420.709ZM1149.15 428.347C1148.96 423.939 1147.14 419.767 1144.04 416.606L764.38 30.2522C757.423 23.1737 745.965 23.0372 738.837 29.9494L349.799 407.162C346.125 410.724 344.145 415.693 344.37 420.792C344.561 425.202 346.38 429.376 349.488 432.536L729.146 818.888C736.101 825.967 747.56 826.106 754.69 819.193L1143.72 441.977C1147.4 438.416 1149.38 433.447 1149.15 428.347Z" fill="#FF7500"/>
<path fill-rule="evenodd" clip-rule="evenodd" d="M373.547 414.809C373.357 410.519 374.986 406.304 378.007 403.24L747.062 29.0974C753.109 22.9685 763.046 22.8668 769.216 28.8699L1145.78 395.372C1148.63 398.144 1150.29 401.848 1150.47 405.806C1150.66 410.096 1149.03 414.311 1146.01 417.378L776.957 791.522C770.907 797.651 760.972 797.75 754.8 791.742L378.233 425.243C375.386 422.472 373.721 418.765 373.547 414.809ZM1152.35 405.724C1152.16 401.293 1150.29 397.142 1147.1 394.036L770.534 27.5323C763.622 20.807 752.49 20.922 745.716 27.7871L376.661 401.928C373.273 405.361 371.453 410.086 371.662 414.89C371.857 419.324 373.724 423.473 376.914 426.58L753.479 793.084C760.386 799.809 771.524 799.695 778.297 792.831L1147.35 418.69C1150.74 415.255 1152.56 410.527 1152.35 405.724Z" fill="#FF7500"/>
<path fill-rule="evenodd" clip-rule="evenodd" d="M400.836 408.911C400.658 404.836 402.101 400.95 404.908 397.97L753.978 26.9065C756.739 23.9682 760.492 22.2724 764.537 22.1359C768.585 21.9995 772.444 23.4372 775.403 26.1819L1148.88 372.835C1151.8 375.544 1153.5 379.217 1153.67 383.181C1153.85 387.255 1152.41 391.14 1149.61 394.121L800.534 765.185C794.826 771.251 785.216 771.572 779.107 765.908L405.631 419.255C402.711 416.547 401.012 412.873 400.836 408.911ZM1155.55 383.095C1155.36 378.637 1153.44 374.514 1150.17 371.47L776.687 24.8143C773.361 21.7263 769.024 20.1116 764.471 20.2663C759.922 20.4193 755.706 22.3244 752.595 25.6283L403.528 396.693C400.374 400.043 398.75 404.412 398.95 408.992C399.146 413.449 401.061 417.581 404.344 420.622L777.82 767.278C784.682 773.646 795.491 773.285 801.909 766.466L1150.98 395.398C1154.13 392.045 1155.76 387.681 1155.55 383.095Z" fill="#FF7500"/>
<path fill-rule="evenodd" clip-rule="evenodd" d="M428.12 403.011C427.952 399.207 429.262 395.551 431.806 392.705L760.893 24.7133C766.264 18.7085 775.551 18.1601 781.596 23.4915L1151.98 350.298C1154.98 352.937 1156.72 356.578 1156.89 360.553C1157.06 364.353 1155.75 368.016 1153.2 370.86L824.118 738.852C818.747 744.859 809.464 745.407 803.414 740.072L433.031 413.267C430.036 410.628 428.292 406.984 428.12 403.011ZM1158.77 360.471C1158.58 355.99 1156.61 351.878 1153.23 348.899L782.844 22.092C776.023 16.0756 765.543 16.6936 759.481 23.4693L430.393 391.464C427.524 394.672 426.044 398.802 426.233 403.093C426.43 407.578 428.399 411.687 431.774 414.667L802.161 741.477C808.984 747.489 819.465 746.873 825.527 740.095L1154.61 372.107C1157.48 368.894 1158.96 364.762 1158.77 360.471Z" fill="#FF7500"/>
<path fill-rule="evenodd" clip-rule="evenodd" d="M455.389 397.113C455.234 393.581 456.413 390.143 458.706 387.436L767.809 22.5186C770.246 19.6399 773.668 17.8754 777.44 17.5536C781.215 17.2302 784.89 18.3841 787.787 20.8062L1155.08 327.764C1158.11 330.293 1159.95 333.997 1160.12 337.927C1160.27 341.46 1159.1 344.896 1156.8 347.606L847.701 712.524C842.669 718.465 833.705 719.232 827.723 714.233L460.426 407.281C457.398 404.75 455.562 401.043 455.389 397.113ZM1162 337.846C1161.8 333.391 1159.72 329.195 1156.3 326.331L788.999 19.3735C785.713 16.6312 781.553 15.3209 777.277 15.6882C773.001 16.0547 769.126 18.0532 766.365 21.3133L457.263 386.232C454.664 389.3 453.331 393.193 453.505 397.193C453.7 401.647 455.78 405.845 459.21 408.713L826.508 715.667C833.285 721.331 843.44 720.46 849.14 713.729L1158.24 348.808C1160.84 345.741 1162.18 341.848 1162 337.846Z" fill="#FF7500"/>
<path fill-rule="evenodd" clip-rule="evenodd" d="M482.645 391.214C482.502 387.943 483.552 384.731 485.601 382.165L774.722 20.323C776.998 17.4749 780.254 15.6757 783.892 15.2596C787.528 14.8427 791.109 15.8585 793.974 18.1168L1158.18 305.225C1161.3 307.679 1163.18 311.35 1163.35 315.302C1163.5 318.568 1162.45 321.78 1160.4 324.35L871.281 686.194C866.581 692.075 857.944 693.064 852.023 688.397L487.817 401.293C484.703 398.839 482.817 395.163 482.645 391.214ZM1165.24 315.217C1165.04 310.726 1162.89 306.551 1159.35 303.758L795.146 16.6508C791.884 14.0806 787.811 12.9258 783.674 13.3998C779.537 13.8738 775.832 15.9187 773.243 19.1598L484.124 381.003C481.793 383.92 480.597 387.578 480.76 391.297C480.958 395.788 483.098 399.966 486.643 402.756L850.854 689.865C857.578 695.17 867.407 694.045 872.752 687.357L1161.87 325.516C1164.2 322.592 1165.4 318.935 1165.24 315.217Z" fill="#FF7500"/>
<path fill-rule="evenodd" clip-rule="evenodd" d="M509.888 385.318C509.756 382.306 510.684 379.315 512.499 376.892L781.636 18.1227C786 12.3065 794.314 11.0979 800.172 15.4301L1161.28 282.688C1164.49 285.06 1166.43 288.699 1166.61 292.669C1166.74 295.68 1165.81 298.67 1163.99 301.097L894.855 659.868C890.492 665.684 882.178 666.89 876.325 662.558L515.205 395.302C511.998 392.929 510.063 389.291 509.888 385.318ZM1168.49 292.588C1168.29 288.05 1166.07 283.896 1162.41 281.183L801.294 13.9297C794.606 8.97963 785.107 10.3603 780.122 17.0053L510.988 375.775C508.914 378.541 507.85 381.959 508.003 385.4C508.201 389.937 510.417 394.092 514.079 396.805L875.195 664.058C881.884 669.008 891.38 667.625 896.365 660.985L1165.5 302.214C1167.58 299.446 1168.64 296.028 1168.49 292.588Z" fill="#FF7500"/>
<path fill-rule="evenodd" clip-rule="evenodd" d="M537.12 379.424C536.998 376.625 537.785 373.926 539.399 371.62L788.552 15.9231C792.582 10.169 800.573 8.74366 806.368 12.7441L1164.39 260.152C1167.7 262.437 1169.7 266.04 1169.87 270.04C1169.99 272.84 1169.2 275.536 1167.59 277.841L918.439 633.542C914.409 639.299 906.418 640.723 900.623 636.719L542.595 389.313C539.29 387.03 537.296 383.423 537.12 379.424ZM1171.75 269.957C1171.55 265.37 1169.26 261.234 1165.47 258.615L807.443 11.2087C800.796 6.61843 791.628 8.25302 787.006 14.8534L537.853 370.551C536.001 373.196 535.095 376.291 535.238 379.504C535.438 384.093 537.727 388.229 541.515 390.85L899.547 638.259C906.192 642.849 915.361 641.213 919.983 634.613L1169.13 278.914C1170.99 276.269 1171.89 273.174 1171.75 269.957Z" fill="#FF7500"/>
<path fill-rule="evenodd" clip-rule="evenodd" d="M564.335 373.528C564.223 370.978 564.901 368.495 566.302 366.343L795.47 13.7179C799.169 8.03074 806.838 6.38705 812.567 10.0583L1167.5 237.613C1170.87 239.772 1172.98 243.434 1173.15 247.411C1173.26 249.96 1172.58 252.441 1171.18 254.593L942.017 607.222C938.319 612.908 930.651 614.55 924.921 610.877L569.983 383.321C566.622 381.165 564.512 377.505 564.335 373.528ZM1175.03 247.329C1174.83 242.744 1172.4 238.526 1168.52 236.044L813.587 8.48614C806.988 4.25407 798.149 6.14841 793.886 12.705L564.719 365.329C563.106 367.808 562.323 370.672 562.452 373.61C562.652 378.192 565.086 382.412 568.963 384.893L923.898 612.451C930.498 616.681 939.337 614.79 943.598 608.235L1172.77 255.612C1174.38 253.13 1175.16 250.268 1175.03 247.329Z" fill="#FF7500"/>
<path fill-rule="evenodd" clip-rule="evenodd" d="M591.535 367.631C591.433 365.329 592.011 363.057 593.201 361.065L802.384 11.5135C805.754 5.88757 813.103 4.0288 818.766 7.37161L1170.61 215.079C1174.09 217.131 1176.27 220.759 1176.45 224.778C1176.55 227.084 1175.97 229.354 1174.78 231.349L965.597 580.899C962.228 586.526 954.881 588.385 949.219 585.039L597.369 377.332C593.891 375.279 591.712 371.653 591.535 367.631ZM1178.33 224.696C1178.13 220.042 1175.6 215.845 1171.58 213.471L819.731 5.76269C813.171 1.89211 804.665 4.04455 800.768 10.5581L591.584 360.106C590.202 362.415 589.536 365.043 589.651 367.717C589.856 372.37 592.382 376.565 596.407 378.944L948.255 586.651C954.811 590.519 963.319 588.369 967.216 581.856L1176.4 232.305C1177.78 229.999 1178.45 227.365 1178.33 224.696Z" fill="#FF7500"/>
<path fill-rule="evenodd" clip-rule="evenodd" d="M618.719 361.743C618.629 359.675 619.107 357.613 620.11 355.784L809.31 9.30702C812.348 3.74312 819.374 1.6701 824.978 4.68698L1173.73 192.542C1177.34 194.483 1179.59 198.072 1179.77 202.144C1179.86 204.213 1179.38 206.275 1178.38 208.105L989.18 554.582C986.142 560.145 979.115 562.219 973.512 559.201L624.756 371.343C621.154 369.403 618.897 365.816 618.719 361.743ZM1181.65 202.064C1181.45 197.399 1178.76 193.122 1174.63 190.9L825.873 3.04148C819.359 -0.465942 811.184 1.94459 807.651 8.41595L618.45 354.891C617.287 357.023 616.732 359.416 616.835 361.825C617.041 366.488 619.732 370.766 623.855 372.99L972.614 560.848C979.128 564.356 987.302 561.946 990.837 555.472L1180.03 208.998C1181.2 206.866 1181.76 204.469 1181.65 202.064Z" fill="#FF7500"/>
<mask id="mask2_816_6658" style="mask-type:luminance" maskUnits="userSpaceOnUse" x="643" y="-1" width="542" height="538">
<path fill-rule="evenodd" clip-rule="evenodd" d="M1185 -1H643.978V536.363H1185V-1Z" fill="white"/>
</mask>
<g mask="url(#mask2_816_6658)">
<path fill-rule="evenodd" clip-rule="evenodd" d="M645.876 355.851C645.796 354.013 646.188 352.163 647.011 350.499L816.227 7.09645C818.934 1.59625 825.645 -0.691023 831.182 1.99993L1176.85 170.009C1180.53 171.798 1182.93 175.439 1183.11 179.509C1183.19 181.348 1182.8 183.2 1181.98 184.865L1012.76 528.268C1010.05 533.766 1003.34 536.053 997.804 533.361L652.135 365.356C648.456 363.565 646.056 359.924 645.876 355.851ZM1184.99 179.427C1184.78 174.67 1181.98 170.416 1177.68 168.328L832.01 0.318132C825.54 -2.82449 817.697 -0.154212 814.529 6.27331L645.311 349.676C644.354 351.621 643.896 353.784 643.99 355.934C644.2 360.691 647 364.946 651.304 367.035L996.972 535.042C1003.44 538.189 1011.28 535.518 1014.45 529.09L1183.67 185.686C1184.63 183.744 1185.08 181.578 1184.99 179.427Z" fill="#FF7500"/>
</g>
</g>
</g>
</svg>
