<svg width="485" height="454" viewBox="0 0 485 454" fill="none" xmlns="http://www.w3.org/2000/svg">
<circle cx="80" cy="10" r="10" fill="#FF7500"/>
<g clip-path="url(#clip0_0_1)">
<path d="M337.724 443.6L328.746 443.599L324.476 408.974H337.726L337.724 443.6Z" fill="#FFB6B6"/>
<path d="M337.484 440.668L327.899 436.769L327.625 436.656L322.333 440.668C319.344 440.668 316.479 441.855 314.366 443.968C312.253 446.081 311.066 448.946 311.065 451.934V452.3H340.011V440.668H337.484Z" fill="#2F2E41"/>
<path d="M418.841 431.929L410.806 435.933L391.537 406.849L403.396 400.939L418.841 431.929Z" fill="#FFB6B6"/>
<path d="M419.584 428.282L417.529 429.303L417.318 429.408L407.015 430.203L406.705 430.225L403.756 436.171C402.432 436.831 401.251 437.745 400.28 438.862C399.309 439.978 398.568 441.275 398.099 442.678C397.63 444.081 397.442 445.563 397.545 447.039C397.649 448.515 398.043 449.956 398.703 451.28L398.865 451.603L424.771 438.697L419.584 428.282Z" fill="#2F2E41"/>
<path d="M331.635 257.492L381.138 259.224L381.483 258.723C381.483 258.723 385.706 268.575 385.706 277.019C385.706 279.827 383.753 298.191 384.745 301.665C384.869 302.097 384.019 303.156 384.298 305.168C384.479 306.474 385.476 305.469 385.706 307.279C385.87 308.578 384.114 309.295 384.298 310.798C384.499 312.439 386.914 317.757 387.131 319.583C389.446 339.023 392.527 367.187 392.527 367.187C392.527 367.187 404.904 400.334 407.522 400.873C411.916 401.777 414.883 409.767 412.448 411.428C411.288 412.22 396.301 417.543 396.301 417.543C395.477 417.692 392.901 416.4 394.542 413.344C394.844 412.781 393.043 414.213 392.743 413.54C392.425 412.824 393.05 409.974 392.685 409.179C389.41 402.041 384.381 392.149 379.615 387.07C372.573 379.566 368.114 370.008 366.888 359.791L355.957 299.183L352.21 316.179L349.11 319.242L349.961 326.384L349.814 333.316L342.073 362.169C342.073 362.169 340.912 416.051 342.777 417.762C343.787 418.689 348.072 430.103 339.962 431.132L325.226 429.996C325.226 429.996 323.241 425.812 324.234 424.323C325.226 422.834 325.167 423.24 323.956 420.804C322.744 418.367 323.241 414.238 323.241 414.238C321.311 394.834 320.549 375.331 320.96 355.835C321.699 323.814 326.175 287.028 326.175 286.279C326.213 285.513 326.072 284.748 325.763 284.046V282.025L327.664 274.863L331.635 257.492Z" fill="#2F2E41"/>
<path d="M401.297 263.545C412.095 263.545 420.848 254.792 420.848 243.995C420.848 233.199 412.095 224.446 401.297 224.446C390.5 224.446 381.747 233.199 381.747 243.995C381.747 254.792 390.5 263.545 401.297 263.545Z" fill="#FF7500"/>
<path d="M398.631 254.17C398.293 254.17 397.96 254.091 397.658 253.94C397.356 253.789 397.094 253.57 396.891 253.3L391.557 246.189C391.386 245.96 391.261 245.7 391.191 245.424C391.12 245.147 391.104 244.859 391.144 244.576C391.185 244.294 391.281 244.022 391.426 243.776C391.572 243.53 391.764 243.316 391.992 243.144C392.221 242.973 392.481 242.848 392.758 242.778C393.034 242.707 393.322 242.691 393.605 242.731C393.888 242.772 394.16 242.867 394.405 243.013C394.651 243.158 394.866 243.351 395.037 243.579L398.526 248.231L407.489 234.789C407.647 234.551 407.85 234.347 408.088 234.188C408.325 234.029 408.591 233.918 408.872 233.862C409.152 233.805 409.44 233.805 409.721 233.86C410.001 233.916 410.268 234.026 410.505 234.184C410.743 234.343 410.947 234.547 411.106 234.784C411.265 235.022 411.376 235.288 411.432 235.568C411.488 235.848 411.488 236.137 411.432 236.417C411.377 236.697 411.266 236.964 411.108 237.202L400.44 253.201C400.247 253.491 399.988 253.73 399.683 253.898C399.379 254.066 399.039 254.159 398.691 254.169C398.671 254.17 398.651 254.17 398.631 254.17Z" fill="white"/>
<path d="M410.965 264.662C411.155 263.863 411.168 263.031 411.003 262.227C410.837 261.422 410.497 260.663 410.007 260.003C409.516 259.344 408.887 258.8 408.163 258.41C407.44 258.021 406.64 257.794 405.819 257.747L395.802 223.618L389.025 231.482L399.806 263.437C399.819 264.821 400.338 266.152 401.266 267.178C402.194 268.204 403.466 268.855 404.841 269.006C406.217 269.157 407.6 268.798 408.728 267.997C409.857 267.197 410.653 266.01 410.965 264.662Z" fill="#FFB8B8"/>
<path d="M403.897 248.012L402.595 243.241L404.087 240.391L403.975 240.061L403.524 238.78L401.188 236.908L402.025 234.522L399.07 226.127L398.345 224.67L381.377 190.604L377.31 182.434L376.367 180.956L373.432 176.353L369.421 170.069C368.783 169.065 367.952 168.197 366.975 167.517C365.999 166.837 364.897 166.358 363.734 166.107C363.358 166.025 362.977 165.966 362.594 165.931L362.32 165.91C361.635 165.873 360.948 165.913 360.272 166.03H360.258C359.066 166.237 357.931 166.687 356.922 167.353C356.128 167.867 355.42 168.504 354.825 169.239C353.455 170.938 352.743 173.074 352.819 175.256L352.946 178.69L353.072 181.814L359.026 192.581L359.413 193.285L359.42 193.306L377.739 226.451L383.263 236.443L384.101 237.963L387.817 240.426L386.824 242.903L387.113 246.76L390.273 249.145L394.854 253.797L395.037 254.177L396.445 253.466L396.578 253.396L396.895 253.304L401.251 251.988L403.897 251.193L403.982 251.165L404.707 250.982L403.897 248.012Z" fill="#E6E6E6"/>
<path d="M479.206 402.942C477.879 401.255 476.077 400.004 474.033 399.35C471.988 398.697 469.795 398.671 467.735 399.275L467.285 399.409L463.245 415.179C462.64 412.829 461.345 407.523 460.529 402.329L460.458 401.9L460.057 402.076C455.834 403.943 451.864 406.335 448.241 409.198C441.823 414.346 436.603 420.83 432.943 428.199C429.284 435.568 427.273 443.646 427.051 451.871L427.044 452.173L427.037 452.363L427.572 452.173L439.05 448.071C444.132 448.519 449.25 447.826 454.03 446.044C458.81 444.261 463.132 441.434 466.679 437.768C471.317 432.878 474.498 426.586 477.574 420.499C478.474 418.726 479.396 416.896 480.339 415.137C481.391 413.224 481.846 411.039 481.644 408.866C481.442 406.692 480.593 404.628 479.206 402.942Z" fill="#F2F2F2"/>
<path d="M184.654 141.155H183.247V86.9388H285.049V88.3463H184.654V141.155Z" fill="#3F3D56"/>
<path d="M300.661 103.098C311.458 103.098 320.211 94.3458 320.211 83.5491C320.211 72.7524 311.458 64 300.661 64C289.863 64 281.11 72.7524 281.11 83.5491C281.11 94.3458 289.863 103.098 300.661 103.098Z" fill="#FF7500"/>
<path d="M297.994 93.7235C297.656 93.7235 297.323 93.6449 297.021 93.4939C296.719 93.3428 296.457 93.1236 296.254 92.8535L290.921 85.7423C290.749 85.5138 290.625 85.2539 290.554 84.9772C290.483 84.7006 290.467 84.4127 290.508 84.13C290.548 83.8474 290.644 83.5754 290.789 83.3297C290.935 83.084 291.127 82.8693 291.356 82.698C291.584 82.5267 291.844 82.402 292.121 82.3311C292.398 82.2603 292.685 82.2446 292.968 82.285C293.251 82.3254 293.523 82.4211 293.769 82.5666C294.014 82.7121 294.229 82.9045 294.4 83.133L297.89 87.7849L306.852 74.3427C307.01 74.1048 307.214 73.9004 307.451 73.7413C307.688 73.5821 307.955 73.4713 308.235 73.4151C308.515 73.3589 308.804 73.3585 309.084 73.4139C309.364 73.4693 309.631 73.5794 309.869 73.7379C310.107 73.8964 310.311 74.1002 310.47 74.3377C310.629 74.5751 310.739 74.8416 310.795 75.1218C310.851 75.402 310.851 75.6905 310.796 75.9708C310.74 76.251 310.63 76.5176 310.471 76.7552L299.804 92.7551C299.611 93.0444 299.351 93.2833 299.047 93.4517C298.742 93.6201 298.402 93.713 298.054 93.7228C298.034 93.7231 298.014 93.7235 297.994 93.7235Z" fill="white"/>
<path d="M115.686 272.781H114.279V326.997H216.082V325.589H115.686V272.781Z" fill="#3F3D56"/>
<path d="M231.693 346.583C242.49 346.583 251.243 337.83 251.243 327.033C251.243 316.237 242.49 307.484 231.693 307.484C220.896 307.484 212.143 316.237 212.143 327.033C212.143 337.83 220.896 346.583 231.693 346.583Z" fill="#FF7500"/>
<path d="M229.026 337.208C228.689 337.208 228.356 337.129 228.054 336.978C227.752 336.827 227.489 336.608 227.287 336.338L221.953 329.227C221.782 328.998 221.657 328.738 221.586 328.462C221.515 328.185 221.5 327.897 221.54 327.614C221.58 327.332 221.676 327.06 221.822 326.814C221.967 326.568 222.16 326.354 222.388 326.182C222.616 326.011 222.876 325.886 223.153 325.816C223.43 325.745 223.718 325.729 224 325.769C224.283 325.81 224.555 325.905 224.801 326.051C225.046 326.196 225.261 326.389 225.432 326.617L228.922 331.269L237.884 317.827C238.042 317.589 238.246 317.385 238.483 317.226C238.721 317.066 238.987 316.956 239.267 316.899C239.547 316.843 239.836 316.843 240.116 316.898C240.397 316.954 240.663 317.064 240.901 317.222C241.139 317.381 241.343 317.585 241.502 317.822C241.661 318.06 241.771 318.326 241.827 318.606C241.883 318.886 241.883 319.175 241.828 319.455C241.772 319.735 241.662 320.002 241.503 320.24L230.836 336.239C230.643 336.529 230.383 336.768 230.079 336.936C229.775 337.104 229.434 337.197 229.087 337.207C229.066 337.208 229.046 337.208 229.026 337.208Z" fill="white"/>
<path d="M386.409 274.775C386.43 276.257 386.191 277.731 385.705 279.131L385.6 279.11C373.101 281.271 361.951 281.625 356.793 273.953C350.064 265.385 340.807 265.482 330.482 269.244L329.257 267.921L327.174 265.676L329.089 263.508L327.174 259.328L328.772 254.17L330.813 253.797L330.264 249.357L329.405 246.76L331.925 243.994L334.064 237.091L332.523 222.644C330.414 202.841 334.5 182.871 344.219 165.488L350.067 160.238L352.495 158.057L355.754 151.977L359.195 152.378L368.513 153.455L368.829 154.215L371.117 159.732L383.165 172.673L382.623 178.134L382.384 180.541L382.208 182.272L381.377 190.604L377.992 224.642L377.739 226.451L375.015 246.021C379.442 250.3 383.355 258.54 385.234 266.07C385.445 266.907 384.847 267.759 385.002 268.575C385.22 269.729 386.17 270.827 386.275 271.904C386.374 272.857 386.418 273.816 386.409 274.775Z" fill="#E6E6E6"/>
<path d="M362.546 149.798C371.484 149.798 378.73 142.552 378.73 133.615C378.73 124.677 371.484 117.432 362.546 117.432C353.608 117.432 346.362 124.677 346.362 133.615C346.362 142.552 353.608 149.798 362.546 149.798Z" fill="#FFB6B6"/>
<path d="M382.055 129.2C381.097 126.214 378.47 123.688 375.351 123.358C375.587 121.374 375.275 119.364 374.448 117.546C373.621 115.729 372.311 114.172 370.661 113.047C369.011 111.922 367.083 111.271 365.089 111.166C363.094 111.06 361.109 111.504 359.349 112.448C358.975 111.999 358.492 111.654 357.946 111.446C357.399 111.238 356.809 111.175 356.231 111.263C355.075 111.453 353.986 111.931 353.063 112.651C350.77 114.328 348.975 116.595 347.869 119.211C346.762 121.827 346.386 124.694 346.78 127.507C346.772 126.08 347.405 128.841 349.217 129.085C350.728 129.389 352.166 129.982 353.452 130.832C354.737 131.681 356.171 132.282 357.678 132.603C359.199 132.825 359.591 138.922 358.505 142.849C358.299 143.593 358.194 144.592 358.88 144.946C359.725 145.383 360.579 144.285 361.524 144.178C361.948 144.171 362.358 144.329 362.667 144.619C362.977 144.909 363.162 145.307 363.184 145.731C363.185 146.156 363.084 146.575 362.89 146.953C362.696 147.331 362.415 147.657 362.07 147.905C361.375 148.393 360.606 148.765 359.793 149.008L360.066 149.395C360.304 149.838 360.69 150.184 361.155 150.374C361.621 150.564 362.139 150.585 362.619 150.436C363.701 151.741 374.853 148.117 375.397 145.734C377.733 143.63 379.673 141.124 381.125 138.336C382.575 135.517 382.908 132.254 382.055 129.2Z" fill="#2F2E41"/>
<path d="M395.143 178.486C394.918 180.372 393.151 181.779 391.293 182.173C390.349 182.355 389.38 182.372 388.429 182.222C387.501 182.085 386.583 181.88 385.684 181.61C384.572 181.294 383.472 180.937 382.384 180.541C379.275 179.43 376.277 178.028 373.432 176.353C371.281 175.098 369.221 173.691 367.267 172.145C366.254 171.343 365.271 170.506 364.318 169.633L365.508 170.196C364.445 168.767 363.383 167.339 362.32 165.91C361.292 164.531 360.267 163.152 359.244 161.773C359.181 161.688 359.132 161.632 359.111 161.604V161.597C358.639 160.97 358.175 160.344 357.71 159.718C356.31 157.839 354.93 155.08 356.542 153.384C356.886 153.054 357.303 152.81 357.759 152.672C358.215 152.533 358.698 152.505 359.167 152.589C359.672 152.655 360.161 152.812 360.61 153.054C361.841 153.851 362.885 154.905 363.671 156.143C364.769 154.545 366.901 153.954 368.83 154.215C368.935 154.222 369.034 154.236 369.132 154.25C371.138 154.595 372.003 153.511 373.742 154.574C374.551 155.066 375.044 157.6 375.853 158.092C376.31 158.374 378.006 158.796 378.471 159.084C379.386 159.647 379.154 161.751 380.076 162.314C380.758 162.73 382.588 161.611 383.271 162.026C383.988 162.469 384.988 165.397 385.706 165.833C387.134 166.713 388.281 165.108 389.71 165.981C391.547 167.114 393.503 168.373 394.277 170.386C394.96 172.159 394.08 174.587 392.384 175.094C393.194 175.191 393.935 175.599 394.45 176.232C394.965 176.864 395.213 177.673 395.143 178.486Z" fill="#E6E6E6"/>
<path opacity="0.2" d="M382.384 180.541L382.208 182.272C380.213 182.08 378.251 181.637 376.366 180.956C373.886 180.123 371.735 178.524 370.223 176.389C369.266 174.953 368.266 173.525 367.267 172.145C365.606 169.837 363.959 167.684 362.594 165.931C360.926 163.813 359.673 162.279 359.244 161.773C359.181 161.688 359.132 161.632 359.11 161.604L359.089 161.583L359.11 161.597C367.472 172.179 375.371 178.282 382.623 178.134C382.623 178.134 383.474 180.935 382.384 180.541Z" fill="black"/>
<path d="M305.861 95.7938C305.655 96.5894 305.626 97.4205 305.776 98.2285C305.926 99.0365 306.251 99.8018 306.729 100.47C307.207 101.139 307.825 101.695 308.541 102.099C309.257 102.502 310.053 102.744 310.872 102.807L320.227 137.124L327.155 129.392L316.994 97.2348C317.008 95.8513 316.515 94.5104 315.607 93.4663C314.699 92.4222 313.44 91.7475 312.067 91.5699C310.695 91.3922 309.305 91.7241 308.162 92.5026C307.018 93.2811 306.199 94.4522 305.861 95.7938Z" fill="#FFB8B8"/>
<path d="M360.786 183.545L360.722 180.421L354.825 169.239L354.607 168.831L354.593 168.81L350.068 160.238L328.232 118.842L325.887 117.981L326.004 114.618L325.887 110.943L323.069 109.055L321.868 106.777L320.165 107.263H320.158L320.109 107.277L312.663 109.367H312.656L311.108 110.24L309.7 114.462L309.392 116.461L309.7 120.092L313.219 120.795L312.053 124.518L315.591 135.229C320.017 153.947 326.063 170.104 336.499 179.33L337.358 180.738L344.149 191.849C345.076 193.369 346.432 194.581 348.046 195.331C349.66 196.081 351.461 196.336 353.22 196.064H353.227C354.422 195.879 355.566 195.453 356.591 194.812C357.537 194.229 358.363 193.472 359.026 192.581C360.239 190.971 360.88 189.002 360.849 186.987L360.786 183.545Z" fill="#E6E6E6"/>
<path d="M484.162 453.784L292.917 454C292.695 454 292.482 453.912 292.325 453.755C292.167 453.597 292.079 453.384 292.079 453.162C292.079 452.94 292.167 452.727 292.325 452.57C292.482 452.412 292.695 452.324 292.917 452.324L484.162 452.108C484.384 452.108 484.597 452.196 484.754 452.353C484.912 452.51 485 452.724 485 452.946C485 453.168 484.912 453.381 484.754 453.538C484.597 453.695 484.384 453.784 484.162 453.784Z" fill="#CACACA"/>
<path d="M58.8537 172.166C58.842 161.588 62.8837 151.408 70.1478 143.718L45.2185 109.408C44.1923 107.994 42.8735 106.819 41.352 105.961C39.8305 105.103 38.1419 104.582 36.4013 104.436C34.6607 104.289 32.9089 104.519 31.2652 105.11C29.6215 105.702 28.1245 106.64 26.8762 107.862C18.3365 116.186 11.5568 126.141 6.93991 137.137C2.32298 148.132 -0.0370786 159.943 -5.94391e-05 171.868C1.00944e-05 176.371 0.335759 180.868 1.00438 185.322C1.26668 187.082 1.90991 188.765 2.88923 190.251C3.86855 191.738 5.16037 192.993 6.67461 193.929C8.17175 194.855 9.85302 195.444 11.6011 195.654C13.3493 195.864 15.1222 195.69 16.7962 195.145L59.8416 181.159C59.1865 178.206 58.8553 175.191 58.8537 172.166Z" fill="#F2F2F2"/>
<path d="M61.143 185.761L16.3915 200.301C14.7352 200.836 13.2135 201.721 11.9292 202.896C10.645 204.071 9.62836 205.508 8.94815 207.11C8.26795 208.713 7.94009 210.442 7.9868 212.182C8.0335 213.922 8.45368 215.631 9.21887 217.195C15.5919 230.123 24.9864 241.326 36.6071 249.855C48.2278 258.383 61.7325 263.986 75.9778 266.19C77.7127 266.456 79.4848 266.344 81.1725 265.862C82.8601 265.379 84.4234 264.537 85.7551 263.394C87.085 262.254 88.1524 260.839 88.884 259.247C89.6155 257.655 89.9939 255.924 89.9931 254.172V212.377C83.3651 210.657 77.2641 207.328 72.2314 202.685C67.1987 198.042 63.3899 192.229 61.143 185.761Z" fill="#E6E6E6"/>
<path d="M195.723 211.875C194.967 210.081 193.834 208.471 192.4 207.154C190.967 205.837 189.266 204.844 187.415 204.243L138.607 188.385C135.758 195.086 131.198 200.919 125.385 205.303C119.571 209.686 112.708 212.465 105.482 213.361V264.211C105.483 266.163 105.906 268.092 106.722 269.865C107.538 271.638 108.728 273.214 110.21 274.484C111.691 275.755 113.43 276.69 115.307 277.226C117.184 277.762 119.155 277.886 121.084 277.589C136.942 275.136 151.975 268.899 164.911 259.405C177.847 249.911 188.305 237.441 195.4 223.049C196.253 221.319 196.723 219.425 196.779 217.497C196.834 215.569 196.474 213.652 195.723 211.875Z" fill="#3F3D56"/>
<path d="M183.596 95.2402C182.207 93.88 180.541 92.8353 178.711 92.1771C176.881 91.5189 174.931 91.2627 172.993 91.426C171.056 91.5893 169.176 92.1682 167.482 93.1234C165.788 94.0785 164.32 95.3874 163.178 96.961L129.81 142.886C133.648 146.734 136.692 151.3 138.765 156.324C140.839 161.348 141.903 166.731 141.896 172.166C141.896 173.178 141.848 174.177 141.776 175.17L194.818 192.403C196.693 193.008 198.678 193.198 200.634 192.957C202.59 192.717 204.47 192.054 206.144 191.013C207.817 189.972 209.244 188.579 210.323 186.93C211.403 185.282 212.111 183.418 212.397 181.468C213.141 176.51 213.515 171.504 213.515 166.491C213.556 153.216 210.929 140.068 205.789 127.828C200.65 115.589 193.103 104.507 183.596 95.2402Z" fill="#FF7500"/>
<path d="M100.375 130.647C107.519 130.639 114.542 132.484 120.761 136L141.127 107.969C142.165 106.542 142.881 104.906 143.226 103.175C143.57 101.444 143.535 99.6585 143.123 97.9423C142.723 96.2588 141.963 94.682 140.895 93.3208C139.827 91.9596 138.476 90.8463 136.936 90.0579C124.362 83.6633 110.458 80.3203 96.3509 80.2998C82.2439 80.2792 68.3304 83.5817 55.7376 89.9396C54.1495 90.7409 52.7546 91.8778 51.6496 93.2716C50.5445 94.6654 49.7557 96.2828 49.3379 98.0117C48.9257 99.7159 48.8891 101.489 49.2305 103.209C49.5719 104.929 50.2832 106.554 51.3151 107.972L74.4194 139.77C81.7756 133.855 90.9352 130.635 100.375 130.647Z" fill="#E6E6E6"/>
</g>
<defs>
<clipPath id="clip0_0_1">
<rect width="485" height="390" fill="white" transform="translate(0 64)"/>
</clipPath>
</defs>
</svg>
