<svg width="529" height="414" viewBox="0 0 529 414" fill="none" xmlns="http://www.w3.org/2000/svg">
<rect x="0.502073" y="0.499996" width="179.767" height="51.0003" rx="9.5" transform="matrix(1 0 0.00414552 0.999991 173.998 362)" stroke="#FF7500"/>
<path d="M228.104 394.126C227.732 394.126 227.378 394.09 227.042 394.018C226.718 393.958 226.454 393.88 226.25 393.784V391.84C226.418 391.936 226.616 392.014 226.844 392.074C227.072 392.134 227.33 392.164 227.618 392.164C228.062 392.164 228.428 392.098 228.716 391.966C229.016 391.822 229.238 391.612 229.382 391.336C229.526 391.048 229.598 390.682 229.598 390.238V380.878H231.974V390.418C231.974 391.078 231.884 391.642 231.704 392.11C231.524 392.578 231.26 392.962 230.912 393.262C230.576 393.562 230.168 393.784 229.688 393.928C229.22 394.06 228.692 394.126 228.104 394.126ZM238.85 394.162C238.13 394.162 237.482 394.054 236.906 393.838C236.33 393.61 235.826 393.28 235.394 392.848C234.974 392.416 234.65 391.894 234.422 391.282C234.206 390.67 234.098 389.98 234.098 389.212C234.098 388.228 234.284 387.364 234.656 386.62C235.04 385.876 235.586 385.294 236.294 384.874C237.002 384.454 237.854 384.244 238.85 384.244C239.558 384.244 240.2 384.358 240.776 384.586C241.352 384.814 241.844 385.144 242.252 385.576C242.672 386.008 242.996 386.53 243.224 387.142C243.452 387.742 243.566 388.432 243.566 389.212C243.566 390.184 243.374 391.042 242.99 391.786C242.618 392.53 242.078 393.112 241.37 393.532C240.674 393.952 239.834 394.162 238.85 394.162ZM238.832 392.308C239.324 392.308 239.756 392.194 240.128 391.966C240.5 391.726 240.788 391.378 240.992 390.922C241.196 390.454 241.298 389.884 241.298 389.212C241.298 388.708 241.238 388.264 241.118 387.88C241.01 387.484 240.848 387.154 240.632 386.89C240.416 386.626 240.158 386.428 239.858 386.296C239.558 386.164 239.222 386.098 238.85 386.098C238.358 386.098 237.92 386.218 237.536 386.458C237.164 386.686 236.876 387.034 236.672 387.502C236.468 387.958 236.366 388.528 236.366 389.212C236.366 389.716 236.42 390.166 236.528 390.562C236.648 390.946 236.816 391.27 237.032 391.534C237.248 391.786 237.506 391.978 237.806 392.11C238.118 392.242 238.46 392.308 238.832 392.308ZM245.38 394V384.424H247.63V394H245.38ZM245.38 383.074V380.878H247.63V383.074H245.38ZM250.056 394V384.424H252.216L252.306 386.242H252.414C252.69 385.57 253.11 385.072 253.674 384.748C254.238 384.412 254.868 384.244 255.564 384.244C256.044 384.244 256.488 384.322 256.896 384.478C257.316 384.622 257.676 384.856 257.976 385.18C258.288 385.492 258.528 385.906 258.696 386.422C258.876 386.926 258.966 387.538 258.966 388.258V394H256.716V388.744C256.716 388.144 256.644 387.652 256.5 387.268C256.356 386.872 256.134 386.578 255.834 386.386C255.546 386.194 255.168 386.098 254.7 386.098C254.196 386.098 253.764 386.218 253.404 386.458C253.056 386.698 252.786 387.016 252.594 387.412C252.402 387.808 252.306 388.246 252.306 388.726V394H250.056ZM265.514 394V380.878H268.394L274.55 390.76H274.658L274.568 386.476V380.878H276.854V394H274.118L267.98 384.28H267.854L267.926 388.204V394H265.514ZM283.727 394.162C283.007 394.162 282.359 394.054 281.783 393.838C281.207 393.61 280.703 393.28 280.271 392.848C279.851 392.416 279.527 391.894 279.299 391.282C279.083 390.67 278.975 389.98 278.975 389.212C278.975 388.228 279.161 387.364 279.533 386.62C279.917 385.876 280.463 385.294 281.171 384.874C281.879 384.454 282.731 384.244 283.727 384.244C284.435 384.244 285.077 384.358 285.653 384.586C286.229 384.814 286.721 385.144 287.129 385.576C287.549 386.008 287.873 386.53 288.101 387.142C288.329 387.742 288.443 388.432 288.443 389.212C288.443 390.184 288.251 391.042 287.867 391.786C287.495 392.53 286.955 393.112 286.247 393.532C285.551 393.952 284.711 394.162 283.727 394.162ZM283.709 392.308C284.201 392.308 284.633 392.194 285.005 391.966C285.377 391.726 285.665 391.378 285.869 390.922C286.073 390.454 286.175 389.884 286.175 389.212C286.175 388.708 286.115 388.264 285.995 387.88C285.887 387.484 285.725 387.154 285.509 386.89C285.293 386.626 285.035 386.428 284.735 386.296C284.435 386.164 284.099 386.098 283.727 386.098C283.235 386.098 282.797 386.218 282.413 386.458C282.041 386.686 281.753 387.034 281.549 387.502C281.345 387.958 281.243 388.528 281.243 389.212C281.243 389.716 281.297 390.166 281.405 390.562C281.525 390.946 281.693 391.27 281.909 391.534C282.125 391.786 282.383 391.978 282.683 392.11C282.995 392.242 283.337 392.308 283.709 392.308ZM291.323 394L289.001 384.424H291.287L292.925 391.786H293.033L294.509 384.424H297.047L298.559 391.804H298.631L300.287 384.424H302.483L300.143 394H297.191L295.733 387.268H295.643L294.257 394H291.323Z" fill="#FF7500"/>
<g clip-path="url(#clip0_705_2197)">
<path d="M89.7688 325.156C111.982 310.349 117.406 282.335 116.927 257.078C116.847 252.856 117.382 248.419 115.412 244.692C113.442 240.964 108.728 238.367 104.867 240.088C101.677 241.514 100.233 245.13 98.4068 248.117C95.9583 252.11 92.4306 255.332 88.2294 257.412C85.4856 258.766 82.1038 259.563 79.4558 258.065C75.7948 256.002 75.4678 250.976 75.5316 246.779C75.7071 238.973 75.8772 231.161 76.0421 223.345C76.1378 219.155 76.2175 214.878 74.9573 210.879C73.6971 206.881 70.8337 203.137 66.8059 201.958C62.778 200.779 57.7212 203.01 56.804 207.096C56.4211 208.8 56.7481 210.577 56.5966 212.313C56.445 214.049 55.5996 215.969 53.9166 216.431C52.2337 216.893 50.5268 215.682 49.2746 214.432C44.9516 210.139 42.0563 204.643 39.3605 199.178C36.6646 193.714 34.0405 188.123 30.1322 183.447C26.224 178.772 20.7365 175.028 14.6827 174.598C8.62894 174.168 2.04874 177.784 0.421635 183.646C-1.20547 189.509 2.19231 195.594 5.92507 200.421C11.4717 207.614 18.0291 213.969 25.3945 219.291C26.7265 220.246 28.1621 221.282 28.6487 222.843C29.526 225.647 26.7983 228.419 23.9827 229.263C20.7923 230.251 17.3627 229.876 14.0446 230.211C10.7266 230.545 7.10552 231.939 5.80543 234.99C3.99488 239.251 7.56015 243.8 11.0935 246.787C18.1828 252.804 26.2515 257.564 34.9497 260.861C38.0604 262.032 41.3305 263.075 43.827 265.274C46.3235 267.472 47.7751 271.272 46.2198 274.203C44.6645 277.134 40.7243 278.018 37.4462 277.389C34.1681 276.76 31.2728 274.944 28.1701 273.733C22.3556 271.471 14.8024 271.758 10.9819 276.68C8.46942 279.914 8.18228 284.47 9.38666 288.389C10.591 292.308 13.0397 295.709 15.6717 298.847C24.8681 309.815 36.7284 318.713 50.2078 323.539C63.6872 328.366 76.2415 329.816 89.7927 325.133" fill="#EBEBEB"/>
<path d="M83.3336 309.25C79.7603 296.458 74.6637 282.765 68.8332 268.595C67.3656 265.059 65.914 261.57 64.4783 258.129C63.0426 254.696 61.6229 251.295 60.0197 248.053C56.9294 241.827 53.4944 235.777 49.7307 229.932C46.1734 224.356 42.5523 219.131 39.2104 214.304C35.8684 209.477 32.5664 205.033 29.4318 201.106C24.5051 194.885 19.0938 189.063 13.2485 183.694C11.1827 181.79 9.53168 180.373 8.39909 179.417L7.10698 178.341C6.81186 178.102 6.65234 177.991 6.65234 177.991C6.65234 177.991 6.78794 178.134 7.0671 178.389L8.31933 179.512C9.42001 180.492 11.0471 181.95 13.1049 183.877C18.869 189.309 24.2148 195.166 29.0968 201.401C32.2074 205.336 35.4297 209.78 38.8036 214.615C42.1774 219.45 45.7028 224.619 49.2362 230.251C52.9721 236.084 56.3857 242.118 59.4614 248.324C61.0566 251.55 62.4604 254.927 63.8961 258.368C65.3317 261.809 66.7834 265.298 68.251 268.834C74.0734 282.981 79.1781 296.657 82.7753 309.409" fill="#E0E0E0"/>
<path d="M59.8596 247.989C60.0516 247.406 60.1904 246.806 60.2743 246.197C60.5056 245.042 60.7928 243.361 61.1198 241.275C61.7738 237.109 62.4837 231.326 63.2494 224.954C64.0151 218.582 64.8446 212.815 65.5784 208.673C65.9453 206.602 66.2563 204.921 66.4956 203.774C66.6485 203.179 66.7447 202.571 66.7828 201.958C66.56 202.53 66.384 203.119 66.2563 203.719C65.9453 204.858 65.5624 206.522 65.1397 208.585C64.2783 212.719 63.393 218.486 62.6273 224.874C61.8616 231.262 61.1836 236.918 60.6731 241.219C60.4099 243.218 60.1946 244.875 60.0271 246.157C59.9115 246.761 59.8554 247.375 59.8596 247.989Z" fill="#E0E0E0"/>
<path d="M5.33594 237.101C5.51577 237.162 5.70424 237.194 5.89426 237.196L7.48946 237.364C8.89323 237.499 10.9271 237.682 13.4236 238.001C18.4245 238.598 25.3078 239.666 32.8452 241.187C40.3825 242.708 47.1381 244.373 51.9875 245.759C54.4202 246.42 56.3664 247.018 57.7223 247.416L59.2776 247.878C59.4583 247.94 59.6457 247.98 59.8359 247.997C59.6766 247.891 59.5017 247.811 59.3175 247.758L57.7941 247.185C56.4701 246.707 54.5319 246.054 52.1152 245.329C47.2817 243.855 40.5181 242.103 32.9728 240.55C25.4275 238.997 18.5123 238.025 13.4794 237.539C10.967 237.284 8.92514 237.157 7.51338 237.101L5.91819 237.053C5.7228 237.039 5.52639 237.055 5.33594 237.101Z" fill="#E0E0E0"/>
<path d="M82.7422 308.254C82.8931 308.05 83.019 307.828 83.1171 307.593C83.3643 307.091 83.6754 306.446 84.0662 305.658C84.8638 303.969 86.0203 301.492 87.3762 298.425C90.104 292.284 93.5975 283.689 97.3383 274.163C101.079 264.637 104.517 256.018 107.125 249.837L110.243 242.533C110.594 241.737 110.874 241.06 111.089 240.542C111.205 240.318 111.291 240.08 111.344 239.833C111.2 240.04 111.077 240.262 110.977 240.494L110.02 242.43C109.222 244.118 108.066 246.587 106.71 249.662C103.99 255.803 100.489 264.39 96.748 273.932C93.0073 283.474 89.5696 292.069 86.9695 298.25C85.6694 301.277 84.5767 303.754 83.8429 305.554C83.4999 306.351 83.2207 307.028 82.9974 307.545C82.8901 307.773 82.8046 308.01 82.7422 308.254Z" fill="#E0E0E0"/>
<path d="M10.4414 284.064C10.6731 284.186 10.9162 284.284 11.1672 284.359L13.2729 285.067L21.0176 287.648C27.5579 289.831 36.5548 292.961 46.4849 296.41C56.4151 299.859 65.4519 302.957 72.0081 305.036C75.3022 306.08 77.9662 306.9 79.8246 307.426L81.9622 308.031C82.2093 308.109 82.4628 308.165 82.7199 308.198C82.4926 308.073 82.2518 307.974 82.0021 307.904L79.8964 307.195L72.1517 304.614C65.6034 302.432 56.6065 299.293 46.6764 295.813C36.7462 292.332 27.7174 289.273 21.1532 287.194C17.8591 286.151 15.1871 285.33 13.3367 284.805L11.1991 284.199C10.9511 284.132 10.6975 284.086 10.4414 284.064Z" fill="#E0E0E0"/>
<path d="M431.51 162.845L405.656 228.49L503.174 266.792L529.027 201.147L431.51 162.845Z" fill="#EBEBEB"/>
<path d="M528.999 202.03C528.598 202.24 528.179 202.413 527.747 202.548L524.094 203.854L510.598 208.514L465.861 223.568L465.494 223.687L465.295 223.353L464.824 222.556C455.572 206.387 447.197 191.763 441.072 181.073L433.965 168.441L432.083 164.992C431.842 164.597 431.639 164.181 431.477 163.749C431.78 164.104 432.047 164.488 432.274 164.896L434.324 168.257C436.111 171.292 438.615 175.538 441.686 180.731C447.875 191.396 456.33 205.973 465.686 222.078L466.156 222.875L465.59 222.668L510.391 207.892L523.95 203.527L527.659 202.38C528.094 202.222 528.542 202.105 528.999 202.03Z" fill="#E0E0E0"/>
<path d="M405.626 229.398C405.506 229.167 416.378 223.026 429.921 215.73C443.464 208.434 454.543 202.667 454.646 202.898C454.75 203.129 443.903 209.27 430.36 216.567C416.816 223.863 405.754 229.614 405.626 229.398Z" fill="#E0E0E0"/>
<path d="M487.404 214.79C487.659 214.719 491.392 226.499 495.731 241.075C500.069 255.652 503.403 267.576 503.148 267.647C502.893 267.719 499.16 255.947 494.821 241.362C490.482 226.778 487.156 214.87 487.404 214.79Z" fill="#E0E0E0"/>
<path d="M504.014 77.9357L446.543 102.927L463.41 141.611L520.881 116.619L504.014 77.9357Z" fill="#EBEBEB"/>
<path d="M504.393 78.2822C504.308 78.5391 504.204 78.7893 504.082 79.031C503.827 79.5567 503.5 80.2576 503.093 81.1258C502.184 82.9897 500.908 85.5943 499.353 88.7963L486.806 114.062L486.703 114.269L486.479 114.205L485.929 114.062L458.316 106.551L449.965 104.209L447.7 103.548C447.427 103.48 447.16 103.389 446.902 103.277C447.172 103.31 447.439 103.363 447.7 103.436L449.989 103.994L458.388 106.161L486.049 113.512L486.591 113.656L486.264 113.807L498.962 88.6131L502.862 81.0302L503.947 78.9752C504.071 78.7291 504.22 78.4968 504.393 78.2822Z" fill="#E0E0E0"/>
<path d="M463.789 141.964C463.645 141.916 465.647 134.732 468.279 125.922C470.911 117.113 473.16 109.992 473.312 110.04C473.463 110.087 471.453 117.264 468.821 126.082C466.189 134.899 463.94 142.004 463.789 141.964Z" fill="#E0E0E0"/>
<path d="M492.204 101.246C492.276 101.111 498.84 104.52 506.864 108.861C514.888 113.202 521.332 116.826 521.221 116.961C521.109 117.097 514.577 113.696 506.553 109.355C498.529 105.014 492.116 101.389 492.204 101.246Z" fill="#E0E0E0"/>
<path d="M519.062 325.515C519.062 325.626 403.753 325.722 261.541 325.722C119.329 325.722 3.98828 325.626 3.98828 325.515C3.98828 325.403 119.273 325.308 261.533 325.308C403.793 325.308 519.062 325.395 519.062 325.515Z" fill="#263238"/>
<path d="M426.451 89.2344H96.6835C90.2654 89.2344 85.0625 94.4303 85.0625 100.84V310.755C85.0625 317.165 90.2654 322.361 96.6835 322.361H426.451C432.869 322.361 438.072 317.165 438.072 310.755V100.84C438.072 94.4303 432.869 89.2344 426.451 89.2344Z" fill="#263238"/>
<path d="M70.3008 305.116H452.758V311.337C452.758 315.097 451.262 318.703 448.6 321.362C445.937 324.021 442.326 325.515 438.56 325.515H84.4981C80.7327 325.515 77.1216 324.021 74.4591 321.362C71.7966 318.703 70.3008 315.097 70.3008 311.337V305.116Z" fill="#263238"/>
<path d="M427.609 98.498H94.5391V295.366H427.609V98.498Z" fill="#455A64"/>
<path d="M226.766 305.116L231.511 312.651H298.294L302.705 305.116H226.766Z" fill="#455A64"/>
<path d="M418.827 105.157H104.007C102.566 105.157 101.398 106.323 101.398 107.762V292.125C101.398 293.563 102.566 294.729 104.007 294.729H418.827C420.268 294.729 421.435 293.563 421.435 292.125V107.762C421.435 106.323 420.268 105.157 418.827 105.157Z" fill="#EBEBEB"/>
<path d="M421.435 119.048H101.398V294.737H421.435V119.048Z" fill="#EBEBEB"/>
<path d="M127.617 112.477C127.618 112.983 127.469 113.478 127.189 113.9C126.909 114.321 126.509 114.65 126.042 114.845C125.574 115.04 125.059 115.091 124.562 114.994C124.065 114.896 123.608 114.653 123.249 114.296C122.89 113.938 122.645 113.483 122.546 112.987C122.446 112.49 122.497 111.976 122.69 111.508C122.884 111.041 123.212 110.641 123.633 110.36C124.054 110.078 124.55 109.928 125.056 109.928C125.734 109.928 126.384 110.196 126.864 110.674C127.344 111.152 127.615 111.8 127.617 112.477Z" fill="#455A64"/>
<path d="M112.156 112.477C112.157 112.983 112.008 113.478 111.728 113.9C111.448 114.321 111.048 114.65 110.581 114.845C110.113 115.04 109.598 115.091 109.101 114.994C108.604 114.896 108.147 114.653 107.788 114.296C107.429 113.938 107.184 113.483 107.085 112.987C106.986 112.49 107.036 111.976 107.229 111.508C107.423 111.041 107.751 110.641 108.172 110.36C108.593 110.078 109.089 109.928 109.595 109.928C110.273 109.928 110.923 110.196 111.403 110.674C111.883 111.152 112.154 111.8 112.156 112.477Z" fill="#455A64"/>
<path d="M119.589 112.477C119.591 112.983 119.442 113.478 119.162 113.9C118.881 114.321 118.482 114.65 118.014 114.845C117.547 115.04 117.032 115.091 116.534 114.994C116.037 114.896 115.58 114.653 115.221 114.296C114.863 113.938 114.618 113.483 114.519 112.987C114.419 112.49 114.469 111.976 114.663 111.508C114.856 111.041 115.185 110.641 115.606 110.36C116.027 110.078 116.522 109.928 117.029 109.928C117.707 109.928 118.357 110.196 118.837 110.674C119.317 111.152 119.587 111.8 119.589 112.477Z" fill="#455A64"/>
<path d="M435.033 305.116C435.033 305.243 356.685 305.347 260.056 305.347C163.427 305.347 85.0625 305.243 85.0625 305.116C85.0625 304.988 163.395 304.885 260.056 304.885C356.717 304.885 435.033 304.988 435.033 305.116Z" fill="#455A64"/>
<path d="M84.9911 307.681C84.8949 307.638 84.8039 307.585 84.7199 307.521L83.9223 307.004L82.6461 306.135C82.047 305.75 81.4692 305.333 80.9153 304.885L78.7857 303.212C77.9881 302.583 77.1905 301.818 76.3451 301.038C74.3462 299.179 72.4805 297.183 70.7619 295.064C66.1208 289.2 62.5759 282.549 60.2974 275.43C57.3267 265.963 56.2057 256.015 56.9953 246.125C57.3978 240.385 58.3948 234.702 59.9704 229.167C61.6308 223.139 64.1105 217.366 67.3402 212.01C68.1378 210.624 69.1188 209.286 70.0919 207.956L73.2185 204.093C74.3351 202.842 75.4916 201.616 76.6322 200.365C77.7728 199.115 79.0729 197.976 80.3091 196.781C85.5443 192.01 91.1831 187.701 97.1624 183.901C109.374 176.008 123.188 169.476 137.401 162.674C151.575 155.744 166.506 149.093 181.82 142.37C243.147 115.552 299.282 92.6993 340.167 76.8325C360.602 68.8673 377.271 62.7898 388.821 58.624C394.595 56.569 399.102 55.0477 402.157 53.9883L405.634 52.8094L406.519 52.5147C406.617 52.4761 406.719 52.4494 406.823 52.4351C406.731 52.4834 406.635 52.5234 406.535 52.5545L405.658 52.8891L402.204 54.1635L388.916 58.9426C377.423 63.204 360.777 69.3612 340.382 77.3901C299.553 93.3843 243.466 116.292 182.155 143.143C166.841 149.866 151.926 156.501 137.752 163.415C123.531 170.209 109.741 176.716 97.5772 184.554C91.6385 188.315 86.0347 192.579 80.8276 197.299C79.6073 198.493 78.3391 199.632 77.1746 200.851C76.0101 202.07 74.8855 203.304 73.7848 204.539L70.6741 208.362C69.709 209.669 68.7759 210.991 67.9464 212.345C64.7409 217.642 62.2723 223.349 60.6084 229.311C59.0335 234.804 58.026 240.443 57.6015 246.141C56.7931 255.957 57.8761 265.837 60.7919 275.246C63.0298 282.336 66.5228 288.967 71.1048 294.825C72.786 296.957 74.6114 298.972 76.5684 300.854C77.4458 301.651 78.2115 302.448 78.9612 303.053L81.0589 304.757C81.673 305.283 82.2633 305.673 82.7578 306.032L84.01 306.932L84.8076 307.482L84.9911 307.681Z" fill="#263238"/>
<path d="M393.414 26.2056L408.178 38.4322L406.822 52.4351L418.913 45.7204L431.803 54.8645L479.842 24.055L393.414 26.2056Z" fill="#FF7500"/>
<g opacity="0.5">
<path d="M408.18 38.4322L478.544 24.0869L415.351 43.1875L406.824 52.4351L408.18 38.4322Z" fill="black"/>
</g>
<g opacity="0.8">
<path d="M415.351 43.1874L418.916 45.7204L406.824 52.4351L415.351 43.1874Z" fill="black"/>
</g>
<path d="M194.075 210.319L117.348 217.589L122.254 269.234L198.982 261.964L194.075 210.319Z" fill="white"/>
<path d="M198.986 261.976C198.986 261.976 198.93 261.642 198.858 261.02C198.786 260.399 198.691 259.427 198.571 258.28C198.324 255.891 197.965 252.354 197.502 247.878C196.617 238.893 195.341 226.021 193.793 210.354L194.104 210.609L117.383 217.952L117.702 217.57V217.769V217.984V218.422L117.782 219.283L117.95 220.995C118.053 222.142 118.165 223.281 118.277 224.42C118.492 226.69 118.699 228.944 118.915 231.183C119.34 235.659 119.755 240.061 120.159 244.389C120.957 253.031 121.754 261.347 122.496 269.217L122.145 268.922L177.379 263.848L193.195 262.438L197.423 262.08L198.515 261.992C198.645 261.983 198.776 261.983 198.906 261.992C198.791 262.019 198.673 262.035 198.555 262.04L197.502 262.159L193.355 262.598L177.618 264.191L122.201 269.599H121.874V269.272C121.076 261.403 120.279 253.095 119.481 244.453C119.066 240.13 118.646 235.728 118.221 231.246C118.003 229.011 117.788 226.757 117.575 224.484C117.471 223.345 117.359 222.206 117.256 221.067L117.088 219.346L117.009 218.486L116.969 218.056V217.841V217.634C116.674 217.976 117.359 217.156 117.296 217.244L194.025 210.075H194.312V210.354C195.748 226.109 196.928 239.028 197.75 248.085C198.14 252.537 198.443 256.05 198.659 258.44C198.755 259.595 198.826 260.495 198.882 261.132C198.938 261.769 198.986 261.976 198.986 261.976Z" fill="#455A64"/>
<path d="M194.072 210.33C193.906 210.617 193.708 210.884 193.482 211.126L191.671 213.229L184.908 220.9L162.208 246.253L162.009 246.476L161.753 246.309C161.099 245.902 160.405 245.456 159.704 245.01L129.674 225.774L120.613 219.84L118.173 218.247C117.889 218.067 117.622 217.862 117.375 217.634C117.692 217.773 117.996 217.938 118.284 218.128L120.797 219.649L129.977 225.352L160.126 244.421L162.168 245.719L161.706 245.783L184.573 220.581L191.504 213.054L193.41 211.039C193.608 210.782 193.83 210.545 194.072 210.33Z" fill="#455A64"/>
<path d="M356.268 135.718L345.902 172.349L400.329 187.709L410.694 151.078L356.268 135.718Z" fill="white"/>
<path d="M400.336 187.716C400.336 187.716 400.384 187.477 400.504 187.031C400.623 186.585 400.807 185.916 401.03 185.08C401.509 183.359 402.195 180.866 403.072 177.68C404.851 171.308 407.395 162.156 410.498 151.029L410.641 151.283L356.213 135.974C356.141 135.974 356.819 135.632 356.532 135.799V135.879L356.484 136.03L356.397 136.341L356.229 136.946L355.886 138.165L355.192 140.594L353.836 145.373L351.18 154.74L346.155 172.423L345.996 172.128L385.126 183.28L396.292 186.466L399.275 187.334L400.073 187.573L400.344 187.661C400.258 187.648 400.173 187.63 400.089 187.605L399.339 187.406L396.38 186.609L385.214 183.519L345.86 172.543L345.629 172.471L345.693 172.24C347.288 166.664 348.931 160.762 350.662 154.629C351.534 151.565 352.416 148.443 353.31 145.262L354.666 140.483C354.897 139.686 355.12 138.89 355.352 138.093L355.695 136.874L355.87 136.269L355.958 135.958L355.998 135.807V135.735V135.672L356.333 135.488L410.761 150.885L410.96 150.941L410.904 151.14L403.224 177.863C402.314 181.01 401.628 183.439 401.102 185.184C400.855 185.98 400.671 186.633 400.536 187.087C400.4 187.541 400.336 187.716 400.336 187.716Z" fill="#455A64"/>
<path d="M410.706 151.084C410.513 151.226 410.307 151.348 410.091 151.451L408.297 152.407L401.629 155.863L379.368 167.19L379.168 167.294L379.033 167.11L377.98 165.677L362.546 144.553L357.92 138.117C357.402 137.384 356.995 136.795 356.684 136.349C356.531 136.148 356.395 135.935 356.277 135.711C356.457 135.89 356.62 136.085 356.764 136.293L358.088 137.998L362.873 144.37L378.427 165.398L379.48 166.824L379.152 166.752C387.926 162.363 395.759 158.436 401.485 155.601L408.225 152.287L410.059 151.411C410.264 151.282 410.48 151.172 410.706 151.084Z" fill="#455A64"/>
<path d="M123.674 126.982C123.674 126.982 127.423 123.947 133.246 133.051C136.297 137.68 139.036 142.507 141.445 147.5C141.445 147.5 142.929 149.38 144.181 147.938C145.433 146.496 146.964 142.585 149.381 143.032C151.798 143.478 152.938 146.122 152.867 150.152C152.795 154.183 152.938 163.016 152.954 163.821C152.97 164.625 153.529 165.709 154.55 164.856C155.571 164.004 161.114 156.477 164.536 159.304C167.957 162.132 165.899 173.347 165.692 174.574C165.485 175.8 165.78 176.294 166.378 176.533C166.976 176.772 168.603 174.064 170.27 171.985C171.937 169.906 174.258 167.787 176.085 169.596C177.911 171.404 179.235 179.52 172.735 193.547L169.297 199.847L162.119 200.142C146.645 199.832 139.914 195.092 139.092 192.655C138.271 190.218 141.182 189.071 143.782 188.481C146.382 187.892 149.541 187.621 149.581 186.976C149.62 186.33 149.317 185.868 148.121 185.51C146.925 185.152 135.95 182.101 134.881 177.784C133.812 173.467 143.032 171.77 144.245 171.236C145.457 170.703 144.699 169.715 143.997 169.357C143.295 168.998 135.399 164.984 131.738 163.287C128.077 161.59 126.155 159.48 126.857 157.034C127.559 154.589 131.698 155.011 133.549 154.517C135.399 154.024 134.346 151.873 134.346 151.873C130.909 147.522 127.765 142.948 124.935 138.181C119.28 128.973 123.778 126.902 123.778 126.902" fill="#FF7500"/>
<path d="M128.898 135.122C128.898 135.122 128.898 135.194 129.002 135.321L129.337 135.895C129.648 136.404 130.087 137.145 130.661 138.085C131.802 139.989 133.485 142.721 135.574 146.098C139.746 152.845 145.592 162.116 152.077 172.336C158.561 182.555 164.439 191.811 168.651 198.533L173.628 206.498L174.984 208.657L175.343 209.223L175.47 209.406C175.47 209.406 175.47 209.334 175.367 209.207L175.024 208.633L173.708 206.443C172.567 204.547 170.884 201.807 168.794 198.438C164.623 191.691 158.777 182.42 152.284 172.192C145.792 161.965 139.929 152.717 135.718 145.995L130.741 138.029C130.151 137.097 129.696 136.365 129.385 135.863L129.026 135.305L128.898 135.122Z" fill="#263238"/>
<path d="M147.459 148.575C147.394 148.737 147.349 148.905 147.323 149.077C147.243 149.404 147.156 149.874 147.044 150.463C146.829 151.634 146.573 153.267 146.326 155.067C146.079 156.867 145.879 158.444 145.712 159.679C145.64 160.228 145.576 160.69 145.521 161.073C145.488 161.243 145.472 161.417 145.473 161.59C145.544 161.434 145.592 161.267 145.616 161.097C145.688 160.77 145.784 160.3 145.887 159.703C146.087 158.532 146.326 156.899 146.565 155.099C146.805 153.299 147.044 151.73 147.211 150.495C147.291 149.945 147.363 149.475 147.411 149.093C147.449 148.923 147.465 148.749 147.459 148.575Z" fill="#263238"/>
<path d="M144.834 161.782C144.834 161.718 141.508 161.041 137.376 160.276C133.245 159.512 129.895 158.946 129.879 159.018C129.863 159.089 133.205 159.751 137.337 160.515C141.468 161.28 144.818 161.853 144.834 161.782Z" fill="#263238"/>
<path d="M155.53 177.027C155.355 177.006 155.178 177.006 155.003 177.027L153.568 177.17C152.355 177.29 150.68 177.441 148.83 177.553C146.979 177.664 145.297 177.704 144.044 177.728H142.601C142.426 177.71 142.249 177.71 142.074 177.728C142.246 177.774 142.423 177.793 142.601 177.784C142.944 177.784 143.398 177.824 144.044 177.832C145.265 177.832 146.948 177.832 148.83 177.728C150.712 177.625 152.371 177.441 153.576 177.274C154.182 177.194 154.668 177.123 155.003 177.059C155.179 177.071 155.356 177.061 155.53 177.027Z" fill="#263238"/>
<path d="M160.515 165.605C160.413 165.736 160.33 165.881 160.268 166.035C160.125 166.314 159.925 166.72 159.686 167.23C159.199 168.241 158.545 169.619 157.836 171.212C157.126 172.806 156.496 174.191 156.057 175.195C155.834 175.713 155.658 176.135 155.538 176.422C155.468 176.572 155.414 176.73 155.379 176.892C155.477 176.758 155.56 176.613 155.626 176.462C155.77 176.183 155.969 175.777 156.208 175.267C156.695 174.255 157.349 172.877 158.059 171.284C158.769 169.691 159.399 168.297 159.845 167.302L160.356 166.067C160.431 165.922 160.485 165.766 160.515 165.605Z" fill="#263238"/>
<path d="M171.65 177.871C171.53 178.043 171.428 178.228 171.347 178.421L170.549 179.95C169.919 181.249 169.074 183.041 168.156 185.04C167.239 187.039 166.402 188.84 165.811 190.154C165.54 190.783 165.309 191.309 165.133 191.747C165.039 191.933 164.965 192.127 164.91 192.328C165.03 192.159 165.131 191.977 165.213 191.787L166.011 190.257C166.641 188.959 167.494 187.159 168.404 185.168C169.313 183.176 170.158 181.36 170.749 180.046C171.02 179.417 171.251 178.891 171.435 178.453C171.525 178.267 171.597 178.072 171.65 177.871Z" fill="#263238"/>
<path d="M164.998 191.914C164.775 191.895 164.551 191.895 164.328 191.914L162.502 192.026C160.954 192.121 158.825 192.249 156.472 192.32C154.119 192.392 151.989 192.408 150.442 192.408H148.615C148.39 192.389 148.163 192.389 147.938 192.408C148.158 192.45 148.383 192.472 148.607 192.472C149.038 192.472 149.668 192.527 150.442 192.551C151.981 192.551 154.119 192.607 156.48 192.551C158.841 192.496 160.97 192.328 162.51 192.193C163.307 192.121 163.905 192.057 164.336 192.002C164.559 191.992 164.781 191.963 164.998 191.914Z" fill="#263238"/>
<path d="M402.604 198.828C401.239 198.258 399.773 197.971 398.294 197.982C396.815 197.992 395.354 198.302 393.998 198.892C391.285 200.086 388.884 201.888 386.979 204.157C383.182 208.41 381.069 214.631 380.008 220.23C386.301 221.027 392.45 216.973 395.441 214.734C400.171 211.198 406.568 201.926 402.62 198.804" fill="#FF7500"/>
<path d="M368.627 222.429C370.109 221.697 371.371 220.586 372.284 219.209C373.197 217.833 373.73 216.24 373.827 214.591C373.896 212.941 373.635 211.295 373.06 209.746C372.485 208.198 371.607 206.78 370.477 205.574C369.456 204.451 368.084 203.424 366.577 203.496C365.867 203.578 365.192 203.848 364.621 204.276C364.049 204.704 363.601 205.276 363.323 205.933C362.785 207.26 362.611 208.706 362.82 210.123C363.299 214.981 364.655 219.593 368.627 222.429Z" fill="#FF7500"/>
<path d="M360.363 238.28C360.67 238.018 360.938 237.715 361.161 237.38C361.639 236.774 362.309 235.89 363.107 234.767C365.248 231.863 366.989 228.686 368.283 225.32C369.566 221.904 369.897 218.204 369.241 214.615C369.024 213.538 368.676 212.492 368.204 211.501C368.05 211.127 367.837 210.78 367.574 210.473C368.092 211.848 368.5 213.263 368.794 214.703C369.301 218.209 368.917 221.786 367.677 225.105C366.393 228.418 364.733 231.575 362.732 234.512C361.863 235.716 361.071 236.975 360.363 238.28Z" fill="#263238"/>
<path d="M396.924 205.336C396.364 205.685 395.831 206.077 395.329 206.506C394.324 207.303 392.896 208.458 391.15 209.908C387.648 212.815 382.887 216.909 377.734 221.553C372.582 226.196 368.027 230.53 364.781 233.708C363.186 235.301 361.854 236.599 360.977 237.515C360.493 237.966 360.047 238.456 359.645 238.981C360.18 238.596 360.681 238.167 361.144 237.698L365.092 234.034C368.418 230.944 373.02 226.674 378.165 222.031C383.309 217.387 388.023 213.269 391.445 210.25L395.489 206.698C396.009 206.29 396.49 205.834 396.924 205.336Z" fill="#263238"/>
<path d="M372.247 230.992C375.153 229.062 378.479 227.853 381.947 227.465C385.415 227.077 388.926 227.521 392.187 228.761C393.838 229.406 395.625 230.585 395.657 232.354C395.689 234.122 393.926 235.364 392.283 236.026C388.821 237.337 385.048 237.597 381.439 236.772C377.83 235.947 374.546 234.074 372 231.39" fill="#FF7500"/>
<path d="M387.897 232.011C387.581 231.792 387.235 231.62 386.869 231.501C386.458 231.317 386.034 231.162 385.6 231.039C385.036 230.846 384.461 230.686 383.878 230.561C382.362 230.213 380.815 230.018 379.259 229.98C375.427 229.89 371.626 230.692 368.157 232.322C366.751 232.983 365.415 233.784 364.169 234.711C363.686 235.063 363.223 235.44 362.781 235.842C362.436 236.134 362.111 236.448 361.808 236.782C361.524 237.039 361.277 237.333 361.074 237.658C361.162 237.746 362.287 236.559 364.432 235.078C365.694 234.223 367.029 233.479 368.42 232.855C370.125 232.109 371.899 231.53 373.716 231.127C375.555 230.761 377.425 230.574 379.299 230.569C380.819 230.577 382.336 230.721 383.83 231C386.342 231.485 387.85 232.123 387.897 232.011Z" fill="#263238"/>
<path d="M366.953 57.5886H165.367V278.329H366.953V57.5886Z" fill="#FAFAFA"/>
<path d="M366.943 278.321C366.943 276.728 366.871 189.501 366.768 57.5886L366.943 57.7718H165.382L165.589 57.5647C165.589 138.81 165.589 214.639 165.589 278.297L165.414 278.122L366.991 278.297L165.414 278.472H165.238V278.297C165.238 214.639 165.238 138.786 165.238 57.5647V57.3496H165.462H367.023H367.206V57.5328C367.023 189.501 366.951 276.752 366.943 278.321Z" fill="#263238"/>
<path d="M312.426 232.664H235.393C229.002 232.664 223.82 237.839 223.82 244.222V246.564C223.82 252.947 229.002 258.121 235.393 258.121H312.426C318.817 258.121 323.999 252.947 323.999 246.564V244.222C323.999 237.839 318.817 232.664 312.426 232.664Z" fill="#FF7500"/>
<g opacity="0.5">
<path d="M312.426 232.664H235.393C229.002 232.664 223.82 237.839 223.82 244.222V246.564C223.82 252.947 229.002 258.121 235.393 258.121H312.426C318.817 258.121 323.999 252.947 323.999 246.564V244.222C323.999 237.839 318.817 232.664 312.426 232.664Z" fill="black"/>
</g>
<path d="M304.019 232.664H226.987C220.596 232.664 215.414 237.839 215.414 244.222V246.564C215.414 252.947 220.596 258.121 226.987 258.121H304.019C310.411 258.121 315.593 252.947 315.593 246.564V244.222C315.593 237.839 310.411 232.664 304.019 232.664Z" fill="#FF7500"/>
<path d="M324.812 215.69C324.812 215.802 299.177 215.897 267.56 215.897C235.943 215.897 210.309 215.802 210.309 215.69C210.309 215.579 235.935 215.483 267.56 215.483C299.185 215.483 324.812 215.571 324.812 215.69Z" fill="#263238"/>
<path d="M342.726 222.604C342.726 222.724 309.075 222.811 267.56 222.811C226.045 222.811 192.395 222.724 192.395 222.604C192.395 222.485 226.037 222.397 267.56 222.397C309.083 222.397 342.726 222.493 342.726 222.604Z" fill="#263238"/>
<path d="M174.84 66.1751C174.84 66.5122 174.739 66.8418 174.552 67.1221C174.364 67.4024 174.098 67.6209 173.786 67.7499C173.474 67.8789 173.131 67.9127 172.8 67.8469C172.469 67.7811 172.164 67.6188 171.926 67.3804C171.687 67.142 171.524 66.8383 171.459 66.5076C171.393 66.177 171.427 65.8342 171.556 65.5228C171.685 65.2113 171.904 64.9451 172.184 64.7578C172.465 64.5705 172.795 64.4705 173.133 64.4705C173.585 64.4705 174.019 64.6501 174.34 64.9698C174.66 65.2894 174.84 65.723 174.84 66.1751Z" fill="#E0E0E0"/>
<path d="M178.82 67.8796C179.763 67.8796 180.527 67.1165 180.527 66.1751C180.527 65.2337 179.763 64.4705 178.82 64.4705C177.877 64.4705 177.113 65.2337 177.113 66.1751C177.113 67.1165 177.877 67.8796 178.82 67.8796Z" fill="#E0E0E0"/>
<path d="M186.222 66.1751C186.222 66.5122 186.122 66.8418 185.935 67.1221C185.747 67.4024 185.481 67.6209 185.169 67.7499C184.857 67.8789 184.514 67.9127 184.182 67.8469C183.851 67.7811 183.547 67.6188 183.309 67.3804C183.07 67.142 182.907 66.8383 182.841 66.5076C182.776 66.177 182.809 65.8342 182.939 65.5228C183.068 65.2113 183.286 64.9451 183.567 64.7578C183.848 64.5705 184.178 64.4705 184.515 64.4705C184.968 64.4705 185.402 64.6501 185.722 64.9698C186.042 65.2894 186.222 65.723 186.222 66.1751Z" fill="#E0E0E0"/>
<path d="M351.948 101.867L355.258 89.9194C355.258 89.9194 356.454 85.0766 356.742 83.9375C357.116 82.4401 356.064 81.9701 355.442 82.9897C355.21 83.38 352.586 88.3184 352.586 88.3184C352.586 88.3184 354.676 80.2337 354.748 79.939C355.426 77.2945 353.79 77.5494 353.312 78.5132C352.833 79.477 349.85 87.4422 349.85 87.4422C352.634 77.0476 351.765 76.1316 350.983 75.9723C350.201 75.813 347.753 85.3235 347.753 85.3235C347.117 84.2422 346.261 83.306 345.24 82.5755C342.72 80.847 338.532 82.5755 338.333 83.7543C338.134 84.9332 339.625 85.2677 339.625 85.2677C342.776 83.2446 346.006 85.6979 345.671 88.7007C345.336 91.7036 341.539 91.2815 341.061 89.1468C340.024 84.4553 338.405 85.9607 338.405 85.9607L340 96.3155L338.285 101.517" fill="#FFBE9D"/>
<path d="M232.547 150.527L304.211 150.049L306.181 198.708L231.973 197.976L232.547 150.527Z" fill="#455A64"/>
<path d="M232.547 150.527L268.949 121.151L304.211 150.049" fill="#263238"/>
<path d="M231.974 197.976C231.886 197.896 237.629 191.603 244.799 184.013C251.969 176.422 257.856 170.273 257.943 170.352C258.031 170.432 252.289 176.724 245.118 184.315C237.948 191.906 232.101 198.063 231.974 197.976Z" fill="#263238"/>
<path d="M306.181 198.708C306.086 198.788 300.502 192.655 293.707 185.016C286.911 177.378 281.48 171.101 281.551 171.021C281.623 170.942 287.23 177.075 294.026 184.722C300.822 192.368 306.277 198.629 306.181 198.708Z" fill="#263238"/>
<path d="M304.211 150.049L268.208 178.74L232.547 150.527" fill="#263238"/>
<path d="M184.658 95.6942H184.897L183.932 92.5081L180.861 80.2735C180.728 79.7292 180.802 79.1549 181.069 78.6619C181.336 78.169 181.776 77.7924 182.305 77.6052L184.514 77.5335L192.084 73.9969C192.412 73.8748 192.764 73.8264 193.114 73.8551C193.463 73.8837 193.802 73.9888 194.107 74.1628C194.411 74.3369 194.673 74.5756 194.875 74.8621C195.077 75.1487 195.213 75.476 195.274 75.821C195.553 78.0751 197.085 84.1128 198.712 82.002L198.831 81.8586C201.12 78.7123 203.976 77.0078 205.148 77.0795C205.401 77.1005 205.643 77.1941 205.844 77.3491C206.044 77.504 206.196 77.7136 206.28 77.9527C206.365 78.1917 206.378 78.4501 206.319 78.6965C206.259 78.9429 206.13 79.1669 205.946 79.3416C205.829 79.4942 205.683 79.6216 205.515 79.716C205.443 79.716 205.348 79.8275 205.268 79.8832C204.275 80.7737 203.377 81.7639 202.588 82.8383C201.848 83.7935 201.284 84.8722 200.921 86.0244C200.514 87.2988 200.211 88.414 199.988 89.3539L200.578 95.5986" fill="#FFBE9D"/>
<path d="M204.848 40.2642C204.848 40.2642 196.01 38.5756 183.313 27.0499C170.615 15.5242 164.306 -0.0876231 162.83 -5.57676e-06C161.355 0.0876119 154.615 -2.75597 142.826 24.9152C131.038 52.5864 136.158 58.7754 138.663 58.6559C141.167 58.5364 158.013 53.3272 168.653 54.2272C179.293 55.1273 193.091 60.2729 193.091 60.2729L204.848 40.2642Z" fill="#455A64"/>
<path d="M223.941 54.6255L221.109 60.4003L219.833 62.989C218.996 64.6926 217.538 66.0117 215.758 66.6754C213.978 67.339 212.011 67.2968 210.262 66.5574L191.207 60.5357L201.464 35.2142L220.607 44.6929C222.362 45.5749 223.697 47.1135 224.321 48.9738C224.945 50.8341 224.809 52.8654 223.941 54.6255Z" fill="#263238"/>
<path d="M213.341 64.0484L207.671 75.9962L204.648 75.2475L185.505 91.7275L179.723 81.1736C179.723 81.1736 191.152 75.8289 193.178 71.687C195.204 67.5451 192.708 66.6371 192.708 66.6371L197.98 60.2649L213.341 64.0484Z" fill="#263238"/>
<path d="M143.854 25.4091C137.585 40.3917 135.169 53.6538 138.471 55.0317C141.773 56.4097 149.517 45.4018 155.786 30.3953C162.056 15.3888 164.472 2.15062 161.178 0.796529C157.884 -0.557559 150.124 10.4265 143.854 25.4091Z" fill="#263238"/>
<path d="M225.793 62.8058L220.641 61.3481L223.632 55.2627L227.532 57.5248L225.793 62.8058Z" fill="#455A64"/>
<path d="M196.168 62.4235L210.142 70.779L211.753 67.3778L196.168 62.4235Z" fill="#455A64"/>
<path d="M223.632 55.2627L220.641 61.3481L221.701 61.6508L224.102 55.5335L223.632 55.2627Z" fill="#455A64"/>
<path d="M220.135 56.7443C220.063 56.9115 217.487 55.9955 214.384 54.6972C211.282 53.3989 208.801 52.2121 208.881 52.0448C208.961 51.8775 211.529 52.7935 214.631 54.0919C217.734 55.3902 220.223 56.5531 220.135 56.7443Z" fill="#455A64"/>
<path d="M221.62 53.1281C221.548 53.2874 219.227 52.3873 216.412 51.1049C213.596 49.8225 211.395 48.6516 211.467 48.4843C211.538 48.3171 213.859 49.2251 216.683 50.5075C219.506 51.7899 221.732 52.9608 221.62 53.1281Z" fill="#455A64"/>
<path d="M218.278 60.5357C218.278 60.6233 217.64 60.5357 216.683 60.2331C216.196 60.0976 215.614 59.9224 214.976 59.7233C214.338 59.5242 213.676 59.2055 212.966 58.9268C210.142 57.716 207.973 56.5372 208.037 56.354C208.1 56.1708 210.429 57.1505 213.229 58.3294C213.931 58.6241 214.585 58.9507 215.199 59.1816C215.813 59.4126 216.363 59.6277 216.794 59.8189C217.743 60.1773 218.302 60.4561 218.278 60.5357Z" fill="#455A64"/>
<path d="M157.398 21.7371C157.398 21.7371 149.63 17.2208 145.737 27.6473C141.845 38.0738 149.949 39.5394 149.949 39.5394C153.257 33.9842 155.765 27.9912 157.398 21.7371Z" fill="#455A64"/>
<path d="M165.172 9.22375C165.148 9.88814 165.065 10.5491 164.925 11.1991C164.726 12.4656 164.431 14.3056 164.008 16.5597C163.713 17.6749 163.394 18.8935 163.059 20.1998C162.883 20.853 162.7 21.53 162.516 22.223C162.429 22.5735 162.333 22.9239 162.237 23.2824C162.142 23.6408 161.99 23.9913 161.87 24.3497L160.275 28.8421C160.132 29.2324 159.988 29.6386 159.852 30.021C159.717 30.4033 159.51 30.8175 159.342 31.1918C158.991 31.9884 158.64 32.7849 158.273 33.5814L157.204 35.971C157.021 36.3533 156.869 36.7675 156.662 37.118C156.455 37.4684 156.255 37.8508 156.056 38.2172L153.735 42.3909C153.551 42.7175 153.376 43.0521 153.185 43.3707L152.57 44.2787L151.406 46.0231L149.3 49.1534C147.888 50.9615 146.708 52.3873 145.894 53.375C145.494 53.9112 145.048 54.4121 144.562 54.8725C144.89 54.2922 145.266 53.7406 145.687 53.2237L148.933 48.8667L150.951 45.7204L152.084 43.976L152.674 43.06C152.866 42.7494 153.033 42.4148 153.216 42.0803C153.942 40.7581 154.7 39.3642 155.482 37.9225L156.08 36.8312C156.287 36.4648 156.439 36.0347 156.614 35.6842C156.965 34.8877 157.324 34.0912 157.675 33.2947C158.026 32.4981 158.393 31.7016 158.744 30.9051C158.911 30.5148 159.111 30.1086 159.246 29.7501C159.382 29.3917 159.533 28.9536 159.669 28.5793L161.264 24.1267C161.392 23.7762 161.535 23.4257 161.639 23.0753C161.743 22.7248 161.839 22.3743 161.934 22.0239C162.126 21.3389 162.317 20.6698 162.501 20.0246C162.867 18.7342 163.21 17.5315 163.521 16.4243L164.678 11.1513C164.783 10.495 164.949 9.84974 165.172 9.22375Z" fill="#263238"/>
<path d="M211.098 123.071L203.194 93.0657L183.445 93.5914L189.595 135.465C190.392 144.577 195.744 150.543 204.789 151.984C210.213 152.853 216.083 147.691 220.438 144.354C223.277 142.171 223.788 142.609 226.723 139.941L239.485 130.749L239.796 132.263H239.716L241.877 157.847L268.246 178.556L299.695 153.394L298.978 142.506C299.049 142.506 299.129 142.347 298.978 142.355L298.18 130.016L314.252 148.44C316.145 151.201 318.757 153.394 321.807 154.78C324.856 156.167 328.227 156.695 331.556 156.308C334.884 155.921 338.043 154.634 340.692 152.584C343.341 150.535 345.379 147.802 346.586 144.68L354.889 102.465L336.672 98.5537L328.138 128.949L307.743 105.619C296.011 90.3496 282.348 91.6399 282.348 91.6399L257.08 91.1859H257.024C256.274 91.2257 242.157 91.6479 232.585 101.859L211.098 123.071Z" fill="#FF7500"/>
<path d="M308.775 107.284C308.775 107.284 308.504 107.156 307.977 106.989C307.188 106.747 306.359 106.66 305.536 106.734C304.239 106.874 302.976 107.238 301.804 107.809C300.408 108.423 298.964 109.402 297.273 110.374C295.477 111.553 293.391 112.214 291.243 112.286C290.047 112.223 288.87 111.953 287.766 111.489C286.625 111.043 285.509 110.494 284.328 110.024C281.865 109.033 279.166 108.779 276.56 109.291C273.848 109.809 271.359 111.33 268.815 112.803C267.556 113.557 266.241 114.215 264.883 114.771C260.974 116.281 256.636 116.247 252.751 114.675C250.523 113.689 248.421 112.44 246.49 110.956C244.648 109.617 242.957 108.351 241.29 107.387C239.793 106.514 238.183 105.851 236.504 105.42C235.238 105.104 233.929 104.996 232.628 105.101C231.521 105.221 230.442 105.528 229.438 106.009C229.496 105.962 229.561 105.922 229.629 105.89C229.757 105.826 229.948 105.714 230.203 105.595C230.965 105.263 231.771 105.043 232.596 104.942C233.917 104.804 235.252 104.891 236.544 105.197C238.248 105.613 239.886 106.265 241.409 107.132C243.108 108.096 244.823 109.355 246.666 110.669C248.582 112.129 250.665 113.356 252.871 114.325C255.338 115.306 258.008 115.667 260.648 115.376C262.04 115.229 263.405 114.894 264.707 114.381C266.046 113.832 267.341 113.185 268.584 112.445C271.12 110.979 273.656 109.426 276.456 108.893C279.136 108.375 281.908 108.652 284.432 109.689C286.825 110.653 288.954 111.895 291.212 111.967C293.301 111.909 295.335 111.278 297.09 110.143C298.773 109.203 300.24 108.223 301.668 107.618C302.867 107.048 304.158 106.694 305.481 106.575C306.319 106.511 307.162 106.625 307.953 106.909C308.241 107 308.517 107.126 308.775 107.284Z" fill="#FAFAFA"/>
<path d="M323.426 122.234C323.333 122.621 323.188 122.993 322.995 123.342C322.447 124.355 321.661 125.221 320.706 125.867C319.196 126.892 317.446 127.51 315.626 127.659C313.228 127.813 310.822 127.709 308.447 127.348C305.839 127.077 302.864 126.759 299.929 127.73C298.435 128.29 297.018 129.034 295.709 129.945C294.303 130.927 292.817 131.79 291.267 132.525C287.858 134.016 284.084 134.465 280.419 133.816C278.484 133.479 276.617 132.828 274.892 131.888C273.145 130.948 271.51 129.777 269.819 128.702C268.193 127.577 266.415 126.686 264.539 126.058C262.697 125.531 260.762 125.408 258.868 125.699C255.12 126.249 251.69 127.754 248.324 128.67C246.675 129.165 244.971 129.451 243.251 129.523C241.619 129.58 239.991 129.31 238.466 128.726C235.523 127.515 233.361 125.452 231.431 123.66C229.765 121.969 227.926 120.458 225.943 119.152C224.43 118.193 222.711 117.606 220.926 117.439C219.799 117.337 218.664 117.472 217.593 117.838C216.867 118.108 216.516 118.339 216.508 118.315C216.835 118.089 217.188 117.905 217.561 117.766C218.636 117.359 219.788 117.193 220.934 117.28C222.754 117.419 224.513 117.992 226.063 118.953C228.08 120.246 229.952 121.752 231.646 123.445C233.584 125.221 235.746 127.244 238.609 128.407C240.092 128.985 241.677 129.256 243.267 129.204C244.961 129.131 246.639 128.845 248.26 128.352C249.935 127.874 251.626 127.284 253.373 126.719C255.153 126.105 256.984 125.646 258.844 125.349C260.796 125.043 262.791 125.165 264.691 125.707C266.604 126.348 268.417 127.257 270.075 128.407C271.773 129.507 273.401 130.662 275.123 131.594C276.808 132.514 278.632 133.155 280.523 133.489C284.109 134.103 287.797 133.646 291.123 132.175C294.314 130.789 296.794 128.391 299.841 127.396C301.293 126.94 302.81 126.722 304.331 126.751C305.724 126.768 307.114 126.867 308.495 127.045C310.841 127.422 313.221 127.548 315.594 127.42C317.382 127.296 319.108 126.712 320.603 125.723C321.547 125.115 322.339 124.297 322.916 123.334C323.298 122.664 323.402 122.218 323.426 122.234Z" fill="#FAFAFA"/>
<path d="M346.468 142.506C346.14 142.161 345.77 141.859 345.367 141.606C344.224 140.981 342.895 140.784 341.619 141.048C339.744 141.529 338.013 142.452 336.57 143.74C335.709 144.41 334.807 145.15 333.786 145.811C332.741 146.528 331.565 147.034 330.325 147.301C329.075 147.516 327.796 147.481 326.56 147.197C325.427 146.943 324.311 146.618 323.218 146.226C322.173 145.867 321.192 145.509 320.251 145.262C319.381 145.034 318.492 144.885 317.595 144.816C316.298 144.683 314.989 144.891 313.798 145.421C313.378 145.648 312.971 145.898 312.578 146.17C312.578 146.17 312.658 146.066 312.833 145.899C312.944 145.793 313.064 145.697 313.192 145.612C313.36 145.485 313.539 145.373 313.727 145.278C314.927 144.672 316.271 144.41 317.611 144.521C318.528 144.571 319.439 144.707 320.331 144.927C321.296 145.166 322.293 145.517 323.338 145.859C325.404 146.528 327.78 147.349 330.245 146.887C331.433 146.636 332.561 146.154 333.563 145.469C334.56 144.824 335.461 144.099 336.339 143.438C337.837 142.129 339.633 141.208 341.571 140.753C342.91 140.512 344.291 140.767 345.455 141.47C345.755 141.668 346.024 141.91 346.253 142.187C346.412 142.394 346.484 142.498 346.468 142.506Z" fill="#FAFAFA"/>
<path d="M350.474 119.614C350.278 119.804 350.044 119.951 349.788 120.044C349.114 120.352 348.39 120.535 347.65 120.586C346.554 120.659 345.453 120.559 344.388 120.291C343.103 119.951 341.841 119.533 340.607 119.04C339.393 118.55 338.135 118.174 336.851 117.917C335.795 117.73 334.715 117.73 333.66 117.917C332.701 118.119 331.792 118.512 330.988 119.072C331.146 118.851 331.347 118.664 331.578 118.523C332.187 118.093 332.876 117.79 333.604 117.63C334.683 117.403 335.795 117.379 336.883 117.559C338.196 117.795 339.482 118.166 340.719 118.666C341.937 119.156 343.18 119.582 344.444 119.94C345.471 120.213 346.532 120.336 347.594 120.307C348.588 120.249 349.563 120.014 350.474 119.614Z" fill="#FAFAFA"/>
<path d="M297.592 149.746C296.912 149.392 296.214 149.073 295.502 148.79C293.522 148.125 291.419 147.908 289.345 148.153C286.279 148.564 283.31 149.507 280.571 150.941C277.381 152.431 274.055 154.422 270.162 155.72C268.269 156.356 266.289 156.698 264.292 156.732C262.43 156.702 260.585 156.385 258.82 155.792C257.238 155.259 255.686 154.643 254.17 153.944C252.735 153.315 251.419 152.701 250.182 152.223C248.265 151.391 246.232 150.854 244.153 150.63C243.786 150.63 243.459 150.583 243.172 150.575H242.454C242.255 150.594 242.054 150.594 241.855 150.575C242.049 150.529 242.247 150.503 242.446 150.495L243.172 150.431H244.161C246.27 150.59 248.341 151.085 250.294 151.897C251.538 152.359 252.87 152.956 254.282 153.57C255.792 154.248 257.336 154.849 258.908 155.37C260.635 155.942 262.44 156.245 264.26 156.27C266.217 156.229 268.156 155.891 270.011 155.266C273.847 154.032 277.189 152.08 280.38 150.575C283.167 149.132 286.194 148.207 289.313 147.843C291.425 147.624 293.56 147.897 295.55 148.639C296.28 148.908 296.968 149.281 297.592 149.746Z" fill="#FAFAFA"/>
<path d="M188.656 129.363C188.771 129.281 188.901 129.221 189.039 129.188C189.436 129.082 189.856 129.099 190.243 129.236C190.869 129.436 191.423 129.812 191.839 130.319C192.339 130.996 192.764 131.725 193.107 132.494C193.532 133.384 194.132 134.18 194.87 134.835C195.736 135.569 196.739 136.124 197.821 136.468C200.345 137.201 203.007 137.326 205.589 136.835C208.198 136.332 210.84 136.015 213.494 135.887C215.704 135.834 217.88 136.439 219.747 137.623C221.024 138.397 222.023 139.554 222.602 140.929C222.815 141.433 222.926 141.974 222.929 142.522C222.799 142.011 222.639 141.508 222.451 141.016C221.837 139.708 220.838 138.619 219.587 137.894C217.753 136.786 215.636 136.232 213.494 136.301C210.858 136.446 208.235 136.773 205.645 137.281C202.991 137.787 200.254 137.642 197.669 136.859C196.543 136.493 195.501 135.905 194.606 135.13C193.847 134.433 193.237 133.591 192.812 132.653C192.494 131.897 192.098 131.176 191.631 130.502C191.254 130.021 190.756 129.647 190.188 129.419C189.698 129.228 189.158 129.209 188.656 129.363Z" fill="#FAFAFA"/>
<path d="M205.955 105.029C205.133 104.372 204.19 103.883 203.18 103.588C202.076 103.303 200.929 103.23 199.798 103.373C198.42 103.564 197.077 103.953 195.81 104.528C194.43 105.117 193.162 105.786 191.989 106.368C190.955 106.894 189.89 107.357 188.799 107.754C188.056 108.018 187.289 108.212 186.51 108.335C186.227 108.398 185.937 108.416 185.648 108.391C186.681 108.145 187.698 107.839 188.695 107.475C189.765 107.047 190.811 106.563 191.83 106.025C192.986 105.428 194.223 104.743 195.65 104.145C196.964 103.554 198.36 103.164 199.79 102.99C200.967 102.86 202.158 102.968 203.291 103.309C204.055 103.538 204.767 103.911 205.389 104.408C205.615 104.578 205.807 104.789 205.955 105.029Z" fill="#FAFAFA"/>
<g opacity="0.3">
<path d="M263.711 175.012C273.952 169.078 285.804 162.124 291.715 151.913C295.495 145.365 297.37 137.536 298.095 130.008L299.643 153.386L268.193 178.549L263.711 175.012Z" fill="black"/>
</g>
<g opacity="0.2">
<path d="M237.174 97.6776C234.906 106.52 230.002 114.467 223.113 120.466C221.476 122.009 219.556 123.221 217.458 124.034C216.406 124.436 215.28 124.606 214.157 124.533C213.034 124.46 211.94 124.146 210.949 123.612L211.101 123.071L227.053 107.315L237.174 97.6776Z" fill="black"/>
</g>
<path d="M213.133 135.608C213.061 135.608 213.324 134.891 213.54 133.72C214.102 130.66 213.577 127.499 212.056 124.783C211.482 123.748 211.011 123.19 211.067 123.126C211.569 123.55 211.99 124.06 212.311 124.632C213.156 125.982 213.725 127.486 213.985 129.057C214.246 130.627 214.192 132.234 213.827 133.784C213.706 134.428 213.471 135.046 213.133 135.608Z" fill="#263238"/>
<path d="M208.562 131.594C209.376 130.414 210.015 129.124 210.461 127.762C210.778 126.363 210.897 124.925 210.812 123.493C211.012 123.883 211.122 124.313 211.131 124.751C211.236 125.797 211.144 126.854 210.86 127.866C210.583 128.885 210.115 129.842 209.48 130.685C208.969 131.323 208.594 131.633 208.562 131.594Z" fill="#263238"/>
<path d="M238.234 115.129C238.346 115.129 239.032 121.502 239.694 129.307C240.356 137.113 240.858 143.517 240.747 143.525C240.635 143.533 239.949 137.193 239.287 129.347C238.625 121.502 238.123 115.137 238.234 115.129Z" fill="#263238"/>
<path d="M280.818 90.7239C280.892 90.8597 280.948 91.0042 280.986 91.154C281.135 91.572 281.253 92.0007 281.337 92.4364C281.641 94.0446 281.614 95.6978 281.257 97.2952C280.737 99.6889 279.529 101.879 277.78 103.596C275.558 105.639 272.667 106.803 269.648 106.869C266.629 106.935 263.689 105.898 261.381 103.954C259.56 102.315 258.257 100.18 257.632 97.8129C257.211 96.229 257.114 94.5766 257.345 92.9541C257.41 92.5178 257.506 92.0866 257.632 91.6638C257.671 91.5141 257.722 91.3676 257.784 91.2257C257.84 91.2257 257.632 91.847 257.505 92.978C257.336 94.5829 257.477 96.2052 257.919 97.7572C258.567 100.049 259.856 102.107 261.636 103.691C263.881 105.554 266.724 106.544 269.642 106.48C272.56 106.416 275.356 105.301 277.516 103.341C279.23 101.685 280.431 99.5728 280.978 97.2554C281.347 95.6893 281.415 94.0675 281.177 92.4762C281.002 91.3372 280.755 90.7398 280.818 90.7239Z" fill="#263238"/>
<path d="M327.151 138.714C326.908 137.058 326.865 135.379 327.023 133.712C327.052 132.039 327.285 130.375 327.717 128.758C327.837 128.758 327.59 130.996 327.438 133.736C327.287 136.476 327.271 138.706 327.151 138.714Z" fill="#263238"/>
<path d="M330.357 140.188C330.056 139.691 329.826 139.155 329.671 138.595C329.221 137.251 328.85 135.881 328.562 134.493C328.272 133.105 328.07 131.7 327.956 130.287C327.879 129.703 327.879 129.111 327.956 128.527C328.083 128.527 328.323 131.187 328.993 134.413C329.663 137.639 330.476 140.116 330.357 140.188Z" fill="#263238"/>
<path d="M298.103 140.618C297.991 140.618 297.728 136.134 297.52 130.598C297.313 125.062 297.233 120.562 297.353 120.554C297.472 120.546 297.728 125.038 297.935 130.582C298.142 136.126 298.214 140.61 298.103 140.618Z" fill="#263238"/>
<path d="M269.518 105.619C266.633 105.568 263.877 104.418 261.815 102.404C259.752 100.39 258.539 97.6648 258.423 94.7862C258.239 90.4212 258.088 86.4147 258.088 86.4147C258.088 86.4147 248.939 85.443 248.389 76.3865C247.839 67.33 248.389 46.4293 248.389 46.4293C253.444 43.9644 259.065 42.8914 264.674 43.3213C270.282 43.7512 275.674 45.6683 280.293 48.8746L281.689 49.8464L281.027 94.4915C281.006 95.9778 280.692 97.4454 280.101 98.81C279.511 100.175 278.657 101.409 277.587 102.443C276.518 103.477 275.254 104.29 273.87 104.835C272.485 105.38 271.006 105.646 269.518 105.619Z" fill="#FFBE9D"/>
<path d="M258.07 86.2952C262.268 86.172 266.333 84.8021 269.747 82.3604C269.747 82.3604 267.267 89.0193 258.166 88.645L258.07 86.2952Z" fill="#EB996E"/>
<path d="M281.031 59.3011C281.183 59.2214 287.181 57.1505 287.284 63.3633C287.388 69.5762 281.119 68.3894 281.111 68.2142C281.103 68.0389 281.031 59.3011 281.031 59.3011Z" fill="#FFBE9D"/>
<path d="M282.971 65.8326C282.971 65.8326 283.083 65.9042 283.266 65.9839C283.522 66.0875 283.808 66.0875 284.064 65.9839C284.718 65.729 285.252 64.6776 285.268 63.5943C285.277 63.0613 285.165 62.5331 284.941 62.0491C284.879 61.8639 284.774 61.6956 284.636 61.5574C284.498 61.4192 284.329 61.3149 284.144 61.2526C284.018 61.2208 283.885 61.2346 283.768 61.2914C283.651 61.3483 283.558 61.4445 283.506 61.5632C283.426 61.7384 283.466 61.8579 283.434 61.8738C283.402 61.8898 283.298 61.7703 283.346 61.5154C283.379 61.3598 283.464 61.2197 283.585 61.1172C283.757 60.989 283.97 60.9294 284.184 60.9499C284.439 60.9962 284.679 61.1079 284.879 61.274C285.079 61.44 285.232 61.6549 285.324 61.8977C285.6 62.429 285.739 63.02 285.731 63.6182C285.731 64.8688 285.093 66.0556 284.2 66.3264C284.02 66.377 283.83 66.3838 283.647 66.3464C283.464 66.309 283.292 66.2284 283.147 66.1113C282.987 65.9839 282.947 65.8405 282.971 65.8326Z" fill="#EB996E"/>
<path d="M252.742 60.1454C252.74 60.4838 252.869 60.8099 253.103 61.055C253.336 61.3002 253.656 61.4453 253.994 61.4597C254.16 61.4727 254.326 61.4525 254.484 61.4004C254.641 61.3482 254.787 61.2652 254.911 61.1561C255.036 61.047 255.138 60.914 255.211 60.7651C255.283 60.6162 255.325 60.4542 255.334 60.2888C255.339 59.9506 255.21 59.6242 254.976 59.3799C254.742 59.1356 254.421 58.9929 254.082 58.9825C253.917 58.9695 253.752 58.9894 253.595 59.041C253.438 59.0927 253.293 59.1751 253.168 59.2833C253.043 59.3916 252.941 59.5236 252.868 59.6716C252.795 59.8196 252.752 59.9807 252.742 60.1454Z" fill="#263238"/>
<path d="M251.164 58.855C251.332 59.0223 252.313 58.2895 253.709 58.2975C255.105 58.3054 256.102 58.9984 256.277 58.8311C256.452 58.6639 256.189 58.4488 255.743 58.1222C255.139 57.7025 254.42 57.4799 253.685 57.485C252.96 57.4838 252.253 57.7125 251.667 58.1382C251.244 58.4727 251.085 58.7754 251.164 58.855Z" fill="#263238"/>
<path d="M266.156 60.3047C266.152 60.6437 266.28 60.9709 266.514 61.2165C266.748 61.4621 267.069 61.6065 267.409 61.619C267.573 61.6308 267.739 61.6098 267.895 61.5572C268.052 61.5046 268.196 61.4213 268.32 61.3123C268.444 61.2033 268.545 61.0708 268.617 60.9224C268.69 60.774 268.731 60.6128 268.741 60.4481C268.745 60.1112 268.617 59.786 268.385 59.5419C268.152 59.2978 267.833 59.1542 267.496 59.1418C267.331 59.1277 267.165 59.1468 267.008 59.198C266.85 59.2492 266.705 59.3315 266.58 59.44C266.455 59.5485 266.353 59.6809 266.28 59.8294C266.207 59.978 266.165 60.1396 266.156 60.3047Z" fill="#263238"/>
<path d="M264.898 59.1099C265.057 59.2772 266.038 58.5524 267.434 58.5603C268.83 58.5683 269.827 59.2613 270.011 59.086C270.194 58.9108 269.923 58.7037 269.476 58.3851C268.869 57.9657 268.148 57.7432 267.41 57.7479C266.686 57.7477 265.979 57.9763 265.392 58.401C264.962 58.7276 264.802 59.0382 264.898 59.1099Z" fill="#263238"/>
<path d="M259.823 69.4567C259.089 69.2253 258.328 69.0888 257.558 69.0505C257.199 69.0505 256.864 68.939 256.8 68.7C256.771 68.3309 256.855 67.9615 257.04 67.6407L258.093 64.9245C259.56 61.0693 260.621 57.8912 260.485 57.8355C260.35 57.7797 259.018 60.8622 257.55 64.7174L256.545 67.4495C256.321 67.8807 256.254 68.376 256.354 68.8514C256.407 68.9766 256.487 69.0882 256.589 69.1778C256.692 69.2675 256.813 69.3329 256.944 69.3691C257.141 69.4234 257.345 69.4502 257.55 69.4488C258.305 69.547 259.068 69.5497 259.823 69.4567Z" fill="#263238"/>
<path d="M263.94 70.4205C263.708 70.4205 263.708 71.918 262.408 72.9933C261.108 74.0686 259.497 73.9013 259.481 74.1164C259.465 74.3315 259.848 74.4111 260.526 74.427C261.413 74.4405 262.277 74.1416 262.966 73.5827C263.626 73.0408 264.05 72.2639 264.147 71.4162C264.211 70.7869 264.043 70.4126 263.94 70.4205Z" fill="#263238"/>
<path d="M264.53 53.6458C264.673 54.0281 266.069 53.8449 267.72 54.044C269.371 54.2432 270.687 54.6892 270.91 54.3467C271.006 54.1794 270.775 53.829 270.24 53.4546C269.526 53.0061 268.72 52.7252 267.881 52.6327C267.042 52.5403 266.194 52.6388 265.399 52.9209C264.801 53.1679 264.474 53.4626 264.53 53.6458Z" fill="#263238"/>
<path d="M251.681 54.8167C251.929 55.1273 252.886 54.8167 254.074 54.8167C255.263 54.8167 256.212 55.0317 256.467 54.6972C256.571 54.5379 256.411 54.2193 255.988 53.9007C255.419 53.529 254.746 53.3451 254.066 53.375C253.386 53.3927 252.728 53.6148 252.176 54.0122C251.705 54.3308 251.57 54.6574 251.681 54.8167Z" fill="#263238"/>
<path d="M243.77 40.4474C243.702 39.8819 243.78 39.3083 243.996 38.7813C244.212 38.2543 244.56 37.7913 245.006 37.4365C245.465 37.1037 246.027 36.9442 246.592 36.9865C247.158 37.0288 247.689 37.2701 248.093 37.6675C248.007 37.2874 248.001 36.8934 248.077 36.5111C248.154 36.1288 248.31 35.7668 248.536 35.4488C248.761 35.1309 249.052 34.8641 249.388 34.6658C249.724 34.4675 250.098 34.3423 250.486 34.2982C251.969 34.2106 253.23 35.3257 254.665 35.716C256.095 36.0172 257.584 35.8467 258.909 35.2302C260.257 34.6885 261.509 33.9398 262.897 33.446C265.773 32.3953 268.949 32.5214 271.733 33.7967C274.517 35.072 276.685 37.3935 277.764 40.2562C278.779 40.0077 279.845 40.0726 280.822 40.4424C281.799 40.8122 282.641 41.4694 283.235 42.3272C284.393 44.0838 284.853 46.2078 284.528 48.2852C284.337 49.6766 283.989 51.042 283.491 52.3554C283.491 52.4749 283.491 52.5864 283.491 52.7059C283.395 57.6921 282.837 63.5545 280.699 63.5864C276.982 63.6501 277.868 56.6566 277.868 56.6566C273.305 54.8963 275.012 48.0701 273.88 47.0346C272.747 45.9992 270.346 43.5937 260.799 48.4684C257.09 50.3641 252.161 50.3004 249.473 49.695L249.234 49.6472H249.178H249.098C248.222 49.4239 247.385 49.0666 246.618 48.5878C245.726 48.0723 245.02 47.2891 244.6 46.3496C244.4 45.8765 244.343 45.3558 244.435 44.8508C244.528 44.3459 244.765 43.8787 245.118 43.506C244.379 42.6402 243.91 41.5767 243.77 40.4474Z" fill="#263238"/>
</g>
<defs>
<clipPath id="clip0_705_2197">
<rect width="529" height="328" fill="white"/>
</clipPath>
</defs>
</svg>
