<svg width="60" height="20" viewBox="0 0 60 20" fill="none" xmlns="http://www.w3.org/2000/svg">
<rect x="0.75" y="0.41394" width="58.4414" height="19.2043" rx="5.64833" fill="#16191C"/>
<path d="M11.9554 14.108C11.3154 14.108 10.7634 13.996 10.2994 13.772C9.83536 13.54 9.47136 13.22 9.20736 12.812C8.95136 12.396 8.81536 11.916 8.79936 11.372H10.5874C10.5954 11.612 10.6554 11.824 10.7674 12.008C10.8874 12.184 11.0474 12.324 11.2474 12.428C11.4554 12.524 11.6954 12.572 11.9674 12.572C12.4154 12.572 12.7634 12.44 13.0114 12.176C13.2674 11.904 13.3954 11.556 13.3954 11.132C13.3954 10.836 13.3354 10.576 13.2154 10.352C13.1034 10.128 12.9394 9.956 12.7234 9.836C12.5074 9.708 12.2514 9.644 11.9554 9.644C11.6114 9.644 11.3274 9.724 11.1034 9.884C10.8874 10.036 10.7354 10.232 10.6474 10.472H8.96736L9.19536 5.348H14.6674V6.884H10.7554L10.6714 8.696L10.7434 8.72C10.9114 8.552 11.1394 8.42 11.4274 8.324C11.7154 8.228 12.0194 8.18 12.3394 8.18C12.7794 8.18 13.1714 8.252 13.5154 8.396C13.8674 8.532 14.1674 8.732 14.4154 8.996C14.6634 9.252 14.8514 9.56 14.9794 9.92C15.1154 10.272 15.1834 10.66 15.1834 11.084C15.1834 11.684 15.0514 12.212 14.7874 12.668C14.5314 13.124 14.1594 13.48 13.6714 13.736C13.1914 13.984 12.6194 14.108 11.9554 14.108ZM19.6778 14.084C19.1658 14.084 18.7058 13.984 18.2978 13.784C17.8978 13.576 17.5538 13.28 17.2658 12.896C16.9858 12.504 16.7698 12.036 16.6178 11.492C16.4738 10.948 16.4018 10.332 16.4018 9.644C16.4018 8.932 16.4778 8.304 16.6298 7.76C16.7898 7.216 17.0138 6.756 17.3018 6.38C17.5978 6.004 17.9498 5.72 18.3578 5.528C18.7658 5.336 19.2178 5.24 19.7138 5.24C20.2258 5.24 20.6818 5.344 21.0818 5.552C21.4818 5.752 21.8218 6.044 22.1018 6.428C22.3898 6.812 22.6058 7.276 22.7498 7.82C22.8938 8.364 22.9658 8.98 22.9658 9.668C22.9658 10.372 22.8858 11 22.7258 11.552C22.5738 12.104 22.3498 12.568 22.0538 12.944C21.7658 13.32 21.4218 13.604 21.0218 13.796C20.6218 13.988 20.1738 14.084 19.6778 14.084ZM19.6898 12.596C19.9138 12.596 20.1178 12.552 20.3018 12.464C20.4858 12.368 20.6458 12.208 20.7818 11.984C20.9178 11.76 21.0218 11.46 21.0938 11.084C21.1738 10.7 21.2138 10.224 21.2138 9.656C21.2138 9.088 21.1738 8.616 21.0938 8.24C21.0218 7.856 20.9178 7.556 20.7818 7.34C20.6458 7.116 20.4858 6.96 20.3018 6.872C20.1178 6.776 19.9138 6.728 19.6898 6.728C19.4658 6.728 19.2578 6.776 19.0658 6.872C18.8818 6.96 18.7218 7.116 18.5858 7.34C18.4498 7.556 18.3458 7.852 18.2738 8.228C18.2018 8.604 18.1658 9.08 18.1658 9.656C18.1658 10.224 18.2018 10.7 18.2738 11.084C18.3458 11.46 18.4498 11.76 18.5858 11.984C18.7218 12.208 18.8818 12.368 19.0658 12.464C19.2578 12.552 19.4658 12.596 19.6898 12.596ZM25.4964 14L31.0524 5.252H32.2644L26.6964 14H25.4964ZM26.0004 9.92C25.6084 9.92 25.2764 9.824 25.0044 9.632C24.7324 9.44 24.5244 9.168 24.3804 8.816C24.2364 8.464 24.1644 8.056 24.1644 7.592C24.1644 7.104 24.2404 6.692 24.3924 6.356C24.5524 6.012 24.7724 5.748 25.0524 5.564C25.3324 5.38 25.6564 5.288 26.0244 5.288C26.4164 5.288 26.7444 5.384 27.0084 5.576C27.2804 5.768 27.4884 6.04 27.6324 6.392C27.7764 6.744 27.8484 7.152 27.8484 7.616C27.8484 8.104 27.7684 8.52 27.6084 8.864C27.4564 9.208 27.2404 9.472 26.9604 9.656C26.6884 9.832 26.3684 9.92 26.0004 9.92ZM26.0004 8.936C26.1284 8.936 26.2404 8.908 26.3364 8.852C26.4404 8.788 26.5204 8.66 26.5764 8.468C26.6404 8.268 26.6724 7.98 26.6724 7.604C26.6724 7.228 26.6404 6.944 26.5764 6.752C26.5204 6.56 26.4404 6.436 26.3364 6.38C26.2404 6.316 26.1284 6.284 26.0004 6.284C25.8804 6.284 25.7684 6.316 25.6644 6.38C25.5684 6.436 25.4884 6.56 25.4244 6.752C25.3684 6.936 25.3404 7.22 25.3404 7.604C25.3404 7.892 25.3564 8.124 25.3884 8.3C25.4284 8.476 25.4764 8.612 25.5324 8.708C25.5964 8.796 25.6684 8.856 25.7484 8.888C25.8284 8.92 25.9124 8.936 26.0004 8.936ZM31.7364 14.048C31.3524 14.048 31.0244 13.952 30.7524 13.76C30.4804 13.56 30.2724 13.284 30.1284 12.932C29.9844 12.58 29.9124 12.172 29.9124 11.708C29.9124 11.22 29.9884 10.804 30.1404 10.46C30.3004 10.116 30.5204 9.856 30.8004 9.68C31.0804 9.496 31.4044 9.404 31.7724 9.404C32.1564 9.404 32.4844 9.5 32.7564 9.692C33.0284 9.884 33.2364 10.156 33.3804 10.508C33.5244 10.86 33.5964 11.268 33.5964 11.732C33.5964 12.22 33.5164 12.64 33.3564 12.992C33.2044 13.336 32.9884 13.6 32.7084 13.784C32.4364 13.96 32.1124 14.048 31.7364 14.048ZM31.7604 13.052C31.8804 13.052 31.9884 13.024 32.0844 12.968C32.1884 12.904 32.2684 12.776 32.3244 12.584C32.3884 12.392 32.4204 12.104 32.4204 11.72C32.4204 11.336 32.3884 11.052 32.3244 10.868C32.2684 10.676 32.1884 10.552 32.0844 10.496C31.9884 10.432 31.8804 10.4 31.7604 10.4C31.6404 10.4 31.5284 10.432 31.4244 10.496C31.3204 10.552 31.2364 10.676 31.1724 10.868C31.1164 11.052 31.0884 11.336 31.0884 11.72C31.0884 12.104 31.1164 12.392 31.1724 12.584C31.2364 12.776 31.3204 12.904 31.4244 12.968C31.5284 13.024 31.6404 13.052 31.7604 13.052ZM40.8557 14.108C40.3677 14.108 39.9277 14.036 39.5357 13.892C39.1437 13.74 38.8037 13.52 38.5157 13.232C38.2277 12.944 38.0077 12.596 37.8557 12.188C37.7037 11.772 37.6277 11.304 37.6277 10.784C37.6277 10.12 37.7557 9.54 38.0117 9.044C38.2677 8.54 38.6357 8.148 39.1157 7.868C39.5957 7.588 40.1757 7.448 40.8557 7.448C41.3357 7.448 41.7717 7.524 42.1637 7.676C42.5557 7.828 42.8917 8.048 43.1717 8.336C43.4597 8.624 43.6797 8.972 43.8317 9.38C43.9917 9.788 44.0717 10.256 44.0717 10.784C44.0717 11.44 43.9437 12.02 43.6877 12.524C43.4317 13.02 43.0637 13.408 42.5837 13.688C42.1117 13.968 41.5357 14.108 40.8557 14.108ZM40.8437 12.68C41.1317 12.68 41.3837 12.612 41.5997 12.476C41.8237 12.332 41.9917 12.12 42.1037 11.84C42.2237 11.56 42.2837 11.208 42.2837 10.784C42.2837 10.464 42.2517 10.188 42.1877 9.956C42.1237 9.716 42.0277 9.516 41.8997 9.356C41.7717 9.196 41.6197 9.08 41.4437 9.008C41.2677 8.928 41.0717 8.888 40.8557 8.888C40.5677 8.888 40.3117 8.956 40.0877 9.092C39.8717 9.228 39.7037 9.436 39.5837 9.716C39.4637 9.996 39.4037 10.352 39.4037 10.784C39.4037 11.104 39.4357 11.384 39.4997 11.624C39.5717 11.856 39.6717 12.052 39.7997 12.212C39.9277 12.364 40.0797 12.48 40.2557 12.56C40.4317 12.64 40.6277 12.68 40.8437 12.68ZM45.8977 14V8.984H44.8417V7.568H45.8977V6.884C45.8977 6.356 46.0617 5.952 46.3897 5.672C46.7257 5.392 47.1857 5.252 47.7697 5.252H49.0777V6.428H48.2857C48.0457 6.428 47.8817 6.48 47.7937 6.584C47.7057 6.68 47.6617 6.808 47.6617 6.968V7.568H49.7497V6.884C49.7497 6.356 49.9137 5.952 50.2417 5.672C50.5777 5.392 51.0417 5.252 51.6337 5.252H52.9297V6.428H52.1497C51.9017 6.428 51.7337 6.48 51.6457 6.584C51.5577 6.68 51.5137 6.808 51.5137 6.968V7.568H52.8217V8.984H51.5137V14H49.7497V8.984H47.6617V14H45.8977Z" fill="white"/>
</svg>
