<svg width="66" height="20" viewBox="0 0 66 20" fill="none" xmlns="http://www.w3.org/2000/svg">
<rect x="0.179688" y="0.41394" width="65.2194" height="19.2043" rx="5.64833" fill="#16191C"/>
<path d="M8.92088 14.108C8.53688 14.108 8.18488 14.04 7.86488 13.904C7.55288 13.768 7.28088 13.56 7.04888 13.28C6.82488 13 6.65288 12.652 6.53288 12.236C6.41288 11.82 6.35288 11.336 6.35288 10.784C6.35288 10.04 6.45688 9.424 6.66488 8.936C6.88088 8.44 7.18088 8.068 7.56488 7.82C7.95688 7.572 8.40888 7.448 8.92088 7.448C9.25688 7.448 9.55688 7.5 9.82088 7.604C10.0929 7.708 10.3249 7.852 10.5169 8.036C10.7169 8.22 10.8649 8.436 10.9609 8.684H11.0569V5.252H12.8209V14H11.1169L11.0569 12.872H10.9609C10.8169 13.248 10.5649 13.548 10.2049 13.772C9.84488 13.996 9.41688 14.108 8.92088 14.108ZM9.59288 12.68C9.92088 12.68 10.1889 12.604 10.3969 12.452C10.6129 12.3 10.7729 12.104 10.8769 11.864C10.9809 11.616 11.0329 11.356 11.0329 11.084V10.472C11.0329 10.264 11.0049 10.064 10.9489 9.872C10.8929 9.68 10.8049 9.512 10.6849 9.368C10.5649 9.216 10.4129 9.096 10.2289 9.008C10.0449 8.92 9.83288 8.876 9.59288 8.876C9.30488 8.876 9.05288 8.944 8.83688 9.08C8.62088 9.216 8.45288 9.424 8.33288 9.704C8.21288 9.984 8.15288 10.344 8.15288 10.784C8.15288 11.208 8.21288 11.564 8.33288 11.852C8.45288 12.132 8.62088 12.34 8.83688 12.476C9.05288 12.612 9.30488 12.68 9.59288 12.68ZM17.457 14.108C16.969 14.108 16.529 14.036 16.137 13.892C15.745 13.74 15.405 13.52 15.117 13.232C14.829 12.944 14.609 12.596 14.457 12.188C14.305 11.772 14.229 11.304 14.229 10.784C14.229 10.12 14.357 9.54 14.613 9.044C14.869 8.54 15.237 8.148 15.717 7.868C16.197 7.588 16.777 7.448 17.457 7.448C17.937 7.448 18.373 7.524 18.765 7.676C19.157 7.828 19.493 8.048 19.773 8.336C20.061 8.624 20.281 8.972 20.433 9.38C20.593 9.788 20.673 10.256 20.673 10.784C20.673 11.44 20.545 12.02 20.289 12.524C20.033 13.02 19.665 13.408 19.185 13.688C18.713 13.968 18.137 14.108 17.457 14.108ZM17.445 12.68C17.733 12.68 17.985 12.612 18.201 12.476C18.425 12.332 18.593 12.12 18.705 11.84C18.825 11.56 18.885 11.208 18.885 10.784C18.885 10.464 18.853 10.188 18.789 9.956C18.725 9.716 18.629 9.516 18.501 9.356C18.373 9.196 18.221 9.08 18.045 9.008C17.869 8.928 17.673 8.888 17.457 8.888C17.169 8.888 16.913 8.956 16.689 9.092C16.473 9.228 16.305 9.436 16.185 9.716C16.065 9.996 16.005 10.352 16.005 10.784C16.005 11.104 16.037 11.384 16.101 11.624C16.173 11.856 16.273 12.052 16.401 12.212C16.529 12.364 16.681 12.48 16.857 12.56C17.033 12.64 17.229 12.68 17.445 12.68ZM22.0791 14V7.568H23.7831L23.8431 8.732H23.9151C24.0831 8.3 24.3431 7.98 24.6951 7.772C25.0551 7.556 25.4511 7.448 25.8831 7.448C26.3311 7.448 26.7391 7.556 27.1071 7.772C27.4831 7.988 27.7551 8.36 27.9231 8.888H28.0191C28.1791 8.408 28.4511 8.048 28.8351 7.808C29.2191 7.568 29.6551 7.448 30.1431 7.448C30.5591 7.448 30.9311 7.536 31.2591 7.712C31.5951 7.888 31.8591 8.172 32.0511 8.564C32.2431 8.948 32.3391 9.464 32.3391 10.112V14H30.5751V10.496C30.5751 10.136 30.5351 9.836 30.4551 9.596C30.3831 9.356 30.2591 9.18 30.0831 9.068C29.9151 8.948 29.6991 8.888 29.4351 8.888C29.1471 8.888 28.9031 8.96 28.7031 9.104C28.5031 9.248 28.3511 9.436 28.2471 9.668C28.1431 9.9 28.0911 10.152 28.0911 10.424V14H26.3271V10.496C26.3271 10.136 26.2871 9.836 26.2071 9.596C26.1271 9.356 26.0031 9.18 25.8351 9.068C25.6671 8.948 25.4511 8.888 25.1871 8.888C24.8991 8.888 24.6551 8.96 24.4551 9.104C24.2551 9.248 24.1031 9.436 23.9991 9.668C23.8951 9.9 23.8431 10.152 23.8431 10.424V14H22.0791ZM36.2525 14.108C35.8685 14.108 35.5165 14.04 35.1965 13.904C34.8845 13.768 34.6125 13.56 34.3805 13.28C34.1565 13 33.9845 12.652 33.8645 12.236C33.7445 11.82 33.6845 11.336 33.6845 10.784C33.6845 10.04 33.7885 9.424 33.9965 8.936C34.2125 8.44 34.5125 8.068 34.8965 7.82C35.2885 7.572 35.7405 7.448 36.2525 7.448C36.5885 7.448 36.8885 7.5 37.1525 7.604C37.4245 7.708 37.6565 7.852 37.8485 8.036C38.0485 8.22 38.1965 8.436 38.2925 8.684H38.3885L38.4605 7.568H40.1525V14H38.3885V12.872H38.2925C38.1485 13.248 37.8965 13.548 37.5365 13.772C37.1765 13.996 36.7485 14.108 36.2525 14.108ZM36.9245 12.68C37.2525 12.68 37.5205 12.604 37.7285 12.452C37.9445 12.3 38.1045 12.104 38.2085 11.864C38.3125 11.616 38.3645 11.356 38.3645 11.084V10.472C38.3645 10.192 38.3125 9.932 38.2085 9.692C38.1045 9.452 37.9445 9.256 37.7285 9.104C37.5205 8.952 37.2525 8.876 36.9245 8.876C36.6365 8.876 36.3845 8.944 36.1685 9.08C35.9525 9.216 35.7845 9.424 35.6645 9.704C35.5445 9.984 35.4845 10.344 35.4845 10.784C35.4845 11.208 35.5445 11.564 35.6645 11.852C35.7845 12.132 35.9525 12.34 36.1685 12.476C36.3845 12.612 36.6365 12.68 36.9245 12.68ZM41.9447 14V7.568H43.7087V14H41.9447ZM41.9447 6.74V5.252H43.7087V6.74H41.9447ZM45.5083 14V7.568H47.2003L47.2723 8.732H47.3443C47.5203 8.3 47.7923 7.98 48.1603 7.772C48.5283 7.556 48.9403 7.448 49.3963 7.448C49.7163 7.448 50.0123 7.5 50.2843 7.604C50.5643 7.7 50.8043 7.852 51.0043 8.06C51.2123 8.268 51.3723 8.544 51.4843 8.888C51.6043 9.224 51.6643 9.632 51.6643 10.112V14H49.9003V10.496C49.9003 10.136 49.8563 9.836 49.7683 9.596C49.6883 9.356 49.5603 9.18 49.3843 9.068C49.2083 8.948 48.9763 8.888 48.6883 8.888C48.3843 8.888 48.1283 8.96 47.9203 9.104C47.7123 9.248 47.5523 9.436 47.4403 9.668C47.3283 9.9 47.2723 10.152 47.2723 10.424V14H45.5083ZM55.8322 14.12C55.2482 14.12 54.7442 14.032 54.3202 13.856C53.9042 13.672 53.5802 13.42 53.3482 13.1C53.1242 12.772 53.0122 12.392 53.0122 11.96H54.7402C54.7482 12.28 54.8562 12.512 55.0642 12.656C55.2802 12.8 55.5522 12.872 55.8802 12.872C56.2082 12.872 56.4522 12.812 56.6122 12.692C56.7802 12.572 56.8642 12.408 56.8642 12.2C56.8642 12.032 56.8242 11.904 56.7442 11.816C56.6642 11.72 56.5322 11.648 56.3482 11.6C56.1722 11.544 55.9322 11.496 55.6282 11.456C55.0762 11.368 54.6162 11.252 54.2482 11.108C53.8882 10.964 53.6162 10.764 53.4322 10.508C53.2562 10.252 53.1682 9.916 53.1682 9.5C53.1682 9.084 53.2802 8.724 53.5042 8.42C53.7362 8.116 54.0562 7.88 54.4642 7.712C54.8722 7.536 55.3482 7.448 55.8922 7.448C56.4122 7.448 56.8682 7.532 57.2602 7.7C57.6522 7.868 57.9602 8.104 58.1842 8.408C58.4082 8.712 58.5242 9.072 58.5322 9.488H56.7922C56.7922 9.304 56.7522 9.152 56.6722 9.032C56.6002 8.912 56.4922 8.824 56.3482 8.768C56.2042 8.712 56.0362 8.684 55.8442 8.684C55.5642 8.684 55.3402 8.744 55.1722 8.864C55.0122 8.976 54.9322 9.136 54.9322 9.344C54.9322 9.496 54.9762 9.62 55.0642 9.716C55.1602 9.804 55.3122 9.876 55.5202 9.932C55.7362 9.988 56.0082 10.04 56.3362 10.088C56.7362 10.144 57.0802 10.22 57.3682 10.316C57.6562 10.404 57.8962 10.524 58.0882 10.676C58.2802 10.828 58.4242 11.016 58.5202 11.24C58.6162 11.464 58.6642 11.732 58.6642 12.044C58.6642 12.708 58.4042 13.22 57.8842 13.58C57.3642 13.94 56.6802 14.12 55.8322 14.12Z" fill="white"/>
</svg>
