<svg width="61" height="20" viewBox="0 0 61 20" fill="none" xmlns="http://www.w3.org/2000/svg">
<rect x="0.148438" y="0.41394" width="60.4371" height="19.2043" rx="5.64833" fill="#16191C"/>
<path d="M10.4498 14.108C9.79376 14.108 9.22976 13.992 8.75776 13.76C8.29376 13.528 7.93376 13.204 7.67776 12.788C7.42976 12.364 7.29776 11.872 7.28176 11.312H9.03376C9.03376 11.576 9.08976 11.804 9.20176 11.996C9.32176 12.188 9.48576 12.34 9.69376 12.452C9.90976 12.556 10.1618 12.608 10.4498 12.608C10.7378 12.608 10.9858 12.556 11.1938 12.452C11.4018 12.348 11.5618 12.204 11.6738 12.02C11.7938 11.836 11.8538 11.616 11.8538 11.36C11.8538 11.176 11.8218 11.016 11.7578 10.88C11.7018 10.744 11.6178 10.628 11.5058 10.532C11.4018 10.436 11.2738 10.364 11.1218 10.316C10.9778 10.268 10.8138 10.244 10.6298 10.244H9.54976V8.924H10.4858C10.7578 8.924 10.9858 8.876 11.1698 8.78C11.3538 8.684 11.4898 8.552 11.5778 8.384C11.6738 8.216 11.7218 8.028 11.7218 7.82C11.7218 7.588 11.6698 7.392 11.5658 7.232C11.4618 7.072 11.3138 6.952 11.1218 6.872C10.9378 6.784 10.7178 6.74 10.4618 6.74C10.1898 6.74 9.95376 6.792 9.75376 6.896C9.55376 7 9.39776 7.144 9.28576 7.328C9.18176 7.512 9.12576 7.736 9.11776 8H7.35376C7.36976 7.432 7.50976 6.944 7.77376 6.536C8.03776 6.128 8.40576 5.812 8.87776 5.588C9.34976 5.356 9.90576 5.24 10.5458 5.24C10.9938 5.24 11.3978 5.296 11.7578 5.408C12.1258 5.512 12.4378 5.668 12.6938 5.876C12.9578 6.076 13.1618 6.32 13.3058 6.608C13.4498 6.896 13.5218 7.216 13.5218 7.568C13.5218 7.872 13.4698 8.152 13.3658 8.408C13.2618 8.664 13.1178 8.884 12.9338 9.068C12.7498 9.252 12.5338 9.392 12.2858 9.488V9.56C12.5818 9.64 12.8298 9.772 13.0298 9.956C13.2298 10.14 13.3818 10.368 13.4858 10.64C13.5978 10.904 13.6538 11.2 13.6538 11.528C13.6538 12.048 13.5178 12.504 13.2458 12.896C12.9738 13.28 12.5978 13.58 12.1178 13.796C11.6378 14.004 11.0818 14.108 10.4498 14.108ZM18.2593 14.108C17.6193 14.108 17.0673 13.996 16.6033 13.772C16.1393 13.54 15.7753 13.22 15.5113 12.812C15.2553 12.396 15.1193 11.916 15.1033 11.372H16.8913C16.8993 11.612 16.9593 11.824 17.0713 12.008C17.1913 12.184 17.3513 12.324 17.5513 12.428C17.7593 12.524 17.9993 12.572 18.2713 12.572C18.7193 12.572 19.0673 12.44 19.3153 12.176C19.5713 11.904 19.6993 11.556 19.6993 11.132C19.6993 10.836 19.6393 10.576 19.5193 10.352C19.4073 10.128 19.2433 9.956 19.0273 9.836C18.8113 9.708 18.5553 9.644 18.2593 9.644C17.9153 9.644 17.6313 9.724 17.4073 9.884C17.1913 10.036 17.0393 10.232 16.9513 10.472H15.2713L15.4993 5.348H20.9713V6.884H17.0593L16.9753 8.696L17.0473 8.72C17.2153 8.552 17.4433 8.42 17.7313 8.324C18.0193 8.228 18.3233 8.18 18.6433 8.18C19.0833 8.18 19.4753 8.252 19.8193 8.396C20.1713 8.532 20.4713 8.732 20.7193 8.996C20.9673 9.252 21.1553 9.56 21.2833 9.92C21.4193 10.272 21.4873 10.66 21.4873 11.084C21.4873 11.684 21.3553 12.212 21.0913 12.668C20.8353 13.124 20.4633 13.48 19.9753 13.736C19.4953 13.984 18.9233 14.108 18.2593 14.108ZM24.1937 14L29.7497 5.252H30.9617L25.3937 14H24.1937ZM24.6977 9.92C24.3057 9.92 23.9737 9.824 23.7017 9.632C23.4297 9.44 23.2217 9.168 23.0777 8.816C22.9337 8.464 22.8617 8.056 22.8617 7.592C22.8617 7.104 22.9377 6.692 23.0897 6.356C23.2497 6.012 23.4697 5.748 23.7497 5.564C24.0297 5.38 24.3537 5.288 24.7217 5.288C25.1137 5.288 25.4417 5.384 25.7057 5.576C25.9777 5.768 26.1857 6.04 26.3297 6.392C26.4737 6.744 26.5457 7.152 26.5457 7.616C26.5457 8.104 26.4657 8.52 26.3057 8.864C26.1537 9.208 25.9377 9.472 25.6577 9.656C25.3857 9.832 25.0657 9.92 24.6977 9.92ZM24.6977 8.936C24.8257 8.936 24.9377 8.908 25.0337 8.852C25.1377 8.788 25.2177 8.66 25.2737 8.468C25.3377 8.268 25.3697 7.98 25.3697 7.604C25.3697 7.228 25.3377 6.944 25.2737 6.752C25.2177 6.56 25.1377 6.436 25.0337 6.38C24.9377 6.316 24.8257 6.284 24.6977 6.284C24.5777 6.284 24.4657 6.316 24.3617 6.38C24.2657 6.436 24.1857 6.56 24.1217 6.752C24.0657 6.936 24.0377 7.22 24.0377 7.604C24.0377 7.892 24.0537 8.124 24.0857 8.3C24.1257 8.476 24.1737 8.612 24.2297 8.708C24.2937 8.796 24.3657 8.856 24.4457 8.888C24.5257 8.92 24.6097 8.936 24.6977 8.936ZM30.4337 14.048C30.0497 14.048 29.7217 13.952 29.4497 13.76C29.1777 13.56 28.9697 13.284 28.8257 12.932C28.6817 12.58 28.6097 12.172 28.6097 11.708C28.6097 11.22 28.6857 10.804 28.8377 10.46C28.9977 10.116 29.2177 9.856 29.4977 9.68C29.7777 9.496 30.1017 9.404 30.4697 9.404C30.8537 9.404 31.1817 9.5 31.4537 9.692C31.7257 9.884 31.9337 10.156 32.0777 10.508C32.2217 10.86 32.2937 11.268 32.2937 11.732C32.2937 12.22 32.2137 12.64 32.0537 12.992C31.9017 13.336 31.6857 13.6 31.4057 13.784C31.1337 13.96 30.8097 14.048 30.4337 14.048ZM30.4577 13.052C30.5777 13.052 30.6857 13.024 30.7817 12.968C30.8857 12.904 30.9657 12.776 31.0217 12.584C31.0857 12.392 31.1177 12.104 31.1177 11.72C31.1177 11.336 31.0857 11.052 31.0217 10.868C30.9657 10.676 30.8857 10.552 30.7817 10.496C30.6857 10.432 30.5777 10.4 30.4577 10.4C30.3377 10.4 30.2257 10.432 30.1217 10.496C30.0177 10.552 29.9337 10.676 29.8697 10.868C29.8137 11.052 29.7857 11.336 29.7857 11.72C29.7857 12.104 29.8137 12.392 29.8697 12.584C29.9337 12.776 30.0177 12.904 30.1217 12.968C30.2257 13.024 30.3377 13.052 30.4577 13.052ZM40.7649 14.108C40.1009 14.108 39.5009 14.008 38.9649 13.808C38.4289 13.608 37.9649 13.316 37.5729 12.932C37.1889 12.548 36.8929 12.08 36.6849 11.528C36.4769 10.968 36.3729 10.332 36.3729 9.62C36.3729 8.908 36.4769 8.276 36.6849 7.724C36.8929 7.172 37.1889 6.704 37.5729 6.32C37.9649 5.936 38.4289 5.644 38.9649 5.444C39.5009 5.244 40.1009 5.144 40.7649 5.144C41.4289 5.144 42.0289 5.244 42.5649 5.444C43.1009 5.644 43.5649 5.936 43.9569 6.32C44.3489 6.704 44.6449 7.172 44.8449 7.724C45.0529 8.276 45.1569 8.908 45.1569 9.62C45.1569 10.332 45.0529 10.968 44.8449 11.528C44.6369 12.08 44.3369 12.548 43.9449 12.932C43.5609 13.316 43.1009 13.608 42.5649 13.808C42.0289 14.008 41.4289 14.108 40.7649 14.108ZM40.7649 12.512C41.2689 12.512 41.7049 12.404 42.0729 12.188C42.4489 11.972 42.7369 11.652 42.9369 11.228C43.1369 10.796 43.2369 10.26 43.2369 9.62C43.2369 9.14 43.1769 8.724 43.0569 8.372C42.9449 8.012 42.7809 7.712 42.5649 7.472C42.3489 7.224 42.0889 7.04 41.7849 6.92C41.4809 6.8 41.1409 6.74 40.7649 6.74C40.2689 6.74 39.8329 6.848 39.4569 7.064C39.0889 7.272 38.8049 7.592 38.6049 8.024C38.4049 8.448 38.3049 8.98 38.3049 9.62C38.3049 10.1 38.3609 10.524 38.4729 10.892C38.5929 11.252 38.7609 11.552 38.9769 11.792C39.1929 12.032 39.4489 12.212 39.7449 12.332C40.0489 12.452 40.3889 12.512 40.7649 12.512ZM47.0441 14V8.984H45.9881V7.568H47.0441V6.884C47.0441 6.356 47.2081 5.952 47.5361 5.672C47.8721 5.392 48.3321 5.252 48.9161 5.252H50.2241V6.428H49.4321C49.1921 6.428 49.0281 6.48 48.9401 6.584C48.8521 6.68 48.8081 6.808 48.8081 6.968V7.568H50.8961V6.884C50.8961 6.356 51.0601 5.952 51.3881 5.672C51.7241 5.392 52.1881 5.252 52.7801 5.252H54.0761V6.428H53.2961C53.0481 6.428 52.8801 6.48 52.7921 6.584C52.7041 6.68 52.6601 6.808 52.6601 6.968V7.568H53.9681V8.984H52.6601V14H50.8961V8.984H48.8081V14H47.0441Z" fill="white"/>
</svg>
