<svg width="488" height="488" viewBox="0 0 488 488" fill="none" xmlns="http://www.w3.org/2000/svg">
<path d="M403.277 240.486C403.157 249.236 401.968 267.924 395.05 288.31C382.776 324.526 358.95 348.576 324.204 359.84C289.614 348.633 265.839 324.738 253.513 288.781C246.492 268.302 245.275 249.316 245.137 240.486C259.8 234.705 265.564 222.143 267.068 212.969C272.43 210.862 278.648 208.985 285.635 207.377C310.862 201.584 337.547 201.584 362.785 207.377C369.766 208.979 375.99 210.862 381.34 212.969C382.856 222.143 388.614 234.699 403.277 240.486Z" fill="url(#paint0_linear_522_2857)"/>
<path d="M304.673 336.146C301.102 336.146 298.524 335.256 296.945 333.476C295.366 331.697 294.574 328.866 294.574 324.979V321.156H302.313V326.047C302.313 326.954 302.451 327.661 302.727 328.171C303.002 328.682 303.479 328.941 304.162 328.941C304.874 328.941 305.368 328.734 305.643 328.321C305.919 327.907 306.057 327.224 306.057 326.277C306.057 325.077 305.936 324.072 305.701 323.263C305.465 322.453 305.052 321.684 304.466 320.949C303.881 320.214 303.071 319.359 302.032 318.383L298.518 315.047C295.895 312.573 294.58 309.737 294.58 306.55C294.58 303.215 295.355 300.671 296.905 298.92C298.455 297.169 300.694 296.297 303.634 296.297C307.222 296.297 309.771 297.255 311.275 299.167C312.779 301.079 313.532 303.984 313.532 307.888H305.569V305.195C305.569 304.661 305.419 304.248 305.115 303.949C304.811 303.651 304.397 303.507 303.881 303.507C303.261 303.507 302.801 303.68 302.514 304.03C302.227 304.38 302.078 304.828 302.078 305.373C302.078 305.919 302.227 306.516 302.52 307.153C302.819 307.79 303.404 308.525 304.277 309.358L308.789 313.692C309.696 314.553 310.523 315.461 311.281 316.419C312.039 317.378 312.647 318.486 313.107 319.755C313.566 321.024 313.796 322.568 313.796 324.394C313.796 328.068 313.118 330.95 311.763 333.034C310.403 335.101 308.037 336.146 304.673 336.146Z" fill="white"/>
<path d="M325.691 336.146C322.119 336.146 319.542 335.256 317.963 333.476C316.384 331.697 315.592 328.866 315.592 324.979V321.156H323.331V326.047C323.331 326.954 323.469 327.661 323.744 328.171C324.02 328.682 324.496 328.941 325.18 328.941C325.891 328.941 326.385 328.734 326.661 328.321C326.936 327.907 327.074 327.224 327.074 326.277C327.074 325.077 326.954 324.072 326.718 323.263C326.483 322.453 326.069 321.684 325.484 320.949C324.898 320.214 324.089 319.359 323.05 318.383L319.536 315.047C316.912 312.573 315.598 309.737 315.598 306.55C315.598 303.215 316.373 300.671 317.923 298.92C319.473 297.169 321.718 296.297 324.651 296.297C328.24 296.297 330.789 297.255 332.293 299.167C333.797 301.079 334.549 303.984 334.549 307.888H326.586V305.195C326.586 304.661 326.437 304.248 326.133 303.949C325.828 303.651 325.415 303.507 324.898 303.507C324.278 303.507 323.819 303.68 323.532 304.03C323.245 304.38 323.096 304.828 323.096 305.373C323.096 305.919 323.245 306.516 323.538 307.153C323.836 307.79 324.422 308.525 325.294 309.358L329.807 313.692C330.714 314.553 331.541 315.461 332.299 316.419C333.056 317.378 333.665 318.486 334.124 319.755C334.584 321.024 334.813 322.568 334.813 324.394C334.813 328.068 334.136 330.95 332.781 333.034C331.414 335.101 329.055 336.146 325.691 336.146Z" fill="white"/>
<path d="M337.414 335.79V296.647H345.245V329.119H353.294V335.79H337.414Z" fill="white"/>
<path d="M324.498 227.684C315.651 227.684 308.457 234.877 308.457 243.725V259.783H312.78V243.725C312.78 237.266 318.039 232.007 324.498 232.007C330.957 232.007 336.216 237.266 336.216 243.725V259.783H340.539V243.725C340.539 234.877 333.339 227.684 324.498 227.684Z" fill="white"/>
<path d="M339.511 283.919H308.911C305.42 283.919 302.596 281.088 302.596 277.603V257.882C302.596 254.392 305.426 251.567 308.911 251.567H339.511C343.002 251.567 345.827 254.397 345.827 257.882V277.603C345.827 281.094 342.996 283.919 339.511 283.919Z" fill="white"/>
<path d="M328.747 265.616C328.747 262.785 326.158 260.563 323.224 261.178C321.502 261.539 320.118 262.94 319.768 264.663C319.343 266.735 320.342 268.618 321.955 269.543C322.346 269.767 322.593 270.174 322.593 270.628V275.668C322.593 276.564 323.316 277.288 324.212 277.288C325.107 277.288 325.831 276.564 325.831 275.668V270.628C325.831 270.174 326.077 269.767 326.468 269.543C327.829 268.762 328.747 267.298 328.747 265.616Z" fill="#FFB64D"/>
<path d="M324.21 370.427C323.958 370.427 323.711 370.392 323.47 370.317C274.538 355.425 253.071 319.284 243.685 291.594C233.563 261.735 234.924 235.785 234.987 234.694C235.05 233.563 235.854 232.61 236.956 232.351C257.28 227.609 257.291 208.566 257.28 207.756C257.268 206.746 257.854 205.816 258.772 205.396C265.587 202.29 273.854 199.609 283.345 197.428C310.076 191.29 338.339 191.29 365.07 197.428C374.56 199.609 382.828 202.29 389.643 205.396C390.567 205.821 391.152 206.751 391.135 207.762C391.124 208.566 391.135 227.609 411.459 232.351C412.561 232.61 413.365 233.563 413.428 234.694C413.491 235.785 414.852 261.735 404.73 291.594C395.349 319.284 373.883 355.419 324.951 370.312C324.71 370.386 324.457 370.427 324.21 370.427ZM240.027 236.824C239.918 243.254 240.234 265.604 248.57 290.108C261.603 328.401 287.042 353.657 324.21 365.196C361.373 353.657 386.818 328.395 399.845 290.108C408.181 265.604 408.497 243.254 408.387 236.824C389.597 231.427 386.594 214.846 386.117 209.41C379.888 206.705 372.43 204.352 363.928 202.394C337.943 196.423 310.472 196.423 284.487 202.394C275.984 204.346 268.527 206.705 262.297 209.41C261.821 214.852 258.818 231.433 240.027 236.824Z" fill="#FF9E00"/>
<path d="M239.553 318.498C242.013 306.735 234.471 295.206 222.708 292.746C210.946 290.286 199.416 297.827 196.956 309.59C194.496 321.353 202.038 332.882 213.8 335.342C225.563 337.802 237.093 330.261 239.553 318.498Z" fill="#FFB64D"/>
<path d="M218.257 333.815C207.343 333.815 198.467 324.939 198.467 314.025C198.467 303.111 207.343 294.235 218.257 294.235C229.171 294.235 238.046 303.111 238.046 314.025C238.041 324.939 229.165 333.815 218.257 333.815ZM218.257 296.044C208.342 296.044 200.27 304.11 200.27 314.031C200.27 323.946 208.336 332.018 218.257 332.018C228.172 332.018 236.244 323.952 236.244 314.031C236.238 304.11 228.172 296.044 218.257 296.044Z" fill="white"/>
<path d="M224.485 321.845C223.388 322.913 221.81 323.573 219.748 323.831V326.357C219.748 326.656 219.507 326.897 219.209 326.897H217.55C217.251 326.897 217.01 326.656 217.01 326.357V323.911C215.661 323.837 214.375 323.601 213.152 323.2C212.187 322.884 211.372 322.511 210.7 322.08C210.396 321.885 210.298 321.483 210.448 321.15L211.338 319.181C211.527 318.762 212.032 318.63 212.428 318.865C212.945 319.169 213.514 319.439 214.134 319.669C215.064 320.019 216.022 320.237 217.01 320.323V315.753C215.712 315.443 214.622 315.099 213.726 314.714C212.83 314.329 212.084 313.767 211.481 313.032C210.878 312.291 210.58 311.31 210.58 310.087C210.58 308.571 211.131 307.274 212.239 306.183C213.341 305.098 214.937 304.437 217.016 304.196V301.699C217.016 301.4 217.257 301.159 217.555 301.159H219.215C219.513 301.159 219.754 301.4 219.754 301.699V304.145C221.718 304.305 223.383 304.753 224.743 305.482C225.076 305.66 225.203 306.074 225.065 306.424L224.255 308.41C224.089 308.824 223.607 308.984 223.21 308.789C222.079 308.238 220.925 307.894 219.754 307.756V312.412C221.029 312.705 222.114 313.038 222.998 313.411C223.882 313.784 224.628 314.341 225.231 315.082C225.834 315.822 226.133 316.792 226.133 317.998C226.127 319.497 225.581 320.777 224.485 321.845ZM215.506 310.988C215.85 311.281 216.355 311.528 217.01 311.729V307.842C216.315 308.008 215.804 308.267 215.477 308.623C215.15 308.979 214.983 309.392 214.983 309.869C214.983 310.322 215.156 310.695 215.506 310.988ZM221.224 319.502C221.551 319.175 221.718 318.779 221.718 318.325C221.718 317.872 221.551 317.493 221.212 317.2C220.874 316.907 220.386 316.655 219.748 316.431V320.208C220.403 320.071 220.897 319.829 221.224 319.502Z" fill="white"/>
<path d="M186.949 219.876H42.9838C35.8934 219.876 30.1465 214.129 30.1465 207.038V125.054C30.1465 117.964 35.8934 112.217 42.9838 112.217H186.949C194.04 112.217 199.787 117.964 199.787 125.054V207.038C199.781 214.129 194.034 219.876 186.949 219.876Z" fill="#FF9E00"/>
<path d="M126.472 108.434L114.996 125.795C113.049 128.734 109.76 130.508 106.235 130.508H28.8951C23.0966 130.508 18.3945 135.21 18.3945 141.009V245.912C18.3945 251.71 23.0966 256.412 28.8951 256.412H201.039C206.837 256.412 211.539 251.71 211.539 245.912V114.221C211.539 108.422 206.837 103.72 201.039 103.72H135.233C131.708 103.72 128.413 105.488 126.472 108.434Z" fill="url(#paint1_linear_522_2857)"/>
<path d="M115.386 149.167C102.406 149.167 91.8477 159.725 91.8477 172.706V196.268H98.1917V172.706C98.1917 163.227 105.908 155.511 115.386 155.511C124.865 155.511 132.581 163.227 132.581 172.706V196.268H138.925V172.706C138.925 159.725 128.367 149.167 115.386 149.167Z" fill="white"/>
<path d="M137.416 231.691H92.5083C87.3872 231.691 83.2363 227.54 83.2363 222.419V193.483C83.2363 188.362 87.3872 184.211 92.5083 184.211H137.416C142.537 184.211 146.688 188.362 146.688 193.483V222.419C146.688 227.54 142.537 231.691 137.416 231.691Z" fill="white"/>
<path d="M121.627 204.834C121.627 200.683 117.832 197.416 113.521 198.323C110.995 198.851 108.962 200.907 108.446 203.433C107.826 206.476 109.284 209.237 111.655 210.592C112.229 210.919 112.585 211.522 112.585 212.182V219.583C112.585 220.897 113.653 221.96 114.962 221.96C116.277 221.96 117.339 220.892 117.339 219.583V212.182C117.339 211.516 117.7 210.919 118.274 210.586C120.278 209.444 121.627 207.302 121.627 204.834Z" fill="#FF9E00"/>
<path d="M110.351 274.859H23.0047C20.4556 274.859 18.3945 272.792 18.3945 270.249C18.3945 267.7 20.4614 265.638 23.0047 265.638H110.357C112.906 265.638 114.967 267.705 114.967 270.249C114.967 272.798 112.9 274.859 110.351 274.859Z" fill="#CEDDEF"/>
<path d="M129.934 292.467H23.0047C20.4556 292.467 18.3945 290.4 18.3945 287.857C18.3945 285.308 20.4614 283.247 23.0047 283.247H129.94C132.489 283.247 134.55 285.314 134.55 287.857C134.544 290.406 132.483 292.467 129.934 292.467Z" fill="#CEDDEF"/>
<path d="M160.678 292.467H146.313C143.764 292.467 141.703 290.4 141.703 287.857C141.703 285.308 143.77 283.247 146.313 283.247H160.678C163.227 283.247 165.288 285.314 165.288 287.857C165.288 290.406 163.227 292.467 160.678 292.467Z" fill="#CEDDEF"/>
<path d="M57.5436 310.075H23.0047C20.4556 310.075 18.3945 308.008 18.3945 305.465C18.3945 302.916 20.4614 300.855 23.0047 300.855H57.5436C60.0927 300.855 62.1538 302.922 62.1538 305.465C62.1538 308.008 60.087 310.075 57.5436 310.075Z" fill="#CEDDEF"/>
<path d="M206.929 274.859H126.415C123.866 274.859 121.805 272.792 121.805 270.249C121.805 267.7 123.872 265.638 126.415 265.638H206.929C209.478 265.638 211.539 267.705 211.539 270.249C211.539 272.798 209.472 274.859 206.929 274.859Z" fill="#CEDDEF"/>
<path d="M320.203 156.877H239.602C237.272 156.877 235.389 154.989 235.389 152.664V105.821C235.389 103.491 237.277 101.608 239.602 101.608H320.203C322.533 101.608 324.416 103.496 324.416 105.821V152.664C324.416 154.988 322.527 156.877 320.203 156.877Z" stroke="#FF7500"/>
<path d="M314.089 123.166H245.752C243.076 123.166 240.9 120.995 240.9 118.314V113.319C240.9 110.644 243.071 108.468 245.752 108.468H314.089C316.764 108.468 318.94 110.638 318.94 113.319V118.314C318.94 120.995 316.77 123.166 314.089 123.166Z" fill="white"/>
<path d="M314.089 142.376H245.752C243.076 142.376 240.9 140.205 240.9 137.524V132.529C240.9 129.854 243.071 127.678 245.752 127.678H314.089C316.764 127.678 318.94 129.848 318.94 132.529V137.524C318.94 140.205 316.77 142.376 314.089 142.376Z" fill="white"/>
<path d="M248.231 137.495C249.366 137.495 250.286 136.575 250.286 135.44C250.286 134.305 249.366 133.385 248.231 133.385C247.096 133.385 246.176 134.305 246.176 135.44C246.176 136.575 247.096 137.495 248.231 137.495Z" fill="#2B64E2"/>
<path d="M255.217 137.495C256.353 137.495 257.273 136.575 257.273 135.44C257.273 134.305 256.353 133.385 255.217 133.385C254.082 133.385 253.162 134.305 253.162 135.44C253.162 136.575 254.082 137.495 255.217 137.495Z" fill="#2B64E2"/>
<path d="M262.2 137.495C263.335 137.495 264.255 136.575 264.255 135.44C264.255 134.305 263.335 133.385 262.2 133.385C261.065 133.385 260.145 134.305 260.145 135.44C260.145 136.575 261.065 137.495 262.2 137.495Z" fill="#2B64E2"/>
<path d="M269.186 137.495C270.321 137.495 271.242 136.575 271.242 135.44C271.242 134.305 270.321 133.385 269.186 133.385C268.051 133.385 267.131 134.305 267.131 135.44C267.131 136.575 268.051 137.495 269.186 137.495Z" fill="#2B64E2"/>
<path d="M276.173 137.495C277.308 137.495 278.228 136.575 278.228 135.44C278.228 134.305 277.308 133.385 276.173 133.385C275.037 133.385 274.117 134.305 274.117 135.44C274.117 136.575 275.037 137.495 276.173 137.495Z" fill="#2B64E2"/>
<path d="M283.155 137.495C284.29 137.495 285.21 136.575 285.21 135.44C285.21 134.305 284.29 133.385 283.155 133.385C282.02 133.385 281.1 134.305 281.1 135.44C281.1 136.575 282.02 137.495 283.155 137.495Z" fill="#2B64E2"/>
<path d="M290.141 137.495C291.276 137.495 292.197 136.575 292.197 135.44C292.197 134.305 291.276 133.385 290.141 133.385C289.006 133.385 288.086 134.305 288.086 135.44C288.086 136.575 289.006 137.495 290.141 137.495Z" fill="#2B64E2"/>
<path d="M249.231 114.267V117.574H248.663V117.074C248.542 117.246 248.381 117.378 248.186 117.47C247.991 117.562 247.773 117.608 247.543 117.608C247.101 117.608 246.757 117.488 246.504 117.241C246.251 117 246.125 116.638 246.125 116.167V114.267H246.722V116.098C246.722 116.42 246.797 116.661 246.952 116.827C247.107 116.994 247.325 117.074 247.612 117.074C247.928 117.074 248.18 116.977 248.358 116.787C248.542 116.598 248.634 116.328 248.634 115.978V114.267H249.231Z" fill="#2B64E2"/>
<path d="M250.541 117.499C250.294 117.424 250.099 117.333 249.955 117.223L250.202 116.747C250.345 116.85 250.523 116.936 250.73 116.994C250.937 117.057 251.149 117.086 251.362 117.086C251.884 117.086 252.148 116.936 252.148 116.638C252.148 116.54 252.114 116.46 252.045 116.402C251.976 116.345 251.884 116.299 251.781 116.276C251.677 116.247 251.522 116.219 251.327 116.184C251.063 116.144 250.845 116.092 250.678 116.041C250.512 115.989 250.363 115.897 250.242 115.765C250.122 115.639 250.058 115.455 250.058 115.226C250.058 114.927 250.185 114.686 250.432 114.508C250.678 114.324 251.017 114.238 251.436 114.238C251.654 114.238 251.878 114.267 252.097 114.318C252.315 114.37 252.498 114.445 252.642 114.537L252.384 115.013C252.114 114.841 251.798 114.749 251.431 114.749C251.178 114.749 250.983 114.789 250.851 114.875C250.719 114.961 250.65 115.071 250.65 115.208C250.65 115.317 250.684 115.403 250.759 115.467C250.833 115.53 250.925 115.576 251.034 115.604C251.144 115.633 251.299 115.668 251.499 115.702C251.764 115.748 251.982 115.794 252.142 115.851C252.309 115.903 252.447 115.995 252.562 116.115C252.676 116.242 252.734 116.414 252.734 116.638C252.734 116.936 252.608 117.172 252.349 117.35C252.091 117.528 251.746 117.614 251.304 117.614C251.052 117.608 250.788 117.568 250.541 117.499Z" fill="#2B64E2"/>
<path d="M256.47 116.115H253.789C253.823 116.408 253.955 116.644 254.173 116.816C254.391 116.994 254.661 117.08 254.989 117.08C255.385 117.08 255.7 116.948 255.942 116.678L256.275 117.063C256.125 117.235 255.942 117.373 255.718 117.465C255.494 117.556 255.247 117.602 254.971 117.602C254.621 117.602 254.311 117.528 254.041 117.39C253.771 117.246 253.565 117.045 253.415 116.787C253.266 116.529 253.197 116.236 253.197 115.914C253.197 115.593 253.272 115.306 253.415 115.048C253.559 114.789 253.754 114.588 254.007 114.445C254.259 114.301 254.541 114.232 254.856 114.232C255.172 114.232 255.454 114.307 255.7 114.445C255.947 114.588 256.143 114.789 256.28 115.048C256.418 115.306 256.487 115.599 256.487 115.932C256.481 115.983 256.475 116.041 256.47 116.115ZM254.127 115.002C253.932 115.174 253.823 115.403 253.789 115.685H255.907C255.873 115.409 255.758 115.18 255.568 115.002C255.373 114.824 255.132 114.738 254.851 114.738C254.558 114.738 254.323 114.824 254.127 115.002Z" fill="#2B64E2"/>
<path d="M258.348 114.382C258.549 114.284 258.801 114.232 259.088 114.232V114.812C259.054 114.806 259.008 114.806 258.951 114.806C258.629 114.806 258.371 114.904 258.187 115.099C258.003 115.294 257.912 115.57 257.912 115.926V117.574H257.314V114.267H257.889V114.824C257.992 114.628 258.141 114.485 258.348 114.382Z" fill="#2B64E2"/>
<path d="M262.592 114.6C262.838 114.841 262.965 115.197 262.965 115.668V117.568H262.368V115.736C262.368 115.415 262.293 115.174 262.138 115.013C261.983 114.852 261.765 114.772 261.478 114.772C261.156 114.772 260.898 114.864 260.708 115.053C260.519 115.243 260.427 115.513 260.427 115.868V117.574H259.83V114.267H260.404V114.766C260.525 114.594 260.686 114.468 260.892 114.376C261.099 114.284 261.334 114.238 261.593 114.238C262.012 114.232 262.345 114.353 262.592 114.6Z" fill="#2B64E2"/>
<path d="M266.327 114.571C266.568 114.795 266.695 115.128 266.695 115.576V117.574H266.126V117.137C266.029 117.292 265.885 117.407 265.701 117.488C265.518 117.568 265.3 117.608 265.041 117.608C264.674 117.608 264.375 117.516 264.151 117.338C263.927 117.16 263.818 116.925 263.818 116.632C263.818 116.339 263.922 116.11 264.134 115.932C264.347 115.754 264.685 115.668 265.145 115.668H266.092V115.547C266.092 115.289 266.017 115.093 265.868 114.956C265.719 114.818 265.501 114.749 265.208 114.749C265.013 114.749 264.823 114.783 264.634 114.847C264.444 114.91 264.289 114.996 264.157 115.105L263.91 114.657C264.082 114.519 264.283 114.416 264.519 114.341C264.754 114.267 265.007 114.232 265.271 114.232C265.73 114.232 266.08 114.347 266.327 114.571ZM265.73 116.994C265.897 116.89 266.017 116.747 266.092 116.557V116.098H265.168C264.662 116.098 264.404 116.27 264.404 116.609C264.404 116.776 264.467 116.908 264.599 117C264.725 117.097 264.909 117.143 265.133 117.143C265.368 117.143 265.564 117.097 265.73 116.994Z" fill="#2B64E2"/>
<path d="M272.924 114.594C273.165 114.835 273.291 115.191 273.291 115.668V117.568H272.694V115.736C272.694 115.415 272.62 115.174 272.47 115.013C272.321 114.852 272.114 114.772 271.839 114.772C271.534 114.772 271.293 114.864 271.115 115.053C270.937 115.243 270.846 115.513 270.846 115.869V117.574H270.248V115.742C270.248 115.421 270.174 115.18 270.025 115.019C269.875 114.858 269.669 114.778 269.393 114.778C269.089 114.778 268.848 114.87 268.67 115.059C268.492 115.248 268.4 115.518 268.4 115.874V117.579H267.803V114.272H268.377V114.766C268.497 114.594 268.652 114.468 268.853 114.376C269.049 114.284 269.272 114.244 269.519 114.244C269.778 114.244 270.007 114.295 270.203 114.399C270.404 114.502 270.553 114.657 270.662 114.852C270.788 114.663 270.96 114.514 271.184 114.405C271.408 114.295 271.655 114.244 271.936 114.244C272.35 114.232 272.677 114.353 272.924 114.594Z" fill="#2B64E2"/>
<path d="M277.386 116.115H274.705C274.739 116.408 274.871 116.644 275.089 116.816C275.307 116.994 275.577 117.08 275.905 117.08C276.301 117.08 276.616 116.948 276.858 116.678L277.191 117.063C277.041 117.235 276.858 117.373 276.634 117.465C276.41 117.556 276.163 117.602 275.887 117.602C275.537 117.602 275.227 117.528 274.957 117.39C274.687 117.246 274.481 117.045 274.331 116.787C274.182 116.529 274.113 116.236 274.113 115.914C274.113 115.593 274.188 115.306 274.331 115.048C274.475 114.789 274.67 114.588 274.923 114.445C275.175 114.301 275.457 114.232 275.772 114.232C276.088 114.232 276.37 114.307 276.616 114.445C276.863 114.588 277.059 114.789 277.196 115.048C277.334 115.306 277.403 115.599 277.403 115.932C277.397 115.983 277.391 116.041 277.386 116.115ZM275.043 115.002C274.848 115.174 274.739 115.403 274.705 115.685H276.823C276.789 115.409 276.674 115.18 276.484 115.002C276.289 114.824 276.048 114.738 275.767 114.738C275.48 114.738 275.239 114.824 275.043 115.002Z" fill="#2B64E2"/>
<path d="M406.418 164.462C406.527 170.702 401.394 172.649 395.257 172.362C389.114 172.069 358.043 164.077 356.877 162.475C355.706 160.874 356.722 151.935 359.415 150.981C362.107 150.028 389.55 152.796 394.556 153.909C399.563 155.023 406.286 157.148 406.418 164.462Z" fill="#FFBD95"/>
<path d="M404.707 159.163C403.352 157.205 399.379 152.997 389.837 151.9C383.465 151.165 371.265 150.092 371.265 150.092C371.265 150.092 368.612 154.151 368.256 159.806C367.843 166.362 370.168 170.398 370.168 170.398C370.168 170.398 395.596 173.286 400.424 171.294C401.865 170.691 408.456 164.588 404.707 159.163Z" fill="#E58010"/>
<path d="M366.488 160.632C364.588 167.149 351.47 162.062 345.189 159.26C338.908 156.453 320.582 145.045 320.582 145.045L323.665 140.504C323.665 140.504 342.278 142.02 359.989 148.84C361.804 149.541 368.423 154.001 366.488 160.632Z" fill="#FFBD95"/>
<path d="M452.657 373.693C452.657 373.693 448.345 381.656 449.028 383.367C449.419 384.337 452.628 387.483 457.101 386.806C460.499 386.295 465.31 382.058 466.143 381.788C468.072 381.162 465.787 370.553 465.787 370.553L452.657 373.693Z" fill="#191919"/>
<path d="M411.516 125.272C411.516 125.272 417.045 142.68 418.297 143.26C422.201 145.057 434.378 144.167 437.794 148.203C441.933 153.094 433.717 186.117 434.085 194.936C434.452 203.76 442.381 218.67 443.701 227.115C445.022 235.56 418.475 245.843 417.504 245.843C416.528 245.843 407.957 237.868 406.326 235.113C404.696 232.357 406.814 215.059 405.373 209.725C403.932 204.392 396.319 184.24 395.751 183.086C391.939 175.358 392.301 168.349 392.151 166.54C391.996 164.732 391.124 161.867 391.692 160.529C392.823 157.865 401.63 152.371 401.492 151.234C401.354 150.092 398.524 134.453 398.524 134.453L411.516 125.272Z" fill="#FFBD95"/>
<path d="M418.303 143.26L405.334 156.671L401.487 151.246C401.487 151.246 393.174 150.786 392.554 152.497C391.652 154.989 390.114 166.873 390.78 171.96C391.027 173.831 393.667 180.026 396.274 186.916C397.801 190.946 399.173 196.446 401.711 203.33C403.881 209.22 405.087 221.942 405.087 221.942C405.087 221.942 411.057 222.178 420.312 221.707C431.025 221.162 441.836 219.497 442.312 219.101C444.374 217.401 436.336 198.564 436.221 196.699C436.106 194.833 441.147 156.734 440.269 152.658C439.384 148.582 436.611 146.486 433.155 145.797C429.699 145.097 418.303 143.26 418.303 143.26Z" fill="#E58010"/>
<path d="M399.736 141.239L413.86 131.393L416.736 140.544L412.706 144.775L399.736 141.239Z" fill="#FFA47C"/>
<path d="M389.654 112.648C392.801 108.106 403.743 102.118 411.213 108.514C418.688 114.91 417.895 123.074 415.857 128.476C414.267 132.69 412.378 135.251 408.198 138.397C407.343 139.04 399.081 142.473 397.227 142.278C395.958 142.146 393.116 133.781 392.778 133.89C392.445 134.005 391.371 133.706 391.164 133.023C390.86 132.024 390.562 125.623 390.165 125.026C389.781 124.434 386.055 117.849 389.654 112.648Z" fill="#FFBD95"/>
<path d="M388.139 117.005C388.139 117.005 393.851 111.832 403.697 117.419C405.816 118.618 404.042 126.174 404.622 126.679C405.242 127.219 409.967 120.232 409.909 121.058C409.329 129.469 412.889 133.224 413.624 133.109C415.84 132.765 420.042 120.128 414.674 111.89C409.306 103.657 399.472 104.937 397.273 105.942C395.068 106.952 388.225 109.036 388.139 117.005Z" fill="#202428"/>
<path d="M406.464 123.682C406.263 126.363 406.671 129.825 408.123 129.923C409.57 130.02 410.908 127.919 411.109 125.238C411.31 122.557 410.293 120.306 408.847 120.209C407.4 120.111 406.665 121.001 406.464 123.682Z" fill="#FFBD95"/>
<path d="M418.065 376.188H428.428V374.254H418.065V376.188Z" fill="#191919"/>
<path d="M428.023 360.632C429.377 362.532 430.296 366.213 430.434 367.906C430.595 369.95 429.377 374.25 428.034 374.25C424.119 374.25 419.434 374.411 415.392 374.956C411.35 375.502 409.84 377.827 399.506 377.798C396.492 377.792 391.17 377.609 391.17 376.374C391.17 371.024 401.085 372.924 404.231 370.025C412.188 362.687 417.487 360.919 417.487 360.919C417.487 360.919 427.741 360.242 428.023 360.632Z" fill="#191919"/>
<path d="M423.097 219.457C423.097 219.457 436.904 233.253 437.536 239.269C438.168 245.286 432.357 264.531 430.296 279.676C428.241 294.815 426.967 297.875 427.483 301.452C427.994 305.029 432.053 319.497 431.915 329.147C431.755 340.394 432.346 363.434 432.346 363.434C432.346 363.434 429.338 365.788 421.599 365.753C416.609 365.73 412.309 362.194 412.309 362.194C412.309 362.194 409.198 305.66 408.566 299.718C408.158 295.877 405.012 269.353 404.054 247.732C403.743 240.774 405.345 220.88 405.34 218.004L423.097 219.457Z" fill="#202428"/>
<path d="M405.029 152.819L405.334 156.665L412.183 149.655L405.029 152.819Z" fill="#B8D1FF"/>
<path d="M405.332 156.665L402.824 152.469L401.273 154.53L405.332 156.665Z" fill="#B8D1FF"/>
<path d="M444.597 218.492C444.597 218.492 450.12 232.012 452.307 241.055C454.495 250.097 457.113 296.882 457.893 301.28C458.674 305.677 461.43 319.129 463.554 332.426C465.678 345.716 466.947 372.413 466.947 372.413L449.925 375.071C449.925 375.071 439.774 319.083 438.178 310.288C436.582 301.486 419.703 239.091 419.703 239.091L417.613 219.009L444.597 218.492Z" fill="#202428"/>
<path d="M444.977 218.492C444.977 218.492 418.768 218.928 417.207 218.969C415.645 219.009 405.334 217.998 405.334 217.998L405.133 222.132C405.133 222.132 415.117 222.964 419.905 222.964C424.687 222.964 445.924 221.856 445.924 221.856L444.977 218.492Z" fill="#202428"/>
<path d="M415.851 223.504H417.723C419.037 223.504 420.117 222.425 420.117 221.11C420.117 219.795 419.043 218.716 417.723 218.716H415.851C414.536 218.716 413.457 219.79 413.457 221.11C413.457 222.425 414.536 223.504 415.851 223.504Z" fill="#202428"/>
<path d="M407.556 153.542L401.355 153.6L403.089 158.215L406.218 158.112L407.556 153.542Z" fill="#202428"/>
<path d="M403.088 158.215C403.088 158.215 398.96 167.929 400.826 181.157C402.698 194.385 402.531 224.331 402.531 224.331L405.982 230.399L410.155 223.228C410.155 223.228 407.331 190.561 405.775 180.922C404.219 171.282 406.217 158.112 406.217 158.112L403.088 158.215Z" fill="#202428"/>
<path d="M420.685 143.633L416.736 140.544L405.029 152.819L408.595 157.216L420.685 143.633Z" fill="#E0F2FF"/>
<path d="M402.824 152.468L400.516 157.176L398.908 153.244L400.969 149.828L402.824 152.468Z" fill="#E0F2FF"/>
<path d="M426.586 149.334C430.089 144.058 435.388 145.269 440.227 148.903C445.067 152.537 469.41 179.745 469.444 181.731C469.479 183.712 463.508 190.624 460.764 189.93C458.019 189.235 433.625 168.4 430.186 164.703C426.753 161.006 422.487 155.517 426.586 149.334Z" fill="#FFBD95"/>
<path d="M424.549 154.403C424.56 156.814 425.491 162.424 429.159 165.179C434.361 169.089 447.244 180.325 447.244 180.325C447.244 180.325 451.791 178.442 455.327 173.912C459.427 168.653 459.788 163.951 459.788 163.951C459.788 163.951 440.01 147.479 434.958 145.883C430.904 144.597 424.515 147.709 424.549 154.403Z" fill="#E58010"/>
<path d="M467.877 179.573C473.463 183.597 464.156 194.419 459.345 199.477C454.534 204.529 440.348 219.64 440.348 219.64L434.566 214.766C434.566 214.766 441.881 196.423 454.402 181.794C455.682 180.29 462.193 175.473 467.877 179.573Z" fill="#FFBD95"/>
<path d="M432.815 230.772C432.178 230.405 431.954 229.584 432.322 228.947L435.163 223.986C435.531 223.343 436.352 223.125 436.989 223.493L436.995 223.498C437.626 223.866 437.85 224.687 437.483 225.318L434.641 230.279C434.279 230.916 433.453 231.14 432.815 230.772Z" fill="#FFBD95"/>
<path d="M430.53 229.733L430.525 229.727C429.893 229.36 429.669 228.539 430.037 227.907L432.878 222.947C433.246 222.304 434.067 222.086 434.704 222.453L434.71 222.459C435.341 222.827 435.565 223.648 435.198 224.279L432.356 229.239C431.989 229.877 431.168 230.101 430.53 229.733Z" fill="#FFBD95"/>
<path d="M428.366 228.585C427.729 228.212 427.505 227.397 427.872 226.759L430.714 221.799C431.082 221.156 431.903 220.938 432.54 221.305L432.546 221.311C433.177 221.678 433.401 222.499 433.034 223.131L430.192 228.091C429.824 228.734 429.003 228.952 428.366 228.585Z" fill="#FFBD95"/>
<path d="M426.38 227.282C425.742 226.914 425.519 226.093 425.886 225.456L428.728 220.496C429.095 219.853 429.916 219.635 430.554 220.002L430.559 220.008C431.191 220.375 431.415 221.196 431.047 221.828L428.205 226.788C427.844 227.431 427.017 227.649 426.38 227.282Z" fill="#FFBD95"/>
<path d="M437.902 210.655C437.902 210.655 430.277 216.247 429.169 217.723C428.061 219.198 425.725 226.024 425.725 226.024C425.725 226.024 428.899 225.324 430.203 226.34C431.512 227.356 434.641 230.284 434.641 230.284C434.641 230.284 439.056 225.829 440.347 223.217C441.639 220.605 442.311 217.728 442.311 217.728L437.902 210.655Z" fill="#FFBD95"/>
<path d="M323.045 145.74C323.045 145.74 317.436 147.21 315.306 144.138C313.176 141.066 314.054 136.565 313.985 135.498C313.692 131.083 309.151 127.73 308.52 125.123C307.882 122.517 309.415 121.828 309.949 122.666C312.923 127.351 316.196 129.291 317.246 131.519C318.297 133.746 324.434 140.82 324.434 140.82L323.045 145.74Z" fill="#FFBD95"/>
<path d="M319.163 146.033C319.163 146.033 315.081 145.177 313.468 143.346C311.849 141.514 312.418 138.334 311.269 136.623C310.121 134.912 311.419 134.946 311.775 134.975C312.13 135.004 313.52 137.128 314.289 137.989C315.064 138.856 320.185 141.078 319.163 146.033Z" fill="#FFBD95"/>
<defs>
<linearGradient id="paint0_linear_522_2857" x1="324.207" y1="203.032" x2="324.207" y2="359.84" gradientUnits="userSpaceOnUse">
<stop stop-color="#FF8116"/>
<stop offset="1" stop-color="#FFAA61"/>
</linearGradient>
<linearGradient id="paint1_linear_522_2857" x1="114.967" y1="103.72" x2="114.967" y2="256.412" gradientUnits="userSpaceOnUse">
<stop stop-color="#FF8116"/>
<stop offset="1" stop-color="#FFAA61"/>
</linearGradient>
</defs>
</svg>
