<svg width="471" height="345" viewBox="0 0 471 345" fill="none" xmlns="http://www.w3.org/2000/svg">
<rect width="471" height="75" rx="15" fill="#F5F5F5"/>
<g filter="url(#filter0_b_944_17509)">
<rect x="10" y="10" width="55" height="55" rx="10" fill="#FF7500"/>
</g>
<path d="M30.125 49C27.8468 49 26 47.1532 26 44.875V29C26 27.8954 26.8954 27 28 27H32.25C33.3546 27 34.25 27.8954 34.25 29V35.25M30.125 49C31.7674 49 33.1857 48.0401 33.8493 46.6507M30.125 49H46C47.1046 49 48 48.1046 48 47V42.75C48 41.6454 47.1046 40.75 46 40.75H39.75M33.8493 46.6507C34.1062 46.1129 34.25 45.5107 34.25 44.875V35.25M33.8493 46.6507L39.75 40.75M34.25 35.25L39.7108 29.7892C40.4918 29.0082 41.7582 29.0082 42.5392 29.7892L45.2108 32.4608C45.9918 33.2418 45.9918 34.5082 45.2108 35.2892L39.75 40.75M30.125 44.875H30.1374" stroke="white" stroke-width="2" stroke-linecap="round" stroke-linejoin="round"/>
<path d="M86.86 45V30.42H88.56V43.92L88.16 43.44H95.76V45H86.86ZM101.563 45.18C100.803 45.18 100.11 45.0533 99.4831 44.8C98.8698 44.5467 98.3365 44.18 97.8831 43.7C97.4431 43.22 97.0965 42.6533 96.8431 42C96.6031 41.3333 96.4831 40.5933 96.4831 39.78C96.4831 38.7 96.6898 37.7533 97.1031 36.94C97.5165 36.1267 98.1031 35.4933 98.8631 35.04C99.6365 34.5733 100.536 34.34 101.563 34.34C102.323 34.34 103.01 34.4667 103.623 34.72C104.25 34.96 104.783 35.32 105.223 35.8C105.663 36.28 106.003 36.8533 106.243 37.52C106.483 38.1867 106.603 38.9333 106.603 39.76C106.603 40.8267 106.396 41.7667 105.983 42.58C105.583 43.3933 105.003 44.0333 104.243 44.5C103.483 44.9533 102.59 45.18 101.563 45.18ZM101.563 43.78C102.243 43.78 102.836 43.6267 103.343 43.32C103.85 43 104.243 42.54 104.523 41.94C104.816 41.3267 104.963 40.6 104.963 39.76C104.963 39.1333 104.883 38.5733 104.723 38.08C104.563 37.5733 104.336 37.1467 104.043 36.8C103.75 36.44 103.396 36.1667 102.983 35.98C102.57 35.7933 102.096 35.7 101.563 35.7C100.883 35.7 100.283 35.8667 99.7631 36.2C99.2565 36.52 98.8565 36.98 98.5631 37.58C98.2831 38.18 98.1431 38.9133 98.1431 39.78C98.1431 40.3933 98.2165 40.9533 98.3631 41.46C98.5231 41.9533 98.7498 42.3733 99.0431 42.72C99.3498 43.0667 99.7165 43.3333 100.143 43.52C100.57 43.6933 101.043 43.78 101.563 43.78ZM108.903 45V34.5H110.343L110.443 36.44H110.523C110.749 35.7733 111.149 35.26 111.723 34.9C112.296 34.54 112.936 34.36 113.643 34.36C113.763 34.36 113.876 34.3667 113.983 34.38C114.089 34.38 114.189 34.3867 114.283 34.4V35.94C114.189 35.9267 114.089 35.92 113.983 35.92C113.876 35.9067 113.763 35.9 113.643 35.9C113.029 35.9 112.496 36.0133 112.043 36.24C111.589 36.4667 111.229 36.7933 110.963 37.22C110.709 37.6333 110.556 38.14 110.503 38.74V45H108.903ZM119.817 45.18C118.817 45.18 117.957 44.96 117.237 44.52C116.531 44.08 115.991 43.4533 115.617 42.64C115.244 41.8267 115.057 40.88 115.057 39.8C115.057 38.6933 115.244 37.7333 115.617 36.92C115.991 36.0933 116.524 35.46 117.217 35.02C117.911 34.5667 118.757 34.34 119.757 34.34C120.824 34.34 121.704 34.58 122.397 35.06C123.091 35.54 123.591 36.2067 123.897 37.06C124.217 37.9133 124.337 38.9 124.257 40.02H116.637C116.651 40.8867 116.784 41.6133 117.037 42.2C117.304 42.7733 117.671 43.2067 118.137 43.5C118.617 43.78 119.177 43.92 119.817 43.92C120.591 43.92 121.224 43.7267 121.717 43.34C122.211 42.9533 122.524 42.4467 122.657 41.82H124.197C124.117 42.5267 123.871 43.1333 123.457 43.64C123.057 44.1467 122.537 44.5333 121.897 44.8C121.271 45.0533 120.577 45.18 119.817 45.18ZM116.657 39.1L116.477 38.86H122.857L122.677 39.14C122.691 38.3 122.577 37.6267 122.337 37.12C122.097 36.6 121.751 36.22 121.297 35.98C120.857 35.7267 120.344 35.6 119.757 35.6C119.144 35.6 118.611 35.7333 118.157 36C117.704 36.2667 117.344 36.66 117.077 37.18C116.824 37.6867 116.684 38.3267 116.657 39.1ZM126.559 45V34.5H128.099L128.159 36.68H128.279C128.586 35.9067 129.066 35.3267 129.719 34.94C130.372 34.54 131.092 34.34 131.879 34.34C132.679 34.34 133.386 34.5333 133.999 34.92C134.612 35.3067 135.052 35.9533 135.319 36.86H135.479C135.786 36.02 136.279 35.3933 136.959 34.98C137.652 34.5533 138.426 34.34 139.279 34.34C139.986 34.34 140.612 34.4867 141.159 34.78C141.719 35.0733 142.159 35.5533 142.479 36.22C142.799 36.8733 142.959 37.74 142.959 38.82V45H141.359V39.14C141.359 38.3533 141.259 37.7067 141.059 37.2C140.872 36.6933 140.586 36.32 140.199 36.08C139.826 35.8267 139.332 35.7 138.719 35.7C138.092 35.7 137.539 35.86 137.059 36.18C136.592 36.5 136.226 36.9333 135.959 37.48C135.706 38.0133 135.579 38.6267 135.579 39.32V45H133.939V39.14C133.939 38.3533 133.846 37.7067 133.659 37.2C133.472 36.6933 133.186 36.32 132.799 36.08C132.426 35.8267 131.939 35.7 131.339 35.7C130.699 35.7 130.139 35.86 129.659 36.18C129.192 36.5 128.826 36.9333 128.559 37.48C128.292 38.0133 128.159 38.6267 128.159 39.32V45H126.559ZM150.465 45V34.5H152.085V45H150.465ZM150.465 32.76V30.42H152.085V32.76H150.465ZM155.133 48.34L155.153 34.5H156.693L156.753 36.68H156.873C157.127 35.9733 157.573 35.4067 158.213 34.98C158.867 34.54 159.653 34.32 160.573 34.32C161.213 34.32 161.793 34.44 162.313 34.68C162.847 34.92 163.307 35.2733 163.693 35.74C164.08 36.2067 164.373 36.78 164.573 37.46C164.787 38.1267 164.893 38.8933 164.893 39.76C164.893 40.9067 164.713 41.8867 164.353 42.7C163.993 43.5 163.487 44.1133 162.833 44.54C162.193 44.9667 161.44 45.18 160.573 45.18C159.973 45.18 159.42 45.0867 158.913 44.9C158.42 44.7 158 44.42 157.653 44.06C157.307 43.7 157.047 43.2867 156.873 42.82H156.753V48.34H155.133ZM160.033 43.82C160.673 43.82 161.233 43.6667 161.713 43.36C162.193 43.0533 162.567 42.6 162.833 42C163.113 41.3867 163.253 40.64 163.253 39.76C163.253 38.8667 163.113 38.12 162.833 37.52C162.567 36.92 162.193 36.4667 161.713 36.16C161.233 35.84 160.673 35.68 160.033 35.68C159.34 35.68 158.747 35.8467 158.253 36.18C157.773 36.5 157.407 36.9267 157.153 37.46C156.9 37.98 156.773 38.5333 156.773 39.12V40.38C156.773 40.82 156.847 41.2467 156.993 41.66C157.14 42.0733 157.347 42.4467 157.613 42.78C157.893 43.1 158.233 43.3533 158.633 43.54C159.047 43.7267 159.513 43.82 160.033 43.82ZM170.724 45.2C169.83 45.2 169.057 45.0533 168.404 44.76C167.764 44.4667 167.27 44.06 166.924 43.54C166.59 43.02 166.424 42.4133 166.424 41.72H168.044C168.044 42.4933 168.29 43.0667 168.784 43.44C169.29 43.8 169.95 43.98 170.764 43.98C171.577 43.98 172.197 43.8267 172.624 43.52C173.064 43.2133 173.284 42.78 173.284 42.22C173.284 41.7933 173.19 41.4667 173.004 41.24C172.817 41 172.53 40.8133 172.144 40.68C171.757 40.5467 171.25 40.4333 170.624 40.34C169.757 40.22 169.03 40.0533 168.444 39.84C167.87 39.6267 167.437 39.3267 167.144 38.94C166.864 38.54 166.724 38.02 166.724 37.38C166.724 36.7667 166.89 36.2333 167.224 35.78C167.557 35.3133 168.024 34.9533 168.624 34.7C169.224 34.4333 169.924 34.3 170.724 34.3C171.564 34.3 172.277 34.44 172.864 34.72C173.464 34.9867 173.917 35.3667 174.224 35.86C174.544 36.34 174.71 36.9133 174.724 37.58H173.144C173.13 37.0867 173.017 36.6933 172.804 36.4C172.604 36.1067 172.324 35.8933 171.964 35.76C171.617 35.6133 171.197 35.54 170.704 35.54C169.957 35.54 169.377 35.6933 168.964 36C168.55 36.3067 168.344 36.7133 168.344 37.22C168.344 37.6067 168.444 37.92 168.644 38.16C168.844 38.3867 169.15 38.5667 169.564 38.7C169.977 38.82 170.51 38.9267 171.164 39.02C171.75 39.1 172.277 39.2067 172.744 39.34C173.21 39.4733 173.604 39.66 173.924 39.9C174.257 40.1267 174.504 40.42 174.664 40.78C174.837 41.1267 174.924 41.56 174.924 42.08C174.924 43.08 174.537 43.8533 173.764 44.4C173.004 44.9333 171.99 45.2 170.724 45.2ZM180.923 45.18C180.15 45.18 179.476 45.0267 178.903 44.72C178.33 44.4 177.89 43.9267 177.583 43.3C177.276 42.66 177.123 41.8733 177.123 40.94V34.5H178.743V40.54C178.743 41.2333 178.836 41.8267 179.023 42.32C179.21 42.8 179.503 43.1667 179.903 43.42C180.316 43.6733 180.843 43.8 181.483 43.8C182.11 43.8 182.663 43.6467 183.143 43.34C183.623 43.0333 183.996 42.6 184.263 42.04C184.53 41.48 184.663 40.8333 184.663 40.1V34.5H186.283V45H184.743L184.663 42.76H184.563C184.283 43.5067 183.816 44.1 183.163 44.54C182.51 44.9667 181.763 45.18 180.923 45.18ZM189.215 45V34.5H190.755L190.815 36.68H190.935C191.242 35.9067 191.722 35.3267 192.375 34.94C193.029 34.54 193.749 34.34 194.535 34.34C195.335 34.34 196.042 34.5333 196.655 34.92C197.269 35.3067 197.709 35.9533 197.975 36.86H198.135C198.442 36.02 198.935 35.3933 199.615 34.98C200.309 34.5533 201.082 34.34 201.935 34.34C202.642 34.34 203.269 34.4867 203.815 34.78C204.375 35.0733 204.815 35.5533 205.135 36.22C205.455 36.8733 205.615 37.74 205.615 38.82V45H204.015V39.14C204.015 38.3533 203.915 37.7067 203.715 37.2C203.529 36.6933 203.242 36.32 202.855 36.08C202.482 35.8267 201.989 35.7 201.375 35.7C200.749 35.7 200.195 35.86 199.715 36.18C199.249 36.5 198.882 36.9333 198.615 37.48C198.362 38.0133 198.235 38.6267 198.235 39.32V45H196.595V39.14C196.595 38.3533 196.502 37.7067 196.315 37.2C196.129 36.6933 195.842 36.32 195.455 36.08C195.082 35.8267 194.595 35.7 193.995 35.7C193.355 35.7 192.795 35.86 192.315 36.18C191.849 36.5 191.482 36.9333 191.215 37.48C190.949 38.0133 190.815 38.6267 190.815 39.32V45H189.215ZM216.702 45.18C216.062 45.18 215.475 45.06 214.942 44.82C214.422 44.5667 213.968 44.2133 213.582 43.76C213.195 43.2933 212.895 42.7267 212.682 42.06C212.482 41.38 212.382 40.6067 212.382 39.74C212.382 38.5933 212.562 37.6133 212.922 36.8C213.295 35.9867 213.802 35.3733 214.442 34.96C215.095 34.5333 215.848 34.32 216.702 34.32C217.315 34.32 217.868 34.42 218.362 34.62C218.868 34.8067 219.295 35.08 219.642 35.44C219.988 35.7867 220.248 36.2 220.422 36.68H220.522V30.42H222.142L222.122 45H220.582L220.522 42.8H220.422C220.155 43.5067 219.702 44.08 219.062 44.52C218.422 44.96 217.635 45.18 216.702 45.18ZM217.242 43.82C217.948 43.82 218.542 43.6533 219.022 43.32C219.502 42.9867 219.868 42.56 220.122 42.04C220.375 41.52 220.502 40.9667 220.502 40.38V39.1C220.502 38.66 220.428 38.24 220.282 37.84C220.135 37.4267 219.928 37.06 219.662 36.74C219.395 36.4067 219.055 36.1467 218.642 35.96C218.242 35.76 217.775 35.66 217.242 35.66C216.602 35.66 216.042 35.82 215.562 36.14C215.082 36.4467 214.708 36.9 214.442 37.5C214.175 38.1 214.042 38.8467 214.042 39.74C214.042 40.62 214.175 41.3667 214.442 41.98C214.708 42.58 215.082 43.04 215.562 43.36C216.042 43.6667 216.602 43.82 217.242 43.82ZM229.512 45.18C228.752 45.18 228.059 45.0533 227.432 44.8C226.819 44.5467 226.286 44.18 225.832 43.7C225.392 43.22 225.046 42.6533 224.792 42C224.552 41.3333 224.432 40.5933 224.432 39.78C224.432 38.7 224.639 37.7533 225.052 36.94C225.466 36.1267 226.052 35.4933 226.812 35.04C227.586 34.5733 228.486 34.34 229.512 34.34C230.272 34.34 230.959 34.4667 231.572 34.72C232.199 34.96 232.732 35.32 233.172 35.8C233.612 36.28 233.952 36.8533 234.192 37.52C234.432 38.1867 234.552 38.9333 234.552 39.76C234.552 40.8267 234.346 41.7667 233.932 42.58C233.532 43.3933 232.952 44.0333 232.192 44.5C231.432 44.9533 230.539 45.18 229.512 45.18ZM229.512 43.78C230.192 43.78 230.786 43.6267 231.292 43.32C231.799 43 232.192 42.54 232.472 41.94C232.766 41.3267 232.912 40.6 232.912 39.76C232.912 39.1333 232.832 38.5733 232.672 38.08C232.512 37.5733 232.286 37.1467 231.992 36.8C231.699 36.44 231.346 36.1667 230.932 35.98C230.519 35.7933 230.046 35.7 229.512 35.7C228.832 35.7 228.232 35.8667 227.712 36.2C227.206 36.52 226.806 36.98 226.512 37.58C226.232 38.18 226.092 38.9133 226.092 39.78C226.092 40.3933 226.166 40.9533 226.312 41.46C226.472 41.9533 226.699 42.3733 226.992 42.72C227.299 43.0667 227.666 43.3333 228.092 43.52C228.519 43.6933 228.992 43.78 229.512 43.78ZM236.852 45V30.42H238.472V45H236.852ZM245.86 45.18C245.1 45.18 244.407 45.0533 243.78 44.8C243.167 44.5467 242.633 44.18 242.18 43.7C241.74 43.22 241.393 42.6533 241.14 42C240.9 41.3333 240.78 40.5933 240.78 39.78C240.78 38.7 240.987 37.7533 241.4 36.94C241.813 36.1267 242.4 35.4933 243.16 35.04C243.933 34.5733 244.833 34.34 245.86 34.34C246.62 34.34 247.307 34.4667 247.92 34.72C248.547 34.96 249.08 35.32 249.52 35.8C249.96 36.28 250.3 36.8533 250.54 37.52C250.78 38.1867 250.9 38.9333 250.9 39.76C250.9 40.8267 250.693 41.7667 250.28 42.58C249.88 43.3933 249.3 44.0333 248.54 44.5C247.78 44.9533 246.887 45.18 245.86 45.18ZM245.86 43.78C246.54 43.78 247.133 43.6267 247.64 43.32C248.147 43 248.54 42.54 248.82 41.94C249.113 41.3267 249.26 40.6 249.26 39.76C249.26 39.1333 249.18 38.5733 249.02 38.08C248.86 37.5733 248.633 37.1467 248.34 36.8C248.047 36.44 247.693 36.1667 247.28 35.98C246.867 35.7933 246.393 35.7 245.86 35.7C245.18 35.7 244.58 35.8667 244.06 36.2C243.553 36.52 243.153 36.98 242.86 37.58C242.58 38.18 242.44 38.9133 242.44 39.78C242.44 40.3933 242.513 40.9533 242.66 41.46C242.82 41.9533 243.047 42.3733 243.34 42.72C243.647 43.0667 244.013 43.3333 244.44 43.52C244.867 43.6933 245.34 43.78 245.86 43.78ZM253.2 45V34.5H254.64L254.74 36.44H254.82C255.046 35.7733 255.446 35.26 256.02 34.9C256.593 34.54 257.233 34.36 257.94 34.36C258.06 34.36 258.173 34.3667 258.28 34.38C258.386 34.38 258.486 34.3867 258.58 34.4V35.94C258.486 35.9267 258.386 35.92 258.28 35.92C258.173 35.9067 258.06 35.9 257.94 35.9C257.326 35.9 256.793 36.0133 256.34 36.24C255.886 36.4667 255.526 36.7933 255.26 37.22C255.006 37.6333 254.853 38.14 254.8 38.74V45H253.2ZM268.575 45.2C267.682 45.2 266.908 45.0533 266.255 44.76C265.615 44.4667 265.122 44.06 264.775 43.54C264.442 43.02 264.275 42.4133 264.275 41.72H265.895C265.895 42.4933 266.142 43.0667 266.635 43.44C267.142 43.8 267.802 43.98 268.615 43.98C269.428 43.98 270.048 43.8267 270.475 43.52C270.915 43.2133 271.135 42.78 271.135 42.22C271.135 41.7933 271.042 41.4667 270.855 41.24C270.668 41 270.382 40.8133 269.995 40.68C269.608 40.5467 269.102 40.4333 268.475 40.34C267.608 40.22 266.882 40.0533 266.295 39.84C265.722 39.6267 265.288 39.3267 264.995 38.94C264.715 38.54 264.575 38.02 264.575 37.38C264.575 36.7667 264.742 36.2333 265.075 35.78C265.408 35.3133 265.875 34.9533 266.475 34.7C267.075 34.4333 267.775 34.3 268.575 34.3C269.415 34.3 270.128 34.44 270.715 34.72C271.315 34.9867 271.768 35.3667 272.075 35.86C272.395 36.34 272.562 36.9133 272.575 37.58H270.995C270.982 37.0867 270.868 36.6933 270.655 36.4C270.455 36.1067 270.175 35.8933 269.815 35.76C269.468 35.6133 269.048 35.54 268.555 35.54C267.808 35.54 267.228 35.6933 266.815 36C266.402 36.3067 266.195 36.7133 266.195 37.22C266.195 37.6067 266.295 37.92 266.495 38.16C266.695 38.3867 267.002 38.5667 267.415 38.7C267.828 38.82 268.362 38.9267 269.015 39.02C269.602 39.1 270.128 39.2067 270.595 39.34C271.062 39.4733 271.455 39.66 271.775 39.9C272.108 40.1267 272.355 40.42 272.515 40.78C272.688 41.1267 272.775 41.56 272.775 42.08C272.775 43.08 272.388 43.8533 271.615 44.4C270.855 44.9333 269.842 45.2 268.575 45.2ZM275.075 45V34.5H276.695V45H275.075ZM275.075 32.76V30.42H276.695V32.76H275.075ZM282.523 45C282.003 45 281.589 44.9267 281.283 44.78C280.989 44.6333 280.776 44.4133 280.643 44.12C280.523 43.8133 280.463 43.44 280.463 43V35.84H278.423V34.5H280.463V31.36L282.083 31.14V34.5H284.523V35.84H282.083V42.72C282.083 43.0933 282.149 43.34 282.283 43.46C282.416 43.58 282.663 43.64 283.023 43.64H284.523V45H282.523Z" fill="#16191C"/>
<rect y="90" width="471" height="75" rx="15" fill="#F5F5F5"/>
<g filter="url(#filter1_b_944_17509)">
<rect x="10" y="100" width="55" height="55" rx="10" fill="#FF7500"/>
</g>
<path d="M48 125.556C48 120.83 44.1695 117 39.4444 117V125.556H48Z" stroke="white" stroke-width="2" stroke-linejoin="round"/>
<path d="M43.1111 130.444C43.1111 135.17 39.2807 139 34.5556 139C29.8305 139 26 135.17 26 130.444C26 125.719 29.8305 121.889 34.5556 121.889V130.444H43.1111Z" stroke="white" stroke-width="2" stroke-linejoin="round"/>
<path d="M86.86 135V120.42H88.56V133.92L88.16 133.44H95.76V135H86.86ZM101.563 135.18C100.803 135.18 100.11 135.053 99.4831 134.8C98.8698 134.547 98.3365 134.18 97.8831 133.7C97.4431 133.22 97.0965 132.653 96.8431 132C96.6031 131.333 96.4831 130.593 96.4831 129.78C96.4831 128.7 96.6898 127.753 97.1031 126.94C97.5165 126.127 98.1031 125.493 98.8631 125.04C99.6365 124.573 100.536 124.34 101.563 124.34C102.323 124.34 103.01 124.467 103.623 124.72C104.25 124.96 104.783 125.32 105.223 125.8C105.663 126.28 106.003 126.853 106.243 127.52C106.483 128.187 106.603 128.933 106.603 129.76C106.603 130.827 106.396 131.767 105.983 132.58C105.583 133.393 105.003 134.033 104.243 134.5C103.483 134.953 102.59 135.18 101.563 135.18ZM101.563 133.78C102.243 133.78 102.836 133.627 103.343 133.32C103.85 133 104.243 132.54 104.523 131.94C104.816 131.327 104.963 130.6 104.963 129.76C104.963 129.133 104.883 128.573 104.723 128.08C104.563 127.573 104.336 127.147 104.043 126.8C103.75 126.44 103.396 126.167 102.983 125.98C102.57 125.793 102.096 125.7 101.563 125.7C100.883 125.7 100.283 125.867 99.7631 126.2C99.2565 126.52 98.8565 126.98 98.5631 127.58C98.2831 128.18 98.1431 128.913 98.1431 129.78C98.1431 130.393 98.2165 130.953 98.3631 131.46C98.5231 131.953 98.7498 132.373 99.0431 132.72C99.3498 133.067 99.7165 133.333 100.143 133.52C100.57 133.693 101.043 133.78 101.563 133.78ZM108.903 135V124.5H110.343L110.443 126.44H110.523C110.749 125.773 111.149 125.26 111.723 124.9C112.296 124.54 112.936 124.36 113.643 124.36C113.763 124.36 113.876 124.367 113.983 124.38C114.089 124.38 114.189 124.387 114.283 124.4V125.94C114.189 125.927 114.089 125.92 113.983 125.92C113.876 125.907 113.763 125.9 113.643 125.9C113.029 125.9 112.496 126.013 112.043 126.24C111.589 126.467 111.229 126.793 110.963 127.22C110.709 127.633 110.556 128.14 110.503 128.74V135H108.903ZM119.817 135.18C118.817 135.18 117.957 134.96 117.237 134.52C116.531 134.08 115.991 133.453 115.617 132.64C115.244 131.827 115.057 130.88 115.057 129.8C115.057 128.693 115.244 127.733 115.617 126.92C115.991 126.093 116.524 125.46 117.217 125.02C117.911 124.567 118.757 124.34 119.757 124.34C120.824 124.34 121.704 124.58 122.397 125.06C123.091 125.54 123.591 126.207 123.897 127.06C124.217 127.913 124.337 128.9 124.257 130.02H116.637C116.651 130.887 116.784 131.613 117.037 132.2C117.304 132.773 117.671 133.207 118.137 133.5C118.617 133.78 119.177 133.92 119.817 133.92C120.591 133.92 121.224 133.727 121.717 133.34C122.211 132.953 122.524 132.447 122.657 131.82H124.197C124.117 132.527 123.871 133.133 123.457 133.64C123.057 134.147 122.537 134.533 121.897 134.8C121.271 135.053 120.577 135.18 119.817 135.18ZM116.657 129.1L116.477 128.86H122.857L122.677 129.14C122.691 128.3 122.577 127.627 122.337 127.12C122.097 126.6 121.751 126.22 121.297 125.98C120.857 125.727 120.344 125.6 119.757 125.6C119.144 125.6 118.611 125.733 118.157 126C117.704 126.267 117.344 126.66 117.077 127.18C116.824 127.687 116.684 128.327 116.657 129.1ZM126.559 135V124.5H128.099L128.159 126.68H128.279C128.586 125.907 129.066 125.327 129.719 124.94C130.372 124.54 131.092 124.34 131.879 124.34C132.679 124.34 133.386 124.533 133.999 124.92C134.612 125.307 135.052 125.953 135.319 126.86H135.479C135.786 126.02 136.279 125.393 136.959 124.98C137.652 124.553 138.426 124.34 139.279 124.34C139.986 124.34 140.612 124.487 141.159 124.78C141.719 125.073 142.159 125.553 142.479 126.22C142.799 126.873 142.959 127.74 142.959 128.82V135H141.359V129.14C141.359 128.353 141.259 127.707 141.059 127.2C140.872 126.693 140.586 126.32 140.199 126.08C139.826 125.827 139.332 125.7 138.719 125.7C138.092 125.7 137.539 125.86 137.059 126.18C136.592 126.5 136.226 126.933 135.959 127.48C135.706 128.013 135.579 128.627 135.579 129.32V135H133.939V129.14C133.939 128.353 133.846 127.707 133.659 127.2C133.472 126.693 133.186 126.32 132.799 126.08C132.426 125.827 131.939 125.7 131.339 125.7C130.699 125.7 130.139 125.86 129.659 126.18C129.192 126.5 128.826 126.933 128.559 127.48C128.292 128.013 128.159 128.627 128.159 129.32V135H126.559ZM150.465 135V124.5H152.085V135H150.465ZM150.465 122.76V120.42H152.085V122.76H150.465ZM155.133 138.34L155.153 124.5H156.693L156.753 126.68H156.873C157.127 125.973 157.573 125.407 158.213 124.98C158.867 124.54 159.653 124.32 160.573 124.32C161.213 124.32 161.793 124.44 162.313 124.68C162.847 124.92 163.307 125.273 163.693 125.74C164.08 126.207 164.373 126.78 164.573 127.46C164.787 128.127 164.893 128.893 164.893 129.76C164.893 130.907 164.713 131.887 164.353 132.7C163.993 133.5 163.487 134.113 162.833 134.54C162.193 134.967 161.44 135.18 160.573 135.18C159.973 135.18 159.42 135.087 158.913 134.9C158.42 134.7 158 134.42 157.653 134.06C157.307 133.7 157.047 133.287 156.873 132.82H156.753V138.34H155.133ZM160.033 133.82C160.673 133.82 161.233 133.667 161.713 133.36C162.193 133.053 162.567 132.6 162.833 132C163.113 131.387 163.253 130.64 163.253 129.76C163.253 128.867 163.113 128.12 162.833 127.52C162.567 126.92 162.193 126.467 161.713 126.16C161.233 125.84 160.673 125.68 160.033 125.68C159.34 125.68 158.747 125.847 158.253 126.18C157.773 126.5 157.407 126.927 157.153 127.46C156.9 127.98 156.773 128.533 156.773 129.12V130.38C156.773 130.82 156.847 131.247 156.993 131.66C157.14 132.073 157.347 132.447 157.613 132.78C157.893 133.1 158.233 133.353 158.633 133.54C159.047 133.727 159.513 133.82 160.033 133.82ZM170.724 135.2C169.83 135.2 169.057 135.053 168.404 134.76C167.764 134.467 167.27 134.06 166.924 133.54C166.59 133.02 166.424 132.413 166.424 131.72H168.044C168.044 132.493 168.29 133.067 168.784 133.44C169.29 133.8 169.95 133.98 170.764 133.98C171.577 133.98 172.197 133.827 172.624 133.52C173.064 133.213 173.284 132.78 173.284 132.22C173.284 131.793 173.19 131.467 173.004 131.24C172.817 131 172.53 130.813 172.144 130.68C171.757 130.547 171.25 130.433 170.624 130.34C169.757 130.22 169.03 130.053 168.444 129.84C167.87 129.627 167.437 129.327 167.144 128.94C166.864 128.54 166.724 128.02 166.724 127.38C166.724 126.767 166.89 126.233 167.224 125.78C167.557 125.313 168.024 124.953 168.624 124.7C169.224 124.433 169.924 124.3 170.724 124.3C171.564 124.3 172.277 124.44 172.864 124.72C173.464 124.987 173.917 125.367 174.224 125.86C174.544 126.34 174.71 126.913 174.724 127.58H173.144C173.13 127.087 173.017 126.693 172.804 126.4C172.604 126.107 172.324 125.893 171.964 125.76C171.617 125.613 171.197 125.54 170.704 125.54C169.957 125.54 169.377 125.693 168.964 126C168.55 126.307 168.344 126.713 168.344 127.22C168.344 127.607 168.444 127.92 168.644 128.16C168.844 128.387 169.15 128.567 169.564 128.7C169.977 128.82 170.51 128.927 171.164 129.02C171.75 129.1 172.277 129.207 172.744 129.34C173.21 129.473 173.604 129.66 173.924 129.9C174.257 130.127 174.504 130.42 174.664 130.78C174.837 131.127 174.924 131.56 174.924 132.08C174.924 133.08 174.537 133.853 173.764 134.4C173.004 134.933 171.99 135.2 170.724 135.2ZM180.923 135.18C180.15 135.18 179.476 135.027 178.903 134.72C178.33 134.4 177.89 133.927 177.583 133.3C177.276 132.66 177.123 131.873 177.123 130.94V124.5H178.743V130.54C178.743 131.233 178.836 131.827 179.023 132.32C179.21 132.8 179.503 133.167 179.903 133.42C180.316 133.673 180.843 133.8 181.483 133.8C182.11 133.8 182.663 133.647 183.143 133.34C183.623 133.033 183.996 132.6 184.263 132.04C184.53 131.48 184.663 130.833 184.663 130.1V124.5H186.283V135H184.743L184.663 132.76H184.563C184.283 133.507 183.816 134.1 183.163 134.54C182.51 134.967 181.763 135.18 180.923 135.18ZM189.215 135V124.5H190.755L190.815 126.68H190.935C191.242 125.907 191.722 125.327 192.375 124.94C193.029 124.54 193.749 124.34 194.535 124.34C195.335 124.34 196.042 124.533 196.655 124.92C197.269 125.307 197.709 125.953 197.975 126.86H198.135C198.442 126.02 198.935 125.393 199.615 124.98C200.309 124.553 201.082 124.34 201.935 124.34C202.642 124.34 203.269 124.487 203.815 124.78C204.375 125.073 204.815 125.553 205.135 126.22C205.455 126.873 205.615 127.74 205.615 128.82V135H204.015V129.14C204.015 128.353 203.915 127.707 203.715 127.2C203.529 126.693 203.242 126.32 202.855 126.08C202.482 125.827 201.989 125.7 201.375 125.7C200.749 125.7 200.195 125.86 199.715 126.18C199.249 126.5 198.882 126.933 198.615 127.48C198.362 128.013 198.235 128.627 198.235 129.32V135H196.595V129.14C196.595 128.353 196.502 127.707 196.315 127.2C196.129 126.693 195.842 126.32 195.455 126.08C195.082 125.827 194.595 125.7 193.995 125.7C193.355 125.7 192.795 125.86 192.315 126.18C191.849 126.5 191.482 126.933 191.215 127.48C190.949 128.013 190.815 128.627 190.815 129.32V135H189.215ZM216.702 135.18C216.062 135.18 215.475 135.06 214.942 134.82C214.422 134.567 213.968 134.213 213.582 133.76C213.195 133.293 212.895 132.727 212.682 132.06C212.482 131.38 212.382 130.607 212.382 129.74C212.382 128.593 212.562 127.613 212.922 126.8C213.295 125.987 213.802 125.373 214.442 124.96C215.095 124.533 215.848 124.32 216.702 124.32C217.315 124.32 217.868 124.42 218.362 124.62C218.868 124.807 219.295 125.08 219.642 125.44C219.988 125.787 220.248 126.2 220.422 126.68H220.522V120.42H222.142L222.122 135H220.582L220.522 132.8H220.422C220.155 133.507 219.702 134.08 219.062 134.52C218.422 134.96 217.635 135.18 216.702 135.18ZM217.242 133.82C217.948 133.82 218.542 133.653 219.022 133.32C219.502 132.987 219.868 132.56 220.122 132.04C220.375 131.52 220.502 130.967 220.502 130.38V129.1C220.502 128.66 220.428 128.24 220.282 127.84C220.135 127.427 219.928 127.06 219.662 126.74C219.395 126.407 219.055 126.147 218.642 125.96C218.242 125.76 217.775 125.66 217.242 125.66C216.602 125.66 216.042 125.82 215.562 126.14C215.082 126.447 214.708 126.9 214.442 127.5C214.175 128.1 214.042 128.847 214.042 129.74C214.042 130.62 214.175 131.367 214.442 131.98C214.708 132.58 215.082 133.04 215.562 133.36C216.042 133.667 216.602 133.82 217.242 133.82ZM229.512 135.18C228.752 135.18 228.059 135.053 227.432 134.8C226.819 134.547 226.286 134.18 225.832 133.7C225.392 133.22 225.046 132.653 224.792 132C224.552 131.333 224.432 130.593 224.432 129.78C224.432 128.7 224.639 127.753 225.052 126.94C225.466 126.127 226.052 125.493 226.812 125.04C227.586 124.573 228.486 124.34 229.512 124.34C230.272 124.34 230.959 124.467 231.572 124.72C232.199 124.96 232.732 125.32 233.172 125.8C233.612 126.28 233.952 126.853 234.192 127.52C234.432 128.187 234.552 128.933 234.552 129.76C234.552 130.827 234.346 131.767 233.932 132.58C233.532 133.393 232.952 134.033 232.192 134.5C231.432 134.953 230.539 135.18 229.512 135.18ZM229.512 133.78C230.192 133.78 230.786 133.627 231.292 133.32C231.799 133 232.192 132.54 232.472 131.94C232.766 131.327 232.912 130.6 232.912 129.76C232.912 129.133 232.832 128.573 232.672 128.08C232.512 127.573 232.286 127.147 231.992 126.8C231.699 126.44 231.346 126.167 230.932 125.98C230.519 125.793 230.046 125.7 229.512 125.7C228.832 125.7 228.232 125.867 227.712 126.2C227.206 126.52 226.806 126.98 226.512 127.58C226.232 128.18 226.092 128.913 226.092 129.78C226.092 130.393 226.166 130.953 226.312 131.46C226.472 131.953 226.699 132.373 226.992 132.72C227.299 133.067 227.666 133.333 228.092 133.52C228.519 133.693 228.992 133.78 229.512 133.78ZM236.852 135V120.42H238.472V135H236.852ZM245.86 135.18C245.1 135.18 244.407 135.053 243.78 134.8C243.167 134.547 242.633 134.18 242.18 133.7C241.74 133.22 241.393 132.653 241.14 132C240.9 131.333 240.78 130.593 240.78 129.78C240.78 128.7 240.987 127.753 241.4 126.94C241.813 126.127 242.4 125.493 243.16 125.04C243.933 124.573 244.833 124.34 245.86 124.34C246.62 124.34 247.307 124.467 247.92 124.72C248.547 124.96 249.08 125.32 249.52 125.8C249.96 126.28 250.3 126.853 250.54 127.52C250.78 128.187 250.9 128.933 250.9 129.76C250.9 130.827 250.693 131.767 250.28 132.58C249.88 133.393 249.3 134.033 248.54 134.5C247.78 134.953 246.887 135.18 245.86 135.18ZM245.86 133.78C246.54 133.78 247.133 133.627 247.64 133.32C248.147 133 248.54 132.54 248.82 131.94C249.113 131.327 249.26 130.6 249.26 129.76C249.26 129.133 249.18 128.573 249.02 128.08C248.86 127.573 248.633 127.147 248.34 126.8C248.047 126.44 247.693 126.167 247.28 125.98C246.867 125.793 246.393 125.7 245.86 125.7C245.18 125.7 244.58 125.867 244.06 126.2C243.553 126.52 243.153 126.98 242.86 127.58C242.58 128.18 242.44 128.913 242.44 129.78C242.44 130.393 242.513 130.953 242.66 131.46C242.82 131.953 243.047 132.373 243.34 132.72C243.647 133.067 244.013 133.333 244.44 133.52C244.867 133.693 245.34 133.78 245.86 133.78ZM253.2 135V124.5H254.64L254.74 126.44H254.82C255.046 125.773 255.446 125.26 256.02 124.9C256.593 124.54 257.233 124.36 257.94 124.36C258.06 124.36 258.173 124.367 258.28 124.38C258.386 124.38 258.486 124.387 258.58 124.4V125.94C258.486 125.927 258.386 125.92 258.28 125.92C258.173 125.907 258.06 125.9 257.94 125.9C257.326 125.9 256.793 126.013 256.34 126.24C255.886 126.467 255.526 126.793 255.26 127.22C255.006 127.633 254.853 128.14 254.8 128.74V135H253.2Z" fill="#16191C"/>
<rect y="180" width="471" height="75" rx="15" fill="#F5F5F5"/>
<g filter="url(#filter2_b_944_17509)">
<rect x="10" y="190" width="55" height="55" rx="10" fill="#FF7500"/>
</g>
<path d="M43.6 215.556L48 218L43.6 220.444M43.6 215.556L37 219.222L30.4 215.556M43.6 215.556L48 213.111L37 207L26 213.111L30.4 215.556M30.4 215.556L26 218L30.4 220.444M30.4 220.444L26 222.889L37 229L48 222.889L43.6 220.444M30.4 220.444L37 224.111L43.6 220.444" stroke="white" stroke-width="2" stroke-linecap="round" stroke-linejoin="round"/>
<path d="M86.86 225V210.42H88.56V223.92L88.16 223.44H95.76V225H86.86ZM101.563 225.18C100.803 225.18 100.11 225.053 99.4831 224.8C98.8698 224.547 98.3365 224.18 97.8831 223.7C97.4431 223.22 97.0965 222.653 96.8431 222C96.6031 221.333 96.4831 220.593 96.4831 219.78C96.4831 218.7 96.6898 217.753 97.1031 216.94C97.5165 216.127 98.1031 215.493 98.8631 215.04C99.6365 214.573 100.536 214.34 101.563 214.34C102.323 214.34 103.01 214.467 103.623 214.72C104.25 214.96 104.783 215.32 105.223 215.8C105.663 216.28 106.003 216.853 106.243 217.52C106.483 218.187 106.603 218.933 106.603 219.76C106.603 220.827 106.396 221.767 105.983 222.58C105.583 223.393 105.003 224.033 104.243 224.5C103.483 224.953 102.59 225.18 101.563 225.18ZM101.563 223.78C102.243 223.78 102.836 223.627 103.343 223.32C103.85 223 104.243 222.54 104.523 221.94C104.816 221.327 104.963 220.6 104.963 219.76C104.963 219.133 104.883 218.573 104.723 218.08C104.563 217.573 104.336 217.147 104.043 216.8C103.75 216.44 103.396 216.167 102.983 215.98C102.57 215.793 102.096 215.7 101.563 215.7C100.883 215.7 100.283 215.867 99.7631 216.2C99.2565 216.52 98.8565 216.98 98.5631 217.58C98.2831 218.18 98.1431 218.913 98.1431 219.78C98.1431 220.393 98.2165 220.953 98.3631 221.46C98.5231 221.953 98.7498 222.373 99.0431 222.72C99.3498 223.067 99.7165 223.333 100.143 223.52C100.57 223.693 101.043 223.78 101.563 223.78ZM108.903 225V214.5H110.343L110.443 216.44H110.523C110.749 215.773 111.149 215.26 111.723 214.9C112.296 214.54 112.936 214.36 113.643 214.36C113.763 214.36 113.876 214.367 113.983 214.38C114.089 214.38 114.189 214.387 114.283 214.4V215.94C114.189 215.927 114.089 215.92 113.983 215.92C113.876 215.907 113.763 215.9 113.643 215.9C113.029 215.9 112.496 216.013 112.043 216.24C111.589 216.467 111.229 216.793 110.963 217.22C110.709 217.633 110.556 218.14 110.503 218.74V225H108.903ZM119.817 225.18C118.817 225.18 117.957 224.96 117.237 224.52C116.531 224.08 115.991 223.453 115.617 222.64C115.244 221.827 115.057 220.88 115.057 219.8C115.057 218.693 115.244 217.733 115.617 216.92C115.991 216.093 116.524 215.46 117.217 215.02C117.911 214.567 118.757 214.34 119.757 214.34C120.824 214.34 121.704 214.58 122.397 215.06C123.091 215.54 123.591 216.207 123.897 217.06C124.217 217.913 124.337 218.9 124.257 220.02H116.637C116.651 220.887 116.784 221.613 117.037 222.2C117.304 222.773 117.671 223.207 118.137 223.5C118.617 223.78 119.177 223.92 119.817 223.92C120.591 223.92 121.224 223.727 121.717 223.34C122.211 222.953 122.524 222.447 122.657 221.82H124.197C124.117 222.527 123.871 223.133 123.457 223.64C123.057 224.147 122.537 224.533 121.897 224.8C121.271 225.053 120.577 225.18 119.817 225.18ZM116.657 219.1L116.477 218.86H122.857L122.677 219.14C122.691 218.3 122.577 217.627 122.337 217.12C122.097 216.6 121.751 216.22 121.297 215.98C120.857 215.727 120.344 215.6 119.757 215.6C119.144 215.6 118.611 215.733 118.157 216C117.704 216.267 117.344 216.66 117.077 217.18C116.824 217.687 116.684 218.327 116.657 219.1ZM126.559 225V214.5H128.099L128.159 216.68H128.279C128.586 215.907 129.066 215.327 129.719 214.94C130.372 214.54 131.092 214.34 131.879 214.34C132.679 214.34 133.386 214.533 133.999 214.92C134.612 215.307 135.052 215.953 135.319 216.86H135.479C135.786 216.02 136.279 215.393 136.959 214.98C137.652 214.553 138.426 214.34 139.279 214.34C139.986 214.34 140.612 214.487 141.159 214.78C141.719 215.073 142.159 215.553 142.479 216.22C142.799 216.873 142.959 217.74 142.959 218.82V225H141.359V219.14C141.359 218.353 141.259 217.707 141.059 217.2C140.872 216.693 140.586 216.32 140.199 216.08C139.826 215.827 139.332 215.7 138.719 215.7C138.092 215.7 137.539 215.86 137.059 216.18C136.592 216.5 136.226 216.933 135.959 217.48C135.706 218.013 135.579 218.627 135.579 219.32V225H133.939V219.14C133.939 218.353 133.846 217.707 133.659 217.2C133.472 216.693 133.186 216.32 132.799 216.08C132.426 215.827 131.939 215.7 131.339 215.7C130.699 215.7 130.139 215.86 129.659 216.18C129.192 216.5 128.826 216.933 128.559 217.48C128.292 218.013 128.159 218.627 128.159 219.32V225H126.559ZM150.465 225V214.5H152.085V225H150.465ZM150.465 212.76V210.42H152.085V212.76H150.465ZM155.133 228.34L155.153 214.5H156.693L156.753 216.68H156.873C157.127 215.973 157.573 215.407 158.213 214.98C158.867 214.54 159.653 214.32 160.573 214.32C161.213 214.32 161.793 214.44 162.313 214.68C162.847 214.92 163.307 215.273 163.693 215.74C164.08 216.207 164.373 216.78 164.573 217.46C164.787 218.127 164.893 218.893 164.893 219.76C164.893 220.907 164.713 221.887 164.353 222.7C163.993 223.5 163.487 224.113 162.833 224.54C162.193 224.967 161.44 225.18 160.573 225.18C159.973 225.18 159.42 225.087 158.913 224.9C158.42 224.7 158 224.42 157.653 224.06C157.307 223.7 157.047 223.287 156.873 222.82H156.753V228.34H155.133ZM160.033 223.82C160.673 223.82 161.233 223.667 161.713 223.36C162.193 223.053 162.567 222.6 162.833 222C163.113 221.387 163.253 220.64 163.253 219.76C163.253 218.867 163.113 218.12 162.833 217.52C162.567 216.92 162.193 216.467 161.713 216.16C161.233 215.84 160.673 215.68 160.033 215.68C159.34 215.68 158.747 215.847 158.253 216.18C157.773 216.5 157.407 216.927 157.153 217.46C156.9 217.98 156.773 218.533 156.773 219.12V220.38C156.773 220.82 156.847 221.247 156.993 221.66C157.14 222.073 157.347 222.447 157.613 222.78C157.893 223.1 158.233 223.353 158.633 223.54C159.047 223.727 159.513 223.82 160.033 223.82ZM170.724 225.2C169.83 225.2 169.057 225.053 168.404 224.76C167.764 224.467 167.27 224.06 166.924 223.54C166.59 223.02 166.424 222.413 166.424 221.72H168.044C168.044 222.493 168.29 223.067 168.784 223.44C169.29 223.8 169.95 223.98 170.764 223.98C171.577 223.98 172.197 223.827 172.624 223.52C173.064 223.213 173.284 222.78 173.284 222.22C173.284 221.793 173.19 221.467 173.004 221.24C172.817 221 172.53 220.813 172.144 220.68C171.757 220.547 171.25 220.433 170.624 220.34C169.757 220.22 169.03 220.053 168.444 219.84C167.87 219.627 167.437 219.327 167.144 218.94C166.864 218.54 166.724 218.02 166.724 217.38C166.724 216.767 166.89 216.233 167.224 215.78C167.557 215.313 168.024 214.953 168.624 214.7C169.224 214.433 169.924 214.3 170.724 214.3C171.564 214.3 172.277 214.44 172.864 214.72C173.464 214.987 173.917 215.367 174.224 215.86C174.544 216.34 174.71 216.913 174.724 217.58H173.144C173.13 217.087 173.017 216.693 172.804 216.4C172.604 216.107 172.324 215.893 171.964 215.76C171.617 215.613 171.197 215.54 170.704 215.54C169.957 215.54 169.377 215.693 168.964 216C168.55 216.307 168.344 216.713 168.344 217.22C168.344 217.607 168.444 217.92 168.644 218.16C168.844 218.387 169.15 218.567 169.564 218.7C169.977 218.82 170.51 218.927 171.164 219.02C171.75 219.1 172.277 219.207 172.744 219.34C173.21 219.473 173.604 219.66 173.924 219.9C174.257 220.127 174.504 220.42 174.664 220.78C174.837 221.127 174.924 221.56 174.924 222.08C174.924 223.08 174.537 223.853 173.764 224.4C173.004 224.933 171.99 225.2 170.724 225.2ZM180.923 225.18C180.15 225.18 179.476 225.027 178.903 224.72C178.33 224.4 177.89 223.927 177.583 223.3C177.276 222.66 177.123 221.873 177.123 220.94V214.5H178.743V220.54C178.743 221.233 178.836 221.827 179.023 222.32C179.21 222.8 179.503 223.167 179.903 223.42C180.316 223.673 180.843 223.8 181.483 223.8C182.11 223.8 182.663 223.647 183.143 223.34C183.623 223.033 183.996 222.6 184.263 222.04C184.53 221.48 184.663 220.833 184.663 220.1V214.5H186.283V225H184.743L184.663 222.76H184.563C184.283 223.507 183.816 224.1 183.163 224.54C182.51 224.967 181.763 225.18 180.923 225.18ZM189.215 225V214.5H190.755L190.815 216.68H190.935C191.242 215.907 191.722 215.327 192.375 214.94C193.029 214.54 193.749 214.34 194.535 214.34C195.335 214.34 196.042 214.533 196.655 214.92C197.269 215.307 197.709 215.953 197.975 216.86H198.135C198.442 216.02 198.935 215.393 199.615 214.98C200.309 214.553 201.082 214.34 201.935 214.34C202.642 214.34 203.269 214.487 203.815 214.78C204.375 215.073 204.815 215.553 205.135 216.22C205.455 216.873 205.615 217.74 205.615 218.82V225H204.015V219.14C204.015 218.353 203.915 217.707 203.715 217.2C203.529 216.693 203.242 216.32 202.855 216.08C202.482 215.827 201.989 215.7 201.375 215.7C200.749 215.7 200.195 215.86 199.715 216.18C199.249 216.5 198.882 216.933 198.615 217.48C198.362 218.013 198.235 218.627 198.235 219.32V225H196.595V219.14C196.595 218.353 196.502 217.707 196.315 217.2C196.129 216.693 195.842 216.32 195.455 216.08C195.082 215.827 194.595 215.7 193.995 215.7C193.355 215.7 192.795 215.86 192.315 216.18C191.849 216.5 191.482 216.933 191.215 217.48C190.949 218.013 190.815 218.627 190.815 219.32V225H189.215Z" fill="#16191C"/>
<rect y="270" width="471" height="75" rx="15" fill="#F5F5F5"/>
<g filter="url(#filter3_b_944_17509)">
<rect x="10" y="280" width="55" height="55" rx="10" fill="#FF7500"/>
</g>
<path d="M41.9287 311.289C42.5329 311.105 43.2418 311 44 311C46.2091 311 48 311.895 48 313C48 314.105 46.2091 315 44 315C43.2418 315 42.5329 314.895 41.9287 314.711M41.9287 311.289C40.8449 310.51 39.0415 310 37 310C34.9585 310 33.1551 310.51 32.0713 311.289M41.9287 311.289C42.6041 311.774 43 312.364 43 313C43 313.636 42.6041 314.226 41.9287 314.711M41.9287 314.711C40.8449 315.49 39.0415 316 37 316C34.9585 316 33.1551 315.49 32.0713 314.711M32.0713 311.289C31.4671 311.105 30.7582 311 30 311C27.7909 311 26 311.895 26 313C26 314.105 27.7909 315 30 315C30.7582 315 31.4671 314.895 32.0713 314.711M32.0713 311.289C31.3959 311.774 31 312.364 31 313C31 313.636 31.3959 314.226 32.0713 314.711M40 303C40 304.657 38.6569 306 37 306C35.3431 306 34 304.657 34 303C34 301.343 35.3431 300 37 300C38.6569 300 40 301.343 40 303ZM46 306C46 307.105 45.1046 308 44 308C42.8954 308 42 307.105 42 306C42 304.895 42.8954 304 44 304C45.1046 304 46 304.895 46 306ZM32 306C32 307.105 31.1046 308 30 308C28.8954 308 28 307.105 28 306C28 304.895 28.8954 304 30 304C31.1046 304 32 304.895 32 306Z" stroke="white" stroke-width="2"/>
<path d="M86.86 315V300.42H88.56V313.92L88.16 313.44H95.76V315H86.86ZM101.563 315.18C100.803 315.18 100.11 315.053 99.4831 314.8C98.8698 314.547 98.3365 314.18 97.8831 313.7C97.4431 313.22 97.0965 312.653 96.8431 312C96.6031 311.333 96.4831 310.593 96.4831 309.78C96.4831 308.7 96.6898 307.753 97.1031 306.94C97.5165 306.127 98.1031 305.493 98.8631 305.04C99.6365 304.573 100.536 304.34 101.563 304.34C102.323 304.34 103.01 304.467 103.623 304.72C104.25 304.96 104.783 305.32 105.223 305.8C105.663 306.28 106.003 306.853 106.243 307.52C106.483 308.187 106.603 308.933 106.603 309.76C106.603 310.827 106.396 311.767 105.983 312.58C105.583 313.393 105.003 314.033 104.243 314.5C103.483 314.953 102.59 315.18 101.563 315.18ZM101.563 313.78C102.243 313.78 102.836 313.627 103.343 313.32C103.85 313 104.243 312.54 104.523 311.94C104.816 311.327 104.963 310.6 104.963 309.76C104.963 309.133 104.883 308.573 104.723 308.08C104.563 307.573 104.336 307.147 104.043 306.8C103.75 306.44 103.396 306.167 102.983 305.98C102.57 305.793 102.096 305.7 101.563 305.7C100.883 305.7 100.283 305.867 99.7631 306.2C99.2565 306.52 98.8565 306.98 98.5631 307.58C98.2831 308.18 98.1431 308.913 98.1431 309.78C98.1431 310.393 98.2165 310.953 98.3631 311.46C98.5231 311.953 98.7498 312.373 99.0431 312.72C99.3498 313.067 99.7165 313.333 100.143 313.52C100.57 313.693 101.043 313.78 101.563 313.78ZM108.903 315V304.5H110.343L110.443 306.44H110.523C110.749 305.773 111.149 305.26 111.723 304.9C112.296 304.54 112.936 304.36 113.643 304.36C113.763 304.36 113.876 304.367 113.983 304.38C114.089 304.38 114.189 304.387 114.283 304.4V305.94C114.189 305.927 114.089 305.92 113.983 305.92C113.876 305.907 113.763 305.9 113.643 305.9C113.029 305.9 112.496 306.013 112.043 306.24C111.589 306.467 111.229 306.793 110.963 307.22C110.709 307.633 110.556 308.14 110.503 308.74V315H108.903ZM119.817 315.18C118.817 315.18 117.957 314.96 117.237 314.52C116.531 314.08 115.991 313.453 115.617 312.64C115.244 311.827 115.057 310.88 115.057 309.8C115.057 308.693 115.244 307.733 115.617 306.92C115.991 306.093 116.524 305.46 117.217 305.02C117.911 304.567 118.757 304.34 119.757 304.34C120.824 304.34 121.704 304.58 122.397 305.06C123.091 305.54 123.591 306.207 123.897 307.06C124.217 307.913 124.337 308.9 124.257 310.02H116.637C116.651 310.887 116.784 311.613 117.037 312.2C117.304 312.773 117.671 313.207 118.137 313.5C118.617 313.78 119.177 313.92 119.817 313.92C120.591 313.92 121.224 313.727 121.717 313.34C122.211 312.953 122.524 312.447 122.657 311.82H124.197C124.117 312.527 123.871 313.133 123.457 313.64C123.057 314.147 122.537 314.533 121.897 314.8C121.271 315.053 120.577 315.18 119.817 315.18ZM116.657 309.1L116.477 308.86H122.857L122.677 309.14C122.691 308.3 122.577 307.627 122.337 307.12C122.097 306.6 121.751 306.22 121.297 305.98C120.857 305.727 120.344 305.6 119.757 305.6C119.144 305.6 118.611 305.733 118.157 306C117.704 306.267 117.344 306.66 117.077 307.18C116.824 307.687 116.684 308.327 116.657 309.1ZM126.559 315V304.5H128.099L128.159 306.68H128.279C128.586 305.907 129.066 305.327 129.719 304.94C130.372 304.54 131.092 304.34 131.879 304.34C132.679 304.34 133.386 304.533 133.999 304.92C134.612 305.307 135.052 305.953 135.319 306.86H135.479C135.786 306.02 136.279 305.393 136.959 304.98C137.652 304.553 138.426 304.34 139.279 304.34C139.986 304.34 140.612 304.487 141.159 304.78C141.719 305.073 142.159 305.553 142.479 306.22C142.799 306.873 142.959 307.74 142.959 308.82V315H141.359V309.14C141.359 308.353 141.259 307.707 141.059 307.2C140.872 306.693 140.586 306.32 140.199 306.08C139.826 305.827 139.332 305.7 138.719 305.7C138.092 305.7 137.539 305.86 137.059 306.18C136.592 306.5 136.226 306.933 135.959 307.48C135.706 308.013 135.579 308.627 135.579 309.32V315H133.939V309.14C133.939 308.353 133.846 307.707 133.659 307.2C133.472 306.693 133.186 306.32 132.799 306.08C132.426 305.827 131.939 305.7 131.339 305.7C130.699 305.7 130.139 305.86 129.659 306.18C129.192 306.5 128.826 306.933 128.559 307.48C128.292 308.013 128.159 308.627 128.159 309.32V315H126.559Z" fill="#16191C"/>
<defs>
<filter id="filter0_b_944_17509" x="-70" y="-70" width="215" height="215" filterUnits="userSpaceOnUse" color-interpolation-filters="sRGB">
<feFlood flood-opacity="0" result="BackgroundImageFix"/>
<feGaussianBlur in="BackgroundImageFix" stdDeviation="40"/>
<feComposite in2="SourceAlpha" operator="in" result="effect1_backgroundBlur_944_17509"/>
<feBlend mode="normal" in="SourceGraphic" in2="effect1_backgroundBlur_944_17509" result="shape"/>
</filter>
<filter id="filter1_b_944_17509" x="-70" y="20" width="215" height="215" filterUnits="userSpaceOnUse" color-interpolation-filters="sRGB">
<feFlood flood-opacity="0" result="BackgroundImageFix"/>
<feGaussianBlur in="BackgroundImageFix" stdDeviation="40"/>
<feComposite in2="SourceAlpha" operator="in" result="effect1_backgroundBlur_944_17509"/>
<feBlend mode="normal" in="SourceGraphic" in2="effect1_backgroundBlur_944_17509" result="shape"/>
</filter>
<filter id="filter2_b_944_17509" x="-70" y="110" width="215" height="215" filterUnits="userSpaceOnUse" color-interpolation-filters="sRGB">
<feFlood flood-opacity="0" result="BackgroundImageFix"/>
<feGaussianBlur in="BackgroundImageFix" stdDeviation="40"/>
<feComposite in2="SourceAlpha" operator="in" result="effect1_backgroundBlur_944_17509"/>
<feBlend mode="normal" in="SourceGraphic" in2="effect1_backgroundBlur_944_17509" result="shape"/>
</filter>
<filter id="filter3_b_944_17509" x="-70" y="200" width="215" height="215" filterUnits="userSpaceOnUse" color-interpolation-filters="sRGB">
<feFlood flood-opacity="0" result="BackgroundImageFix"/>
<feGaussianBlur in="BackgroundImageFix" stdDeviation="40"/>
<feComposite in2="SourceAlpha" operator="in" result="effect1_backgroundBlur_944_17509"/>
<feBlend mode="normal" in="SourceGraphic" in2="effect1_backgroundBlur_944_17509" result="shape"/>
</filter>
</defs>
</svg>
