<svg width="26" height="87" viewBox="0 0 26 87" fill="none" xmlns="http://www.w3.org/2000/svg">
<path d="M3.75075 1.84344C3.75075 0.824996 2.91724 -0.000618823 1.88905 -0.000618778C0.860856 -0.000618733 0.0273436 0.824996 0.0273437 1.84344C0.0273437 2.86189 0.860856 3.6875 1.88905 3.6875C2.91724 3.6875 3.75075 2.86189 3.75075 1.84344Z" fill="#FF7500"/>
<path d="M1.88829 20.4023C1.51689 20.4049 1.15311 20.2982 0.843022 20.0957C0.532935 19.8932 0.290511 19.6041 0.146555 19.265C0.00259958 18.9258 -0.0364112 18.552 0.0344274 18.1909C0.105266 17.8298 0.282774 17.4976 0.54446 17.2365C0.806147 16.9755 1.14023 16.7973 1.5043 16.7245C1.86838 16.6518 2.24604 16.6878 2.58942 16.828C2.93281 16.9682 3.22646 17.2062 3.43308 17.5119C3.6397 17.8176 3.74997 18.1772 3.74998 18.5451C3.75 19.0354 3.5543 19.5058 3.20554 19.8537C2.85678 20.2016 2.38326 20.3988 1.88829 20.4023Z" fill="#FF7500"/>
<path d="M3.75075 35.1677C3.75075 34.1492 2.91724 33.3236 1.88905 33.3236C0.860856 33.3236 0.0273436 34.1492 0.0273437 35.1677C0.0273437 36.1861 0.860856 37.0117 1.88905 37.0117C2.91724 37.0117 3.75075 36.1861 3.75075 35.1677Z" fill="#FF7500"/>
<path d="M3.75075 51.8317C3.75075 50.8133 2.91724 49.9877 1.88905 49.9877C0.860856 49.9877 0.0273436 50.8133 0.0273437 51.8317C0.0273437 52.8502 0.860856 53.6758 1.88905 53.6758C2.91724 53.6758 3.75075 52.8502 3.75075 51.8317Z" fill="#FF7500"/>
<path d="M3.75075 68.4919C3.75075 67.4734 2.91724 66.6478 1.88905 66.6478C0.860856 66.6478 0.0273436 67.4734 0.0273437 68.4919C0.0273437 69.5103 0.860856 70.3359 1.88905 70.3359C2.91724 70.3359 3.75075 69.5103 3.75075 68.4919Z" fill="#FF7500"/>
<path d="M3.75075 85.1559C3.75075 84.1375 2.91724 83.3119 1.88905 83.3119C0.860856 83.3119 0.0273436 84.1375 0.0273437 85.1559C0.0273437 86.1744 0.860856 87 1.88905 87C2.91724 87 3.75075 86.1744 3.75075 85.1559Z" fill="#FF7500"/>
<path d="M14.3875 1.84344C14.3875 0.824996 13.554 -0.000618823 12.5258 -0.000618778C11.4976 -0.000618733 10.6641 0.824996 10.6641 1.84344C10.6641 2.86189 11.4976 3.6875 12.5258 3.6875C13.554 3.6875 14.3875 2.86189 14.3875 1.84344Z" fill="#FF7500"/>
<path d="M12.525 20.4023C12.1536 20.4049 11.7898 20.2982 11.4797 20.0957C11.1697 19.8932 10.9272 19.6041 10.7833 19.265C10.6393 18.9258 10.6003 18.552 10.6711 18.1909C10.742 17.8298 10.9195 17.4976 11.1812 17.2365C11.4429 16.9755 11.7769 16.7973 12.141 16.7245C12.5051 16.6518 12.8828 16.6878 13.2261 16.828C13.5695 16.9682 13.8632 17.2062 14.0698 17.5119C14.2764 17.8176 14.3867 18.1772 14.3867 18.5451C14.3867 19.0354 14.191 19.5058 13.8423 19.8537C13.4935 20.2016 13.02 20.3988 12.525 20.4023Z" fill="#FF7500"/>
<path d="M14.3875 35.1677C14.3875 34.1492 13.554 33.3236 12.5258 33.3236C11.4976 33.3236 10.6641 34.1492 10.6641 35.1677C10.6641 36.1861 11.4976 37.0117 12.5258 37.0117C13.554 37.0117 14.3875 36.1861 14.3875 35.1677Z" fill="#FF7500"/>
<path d="M14.3875 51.8317C14.3875 50.8133 13.554 49.9877 12.5258 49.9877C11.4976 49.9877 10.6641 50.8133 10.6641 51.8317C10.6641 52.8502 11.4976 53.6758 12.5258 53.6758C13.554 53.6758 14.3875 52.8502 14.3875 51.8317Z" fill="#FF7500"/>
<path d="M14.3875 68.4919C14.3875 67.4734 13.554 66.6478 12.5258 66.6478C11.4976 66.6478 10.6641 67.4734 10.6641 68.4919C10.6641 69.5103 11.4976 70.3359 12.5258 70.3359C13.554 70.3359 14.3875 69.5103 14.3875 68.4919Z" fill="#FF7500"/>
<path d="M14.3875 85.1559C14.3875 84.1375 13.554 83.3119 12.5258 83.3119C11.4976 83.3119 10.6641 84.1375 10.6641 85.1559C10.6641 86.1744 11.4976 87 12.5258 87C13.554 87 14.3875 86.1744 14.3875 85.1559Z" fill="#FF7500"/>
<path d="M25.0125 1.84344C25.0125 0.824996 24.179 -0.000618823 23.1508 -0.000618778C22.1226 -0.000618733 21.2891 0.824996 21.2891 1.84344C21.2891 2.86189 22.1226 3.6875 23.1508 3.6875C24.179 3.6875 25.0125 2.86189 25.0125 1.84344Z" fill="#FF7500"/>
<path d="M23.15 20.4023C22.7786 20.4049 22.4148 20.2982 22.1047 20.0957C21.7946 19.8932 21.5523 19.6041 21.4083 19.265C21.2643 18.9258 21.2253 18.552 21.2961 18.1909C21.367 17.8298 21.5445 17.4976 21.8062 17.2365C22.0679 16.9755 22.4019 16.7973 22.766 16.7245C23.1301 16.6518 23.5077 16.6878 23.8511 16.828C24.1945 16.9682 24.4882 17.2062 24.6948 17.5119C24.9014 17.8176 25.0117 18.1772 25.0117 18.5451C25.0117 19.0354 24.816 19.5058 24.4672 19.8537C24.1185 20.2016 23.645 20.3988 23.15 20.4023Z" fill="#FF7500"/>
<path d="M25.0125 35.1677C25.0125 34.1492 24.179 33.3236 23.1508 33.3236C22.1226 33.3236 21.2891 34.1492 21.2891 35.1677C21.2891 36.1861 22.1226 37.0117 23.1508 37.0117C24.179 37.0117 25.0125 36.1861 25.0125 35.1677Z" fill="#FF7500"/>
<path d="M25.0125 51.8317C25.0125 50.8133 24.179 49.9877 23.1508 49.9877C22.1226 49.9877 21.2891 50.8133 21.2891 51.8317C21.2891 52.8502 22.1226 53.6758 23.1508 53.6758C24.179 53.6758 25.0125 52.8502 25.0125 51.8317Z" fill="#FF7500"/>
<path d="M25.0125 68.4919C25.0125 67.4734 24.179 66.6478 23.1508 66.6478C22.1226 66.6478 21.2891 67.4734 21.2891 68.4919C21.2891 69.5103 22.1226 70.3359 23.1508 70.3359C24.179 70.3359 25.0125 69.5103 25.0125 68.4919Z" fill="#FF7500"/>
<path d="M25.0125 85.1559C25.0125 84.1375 24.179 83.3119 23.1508 83.3119C22.1226 83.3119 21.2891 84.1375 21.2891 85.1559C21.2891 86.1744 22.1226 87 23.1508 87C24.179 87 25.0125 86.1744 25.0125 85.1559Z" fill="#FF7500"/>
</svg>
