<svg width="504" height="
930" viewBox="0 0 504 530" fill="none" xmlns="http://www.w3.org/2000/svg">
<path d="M473.368 3C473.368 4.47276 474.562 5.66667 476.035 5.66667C477.508 5.66667 478.702 4.47276 478.702 3C478.702 1.52724 477.508 0.333333 476.035 0.333333C474.562 0.333333 473.368 1.52724 473.368 3ZM342.501 219.5L342.333 219.971L342.501 219.5ZM0.171163 524.623C-0.0368556 524.805 -0.0582631 525.121 0.123348 525.329L3.08288 528.719C3.26449 528.927 3.58035 528.948 3.78837 528.767C3.99639 528.585 4.01779 528.269 3.83618 528.061L1.20549 525.048L4.2187 522.417C4.42672 522.236 4.44813 521.92 4.26652 521.712C4.08491 521.504 3.76905 521.482 3.56103 521.664L0.171163 524.623ZM0.46619 525.499C5.40576 525.834 10.3039 526.149 15.1609 526.444L15.2216 525.446C10.367 525.151 5.4711 524.836 0.53381 524.501L0.46619 525.499ZM43.8101 527.983C53.5822 528.437 63.1777 528.808 72.5983 529.098L72.6291 528.099C63.2138 527.808 53.6236 527.437 43.8565 526.984L43.8101 527.983ZM101.119 529.742C110.982 529.88 120.641 529.926 130.098 529.883L130.093 528.883C120.643 528.926 110.99 528.88 101.133 528.742L101.119 529.742ZM158.512 529.47C168.396 529.225 178.042 528.877 187.453 528.429L187.405 527.43C178.002 527.878 168.364 528.226 158.488 528.47L158.512 529.47ZM216.186 526.704C225.921 525.993 235.38 525.168 244.567 524.235L244.466 523.24C235.288 524.172 225.839 524.996 216.113 525.706L216.186 526.704ZM273.174 520.865C283.038 519.536 292.55 518.07 301.719 516.477L301.548 515.492C292.392 517.083 282.892 518.546 273.041 519.874L273.174 520.865ZM329.946 510.938C339.687 508.792 348.98 506.487 357.833 504.033L357.566 503.069C348.731 505.518 339.456 507.819 329.731 509.961L329.946 510.938ZM385.27 495.48C394.793 492.149 403.696 488.621 411.994 484.916L411.586 484.003C403.315 487.696 394.439 491.214 384.94 494.536L385.27 495.48ZM437.505 471.894C446.361 466.716 454.272 461.286 461.274 455.646L460.647 454.867C453.687 460.473 445.817 465.875 437 471.031L437.505 471.894ZM481.771 435.539C488.26 427.61 493.26 419.402 496.848 411.007L495.929 410.614C492.381 418.917 487.431 427.044 480.998 434.905L481.771 435.539ZM503.633 383.095C504.292 373.608 503.363 364.027 500.951 354.475L499.982 354.72C502.37 364.176 503.287 373.651 502.635 383.026L503.633 383.095ZM490.329 327.759C485.946 319.695 480.543 311.736 474.185 303.958L473.411 304.591C479.733 312.325 485.1 320.232 489.45 328.237L490.329 327.759ZM454.287 283.028C447.496 276.807 440.07 270.763 432.047 264.942L431.46 265.751C439.454 271.552 446.85 277.572 453.611 283.766L454.287 283.028ZM407.902 249.172C399.875 244.446 391.413 239.925 382.541 235.642L382.106 236.542C390.954 240.814 399.392 245.322 407.395 250.033L407.902 249.172ZM356.235 224.126C351.794 222.369 347.271 220.669 342.669 219.029L342.333 219.971C346.925 221.608 351.437 223.304 355.867 225.056L356.235 224.126ZM342.669 219.029C338.12 217.407 333.675 215.792 329.333 214.183L328.986 215.121C333.331 216.731 337.78 218.348 342.333 219.971L342.669 219.029ZM303.78 204.316C294.853 200.717 286.445 197.152 278.536 193.623L278.129 194.536C286.049 198.07 294.469 201.64 303.406 205.243L303.78 204.316ZM253.668 181.824C244.807 177.335 236.762 172.909 229.493 168.55L228.978 169.408C236.27 173.781 244.337 178.218 253.216 182.716L253.668 181.824ZM206.842 153.329C198.495 146.942 191.841 140.72 186.736 134.675L185.972 135.32C191.134 141.432 197.844 147.703 206.234 154.123L206.842 153.329ZM174.12 110.959C172.212 101.789 173.99 93.1049 178.854 84.9284L177.995 84.4172C173.018 92.7838 171.176 101.72 173.141 111.163L174.12 110.959ZM197.549 65.2296C204.215 60.2115 212.1 55.4583 221.002 50.9855L220.553 50.092C211.611 54.585 203.672 59.3686 196.947 64.4306L197.549 65.2296ZM246.149 40.0566C254.36 36.9463 263.082 34.017 272.215 31.2757L271.927 30.3179C262.775 33.0652 254.031 36.0018 245.795 39.1214L246.149 40.0566ZM298.796 24.0932C307.521 21.9735 316.497 20.0074 325.655 18.1998L325.462 17.2187C316.29 19.029 307.3 20.9981 298.56 23.1214L298.796 24.0932ZM352.75 13.3916C361.754 11.9654 370.861 10.6873 380.012 9.56129L379.89 8.56878C370.728 9.69616 361.609 10.9759 352.593 12.4039L352.75 13.3916ZM407.378 6.65748C416.56 5.83747 425.726 5.17377 434.813 4.67038L434.758 3.67191C425.659 4.17593 416.483 4.84045 407.289 5.66145L407.378 6.65748ZM462.33 3.63438C466.939 3.54498 471.51 3.5 476.035 3.5V2.5C471.504 2.5 466.926 2.54505 462.311 2.63457L462.33 3.63438Z" fill="#FF7500"/>
</svg>
