
        <svg
          width="48"
          height="48"
          viewBox="0 0 48 48"
          fill="none"
          xmlns="http://www.w3.org/2000/svg"
        >
          <g opacity="0.3">
            {" "}
            <path
              d="M15 12C14.6022 12 14.2206 12.158 13.9393 12.4393C13.658 12.7206 13.5 13.1022 13.5 13.5C13.5 13.8978 13.658 14.2794 13.9393 14.5607C14.2206 14.842 14.6022 15 15 15H33C33.3978 15 33.7794 14.842 34.0607 14.5607C34.342 14.2794 34.5 13.8978 34.5 13.5C34.5 13.1022 34.342 12.7206 34.0607 12.4393C33.7794 12.158 33.3978 12 33 12H15ZM13.5 19.5C13.5 19.1022 13.658 18.7206 13.9393 18.4393C14.2206 18.158 14.6022 18 15 18H33C33.3978 18 33.7794 18.158 34.0607 18.4393C34.342 18.7206 34.5 19.1022 34.5 19.5C34.5 19.8978 34.342 20.2794 34.0607 20.5607C33.7794 20.842 33.3978 21 33 21H15C14.6022 21 14.2206 20.842 13.9393 20.5607C13.658 20.2794 13.5 19.8978 13.5 19.5ZM15 24C14.6022 24 14.2206 24.158 13.9393 24.4393C13.658 24.7206 13.5 25.1022 13.5 25.5C13.5 25.8978 13.658 26.2794 13.9393 26.5607C14.2206 26.842 14.6022 27 15 27H33C33.3978 27 33.7794 26.842 34.0607 26.5607C34.342 26.2794 34.5 25.8978 34.5 25.5C34.5 25.1022 34.342 24.7206 34.0607 24.4393C33.7794 24.158 33.3978 24 33 24H15ZM15 30C14.6022 30 14.2206 30.158 13.9393 30.4393C13.658 30.7206 13.5 31.1022 13.5 31.5C13.5 31.8978 13.658 32.2794 13.9393 32.5607C14.2206 32.842 14.6022 33 15 33H24C24.3978 33 24.7794 32.842 25.0607 32.5607C25.342 32.2794 25.5 31.8978 25.5 31.5C25.5 31.1022 25.342 30.7206 25.0607 30.4393C24.7794 30.158 24.3978 30 24 30H15Z"
              fill="#16191C"
            />
            <path
              d="M6 6C6 4.4087 6.63214 2.88258 7.75736 1.75736C8.88258 0.632141 10.4087 0 12 0L36 0C37.5913 0 39.1174 0.632141 40.2426 1.75736C41.3679 2.88258 42 4.4087 42 6V42C42 43.5913 41.3679 45.1174 40.2426 46.2426C39.1174 47.3679 37.5913 48 36 48H12C10.4087 48 8.88258 47.3679 7.75736 46.2426C6.63214 45.1174 6 43.5913 6 42V6ZM36 3H12C11.2044 3 10.4413 3.31607 9.87868 3.87868C9.31607 4.44129 9 5.20435 9 6V42C9 42.7957 9.31607 43.5587 9.87868 44.1213C10.4413 44.6839 11.2044 45 12 45H36C36.7956 45 37.5587 44.6839 38.1213 44.1213C38.6839 43.5587 39 42.7957 39 42V6C39 5.20435 38.6839 4.44129 38.1213 3.87868C37.5587 3.31607 36.7956 3 36 3Z"
              fill="#16191C"
            />
          </g>
        </svg>
      
 
