  <svg
          width="48"
          height="48"
          viewBox="0 0 48 48"
          fill="none"
          xmlns="http://www.w3.org/2000/svg"
        >
          <g opacity="0.3">
            <path
              d="M18 3H3V45H18V3ZM45 3H30V18H45V3ZM45
             30V45H30V30H45ZM0 3C0 2.20435 0.316071 
             1.44129 0.87868 0.87868C1.44129 0.316071
              2.20435 0 3 0L18 0C18.7956 0 19.5587 0.316071 
              20.1213 0.87868C20.6839 1.44129 21 2.20435 21 
              3V45C21 45.7957 20.6839 46.5587 20.1213 47.1213C19.5587 47.6839
              18.7956 48 18 48H3C2.20435 48 1.44129 47.6839 0.87868 47.1213C0.316071
               46.5587 0 45.7957 0 45V3ZM27 3C27 2.20435 27.3161 1.44129 27.8787 
               0.87868C28.4413 0.316071 29.2044 0 30 0L45 0C45.7957 0 46.5587 0.316071 47.1213 0.87868C47.6839 1.44129 48 2.20435 
               48 3V18C48 18.7956 47.6839 19.5587 47.1213 20.1213C46.5587 20.6839 45.7957 21 45 21H30C29.2044 21 28.4413 20.6839
                27.8787 20.1213C27.3161 19.5587 27 18.7956 27 18V3ZM30 27C29.2044 27 28.4413 27.3161 27.8787 27.8787C27.3161
                 28.4413 27 29.2044 27 30V45C27 45.7957 27.3161 46.5587 27.8787 47.1213C28.4413 47.6839 29.2044 48 30 48H45C45.7957
                  48 46.5587 47.6839 47.1213 47.1213C47.6839 46.5587 48 45.7957 48 45V30C48 29.2044 47.6839 28.4413 
                  47.1213 27.8787C46.5587 27.3161 
              45.7957 27 45 27H30Z"
              fill="#16191C"
            />
          </g>
        </svg>