  <svg
          width="48"
          height="54"
          viewBox="0 0 48 54"
          fill="none"
          xmlns="http://www.w3.org/2000/svg"
        >
          <g opacity="0.3">
            <path
              d="M5.76 7.52068C5.99478 7.48244 6.23528 7.50058 6.46167 7.5736C6.68805 7.64663 6.89383 7.77245 7.062 7.94068L9 9.88168L10.938 7.94068C11.0773 7.80099 11.2429 7.69016 11.4251 7.61454C11.6073 7.53892 11.8027 7.5 12 7.5C12.1973 7.5 12.3927 7.53892 12.5749 7.61454C12.7571 7.69016 12.9227 7.80099 13.062 7.94068L15 9.88168L16.938 7.94068C17.0773 7.80099 17.2429 7.69016 17.4251 7.61454C17.6073 7.53892 17.8027 7.5 18 7.5C18.1973 7.5 18.3927 7.53892 18.5749 7.61454C18.7571 7.69016 18.9227 7.80099 19.062 7.94068L21 9.88168L22.938 7.94068C23.0773 7.80099 23.2429 7.69016 23.4251 7.61454C23.6073 7.53892 23.8027 7.5 24 7.5C24.1973 7.5 24.3927 7.53892 24.5749 7.61454C24.7571 7.69016 24.9227 7.80099 25.062 7.94068L27 9.88168L28.938 7.94068C29.0773 7.80099 29.2429 7.69016 29.4251 7.61454C29.6073 7.53892 29.8027 7.5 30 7.5C30.1973 7.5 30.3927 7.53892 30.5749 7.61454C30.7571 7.69016 30.9227 7.80099 31.062 7.94068L33 9.88168L34.938 7.94068C35.0773 7.80099 35.2429 7.69016 35.4251 7.61454C35.6073 7.53892 35.8027 7.5 36 7.5C36.1973 7.5 36.3927 7.53892 36.5749 7.61454C36.7571 7.69016 36.9227 7.80099 37.062 7.94068L39 9.88168L40.938 7.94068C41.1061 7.77248 41.3117 7.64664 41.538 7.57355C41.7643 7.50046 42.0047 7.48221 42.2394 7.5203C42.4741 7.55839 42.6964 7.65174 42.8879 7.79264C43.0795 7.93354 43.2347 8.11796 43.341 8.33068L44.841 11.3307C44.9455 11.5393 45 11.7694 45 12.0027V48.0027C45 48.236 44.9455 48.4661 44.841 48.6747L43.341 51.6747C43.2346 51.8869 43.0794 52.0708 42.8881 52.2113C42.6968 52.3518 42.4749 52.4449 42.2407 52.483C42.0064 52.5211 41.7664 52.503 41.5405 52.4303C41.3145 52.3576 41.1091 52.2323 40.941 52.0647L39 50.1237L37.062 52.0647C36.9227 52.2044 36.7571 52.3152 36.5749 52.3908C36.3927 52.4664 36.1973 52.5054 36 52.5054C35.8027 52.5054 35.6073 52.4664 35.4251 52.3908C35.2429 52.3152 35.0773 52.2044 34.938 52.0647L33 50.1237L31.062 52.0647C30.9227 52.2044 30.7571 52.3152 30.5749 52.3908C30.3927 52.4664 30.1973 52.5054 30 52.5054C29.8027 52.5054 29.6073 52.4664 29.4251 52.3908C29.2429 52.3152 29.0773 52.2044 28.938 52.0647L27 50.1237L25.062 52.0647C24.9227 52.2044 24.7571 52.3152 24.5749 52.3908C24.3927 52.4664 24.1973 52.5054 24 52.5054C23.8027 52.5054 23.6073 52.4664 23.4251 52.3908C23.2429 52.3152 23.0773 52.2044 22.938 52.0647L21 50.1237L19.062 52.0647C18.9227 52.2044 18.7571 52.3152 18.5749 52.3908C18.3927 52.4664 18.1973 52.5054 18 52.5054C17.8027 52.5054 17.6073 52.4664 17.4251 52.3908C17.2429 52.3152 17.0773 52.2044 16.938 52.0647L15 50.1237L13.062 52.0647C12.9227 52.2044 12.7571 52.3152 12.5749 52.3908C12.3927 52.4664 12.1973 52.5054 12 52.5054C11.8027 52.5054 11.6073 52.4664 11.4251 52.3908C11.2429 52.3152 11.0773 52.2044 10.938 52.0647L9 50.1237L7.062 52.0647C6.89393 52.2329 6.68828 52.3587 6.46201 52.4318C6.23574 52.5049 5.99534 52.5232 5.76063 52.4851C5.52592 52.447 5.30362 52.3536 5.11209 52.2127C4.92055 52.0718 4.76525 51.8874 4.659 51.6747L3.159 48.6747C3.05446 48.4661 3.00002 48.236 3 48.0027V12.0027C3.00002 11.7694 3.05446 11.5393 3.159 11.3307L4.659 8.33068C4.76523 8.11811 4.92046 7.93381 5.11188 7.79299C5.3033 7.65216 5.52544 7.55883 5.76 7.52068ZM6.411 11.5347L6 12.3567V47.6487L6.411 48.4707L7.941 46.9407C8.22229 46.6595 8.60375 46.5015 9.0015 46.5015C9.39925 46.5015 9.78071 46.6595 10.062 46.9407L12 48.8817L13.938 46.9437C14.0773 46.804 14.2429 46.6932 14.4251 46.6175C14.6073 46.5419 14.8027 46.503 15 46.503C15.1973 46.503 15.3927 46.5419 15.5749 46.6175C15.7571 46.6932 15.9227 46.804 16.062 46.9437L18 48.8817L19.938 46.9437C20.0773 46.804 20.2429 46.6932 20.4251 46.6175C20.6073 46.5419 20.8027 46.503 21 46.503C21.1973 46.503 21.3927 46.5419 21.5749 46.6175C21.7571 46.6932 21.9227 46.804 22.062 46.9437L24 48.8817L25.938 46.9437C26.0773 46.804 26.2429 46.6932 26.4251 46.6175C26.6073 46.5419 26.8027 46.503 27 46.503C27.1973 46.503 27.3927 46.5419 27.5749 46.6175C27.7571 46.6932 27.9227 46.804 28.062 46.9437L30 48.8817L31.938 46.9437C32.0773 46.804 32.2429 46.6932 32.4251 46.6175C32.6073 46.5419 32.8027 46.503 33 46.503C33.1973 46.503 33.3927 46.5419 33.5749 46.6175C33.7571 46.6932 33.9227 46.804 34.062 46.9437L36 48.8817L37.938 46.9437C38.0773 46.804 38.2429 46.6932 38.4251 46.6175C38.6073 46.5419 38.8027 46.503 39 46.503C39.1973 46.503 39.3927 46.5419 39.5749 46.6175C39.7571 46.6932 39.9227 46.804 40.062 46.9437L41.589 48.4707L42 47.6487V12.3567L41.589 11.5347L40.059 13.0647C39.7777 13.3459 39.3962 13.5039 38.9985 13.5039C38.6008 13.5039 38.2193 13.3459 37.938 13.0647L36 11.1237L34.062 13.0647C33.9227 13.2044 33.7571 13.3152 33.5749 13.3908C33.3927 13.4664 33.1973 13.5054 33 13.5054C32.8027 13.5054 32.6073 13.4664 32.4251 13.3908C32.2429 13.3152 32.0773 13.2044 31.938 13.0647L30 11.1237L28.062 13.0647C27.9227 13.2044 27.7571 13.3152 27.5749 13.3908C27.3927 13.4664 27.1973 13.5054 27 13.5054C26.8027 13.5054 26.6073 13.4664 26.4251 13.3908C26.2429 13.3152 26.0773 13.2044 25.938 13.0647L24 11.1237L22.062 13.0647C21.9227 13.2044 21.7571 13.3152 21.5749 13.3908C21.3927 13.4664 21.1973 13.5054 21 13.5054C20.8027 13.5054 20.6073 13.4664 20.4251 13.3908C20.2429 13.3152 20.0773 13.2044 19.938 13.0647L18 11.1237L16.062 13.0647C15.9227 13.2044 15.7571 13.3152 15.5749 13.3908C15.3927 13.4664 15.1973 13.5054 15 13.5054C14.8027 13.5054 14.6073 13.4664 14.4251 13.3908C14.2429 13.3152 14.0773 13.2044 13.938 13.0647L12 11.1237L10.062 13.0647C9.92266 13.2044 9.75714 13.3152 9.5749 13.3908C9.39267 13.4664 9.1973 13.5054 9 13.5054C8.8027 13.5054 8.60733 13.4664 8.4251 13.3908C8.24286 13.3152 8.07734 13.2044 7.938 13.0647L6.411 11.5347Z"
              fill="#16191C"
            />
            <path
              d="M9 19.5C9 19.1022 9.15804 18.7206 9.43934 18.4393C9.72064 18.158 10.1022 18 10.5 18H28.5C28.8978 18 29.2794 18.158 29.5607 18.4393C29.842 18.7206 30 19.1022 30 19.5C30 19.8978 29.842 20.2794 29.5607 20.5607C29.2794 20.842 28.8978 21 28.5 21H10.5C10.1022 21 9.72064 20.842 9.43934 20.5607C9.15804 20.2794 9 19.8978 9 19.5ZM9 25.5C9 25.1022 9.15804 24.7206 9.43934 24.4393C9.72064 24.158 10.1022 24 10.5 24H28.5C28.8978 24 29.2794 24.158 29.5607 24.4393C29.842 24.7206 30 25.1022 30 25.5C30 25.8978 29.842 26.2794 29.5607 26.5607C29.2794 26.842 28.8978 27 28.5 27H10.5C10.1022 27 9.72064 26.842 9.43934 26.5607C9.15804 26.2794 9 25.8978 9 25.5ZM9 31.5C9 31.1022 9.15804 30.7206 9.43934 30.4393C9.72064 30.158 10.1022 30 10.5 30H28.5C28.8978 30 29.2794 30.158 29.5607 30.4393C29.842 30.7206 30 31.1022 30 31.5C30 31.8978 29.842 32.2794 29.5607 32.5607C29.2794 32.842 28.8978 33 28.5 33H10.5C10.1022 33 9.72064 32.842 9.43934 32.5607C9.15804 32.2794 9 31.8978 9 31.5ZM9 37.5C9 37.1022 9.15804 36.7206 9.43934 36.4393C9.72064 36.158 10.1022 36 10.5 36H28.5C28.8978 36 29.2794 36.158 29.5607 36.4393C29.842 36.7206 30 37.1022 30 37.5C30 37.8978 29.842 38.2794 29.5607 38.5607C29.2794 38.842 28.8978 39 28.5 39H10.5C10.1022 39 9.72064 38.842 9.43934 38.5607C9.15804 38.2794 9 37.8978 9 37.5ZM33 19.5C33 19.1022 33.158 18.7206 33.4393 18.4393C33.7206 18.158 34.1022 18 34.5 18H37.5C37.8978 18 38.2794 18.158 38.5607 18.4393C38.842 18.7206 39 19.1022 39 19.5C39 19.8978 38.842 20.2794 38.5607 20.5607C38.2794 20.842 37.8978 21 37.5 21H34.5C34.1022 21 33.7206 20.842 33.4393 20.5607C33.158 20.2794 33 19.8978 33 19.5ZM33 25.5C33 25.1022 33.158 24.7206 33.4393 24.4393C33.7206 24.158 34.1022 24 34.5 24H37.5C37.8978 24 38.2794 24.158 38.5607 24.4393C38.842 24.7206 39 25.1022 39 25.5C39 25.8978 38.842 26.2794 38.5607 26.5607C38.2794 26.842 37.8978 27 37.5 27H34.5C34.1022 27 33.7206 26.842 33.4393 26.5607C33.158 26.2794 33 25.8978 33 25.5ZM33 31.5C33 31.1022 33.158 30.7206 33.4393 30.4393C33.7206 30.158 34.1022 30 34.5 30H37.5C37.8978 30 38.2794 30.158 38.5607 30.4393C38.842 30.7206 39 31.1022 39 31.5C39 31.8978 38.842 32.2794 38.5607 32.5607C38.2794 32.842 37.8978 33 37.5 33H34.5C34.1022 33 33.7206 32.842 33.4393 32.5607C33.158 32.2794 33 31.8978 33 31.5ZM33 37.5C33 37.1022 33.158 36.7206 33.4393 36.4393C33.7206 36.158 34.1022 36 34.5 36H37.5C37.8978 36 38.2794 36.158 38.5607 36.4393C38.842 36.7206 39 37.1022 39 37.5C39 37.8978 38.842 38.2794 38.5607 38.5607C38.2794 38.842 37.8978 39 37.5 39H34.5C34.1022 39 33.7206 38.842 33.4393 38.5607C33.158 38.2794 33 37.8978 33 37.5Z"
              fill="#16191C"
            />
          </g>
        </svg>

        