<svg width="12" height="12" viewBox="0 0 12 12" fill="currentColor" xmlns="http://www.w3.org/2000/svg">
<path d="M4.91406 1.41675L5.47266 0.858154C5.72656 0.629639 6.10742 0.629639 6.33594 0.858154L11.2871 5.78394C11.5156 6.03784 11.5156 6.4187 11.2871 6.64722L6.33594 11.5984C6.10742 11.8269 5.72656 11.8269 5.47266 11.5984L4.91406 11.0398C4.68555 10.7859 4.68555 10.405 4.91406 10.1511L7.98633 7.2312H0.699219C0.34375 7.2312 0.0898438 6.97729 0.0898438 6.62183V5.80933C0.0898438 5.47925 0.34375 5.19995 0.699219 5.19995H7.98633L4.91406 2.30542C4.68555 2.05151 4.66016 1.67065 4.91406 1.41675Z" />
</svg>
