<svg width="1177" height="1393" viewBox="0 0 1177 1393" fill="none" xmlns="http://www.w3.org/2000/svg">
<g opacity="0.0636858">
<mask id="mask0_4146_11043" style="mask-type:luminance" maskUnits="userSpaceOnUse" x="0" y="61" width="1335" height="1332">
<path fill-rule="evenodd" clip-rule="evenodd" d="M1334.01 61.9399H-0.00195312V1392.48H1334.01V61.9399Z" fill="white"/>
</mask>
<g mask="url(#mask0_4146_11043)">
<path fill-rule="evenodd" clip-rule="evenodd" d="M2.43237 615.237C2.01416 605.748 6.42908 596.84 14.2329 591.414L764.862 69.2994C770.911 65.0889 778.246 63.4817 785.511 64.7702C792.771 66.0629 799.097 70.0955 803.312 76.1324L1326.64 824.652C1329.65 828.945 1331.36 833.971 1331.58 839.177C1332 848.669 1327.58 857.573 1319.78 863.005L569.155 1385.12C563.1 1389.33 555.773 1390.94 548.503 1389.65C541.244 1388.35 534.917 1384.32 530.7 1378.29L7.37036 629.768C4.36353 625.473 2.65894 620.445 2.43237 615.237ZM1333.98 839.074C1333.73 833.41 1331.87 827.951 1328.61 823.282L805.284 74.7614C800.698 68.2016 793.823 63.8164 785.928 62.4114C778.032 61.0097 770.063 62.7576 763.484 67.3324L12.8522 589.449C4.37073 595.35 -0.423096 605.029 0.0268555 615.345C0.27771 621.007 2.13257 626.467 5.39868 631.139L528.728 1379.66C533.313 1386.22 540.184 1390.6 548.08 1392C555.974 1393.41 563.945 1391.66 570.527 1387.08L1321.15 864.966C1329.63 859.069 1334.43 849.388 1333.98 839.074Z" fill="#DADADA"/>
</g>
<path fill-rule="evenodd" clip-rule="evenodd" d="M37.302 607.688C36.8998 598.584 41.0945 589.985 48.5098 584.686L773.668 66.5057C779.505 62.3301 786.625 60.6743 793.713 61.84C800.802 63.0077 807.008 66.8583 811.193 72.6813L1330.58 795.796C1333.63 800.042 1335.36 805.029 1335.59 810.22C1335.99 819.326 1331.79 827.926 1324.38 833.219L599.22 1351.41C587.159 1360.02 570.33 1357.25 561.698 1345.23L42.3087 622.113C39.2574 617.868 37.5276 612.877 37.302 607.688ZM1337.99 810.112C1337.74 804.459 1335.85 799.025 1332.53 794.4L813.143 71.2883C808.588 64.9434 801.826 60.7509 794.107 59.4783C786.386 58.2078 778.631 60.0119 772.269 64.557L47.1139 582.74C39.0305 588.512 34.4674 597.876 34.8994 607.792C35.1514 613.448 37.0317 618.886 40.3561 623.508L559.747 1346.62C569.15 1359.72 587.491 1362.74 600.62 1353.35L1325.78 835.17C1333.85 829.399 1338.42 820.032 1337.99 810.112Z" fill="#DADADA"/>
<path fill-rule="evenodd" clip-rule="evenodd" d="M72.1677 600.135C71.7898 591.418 75.7621 583.125 82.791 577.956L782.476 63.7099C794.094 55.1713 810.51 57.6498 819.072 69.2343L1334.52 766.944C1337.62 771.132 1339.37 776.088 1339.6 781.267C1339.98 789.983 1336.01 798.273 1328.97 803.441L629.296 1317.69C623.663 1321.83 616.76 1323.53 609.846 1322.49C602.931 1321.45 596.84 1317.78 592.694 1312.17L77.2463 614.454C74.1497 610.267 72.3922 605.314 72.1677 600.135ZM1342 781.157C1341.75 775.502 1339.83 770.096 1336.45 765.525L821.002 67.8133C811.656 55.1637 793.733 52.4587 781.05 61.7807L81.3662 576.027C73.6852 581.674 69.3497 590.727 69.7668 600.242C70.0115 605.896 71.9277 611.302 75.3093 615.878L590.758 1313.59C595.287 1319.71 601.933 1323.72 609.482 1324.85C617.028 1325.99 624.568 1324.14 630.711 1319.62L1330.4 805.372C1338.07 799.727 1342.41 790.677 1342 781.157Z" fill="#DADADA"/>
<path fill-rule="evenodd" clip-rule="evenodd" d="M107.024 592.582C106.663 584.247 110.419 576.266 117.072 571.228L791.283 60.915C796.703 56.8146 803.394 55.0634 810.131 55.9835C816.864 56.9024 822.839 60.3846 826.947 65.7872L1338.46 738.095C1341.61 742.234 1343.39 747.147 1343.62 752.312C1343.98 760.645 1340.23 768.626 1333.57 773.664L659.355 1283.98C648.178 1292.43 632.18 1290.25 623.694 1279.11L112.179 606.801C109.033 602.664 107.251 597.749 107.024 592.582ZM1346.01 752.205C1345.77 746.551 1343.82 741.168 1340.37 736.646L828.861 64.3392C824.362 58.4273 817.825 54.618 810.456 53.609C803.085 52.6033 795.762 54.5206 789.831 59.0064L115.621 569.321C108.337 574.833 104.229 583.567 104.626 592.688C104.876 598.342 106.82 603.724 110.267 608.25L621.779 1280.55C631.066 1292.75 648.573 1295.15 660.809 1285.89L1335.02 775.57C1342.3 770.058 1346.41 761.329 1346.01 752.205Z" fill="#DADADA"/>
<path fill-rule="evenodd" clip-rule="evenodd" d="M141.88 585.033C141.532 577.076 145.074 569.4 151.354 564.498L800.089 58.1185C805.295 54.0573 811.774 52.2575 818.334 53.0557C824.898 53.853 830.751 57.1498 834.823 62.3407L1342.4 709.243C1345.6 713.318 1347.41 718.195 1347.63 723.352C1347.98 731.308 1344.44 738.984 1338.16 743.887L689.423 1250.27C684.214 1254.33 677.739 1256.12 671.176 1255.33C664.615 1254.53 658.759 1251.23 654.684 1246.04L147.113 599.143C143.911 595.069 142.105 590.187 141.88 585.033ZM1350.03 723.245C1349.78 717.586 1347.8 712.238 1344.29 707.76L836.716 60.8637C832.248 55.1699 825.822 51.5522 818.628 50.6788C811.429 49.8032 804.322 51.7756 798.608 56.2339L149.876 562.612C142.985 567.989 139.099 576.41 139.481 585.137C139.727 590.794 141.714 596.148 145.217 600.623L652.794 1247.52C657.263 1253.22 663.689 1256.84 670.885 1257.7C678.082 1258.59 685.193 1256.61 690.899 1252.15L1339.64 745.774C1346.53 740.396 1350.41 731.974 1350.03 723.245Z" fill="#DADADA"/>
<path fill-rule="evenodd" clip-rule="evenodd" d="M176.723 577.481C176.393 569.9 179.721 562.534 185.63 557.77L808.896 55.323C819.205 47.0121 834.37 48.6129 842.699 58.893L1346.34 680.395C1349.59 684.403 1351.43 689.248 1351.66 694.394C1351.99 701.977 1348.66 709.341 1342.75 714.105L719.484 1216.55C714.488 1220.58 708.222 1222.42 701.841 1221.75C695.453 1221.07 689.713 1217.96 685.681 1212.98L182.041 591.485C178.786 587.471 176.946 582.626 176.723 577.481ZM1354.06 694.29C1353.81 688.628 1351.79 683.303 1348.21 678.886L844.571 57.3876C835.41 46.0804 818.73 44.3187 807.389 53.4586L184.12 555.908C177.624 561.143 173.963 569.248 174.325 577.584C174.572 583.244 176.596 588.572 180.175 592.993L683.813 1214.49C688.249 1219.97 694.566 1223.39 701.586 1224.13C708.61 1224.88 715.503 1222.85 720.994 1218.41L1344.26 715.969C1350.76 710.731 1354.42 702.626 1354.06 694.29Z" fill="#DADADA"/>
<path fill-rule="evenodd" clip-rule="evenodd" d="M211.565 569.927C211.242 562.616 214.287 555.729 219.911 551.038L817.703 52.5237C822.489 48.5376 828.539 46.6435 834.75 47.1962C840.961 47.7478 846.58 50.6794 850.578 55.4489L1350.28 651.541C1353.59 655.497 1355.46 660.298 1355.69 665.434C1356.01 672.748 1352.96 679.638 1347.34 684.327L749.545 1182.84C739.67 1191.08 724.925 1189.76 716.672 1179.92L216.975 583.826C213.66 579.872 211.787 575.067 211.565 569.927ZM1358.09 665.327C1357.84 659.666 1355.78 654.365 1352.12 650.002L852.426 53.9117C848.014 48.6499 841.816 45.4176 834.967 44.811C828.118 44.2011 821.44 46.29 816.166 50.6879L218.375 549.198C212.171 554.373 208.816 561.964 209.165 570.035C209.413 575.704 211.477 581.001 215.136 585.36L714.831 1181.45C723.936 1192.31 740.199 1193.76 751.092 1184.68L1348.88 686.17C1355.09 680.994 1358.44 673.399 1358.09 665.327Z" fill="#DADADA"/>
<path fill-rule="evenodd" clip-rule="evenodd" d="M246.402 562.378C246.099 555.434 248.939 548.851 254.198 544.303L826.517 49.7302C831.088 45.7749 836.929 43.8342 842.967 44.2662C849.002 44.696 854.504 47.4423 858.468 52.0022L1354.22 622.689C1357.6 626.581 1359.51 631.347 1359.73 636.479C1360.04 643.421 1357.19 650.009 1351.94 654.555L779.618 1149.13C775.042 1153.08 769.201 1155.02 763.165 1154.59C757.135 1154.16 751.631 1151.42 747.669 1146.86L251.912 576.167C248.531 572.28 246.623 567.51 246.402 562.378ZM1362.13 636.376C1361.88 630.698 1359.77 625.424 1356.04 621.124L860.283 50.4344C855.901 45.3896 849.812 42.351 843.138 41.8767C836.462 41.4003 830 43.5463 824.945 47.9178L252.629 542.493C246.807 547.523 243.67 554.808 244.001 562.483C244.252 568.158 246.356 573.433 250.093 577.741L745.854 1148.42C750.232 1153.47 756.322 1156.51 762.995 1156.99C769.67 1157.46 776.133 1155.31 781.186 1150.94L1353.51 656.363C1359.33 651.335 1362.47 644.052 1362.13 636.376Z" fill="#DADADA"/>
<path fill-rule="evenodd" clip-rule="evenodd" d="M281.227 554.827C280.939 548.255 283.583 541.966 288.483 537.57L835.33 46.9257C839.689 43.0116 845.318 41.0276 851.177 41.3367C857.035 41.6438 862.425 44.208 866.346 48.5583L1358.17 593.843C1361.57 597.607 1363.56 602.469 1363.78 607.522C1364.06 614.093 1361.42 620.384 1356.52 624.776L809.677 1115.42C805.32 1119.33 799.69 1121.32 793.826 1121.02C787.973 1120.71 782.584 1118.14 778.658 1113.8L286.841 568.509C283.439 564.743 281.445 559.88 281.227 554.827ZM1366.18 607.419C1365.93 601.81 1363.72 596.416 1359.95 592.242L868.133 46.9562C863.782 42.1327 857.804 39.2847 851.302 38.9428C844.802 38.6008 838.558 40.8061 833.72 45.1469L286.875 535.792C281.442 540.665 278.509 547.642 278.828 554.931C279.074 560.539 281.285 565.927 285.054 570.111L776.874 1115.4C781.224 1120.22 787.202 1123.07 793.702 1123.41C800.2 1123.75 806.446 1121.55 811.284 1117.2L1358.13 626.554C1363.57 621.684 1366.5 614.706 1366.18 607.419Z" fill="#DADADA"/>
<path fill-rule="evenodd" clip-rule="evenodd" d="M316.04 547.276C315.77 541.069 318.22 535.078 322.765 530.835L844.138 44.1273C848.289 40.2503 853.709 38.2176 859.389 38.406C865.072 38.5934 870.345 40.9755 874.232 45.1172L1362.11 564.995C1365.58 568.692 1367.61 573.513 1367.84 578.568C1368.11 584.775 1365.66 590.766 1361.12 595.008L839.74 1081.71C831.172 1089.72 817.67 1089.27 809.648 1080.73L321.766 560.848C318.295 557.15 316.264 552.331 316.04 547.276ZM1370.24 578.464C1369.99 572.838 1367.73 567.473 1363.87 563.359L875.985 43.4804C871.661 38.8717 865.798 36.2197 859.473 36.0121C853.147 35.8046 847.119 38.0639 842.497 42.3793L321.124 529.089C316.067 533.808 313.343 540.473 313.642 547.38C313.89 553.004 316.15 558.368 320.013 562.487L807.897 1082.37C816.823 1091.88 831.848 1092.37 841.381 1083.46L1362.76 596.755C1367.81 592.037 1370.54 585.366 1370.24 578.464Z" fill="#DADADA"/>
<path fill-rule="evenodd" clip-rule="evenodd" d="M350.851 539.724C350.597 533.882 352.854 528.185 357.049 524.101L852.948 41.3226C861.089 33.4002 874.174 33.558 882.117 41.6741L1366.06 536.148C1369.61 539.767 1371.68 544.554 1371.9 549.606C1372.16 555.455 1369.9 561.148 1365.7 565.232L869.804 1048.01C861.661 1055.93 848.58 1055.77 840.639 1047.66L356.696 553.187C353.151 549.563 351.073 544.78 350.851 539.724ZM1374.3 549.499C1374.06 543.858 1371.74 538.519 1367.78 534.472L883.836 39.9981C874.968 30.9386 860.363 30.7639 851.277 39.6106L355.375 522.386C350.693 526.945 348.169 533.303 348.454 539.831C348.699 545.475 351.017 550.816 354.979 554.861L838.924 1049.33C847.789 1058.39 862.395 1058.57 871.484 1049.72L1367.38 566.943C1372.06 562.385 1374.59 556.027 1374.3 549.499Z" fill="#DADADA"/>
<path fill-rule="evenodd" clip-rule="evenodd" d="M385.649 532.173C385.407 526.682 387.483 521.287 391.335 517.367L861.763 38.5201C869.472 30.6761 882.138 30.5458 890.003 38.229L1370.01 507.296C1373.63 510.844 1375.76 515.585 1375.98 520.651C1376.22 526.14 1374.14 531.535 1370.29 535.46L899.87 1014.31C892.158 1022.15 879.494 1022.28 871.626 1014.59L391.623 545.526C387.993 541.98 385.871 537.236 385.649 532.173ZM1378.38 520.545C1378.13 514.874 1375.75 509.562 1371.69 505.586L891.686 36.5171C882.874 27.9097 868.685 28.0568 860.05 36.8431L389.62 515.688C385.302 520.081 382.982 526.128 383.249 532.277C383.498 537.951 385.878 543.262 389.943 547.237L869.945 1016.31C878.75 1024.91 892.947 1024.77 901.581 1015.98L1372.01 537.14C1376.32 532.743 1378.65 526.693 1378.38 520.545Z" fill="#DADADA"/>
<path fill-rule="evenodd" clip-rule="evenodd" d="M420.437 524.624C420.21 519.408 422.05 514.435 425.628 510.621L870.582 35.7161C874.101 31.9556 878.886 29.7852 884.042 29.6105C889.202 29.4358 894.121 31.2759 897.892 34.7887L1373.95 478.452C1377.68 481.919 1379.84 486.62 1380.07 491.693C1380.29 496.907 1378.45 501.88 1374.88 505.695L929.926 980.601C922.65 988.365 910.401 988.776 902.614 981.526L426.549 537.863C422.827 534.398 420.661 529.695 420.437 524.624ZM1382.47 491.584C1382.22 485.879 1379.78 480.601 1375.6 476.705L899.532 33.0384C895.291 29.0862 889.764 27.0196 883.96 27.2176C878.161 27.4135 872.787 29.8517 868.821 34.0802L423.871 508.987C419.851 513.275 417.781 518.866 418.035 524.728C418.285 530.433 420.726 535.72 424.911 539.613L900.976 983.279C909.723 991.43 923.501 990.967 931.682 982.24L1376.64 507.329C1380.65 503.038 1382.73 497.452 1382.47 491.584Z" fill="#DADADA"/>
<path fill-rule="evenodd" clip-rule="evenodd" d="M455.214 517.072C455 512.204 456.67 507.525 459.913 503.883L879.395 32.9091C886.242 25.2238 898.079 24.5219 905.785 31.3454L1377.91 449.609C1381.73 452.986 1383.95 457.645 1384.17 462.733C1384.38 467.596 1382.71 472.284 1379.47 475.924L959.987 946.899C953.141 954.586 941.308 955.288 933.596 948.46L461.474 530.2C457.657 526.821 455.434 522.157 455.214 517.072ZM1386.57 462.628C1386.32 456.893 1383.81 451.63 1379.5 447.818L907.378 29.5542C898.684 21.8542 885.325 22.645 877.598 31.317L458.114 502.294C454.456 506.401 452.57 511.686 452.811 517.177C453.062 522.918 455.572 528.177 459.874 531.991L932.002 950.259C940.699 957.952 954.058 957.165 961.786 948.49L1381.26 477.52C1384.92 473.408 1386.81 468.121 1386.57 462.628Z" fill="#DADADA"/>
<path fill-rule="evenodd" clip-rule="evenodd" d="M489.966 509.525C489.768 505.004 491.272 500.604 494.194 497.139L888.204 30.1003C891.309 26.4159 895.672 24.1577 900.48 23.7458C905.292 23.3319 909.977 24.8088 913.669 27.9087L1381.86 420.768C1385.72 424.005 1388.05 428.745 1388.28 433.775C1388.47 438.297 1386.97 442.694 1384.05 446.162L990.041 913.203C983.626 920.806 972.2 921.788 964.575 915.391L496.386 522.538C492.527 519.299 490.187 514.555 489.966 509.525ZM1390.68 433.672C1390.43 427.969 1387.77 422.6 1383.41 418.934L915.216 26.075C911.028 22.5653 905.725 20.8883 900.274 21.3584C894.824 21.8274 889.885 24.3852 886.365 28.5577L492.358 495.598C489.044 499.525 487.345 504.507 487.567 509.627C487.815 515.328 490.467 520.701 494.84 524.371L963.029 917.225C971.667 924.474 984.611 923.359 991.877 914.745L1385.88 447.701C1389.2 443.776 1390.9 438.794 1390.68 433.672Z" fill="#DADADA"/>
<path fill-rule="evenodd" clip-rule="evenodd" d="M524.715 501.975C524.532 497.789 525.871 493.678 528.483 490.394L897.021 27.2903C899.923 23.6451 904.073 21.3424 908.71 20.8099C913.345 20.2763 917.91 21.5764 921.561 24.4667L1385.82 391.922C1389.78 395.062 1392.18 399.761 1392.41 404.818C1392.59 408.998 1391.25 413.11 1388.64 416.399L1020.1 879.504C1014.11 887.031 1003.1 888.297 995.556 882.323L531.308 514.874C527.338 511.733 524.934 507.029 524.715 501.975ZM1394.81 404.71C1394.56 398.962 1391.82 393.619 1387.3 390.044L923.058 22.5904C918.9 19.301 913.708 17.823 908.435 18.4296C903.161 19.0363 898.439 21.6534 895.138 25.8015L526.603 488.906C523.631 492.64 522.107 497.321 522.315 502.081C522.567 507.828 525.296 513.176 529.813 516.747L994.068 884.202C1002.64 890.993 1015.17 889.553 1021.98 880.993L1390.52 417.891C1393.49 414.149 1395.01 409.469 1394.81 404.71Z" fill="#DADADA"/>
<path fill-rule="evenodd" clip-rule="evenodd" d="M559.447 494.428C559.279 490.574 560.461 486.745 562.776 483.644L905.84 24.4742C911.404 17.0303 922 15.4836 929.468 21.0281L1389.77 363.078C1393.86 366.114 1396.33 370.771 1396.55 375.852C1396.72 379.706 1395.54 383.532 1393.23 386.638L1050.16 845.811C1044.6 853.254 1034 854.799 1026.54 849.254L566.225 507.206C562.137 504.17 559.67 499.514 559.447 494.428ZM1398.95 375.748C1398.7 369.94 1395.87 364.624 1391.21 361.152L930.901 19.1078C922.375 12.7724 910.268 14.5394 903.913 23.0441L560.852 482.215C558.208 485.755 556.852 490.129 557.047 494.534C557.3 500.341 560.123 505.659 564.792 509.13L1025.1 851.174C1033.63 857.508 1045.73 855.739 1052.09 847.241L1395.15 388.069C1397.79 384.525 1399.15 380.15 1398.95 375.748Z" fill="#DADADA"/>
<path fill-rule="evenodd" clip-rule="evenodd" d="M594.16 486.885C594.006 483.302 595.008 479.849 597.066 476.897L914.657 21.6591C919.794 14.2946 929.98 12.4704 937.367 17.5904L1393.74 334.236C1397.95 337.16 1400.5 341.771 1400.72 346.891C1400.87 350.473 1399.87 353.925 1397.81 356.874L1080.22 812.118C1075.09 819.486 1064.9 821.308 1057.51 816.184L601.139 499.542C596.927 496.62 594.385 492.003 594.16 486.885ZM1403.11 346.785C1402.86 340.914 1399.94 335.62 1395.1 332.267L938.737 15.6253C930.264 9.75046 918.577 11.8425 912.686 20.29L595.094 475.529C592.733 478.915 591.578 482.876 591.76 486.988C592.015 492.861 594.933 498.154 599.762 501.509L1056.14 818.154C1064.61 824.029 1076.3 821.936 1082.19 813.489L1399.78 358.247C1402.14 354.863 1403.29 350.901 1403.11 346.785Z" fill="#DADADA"/>
<path fill-rule="evenodd" clip-rule="evenodd" d="M628.849 479.34C628.706 476.076 629.57 472.898 631.356 470.144L923.474 18.8369C928.188 11.5582 937.963 9.45456 945.266 14.1532L1397.7 305.389C1401.98 308.152 1404.68 312.838 1404.9 317.929C1405.04 321.19 1404.17 324.367 1402.39 327.12L1110.27 778.433C1105.56 785.709 1095.79 787.811 1088.48 783.11L636.048 491.873C631.764 489.114 629.074 484.429 628.849 479.34ZM1407.3 317.823C1407.04 311.956 1403.94 306.557 1399 303.38L946.569 12.1411C938.157 6.72467 926.89 9.14914 921.456 17.5406L629.341 468.845C627.285 472.018 626.286 475.684 626.45 479.444C626.706 485.309 629.807 490.71 634.75 493.885L1087.18 785.124C1095.59 790.539 1106.86 788.118 1112.29 779.729L1404.41 328.425C1406.46 325.248 1407.46 321.585 1407.3 317.823Z" fill="#DADADA"/>
<path fill-rule="evenodd" clip-rule="evenodd" d="M663.521 471.792C663.391 468.846 664.128 465.938 665.644 463.388L932.287 16.0154C936.582 8.81502 945.95 6.43607 953.169 10.7144L1401.66 276.548C1406.09 279.175 1408.88 283.818 1409.1 288.962C1409.23 291.913 1408.49 294.819 1406.98 297.371L1140.33 744.743C1136.04 751.945 1126.67 754.323 1119.45 750.041L670.958 484.208C666.524 481.58 663.746 476.94 663.521 471.792ZM1411.5 288.857C1411.24 282.901 1408.02 277.529 1402.89 274.49L954.397 8.65519C946.036 3.70144 935.192 6.45623 930.226 14.7926L663.582 462.161C661.82 465.116 660.971 468.48 661.118 471.901C661.379 477.857 664.598 483.227 669.729 486.27L1118.22 752.104C1126.58 757.055 1137.43 754.303 1142.39 745.968L1409.04 298.595C1410.8 295.644 1411.65 292.273 1411.5 288.857Z" fill="#DADADA"/>
<path fill-rule="evenodd" clip-rule="evenodd" d="M698.166 464.256C698.051 461.609 698.661 458.97 699.939 456.629L941.109 13.1912C944.982 6.07021 953.938 3.41705 961.081 7.27821L1405.63 247.704C1410.23 250.189 1413.1 254.782 1413.33 259.994C1413.45 262.642 1412.84 265.28 1411.56 267.623L1170.39 711.06C1166.51 718.18 1157.56 720.834 1150.42 716.972L705.861 476.542C701.269 474.059 698.393 469.469 698.166 464.256ZM1415.73 259.891C1415.47 253.921 1412.04 248.447 1406.78 245.602L962.225 5.17235C953.921 0.683373 943.5 3.76848 938.997 12.0509L697.825 455.486C696.343 458.215 695.636 461.277 695.766 464.36C696.03 470.328 699.46 475.804 704.714 478.651L1149.27 719.08C1157.58 723.57 1168 720.485 1172.5 712.199L1413.67 268.765C1415.15 266.037 1415.87 262.97 1415.73 259.891Z" fill="#DADADA"/>
<mask id="mask1_4146_11043" style="mask-type:luminance" maskUnits="userSpaceOnUse" x="730" y="0" width="690" height="688">
<path fill-rule="evenodd" clip-rule="evenodd" d="M1420 0H730.368V687.743H1420V0Z" fill="white"/>
</mask>
<g mask="url(#mask1_4146_11043)">
<path fill-rule="evenodd" clip-rule="evenodd" d="M732.784 456.715C732.682 454.363 733.182 451.996 734.231 449.865L949.929 10.3622C953.379 3.32276 961.932 0.395396 968.991 3.83941L1409.61 218.865C1414.3 221.155 1417.36 225.815 1417.58 231.024C1417.69 233.378 1417.19 235.748 1416.14 237.879L1200.45 677.382C1196.99 684.42 1188.44 687.347 1181.38 683.901L740.763 468.88C736.072 466.588 733.014 461.927 732.784 456.715ZM1419.98 230.919C1419.72 224.831 1416.15 219.386 1410.67 216.714L970.048 1.68693C961.801 -2.33515 951.805 1.0824 947.767 9.30866L732.066 448.812C730.846 451.301 730.263 454.07 730.383 456.821C730.649 462.91 734.22 468.356 739.706 471.029L1180.32 686.052C1188.57 690.081 1198.57 686.662 1202.6 678.435L1418.3 238.929C1419.52 236.444 1420.11 233.672 1419.98 230.919Z" fill="#DADADA"/>
</g>
</g>
</svg>
