<svg width="40" height="41" viewBox="0 0 40 41" fill="none" xmlns="http://www.w3.org/2000/svg">
<path fill-rule="evenodd" clip-rule="evenodd" d="M20.5182 37.6818H3.77448C3.67069 37.6818 3.57081 37.6387 3.49835 37.5662C3.42394 37.4918 3.38281 37.3939 3.38281 37.2901V34.4486C3.38281 32.8232 4.5441 31.3897 6.33402 30.1716C9.53002 27.99 14.702 26.6152 20.5182 26.6152C21.329 26.6152 21.987 25.9572 21.987 25.1465C21.987 24.3377 21.329 23.6777 20.5182 23.6777C14.0126 23.6777 8.25319 25.3051 4.67727 27.7432C1.94931 29.6037 0.445312 31.9674 0.445312 34.4486V37.2901C0.445312 38.1714 0.795854 39.0193 1.42056 39.644C2.04527 40.2668 2.89127 40.6193 3.77448 40.6193C6.67085 40.6193 20.5182 40.6193 20.5182 40.6193C21.329 40.6173 21.987 39.9593 21.987 39.1486C21.987 38.3398 21.329 37.6798 20.5182 37.6818ZM20.5182 0.447998C14.5727 0.447998 9.7474 5.27333 9.7474 11.2188C9.7474 17.1643 14.5727 21.9897 20.5182 21.9897C26.4637 21.9897 31.2891 17.1643 31.2891 11.2188C31.2891 5.27333 26.4637 0.447998 20.5182 0.447998ZM20.5182 3.3855C24.8422 3.3855 28.3516 6.89483 28.3516 11.2188C28.3516 15.5428 24.8422 19.0522 20.5182 19.0522C16.1942 19.0522 12.6849 15.5428 12.6849 11.2188C12.6849 6.89483 16.1942 3.3855 20.5182 3.3855ZM32.2682 25.2953C28.4181 25.2953 25.2926 28.4208 25.2926 32.2709C25.2926 36.121 28.4181 39.2485 32.2682 39.2485C36.1183 39.2485 39.2458 36.121 39.2458 32.2709C39.2458 28.4208 36.1183 25.2953 32.2682 25.2953ZM32.2682 28.2328C34.4968 28.2328 36.3083 30.0423 36.3083 32.2709C36.3083 34.4995 34.4968 36.311 32.2682 36.311C30.0396 36.311 28.2282 34.4995 28.2282 32.2709C28.2282 30.0423 30.0396 28.2328 32.2682 28.2328Z" fill="#FF7500"/>
</svg>
