<svg width="52" height="47" viewBox="0 0 52 47" fill="none" xmlns="http://www.w3.org/2000/svg">
<path d="M18.7612 5.59521C15.0571 5.59521 12.0469 8.60545 12.0469 12.3095C12.0469 16.0135 15.0571 19.0238 18.7612 19.0238C22.4652 19.0238 25.4754 16.0135 25.4754 12.3095C25.4754 8.60545 22.4652 5.59521 18.7612 5.59521ZM23.0919 11.1905H19.8802V7.97879C21.4469 8.38724 22.6834 9.62379 23.0919 11.1905ZM18.7612 16.7857C16.2937 16.7857 14.285 14.777 14.285 12.3095C14.285 10.2281 15.7174 8.47676 17.6421 7.97879V12.3095C17.6421 12.925 18.1457 13.4285 18.7612 13.4285H23.0919C22.5939 15.3533 20.8426 16.7857 18.7612 16.7857ZM29.9516 7.83331H38.904C39.5195 7.83331 40.0231 7.32974 40.0231 6.71426C40.0231 6.09879 39.5195 5.59521 38.904 5.59521H29.9516C29.3362 5.59521 28.8326 6.09879 28.8326 6.71426C28.8326 7.32974 29.3362 7.83331 29.9516 7.83331ZM29.9516 13.4285H38.904C39.5195 13.4285 40.0231 12.925 40.0231 12.3095C40.0231 11.694 39.5195 11.1905 38.904 11.1905H29.9516C29.3362 11.1905 28.8326 11.694 28.8326 12.3095C28.8326 12.925 29.3362 13.4285 29.9516 13.4285ZM29.9516 19.0238H38.904C39.5195 19.0238 40.0231 18.5202 40.0231 17.9047C40.0231 17.2893 39.5195 16.7857 38.904 16.7857H29.9516C29.3362 16.7857 28.8326 17.2893 28.8326 17.9047C28.8326 18.5202 29.3362 19.0238 29.9516 19.0238Z" fill="#FF7500"/>
<path d="M47.8555 27.9762H27.1531V24.619H42.2602C44.1123 24.619 45.6174 23.1139 45.6174 21.2619V3.35714C45.6174 1.50512 44.1123 0 42.2602 0H9.80785C7.95583 0 6.45071 1.50512 6.45071 3.35714V21.2619C6.45071 23.1139 7.95583 24.619 9.80785 24.619H24.915V27.9762H4.21261C2.36059 27.9762 0.855469 29.4813 0.855469 31.3333V43.6429C0.855469 45.4949 2.36059 47 4.21261 47H47.8555C49.7075 47 51.2126 45.4949 51.2126 43.6429V31.3333C51.2126 29.4813 49.7075 27.9762 47.8555 27.9762ZM8.6888 21.2619V3.35714C8.6888 2.74167 9.19237 2.2381 9.80785 2.2381H42.2602C42.8757 2.2381 43.3793 2.74167 43.3793 3.35714V21.2619C43.3793 21.8774 42.8757 22.381 42.2602 22.381H9.80785C9.19237 22.381 8.6888 21.8774 8.6888 21.2619ZM48.9745 43.6429C48.9745 44.2583 48.4709 44.7619 47.8555 44.7619H4.21261C3.59714 44.7619 3.09356 44.2583 3.09356 43.6429V31.3333C3.09356 30.7179 3.59714 30.2143 4.21261 30.2143H47.8555C48.4709 30.2143 48.9745 30.7179 48.9745 31.3333V43.6429Z" fill="#FF7500"/>
<path d="M23.2362 35.8094C23.8543 35.8094 24.3553 35.3084 24.3553 34.6903C24.3553 34.0723 23.8543 33.5713 23.2362 33.5713C22.6182 33.5713 22.1172 34.0723 22.1172 34.6903C22.1172 35.3084 22.6182 35.8094 23.2362 35.8094Z" fill="#FF7500"/>
<path d="M23.2362 41.4046C23.8543 41.4046 24.3553 40.9036 24.3553 40.2856C24.3553 39.6675 23.8543 39.1665 23.2362 39.1665C22.6182 39.1665 22.1172 39.6675 22.1172 40.2856C22.1172 40.9036 22.6182 41.4046 23.2362 41.4046Z" fill="#FF7500"/>
<path d="M28.83 35.8094C29.448 35.8094 29.949 35.3084 29.949 34.6903C29.949 34.0723 29.448 33.5713 28.83 33.5713C28.212 33.5713 27.7109 34.0723 27.7109 34.6903C27.7109 35.3084 28.212 35.8094 28.83 35.8094Z" fill="#FF7500"/>
<path d="M28.83 41.4046C29.448 41.4046 29.949 40.9036 29.949 40.2856C29.949 39.6675 29.448 39.1665 28.83 39.1665C28.212 39.1665 27.7109 39.6675 27.7109 40.2856C27.7109 40.9036 28.212 41.4046 28.83 41.4046Z" fill="#FF7500"/>
<path d="M34.4237 35.8094C35.0418 35.8094 35.5428 35.3084 35.5428 34.6903C35.5428 34.0723 35.0418 33.5713 34.4237 33.5713C33.8057 33.5713 33.3047 34.0723 33.3047 34.6903C33.3047 35.3084 33.8057 35.8094 34.4237 35.8094Z" fill="#FF7500"/>
<path d="M34.4237 41.4046C35.0418 41.4046 35.5428 40.9036 35.5428 40.2856C35.5428 39.6675 35.0418 39.1665 34.4237 39.1665C33.8057 39.1665 33.3047 39.6675 33.3047 40.2856C33.3047 40.9036 33.8057 41.4046 34.4237 41.4046Z" fill="#FF7500"/>
<path d="M17.6397 33.5713H7.56827C6.95279 33.5713 6.44922 34.0749 6.44922 34.6903V40.2856C6.44922 40.9011 6.95279 41.4046 7.56827 41.4046H17.6397C18.2552 41.4046 18.7587 40.9011 18.7587 40.2856V34.6903C18.7587 34.0749 18.2552 33.5713 17.6397 33.5713ZM16.5206 39.1665H8.68731V35.8094H16.5206V39.1665ZM44.4968 36.3689H41.1397V34.6903C41.1397 34.0749 40.6361 33.5713 40.0206 33.5713C39.4052 33.5713 38.9016 34.0749 38.9016 34.6903V40.2856C38.9016 40.9011 39.4052 41.4046 40.0206 41.4046C40.6361 41.4046 41.1397 40.9011 41.1397 40.2856V38.607H44.4968C45.1123 38.607 45.6159 38.1034 45.6159 37.488C45.6159 36.8725 45.1123 36.3689 44.4968 36.3689Z" fill="#FF7500"/>
</svg>
