
<svg width="40" height="47" viewBox="0 0 48 47" fill="none" xmlns="http://www.w3.org/2000/svg">
<path fill-rule="evenodd" clip-rule="evenodd" d="M7.65547 14.1H40.5555C42.4252 14.1 44.2184 13.3572 45.5406 12.0351C46.8627 10.713 47.6055 8.91978 47.6055 7.05C47.6055 5.18022 46.8627 3.38703 45.5406 2.0649C44.2184 0.742769 42.4252 0 40.5555 0H7.65547C5.78569 0 3.9925 0.742769 2.67036 2.0649C1.34823 3.38703 0.605469 5.18022 0.605469 7.05C0.605469 8.91978 1.34823 10.713 2.67036 12.0351C3.9925 13.3572 5.78569 14.1 7.65547 14.1ZM7.65547 2.35H40.5555C41.802 2.35 42.9975 2.84517 43.8789 3.72659C44.7603 4.60802 45.2555 5.80348 45.2555 7.05C45.2555 8.29652 44.7603 9.49198 43.8789 10.3734C42.9975 11.2548 41.802 11.75 40.5555 11.75H7.65547C6.40895 11.75 5.21349 11.2548 4.33207 10.3734C3.45065 9.49198 2.95547 8.29652 2.95547 7.05C2.95547 5.80348 3.45065 4.60802 4.33207 3.72659C5.21349 2.84517 6.40895 2.35 7.65547 2.35ZM7.53797 8.225C7.8496 8.225 8.14846 8.10121 8.36882 7.88085C8.58917 7.6605 8.71297 7.36163 8.71297 7.05C8.71297 6.73837 8.58917 6.4395 8.36882 6.21915C8.14846 5.99879 7.8496 5.875 7.53797 5.875C7.22634 5.875 6.92747 5.99879 6.70712 6.21915C6.48676 6.4395 6.36297 6.73837 6.36297 7.05C6.36297 7.36163 6.48676 7.6605 6.70712 7.88085C6.92747 8.10121 7.22634 8.225 7.53797 8.225ZM12.238 8.225C12.5496 8.225 12.8485 8.10121 13.0688 7.88085C13.2892 7.6605 13.413 7.36163 13.413 7.05C13.413 6.73837 13.2892 6.4395 13.0688 6.21915C12.8485 5.99879 12.5496 5.875 12.238 5.875C11.9263 5.875 11.6275 5.99879 11.4071 6.21915C11.1868 6.4395 11.063 6.73837 11.063 7.05C11.063 7.36163 11.1868 7.6605 11.4071 7.88085C11.6275 8.10121 11.9263 8.225 12.238 8.225ZM16.938 8.225C17.2496 8.225 17.5485 8.10121 17.7688 7.88085C17.9892 7.6605 18.113 7.36163 18.113 7.05C18.113 6.73837 17.9892 6.4395 17.7688 6.21915C17.5485 5.99879 17.2496 5.875 16.938 5.875C16.6263 5.875 16.3275 5.99879 16.1071 6.21915C15.8868 6.4395 15.763 6.73837 15.763 7.05C15.763 7.36163 15.8868 7.6605 16.1071 7.88085C16.3275 8.10121 16.6263 8.225 16.938 8.225ZM40.5555 16.45H7.65547C5.78569 16.45 3.9925 17.1928 2.67036 18.5149C1.34823 19.837 0.605469 21.6302 0.605469 23.5C0.605469 25.3698 1.34823 27.163 2.67036 28.4851C3.9925 29.8072 5.78569 30.55 7.65547 30.55H40.5555C42.4252 30.55 44.2184 29.8072 45.5406 28.4851C46.8627 27.163 47.6055 25.3698 47.6055 23.5C47.6055 21.6302 46.8627 19.837 45.5406 18.5149C44.2184 17.1928 42.4252 16.45 40.5555 16.45ZM40.5555 28.2H7.65547C6.40895 28.2 5.21349 27.7048 4.33207 26.8234C3.45065 25.942 2.95547 24.7465 2.95547 23.5C2.95547 22.2535 3.45065 21.058 4.33207 20.1766C5.21349 19.2952 6.40895 18.8 7.65547 18.8H40.5555C41.802 18.8 42.9975 19.2952 43.8789 20.1766C44.7603 21.058 45.2555 22.2535 45.2555 23.5C45.2555 24.7465 44.7603 25.942 43.8789 26.8234C42.9975 27.7048 41.802 28.2 40.5555 28.2ZM7.53797 22.325C7.22634 22.325 6.92747 22.4488 6.70712 22.6691C6.48676 22.8895 6.36297 23.1884 6.36297 23.5C6.36297 23.8116 6.48676 24.1105 6.70712 24.3309C6.92747 24.5512 7.22634 24.675 7.53797 24.675C7.8496 24.675 8.14846 24.5512 8.36882 24.3309C8.58917 24.1105 8.71297 23.8116 8.71297 23.5C8.71297 23.1884 8.58917 22.8895 8.36882 22.6691C8.14846 22.4488 7.8496 22.325 7.53797 22.325ZM12.238 22.325C11.9263 22.325 11.6275 22.4488 11.4071 22.6691C11.1868 22.8895 11.063 23.1884 11.063 23.5C11.063 23.8116 11.1868 24.1105 11.4071 24.3309C11.6275 24.5512 11.9263 24.675 12.238 24.675C12.5496 24.675 12.8485 24.5512 13.0688 24.3309C13.2892 24.1105 13.413 23.8116 13.413 23.5C13.413 23.1884 13.2892 22.8895 13.0688 22.6691C12.8485 22.4488 12.5496 22.325 12.238 22.325ZM16.938 22.325C16.6263 22.325 16.3275 22.4488 16.1071 22.6691C15.8868 22.8895 15.763 23.1884 15.763 23.5C15.763 23.8116 15.8868 24.1105 16.1071 24.3309C16.3275 24.5512 16.6263 24.675 16.938 24.675C17.2496 24.675 17.5485 24.5512 17.7688 24.3309C17.9892 24.1105 18.113 23.8116 18.113 23.5C18.113 23.1884 17.9892 22.8895 17.7688 22.6691C17.5485 22.4488 17.2496 22.325 16.938 22.325ZM40.5555 32.9H7.65547C5.78569 32.9 3.9925 33.6428 2.67036 34.9649C1.34823 36.287 0.605469 38.0802 0.605469 39.95C0.605469 41.8198 1.34823 43.613 2.67036 44.9351C3.9925 46.2572 5.78569 47 7.65547 47H40.5555C42.4252 47 44.2184 46.2572 45.5406 44.9351C46.8627 43.613 47.6055 41.8198 47.6055 39.95C47.6055 38.0802 46.8627 36.287 45.5406 34.9649C44.2184 33.6428 42.4252 32.9 40.5555 32.9ZM40.5555 44.65H7.65547C6.40895 44.65 5.21349 44.1548 4.33207 43.2734C3.45065 42.392 2.95547 41.1965 2.95547 39.95C2.95547 38.7035 3.45065 37.508 4.33207 36.6266C5.21349 35.7452 6.40895 35.25 7.65547 35.25H40.5555C41.802 35.25 42.9975 35.7452 43.8789 36.6266C44.7603 37.508 45.2555 38.7035 45.2555 39.95C45.2555 41.1965 44.7603 42.392 43.8789 43.2734C42.9975 44.1548 41.802 44.65 40.5555 44.65ZM7.53797 38.775C7.22634 38.775 6.92747 38.8988 6.70712 39.1191C6.48676 39.3395 6.36297 39.6384 6.36297 39.95C6.36297 40.2616 6.48676 40.5605 6.70712 40.7808C6.92747 41.0012 7.22634 41.125 7.53797 41.125C7.8496 41.125 8.14846 41.0012 8.36882 40.7808C8.58917 40.5605 8.71297 40.2616 8.71297 39.95C8.71297 39.6384 8.58917 39.3395 8.36882 39.1191C8.14846 38.8988 7.8496 38.775 7.53797 38.775ZM12.238 38.775C11.9263 38.775 11.6275 38.8988 11.4071 39.1191C11.1868 39.3395 11.063 39.6384 11.063 39.95C11.063 40.2616 11.1868 40.5605 11.4071 40.7808C11.6275 41.0012 11.9263 41.125 12.238 41.125C12.5496 41.125 12.8485 41.0012 13.0688 40.7808C13.2892 40.5605 13.413 40.2616 13.413 39.95C13.413 39.6384 13.2892 39.3395 13.0688 39.1191C12.8485 38.8988 12.5496 38.775 12.238 38.775ZM16.938 38.775C16.6263 38.775 16.3275 38.8988 16.1071 39.1191C15.8868 39.3395 15.763 39.6384 15.763 39.95C15.763 40.2616 15.8868 40.5605 16.1071 40.7808C16.3275 41.0012 16.6263 41.125 16.938 41.125C17.2496 41.125 17.5485 41.0012 17.7688 40.7808C17.9892 40.5605 18.113 40.2616 18.113 39.95C18.113 39.6384 17.9892 39.3395 17.7688 39.1191C17.5485 38.8988 17.2496 38.775 16.938 38.775Z" fill="#FF7500"/>
</svg>
