<svg width="52" height="52" viewBox="0 0 52 52" fill="none" xmlns="http://www.w3.org/2000/svg">
<g opacity="0.6">
<path d="M43.7955 34.1818C43.5122 34.1818 43.2405 34.2944 43.0401 34.4947C42.8398 34.695 42.7273 34.9667 42.7273 35.25V41.6591C42.7273 43.4259 41.2895 44.8636 39.5227 44.8636H5.34091C3.57414 44.8636 2.13636 43.4259 2.13636 41.6591V10.6818H42.7273V18.1591C42.7273 18.4424 42.8398 18.7141 43.0401 18.9144C43.2405 19.1147 43.5122 19.2273 43.7955 19.2273C44.0788 19.2273 44.3504 19.1147 44.5508 18.9144C44.7511 18.7141 44.8636 18.4424 44.8636 18.1591V5.34091C44.8636 2.397 42.4688 0 39.5227 0H5.34091C3.92493 0.00169612 2.56744 0.564942 1.56619 1.56619C0.564942 2.56744 0.00169612 3.92493 0 5.34091L0 41.6591C0 44.603 2.39486 47 5.34091 47H39.5227C42.4688 47 44.8636 44.603 44.8636 41.6591V35.25C44.8636 34.9667 44.7511 34.695 44.5508 34.4947C44.3504 34.2944 44.0788 34.1818 43.7955 34.1818ZM5.34091 2.13636H39.5227C41.2895 2.13636 42.7273 3.57414 42.7273 5.34091V8.54545H2.13636V5.34091C2.13636 3.57414 3.57414 2.13636 5.34091 2.13636Z" fill="#FF7500"/>
<path d="M5.34162 6.40907C5.93156 6.40907 6.4098 5.93083 6.4098 5.34089C6.4098 4.75095 5.93156 4.27271 5.34162 4.27271C4.75168 4.27271 4.27344 4.75095 4.27344 5.34089C4.27344 5.93083 4.75168 6.40907 5.34162 6.40907Z" fill="#FF7500"/>
<path d="M9.61506 6.40907C10.205 6.40907 10.6832 5.93083 10.6832 5.34089C10.6832 4.75095 10.205 4.27271 9.61506 4.27271C9.02512 4.27271 8.54688 4.75095 8.54688 5.34089C8.54688 5.93083 9.02512 6.40907 9.61506 6.40907Z" fill="#FF7500"/>
<path d="M13.8846 6.40907C14.4745 6.40907 14.9528 5.93083 14.9528 5.34089C14.9528 4.75095 14.4745 4.27271 13.8846 4.27271C13.2946 4.27271 12.8164 4.75095 12.8164 5.34089C12.8164 5.93083 13.2946 6.40907 13.8846 6.40907Z" fill="#FF7500"/>
<path d="M48.0685 21.3635H45.9322C45.6489 21.3635 45.3772 21.4761 45.1769 21.6764C44.9765 21.8767 44.864 22.1484 44.864 22.4317V30.9772C44.864 31.2605 44.9765 31.5322 45.1769 31.7325C45.3772 31.9328 45.6489 32.0453 45.9322 32.0453C46.2155 32.0453 46.4872 31.9328 46.6875 31.7325C46.8878 31.5322 47.0004 31.2605 47.0004 30.9772V27.7726H48.0685C49.8353 27.7726 51.2731 26.3348 51.2731 24.5681C51.2731 22.8013 49.8353 21.3635 48.0685 21.3635ZM48.0685 25.6363H47.0004V23.4999H48.0685C48.3518 23.4999 48.6235 23.6124 48.8239 23.8128C49.0242 24.0131 49.1367 24.2848 49.1367 24.5681C49.1367 24.8514 49.0242 25.1231 48.8239 25.3234C48.6235 25.5237 48.3518 25.6363 48.0685 25.6363ZM26.7049 21.3635C26.4216 21.3635 26.1499 21.4761 25.9496 21.6764C25.7493 21.8767 25.6367 22.1484 25.6367 22.4317V30.9772C25.6367 31.2605 25.7493 31.5322 25.9496 31.7325C26.1499 31.9328 26.4216 32.0453 26.7049 32.0453C26.9882 32.0453 27.2599 31.9328 27.4602 31.7325C27.6605 31.5322 27.7731 31.2605 27.7731 30.9772V27.7726H28.8413C30.608 27.7726 32.0458 26.3348 32.0458 24.5681C32.0458 22.8013 30.608 21.3635 28.8413 21.3635H26.7049ZM29.9094 24.5681C29.9094 24.8514 29.7969 25.1231 29.5966 25.3234C29.3963 25.5237 29.1246 25.6363 28.8413 25.6363H27.7731V23.4999H28.8413C29.1246 23.4999 29.3963 23.6124 29.5966 23.8128C29.7969 24.0131 29.9094 24.2848 29.9094 24.5681ZM41.6594 32.0453C41.9427 32.0453 42.2144 31.9328 42.4148 31.7325C42.6151 31.5322 42.7276 31.2605 42.7276 30.9772V22.4317C42.7276 22.1484 42.6151 21.8767 42.4148 21.6764C42.2144 21.4761 41.9427 21.3635 41.6594 21.3635C41.3761 21.3635 41.1045 21.4761 40.9041 21.6764C40.7038 21.8767 40.5913 22.1484 40.5913 22.4317V25.6363H36.3185V22.4317C36.3185 22.1484 36.206 21.8767 36.0057 21.6764C35.8054 21.4761 35.5337 21.3635 35.2504 21.3635C34.9671 21.3635 34.6954 21.4761 34.495 21.6764C34.2947 21.8767 34.1822 22.1484 34.1822 22.4317V30.9772C34.1822 31.2605 34.2947 31.5322 34.495 31.7325C34.6954 31.9328 34.9671 32.0453 35.2504 32.0453C35.5337 32.0453 35.8054 31.9328 36.0057 31.7325C36.206 31.5322 36.3185 31.2605 36.3185 30.9772V27.7726H40.5913V30.9772C40.5913 31.2605 40.7038 31.5322 40.9041 31.7325C41.1045 31.9328 41.3761 32.0453 41.6594 32.0453Z" fill="#FF7500"/>
</g>
</svg>
