<svg width="48" height="47" viewBox="0 0 48 47" fill="none" xmlns="http://www.w3.org/2000/svg">
<g opacity="0.6">
<path d="M37.4335 32.1656H9.58604C7.66687 33.2231 6.08063 34.9563 6.00229 37.649C5.9925 38.1875 6.41354 38.6379 6.95208 38.6477H6.98146C7.51021 38.6477 7.95083 38.2267 7.96063 37.6979C8.05854 33.8792 12.5333 32.949 14.1783 32.7335C15.2652 35.8767 17.4292 38.8044 20.2296 39.7933C20.2394 39.8031 20.259 39.8031 20.2785 39.8129C20.3471 39.8423 20.4058 39.8521 20.4744 39.8619C20.5821 39.8815 20.6898 39.8815 20.7975 39.8619C20.8856 39.8423 20.9738 39.8227 21.0521 39.7835C21.101 39.764 21.15 39.7346 21.199 39.6954C21.2442 39.6708 21.2841 39.6375 21.3165 39.5975C21.3752 39.5387 21.434 39.48 21.4731 39.4017C21.5025 39.3625 21.5221 39.3135 21.5417 39.2646L21.5613 39.2156L23.6371 33.9967L25.7031 39.2058L25.7227 39.2548C25.7423 39.3037 25.7619 39.3527 25.7913 39.3919C25.9675 39.7052 26.2906 39.8815 26.6333 39.8815C26.6921 39.8815 26.7508 39.8717 26.8194 39.8619C26.8585 39.8521 26.9075 39.8423 26.9467 39.8227C26.9663 39.8227 26.976 39.8227 26.9956 39.8129C27.0152 39.8031 27.0446 39.7933 27.0642 39.7835C27.916 39.4898 28.6994 39.0883 29.4338 38.5792C31.1571 37.3944 32.4496 35.7396 33.1938 33.791C33.2917 33.5365 33.3798 33.2133 33.4581 32.8413C35.4458 33.2133 38.9512 34.3394 39.0394 37.6979C39.059 38.2267 39.4898 38.6477 40.0185 38.6477H40.0479C40.5865 38.6281 41.0173 38.1777 40.9977 37.6392C40.9292 35.0444 39.4408 33.2721 37.4335 32.1656ZM39.245 26.2906H41.7125C41.6915 26.1018 41.6129 25.924 41.4873 25.7815C37.7665 21.5613 34.0554 22.3348 32.3517 23.0594C31.4606 21.6004 30.2073 20.3862 28.7288 19.554C29.4681 18.52 29.8653 17.2805 29.8646 16.0094C29.8646 13.1306 27.9062 10.7023 25.2527 9.99729C26.3396 8.39146 28.4938 5.89458 30.7067 6.92271C31.1963 7.14792 31.7837 6.9325 32.009 6.44292C32.2342 5.95333 32.0285 5.37563 31.5292 5.15042C27.9748 3.49563 25.0177 6.83458 23.6273 8.88104C22.2369 6.83458 19.2798 3.49563 15.7156 5.15042C15.226 5.37563 15.0106 5.95333 15.2456 6.44292C15.4708 6.9325 16.0583 7.14792 16.5479 6.92271C18.7804 5.88479 20.9346 8.39146 22.0117 9.99729C19.3679 10.7023 17.4096 13.1306 17.4096 16.0094C17.4096 17.2823 17.8013 18.516 18.5258 19.5442C17.0118 20.4079 15.7443 21.645 14.8442 23.1377C13.2481 22.4033 9.39021 21.3752 5.5225 25.7815C5.38542 25.9283 5.30708 26.1046 5.29729 26.2906H7.76479C10.526 23.7252 12.9935 24.4204 14.0119 24.9002C13.8454 25.3506 13.7181 25.8206 13.6202 26.2906H33.654C33.5462 25.7815 33.3994 25.2919 33.2133 24.8023C34.3394 24.3519 36.66 23.8917 39.245 26.2906ZM0.979167 12.551C1.23886 12.551 1.48791 12.4478 1.67154 12.2642C1.85517 12.0805 1.95833 11.8315 1.95833 11.5718V1.95833H11.5728C11.8325 1.95833 12.0815 1.85517 12.2651 1.67154C12.4488 1.48791 12.5519 1.23886 12.5519 0.979167C12.5519 0.719476 12.4488 0.470421 12.2651 0.286791C12.0815 0.103162 11.8325 0 11.5728 0H0.979167C0.719476 0 0.47042 0.103162 0.286791 0.286791C0.103162 0.470421 0 0.719476 0 0.979167V11.5718C0 11.8315 0.103162 12.0805 0.286791 12.2642C0.47042 12.4478 0.719476 12.551 0.979167 12.551ZM46.0208 12.551C46.2805 12.551 46.5296 12.4478 46.7132 12.2642C46.8968 12.0805 47 11.8315 47 11.5718V0.979167C47 0.719476 46.8968 0.470421 46.7132 0.286791C46.5296 0.103162 46.2805 0 46.0208 0H35.4292C35.1695 0 34.9204 0.103162 34.7368 0.286791C34.5532 0.470421 34.45 0.719476 34.45 0.979167C34.45 1.23886 34.5532 1.48791 34.7368 1.67154C34.9204 1.85517 35.1695 1.95833 35.4292 1.95833H45.0436V11.5718C45.0436 11.8315 45.1468 12.0805 45.3304 12.2642C45.514 12.4478 45.7631 12.551 46.0228 12.551H46.0208ZM34.45 46.0208C34.45 46.2805 34.5532 46.5296 34.7368 46.7132C34.9204 46.8968 35.1695 47 35.4292 47H46.0228C46.2825 47 46.5315 46.8968 46.7152 46.7132C46.8988 46.5296 47.002 46.2805 47.002 46.0208V35.4282C47.002 35.1685 46.8988 34.9195 46.7152 34.7358C46.5315 34.5522 46.2825 34.449 46.0228 34.449C45.7631 34.449 45.514 34.5522 45.3304 34.7358C45.1468 34.9195 45.0436 35.1685 45.0436 35.4282V45.0417H35.4292C35.1695 45.0417 34.9204 45.1448 34.7368 45.3285C34.5532 45.5121 34.45 45.7611 34.45 46.0208ZM11.5737 47C11.8334 47 12.0825 46.8968 12.2661 46.7132C12.4498 46.5296 12.5529 46.2805 12.5529 46.0208C12.5529 45.7611 12.4498 45.5121 12.2661 45.3285C12.0825 45.1448 11.8334 45.0417 11.5737 45.0417H1.95833V35.4282C1.95833 35.1685 1.85517 34.9195 1.67154 34.7358C1.48791 34.5522 1.23886 34.449 0.979167 34.449C0.719476 34.449 0.47042 34.5522 0.286791 34.7358C0.103162 34.9195 0 35.1685 0 35.4282V46.0208C0 46.2805 0.103162 46.5296 0.286791 46.7132C0.47042 46.8968 0.719476 47 0.979167 47H11.5718H11.5737ZM46.8237 28.249H1.72333C1.18479 28.249 0.744166 28.6896 0.744166 29.2281C0.744166 29.7667 1.18479 30.2073 1.72333 30.2073H46.8237C47.3721 30.2073 47.8029 29.7667 47.8029 29.2281C47.8029 28.6896 47.3721 28.249 46.8237 28.249Z" fill="#FF7500"/>
</g>
</svg>
