<svg width="27" height="47" viewBox="0 0 27 47" fill="none" xmlns="http://www.w3.org/2000/svg">
<path d="M9.82351 0C4.74459 0 0.605469 4.12912 0.605469 9.21804C0.604993 10.5683 0.901146 11.9021 1.47299 13.1253C2.04483 14.3484 2.87841 15.431 3.91477 16.2965C4.33468 16.6565 4.97454 16.5965 5.32447 16.1666C5.67439 15.7467 5.6244 15.1168 5.19449 14.7569C4.38165 14.0807 3.72746 13.234 3.27824 12.2768C2.82903 11.3196 2.59579 10.2754 2.59505 9.21804C2.59505 5.23889 5.83436 1.99958 9.81351 1.99958C13.7927 1.99958 17.032 5.23889 17.032 9.21804C17.032 11.3776 16.0822 13.3972 14.4125 14.7769C14.254 14.9082 14.1399 15.0853 14.0858 15.2839C14.0317 15.4826 14.0402 15.6931 14.1102 15.8867C14.1802 16.0803 14.3083 16.2475 14.4769 16.3656C14.6456 16.4837 14.8465 16.5469 15.0524 16.5465C15.2724 16.5465 15.5023 16.4665 15.6923 16.3165C16.7372 15.4522 17.5784 14.3678 18.1557 13.1407C18.7329 11.9136 19.032 10.5741 19.0316 9.21804C19.0416 4.12912 14.9124 0 9.82351 0Z" fill="#FF7500"/>
<path d="M21.3542 41.1913C21.2242 41.3612 21.1542 41.5712 21.1542 41.7911L21.1342 45.9903C21.1342 46.5401 21.5741 46.99 22.124 47H22.134C22.6839 47 23.1338 46.5601 23.1338 46.0103L23.1538 42.1411C25.3033 39.1617 26.4931 35.5125 26.5131 31.8433L26.5431 24.8847C26.5531 23.1651 25.2733 21.6854 23.6337 21.5155C22.8939 21.4355 22.164 21.6154 21.5441 22.0054C21.0242 21.1455 20.1544 20.5357 19.1346 20.4357C18.2148 20.3457 17.305 20.6356 16.6152 21.2455C16.5952 21.2655 16.5652 21.2855 16.5452 21.3155C15.9653 20.7556 15.1755 20.4057 14.2957 20.4057C13.8958 20.4057 13.4359 20.4857 13.0459 20.6456L13.0759 11.6276C13.0859 9.90792 11.8062 8.42824 10.1666 8.25827C9.24675 8.16829 8.33694 8.45823 7.64709 9.0681C6.96723 9.67797 6.56732 10.5578 6.56732 11.4776L6.52733 22.7552C6.1465 22.599 5.73918 22.5176 5.32758 22.5152H5.31758C4.46776 22.5152 3.66793 22.8452 3.05806 23.445C2.44819 24.0449 2.11826 24.8547 2.10827 25.7046L2.07827 33.5629C2.06827 35.8724 2.56817 37.992 3.48797 39.5516C4.26781 40.8713 5.29759 41.7312 6.45734 42.0511L6.43735 45.9503C6.43735 46.5001 6.87725 46.9501 7.43713 46.9601C7.98702 46.9601 8.43692 46.5201 8.43692 45.9703L8.46692 41.2013C8.46692 40.9313 8.36694 40.6814 8.17698 40.4914C7.98702 40.3015 7.73707 40.2015 7.46713 40.1915C6.34736 40.1915 5.57753 39.1617 5.21761 38.5418C4.47776 37.2921 4.07785 35.5225 4.08785 33.5729L4.11784 25.7146C4.11784 25.3946 4.24781 25.0947 4.47776 24.8647C4.70771 24.6348 5.00765 24.5148 5.32758 24.5148C5.99744 24.5148 6.52733 25.0547 6.52733 25.7246L6.49733 31.8733C6.49733 32.4231 6.93724 32.873 7.49712 32.873C8.047 32.873 8.49691 32.4331 8.49691 31.8733L8.5269 25.7246L8.57689 11.4576C8.57689 11.0977 8.72686 10.7677 8.9968 10.5278C9.26675 10.2878 9.60667 10.1779 9.9666 10.2179C10.5965 10.2778 11.0864 10.8877 11.0764 11.5976L11.0364 23.615C11.0364 24.1649 11.4763 24.6148 12.0362 24.6148C12.586 24.6148 13.0359 24.1649 13.0359 23.615C13.0359 23.2851 13.1659 22.9751 13.4059 22.7352C13.5812 22.5614 13.8041 22.4434 14.0465 22.3961C14.2888 22.3489 14.5397 22.3744 14.7675 22.4696C14.9953 22.5648 15.1898 22.7254 15.3265 22.931C15.4632 23.1366 15.5359 23.3781 15.5354 23.625C15.5354 24.1749 15.9753 24.6248 16.5352 24.6248C17.0851 24.6248 17.535 24.1749 17.535 23.625C17.535 23.2651 17.685 22.9352 17.9549 22.6952C18.2248 22.4553 18.5648 22.3453 18.9247 22.3853C19.5546 22.4453 20.0445 23.0551 20.0345 23.765V24.7048C20.0345 25.2547 20.4744 25.7046 21.0342 25.7046C21.5841 25.7046 22.034 25.2647 22.034 24.7048C22.034 24.3449 22.184 24.0249 22.4539 23.785C22.7239 23.545 23.0738 23.435 23.4237 23.475C24.0536 23.535 24.5435 24.1449 24.5335 24.8547L24.5035 31.8133C24.4849 35.1958 23.381 38.4831 21.3542 41.1913Z" fill="#FF7500"/>
</svg>
