<svg width="91" height="67" viewBox="0 0 91 67" fill="none" xmlns="http://www.w3.org/2000/svg">
<path d="M1.87328 0.000984049C1.73845 0.000467881 1.60486 0.0266492 1.4802 0.0780084C1.35553 0.129368 1.24225 0.204887 1.14691 0.300227C1.05156 0.395567 0.976033 0.508833 0.924672 0.6335C0.873311 0.758167 0.847149 0.891772 0.847664 1.0266V37.8012C0.847149 37.9361 0.873311 38.0697 0.924672 38.1943C0.976033 38.319 1.05156 38.4323 1.14691 38.5276C1.24225 38.6229 1.35553 38.6985 1.4802 38.7498C1.60486 38.8012 1.73845 38.8274 1.87328 38.8269H23.3394V44.9486H14.1368C14.002 44.9481 13.8684 44.9743 13.7437 45.0256C13.6191 45.077 13.5058 45.1525 13.4104 45.2479C13.3151 45.3432 13.2396 45.4565 13.1882 45.5812C13.1368 45.7058 13.1107 45.8394 13.1112 45.9743C13.1107 46.1091 13.1368 46.2427 13.1882 46.3674C13.2396 46.492 13.3151 46.6053 13.4104 46.7006C13.5058 46.796 13.6191 46.8715 13.7437 46.9229C13.8684 46.9742 14.002 47.0004 14.1368 46.9999H46.8209C46.9558 47.0004 47.0893 46.9742 47.214 46.9229C47.3387 46.8715 47.452 46.796 47.5473 46.7007C47.6427 46.6053 47.7182 46.492 47.7695 46.3674C47.8209 46.2427 47.8471 46.1091 47.8465 45.9743C47.8471 45.8394 47.8209 45.7058 47.7695 45.5811C47.7182 45.4565 47.6427 45.3432 47.5473 45.2478C47.452 45.1525 47.3387 45.077 47.214 45.0256C47.0893 44.9743 46.9558 44.9481 46.8209 44.9486H37.6382V38.8269H59.0845C59.1258 38.8267 59.1671 38.824 59.2081 38.8189C59.4571 38.7895 59.6867 38.6696 59.853 38.4819C60.0193 38.2942 60.1108 38.052 60.1101 37.8012V29.6242V1.0266C60.1106 0.891773 60.0844 0.758181 60.0331 0.633516C59.9817 0.50885 59.9062 0.395582 59.8108 0.300242C59.7155 0.204902 59.6022 0.129369 59.4775 0.0780084C59.3529 0.026648 59.2193 0.000470584 59.0845 0.000984049H1.87328ZM2.90289 2.03626H58.0588V28.5986H2.90289V2.03626ZM14.1368 3.06188C14.0016 3.06135 13.8677 3.08764 13.7428 3.13925C13.6179 3.19085 13.5044 3.26674 13.409 3.36251C13.3136 3.45828 13.2381 3.57202 13.187 3.69715C13.1359 3.82229 13.1101 3.95632 13.1112 4.09149C13.1107 4.22632 13.1368 4.35992 13.1882 4.48459C13.2396 4.60926 13.3151 4.72254 13.4104 4.81788C13.5058 4.91322 13.6191 4.98876 13.7437 5.04011C13.8684 5.09147 14.002 5.11763 14.1368 5.11711H40.6991C40.834 5.11763 40.9676 5.09147 41.0922 5.04011C41.2169 4.98876 41.3302 4.91322 41.4255 4.81788C41.5209 4.72254 41.5964 4.60926 41.6478 4.48459C41.6991 4.35992 41.7253 4.22632 41.7248 4.09149C41.7258 3.95632 41.7001 3.82229 41.6489 3.69715C41.5978 3.57202 41.5224 3.45828 41.427 3.36251C41.3316 3.26674 41.2181 3.19085 41.0932 3.13925C40.9682 3.08764 40.8343 3.06135 40.6991 3.06188H14.1368ZM44.7857 3.06188C44.6505 3.06135 44.5166 3.08764 44.3916 3.13925C44.2667 3.19085 44.1532 3.26674 44.0578 3.36251C43.9625 3.45828 43.887 3.57202 43.8359 3.69715C43.7847 3.82229 43.759 3.95632 43.76 4.09149C43.7595 4.22632 43.7857 4.35992 43.837 4.48459C43.8884 4.60926 43.9639 4.72254 44.0593 4.81788C44.1546 4.91322 44.2679 4.98876 44.3926 5.04011C44.5172 5.09147 44.6508 5.11763 44.7857 5.11711H54.9979C55.1328 5.11763 55.2664 5.09147 55.391 5.04011C55.5157 4.98876 55.629 4.91322 55.7243 4.81788C55.8197 4.72254 55.8952 4.60926 55.9466 4.48459C55.9979 4.35992 56.0241 4.22632 56.0236 4.09149C56.0246 3.95632 55.9989 3.82229 55.9477 3.69715C55.8966 3.57202 55.8212 3.45828 55.7258 3.36251C55.6304 3.26674 55.5169 3.19085 55.392 3.13925C55.267 3.08764 55.1331 3.06135 54.9979 3.06188H44.7857ZM4.91821 3.06587C4.65143 3.07212 4.39767 3.18252 4.21123 3.37344C4.02479 3.56435 3.92046 3.82064 3.92053 4.0875C3.92053 4.22166 3.94694 4.35451 3.99829 4.47846C4.04963 4.60241 4.12491 4.71503 4.21977 4.8099C4.31464 4.90477 4.42724 4.98001 4.55119 5.03135C4.67514 5.08269 4.808 5.10913 4.94216 5.10913C5.20901 5.1092 5.4653 5.00485 5.65622 4.81841C5.84714 4.63197 5.95753 4.37822 5.96379 4.11144C5.97004 4.37822 6.08043 4.63197 6.27135 4.81841C6.46227 5.00485 6.71856 5.1092 6.98541 5.10913C7.25227 5.1092 7.50856 5.00485 7.69947 4.81841C7.89039 4.63197 8.00079 4.37822 8.00704 4.11144C8.0133 4.37822 8.12369 4.63197 8.31461 4.81841C8.50553 5.00485 8.76182 5.1092 9.02867 5.10913C9.16283 5.10913 9.29569 5.08269 9.41964 5.03135C9.54359 4.98001 9.65619 4.90477 9.75106 4.8099C9.84592 4.71503 9.9212 4.60241 9.97254 4.47846C10.0239 4.35451 10.0503 4.22166 10.0503 4.0875C10.0503 3.95333 10.0239 3.82048 9.97254 3.69653C9.9212 3.57258 9.84592 3.45996 9.75106 3.3651C9.65619 3.27023 9.54359 3.19498 9.41964 3.14364C9.29569 3.0923 9.16283 3.06587 9.02867 3.06587C8.76249 3.06577 8.50679 3.16956 8.31598 3.35515C8.12517 3.54074 8.01432 3.79348 8.00704 4.05956C7.99976 3.79348 7.88891 3.54074 7.6981 3.35515C7.50729 3.16956 7.2516 3.06577 6.98541 3.06587C6.71923 3.06577 6.46353 3.16956 6.27272 3.35515C6.08192 3.54074 5.97106 3.79348 5.96379 4.05956C5.95651 3.79348 5.84566 3.54074 5.65485 3.35515C5.46404 3.16956 5.20834 3.06577 4.94216 3.06587C4.93419 3.06578 4.92618 3.06578 4.91821 3.06587ZM14.1089 14.2998C14.0107 14.3058 13.9139 14.326 13.8215 14.3597C13.5654 14.4445 13.3532 14.6273 13.2314 14.868C13.1095 15.1088 13.0878 15.388 13.1711 15.6447L15.2103 21.7824C15.277 21.9876 15.4069 22.1665 15.5815 22.2933C15.756 22.4202 15.9663 22.4885 16.1821 22.4885C16.3978 22.4885 16.6081 22.4202 16.7827 22.2933C16.9572 22.1665 17.0871 21.9876 17.1538 21.7824L18.2273 18.5539L19.2968 21.7824C19.3635 21.9876 19.4934 22.1665 19.668 22.2933C19.8425 22.4202 20.0528 22.4885 20.2686 22.4885C20.4844 22.4885 20.6946 22.4202 20.8692 22.2933C21.0437 22.1665 21.1737 21.9876 21.2403 21.7824L23.2796 15.6447C23.3628 15.388 23.3412 15.1088 23.2193 14.868C23.0974 14.6273 22.8853 14.4445 22.6291 14.3597C22.3729 14.2776 22.0948 14.2999 21.855 14.4217C21.6151 14.5435 21.433 14.7549 21.3481 15.0101L20.2786 18.2227L19.1891 15.0101C19.1188 14.8106 18.9885 14.6378 18.8158 14.5156C18.6432 14.3933 18.4368 14.3277 18.2253 14.3277C18.0138 14.3277 17.8075 14.3933 17.6349 14.5156C17.4622 14.6378 17.3318 14.8106 17.2616 15.0101L16.1721 18.2227L15.1026 15.0101C15.0425 14.8191 14.9277 14.65 14.7723 14.5237C14.617 14.3974 14.4279 14.3195 14.2286 14.2998C14.1887 14.2974 14.1488 14.2974 14.1089 14.2998ZM26.3684 14.2998C26.2662 14.3046 26.1653 14.3248 26.0691 14.3597C25.813 14.4445 25.6008 14.6273 25.4789 14.868C25.357 15.1088 25.3354 15.388 25.4186 15.6447L27.4699 21.7824C27.5392 21.9833 27.6696 22.1576 27.8427 22.281C28.0158 22.4043 28.2231 22.4706 28.4356 22.4706C28.6482 22.4706 28.8554 22.4043 29.0286 22.281C29.2017 22.1576 29.332 21.9833 29.4014 21.7824L30.4709 18.5539L31.5604 21.7824C31.6306 21.9819 31.761 22.1548 31.9336 22.277C32.1062 22.3992 32.3126 22.4649 32.5241 22.4649C32.7357 22.4649 32.9419 22.3992 33.1146 22.277C33.2872 22.1548 33.4177 21.9819 33.4879 21.7824L35.5391 15.6447C35.6226 15.3885 35.6015 15.1098 35.4804 14.8691C35.3593 14.6284 35.148 14.4453 34.8926 14.3597C34.7648 14.3166 34.6297 14.2993 34.4951 14.3088C34.3605 14.3182 34.2291 14.3542 34.1086 14.4147C33.988 14.4751 33.8806 14.5589 33.7926 14.6611C33.7045 14.7633 33.6376 14.8819 33.5956 15.0101L32.5221 18.2386L31.4526 15.0101C31.3859 14.8049 31.256 14.6261 31.0815 14.4992C30.9069 14.3724 30.6966 14.3041 30.4809 14.3041C30.2651 14.3041 30.0548 14.3724 29.8803 14.4992C29.7057 14.6261 29.5758 14.8049 29.5091 15.0101L28.4356 18.2386L27.3661 15.0101C27.3061 14.8191 27.1912 14.65 27.0359 14.5237C26.8805 14.3974 26.6914 14.3195 26.4921 14.2998C26.451 14.2973 26.4096 14.2973 26.3684 14.2998ZM38.6319 14.2998C38.5297 14.3046 38.4288 14.3248 38.3326 14.3597C38.0765 14.4445 37.8643 14.6273 37.7424 14.868C37.6206 15.1088 37.5989 15.388 37.6821 15.6447L39.7334 21.7824C39.8028 21.9833 39.9331 22.1576 40.1062 22.281C40.2793 22.4044 40.4866 22.4706 40.6991 22.4706C40.9117 22.4706 41.119 22.4044 41.2921 22.281C41.4652 22.1576 41.5955 21.9833 41.6649 21.7824L42.7504 18.5539L43.8199 21.7824C43.8893 21.9833 44.0196 22.1576 44.1927 22.281C44.3658 22.4044 44.5731 22.4706 44.7857 22.4706C44.9982 22.4706 45.2055 22.4044 45.3786 22.281C45.5517 22.1576 45.682 21.9833 45.7514 21.7824L47.8027 15.6447C47.8861 15.3885 47.865 15.1098 47.7439 14.8691C47.6228 14.6284 47.4116 14.4453 47.1562 14.3597C47.0283 14.3166 46.8932 14.2993 46.7586 14.3087C46.6241 14.3182 46.4927 14.3542 46.3721 14.4146C46.2515 14.4751 46.1441 14.5589 46.0561 14.6611C45.968 14.7633 45.9011 14.8819 45.8592 15.0101L44.7857 18.2386L43.7161 15.0101C43.6504 14.8034 43.5207 14.623 43.3456 14.4949C43.1706 14.3669 42.9593 14.2979 42.7424 14.2979C42.5255 14.2979 42.3142 14.3669 42.1392 14.4949C41.9641 14.623 41.8344 14.8034 41.7687 15.0101L40.6991 18.2386L39.6296 15.0101C39.5693 14.8185 39.4539 14.649 39.2977 14.5226C39.1416 14.3963 38.9516 14.3188 38.7517 14.2998C38.7118 14.2974 38.6718 14.2974 38.6319 14.2998ZM2.90289 30.6498H58.0588V36.7756H24.3491H2.90289V30.6498ZM25.3747 38.8269H35.587V44.9486H25.3747V38.8269Z" fill="#FF7500"/>
</svg>
