<svg width="527" height="482" viewBox="0 0 527 482" fill="none" xmlns="http://www.w3.org/2000/svg">
<g style="mix-blend-mode:lighten" opacity="0.5">
<path d="M435.758 431.104L511.429 383.446L357.978 294.82L286.684 335.996L310.301 362.131L435.758 431.104Z" fill="url(#paint0_linear_344_11285)"/>
</g>
<g style="mix-blend-mode:lighten" opacity="0.4">
<path d="M14.2105 445.769L0 437.556L204.049 319.844L218.274 328.057L14.2105 445.769Z" fill="url(#paint1_linear_344_11285)"/>
</g>
<g style="mix-blend-mode:lighten" opacity="0.4">
<path d="M40.8068 461.352L26.582 453.14L230.646 335.428L244.87 343.64L40.8068 461.352Z" fill="url(#paint2_linear_344_11285)"/>
</g>
<g style="mix-blend-mode:lighten" opacity="0.4">
<path d="M67.4044 476.936L53.1797 468.723L257.243 351.011L271.468 359.224L67.4044 476.936Z" fill="url(#paint3_linear_344_11285)"/>
</g>
<path d="M203.194 55.2625L184.01 91.4487L179.32 116.271V286.424L184.01 305.829L203.194 319.844L298.549 264.78V0.198975L203.194 55.2625Z" fill="url(#paint4_linear_344_11285)"/>
<path d="M297.038 109.528L277.853 145.714L273.164 170.537V340.689L277.853 360.094L297.038 374.109L392.378 319.046V54.4642L297.038 109.528Z" fill="#4D4E50"/>
<path d="M304.075 123.742L288.668 152.8L284.891 172.732V331.492L288.668 347.076L304.075 358.34L380.644 314.126V79.5149L304.075 123.742Z" fill="url(#paint5_linear_344_11285)"/>
<path d="M288.996 347.319L285.218 331.735V172.975L288.996 153.028L304.403 123.971L380.644 79.9426V79.5149L304.075 123.742L288.668 152.8L284.891 172.732V331.492L288.668 347.076L304.075 358.34L288.996 347.319Z" fill="#FF7500"/>
<path d="M378.153 80.9549V312.915L302.055 356.857L304.079 358.34L380.647 314.126V79.5149L378.153 80.9549Z" fill="#FF7500"/>
<path d="M277.851 145.714L184.008 91.4488L203.193 55.2626L297.036 109.528L277.851 145.714Z" fill="#363699"/>
<path d="M179.32 116.272L273.164 170.537L277.853 145.714L184.01 91.4487L179.32 116.272Z" fill="url(#paint6_linear_344_11285)"/>
<path d="M203.193 55.2626L297.036 109.528L277.851 145.714L184.008 91.4488L203.193 55.2626Z" fill="url(#paint7_linear_344_11285)"/>
<path d="M179.32 286.424L273.164 340.689L277.853 360.094L184.01 305.829L179.32 286.424Z" fill="url(#paint8_linear_344_11285)"/>
<path d="M277.851 360.094L184.008 305.829L203.193 319.844L297.036 374.109L277.851 360.094Z" fill="url(#paint9_linear_344_11285)"/>
<path d="M273.164 170.537V340.689L179.32 286.424V116.271L273.164 170.537Z" fill="#2D1F84"/>
<path d="M273.164 170.537V340.689L179.32 286.424V116.271L273.164 170.537Z" fill="url(#paint10_linear_344_11285)"/>
<path d="M378.025 46.166L374.776 48.0338L367.05 43.6139V39.8071L351.386 30.7534L348.122 32.6354L340.397 28.2155V24.4087L324.775 15.3692L321.526 17.2513L313.786 12.8171V9.01028L298.549 0.198975L203.195 55.2625L297.039 109.528L392.378 54.4641L378.025 46.166Z" fill="#2D1F84"/>
<path d="M378.025 46.166L374.776 48.0338L367.05 43.6139V39.8071L351.386 30.7534L348.122 32.6354L340.397 28.2155V24.4087L324.775 15.3692L321.526 17.2513L313.786 12.8171V9.01028L298.549 0.198975L203.195 55.2625L297.039 109.528L392.378 54.4641L378.025 46.166Z" fill="url(#paint11_linear_344_11285)"/>
<path d="M210.251 106.605L229.451 70.4186L321.526 17.2514L313.787 12.8172V9.01038L218.447 64.0739L199.262 100.26L194.559 125.083V295.235L199.946 317.52L203.21 319.858L218.447 328.655L210.251 320.999L205.562 301.58V131.442L210.251 106.605Z" fill="#FF7500"/>
<path d="M202.526 102.185L221.725 65.9987L313.787 12.8172V9.01038L218.447 64.0739L199.262 100.26L194.559 125.083V295.235L199.946 317.52L203.196 319.844L197.837 297.16V127.008L202.526 102.185Z" fill="#8A4103"/>
<path d="M236.861 122.003L256.046 85.8169L351.385 30.7534L348.121 32.6354L340.396 28.2155V24.4087L245.056 79.4579L225.857 115.644L221.168 140.481V310.633L226.855 333.546L245.056 344.054L236.861 336.383L232.171 316.978V146.826L236.861 122.003Z" fill="#FF7500"/>
<path d="M229.136 117.569L248.335 81.3827L340.396 28.2155V24.4087L245.056 79.4579L225.857 115.644L221.168 140.481V310.633L226.855 333.546L230.133 335.428L224.446 312.544V142.392L229.136 117.569Z" fill="#8A4103"/>
<path d="M263.513 137.402L282.698 101.215L374.774 48.0338L367.049 43.6139V39.7928L271.709 94.8563L252.51 131.043L247.82 155.865V326.018L253.507 348.944L271.709 359.452L263.513 351.781L258.824 332.377V162.224L263.513 137.402Z" fill="white"/>
<path d="M271.709 94.8563L252.51 131.043L247.82 155.865V326.018L253.507 348.944L256.786 350.826L251.099 327.942V157.79L255.788 132.967L274.973 96.7811L367.049 43.6139V39.7928L271.709 94.8563Z" fill="#888888"/>
<path d="M346.539 194.162L365.724 183.083V178.863L346.539 189.941V194.162Z" fill="white"/>
<path d="M336.707 199.836L343.606 195.858V191.638L336.707 195.63V199.836Z" fill="#FF7500"/>
<path d="M329.078 204.242L333.767 201.533V197.312L329.078 200.036V204.242Z" fill="#FF7500"/>
<path d="M355.266 198.739L365.727 192.708V188.501L355.266 194.532V198.739Z" fill="#FF7500"/>
<path opacity="0.3" d="M339.527 207.835L352.341 200.435V196.229L339.527 203.615V207.835Z" fill="#FF7500"/>
<path d="M331.898 212.24L336.602 209.531V205.311L331.898 208.02V212.24Z" fill="#FF7500"/>
<path opacity="0.3" d="M324.645 216.432L329.348 213.709V209.503L324.645 212.212V216.432Z" fill="#FF7500"/>
<path d="M358.156 206.708L365.725 202.331V198.125L358.156 202.488V206.708Z" fill="#FF7500"/>
<path d="M352.641 209.888L355.22 208.391V204.185L352.641 205.668V209.888Z" fill="#FF7500"/>
<path d="M345.016 214.294L349.705 211.585V207.365L345.016 210.073V214.294Z" fill="#FF7500"/>
<path d="M337.805 228.081L365.727 211.955V207.749L337.805 223.861V228.081Z" fill="#FF7500"/>
<path d="M327.969 233.756L334.882 229.763V225.557L327.969 229.55V233.756Z" fill="white"/>
<path d="M358.156 225.956L365.725 221.579V217.373L358.156 221.736V225.956Z" fill="#FF7500"/>
<path opacity="0.3" d="M340.41 236.208L355.219 227.639V223.433L340.41 231.988V236.208Z" fill="#FF7500"/>
<path d="M332.785 240.599L337.474 237.89V233.684L332.785 236.393V240.599Z" fill="white"/>
<path d="M350.246 240.143L365.725 231.218V226.997L350.246 235.937V240.143Z" fill="white"/>
<path d="M336.121 248.298L347.31 241.84V237.619L336.121 244.092V248.298Z" fill="#FF7500"/>
<path d="M325.633 254.358L333.201 249.995V245.775L325.633 250.152V254.358Z" fill="#FF7500"/>
<path d="M360.492 243.85L365.723 240.842V236.621L360.492 239.644V243.85Z" fill="#FF7500"/>
<path opacity="0.3" d="M350.66 249.539L357.559 245.546V241.326L350.66 245.318V249.539Z" fill="#FF7500"/>
<path d="M336.605 257.652L347.723 251.221V247.015L336.605 253.446V257.652Z" fill="#FF7500"/>
<path d="M349.703 259.705L365.724 250.466V246.245L349.703 255.499V259.705Z" fill="#FF7500"/>
<path d="M331.789 270.056L346.783 261.401V257.181L331.789 265.85V270.056Z" fill="white"/>
<path d="M324.164 274.462L328.853 271.753V267.532L324.164 270.255V274.462Z" fill="#FF7500"/>
<path d="M316.836 278.682L321.539 275.973V271.767L316.836 274.476V278.682Z" fill="white"/>
<path d="M356.133 265.622L365.725 260.09V255.869L356.133 261.416V265.622Z" fill="#FF7500"/>
<path opacity="0.3" d="M316.025 211.784L302.727 219.469V215.249L316.025 207.578V211.784Z" fill="#FF7500"/>
<path d="M313.174 223.062L302.727 229.093V224.873L313.174 218.842V223.062Z" fill="white"/>
<path d="M310.281 234.354L302.727 238.717V234.511L310.281 230.134V234.354Z" fill="#FF7500"/>
<path d="M313.716 241.996L302.727 248.341V244.135L313.716 237.776V241.996Z" fill="#FF7500"/>
<path d="M310.281 253.602L302.727 257.965V253.759L310.281 249.382V253.602Z" fill="#FF7500"/>
<path opacity="0.3" d="M312.305 262.057L302.727 267.589V263.383L312.305 257.837V262.057Z" fill="#FF7500"/>
<path d="M307.943 274.205L302.727 277.213V273.007L307.943 269.984V274.205Z" fill="white"/>
<path d="M312.846 280.992L302.727 286.852V282.631L312.846 276.786V280.992Z" fill="#FF7500"/>
<path d="M312.305 290.929L302.727 296.476V292.255L312.305 286.723V290.929Z" fill="#FF7500"/>
<path d="M349.121 269.671L353.197 267.318V263.098L349.121 265.465V269.671Z" fill="#FF7500"/>
<path opacity="0.3" d="M337.008 276.671L346.187 271.368V267.147L337.008 272.451V276.671Z" fill="#FF7500"/>
<path d="M350.246 278.767L365.725 269.842V265.622L350.246 274.561V278.767Z" fill="#FF7500"/>
<path d="M336.121 286.923L347.31 280.464V276.258L336.121 282.717V286.923Z" fill="white"/>
<path d="M325.633 292.982L333.201 288.619V284.413L325.633 288.776V292.982Z" fill="#FF7500"/>
<path d="M360.492 282.489L365.723 279.466V275.246L360.492 278.268V282.489Z" fill="#FF7500"/>
<path opacity="0.3" d="M350.66 288.163L357.559 284.171V279.965L350.66 283.943V288.163Z" fill="#FF7500"/>
<path d="M336.605 296.276L347.723 289.86V285.639L336.605 292.07V296.276Z" fill="#FF7500"/>
<path d="M349.703 298.329L365.724 289.09V284.87L349.703 294.123V298.329Z" fill="#FF7500"/>
<path d="M331.789 308.694L346.783 300.026V295.82L331.789 304.474V308.694Z" fill="#FF7500"/>
<path d="M324.164 313.086L328.853 310.377V306.171L324.164 308.88V313.086Z" fill="#FF7500"/>
<path d="M316.836 317.32L321.539 314.611V310.391L316.836 313.1V317.32Z" fill="#FF7500"/>
<path d="M356.133 304.246L365.725 298.714V294.494L356.133 300.04V304.246Z" fill="white"/>
<path opacity="0.3" d="M312.305 300.681L302.727 306.228V302.007L312.305 296.475V300.681Z" fill="#FF7500"/>
<path d="M307.943 312.829L302.727 315.852V311.631L307.943 308.623V312.829Z" fill="#FF7500"/>
<path d="M312.846 319.63L302.727 325.476V321.256L312.846 315.41V319.63Z" fill="white"/>
<path d="M312.305 329.554L302.727 335.1V330.88L312.305 325.348V329.554Z" fill="#FF7500"/>
<path d="M349.121 308.295L353.197 305.943V301.737L349.121 304.089V308.295Z" fill="#FF7500"/>
<path opacity="0.3" d="M337.008 315.296L346.187 309.992V305.786L337.008 311.075V315.296Z" fill="#FF7500"/>
<path d="M358.156 121.062L365.725 116.685V112.479L358.156 116.842V121.062Z" fill="#FF7500"/>
<path d="M352.641 124.242L355.22 122.745V118.539L352.641 120.036V124.242Z" fill="white"/>
<path d="M345.016 128.647L349.705 125.938V121.718L345.016 124.427V128.647Z" fill="#FF7500"/>
<path d="M337.805 142.435L365.727 126.309V122.103L337.805 138.229V142.435Z" fill="#FF7500"/>
<path d="M327.969 148.123L334.882 144.131V139.911L327.969 143.903V148.123Z" fill="white"/>
<path d="M358.156 140.31L365.725 135.947V131.727L358.156 136.09V140.31Z" fill="#FF7500"/>
<path opacity="0.3" d="M340.41 150.561L355.219 142.007V137.786L340.41 146.341V150.561Z" fill="#FF7500"/>
<path d="M332.785 154.967L337.474 152.244V148.038L332.785 150.747V154.967Z" fill="#FF7500"/>
<path d="M350.246 154.496L365.725 145.571V141.351L350.246 150.29V154.496Z" fill="#FF7500"/>
<path d="M336.121 162.652L347.31 156.193V151.973L336.121 158.446V162.652Z" fill="white"/>
<path d="M325.633 168.711L333.201 164.349V160.128L325.633 164.505V168.711Z" fill="#FF7500"/>
<path d="M360.492 158.204L365.723 155.195V150.975L360.492 153.998V158.204Z" fill="#FF7500"/>
<path opacity="0.3" d="M350.66 163.892L357.559 159.9V155.694L350.66 159.672V163.892Z" fill="#FF7500"/>
<path d="M336.605 172.005L347.723 165.589V161.369L336.605 167.799V172.005Z" fill="white"/>
<path d="M349.703 174.058L365.724 164.819V160.599L349.703 169.852V174.058Z" fill="#FF7500"/>
<path d="M331.789 184.424L346.783 175.755V171.535L331.789 180.203V184.424Z" fill="#FF7500"/>
<path d="M324.164 188.815L328.853 186.106V181.9L324.164 184.609V188.815Z" fill="white"/>
<path d="M316.836 193.05L321.539 190.326V186.12L316.836 188.829V193.05Z" fill="#FF7500"/>
<path d="M356.133 179.975L365.725 174.443V170.223L356.133 175.769V179.975Z" fill="#FF7500"/>
<path d="M310.281 148.708L302.727 153.071V148.865L310.281 144.488V148.708Z" fill="white"/>
<path d="M313.716 156.35L302.727 162.695V158.489L313.716 152.13V156.35Z" fill="#FF7500"/>
<path d="M310.281 167.956L302.727 172.319V168.113L310.281 163.75V167.956Z" fill="#FF7500"/>
<path opacity="0.3" d="M312.305 176.411L302.727 181.957V177.737L312.305 172.205V176.411Z" fill="#FF7500"/>
<path d="M307.943 188.558L302.727 191.581V187.36L307.943 184.352V188.558Z" fill="#FF7500"/>
<path d="M312.846 195.359L302.727 201.205V196.985L312.846 191.139V195.359Z" fill="#FF7500"/>
<path d="M312.305 205.283L302.727 210.829V206.609L312.305 201.077V205.283Z" fill="#FF7500"/>
<path d="M349.121 184.024L353.197 181.672V177.466L349.121 179.818V184.024Z" fill="#FF7500"/>
<path opacity="0.3" d="M337.008 191.025L346.187 185.721V181.515L337.008 186.805V191.025Z" fill="#FF7500"/>
<path d="M399.699 178.739C396.025 188.541 391.004 201.774 385.615 195.893C380.226 190.011 387.452 176.696 391.739 170.775L399.699 178.739Z" fill="#18181B" stroke="white" stroke-linecap="round" stroke-linejoin="round"/>
<path d="M387.562 150.58L387.569 150.723L387.651 150.842L398.345 166.296L397.636 166.651L397.287 166.826L397.372 167.207L399.786 178.077L398.437 181.226L392.796 169.938L392.776 169.899L392.751 169.864L382.34 155.774L382.288 155.703L382.216 155.655L376.722 151.991L373.887 149.722L374.475 143.251L374.501 142.973L374.277 142.805L367.129 137.442V137.316L382.92 146.093L383.377 146.347L383.61 145.879L387.037 139.022L387.562 150.58Z" fill="#16191C" stroke="white"/>
<path d="M429.707 364.982C432.647 359.1 435.015 342.519 435.831 334.962C440.118 334.35 448.813 334.472 449.303 339.863C449.916 346.602 436.443 367.432 435.219 369.27C434.239 370.74 433.994 373.967 433.994 375.397C430.932 377.847 423.951 382.381 420.522 380.91C416.235 379.072 426.033 372.333 429.707 364.982Z" fill="#16191C" stroke="white"/>
<path d="M498.903 253.481C497.923 246.129 490.942 228.363 484.818 217.335C474.816 214.68 452.24 210.596 441.952 213.047C431.664 215.497 431.542 294.323 432.766 333.737C450.525 346.602 520.336 339.863 523.397 332.512C530.031 316.583 502.577 287.176 500.127 279.825C497.678 272.473 500.127 262.671 498.903 253.481Z" fill="#16191C" stroke="white" stroke-linecap="round"/>
<path d="M411.332 208.871C410.313 208.871 408.734 208.548 406.894 207.851L415.248 208.004C414.34 208.452 413.01 208.871 411.332 208.871ZM405.414 207.231C405.256 207.159 405.096 207.084 404.936 207.006C402.29 205.728 399.407 203.774 397.009 201.074L396.789 200.828L396.477 200.932L394.813 201.487L391.959 200.345L389.028 198.585L388.053 197.123L399.458 180.578L405.414 207.231Z" fill="#16191C" stroke="white"/>
<path d="M456.982 212.621L454.435 208.033H481.754H482.254V207.533V204.47V203.998L481.783 203.971L460.722 202.767L452.235 166.983L452.143 166.599H451.748H425.203L432.539 157.001L436.792 152.139L440.93 148.59L447.443 147.998L454.728 149.213L455.236 149.297L455.305 148.787L455.918 144.268L455.954 144.002L455.753 143.826L455.753 143.826L455.752 143.825L455.752 143.825L455.752 143.825L455.742 143.816C455.732 143.807 455.716 143.791 455.692 143.768C455.646 143.722 455.575 143.648 455.481 143.542C455.294 143.331 455.02 142.994 454.688 142.504C454.033 141.539 453.15 139.982 452.259 137.629L453.469 127.339L453.469 127.335L454.027 122.876H463.271L473.435 127.661L476.286 132.796L471.515 141.745L471.341 142.072L471.603 142.334L488.688 159.427L499.659 182.597L502.696 192.322L503.897 202.53L500.923 207.885L498.54 211.461L495.009 213.816L485.279 216.858L484.929 216.968V217.335V220.354L456.982 212.621Z" fill="#16191C" stroke="white"/>
<path d="M498.9 364.369C495.961 359.958 496.655 345.582 497.063 339.251L484.203 340.476C485.632 342.519 488.857 350.034 490.327 361.306C492.164 375.397 480.529 382.749 488.49 382.749C496.451 382.749 502.574 369.883 498.9 364.369Z" fill="#16191C" stroke="white" stroke-linecap="round"/>
<path d="M445.014 233.264C452.853 233.264 457.466 215.905 457.874 208.146L441.953 210.596C439.706 218.153 437.176 233.264 445.014 233.264Z" fill="#18181B" stroke="white" stroke-linecap="round" stroke-linejoin="round"/>
<path d="M454.201 125.439C454.813 124.826 456.65 121.763 456.65 121.763C456.65 121.763 456.038 124.826 457.263 125.439C458.487 126.051 467.673 125.439 469.51 126.664C471.347 127.889 469.51 132.178 469.51 132.178C469.51 132.178 474.409 128.502 474.409 134.628C474.409 140.755 469.51 138.917 469.51 138.917C469.51 138.917 467.06 140.755 467.06 143.818C467.06 146.881 469.51 151.17 469.51 151.17C475.879 150.68 486.044 156.071 489.718 159.134L487.881 152.395L494.617 154.846C493.597 153.212 491.31 148.964 490.331 145.043C489.106 140.142 484.819 140.755 482.982 137.692C481.145 134.628 484.207 126.664 481.757 124.213C479.308 121.763 476.246 121.763 473.184 120.538C470.122 119.312 470.122 115.636 462.774 115.024C456.895 114.534 451.751 121.763 449.914 125.439C449.914 125.439 453.588 126.051 454.201 125.439Z" fill="#FF7500" stroke="white" stroke-linejoin="round"/>
<path d="M469.511 151.17C464.409 155.867 454.324 162.075 454.814 149.332L455.426 144.431" stroke="white" stroke-linecap="round"/>
<path d="M453.587 124.826C451.137 134.016 449.299 148.107 462.772 143.818" stroke="white" stroke-linecap="round"/>
<path d="M462.272 129.728C462.272 129.79 462.221 129.84 462.159 129.84C462.097 129.84 462.047 129.79 462.047 129.728C462.047 129.665 462.097 129.615 462.159 129.615C462.221 129.615 462.272 129.665 462.272 129.728Z" fill="#18181B" stroke="white"/>
<path d="M454.928 129.728C454.928 129.79 454.877 129.84 454.815 129.84C454.754 129.84 454.703 129.79 454.703 129.728C454.703 129.665 454.754 129.615 454.815 129.615C454.877 129.615 454.928 129.665 454.928 129.728Z" fill="#18181B" stroke="white"/>
<path d="M457.19 132.791C456.21 134.261 456.781 135.037 457.19 135.241" stroke="white" stroke-linecap="round"/>
<path d="M462.774 137.079C462.569 138.1 461.304 140.02 457.875 139.53" stroke="white" stroke-linecap="round"/>
<path d="M500.118 366.52C500.167 366.448 500.212 366.381 500.252 366.319C501.29 367.138 502.21 368.039 502.812 369.155C503.485 370.403 503.781 371.964 503.315 374.063C503.217 374.503 502.876 375.132 502.275 375.916C501.686 376.687 500.882 377.561 499.923 378.487C498.005 380.337 495.494 382.365 492.896 384.143C490.294 385.924 487.629 387.439 485.404 388.281C484.29 388.702 483.313 388.944 482.525 388.98C481.733 389.015 481.206 388.841 480.887 388.521C480.149 387.783 480.047 386.819 480.426 385.628C480.81 384.422 481.665 383.081 482.69 381.752C483.596 380.577 484.608 379.445 485.49 378.458C485.601 378.334 485.71 378.213 485.816 378.094C486.289 377.563 486.716 377.077 487.045 376.664C487.139 376.546 487.23 376.429 487.314 376.313C487.678 376.705 488.111 376.953 488.607 377.049C489.318 377.187 490.068 376.994 490.791 376.64C492.232 375.935 493.798 374.474 495.22 372.898C496.653 371.309 497.986 369.55 498.958 368.192C499.444 367.513 499.842 366.932 500.118 366.52Z" fill="#FF7500" stroke="white"/>
<path d="M433.27 375.763C433.712 375.464 434.08 375.199 434.355 374.994C434.769 376.467 434.927 378.609 434.949 380.533C434.961 381.632 434.93 382.634 434.883 383.357C434.859 383.72 434.832 384.006 434.806 384.196C434.804 384.215 434.801 384.232 434.799 384.248C431.536 386.065 426.425 388.375 421.747 388.375C419.311 388.375 415.509 388.222 412.326 387.767C410.729 387.539 409.319 387.239 408.319 386.857C407.817 386.665 407.451 386.465 407.219 386.266C406.99 386.071 406.938 385.92 406.938 385.811C406.938 385.642 407.014 385.391 407.23 385.056C407.441 384.728 407.759 384.359 408.172 383.964C408.999 383.173 410.161 382.321 411.474 381.521C414.035 379.961 417.065 378.658 419.159 378.368C420.626 379.435 422.342 379.726 424.057 379.58C425.831 379.43 427.632 378.812 429.229 378.071C430.83 377.329 432.251 376.452 433.27 375.763Z" fill="#FF7500" stroke="white"/>
<path d="M486.657 156.071C495.842 168.324 507.233 197.608 503.803 204.47C499.517 213.047 496.948 216.049 476.859 218.56C467.061 219.786 475.634 233.264 445.016 233.264" stroke="white" stroke-linecap="round"/>
<path d="M448.074 167.099H397.859L405.82 207.533H481.754V204.47L459.096 203.244L448.074 167.099Z" stroke="white" stroke-linejoin="round"/>
<path d="M448.078 167.099H451.752L460.326 203.244" stroke="white" stroke-linejoin="round"/>
<path d="M431.854 186.798C432.461 189.993 430.817 192.806 428.421 193.261C426.025 193.716 423.466 191.701 422.86 188.507C422.253 185.312 423.897 182.499 426.293 182.044C428.689 181.589 431.248 183.604 431.854 186.798Z" fill="#18181B" stroke="white"/>
<path d="M454.81 148.718C451.136 147.697 442.807 146.39 438.888 149.331C434.969 152.271 427.458 162.4 424.191 167.097" stroke="white" stroke-linejoin="round"/>
<path d="M459.711 198.342C469.101 196.504 489.227 193.564 494.616 196.504" stroke="white" stroke-linecap="round" stroke-linejoin="round"/>
<path d="M489.715 191.604C487.061 191.809 481.264 192.83 479.305 195.28" stroke="white" stroke-linecap="round" stroke-linejoin="round"/>
<path d="M480.533 176.288C479.513 179.964 478.328 189.522 481.758 193.442" stroke="white" stroke-linecap="round" stroke-linejoin="round"/>
<path d="M440.805 206.076L441.804 206.021C441.754 204.717 441.691 202.201 441.828 200.017C441.897 198.92 442.015 197.937 442.199 197.238C442.292 196.886 442.393 196.643 442.489 196.499C442.532 196.436 442.561 196.408 442.577 196.396C442.586 196.4 442.603 196.41 442.629 196.434C442.689 196.488 442.767 196.59 442.854 196.765C443.029 197.114 443.185 197.64 443.318 198.303C443.582 199.62 443.728 201.341 443.809 202.921L444.808 202.898C444.818 201.214 444.885 199.336 445.077 197.886C445.173 197.157 445.298 196.568 445.448 196.173C445.524 195.974 445.595 195.858 445.646 195.799C445.649 195.796 445.652 195.793 445.654 195.791C445.668 195.8 445.69 195.816 445.719 195.844C445.797 195.923 445.892 196.064 445.993 196.288C446.196 196.734 446.371 197.394 446.517 198.197C446.806 199.795 446.953 201.839 447.006 203.583L448.006 203.582C448.057 201.785 448.175 199.741 448.44 198.155C448.573 197.357 448.738 196.71 448.934 196.273C449.033 196.055 449.126 195.919 449.201 195.845C449.253 195.793 449.284 195.783 449.297 195.781C449.316 195.791 449.369 195.831 449.447 195.972C449.569 196.19 449.684 196.538 449.781 197.008C449.973 197.941 450.067 199.208 450.105 200.502C450.143 201.791 450.124 203.082 450.096 204.053C450.082 204.538 450.065 204.942 450.052 205.225C450.045 205.366 450.04 205.477 450.036 205.552L450.031 205.637L450.03 205.659L450.03 205.664L450.03 205.666L450.03 205.666L450.529 205.695L450.03 205.666L450.013 205.952L450.251 206.111C450.953 206.579 451.521 206.897 451.981 207.083C452.426 207.262 452.849 207.352 453.218 207.249C453.642 207.13 453.856 206.803 453.948 206.478C454.034 206.176 454.033 205.827 454.013 205.511C453.998 205.275 453.97 205.019 453.943 204.776C453.933 204.688 453.923 204.601 453.914 204.518C453.88 204.19 453.858 203.898 453.87 203.652C453.883 203.398 453.93 203.267 453.973 203.207C453.991 203.183 454.027 203.132 454.203 203.132C454.646 203.132 454.974 203.317 455.239 203.627C455.518 203.952 455.722 204.411 455.865 204.914C456.007 205.41 456.08 205.914 456.116 206.298C456.135 206.489 456.144 206.647 456.148 206.757C456.15 206.811 456.151 206.854 456.152 206.882L456.152 206.913L456.152 206.92L456.152 206.92V206.921V206.921V206.921V206.948L456.155 206.976L456.714 212.003C453.74 212.362 449.336 212.258 445.608 211.478C443.639 211.065 441.9 210.472 440.665 209.688C439.432 208.904 438.781 207.986 438.781 206.92C438.781 205.636 438.933 203.205 439.161 201.092C439.275 200.036 439.407 199.074 439.546 198.382C439.706 198.958 439.876 199.73 440.039 200.589C440.39 202.445 440.7 204.656 440.805 206.076ZM442.591 196.388C442.591 196.389 442.589 196.39 442.584 196.391C442.588 196.389 442.591 196.388 442.591 196.388ZM442.569 196.393C442.568 196.393 442.568 196.393 442.568 196.393C442.568 196.393 442.568 196.393 442.568 196.393C442.568 196.393 442.568 196.393 442.569 196.393ZM445.677 195.77C445.677 195.77 445.677 195.77 445.676 195.77L445.677 195.77ZM449.304 195.78C449.303 195.78 449.302 195.78 449.302 195.78C449.303 195.78 449.303 195.78 449.304 195.78C449.304 195.78 449.304 195.78 449.304 195.78ZM449.295 195.78C449.291 195.779 449.289 195.778 449.289 195.778C449.289 195.778 449.291 195.778 449.295 195.78Z" fill="#16191C" stroke="white"/>
<path d="M456.652 206.92C456.505 207.363 457.265 212.434 457.265 212.434M456.652 206.92L457.265 212.434M456.652 206.92C456.652 206.92 456.652 202.632 454.203 202.632C451.753 202.632 456.04 209.371 450.529 205.695C450.529 205.695 451.141 195.28 449.304 195.28C447.468 195.28 447.467 204.267 447.467 206.92C447.671 205.083 447.467 195.28 445.63 195.28C443.793 195.28 444.405 208.146 444.405 206.92C444.405 205.695 444.405 195.893 442.568 195.893C440.731 195.893 441.343 206.92 441.343 206.92C441.343 204.672 440.118 197.118 439.506 197.118C438.894 197.118 438.281 204.303 438.281 206.92C438.281 212.145 451.218 213.315 457.265 212.434" stroke="white" stroke-linecap="round" stroke-linejoin="round"/>
<path d="M399.698 167.1C399.698 167.1 388.676 152.396 388.063 150.558C387.451 148.72 388.676 138.918 387.451 137.08C386.226 135.242 385.614 144.432 383.164 145.045C380.715 145.657 366.63 134.63 366.018 136.468C365.406 138.305 380.715 147.495 380.715 147.495" stroke="white" stroke-linecap="round" stroke-linejoin="round"/>
<path d="M373.981 143.818C372.755 145.656 378.268 149.332 379.493 149.332C380.716 149.332 380.716 147.494 380.716 147.494" stroke="white" stroke-linecap="round" stroke-linejoin="round"/>
<path d="M373.545 146.269C372.32 148.107 377.655 151.17 378.88 151.17C380.104 151.17 379.492 149.332 379.492 149.332" stroke="white" stroke-linecap="round" stroke-linejoin="round"/>
<path d="M373.545 148.719C372.32 150.557 377.655 153.62 378.88 153.62C380.104 153.62 379.492 151.782 379.492 151.782" stroke="white" stroke-linecap="round" stroke-linejoin="round"/>
<path d="M378.875 153.621C385.611 158.522 395.776 174.45 397.246 181.802L399.696 178.739" stroke="white" stroke-linecap="round" stroke-linejoin="round"/>
<path d="M386.84 197.118C387.86 198.752 391.249 202.019 396.638 202.019" stroke="white" stroke-linecap="round" stroke-linejoin="round"/>
<path d="M394.188 198.343C398.066 204.062 408.762 213.414 418.07 207.533" stroke="white" stroke-linecap="round" stroke-linejoin="round"/>
<g style="mix-blend-mode:lighten" opacity="0.7">
<path d="M380.199 80.1995L526.793 164.106V481.998L303.63 359.024L288.222 347.761L284.445 332.177V173.417L288.222 153.484L303.63 124.427L380.199 80.1995Z" fill="url(#paint12_linear_344_11285)"/>
</g>
<defs>
<linearGradient id="paint0_linear_344_11285" x1="399.056" y1="294.82" x2="399.056" y2="431.104" gradientUnits="userSpaceOnUse">
<stop stop-color="#FF7500"/>
<stop offset="1" stop-color="#FF7500" stop-opacity="0"/>
</linearGradient>
<linearGradient id="paint1_linear_344_11285" x1="109.137" y1="319.844" x2="109.137" y2="445.769" gradientUnits="userSpaceOnUse">
<stop stop-color="#FF7500"/>
<stop offset="1" stop-color="#FF7500" stop-opacity="0"/>
</linearGradient>
<linearGradient id="paint2_linear_344_11285" x1="135.726" y1="335.428" x2="135.726" y2="461.352" gradientUnits="userSpaceOnUse">
<stop stop-color="#FF7500"/>
<stop offset="1" stop-color="#FF7500" stop-opacity="0"/>
</linearGradient>
<linearGradient id="paint3_linear_344_11285" x1="261.113" y1="351.312" x2="58.3338" y2="476.869" gradientUnits="userSpaceOnUse">
<stop stop-color="white"/>
<stop offset="1" stop-color="#16191C"/>
</linearGradient>
<linearGradient id="paint4_linear_344_11285" x1="179.32" y1="160.029" x2="298.534" y2="160.029" gradientUnits="userSpaceOnUse">
<stop stop-color="#2B237C"/>
<stop offset="1" stop-color="#180D5B"/>
</linearGradient>
<linearGradient id="paint5_linear_344_11285" x1="55.5532" y1="241.867" x2="346.654" y2="218.954" gradientUnits="userSpaceOnUse">
<stop stop-color="#59626B"/>
<stop offset="0.13" stop-color="#5B656F"/>
<stop offset="0.55" stop-color="#5C6A77"/>
<stop offset="0.85" stop-color="#283037"/>
<stop offset="1" stop-color="#262E34"/>
</linearGradient>
<linearGradient id="paint6_linear_344_11285" x1="173.389" y1="131" x2="242.877" y2="131" gradientUnits="userSpaceOnUse">
<stop stop-color="#59626B"/>
<stop offset="0.13" stop-color="#5B656F"/>
<stop offset="0.55" stop-color="#5C6A77"/>
<stop offset="0.85" stop-color="#283037"/>
<stop offset="1" stop-color="#262E34"/>
</linearGradient>
<linearGradient id="paint7_linear_344_11285" x1="177.204" y1="100.497" x2="256.915" y2="100.497" gradientUnits="userSpaceOnUse">
<stop stop-color="#59626B"/>
<stop offset="0.13" stop-color="#5B656F"/>
<stop offset="0.55" stop-color="#5C6A77"/>
<stop offset="0.85" stop-color="#283037"/>
<stop offset="1" stop-color="#262E34"/>
</linearGradient>
<linearGradient id="paint8_linear_344_11285" x1="173.389" y1="323.266" x2="242.877" y2="323.266" gradientUnits="userSpaceOnUse">
<stop stop-color="#59626B"/>
<stop offset="0.13" stop-color="#5B656F"/>
<stop offset="0.55" stop-color="#5C6A77"/>
<stop offset="0.85" stop-color="#283037"/>
<stop offset="1" stop-color="#262E34"/>
</linearGradient>
<linearGradient id="paint9_linear_344_11285" x1="177.204" y1="339.975" x2="256.915" y2="339.975" gradientUnits="userSpaceOnUse">
<stop stop-color="#59626B"/>
<stop offset="0.13" stop-color="#5B656F"/>
<stop offset="0.55" stop-color="#5C6A77"/>
<stop offset="0.85" stop-color="#283037"/>
<stop offset="1" stop-color="#262E34"/>
</linearGradient>
<linearGradient id="paint10_linear_344_11285" x1="173.672" y1="228.502" x2="239.852" y2="228.502" gradientUnits="userSpaceOnUse">
<stop stop-color="#59626B"/>
<stop offset="0.13" stop-color="#5B656F"/>
<stop offset="0.55" stop-color="#5C6A77"/>
<stop offset="0.85" stop-color="#283037"/>
<stop offset="1" stop-color="#262E34"/>
</linearGradient>
<linearGradient id="paint11_linear_344_11285" x1="191.808" y1="54.8738" x2="325.224" y2="54.8738" gradientUnits="userSpaceOnUse">
<stop stop-color="#59626B"/>
<stop offset="0.13" stop-color="#5B656F"/>
<stop offset="0.55" stop-color="#5C6A77"/>
<stop offset="0.85" stop-color="#283037"/>
<stop offset="1" stop-color="#262E34"/>
</linearGradient>
<linearGradient id="paint12_linear_344_11285" x1="405.619" y1="80.1995" x2="405.619" y2="481.998" gradientUnits="userSpaceOnUse">
<stop stop-color="#FF7500"/>
<stop offset="1" stop-color="#FF7500" stop-opacity="0"/>
</linearGradient>
</defs>
</svg>
