<svg width="120" height="22" viewBox="0 0 120 22" fill="none" xmlns="http://www.w3.org/2000/svg">
<g clip-path="url(#clip0_344_7654)">
<mask id="mask0_344_7654" style="mask-type:luminance" maskUnits="userSpaceOnUse" x="0" y="0" width="23" height="22">
<path d="M22.4984 8.36893L14.3364 7.84113L11.2539 0.109985L8.17139 7.84113L0.0273438 8.36893L6.27631 13.689L4.22531 21.75L11.2539 17.2996L18.2825 21.75L16.2315 13.689L22.4984 8.36893Z" fill="white"/>
</mask>
<g mask="url(#mask0_344_7654)">
<path d="M110.374 0.109985H0.0273438V21.75H110.374V0.109985Z" fill="#73CF11"/>
</g>
<mask id="mask1_344_7654" style="mask-type:luminance" maskUnits="userSpaceOnUse" x="24" y="0" width="23" height="22">
<path d="M46.8617 8.36893L38.6997 7.84113L35.6172 0.109985L32.5407 7.84113L24.3906 8.36893L30.6396 13.689L28.5886 21.75L35.6172 17.2996L42.6518 21.75L40.5948 13.689L46.8617 8.36893Z" fill="white"/>
</mask>
<g mask="url(#mask1_344_7654)">
<path d="M110.37 0.109985H0.0234375V21.75H110.37V0.109985Z" fill="#73CF11"/>
</g>
<mask id="mask2_344_7654" style="mask-type:luminance" maskUnits="userSpaceOnUse" x="48" y="0" width="24" height="22">
<path d="M71.2307 8.36893L63.0687 7.84113L59.9922 0.109985L56.9097 7.84113L48.7656 8.36893L55.0146 13.689L52.9576 21.75L59.9922 17.2996L67.0208 21.75L64.9638 13.689L71.2307 8.36893Z" fill="white"/>
</mask>
<g mask="url(#mask2_344_7654)">
<path d="M110.374 0.109985H0.0273438V21.75H110.374V0.109985Z" fill="#73CF11"/>
</g>
<mask id="mask3_344_7654" style="mask-type:luminance" maskUnits="userSpaceOnUse" x="73" y="0" width="23" height="22">
<path d="M95.6039 8.36893L87.4419 7.84113L84.3594 0.109985L81.2769 7.84113L73.1328 8.36893L79.3818 13.689L77.3248 21.75L84.3594 17.2996L91.388 21.75L89.3369 13.689L95.6039 8.36893Z" fill="white"/>
</mask>
<g mask="url(#mask3_344_7654)">
<path d="M110.374 0.109985H0.0273438V21.75H110.374V0.109985Z" fill="#73CF11"/>
</g>
<mask id="mask4_344_7654" style="mask-type:luminance" maskUnits="userSpaceOnUse" x="97" y="0" width="23" height="22">
<path d="M119.967 8.36893L111.805 7.84113L108.723 0.109985L105.64 7.84113L97.4961 8.36893L103.745 13.689L101.694 21.75L108.723 17.2996L115.751 21.75L113.7 13.689L119.967 8.36893Z" fill="white"/>
</mask>
<g mask="url(#mask4_344_7654)">
<path d="M110.374 0.109985H0.0273438V21.75H110.374V0.109985Z" fill="#73CF11"/>
</g>
<path d="M11.2539 1.72939L13.7787 8.06305L13.9166 8.41691L14.2944 8.44091L20.9752 8.87275L15.8417 13.2331L15.5538 13.473L15.6438 13.8389L17.323 20.4365L11.5657 16.7898L11.2479 16.5859L10.9301 16.7898L5.17285 20.4365L6.85203 13.8389L6.94199 13.479L6.66013 13.2391L1.53861 8.87874L8.20737 8.4469L8.58519 8.42291L8.72312 8.06904L11.2539 1.72939ZM11.2539 0.109985L8.17139 7.84113L0.0273438 8.36893L6.27631 13.689L4.22531 21.75L11.2539 17.2996L18.2825 21.75L16.2315 13.689L22.4984 8.36893L14.3364 7.84113L11.2539 0.109985Z" fill="#73CF11"/>
<path d="M35.6172 1.72939L38.142 8.06305L38.2799 8.41691L38.6577 8.44091L45.3385 8.87275L40.205 13.2331L39.9171 13.473L40.007 13.8389L41.6862 20.4365L35.929 16.7898L35.6112 16.5859L35.2933 16.7898L29.5361 20.4365L31.2153 13.8389L31.3053 13.479L31.0234 13.2391L25.9019 8.87874L32.5707 8.4469L32.9485 8.42291L33.0864 8.06904L35.6172 1.72939ZM35.6172 0.109985L32.5347 7.84113L24.3906 8.36893L30.6396 13.689L28.5886 21.75L35.6172 17.2996L42.6458 21.75L40.5948 13.689L46.8617 8.36893L38.6997 7.84113L35.6172 0.109985Z" fill="#73CF11"/>
<path d="M59.9922 1.72939L62.517 8.06305L62.6549 8.41691L63.0327 8.44091L69.7135 8.87275L64.58 13.2331L64.2921 13.473L64.382 13.8389L66.0612 20.4365L60.304 16.7898L59.9862 16.5859L59.6683 16.7898L53.9111 20.4365L55.5903 13.8389L55.6803 13.479L55.3984 13.2391L50.2769 8.87874L56.9457 8.4469L57.3235 8.42291L57.4614 8.06904L59.9922 1.72939ZM59.9922 0.109985L56.9097 7.84113L48.7656 8.36893L55.0146 13.689L52.9636 21.75L59.9922 17.2996L67.0208 21.75L64.9698 13.689L71.2367 8.36893L63.0747 7.84113L59.9922 0.109985Z" fill="#73CF11"/>
<path d="M84.3594 1.72939L86.8841 8.06305L87.0221 8.41691L87.3999 8.44091L94.0806 8.87275L88.9471 13.2331L88.6593 13.473L88.7492 13.8389L90.4284 20.4365L84.6712 16.7898L84.3534 16.5859L84.0355 16.7898L78.2783 20.4365L79.9575 13.8389L80.0475 13.479L79.7656 13.2391L74.6441 8.87874L81.3128 8.4469L81.6907 8.42291L81.8286 8.06904L84.3594 1.72939ZM84.3594 0.109985L81.2769 7.84113L73.1328 8.36893L79.3818 13.689L77.3308 21.75L84.3594 17.2996L91.388 21.75L89.3369 13.689L95.6039 8.36893L87.4419 7.84113L84.3594 0.109985Z" fill="#73CF11"/>
<path d="M108.723 1.72939L111.247 8.06305L111.385 8.41691L111.763 8.44091L118.444 8.87275L113.31 13.2331L113.023 13.473L113.113 13.8389L114.792 20.4365L109.034 16.7898L108.717 16.5859L108.399 16.7898L102.642 20.4365L104.321 13.8389L104.411 13.479L104.129 13.2391L99.0074 8.87874L105.676 8.4469L106.054 8.42291L106.192 8.06904L108.723 1.72939ZM108.723 0.109985L105.64 7.84113L97.4961 8.36893L103.745 13.689L101.694 21.75L108.723 17.2996L115.751 21.75L113.7 13.689L119.967 8.36893L111.805 7.84113L108.723 0.109985Z" fill="#73CF11"/>
</g>
<defs>
<clipPath id="clip0_344_7654">
<rect width="120" height="21.64" fill="white" transform="translate(0 0.109985)"/>
</clipPath>
</defs>
</svg>
