<svg width="120" height="23" viewBox="0 0 120 23" fill="none" xmlns="http://www.w3.org/2000/svg">
<g clip-path="url(#clip0_344_7581)">
<mask id="mask0_344_7581" style="mask-type:luminance" maskUnits="userSpaceOnUse" x="0" y="0" width="23" height="23">
<path d="M22.4984 8.87394L14.3364 8.34613L11.2539 0.61499L8.17139 8.34613L0.0273438 8.87394L6.27631 14.194L4.22531 22.255L11.2539 17.8046L18.2825 22.255L16.2315 14.194L22.4984 8.87394Z" fill="white"/>
</mask>
<g mask="url(#mask0_344_7581)">
<path d="M110.374 0.61499H0.0273438V22.255H110.374V0.61499Z" fill="#FCB002"/>
</g>
<mask id="mask1_344_7581" style="mask-type:luminance" maskUnits="userSpaceOnUse" x="24" y="0" width="23" height="23">
<path d="M46.8617 8.87394L38.6997 8.34613L35.6172 0.61499L32.5407 8.34613L24.3906 8.87394L30.6396 14.194L28.5886 22.255L35.6172 17.8046L42.6518 22.255L40.5948 14.194L46.8617 8.87394Z" fill="white"/>
</mask>
<g mask="url(#mask1_344_7581)">
<path d="M110.37 0.61499H0.0234375V22.255H110.37V0.61499Z" fill="#FCB002"/>
</g>
<mask id="mask2_344_7581" style="mask-type:luminance" maskUnits="userSpaceOnUse" x="48" y="0" width="24" height="23">
<path d="M71.2307 8.87394L63.0687 8.34613L59.9922 0.61499L56.9097 8.34613L48.7656 8.87394L55.0146 14.194L52.9576 22.255L59.9922 17.8046L67.0208 22.255L64.9638 14.194L71.2307 8.87394Z" fill="white"/>
</mask>
<g mask="url(#mask2_344_7581)">
<path d="M110.374 0.61499H0.0273438V22.255H110.374V0.61499Z" fill="#FCB002"/>
</g>
<mask id="mask3_344_7581" style="mask-type:luminance" maskUnits="userSpaceOnUse" x="73" y="0" width="23" height="23">
<path d="M95.6039 8.87394L87.4419 8.34613L84.3594 0.61499L81.2769 8.34613L73.1328 8.87394L79.3818 14.194L77.3248 22.255L84.3594 17.8046L91.388 22.255L89.3369 14.194L95.6039 8.87394Z" fill="white"/>
</mask>
<g mask="url(#mask3_344_7581)">
<path d="M110.374 0.61499H0.0273438V22.255H110.374V0.61499Z" fill="#FCB002"/>
</g>
<mask id="mask4_344_7581" style="mask-type:luminance" maskUnits="userSpaceOnUse" x="97" y="0" width="23" height="23">
<path d="M119.967 8.87394L111.805 8.34613L108.723 0.61499L105.64 8.34613L97.4961 8.87394L103.745 14.194L101.694 22.255L108.723 17.8046L115.751 22.255L113.7 14.194L119.967 8.87394Z" fill="white"/>
</mask>
<g mask="url(#mask4_344_7581)">
<path d="M110.374 0.61499H0.0273438V22.255H110.374V0.61499Z" fill="#FCB002"/>
</g>
<path d="M11.2539 2.23439L13.7787 8.56805L13.9166 8.92192L14.2944 8.94591L20.9752 9.37775L15.8417 13.7381L15.5538 13.978L15.6438 14.3439L17.323 20.9415L11.5657 17.2948L11.2479 17.0909L10.9301 17.2948L5.17285 20.9415L6.85203 14.3439L6.94199 13.984L6.66013 13.7441L1.53861 9.38375L8.20737 8.95191L8.58519 8.92792L8.72312 8.57405L11.2539 2.23439ZM11.2539 0.61499L8.17139 8.34613L0.0273438 8.87394L6.27631 14.194L4.22531 22.255L11.2539 17.8046L18.2825 22.255L16.2315 14.194L22.4984 8.87394L14.3364 8.34613L11.2539 0.61499Z" fill="#FCB002"/>
<path d="M35.6172 2.23439L38.142 8.56805L38.2799 8.92192L38.6577 8.94591L45.3385 9.37775L40.205 13.7381L39.9171 13.978L40.007 14.3439L41.6862 20.9415L35.929 17.2948L35.6112 17.0909L35.2933 17.2948L29.5361 20.9415L31.2153 14.3439L31.3053 13.984L31.0234 13.7441L25.9019 9.38375L32.5707 8.95191L32.9485 8.92792L33.0864 8.57405L35.6172 2.23439ZM35.6172 0.61499L32.5347 8.34613L24.3906 8.87394L30.6396 14.194L28.5886 22.255L35.6172 17.8046L42.6458 22.255L40.5948 14.194L46.8617 8.87394L38.6997 8.34613L35.6172 0.61499Z" fill="#FCB002"/>
<path d="M59.9922 2.23439L62.517 8.56805L62.6549 8.92192L63.0327 8.94591L69.7135 9.37775L64.58 13.7381L64.2921 13.978L64.382 14.3439L66.0612 20.9415L60.304 17.2948L59.9862 17.0909L59.6683 17.2948L53.9111 20.9415L55.5903 14.3439L55.6803 13.984L55.3984 13.7441L50.2769 9.38375L56.9457 8.95191L57.3235 8.92792L57.4614 8.57405L59.9922 2.23439ZM59.9922 0.61499L56.9097 8.34613L48.7656 8.87394L55.0146 14.194L52.9636 22.255L59.9922 17.8046L67.0208 22.255L64.9698 14.194L71.2367 8.87394L63.0747 8.34613L59.9922 0.61499Z" fill="#FCB002"/>
<path d="M84.3594 2.23439L86.8841 8.56805L87.0221 8.92192L87.3999 8.94591L94.0806 9.37775L88.9471 13.7381L88.6593 13.978L88.7492 14.3439L90.4284 20.9415L84.6712 17.2948L84.3534 17.0909L84.0355 17.2948L78.2783 20.9415L79.9575 14.3439L80.0475 13.984L79.7656 13.7441L74.6441 9.38375L81.3128 8.95191L81.6907 8.92792L81.8286 8.57405L84.3594 2.23439ZM84.3594 0.61499L81.2769 8.34613L73.1328 8.87394L79.3818 14.194L77.3308 22.255L84.3594 17.8046L91.388 22.255L89.3369 14.194L95.6039 8.87394L87.4419 8.34613L84.3594 0.61499Z" fill="#FCB002"/>
<path d="M108.723 2.23439L111.247 8.56805L111.385 8.92192L111.763 8.94591L118.444 9.37775L113.31 13.7381L113.023 13.978L113.113 14.3439L114.792 20.9415L109.034 17.2948L108.717 17.0909L108.399 17.2948L102.642 20.9415L104.321 14.3439L104.411 13.984L104.129 13.7441L99.0074 9.38375L105.676 8.95191L106.054 8.92792L106.192 8.57405L108.723 2.23439ZM108.723 0.61499L105.64 8.34613L97.4961 8.87394L103.745 14.194L101.694 22.255L108.723 17.8046L115.751 22.255L113.7 14.194L119.967 8.87394L111.805 8.34613L108.723 0.61499Z" fill="#FCB002"/>
</g>
<defs>
<clipPath id="clip0_344_7581">
<rect width="120" height="21.64" fill="white" transform="translate(0 0.61499)"/>
</clipPath>
</defs>
</svg>
