<svg width="134" height="134" viewBox="0 0 134 134" fill="none" xmlns="http://www.w3.org/2000/svg">
<path d="M65.1156 111.597H0C0 104.269 2.93125 97.7785 7.74688 92.9629C10.4688 90.241 13.8187 88.1473 17.5875 86.6816C19.4719 93.1723 25.5438 97.7785 32.4531 97.7785C39.5719 97.7785 45.4344 93.1723 47.3188 86.6816C57.7875 90.241 65.1156 100.082 65.1156 111.597Z" fill="#D8955D"/>
<path d="M47.5281 86.6805C45.6438 93.1711 39.5719 97.7773 32.6625 97.7773C25.5438 97.7773 19.6812 93.1711 17.7969 86.6805C18.6344 86.2617 19.4719 86.0523 20.5188 85.843C22.1938 85.4242 23.6594 85.2148 25.5437 85.2148C26.5906 88.3555 29.3125 90.6586 32.8719 90.6586C36.2219 90.6586 39.1531 88.3555 40.2 85.2148C41.875 85.2148 43.55 85.4242 45.225 85.843C45.6438 86.2617 46.4813 86.4711 47.5281 86.6805Z" fill="#CF7A32"/>
<path d="M40.2008 78.7246V83.1215C40.2008 83.959 39.9914 84.5871 39.782 85.4246C38.7352 88.5652 36.0133 90.8684 32.4539 90.8684C29.1039 90.8684 26.1727 88.5652 25.1258 85.4246C24.9164 84.7965 24.707 83.959 24.707 83.1215V78.7246C27.0102 79.7715 29.5227 80.3996 32.2445 80.3996C35.1758 80.3996 37.8977 79.7715 40.2008 78.7246Z" fill="#E0B28B"/>
<path d="M50.2516 50.041V62.6035C50.2516 63.0223 50.2516 63.2316 50.2516 63.6504C49.8328 70.3504 45.8547 76.0035 39.9922 78.7254C37.6891 79.7723 35.1766 80.4004 32.4547 80.4004C29.7328 80.4004 27.2203 79.7723 24.9172 78.7254C19.2641 76.0035 15.0766 70.3504 14.8672 63.6504C14.8672 63.2316 14.8672 63.0223 14.8672 62.6035V48.5754C17.5891 51.0879 28.8953 59.8816 40.2016 47.5285C41.2484 46.4816 42.0859 45.2254 43.1328 43.7598L47.5297 47.5285L50.2516 50.041Z" fill="#F0C19A"/>
<path d="M56.5328 58.8352C56.5328 60.0914 55.9047 61.3477 55.0672 62.1852C54.2297 63.0227 52.9734 63.6508 51.7172 63.6508H50.2516C50.2516 63.232 50.2516 63.0227 50.2516 62.6039V54.0195H51.7172C53.1828 54.0195 54.4391 54.6477 55.2766 55.6945C56.1141 56.532 56.5328 57.7883 56.5328 58.8352ZM14.8672 63.6508H13.4016C12.1453 63.6508 10.8891 63.0227 10.0516 62.1852C9.21406 61.3477 8.58594 60.0914 8.58594 58.8352C8.58594 57.5789 9.00469 56.532 9.63281 55.6945C10.4703 54.6477 11.7266 54.0195 13.1922 54.0195H14.6578V62.6039C14.6578 63.0227 14.6578 63.232 14.8672 63.6508Z" fill="#E0B28B"/>
<path d="M55.4836 46.6902V55.6934C54.6461 54.6465 53.3898 54.0184 51.9242 54.0184H50.2492V50.0402L47.318 47.5277L42.9211 43.759C41.8742 45.2246 41.0367 46.4809 39.9898 47.5277C28.893 59.8809 17.3773 51.0871 14.6555 48.5746V54.0184H13.3992C11.9336 54.0184 10.6773 54.6465 9.83984 55.6934V45.434C9.83984 41.4559 11.0961 37.4777 13.1898 34.1277C16.3305 29.3121 22.193 27.8465 27.6367 27.8465C33.918 27.8465 39.7805 28.8934 45.8523 27.4277C45.8523 27.4277 46.8992 30.7777 45.643 33.2902C51.2961 35.1746 55.4836 40.409 55.4836 46.6902Z" fill="#9A8878"/>
<path d="M133.999 111.598H71.6055C71.6055 104.898 74.3273 98.8258 78.5148 94.2195C78.7242 94.0102 78.9336 93.8008 79.143 93.5914C81.8648 90.8695 85.0055 88.7758 88.5648 87.5195C90.4492 93.5914 96.1023 98.1977 102.802 98.1977C109.502 98.1977 115.155 93.8008 117.04 87.5195C120.809 88.7758 124.368 91.0789 127.09 94.0102C131.487 98.8258 133.999 104.898 133.999 111.598Z" fill="#EFA260"/>
<path d="M117.041 87.7273C115.157 93.7992 109.504 98.4055 102.804 98.4055C96.1039 98.4055 90.2414 94.0086 88.5664 87.7273C89.4039 87.518 90.2414 87.0992 91.0789 86.8898C92.5445 86.4711 94.2195 86.2617 95.8945 86.2617C96.732 89.193 99.6633 91.4961 102.804 91.4961C106.154 91.4961 108.876 89.4023 109.713 86.2617C111.388 86.2617 112.854 86.4711 114.529 86.8898C115.366 87.3086 116.204 87.518 117.041 87.7273Z" fill="#FF7500"/>
<path d="M110.133 79.9805V84.168C110.133 85.0055 109.923 85.6336 109.714 86.2617C108.877 89.193 105.945 91.4961 102.805 91.4961C99.4547 91.4961 96.7328 89.4023 95.8953 86.2617C95.6859 85.6336 95.4766 84.7961 95.4766 84.168V79.9805C97.7797 81.0273 100.292 81.4461 102.805 81.4461C105.317 81.4461 107.83 81.0273 110.133 79.9805Z" fill="#E0B28B"/>
<path d="M95.8937 86.4715C94.2187 86.4715 92.7531 86.6809 91.0781 87.0996C90.2406 87.309 89.4031 87.5184 88.5656 87.9371C85.0062 89.1934 81.6562 91.2871 79.1437 94.009C78.9344 94.2184 78.725 94.4277 78.5156 94.6371V61.9746L78.725 62.184C79.5625 63.0215 80.8187 63.6496 82.2844 63.6496H83.9594C84.3781 70.9777 88.9844 77.259 95.475 79.9809V84.1684C95.475 85.0059 95.6844 85.634 95.8937 86.4715ZM127.091 61.9746V94.2184C124.369 91.2871 120.809 88.984 117.041 87.7277C116.203 87.5184 115.366 87.0996 114.528 86.8902C113.062 86.4715 111.388 86.2621 109.713 86.2621C109.922 85.634 110.131 84.7965 110.131 84.1684V79.9809C116.622 77.259 121.228 70.9777 121.647 63.6496H123.322C124.788 63.6496 126.044 63.0215 126.881 62.184C127.091 62.184 127.091 61.9746 127.091 61.9746Z" fill="#6C5644"/>
<path d="M128.345 58.6246C128.345 59.8809 127.927 60.9277 127.089 61.9746L126.88 62.184C126.042 63.0215 124.577 63.6496 123.32 63.6496H121.645C121.645 63.2309 121.645 63.0215 121.645 62.6027V53.5996H123.32C124.786 53.5996 126.252 54.2277 127.089 55.2746C127.927 56.3215 128.345 57.3684 128.345 58.6246ZM83.9578 63.6496H82.2828C80.8172 63.6496 79.5609 63.0215 78.7234 62.184L78.5141 61.9746C77.6766 61.1371 77.2578 59.8809 77.2578 58.6246C77.2578 57.3684 77.6766 56.3215 78.5141 55.2746C79.3516 54.2277 80.8172 53.5996 82.2828 53.5996H83.9578V62.6027C83.9578 63.0215 83.9578 63.4402 83.9578 63.6496Z" fill="#E0B28B"/>
<path d="M121.648 49.4129V62.8129C121.648 63.2316 121.648 63.441 121.648 63.8598C121.23 71.1879 116.623 77.4691 110.133 80.191C107.83 81.2379 105.317 81.6566 102.805 81.6566C100.292 81.6566 97.7797 81.0285 95.4766 80.191C88.9859 77.4691 84.3797 71.1879 83.9609 63.8598C83.9609 63.441 83.9609 63.2316 83.9609 62.8129V47.9473C86.6828 50.4598 98.8266 59.8816 110.761 46.691C111.808 45.4348 112.855 44.1785 113.902 42.7129L118.508 46.691L121.648 49.4129Z" fill="#F0C19A"/>
<path d="M127.091 46.6905V55.2748C126.253 54.228 124.788 53.5998 123.322 53.5998H121.647V49.4123L118.506 46.6905L113.9 42.7123C112.853 44.178 111.806 45.6436 110.759 46.6905C98.825 59.8811 86.8906 50.4592 83.9594 47.9467V53.8092H82.2844C80.8187 53.8092 79.3531 54.4373 78.5156 55.4842V46.8998C78.5156 40.1998 81.2375 34.128 85.6344 29.7311C90.0313 25.3342 96.1031 22.6123 102.803 22.6123C116.203 22.403 127.091 33.2905 127.091 46.6905Z" fill="#6C5644"/>
</svg>
