<svg width="120" height="120" viewBox="0 0 120 120" fill="none" xmlns="http://www.w3.org/2000/svg">
<path d="M101.625 65C98.24 46.975 85.45 44.455 75.725 42.58C66.795 40.85 62.5 39.7 62.5 32.5H57.5C57.5 39.7 53.205 40.85 44.275 42.58C34.55 44.455 21.76 46.98 18.375 65H7.5L20 80L32.5 65H23.455C26.42 51.165 35.94 49.28 45.22 47.49C49.54 46.655 54.12 45.71 57.5 43.29V65H47.5L60 80L72.5 65H62.5V43.29C65.875 45.71 70.46 46.655 74.78 47.49C84.06 49.28 93.58 51.165 96.545 65H87.5L100 80L112.5 65H101.625Z" fill="#423830"/>
<path d="M100 35H20C18.6739 35 17.4021 34.4732 16.4645 33.5355C15.5268 32.5979 15 31.3261 15 30V10C15 8.67392 15.5268 7.40215 16.4645 6.46447C17.4021 5.52678 18.6739 5 20 5H100C101.326 5 102.598 5.52678 103.536 6.46447C104.473 7.40215 105 8.67392 105 10V30C105 31.3261 104.473 32.5979 103.536 33.5355C102.598 34.4732 101.326 35 100 35Z" fill="#423830"/>
<path opacity="0.1" d="M100 5H20C18.6739 5 17.4021 5.52678 16.4645 6.46447C15.5268 7.40215 15 8.67392 15 10V11.25C15 9.92392 15.5268 8.65215 16.4645 7.71447C17.4021 6.77678 18.6739 6.25 20 6.25H100C101.326 6.25 102.598 6.77678 103.536 7.71447C104.473 8.65215 105 9.92392 105 11.25V10C105 8.67392 104.473 7.40215 103.536 6.46447C102.598 5.52678 101.326 5 100 5Z" fill="white"/>
<path opacity="0.2" d="M100 33.75H20C18.6739 33.75 17.4021 33.2232 16.4645 32.2855C15.5268 31.3479 15 30.0761 15 28.75V30C15 31.3261 15.5268 32.5979 16.4645 33.5355C17.4021 34.4732 18.6739 35 20 35H100C101.326 35 102.598 34.4732 103.536 33.5355C104.473 32.5979 105 31.3261 105 30V28.75C105 30.0761 104.473 31.3479 103.536 32.2855C102.598 33.2232 101.326 33.75 100 33.75Z" fill="black"/>
<path d="M92.5 22.5C93.8807 22.5 95 21.3807 95 20C95 18.6193 93.8807 17.5 92.5 17.5C91.1193 17.5 90 18.6193 90 20C90 21.3807 91.1193 22.5 92.5 22.5Z" fill="#FF7500"/>
<path d="M82.5 22.5C83.8807 22.5 85 21.3807 85 20C85 18.6193 83.8807 17.5 82.5 17.5C81.1193 17.5 80 18.6193 80 20C80 21.3807 81.1193 22.5 82.5 22.5Z" fill="#FF7500"/>
<path d="M72.5 22.5C73.8807 22.5 75 21.3807 75 20C75 18.6193 73.8807 17.5 72.5 17.5C71.1193 17.5 70 18.6193 70 20C70 21.3807 71.1193 22.5 72.5 22.5Z" fill="#FF7500"/>
<path d="M27.5 25C30.2614 25 32.5 22.7614 32.5 20C32.5 17.2386 30.2614 15 27.5 15C24.7386 15 22.5 17.2386 22.5 20C22.5 22.7614 24.7386 25 27.5 25Z" fill="#D1CBC6"/>
<path d="M27.5 25C30.2614 25 32.5 22.7614 32.5 20C32.5 17.2386 30.2614 15 27.5 15C24.7386 15 22.5 17.2386 22.5 20C22.5 22.7614 24.7386 25 27.5 25Z" fill="url(#paint0_linear_887_13702)"/>
<path d="M45 85H75V115H45V85ZM5 85H35V115H5V85Z" fill="#E56B03"/>
<path opacity="0.2" d="M5 85H35V86.25H5V85Z" fill="white"/>
<path opacity="0.1" d="M5 113.75H35V115H5V113.75Z" fill="black"/>
<path d="M85 85H115V115H85V85Z" fill="#E56B03"/>
<path opacity="0.2" d="M45 85H75V86.25H45V85Z" fill="white"/>
<path opacity="0.1" d="M45 113.75H75V115H45V113.75Z" fill="black"/>
<path opacity="0.2" d="M85 85H115V86.25H85V85Z" fill="white"/>
<path opacity="0.1" d="M85 113.75H115V115H85V113.75Z" fill="black"/>
<path d="M5 115H35V85H5V115ZM44.275 42.58C34.55 44.455 21.76 46.98 18.375 65H7.5L20 80L32.5 65H23.455C26.42 51.165 35.94 49.28 45.22 47.49C49.54 46.655 54.12 45.71 57.5 43.29V65H47.5L60 80L72.5 65H62.5V43.29C65.875 45.71 70.46 46.655 74.78 47.49C84.06 49.28 93.58 51.165 96.545 65H87.5L100 80L112.5 65H101.625C98.24 46.975 85.45 44.455 75.725 42.58C67.95 41.08 63.695 40 62.725 35H100C101.326 35 102.598 34.4732 103.536 33.5355C104.473 32.5979 105 31.3261 105 30V10C105 8.67392 104.473 7.40215 103.536 6.46447C102.598 5.52678 101.326 5 100 5H20C18.6739 5 17.4021 5.52678 16.4645 6.46447C15.5268 7.40215 15 8.67392 15 10V30C15 31.3261 15.5268 32.5979 16.4645 33.5355C17.4021 34.4732 18.6739 35 20 35H57.275C56.305 40 52.05 41.075 44.275 42.58ZM85 85V115H115V85H85ZM45 115H75V85H45V115Z" fill="url(#paint1_linear_887_13702)"/>
<defs>
<linearGradient id="paint0_linear_887_13702" x1="24.34" y1="16.84" x2="29.935" y2="22.435" gradientUnits="userSpaceOnUse">
<stop stop-opacity="0.1"/>
<stop offset="1" stop-opacity="0"/>
</linearGradient>
<linearGradient id="paint1_linear_887_13702" x1="2.22" y1="36.295" x2="125.005" y2="93.55" gradientUnits="userSpaceOnUse">
<stop stop-color="white" stop-opacity="0.2"/>
<stop offset="1" stop-color="white" stop-opacity="0"/>
</linearGradient>
</defs>
</svg>
