<svg width="128" height="128" viewBox="0 0 128 128" fill="none" xmlns="http://www.w3.org/2000/svg">
<g clip-path="url(#clip0_887_13723)">
<path d="M64 127.5C99.0701 127.5 127.5 99.0701 127.5 64C127.5 28.9299 99.0701 0.5 64 0.5C28.9299 0.5 0.5 28.9299 0.5 64C0.5 99.0701 28.9299 127.5 64 127.5Z" fill="#C3936B"/>
<path d="M113.701 52.6992H14.3008V78.3992H113.701V52.6992Z" fill="#FF7500"/>
<path d="M113.699 80.3996H14.2992C13.0992 80.3996 12.1992 79.3996 12.1992 78.2996V52.6996C12.1992 51.4996 13.1992 50.5996 14.2992 50.5996H113.699C114.899 50.5996 115.799 51.5996 115.799 52.6996V78.3996C115.799 79.4996 114.899 80.3996 113.699 80.3996ZM16.3992 76.1996H111.499V54.7996H16.3992V76.1996Z" fill="#423931"/>
<path d="M56.9992 110.001H14.2992C13.0992 110.001 12.1992 109.001 12.1992 107.901C12.1992 106.701 13.1992 105.801 14.2992 105.801H56.9992C58.1992 105.801 59.0992 106.801 59.0992 107.901C59.1992 109.001 58.1992 110.001 56.9992 110.001Z" fill="#423931"/>
<path d="M113.698 110.001H70.9984C69.7984 110.001 68.8984 109.001 68.8984 107.901C68.8984 106.701 69.8984 105.801 70.9984 105.801H113.698C114.898 105.801 115.798 106.801 115.798 107.901C115.798 109.001 114.898 110.001 113.698 110.001Z" fill="#423931"/>
<path d="M104.501 67.6004H99.9008C98.7008 67.6004 97.8008 66.6004 97.8008 65.5004C97.8008 64.4004 98.8008 63.4004 99.9008 63.4004H104.501C105.701 63.4004 106.601 64.4004 106.601 65.5004C106.601 66.6004 105.601 67.6004 104.501 67.6004Z" fill="#423931"/>
<path d="M89.3016 67.6004H84.7016C83.5016 67.6004 82.6016 66.6004 82.6016 65.5004C82.6016 64.4004 83.6016 63.4004 84.7016 63.4004H89.3016C90.5016 63.4004 91.4016 64.4004 91.4016 65.5004C91.4016 66.6004 90.4016 67.6004 89.3016 67.6004Z" fill="#423931"/>
<path d="M74.0984 67.6004H69.4984C68.2984 67.6004 67.3984 66.6004 67.3984 65.5004C67.3984 64.4004 68.3984 63.4004 69.4984 63.4004H74.0984C75.2984 63.4004 76.1984 64.4004 76.1984 65.5004C76.1984 66.6004 75.2984 67.6004 74.0984 67.6004Z" fill="#423931"/>
<path d="M113.701 14.2988H14.3008V39.9988H113.701V14.2988Z" fill="white"/>
<path d="M113.699 42.0992H14.2992C13.0992 42.0992 12.1992 41.0992 12.1992 39.9992V14.2992C12.1992 13.0992 13.1992 12.1992 14.2992 12.1992H113.699C114.899 12.1992 115.799 13.1992 115.799 14.2992V39.9992C115.799 41.0992 114.899 42.0992 113.699 42.0992ZM16.3992 37.7992H111.499V16.3992H16.3992V37.7992Z" fill="#423931"/>
<path d="M104.501 29.2996H99.9008C98.7008 29.2996 97.8008 28.2996 97.8008 27.1996C97.8008 25.9996 98.8008 25.0996 99.9008 25.0996H104.501C105.701 25.0996 106.601 26.0996 106.601 27.1996C106.601 28.2996 105.601 29.2996 104.501 29.2996Z" fill="#423931"/>
<path d="M89.3016 29.2996H84.7016C83.5016 29.2996 82.6016 28.2996 82.6016 27.1996C82.6016 25.9996 83.6016 25.0996 84.7016 25.0996H89.3016C90.5016 25.0996 91.4016 26.0996 91.4016 27.1996C91.4016 28.2996 90.4016 29.2996 89.3016 29.2996Z" fill="#423931"/>
<path d="M74.0984 29.2996H69.4984C68.2984 29.2996 67.3984 28.2996 67.3984 27.1996C67.3984 25.9996 68.3984 25.0996 69.4984 25.0996H74.0984C75.2984 25.0996 76.1984 26.0996 76.1984 27.1996C76.1984 28.2996 75.2984 29.2996 74.0984 29.2996Z" fill="#423931"/>
<path d="M63.9984 104.099C62.7984 104.099 61.8984 103.099 61.8984 101.999V78.2992C61.8984 77.0992 62.8984 76.1992 63.9984 76.1992C65.1984 76.1992 66.0984 77.1992 66.0984 78.2992V101.999C66.0984 103.199 65.1984 104.099 63.9984 104.099Z" fill="#423931"/>
<path d="M62.7984 116.398C58.1984 116.398 54.3984 112.598 54.3984 107.998V107.798C54.3984 103.198 58.1984 99.3984 62.7984 99.3984H65.0984C69.6984 99.3984 73.4984 103.198 73.4984 107.798V107.998C73.4984 112.598 69.6984 116.398 65.0984 116.398H62.7984Z" fill="#E8E8E8"/>
<path d="M65.1984 101.499C68.6984 101.499 71.4984 104.299 71.4984 107.799V107.999C71.4984 111.499 68.6984 114.299 65.1984 114.299H62.8984C59.3984 114.299 56.5984 111.499 56.5984 107.999V107.799C56.5984 104.299 59.3984 101.499 62.8984 101.499H65.1984ZM65.1984 97.1992H62.8984C57.0984 97.1992 52.3984 101.899 52.3984 107.699V107.899C52.3984 113.699 57.0984 118.399 62.8984 118.399H65.1984C70.9984 118.399 75.6984 113.699 75.6984 107.899V107.699C75.6984 101.999 70.9984 97.1992 65.1984 97.1992Z" fill="#423931"/>
</g>
<defs>
<clipPath id="clip0_887_13723">
<rect width="128" height="128" fill="white"/>
</clipPath>
</defs>
</svg>
