<svg width="577" height="433" viewBox="0 0 577 433" fill="none" xmlns="http://www.w3.org/2000/svg">
<g clip-path="url(#clip0_562_45138)">
<path d="M134.67 310.463V124.664C134.67 122.057 135.703 119.556 137.543 117.712C139.383 115.867 141.878 114.828 144.482 114.824H432.503C435.109 114.824 437.608 115.861 439.451 117.706C441.294 119.552 442.329 122.054 442.329 124.664V310.463H134.67Z" fill="#D8E6F0"/>
<path d="M442.935 316.669H134.065C125.345 316.669 118.263 308.159 118.263 297.64H458.723C458.723 308.159 451.655 316.669 442.935 316.669Z" fill="#F0F6FA"/>
<path opacity="0.2" d="M256.946 306.519C256.946 307.302 257.257 308.054 257.81 308.608C258.363 309.162 259.114 309.474 259.897 309.474H317.235C318.018 309.474 318.769 309.162 319.322 308.608C319.875 308.054 320.186 307.302 320.186 306.519C320.186 305.735 319.875 304.984 319.322 304.429C318.769 303.875 318.018 303.564 317.235 303.564H259.838C259.055 303.564 258.304 303.875 257.751 304.429C257.198 304.984 256.887 305.735 256.887 306.519H256.946Z" fill="#4E83A6"/>
<g opacity="0.2">
<path d="M182.742 306.519C182.742 307.299 182.973 308.062 183.406 308.71C183.839 309.359 184.454 309.865 185.174 310.163C185.894 310.462 186.686 310.54 187.45 310.388C188.215 310.235 188.917 309.86 189.468 309.308C190.019 308.756 190.394 308.053 190.546 307.288C190.698 306.523 190.62 305.73 190.322 305.009C190.023 304.288 189.518 303.672 188.871 303.239C188.223 302.805 187.461 302.574 186.682 302.574C185.637 302.574 184.635 302.99 183.896 303.729C183.157 304.469 182.742 305.472 182.742 306.519Z" fill="#4E83A6"/>
<path d="M164.918 306.519C164.918 307.299 165.149 308.062 165.582 308.71C166.015 309.359 166.63 309.865 167.35 310.163C168.07 310.462 168.862 310.54 169.626 310.388C170.39 310.235 171.092 309.86 171.643 309.308C172.194 308.756 172.57 308.053 172.722 307.288C172.874 306.523 172.796 305.73 172.497 305.009C172.199 304.288 171.694 303.672 171.046 303.239C170.398 302.805 169.637 302.574 168.858 302.574C168.34 302.572 167.827 302.673 167.348 302.87C166.869 303.068 166.434 303.358 166.068 303.725C165.701 304.092 165.411 304.527 165.214 305.007C165.017 305.486 164.916 306 164.918 306.519Z" fill="#4E83A6"/>
<path d="M147.094 306.519C147.094 307.299 147.325 308.062 147.758 308.71C148.191 309.359 148.806 309.865 149.526 310.163C150.246 310.462 151.038 310.54 151.802 310.388C152.566 310.235 153.268 309.86 153.819 309.308C154.37 308.756 154.745 308.053 154.897 307.288C155.049 306.523 154.971 305.73 154.673 305.009C154.375 304.288 153.87 303.672 153.222 303.239C152.574 302.805 151.813 302.574 151.033 302.574C150.515 302.572 150.002 302.673 149.523 302.87C149.045 303.068 148.61 303.358 148.243 303.725C147.877 304.092 147.587 304.527 147.39 305.007C147.192 305.486 147.092 306 147.094 306.519Z" fill="#4E83A6"/>
</g>
<path d="M432.149 131.165H144.837V289.203H432.149V131.165Z" fill="#FF7500"/>
<path opacity="0.6" d="M288.493 128.106C291.321 128.106 293.613 125.811 293.613 122.98C293.613 120.148 291.321 117.853 288.493 117.853C285.665 117.853 283.373 120.148 283.373 122.98C283.373 125.811 285.665 128.106 288.493 128.106Z" fill="#4E83A6"/>
<path d="M286.545 122.98C286.545 123.366 286.659 123.743 286.873 124.063C287.087 124.384 287.391 124.634 287.747 124.782C288.103 124.929 288.495 124.968 288.873 124.893C289.25 124.817 289.597 124.632 289.87 124.359C290.142 124.086 290.328 123.739 290.403 123.36C290.478 122.982 290.439 122.59 290.292 122.234C290.145 121.877 289.895 121.573 289.575 121.358C289.254 121.144 288.878 121.03 288.493 121.03C287.976 121.03 287.481 121.235 287.115 121.601C286.75 121.967 286.545 122.463 286.545 122.98Z" fill="#D0E5F2"/>
<g opacity="0.24">
<path d="M418.234 131.165V289.203" stroke="#FAFAFA" stroke-width="0.5" stroke-miterlimit="10"/>
<path d="M402.978 131.165V289.203" stroke="#FAFAFA" stroke-width="0.5" stroke-miterlimit="10"/>
<path d="M387.706 131.165V289.203" stroke="#FAFAFA" stroke-width="0.5" stroke-miterlimit="10"/>
<path d="M372.449 131.165V289.203" stroke="#FAFAFA" stroke-width="0.5" stroke-miterlimit="10"/>
<path d="M357.178 131.165V289.203" stroke="#FAFAFA" stroke-width="0.5" stroke-miterlimit="10"/>
<path d="M341.921 131.165V289.203" stroke="#FAFAFA" stroke-width="0.5" stroke-miterlimit="10"/>
<path d="M326.649 131.165V289.203" stroke="#FAFAFA" stroke-width="0.5" stroke-miterlimit="10"/>
<path d="M311.393 131.165V289.203" stroke="#FAFAFA" stroke-width="0.5" stroke-miterlimit="10"/>
<path d="M296.136 131.165V289.203" stroke="#FAFAFA" stroke-width="0.5" stroke-miterlimit="10"/>
<path d="M280.864 131.165V289.203" stroke="#FAFAFA" stroke-width="0.5" stroke-miterlimit="10"/>
<path d="M265.607 131.165V289.203" stroke="#FAFAFA" stroke-width="0.5" stroke-miterlimit="10"/>
<path d="M250.336 131.165V289.203" stroke="#FAFAFA" stroke-width="0.5" stroke-miterlimit="10"/>
<path d="M235.079 131.165V289.203" stroke="#FAFAFA" stroke-width="0.5" stroke-miterlimit="10"/>
<path d="M219.808 131.165V289.203" stroke="#FAFAFA" stroke-width="0.5" stroke-miterlimit="10"/>
<path d="M204.551 131.165V289.203" stroke="#FAFAFA" stroke-width="0.5" stroke-miterlimit="10"/>
<path d="M189.279 131.165V289.203" stroke="#FAFAFA" stroke-width="0.5" stroke-miterlimit="10"/>
<path d="M174.022 131.165V289.203" stroke="#FAFAFA" stroke-width="0.5" stroke-miterlimit="10"/>
<path d="M158.766 131.165V289.203" stroke="#FAFAFA" stroke-width="0.5" stroke-miterlimit="10"/>
<path d="M431.942 275.936H145.043" stroke="#FAFAFA" stroke-width="0.5" stroke-miterlimit="10"/>
<path d="M431.942 261.325H145.043" stroke="#FAFAFA" stroke-width="0.5" stroke-miterlimit="10"/>
<path d="M431.942 246.713H145.043" stroke="#FAFAFA" stroke-width="0.5" stroke-miterlimit="10"/>
<path d="M431.942 232.101H145.043" stroke="#FAFAFA" stroke-width="0.5" stroke-miterlimit="10"/>
<path d="M431.942 217.49H145.043" stroke="#FAFAFA" stroke-width="0.5" stroke-miterlimit="10"/>
<path d="M431.942 202.878H145.043" stroke="#FAFAFA" stroke-width="0.5" stroke-miterlimit="10"/>
<path d="M431.942 188.267H145.043" stroke="#FAFAFA" stroke-width="0.5" stroke-miterlimit="10"/>
<path d="M431.942 173.64H145.043" stroke="#FAFAFA" stroke-width="0.5" stroke-miterlimit="10"/>
<path d="M431.942 159.029H145.043" stroke="#FAFAFA" stroke-width="0.5" stroke-miterlimit="10"/>
<path d="M431.942 144.417H145.043" stroke="#FAFAFA" stroke-width="0.5" stroke-miterlimit="10"/>
</g>
<path d="M387.707 144.417H189.279V159.029H387.707V144.417Z" stroke="#F0F9FA" stroke-miterlimit="10"/>
<path d="M387.721 261.325H189.294V275.936H387.721V261.325Z" stroke="#F0F9FA" stroke-miterlimit="10"/>
<path d="M387.707 159.029H189.279V217.49H387.707V159.029Z" stroke="#F0F9FA" stroke-miterlimit="10"/>
<path d="M387.706 217.49H326.664V261.325H387.706V217.49Z" stroke="#F0F9FA" stroke-miterlimit="10"/>
<path d="M326.664 217.49H250.336V261.325H326.664V217.49Z" stroke="#F0F9FA" stroke-miterlimit="10"/>
<path d="M250.336 217.49H189.279V261.325H250.336V217.49Z" stroke="#F0F9FA" stroke-miterlimit="10"/>
<path d="M326.708 182.845H290.101V185.445H326.708V182.845Z" fill="#F0F6FA"/>
<path d="M335.561 182.845H328.848V185.445H335.561V182.845Z" fill="#F0F6FA"/>
<path d="M357.222 182.845H340.283V185.445H357.222V182.845Z" fill="#F0F6FA"/>
<path d="M301.698 178.043H290.101V180.643H301.698V178.043Z" fill="#F0F6FA"/>
<path d="M352.501 178.043H304.753V180.643H352.501V178.043Z" fill="#F0F6FA"/>
<path d="M369.882 178.043H355.702V180.643H369.882V178.043Z" fill="#F0F6FA"/>
<path d="M309.327 173.227H290.101V175.827H309.327V173.227Z" fill="#F0F6FA"/>
<path d="M318.785 173.227H311.614V175.827H318.785V173.227Z" fill="#F0F6FA"/>
<path d="M334.632 173.227H320.91V175.827H334.632V173.227Z" fill="#F0F6FA"/>
<path d="M286.855 174.335C286.858 174.531 286.802 174.724 286.696 174.889C286.589 175.053 286.435 175.183 286.255 175.26C286.075 175.337 285.875 175.359 285.683 175.322C285.49 175.286 285.312 175.193 285.173 175.055C285.033 174.917 284.937 174.741 284.898 174.548C284.859 174.356 284.877 174.156 284.952 173.974C285.026 173.792 285.153 173.637 285.316 173.528C285.479 173.418 285.67 173.36 285.866 173.36C286.126 173.36 286.375 173.462 286.56 173.644C286.745 173.827 286.851 174.075 286.855 174.335Z" fill="#F0F6FA"/>
<path d="M286.855 179.358C286.855 179.554 286.797 179.745 286.689 179.908C286.58 180.071 286.425 180.197 286.245 180.272C286.064 180.347 285.865 180.367 285.674 180.329C285.482 180.291 285.306 180.196 285.167 180.058C285.029 179.919 284.935 179.743 284.897 179.551C284.859 179.359 284.878 179.16 284.953 178.979C285.028 178.798 285.155 178.644 285.317 178.535C285.48 178.426 285.671 178.368 285.867 178.368C286.129 178.368 286.38 178.472 286.566 178.658C286.751 178.844 286.855 179.095 286.855 179.358Z" fill="#F0F6FA"/>
<path d="M286.855 184.381C286.855 184.577 286.797 184.768 286.689 184.931C286.58 185.094 286.425 185.221 286.245 185.296C286.064 185.371 285.865 185.39 285.674 185.352C285.482 185.314 285.306 185.219 285.167 185.081C285.029 184.943 284.935 184.766 284.897 184.574C284.859 184.382 284.878 184.183 284.953 184.002C285.028 183.821 285.155 183.667 285.317 183.558C285.48 183.449 285.671 183.391 285.867 183.391C286.129 183.391 286.38 183.496 286.566 183.681C286.751 183.867 286.855 184.119 286.855 184.381Z" fill="#F0F6FA"/>
<path d="M311.451 201.342H290.101V203.942H311.451V201.342Z" fill="#F0F6FA"/>
<path d="M342.585 201.342H314.211V203.942H342.585V201.342Z" fill="#F0F6FA"/>
<path d="M358.137 201.342H345.935V203.942H358.137V201.342Z" fill="#F0F6FA"/>
<path d="M308.102 196.688H290.101V199.288H308.102V196.688Z" fill="#F0F6FA"/>
<path d="M332.286 196.688H310.625V199.288H332.286V196.688Z" fill="#F0F6FA"/>
<path d="M347.306 196.688H334.646V199.288H347.306V196.688Z" fill="#F0F6FA"/>
<path d="M296.357 192.034H290.101V194.634H296.357V192.034Z" fill="#F0F6FA"/>
<path d="M316.646 192.034H298.792V194.634H316.646V192.034Z" fill="#F0F6FA"/>
<path d="M286.855 193.009C286.855 193.205 286.797 193.396 286.689 193.559C286.58 193.722 286.425 193.849 286.245 193.924C286.064 193.999 285.865 194.018 285.674 193.98C285.482 193.942 285.306 193.848 285.167 193.709C285.029 193.571 284.935 193.394 284.897 193.202C284.859 193.01 284.878 192.811 284.953 192.63C285.028 192.449 285.155 192.295 285.317 192.186C285.48 192.077 285.671 192.019 285.867 192.019C286.129 192.019 286.38 192.124 286.566 192.309C286.751 192.495 286.855 192.747 286.855 193.009Z" fill="#F0F6FA"/>
<path d="M286.855 197.973C286.855 198.169 286.797 198.36 286.689 198.523C286.58 198.686 286.425 198.813 286.245 198.888C286.064 198.963 285.865 198.982 285.674 198.944C285.482 198.906 285.306 198.812 285.167 198.673C285.029 198.535 284.935 198.358 284.897 198.166C284.859 197.974 284.878 197.775 284.953 197.594C285.028 197.414 285.155 197.259 285.317 197.15C285.48 197.041 285.671 196.983 285.867 196.983C286.129 196.983 286.38 197.088 286.566 197.273C286.751 197.459 286.855 197.711 286.855 197.973Z" fill="#F0F6FA"/>
<path d="M286.855 203.041C286.855 203.237 286.797 203.428 286.689 203.591C286.58 203.753 286.425 203.88 286.245 203.955C286.064 204.03 285.865 204.05 285.674 204.012C285.482 203.973 285.306 203.879 285.167 203.741C285.029 203.602 284.935 203.426 284.897 203.234C284.859 203.042 284.878 202.843 284.953 202.662C285.028 202.481 285.155 202.326 285.317 202.218C285.48 202.109 285.671 202.051 285.867 202.051C286.129 202.051 286.38 202.155 286.566 202.341C286.751 202.526 286.855 202.778 286.855 203.041Z" fill="#F0F6FA"/>
<path d="M221.799 243.049H203.518V245.649H221.799V243.049Z" fill="#F0F6FA"/>
<path d="M226.211 243.049H222.861V245.649H226.211V243.049Z" fill="#F0F6FA"/>
<path d="M237.027 243.049H228.572V245.649H237.027V243.049Z" fill="#F0F6FA"/>
<path d="M209.302 238.233H203.518V240.833H209.302V238.233Z" fill="#F0F6FA"/>
<path d="M234.666 238.233H210.821V240.833H234.666V238.233Z" fill="#F0F6FA"/>
<path d="M243.342 238.233H236.26V240.833H243.342V238.233Z" fill="#F0F6FA"/>
<path d="M213.108 233.416H203.518V236.017H213.108V233.416Z" fill="#F0F6FA"/>
<path d="M217.831 233.416H214.245V236.017H217.831V233.416Z" fill="#F0F6FA"/>
<path d="M225.754 233.416H218.893V236.017H225.754V233.416Z" fill="#F0F6FA"/>
<path d="M200.271 234.539C200.271 234.802 200.167 235.053 199.982 235.239C199.796 235.425 199.545 235.529 199.283 235.529C199.02 235.529 198.769 235.425 198.584 235.239C198.398 235.053 198.294 234.802 198.294 234.539C198.294 234.277 198.398 234.025 198.584 233.839C198.769 233.654 199.02 233.549 199.283 233.549C199.545 233.549 199.796 233.654 199.982 233.839C200.167 234.025 200.271 234.277 200.271 234.539Z" fill="#F0F6FA"/>
<path d="M200.271 239.548C200.271 239.743 200.213 239.935 200.105 240.098C199.996 240.26 199.841 240.387 199.661 240.462C199.48 240.537 199.281 240.557 199.09 240.518C198.898 240.48 198.722 240.386 198.584 240.248C198.445 240.109 198.351 239.933 198.313 239.741C198.275 239.549 198.294 239.35 198.369 239.169C198.444 238.988 198.571 238.833 198.733 238.725C198.896 238.616 199.087 238.558 199.283 238.558C199.545 238.558 199.796 238.662 199.982 238.848C200.167 239.033 200.271 239.285 200.271 239.548Z" fill="#F0F6FA"/>
<path d="M199.283 245.561C199.829 245.561 200.271 245.117 200.271 244.571C200.271 244.024 199.829 243.581 199.283 243.581C198.737 243.581 198.294 244.024 198.294 244.571C198.294 245.117 198.737 245.561 199.283 245.561Z" fill="#F0F6FA"/>
<path d="M519.234 70.8124H294.764V93.8748H519.234V70.8124Z" fill="#113147"/>
<path d="M314.432 76.7664H308.22C306.859 76.7664 305.756 77.871 305.756 79.2336V85.4535C305.756 86.8162 306.859 87.9208 308.22 87.9208H314.432C315.793 87.9208 316.896 86.8162 316.896 85.4535V79.2336C316.896 77.871 315.793 76.7664 314.432 76.7664Z" fill="#FFC100"/>
<path opacity="0.6" d="M360.733 80.7701C360.733 80.8994 360.682 81.0235 360.591 81.1149C360.499 81.2063 360.376 81.2577 360.246 81.2577H320.88C320.751 81.2577 320.627 81.2063 320.535 81.1149C320.444 81.0235 320.393 80.8994 320.393 80.7701C320.391 80.7055 320.402 80.6412 320.426 80.5812C320.449 80.5211 320.485 80.4665 320.531 80.4208C320.577 80.3751 320.631 80.3393 320.691 80.3155C320.751 80.2917 320.815 80.2805 320.88 80.2826H360.246C360.376 80.2826 360.499 80.334 360.591 80.4254C360.682 80.5168 360.733 80.6408 360.733 80.7701Z" fill="white"/>
<path opacity="0.6" d="M346.436 83.9022C346.436 84.0329 346.385 84.1585 346.294 84.2523C346.203 84.3461 346.079 84.4007 345.949 84.4045H320.865C320.8 84.4046 320.735 84.3915 320.675 84.3661C320.615 84.3406 320.561 84.3034 320.515 84.2566C320.47 84.2097 320.434 84.1542 320.411 84.0933C320.387 84.0325 320.376 83.9675 320.378 83.9022C320.378 83.7729 320.429 83.6489 320.521 83.5575C320.612 83.466 320.736 83.4147 320.865 83.4147H345.949C346.013 83.4147 346.076 83.4273 346.135 83.4518C346.194 83.4763 346.248 83.5122 346.293 83.5575C346.338 83.6027 346.374 83.6565 346.399 83.7156C346.423 83.7748 346.436 83.8382 346.436 83.9022Z" fill="white"/>
<path d="M478.259 83.1044C478.259 83.9086 478.02 84.6947 477.574 85.3632C477.127 86.0316 476.493 86.5524 475.751 86.8594C475.008 87.1665 474.192 87.2461 473.404 87.0881C472.617 86.9301 471.894 86.5417 471.327 85.972C470.76 85.4024 470.375 84.677 470.22 83.8879C470.065 83.0989 470.147 82.2815 470.457 81.5394C470.766 80.7972 471.288 80.1637 471.958 79.7191C472.627 79.2744 473.413 79.0386 474.216 79.0415C474.748 79.0415 475.275 79.1467 475.767 79.3511C476.258 79.5554 476.704 79.8549 477.08 80.2324C477.456 80.6099 477.753 81.0579 477.955 81.5507C478.158 82.0436 478.261 82.5716 478.259 83.1044Z" fill="#29CDFF"/>
<path d="M490.741 83.1044C490.741 83.9086 490.503 84.6947 490.056 85.3632C489.61 86.0316 488.975 86.5524 488.233 86.8594C487.491 87.1665 486.674 87.2461 485.887 87.0881C485.099 86.9301 484.376 86.5417 483.809 85.972C483.242 85.4024 482.857 84.677 482.702 83.8879C482.547 83.0989 482.63 82.2815 482.939 81.5394C483.248 80.7972 483.771 80.1637 484.44 79.7191C485.109 79.2744 485.895 79.0386 486.698 79.0415C487.231 79.0415 487.758 79.1467 488.249 79.3511C488.74 79.5554 489.187 79.8549 489.562 80.2324C489.938 80.6099 490.235 81.0579 490.438 81.5507C490.64 82.0436 490.743 82.5716 490.741 83.1044Z" fill="#FFC100"/>
<path d="M503.225 83.1044C503.225 83.908 502.987 84.6935 502.541 85.3616C502.095 86.0297 501.461 86.5505 500.72 86.858C499.978 87.1655 499.163 87.246 498.375 87.0892C497.588 86.9324 496.865 86.5455 496.298 85.9773C495.73 85.4091 495.344 84.6851 495.187 83.897C495.031 83.1089 495.111 82.292 495.418 81.5496C495.725 80.8072 496.245 80.1727 496.913 79.7262C497.58 79.2798 498.364 79.0415 499.167 79.0415C500.243 79.0415 501.275 79.4696 502.036 80.2315C502.797 80.9934 503.225 82.0268 503.225 83.1044Z" fill="#FF3A1C"/>
<path d="M280.702 338.15H56.2314V375.396H280.702V338.15Z" fill="#113147"/>
<path d="M90.8033 357.726C90.8033 359.512 90.2741 361.258 89.2829 362.743C88.2916 364.227 86.8827 365.384 85.2345 366.067C83.5863 366.75 81.7728 366.928 80.0236 366.578C78.2744 366.229 76.668 365.368 75.4078 364.104C74.1476 362.84 73.2901 361.23 72.9439 359.478C72.5977 357.726 72.7783 355.91 73.463 354.261C74.1476 352.612 75.3054 351.203 76.7899 350.213C78.2744 349.223 80.0189 348.696 81.8026 348.699C84.1911 348.703 86.4804 349.656 88.1679 351.348C89.8555 353.04 90.8033 355.334 90.8033 357.726Z" fill="#29CDFF"/>
<path d="M115.636 357.726C115.636 359.512 115.107 361.258 114.116 362.743C113.125 364.227 111.716 365.384 110.067 366.067C108.419 366.75 106.606 366.928 104.857 366.578C103.107 366.229 101.501 365.368 100.241 364.104C98.9806 362.84 98.1231 361.23 97.7769 359.478C97.4307 357.726 97.6114 355.91 98.296 354.261C98.9806 352.612 100.138 351.203 101.623 350.213C103.107 349.223 104.852 348.696 106.636 348.699C109.024 348.703 111.313 349.656 113.001 351.348C114.688 353.04 115.636 355.334 115.636 357.726Z" fill="#FF3A1C"/>
<path d="M140.469 357.726C140.463 359.51 139.93 361.252 138.936 362.733C137.941 364.213 136.531 365.366 134.883 366.045C133.236 366.723 131.424 366.898 129.677 366.546C127.93 366.195 126.326 365.333 125.069 364.069C123.811 362.805 122.955 361.197 122.61 359.447C122.264 357.696 122.444 355.883 123.128 354.235C123.811 352.587 124.966 351.179 126.448 350.189C127.93 349.198 129.672 348.669 131.454 348.669C132.64 348.669 133.815 348.904 134.911 349.359C136.006 349.815 137.002 350.482 137.839 351.324C138.677 352.165 139.34 353.164 139.791 354.262C140.243 355.361 140.473 356.538 140.469 357.726Z" fill="#FFC100"/>
<path d="M235.728 357.312H226.314V366.738H235.728V357.312Z" fill="#FFC100"/>
<path d="M250.203 357.312H240.789V366.738H250.203V357.312Z" fill="#FF3A1C"/>
<path d="M264.692 357.312H255.278V366.738H264.692V357.312Z" fill="#29CDFF"/>
<path opacity="0.6" d="M265.002 349.378C264.999 349.537 264.933 349.687 264.82 349.797C264.707 349.908 264.555 349.969 264.397 349.969H226.905C226.827 349.969 226.75 349.954 226.679 349.924C226.607 349.895 226.542 349.851 226.487 349.796C226.433 349.741 226.389 349.676 226.359 349.605C226.33 349.533 226.314 349.456 226.314 349.378C226.314 349.222 226.377 349.071 226.487 348.961C226.598 348.85 226.748 348.787 226.905 348.787H264.397C264.555 348.787 264.707 348.849 264.82 348.96C264.933 349.07 264.999 349.22 265.002 349.378Z" fill="white"/>
<path opacity="0.6" d="M265.003 352.304C265.003 352.464 264.939 352.618 264.825 352.732C264.712 352.846 264.558 352.909 264.398 352.909H226.905C226.826 352.909 226.748 352.894 226.676 352.863C226.603 352.833 226.537 352.788 226.482 352.731C226.427 352.675 226.384 352.608 226.355 352.534C226.326 352.461 226.313 352.383 226.315 352.304C226.315 352.147 226.377 351.997 226.488 351.886C226.598 351.775 226.748 351.713 226.905 351.713H264.398C264.556 351.713 264.707 351.775 264.82 351.885C264.933 351.995 264.999 352.146 265.003 352.304Z" fill="white"/>
<path d="M345.625 151.464C345.625 152.198 345.408 152.915 345.001 153.525C344.594 154.134 344.015 154.61 343.339 154.89C342.662 155.171 341.917 155.244 341.199 155.101C340.48 154.958 339.82 154.605 339.303 154.086C338.785 153.568 338.432 152.907 338.289 152.188C338.146 151.468 338.219 150.723 338.5 150.045C338.78 149.368 339.255 148.788 339.864 148.381C340.473 147.973 341.189 147.756 341.921 147.756C342.904 147.756 343.846 148.147 344.54 148.842C345.235 149.538 345.625 150.481 345.625 151.464Z" fill="#113147"/>
<path d="M269.311 188.045C269.311 188.778 269.094 189.495 268.687 190.105C268.28 190.715 267.702 191.19 267.025 191.471C266.348 191.752 265.604 191.825 264.885 191.682C264.167 191.539 263.507 191.186 262.989 190.667C262.471 190.149 262.118 189.488 261.975 188.768C261.833 188.049 261.906 187.303 262.186 186.626C262.467 185.948 262.941 185.369 263.55 184.962C264.159 184.554 264.875 184.337 265.608 184.337C266.59 184.337 267.532 184.727 268.227 185.423C268.921 186.118 269.311 187.061 269.311 188.045Z" fill="#113147"/>
<path d="M292.904 239.533C292.904 240.269 292.686 240.989 292.278 241.601C291.869 242.214 291.288 242.691 290.609 242.973C289.93 243.254 289.182 243.328 288.461 243.184C287.739 243.041 287.077 242.686 286.557 242.166C286.037 241.645 285.683 240.981 285.539 240.259C285.396 239.537 285.469 238.788 285.751 238.108C286.032 237.428 286.509 236.846 287.12 236.437C287.732 236.028 288.451 235.81 289.186 235.81C289.675 235.808 290.159 235.903 290.611 236.089C291.063 236.276 291.474 236.55 291.82 236.896C292.165 237.242 292.439 237.653 292.625 238.106C292.811 238.558 292.906 239.043 292.904 239.533Z" fill="#113147"/>
<path d="M239.107 269.273C239.11 270.011 238.894 270.733 238.487 271.347C238.08 271.962 237.499 272.441 236.819 272.725C236.139 273.008 235.39 273.083 234.667 272.94C233.945 272.797 233.281 272.442 232.76 271.921C232.239 271.399 231.885 270.734 231.742 270.011C231.599 269.287 231.674 268.537 231.957 267.856C232.24 267.175 232.719 266.594 233.333 266.186C233.946 265.778 234.667 265.562 235.404 265.565C236.386 265.565 237.328 265.956 238.023 266.651C238.717 267.346 239.107 268.29 239.107 269.273Z" fill="#113147"/>
<path d="M341.921 151.464H342.659" stroke="#113147" stroke-width="1.5" stroke-linecap="round" stroke-linejoin="round"/>
<path d="M348.325 151.464H409.293" stroke="#113147" stroke-width="1.5" stroke-linecap="round" stroke-linejoin="round" stroke-dasharray="0.96 3.84"/>
<path d="M412.126 151.464H412.864V150.726" stroke="#113147" stroke-width="1.5" stroke-linecap="round" stroke-linejoin="round"/>
<path d="M412.863 144.654V94.5544" stroke="white" stroke-width="1.5" stroke-linecap="round" stroke-linejoin="round" stroke-dasharray="1.03 4.11"/>
<path d="M412.863 91.5257V90.787" stroke="#113147" stroke-width="1.5" stroke-linecap="round" stroke-linejoin="round"/>
<path d="M274.623 29.1345H275.361" stroke="#113147" stroke-width="1.5" stroke-linecap="round" stroke-linejoin="round"/>
<path d="M281.174 29.1345H409.219" stroke="#FF7500" stroke-width="1.5" stroke-linecap="round" stroke-linejoin="round" stroke-dasharray="0.99 3.94"/>
<path d="M412.126 29.1345H412.864V29.8732" stroke="#113147" stroke-width="1.5" stroke-linecap="round" stroke-linejoin="round"/>
<path d="M412.863 36.0341V71.4476" stroke="#FF7500" stroke-width="1.5" stroke-linecap="round" stroke-linejoin="round" stroke-dasharray="1.04 4.17"/>
<path d="M412.863 74.5206V75.2593" stroke="#113147" stroke-width="1.5" stroke-linecap="round" stroke-linejoin="round"/>
<path d="M289.187 239.533H289.924" stroke="#113147" stroke-width="1.5" stroke-linecap="round" stroke-linejoin="round"/>
<path d="M295.855 239.533H463.312" stroke="white" stroke-width="1.5" stroke-linecap="round" stroke-linejoin="round" stroke-dasharray="1 4.02"/>
<path d="M466.277 239.533H467.015V240.272" stroke="#FF7500" stroke-width="1.5" stroke-linecap="round" stroke-linejoin="round"/>
<path d="M467.016 246.684V267.545" stroke="#FF7500" stroke-width="1.5" stroke-linecap="round" stroke-linejoin="round" stroke-dasharray="1.09 4.34"/>
<path d="M467.016 270.751V271.489" stroke="#113147" stroke-width="1.5" stroke-linecap="round" stroke-linejoin="round"/>
<path d="M431.057 403.954H431.794" stroke="#113147" stroke-width="1.5" stroke-linecap="round" stroke-linejoin="round"/>
<path d="M437.534 403.954H463.4" stroke="#FF7500" stroke-width="1.5" stroke-linecap="round" stroke-linejoin="round" stroke-dasharray="0.97 3.9"/>
<path d="M466.277 403.954H467.015V403.215" stroke="#FF7500" stroke-width="1.5" stroke-linecap="round" stroke-linejoin="round"/>
<path d="M467.016 396.995V345.67" stroke="#FF7500" stroke-width="1.5" stroke-linecap="round" stroke-linejoin="round" stroke-dasharray="1.05 4.21"/>
<path d="M467.016 342.568V341.829" stroke="#113147" stroke-width="1.5" stroke-linecap="round" stroke-linejoin="round"/>
<path d="M235.728 269.273H234.99" stroke="#113147" stroke-width="1.5" stroke-linecap="round" stroke-linejoin="round"/>
<path d="M229.132 269.273H180.854" stroke="#113147" stroke-width="1.5" stroke-linecap="round" stroke-linejoin="round" stroke-dasharray="0.99 3.97"/>
<path d="M177.932 269.273H177.194V270.012" stroke="#113147" stroke-width="1.5" stroke-linecap="round" stroke-linejoin="round"/>
<path d="M177.194 276.232V335.387" stroke="#FF7500" stroke-width="1.5" stroke-linecap="round" stroke-linejoin="round" stroke-dasharray="1.05 4.21"/>
<path d="M177.194 338.505V339.243" stroke="#113147" stroke-width="1.5" stroke-linecap="round" stroke-linejoin="round"/>
<path d="M306.759 403.954H306.021" stroke="#113147" stroke-width="1.5" stroke-linecap="round" stroke-linejoin="round"/>
<path d="M300.267 403.954H180.81" stroke="#FF7500" stroke-width="1.5" stroke-linecap="round" stroke-linejoin="round" stroke-dasharray="0.98 3.9"/>
<path d="M177.932 403.954H177.194V403.215" stroke="#FF7500" stroke-width="1.5" stroke-linecap="round" stroke-linejoin="round"/>
<path d="M177.194 396.966V376.651" stroke="#FF7500" stroke-width="1.5" stroke-linecap="round" stroke-linejoin="round" stroke-dasharray="1.06 4.23"/>
<path d="M177.194 373.519V372.781" stroke="#113147" stroke-width="1.5" stroke-linecap="round" stroke-linejoin="round"/>
<path d="M89.1797 160.137V160.875" stroke="#113147" stroke-width="1.5" stroke-linecap="round" stroke-linejoin="round"/>
<path d="M89.1797 166.49V184.721" stroke="#FF7500" stroke-width="1.5" stroke-linecap="round" stroke-linejoin="round" stroke-dasharray="0.95 3.8"/>
<path d="M89.1797 187.528V188.267H89.9174" stroke="#FF7500" stroke-width="1.5" stroke-linecap="round" stroke-linejoin="round"/>
<path d="M95.8203 188.267H255.014" stroke="#113147" stroke-width="1.5" stroke-linecap="round" stroke-linejoin="round" stroke-dasharray="1 4"/>
<path d="M257.964 188.267H258.702" stroke="#113147" stroke-width="1.5" stroke-linecap="round" stroke-linejoin="round"/>
<path d="M89.1797 116.878V116.139" stroke="#113147" stroke-width="1.5" stroke-linecap="round" stroke-linejoin="round"/>
<path d="M89.1797 110.259V32.4292" stroke="#FF7500" stroke-width="1.5" stroke-linecap="round" stroke-linejoin="round" stroke-dasharray="0.99 3.98"/>
<path d="M89.1797 29.4892V28.7505H89.9174" stroke="#FF7500" stroke-width="1.5" stroke-linecap="round" stroke-linejoin="round"/>
<path d="M95.9531 28.7505H145.707" stroke="#FF7500" stroke-width="1.5" stroke-linecap="round" stroke-linejoin="round" stroke-dasharray="1.02 4.09"/>
<path d="M148.717 28.7505H149.455" stroke="#113147" stroke-width="1.5" stroke-linecap="round" stroke-linejoin="round"/>
<path d="M440.043 370.402H298.231V433H440.043V370.402Z" fill="#113147"/>
<path d="M282.591 0H140.779V62.598H282.591V0Z" fill="#113147"/>
<path d="M174.17 34.7783H165.361V37.8957H174.17V34.7783Z" fill="#29CDFF"/>
<path d="M188.483 46.9078H165.361V50.0252H188.483V46.9078Z" fill="#FFC100"/>
<path d="M228.321 46.9078H191.979V50.0252H228.321V46.9078Z" fill="#FF3A1C"/>
<path d="M263.01 46.9078H232.172V50.0252H263.01V46.9078Z" fill="#29CDFF"/>
<path d="M180.412 40.8357H165.361V43.953H180.412V40.8357Z" fill="#FF3A1C"/>
<path d="M212.534 40.8357H184.263V43.953H212.534V40.8357Z" fill="#29CDFF"/>
<path d="M232.91 40.8357H216.207V43.953H232.91V40.8357Z" fill="#FFC100"/>
<path d="M198.767 34.7783H177.106V37.8957H198.767V34.7783Z" fill="#FF3A1C"/>
<path d="M215.647 24.2444H165.361V27.3617H215.647V24.2444Z" fill="#FF3A1C"/>
<path d="M230.889 24.2444H219.513V27.3617H230.889V24.2444Z" fill="#29CDFF"/>
<path d="M180.412 18.4086H165.361V21.5259H180.412V18.4086Z" fill="#FFC100"/>
<path d="M243.918 18.4086H184.263V21.5259H243.918V18.4086Z" fill="#FF3A1C"/>
<path d="M271.465 18.4086H245.762V21.5259H271.465V18.4086Z" fill="#29CDFF"/>
<path d="M187.391 12.5728H165.361V15.6901H187.391V12.5728Z" fill="#FF3A1C"/>
<path d="M200.596 12.5728H191.241V15.6901H200.596V12.5728Z" fill="#29CDFF"/>
<path d="M223.363 12.5728H202.986V15.6901H223.363V12.5728Z" fill="#FFC100"/>
<path d="M154.28 13.9025C154.283 14.1404 154.215 14.3738 154.085 14.5728C153.954 14.7719 153.768 14.9275 153.549 15.0199C153.33 15.1123 153.088 15.1373 152.855 15.0916C152.622 15.0459 152.408 14.9316 152.24 14.7634C152.072 14.5951 151.958 14.3805 151.912 14.147C151.866 13.9135 151.891 13.6717 151.983 13.4524C152.076 13.2332 152.231 13.0464 152.43 12.9161C152.629 12.7857 152.862 12.7176 153.099 12.7205C153.413 12.7205 153.713 12.8451 153.934 13.0667C154.156 13.2884 154.28 13.589 154.28 13.9025Z" fill="#F0F6FA"/>
<path d="M154.28 19.9451C154.28 20.1824 154.209 20.4143 154.077 20.6114C153.946 20.8086 153.758 20.9619 153.539 21.052C153.319 21.1422 153.078 21.165 152.846 21.1176C152.614 21.0702 152.401 20.9548 152.234 20.7859C152.068 20.6171 151.955 20.4025 151.911 20.1694C151.866 19.9363 151.892 19.6952 151.985 19.4768C152.078 19.2584 152.233 19.0725 152.432 18.9428C152.63 18.8131 152.863 18.7455 153.1 18.7484C153.256 18.7484 153.411 18.7794 153.555 18.8397C153.699 18.9001 153.83 18.9884 153.94 19.0998C154.049 19.2111 154.136 19.3431 154.194 19.4882C154.253 19.6334 154.282 19.7886 154.28 19.9451Z" fill="#F0F6FA"/>
<path d="M154.28 25.9729C154.283 26.2108 154.215 26.4442 154.085 26.6433C153.954 26.8423 153.768 26.998 153.549 27.0904C153.33 27.1828 153.088 27.2077 152.855 27.162C152.622 27.1163 152.408 27.002 152.24 26.8338C152.072 26.6655 151.958 26.451 151.912 26.2175C151.866 25.984 151.891 25.7421 151.983 25.5229C152.076 25.3036 152.231 25.1169 152.43 24.9865C152.629 24.8561 152.862 24.7881 153.099 24.791C153.413 24.791 153.713 24.9155 153.934 25.1372C154.156 25.3588 154.28 25.6594 154.28 25.9729Z" fill="#F0F6FA"/>
<path d="M154.28 36.3739C154.28 36.6112 154.209 36.8432 154.077 37.0403C153.946 37.2374 153.758 37.3907 153.539 37.4809C153.319 37.571 153.078 37.5938 152.846 37.5464C152.614 37.499 152.401 37.3836 152.234 37.2148C152.068 37.0459 151.955 36.8313 151.911 36.5982C151.866 36.3651 151.892 36.124 151.985 35.9056C152.078 35.6872 152.233 35.5014 152.432 35.3717C152.63 35.242 152.863 35.1743 153.1 35.1772C153.256 35.1772 153.411 35.2083 153.555 35.2686C153.699 35.3289 153.83 35.4173 153.94 35.5286C154.049 35.6399 154.136 35.772 154.194 35.9171C154.253 36.0622 154.282 36.2175 154.28 36.3739Z" fill="#F0F6FA"/>
<path d="M154.28 42.4017C154.283 42.6397 154.215 42.8731 154.085 43.0721C153.954 43.2711 153.768 43.4268 153.549 43.5192C153.33 43.6116 153.088 43.6366 152.855 43.5909C152.622 43.5451 152.408 43.4309 152.24 43.2626C152.072 43.0944 151.958 42.8798 151.912 42.6463C151.866 42.4128 151.891 42.171 151.983 41.9517C152.076 41.7324 152.231 41.5457 152.43 41.4153C152.629 41.285 152.862 41.2169 153.099 41.2198C153.413 41.2198 153.713 41.3443 153.934 41.566C154.156 41.7877 154.28 42.0883 154.28 42.4017Z" fill="#F0F6FA"/>
<path d="M154.28 48.4444C154.28 48.6817 154.209 48.9136 154.077 49.1107C153.946 49.3078 153.758 49.4612 153.539 49.5513C153.319 49.6414 153.078 49.6643 152.846 49.6169C152.614 49.5695 152.401 49.454 152.234 49.2852C152.068 49.1163 151.955 48.9017 151.911 48.6686C151.866 48.4355 151.892 48.1945 151.985 47.9761C152.078 47.7577 152.233 47.5718 152.432 47.4421C152.63 47.3124 152.863 47.2447 153.1 47.2476C153.256 47.2476 153.411 47.2787 153.555 47.339C153.699 47.3993 153.83 47.4877 153.94 47.599C154.049 47.7104 154.136 47.8424 154.194 47.9875C154.253 48.1326 154.282 48.2879 154.28 48.4444Z" fill="#F0F6FA"/>
<path d="M371.918 394.75H327.874V397.867H371.918V394.75Z" fill="#FFC100"/>
<path d="M382.556 394.75H374.485V397.867H382.556V394.75Z" fill="#FF3A1C"/>
<path d="M408.629 394.75H388.252V397.867H408.629V394.75Z" fill="#29CDFF"/>
<path d="M341.818 388.958H327.874V392.076H341.818V388.958Z" fill="#29CDFF"/>
<path d="M402.949 388.958H345.492V392.076H402.949V388.958Z" fill="#FF3A1C"/>
<path d="M423.871 388.958H406.8V392.076H423.871V388.958Z" fill="#FFC100"/>
<path d="M350.995 383.167H327.874V386.284H350.995V383.167Z" fill="#FF3A1C"/>
<path d="M362.387 383.167H353.755V386.284H362.387V383.167Z" fill="#29CDFF"/>
<path d="M381.48 383.167H364.954V386.284H381.48V383.167Z" fill="#FFC100"/>
<path d="M316.793 384.511C316.796 384.749 316.728 384.983 316.597 385.182C316.467 385.381 316.281 385.536 316.062 385.629C315.843 385.721 315.601 385.746 315.368 385.7C315.135 385.655 314.92 385.54 314.752 385.372C314.584 385.204 314.47 384.989 314.425 384.756C314.379 384.522 314.404 384.281 314.496 384.061C314.588 383.842 314.744 383.655 314.943 383.525C315.141 383.395 315.375 383.327 315.612 383.329C315.925 383.329 316.225 383.454 316.447 383.676C316.668 383.897 316.793 384.198 316.793 384.511Z" fill="#F0F6FA"/>
<path d="M316.793 390.554C316.793 390.791 316.722 391.023 316.59 391.22C316.458 391.417 316.271 391.571 316.051 391.661C315.832 391.751 315.591 391.774 315.359 391.726C315.127 391.679 314.914 391.564 314.747 391.395C314.581 391.226 314.468 391.011 314.424 390.778C314.379 390.545 314.405 390.304 314.498 390.086C314.59 389.867 314.746 389.681 314.944 389.552C315.143 389.422 315.375 389.354 315.612 389.357C315.769 389.357 315.923 389.388 316.067 389.449C316.212 389.509 316.342 389.597 316.452 389.709C316.562 389.82 316.649 389.952 316.707 390.097C316.766 390.242 316.795 390.398 316.793 390.554Z" fill="#F0F6FA"/>
<path d="M316.793 396.582C316.796 396.82 316.728 397.053 316.597 397.252C316.467 397.451 316.281 397.607 316.062 397.699C315.843 397.792 315.601 397.817 315.368 397.771C315.135 397.725 314.92 397.611 314.752 397.443C314.584 397.274 314.47 397.06 314.425 396.826C314.379 396.593 314.404 396.351 314.496 396.132C314.588 395.912 314.744 395.726 314.943 395.595C315.141 395.465 315.375 395.397 315.612 395.4C315.925 395.4 316.225 395.524 316.447 395.746C316.668 395.968 316.793 396.268 316.793 396.582Z" fill="#F0F6FA"/>
<path d="M353.577 417H327.874V420.117H353.577V417Z" fill="#FFC100"/>
<path d="M391.012 417H356.868V420.117H391.012V417Z" fill="#FF3A1C"/>
<path d="M409.736 417H395.055V420.117H409.736V417Z" fill="#29CDFF"/>
<path d="M349.535 411.4H327.874V414.518H349.535V411.4Z" fill="#29CDFF"/>
<path d="M378.632 411.4H352.574V414.518H378.632V411.4Z" fill="#FFC100"/>
<path d="M396.692 411.4H381.465V414.518H396.692V411.4Z" fill="#FF3A1C"/>
<path d="M335.399 405.786H327.874V408.903H335.399V405.786Z" fill="#FFC100"/>
<path d="M359.805 405.786H338.336V408.903H359.805V405.786Z" fill="#FF3A1C"/>
<path d="M316.793 406.968C316.796 407.206 316.728 407.439 316.597 407.638C316.467 407.837 316.281 407.993 316.062 408.085C315.843 408.178 315.601 408.203 315.368 408.157C315.135 408.111 314.92 407.997 314.752 407.829C314.584 407.661 314.47 407.446 314.425 407.213C314.379 406.979 314.404 406.737 314.496 406.518C314.588 406.299 314.744 406.112 314.943 405.982C315.141 405.851 315.375 405.783 315.612 405.786C315.767 405.786 315.921 405.817 316.064 405.876C316.207 405.935 316.337 406.023 316.447 406.132C316.556 406.242 316.643 406.372 316.703 406.516C316.762 406.659 316.793 406.813 316.793 406.968Z" fill="#F0F6FA"/>
<path d="M316.793 413.011C316.76 413.303 316.621 413.573 316.402 413.77C316.183 413.966 315.899 414.075 315.605 414.075C315.311 414.075 315.028 413.966 314.808 413.77C314.589 413.573 314.45 413.303 314.418 413.011C314.399 412.843 314.416 412.674 314.467 412.514C314.518 412.353 314.602 412.205 314.715 412.08C314.827 411.954 314.964 411.854 315.117 411.785C315.271 411.717 315.437 411.681 315.605 411.681C315.773 411.681 315.94 411.717 316.093 411.785C316.247 411.854 316.384 411.954 316.496 412.08C316.608 412.205 316.693 412.353 316.744 412.514C316.795 412.674 316.812 412.843 316.793 413.011Z" fill="#F0F6FA"/>
<path d="M316.793 419.053C316.793 419.291 316.722 419.523 316.59 419.72C316.458 419.917 316.271 420.07 316.051 420.16C315.832 420.25 315.591 420.273 315.359 420.226C315.127 420.178 314.914 420.063 314.747 419.894C314.581 419.725 314.468 419.511 314.424 419.278C314.379 419.044 314.405 418.803 314.498 418.585C314.59 418.367 314.746 418.181 314.944 418.051C315.143 417.921 315.375 417.854 315.612 417.857C315.769 417.857 315.923 417.888 316.067 417.948C316.212 418.008 316.342 418.097 316.452 418.208C316.562 418.319 316.649 418.451 316.707 418.596C316.766 418.742 316.795 418.897 316.793 419.053Z" fill="#F0F6FA"/>
<path d="M576.986 268.889H352.516V345.212H576.986V268.889Z" fill="#113147"/>
<path opacity="0.6" d="M560.813 324.824C560.813 324.903 560.798 324.981 560.767 325.053C560.737 325.126 560.692 325.192 560.635 325.247C560.579 325.302 560.512 325.345 560.439 325.374C560.366 325.403 560.287 325.417 560.208 325.415H501.188C501.031 325.415 500.881 325.353 500.771 325.242C500.66 325.131 500.598 324.981 500.598 324.824C500.598 324.666 500.659 324.514 500.77 324.401C500.88 324.288 501.03 324.222 501.188 324.218H560.208C560.288 324.218 560.367 324.234 560.44 324.264C560.513 324.295 560.58 324.339 560.636 324.396C560.692 324.452 560.737 324.519 560.767 324.592C560.798 324.666 560.813 324.744 560.813 324.824Z" fill="white"/>
<path opacity="0.6" d="M560.814 329.108C560.814 329.188 560.798 329.267 560.768 329.34C560.737 329.414 560.693 329.48 560.636 329.537C560.58 329.593 560.514 329.638 560.44 329.668C560.367 329.698 560.288 329.714 560.209 329.714H501.188C501.109 329.714 501.031 329.698 500.959 329.668C500.886 329.637 500.82 329.592 500.765 329.536C500.71 329.479 500.667 329.412 500.638 329.339C500.61 329.266 500.596 329.187 500.598 329.108C500.598 328.952 500.66 328.801 500.771 328.69C500.881 328.58 501.032 328.517 501.188 328.517H560.209C560.287 328.515 560.366 328.529 560.439 328.558C560.512 328.587 560.579 328.63 560.636 328.685C560.692 328.74 560.737 328.806 560.767 328.879C560.798 328.951 560.814 329.029 560.814 329.108Z" fill="white"/>
<path opacity="0.6" d="M540.481 333.408C540.481 333.564 540.418 333.715 540.308 333.826C540.197 333.936 540.047 333.999 539.89 333.999H501.247C501.09 333.999 500.94 333.936 500.829 333.826C500.719 333.715 500.656 333.564 500.656 333.408C500.654 333.329 500.668 333.25 500.697 333.177C500.726 333.104 500.769 333.037 500.824 332.98C500.879 332.924 500.945 332.879 501.017 332.848C501.09 332.818 501.168 332.802 501.247 332.802H539.89C539.969 332.802 540.047 332.818 540.12 332.848C540.192 332.879 540.258 332.924 540.313 332.98C540.368 333.037 540.411 333.104 540.44 333.177C540.469 333.25 540.483 333.329 540.481 333.408Z" fill="white"/>
<path d="M560.652 280.088H500.657V319.49H560.652V280.088Z" fill="#FF3A1C"/>
<path opacity="0.6" d="M494.77 324.824C494.77 324.981 494.707 325.131 494.597 325.242C494.486 325.353 494.336 325.415 494.179 325.415H435.277C435.119 325.415 434.967 325.353 434.854 325.243C434.741 325.132 434.676 324.982 434.672 324.824C434.676 324.664 434.741 324.512 434.853 324.4C434.966 324.287 435.118 324.222 435.277 324.218H494.297C494.455 324.222 494.605 324.288 494.716 324.401C494.826 324.514 494.888 324.666 494.888 324.824H494.77Z" fill="white"/>
<path opacity="0.6" d="M494.77 329.108C494.772 329.187 494.758 329.266 494.729 329.339C494.7 329.413 494.657 329.479 494.602 329.536C494.547 329.592 494.481 329.637 494.409 329.668C494.336 329.698 494.258 329.714 494.179 329.714H435.277C435.116 329.714 434.963 329.65 434.849 329.537C434.736 329.423 434.672 329.269 434.672 329.108C434.676 328.95 434.741 328.8 434.854 328.69C434.967 328.579 435.119 328.517 435.277 328.517H494.297C494.454 328.517 494.604 328.58 494.715 328.691C494.825 328.801 494.888 328.952 494.888 329.108H494.77Z" fill="white"/>
<path opacity="0.6" d="M474.452 333.408C474.452 333.486 474.436 333.565 474.405 333.637C474.375 333.71 474.33 333.776 474.274 333.831C474.217 333.886 474.151 333.929 474.077 333.958C474.004 333.987 473.926 334.001 473.847 333.999H435.277C435.119 333.999 434.967 333.937 434.854 333.826C434.741 333.716 434.676 333.566 434.672 333.408C434.672 333.247 434.736 333.093 434.849 332.979C434.963 332.866 435.116 332.802 435.277 332.802H473.906C474.066 332.802 474.22 332.866 474.334 332.979C474.447 333.093 474.511 333.247 474.511 333.408H474.452Z" fill="white"/>
<path d="M494.608 280.088H434.613V319.49H494.608V280.088Z" fill="#FFC100"/>
<path d="M428.652 280.191H368.657V319.594H428.652V280.191Z" fill="white"/>
<path d="M426.04 282.466H371.269V317.319H426.04V282.466Z" fill="#29CDFF"/>
<path d="M428.666 326.021C428.666 326.526 428.466 327.011 428.109 327.368C427.752 327.726 427.268 327.926 426.763 327.926H370.561C370.056 327.926 369.572 327.726 369.215 327.368C368.858 327.011 368.657 326.526 368.657 326.021C368.657 325.515 368.858 325.03 369.215 324.673C369.572 324.316 370.056 324.115 370.561 324.115H426.763C427.013 324.115 427.26 324.164 427.491 324.26C427.722 324.356 427.932 324.496 428.109 324.673C428.286 324.85 428.426 325.06 428.522 325.291C428.617 325.522 428.666 325.77 428.666 326.021Z" fill="white"/>
<path d="M407.243 299.915C407.245 301.552 406.763 303.154 405.856 304.517C404.949 305.88 403.659 306.942 402.149 307.57C400.638 308.198 398.976 308.364 397.371 308.045C395.767 307.726 394.293 306.938 393.137 305.78C391.98 304.622 391.193 303.146 390.875 301.54C390.556 299.934 390.721 298.269 391.349 296.757C391.976 295.244 393.037 293.952 394.398 293.044C395.759 292.136 397.359 291.653 398.994 291.656C401.181 291.66 403.276 292.531 404.822 294.079C406.368 295.627 407.239 297.726 407.243 299.915Z" fill="white"/>
<path d="M396.545 296.325V303.46L403.273 299.885L396.545 296.325Z" fill="#113147"/>
<path d="M224.47 90.6836H0V162.855H224.47V90.6836Z" fill="#113147"/>
<path d="M13.6924 126.777L17.8238 130.987V122.551L13.6924 126.777Z" fill="white"/>
<path d="M114.368 100.464H23.5791V153.06H114.368V100.464Z" fill="#FFC100"/>
<path d="M129.683 145.171H121.598V153.075H129.683V145.171Z" fill="#29CDFF"/>
<path d="M210.822 126.777L206.705 130.987V122.551L210.822 126.777Z" fill="white"/>
<path opacity="0.6" d="M192.923 111.811C192.919 111.969 192.854 112.119 192.741 112.229C192.628 112.34 192.476 112.402 192.318 112.402H122.187C122.11 112.402 122.033 112.386 121.961 112.357C121.89 112.327 121.825 112.283 121.77 112.228C121.715 112.174 121.671 112.108 121.642 112.037C121.612 111.965 121.597 111.888 121.597 111.811C121.595 111.732 121.609 111.653 121.637 111.58C121.666 111.506 121.709 111.44 121.764 111.383C121.819 111.327 121.885 111.282 121.958 111.251C122.03 111.221 122.108 111.205 122.187 111.205H192.318C192.479 111.205 192.633 111.269 192.746 111.382C192.859 111.496 192.923 111.65 192.923 111.811Z" fill="white"/>
<path opacity="0.6" d="M192.924 116.095C192.92 116.253 192.855 116.403 192.742 116.514C192.629 116.624 192.477 116.686 192.319 116.686H122.188C122.11 116.686 122.034 116.671 121.962 116.641C121.89 116.611 121.825 116.568 121.771 116.513C121.716 116.458 121.672 116.393 121.643 116.321C121.613 116.25 121.598 116.173 121.598 116.095C121.598 116.018 121.613 115.941 121.643 115.869C121.672 115.797 121.716 115.732 121.771 115.677C121.825 115.622 121.89 115.579 121.962 115.549C122.034 115.519 122.11 115.504 122.188 115.504H192.319C192.477 115.504 192.629 115.566 192.742 115.676C192.855 115.787 192.92 115.937 192.924 116.095Z" fill="white"/>
<path opacity="0.6" d="M192.923 120.38C192.923 120.54 192.859 120.694 192.746 120.808C192.633 120.921 192.479 120.985 192.318 120.985H122.187C122.108 120.985 122.03 120.97 121.958 120.939C121.885 120.908 121.819 120.863 121.764 120.807C121.709 120.751 121.666 120.684 121.637 120.61C121.609 120.537 121.595 120.458 121.597 120.38C121.597 120.302 121.612 120.225 121.642 120.153C121.671 120.082 121.715 120.017 121.77 119.962C121.825 119.907 121.89 119.863 121.961 119.834C122.033 119.804 122.11 119.789 122.187 119.789H192.318C192.476 119.789 192.628 119.85 192.741 119.961C192.854 120.071 192.919 120.221 192.923 120.38Z" fill="white"/>
<path opacity="0.6" d="M192.924 124.679C192.92 124.837 192.855 124.987 192.742 125.098C192.629 125.208 192.477 125.27 192.319 125.27H122.188C122.11 125.27 122.034 125.255 121.962 125.225C121.89 125.195 121.825 125.152 121.771 125.097C121.716 125.042 121.672 124.977 121.643 124.905C121.613 124.833 121.598 124.756 121.598 124.679C121.598 124.521 121.659 124.369 121.77 124.256C121.88 124.142 122.03 124.077 122.188 124.073H192.319C192.478 124.077 192.63 124.142 192.743 124.255C192.855 124.367 192.92 124.519 192.924 124.679Z" fill="white"/>
<path opacity="0.6" d="M192.923 128.963C192.923 129.124 192.859 129.278 192.746 129.392C192.633 129.505 192.479 129.569 192.318 129.569H122.187C122.108 129.569 122.03 129.553 121.958 129.523C121.885 129.492 121.819 129.447 121.764 129.391C121.709 129.334 121.666 129.267 121.637 129.194C121.609 129.121 121.595 129.042 121.597 128.963C121.597 128.886 121.612 128.809 121.642 128.737C121.671 128.665 121.715 128.6 121.77 128.545C121.825 128.491 121.89 128.447 121.961 128.417C122.033 128.388 122.11 128.372 122.187 128.372H192.318C192.476 128.372 192.628 128.434 192.741 128.544C192.854 128.655 192.919 128.805 192.923 128.963Z" fill="white"/>
<path opacity="0.6" d="M169.049 133.263C169.049 133.419 168.987 133.57 168.877 133.68C168.766 133.791 168.616 133.854 168.459 133.854H122.187C122.11 133.854 122.033 133.838 121.961 133.809C121.89 133.779 121.825 133.735 121.77 133.68C121.715 133.626 121.671 133.56 121.642 133.489C121.612 133.417 121.597 133.34 121.597 133.263C121.595 133.184 121.609 133.105 121.637 133.032C121.666 132.958 121.709 132.892 121.764 132.835C121.819 132.779 121.885 132.734 121.958 132.703C122.03 132.673 122.108 132.657 122.187 132.657H168.459C168.538 132.657 168.616 132.673 168.689 132.703C168.761 132.734 168.827 132.779 168.882 132.835C168.937 132.892 168.98 132.958 169.009 133.032C169.038 133.105 169.051 133.184 169.049 133.263Z" fill="white"/>
<path d="M192.924 103.168C192.92 103.882 192.634 104.566 192.128 105.07C191.622 105.574 190.937 105.857 190.224 105.857H124.283C123.572 105.853 122.891 105.568 122.388 105.065C121.886 104.561 121.602 103.88 121.598 103.168C121.598 102.453 121.88 101.768 122.383 101.261C122.886 100.754 123.57 100.468 124.283 100.464H190.224C190.94 100.464 191.627 100.749 192.133 101.256C192.64 101.763 192.924 102.451 192.924 103.168Z" fill="white"/>
<path d="M171.691 145.171H132.974V153.075H171.691V145.171Z" fill="#FF3A1C"/>
</g>
<defs>
<clipPath id="clip0_562_45138">
<rect width="577" height="433" fill="white"/>
</clipPath>
</defs>
</svg>
