<svg width="49" height="49" viewBox="0 0 49 49" fill="none" xmlns="http://www.w3.org/2000/svg">
<path d="M21.1256 0C19.7892 0 18.6896 1.09951 18.6896 2.43575V5.68553C18.6896 7.02179 19.7892 8.12764 21.1256 8.12764H23.56V9.75254H21.9413C21.4925 9.75075 21.1273 10.1131 21.1256 10.5618C21.1274 11.0105 21.4925 11.3728 21.9413 11.3711H26.8116C27.2603 11.3729 27.6255 11.0105 27.6273 10.5618C27.6255 10.1131 27.2603 9.75079 26.8116 9.75254H25.185V8.12764H27.6273C28.9636 8.12764 30.0617 7.02179 30.0617 5.68553V2.43575C30.0617 1.09951 28.9636 0 27.6273 0H21.1256ZM27.6273 1.62647C28.0915 1.62647 28.4366 1.97162 28.4366 2.43575V5.68553C28.4366 6.14969 28.0915 6.50116 27.6273 6.50116H21.1256C20.6614 6.50116 20.3162 6.14969 20.3162 5.68553V2.43575C20.3162 1.98611 20.6404 1.64717 21.1042 1.62647H27.6273ZM15.8822 5.10474C11.2272 7.24927 7.52386 11.099 5.57177 15.857C5.40041 16.2728 5.59941 16.7487 6.01613 16.9186C6.43157 17.0899 6.90725 16.8909 7.07778 16.4758C8.87274 12.1009 12.2854 8.55102 16.5661 6.57888C16.9739 6.39065 17.1516 5.90736 16.9629 5.49985C16.825 5.20107 16.5204 5.01499 16.1916 5.02858C16.0844 5.03475 15.9791 5.0593 15.8822 5.10474ZM31.7897 5.49988C31.6008 5.90696 31.7774 6.3901 32.1848 6.57891C36.4656 8.55105 39.8783 12.1009 41.6732 16.4759C41.8436 16.8916 42.3194 17.09 42.7349 16.9186C43.1488 16.7463 43.3448 16.2711 43.1729 15.857C41.2207 11.099 37.5237 7.2493 32.8688 5.10477C32.7721 5.05933 32.6677 5.03354 32.5609 5.02861C32.2321 5.01632 31.9276 5.20117 31.7897 5.49988ZM15.4394 15.4381C14.103 15.4381 12.9971 16.536 12.9971 17.8723V21.1236C12.9971 22.4599 14.103 23.5578 15.4394 23.5578V25.1827C14.103 25.1827 12.9971 26.2886 12.9971 27.6248V30.8746C12.9971 32.2108 14.103 33.3104 15.4394 33.3104H33.3132C34.6495 33.3104 35.7476 32.2108 35.7476 30.8746V27.6248C35.7476 26.2886 34.6495 25.1827 33.3132 25.1827V23.5578C34.6495 23.5578 35.7476 22.4599 35.7476 21.1236V17.8723C35.7476 16.536 34.6495 15.4381 33.3132 15.4381H15.4394ZM15.4394 17.063H19.4988V21.9393H15.4394C14.9752 21.9393 14.6237 21.5878 14.6237 21.1236V17.8723C14.6237 17.4081 14.9752 17.063 15.4394 17.063ZM21.1254 17.063H33.3132C33.7773 17.063 34.1289 17.4081 34.1289 17.8723V21.1236C34.1289 21.5878 33.7773 21.9393 33.3132 21.9393H21.1254V17.063ZM2.43598 18.6768C1.09964 18.6768 0 19.7747 0 21.111V24.3623C0 25.6986 1.09964 26.7965 2.43598 26.7965H4.87669V28.4214H3.25165C2.80044 28.4196 2.4342 28.7859 2.43598 29.237C2.43684 29.6864 2.80231 30.0496 3.25165 30.0479H8.12834C8.57522 30.0461 8.93683 29.6839 8.93769 29.237C8.93947 28.7883 8.5771 28.4231 8.12834 28.4214H6.50173V26.7965H8.93769C10.274 26.7965 11.3721 25.6986 11.3721 24.3623V21.111C11.3721 19.7747 10.274 18.6768 8.93769 18.6768H2.43598ZM39.8149 18.6768C38.4785 18.6768 37.3726 19.7747 37.3726 21.111V24.3623C37.3726 25.6986 38.4785 26.7965 39.8149 26.7965H42.2493V28.4214H40.6242C40.1755 28.4232 39.8131 28.7883 39.8149 29.237C39.8158 29.6839 40.1773 30.0461 40.6242 30.0479H45.5009C45.9503 30.0497 46.3157 29.6864 46.3166 29.237C46.3184 28.7859 45.9521 28.4196 45.5009 28.4214H43.8743V26.7965H46.3166C47.653 26.7965 48.751 25.6986 48.751 24.3623V21.111C48.751 19.7747 47.653 18.6768 46.3166 18.6768H39.8149ZM23.5598 18.6829C23.1129 18.6847 22.7513 19.0469 22.7505 19.4938C22.7487 19.9425 23.1111 20.3077 23.5598 20.3094H31.6866C32.1384 20.3121 32.5056 19.9456 32.5038 19.4938C32.5029 19.0438 32.1365 18.6803 31.6866 18.6829L23.5598 18.6829ZM17.0628 18.6891C16.6141 18.6891 16.2503 19.0528 16.2503 19.5015C16.2503 19.9502 16.6141 20.314 17.0628 20.314C17.5116 20.314 17.8754 19.9502 17.8754 19.5015C17.8754 19.0528 17.5116 18.6891 17.0628 18.6891ZM2.43598 20.3044H8.93769C9.40186 20.3044 9.75339 20.6496 9.75339 21.1137V24.3651C9.75339 24.8292 9.40186 25.1744 8.93769 25.1744H2.43598C1.97178 25.1744 1.62664 24.8292 1.62664 24.3651V21.1137C1.62664 20.6496 1.97178 20.3044 2.43598 20.3044ZM39.8149 20.3044H46.3166C46.7808 20.3044 47.1259 20.6496 47.1259 21.1137V24.3651C47.1259 24.8293 46.7808 25.1744 46.3166 25.1744H39.8149C39.3507 25.1744 38.9992 24.8292 38.9992 24.3651V21.1137C38.9992 20.6496 39.3507 20.3044 39.8149 20.3044ZM17.0644 23.5606H31.6866V25.1855H17.0644V23.5606ZM15.4394 26.812H19.4988V31.6866H15.4394C14.9752 31.6866 14.6237 31.3415 14.6237 30.8774V27.6276C14.6237 27.1634 14.9752 26.812 15.4394 26.812ZM21.1254 26.812H33.3132C33.7773 26.812 34.1289 27.1634 34.1289 27.6276V30.8774C34.1289 31.3415 33.7773 31.6866 33.3132 31.6866H21.1254V26.812ZM23.5598 28.4305C23.1111 28.4323 22.7487 28.7974 22.7505 29.2461C22.7522 29.6924 23.1135 30.0537 23.5598 30.0554H31.6866C32.1359 30.058 32.5021 29.6955 32.5038 29.2461C32.5056 28.7943 32.1384 28.4279 31.6866 28.4305H23.5598ZM17.0628 28.4397C16.6141 28.4397 16.2503 28.8035 16.2503 29.2522C16.2503 29.7009 16.6141 30.0646 17.0628 30.0646C17.5116 30.0646 17.8754 29.7009 17.8754 29.2522C17.8754 28.8035 17.5116 28.4397 17.0628 28.4397ZM32.2451 40.5169C31.838 40.7058 31.661 41.1889 31.8499 41.596C32.0382 42.0037 32.5215 42.1814 32.9291 41.9927C37.0028 40.0988 40.34 36.8971 42.4063 32.9241C42.6154 32.5262 42.4619 32.0342 42.0635 31.826C41.9493 31.7664 41.8225 31.7348 41.6938 31.7339C41.6078 31.7331 41.5218 31.7462 41.4398 31.772C41.2344 31.838 41.0637 31.983 40.9654 32.1751C39.0649 35.8293 35.9914 38.7753 32.2451 40.5169ZM15.8235 41.9925C16.2311 42.181 16.7144 42.0048 16.9027 41.5958C17.0915 41.1887 16.9149 40.7056 16.5075 40.5167C12.7612 38.7751 9.68613 35.8291 7.78566 32.1749C7.63488 31.8819 7.32213 31.7088 6.99371 31.737C6.8868 31.7462 6.78269 31.7763 6.6875 31.8258C6.28735 32.0324 6.1315 32.5248 6.33996 32.9238C8.4062 36.8969 11.7498 40.0986 15.8235 41.9925ZM21.1254 37.3734C19.7891 37.3734 18.6895 38.4793 18.6895 39.8155V43.0654C18.6895 44.4016 19.7891 45.5011 21.1254 45.5011H23.5598V47.126H21.9411C21.4924 47.1243 21.1272 47.4866 21.1254 47.9353C21.1236 48.3865 21.4899 48.7527 21.9411 48.751H26.8115C27.2627 48.7527 27.6289 48.3865 27.6271 47.9353C27.6253 47.4866 27.2602 47.1243 26.8115 47.126H25.1848V45.5011H27.6271C28.9635 45.5011 30.0615 44.4016 30.0615 43.0654V39.8156C30.0615 38.4794 28.9635 37.3735 27.6271 37.3735L21.1254 37.3734ZM27.6271 38.9999C28.0913 38.9999 28.4365 39.3514 28.4365 39.8155V43.0654C28.4365 43.5296 28.0913 43.8747 27.6271 43.8747H21.1254C20.6612 43.8747 20.3161 43.5296 20.3161 43.0654V39.8156C20.3161 39.366 20.6403 39.021 21.104 38.9999L27.6271 38.9999Z" fill="#FF7500"/>
</svg>
