<svg width="33" height="42" viewBox="0 0 33 42" fill="none" xmlns="http://www.w3.org/2000/svg">
<path d="M23.0123 24.6155H20.5508V27.077H23.0123V24.6155Z" fill="#FF7500"/>
<path d="M27.9361 24.6155H25.4746V27.077H27.9361V24.6155Z" fill="#FF7500"/>
<path d="M32.8594 32V20.9231L27.6663 0H6.05248L0.896232 20.6242L0.859375 32H15.6286V34.6883C14.5858 35.0601 13.7656 35.8803 13.3938 36.9231H0.859375V39.3846H13.3938C13.9035 40.8142 15.257 41.8462 16.8594 41.8462C18.4617 41.8462 19.8152 40.8142 20.3249 39.3846H32.8594V36.9231H20.3249C19.9531 35.8803 19.1329 35.0601 18.0901 34.6883V32H32.8594ZM16.8594 39.3846C16.1807 39.3846 15.6286 38.8325 15.6286 38.1538C15.6286 37.4752 16.1807 36.9231 16.8594 36.9231C17.5381 36.9231 18.0901 37.4752 18.0901 38.1538C18.0901 38.8325 17.5381 39.3846 16.8594 39.3846ZM7.97396 2.46154H25.7448L30.0523 19.6923H3.66646L7.97396 2.46154ZM3.32091 22.1538H30.3978V29.5385H3.32091V22.1538Z" fill="#FF7500"/>
<path d="M14.8088 24.6155H5.7832V27.077H14.8088V24.6155Z" fill="#FF7500"/>
</svg>
