<svg width="39" height="44" viewBox="0 0 39 44" fill="none" xmlns="http://www.w3.org/2000/svg">
<path d="M20.2188 29.3388V30.5961H20.9554C21.4498 30.5961 21.97 30.5617 21.97 29.937C21.97 29.3732 21.5365 29.3384 21.0682 29.3384L20.2188 29.3388Z" fill="#FF7500"/>
<path d="M35.8775 24.3018H35.2009V12.1536L24.327 0H5.77616C2.59108 0 0 2.59062 0 5.7757V38.2246C0 41.4092 2.59063 44.0003 5.77616 44.0003H29.4257C32.6103 44.0003 35.2014 41.4096 35.2014 38.2246V36.8279H35.8775C36.6442 36.8279 37.3795 36.5234 37.9216 35.9813C38.4638 35.4392 38.7684 34.704 38.7686 33.9373V27.1919C38.7683 26.4253 38.4636 25.6902 37.9215 25.1482C37.3793 24.6063 36.6441 24.3018 35.8775 24.3018ZM25.0875 4.97806L30.7472 11.3033H25.0875V4.97806ZM32.4489 38.2246C32.4479 39.0262 32.129 39.7947 31.5622 40.3615C30.9954 40.9283 30.2269 41.2472 29.4252 41.2482H5.7757C4.974 41.2473 4.20538 40.9285 3.63845 40.3617C3.07153 39.7948 2.75259 39.0263 2.75162 38.2246V5.7757C2.75259 4.974 3.07153 4.20543 3.63845 3.63859C4.20538 3.07175 4.974 2.75293 5.7757 2.75208H22.3354V14.0553H32.4489V24.3018H18.0509C17.2843 24.3018 16.549 24.6063 16.0069 25.1484C15.4648 25.6905 15.1603 26.4258 15.1603 27.1924V33.9377C15.1604 34.7043 15.465 35.4395 16.0071 35.9816C16.5491 36.5236 17.2843 36.8282 18.0509 36.8283H32.4489V38.2246ZM26.3269 31.4893V33.9437H24.4188V27.752H26.3269V29.9027H28.1134V27.752H30.0211V33.9437H28.1134V31.4893H26.3269ZM23.7771 29.8679C23.7771 31.3682 22.7712 32.0705 21.3488 32.0705H20.2218V33.9437H18.3137V27.752H21.5052C23.1872 27.752 23.7771 28.9835 23.7771 29.8679ZM34.0359 32.0705H32.9089V33.9437H31.0008V27.752H34.1923C35.8743 27.752 36.4641 28.9835 36.4641 29.8679C36.4641 31.3682 35.4578 32.0705 34.0359 32.0705Z" fill="#FF7500"/>
<path d="M33.7542 29.3391H32.9043V30.5964H33.6409C34.1354 30.5964 34.6555 30.562 34.6555 29.9372C34.656 29.374 34.2225 29.3391 33.7542 29.3391Z" fill="#FF7500"/>
</svg>
