<svg width="48" height="48" viewBox="0 0 48 48" fill="none" xmlns="http://www.w3.org/2000/svg">
<g clip-path="url(#clip0_4272_13150)">
<path d="M24 0.25C10.9 0.25 0.25 10.9 0.25 24C0.25 37.1 10.9 47.75 24 47.75C37.1 47.75 47.75 37.1 47.75 24C47.75 10.9 37.1 0.25 24 0.25ZM24 46.25C11.73 46.25 1.75 36.27 1.75 24C1.75 11.73 11.73 1.75 24 1.75C36.27 1.75 46.25 11.73 46.25 24C46.25 36.27 36.27 46.25 24 46.25Z" fill="#FF7500"/>
<path d="M11.7207 13.62V26.7C11.7207 28.08 12.1207 29.45 12.9107 30.58C14.4907 32.82 17.8307 36.43 24.0007 38.75C30.1707 36.43 33.5107 32.82 35.0907 30.58C35.8907 29.45 36.2807 28.09 36.2807 26.7V13.62C28.3307 13.62 24.0007 9.25 24.0007 9.25C24.0007 9.25 19.6707 13.62 11.7207 13.62ZM20.3307 26.48C20.1207 26.82 19.8107 27.07 19.4207 27.23C19.0307 27.39 18.5407 27.48 17.9607 27.48C17.1107 27.48 16.4607 27.28 16.0007 26.89C15.5407 26.5 15.2707 25.93 15.1807 25.17L16.5007 25.04C16.5807 25.48 16.7407 25.81 16.9807 26.02C17.2207 26.23 17.5507 26.33 17.9607 26.33C18.4007 26.33 18.7307 26.24 18.9507 26.05C19.1707 25.87 19.2807 25.65 19.2807 25.4C19.2807 25.24 19.2307 25.11 19.1407 24.99C19.0507 24.87 18.8807 24.78 18.6507 24.7C18.4907 24.65 18.1307 24.55 17.5607 24.41C16.8307 24.23 16.3207 24.01 16.0307 23.75C15.6207 23.38 15.4107 22.93 15.4107 22.4C15.4107 22.06 15.5107 21.74 15.7007 21.44C15.8907 21.14 16.1707 20.92 16.5407 20.76C16.9107 20.6 17.3507 20.53 17.8607 20.53C18.7007 20.53 19.3407 20.71 19.7607 21.08C20.1907 21.45 20.4107 21.94 20.4307 22.56L19.0707 22.62C19.0107 22.27 18.8907 22.03 18.7007 21.88C18.5107 21.73 18.2207 21.65 17.8407 21.65C17.4507 21.65 17.1407 21.73 16.9107 21.89C16.7707 21.99 16.6907 22.13 16.6907 22.31C16.6907 22.47 16.7607 22.6 16.8907 22.72C17.0607 22.86 17.4807 23.01 18.1407 23.17C18.8007 23.33 19.2907 23.49 19.6007 23.65C19.9207 23.82 20.1607 24.04 20.3407 24.33C20.5207 24.62 20.6107 24.98 20.6107 25.4C20.6507 25.78 20.5407 26.15 20.3307 26.48ZM28.0907 20.69H29.4507V26.22H32.8207V27.35H28.0907V20.69ZM26.0407 21.08C26.4707 21.45 26.6907 21.94 26.7107 22.56L25.3507 22.62C25.2907 22.27 25.1707 22.03 24.9807 21.88C24.7907 21.73 24.5007 21.65 24.1207 21.65C23.7307 21.65 23.4207 21.73 23.1907 21.89C23.0507 21.99 22.9707 22.13 22.9707 22.31C22.9707 22.47 23.0407 22.6 23.1707 22.72C23.3407 22.86 23.7607 23.01 24.4207 23.17C25.0807 23.33 25.5707 23.49 25.8807 23.65C26.2007 23.82 26.4407 24.04 26.6207 24.33C26.8007 24.62 26.8907 24.98 26.8907 25.4C26.8907 25.79 26.7807 26.15 26.5707 26.48C26.3607 26.82 26.0507 27.07 25.6607 27.23C25.2707 27.39 24.7807 27.48 24.2007 27.48C23.3507 27.48 22.7007 27.28 22.2407 26.89C21.7807 26.5 21.5107 25.93 21.4207 25.17L22.7407 25.04C22.8207 25.48 22.9807 25.81 23.2207 26.02C23.4607 26.23 23.7907 26.33 24.2007 26.33C24.6407 26.33 24.9707 26.24 25.1907 26.05C25.4107 25.86 25.5207 25.65 25.5207 25.4C25.5207 25.24 25.4707 25.11 25.3807 24.99C25.2907 24.87 25.1207 24.78 24.8907 24.7C24.7307 24.65 24.3707 24.55 23.8007 24.41C23.0707 24.23 22.5607 24.01 22.2707 23.75C21.8607 23.38 21.6507 22.93 21.6507 22.4C21.6507 22.06 21.7507 21.74 21.9407 21.44C22.1307 21.14 22.4107 20.92 22.7807 20.76C23.1507 20.6 23.5907 20.53 24.1007 20.53C24.9807 20.52 25.6207 20.71 26.0407 21.08Z" fill="#FF7500"/>
</g>
<defs>
<clipPath id="clip0_4272_13150">
<rect width="48" height="48" fill="white"/>
</clipPath>
</defs>
</svg>
