<svg width="51" height="47" viewBox="0 0 51 47" fill="none" xmlns="http://www.w3.org/2000/svg">
<path d="M17.9018 5.5957C14.1977 5.5957 11.1875 8.60594 11.1875 12.31C11.1875 16.014 14.1977 19.0243 17.9018 19.0243C21.6058 19.0243 24.6161 16.014 24.6161 12.31C24.6161 8.60594 21.6058 5.5957 17.9018 5.5957ZM22.2325 11.1909H19.0208V7.97927C20.5875 8.38773 21.824 9.62427 22.2325 11.1909ZM17.9018 16.7862C15.4343 16.7862 13.4256 14.7775 13.4256 12.31C13.4256 10.2286 14.858 8.47725 16.7827 7.97927V12.31C16.7827 12.9255 17.2863 13.429 17.9018 13.429H22.2325C21.7345 15.3538 19.9832 16.7862 17.9018 16.7862ZM29.0923 7.8338H38.0446C38.6601 7.8338 39.1637 7.33023 39.1637 6.71475C39.1637 6.09927 38.6601 5.5957 38.0446 5.5957H29.0923C28.4768 5.5957 27.9732 6.09927 27.9732 6.71475C27.9732 7.33023 28.4768 7.8338 29.0923 7.8338ZM29.0923 13.429H38.0446C38.6601 13.429 39.1637 12.9255 39.1637 12.31C39.1637 11.6945 38.6601 11.1909 38.0446 11.1909H29.0923C28.4768 11.1909 27.9732 11.6945 27.9732 12.31C27.9732 12.9255 28.4768 13.429 29.0923 13.429ZM29.0923 19.0243H38.0446C38.6601 19.0243 39.1637 18.5207 39.1637 17.9052C39.1637 17.2898 38.6601 16.7862 38.0446 16.7862H29.0923C28.4768 16.7862 27.9732 17.2898 27.9732 17.9052C27.9732 18.5207 28.4768 19.0243 29.0923 19.0243Z" fill="#FF7500"/>
<path d="M47 27.9767H26.2976V24.6195H41.4048C43.2568 24.6195 44.7619 23.1144 44.7619 21.2624V3.35763C44.7619 1.50561 43.2568 0.000488281 41.4048 0.000488281H8.95238C7.10036 0.000488281 5.59524 1.50561 5.59524 3.35763V21.2624C5.59524 23.1144 7.10036 24.6195 8.95238 24.6195H24.0595V27.9767H3.35714C1.50512 27.9767 0 29.4818 0 31.3338V43.6433C0 45.4954 1.50512 47.0005 3.35714 47.0005H47C48.852 47.0005 50.3571 45.4954 50.3571 43.6433V31.3338C50.3571 29.4818 48.852 27.9767 47 27.9767ZM7.83333 21.2624V3.35763C7.83333 2.74216 8.3369 2.23858 8.95238 2.23858H41.4048C42.0202 2.23858 42.5238 2.74216 42.5238 3.35763V21.2624C42.5238 21.8779 42.0202 22.3814 41.4048 22.3814H8.95238C8.3369 22.3814 7.83333 21.8779 7.83333 21.2624ZM48.119 43.6433C48.119 44.2588 47.6155 44.7624 47 44.7624H3.35714C2.74167 44.7624 2.2381 44.2588 2.2381 43.6433V31.3338C2.2381 30.7183 2.74167 30.2148 3.35714 30.2148H47C47.6155 30.2148 48.119 30.7183 48.119 31.3338V43.6433Z" fill="#FF7500"/>
<path d="M22.3847 35.8099C23.0027 35.8099 23.5037 35.3089 23.5037 34.6908C23.5037 34.0728 23.0027 33.5718 22.3847 33.5718C21.7666 33.5718 21.2656 34.0728 21.2656 34.6908C21.2656 35.3089 21.7666 35.8099 22.3847 35.8099Z" fill="#FF7500"/>
<path d="M22.3847 41.4051C23.0027 41.4051 23.5037 40.9041 23.5037 40.286C23.5037 39.668 23.0027 39.167 22.3847 39.167C21.7666 39.167 21.2656 39.668 21.2656 40.286C21.2656 40.9041 21.7666 41.4051 22.3847 41.4051Z" fill="#FF7500"/>
<path d="M27.9784 35.8099C28.5965 35.8099 29.0975 35.3089 29.0975 34.6908C29.0975 34.0728 28.5965 33.5718 27.9784 33.5718C27.3604 33.5718 26.8594 34.0728 26.8594 34.6908C26.8594 35.3089 27.3604 35.8099 27.9784 35.8099Z" fill="#FF7500"/>
<path d="M27.9784 41.4051C28.5965 41.4051 29.0975 40.9041 29.0975 40.286C29.0975 39.668 28.5965 39.167 27.9784 39.167C27.3604 39.167 26.8594 39.668 26.8594 40.286C26.8594 40.9041 27.3604 41.4051 27.9784 41.4051Z" fill="#FF7500"/>
<path d="M33.5722 35.8099C34.1902 35.8099 34.6912 35.3089 34.6912 34.6908C34.6912 34.0728 34.1902 33.5718 33.5722 33.5718C32.9541 33.5718 32.4531 34.0728 32.4531 34.6908C32.4531 35.3089 32.9541 35.8099 33.5722 35.8099Z" fill="#FF7500"/>
<path d="M33.5722 41.4051C34.1902 41.4051 34.6912 40.9041 34.6912 40.286C34.6912 39.668 34.1902 39.167 33.5722 39.167C32.9541 39.167 32.4531 39.668 32.4531 40.286C32.4531 40.9041 32.9541 41.4051 33.5722 41.4051Z" fill="#FF7500"/>
<path d="M16.7842 33.5718H6.7128C6.09732 33.5718 5.59375 34.0753 5.59375 34.6908V40.2861C5.59375 40.9015 6.09732 41.4051 6.7128 41.4051H16.7842C17.3997 41.4051 17.9033 40.9015 17.9033 40.2861V34.6908C17.9033 34.0753 17.3997 33.5718 16.7842 33.5718ZM15.6652 39.167H7.83185V35.8099H15.6652V39.167ZM43.6414 36.3694H40.2842V34.6908C40.2842 34.0753 39.7807 33.5718 39.1652 33.5718C38.5497 33.5718 38.0461 34.0753 38.0461 34.6908V40.2861C38.0461 40.9015 38.5497 41.4051 39.1652 41.4051C39.7807 41.4051 40.2842 40.9015 40.2842 40.2861V38.6075H43.6414C44.2568 38.6075 44.7604 38.1039 44.7604 37.4884C44.7604 36.873 44.2568 36.3694 43.6414 36.3694Z" fill="#FF7500"/>
</svg>
