<svg width="55" height="41" viewBox="0 0 55 41" fill="none" xmlns="http://www.w3.org/2000/svg">
<path d="M47.8333 0H6.83333C5.02102 0 3.28294 0.719939 2.00144 2.00144C0.719938 3.28294 0 5.02102 0 6.83333L0 34.1667C0 35.979 0.719938 37.7171 2.00144 38.9986C3.28294 40.2801 5.02102 41 6.83333 41H47.8333C49.6456 41 51.3837 40.2801 52.6652 38.9986C53.9467 37.7171 54.6667 35.979 54.6667 34.1667V6.83333C54.6667 5.02102 53.9467 3.28294 52.6652 2.00144C51.3837 0.719939 49.6456 0 47.8333 0ZM50.1111 34.1667C50.1111 34.7708 49.8711 35.3501 49.444 35.7773C49.0168 36.2045 48.4374 36.4444 47.8333 36.4444H6.83333C6.22923 36.4444 5.64987 36.2045 5.2227 35.7773C4.79554 35.3501 4.55556 34.7708 4.55556 34.1667V6.83333C4.55556 6.22923 4.79554 5.64987 5.2227 5.2227C5.64987 4.79554 6.22923 4.55556 6.83333 4.55556H47.8333C48.4374 4.55556 49.0168 4.79554 49.444 5.2227C49.8711 5.64987 50.1111 6.22923 50.1111 6.83333V34.1667Z" fill="#FF7500"/>
<path d="M42.1391 9.41188L27.3335 17.8761L12.528 9.41188C12.2683 9.26232 11.9818 9.16536 11.6847 9.12655C11.3876 9.08773 11.0857 9.10781 10.7964 9.18565C10.507 9.26349 10.2359 9.39755 9.99832 9.58019C9.76078 9.76283 9.56155 9.99047 9.41198 10.2501C9.26242 10.5097 9.16547 10.7963 9.12665 11.0934C9.08783 11.3905 9.10792 11.6924 9.18575 11.9817C9.26359 12.2711 9.39765 12.5422 9.58029 12.7798C9.76293 13.0173 9.99057 13.2165 10.2502 13.3661L26.1947 22.4772C26.5411 22.6666 26.9296 22.7659 27.3244 22.7659C27.7193 22.7659 28.1078 22.6666 28.4542 22.4772L44.3987 13.3661C44.6658 13.2217 44.9014 13.0254 45.0915 12.7887C45.2817 12.5519 45.4226 12.2795 45.5059 11.9875C45.5893 11.6955 45.6134 11.3898 45.5769 11.0884C45.5404 10.7869 45.444 10.4958 45.2933 10.2322C45.1427 9.96851 44.9408 9.73764 44.6996 9.55314C44.4585 9.36864 44.1828 9.23422 43.889 9.1578C43.5951 9.08137 43.2889 9.06448 42.9884 9.10811C42.6879 9.15175 42.3991 9.25503 42.1391 9.41188Z" fill="#FF7500"/>
</svg>
