<svg width="39" height="50" viewBox="0 0 39 50" fill="none" xmlns="http://www.w3.org/2000/svg">
<path d="M26.7127 17.1905C27.0282 16.852 27.1999 16.4042 27.1917 15.9416C27.1836 15.4789 26.9961 15.0375 26.6689 14.7103C26.3417 14.3831 25.9003 14.1957 25.4377 14.1875C24.975 14.1794 24.5273 14.3511 24.1887 14.6666L17.1169 21.7384L14.8072 19.4288C14.6437 19.2533 14.4466 19.1126 14.2275 19.015C14.0084 18.9174 13.772 18.8649 13.5322 18.8606C13.2924 18.8564 13.0542 18.9005 12.8318 18.9903C12.6095 19.0802 12.4075 19.2138 12.2379 19.3834C12.0683 19.553 11.9346 19.755 11.8448 19.9774C11.755 20.1997 11.7109 20.4379 11.7151 20.6777C11.7194 20.9175 11.7718 21.154 11.8694 21.373C11.967 21.5921 12.1078 21.7892 12.2832 21.9527L15.8549 25.5244C16.1897 25.8588 16.6436 26.0466 17.1169 26.0466C17.5901 26.0466 18.044 25.8588 18.3789 25.5244L26.7127 17.1905Z" fill="#FF7500"/>
<path fill-rule="evenodd" clip-rule="evenodd" d="M15.6783 1.44647C16.7332 0.514419 18.0923 0 19.5 0C20.9076 0 22.2668 0.514419 23.3216 1.44647C23.8383 1.90364 24.5408 2.09175 25.217 1.95364C26.5969 1.67346 28.0317 1.90762 29.251 2.61198C30.4702 3.31635 31.3898 4.4423 31.8365 5.77769C32.0555 6.43011 32.5698 6.94443 33.2223 7.16349C34.5576 7.61013 35.6836 8.52971 36.388 9.74897C37.0923 10.9682 37.3265 12.403 37.0463 13.783C36.9784 14.1166 36.9889 14.4614 37.0769 14.7903C37.1649 15.1192 37.3281 15.4232 37.5535 15.6783C39.4822 17.8618 39.4822 21.1406 37.5535 23.3216C37.3281 23.5768 37.1649 23.8808 37.0769 24.2097C36.9889 24.5385 36.9784 24.8834 37.0463 25.217C37.3065 26.4997 37.123 27.8327 36.526 28.9974C35.9289 30.1622 34.9537 31.0893 33.7604 31.6269C35.8008 34.5949 37.4142 37.8346 38.5535 41.2513L38.7488 41.8347C38.8779 42.2215 38.9049 42.6351 38.8269 43.0353C38.749 43.4356 38.5689 43.8089 38.3041 44.119C38.0393 44.4291 37.6988 44.6654 37.3157 44.805C36.9326 44.9446 36.5199 44.9828 36.1177 44.9158L33.1175 44.4158C32.5786 44.3128 32.0351 44.2358 31.4888 44.1849C31.3944 44.1774 31.2995 44.179 31.2055 44.1896H31.1888L31.1769 44.1944H31.1721L31.1626 44.2015C30.7704 44.7203 30.4079 45.2609 30.0768 45.8207L29.2458 47.2065C29.0863 47.4755 28.9029 47.7779 28.7267 48.016C28.4323 48.4383 28.0174 48.7619 27.5362 48.9447C26.9331 49.1585 26.2709 49.1329 25.6861 48.8732C25.067 48.6018 24.7336 48.1137 24.5717 47.8589C24.4122 47.6041 24.255 47.2874 24.1145 47.0088L23.155 45.092L22.9645 44.7111C22.0342 42.8288 21.2191 40.8918 20.5238 38.9107C19.8476 39.0298 19.1523 39.0298 18.4761 38.9107C17.7801 40.8919 16.9643 42.8289 16.0331 44.7111L15.8426 45.092L14.8854 47.0088C14.7449 47.2898 14.5878 47.6041 14.4282 47.8589C14.1672 48.3019 13.7789 48.6562 13.3139 48.8756C12.729 49.1353 12.0669 49.1609 11.4638 48.9471C10.9826 48.7643 10.5677 48.4406 10.2732 48.0184C10.0877 47.756 9.91449 47.485 9.75413 47.2065L8.92074 45.8207C8.6494 45.3434 8.35539 44.8793 8.03973 44.4301C7.98474 44.353 7.92256 44.2812 7.85401 44.2158L7.8302 44.1968L7.82306 44.1944L7.79448 44.1896C7.69961 44.1789 7.60393 44.1773 7.50875 44.1849C7.16111 44.2039 6.69441 44.2801 5.88008 44.4158L2.88227 44.9158C2.48005 44.9828 2.06733 44.9446 1.68422 44.805C1.30111 44.6654 0.960619 44.4291 0.695823 44.119C0.431026 43.8089 0.250924 43.4356 0.173008 43.0353C0.0950931 42.6351 0.122013 42.2215 0.251154 41.8347L0.446405 41.2513C1.58493 37.8348 3.19761 34.595 5.23718 31.6269C4.04382 31.0889 3.06882 30.1611 2.47217 28.9959C1.87552 27.8308 1.69268 26.4974 1.95364 25.2146C2.02152 24.881 2.01104 24.5362 1.92303 24.2073C1.83502 23.8784 1.67189 23.5744 1.44647 23.3193C0.51442 22.2644 0 20.9052 0 19.4976C0 18.0899 0.51442 16.7308 1.44647 15.6759C1.67189 15.4208 1.83502 15.1168 1.92303 14.7879C2.01104 14.459 2.02152 14.1142 1.95364 13.7806C1.67387 12.401 1.90792 10.9667 2.61175 9.74759C3.31558 8.5285 4.44066 7.60864 5.77531 7.16111C6.09812 7.05323 6.3915 6.87193 6.63238 6.63147C6.87326 6.39101 7.05506 6.09794 7.16349 5.77531C7.61057 4.44022 8.53023 3.31459 9.74937 2.61029C10.9685 1.906 12.403 1.67162 13.783 1.95126C14.1166 2.01932 14.4614 2.00894 14.7904 1.92092C15.1193 1.8329 15.4233 1.67205 15.6783 1.44647ZM25.217 37.0439C26.383 37.2812 27.5938 37.1523 28.6837 36.6749C29.7736 36.1975 30.6893 35.395 31.3055 34.3771C32.6713 36.4754 33.8073 38.7146 34.6938 41.0561L33.627 40.8799C32.9852 40.759 32.3374 40.6716 31.6864 40.618C30.9984 40.5587 30.3066 40.6733 29.6744 40.9513C29.0535 41.2521 28.518 41.7041 28.1172 42.2657C27.7719 42.7205 27.4267 43.2991 27.0576 43.9134L26.7861 44.3658L26.3528 43.4991L26.1671 43.1276C25.228 41.2291 24.4151 39.2708 23.7336 37.2654C24.1871 37.0207 24.7121 36.9408 25.217 37.0439ZM13.783 37.0439C14.2881 36.9417 14.8131 37.0201 15.2664 37.2654C14.5849 39.2708 13.7719 41.2291 12.8329 43.1276L12.6472 43.4991L12.2138 44.3658L11.9424 43.9134C11.5757 43.2991 11.228 42.7229 10.8828 42.2657C10.481 41.7046 9.94471 41.2535 9.32315 40.9537C8.69174 40.6761 8.00073 40.5615 7.3135 40.6203C6.74204 40.6489 6.07771 40.7632 5.3729 40.8799L4.30617 41.0561C5.19194 38.7131 6.3301 36.4748 7.69448 34.3747C8.30981 35.3943 9.22549 36.1987 10.316 36.6774C11.4064 37.1561 12.6183 37.2858 13.7853 37.0487L13.783 37.0439ZM20.9572 4.12283C20.5553 3.76681 20.0369 3.57024 19.5 3.57024C18.963 3.57024 18.4447 3.76681 18.0427 4.12283C16.6855 5.3229 14.8473 5.81341 13.0734 5.45624C12.5476 5.3493 12.0009 5.43815 11.5361 5.70608C11.0713 5.97401 10.7204 6.40255 10.5494 6.91109C10.2657 7.75763 9.78943 8.5268 9.15811 9.15811C8.5268 9.78943 7.75763 10.2657 6.91109 10.5494C6.40211 10.7199 5.97303 11.0706 5.70463 11.5355C5.43624 12.0004 5.34705 12.5473 5.45386 13.0734C5.63107 13.9484 5.60288 14.8526 5.37151 15.7149C5.14014 16.5771 4.71189 17.374 4.12044 18.0427C3.76491 18.4449 3.56866 18.9632 3.56866 19.5C3.56866 20.0368 3.76491 20.555 4.12044 20.9572C5.32052 22.3144 5.81579 24.1526 5.45386 25.9266C5.34705 26.4526 5.43624 26.9996 5.70463 27.4644C5.97303 27.9293 6.40211 28.28 6.91109 28.4505C8.62549 29.0244 9.97557 30.3721 10.5494 32.0889C10.7199 32.5978 11.0706 33.0269 11.5355 33.2953C12.0004 33.5637 12.5473 33.6529 13.0734 33.5461C13.9484 33.3689 14.8526 33.3971 15.7149 33.6284C16.5771 33.8598 17.374 34.2881 18.0427 34.8795C18.4449 35.235 18.9632 35.4313 19.5 35.4313C20.0368 35.4313 20.555 35.235 20.9572 34.8795C21.626 34.2881 22.4228 33.8598 23.2851 33.6284C24.1474 33.3971 25.0516 33.3689 25.9266 33.5461C26.4526 33.6529 26.9996 33.5637 27.4644 33.2953C27.9293 33.0269 28.28 32.5978 28.4505 32.0889C28.7343 31.2423 29.2105 30.4732 29.8418 29.8418C30.4732 29.2105 31.2423 28.7343 32.0889 28.4505C32.5978 28.28 33.0269 27.9293 33.2953 27.4644C33.5637 26.9996 33.6529 26.4526 33.5461 25.9266C33.3687 25.0516 33.3968 24.1473 33.6282 23.285C33.8595 22.4227 34.2879 21.6259 34.8795 20.9572C35.235 20.555 35.4313 20.0368 35.4313 19.5C35.4313 18.9632 35.235 18.4449 34.8795 18.0427C34.2881 17.374 33.8598 16.5771 33.6284 15.7149C33.3971 14.8526 33.3689 13.9484 33.5461 13.0734C33.6534 12.5473 33.5645 12.0001 33.296 11.5351C33.0275 11.0701 32.5981 10.7195 32.0889 10.5494C31.2423 10.2657 30.4732 9.78943 29.8418 9.15811C29.2105 8.5268 28.7343 7.75763 28.4505 6.91109C28.28 6.40211 27.9293 5.97303 27.4644 5.70463C26.9996 5.43624 26.4526 5.34705 25.9266 5.45386C25.0516 5.63107 24.1474 5.60288 23.2851 5.37151C22.4228 5.14014 21.626 4.71189 20.9572 4.12044V4.12283Z" fill="#FF7500"/>
</svg>
