<svg width="34" height="46" viewBox="0 0 34 46" fill="none" xmlns="http://www.w3.org/2000/svg">
<path d="M16.2722 13.3993V31.7721C16.2722 32.8547 15.3857 33.7412 14.3023 33.7412H8.34018C7.24973 33.7412 6.37109 32.8547 6.37109 31.7721C6.37109 30.6817 7.24973 29.803 8.34018 29.803H12.3333V24.5548H8.34018C7.24973 24.5548 6.37109 23.6683 6.37109 22.5857C6.37109 21.4952 7.24973 20.6166 8.34018 20.6166H12.3333V15.3683H8.34018C7.24973 15.3683 6.37109 14.4897 6.37109 13.3993C6.37109 12.3167 7.24973 11.4302 8.34018 11.4302H14.3023C15.3857 11.4302 16.2722 12.3167 16.2722 13.3993ZM25.6626 11.4302H19.7004C18.6092 11.4302 17.7227 12.3167 17.7227 13.3993V31.7721C17.7227 32.8547 18.6092 33.7412 19.7004 33.7412H25.6626C26.7531 33.7412 27.6317 32.8547 27.6317 31.7721V13.3993C27.6317 12.3167 26.7531 11.4302 25.6626 11.4302ZM21.6617 29.803V15.3683H23.6935V29.803H21.6617Z" fill="#FF7500"/>
<path d="M33.2155 2.29072H29.5519V0.784495C29.5519 0.353023 29.1989 0 28.7674 0H25.6294C25.2058 0 24.8449 0.353023 24.8449 0.784495V2.29072H19.3535V0.784495C19.3535 0.353023 19.0005 0 18.569 0H15.431C15.0074 0 14.6465 0.353023 14.6465 0.784495V2.29072H9.15505V0.784495C9.15505 0.353023 8.80203 0 8.37056 0H5.23258C4.80895 0 4.44809 0.353023 4.44809 0.784495V2.29072H0.784495C0.352238 2.29072 0 2.64375 0 3.07522V44.3867C0 44.8182 0.352238 45.1712 0.784495 45.1712H26.0844C26.2806 45.1712 26.4845 45.0928 26.6328 44.9437C26.6328 44.9437 33.8509 37.7342 33.9294 37.5851C33.9521 37.5381 34 37.3341 34 37.2792V3.07522C34 2.64375 33.6391 2.29072 33.2155 2.29072ZM32.431 35.6318H25.3706C24.9391 35.6318 24.5861 35.9848 24.5861 36.4162V43.6022H1.56899V3.85971H4.44809V5.75035C4.44809 6.18182 4.80895 6.53484 5.23258 6.53484H8.37056C8.80203 6.53484 9.15505 6.18182 9.15505 5.75035V3.85971H14.6465V5.75035C14.6465 6.18182 15.0074 6.53484 15.431 6.53484H18.569C19.0005 6.53484 19.3535 6.18182 19.3535 5.75035V3.85971H24.8449V5.75035C24.8449 6.18182 25.2058 6.53484 25.6294 6.53484H28.7674C29.1989 6.53484 29.5519 6.18182 29.5519 5.75035V3.85971H32.431V35.6318Z" fill="#FF7500"/>
</svg>
