<svg width="477" height="368" viewBox="0 0 477 368" fill="none" xmlns="http://www.w3.org/2000/svg">
<path d="M471.512 242.116L435.18 242.113V208.681C435.18 205.947 432.956 203.722 430.224 203.722H415.008C414.076 203.721 413.183 203.35 412.525 202.691C411.866 202.032 411.496 201.139 411.495 200.206V178.57H414.801C415.767 178.57 416.553 177.783 416.553 176.818V166.351H419.265C420.651 166.351 421.778 165.222 421.778 163.835L421.792 148.638H433.316C457.37 148.638 476.939 129.059 476.939 104.995C476.939 82.6121 460.39 64.091 438.311 61.5885C438.752 59.1539 438.976 56.6789 438.976 54.2241C438.976 31.7721 420.735 13.5055 398.314 13.5055C387.596 13.5055 377.549 17.6113 369.901 25.0958C369.464 24.1874 369.002 23.2917 368.514 22.4097C341.426 -26.0434 266.974 11.8588 290.972 62.3692C271.215 66.8235 256.971 84.6 256.971 104.995C256.971 129.059 276.539 148.638 300.593 148.638H322.232L322.246 163.835C322.246 165.222 323.373 166.351 324.761 166.351H327.47V176.818C327.47 177.783 328.256 178.57 329.223 178.57H332.527V200.206C332.529 201.522 333.051 202.783 333.981 203.713C334.91 204.643 336.171 205.167 337.485 205.168H352.701C354.637 205.168 356.214 206.744 356.214 208.681V242.113H310.805C310.613 242.113 310.429 242.19 310.294 242.325C310.158 242.461 310.082 242.645 310.082 242.836V244.912H301.213C301.021 244.912 300.837 244.988 300.702 245.124C300.566 245.26 300.49 245.443 300.49 245.635V255.803H289.221L289.279 253.844C289.289 253.46 289.148 253.088 288.884 252.809C288.621 252.529 288.258 252.366 287.874 252.355L280.721 252.147L280.772 250.449V250.442C280.777 249.915 280.576 249.407 280.212 249.027C279.848 248.646 279.349 248.423 278.823 248.405L275.031 248.394L279.883 222.544C279.902 222.44 279.899 222.333 279.872 222.23C279.845 222.128 279.796 222.032 279.728 221.951C279.661 221.869 279.576 221.804 279.48 221.758C279.384 221.713 279.28 221.69 279.174 221.69L135.327 221.651C135.152 221.649 134.982 221.709 134.846 221.82C134.71 221.93 134.618 222.085 134.584 222.257L131.42 239.112C128.949 232.877 125.509 226.354 120.712 220.451C115.137 211.944 100.271 201.555 75.144 199.685C74.8868 199.3 74.9489 199.229 74.6484 199.02V195.596C78.414 194.966 81.3821 193.133 83.4802 190.14C86.3919 185.984 87.2314 180.233 87.178 174.784C92.38 168.781 89.9639 161.534 88.6793 158.699C88.6793 158.699 90.0145 157.591 91.6994 155.619C92.7109 154.434 91.5404 152.699 90.0521 153.133C88.9683 153.465 87.7401 153.682 86.4396 153.696C86.4396 153.696 88.1158 152.815 90.6012 149.735C91.4537 148.68 90.6156 147.104 89.2573 147.22C85.8327 147.523 80.8041 147.769 78.7233 146.829C75.4576 145.326 58.5655 136.362 50.04 153.118C50.04 153.118 37.9931 157.448 48.1933 176.731C48.1572 176.987 48.0661 177.808 48.1153 178.044C48.4043 179.926 50.407 182.115 53.7537 182.76C53.8216 183.906 53.9878 184.972 54.245 185.932L54.2305 199.806C45.1184 200.548 36.9931 202.168 30.0846 204.643C17.7009 209.102 9.34738 224.382 8.23039 230.645C7.65673 233.855 1.94753 244.288 0.605128 284.25C0.152843 298.2 1.29583 328.252 6.7825 339.841C7.79255 342.235 13.087 347.786 19.4277 350.283C21.4204 351.104 22.9188 351.446 24.7453 351.707C26.9417 352.04 31.69 352.58 36.3111 352.799L36.2966 367.169C36.2964 367.264 36.315 367.358 36.3512 367.446C36.3874 367.534 36.4406 367.614 36.5077 367.681C36.5748 367.748 36.6545 367.802 36.7423 367.838C36.8301 367.875 36.9241 367.893 37.0191 367.893H67.2341C67.4257 367.893 67.6095 367.817 67.745 367.682C67.8805 367.546 67.9566 367.362 67.9566 367.171V359.465C67.9566 358.916 68.4117 358.467 68.9681 358.467H127.579C127.77 358.467 127.954 358.391 128.09 358.256C128.225 358.12 128.301 357.936 128.301 357.745L128.316 341.784H199.598L203.918 358.641H208.578C208.974 359.331 208.931 359.364 209.324 359.364H231.158C231.268 359.364 231.376 359.338 231.475 359.29C231.574 359.241 231.661 359.171 231.728 359.084C231.796 358.997 231.842 358.896 231.865 358.788C231.887 358.68 231.884 358.568 231.857 358.462L227.58 341.784H256.906C257.075 341.784 257.238 341.725 257.368 341.617C257.498 341.51 257.586 341.36 257.617 341.194L261.813 318.833L271.004 318.942L271.085 318.943C272.135 318.943 273.011 318.103 273.057 317.026L273.106 315.324L280.256 315.534H280.296C281.074 315.534 281.718 314.912 281.744 314.127L281.811 311.858H293.762C293.954 311.858 294.138 311.781 294.273 311.646C294.409 311.51 294.485 311.326 294.485 311.135V298.889H310.084V316.407C310.084 316.599 310.16 316.783 310.295 316.918C310.431 317.054 310.615 317.13 310.806 317.13H325.506V324.667H310.806C310.615 324.667 310.431 324.743 310.295 324.878C310.16 325.014 310.084 325.198 310.084 325.389V357.682C310.084 357.874 310.16 358.058 310.295 358.194C310.431 358.329 310.615 358.405 310.806 358.405L471.513 358.41C471.918 358.41 472.236 358.077 472.236 357.687V325.389C472.236 324.985 471.918 324.667 471.513 324.667H443.519V317.13C446.383 317.13 433.148 317.13 471.513 317.134C471.918 317.134 472.236 316.802 472.236 316.412V284.114C472.236 283.71 471.918 283.391 471.513 283.391H443.519V275.854L471.513 275.859C471.918 275.859 472.236 275.527 472.236 275.136V242.839C472.236 242.434 471.918 242.116 471.513 242.116H471.512ZM311.527 326.112C487.625 326.245 428.695 326.118 457.495 326.112V356.96H311.527V326.112ZM415.008 205.168H430.224C432.16 205.168 433.735 206.744 433.735 208.681V242.113H396.419V208.681C396.419 205.947 394.196 203.722 391.462 203.722H376.247C375.316 203.721 374.423 203.35 373.764 202.691C373.106 202.032 372.735 201.139 372.734 200.206V178.57H376.041C377.006 178.57 377.792 177.783 377.792 176.818V166.351H380.503C381.89 166.351 383.017 165.222 383.017 163.835L383.03 148.638H399.755L399.769 163.835C399.769 165.222 400.896 166.351 402.282 166.351H404.994V176.818C404.994 177.783 405.78 178.57 406.745 178.57H410.05V200.206C410.051 201.522 410.574 202.783 411.503 203.713C412.433 204.643 413.693 205.167 415.008 205.168ZM362.45 152.66H381.572V163.835C381.572 164.119 381.459 164.391 381.259 164.592C381.058 164.792 380.786 164.905 380.503 164.905H363.521C363.238 164.905 362.966 164.792 362.765 164.592C362.565 164.391 362.452 164.119 362.452 163.835L362.45 152.66ZM367.678 166.351H376.347V176.818C376.347 176.899 376.315 176.977 376.257 177.034C376.2 177.092 376.122 177.124 376.041 177.124H367.985C367.904 177.124 367.826 177.092 367.768 177.034C367.711 176.977 367.678 176.899 367.678 176.818V166.351ZM415.108 176.818C415.108 176.899 415.075 176.977 415.018 177.034C414.961 177.092 414.883 177.124 414.801 177.124H406.745C406.664 177.124 406.586 177.092 406.529 177.034C406.471 176.977 406.439 176.899 406.439 176.818V166.351H415.108V176.818ZM419.265 164.905H402.282C401.998 164.905 401.726 164.792 401.526 164.592C401.325 164.391 401.213 164.119 401.213 163.835V152.66H420.333V163.835C420.333 163.976 420.305 164.115 420.251 164.245C420.198 164.374 420.119 164.492 420.02 164.592C419.92 164.691 419.802 164.77 419.673 164.824C419.543 164.877 419.404 164.905 419.263 164.905H419.265ZM258.415 104.995C258.415 85.1522 272.362 67.8817 291.648 63.7108C293.073 66.4844 294.792 69.0964 296.775 71.5018C296.835 71.5753 296.91 71.6362 296.993 71.6809C297.077 71.7256 297.169 71.7532 297.264 71.7622C297.358 71.7713 297.454 71.7614 297.544 71.7334C297.635 71.7053 297.719 71.6595 297.792 71.5987C297.866 71.5383 297.926 71.4641 297.971 71.3803C298.016 71.2964 298.043 71.2046 298.052 71.1101C298.061 71.0156 298.052 70.9202 298.024 70.8294C297.996 70.7386 297.951 70.6541 297.891 70.5809C295.588 67.7878 293.656 64.709 292.141 61.4208L292.083 61.295C269.606 12.1408 341.957 -23.6696 367.535 23.6371C369.507 27.2621 370.93 31.1598 371.758 35.2028C371.839 35.5931 372.229 35.8432 372.61 35.7666C372.798 35.728 372.962 35.6165 373.068 35.4566C373.174 35.2967 373.212 35.1015 373.174 34.9137C372.581 32.0316 371.696 29.2177 370.532 26.5155C377.955 19.0585 387.799 14.9498 398.314 14.9498C419.938 14.9498 437.531 32.5687 437.531 54.2241C437.531 56.8466 437.267 59.4908 436.747 62.083C436.727 62.1823 436.728 62.2847 436.75 62.3835C436.772 62.4823 436.815 62.5754 436.875 62.6567C436.935 62.7381 437.012 62.8058 437.1 62.8557C437.188 62.9055 437.286 62.9363 437.387 62.9461C459.112 65.0192 475.494 83.0964 475.494 104.995C475.494 128.262 456.573 147.192 433.316 147.192C407.735 146.971 326.234 147.118 300.593 147.192C277.336 147.192 258.415 128.262 258.415 104.995ZM323.69 163.835V152.66H342.811V163.835C342.811 164.119 342.699 164.391 342.498 164.592C342.298 164.792 342.026 164.905 341.742 164.905H324.758C324.474 164.905 324.202 164.792 324.002 164.592C323.801 164.391 323.688 164.119 323.688 163.835H323.69ZM328.915 176.818V166.351H337.585V176.818C337.585 176.899 337.553 176.977 337.495 177.034C337.438 177.092 337.36 177.124 337.279 177.124H329.223C329.141 177.124 329.063 177.092 329.006 177.035C328.948 176.977 328.915 176.899 328.915 176.818ZM352.7 203.722H337.485C335.549 203.722 333.974 202.145 333.974 200.206V178.57H337.279C338.242 178.57 339.028 177.783 339.028 176.818V166.351H341.741C343.128 166.351 344.255 165.222 344.255 163.835L344.269 148.638H360.994L361.005 163.835C361.005 165.222 362.133 166.351 363.52 166.351H366.233V176.818C366.233 177.783 367.02 178.57 367.985 178.57H371.289V200.206C371.291 201.522 371.813 202.783 372.743 203.713C373.672 204.643 374.933 205.167 376.247 205.168H391.462C393.398 205.168 394.974 206.744 394.974 208.681V242.113H357.66V208.681C357.66 205.947 355.435 203.722 352.701 203.722H352.7ZM311.527 243.559H457.495V274.408C425.026 274.376 340.881 274.218 311.527 274.408V243.559ZM301.213 257.25C301.404 257.25 301.588 257.174 301.724 257.038C301.859 256.903 301.935 256.719 301.935 256.527V246.358H310.082V269.919H297.525C297.334 269.919 297.15 269.995 297.014 270.131C296.879 270.266 296.803 270.45 296.803 270.642V282.885H285.542L285.592 281.151C285.599 280.96 285.567 280.771 285.5 280.593C285.432 280.415 285.33 280.252 285.199 280.114C285.069 279.975 284.913 279.863 284.74 279.785C284.566 279.707 284.379 279.664 284.189 279.659L277.038 279.452L277.087 277.76V277.753C277.099 277.225 276.901 276.714 276.536 276.332C276.172 275.95 275.671 275.728 275.144 275.715L269.913 275.664L272.047 264.298L278.37 264.337C279.596 264.337 280.382 263.441 280.425 262.407L280.474 260.715L287.667 260.925C288.445 260.925 289.091 260.308 289.112 259.52L289.179 257.25H301.213ZM269.642 277.108L275.122 277.16C275.193 277.163 275.263 277.179 275.328 277.208C275.392 277.238 275.451 277.28 275.499 277.332C275.547 277.384 275.585 277.446 275.61 277.512C275.634 277.579 275.645 277.65 275.642 277.721L275.573 280.114C275.573 280.121 275.57 280.126 275.568 280.131L275.362 287.256L275.365 287.275L275.295 289.663C275.282 289.967 275.025 290.168 274.723 290.201L267.198 290.134L269.642 277.108ZM276.997 280.896L284.146 281.104L284.168 280.381L283.98 286.783L276.831 286.575L276.996 280.898L276.997 280.896ZM287.832 253.801L287.667 259.479L280.515 259.271L280.681 253.592L287.832 253.801ZM278.791 249.851C278.935 249.857 279.072 249.918 279.172 250.023C279.272 250.128 279.328 250.267 279.327 250.412L278.98 262.355C278.968 262.651 278.771 262.885 278.405 262.89L272.317 262.854L274.759 249.838L278.791 249.851ZM119.679 221.502C122.085 225.29 123.807 230.422 122.082 236.552C122.041 236.733 122.071 236.923 122.165 237.082C122.26 237.242 122.412 237.359 122.591 237.41C122.77 237.46 122.961 237.44 123.125 237.354C123.289 237.267 123.414 237.121 123.473 236.945C124.505 233.28 124.394 229.951 123.653 227.019C126.785 231.897 129.147 236.984 130.912 241.823L116.751 317.257L116.799 276.628C116.799 276.437 116.724 276.253 116.588 276.117C116.453 275.981 116.27 275.904 116.078 275.904C115.886 275.904 115.702 275.98 115.567 276.115C115.431 276.25 115.354 276.434 115.354 276.626L115.298 325.003L112.309 340.925C112.29 341.034 112.295 341.146 112.324 341.253C112.352 341.359 112.403 341.459 112.474 341.544C112.545 341.629 112.633 341.698 112.733 341.745C112.833 341.792 112.942 341.817 113.052 341.819H115.277L115.262 357.022H84.5524L83.7504 350.183C88.5984 352.8 90.7428 350.584 94.6038 350.468C97.4967 350.341 98.6412 352.232 99.748 354.022C100.554 355.33 101.317 356.566 102.725 356.618C104.68 356.702 106.33 354.616 107.3 352.9C110.08 347.989 111.321 339.984 108.482 335.618C107.412 333.98 105.245 332.111 101.075 332.528C94.4376 333.185 93.3842 332.008 93.2166 331.632C92.9161 330.955 99.998 323.112 94.887 316.255C93.9333 314.975 92.7614 314.398 91.6878 314.654C90.8642 314.855 89.7934 315.619 89.3758 318.132C88.6533 322.499 84.2504 325.051 80.9601 326.373L68.4132 219.335L81.8936 212.893C82.0856 212.795 82.2323 212.627 82.3025 212.423C82.3319 212.322 82.3403 212.216 82.3274 212.111C82.3145 212.007 82.2805 211.906 82.2274 211.816L76.0327 201.207C93.2845 202.709 107.135 206.014 119.679 221.502ZM90.802 318.371C91.0188 317.056 91.4783 316.195 92.0274 316.06C92.4985 315.945 93.1545 316.351 93.7296 317.12C98.4548 323.464 90.9624 330.113 91.8959 332.218C92.669 333.965 95.6327 334.516 101.216 333.97C104.017 333.695 106.038 334.516 107.269 336.409C108.139 337.747 108.557 339.543 108.628 341.503C106.983 339.644 104.431 338.21 100.983 337.243C100.333 337.065 100.066 338.038 100.709 338.217C103.385 338.968 106.866 340.439 108.612 343.159C108.557 344.106 108.432 345.069 108.245 346.024C106.645 344.025 104.04 342.489 100.46 341.461C99.8289 341.263 99.5298 342.248 100.18 342.433C102.806 343.188 106.229 344.659 107.944 347.357C107.654 348.478 107.279 349.562 106.843 350.567C105.356 348.652 102.953 347.152 99.6671 346.105C99.0197 345.908 98.7279 346.868 99.3593 347.071C102.694 348.132 105.032 349.663 106.344 351.616C106.243 351.81 106.146 352.007 106.042 352.19C104.964 354.096 103.707 355.269 102.777 355.174C102.141 355.151 101.602 354.276 100.978 353.263C99.4229 350.743 97.8392 348.911 94.559 349.024C88.9452 349.197 87.6548 353.091 78.1337 343.993V328.832C80.5541 328.224 89.6215 325.492 90.802 318.371ZM73.4331 153.336C75.8922 154.019 78.488 154.039 80.9573 153.395C83.4266 152.75 85.6814 151.463 87.493 149.664C87.6375 149.52 87.8687 149.52 87.9987 149.664C88.1432 149.794 88.1432 150.026 87.9987 150.17C84.0842 154.088 78.3317 155.469 73.2453 154.03C73.1995 154.017 73.1568 153.996 73.1196 153.966C73.0824 153.936 73.0515 153.899 73.0286 153.858C73.0057 153.816 72.9914 153.77 72.9864 153.723C72.9815 153.676 72.9859 153.628 72.9996 153.582C73.043 153.394 73.2453 153.279 73.4331 153.336ZM64.8787 155.968C65.0377 155.852 65.2689 155.91 65.37 156.083C67.6965 159.933 78.1843 162.04 85.8601 156.286C86.0335 156.17 86.2503 156.213 86.3659 156.372C86.4959 156.531 86.4526 156.748 86.2936 156.878C78.5527 162.645 67.4956 160.978 64.7487 156.459C64.7246 156.418 64.7089 156.373 64.7024 156.326C64.696 156.28 64.6989 156.232 64.711 156.186C64.7231 156.14 64.7441 156.098 64.7729 156.06C64.8017 156.023 64.8377 155.991 64.8787 155.968ZM47.7121 170.743C46.8885 168.69 46.0504 166.565 45.6891 164.338C44.4825 156.907 49.1412 153.792 51.2379 155.982C51.368 156.127 51.368 156.358 51.2235 156.488C51.079 156.633 50.8478 156.618 50.7033 156.474C49.1571 154.839 45.3178 157.662 46.3972 164.208C46.7584 166.362 47.5821 168.459 48.3768 170.483C48.4491 170.671 48.3624 170.873 48.1745 170.945C47.9491 171.022 47.78 170.911 47.7121 170.743ZM49.5473 177.818C49.6557 169.953 56.5237 176.244 57.476 175.587C57.8922 175.297 61.4179 172.413 61.3197 158.463C64.688 160.922 74.4894 166.971 84.3096 162.486C84.6102 163.939 84.9888 166.038 85.2763 168.46C84.2359 167.97 82.2447 167.574 79.5874 169.544C79.5082 169.6 79.4409 169.67 79.3894 169.752C79.3379 169.834 79.3033 169.925 79.2877 170.02C79.272 170.115 79.2757 170.213 79.2983 170.307C79.3209 170.401 79.3622 170.489 79.4195 170.567C79.4769 170.645 79.5493 170.71 79.6323 170.759C79.7154 170.808 79.8074 170.84 79.9031 170.854C79.9988 170.867 80.0961 170.86 80.1893 170.835C80.2825 170.81 80.3697 170.766 80.4457 170.707C83.5423 168.411 85.0639 170.127 85.4599 170.204C86.035 176.458 85.8211 184.279 82.2953 189.313C77.862 195.642 70.0128 195.086 64.1418 190.412C63.98 190.284 63.7834 190.208 63.5776 190.194C63.3719 190.18 63.1668 190.228 62.9892 190.333C62.8116 190.438 62.6698 190.594 62.5826 190.781C62.4953 190.968 62.4666 191.177 62.5003 191.38C62.5205 191.443 63.7964 198.269 73.2034 198.411V200.042L73.1918 200.072L73.1846 200.087L67.4436 216.693C67.419 216.693 67.3974 216.685 67.3728 216.688C67.2596 216.704 67.152 216.747 67.0592 216.813L55.6755 199.852L55.69 185.839C55.69 185.496 55.2435 184.542 55.1698 182.113C55.1639 181.937 55.0938 181.769 54.9728 181.64C54.8518 181.512 54.688 181.432 54.5123 181.415C54.3461 181.401 50.462 181.006 49.5473 177.818ZM14.1072 284.479C6.16404 259.93 8.75926 237.053 9.48754 231.965C13.691 219.576 20.2542 209.721 30.5744 206.005C37.2503 203.613 45.0981 202.032 53.904 201.286L50.592 215.372C50.5686 215.471 50.5654 215.575 50.5824 215.675C50.5995 215.776 50.6365 215.872 50.6913 215.959C50.7461 216.045 50.8176 216.119 50.9015 216.177C50.9855 216.236 51.0802 216.276 51.1801 216.297L66.9711 219.469L79.5628 326.89C78.9993 327.081 78.5123 327.227 78.1308 327.332L78.1337 325.374C78.1337 325.207 78.0762 325.045 77.9709 324.916C77.8656 324.787 77.7189 324.698 77.5557 324.665L41.2761 317.28C41.2616 317.263 41.2544 317.241 41.2371 317.227L41.2342 317.224L38.6361 298.039C38.6257 297.944 38.5961 297.852 38.5491 297.769C38.5021 297.685 38.4385 297.613 38.3624 297.555C38.2863 297.497 38.1992 297.455 38.1064 297.431C38.0136 297.408 37.917 297.404 37.8225 297.419C37.7285 297.432 37.6379 297.463 37.5559 297.511C37.474 297.559 37.4022 297.622 37.3448 297.698C37.2874 297.774 37.2454 297.86 37.2212 297.952C37.1971 298.043 37.1913 298.139 37.2041 298.233L39.834 317.658L33.5526 324.282C33.278 324.571 33.2881 325.029 33.58 325.303C33.8748 325.585 34.3314 325.562 34.6002 325.277L40.8628 318.671L76.6873 325.963L76.6526 350.066C72.9823 350.499 53.8389 352.57 34.132 351.171C22.0012 348.729 19.1734 339.915 19.0578 339.533C19.0305 339.442 18.9855 339.357 18.9255 339.284C18.8654 339.21 18.7915 339.149 18.7079 339.104C18.6243 339.059 18.5327 339.031 18.4383 339.022C18.3438 339.012 18.2484 339.021 18.1575 339.049C18.0666 339.076 17.982 339.121 17.9085 339.181C17.835 339.241 17.774 339.315 17.7291 339.399C17.6841 339.482 17.6561 339.574 17.6465 339.668C17.637 339.763 17.6461 339.858 17.6735 339.949C17.7746 340.288 19.8236 346.799 27.709 350.585C26.8685 350.491 26.0289 350.39 25.1904 350.28C24.7207 350.188 23.1934 350.092 20.6993 349.219C14.8615 347.055 9.49621 342.024 8.09023 339.219L8.07722 339.199C-0.40493 318.541 0.480854 266.474 7.30414 239.429C6.6799 249.419 6.84174 266.719 12.733 284.925C12.7938 285.106 12.9232 285.255 13.0932 285.34C13.2632 285.426 13.46 285.441 13.641 285.382C13.8219 285.323 13.9724 285.195 14.0596 285.026C14.1469 284.857 14.164 284.66 14.1072 284.479ZM66.513 359.468V366.451H37.7431L37.7575 352.828C51.1527 353.498 67.1387 352.755 77.4661 351.424C77.6401 351.401 77.7999 351.316 77.9158 351.185C78.0317 351.053 78.0958 350.884 78.0961 350.708L78.1034 345.937C79.6466 347.348 80.9919 348.424 82.1826 349.229L83.0958 357.022H68.9695C67.6141 357.022 66.513 358.12 66.513 359.466V359.468ZM126.856 357.023H116.707L116.724 341.82L126.871 341.785L126.856 357.023ZM209.918 357.919L196.416 305.238H216.709L230.226 357.919H209.918ZM256.305 340.34H227.209L217.969 304.337C217.929 304.182 217.839 304.044 217.713 303.945C217.586 303.847 217.43 303.793 217.27 303.793C215.286 303.79 192.813 303.764 190.826 303.764C190.711 303.762 190.596 303.787 190.491 303.836C190.387 303.886 190.295 303.959 190.224 304.05C190.152 304.141 190.103 304.248 190.079 304.361C190.056 304.475 190.06 304.592 190.089 304.704L199.225 340.34H124.192L146.209 223.136H278.302L256.305 340.34ZM271.041 317.497L262.082 317.392L264.524 304.377L271.42 304.457C271.564 304.463 271.701 304.524 271.801 304.629C271.901 304.734 271.957 304.873 271.956 305.018L271.887 307.426L271.885 307.437L271.677 314.561L271.68 314.578L271.611 316.975C271.608 317.047 271.59 317.118 271.56 317.183C271.53 317.248 271.487 317.306 271.434 317.355C271.381 317.403 271.319 317.441 271.252 317.465C271.184 317.49 271.113 317.501 271.041 317.497ZM273.147 313.88L273.311 308.201L280.46 308.411H280.463L280.295 314.09L273.147 313.88ZM311.527 284.837C488.015 284.876 447.44 284.846 457.495 284.837V315.686C281.476 315.553 340.262 315.68 311.527 315.686V284.837ZM325.505 283.391H310.805C310.613 283.391 310.429 283.468 310.294 283.603C310.158 283.739 310.082 283.923 310.082 284.114V297.444H293.762C293.571 297.444 293.387 297.52 293.251 297.656C293.116 297.791 293.04 297.975 293.04 298.167V310.412H281.853L281.91 308.453C281.916 308.263 281.884 308.073 281.816 307.895C281.748 307.718 281.646 307.555 281.515 307.417C281.384 307.278 281.228 307.167 281.054 307.089C280.88 307.012 280.693 306.969 280.503 306.964L273.353 306.756L273.402 305.057V305.051C273.409 304.525 273.209 304.017 272.847 303.636C272.484 303.255 271.987 303.031 271.462 303.011L264.797 302.935L266.929 291.58L274.703 291.648H274.743C275.804 291.648 276.694 290.795 276.742 289.716L276.791 288.022L283.938 288.23H283.986C284.362 288.232 284.724 288.085 284.994 287.822C285.264 287.56 285.42 287.202 285.429 286.825L285.501 284.333H297.528C297.72 284.333 297.903 284.256 298.039 284.121C298.174 283.985 298.251 283.801 298.251 283.61V271.365H310.085V275.132C310.085 275.324 310.161 275.508 310.297 275.643C310.432 275.779 310.616 275.855 310.808 275.855H325.506V283.391H325.505Z" fill="#16191C"/>
</svg>
