<svg width="722" height="395" viewBox="0 0 722 395" fill="none" xmlns="http://www.w3.org/2000/svg">
<g opacity="0.25">
<path d="M717.835 78.8541L692.461 66.4842L665.165 67.6903C664.316 67.7074 663.485 67.448 662.798 66.9514C662.11 66.4547 661.603 65.7479 661.354 64.938C661.124 64.2688 660.712 63.6763 660.166 63.226C659.619 62.7758 658.958 62.4853 658.256 62.3867L640.023 60.1756L639.682 57.5934L626.7 55.8771C624.726 55.6482 622.73 56.0222 620.973 56.9498C619.217 57.8774 617.784 59.3149 616.863 61.0724L607.352 59.4179C606.953 59.3619 606.548 59.428 606.188 59.6075C605.828 59.787 605.532 60.0714 605.338 60.423L604.563 61.7373C604.434 61.9851 604.252 62.2015 604.029 62.371C603.807 62.5405 603.549 62.659 603.276 62.7181C603.002 62.7771 602.719 62.7753 602.446 62.7126C602.173 62.65 601.918 62.5282 601.697 62.3558L597.964 59.4798C597.669 59.2524 597.435 58.9553 597.283 58.6152C597.132 58.2751 597.068 57.9026 597.096 57.5315L597.267 54.7329C597.304 54.2351 597.17 53.7396 596.889 53.3269C596.608 52.9142 596.195 52.6086 595.718 52.4599L588.933 50.4498C588.667 50.3766 588.389 50.3591 588.116 50.3984C587.843 50.4377 587.581 50.5329 587.347 50.6782C587.112 50.8234 586.911 51.0155 586.754 51.2423C586.598 51.4691 586.491 51.7257 586.439 51.996C586.362 52.4508 586.136 52.8674 585.797 53.1807C585.458 53.494 585.024 53.6864 584.564 53.7278L551.397 55.274C550.774 55.2888 550.166 55.0825 549.681 54.6918C549.196 54.3011 548.865 53.7513 548.748 53.1402C548.586 52.4885 548.651 51.8009 548.932 51.191C549.214 50.581 549.695 50.085 550.297 49.7849L567.88 41.7755C567.583 40.8496 567.064 40.0104 566.367 39.3312C565.67 38.652 564.818 38.1534 563.883 37.879L547.044 33.4258C545.891 33.116 544.667 33.2087 543.574 33.6887L514.466 46.4605L503.622 53.5268L497.782 55.6606C496.159 56.3778 494.776 57.5438 493.796 59.0206C492.816 60.4975 492.28 62.2236 492.252 63.9948C491.983 69.8682 489.627 75.4539 485.606 79.7509L484.057 81.1889L487.155 75.3441L486.675 60.825C486.668 59.9293 486.458 59.0467 486.061 58.2434C485.664 57.4401 485.09 56.7368 484.382 56.1863C483.861 55.8094 483.268 55.5445 482.639 55.4085C482.01 55.2725 481.36 55.2683 480.729 55.3962C480.098 55.5241 479.501 55.7813 478.976 56.1516C478.45 56.5218 478.007 56.997 477.675 57.547L475.645 60.6395C475.171 61.3647 474.862 62.1856 474.741 63.0435C474.621 63.9014 474.691 64.7753 474.948 65.6029L477.303 73.2567L467.481 69.0046C466.288 68.4904 464.967 68.3467 463.69 68.5921C462.414 68.8376 461.241 69.4608 460.324 70.3807C459.114 71.5562 457.505 72.2349 455.816 72.2826L446.429 72.4372C445.336 72.4532 444.267 72.7573 443.33 73.3186L415.911 89.121C415.22 89.5185 414.405 89.6421 413.627 89.4673C412.85 89.2926 412.166 88.8323 411.713 88.1778L406.616 81.3126C406.465 81.1311 406.373 80.9073 406.354 80.6718C406.335 80.4364 406.39 80.2008 406.51 79.9976C406.631 79.7943 406.811 79.6332 407.027 79.5364C407.243 79.4397 407.484 79.4119 407.716 79.4571L415.307 81.761C415.566 81.8441 415.842 81.865 416.111 81.822C416.38 81.779 416.635 81.6734 416.856 81.5136L421.581 78.2356C421.869 78.0188 422.098 77.7337 422.248 77.4061C422.398 77.0785 422.463 76.7187 422.439 76.3595C422.414 76.0002 422.3 75.6527 422.107 75.3485C421.914 75.0443 421.648 74.793 421.333 74.6174L397.414 62.8506C396.199 62.2455 394.802 62.1132 393.495 62.4795L377.864 66.7471C376.411 67.1763 375.165 68.1225 374.363 69.4066L361.754 89.5076L351.948 94.3937C351.079 94.861 350.398 95.6129 350.02 96.5226C349.642 97.4323 349.59 98.4442 349.872 99.388L351.251 104.429C351.373 105.02 351.639 105.573 352.025 106.039C352.411 106.504 352.905 106.868 353.465 107.098C354.024 107.329 354.632 107.419 355.234 107.36C355.837 107.302 356.416 107.097 356.92 106.764L357.478 106.392C357.878 106.116 358.33 105.923 358.807 105.826C359.284 105.729 359.775 105.73 360.252 105.828C360.729 105.927 361.18 106.12 361.579 106.398C361.979 106.676 362.317 107.032 362.575 107.444L366.091 112.608C366.369 113.038 366.757 113.387 367.214 113.619C367.672 113.851 368.182 113.957 368.694 113.927C369.206 113.897 369.701 113.732 370.128 113.449C370.556 113.166 370.9 112.774 371.126 112.314L375.216 104.738C375.573 104.07 375.75 103.321 375.728 102.565C375.706 101.808 375.487 101.07 375.092 100.424L373.093 97.3315L383.379 82.0238C383.621 81.6468 383.969 81.35 384.38 81.171C384.791 80.9921 385.246 80.9391 385.688 81.0188C386.114 81.1369 386.503 81.3602 386.82 81.6682C387.137 81.9763 387.372 82.359 387.501 82.7812C387.631 83.2034 387.652 83.6514 387.562 84.0838C387.473 84.5163 387.276 84.9192 386.989 85.2555L382.558 90.5436C382.211 90.9707 381.963 91.4703 381.835 92.0055C381.706 92.5407 381.699 93.0979 381.815 93.636L382.977 99.2643C383.096 100.07 383.528 100.797 384.181 101.286C384.834 101.776 385.653 101.988 386.462 101.877L394.703 100.548C395.494 100.424 397.492 101.213 397.399 102.372C397.26 104.166 393.697 105.001 391.326 105.356C390.626 105.467 389.96 105.737 389.38 106.144C388.8 106.552 388.321 107.086 387.98 107.707L383.519 115.283C383.167 115.902 382.691 116.441 382.121 116.867C381.55 117.292 380.897 117.596 380.204 117.757L367.439 120.525C366.892 120.637 366.323 120.57 365.818 120.333C365.313 120.096 364.898 119.702 364.635 119.211L360.081 111.356C360.014 111.237 359.924 111.133 359.815 111.052C359.706 110.97 359.581 110.912 359.448 110.881C359.315 110.851 359.177 110.848 359.043 110.874C358.91 110.9 358.783 110.953 358.671 111.031L355.681 112.871C355.497 113.017 355.362 113.214 355.293 113.438C355.224 113.661 355.224 113.9 355.294 114.124L357.308 121.159C357.384 121.398 357.411 121.651 357.388 121.901C357.366 122.151 357.293 122.394 357.174 122.616C357.056 122.838 356.895 123.034 356.699 123.193C356.504 123.351 356.279 123.47 356.037 123.54L351.39 124.638L350.755 124.947L335.573 136.915L334.861 137.271L332.367 137.874C332.01 137.985 331.688 138.185 331.431 138.456C331.174 138.726 330.991 139.058 330.9 139.42C330.808 139.781 330.811 140.16 330.908 140.52C331.004 140.88 331.192 141.209 331.453 141.476L335.496 145.651C335.727 145.896 335.901 146.191 336.003 146.512C336.104 146.833 336.133 147.173 336.085 147.507L335.372 151.774C335.217 152.81 334.412 152.671 333.451 152.671H319.912C318.843 152.671 317.96 155.439 317.96 156.614V166.556C317.954 166.947 318.054 167.332 318.251 167.67C318.447 168.007 318.732 168.285 319.075 168.474L324.699 171.396C325.06 171.585 325.478 171.64 325.876 171.551L333.9 169.896C334.293 169.809 334.65 169.604 334.923 169.309L338.346 165.489C338.566 165.247 338.726 164.955 338.811 164.639L339.508 162.149C339.848 160.917 340.517 159.799 341.445 158.918L344.31 155.284C345.472 154.186 346.959 152.671 348.493 152.671H350.166C351.529 152.671 352.862 153.104 353.946 152.223L355.418 151.496C355.878 151.162 356.442 151.002 357.009 151.044C357.577 151.087 358.111 151.329 358.516 151.728L368.105 159.567C368.951 160.035 369.611 160.778 369.975 161.673C370.339 162.568 370.384 163.56 370.103 164.484L369.747 165.196C369.618 165.439 369.584 165.722 369.649 165.99C369.715 166.257 369.876 166.492 370.103 166.649C370.213 166.718 370.337 166.763 370.465 166.781C370.594 166.799 370.725 166.789 370.849 166.753C370.974 166.716 371.089 166.654 371.188 166.569C371.286 166.485 371.365 166.38 371.42 166.262L372.396 164.716C372.632 164.322 372.767 163.876 372.789 163.417C372.811 162.959 372.718 162.502 372.52 162.088L371.745 160.541L372.613 159.907L374.054 161.083C374.122 161.137 374.201 161.177 374.286 161.199C374.371 161.221 374.459 161.225 374.545 161.21C374.632 161.196 374.714 161.163 374.787 161.114C374.86 161.066 374.921 161.002 374.968 160.928C375.073 160.773 375.117 160.584 375.091 160.399C375.066 160.213 374.972 160.044 374.828 159.923L373.279 158.655L364.155 149.981C363.911 149.7 363.776 149.34 363.776 148.968C363.776 148.596 363.911 148.236 364.155 147.955L365.1 146.888C365.202 146.761 365.33 146.657 365.476 146.582C365.621 146.507 365.78 146.462 365.943 146.452C366.107 146.442 366.27 146.466 366.424 146.522C366.577 146.579 366.717 146.667 366.835 146.78L376.47 155.655C377.061 156.199 377.426 156.944 377.493 157.743L377.679 159.753C377.722 160.357 377.937 160.936 378.298 161.423L382.775 167.469C382.942 167.717 383.164 167.924 383.423 168.074C383.682 168.223 383.972 168.312 384.271 168.333C384.57 168.354 384.87 168.306 385.147 168.194C385.425 168.082 385.673 167.908 385.873 167.685C386.261 167.272 386.491 166.737 386.525 166.172C386.559 165.608 386.394 165.049 386.059 164.593L385.238 163.495C384.97 163.133 384.846 162.685 384.889 162.236C384.931 161.788 385.139 161.372 385.471 161.067L387.283 159.258C387.491 159.075 387.745 158.951 388.017 158.9C388.29 158.848 388.571 158.87 388.832 158.964L390.381 159.521C390.56 159.597 390.753 159.636 390.947 159.636C391.141 159.636 391.334 159.597 391.512 159.521C391.512 159.521 394.611 158.222 394.858 156.939C394.898 156.67 394.866 156.395 394.765 156.143C394.664 155.891 394.499 155.669 394.285 155.501C394.168 155.307 394.105 155.085 394.105 154.859C394.105 154.633 394.168 154.411 394.285 154.217L399.676 144.26C399.761 144.089 399.88 143.937 400.025 143.813C400.17 143.689 400.339 143.595 400.521 143.538C400.703 143.48 400.895 143.459 401.085 143.477C401.275 143.495 401.46 143.551 401.628 143.641L420.341 153.877C420.707 154.094 420.979 154.439 421.105 154.844C421.231 155.25 421.202 155.687 421.023 156.073L420.589 157.031C420.461 157.353 420.222 157.619 419.916 157.78C419.609 157.942 419.255 157.989 418.916 157.913L406.213 154.697C405.993 154.638 405.761 154.635 405.539 154.689C405.317 154.743 405.112 154.852 404.943 155.006L402.325 157.31C402.09 157.521 401.789 157.647 401.473 157.665L396.64 157.959L391.714 160.48C391.395 160.659 391.15 160.945 391.022 161.288C390.895 161.63 390.893 162.007 391.017 162.35L393.077 168.319C393.264 168.924 393.622 169.462 394.109 169.868C394.595 170.274 395.189 170.531 395.819 170.607L404.076 171.396C404.451 171.437 404.831 171.4 405.191 171.288L408.289 170.391C408.508 170.342 408.735 170.353 408.949 170.422C409.162 170.491 409.352 170.615 409.501 170.782C409.649 170.95 409.751 171.154 409.794 171.373C409.837 171.592 409.82 171.819 409.745 172.03L407.236 181.137C407.124 181.612 406.856 182.035 406.473 182.338C406.091 182.641 405.617 182.806 405.129 182.807L399.878 182.699C399.555 182.693 399.235 182.768 398.948 182.915L397.275 183.75C396.821 183.968 396.303 184.012 395.819 183.874L382.295 179.792C381.733 179.634 381.132 179.682 380.603 179.929C380.074 180.176 379.652 180.605 379.414 181.137L378.484 183.055C378.353 183.353 378.162 183.622 377.924 183.844C377.685 184.067 377.404 184.239 377.097 184.351C376.79 184.462 376.464 184.51 376.138 184.492C375.812 184.474 375.493 184.39 375.2 184.245L360.809 176.947C360.431 176.749 360.106 176.465 359.858 176.119C359.611 175.772 359.448 175.373 359.383 174.952L358.841 171.86C358.778 171.412 358.581 170.993 358.278 170.657C357.974 170.321 357.577 170.083 357.137 169.973L352.211 168.845C351.871 168.752 351.513 168.752 351.173 168.845L335.465 173.669C335.273 173.723 335.069 173.723 334.876 173.669L328.138 172.277C327.901 172.232 327.657 172.256 327.434 172.346C327.211 172.437 327.02 172.59 326.883 172.788L312.6 192.007C311.401 193.632 310.548 195.484 310.09 197.45L306.202 213.948C306.074 214.484 305.976 215.026 305.908 215.572L305.335 220.087C305.049 222.241 305.23 224.431 305.866 226.509C306.502 228.587 307.578 230.505 309.021 232.132L319.788 243.961C320.338 244.583 321.027 245.068 321.799 245.376C322.571 245.685 323.405 245.809 324.234 245.739L333.993 244.826L344.264 242.414C345.266 242.191 346.311 242.262 347.273 242.618C348.235 242.975 349.073 243.602 349.686 244.424L349.794 244.564C350.485 245.459 351.484 246.065 352.598 246.264L355.898 246.806C356.552 246.95 357.124 247.346 357.489 247.907C357.854 248.468 357.983 249.15 357.85 249.805L356.595 257.073C356.503 257.594 356.562 258.13 356.765 258.619L365.131 278.55C365.978 280.598 366.05 282.885 365.332 284.982L362.977 291.77C362.282 293.778 362.31 295.965 363.055 297.955L375.541 331.183C375.988 332.518 376.878 333.661 378.064 334.423C379.249 335.185 380.66 335.52 382.063 335.374L388.259 334.57C389.092 334.459 389.892 334.176 390.61 333.739C391.327 333.303 391.946 332.722 392.426 332.034L402.635 318.009C403.025 317.466 403.318 316.859 403.502 316.216L403.905 314.84C404.233 313.665 404.941 312.632 405.919 311.902C406.786 311.241 407.447 310.348 407.825 309.327C408.203 308.306 408.284 307.199 408.057 306.134L407.453 303.042C407.244 302.053 407.296 301.026 407.606 300.064C407.916 299.101 408.472 298.236 409.219 297.553L415.524 292.002C416.728 290.915 417.627 289.533 418.13 287.992C418.632 286.451 418.722 284.806 418.39 283.219L416.314 272.473C416.039 271.13 416.058 269.744 416.371 268.409C416.684 267.075 417.283 265.824 418.126 264.742L438.544 238.889C438.791 238.578 438.961 238.212 439.039 237.822L440.031 232.75C440.13 232.379 440.135 231.989 440.046 231.615C439.956 231.241 439.775 230.895 439.519 230.608C439.262 230.321 438.938 230.103 438.576 229.972C438.214 229.841 437.825 229.802 437.444 229.859L428.257 231.869C427.645 231.996 427.006 231.897 426.461 231.591C426.232 231.543 426.017 231.445 425.832 231.303C425.647 231.161 425.496 230.979 425.392 230.771L405.718 193.461C405.501 193.059 405.441 192.592 405.55 192.149C405.659 191.706 405.928 191.32 406.306 191.064C406.49 190.955 406.695 190.885 406.908 190.858C407.12 190.832 407.336 190.85 407.541 190.911C407.746 190.972 407.937 191.075 408.1 191.213C408.264 191.351 408.397 191.521 408.491 191.713L424.865 222.762C425.737 223.773 426.951 224.43 428.276 224.607C429.601 224.783 430.945 224.468 432.053 223.72L456.668 207.253C456.992 207.02 457.263 206.721 457.462 206.375C457.661 206.03 457.783 205.646 457.821 205.249C457.859 204.852 457.812 204.452 457.683 204.075C457.553 203.698 457.345 203.353 457.071 203.063L452.424 198.192C452.062 197.805 451.576 197.556 451.05 197.488C450.524 197.421 449.991 197.538 449.542 197.821L445.391 200.45C445.102 200.629 444.779 200.749 444.443 200.801C444.107 200.853 443.763 200.837 443.433 200.753C443.103 200.669 442.794 200.52 442.523 200.313C442.253 200.107 442.027 199.848 441.859 199.553L435.988 189.997C435.609 189.381 435.479 188.644 435.623 187.936C435.766 187.227 436.173 186.599 436.762 186.178C437.137 185.931 437.576 185.8 438.025 185.8C438.474 185.8 438.913 185.931 439.287 186.178L453.803 195.61C455.655 196.809 457.793 197.498 459.999 197.605L470.998 198.007C472.435 198.079 473.795 198.673 474.824 199.676L484.367 208.83C485.172 209.62 485.769 210.598 486.102 211.675L492.624 232.132C493.507 234.961 496.233 236.121 498.386 234.297C499.191 233.612 499.697 232.642 499.796 231.591L500.586 224.014C500.809 221.731 501.922 219.627 503.684 218.154L515.039 208.877C515.799 208.249 516.681 207.786 517.63 207.518C518.579 207.249 519.574 207.181 520.55 207.318C521.527 207.455 522.464 207.793 523.302 208.312C524.141 208.83 524.861 209.518 525.419 210.33L533.164 220.984C534.224 222.455 534.679 224.275 534.434 226.071L533.335 234.157C533.177 235.288 533.377 236.44 533.908 237.451L540.244 249.558C540.422 249.915 540.719 250.2 541.084 250.364C541.45 250.528 541.86 250.561 542.247 250.457C542.633 250.353 542.972 250.119 543.205 249.795C543.439 249.47 543.553 249.075 543.528 248.677L543.652 245.414C543.683 244.863 543.524 244.317 543.202 243.868L538.09 236.647C537.598 235.935 537.279 235.118 537.161 234.262C537.042 233.405 537.127 232.532 537.409 231.714L538.462 228.622C538.559 228.272 538.751 227.956 539.017 227.709C539.282 227.461 539.612 227.292 539.968 227.22C540.324 227.148 540.693 227.176 541.034 227.301C541.376 227.425 541.676 227.642 541.901 227.926L547.029 234.297C547.292 234.643 547.634 234.922 548.027 235.109C548.42 235.297 548.852 235.387 549.288 235.374C549.723 235.36 550.149 235.243 550.529 235.031C550.91 234.819 551.234 234.52 551.475 234.157L556.881 226.612C557.267 226.065 557.481 225.416 557.498 224.747C557.514 224.079 557.332 223.42 556.974 222.854L551.924 214.922C551.363 214.041 551.132 212.99 551.271 211.955C551.409 210.92 551.91 209.966 552.683 209.263L556.076 206.325L565.773 204.686C569.644 203.991 573.095 201.83 575.409 198.656L581.698 190.275C582.743 188.846 583.391 187.167 583.576 185.407C583.761 183.648 583.477 181.87 582.752 180.256L576.927 167.268C576.522 166.422 576.348 165.484 576.425 164.55C576.501 163.615 576.824 162.718 577.361 161.948C577.729 161.438 578.215 161.022 578.776 160.735C579.338 160.448 579.96 160.298 580.591 160.298C581.221 160.298 581.843 160.448 582.405 160.735C582.966 161.022 583.452 161.438 583.82 161.948L594.262 175.679C595.493 174.992 596.448 173.9 596.962 172.588C597.477 171.277 597.519 169.828 597.081 168.489L596.539 166.757C596.136 165.479 596.16 164.105 596.607 162.842C597.054 161.579 597.9 160.495 599.017 159.753L608.312 154.155C609.355 153.549 610.18 152.629 610.667 151.527L621.201 126.787C622.502 123.695 621.03 121.174 617.917 121.174L614.818 120.216C614.44 120.071 614.106 119.831 613.848 119.519C613.589 119.208 613.416 118.835 613.344 118.437C613.273 118.039 613.305 117.629 613.438 117.247C613.572 116.866 613.802 116.525 614.106 116.257L628.513 103.888C628.72 103.7 628.966 103.559 629.234 103.477C629.502 103.394 629.784 103.37 630.062 103.408L644.097 105.403C645.693 105.621 647.318 105.502 648.865 105.055C650.413 104.607 651.849 103.841 653.082 102.805L657.171 99.4344C657.723 98.98 658.389 98.6862 659.097 98.5853C659.805 98.4844 660.527 98.5802 661.184 98.8623C661.822 99.1265 662.522 99.21 663.205 99.1036C663.888 98.9972 664.529 98.7051 665.057 98.2592L670.432 93.8834L671.067 96.3729L656.103 111.557C654.959 112.738 654.115 114.176 653.644 115.75C653.172 117.324 653.085 118.988 653.392 120.602L654.213 124.932C654.271 125.453 654.48 125.945 654.815 126.349C655.15 126.753 655.596 127.05 656.098 127.205C656.599 127.359 657.136 127.364 657.64 127.218C658.145 127.073 658.596 126.783 658.937 126.385L667.675 116.118C668.05 115.667 668.296 115.122 668.386 114.542C668.476 113.962 668.407 113.369 668.186 112.825L666.125 107.583L680.625 101.228L682.438 102.929L699.741 93.8525C699.3 92.4823 699.41 90.9942 700.049 89.7039C700.688 88.4136 701.806 87.4225 703.165 86.9408L708.649 85.3018C709.361 85.085 710.11 85.0144 710.85 85.0941C711.59 85.1738 712.306 85.4023 712.955 85.7657L714.628 86.678C715.1 86.9283 715.619 87.076 716.152 87.1115C716.685 87.147 717.219 87.0694 717.719 86.8839C718.22 86.6984 718.675 86.4091 719.056 86.0351C719.436 85.6612 719.733 85.211 719.926 84.7143C720.367 83.6524 720.397 82.4651 720.011 81.3824C719.624 80.2997 718.849 79.3987 717.835 78.8541Z" fill="#EEFFFF"/>
<path d="M534.604 245.602C535.064 245.602 535.518 245.705 535.934 245.903C536.349 246.101 536.715 246.389 537.005 246.746L549.599 261.543C549.952 261.969 550.208 262.466 550.35 262.999C550.491 263.533 550.515 264.092 550.42 264.636L550.281 265.548C550.234 266.117 550.035 266.664 549.705 267.131C549.375 267.597 548.926 267.967 548.404 268.203C547.883 268.438 547.308 268.529 546.739 268.467C546.17 268.406 545.628 268.193 545.169 267.852L538.972 263.028C538.625 262.758 538.335 262.421 538.12 262.038L531.815 251.137C531.473 250.612 531.275 250.006 531.24 249.38C531.205 248.754 531.335 248.13 531.617 247.57C531.899 247.01 532.324 246.534 532.848 246.189C533.371 245.843 533.977 245.641 534.604 245.602Z" fill="#EEFFFF"/>
<path d="M432.331 286.25L428.133 290.069C427.358 290.779 426.868 291.747 426.754 292.791L424.957 307.82C424.863 308.393 424.89 308.98 425.038 309.542C425.185 310.104 425.449 310.628 425.813 311.082C426.177 311.535 426.632 311.907 427.149 312.174C427.666 312.44 428.234 312.595 428.815 312.629H430.178C431.061 312.605 431.91 312.288 432.592 311.728C433.274 311.168 433.749 310.397 433.942 309.536L438.59 290.688C438.791 289.912 438.791 289.098 438.59 288.322C438.467 287.661 438.168 287.045 437.726 286.538C437.283 286.032 436.713 285.653 436.073 285.441C435.434 285.229 434.75 285.193 434.092 285.335C433.433 285.477 432.825 285.793 432.331 286.25Z" fill="#EEFFFF"/>
<path d="M553.117 269.477L552.963 269.616C552.442 270.04 552.05 270.602 551.832 271.236C551.614 271.871 551.578 272.554 551.727 273.208C551.877 273.863 552.207 274.462 552.68 274.939C553.153 275.416 553.75 275.752 554.403 275.909L578.972 279.867C579.401 279.982 579.853 279.975 580.277 279.847C580.702 279.719 581.082 279.474 581.374 279.141C581.701 278.781 581.931 278.344 582.04 277.871C582.149 277.398 582.135 276.905 581.998 276.439C581.861 275.973 581.606 275.55 581.258 275.211C580.91 274.871 580.48 274.627 580.01 274.502L553.117 269.477Z" fill="#EEFFFF"/>
<path d="M556.526 255.202L558.075 261.171C558.223 261.786 558.541 262.346 558.993 262.789C559.445 263.232 560.013 263.539 560.631 263.676L569.461 265.438C570.218 265.567 570.997 265.42 571.656 265.026C572.315 264.632 572.811 264.016 573.055 263.289L576.339 254.661C576.554 254.105 576.634 253.506 576.572 252.914L575.781 244.765C575.701 243.825 575.263 242.951 574.558 242.322C574.039 241.876 573.386 241.615 572.702 241.579C572.018 241.542 571.342 241.733 570.778 242.121L557.843 251.182C557.243 251.641 556.796 252.271 556.561 252.989C556.326 253.706 556.313 254.478 556.526 255.202Z" fill="#EEFFFF"/>
<path d="M577.826 269.46L576.819 264.465C576.616 263.503 576.68 262.503 577.005 261.574L578.802 256.363C579.07 255.488 579.59 254.711 580.299 254.131C581.007 253.55 581.871 253.192 582.783 253.101L588.345 252.637L588.19 254.848L587.044 255.234C585.785 255.706 584.759 256.646 584.181 257.857C583.603 259.068 583.519 260.456 583.945 261.729L584.038 262.007C584.392 263.101 584.38 264.28 584.006 265.367C583.632 266.454 582.915 267.391 581.962 268.037L580.925 264.141L579.158 264.775L579.809 268.996L577.826 269.46Z" fill="#EEFFFF"/>
<path d="M600.812 258.218L604.67 264.403C604.909 264.816 605.264 265.15 605.692 265.362L617.063 270.913L615.002 274.114L623.6 276.665C624.109 276.825 624.659 276.798 625.149 276.588L628.015 275.366C628.388 275.214 628.793 275.161 629.193 275.213C629.592 275.264 629.971 275.418 630.292 275.66L634.537 278.861C634.869 279.105 635.258 279.26 635.668 279.309C638.022 279.603 639.339 276.433 637.604 274.67L635.358 272.397C635.15 272.187 634.981 271.941 634.862 271.671L632.043 265.779C631.887 265.465 631.67 265.186 631.404 264.958C631.137 264.729 630.828 264.556 630.494 264.45L616.242 259.888C615.695 259.715 615.103 259.753 614.584 259.997L613.035 260.708C612.707 260.867 612.344 260.943 611.98 260.929C611.615 260.916 611.259 260.813 610.944 260.631L605.522 257.538C605.255 257.384 604.959 257.287 604.652 257.252C604.346 257.218 604.035 257.247 603.74 257.337L600.812 258.218Z" fill="#EEFFFF"/>
<path d="M578.802 215.543L577.748 222.486C577.666 223.01 577.736 223.546 577.949 224.032L585.37 241.211C585.527 241.634 585.801 242.004 586.16 242.277C586.519 242.551 586.949 242.717 587.399 242.757C587.738 242.761 588.074 242.697 588.387 242.567C588.7 242.436 588.982 242.244 589.217 242C589.453 241.757 589.635 241.468 589.754 241.151C589.873 240.835 589.926 240.497 589.909 240.159V230.387C589.912 229.839 589.756 229.302 589.459 228.841L583.883 220.522C583.511 219.967 583.352 219.298 583.433 218.636L583.728 216.208C583.803 215.672 583.713 215.126 583.47 214.642C583.226 214.159 582.841 213.761 582.364 213.502L579.839 212.219L578.91 215.126C578.865 215.263 578.829 215.402 578.802 215.543Z" fill="#EEFFFF"/>
<path d="M601.99 282.387L597.343 287.366C596.994 287.761 596.526 288.032 596.009 288.138C595.492 288.244 594.954 288.179 594.477 287.953C593.995 287.722 593.45 287.656 592.926 287.765C592.403 287.874 591.93 288.152 591.58 288.556L582.084 299.024C581.785 299.344 581.413 299.588 581 299.736L575.841 301.514C572.858 302.655 570.367 304.799 568.798 307.576C567.228 310.353 566.679 313.59 567.244 316.729L568.142 322.713C569.319 330.444 576.229 335.485 583.2 333.706L600.364 329.346C600.735 329.251 601.124 329.245 601.498 329.328C601.872 329.411 602.222 329.582 602.517 329.825L611.161 336.814L621.835 345.86C623.421 347.239 625.356 348.158 627.428 348.518C629.501 348.877 631.633 348.664 633.593 347.901L635.374 347.22C637.21 346.482 638.855 345.337 640.183 343.872C641.511 342.407 642.489 340.66 643.042 338.763L649.084 319.11C649.231 318.638 649.263 318.137 649.177 317.65C649.091 317.163 648.889 316.704 648.588 316.311L633.236 296.999C633.139 296.88 633.056 296.75 632.988 296.612L627.659 287.087C627.402 286.611 627 286.229 626.511 285.996C626.021 285.762 625.471 285.691 624.938 285.79C624.405 285.89 623.918 286.157 623.547 286.551C623.175 286.945 622.939 287.447 622.873 287.984L622.129 291.788C622.072 292.223 621.904 292.635 621.641 292.986C621.378 293.337 621.029 293.615 620.628 293.792C620.226 293.969 619.785 294.04 619.348 293.998C618.911 293.955 618.492 293.801 618.132 293.551L612.648 289.515C612.303 289.255 612.02 288.922 611.819 288.54C611.618 288.157 611.505 287.735 611.487 287.304L611.394 285.557C611.382 284.966 611.182 284.394 610.822 283.924C610.463 283.454 609.963 283.111 609.395 282.944L604.454 281.645C604.014 281.528 603.551 281.536 603.116 281.667C602.681 281.798 602.292 282.047 601.99 282.387Z" fill="#EEFFFF"/>
<path d="M600.382 181.247C600.454 181.598 600.607 181.927 600.83 182.207C601.053 182.488 601.338 182.712 601.664 182.863C601.989 183.013 602.346 183.085 602.704 183.073C603.062 183.061 603.413 182.965 603.728 182.793L621.202 172.851C621.647 172.595 621.999 172.206 622.209 171.738L631.503 151.374L632.386 132.587C632.65 127.268 626.964 124.191 623.262 127.624L625.167 142.576C625.499 145.347 624.958 148.152 623.618 150.601L612.852 170.454C612.661 170.81 612.384 171.113 612.046 171.336L601.342 178.418C600.916 178.739 600.597 179.181 600.426 179.685C600.255 180.19 600.239 180.734 600.382 181.247Z" fill="#EEFFFF"/>
<path d="M322.221 118.314C321.627 118.427 321.085 118.724 320.672 119.165L318.023 121.994C317.729 122.312 317.501 122.685 317.352 123.091C317.204 123.497 317.137 123.928 317.155 124.36V125.705C317.145 126.143 317.235 126.577 317.418 126.976C317.6 127.374 317.871 127.726 318.21 128.004C318.548 128.283 318.946 128.481 319.372 128.583C319.799 128.686 320.243 128.69 320.672 128.597L323.538 127.808C324.221 127.594 324.809 127.151 325.201 126.553C325.594 125.956 325.767 125.241 325.691 124.53L325.412 121.128C325.401 120.73 325.309 120.338 325.139 119.977C324.97 119.616 324.729 119.293 324.429 119.029C324.13 118.765 323.78 118.566 323.4 118.443C323.02 118.32 322.619 118.276 322.221 118.314Z" fill="#EEFFFF"/>
<path d="M327.362 108.496L325.519 111.588C325.053 112.387 324.914 113.334 325.131 114.232L328.694 129.138C328.777 129.543 328.942 129.926 329.18 130.264C329.418 130.602 329.723 130.887 330.076 131.102C330.429 131.317 330.823 131.457 331.233 131.512C331.643 131.568 332.061 131.539 332.459 131.426L337.85 129.725C338.372 129.555 338.84 129.249 339.204 128.839C339.569 128.428 339.818 127.929 339.925 127.391L340.189 126.277C340.305 125.806 340.323 125.317 340.243 124.838C340.163 124.36 339.987 123.902 339.724 123.494L333.636 114.418C333.299 113.905 333.102 113.313 333.063 112.701L332.892 110.119C332.894 109.69 332.806 109.265 332.634 108.872C332.462 108.478 332.21 108.125 331.894 107.834C331.578 107.543 331.204 107.321 330.797 107.182C330.391 107.043 329.959 106.99 329.531 107.027C329.081 107.089 328.651 107.254 328.275 107.509C327.898 107.763 327.586 108.101 327.362 108.496Z" fill="#EEFFFF"/>
<path d="M451.448 63.2703H448.737C448.165 63.2612 447.615 63.0472 447.188 62.6673L444.09 59.8995C443.563 59.4048 443.238 58.733 443.178 58.0136C443.118 57.2941 443.327 56.5779 443.764 56.003L454.391 42.4889C454.669 42.1509 455.033 41.8944 455.445 41.7468L462.648 39.2109H462.865L474.174 36.4741C474.69 36.3376 475.239 36.3869 475.723 36.6133L478.403 38.1595C478.814 38.4221 479.142 38.7946 479.351 39.2346C479.56 39.6746 479.641 40.1644 479.584 40.648C479.528 41.1316 479.336 41.5896 479.031 41.9698C478.727 42.35 478.321 42.637 477.861 42.7982L460.65 46.8493C460.138 47.0496 459.708 47.4141 459.426 47.8853L453.896 56.8998C453.663 57.2846 453.522 57.7178 453.485 58.1656C453.447 58.6135 453.514 59.0639 453.679 59.482C453.853 59.8747 453.93 60.303 453.906 60.7316C453.881 61.1602 453.754 61.5768 453.536 61.9469C453.318 62.317 453.015 62.6301 452.652 62.8602C452.289 63.0903 451.876 63.2309 451.448 63.2703Z" fill="#EEFFFF"/>
<path d="M530.034 14.7347C528.872 14.9048 527.555 15.044 526.61 15.1213C526.187 15.1687 525.782 15.3171 525.429 15.554C525.076 15.7908 524.785 16.1091 524.581 16.482L522.877 19.4971C522.652 19.8758 522.514 20.2991 522.471 20.7372C522.429 21.1753 522.483 21.6174 522.631 22.032C522.779 22.4467 523.016 22.8238 523.327 23.1366C523.637 23.4494 524.012 23.6902 524.426 23.842L534.929 27.1046C535.471 27.2644 536.051 27.2402 536.578 27.036C537.105 26.8318 537.549 26.4589 537.841 25.9758L538.089 25.5893C538.308 25.2403 538.456 24.8511 538.522 24.4446C538.588 24.0381 538.573 23.6225 538.476 23.2221C538.38 22.8217 538.204 22.4446 537.959 22.1129C537.714 21.7813 537.406 21.5017 537.051 21.2907L534.604 20.0074C534.208 19.7924 533.868 19.4871 533.612 19.1163C533.356 18.7455 533.192 18.3197 533.132 17.8736L533.008 17.1314C532.971 16.7787 532.865 16.4367 532.696 16.1251C532.526 15.8136 532.297 15.5385 532.02 15.3158C531.744 15.0931 531.426 14.9271 531.085 14.8273C530.744 14.7276 530.387 14.6961 530.034 14.7347Z" fill="#EEFFFF"/>
<path d="M540.351 26.2825L540.103 26.7154C539.839 27.1417 539.688 27.6288 539.667 28.1299C539.645 28.6309 539.753 29.1291 539.98 29.5764C540.208 30.0237 540.546 30.4051 540.964 30.684C541.382 30.9628 541.864 31.1297 542.365 31.1686H546.842C547.281 31.1616 547.711 31.0447 548.092 30.8286C548.474 30.6124 548.795 30.304 549.026 29.9316C549.464 29.2436 549.612 28.411 549.438 27.6147C549.264 26.8185 548.782 26.123 548.097 25.6795L546.408 24.7053C545.881 24.3965 545.258 24.2919 544.658 24.4116L542.071 24.9527C541.707 25.0421 541.366 25.2066 541.07 25.4357C540.774 25.6647 540.529 25.9532 540.351 26.2825Z" fill="#EEFFFF"/>
<path d="M614.803 44.514L615.005 46.385L619.652 47.2508H641.34L641.557 46.6324C641.734 46.1792 641.81 45.6931 641.78 45.2078C641.75 44.7224 641.614 44.2493 641.383 43.8214C641.152 43.3934 640.83 43.0207 640.44 42.7292C640.05 42.4376 639.601 42.2341 639.125 42.1328L624.145 39.9062L616.91 41.4525C616.253 41.6319 615.681 42.0378 615.295 42.5983C614.91 43.1587 614.735 43.8375 614.803 44.514Z" fill="#EEFFFF"/>
<path d="M291.035 84.7763L294.66 89.415C294.881 89.6982 295.156 89.9344 295.47 90.1097C295.784 90.2849 296.13 90.3957 296.488 90.4355L301.677 90.9457C302.019 90.9781 302.364 90.9414 302.691 90.8378C303.019 90.7342 303.322 90.5658 303.583 90.3427L307.858 86.7864C308.497 86.2264 308.886 85.4363 308.942 84.5897C308.997 83.7431 308.713 82.9092 308.152 82.2714L306.774 80.7251C306.446 80.3468 306.015 80.072 305.534 79.9347C305.052 79.7974 304.541 79.8034 304.063 79.952L298.037 81.823C297.546 81.9745 297.021 81.976 296.53 81.8272C296.038 81.6784 295.603 81.3861 295.279 80.988L295.109 80.787C294.824 80.4462 294.457 80.1831 294.043 80.022C293.628 79.8609 293.18 79.8072 292.739 79.8659C292.298 79.9246 291.88 80.0937 291.522 80.3575C291.164 80.6213 290.879 80.9712 290.694 81.3746C290.428 81.9171 290.319 82.5229 290.379 83.1238C290.44 83.7247 290.667 84.297 291.035 84.7763Z" fill="#EEFFFF"/>
<path d="M251.594 98.4773C253.298 94.8592 255.73 89.4628 256.985 86.6951C257.224 86.1387 257.574 85.6367 258.014 85.2194C258.453 84.8021 258.973 84.4782 259.541 84.2675L266.993 81.608C267.314 81.482 267.594 81.2675 267.798 80.9895L272.755 74.2788C272.928 74.029 273.17 73.8354 273.452 73.7222L289.455 66.8415C290.062 66.5699 290.601 66.1668 291.032 65.6612C291.464 65.1557 291.777 64.5606 291.949 63.9191L299.958 36.2725C300.174 35.5318 300.215 34.7512 300.078 33.992C299.941 33.2328 299.629 32.5156 299.168 31.8967C298.445 30.9274 298.101 29.7283 298.201 28.5242C298.301 27.3201 298.838 26.1936 299.71 25.3561L307.456 18.3053C308.035 17.7739 308.466 17.1007 308.705 16.3523C308.944 15.6039 308.984 14.8061 308.819 14.0378C308.655 13.2695 308.293 12.5573 307.768 11.9716C307.244 11.3858 306.576 10.9468 305.829 10.6978C305.369 10.6054 304.895 10.6054 304.435 10.6978L296.937 11.7338C296.372 11.8021 295.799 11.7401 295.262 11.5524C294.725 11.3648 294.238 11.0565 293.839 10.6515L291.686 8.56405C292.224 8.23292 292.665 7.76397 292.961 7.20582C293.257 6.64767 293.398 6.02062 293.37 5.38969C293.341 4.75876 293.144 4.1469 292.799 3.61755C292.454 3.0882 291.973 2.66061 291.407 2.37913L289.687 1.54416C288.974 1.24178 288.208 1.08594 287.433 1.08594C286.659 1.08594 285.892 1.24178 285.179 1.54416C284.386 1.98389 283.499 2.22778 282.592 2.25543L260.254 2.9667C259.916 2.97213 259.579 3.00836 259.247 3.07493L215.871 10.9762C214.81 11.1666 213.808 11.6006 212.944 12.2441L208.436 15.4602L208.281 15.5685L201.759 19.2949C201.51 19.4597 201.301 19.6787 201.148 19.9354C200.996 20.1922 200.903 20.4801 200.878 20.7775C200.852 21.075 200.895 21.3743 201.002 21.6531C201.109 21.9319 201.278 22.1829 201.496 22.3873C201.756 22.6157 201.951 22.9086 202.062 23.2365C202.172 23.5644 202.194 23.9155 202.125 24.2545C202.056 24.5935 201.898 24.9082 201.668 25.1668C201.438 25.4254 201.143 25.6187 200.814 25.7272L193.068 27.5827C192.771 27.6878 192.503 27.8627 192.288 28.0927C192.073 28.3227 191.916 28.6011 191.831 28.9042C191.746 29.2074 191.735 29.5266 191.799 29.8348C191.864 30.143 192.001 30.4312 192.201 30.6751L200.628 40.2463C200.88 40.5541 201.24 40.7534 201.635 40.803L219.063 43.4315C219.356 43.4851 219.631 43.6106 219.864 43.7969C220.096 43.9832 220.279 44.2242 220.395 44.4984L227.955 62.1564C228.033 62.3438 228.143 62.5164 228.28 62.6666L231.657 66.5322C232.493 67.5119 232.925 68.7713 232.868 70.0566C232.81 71.342 232.267 72.5578 231.347 73.4593C230.614 74.182 230.116 75.1091 229.92 76.1191C229.724 77.129 229.838 78.1745 230.247 79.1185L237.389 95.8024C237.624 96.3683 237.972 96.8807 238.411 97.3085C238.851 97.7364 239.372 98.0709 239.945 98.2918L246.312 100.797C247.322 101.161 248.434 101.124 249.418 100.692C250.401 100.26 251.181 99.4672 251.594 98.4773Z" fill="#EEFFFF"/>
<path d="M183.402 94.1933L187.91 94.6726C188.535 94.7347 189.133 94.9586 189.645 95.3221L195.222 99.1876C195.931 99.6855 196.471 100.386 196.771 101.198L197.066 101.971C197.25 102.571 197.581 103.116 198.03 103.556C198.479 103.997 199.03 104.318 199.635 104.492C200.24 104.665 200.878 104.685 201.493 104.55C202.107 104.415 202.678 104.129 203.154 103.718C203.538 103.377 203.99 103.12 204.48 102.964C204.97 102.807 205.487 102.754 205.999 102.807C206.51 102.861 207.005 103.021 207.451 103.276C207.898 103.532 208.286 103.877 208.591 104.29L223.618 123.402C224.075 123.982 224.378 124.668 224.501 125.396C224.71 126.4 224.559 127.445 224.075 128.35C223.591 129.254 222.804 129.96 221.852 130.344L215.934 132.447C215.61 132.556 215.278 132.644 214.942 132.71L209.273 133.746C208.636 133.889 208.062 134.23 207.631 134.718C207.199 135.207 206.934 135.819 206.872 136.467L206.5 139.56C206.393 140.302 206.553 141.057 206.949 141.693C207.346 142.33 207.955 142.806 208.668 143.039C209.25 143.249 209.761 143.619 210.142 144.106C210.524 144.593 210.76 145.176 210.825 145.791C210.889 146.405 210.779 147.025 210.508 147.58C210.236 148.136 209.813 148.603 209.288 148.93L206.19 150.646C205.868 150.835 205.509 150.953 205.138 150.993C204.767 151.033 204.392 150.994 204.037 150.878L202.766 150.476C201.714 150.151 200.582 150.198 199.56 150.609C198.539 151.02 197.69 151.771 197.158 152.734L194.974 156.398C194.739 156.803 194.447 157.173 194.107 157.496L185.525 165.815C184.499 166.847 183.901 168.227 183.852 169.68C183.807 170.933 183.356 172.138 182.566 173.113L176.059 180.999C174.193 183.294 173.239 186.195 173.379 189.147L174.712 190.694C176.958 193.338 173.844 197.25 171.149 195.209C170.354 194.33 169.701 193.334 169.212 192.255L168.515 190.709C168.017 189.512 167.145 188.508 166.028 187.848C164.911 187.187 163.61 186.905 162.319 187.044L146.92 189.271C145.513 189.524 144.231 190.238 143.274 191.299C142.318 192.36 141.742 193.708 141.638 195.131L140.708 203.945C140.597 204.824 140.734 205.717 141.104 206.523C141.473 207.328 142.061 208.015 142.8 208.506L148.377 212.032C148.682 212.222 149.022 212.351 149.377 212.411C149.732 212.471 150.095 212.46 150.446 212.38C150.797 212.3 151.129 212.151 151.422 211.943C151.716 211.734 151.965 211.47 152.156 211.166L153.396 209.341C153.637 208.968 153.964 208.657 154.349 208.434C154.734 208.211 155.166 208.082 155.611 208.058L157.16 207.98C157.643 207.987 158.117 208.106 158.546 208.329C158.974 208.551 159.345 208.87 159.628 209.261C159.911 209.651 160.098 210.102 160.175 210.578C160.253 211.054 160.217 211.541 160.072 212.001L158.833 216.856C158.696 217.28 158.652 217.728 158.704 218.17C158.756 218.613 158.903 219.039 159.136 219.419C159.368 219.799 159.68 220.125 160.05 220.374C160.421 220.623 160.84 220.789 161.281 220.86L165.432 221.386C166.157 221.515 166.812 221.896 167.281 222.463C167.749 223.03 168 223.744 167.989 224.479V228.963C167.971 229.831 168.3 230.671 168.902 231.298L171.722 234.189C172.132 234.625 172.675 234.913 173.266 235.008C173.858 235.103 174.464 235 174.991 234.715C175.331 234.527 175.708 234.416 176.096 234.389C176.485 234.362 176.874 234.421 177.237 234.56L181.884 236.354L186.532 232.256C188.022 230.921 189.801 229.948 191.73 229.411C193.66 228.875 195.687 228.79 197.654 229.164L208.095 231.127C210.5 231.594 212.729 232.712 214.54 234.359L223.509 242.384C224.578 242.385 225.634 242.607 226.613 243.035C227.591 243.464 228.47 244.09 229.194 244.873L236.227 252.264C236.936 253.017 237.783 253.626 238.722 254.058L255.932 261.928C256.198 262.047 256.457 262.181 256.707 262.33L262.005 265.5C263.953 266.769 265.361 268.714 265.956 270.959C266.551 273.204 266.291 275.589 265.227 277.654L259.712 288.477C259.272 289.37 258.969 290.324 258.814 291.307L257.388 300.368C257.192 301.785 256.654 303.133 255.821 304.297C254.987 305.46 253.882 306.404 252.602 307.047L245.352 310.495C244.025 311.161 242.888 312.148 242.043 313.366C241.199 314.585 240.674 315.996 240.518 317.469L240.131 320.561C239.911 322.437 239.121 324.201 237.869 325.618L228.296 336.256L223.896 337.477C223.21 337.695 222.622 338.144 222.232 338.748C221.842 339.352 221.674 340.073 221.759 340.786C221.81 341.413 221.674 342.042 221.368 342.592C221.062 343.143 220.6 343.59 220.039 343.879L213.486 346.971C212.934 347.243 212.475 347.674 212.17 348.208L208.018 355.614C207.915 355.798 207.826 355.989 207.755 356.187L198.46 384.127C198.276 384.67 198.234 385.251 198.34 385.814C198.446 386.377 198.695 386.904 199.064 387.343L200.257 388.735C200.602 389.135 200.844 389.613 200.963 390.127C201.081 390.642 201.072 391.177 200.936 391.688C200.8 392.198 200.542 392.667 200.183 393.055C199.825 393.443 199.377 393.738 198.878 393.915L196.198 394.657C195.742 394.784 195.259 394.786 194.802 394.664C194.344 394.541 193.927 394.299 193.596 393.961L185.664 386.23C185.34 385.904 185.088 385.514 184.923 385.085C184.757 384.657 184.683 384.199 184.704 383.74L185.865 355.182V354.81L194.076 300.244C194.239 299.35 194.126 298.428 193.753 297.6C193.379 296.772 192.763 296.076 191.984 295.605L183.65 290.858C182.921 290.439 182.337 289.808 181.977 289.049L172.342 269.536C171.789 268.384 171.717 267.061 172.14 265.856L180.412 242.879L177.624 239.786C177.243 239.337 176.725 239.023 176.15 238.892C175.574 238.761 174.972 238.82 174.433 239.06L173.178 239.632C172.665 239.869 172.09 239.939 171.535 239.834C170.979 239.729 170.47 239.452 170.08 239.044L159.112 227.973C158.946 227.806 158.765 227.656 158.57 227.525L146.843 220.366C146.194 219.958 145.44 219.751 144.673 219.77C143.907 219.789 143.164 220.034 142.536 220.474C141.899 220.911 141.147 221.153 140.374 221.17C139.6 221.186 138.839 220.977 138.183 220.567L123.079 211.104C122.43 210.7 121.896 210.135 121.53 209.465L106.891 183.009L102.399 186.008C102.399 186.008 84.6302 162.537 85.2033 160.434C85.5751 158.888 84.5837 146.781 84.057 140.534C83.8546 138.208 82.8531 136.023 81.2221 134.349L53.6322 106.903C52.3166 105.553 50.7074 104.523 48.9291 103.893C47.1508 103.263 45.2511 103.05 43.377 103.27L27.7464 105.141C27.0956 105.216 26.4705 105.438 25.9184 105.79L17.2588 111.186C16.7018 111.525 16.0784 111.74 15.4309 111.817C14.7833 111.895 14.1267 111.832 13.5054 111.634C12.8842 111.436 12.3127 111.108 11.8298 110.67C11.3468 110.233 10.9636 109.697 10.706 109.099C10.0089 107.707 9.55964 106.486 9.97791 106.378C10.3962 106.269 7.77815 103.378 5.33054 100.966C4.37732 100.007 3.80614 98.7342 3.72348 97.3857C3.64082 96.0372 4.05233 94.7047 4.88129 93.6367C5.21416 93.2001 5.41932 92.68 5.47401 92.1341C5.52871 91.5882 5.43078 91.0379 5.19111 90.5442L3.85887 87.7919C3.59717 87.2482 3.16098 86.8074 2.61957 86.5395L1.55067 86.0756C1.09663 85.8361 0.714973 85.4798 0.445202 85.0436C0.175431 84.6075 0.0273518 84.1073 0.0162933 83.5948C0.00523478 83.0823 0.131598 82.5762 0.382304 82.1289C0.63301 81.6815 0.998947 81.3092 1.44224 81.0504C1.77388 80.8533 2.06298 80.5924 2.29273 80.2829C2.52248 79.9734 2.6883 79.6213 2.78055 79.2473C2.8728 78.8732 2.88964 78.4846 2.83009 78.104C2.77054 77.7233 2.63579 77.3583 2.43367 77.0302L1.03946 74.7572C0.83147 74.4222 0.694277 74.0483 0.63631 73.6585C0.578344 73.2687 0.600828 72.8712 0.702381 72.4903C0.803933 72.1095 0.982412 71.7534 1.22685 71.4439C1.4713 71.1344 1.77654 70.8781 2.12385 70.6906L19.2572 62.4492C19.698 62.2302 20.198 62.1596 20.6824 62.2482L60.5723 69.4227C64.2517 70.0829 68.0461 69.5689 71.4161 67.9538C75.1836 66.1519 79.4647 65.7251 83.5148 66.7477L113.847 74.4789C116.121 75.0532 118.526 74.8011 120.632 73.7676L120.911 73.6284C122.648 72.7597 124.606 72.426 126.534 72.6698L134.822 73.7212C136.903 73.9816 139.013 73.5755 140.848 72.5616L145.79 69.8711L144.364 68.2166C143.983 67.7795 143.694 67.2701 143.515 66.7191C143.336 66.168 143.269 65.5865 143.32 65.0093C143.37 64.432 143.537 63.8709 143.81 63.3593C144.082 62.8477 144.455 62.3962 144.907 62.0317C145.285 61.7307 145.722 61.5116 146.19 61.3884C146.658 61.2653 147.147 61.2407 147.625 61.3164C148.103 61.392 148.56 61.5661 148.966 61.8277C149.373 62.0893 149.721 62.4326 149.988 62.8358L154.635 69.2835C155.049 69.9048 155.581 70.438 156.203 70.8524C156.824 71.2669 157.521 71.5543 158.255 71.698C158.988 71.8418 159.742 71.8391 160.474 71.6901C161.207 71.5411 161.902 71.2487 162.52 70.8298L163.45 70.1958C163.893 69.8759 164.413 69.6788 164.957 69.6245C165.501 69.5702 166.05 69.6606 166.548 69.8866L169.398 71.0926C169.888 71.3364 170.321 71.6802 170.669 72.1017C171.017 72.5232 171.272 73.013 171.418 73.5393C171.564 74.0656 171.598 74.6167 171.517 75.1568C171.435 75.697 171.242 76.214 170.947 76.6745L167.524 82.21C167.949 82.6891 168.246 83.267 168.389 83.8907C168.532 84.5145 168.515 85.164 168.341 85.7797C168.167 86.3954 167.84 86.9575 167.392 87.4145C166.943 87.8714 166.386 88.2086 165.773 88.3949L156.943 90.5287C156.497 90.646 156.08 90.8516 155.715 91.1331C155.351 91.4147 155.047 91.7665 154.821 92.1677L148.717 102.589C148.437 103.043 148.254 103.551 148.181 104.079C148.107 104.607 148.145 105.145 148.29 105.658C148.436 106.171 148.687 106.649 149.027 107.06C149.367 107.471 149.789 107.808 150.267 108.048L172.868 117.619C173.294 117.776 173.751 117.826 174.201 117.766C174.651 117.705 175.078 117.535 175.447 117.271C175.815 117.007 176.113 116.657 176.315 116.251C176.516 115.845 176.615 115.396 176.602 114.944L176.989 105.28L179.22 97.2394C179.433 96.3141 179.973 95.4966 180.741 94.937C181.51 94.3774 182.454 94.1134 183.402 94.1933Z" fill="#EEFFFF"/>
<path d="M173.194 202.429C173.962 202.359 174.735 202.486 175.44 202.8L199.839 213.856L198.708 214.706C197.884 215.315 196.882 215.636 195.857 215.618L184.889 215.232C184.051 215.188 183.239 214.924 182.537 214.464C181.835 214.005 181.267 213.368 180.893 212.619L180.056 211.072C179.538 210.053 178.677 209.249 177.624 208.799L171.18 206.124L170.73 205.908L173.194 202.429Z" fill="#EEFFFF"/>
<path d="M83.902 51.4884C83.6467 52.5806 83.6704 53.7193 83.9708 54.8C84.2713 55.8806 84.8389 56.8687 85.6215 57.6733L86.1173 58.1681C87.0586 59.0798 88.294 59.6278 89.6028 59.7144L93.8164 60.0082C94.5479 60.0789 95.2582 60.2928 95.9068 60.6377C96.5553 60.9826 97.1294 61.4517 97.5963 62.0183L102.615 67.8166C103.13 68.4201 103.768 68.9064 104.487 69.2425C105.206 69.5786 105.989 69.7567 106.783 69.7649H121.685C122.393 69.767 123.094 69.625 123.745 69.3474L126.116 68.3423C126.965 67.9327 127.717 67.3447 128.318 66.6184C128.919 65.8922 129.356 65.045 129.598 64.1347C129.841 63.2244 129.884 62.2725 129.724 61.3441C129.564 60.4157 129.205 59.5328 128.672 58.7557L124.675 52.8491C123.963 51.7262 122.866 50.9009 121.588 50.528C120.311 50.1551 118.94 50.2602 117.735 50.8235L114.637 52.3698C113.926 52.7099 113.148 52.8865 112.359 52.8865C111.571 52.8865 110.793 52.7099 110.082 52.3698L98.882 47.159C98.1619 46.815 97.3722 46.6404 96.5738 46.6487L89.4169 46.7415C88.0982 46.8031 86.8383 47.3043 85.8386 48.1648C84.8388 49.0253 84.157 50.1956 83.902 51.4884Z" fill="#EEFFFF"/>
<path d="M157.407 51.8736L155.517 57.6719C155.3 58.3018 155.287 58.9837 155.478 59.6216C155.67 60.2595 156.057 60.8214 156.586 61.2283L163.03 65.9752C163.445 66.28 163.94 66.4574 164.455 66.4854L178.072 67.1967C178.695 67.2472 179.283 67.5028 179.745 67.9234L187.057 74.7732C187.389 75.0993 187.646 75.493 187.812 75.9274C187.977 76.3619 188.047 76.8269 188.016 77.2907C187.985 77.7545 187.855 78.2062 187.633 78.615C187.411 79.0238 187.104 79.38 186.732 79.6593L181.929 82.9992C181.565 83.2741 181.264 83.6227 181.044 84.0222C180.825 84.4216 180.693 84.8629 180.656 85.3169C180.619 85.771 180.679 86.2277 180.832 86.657C180.985 87.0863 181.227 87.4785 181.542 87.808L182.75 89.0295C183.096 89.3947 183.541 89.6519 184.03 89.7699C184.52 89.8879 185.033 89.8617 185.508 89.6944L188.776 88.5192C189.11 88.3962 189.466 88.345 189.821 88.369C190.177 88.393 190.523 88.4916 190.837 88.6584L202.068 94.5031C202.464 94.6996 202.902 94.798 203.345 94.7899C203.787 94.7819 204.221 94.6676 204.61 94.4569C204.999 94.2461 205.331 93.9449 205.579 93.5789C205.827 93.2129 205.983 92.7927 206.034 92.3539L206.343 90.6221C206.503 89.8052 206.342 88.9583 205.894 88.2564C205.463 87.5922 205.289 86.7934 205.406 86.0104C205.523 85.2273 205.922 84.5139 206.529 84.0042L210.247 81.0819C210.597 80.7886 210.88 80.4249 211.079 80.0146C211.278 79.6042 211.388 79.1565 211.401 78.7009C211.414 78.2453 211.33 77.7921 211.156 77.371C210.981 76.9499 210.719 76.5705 210.387 76.2576L202.641 69.2687C202.466 69.1067 202.31 68.9251 202.176 68.7275L197.839 62.3106C197.647 62.0235 197.405 61.7723 197.126 61.5684L181.418 50.3583C180.969 50.0304 180.425 49.8568 179.869 49.8635H160.025C159.432 49.8812 158.86 50.0849 158.39 50.4458C157.92 50.8067 157.576 51.3063 157.407 51.8736Z" fill="#EEFFFF"/>
<path d="M200.999 16.0471L181.247 29.4839C179.764 30.5202 178.707 32.0585 178.273 33.8133L176.879 39.3179C176.555 40.7622 175.78 42.0669 174.667 43.0448C173.554 44.0226 172.159 44.6233 170.682 44.7606L156.461 45.4564C155.34 45.5294 154.254 45.8818 153.305 46.4814C152.355 47.0811 151.571 47.9089 151.024 48.8891C150.346 50.1381 149.28 51.1342 147.987 51.7279C146.694 52.3217 145.243 52.4812 143.851 52.1825L137.113 50.6363C135.486 50.2603 134.057 49.2963 133.101 47.9304L131.675 45.8275C130.94 44.736 129.891 43.8929 128.665 43.4097C127.44 42.9265 126.097 42.8261 124.813 43.1216L110.979 46.3842C109.542 46.7392 108.026 46.5692 106.703 45.9048L104.426 44.8379C103.208 44.1718 102.192 43.1909 101.484 41.998C100.776 40.8051 100.402 39.4442 100.402 38.0577C100.402 36.6713 100.776 35.3103 101.484 34.1175C102.192 32.9246 103.208 31.9437 104.426 31.2775L111.893 27.4583C112.468 27.1655 113.084 26.9622 113.721 26.8553L130.544 23.9793C131.376 23.8278 132.17 23.5181 132.884 23.067L146.826 14.3308C147.381 13.9775 147.987 13.7115 148.623 13.5422L193.919 1.62081C195.239 1.26791 196.639 1.36032 197.9 1.88367L199.914 2.70317C205.088 4.89882 205.801 12.7846 200.999 16.0471Z" fill="#EEFFFF"/>
<path d="M361.086 28.0156L369.389 37.1074C369.644 37.3988 369.957 37.6348 370.308 37.8007C370.658 37.9666 371.039 38.059 371.427 38.072C371.814 38.085 372.201 38.0185 372.562 37.8765C372.923 37.7346 373.25 37.5202 373.525 37.2466L379.257 31.6647C379.667 31.2451 380.199 30.9654 380.777 30.8654C381.356 30.7655 381.952 30.8504 382.479 31.1081C382.932 31.3068 383.427 31.3907 383.921 31.3524C384.414 31.3141 384.89 31.1548 385.307 30.8886C385.724 30.6224 386.069 30.2576 386.31 29.8265C386.552 29.3955 386.683 28.9115 386.693 28.4176L386.925 26.0364C386.964 25.5174 387.124 25.0148 387.393 24.569C387.662 24.1232 388.033 23.7466 388.474 23.4697L393.121 20.7019L383.625 18.7537C383.424 18.7384 383.222 18.7384 383.021 18.7537L367.669 19.032C367.063 19.0453 366.477 19.2511 365.996 19.6196L361.519 23.0367C361.161 23.3334 360.864 23.6982 360.648 24.11C360.432 24.5218 360.3 24.9724 360.259 25.4356C360.219 25.8989 360.271 26.3655 360.413 26.8084C360.555 27.2513 360.783 27.6616 361.086 28.0156Z" fill="#EEFFFF"/>
</g>
<path d="M116.559 150.94C116.853 150.507 117.147 150.089 117.457 149.672" stroke="#FF7500" stroke-width="0.49" stroke-miterlimit="10" stroke-linecap="round"/>
<path d="M120.277 145.946C142.244 118.114 177.889 99.9922 218.104 99.9922C264.392 99.9922 304.592 123.943 324.901 159.135" stroke="#FF7500" stroke-width="0.49" stroke-miterlimit="10" stroke-linecap="round" stroke-dasharray="2.02 3.02"/>
<path d="M326.047 161.18C326.295 161.628 326.543 162.077 326.775 162.54" stroke="#FF7500" stroke-width="0.49" stroke-miterlimit="10" stroke-linecap="round"/>
<path d="M165.062 56.715C165.419 56.3439 165.775 55.9728 166.147 55.6172" stroke="#FF7500" stroke-width="0.49" stroke-miterlimit="10" stroke-linecap="round"/>
<path d="M169.414 52.3386C190.559 31.7262 216.396 16.5388 244.711 8.07828C273.025 -0.38225 302.973 -1.86363 331.987 3.7611C361.001 9.38584 388.216 21.9489 411.299 40.3736C434.382 58.7982 452.645 82.5349 464.522 109.549" stroke="#FF7500" stroke-width="0.49" stroke-miterlimit="10" stroke-linecap="round" stroke-dasharray="1.99 2.99"/>
<path d="M465.438 111.73L466.042 113.153" stroke="#FF7500" stroke-width="0.49" stroke-miterlimit="10" stroke-linecap="round"/>
<path d="M328.043 167.656C328.043 167.145 328.043 166.62 328.043 166.109" stroke="#FF7500" stroke-width="0.49" stroke-miterlimit="10" stroke-linecap="round"/>
<path d="M328.246 161.485C329.591 139.62 338.494 118.897 353.436 102.851C368.378 86.8049 388.435 76.4296 410.184 73.4943C431.934 70.5589 454.031 75.2455 472.706 86.7546C491.381 98.2637 505.477 115.883 512.592 136.607" stroke="#FF7500" stroke-width="0.49" stroke-miterlimit="10" stroke-linecap="round" stroke-dasharray="2 2.99"/>
<path d="M513.289 138.789C513.444 139.284 513.599 139.779 513.738 140.335" stroke="#FF7500" stroke-width="0.49" stroke-miterlimit="10" stroke-linecap="round"/>
<path d="M388.629 248.662L389.465 247.363" stroke="#FF7500" stroke-width="0.49" stroke-miterlimit="10" stroke-linecap="round"/>
<path d="M392.055 243.531C414.92 210.844 451.479 189.676 492.655 189.676C561.699 189.676 617.715 249.159 618.134 322.652" stroke="#FF7500" stroke-width="0.49" stroke-miterlimit="10" stroke-linecap="round" stroke-dasharray="1.99 2.99"/>
<path d="M618.102 325C618.102 325.51 618.102 326.036 618.102 326.546" stroke="#FF7500" stroke-width="0.49" stroke-miterlimit="10" stroke-linecap="round"/>
<path d="M175.719 125.647C175.998 125.214 176.292 124.796 176.586 124.379" stroke="#FF7500" stroke-width="0.49" stroke-miterlimit="10" stroke-linecap="round"/>
<path d="M179.344 120.603C207.584 83.88 261.633 66.021 316.534 79.4423C376.625 94.147 418.405 141.57 420.542 192.317" stroke="#FF7500" stroke-width="0.49" stroke-miterlimit="10" stroke-linecap="round" stroke-dasharray="2 3"/>
<path d="M420.621 194.59C420.621 195.1 420.621 195.626 420.621 196.136" stroke="#FF7500" stroke-width="0.49" stroke-miterlimit="10" stroke-linecap="round"/>
<path d="M214.383 331.124C214.383 330.614 214.507 330.104 214.584 329.578" stroke="#FF7500" stroke-width="0.49" stroke-miterlimit="10" stroke-linecap="round"/>
<path d="M215.547 324.955C223.184 295.005 258.628 272.043 301.492 271.471C327.827 271.131 351.591 279.295 367.965 292.562" stroke="#FF7500" stroke-width="0.49" stroke-miterlimit="10" stroke-linecap="round" stroke-dasharray="2.04 3.06"/>
<path d="M369.777 294.078L370.939 295.099" stroke="#FF7500" stroke-width="0.49" stroke-miterlimit="10" stroke-linecap="round"/>
<path d="M514.311 140.426C513.288 134.637 512.77 128.77 512.762 122.892C512.762 77.8501 541.947 41.3281 577.964 41.3281C599.652 41.3281 618.784 54.5175 630.635 74.8349" stroke="#FF7500" stroke-width="0.49" stroke-miterlimit="10" stroke-linecap="round" stroke-dasharray="2 3"/>
<path d="M203.215 261.929C203.308 261.419 203.401 260.909 203.509 260.383" stroke="#FF7500" stroke-width="0.49" stroke-miterlimit="10" stroke-linecap="round"/>
<path d="M204.562 255.929C214.183 220.366 252.384 193.879 298.068 193.879C338.67 193.879 373.386 214.861 387.344 244.472" stroke="#FF7500" stroke-width="0.49" stroke-miterlimit="10" stroke-linecap="round" stroke-dasharray="1.99 2.98"/>
<path d="M388.305 246.574C388.506 247.054 388.707 247.533 388.893 248.012" stroke="#FF7500" stroke-width="0.49" stroke-miterlimit="10" stroke-linecap="round"/>
<path d="M187.074 205.925C187.074 205.415 187.074 204.889 187.074 204.379" stroke="#FF7500" stroke-width="0.25" stroke-miterlimit="10" stroke-linecap="round"/>
<path d="M187.445 199.677C190.791 163.125 224.02 134.519 264.499 134.519C275.853 134.411 287.099 136.723 297.486 141.301C307.873 145.88 317.161 152.619 324.729 161.068" stroke="#FF7500" stroke-width="0.25" stroke-miterlimit="10" stroke-linecap="round" stroke-dasharray="2.03 3.05"/>
<path d="M326.262 162.785L327.222 163.991" stroke="#FF7500" stroke-width="0.25" stroke-miterlimit="10" stroke-linecap="round"/>
<path d="M513.691 141.339C513.691 140.813 513.691 140.303 513.691 139.793" stroke="#FF7500" stroke-width="0.49" stroke-miterlimit="10" stroke-linecap="round"/>
<path d="M514.312 135.109C515.553 128.191 518.81 121.792 523.675 116.712C528.541 111.632 534.799 108.097 541.667 106.549C548.535 105.002 555.708 105.509 562.289 108.01C568.869 110.51 574.565 114.891 578.663 120.606" stroke="#FF7500" stroke-width="0.49" stroke-miterlimit="10" stroke-linecap="round" stroke-dasharray="2.03 3.04"/>
<path d="M579.961 122.582C580.24 123.03 580.503 123.463 580.751 123.927" stroke="#FF7500" stroke-width="0.49" stroke-miterlimit="10" stroke-linecap="round"/>
<path d="M372.008 294.972C372.116 294.477 372.225 293.967 372.349 293.426" stroke="#FF7500" stroke-width="0.49" stroke-miterlimit="10" stroke-linecap="round"/>
<path d="M373.617 288.958C384.105 256.487 420.215 232.227 463.466 231.655C495.998 231.222 524.765 244.241 541.914 264.389" stroke="#FF7500" stroke-width="0.49" stroke-miterlimit="10" stroke-linecap="round" stroke-dasharray="2.02 3.03"/>
<path d="M543.418 266.199L544.378 267.421" stroke="#FF7500" stroke-width="0.49" stroke-miterlimit="10" stroke-linecap="round"/>
<path d="M504.258 174.01L505.482 173.066" stroke="#FF7500" stroke-width="0.49" stroke-miterlimit="10" stroke-linecap="round"/>
<path d="M509.277 170.346C520.866 162.367 534.593 158.057 548.672 157.977C595.564 157.977 633.564 206.698 633.564 266.816C633.693 286.656 629.335 306.27 620.814 324.196" stroke="#FF7500" stroke-width="0.49" stroke-miterlimit="10" stroke-linecap="round" stroke-dasharray="2.01 3.01"/>
<path d="M619.775 326.254L619.062 327.63" stroke="#FF7500" stroke-width="0.49" stroke-miterlimit="10" stroke-linecap="round"/>
<path d="M282.391 54.4725L283.738 53.7148" stroke="#FF7500" stroke-width="0.49" stroke-miterlimit="10" stroke-linecap="round"/>
<path d="M287.797 51.5488C306.507 42.0395 327.217 37.1154 348.213 37.1843C399.938 37.1843 444.351 66.2844 463.591 107.847" stroke="#FF7500" stroke-width="0.49" stroke-miterlimit="10" stroke-linecap="round" stroke-dasharray="1.99 2.98"/>
<path d="M464.477 109.949C464.693 110.429 464.895 110.908 465.096 111.372" stroke="#FF7500" stroke-width="0.49" stroke-miterlimit="10" stroke-linecap="round"/>
<path d="M426.117 170.456C426.189 169.951 426.282 169.436 426.396 168.91" stroke="#FF7500" stroke-width="0.49" stroke-miterlimit="10" stroke-linecap="round"/>
<path d="M427.406 164.548C427.406 164.455 427.406 164.347 427.484 164.254C435.741 133.731 463.563 114.682 489.635 121.702C498.249 124.066 505.925 129.022 511.617 135.896" stroke="#FF7500" stroke-width="0.49" stroke-miterlimit="10" stroke-linecap="round" stroke-dasharray="1.94 2.91"/>
<path d="M513.023 137.613C513.333 138.031 513.643 138.433 513.953 138.866" stroke="#FF7500" stroke-width="0.49" stroke-miterlimit="10" stroke-linecap="round"/>
<path style="mix-blend-mode:color-dodge" d="M108.516 114.729C114.932 112.092 117.992 104.763 115.35 98.3588C112.708 91.9548 105.365 88.901 98.9491 91.538C92.5332 94.1749 89.4737 101.504 92.1155 107.908C94.7574 114.312 102.1 117.366 108.516 114.729Z" fill="url(#paint0_radial_933_11415)"/>
<path style="mix-blend-mode:color-dodge" d="M587.04 100.209C593.979 100.209 599.603 94.5944 599.603 87.6688C599.603 80.7432 593.979 75.1289 587.04 75.1289C580.101 75.1289 574.477 80.7432 574.477 87.6688C574.477 94.5944 580.101 100.209 587.04 100.209Z" fill="url(#paint1_radial_933_11415)"/>
<path style="mix-blend-mode:color-dodge" d="M570.575 273.373C577.514 273.373 583.139 267.759 583.139 260.833C583.139 253.907 577.514 248.293 570.575 248.293C563.637 248.293 558.012 253.907 558.012 260.833C558.012 267.759 563.637 273.373 570.575 273.373Z" fill="url(#paint2_radial_933_11415)"/>
<path style="mix-blend-mode:color-dodge" d="M370.947 197.884C372.056 191.048 367.401 184.609 360.552 183.503C353.702 182.397 347.251 187.042 346.143 193.879C345.035 200.716 349.689 207.154 356.539 208.261C363.388 209.367 369.839 204.721 370.947 197.884Z" fill="url(#paint3_radial_933_11415)"/>
<path style="mix-blend-mode:color-dodge" d="M417.985 121.857C424.924 121.857 430.549 116.243 430.549 109.317C430.549 102.392 424.924 96.7773 417.985 96.7773C411.047 96.7773 405.422 102.392 405.422 109.317C405.422 116.243 411.047 121.857 417.985 121.857Z" fill="url(#paint4_radial_933_11415)"/>
<path style="mix-blend-mode:color-dodge" d="M39.954 95.5564C46.8926 95.5564 52.5174 89.9421 52.5174 83.0165C52.5174 76.0909 46.8926 70.4766 39.954 70.4766C33.0154 70.4766 27.3906 76.0909 27.3906 83.0165C27.3906 89.9421 33.0154 95.5564 39.954 95.5564Z" fill="url(#paint5_radial_933_11415)"/>
<path style="mix-blend-mode:color-dodge" d="M225.952 299.295C227.552 292.556 223.375 285.799 216.624 284.202C209.872 282.605 203.102 286.774 201.502 293.513C199.902 300.252 204.079 307.009 210.83 308.606C217.582 310.203 224.352 306.034 225.952 299.295Z" fill="url(#paint6_radial_933_11415)"/>
<path style="mix-blend-mode:color-dodge" d="M330.477 247.103C337.416 247.103 343.041 241.489 343.041 234.563C343.041 227.638 337.416 222.023 330.477 222.023C323.539 222.023 317.914 227.638 317.914 234.563C317.914 241.489 323.539 247.103 330.477 247.103Z" fill="url(#paint7_radial_933_11415)"/>
<path style="mix-blend-mode:color-dodge" d="M251.532 47.2205C258.471 47.2205 264.096 41.6062 264.096 34.6806C264.096 27.7549 258.471 22.1406 251.532 22.1406C244.594 22.1406 238.969 27.7549 238.969 34.6806C238.969 41.6062 244.594 47.2205 251.532 47.2205Z" fill="url(#paint8_radial_933_11415)"/>
<path style="mix-blend-mode:color-dodge" d="M476.278 176.732C483.217 176.732 488.842 171.118 488.842 164.192C488.842 157.267 483.217 151.652 476.278 151.652C469.34 151.652 463.715 157.267 463.715 164.192C463.715 171.118 469.34 176.732 476.278 176.732Z" fill="url(#paint9_radial_933_11415)"/>
<path style="mix-blend-mode:color-dodge" d="M721.874 80.4924C723.04 73.6654 718.441 67.187 711.602 66.0225C704.762 64.858 698.271 69.4483 697.105 76.2753C695.938 83.1023 700.537 89.5807 707.377 90.7452C714.216 91.9098 720.707 87.3194 721.874 80.4924Z" fill="url(#paint10_radial_933_11415)"/>
<g style="mix-blend-mode:color-dodge">
<path d="M429.11 168.428C429.56 169.207 429.681 170.133 429.447 171.001C429.214 171.87 428.644 172.61 427.863 173.059C427.082 173.508 426.155 173.629 425.285 173.396C424.415 173.162 423.673 172.594 423.223 171.814C423.001 171.429 422.856 171.003 422.798 170.561C422.74 170.12 422.77 169.671 422.886 169.241C423.002 168.811 423.201 168.408 423.473 168.055C423.745 167.702 424.084 167.406 424.47 167.183C424.857 166.961 425.284 166.817 425.726 166.759C426.168 166.701 426.618 166.731 427.048 166.847C427.479 166.962 427.883 167.161 428.237 167.433C428.591 167.704 428.887 168.042 429.11 168.428Z" fill="#FF7500"/>
</g>
<path d="M189.755 204.518C190.092 205.101 190.248 205.771 190.203 206.442C190.158 207.114 189.915 207.757 189.504 208.291C189.092 208.824 188.532 209.224 187.893 209.439C187.254 209.655 186.565 209.676 185.914 209.501C185.263 209.325 184.679 208.961 184.235 208.454C183.792 207.947 183.509 207.32 183.423 206.652C183.336 205.984 183.45 205.306 183.75 204.703C184.05 204.1 184.523 203.6 185.108 203.265C185.892 202.821 186.819 202.704 187.689 202.938C188.559 203.173 189.302 203.74 189.755 204.518Z" fill="#FF7500"/>
<g style="mix-blend-mode:color-dodge">
<path d="M581.309 131.798C580.319 131.797 579.342 131.569 578.454 131.133C577.565 130.697 576.789 130.063 576.183 129.281C575.578 128.499 575.16 127.59 574.961 126.621C574.762 125.653 574.787 124.653 575.035 123.696C575.353 122.53 575.991 121.477 576.876 120.654C577.762 119.831 578.861 119.272 580.048 119.039C581.235 118.807 582.464 118.91 583.596 119.337C584.727 119.765 585.717 120.499 586.452 121.458C587.188 122.417 587.64 123.562 587.758 124.764C587.876 125.966 587.656 127.177 587.121 128.26C586.586 129.344 585.758 130.256 584.731 130.895C583.704 131.534 582.519 131.873 581.309 131.875V131.798Z" stroke="#FF7500" stroke-miterlimit="10"/>
</g>
<path d="M584.254 123.697C584.586 124.278 584.738 124.944 584.691 125.611C584.644 126.279 584.401 126.917 583.991 127.446C583.581 127.975 583.023 128.371 582.388 128.585C581.753 128.798 581.069 128.819 580.422 128.644C579.775 128.47 579.195 128.108 578.754 127.605C578.312 127.102 578.03 126.479 577.943 125.816C577.856 125.153 577.967 124.479 578.263 123.879C578.559 123.279 579.026 122.78 579.606 122.445C580.39 122.001 581.318 121.884 582.188 122.118C583.058 122.353 583.8 122.92 584.254 123.697Z" fill="white"/>
<g style="mix-blend-mode:color-dodge">
<path d="M507.199 172.311C507.531 172.891 507.683 173.558 507.636 174.225C507.589 174.892 507.346 175.53 506.936 176.059C506.526 176.588 505.969 176.985 505.334 177.198C504.699 177.411 504.014 177.432 503.368 177.257C502.721 177.083 502.14 176.722 501.699 176.218C501.258 175.715 500.976 175.093 500.888 174.429C500.801 173.766 500.912 173.092 501.208 172.492C501.504 171.892 501.972 171.393 502.551 171.058C503.335 170.614 504.263 170.497 505.133 170.731C506.003 170.966 506.745 171.533 507.199 172.311Z" fill="#FF7500"/>
</g>
<path d="M546.5 266.151C546.842 266.727 547.004 267.392 546.968 268.06C546.931 268.729 546.696 269.372 546.293 269.908C545.89 270.443 545.337 270.847 544.704 271.069C544.071 271.291 543.387 271.321 542.737 271.154C542.087 270.988 541.501 270.633 541.053 270.134C540.605 269.635 540.316 269.015 540.221 268.352C540.127 267.689 540.231 267.013 540.522 266.409C540.812 265.805 541.275 265.301 541.853 264.96C542.236 264.734 542.661 264.585 543.102 264.522C543.543 264.459 543.992 264.484 544.424 264.595C544.855 264.705 545.261 264.899 545.617 265.166C545.973 265.433 546.273 265.768 546.5 266.151Z" fill="#FF7500"/>
<g style="mix-blend-mode:color-dodge">
<path d="M116.727 156.801C115.228 156.789 113.779 156.259 112.627 155.301C111.475 154.344 110.69 153.018 110.406 151.549C110.123 150.08 110.357 148.558 111.07 147.241C111.783 145.925 112.931 144.896 114.318 144.328C115.705 143.76 117.246 143.689 118.679 144.127C120.113 144.565 121.35 145.485 122.182 146.73C123.013 147.975 123.387 149.469 123.239 150.959C123.092 152.448 122.433 153.84 121.374 154.899C120.766 155.51 120.042 155.994 119.244 156.321C118.445 156.647 117.589 156.811 116.727 156.801Z" stroke="#FF7500" stroke-miterlimit="10"/>
</g>
<path d="M116.729 153.71C118.602 153.71 120.121 152.194 120.121 150.324C120.121 148.454 118.602 146.938 116.729 146.938C114.855 146.938 113.336 148.454 113.336 150.324C113.336 152.194 114.855 153.71 116.729 153.71Z" fill="white"/>
<g style="mix-blend-mode:color-dodge">
<path d="M165.061 60.1319C166.934 60.1319 168.453 58.6158 168.453 56.7456C168.453 54.8755 166.934 53.3594 165.061 53.3594C163.187 53.3594 161.668 54.8755 161.668 56.7456C161.668 58.6158 163.187 60.1319 165.061 60.1319Z" fill="#FF7500"/>
</g>
<g style="mix-blend-mode:color-dodge">
<path d="M281.662 60.7981C280.799 60.8113 279.942 60.6496 279.143 60.3227C278.344 59.9958 277.62 59.5105 277.015 58.8962C276.108 57.9898 275.491 56.8354 275.241 55.5789C274.992 54.3224 275.121 53.0203 275.612 51.837C276.104 50.6537 276.936 49.6425 278.003 48.931C279.07 48.2196 280.325 47.8398 281.608 47.8398C282.891 47.8398 284.146 48.2196 285.213 48.931C286.28 49.6425 287.112 50.6537 287.604 51.837C288.095 53.0203 288.224 54.3224 287.975 55.5789C287.725 56.8354 287.108 57.9898 286.201 58.8962C285.607 59.496 284.901 59.9728 284.122 60.2992C283.343 60.6255 282.507 60.7951 281.662 60.7981Z" stroke="#FF7500" stroke-miterlimit="10"/>
</g>
<path d="M281.662 57.7022C283.536 57.7022 285.055 56.1861 285.055 54.3159C285.055 52.4458 283.536 50.9297 281.662 50.9297C279.788 50.9297 278.27 52.4458 278.27 54.3159C278.27 56.1861 279.788 57.7022 281.662 57.7022Z" fill="white"/>
<g style="mix-blend-mode:color-dodge">
<path d="M174.432 131.151C176.305 131.151 177.824 129.635 177.824 127.765C177.824 125.895 176.305 124.379 174.432 124.379C172.558 124.379 171.039 125.895 171.039 127.765C171.039 129.635 172.558 131.151 174.432 131.151Z" fill="#FF7500"/>
</g>
<g style="mix-blend-mode:color-dodge">
<path d="M513.736 143.628C515.61 143.628 517.129 142.112 517.129 140.242C517.129 138.372 515.61 136.855 513.736 136.855C511.863 136.855 510.344 138.372 510.344 140.242C510.344 142.112 511.863 143.628 513.736 143.628Z" fill="#FF7500"/>
</g>
<g style="mix-blend-mode:color-dodge">
<path d="M619.124 333.816C617.62 333.806 616.167 333.275 615.011 332.316C613.855 331.357 613.068 330.028 612.782 328.555C612.497 327.082 612.732 325.555 613.446 324.235C614.161 322.915 615.311 321.883 616.702 321.314C618.093 320.744 619.639 320.673 621.076 321.113C622.513 321.552 623.754 322.475 624.587 323.724C625.42 324.973 625.794 326.472 625.645 327.965C625.496 329.458 624.834 330.853 623.771 331.914C623.163 332.526 622.439 333.009 621.641 333.336C620.842 333.663 619.986 333.826 619.124 333.816Z" stroke="#FF7500" stroke-miterlimit="10"/>
</g>
<path d="M619.123 330.722C620.997 330.722 622.516 329.206 622.516 327.335C622.516 325.465 620.997 323.949 619.123 323.949C617.249 323.949 615.73 325.465 615.73 327.335C615.73 329.206 617.249 330.722 619.123 330.722Z" fill="white"/>
<g style="mix-blend-mode:color-dodge">
<path d="M216.739 328.636C217.213 329.11 217.535 329.713 217.666 330.37C217.796 331.027 217.729 331.707 217.472 332.326C217.215 332.944 216.78 333.472 216.222 333.844C215.664 334.216 215.009 334.415 214.338 334.415C213.667 334.415 213.012 334.216 212.454 333.844C211.896 333.472 211.461 332.944 211.204 332.326C210.947 331.707 210.88 331.027 211.01 330.37C211.14 329.713 211.463 329.11 211.937 328.636C212.575 328.003 213.438 327.648 214.338 327.648C215.238 327.648 216.101 328.003 216.739 328.636Z" fill="#FF7500"/>
</g>
<g style="mix-blend-mode:color-dodge">
<path d="M372.132 302.117C370.423 302.122 368.781 301.451 367.565 300.252C366.349 299.053 365.657 297.422 365.641 295.716C365.631 294.858 365.791 294.006 366.112 293.211C366.434 292.415 366.91 291.69 367.514 291.079C368.117 290.468 368.836 289.983 369.629 289.651C370.421 289.319 371.272 289.147 372.132 289.145C373.801 289.226 375.374 289.945 376.526 291.152C377.678 292.36 378.321 293.963 378.321 295.631C378.321 297.298 377.678 298.902 376.526 300.11C375.374 301.317 373.801 302.036 372.132 302.117Z" stroke="#FF7500" stroke-miterlimit="10"/>
</g>
<path d="M374.501 293.211C374.975 293.685 375.297 294.289 375.427 294.945C375.558 295.602 375.49 296.283 375.233 296.901C374.976 297.519 374.542 298.048 373.984 298.42C373.426 298.791 372.77 298.99 372.1 298.99C371.429 298.99 370.773 298.791 370.215 298.42C369.658 298.048 369.223 297.519 368.966 296.901C368.709 296.283 368.641 295.602 368.772 294.945C368.902 294.289 369.225 293.685 369.698 293.211C370.013 292.894 370.386 292.643 370.799 292.471C371.211 292.299 371.653 292.211 372.1 292.211C372.546 292.211 372.988 292.299 373.401 292.471C373.813 292.643 374.187 292.894 374.501 293.211Z" fill="white"/>
<g style="mix-blend-mode:color-dodge">
<path d="M202.936 269.043C201.866 269.038 200.814 268.769 199.874 268.262C198.933 267.754 198.132 267.023 197.541 266.133C196.951 265.242 196.59 264.221 196.49 263.158C196.389 262.095 196.553 261.024 196.966 260.039C197.38 259.055 198.03 258.187 198.859 257.513C199.689 256.839 200.672 256.379 201.721 256.175C202.771 255.97 203.855 256.027 204.878 256.341C205.9 256.654 206.829 257.215 207.583 257.972C208.491 258.884 209.107 260.044 209.353 261.305C209.6 262.567 209.466 263.873 208.968 265.058C208.471 266.244 207.632 267.255 206.558 267.965C205.484 268.674 204.223 269.049 202.936 269.043Z" stroke="#FF7500" stroke-miterlimit="10"/>
</g>
<g style="mix-blend-mode:color-dodge">
<path d="M202.967 265.921C204.84 265.921 206.359 264.405 206.359 262.535C206.359 260.664 204.84 259.148 202.967 259.148C201.093 259.148 199.574 260.664 199.574 262.535C199.574 264.405 201.093 265.921 202.967 265.921Z" fill="#FF7500"/>
</g>
<g style="mix-blend-mode:color-dodge">
<path d="M630.666 79.3819C632.54 79.3819 634.059 77.8658 634.059 75.9956C634.059 74.1255 632.54 72.6094 630.666 72.6094C628.792 72.6094 627.273 74.1255 627.273 75.9956C627.273 77.8658 628.792 79.3819 630.666 79.3819Z" fill="#FF7500"/>
</g>
<g style="mix-blend-mode:color-dodge">
<path d="M389.311 252.577C391.184 252.577 392.703 251.061 392.703 249.191C392.703 247.321 391.184 245.805 389.311 245.805C387.437 245.805 385.918 247.321 385.918 249.191C385.918 251.061 387.437 252.577 389.311 252.577Z" fill="#FF7500"/>
</g>
<g style="mix-blend-mode:color-dodge">
<path d="M464.739 118.501C463.209 118.496 461.731 117.949 460.567 116.958C459.403 115.966 458.63 114.594 458.384 113.087C458.139 111.579 458.438 110.034 459.227 108.726C460.017 107.418 461.246 106.432 462.696 105.944C464.146 105.456 465.723 105.497 467.145 106.061C468.567 106.624 469.742 107.673 470.462 109.021C471.181 110.369 471.398 111.928 471.074 113.421C470.749 114.913 469.904 116.242 468.69 117.171C467.555 118.036 466.167 118.503 464.739 118.501Z" stroke="#FF7500" stroke-miterlimit="10"/>
</g>
<path d="M467.496 109.966C467.901 110.499 468.14 111.139 468.181 111.807C468.222 112.474 468.065 113.139 467.728 113.717C467.391 114.295 466.89 114.761 466.289 115.056C465.687 115.35 465.011 115.46 464.347 115.372C463.683 115.284 463.06 115.001 462.556 114.56C462.053 114.118 461.692 113.538 461.518 112.892C461.345 112.246 461.367 111.563 461.581 110.93C461.796 110.296 462.194 109.74 462.725 109.332C463.079 109.06 463.484 108.86 463.916 108.744C464.348 108.629 464.799 108.6 465.243 108.659C465.686 108.717 466.113 108.863 466.5 109.088C466.887 109.312 467.225 109.611 467.496 109.966Z" fill="white"/>
<g style="mix-blend-mode:color-dodge">
<path d="M327.424 170.687C326.354 170.682 325.303 170.414 324.362 169.906C323.421 169.399 322.62 168.667 322.03 167.777C321.439 166.887 321.078 165.865 320.978 164.802C320.878 163.739 321.041 162.668 321.455 161.684C321.868 160.699 322.518 159.831 323.348 159.157C324.177 158.483 325.16 158.024 326.21 157.819C327.259 157.615 328.344 157.672 329.366 157.985C330.388 158.299 331.318 158.859 332.071 159.616C332.979 160.528 333.595 161.688 333.841 162.95C334.088 164.211 333.954 165.518 333.456 166.703C332.959 167.888 332.12 168.9 331.046 169.609C329.972 170.318 328.712 170.694 327.424 170.687Z" stroke="#FF7500" stroke-miterlimit="10"/>
</g>
<path d="M327.424 167.577C329.298 167.577 330.816 166.061 330.816 164.191C330.816 162.321 329.298 160.805 327.424 160.805C325.55 160.805 324.031 162.321 324.031 164.191C324.031 166.061 325.55 167.577 327.424 167.577Z" fill="white"/>
<g style="mix-blend-mode:color-dodge">
<path d="M421.099 203.809C419.679 203.812 418.297 203.35 417.165 202.495C416.033 201.639 415.214 200.436 414.832 199.071C414.451 197.705 414.528 196.253 415.053 194.936C415.578 193.619 416.521 192.51 417.738 191.779C418.75 191.162 419.913 190.836 421.099 190.836C422.084 190.836 423.056 191.06 423.941 191.489C424.827 191.919 425.603 192.544 426.212 193.317C426.82 194.089 427.245 194.99 427.454 195.95C427.664 196.91 427.652 197.906 427.42 198.861C427.073 200.273 426.262 201.528 425.116 202.425C423.97 203.322 422.556 203.809 421.099 203.809Z" stroke="#FF7500" stroke-miterlimit="10"/>
</g>
<g style="mix-blend-mode:color-dodge">
<path d="M424.011 195.566C424.36 196.139 424.53 196.802 424.501 197.472C424.471 198.142 424.243 198.788 423.846 199.328C423.448 199.868 422.899 200.279 422.268 200.507C421.636 200.736 420.951 200.772 420.299 200.611C419.647 200.451 419.057 200.101 418.604 199.605C418.152 199.11 417.857 198.492 417.757 197.829C417.657 197.166 417.756 196.488 418.042 195.882C418.328 195.275 418.788 194.767 419.363 194.421C420.132 193.96 421.053 193.822 421.924 194.036C422.795 194.25 423.545 194.8 424.011 195.566Z" fill="#FF7500"/>
</g>
<defs>
<radialGradient id="paint0_radial_933_11415" cx="0" cy="0" r="1" gradientUnits="userSpaceOnUse" gradientTransform="translate(103.734 103.134) scale(12.5634 12.5399)">
<stop stop-color="#BCE4FA"/>
<stop offset="0.02" stop-color="#B1D6EB" stop-opacity="0.94"/>
<stop offset="0.08" stop-color="#88A5B4" stop-opacity="0.72"/>
<stop offset="0.15" stop-color="#637984" stop-opacity="0.53"/>
<stop offset="0.22" stop-color="#45535C" stop-opacity="0.37"/>
<stop offset="0.3" stop-color="#2C353A" stop-opacity="0.23"/>
<stop offset="0.37" stop-color="#191E21" stop-opacity="0.13"/>
<stop offset="0.44" stop-color="#0B0D0E" stop-opacity="0.06"/>
<stop offset="0.52" stop-color="#030304" stop-opacity="0.01"/>
<stop offset="0.61" stop-opacity="0"/>
</radialGradient>
<radialGradient id="paint1_radial_933_11415" cx="0" cy="0" r="1" gradientUnits="userSpaceOnUse" gradientTransform="translate(587.04 87.6688) scale(12.5634 12.5399)">
<stop stop-color="#FF7500"/>
<stop offset="0.02" stop-color="#B1D6EB" stop-opacity="0.94"/>
<stop offset="0.08" stop-color="#88A5B4" stop-opacity="0.72"/>
<stop offset="0.15" stop-color="#637984" stop-opacity="0.53"/>
<stop offset="0.22" stop-color="#45535C" stop-opacity="0.37"/>
<stop offset="0.3" stop-color="#2C353A" stop-opacity="0.23"/>
<stop offset="0.37" stop-color="#191E21" stop-opacity="0.13"/>
<stop offset="0.44" stop-color="#0B0D0E" stop-opacity="0.06"/>
<stop offset="0.52" stop-color="#030304" stop-opacity="0.01"/>
<stop offset="0.61" stop-opacity="0"/>
</radialGradient>
<radialGradient id="paint2_radial_933_11415" cx="0" cy="0" r="1" gradientUnits="userSpaceOnUse" gradientTransform="translate(570.575 260.833) scale(12.5634 12.5399)">
<stop stop-color="#FF7500"/>
<stop offset="0.02" stop-color="#B1D6EB" stop-opacity="0.94"/>
<stop offset="0.08" stop-color="#88A5B4" stop-opacity="0.72"/>
<stop offset="0.15" stop-color="#637984" stop-opacity="0.53"/>
<stop offset="0.22" stop-color="#45535C" stop-opacity="0.37"/>
<stop offset="0.3" stop-color="#2C353A" stop-opacity="0.23"/>
<stop offset="0.37" stop-color="#191E21" stop-opacity="0.13"/>
<stop offset="0.44" stop-color="#0B0D0E" stop-opacity="0.06"/>
<stop offset="0.52" stop-color="#030304" stop-opacity="0.01"/>
<stop offset="0.61" stop-opacity="0"/>
</radialGradient>
<radialGradient id="paint3_radial_933_11415" cx="0" cy="0" r="1" gradientUnits="userSpaceOnUse" gradientTransform="translate(358.532 195.891) scale(12.5634 12.5399)">
<stop stop-color="#BCE4FA"/>
<stop offset="0.02" stop-color="#B1D6EB" stop-opacity="0.94"/>
<stop offset="0.08" stop-color="#88A5B4" stop-opacity="0.72"/>
<stop offset="0.15" stop-color="#637984" stop-opacity="0.53"/>
<stop offset="0.22" stop-color="#45535C" stop-opacity="0.37"/>
<stop offset="0.3" stop-color="#2C353A" stop-opacity="0.23"/>
<stop offset="0.37" stop-color="#191E21" stop-opacity="0.13"/>
<stop offset="0.44" stop-color="#0B0D0E" stop-opacity="0.06"/>
<stop offset="0.52" stop-color="#030304" stop-opacity="0.01"/>
<stop offset="0.61" stop-opacity="0"/>
</radialGradient>
<radialGradient id="paint4_radial_933_11415" cx="0" cy="0" r="1" gradientUnits="userSpaceOnUse" gradientTransform="translate(417.985 109.317) scale(12.5634 12.5399)">
<stop stop-color="#FF7500"/>
<stop offset="0.02" stop-color="#B1D6EB" stop-opacity="0.94"/>
<stop offset="0.08" stop-color="#88A5B4" stop-opacity="0.72"/>
<stop offset="0.15" stop-color="#637984" stop-opacity="0.53"/>
<stop offset="0.22" stop-color="#45535C" stop-opacity="0.37"/>
<stop offset="0.3" stop-color="#2C353A" stop-opacity="0.23"/>
<stop offset="0.37" stop-color="#191E21" stop-opacity="0.13"/>
<stop offset="0.44" stop-color="#0B0D0E" stop-opacity="0.06"/>
<stop offset="0.52" stop-color="#030304" stop-opacity="0.01"/>
<stop offset="0.61" stop-opacity="0"/>
</radialGradient>
<radialGradient id="paint5_radial_933_11415" cx="0" cy="0" r="1" gradientUnits="userSpaceOnUse" gradientTransform="translate(39.954 83.0165) scale(12.5634 12.5399)">
<stop stop-color="#FF7500"/>
<stop offset="0.02" stop-color="#B1D6EB" stop-opacity="0.94"/>
<stop offset="0.08" stop-color="#88A5B4" stop-opacity="0.72"/>
<stop offset="0.15" stop-color="#637984" stop-opacity="0.53"/>
<stop offset="0.22" stop-color="#45535C" stop-opacity="0.37"/>
<stop offset="0.3" stop-color="#2C353A" stop-opacity="0.23"/>
<stop offset="0.37" stop-color="#191E21" stop-opacity="0.13"/>
<stop offset="0.44" stop-color="#0B0D0E" stop-opacity="0.06"/>
<stop offset="0.52" stop-color="#030304" stop-opacity="0.01"/>
<stop offset="0.61" stop-opacity="0"/>
</radialGradient>
<radialGradient id="paint6_radial_933_11415" cx="0" cy="0" r="1" gradientUnits="userSpaceOnUse" gradientTransform="translate(213.727 296.412) scale(12.5634 12.5399)">
<stop stop-color="#BCE4FA"/>
<stop offset="0.02" stop-color="#B1D6EB" stop-opacity="0.94"/>
<stop offset="0.08" stop-color="#88A5B4" stop-opacity="0.72"/>
<stop offset="0.15" stop-color="#637984" stop-opacity="0.53"/>
<stop offset="0.22" stop-color="#45535C" stop-opacity="0.37"/>
<stop offset="0.3" stop-color="#2C353A" stop-opacity="0.23"/>
<stop offset="0.37" stop-color="#191E21" stop-opacity="0.13"/>
<stop offset="0.44" stop-color="#0B0D0E" stop-opacity="0.06"/>
<stop offset="0.52" stop-color="#030304" stop-opacity="0.01"/>
<stop offset="0.61" stop-opacity="0"/>
</radialGradient>
<radialGradient id="paint7_radial_933_11415" cx="0" cy="0" r="1" gradientUnits="userSpaceOnUse" gradientTransform="translate(330.477 234.563) scale(12.5634 12.5399)">
<stop stop-color="#FF7500"/>
<stop offset="0.02" stop-color="#B1D6EB" stop-opacity="0.94"/>
<stop offset="0.08" stop-color="#88A5B4" stop-opacity="0.72"/>
<stop offset="0.15" stop-color="#637984" stop-opacity="0.53"/>
<stop offset="0.22" stop-color="#45535C" stop-opacity="0.37"/>
<stop offset="0.3" stop-color="#2C353A" stop-opacity="0.23"/>
<stop offset="0.37" stop-color="#191E21" stop-opacity="0.13"/>
<stop offset="0.44" stop-color="#0B0D0E" stop-opacity="0.06"/>
<stop offset="0.52" stop-color="#030304" stop-opacity="0.01"/>
<stop offset="0.61" stop-opacity="0"/>
</radialGradient>
<radialGradient id="paint8_radial_933_11415" cx="0" cy="0" r="1" gradientUnits="userSpaceOnUse" gradientTransform="translate(251.532 34.6806) scale(12.5634 12.5399)">
<stop stop-color="#FF7500"/>
<stop offset="0.02" stop-color="#B1D6EB" stop-opacity="0.94"/>
<stop offset="0.08" stop-color="#88A5B4" stop-opacity="0.72"/>
<stop offset="0.15" stop-color="#637984" stop-opacity="0.53"/>
<stop offset="0.22" stop-color="#45535C" stop-opacity="0.37"/>
<stop offset="0.3" stop-color="#2C353A" stop-opacity="0.23"/>
<stop offset="0.37" stop-color="#191E21" stop-opacity="0.13"/>
<stop offset="0.44" stop-color="#0B0D0E" stop-opacity="0.06"/>
<stop offset="0.52" stop-color="#030304" stop-opacity="0.01"/>
<stop offset="0.61" stop-opacity="0"/>
</radialGradient>
<radialGradient id="paint9_radial_933_11415" cx="0" cy="0" r="1" gradientUnits="userSpaceOnUse" gradientTransform="translate(476.278 164.192) scale(12.5634 12.5399)">
<stop stop-color="#FF7500"/>
<stop offset="0.02" stop-color="#B1D6EB" stop-opacity="0.94"/>
<stop offset="0.08" stop-color="#88A5B4" stop-opacity="0.72"/>
<stop offset="0.15" stop-color="#637984" stop-opacity="0.53"/>
<stop offset="0.22" stop-color="#45535C" stop-opacity="0.37"/>
<stop offset="0.3" stop-color="#2C353A" stop-opacity="0.23"/>
<stop offset="0.37" stop-color="#191E21" stop-opacity="0.13"/>
<stop offset="0.44" stop-color="#0B0D0E" stop-opacity="0.06"/>
<stop offset="0.52" stop-color="#030304" stop-opacity="0.01"/>
<stop offset="0.61" stop-opacity="0"/>
</radialGradient>
<radialGradient id="paint10_radial_933_11415" cx="0" cy="0" r="1" gradientUnits="userSpaceOnUse" gradientTransform="translate(709.501 78.3431) scale(12.5634 12.5399)">
<stop stop-color="#BCE4FA"/>
<stop offset="0.02" stop-color="#B1D6EB" stop-opacity="0.94"/>
<stop offset="0.08" stop-color="#88A5B4" stop-opacity="0.72"/>
<stop offset="0.15" stop-color="#637984" stop-opacity="0.53"/>
<stop offset="0.22" stop-color="#45535C" stop-opacity="0.37"/>
<stop offset="0.3" stop-color="#2C353A" stop-opacity="0.23"/>
<stop offset="0.37" stop-color="#191E21" stop-opacity="0.13"/>
<stop offset="0.44" stop-color="#0B0D0E" stop-opacity="0.06"/>
<stop offset="0.52" stop-color="#030304" stop-opacity="0.01"/>
<stop offset="0.61" stop-opacity="0"/>
</radialGradient>
</defs>
</svg>
