<svg width="136" height="87" viewBox="0 0 136 87" fill="none" xmlns="http://www.w3.org/2000/svg">
<path d="M2.40653 18.8164V5.69441H4.78253V11.4544L4.47653 11.1484H11.8565L11.5505 11.4544V5.69441H13.9265V18.8164H11.5505V12.8764L11.8565 13.1824H4.47653L4.78253 12.8764V18.8164H2.40653ZM20.7781 18.9784C20.0581 18.9784 19.4101 18.8704 18.8341 18.6544C18.2581 18.4264 17.7541 18.0964 17.3221 17.6644C16.9021 17.2324 16.5781 16.7104 16.3501 16.0984C16.1341 15.4864 16.0261 14.7964 16.0261 14.0284C16.0261 13.0444 16.2121 12.1804 16.5841 11.4364C16.9681 10.6924 17.5141 10.1104 18.2221 9.69041C18.9301 9.27041 19.7821 9.06041 20.7781 9.06041C21.4861 9.06041 22.1281 9.17441 22.7041 9.40241C23.2801 9.63041 23.7721 9.96041 24.1801 10.3924C24.6001 10.8244 24.9241 11.3464 25.1521 11.9584C25.3801 12.5584 25.4941 13.2484 25.4941 14.0284C25.4941 15.0004 25.3021 15.8584 24.9181 16.6024C24.5461 17.3464 24.0061 17.9284 23.2981 18.3484C22.6021 18.7684 21.7621 18.9784 20.7781 18.9784ZM20.7601 17.1244C21.2521 17.1244 21.6841 17.0104 22.0561 16.7824C22.4281 16.5424 22.7161 16.1944 22.9201 15.7384C23.1241 15.2704 23.2261 14.7004 23.2261 14.0284C23.2261 13.5244 23.1661 13.0804 23.0461 12.6964C22.9381 12.3004 22.7761 11.9704 22.5601 11.7064C22.3441 11.4424 22.0861 11.2444 21.7861 11.1124C21.4861 10.9804 21.1501 10.9144 20.7781 10.9144C20.2861 10.9144 19.8481 11.0344 19.4641 11.2744C19.0921 11.5024 18.8041 11.8504 18.6001 12.3184C18.3961 12.7744 18.2941 13.3444 18.2941 14.0284C18.2941 14.5324 18.3481 14.9824 18.4561 15.3784C18.5761 15.7624 18.7441 16.0864 18.9601 16.3504C19.1761 16.6024 19.4341 16.7944 19.7341 16.9264C20.0461 17.0584 20.3881 17.1244 20.7601 17.1244ZM30.7996 18.9964C29.9476 18.9964 29.2156 18.8644 28.6036 18.6004C27.9916 18.3244 27.5176 17.9464 27.1816 17.4664C26.8576 16.9864 26.6956 16.4284 26.6956 15.7924H28.9096C28.9216 16.3444 29.1076 16.7464 29.4676 16.9984C29.8276 17.2504 30.2956 17.3764 30.8716 17.3764C31.4356 17.3764 31.8616 17.2744 32.1496 17.0704C32.4496 16.8544 32.5996 16.5604 32.5996 16.1884C32.5996 15.8884 32.5336 15.6604 32.4016 15.5044C32.2696 15.3364 32.0536 15.2104 31.7536 15.1264C31.4536 15.0304 31.0576 14.9464 30.5656 14.8744C29.7616 14.7544 29.0896 14.5924 28.5496 14.3884C28.0096 14.1724 27.6076 13.8784 27.3436 13.5064C27.0796 13.1344 26.9476 12.6424 26.9476 12.0304C26.9476 11.4304 27.1096 10.9084 27.4336 10.4644C27.7576 10.0204 28.2136 9.67841 28.8016 9.43841C29.3896 9.18641 30.0796 9.06041 30.8716 9.06041C31.6396 9.06041 32.3056 9.18641 32.8696 9.43841C33.4456 9.67841 33.8896 10.0264 34.2016 10.4824C34.5256 10.9264 34.6936 11.4604 34.7056 12.0844H32.4916C32.4916 11.7484 32.4196 11.4784 32.2756 11.2744C32.1436 11.0584 31.9516 10.9024 31.6996 10.8064C31.4476 10.7104 31.1536 10.6624 30.8176 10.6624C30.3136 10.6624 29.9176 10.7704 29.6296 10.9864C29.3416 11.1904 29.1976 11.4724 29.1976 11.8324C29.1976 12.0964 29.2696 12.3124 29.4136 12.4804C29.5696 12.6364 29.8156 12.7624 30.1516 12.8584C30.4876 12.9544 30.9196 13.0384 31.4476 13.1104C32.0236 13.1944 32.5216 13.3024 32.9416 13.4344C33.3736 13.5664 33.7336 13.7464 34.0216 13.9744C34.3096 14.1904 34.5256 14.4664 34.6696 14.8024C34.8256 15.1264 34.9036 15.5224 34.9036 15.9904C34.9036 16.9504 34.5256 17.6944 33.7696 18.2224C33.0256 18.7384 32.0356 18.9964 30.7996 18.9964ZM39.6994 18.8164C39.1114 18.8164 38.6494 18.7324 38.3134 18.5644C37.9894 18.3844 37.7614 18.1324 37.6294 17.8084C37.4974 17.4844 37.4314 17.0944 37.4314 16.6384V11.0584H35.6674V9.24041H37.4314V6.54041L39.6634 6.30641V9.24041H41.6974V11.0584H39.6634V16.2244C39.6634 16.5244 39.7294 16.7284 39.8614 16.8364C39.9934 16.9324 40.1974 16.9804 40.4734 16.9804H41.6974V18.8164H39.6994ZM46.4386 18.9784C45.8626 18.9784 45.3346 18.8764 44.8546 18.6724C44.3866 18.4564 43.9786 18.1384 43.6306 17.7184C43.2946 17.2984 43.0366 16.7824 42.8566 16.1704C42.6766 15.5464 42.5866 14.8324 42.5866 14.0284C42.5866 12.9364 42.7426 12.0244 43.0546 11.2924C43.3786 10.5484 43.8286 9.99041 44.4046 9.61841C44.9926 9.24641 45.6706 9.06041 46.4386 9.06041C46.9666 9.06041 47.4346 9.14441 47.8426 9.31241C48.2626 9.46841 48.6226 9.69041 48.9226 9.97841C49.2226 10.2664 49.4506 10.6084 49.6066 11.0044H49.7326L49.8226 9.24041H51.9826V18.8164H49.7326V17.0344H49.6066C49.3786 17.6224 48.9886 18.0964 48.4366 18.4564C47.8846 18.8044 47.2186 18.9784 46.4386 18.9784ZM47.2846 17.1424C47.8246 17.1424 48.2686 17.0164 48.6166 16.7644C48.9766 16.5124 49.2466 16.1884 49.4266 15.7924C49.6066 15.3844 49.6966 14.9584 49.6966 14.5144V13.5244C49.6966 13.0684 49.6066 12.6424 49.4266 12.2464C49.2466 11.8384 48.9766 11.5144 48.6166 11.2744C48.2686 11.0224 47.8246 10.8964 47.2846 10.8964C46.8046 10.8964 46.3846 11.0104 46.0246 11.2384C45.6646 11.4664 45.3826 11.8144 45.1786 12.2824C44.9746 12.7384 44.8726 13.3204 44.8726 14.0284C44.8726 14.7124 44.9746 15.2884 45.1786 15.7564C45.3826 16.2244 45.6646 16.5724 46.0246 16.8004C46.3846 17.0284 46.8046 17.1424 47.2846 17.1424ZM57.548 18.9784C56.972 18.9784 56.444 18.8764 55.964 18.6724C55.496 18.4564 55.088 18.1384 54.74 17.7184C54.404 17.2984 54.146 16.7824 53.966 16.1704C53.786 15.5464 53.696 14.8324 53.696 14.0284C53.696 12.9364 53.852 12.0244 54.164 11.2924C54.488 10.5484 54.938 9.99041 55.514 9.61841C56.102 9.24641 56.78 9.06041 57.548 9.06041C58.076 9.06041 58.544 9.14441 58.952 9.31241C59.372 9.46841 59.732 9.69041 60.032 9.97841C60.332 10.2664 60.56 10.6084 60.716 11.0044H60.842V5.69441H63.092L63.074 18.8164H60.914L60.842 17.0344H60.716C60.488 17.6224 60.098 18.0964 59.546 18.4564C58.994 18.8044 58.328 18.9784 57.548 18.9784ZM58.394 17.1424C58.934 17.1424 59.378 17.0164 59.726 16.7644C60.086 16.5124 60.356 16.1884 60.536 15.7924C60.716 15.3844 60.806 14.9584 60.806 14.5144V13.5244C60.806 13.1764 60.752 12.8464 60.644 12.5344C60.548 12.2224 60.398 11.9464 60.194 11.7064C60.002 11.4544 59.75 11.2564 59.438 11.1124C59.138 10.9684 58.79 10.8964 58.394 10.8964C57.914 10.8964 57.494 11.0104 57.134 11.2384C56.774 11.4664 56.492 11.8144 56.288 12.2824C56.084 12.7384 55.982 13.3204 55.982 14.0284C55.982 14.7124 56.084 15.2884 56.288 15.7564C56.492 16.2244 56.774 16.5724 57.134 16.8004C57.494 17.0284 57.914 17.1424 58.394 17.1424ZM67.6108 18.8164L64.2628 9.22241H66.6928L68.3668 14.7304L68.9608 16.9264H69.0328L69.6268 14.7484L71.3008 9.22241H73.7308L70.4008 18.8164H67.6108ZM74.9091 18.8164V9.24041H77.1591V18.8164H74.9091ZM74.9091 7.89041V5.69441H77.1591V7.89041H74.9091ZM83.6889 18.9784C82.9809 18.9784 82.3389 18.8644 81.7629 18.6364C81.1869 18.3964 80.6889 18.0604 80.2689 17.6284C79.8489 17.1844 79.5309 16.6624 79.3149 16.0624C79.0989 15.4504 78.9909 14.7724 78.9909 14.0284C78.9909 13.0204 79.1829 12.1504 79.5669 11.4184C79.9629 10.6744 80.5149 10.0984 81.2229 9.69041C81.9429 9.27041 82.7889 9.06041 83.7609 9.06041C84.5649 9.06041 85.2789 9.21041 85.9029 9.51041C86.5269 9.81041 87.0249 10.2304 87.3969 10.7704C87.7809 11.2984 87.9909 11.9164 88.0269 12.6244H85.8309C85.7709 12.2524 85.6389 11.9404 85.4349 11.6884C85.2429 11.4364 84.9969 11.2444 84.6969 11.1124C84.3969 10.9804 84.0669 10.9144 83.7069 10.9144C83.1909 10.9144 82.7469 11.0464 82.3749 11.3104C82.0029 11.5624 81.7209 11.9224 81.5289 12.3904C81.3489 12.8584 81.2589 13.4044 81.2589 14.0284C81.2589 14.7124 81.3609 15.2824 81.5649 15.7384C81.7689 16.1944 82.0509 16.5424 82.4109 16.7824C82.7829 17.0104 83.2089 17.1244 83.6889 17.1244C84.1089 17.1244 84.4749 17.0524 84.7869 16.9084C85.0989 16.7524 85.3449 16.5424 85.5249 16.2784C85.7169 16.0024 85.8309 15.6904 85.8669 15.3424H88.0629C88.0149 16.0744 87.7989 16.7164 87.4149 17.2684C87.0309 17.8084 86.5209 18.2284 85.8849 18.5284C85.2489 18.8284 84.5169 18.9784 83.6889 18.9784ZM93.7934 18.9784C92.8214 18.9784 91.9934 18.7804 91.3094 18.3844C90.6374 17.9764 90.1214 17.4064 89.7614 16.6744C89.4014 15.9304 89.2214 15.0664 89.2214 14.0824C89.2214 13.0624 89.4014 12.1804 89.7614 11.4364C90.1214 10.6804 90.6374 10.0984 91.3094 9.69041C91.9814 9.28241 92.7794 9.07841 93.7034 9.07841C94.7594 9.07841 95.6234 9.31241 96.2954 9.78041C96.9794 10.2364 97.4714 10.8724 97.7714 11.6884C98.0714 12.5044 98.1734 13.4404 98.0774 14.4964H91.4174C91.4174 15.1084 91.5134 15.6244 91.7054 16.0444C91.9094 16.4524 92.1854 16.7644 92.5334 16.9804C92.8934 17.1844 93.3134 17.2864 93.7934 17.2864C94.3574 17.2864 94.8254 17.1544 95.1974 16.8904C95.5694 16.6144 95.8094 16.2604 95.9174 15.8284H98.0234C97.9514 16.4764 97.7234 17.0404 97.3394 17.5204C96.9554 17.9884 96.4574 18.3484 95.8454 18.6004C95.2334 18.8524 94.5494 18.9784 93.7934 18.9784ZM91.4174 13.2904L91.2194 13.0564H96.0974L95.8814 13.3084C95.9054 12.7204 95.8274 12.2404 95.6474 11.8684C95.4674 11.4964 95.2094 11.2204 94.8734 11.0404C94.5374 10.8604 94.1474 10.7704 93.7034 10.7704C93.2474 10.7704 92.8514 10.8664 92.5154 11.0584C92.1794 11.2504 91.9154 11.5384 91.7234 11.9224C91.5314 12.2944 91.4294 12.7504 91.4174 13.2904Z" fill="#454545"/>
<path d="M6.14453 82.2578L6.13053 79.9478H1.41253V78.4078L5.64053 72.1638H8.20253V78.2678H9.51853L9.50453 79.9478H8.20253V82.2578H6.14453ZM3.45653 78.2678H6.14453V74.3618L3.45653 78.2678ZM10.7684 82.2578V80.3678H12.7424V82.2578H10.7684ZM17.9253 82.3838C17.3186 82.3838 16.7773 82.2858 16.3013 82.0898C15.8253 81.8845 15.4193 81.5765 15.0833 81.1658C14.7566 80.7551 14.5046 80.2418 14.3273 79.6258C14.1593 79.0098 14.0753 78.2818 14.0753 77.4418C14.0753 76.5271 14.1593 75.7338 14.3273 75.0618C14.5046 74.3805 14.7613 73.8158 15.0973 73.3678C15.4333 72.9198 15.8486 72.5885 16.3433 72.3738C16.838 72.1498 17.4073 72.0378 18.0513 72.0378C18.7326 72.0378 19.3206 72.1545 19.8153 72.3878C20.3193 72.6118 20.716 72.9291 21.0053 73.3398C21.304 73.7505 21.4813 74.2358 21.5373 74.7958H19.5353C19.498 74.5905 19.4093 74.4131 19.2693 74.2638C19.1293 74.1145 18.952 74.0025 18.7373 73.9278C18.532 73.8531 18.2986 73.8158 18.0373 73.8158C17.692 73.8158 17.398 73.8858 17.1553 74.0258C16.922 74.1565 16.7306 74.3478 16.5813 74.5998C16.432 74.8518 16.3246 75.1598 16.2593 75.5238C16.194 75.8785 16.1613 76.2845 16.1613 76.7418H16.2453C16.3666 76.5085 16.53 76.3031 16.7353 76.1258C16.95 75.9485 17.2066 75.8131 17.5053 75.7198C17.804 75.6171 18.1306 75.5658 18.4853 75.5658C19.12 75.5658 19.6706 75.7058 20.1373 75.9858C20.6133 76.2658 20.982 76.6578 21.2433 77.1618C21.5046 77.6565 21.6353 78.2351 21.6353 78.8978C21.6353 79.6351 21.4766 80.2651 21.1593 80.7878C20.8513 81.3011 20.4173 81.6978 19.8573 81.9778C19.3066 82.2485 18.6626 82.3838 17.9253 82.3838ZM17.9673 80.5918C18.294 80.5918 18.5786 80.5218 18.8213 80.3818C19.064 80.2325 19.2506 80.0271 19.3813 79.7658C19.512 79.5045 19.5773 79.1965 19.5773 78.8418C19.5773 78.4871 19.512 78.1838 19.3813 77.9318C19.2506 77.6705 19.064 77.4698 18.8213 77.3298C18.588 77.1898 18.3033 77.1198 17.9673 77.1198C17.6406 77.1198 17.3513 77.1945 17.0993 77.3438C16.8566 77.4931 16.67 77.6985 16.5393 77.9598C16.4086 78.2211 16.3433 78.5245 16.3433 78.8698C16.3433 79.2245 16.4086 79.5325 16.5393 79.7938C16.6793 80.0458 16.8706 80.2418 17.1133 80.3818C17.356 80.5218 17.6406 80.5918 17.9673 80.5918ZM22.6153 83.4058L26.7873 72.0518H28.7613L24.5753 83.4058H22.6153ZM33.8088 82.3838C33.0621 82.3838 32.4181 82.2531 31.8768 81.9918C31.3354 81.7211 30.9108 81.3478 30.6028 80.8718C30.3041 80.3865 30.1454 79.8265 30.1268 79.1918H32.2128C32.2221 79.4718 32.2921 79.7191 32.4228 79.9338C32.5628 80.1391 32.7494 80.3025 32.9828 80.4238C33.2254 80.5358 33.5054 80.5918 33.8228 80.5918C34.3454 80.5918 34.7514 80.4378 35.0408 80.1298C35.3394 79.8125 35.4888 79.4065 35.4888 78.9118C35.4888 78.5665 35.4188 78.2631 35.2788 78.0018C35.1481 77.7405 34.9568 77.5398 34.7048 77.3998C34.4528 77.2505 34.1541 77.1758 33.8088 77.1758C33.4074 77.1758 33.0761 77.2691 32.8148 77.4558C32.5628 77.6331 32.3854 77.8618 32.2828 78.1418H30.3228L30.5888 72.1638H36.9728V73.9558H32.4088L32.3108 76.0698L32.3948 76.0978C32.5908 75.9018 32.8568 75.7478 33.1928 75.6358C33.5288 75.5238 33.8834 75.4678 34.2568 75.4678C34.7701 75.4678 35.2274 75.5518 35.6288 75.7198C36.0394 75.8785 36.3894 76.1118 36.6788 76.4198C36.9681 76.7185 37.1874 77.0778 37.3368 77.4978C37.4954 77.9085 37.5748 78.3611 37.5748 78.8558C37.5748 79.5558 37.4208 80.1718 37.1128 80.7038C36.8141 81.2358 36.3801 81.6511 35.8108 81.9498C35.2508 82.2391 34.5834 82.3838 33.8088 82.3838ZM42.3192 83.1958V72.0518H44.1812V83.1958H42.3192ZM51.1373 82.2578V75.4818H48.5893V73.9138H49.0093C49.6813 73.9138 50.2086 73.7551 50.5913 73.4378C50.9833 73.1111 51.2026 72.6865 51.2493 72.1638H53.1953V82.2578H51.1373ZM58.7873 82.3838C58.0406 82.3838 57.3966 82.2531 56.8553 81.9918C56.3139 81.7211 55.8893 81.3478 55.5813 80.8718C55.2826 80.3865 55.1239 79.8265 55.1053 79.1918H57.1913C57.2006 79.4718 57.2706 79.7191 57.4013 79.9338C57.5413 80.1391 57.7279 80.3025 57.9613 80.4238C58.2039 80.5358 58.4839 80.5918 58.8013 80.5918C59.3239 80.5918 59.7299 80.4378 60.0193 80.1298C60.3179 79.8125 60.4673 79.4065 60.4673 78.9118C60.4673 78.5665 60.3973 78.2631 60.2573 78.0018C60.1266 77.7405 59.9353 77.5398 59.6833 77.3998C59.4313 77.2505 59.1326 77.1758 58.7873 77.1758C58.3859 77.1758 58.0546 77.2691 57.7933 77.4558C57.5413 77.6331 57.3639 77.8618 57.2613 78.1418H55.3013L55.5673 72.1638H61.9513V73.9558H57.3873L57.2893 76.0698L57.3733 76.0978C57.5693 75.9018 57.8353 75.7478 58.1713 75.6358C58.5073 75.5238 58.8619 75.4678 59.2353 75.4678C59.7486 75.4678 60.2059 75.5518 60.6073 75.7198C61.0179 75.8785 61.3679 76.1118 61.6573 76.4198C61.9466 76.7185 62.1659 77.0778 62.3153 77.4978C62.4739 77.9085 62.5533 78.3611 62.5533 78.8558C62.5533 79.5558 62.3993 80.1718 62.0913 80.7038C61.7926 81.2358 61.3586 81.6511 60.7893 81.9498C60.2293 82.2391 59.5619 82.3838 58.7873 82.3838ZM67.6773 82.3838C67.0706 82.3838 66.5293 82.2858 66.0533 82.0898C65.5773 81.8845 65.1713 81.5765 64.8353 81.1658C64.5086 80.7551 64.2566 80.2418 64.0793 79.6258C63.9113 79.0098 63.8273 78.2818 63.8273 77.4418C63.8273 76.5271 63.9113 75.7338 64.0793 75.0618C64.2566 74.3805 64.5133 73.8158 64.8493 73.3678C65.1853 72.9198 65.6006 72.5885 66.0953 72.3738C66.5899 72.1498 67.1593 72.0378 67.8033 72.0378C68.4846 72.0378 69.0726 72.1545 69.5673 72.3878C70.0713 72.6118 70.4679 72.9291 70.7573 73.3398C71.0559 73.7505 71.2333 74.2358 71.2893 74.7958H69.2873C69.2499 74.5905 69.1613 74.4131 69.0213 74.2638C68.8813 74.1145 68.7039 74.0025 68.4893 73.9278C68.2839 73.8531 68.0506 73.8158 67.7893 73.8158C67.4439 73.8158 67.1499 73.8858 66.9073 74.0258C66.6739 74.1565 66.4826 74.3478 66.3333 74.5998C66.1839 74.8518 66.0766 75.1598 66.0113 75.5238C65.9459 75.8785 65.9133 76.2845 65.9133 76.7418H65.9973C66.1186 76.5085 66.2819 76.3031 66.4873 76.1258C66.7019 75.9485 66.9586 75.8131 67.2573 75.7198C67.5559 75.6171 67.8826 75.5658 68.2373 75.5658C68.8719 75.5658 69.4226 75.7058 69.8893 75.9858C70.3653 76.2658 70.7339 76.6578 70.9953 77.1618C71.2566 77.6565 71.3873 78.2351 71.3873 78.8978C71.3873 79.6351 71.2286 80.2651 70.9113 80.7878C70.6033 81.3011 70.1693 81.6978 69.6093 81.9778C69.0586 82.2485 68.4146 82.3838 67.6773 82.3838ZM67.7193 80.5918C68.0459 80.5918 68.3306 80.5218 68.5733 80.3818C68.8159 80.2325 69.0026 80.0271 69.1333 79.7658C69.2639 79.5045 69.3293 79.1965 69.3293 78.8418C69.3293 78.4871 69.2639 78.1838 69.1333 77.9318C69.0026 77.6705 68.8159 77.4698 68.5733 77.3298C68.3399 77.1898 68.0553 77.1198 67.7193 77.1198C67.3926 77.1198 67.1033 77.1945 66.8513 77.3438C66.6086 77.4931 66.4219 77.6985 66.2913 77.9598C66.1606 78.2211 66.0953 78.5245 66.0953 78.8698C66.0953 79.2245 66.1606 79.5325 66.2913 79.7938C66.4313 80.0458 66.6226 80.2418 66.8653 80.3818C67.1079 80.5218 67.3926 80.5918 67.7193 80.5918ZM72.5073 82.2578V81.9638C72.5073 81.3665 72.5959 80.8391 72.7733 80.3818C72.9506 79.9245 73.1839 79.5231 73.4733 79.1778C73.7719 78.8231 74.0939 78.5105 74.4393 78.2398C74.7939 77.9598 75.1439 77.7031 75.4893 77.4698C75.8439 77.2271 76.1659 76.9891 76.4553 76.7558C76.7539 76.5225 76.9919 76.2798 77.1693 76.0278C77.3466 75.7665 77.4353 75.4771 77.4353 75.1598C77.4353 74.8798 77.3746 74.6371 77.2533 74.4318C77.1319 74.2265 76.9639 74.0725 76.7493 73.9698C76.5439 73.8578 76.2966 73.8018 76.0073 73.8018C75.7086 73.8018 75.4426 73.8671 75.2093 73.9978C74.9853 74.1191 74.8173 74.3058 74.7053 74.5578C74.5933 74.8005 74.5513 75.0991 74.5793 75.4538H72.5353C72.5166 74.7631 72.6519 74.1611 72.9413 73.6478C73.2399 73.1345 73.6599 72.7378 74.2013 72.4578C74.7519 72.1778 75.3959 72.0378 76.1333 72.0378C76.8239 72.0378 77.4259 72.1591 77.9393 72.4018C78.4526 72.6445 78.8493 72.9945 79.1293 73.4518C79.4186 73.8998 79.5633 74.4365 79.5633 75.0618C79.5633 75.4911 79.4933 75.8738 79.3533 76.2098C79.2226 76.5458 79.0453 76.8538 78.8213 77.1338C78.5973 77.4138 78.3453 77.6705 78.0653 77.9038C77.7853 78.1278 77.4959 78.3425 77.1973 78.5478C76.9079 78.7531 76.6233 78.9585 76.3433 79.1638C76.0726 79.3598 75.8299 79.5651 75.6153 79.7798C75.4006 79.9851 75.2373 80.2091 75.1253 80.4518H79.6613V82.2578H72.5073ZM84.523 82.2578V74.9078H85.531L85.601 76.2658H85.657C85.8157 75.7991 86.0957 75.4398 86.497 75.1878C86.8983 74.9358 87.3463 74.8098 87.841 74.8098C87.925 74.8098 88.0043 74.8145 88.079 74.8238C88.1537 74.8238 88.2237 74.8285 88.289 74.8378V75.9158C88.2237 75.9065 88.1537 75.9018 88.079 75.9018C88.0043 75.8925 87.925 75.8878 87.841 75.8878C87.4117 75.8878 87.0383 75.9671 86.721 76.1258C86.4037 76.2845 86.1517 76.5131 85.965 76.8118C85.7877 77.1011 85.6803 77.4558 85.643 77.8758V82.2578H84.523ZM92.1632 82.3838C91.4632 82.3838 90.8612 82.2298 90.3572 81.9218C89.8625 81.6138 89.4845 81.1751 89.2232 80.6058C88.9618 80.0365 88.8312 79.3738 88.8312 78.6178C88.8312 77.8431 88.9618 77.1711 89.2232 76.6018C89.4845 76.0231 89.8578 75.5798 90.3432 75.2718C90.8285 74.9545 91.4212 74.7958 92.1212 74.7958C92.8678 74.7958 93.4838 74.9638 93.9692 75.2998C94.4545 75.6358 94.8045 76.1025 95.0192 76.6998C95.2432 77.2971 95.3272 77.9878 95.2712 78.7718H89.9372C89.9465 79.3785 90.0398 79.8871 90.2172 80.2978C90.4038 80.6991 90.6605 81.0025 90.9872 81.2078C91.3232 81.4038 91.7152 81.5018 92.1632 81.5018C92.7045 81.5018 93.1478 81.3665 93.4932 81.0958C93.8385 80.8251 94.0578 80.4705 94.1512 80.0318H95.2292C95.1732 80.5265 95.0005 80.9511 94.7112 81.3058C94.4312 81.6605 94.0672 81.9311 93.6192 82.1178C93.1805 82.2951 92.6952 82.3838 92.1632 82.3838ZM89.9512 78.1278L89.8252 77.9598H94.2912L94.1652 78.1558C94.1745 77.5678 94.0952 77.0965 93.9272 76.7418C93.7592 76.3778 93.5165 76.1118 93.1992 75.9438C92.8912 75.7665 92.5318 75.6778 92.1212 75.6778C91.6918 75.6778 91.3185 75.7711 91.0012 75.9578C90.6838 76.1445 90.4318 76.4198 90.2452 76.7838C90.0678 77.1385 89.9698 77.5865 89.9512 78.1278ZM98.3413 82.2578L95.6393 74.9078H96.8713L98.5233 79.7378L99.0133 81.2498H99.0553L99.5173 79.7378L101.169 74.9078H102.387L99.7133 82.2578H98.3413ZM103.39 82.2578V74.9078H104.524V82.2578H103.39ZM103.39 73.6898V72.0518H104.524V73.6898H103.39ZM109.472 82.3838C108.772 82.3838 108.17 82.2298 107.666 81.9218C107.171 81.6138 106.793 81.1751 106.532 80.6058C106.27 80.0365 106.14 79.3738 106.14 78.6178C106.14 77.8431 106.27 77.1711 106.532 76.6018C106.793 76.0231 107.166 75.5798 107.652 75.2718C108.137 74.9545 108.73 74.7958 109.43 74.7958C110.176 74.7958 110.792 74.9638 111.278 75.2998C111.763 75.6358 112.113 76.1025 112.328 76.6998C112.552 77.2971 112.636 77.9878 112.58 78.7718H107.246C107.255 79.3785 107.348 79.8871 107.526 80.2978C107.712 80.6991 107.969 81.0025 108.296 81.2078C108.632 81.4038 109.024 81.5018 109.472 81.5018C110.013 81.5018 110.456 81.3665 110.802 81.0958C111.147 80.8251 111.366 80.4705 111.46 80.0318H112.538C112.482 80.5265 112.309 80.9511 112.02 81.3058C111.74 81.6605 111.376 81.9311 110.928 82.1178C110.489 82.2951 110.004 82.3838 109.472 82.3838ZM107.26 78.1278L107.134 77.9598H111.6L111.474 78.1558C111.483 77.5678 111.404 77.0965 111.236 76.7418C111.068 76.3778 110.825 76.1118 110.508 75.9438C110.2 75.7665 109.84 75.6778 109.43 75.6778C109 75.6778 108.627 75.7711 108.31 75.9578C107.992 76.1445 107.74 76.4198 107.554 76.7838C107.376 77.1385 107.278 77.5865 107.26 78.1278ZM114.992 82.2578L113.102 74.9078H114.236L115.79 81.1658H115.846L117.26 74.9078H118.632L120.13 81.1658H120.172L121.698 74.9078H122.79L120.9 82.2578H119.402L117.946 76.3358H117.89L116.532 82.2578H114.992ZM126.239 82.3978C125.614 82.3978 125.072 82.2951 124.615 82.0898C124.167 81.8845 123.822 81.5998 123.579 81.2358C123.346 80.8718 123.229 80.4471 123.229 79.9618H124.363C124.363 80.5031 124.536 80.9045 124.881 81.1658C125.236 81.4178 125.698 81.5438 126.267 81.5438C126.836 81.5438 127.27 81.4365 127.569 81.2218C127.877 81.0071 128.031 80.7038 128.031 80.3118C128.031 80.0131 127.966 79.7845 127.835 79.6258C127.704 79.4578 127.504 79.3271 127.233 79.2338C126.962 79.1405 126.608 79.0611 126.169 78.9958C125.562 78.9118 125.054 78.7951 124.643 78.6458C124.242 78.4965 123.938 78.2865 123.733 78.0158C123.537 77.7358 123.439 77.3718 123.439 76.9238C123.439 76.4945 123.556 76.1211 123.789 75.8038C124.022 75.4771 124.349 75.2251 124.769 75.0478C125.189 74.8611 125.679 74.7678 126.239 74.7678C126.827 74.7678 127.326 74.8658 127.737 75.0618C128.157 75.2485 128.474 75.5145 128.689 75.8598C128.913 76.1958 129.03 76.5971 129.039 77.0638H127.933C127.924 76.7185 127.844 76.4431 127.695 76.2378C127.555 76.0325 127.359 75.8831 127.107 75.7898C126.864 75.6871 126.57 75.6358 126.225 75.6358C125.702 75.6358 125.296 75.7431 125.007 75.9578C124.718 76.1725 124.573 76.4571 124.573 76.8118C124.573 77.0825 124.643 77.3018 124.783 77.4698C124.923 77.6285 125.138 77.7545 125.427 77.8478C125.716 77.9318 126.09 78.0065 126.547 78.0718C126.958 78.1278 127.326 78.2025 127.653 78.2958C127.98 78.3891 128.255 78.5198 128.479 78.6878C128.712 78.8465 128.885 79.0518 128.997 79.3038C129.118 79.5465 129.179 79.8498 129.179 80.2138C129.179 80.9138 128.908 81.4551 128.367 81.8378C127.835 82.2111 127.126 82.3978 126.239 82.3978Z" fill="#454545"/>
<g clip-path="url(#clip0_933_7851)">
<mask id="mask0_933_7851" style="mask-type:luminance" maskUnits="userSpaceOnUse" x="0" y="32" width="23" height="23">
<path d="M22.9828 40.8761L14.8208 40.3483L11.7383 32.6172L8.65577 40.3483L0.511719 40.8761L6.76069 46.1962L4.70968 54.2572L11.7383 49.8068L18.7669 54.2572L16.7159 46.1962L22.9828 40.8761Z" fill="white"/>
</mask>
<g mask="url(#mask0_933_7851)">
<path d="M110.858 32.6172H0.511719V54.2572H110.858V32.6172Z" fill="#FCB002"/>
</g>
<mask id="mask1_933_7851" style="mask-type:luminance" maskUnits="userSpaceOnUse" x="24" y="32" width="24" height="23">
<path d="M47.3461 40.8761L39.1841 40.3483L36.1016 32.6172L33.025 40.3483L24.875 40.8761L31.124 46.1962L29.073 54.2572L36.1016 49.8068L43.1361 54.2572L41.0791 46.1962L47.3461 40.8761Z" fill="white"/>
</mask>
<g mask="url(#mask1_933_7851)">
<path d="M110.854 32.6172H0.507812V54.2572H110.854V32.6172Z" fill="#FCB002"/>
</g>
<mask id="mask2_933_7851" style="mask-type:luminance" maskUnits="userSpaceOnUse" x="49" y="32" width="23" height="23">
<path d="M71.7151 40.8761L63.5531 40.3483L60.4766 32.6172L57.394 40.3483L49.25 40.8761L55.499 46.1962L53.442 54.2572L60.4766 49.8068L67.5051 54.2572L65.4481 46.1962L71.7151 40.8761Z" fill="white"/>
</mask>
<g mask="url(#mask2_933_7851)">
<path d="M110.858 32.6172H0.511719V54.2572H110.858V32.6172Z" fill="#FCB002"/>
</g>
<mask id="mask3_933_7851" style="mask-type:luminance" maskUnits="userSpaceOnUse" x="73" y="32" width="24" height="23">
<path d="M96.0883 40.8761L87.9262 40.3483L84.8437 32.6172L81.7612 40.3483L73.6172 40.8761L79.8662 46.1962L77.8092 54.2572L84.8437 49.8068L91.8723 54.2572L89.8213 46.1962L96.0883 40.8761Z" fill="white"/>
</mask>
<g mask="url(#mask3_933_7851)">
<path d="M110.858 32.6172H0.511719V54.2572H110.858V32.6172Z" fill="#FCB002"/>
</g>
<mask id="mask4_933_7851" style="mask-type:luminance" maskUnits="userSpaceOnUse" x="97" y="32" width="24" height="23">
<path d="M120.452 40.8761L112.29 40.3483L109.207 32.6172L106.125 40.3483L97.9805 40.8761L104.229 46.1962L102.178 54.2572L109.207 49.8068L116.236 54.2572L114.185 46.1962L120.452 40.8761Z" fill="white"/>
</mask>
<g mask="url(#mask4_933_7851)">
<path d="M110.858 32.6172H0.511719V54.2572H110.858V32.6172Z" fill="#FCB002"/>
</g>
<path d="M11.7383 34.2366L14.263 40.5702L14.401 40.9241L14.7788 40.9481L21.4596 41.3799L16.326 45.7403L16.0382 45.9802L16.1281 46.3461L17.8073 52.9437L12.0501 49.297L11.7323 49.0931L11.4144 49.297L5.65722 52.9437L7.33641 46.3461L7.42636 45.9862L7.1445 45.7463L2.02299 41.3859L8.69175 40.9541L9.06957 40.9301L9.2075 40.5762L11.7383 34.2366ZM11.7383 32.6172L8.65577 40.3483L0.511719 40.8761L6.76069 46.1962L4.70968 54.2572L11.7383 49.8068L18.7669 54.2572L16.7159 46.1962L22.9828 40.8761L14.8208 40.3483L11.7383 32.6172Z" fill="#FCB002"/>
<path d="M36.1016 34.2366L38.6263 40.5702L38.7643 40.9241L39.1421 40.9481L45.8228 41.3799L40.6893 45.7403L40.4015 45.9802L40.4914 46.3461L42.1706 52.9437L36.4134 49.297L36.0956 49.0931L35.7777 49.297L30.0205 52.9437L31.6997 46.3461L31.7896 45.9862L31.5078 45.7463L26.3863 41.3859L33.055 40.9541L33.4328 40.9301L33.5708 40.5762L36.1016 34.2366ZM36.1016 32.6172L33.019 40.3483L24.875 40.8761L31.124 46.1962L29.073 54.2572L36.1016 49.8068L43.1301 54.2572L41.0791 46.1962L47.3461 40.8761L39.1841 40.3483L36.1016 32.6172Z" fill="#FCB002"/>
<path d="M60.4766 34.2366L63.0013 40.5702L63.1393 40.9241L63.5171 40.9481L70.1978 41.3799L65.0643 45.7403L64.7765 45.9802L64.8664 46.3461L66.5456 52.9437L60.7884 49.297L60.4706 49.0931L60.1527 49.297L54.3955 52.9437L56.0747 46.3461L56.1646 45.9862L55.8828 45.7463L50.7613 41.3859L57.43 40.9541L57.8078 40.9301L57.9458 40.5762L60.4766 34.2366ZM60.4766 32.6172L57.394 40.3483L49.25 40.8761L55.499 46.1962L53.448 54.2572L60.4766 49.8068L67.5051 54.2572L65.4541 46.1962L71.7211 40.8761L63.5591 40.3483L60.4766 32.6172Z" fill="#FCB002"/>
<path d="M84.8437 34.2366L87.3685 40.5702L87.5064 40.9241L87.8843 40.9481L94.565 41.3799L89.4315 45.7403L89.1436 45.9802L89.2336 46.3461L90.9128 52.9437L85.1556 49.297L84.8377 49.0931L84.5199 49.297L78.7627 52.9437L80.4419 46.3461L80.5318 45.9862L80.25 45.7463L75.1285 41.3859L81.7972 40.9541L82.175 40.9301L82.313 40.5762L84.8437 34.2366ZM84.8437 32.6172L81.7612 40.3483L73.6172 40.8761L79.8662 46.1962L77.8151 54.2572L84.8437 49.8068L91.8723 54.2572L89.8213 46.1962L96.0883 40.8761L87.9262 40.3483L84.8437 32.6172Z" fill="#FCB002"/>
<path d="M109.207 34.2366L111.732 40.5702L111.87 40.9241L112.248 40.9481L118.928 41.3799L113.795 45.7403L113.507 45.9802L113.597 46.3461L115.276 52.9437L109.519 49.297L109.201 49.0931L108.883 49.297L103.126 52.9437L104.805 46.3461L104.895 45.9862L104.613 45.7463L99.4917 41.3859L106.16 40.9541L106.538 40.9301L106.676 40.5762L109.207 34.2366ZM109.207 32.6172L106.125 40.3483L97.9805 40.8761L104.229 46.1962L102.178 54.2572L109.207 49.8068L116.236 54.2572L114.185 46.1962L120.452 40.8761L112.29 40.3483L109.207 32.6172Z" fill="#FCB002"/>
</g>
<defs>
<clipPath id="clip0_933_7851">
<rect width="120" height="21.64" fill="white" transform="translate(0.484375 32.6172)"/>
</clipPath>
</defs>
</svg>
