<svg width="135" height="87" viewBox="0 0 135 87" fill="none" xmlns="http://www.w3.org/2000/svg">
<path d="M7.37019 18.9784C6.36219 18.9784 5.45619 18.8224 4.65219 18.5104C3.86019 18.1864 3.18219 17.7304 2.61819 17.1424C2.06619 16.5424 1.64019 15.8284 1.34019 15.0004C1.05219 14.1724 0.908188 13.2544 0.908188 12.2464C0.908188 11.1904 1.06419 10.2544 1.37619 9.43841C1.70019 8.61041 2.15019 7.90841 2.72619 7.33241C3.30219 6.74441 3.99219 6.30041 4.79619 6.00041C5.60019 5.68841 6.49419 5.53241 7.47819 5.53241C8.61819 5.53241 9.62019 5.72441 10.4842 6.10841C11.3482 6.48041 12.0382 7.00841 12.5542 7.69241C13.0822 8.36441 13.4002 9.15641 13.5082 10.0684H11.0602C10.9522 9.54041 10.7302 9.09641 10.3942 8.73641C10.0702 8.36441 9.65619 8.08241 9.15219 7.89041C8.66019 7.68641 8.10219 7.58441 7.47819 7.58441C6.65019 7.58441 5.92419 7.76441 5.30019 8.12441C4.67619 8.47241 4.19619 8.99441 3.86019 9.69041C3.52419 10.3864 3.35619 11.2384 3.35619 12.2464C3.35619 13.0024 3.44619 13.6804 3.62619 14.2804C3.81819 14.8684 4.09419 15.3604 4.45419 15.7564C4.81419 16.1524 5.24019 16.4584 5.73219 16.6744C6.23619 16.8784 6.79419 16.9804 7.40619 16.9804C8.21019 16.9804 8.90619 16.8364 9.49419 16.5484C10.0822 16.2484 10.5382 15.8224 10.8622 15.2704C11.1862 14.7064 11.3482 14.0404 11.3482 13.2724V12.8044L12.0502 13.6324H7.44219V11.9044H13.7602V13.0024C13.7602 13.9144 13.6042 14.7424 13.2922 15.4864C12.9922 16.2184 12.5602 16.8424 11.9962 17.3584C11.4442 17.8744 10.7722 18.2764 9.98019 18.5644C9.20019 18.8404 8.33019 18.9784 7.37019 18.9784ZM41.3718 22.0024C40.5678 22.0024 39.8718 21.8824 39.2838 21.6424C38.6958 21.4144 38.2278 21.0844 37.8798 20.6524C37.5438 20.2324 37.3518 19.7404 37.3038 19.1764H39.4638C39.5118 19.4164 39.6198 19.6264 39.7878 19.8064C39.9678 19.9864 40.1958 20.1244 40.4718 20.2204C40.7478 20.3284 41.0658 20.3824 41.4258 20.3824C41.9658 20.3824 42.4098 20.3044 42.7578 20.1484C43.1178 19.9924 43.3818 19.7524 43.5498 19.4284C43.7298 19.1044 43.8198 18.6844 43.8198 18.1684V16.4044H43.6938C43.4898 16.9564 43.1178 17.4064 42.5778 17.7544C42.0378 18.0904 41.4018 18.2584 40.6698 18.2584C40.0938 18.2584 39.5718 18.1564 39.1038 17.9524C38.6478 17.7484 38.2518 17.4544 37.9158 17.0704C37.5798 16.6744 37.3218 16.1944 37.1418 15.6304C36.9618 15.0544 36.8718 14.3944 36.8718 13.6504C36.8718 12.6544 37.0278 11.8204 37.3398 11.1484C37.6638 10.4644 38.1138 9.94841 38.6898 9.60041C39.2658 9.24041 39.9378 9.06041 40.7058 9.06041C41.4258 9.06041 42.0498 9.22841 42.5778 9.56441C43.1178 9.90041 43.4898 10.3384 43.6938 10.8784H43.8198L43.8918 9.24041H46.0698V17.8084C46.0698 18.5764 45.9558 19.2244 45.7278 19.7524C45.5118 20.2924 45.1938 20.7244 44.7738 21.0484C44.3538 21.3844 43.8558 21.6244 43.2798 21.7684C42.7158 21.9244 42.0798 22.0024 41.3718 22.0024ZM41.4798 16.5124C41.9838 16.5124 42.4038 16.4044 42.7398 16.1884C43.0878 15.9604 43.3518 15.6724 43.5318 15.3244C43.7118 14.9644 43.8078 14.5984 43.8198 14.2264V13.0744C43.8078 12.6904 43.7118 12.3304 43.5318 11.9944C43.3518 11.6464 43.0938 11.3644 42.7578 11.1484C42.4218 10.9204 42.0018 10.8064 41.4978 10.8064C41.0298 10.8064 40.6158 10.9144 40.2558 11.1304C39.9078 11.3464 39.6378 11.6644 39.4458 12.0844C39.2538 12.5044 39.1578 13.0264 39.1578 13.6504C39.1578 14.2864 39.2538 14.8204 39.4458 15.2524C39.6498 15.6724 39.9258 15.9904 40.2738 16.2064C40.6218 16.4104 41.0238 16.5124 41.4798 16.5124Z" fill="#3074F1"/>
<path d="M19.8972 18.9784C19.1772 18.9784 18.5292 18.8704 17.9532 18.6544C17.3772 18.4264 16.8732 18.0964 16.4412 17.6644C16.0212 17.2324 15.6972 16.7104 15.4692 16.0984C15.2532 15.4864 15.1452 14.7964 15.1452 14.0284C15.1452 13.0444 15.3312 12.1804 15.7032 11.4364C16.0872 10.6924 16.6332 10.1104 17.3412 9.69041C18.0492 9.27041 18.9012 9.06041 19.8972 9.06041C20.6052 9.06041 21.2472 9.17441 21.8232 9.40241C22.3992 9.63041 22.8912 9.96041 23.2992 10.3924C23.7192 10.8244 24.0432 11.3464 24.2712 11.9584C24.4992 12.5584 24.6132 13.2484 24.6132 14.0284C24.6132 15.0004 24.4212 15.8584 24.0372 16.6024C23.6652 17.3464 23.1252 17.9284 22.4172 18.3484C21.7212 18.7684 20.8812 18.9784 19.8972 18.9784ZM19.8792 17.1244C20.3712 17.1244 20.8032 17.0104 21.1752 16.7824C21.5472 16.5424 21.8352 16.1944 22.0392 15.7384C22.2432 15.2704 22.3452 14.7004 22.3452 14.0284C22.3452 13.5244 22.2852 13.0804 22.1652 12.6964C22.0572 12.3004 21.8952 11.9704 21.6792 11.7064C21.4632 11.4424 21.2052 11.2444 20.9052 11.1124C20.6052 10.9804 20.2692 10.9144 19.8972 10.9144C19.4052 10.9144 18.9672 11.0344 18.5832 11.2744C18.2112 11.5024 17.9232 11.8504 17.7192 12.3184C17.5152 12.7744 17.4132 13.3444 17.4132 14.0284C17.4132 14.5324 17.4672 14.9824 17.5752 15.3784C17.6952 15.7624 17.8632 16.0864 18.0792 16.3504C18.2952 16.6024 18.5532 16.7944 18.8532 16.9264C19.1652 17.0584 19.5072 17.1244 19.8792 17.1244ZM57.0531 18.9784C56.0811 18.9784 55.2531 18.7804 54.5691 18.3844C53.8971 17.9764 53.3811 17.4064 53.0211 16.6744C52.6611 15.9304 52.4811 15.0664 52.4811 14.0824C52.4811 13.0624 52.6611 12.1804 53.0211 11.4364C53.3811 10.6804 53.8971 10.0984 54.5691 9.69041C55.2411 9.28241 56.0391 9.07841 56.9631 9.07841C58.0191 9.07841 58.8831 9.31241 59.5551 9.78041C60.2391 10.2364 60.7311 10.8724 61.0311 11.6884C61.3311 12.5044 61.4331 13.4404 61.3371 14.4964H54.6771C54.6771 15.1084 54.7731 15.6244 54.9651 16.0444C55.1691 16.4524 55.4451 16.7644 55.7931 16.9804C56.1531 17.1844 56.5731 17.2864 57.0531 17.2864C57.6171 17.2864 58.0851 17.1544 58.4571 16.8904C58.8291 16.6144 59.0691 16.2604 59.1771 15.8284H61.2831C61.2111 16.4764 60.9831 17.0404 60.5991 17.5204C60.2151 17.9884 59.7171 18.3484 59.1051 18.6004C58.4931 18.8524 57.8091 18.9784 57.0531 18.9784ZM54.6771 13.2904L54.4791 13.0564H59.3571L59.1411 13.3084C59.1651 12.7204 59.0871 12.2404 58.9071 11.8684C58.7271 11.4964 58.4691 11.2204 58.1331 11.0404C57.7971 10.8604 57.4071 10.7704 56.9631 10.7704C56.5071 10.7704 56.1111 10.8664 55.7751 11.0584C55.4391 11.2504 55.1751 11.5384 54.9831 11.9224C54.7911 12.2944 54.6891 12.7504 54.6771 13.2904Z" fill="#E73124"/>
<path d="M30.7605 18.9784C30.0405 18.9784 29.3925 18.8704 28.8165 18.6544C28.2405 18.4264 27.7365 18.0964 27.3045 17.6644C26.8845 17.2324 26.5605 16.7104 26.3325 16.0984C26.1165 15.4864 26.0085 14.7964 26.0085 14.0284C26.0085 13.0444 26.1945 12.1804 26.5665 11.4364C26.9505 10.6924 27.4965 10.1104 28.2045 9.69041C28.9125 9.27041 29.7645 9.06041 30.7605 9.06041C31.4685 9.06041 32.1105 9.17441 32.6865 9.40241C33.2625 9.63041 33.7545 9.96041 34.1625 10.3924C34.5825 10.8244 34.9065 11.3464 35.1345 11.9584C35.3625 12.5584 35.4765 13.2484 35.4765 14.0284C35.4765 15.0004 35.2845 15.8584 34.9005 16.6024C34.5285 17.3464 33.9885 17.9284 33.2805 18.3484C32.5845 18.7684 31.7445 18.9784 30.7605 18.9784ZM30.7425 17.1244C31.2345 17.1244 31.6665 17.0104 32.0385 16.7824C32.4105 16.5424 32.6985 16.1944 32.9025 15.7384C33.1065 15.2704 33.2085 14.7004 33.2085 14.0284C33.2085 13.5244 33.1485 13.0804 33.0285 12.6964C32.9205 12.3004 32.7585 11.9704 32.5425 11.7064C32.3265 11.4424 32.0685 11.2444 31.7685 11.1124C31.4685 10.9804 31.1325 10.9144 30.7605 10.9144C30.2685 10.9144 29.8305 11.0344 29.4465 11.2744C29.0745 11.5024 28.7865 11.8504 28.5825 12.3184C28.3785 12.7744 28.2765 13.3444 28.2765 14.0284C28.2765 14.5324 28.3305 14.9824 28.4385 15.3784C28.5585 15.7624 28.7265 16.0864 28.9425 16.3504C29.1585 16.6024 29.4165 16.7944 29.7165 16.9264C30.0285 17.0584 30.3705 17.1244 30.7425 17.1244Z" fill="#FCB002"/>
<path d="M48.3994 18.8164V5.69441H50.6494V18.8164H48.3994Z" fill="#249B41"/>
<path d="M5.49219 82.2578L5.47819 79.9478H0.760188V78.4078L4.98819 72.1638H7.55019V78.2678H8.86619L8.85219 79.9478H7.55019V82.2578H5.49219ZM2.80419 78.2678H5.49219V74.3618L2.80419 78.2678ZM10.116 82.2578V80.3678H12.09V82.2578H10.116ZM18.043 82.2578L18.029 79.9478H13.311V78.4078L17.539 72.1638H20.101V78.2678H21.417L21.403 79.9478H20.101V82.2578H18.043ZM15.355 78.2678H18.043V74.3618L15.355 78.2678ZM22.3868 83.4058L26.5588 72.0518H28.5328L24.3468 83.4058H22.3868ZM33.5802 82.3838C32.8336 82.3838 32.1896 82.2531 31.6482 81.9918C31.1069 81.7211 30.6822 81.3478 30.3742 80.8718C30.0756 80.3865 29.9169 79.8265 29.8982 79.1918H31.9842C31.9936 79.4718 32.0636 79.7191 32.1942 79.9338C32.3342 80.1391 32.5209 80.3025 32.7542 80.4238C32.9969 80.5358 33.2769 80.5918 33.5942 80.5918C34.1169 80.5918 34.5229 80.4378 34.8122 80.1298C35.1109 79.8125 35.2602 79.4065 35.2602 78.9118C35.2602 78.5665 35.1902 78.2631 35.0502 78.0018C34.9196 77.7405 34.7282 77.5398 34.4762 77.3998C34.2242 77.2505 33.9256 77.1758 33.5802 77.1758C33.1789 77.1758 32.8476 77.2691 32.5862 77.4558C32.3342 77.6331 32.1569 77.8618 32.0542 78.1418H30.0942L30.3602 72.1638H36.7442V73.9558H32.1802L32.0822 76.0698L32.1662 76.0978C32.3622 75.9018 32.6282 75.7478 32.9642 75.6358C33.3002 75.5238 33.6549 75.4678 34.0282 75.4678C34.5416 75.4678 34.9989 75.5518 35.4002 75.7198C35.8109 75.8785 36.1609 76.1118 36.4502 76.4198C36.7396 76.7185 36.9589 77.0778 37.1082 77.4978C37.2669 77.9085 37.3462 78.3611 37.3462 78.8558C37.3462 79.5558 37.1922 80.1718 36.8842 80.7038C36.5856 81.2358 36.1516 81.6511 35.5822 81.9498C35.0222 82.2391 34.3549 82.3838 33.5802 82.3838ZM42.0907 83.1958V72.0518H43.9527V83.1958H42.0907ZM53.3027 82.2578L53.2887 79.9478H48.5707V78.4078L52.7987 72.1638H55.3607V78.2678H56.6767L56.6627 79.9478H55.3607V82.2578H53.3027ZM50.6147 78.2678H53.3027V74.3618L50.6147 78.2678ZM62.4766 82.2578L62.4626 79.9478H57.7446V78.4078L61.9726 72.1638H64.5346V78.2678H65.8506L65.8366 79.9478H64.5346V82.2578H62.4766ZM59.7886 78.2678H62.4766V74.3618L59.7886 78.2678ZM71.6504 82.2578L71.6364 79.9478H66.9184V78.4078L71.1464 72.1638H73.7084V78.2678H75.0244L75.0104 79.9478H73.7084V82.2578H71.6504ZM68.9624 78.2678H71.6504V74.3618L68.9624 78.2678ZM79.7322 82.3838C78.9669 82.3838 78.3089 82.2485 77.7582 81.9778C77.2169 81.7071 76.7969 81.3291 76.4982 80.8438C76.2089 80.3491 76.0549 79.7751 76.0362 79.1218H78.0802C78.0802 79.4298 78.1456 79.6958 78.2762 79.9198C78.4162 80.1438 78.6076 80.3211 78.8502 80.4518C79.1022 80.5731 79.3962 80.6338 79.7322 80.6338C80.0682 80.6338 80.3576 80.5731 80.6002 80.4518C80.8429 80.3305 81.0296 80.1625 81.1602 79.9478C81.3002 79.7331 81.3702 79.4765 81.3702 79.1778C81.3702 78.9631 81.3329 78.7765 81.2582 78.6178C81.1929 78.4591 81.0949 78.3238 80.9642 78.2118C80.8429 78.0998 80.6936 78.0158 80.5162 77.9598C80.3482 77.9038 80.1569 77.8758 79.9422 77.8758H78.6822V76.3358H79.7742C80.0916 76.3358 80.3576 76.2798 80.5722 76.1678C80.7869 76.0558 80.9456 75.9018 81.0482 75.7058C81.1602 75.5098 81.2162 75.2905 81.2162 75.0478C81.2162 74.7771 81.1556 74.5485 81.0342 74.3618C80.9129 74.1751 80.7402 74.0351 80.5162 73.9418C80.3016 73.8391 80.0449 73.7878 79.7462 73.7878C79.4289 73.7878 79.1536 73.8485 78.9202 73.9698C78.6869 74.0911 78.5049 74.2591 78.3742 74.4738C78.2529 74.6885 78.1876 74.9498 78.1782 75.2578H76.1202C76.1389 74.5951 76.3022 74.0258 76.6102 73.5498C76.9182 73.0738 77.3476 72.7051 77.8982 72.4438C78.4489 72.1731 79.0976 72.0378 79.8442 72.0378C80.3669 72.0378 80.8382 72.1031 81.2582 72.2338C81.6876 72.3551 82.0516 72.5371 82.3502 72.7798C82.6582 73.0131 82.8962 73.2978 83.0642 73.6338C83.2322 73.9698 83.3162 74.3431 83.3162 74.7538C83.3162 75.1085 83.2556 75.4351 83.1342 75.7338C83.0129 76.0325 82.8449 76.2891 82.6302 76.5038C82.4156 76.7185 82.1636 76.8818 81.8742 76.9938V77.0778C82.2196 77.1711 82.5089 77.3251 82.7422 77.5398C82.9756 77.7545 83.1529 78.0205 83.2742 78.3378C83.4049 78.6458 83.4702 78.9911 83.4702 79.3738C83.4702 79.9805 83.3116 80.5125 82.9942 80.9698C82.6769 81.4178 82.2382 81.7678 81.6782 82.0198C81.1182 82.2625 80.4696 82.3838 79.7322 82.3838ZM88.437 82.2578V74.9078H89.445L89.515 76.2658H89.571C89.7297 75.7991 90.0097 75.4398 90.411 75.1878C90.8124 74.9358 91.2604 74.8098 91.755 74.8098C91.839 74.8098 91.9184 74.8145 91.993 74.8238C92.0677 74.8238 92.1377 74.8285 92.203 74.8378V75.9158C92.1377 75.9065 92.0677 75.9018 91.993 75.9018C91.9184 75.8925 91.839 75.8878 91.755 75.8878C91.3257 75.8878 90.9524 75.9671 90.635 76.1258C90.3177 76.2845 90.0657 76.5131 89.879 76.8118C89.7017 77.1011 89.5944 77.4558 89.557 77.8758V82.2578H88.437ZM96.0772 82.3838C95.3772 82.3838 94.7752 82.2298 94.2712 81.9218C93.7766 81.6138 93.3986 81.1751 93.1372 80.6058C92.8759 80.0365 92.7452 79.3738 92.7452 78.6178C92.7452 77.8431 92.8759 77.1711 93.1372 76.6018C93.3986 76.0231 93.7719 75.5798 94.2572 75.2718C94.7426 74.9545 95.3352 74.7958 96.0352 74.7958C96.7819 74.7958 97.3979 74.9638 97.8832 75.2998C98.3686 75.6358 98.7186 76.1025 98.9332 76.6998C99.1572 77.2971 99.2412 77.9878 99.1852 78.7718H93.8512C93.8606 79.3785 93.9539 79.8871 94.1312 80.2978C94.3179 80.6991 94.5746 81.0025 94.9012 81.2078C95.2372 81.4038 95.6292 81.5018 96.0772 81.5018C96.6186 81.5018 97.0619 81.3665 97.4072 81.0958C97.7526 80.8251 97.9719 80.4705 98.0652 80.0318H99.1432C99.0872 80.5265 98.9146 80.9511 98.6252 81.3058C98.3452 81.6605 97.9812 81.9311 97.5332 82.1178C97.0946 82.2951 96.6092 82.3838 96.0772 82.3838ZM93.8652 78.1278L93.7392 77.9598H98.2052L98.0792 78.1558C98.0886 77.5678 98.0092 77.0965 97.8412 76.7418C97.6732 76.3778 97.4306 76.1118 97.1132 75.9438C96.8052 75.7665 96.4459 75.6778 96.0352 75.6778C95.6059 75.6778 95.2326 75.7711 94.9152 75.9578C94.5979 76.1445 94.3459 76.4198 94.1592 76.7838C93.9819 77.1385 93.8839 77.5865 93.8652 78.1278ZM102.255 82.2578L99.5534 74.9078H100.785L102.437 79.7378L102.927 81.2498H102.969L103.431 79.7378L105.083 74.9078H106.301L103.627 82.2578H102.255ZM107.304 82.2578V74.9078H108.438V82.2578H107.304ZM107.304 73.6898V72.0518H108.438V73.6898H107.304ZM113.386 82.3838C112.686 82.3838 112.084 82.2298 111.58 81.9218C111.085 81.6138 110.707 81.1751 110.446 80.6058C110.184 80.0365 110.054 79.3738 110.054 78.6178C110.054 77.8431 110.184 77.1711 110.446 76.6018C110.707 76.0231 111.08 75.5798 111.566 75.2718C112.051 74.9545 112.644 74.7958 113.344 74.7958C114.09 74.7958 114.706 74.9638 115.192 75.2998C115.677 75.6358 116.027 76.1025 116.242 76.6998C116.466 77.2971 116.55 77.9878 116.494 78.7718H111.16C111.169 79.3785 111.262 79.8871 111.44 80.2978C111.626 80.6991 111.883 81.0025 112.21 81.2078C112.546 81.4038 112.938 81.5018 113.386 81.5018C113.927 81.5018 114.37 81.3665 114.716 81.0958C115.061 80.8251 115.28 80.4705 115.374 80.0318H116.452C116.396 80.5265 116.223 80.9511 115.934 81.3058C115.654 81.6605 115.29 81.9311 114.842 82.1178C114.403 82.2951 113.918 82.3838 113.386 82.3838ZM111.174 78.1278L111.048 77.9598H115.514L115.388 78.1558C115.397 77.5678 115.318 77.0965 115.15 76.7418C114.982 76.3778 114.739 76.1118 114.422 75.9438C114.114 75.7665 113.754 75.6778 113.344 75.6778C112.914 75.6778 112.541 75.7711 112.224 75.9578C111.906 76.1445 111.654 76.4198 111.468 76.7838C111.29 77.1385 111.192 77.5865 111.174 78.1278ZM118.906 82.2578L117.016 74.9078H118.15L119.704 81.1658H119.76L121.174 74.9078H122.546L124.044 81.1658H124.086L125.612 74.9078H126.704L124.814 82.2578H123.316L121.86 76.3358H121.804L120.446 82.2578H118.906ZM130.153 82.3978C129.528 82.3978 128.986 82.2951 128.529 82.0898C128.081 81.8845 127.736 81.5998 127.493 81.2358C127.26 80.8718 127.143 80.4471 127.143 79.9618H128.277C128.277 80.5031 128.45 80.9045 128.795 81.1658C129.15 81.4178 129.612 81.5438 130.181 81.5438C130.75 81.5438 131.184 81.4365 131.483 81.2218C131.791 81.0071 131.945 80.7038 131.945 80.3118C131.945 80.0131 131.88 79.7845 131.749 79.6258C131.618 79.4578 131.418 79.3271 131.147 79.2338C130.876 79.1405 130.522 79.0611 130.083 78.9958C129.476 78.9118 128.968 78.7951 128.557 78.6458C128.156 78.4965 127.852 78.2865 127.647 78.0158C127.451 77.7358 127.353 77.3718 127.353 76.9238C127.353 76.4945 127.47 76.1211 127.703 75.8038C127.936 75.4771 128.263 75.2251 128.683 75.0478C129.103 74.8611 129.593 74.7678 130.153 74.7678C130.741 74.7678 131.24 74.8658 131.651 75.0618C132.071 75.2485 132.388 75.5145 132.603 75.8598C132.827 76.1958 132.944 76.5971 132.953 77.0638H131.847C131.838 76.7185 131.758 76.4431 131.609 76.2378C131.469 76.0325 131.273 75.8831 131.021 75.7898C130.778 75.6871 130.484 75.6358 130.139 75.6358C129.616 75.6358 129.21 75.7431 128.921 75.9578C128.632 76.1725 128.487 76.4571 128.487 76.8118C128.487 77.0825 128.557 77.3018 128.697 77.4698C128.837 77.6285 129.052 77.7545 129.341 77.8478C129.63 77.9318 130.004 78.0065 130.461 78.0718C130.872 78.1278 131.24 78.2025 131.567 78.2958C131.894 78.3891 132.169 78.5198 132.393 78.6878C132.626 78.8465 132.799 79.0518 132.911 79.3038C133.032 79.5465 133.093 79.8498 133.093 80.2138C133.093 80.9138 132.822 81.4551 132.281 81.8378C131.749 82.2111 131.04 82.3978 130.153 82.3978Z" fill="#454545"/>
<g clip-path="url(#clip0_933_7814)">
<mask id="mask0_933_7814" style="mask-type:luminance" maskUnits="userSpaceOnUse" x="0" y="32" width="23" height="23">
<path d="M22.4984 40.8761L14.3364 40.3483L11.2539 32.6172L8.17139 40.3483L0.0273438 40.8761L6.27631 46.1962L4.22531 54.2572L11.2539 49.8068L18.2825 54.2572L16.2315 46.1962L22.4984 40.8761Z" fill="white"/>
</mask>
<g mask="url(#mask0_933_7814)">
<path d="M110.374 32.6172H0.0273438V54.2572H110.374V32.6172Z" fill="#FCB002"/>
</g>
<mask id="mask1_933_7814" style="mask-type:luminance" maskUnits="userSpaceOnUse" x="24" y="32" width="23" height="23">
<path d="M46.8617 40.8761L38.6997 40.3483L35.6172 32.6172L32.5407 40.3483L24.3906 40.8761L30.6396 46.1962L28.5886 54.2572L35.6172 49.8068L42.6518 54.2572L40.5948 46.1962L46.8617 40.8761Z" fill="white"/>
</mask>
<g mask="url(#mask1_933_7814)">
<path d="M110.37 32.6172H0.0234375V54.2572H110.37V32.6172Z" fill="#FCB002"/>
</g>
<mask id="mask2_933_7814" style="mask-type:luminance" maskUnits="userSpaceOnUse" x="48" y="32" width="24" height="23">
<path d="M71.2307 40.8761L63.0687 40.3483L59.9922 32.6172L56.9097 40.3483L48.7656 40.8761L55.0146 46.1962L52.9576 54.2572L59.9922 49.8068L67.0208 54.2572L64.9638 46.1962L71.2307 40.8761Z" fill="white"/>
</mask>
<g mask="url(#mask2_933_7814)">
<path d="M110.374 32.6172H0.0273438V54.2572H110.374V32.6172Z" fill="#FCB002"/>
</g>
<mask id="mask3_933_7814" style="mask-type:luminance" maskUnits="userSpaceOnUse" x="73" y="32" width="23" height="23">
<path d="M95.6039 40.8761L87.4419 40.3483L84.3594 32.6172L81.2769 40.3483L73.1328 40.8761L79.3818 46.1962L77.3248 54.2572L84.3594 49.8068L91.388 54.2572L89.3369 46.1962L95.6039 40.8761Z" fill="white"/>
</mask>
<g mask="url(#mask3_933_7814)">
<path d="M110.374 32.6172H0.0273438V54.2572H110.374V32.6172Z" fill="#FCB002"/>
</g>
<mask id="mask4_933_7814" style="mask-type:luminance" maskUnits="userSpaceOnUse" x="97" y="32" width="23" height="23">
<path d="M119.967 40.8761L111.805 40.3483L108.723 32.6172L105.64 40.3483L97.4961 40.8761L103.745 46.1962L101.694 54.2572L108.723 49.8068L115.751 54.2572L113.7 46.1962L119.967 40.8761Z" fill="white"/>
</mask>
<g mask="url(#mask4_933_7814)">
<path d="M110.374 32.6172H0.0273438V54.2572H110.374V32.6172Z" fill="#FCB002"/>
</g>
<path d="M11.2539 34.2366L13.7787 40.5702L13.9166 40.9241L14.2944 40.9481L20.9752 41.3799L15.8417 45.7403L15.5538 45.9802L15.6438 46.3461L17.323 52.9437L11.5657 49.297L11.2479 49.0931L10.9301 49.297L5.17285 52.9437L6.85203 46.3461L6.94199 45.9862L6.66013 45.7463L1.53861 41.3859L8.20737 40.9541L8.58519 40.9301L8.72312 40.5762L11.2539 34.2366ZM11.2539 32.6172L8.17139 40.3483L0.0273438 40.8761L6.27631 46.1962L4.22531 54.2572L11.2539 49.8068L18.2825 54.2572L16.2315 46.1962L22.4984 40.8761L14.3364 40.3483L11.2539 32.6172Z" fill="#FCB002"/>
<path d="M35.6172 34.2366L38.142 40.5702L38.2799 40.9241L38.6577 40.9481L45.3385 41.3799L40.205 45.7403L39.9171 45.9802L40.007 46.3461L41.6862 52.9437L35.929 49.297L35.6112 49.0931L35.2933 49.297L29.5361 52.9437L31.2153 46.3461L31.3053 45.9862L31.0234 45.7463L25.9019 41.3859L32.5707 40.9541L32.9485 40.9301L33.0864 40.5762L35.6172 34.2366ZM35.6172 32.6172L32.5347 40.3483L24.3906 40.8761L30.6396 46.1962L28.5886 54.2572L35.6172 49.8068L42.6458 54.2572L40.5948 46.1962L46.8617 40.8761L38.6997 40.3483L35.6172 32.6172Z" fill="#FCB002"/>
<path d="M59.9922 34.2366L62.517 40.5702L62.6549 40.9241L63.0327 40.9481L69.7135 41.3799L64.58 45.7403L64.2921 45.9802L64.382 46.3461L66.0612 52.9437L60.304 49.297L59.9862 49.0931L59.6683 49.297L53.9111 52.9437L55.5903 46.3461L55.6803 45.9862L55.3984 45.7463L50.2769 41.3859L56.9457 40.9541L57.3235 40.9301L57.4614 40.5762L59.9922 34.2366ZM59.9922 32.6172L56.9097 40.3483L48.7656 40.8761L55.0146 46.1962L52.9636 54.2572L59.9922 49.8068L67.0208 54.2572L64.9698 46.1962L71.2367 40.8761L63.0747 40.3483L59.9922 32.6172Z" fill="#FCB002"/>
<path d="M84.3594 34.2366L86.8841 40.5702L87.0221 40.9241L87.3999 40.9481L94.0806 41.3799L88.9471 45.7403L88.6593 45.9802L88.7492 46.3461L90.4284 52.9437L84.6712 49.297L84.3534 49.0931L84.0355 49.297L78.2783 52.9437L79.9575 46.3461L80.0475 45.9862L79.7656 45.7463L74.6441 41.3859L81.3128 40.9541L81.6907 40.9301L81.8286 40.5762L84.3594 34.2366ZM84.3594 32.6172L81.2769 40.3483L73.1328 40.8761L79.3818 46.1962L77.3308 54.2572L84.3594 49.8068L91.388 54.2572L89.3369 46.1962L95.6039 40.8761L87.4419 40.3483L84.3594 32.6172Z" fill="#FCB002"/>
<path d="M108.723 34.2366L111.247 40.5702L111.385 40.9241L111.763 40.9481L118.444 41.3799L113.31 45.7403L113.023 45.9802L113.113 46.3461L114.792 52.9437L109.034 49.297L108.717 49.0931L108.399 49.297L102.642 52.9437L104.321 46.3461L104.411 45.9862L104.129 45.7463L99.0074 41.3859L105.676 40.9541L106.054 40.9301L106.192 40.5762L108.723 34.2366ZM108.723 32.6172L105.64 40.3483L97.4961 40.8761L103.745 46.1962L101.694 54.2572L108.723 49.8068L115.751 54.2572L113.7 46.1962L119.967 40.8761L111.805 40.3483L108.723 32.6172Z" fill="#FCB002"/>
</g>
<defs>
<clipPath id="clip0_933_7814">
<rect width="120" height="21.64" fill="white" transform="translate(0 32.6172)"/>
</clipPath>
</defs>
</svg>
