<svg width="127" height="86" viewBox="0 0 127 86" fill="none" xmlns="http://www.w3.org/2000/svg">
<path d="M5.994 18.4745C4.83 18.4745 3.852 18.2945 3.06 17.9345C2.28 17.5745 1.692 17.0705 1.296 16.4225C0.9 15.7745 0.696 15.0365 0.684 14.2085H3.114C3.126 14.7005 3.234 15.1265 3.438 15.4865C3.654 15.8465 3.978 16.1285 4.41 16.3325C4.842 16.5365 5.4 16.6385 6.084 16.6385C6.9 16.6385 7.554 16.4885 8.046 16.1885C8.538 15.8765 8.784 15.4205 8.784 14.8205C8.784 14.4725 8.73 14.1845 8.622 13.9565C8.514 13.7165 8.334 13.5185 8.082 13.3625C7.83 13.2065 7.494 13.0745 7.074 12.9665C6.666 12.8585 6.15 12.7505 5.526 12.6425C4.782 12.5225 4.122 12.3665 3.546 12.1745C2.982 11.9705 2.508 11.7245 2.124 11.4365C1.74 11.1485 1.452 10.8005 1.26 10.3925C1.068 9.9725 0.972 9.4745 0.972 8.8985C0.972 8.1065 1.17 7.4225 1.566 6.8465C1.974 6.2705 2.55 5.8265 3.294 5.5145C4.038 5.1905 4.926 5.0285 5.958 5.0285C6.978 5.0285 7.848 5.1905 8.568 5.5145C9.3 5.8385 9.864 6.2945 10.26 6.8825C10.656 7.4585 10.854 8.1305 10.854 8.8985H8.46C8.436 8.4305 8.31 8.0465 8.082 7.7465C7.854 7.4345 7.548 7.2065 7.164 7.0625C6.792 6.9185 6.36 6.8465 5.868 6.8465C5.364 6.8465 4.926 6.9185 4.554 7.0625C4.194 7.2065 3.918 7.4105 3.726 7.6745C3.534 7.9265 3.438 8.2325 3.438 8.5925C3.438 9.0365 3.546 9.3785 3.762 9.6185C3.99 9.8465 4.35 10.0265 4.842 10.1585C5.346 10.2905 5.994 10.4225 6.786 10.5545C7.35 10.6505 7.896 10.7705 8.424 10.9145C8.964 11.0585 9.444 11.2745 9.864 11.5625C10.296 11.8385 10.638 12.2225 10.89 12.7145C11.142 13.1945 11.268 13.8185 11.268 14.5865C11.268 15.3545 11.07 16.0325 10.674 16.6205C10.278 17.2085 9.69 17.6645 8.91 17.9885C8.13 18.3125 7.158 18.4745 5.994 18.4745ZM17.1899 18.4745C16.2179 18.4745 15.3899 18.2765 14.7059 17.8805C14.0339 17.4725 13.5179 16.9025 13.1579 16.1705C12.7979 15.4265 12.6179 14.5625 12.6179 13.5785C12.6179 12.5585 12.7979 11.6765 13.1579 10.9325C13.5179 10.1765 14.0339 9.5945 14.7059 9.1865C15.3779 8.7785 16.1759 8.5745 17.0999 8.5745C18.1559 8.5745 19.0199 8.8085 19.6919 9.2765C20.3759 9.7325 20.8679 10.3685 21.1679 11.1845C21.4679 12.0005 21.5699 12.9365 21.4739 13.9925H14.8139C14.8139 14.6045 14.9099 15.1205 15.1019 15.5405C15.3059 15.9485 15.5819 16.2605 15.9299 16.4765C16.2899 16.6805 16.7099 16.7825 17.1899 16.7825C17.7539 16.7825 18.2219 16.6505 18.5939 16.3865C18.9659 16.1105 19.2059 15.7565 19.3139 15.3245H21.4199C21.3479 15.9725 21.1199 16.5365 20.7359 17.0165C20.3519 17.4845 19.8539 17.8445 19.2419 18.0965C18.6299 18.3485 17.9459 18.4745 17.1899 18.4745ZM14.8139 12.7865L14.6159 12.5525H19.4939L19.2779 12.8045C19.3019 12.2165 19.2239 11.7365 19.0439 11.3645C18.8639 10.9925 18.6059 10.7165 18.2699 10.5365C17.9339 10.3565 17.5439 10.2665 17.0999 10.2665C16.6439 10.2665 16.2479 10.3625 15.9119 10.5545C15.5759 10.7465 15.3119 11.0345 15.1199 11.4185C14.9279 11.7905 14.8259 12.2465 14.8139 12.7865ZM23.3017 18.3125V8.7365H25.3357L25.4437 10.3385H25.5157C25.7317 9.7265 26.0797 9.2885 26.5597 9.0245C27.0517 8.7485 27.6097 8.6105 28.2337 8.6105C28.3417 8.6105 28.4377 8.6105 28.5217 8.6105C28.6177 8.6105 28.7077 8.6105 28.7917 8.6105V10.7345C28.7197 10.7345 28.6297 10.7345 28.5217 10.7345C28.4257 10.7225 28.3177 10.7165 28.1977 10.7165C27.6217 10.7165 27.1417 10.8125 26.7577 11.0045C26.3737 11.1845 26.0797 11.4485 25.8757 11.7965C25.6837 12.1445 25.5757 12.5705 25.5517 13.0745V18.3125H23.3017ZM34.1205 18.4745C33.4125 18.4745 32.7705 18.3605 32.1945 18.1325C31.6185 17.8925 31.1205 17.5565 30.7005 17.1245C30.2805 16.6805 29.9625 16.1585 29.7465 15.5585C29.5305 14.9465 29.4225 14.2685 29.4225 13.5245C29.4225 12.5165 29.6145 11.6465 29.9985 10.9145C30.3945 10.1705 30.9465 9.5945 31.6545 9.1865C32.3745 8.7665 33.2205 8.5565 34.1925 8.5565C34.9965 8.5565 35.7105 8.7065 36.3345 9.0065C36.9585 9.3065 37.4565 9.7265 37.8285 10.2665C38.2125 10.7945 38.4225 11.4125 38.4585 12.1205H36.2625C36.2025 11.7485 36.0705 11.4365 35.8665 11.1845C35.6745 10.9325 35.4285 10.7405 35.1285 10.6085C34.8285 10.4765 34.4985 10.4105 34.1385 10.4105C33.6225 10.4105 33.1785 10.5425 32.8065 10.8065C32.4345 11.0585 32.1525 11.4185 31.9605 11.8865C31.7805 12.3545 31.6905 12.9005 31.6905 13.5245C31.6905 14.2085 31.7925 14.7785 31.9965 15.2345C32.2005 15.6905 32.4825 16.0385 32.8425 16.2785C33.2145 16.5065 33.6405 16.6205 34.1205 16.6205C34.5405 16.6205 34.9065 16.5485 35.2185 16.4045C35.5305 16.2485 35.7765 16.0385 35.9565 15.7745C36.1485 15.4985 36.2625 15.1865 36.2985 14.8385H38.4945C38.4465 15.5705 38.2305 16.2125 37.8465 16.7645C37.4625 17.3045 36.9525 17.7245 36.3165 18.0245C35.6805 18.3245 34.9485 18.4745 34.1205 18.4745ZM40.247 18.3125V5.1905H42.497V10.5545H42.605C42.881 9.8825 43.301 9.3845 43.865 9.0605C44.429 8.7245 45.059 8.5565 45.755 8.5565C46.235 8.5565 46.679 8.6345 47.087 8.7905C47.507 8.9345 47.867 9.1685 48.167 9.4925C48.479 9.8045 48.719 10.2185 48.887 10.7345C49.067 11.2385 49.157 11.8505 49.157 12.5705V18.3125H46.907V13.0565C46.907 12.4565 46.835 11.9645 46.691 11.5805C46.547 11.1845 46.325 10.8905 46.025 10.6985C45.737 10.5065 45.359 10.4105 44.891 10.4105C44.387 10.4105 43.955 10.5305 43.595 10.7705C43.247 11.0105 42.977 11.3285 42.785 11.7245C42.593 12.1205 42.497 12.5585 42.497 13.0385V18.3125H40.247ZM55.4574 18.4745C54.4854 18.4745 53.6574 18.2765 52.9734 17.8805C52.3014 17.4725 51.7854 16.9025 51.4254 16.1705C51.0654 15.4265 50.8854 14.5625 50.8854 13.5785C50.8854 12.5585 51.0654 11.6765 51.4254 10.9325C51.7854 10.1765 52.3014 9.5945 52.9734 9.1865C53.6454 8.7785 54.4434 8.5745 55.3674 8.5745C56.4234 8.5745 57.2874 8.8085 57.9594 9.2765C58.6434 9.7325 59.1354 10.3685 59.4354 11.1845C59.7354 12.0005 59.8374 12.9365 59.7414 13.9925H53.0814C53.0814 14.6045 53.1774 15.1205 53.3694 15.5405C53.5734 15.9485 53.8494 16.2605 54.1974 16.4765C54.5574 16.6805 54.9774 16.7825 55.4574 16.7825C56.0214 16.7825 56.4894 16.6505 56.8614 16.3865C57.2334 16.1105 57.4734 15.7565 57.5814 15.3245H59.6874C59.6154 15.9725 59.3874 16.5365 59.0034 17.0165C58.6194 17.4845 58.1214 17.8445 57.5094 18.0965C56.8974 18.3485 56.2134 18.4745 55.4574 18.4745ZM53.0814 12.7865L52.8834 12.5525H57.7614L57.5454 12.8045C57.5694 12.2165 57.4914 11.7365 57.3114 11.3645C57.1314 10.9925 56.8734 10.7165 56.5374 10.5365C56.2014 10.3565 55.8114 10.2665 55.3674 10.2665C54.9114 10.2665 54.5154 10.3625 54.1794 10.5545C53.8434 10.7465 53.5794 11.0345 53.3874 11.4185C53.1954 11.7905 53.0934 12.2465 53.0814 12.7865ZM61.5693 18.3125V8.7365H63.7293L63.8193 10.5545H63.9273C64.2033 9.8825 64.6233 9.3845 65.1873 9.0605C65.7513 8.7245 66.3813 8.5565 67.0773 8.5565C67.5573 8.5565 68.0013 8.6345 68.4093 8.7905C68.8293 8.9345 69.1893 9.1685 69.4893 9.4925C69.8013 9.8045 70.0413 10.2185 70.2093 10.7345C70.3893 11.2385 70.4793 11.8505 70.4793 12.5705V18.3125H68.2293V13.0565C68.2293 12.4565 68.1573 11.9645 68.0133 11.5805C67.8693 11.1845 67.6473 10.8905 67.3473 10.6985C67.0593 10.5065 66.6813 10.4105 66.2133 10.4105C65.7093 10.4105 65.2773 10.5305 64.9173 10.7705C64.5693 11.0105 64.2993 11.3285 64.1073 11.7245C63.9153 12.1205 63.8193 12.5585 63.8193 13.0385V18.3125H61.5693Z" fill="#454545"/>
<g clip-path="url(#clip0_933_7888)">
<mask id="mask0_933_7888" style="mask-type:luminance" maskUnits="userSpaceOnUse" x="0" y="32" width="23" height="22">
<path d="M22.4984 40.3722L14.3364 39.8444L11.2539 32.1133L8.17139 39.8444L0.0273438 40.3722L6.27631 45.6923L4.22531 53.7533L11.2539 49.3029L18.2825 53.7533L16.2315 45.6923L22.4984 40.3722Z" fill="white"/>
</mask>
<g mask="url(#mask0_933_7888)">
<path d="M110.374 32.1133H0.0273438V53.7533H110.374V32.1133Z" fill="#73CF11"/>
</g>
<mask id="mask1_933_7888" style="mask-type:luminance" maskUnits="userSpaceOnUse" x="24" y="32" width="23" height="22">
<path d="M46.8617 40.3722L38.6997 39.8444L35.6172 32.1133L32.5407 39.8444L24.3906 40.3722L30.6396 45.6923L28.5886 53.7533L35.6172 49.3029L42.6518 53.7533L40.5948 45.6923L46.8617 40.3722Z" fill="white"/>
</mask>
<g mask="url(#mask1_933_7888)">
<path d="M110.37 32.1133H0.0234375V53.7533H110.37V32.1133Z" fill="#73CF11"/>
</g>
<mask id="mask2_933_7888" style="mask-type:luminance" maskUnits="userSpaceOnUse" x="48" y="32" width="24" height="22">
<path d="M71.2307 40.3722L63.0687 39.8444L59.9922 32.1133L56.9097 39.8444L48.7656 40.3722L55.0146 45.6923L52.9576 53.7533L59.9922 49.3029L67.0208 53.7533L64.9638 45.6923L71.2307 40.3722Z" fill="white"/>
</mask>
<g mask="url(#mask2_933_7888)">
<path d="M110.374 32.1133H0.0273438V53.7533H110.374V32.1133Z" fill="#73CF11"/>
</g>
<mask id="mask3_933_7888" style="mask-type:luminance" maskUnits="userSpaceOnUse" x="73" y="32" width="23" height="22">
<path d="M95.6039 40.3722L87.4419 39.8444L84.3594 32.1133L81.2769 39.8444L73.1328 40.3722L79.3818 45.6923L77.3248 53.7533L84.3594 49.3029L91.388 53.7533L89.3369 45.6923L95.6039 40.3722Z" fill="white"/>
</mask>
<g mask="url(#mask3_933_7888)">
<path d="M110.374 32.1133H0.0273438V53.7533H110.374V32.1133Z" fill="#73CF11"/>
</g>
<mask id="mask4_933_7888" style="mask-type:luminance" maskUnits="userSpaceOnUse" x="97" y="32" width="23" height="22">
<path d="M119.967 40.3722L111.805 39.8444L108.723 32.1133L105.64 39.8444L97.4961 40.3722L103.745 45.6923L101.694 53.7533L108.723 49.3029L115.751 53.7533L113.7 45.6923L119.967 40.3722Z" fill="white"/>
</mask>
<g mask="url(#mask4_933_7888)">
<path d="M110.374 32.1133H0.0273438V53.7533H110.374V32.1133Z" fill="#73CF11"/>
</g>
<path d="M11.2539 33.7327L13.7787 40.0663L13.9166 40.4202L14.2944 40.4442L20.9752 40.876L15.8417 45.2364L15.5538 45.4763L15.6438 45.8422L17.323 52.4398L11.5657 48.7931L11.2479 48.5892L10.9301 48.7931L5.17285 52.4398L6.85203 45.8422L6.94199 45.4823L6.66013 45.2424L1.53861 40.882L8.20737 40.4502L8.58519 40.4262L8.72312 40.0723L11.2539 33.7327ZM11.2539 32.1133L8.17139 39.8444L0.0273438 40.3722L6.27631 45.6923L4.22531 53.7533L11.2539 49.3029L18.2825 53.7533L16.2315 45.6923L22.4984 40.3722L14.3364 39.8444L11.2539 32.1133Z" fill="#73CF11"/>
<path d="M35.6172 33.7327L38.142 40.0663L38.2799 40.4202L38.6577 40.4442L45.3385 40.876L40.205 45.2364L39.9171 45.4763L40.007 45.8422L41.6862 52.4398L35.929 48.7931L35.6112 48.5892L35.2933 48.7931L29.5361 52.4398L31.2153 45.8422L31.3053 45.4823L31.0234 45.2424L25.9019 40.882L32.5707 40.4502L32.9485 40.4262L33.0864 40.0723L35.6172 33.7327ZM35.6172 32.1133L32.5347 39.8444L24.3906 40.3722L30.6396 45.6923L28.5886 53.7533L35.6172 49.3029L42.6458 53.7533L40.5948 45.6923L46.8617 40.3722L38.6997 39.8444L35.6172 32.1133Z" fill="#73CF11"/>
<path d="M59.9922 33.7327L62.517 40.0663L62.6549 40.4202L63.0327 40.4442L69.7135 40.876L64.58 45.2364L64.2921 45.4763L64.382 45.8422L66.0612 52.4398L60.304 48.7931L59.9862 48.5892L59.6683 48.7931L53.9111 52.4398L55.5903 45.8422L55.6803 45.4823L55.3984 45.2424L50.2769 40.882L56.9457 40.4502L57.3235 40.4262L57.4614 40.0723L59.9922 33.7327ZM59.9922 32.1133L56.9097 39.8444L48.7656 40.3722L55.0146 45.6923L52.9636 53.7533L59.9922 49.3029L67.0208 53.7533L64.9698 45.6923L71.2367 40.3722L63.0747 39.8444L59.9922 32.1133Z" fill="#73CF11"/>
<path d="M84.3594 33.7327L86.8841 40.0663L87.0221 40.4202L87.3999 40.4442L94.0806 40.876L88.9471 45.2364L88.6593 45.4763L88.7492 45.8422L90.4284 52.4398L84.6712 48.7931L84.3534 48.5892L84.0355 48.7931L78.2783 52.4398L79.9575 45.8422L80.0475 45.4823L79.7656 45.2424L74.6441 40.882L81.3128 40.4502L81.6907 40.4262L81.8286 40.0723L84.3594 33.7327ZM84.3594 32.1133L81.2769 39.8444L73.1328 40.3722L79.3818 45.6923L77.3308 53.7533L84.3594 49.3029L91.388 53.7533L89.3369 45.6923L95.6039 40.3722L87.4419 39.8444L84.3594 32.1133Z" fill="#73CF11"/>
<path d="M108.723 33.7327L111.247 40.0663L111.385 40.4202L111.763 40.4442L118.444 40.876L113.31 45.2364L113.023 45.4763L113.113 45.8422L114.792 52.4398L109.034 48.7931L108.717 48.5892L108.399 48.7931L102.642 52.4398L104.321 45.8422L104.411 45.4823L104.129 45.2424L99.0074 40.882L105.676 40.4502L106.054 40.4262L106.192 40.0723L108.723 33.7327ZM108.723 32.1133L105.64 39.8444L97.4961 40.3722L103.745 45.6923L101.694 53.7533L108.723 49.3029L115.751 53.7533L113.7 45.6923L119.967 40.3722L111.805 39.8444L108.723 32.1133Z" fill="#73CF11"/>
</g>
<path d="M5.25 81.75L5.236 79.44H0.518V77.9L4.746 71.656H7.308V77.76H8.624L8.61 79.44H7.308V81.75H5.25ZM2.562 77.76H5.25V73.854L2.562 77.76ZM9.87383 81.75V79.86H11.8478V81.75H9.87383ZM17.0308 81.876C16.4241 81.876 15.8828 81.778 15.4068 81.582C14.9308 81.3767 14.5248 81.0687 14.1888 80.658C13.8621 80.2473 13.6101 79.734 13.4328 79.118C13.2648 78.502 13.1808 77.774 13.1808 76.934C13.1808 76.0193 13.2648 75.226 13.4328 74.554C13.6101 73.8727 13.8668 73.308 14.2028 72.86C14.5388 72.412 14.9541 72.0807 15.4488 71.866C15.9434 71.642 16.5128 71.53 17.1568 71.53C17.8381 71.53 18.4261 71.6467 18.9208 71.88C19.4248 72.104 19.8214 72.4213 20.1108 72.832C20.4094 73.2427 20.5868 73.728 20.6428 74.288H18.6408C18.6034 74.0827 18.5148 73.9053 18.3748 73.756C18.2348 73.6067 18.0574 73.4947 17.8428 73.42C17.6374 73.3453 17.4041 73.308 17.1428 73.308C16.7974 73.308 16.5034 73.378 16.2608 73.518C16.0274 73.6487 15.8361 73.84 15.6868 74.092C15.5374 74.344 15.4301 74.652 15.3648 75.016C15.2994 75.3707 15.2668 75.7767 15.2668 76.234H15.3508C15.4721 76.0007 15.6354 75.7953 15.8408 75.618C16.0554 75.4407 16.3121 75.3053 16.6108 75.212C16.9094 75.1093 17.2361 75.058 17.5908 75.058C18.2254 75.058 18.7761 75.198 19.2428 75.478C19.7188 75.758 20.0874 76.15 20.3488 76.654C20.6101 77.1487 20.7408 77.7273 20.7408 78.39C20.7408 79.1273 20.5821 79.7573 20.2648 80.28C19.9568 80.7933 19.5228 81.19 18.9628 81.47C18.4121 81.7407 17.7681 81.876 17.0308 81.876ZM17.0728 80.084C17.3994 80.084 17.6841 80.014 17.9268 79.874C18.1694 79.7247 18.3561 79.5193 18.4868 79.258C18.6174 78.9967 18.6828 78.6887 18.6828 78.334C18.6828 77.9793 18.6174 77.676 18.4868 77.424C18.3561 77.1627 18.1694 76.962 17.9268 76.822C17.6934 76.682 17.4088 76.612 17.0728 76.612C16.7461 76.612 16.4568 76.6867 16.2048 76.836C15.9621 76.9853 15.7754 77.1907 15.6448 77.452C15.5141 77.7133 15.4488 78.0167 15.4488 78.362C15.4488 78.7167 15.5141 79.0247 15.6448 79.286C15.7848 79.538 15.9761 79.734 16.2188 79.874C16.4614 80.014 16.7461 80.084 17.0728 80.084ZM21.7208 82.898L25.8928 71.544H27.8668L23.6808 82.898H21.7208ZM32.9142 81.876C32.1676 81.876 31.5236 81.7453 30.9822 81.484C30.4409 81.2133 30.0162 80.84 29.7082 80.364C29.4096 79.8787 29.2509 79.3187 29.2322 78.684H31.3182C31.3276 78.964 31.3976 79.2113 31.5282 79.426C31.6682 79.6313 31.8549 79.7947 32.0882 79.916C32.3309 80.028 32.6109 80.084 32.9282 80.084C33.4509 80.084 33.8569 79.93 34.1462 79.622C34.4449 79.3047 34.5942 78.8987 34.5942 78.404C34.5942 78.0587 34.5242 77.7553 34.3842 77.494C34.2536 77.2327 34.0622 77.032 33.8102 76.892C33.5582 76.7427 33.2596 76.668 32.9142 76.668C32.5129 76.668 32.1816 76.7613 31.9202 76.948C31.6682 77.1253 31.4909 77.354 31.3882 77.634H29.4282L29.6942 71.656H36.0782V73.448H31.5142L31.4162 75.562L31.5002 75.59C31.6962 75.394 31.9622 75.24 32.2982 75.128C32.6342 75.016 32.9889 74.96 33.3622 74.96C33.8756 74.96 34.3329 75.044 34.7342 75.212C35.1449 75.3707 35.4949 75.604 35.7842 75.912C36.0736 76.2107 36.2929 76.57 36.4422 76.99C36.6009 77.4007 36.6802 77.8533 36.6802 78.348C36.6802 79.048 36.5262 79.664 36.2182 80.196C35.9196 80.728 35.4856 81.1433 34.9162 81.442C34.3562 81.7313 33.6889 81.876 32.9142 81.876ZM41.4247 82.688V71.544H43.2867V82.688H41.4247ZM51.8667 81.876C51.2601 81.876 50.7187 81.778 50.2427 81.582C49.7667 81.3767 49.3607 81.0687 49.0247 80.658C48.6981 80.2473 48.4461 79.734 48.2687 79.118C48.1007 78.502 48.0167 77.774 48.0167 76.934C48.0167 76.0193 48.1007 75.226 48.2687 74.554C48.4461 73.8727 48.7027 73.308 49.0387 72.86C49.3747 72.412 49.7901 72.0807 50.2847 71.866C50.7794 71.642 51.3487 71.53 51.9927 71.53C52.6741 71.53 53.2621 71.6467 53.7567 71.88C54.2607 72.104 54.6574 72.4213 54.9467 72.832C55.2454 73.2427 55.4227 73.728 55.4787 74.288H53.4767C53.4394 74.0827 53.3507 73.9053 53.2107 73.756C53.0707 73.6067 52.8934 73.4947 52.6787 73.42C52.4734 73.3453 52.2401 73.308 51.9787 73.308C51.6334 73.308 51.3394 73.378 51.0967 73.518C50.8634 73.6487 50.6721 73.84 50.5227 74.092C50.3734 74.344 50.2661 74.652 50.2007 75.016C50.1354 75.3707 50.1027 75.7767 50.1027 76.234H50.1867C50.3081 76.0007 50.4714 75.7953 50.6767 75.618C50.8914 75.4407 51.1481 75.3053 51.4467 75.212C51.7454 75.1093 52.0721 75.058 52.4267 75.058C53.0614 75.058 53.6121 75.198 54.0787 75.478C54.5547 75.758 54.9234 76.15 55.1847 76.654C55.4461 77.1487 55.5767 77.7273 55.5767 78.39C55.5767 79.1273 55.4181 79.7573 55.1007 80.28C54.7927 80.7933 54.3587 81.19 53.7987 81.47C53.2481 81.7407 52.6041 81.876 51.8667 81.876ZM51.9087 80.084C52.2354 80.084 52.5201 80.014 52.7627 79.874C53.0054 79.7247 53.1921 79.5193 53.3227 79.258C53.4534 78.9967 53.5187 78.6887 53.5187 78.334C53.5187 77.9793 53.4534 77.676 53.3227 77.424C53.1921 77.1627 53.0054 76.962 52.7627 76.822C52.5294 76.682 52.2447 76.612 51.9087 76.612C51.5821 76.612 51.2927 76.6867 51.0407 76.836C50.7981 76.9853 50.6114 77.1907 50.4807 77.452C50.3501 77.7133 50.2847 78.0167 50.2847 78.362C50.2847 78.7167 50.3501 79.0247 50.4807 79.286C50.6207 79.538 50.8121 79.734 51.0547 79.874C51.2974 80.014 51.5821 80.084 51.9087 80.084ZM56.6967 81.75V81.456C56.6967 80.8587 56.7854 80.3313 56.9627 79.874C57.1401 79.4167 57.3734 79.0153 57.6627 78.67C57.9614 78.3153 58.2834 78.0027 58.6287 77.732C58.9834 77.452 59.3334 77.1953 59.6787 76.962C60.0334 76.7193 60.3554 76.4813 60.6447 76.248C60.9434 76.0147 61.1814 75.772 61.3587 75.52C61.5361 75.2587 61.6247 74.9693 61.6247 74.652C61.6247 74.372 61.5641 74.1293 61.4427 73.924C61.3214 73.7187 61.1534 73.5647 60.9387 73.462C60.7334 73.35 60.4861 73.294 60.1967 73.294C59.8981 73.294 59.6321 73.3593 59.3987 73.49C59.1747 73.6113 59.0067 73.798 58.8947 74.05C58.7827 74.2927 58.7407 74.5913 58.7687 74.946H56.7247C56.7061 74.2553 56.8414 73.6533 57.1307 73.14C57.4294 72.6267 57.8494 72.23 58.3907 71.95C58.9414 71.67 59.5854 71.53 60.3227 71.53C61.0134 71.53 61.6154 71.6513 62.1287 71.894C62.6421 72.1367 63.0387 72.4867 63.3187 72.944C63.6081 73.392 63.7527 73.9287 63.7527 74.554C63.7527 74.9833 63.6827 75.366 63.5427 75.702C63.4121 76.038 63.2347 76.346 63.0107 76.626C62.7867 76.906 62.5347 77.1627 62.2547 77.396C61.9747 77.62 61.6854 77.8347 61.3867 78.04C61.0974 78.2453 60.8127 78.4507 60.5327 78.656C60.2621 78.852 60.0194 79.0573 59.8047 79.272C59.5901 79.4773 59.4267 79.7013 59.3147 79.944H63.8507V81.75H56.6967ZM67.3052 81.75V74.974H64.7572V73.406H65.1772C65.8492 73.406 66.3766 73.2473 66.7592 72.93C67.1512 72.6033 67.3706 72.1787 67.4172 71.656H69.3632V81.75H67.3052ZM74.8785 81.75V74.4H75.8865L75.9565 75.758H76.0125C76.1711 75.2913 76.4511 74.932 76.8525 74.68C77.2538 74.428 77.7018 74.302 78.1965 74.302C78.2805 74.302 78.3598 74.3067 78.4345 74.316C78.5091 74.316 78.5791 74.3207 78.6445 74.33V75.408C78.5791 75.3987 78.5091 75.394 78.4345 75.394C78.3598 75.3847 78.2805 75.38 78.1965 75.38C77.7671 75.38 77.3938 75.4593 77.0765 75.618C76.7591 75.7767 76.5071 76.0053 76.3205 76.304C76.1431 76.5933 76.0358 76.948 75.9985 77.368V81.75H74.8785ZM82.5186 81.876C81.8186 81.876 81.2166 81.722 80.7126 81.414C80.218 81.106 79.84 80.6673 79.5786 80.098C79.3173 79.5287 79.1866 78.866 79.1866 78.11C79.1866 77.3353 79.3173 76.6633 79.5786 76.094C79.84 75.5153 80.2133 75.072 80.6986 74.764C81.184 74.4467 81.7766 74.288 82.4766 74.288C83.2233 74.288 83.8393 74.456 84.3246 74.792C84.81 75.128 85.16 75.5947 85.3746 76.192C85.5986 76.7893 85.6826 77.48 85.6266 78.264H80.2926C80.302 78.8707 80.3953 79.3793 80.5726 79.79C80.7593 80.1913 81.016 80.4947 81.3426 80.7C81.6786 80.896 82.0706 80.994 82.5186 80.994C83.06 80.994 83.5033 80.8587 83.8486 80.588C84.194 80.3173 84.4133 79.9627 84.5066 79.524H85.5846C85.5286 80.0187 85.356 80.4433 85.0666 80.798C84.7866 81.1527 84.4226 81.4233 83.9746 81.61C83.536 81.7873 83.0506 81.876 82.5186 81.876ZM80.3066 77.62L80.1806 77.452H84.6466L84.5206 77.648C84.53 77.06 84.4506 76.5887 84.2826 76.234C84.1146 75.87 83.872 75.604 83.5546 75.436C83.2466 75.2587 82.8873 75.17 82.4766 75.17C82.0473 75.17 81.674 75.2633 81.3566 75.45C81.0393 75.6367 80.7873 75.912 80.6006 76.276C80.4233 76.6307 80.3253 77.0787 80.3066 77.62ZM88.6968 81.75L85.9948 74.4H87.2268L88.8788 79.23L89.3688 80.742H89.4108L89.8728 79.23L91.5248 74.4H92.7428L90.0688 81.75H88.6968ZM93.7456 81.75V74.4H94.8796V81.75H93.7456ZM93.7456 73.182V71.544H94.8796V73.182H93.7456ZM99.8272 81.876C99.1272 81.876 98.5252 81.722 98.0212 81.414C97.5266 81.106 97.1486 80.6673 96.8872 80.098C96.6259 79.5287 96.4952 78.866 96.4952 78.11C96.4952 77.3353 96.6259 76.6633 96.8872 76.094C97.1486 75.5153 97.5219 75.072 98.0072 74.764C98.4926 74.4467 99.0852 74.288 99.7852 74.288C100.532 74.288 101.148 74.456 101.633 74.792C102.119 75.128 102.469 75.5947 102.683 76.192C102.907 76.7893 102.991 77.48 102.935 78.264H97.6012C97.6106 78.8707 97.7039 79.3793 97.8812 79.79C98.0679 80.1913 98.3246 80.4947 98.6512 80.7C98.9872 80.896 99.3792 80.994 99.8272 80.994C100.369 80.994 100.812 80.8587 101.157 80.588C101.503 80.3173 101.722 79.9627 101.815 79.524H102.893C102.837 80.0187 102.665 80.4433 102.375 80.798C102.095 81.1527 101.731 81.4233 101.283 81.61C100.845 81.7873 100.359 81.876 99.8272 81.876ZM97.6152 77.62L97.4892 77.452H101.955L101.829 77.648C101.839 77.06 101.759 76.5887 101.591 76.234C101.423 75.87 101.181 75.604 100.863 75.436C100.555 75.2587 100.196 75.17 99.7852 75.17C99.3559 75.17 98.9826 75.2633 98.6652 75.45C98.3479 75.6367 98.0959 75.912 97.9092 76.276C97.7319 76.6307 97.6339 77.0787 97.6152 77.62ZM105.348 81.75L103.458 74.4H104.592L106.146 80.658H106.202L107.616 74.4H108.988L110.486 80.658H110.528L112.054 74.4H113.146L111.256 81.75H109.758L108.302 75.828H108.246L106.888 81.75H105.348ZM116.594 81.89C115.969 81.89 115.428 81.7873 114.97 81.582C114.522 81.3767 114.177 81.092 113.934 80.728C113.701 80.364 113.584 79.9393 113.584 79.454H114.718C114.718 79.9953 114.891 80.3967 115.236 80.658C115.591 80.91 116.053 81.036 116.622 81.036C117.192 81.036 117.626 80.9287 117.924 80.714C118.232 80.4993 118.386 80.196 118.386 79.804C118.386 79.5053 118.321 79.2767 118.19 79.118C118.06 78.95 117.859 78.8193 117.588 78.726C117.318 78.6327 116.963 78.5533 116.524 78.488C115.918 78.404 115.409 78.2873 114.998 78.138C114.597 77.9887 114.294 77.7787 114.088 77.508C113.892 77.228 113.794 76.864 113.794 76.416C113.794 75.9867 113.911 75.6133 114.144 75.296C114.378 74.9693 114.704 74.7173 115.124 74.54C115.544 74.3533 116.034 74.26 116.594 74.26C117.182 74.26 117.682 74.358 118.092 74.554C118.512 74.7407 118.83 75.0067 119.044 75.352C119.268 75.688 119.385 76.0893 119.394 76.556H118.288C118.279 76.2107 118.2 75.9353 118.05 75.73C117.91 75.5247 117.714 75.3753 117.462 75.282C117.22 75.1793 116.926 75.128 116.58 75.128C116.058 75.128 115.652 75.2353 115.362 75.45C115.073 75.6647 114.928 75.9493 114.928 76.304C114.928 76.5747 114.998 76.794 115.138 76.962C115.278 77.1207 115.493 77.2467 115.782 77.34C116.072 77.424 116.445 77.4987 116.902 77.564C117.313 77.62 117.682 77.6947 118.008 77.788C118.335 77.8813 118.61 78.012 118.834 78.18C119.068 78.3387 119.24 78.544 119.352 78.796C119.474 79.0387 119.534 79.342 119.534 79.706C119.534 80.406 119.264 80.9473 118.722 81.33C118.19 81.7033 117.481 81.89 116.594 81.89Z" fill="#454545"/>
<defs>
<clipPath id="clip0_933_7888">
<rect width="120" height="21.64" fill="white" transform="translate(0 32.1133)"/>
</clipPath>
</defs>
</svg>
