<svg width="155" height="90" viewBox="0 0 155 90" fill="none" xmlns="http://www.w3.org/2000/svg">
<g clip-path="url(#clip0_933_7794)">
<path d="M28.9081 9.57031H40.0452V11.648H35.6661V23.3277H33.2581V11.648H28.8984V9.57031H28.9081ZM39.5694 13.3665H41.6279V15.2888H41.6667C41.7347 15.017 41.8609 14.7548 42.0454 14.5024C42.2299 14.25 42.4532 14.0073 42.7154 13.8034C42.9776 13.5898 43.2689 13.4247 43.5893 13.2888C43.9097 13.1626 44.2398 13.0946 44.57 13.0946C44.8224 13.0946 45.0069 13.1043 45.104 13.114C45.2011 13.1237 45.2982 13.1432 45.405 13.1529V15.2694C45.2496 15.2403 45.0943 15.2209 44.9292 15.2014C44.7642 15.182 44.6088 15.1723 44.4534 15.1723C44.0845 15.1723 43.7349 15.25 43.4048 15.3956C43.0747 15.5413 42.7931 15.7646 42.5503 16.0461C42.3076 16.3374 42.1134 16.6869 41.9677 17.1141C41.8221 17.5413 41.7541 18.0267 41.7541 18.5801V23.318H39.5597V13.3665H39.5694ZM55.4934 23.3277H53.3379V21.9394H53.299C53.0271 22.4442 52.629 22.8423 52.095 23.1433C51.561 23.4442 51.0172 23.5996 50.4638 23.5996C49.153 23.5996 48.2014 23.2792 47.6188 22.6287C47.0362 21.9782 46.7449 20.9976 46.7449 19.6869V13.3665H48.9393V19.4733C48.9393 20.3471 49.1044 20.9685 49.4443 21.3277C49.7744 21.6869 50.2502 21.8714 50.8522 21.8714C51.3182 21.8714 51.6969 21.8035 52.0076 21.6578C52.3183 21.5122 52.5708 21.3277 52.7553 21.085C52.9495 20.852 53.0854 20.5607 53.1728 20.2306C53.2602 19.9005 53.299 19.5413 53.299 19.1529V13.3762H55.4934V23.3277ZM59.2317 20.1335C59.2996 20.7743 59.5424 21.2209 59.9599 21.4831C60.3871 21.7355 60.892 21.8714 61.4843 21.8714C61.6882 21.8714 61.9213 21.852 62.1834 21.8229C62.4456 21.7937 62.698 21.7258 62.9214 21.6384C63.1544 21.551 63.3389 21.4151 63.4942 21.2403C63.6399 21.0656 63.7079 20.8423 63.6982 20.5607C63.6884 20.2792 63.5816 20.0462 63.3874 19.8714C63.1932 19.6869 62.9505 19.551 62.6495 19.4345C62.3485 19.3277 62.0087 19.2306 61.6203 19.1529C61.2319 19.0753 60.8435 18.9879 60.4454 18.9005C60.0376 18.8131 59.6395 18.6966 59.2608 18.5704C58.8821 18.4442 58.5423 18.2694 58.2413 18.0461C57.9403 17.8325 57.6975 17.551 57.5228 17.2112C57.3383 16.8714 57.2509 16.4539 57.2509 15.949C57.2509 15.4053 57.3868 14.9587 57.649 14.5898C57.9111 14.2208 58.251 13.9296 58.6491 13.7063C59.0569 13.483 59.5035 13.3276 59.9987 13.2305C60.4939 13.1432 60.9697 13.0946 61.4164 13.0946C61.931 13.0946 62.4262 13.1529 62.8922 13.2597C63.3583 13.3665 63.7855 13.5412 64.1642 13.7937C64.5429 14.0364 64.8536 14.3568 65.1061 14.7451C65.3585 15.1335 65.5139 15.6092 65.5818 16.1626H63.2903C63.1835 15.6383 62.9505 15.2791 62.5718 15.1044C62.1931 14.9199 61.7562 14.8325 61.2707 14.8325C61.1154 14.8325 60.9309 14.8422 60.7173 14.8713C60.5036 14.9005 60.3094 14.949 60.1153 15.017C59.9308 15.0849 59.7754 15.1917 59.6395 15.3277C59.5133 15.4636 59.4453 15.6383 59.4453 15.8616C59.4453 16.1335 59.5424 16.3471 59.7269 16.5121C59.9113 16.6772 60.1541 16.8131 60.4551 16.9296C60.7561 17.0364 61.0959 17.1335 61.4843 17.2112C61.8727 17.2888 62.2708 17.3762 62.6786 17.4636C63.0767 17.551 63.4651 17.6675 63.8535 17.7937C64.2419 17.9199 64.5817 18.0947 64.8827 18.318C65.1837 18.5413 65.4265 18.8131 65.611 19.1432C65.7955 19.4733 65.8925 19.8908 65.8925 20.3763C65.8925 20.9685 65.7566 21.4636 65.4847 21.8811C65.2129 22.2889 64.8633 22.6287 64.4361 22.8811C64.0089 23.1336 63.5234 23.3277 62.999 23.4442C62.4747 23.5608 61.9504 23.619 61.4358 23.619C60.8046 23.619 60.2221 23.551 59.688 23.4054C59.154 23.2598 58.6879 23.0462 58.2995 22.7646C57.9111 22.4734 57.6004 22.1141 57.3771 21.6869C57.1538 21.2598 57.0373 20.7452 57.0178 20.153H59.2317V20.1335ZM66.4751 13.3665H68.1355V10.3761H70.3299V13.3665H72.3107V15.0073H70.3299V20.3277C70.3299 20.5607 70.3396 20.7549 70.359 20.9297C70.3784 21.0947 70.427 21.2403 70.495 21.3568C70.5629 21.4734 70.6697 21.5607 70.8154 21.619C70.961 21.6772 71.1455 21.7064 71.398 21.7064C71.5533 21.7064 71.7087 21.7064 71.864 21.6967C72.0194 21.6869 72.1748 21.6675 72.3301 21.6287V23.3277C72.0874 23.3569 71.8446 23.3763 71.6213 23.4054C71.3883 23.4345 71.1552 23.4442 70.9125 23.4442C70.3299 23.4442 69.8638 23.386 69.5143 23.2792C69.1647 23.1724 68.8832 23.0074 68.689 22.7938C68.4851 22.5802 68.3588 22.318 68.2811 21.9976C68.2132 21.6772 68.1646 21.3083 68.1549 20.9005V15.0267H66.4946V13.3665H66.4751ZM73.8643 13.3665H75.9421V14.716H75.981C76.2917 14.1335 76.7189 13.7257 77.2724 13.4733C77.8258 13.2208 78.4181 13.0946 79.0687 13.0946C79.8552 13.0946 80.5348 13.2305 81.1174 13.5121C81.7 13.7839 82.1855 14.1626 82.5739 14.648C82.9623 15.1335 83.2439 15.6966 83.438 16.3374C83.6322 16.9782 83.7293 17.6675 83.7293 18.3957C83.7293 19.0656 83.642 19.7161 83.4672 20.3374C83.2924 20.9685 83.0302 21.5219 82.6807 22.0073C82.3311 22.4928 81.8845 22.8714 81.3407 23.1627C80.797 23.454 80.1659 23.5996 79.4279 23.5996C79.1075 23.5996 78.7871 23.5705 78.4667 23.5122C78.1462 23.454 77.8355 23.3569 77.5442 23.2307C77.2529 23.1044 76.9714 22.9394 76.7286 22.7355C76.4762 22.5316 76.2723 22.2986 76.0975 22.0365H76.0586V27.0074H73.8643V13.3665ZM81.5349 18.3568C81.5349 17.9102 81.4767 17.4733 81.3602 17.0461C81.2437 16.6189 81.0689 16.25 80.8358 15.9199C80.6028 15.5898 80.3115 15.3277 79.9717 15.1335C79.6221 14.9393 79.224 14.8325 78.7774 14.8325C77.8549 14.8325 77.1558 15.1529 76.6898 15.7937C76.2237 16.4345 75.9907 17.2888 75.9907 18.3568C75.9907 18.8617 76.0489 19.3277 76.1752 19.7549C76.3014 20.1821 76.4762 20.551 76.7286 20.8617C76.9714 21.1724 77.2627 21.4151 77.6025 21.5899C77.9423 21.7743 78.3404 21.8617 78.7871 21.8617C79.292 21.8617 79.7095 21.7549 80.0591 21.551C80.4086 21.3471 80.6902 21.0753 80.9135 20.7549C81.1368 20.4248 81.3019 20.0559 81.399 19.6384C81.4864 19.2209 81.5349 18.7937 81.5349 18.3568ZM85.4091 9.57031H87.6035V11.648H85.4091V9.57031ZM85.4091 13.3665H87.6035V23.3277H85.4091V13.3665ZM89.5649 9.57031H91.7593V23.3277H89.5649V9.57031ZM98.4882 23.5996C97.6919 23.5996 96.9831 23.4637 96.3617 23.2015C95.7403 22.9394 95.216 22.5705 94.779 22.1141C94.3518 21.6481 94.0217 21.0947 93.7983 20.4539C93.575 19.8131 93.4585 19.1044 93.4585 18.3374C93.4585 17.5801 93.575 16.8811 93.7983 16.2403C94.0217 15.5995 94.3518 15.0461 94.779 14.5801C95.2063 14.1141 95.7403 13.7548 96.3617 13.4927C96.9831 13.2305 97.6919 13.0946 98.4882 13.0946C99.2843 13.0946 99.9932 13.2305 100.615 13.4927C101.236 13.7548 101.76 14.1238 102.197 14.5801C102.625 15.0461 102.955 15.5995 103.178 16.2403C103.401 16.8811 103.518 17.5801 103.518 18.3374C103.518 19.1044 103.401 19.8131 103.178 20.4539C102.955 21.0947 102.625 21.6481 102.197 22.1141C101.77 22.5802 101.236 22.9394 100.615 23.2015C99.9932 23.4637 99.2843 23.5996 98.4882 23.5996ZM98.4882 21.8617C98.9736 21.8617 99.4009 21.7549 99.7601 21.551C100.119 21.3471 100.411 21.0753 100.644 20.7452C100.877 20.4151 101.042 20.0364 101.158 19.619C101.265 19.2015 101.323 18.7743 101.323 18.3374C101.323 17.9102 101.265 17.4927 101.158 17.0655C101.052 16.6384 100.877 16.2694 100.644 15.9393C100.411 15.6092 100.119 15.3471 99.7601 15.1432C99.4009 14.9393 98.9736 14.8325 98.4882 14.8325C98.0027 14.8325 97.5754 14.9393 97.2162 15.1432C96.8569 15.3471 96.5656 15.6189 96.3326 15.9393C96.0996 16.2694 95.9345 16.6384 95.818 17.0655C95.7112 17.4927 95.6529 17.9102 95.6529 18.3374C95.6529 18.7743 95.7112 19.2015 95.818 19.619C95.9248 20.0364 96.0996 20.4151 96.3326 20.7452C96.5656 21.0753 96.8569 21.3471 97.2162 21.551C97.5754 21.7646 98.0027 21.8617 98.4882 21.8617ZM104.159 13.3665H105.819V10.3761H108.013V13.3665H109.994V15.0073H108.013V20.3277C108.013 20.5607 108.023 20.7549 108.043 20.9297C108.062 21.0947 108.111 21.2403 108.178 21.3568C108.246 21.4734 108.353 21.5607 108.499 21.619C108.645 21.6772 108.829 21.7064 109.081 21.7064C109.237 21.7064 109.392 21.7064 109.548 21.6967C109.703 21.6869 109.858 21.6675 110.014 21.6287V23.3277C109.771 23.3569 109.528 23.3763 109.305 23.4054C109.072 23.4345 108.839 23.4442 108.596 23.4442C108.013 23.4442 107.547 23.386 107.198 23.2792C106.848 23.1724 106.567 23.0074 106.372 22.7938C106.169 22.5802 106.042 22.318 105.965 21.9976C105.897 21.6772 105.848 21.3083 105.838 20.9005V15.0267H104.178V13.3665H104.159Z" fill="#454545"/>
<path d="M26.3464 9.57292H16.2871L13.18 0L10.0632 9.57292L0.00390625 9.56321L8.15038 15.4856L5.03355 25.0488L13.18 19.1361L21.3168 25.0488L18.2097 15.4856L26.3464 9.57292Z" fill="#00B67A"/>
<path d="M18.9084 17.6496L18.2093 15.4844L13.1797 19.1352L18.9084 17.6496Z" fill="#005128"/>
</g>
<g clip-path="url(#clip1_933_7794)">
<rect width="155" height="29.06" transform="translate(0 37.0117)" fill="#DCDCE6"/>
<path d="M151.9 37.0117H0V66.0717H151.9V37.0117Z" fill="#00B67A"/>
<path d="M14.5312 56.5954L18.9512 55.4754L20.7978 61.1663L14.5312 56.5954ZM24.7031 49.2396H16.9229L14.5312 41.9141L12.1396 49.2396H4.35938L10.6563 53.7802L8.26465 61.1058L14.5615 56.5651L18.4365 53.7802L24.7031 49.2396Z" fill="white"/>
<path d="M32.5492 37.0117H29.4492V66.0717H32.5492V37.0117Z" fill="white"/>
<path d="M46.0156 56.5954L50.4355 55.4754L52.2822 61.1663L46.0156 56.5954ZM56.1875 49.2396H48.4072L46.0156 41.9141L43.624 49.2396H35.8438L42.1406 53.7802L39.749 61.1058L46.0459 56.5651L49.9209 53.7802L56.1875 49.2396Z" fill="white"/>
<path d="M63.5492 37.0117H60.4492V66.0717H63.5492V37.0117Z" fill="white"/>
<path d="M77.5 56.5954L81.9199 55.4754L83.7666 61.1663L77.5 56.5954ZM87.6719 49.2396H79.8916L77.5 41.9141L75.1084 49.2396H67.3281L73.625 53.7802L71.2334 61.1058L77.5303 56.5651L81.4053 53.7802L87.6719 49.2396Z" fill="white"/>
<path d="M94.5492 37.0117H91.4492V66.0717H94.5492V37.0117Z" fill="white"/>
<path d="M108.984 56.5954L113.404 55.4754L115.251 61.1663L108.984 56.5954ZM119.156 49.2396H111.376L108.984 41.9141L106.593 49.2396H98.8125L105.109 53.7802L102.718 61.1058L109.015 56.5651L112.89 53.7802L119.156 49.2396Z" fill="white"/>
<path d="M125.549 37.0117H122.449V66.0717H125.549V37.0117Z" fill="white"/>
<path d="M140.469 56.5954L144.889 55.4754L146.735 61.1663L140.469 56.5954ZM150.641 49.2396H142.86L140.469 41.9141L138.077 49.2396H130.297L136.594 53.7802L134.202 61.1058L140.499 56.5651L144.374 53.7802L150.641 49.2396Z" fill="white"/>
</g>
<path d="M7.77246 83.0068H6.56934V85.0781H4.50488V83.0068H0.239258V81.5371L4.62109 75.084H6.56934V81.3662H7.77246V83.0068ZM4.50488 81.3662V79.6709C4.50488 79.3883 4.51628 78.9782 4.53906 78.4404C4.56185 77.9027 4.58008 77.5905 4.59375 77.5039H4.53906C4.37044 77.8776 4.16764 78.2422 3.93066 78.5977L2.09863 81.3662H4.50488ZM8.79785 84.1006C8.79785 83.7178 8.90039 83.4284 9.10547 83.2324C9.31055 83.0365 9.60905 82.9385 10.001 82.9385C10.3792 82.9385 10.6709 83.0387 10.876 83.2393C11.0856 83.4398 11.1904 83.7269 11.1904 84.1006C11.1904 84.4606 11.0856 84.7454 10.876 84.9551C10.6663 85.1602 10.3747 85.2627 10.001 85.2627C9.61816 85.2627 9.32194 85.1624 9.1123 84.9619C8.90267 84.7568 8.79785 84.4697 8.79785 84.1006ZM19.4961 79.3496C19.4961 81.3184 19.0814 82.7881 18.252 83.7588C17.4225 84.7295 16.167 85.2148 14.4854 85.2148C13.8929 85.2148 13.444 85.1829 13.1387 85.1191V83.4238C13.5215 83.5195 13.9225 83.5674 14.3418 83.5674C15.0482 83.5674 15.6292 83.4648 16.085 83.2598C16.5407 83.0501 16.8893 82.7243 17.1309 82.2822C17.3724 81.8356 17.5114 81.2227 17.5479 80.4434H17.4658C17.2015 80.8717 16.8962 81.1725 16.5498 81.3457C16.2035 81.5189 15.7705 81.6055 15.251 81.6055C14.3805 81.6055 13.6947 81.3275 13.1934 80.7715C12.6921 80.2109 12.4414 79.4339 12.4414 78.4404C12.4414 77.3695 12.7445 76.5241 13.3506 75.9043C13.9613 75.2799 14.7907 74.9678 15.8389 74.9678C16.5771 74.9678 17.222 75.141 17.7734 75.4873C18.3294 75.8337 18.7555 76.3372 19.0518 76.998C19.348 77.6543 19.4961 78.4382 19.4961 79.3496ZM15.8799 76.6631C15.4424 76.6631 15.1006 76.8135 14.8545 77.1143C14.6084 77.415 14.4854 77.848 14.4854 78.4131C14.4854 78.8962 14.597 79.279 14.8203 79.5615C15.0436 79.8441 15.3831 79.9854 15.8389 79.9854C16.2673 79.9854 16.6341 79.8464 16.9395 79.5684C17.2448 79.2858 17.3975 78.9622 17.3975 78.5977C17.3975 78.0553 17.2539 77.5973 16.9668 77.2236C16.6842 76.8499 16.3219 76.6631 15.8799 76.6631ZM25.7031 75.084L21.9775 85.0781H20.084L23.8096 75.084H25.7031ZM29.9688 78.6934C30.9349 78.6934 31.7028 78.9645 32.2725 79.5068C32.8467 80.0492 33.1338 80.792 33.1338 81.7354C33.1338 82.8519 32.7897 83.7109 32.1016 84.3125C31.4134 84.9141 30.429 85.2148 29.1484 85.2148C28.0365 85.2148 27.1387 85.0348 26.4551 84.6748V82.8496C26.8151 83.041 27.2344 83.1982 27.7129 83.3213C28.1914 83.4398 28.6449 83.499 29.0732 83.499C30.363 83.499 31.0078 82.9704 31.0078 81.9131C31.0078 80.9059 30.3402 80.4023 29.0049 80.4023C28.7633 80.4023 28.4967 80.4274 28.2051 80.4775C27.9134 80.5231 27.6764 80.5732 27.4941 80.6279L26.6533 80.1768L27.0293 75.084H32.4502V76.875H28.8818L28.6973 78.8369L28.9365 78.7891C29.2145 78.7253 29.5586 78.6934 29.9688 78.6934ZM40.5166 74.4824H42.0137V88.2568H40.5166V74.4824ZM56.2598 79.3496C56.2598 81.3184 55.8451 82.7881 55.0156 83.7588C54.1862 84.7295 52.9307 85.2148 51.249 85.2148C50.6566 85.2148 50.2077 85.1829 49.9023 85.1191V83.4238C50.2852 83.5195 50.6862 83.5674 51.1055 83.5674C51.8118 83.5674 52.3929 83.4648 52.8486 83.2598C53.3044 83.0501 53.653 82.7243 53.8945 82.2822C54.1361 81.8356 54.2751 81.2227 54.3115 80.4434H54.2295C53.9652 80.8717 53.6598 81.1725 53.3135 81.3457C52.9671 81.5189 52.5342 81.6055 52.0146 81.6055C51.1442 81.6055 50.4583 81.3275 49.957 80.7715C49.4557 80.2109 49.2051 79.4339 49.2051 78.4404C49.2051 77.3695 49.5081 76.5241 50.1143 75.9043C50.7249 75.2799 51.5544 74.9678 52.6025 74.9678C53.3408 74.9678 53.9857 75.141 54.5371 75.4873C55.0931 75.8337 55.5192 76.3372 55.8154 76.998C56.1117 77.6543 56.2598 78.4382 56.2598 79.3496ZM52.6436 76.6631C52.2061 76.6631 51.8643 76.8135 51.6182 77.1143C51.3721 77.415 51.249 77.848 51.249 78.4131C51.249 78.8962 51.3607 79.279 51.584 79.5615C51.8073 79.8441 52.1468 79.9854 52.6025 79.9854C53.0309 79.9854 53.3978 79.8464 53.7031 79.5684C54.0085 79.2858 54.1611 78.9622 54.1611 78.5977C54.1611 78.0553 54.0176 77.5973 53.7305 77.2236C53.4479 76.8499 53.0856 76.6631 52.6436 76.6631ZM64.2441 80.0811C64.2441 81.8265 63.957 83.1185 63.3828 83.957C62.8132 84.7956 61.9336 85.2148 60.7441 85.2148C59.5911 85.2148 58.7207 84.7819 58.1328 83.916C57.5495 83.0501 57.2578 81.7718 57.2578 80.0811C57.2578 78.3174 57.5426 77.0186 58.1123 76.1846C58.682 75.346 59.5592 74.9268 60.7441 74.9268C61.8971 74.9268 62.7676 75.3643 63.3555 76.2393C63.9479 77.1143 64.2441 78.3949 64.2441 80.0811ZM59.3564 80.0811C59.3564 81.307 59.4613 82.1865 59.6709 82.7197C59.8851 83.2484 60.2428 83.5127 60.7441 83.5127C61.2363 83.5127 61.5918 83.2438 61.8105 82.7061C62.0293 82.1683 62.1387 81.2933 62.1387 80.0811C62.1387 78.8551 62.027 77.9756 61.8037 77.4424C61.585 76.9046 61.2318 76.6357 60.7441 76.6357C60.2474 76.6357 59.8919 76.9046 59.6777 77.4424C59.4635 77.9756 59.3564 78.8551 59.3564 80.0811ZM70.5332 85.0781H68.4209V79.2949L68.4414 78.3447L68.4756 77.3057C68.1247 77.6566 67.8809 77.8867 67.7441 77.9961L66.5957 78.9189L65.5771 77.6475L68.7969 75.084H70.5332V85.0781ZM80.2402 80.0811C80.2402 81.8265 79.9531 83.1185 79.3789 83.957C78.8092 84.7956 77.9297 85.2148 76.7402 85.2148C75.5872 85.2148 74.7168 84.7819 74.1289 83.916C73.5456 83.0501 73.2539 81.7718 73.2539 80.0811C73.2539 78.3174 73.5387 77.0186 74.1084 76.1846C74.6781 75.346 75.5553 74.9268 76.7402 74.9268C77.8932 74.9268 78.7637 75.3643 79.3516 76.2393C79.944 77.1143 80.2402 78.3949 80.2402 80.0811ZM75.3525 80.0811C75.3525 81.307 75.4574 82.1865 75.667 82.7197C75.8812 83.2484 76.2389 83.5127 76.7402 83.5127C77.2324 83.5127 77.5879 83.2438 77.8066 82.7061C78.0254 82.1683 78.1348 81.2933 78.1348 80.0811C78.1348 78.8551 78.0231 77.9756 77.7998 77.4424C77.5811 76.9046 77.2279 76.6357 76.7402 76.6357C76.2435 76.6357 75.888 76.9046 75.6738 77.4424C75.4596 77.9756 75.3525 78.8551 75.3525 80.0811ZM89.0039 77.4492C89.3366 77.4492 89.6351 77.4766 89.8994 77.5312L89.7422 78.584C89.4323 78.5156 89.1589 78.4814 88.9219 78.4814C88.3158 78.4814 87.7962 78.7275 87.3633 79.2197C86.9349 79.7119 86.7207 80.3249 86.7207 81.0586V85.0781H85.5859V77.5859H86.5225L86.6523 78.9736H86.707C86.985 78.486 87.32 78.11 87.7119 77.8457C88.1038 77.5814 88.5345 77.4492 89.0039 77.4492ZM94.4658 85.2148C93.3584 85.2148 92.4834 84.8776 91.8408 84.2031C91.2028 83.5286 90.8838 82.5921 90.8838 81.3936C90.8838 80.1859 91.18 79.2266 91.7725 78.5156C92.3695 77.8047 93.1693 77.4492 94.1719 77.4492C95.1107 77.4492 95.8535 77.7591 96.4004 78.3789C96.9473 78.9941 97.2207 79.8076 97.2207 80.8193V81.5371H92.0596C92.0824 82.4167 92.3034 83.0843 92.7227 83.54C93.1465 83.9958 93.7412 84.2236 94.5068 84.2236C95.3135 84.2236 96.111 84.055 96.8994 83.7178V84.7295C96.4984 84.9027 96.1178 85.0257 95.7578 85.0986C95.4023 85.1761 94.9717 85.2148 94.4658 85.2148ZM94.1582 78.3994C93.5566 78.3994 93.0758 78.5954 92.7158 78.9873C92.3604 79.3792 92.1507 79.9215 92.0869 80.6143H96.0039C96.0039 79.8988 95.8444 79.3519 95.5254 78.9736C95.2064 78.5908 94.7507 78.3994 94.1582 78.3994ZM100.803 85.0781L97.959 77.5859H99.1758L100.789 82.0293C101.154 83.0684 101.368 83.7428 101.432 84.0527H101.486C101.536 83.8112 101.694 83.3122 101.958 82.5557C102.227 81.7946 102.826 80.138 103.756 77.5859H104.973L102.129 85.0781H100.803ZM107.311 85.0781H106.176V77.5859H107.311V85.0781ZM106.08 75.5557C106.08 75.2959 106.144 75.1068 106.271 74.9883C106.399 74.8652 106.559 74.8037 106.75 74.8037C106.932 74.8037 107.09 74.8652 107.222 74.9883C107.354 75.1113 107.42 75.3005 107.42 75.5557C107.42 75.8109 107.354 76.0023 107.222 76.1299C107.09 76.2529 106.932 76.3145 106.75 76.3145C106.559 76.3145 106.399 76.2529 106.271 76.1299C106.144 76.0023 106.08 75.8109 106.08 75.5557ZM112.882 85.2148C111.774 85.2148 110.899 84.8776 110.257 84.2031C109.619 83.5286 109.3 82.5921 109.3 81.3936C109.3 80.1859 109.596 79.2266 110.188 78.5156C110.785 77.8047 111.585 77.4492 112.588 77.4492C113.527 77.4492 114.27 77.7591 114.816 78.3789C115.363 78.9941 115.637 79.8076 115.637 80.8193V81.5371H110.476C110.498 82.4167 110.719 83.0843 111.139 83.54C111.562 83.9958 112.157 84.2236 112.923 84.2236C113.729 84.2236 114.527 84.055 115.315 83.7178V84.7295C114.914 84.9027 114.534 85.0257 114.174 85.0986C113.818 85.1761 113.388 85.2148 112.882 85.2148ZM112.574 78.3994C111.973 78.3994 111.492 78.5954 111.132 78.9873C110.776 79.3792 110.567 79.9215 110.503 80.6143H114.42C114.42 79.8988 114.26 79.3519 113.941 78.9736C113.622 78.5908 113.167 78.3994 112.574 78.3994ZM123.696 85.0781L122.322 80.6826C122.236 80.4137 122.074 79.8031 121.837 78.8506H121.782C121.6 79.6481 121.44 80.2633 121.304 80.6963L119.889 85.0781H118.576L116.532 77.5859H117.722C118.205 79.4681 118.572 80.9014 118.822 81.8857C119.077 82.8701 119.223 83.5332 119.26 83.875H119.314C119.365 83.6152 119.444 83.2803 119.554 82.8701C119.668 82.4554 119.766 82.1273 119.848 81.8857L121.222 77.5859H122.452L123.792 81.8857C124.047 82.6696 124.22 83.3281 124.312 83.8613H124.366C124.384 83.6973 124.432 83.4443 124.51 83.1025C124.592 82.7607 125.068 80.9219 125.938 77.5859H127.114L125.043 85.0781H123.696ZM133.308 83.0342C133.308 83.7314 133.048 84.2692 132.528 84.6475C132.009 85.0257 131.28 85.2148 130.341 85.2148C129.347 85.2148 128.573 85.0576 128.017 84.7432V83.6904C128.377 83.8727 128.762 84.0163 129.172 84.1211C129.587 84.2259 129.985 84.2783 130.368 84.2783C130.961 84.2783 131.416 84.1849 131.735 83.998C132.054 83.8066 132.214 83.5173 132.214 83.1299C132.214 82.8382 132.086 82.5898 131.831 82.3848C131.58 82.1751 131.088 81.929 130.354 81.6465C129.657 81.3867 129.16 81.1611 128.864 80.9697C128.573 80.7738 128.354 80.5527 128.208 80.3066C128.067 80.0605 127.996 79.7666 127.996 79.4248C127.996 78.8141 128.244 78.3333 128.741 77.9824C129.238 77.627 129.919 77.4492 130.785 77.4492C131.592 77.4492 132.38 77.6133 133.15 77.9414L132.747 78.8643C131.995 78.5544 131.314 78.3994 130.703 78.3994C130.165 78.3994 129.76 78.4837 129.486 78.6523C129.213 78.821 129.076 79.0534 129.076 79.3496C129.076 79.5501 129.126 79.721 129.227 79.8623C129.331 80.0036 129.498 80.138 129.726 80.2656C129.953 80.3932 130.391 80.5778 131.038 80.8193C131.927 81.1429 132.526 81.4688 132.836 81.7969C133.15 82.125 133.308 82.5374 133.308 83.0342Z" fill="#454545"/>
<defs>
<clipPath id="clip0_933_7794">
<rect width="110" height="27.01" fill="white"/>
</clipPath>
<clipPath id="clip1_933_7794">
<rect width="155" height="29.06" fill="white" transform="translate(0 37.0117)"/>
</clipPath>
</defs>
</svg>
