<svg width="51" height="51" viewBox="0 0 51 51" fill="none" xmlns="http://www.w3.org/2000/svg">
<rect opacity="0.1" width="51" height="51" rx="15" fill="#473BF0"/>
<path d="M34.949 32.01C34.949 32.01 34.949 32.0224 34.9366 32.01C34.7728 32.1756 34.5777 32.3069 34.3627 32.3963C34.1477 32.4857 33.917 32.5315 33.6842 32.5308H33.4858L33.3742 32.506C33.0395 32.4498 32.7265 32.3035 32.4688 32.0828C32.211 31.8622 32.0182 31.5755 31.9109 31.2536L31.8242 30.9932C31.5142 30.9064 31.2041 30.832 30.8818 30.77C31.042 30.3228 31.1785 29.8675 31.2909 29.406L31.1595 29.0092H31.167L30.609 27.3352C30.5621 27.3554 30.511 27.3639 30.4601 27.36C30.3789 27.3615 30.2983 27.3446 30.2245 27.3104C30.0754 27.244 29.9562 27.1247 29.8898 26.9756C29.857 26.9014 29.8401 26.8211 29.8401 26.74C29.8401 26.6589 29.857 26.5786 29.8898 26.5044C29.9562 26.3553 30.0754 26.236 30.2245 26.1696L29.7038 24.6196C29.5973 24.2908 29.5826 23.9392 29.6613 23.6027C29.7399 23.2662 29.909 22.9575 30.1502 22.71C30.1836 22.6765 30.2246 22.6505 30.2605 22.6195C30.4184 22.4806 30.5987 22.3695 30.7937 22.2909L30.8185 22.2835C30.9942 22.2174 31.1791 22.1793 31.3666 22.1706C31.3988 22.1706 31.4311 22.1607 31.4633 22.1607C31.6657 22.1624 31.8665 22.1959 32.0585 22.2599L38.6553 24.4547V23.2271C38.6553 22.8982 38.5247 22.5828 38.2921 22.3503C38.0596 22.1177 37.7442 21.9871 37.4153 21.9871H36.7308C36.2995 20.6 35.6123 19.3058 34.7047 18.1716L34.6935 18.158C33.5944 16.7727 32.1966 15.6537 30.6043 14.8844C29.0121 14.1152 27.2666 13.7157 25.4983 13.7157C23.73 13.7157 21.9845 14.1152 20.3923 14.8844C18.8 15.6537 17.4022 16.7727 16.3031 18.158V18.1654C15.3906 19.3014 14.7003 20.5992 14.2682 21.9908H13.5838C13.2549 21.9908 12.9395 22.1215 12.7069 22.354C12.4744 22.5865 12.3438 22.9019 12.3438 23.2308V27.7692C12.3438 28.0981 12.4744 28.4135 12.7069 28.646C12.9395 28.8786 13.2549 29.0092 13.5838 29.0092H14.2682C14.6952 30.384 15.3757 31.6667 16.2746 32.7912C17.3482 34.159 18.7125 35.271 20.2686 36.0469C21.8247 36.8228 23.5338 37.2431 25.2723 37.2776C27.0108 37.312 28.7352 36.9596 30.3208 36.2459C31.9064 35.5322 33.3136 34.475 34.4405 33.1508H34.4529C34.7132 32.8486 34.9535 32.5296 35.1721 32.196L35.2466 32.0844C35.1788 32.0331 35.1164 31.9749 35.0606 31.9108C35.0265 31.9473 34.9892 31.9805 34.949 32.01ZM30.103 29.0092C29.9751 29.5319 29.8127 30.0455 29.6169 30.5468C28.4601 30.3615 27.2916 30.2579 26.1201 30.2368V29.0092H30.103ZM25.9341 27.174C25.8503 27.2631 25.7409 27.324 25.621 27.3484C25.5011 27.3728 25.3766 27.3596 25.2646 27.3104C25.1513 27.2639 25.0544 27.1849 24.986 27.0834C24.9176 26.9819 24.8808 26.8624 24.8801 26.74V24.26C24.8801 24.0956 24.9455 23.9379 25.0617 23.8216C25.178 23.7053 25.3357 23.64 25.5001 23.64C25.6646 23.64 25.8223 23.7053 25.9386 23.8216C26.0548 23.9379 26.1201 24.0956 26.1201 24.26V25.2396L26.3061 25.066C26.3621 25.0072 26.4294 24.9603 26.504 24.9283C26.5786 24.8963 26.659 24.8798 26.7401 24.8798C26.8213 24.8798 26.9017 24.8963 26.9763 24.9283C27.0509 24.9603 27.1182 25.0072 27.1742 25.066L27.3601 25.2396V24.26C27.3601 24.0956 27.4255 23.9379 27.5417 23.8216C27.658 23.7053 27.8157 23.64 27.9801 23.64C28.1446 23.64 28.3023 23.7053 28.4186 23.8216C28.5348 23.9379 28.6001 24.0956 28.6001 24.26V26.74C28.5995 26.8624 28.5627 26.9819 28.4943 27.0834C28.4259 27.1849 28.329 27.2639 28.2157 27.3104C28.142 27.3446 28.0614 27.3615 27.9801 27.36C27.8988 27.3611 27.8182 27.3451 27.7434 27.313C27.6687 27.281 27.6015 27.2336 27.5461 27.174L26.7401 26.3804L25.9341 27.174ZM26.1201 15.5478C27.3464 16.569 28.3547 17.8265 29.085 19.2455C28.1021 19.3822 27.1122 19.4621 26.1201 19.4848V15.5478ZM24.8801 15.5478V19.4848C23.8886 19.4619 22.8991 19.3824 21.9165 19.2467C22.6461 17.8269 23.654 16.5698 24.8801 15.5478ZM24.8801 20.7558V21.9958H20.8886C21.0187 21.4706 21.1819 20.9541 21.3772 20.4495C22.537 20.6267 23.7071 20.7278 24.8801 20.7521V20.7558ZM20.3046 27.3104C20.1913 27.2639 20.0944 27.1849 20.026 27.0834C19.9576 26.9819 19.9208 26.8624 19.9202 26.74V24.26C19.9202 24.0956 19.9855 23.9379 20.1017 23.8216C20.218 23.7053 20.3757 23.64 20.5402 23.64C20.7046 23.64 20.8623 23.7053 20.9786 23.8216C21.0948 23.9379 21.1602 24.0956 21.1602 24.26V25.2396L21.3461 25.066C21.4021 25.0072 21.4694 24.9603 21.544 24.9283C21.6186 24.8963 21.699 24.8798 21.7802 24.8798C21.8613 24.8798 21.9417 24.8963 22.0163 24.9283C22.0909 24.9603 22.1582 25.0072 22.2142 25.066L22.4001 25.2396V24.26C22.4001 24.0956 22.4655 23.9379 22.5817 23.8216C22.698 23.7053 22.8557 23.64 23.0201 23.64C23.1846 23.64 23.3423 23.7053 23.4586 23.8216C23.5748 23.9379 23.6402 24.0956 23.6402 24.26V26.74C23.6395 26.8624 23.6027 26.9819 23.5343 27.0834C23.4659 27.1849 23.369 27.2639 23.2557 27.3104C23.182 27.3446 23.1014 27.3615 23.0201 27.36C22.9388 27.3611 22.8582 27.3451 22.7834 27.313C22.7087 27.281 22.6415 27.2336 22.5861 27.174L21.7802 26.3804L20.9742 27.174C20.8907 27.2637 20.7813 27.3251 20.6612 27.3495C20.5412 27.374 20.4165 27.3603 20.3046 27.3104ZM24.8801 29.0092V30.2368C23.7046 30.2579 22.532 30.3615 21.371 30.5468C21.1784 30.0448 21.0173 29.5313 20.8886 29.0092H24.8801ZM24.8801 31.4768V35.4585C23.6446 34.4287 22.632 33.1579 21.9042 31.7236C22.89 31.5787 23.8839 31.4963 24.8801 31.4768ZM26.1201 35.4535V31.4768C27.1167 31.4901 28.1111 31.573 29.0961 31.7248C28.3688 33.1577 27.3561 34.4266 26.1201 35.4535ZM26.1201 21.9908V20.7508C27.2933 20.7249 28.4635 20.6222 29.6231 20.4433C29.8186 20.9479 29.9817 21.4643 30.1117 21.9896L26.1201 21.9908ZM31.3715 21.9908C31.2393 21.3889 31.0682 20.7962 30.8594 20.2164C31.9346 19.9953 32.9926 19.6974 34.0252 19.3248C34.617 20.1411 35.0869 21.0392 35.4202 21.9908H31.3715ZM33.1745 18.2993C32.257 18.6103 31.3195 18.8589 30.3684 19.0433C29.6872 17.5951 28.7438 16.2855 27.5858 15.1807C29.7251 15.6207 31.6767 16.7098 33.1745 18.2993ZM23.4132 15.1795C22.256 16.2853 21.3116 17.5941 20.627 19.0409C19.6775 18.8564 18.7416 18.6078 17.8258 18.2969C19.3231 16.7076 21.2744 15.6189 23.4132 15.1795ZM16.9752 19.3248C18.0035 19.6963 19.0574 19.993 20.1285 20.2127C19.9189 20.7937 19.747 21.3876 19.6139 21.9908H15.5802C15.9134 21.0392 16.3833 20.1411 16.9752 19.3248ZM15.3446 27.3104C15.2313 27.2639 15.1344 27.1849 15.066 27.0834C14.9976 26.9819 14.9608 26.8624 14.9602 26.74V24.26C14.9602 24.0956 15.0255 23.9379 15.1417 23.8216C15.258 23.7053 15.4157 23.64 15.5802 23.64C15.7446 23.64 15.9023 23.7053 16.0186 23.8216C16.1348 23.9379 16.2002 24.0956 16.2002 24.26V25.2396L16.3862 25.066C16.4421 25.0072 16.5094 24.9603 16.584 24.9283C16.6586 24.8963 16.739 24.8798 16.8202 24.8798C16.9013 24.8798 16.9817 24.8963 17.0563 24.9283C17.1309 24.9603 17.1982 25.0072 17.2541 25.066L17.4402 25.2396V24.26C17.4402 24.0956 17.5055 23.9379 17.6217 23.8216C17.738 23.7053 17.8957 23.64 18.0602 23.64C18.2246 23.64 18.3823 23.7053 18.4986 23.8216C18.6148 23.9379 18.6802 24.0956 18.6802 24.26V26.74C18.6795 26.8624 18.6427 26.9819 18.5743 27.0834C18.5059 27.1849 18.409 27.2639 18.2958 27.3104C18.222 27.3446 18.1414 27.3615 18.0602 27.36C17.9788 27.3611 17.8982 27.3451 17.8234 27.313C17.7487 27.281 17.6815 27.2336 17.6262 27.174L16.8202 26.3804L16.0142 27.174C15.9307 27.2637 15.8213 27.3251 15.7012 27.3495C15.5812 27.374 15.4565 27.3603 15.3446 27.3104ZM19.6139 29.0092C19.746 29.6062 19.9154 30.1942 20.121 30.77C19.0499 30.9869 17.997 31.2854 16.9714 31.6628C16.3903 30.8492 15.9308 29.9553 15.6074 29.0092H19.6139ZM17.7998 32.6796C18.7191 32.3648 19.6597 32.1161 20.6146 31.9356C21.2991 33.3909 22.2466 34.7071 23.4095 35.8181C21.259 35.3801 19.2982 34.2831 17.7998 32.6796ZM27.5834 35.8292C28.7532 34.7184 29.7038 33.3976 30.3857 31.9356C31.3418 32.116 32.2828 32.3689 33.2006 32.692C31.709 34.308 29.7415 35.4068 27.5834 35.8292ZM38.731 28.9596C38.7391 29.0491 38.7266 29.1393 38.6944 29.2231C38.6621 29.307 38.611 29.3823 38.545 29.4432L36.8834 31.1048C36.8224 31.1709 36.7471 31.222 36.6633 31.2542C36.5794 31.2865 36.4892 31.299 36.3998 31.2908C36.3089 31.2834 36.2208 31.2563 36.1416 31.2113C36.0623 31.1663 35.9939 31.1046 35.941 31.0304L35.9162 30.9932L35.3829 30.2492L35.0606 29.8028L34.7505 30.2492L34.1926 31.0304C34.1334 31.1099 34.0568 31.1747 33.9687 31.2199C33.8805 31.265 33.7832 31.2893 33.6842 31.2908C33.6506 31.2928 33.617 31.2886 33.585 31.2784C33.4721 31.264 33.3656 31.2179 33.2778 31.1455C33.19 31.0731 33.1246 30.9773 33.089 30.8692L32.8782 30.2492L32.469 29.0092L30.8818 24.2228C30.8464 24.1141 30.8419 23.9977 30.8686 23.8865C30.8953 23.7754 30.9522 23.6737 31.033 23.5929C31.1139 23.512 31.2155 23.4551 31.3267 23.4284C31.4378 23.4017 31.5542 23.4063 31.6629 23.4416L38.3094 25.6488C38.4582 25.7011 38.5821 25.8073 38.6566 25.9464C38.6901 26.0078 38.7112 26.0752 38.7186 26.1448C38.7428 26.2763 38.7209 26.412 38.6566 26.5292C38.6154 26.6155 38.551 26.6885 38.4706 26.74L37.243 27.6204L38.4706 28.5008C38.5448 28.5543 38.6079 28.6217 38.6566 28.6992C38.6943 28.7818 38.7194 28.8696 38.731 28.9596Z" fill="#473BF0"/>
</svg>
