<svg width="51" height="51" viewBox="0 0 51 51" fill="none" xmlns="http://www.w3.org/2000/svg">
<rect opacity="0.1" width="51" height="51" rx="15" fill="#FF7500"/>
<path d="M40.4487 18.42V31.855C40.4512 31.8933 40.4512 31.9317 40.4487 31.97L32.2237 24.64L40.4487 18.42ZM21.4037 24L24.1937 26.11C24.7139 26.5019 25.3475 26.7138 25.9987 26.7138C26.65 26.7138 27.2835 26.5019 27.8037 26.11L30.5937 24L40.1187 16.8C39.8678 16.3089 39.4862 15.8964 39.0161 15.6079C38.5459 15.3195 38.0053 15.1662 37.4537 15.165H14.5437C13.9921 15.1662 13.4516 15.3195 12.9814 15.6079C12.5112 15.8964 12.1297 16.3089 11.8787 16.8L21.4037 24ZM11.5487 18.42V31.855C11.5463 31.8933 11.5463 31.9317 11.5487 31.97L19.7737 24.64L11.5487 18.42ZM28.7087 27.295C27.928 27.884 26.9767 28.2026 25.9987 28.2026C25.0208 28.2026 24.0694 27.884 23.2887 27.295L20.9987 25.56L12.0637 33.525C12.3399 33.9336 12.7124 34.2677 13.1485 34.498C13.5845 34.7282 14.0706 34.8474 14.5637 34.845H37.4537C37.9468 34.8474 38.4329 34.7282 38.869 34.498C39.305 34.2677 39.6776 33.9336 39.9537 33.525L30.9987 25.56L28.7087 27.295Z" fill="#FF7500"/>
</svg>
