<svg width="51" height="51" viewBox="0 0 51 51" fill="none" xmlns="http://www.w3.org/2000/svg">
<rect opacity="0.1" width="51" height="51" rx="15" fill="#05D71A"/>
<path d="M26.002 13.2166C26.002 13.2166 22.2494 17.0039 15.3594 17.0039V28.3399C15.3594 29.5359 15.706 30.7232 16.3907 31.7026C17.76 33.6439 20.6547 36.7726 26.002 38.7832C31.3494 36.7726 34.244 33.6439 35.6134 31.7026C36.3067 30.7232 36.6447 29.5446 36.6447 28.3399V17.0039C29.7547 17.0039 26.002 13.2166 26.002 13.2166ZM22.8214 28.1492C22.6394 28.4439 22.3707 28.6606 22.0327 28.7992C21.6947 28.9379 21.27 29.0159 20.7674 29.0159C20.0307 29.0159 19.4674 28.8426 19.0687 28.5046C18.67 28.1666 18.436 27.6726 18.358 27.0139L19.502 26.9012C19.5714 27.2826 19.71 27.5686 19.918 27.7506C20.126 27.9326 20.412 28.0192 20.7674 28.0192C21.1487 28.0192 21.4347 27.9412 21.6254 27.7766C21.816 27.6206 21.9114 27.4299 21.9114 27.2132C21.9114 27.0746 21.868 26.9619 21.79 26.8579C21.712 26.7539 21.5647 26.6759 21.3654 26.6066C21.2267 26.5632 20.9147 26.4766 20.4207 26.3552C19.788 26.1992 19.346 26.0086 19.0947 25.7832C18.7394 25.4626 18.5574 25.0726 18.5574 24.6132C18.5574 24.3186 18.644 24.0412 18.8087 23.7812C18.9734 23.5212 19.216 23.3306 19.5367 23.1919C19.8574 23.0532 20.2387 22.9926 20.6807 22.9926C21.4087 22.9926 21.9634 23.1486 22.3274 23.4692C22.7 23.7899 22.8907 24.2146 22.908 24.7519L21.7294 24.8039C21.6774 24.5006 21.5734 24.2926 21.4087 24.1626C21.244 24.0326 20.9927 23.9632 20.6634 23.9632C20.3254 23.9632 20.0567 24.0326 19.8574 24.1712C19.736 24.2579 19.6667 24.3792 19.6667 24.5352C19.6667 24.6739 19.7274 24.7866 19.84 24.8906C19.9874 25.0119 20.3514 25.1419 20.9234 25.2806C21.4954 25.4192 21.92 25.5579 22.1887 25.6966C22.466 25.8439 22.674 26.0346 22.83 26.2859C22.986 26.5372 23.064 26.8492 23.064 27.2132C23.0987 27.5426 23.0034 27.8632 22.8214 28.1492ZM28.2467 28.1492C28.0647 28.4439 27.796 28.6606 27.458 28.7992C27.12 28.9379 26.6954 29.0159 26.1927 29.0159C25.456 29.0159 24.8927 28.8426 24.494 28.5046C24.0954 28.1666 23.8614 27.6726 23.7834 27.0139L24.9274 26.9012C24.9967 27.2826 25.1354 27.5686 25.3434 27.7506C25.5514 27.9326 25.8374 28.0192 26.1927 28.0192C26.574 28.0192 26.86 27.9412 27.0507 27.7766C27.2414 27.6119 27.3367 27.4299 27.3367 27.2132C27.3367 27.0746 27.2934 26.9619 27.2154 26.8579C27.1374 26.7539 26.99 26.6759 26.7907 26.6066C26.652 26.5632 26.34 26.4766 25.846 26.3552C25.2134 26.1992 24.7714 26.0086 24.52 25.7832C24.1647 25.4626 23.9827 25.0726 23.9827 24.6132C23.9827 24.3186 24.0694 24.0412 24.234 23.7812C24.3987 23.5212 24.6414 23.3306 24.962 23.1919C25.2827 23.0532 25.664 22.9926 26.106 22.9926C26.834 22.9926 27.3887 23.1486 27.7527 23.4692C28.1254 23.7899 28.316 24.2146 28.3334 24.7519L27.1547 24.8039C27.1027 24.5006 26.9987 24.2926 26.834 24.1626C26.6694 24.0326 26.418 23.9632 26.0887 23.9632C25.7507 23.9632 25.482 24.0326 25.2827 24.1712C25.1614 24.2579 25.092 24.3792 25.092 24.5352C25.092 24.6739 25.1527 24.7866 25.2654 24.8906C25.4127 25.0119 25.7767 25.1419 26.3487 25.2806C26.9207 25.4192 27.3454 25.5579 27.614 25.6966C27.8914 25.8439 28.0994 26.0346 28.2554 26.2859C28.4114 26.5372 28.4894 26.8492 28.4894 27.2132C28.524 27.5426 28.4287 27.8632 28.2467 28.1492ZM33.6374 28.9119H29.538V23.1399H30.7167V27.9326H33.6374V28.9119Z" fill="#05D71A"/>
</svg>
