<svg width="51" height="51" viewBox="0 0 51 51" fill="none" xmlns="http://www.w3.org/2000/svg">
<rect opacity="0.1" width="51" height="51" rx="15" fill="#9CA563"/>
<path d="M26 14C22.9237 14.0088 19.9682 15.1987 17.744 17.324V15.2C17.744 14.8817 17.6176 14.5765 17.3925 14.3515C17.1675 14.1264 16.8623 14 16.544 14C16.2257 14 15.9205 14.1264 15.6955 14.3515C15.4704 14.5765 15.344 14.8817 15.344 15.2V20.6C15.344 20.9183 15.4704 21.2235 15.6955 21.4485C15.9205 21.6736 16.2257 21.8 16.544 21.8H21.944C22.2623 21.8 22.5675 21.6736 22.7925 21.4485C23.0176 21.2235 23.144 20.9183 23.144 20.6C23.144 20.2817 23.0176 19.9765 22.7925 19.7515C22.5675 19.5264 22.2623 19.4 21.944 19.4H19.064C20.6069 17.7876 22.6634 16.7632 24.8798 16.5028C27.0963 16.2424 29.3342 16.7624 31.2088 17.9733C33.0834 19.1841 34.4775 21.0103 35.1516 23.1377C35.8256 25.2652 35.7374 27.561 34.9021 29.6305C34.0668 31.6999 32.5366 33.4137 30.5746 34.4772C28.6126 35.5406 26.3414 35.8873 24.1515 35.4576C21.9615 35.0279 19.9898 33.8486 18.5751 32.1226C17.1605 30.3966 16.3913 28.2317 16.4 26C16.4 25.6817 16.2736 25.3765 16.0485 25.1515C15.8235 24.9264 15.5183 24.8 15.2 24.8C14.8817 24.8 14.5765 24.9264 14.3515 25.1515C14.1264 25.3765 14 25.6817 14 26C14 28.3734 14.7038 30.6934 16.0224 32.6668C17.3409 34.6402 19.2151 36.1783 21.4078 37.0865C23.6005 37.9948 26.0133 38.2324 28.3411 37.7694C30.6688 37.3064 32.807 36.1635 34.4853 34.4853C36.1635 32.807 37.3064 30.6688 37.7694 28.3411C38.2324 26.0133 37.9948 23.6005 37.0865 21.4078C36.1783 19.2151 34.6402 17.3409 32.6668 16.0224C30.6934 14.7038 28.3734 14 26 14ZM26 21.2C25.6817 21.2 25.3765 21.3264 25.1515 21.5515C24.9264 21.7765 24.8 22.0817 24.8 22.4V26C24.8 26.3183 24.9264 26.6235 25.1515 26.8485C25.3765 27.0736 25.6817 27.2 26 27.2H28.4C28.7183 27.2 29.0235 27.0736 29.2485 26.8485C29.4736 26.6235 29.6 26.3183 29.6 26C29.6 25.6817 29.4736 25.3765 29.2485 25.1515C29.0235 24.9264 28.7183 24.8 28.4 24.8H27.2V22.4C27.2 22.0817 27.0736 21.7765 26.8485 21.5515C26.6235 21.3264 26.3183 21.2 26 21.2Z" fill="#9CA563"/>
</svg>
