<svg width="51" height="51" viewBox="0 0 51 51" fill="none" xmlns="http://www.w3.org/2000/svg">
<rect opacity="0.1" width="51" height="51" rx="15" fill="#57B3FE"/>
<path d="M37 20C36.0349 20.0116 35.1065 20.3717 34.3861 21.014C33.6656 21.6563 33.2017 22.5374 33.0799 23.4949C32.9581 24.4523 33.1866 25.4216 33.7233 26.2238C34.2599 27.026 35.0685 27.6071 36 27.86V33C36 33.2652 36.1054 33.5196 36.2929 33.7071C36.4804 33.8946 36.7348 34 37 34C37.2652 34 37.5196 33.8946 37.7071 33.7071C37.8946 33.5196 38 33.2652 38 33V27.86C38.9315 27.6071 39.7401 27.026 40.2767 26.2238C40.8134 25.4216 41.0419 24.4523 40.9201 23.4949C40.7983 22.5374 40.3344 21.6563 39.6139 21.014C38.8935 20.3717 37.9651 20.0116 37 20ZM15 21V17.82C15.6672 17.5841 16.2296 17.1199 16.5876 16.5095C16.9457 15.8991 17.0765 15.1818 16.9568 14.4843C16.8371 13.7868 16.4747 13.154 15.9337 12.6979C15.3926 12.2418 14.7077 11.9916 14 11.9916C13.2923 11.9916 12.6074 12.2418 12.0663 12.6979C11.5253 13.154 11.1629 13.7868 11.0432 14.4843C10.9235 15.1818 11.0543 15.8991 11.4124 16.5095C11.7705 17.1199 12.3328 17.5841 13 17.82V21C13 21.2652 13.1054 21.5196 13.2929 21.7071C13.4804 21.8946 13.7348 22 14 22C14.2652 22 14.5196 21.8946 14.7071 21.7071C14.8946 21.5196 15 21.2652 15 21ZM33.59 34.33L15.53 23.15C15.4184 23.0804 15.2941 23.0335 15.1644 23.0119C15.0346 22.9903 14.9019 22.9945 14.7737 23.0242C14.5149 23.0842 14.2906 23.2446 14.15 23.47C14.0094 23.6954 13.9642 23.9675 14.0242 24.2263C14.0842 24.4851 14.2446 24.7094 14.47 24.85L32.54 36L32.01 36.85L36 37L34.11 33.49L33.59 34.33Z" fill="#57B3FE"/>
</svg>
