<svg width="51" height="51" viewBox="0 0 51 51" fill="none" xmlns="http://www.w3.org/2000/svg">
<rect opacity="0.1" width="51" height="51" rx="15" fill="#FF6757"/>
<path d="M15.1668 24.9995C15.1661 29.1508 17.5375 32.9374 21.2726 34.7491L16.1046 20.5908C15.4851 21.978 15.1656 23.4803 15.1668 24.9995ZM26.1904 25.9472L22.9395 35.3919C25.122 36.0346 27.4515 35.9742 29.5977 35.2191C29.5675 35.1717 29.5416 35.1217 29.5201 35.0698L26.1904 25.9472ZM33.3134 24.4532C33.2989 23.3937 32.9897 22.3592 32.4203 21.4656C31.8381 20.733 31.4698 19.8536 31.3562 18.9247C31.3299 17.8924 32.1431 17.0329 33.1754 17.0021C33.2235 17.0021 33.269 17.0079 33.3157 17.0108C28.9048 12.9704 22.0537 13.2708 18.0133 17.6816C17.6224 18.1083 17.2663 18.5657 16.9486 19.0493C17.2028 19.0574 17.4424 19.0625 17.6457 19.0625C18.7786 19.0625 20.5331 18.9247 20.5331 18.9247C20.78 18.9104 20.9918 19.099 21.0061 19.3459C21.0199 19.586 20.8417 19.7942 20.6023 19.8175C20.6023 19.8175 20.0151 19.8862 19.3626 19.9204L23.3073 31.6548L25.6785 24.5447L23.9906 19.9204C23.407 19.8862 22.8544 19.8175 22.8544 19.8175C22.6083 19.7937 22.428 19.5749 22.4517 19.3288C22.4749 19.0892 22.6832 18.9109 22.9234 18.9247C22.9234 18.9247 24.712 19.0626 25.7763 19.0626C26.9092 19.0626 28.664 18.9247 28.664 18.9247C28.9109 18.9103 29.1228 19.0987 29.1372 19.3456C29.1513 19.586 28.9727 19.7945 28.7331 19.8175C28.7331 19.8175 28.1454 19.8863 27.4934 19.9204L31.4083 31.5655L32.5258 28.0243C32.9622 26.8791 33.2276 25.6758 33.3134 24.4532ZM35.5794 20.9164C35.5606 22.2511 35.2807 23.5694 34.7553 24.7966L31.4466 34.3631C36.5213 31.4111 38.3216 24.9545 35.5065 19.8025C35.5558 20.1717 35.5801 20.5439 35.5794 20.9164ZM26 12C18.8203 12 13 17.8203 13 25C13 32.1797 18.8203 38 26 38C33.1797 38 39 32.1797 39 25C39 17.8203 33.1797 12 26 12ZM30.7563 36.2599C26.9519 37.8699 22.5912 37.4461 19.1682 35.1335C17.2033 33.8069 15.6651 31.9391 14.7399 29.7563C13.1295 25.9519 13.5535 21.5911 15.8666 18.1682C17.1929 16.2031 19.0607 14.6648 21.2437 13.74C25.0481 12.13 29.4088 12.5538 32.8318 14.8664C34.7967 16.193 36.3349 18.0608 37.2601 20.2436C38.8705 24.048 38.4465 28.4088 36.1334 31.8317C34.8071 33.7968 32.9393 35.3351 30.7563 36.2599Z" fill="#FF6757"/>
</svg>
